<svg width="413" height="47" viewBox="0 0 413 47" fill="none" xmlns="http://www.w3.org/2000/svg">
<path d="M47.1 46H0.72V39.52C0.72 33.16 1.56 27.28 18.36 22L25.5 19.84C31.44 18.1 33 16.9 33 14.68C33 12.28 31.44 10.36 24.06 10.36C15.3 10.36 14.58 15.28 14.4 17.44H1.5V17.02C1.5 10.96 4.5 0.819999 22.5 0.819999H25.2C41.16 0.819999 46.08 7 46.08 14.62V15.1C46.08 22.84 41.76 26.08 29.34 28.96C26.94 29.5 24.3 30.1 22.2 30.64C13.38 32.86 11.82 34.36 11.82 35.32H47.1V46ZM78.5789 46.66H76.1789C57.5189 46.66 54.7589 37.24 54.7589 33.52V32.68H67.7789C67.9589 33.7 69.2789 36.7 77.4989 36.7C85.2389 36.7 87.6989 34.18 87.6989 31.18V30.82C87.6989 27.64 85.4189 25.48 77.4989 25.48C69.5189 25.48 67.8389 27.82 67.6589 28.96H55.4189V1.36H96.8789V11.5H67.6589V19.78C68.1389 19.3 72.1589 16.3 80.1989 16.3H80.7989C96.3389 16.3 99.9989 23.56 99.9989 30.16V30.88C99.9989 37.66 95.7389 46.66 78.5789 46.66ZM126.27 46V1.36H142.71L156.93 31.6L171.57 1.36H186.99V46H174.93V16.78L161.37 46H151.71L138.15 16.78V46H126.27ZM229.187 28.54L221.087 10.36L213.227 28.54H229.187ZM236.987 46L233.327 37.72H209.207L205.607 46H193.187L212.987 1.36H229.547L250.247 46H236.987ZM286.647 31.72H268.767V46H256.407V1.36H286.647C300.747 1.36 305.127 7.54 305.127 16.18V16.84C305.127 25.3 300.567 31.72 286.647 31.72ZM268.767 11.32V21.76H285.747C290.307 21.76 292.287 19.84 292.287 16.66V16.42C292.287 13.3 290.307 11.32 285.747 11.32H268.767ZM327.997 46V11.56H310.717V1.36H357.577V11.56H340.297V46H327.997ZM391.902 28.54L383.802 10.36L375.942 28.54H391.902ZM399.702 46L396.042 37.72H371.922L368.322 46H355.902L375.702 1.36H392.262L412.962 46H399.702Z" fill="url(#paint0_linear_2018_1324)"/>
<path d="M47.1 46H0.72V39.52C0.72 33.16 1.56 27.28 18.36 22L25.5 19.84C31.44 18.1 33 16.9 33 14.68C33 12.28 31.44 10.36 24.06 10.36C15.3 10.36 14.58 15.28 14.4 17.44H1.5V17.02C1.5 10.96 4.5 0.819999 22.5 0.819999H25.2C41.16 0.819999 46.08 7 46.08 14.62V15.1C46.08 22.84 41.76 26.08 29.34 28.96C26.94 29.5 24.3 30.1 22.2 30.64C13.38 32.86 11.82 34.36 11.82 35.32H47.1V46ZM78.5789 46.66H76.1789C57.5189 46.66 54.7589 37.24 54.7589 33.52V32.68H67.7789C67.9589 33.7 69.2789 36.7 77.4989 36.7C85.2389 36.7 87.6989 34.18 87.6989 31.18V30.82C87.6989 27.64 85.4189 25.48 77.4989 25.48C69.5189 25.48 67.8389 27.82 67.6589 28.96H55.4189V1.36H96.8789V11.5H67.6589V19.78C68.1389 19.3 72.1589 16.3 80.1989 16.3H80.7989C96.3389 16.3 99.9989 23.56 99.9989 30.16V30.88C99.9989 37.66 95.7389 46.66 78.5789 46.66ZM126.27 46V1.36H142.71L156.93 31.6L171.57 1.36H186.99V46H174.93V16.78L161.37 46H151.71L138.15 16.78V46H126.27ZM229.187 28.54L221.087 10.36L213.227 28.54H229.187ZM236.987 46L233.327 37.72H209.207L205.607 46H193.187L212.987 1.36H229.547L250.247 46H236.987ZM286.647 31.72H268.767V46H256.407V1.36H286.647C300.747 1.36 305.127 7.54 305.127 16.18V16.84C305.127 25.3 300.567 31.72 286.647 31.72ZM268.767 11.32V21.76H285.747C290.307 21.76 292.287 19.84 292.287 16.66V16.42C292.287 13.3 290.307 11.32 285.747 11.32H268.767ZM327.997 46V11.56H310.717V1.36H357.577V11.56H340.297V46H327.997ZM391.902 28.54L383.802 10.36L375.942 28.54H391.902ZM399.702 46L396.042 37.72H371.922L368.322 46H355.902L375.702 1.36H392.262L412.962 46H399.702Z" fill="url(#paint1_radial_2018_1324)" style="mix-blend-mode:overlay"/>
<path d="M47.1 46H0.72V39.52C0.72 33.16 1.56 27.28 18.36 22L25.5 19.84C31.44 18.1 33 16.9 33 14.68C33 12.28 31.44 10.36 24.06 10.36C15.3 10.36 14.58 15.28 14.4 17.44H1.5V17.02C1.5 10.96 4.5 0.819999 22.5 0.819999H25.2C41.16 0.819999 46.08 7 46.08 14.62V15.1C46.08 22.84 41.76 26.08 29.34 28.96C26.94 29.5 24.3 30.1 22.2 30.64C13.38 32.86 11.82 34.36 11.82 35.32H47.1V46ZM78.5789 46.66H76.1789C57.5189 46.66 54.7589 37.24 54.7589 33.52V32.68H67.7789C67.9589 33.7 69.2789 36.7 77.4989 36.7C85.2389 36.7 87.6989 34.18 87.6989 31.18V30.82C87.6989 27.64 85.4189 25.48 77.4989 25.48C69.5189 25.48 67.8389 27.82 67.6589 28.96H55.4189V1.36H96.8789V11.5H67.6589V19.78C68.1389 19.3 72.1589 16.3 80.1989 16.3H80.7989C96.3389 16.3 99.9989 23.56 99.9989 30.16V30.88C99.9989 37.66 95.7389 46.66 78.5789 46.66ZM126.27 46V1.36H142.71L156.93 31.6L171.57 1.36H186.99V46H174.93V16.78L161.37 46H151.71L138.15 16.78V46H126.27ZM229.187 28.54L221.087 10.36L213.227 28.54H229.187ZM236.987 46L233.327 37.72H209.207L205.607 46H193.187L212.987 1.36H229.547L250.247 46H236.987ZM286.647 31.72H268.767V46H256.407V1.36H286.647C300.747 1.36 305.127 7.54 305.127 16.18V16.84C305.127 25.3 300.567 31.72 286.647 31.72ZM268.767 11.32V21.76H285.747C290.307 21.76 292.287 19.84 292.287 16.66V16.42C292.287 13.3 290.307 11.32 285.747 11.32H268.767ZM327.997 46V11.56H310.717V1.36H357.577V11.56H340.297V46H327.997ZM391.902 28.54L383.802 10.36L375.942 28.54H391.902ZM399.702 46L396.042 37.72H371.922L368.322 46H355.902L375.702 1.36H392.262L412.962 46H399.702Z" fill="url(#paint2_radial_2018_1324)"/>
<path d="M47.1 46H0.72V39.52C0.72 33.16 1.56 27.28 18.36 22L25.5 19.84C31.44 18.1 33 16.9 33 14.68C33 12.28 31.44 10.36 24.06 10.36C15.3 10.36 14.58 15.28 14.4 17.44H1.5V17.02C1.5 10.96 4.5 0.819999 22.5 0.819999H25.2C41.16 0.819999 46.08 7 46.08 14.62V15.1C46.08 22.84 41.76 26.08 29.34 28.96C26.94 29.5 24.3 30.1 22.2 30.64C13.38 32.86 11.82 34.36 11.82 35.32H47.1V46ZM78.5789 46.66H76.1789C57.5189 46.66 54.7589 37.24 54.7589 33.52V32.68H67.7789C67.9589 33.7 69.2789 36.7 77.4989 36.7C85.2389 36.7 87.6989 34.18 87.6989 31.18V30.82C87.6989 27.64 85.4189 25.48 77.4989 25.48C69.5189 25.48 67.8389 27.82 67.6589 28.96H55.4189V1.36H96.8789V11.5H67.6589V19.78C68.1389 19.3 72.1589 16.3 80.1989 16.3H80.7989C96.3389 16.3 99.9989 23.56 99.9989 30.16V30.88C99.9989 37.66 95.7389 46.66 78.5789 46.66ZM126.27 46V1.36H142.71L156.93 31.6L171.57 1.36H186.99V46H174.93V16.78L161.37 46H151.71L138.15 16.78V46H126.27ZM229.187 28.54L221.087 10.36L213.227 28.54H229.187ZM236.987 46L233.327 37.72H209.207L205.607 46H193.187L212.987 1.36H229.547L250.247 46H236.987ZM286.647 31.72H268.767V46H256.407V1.36H286.647C300.747 1.36 305.127 7.54 305.127 16.18V16.84C305.127 25.3 300.567 31.72 286.647 31.72ZM268.767 11.32V21.76H285.747C290.307 21.76 292.287 19.84 292.287 16.66V16.42C292.287 13.3 290.307 11.32 285.747 11.32H268.767ZM327.997 46V11.56H310.717V1.36H357.577V11.56H340.297V46H327.997ZM391.902 28.54L383.802 10.36L375.942 28.54H391.902ZM399.702 46L396.042 37.72H371.922L368.322 46H355.902L375.702 1.36H392.262L412.962 46H399.702Z" fill="#C1A875" style="mix-blend-mode:color"/>
<defs>
<linearGradient id="paint0_linear_2018_1324" x1="-3" y1="20.5" x2="414" y2="20.5" gradientUnits="userSpaceOnUse">
<stop stop-color="#576167"/>
<stop offset="0.191294" stop-color="#9EA1A2"/>
<stop offset="0.396166" stop-color="#848989"/>
<stop offset="0.62055" stop-color="#576167"/>
<stop offset="0.830299" stop-color="#757A7C"/>
<stop offset="1" stop-color="#576167"/>
</linearGradient>
<radialGradient id="paint1_radial_2018_1324" cx="0" cy="0" r="1" gradientUnits="userSpaceOnUse" gradientTransform="translate(219.074 -10.5576) rotate(90) scale(60.1812 315.474)">
<stop stop-color="white"/>
<stop offset="1" stop-color="white" stop-opacity="0"/>
</radialGradient>
<radialGradient id="paint2_radial_2018_1324" cx="0" cy="0" r="1" gradientUnits="userSpaceOnUse" gradientTransform="translate(242.661 80.1124) rotate(-89.5565) scale(86.2357 451.107)">
<stop stop-color="white"/>
<stop offset="1" stop-color="white" stop-opacity="0"/>
</radialGradient>
</defs>
</svg>
