<svg width="248" height="18" viewBox="0 0 248 18" fill="none" xmlns="http://www.w3.org/2000/svg">
<path d="M8.30925 14.198H7.55325C1.82925 14.198 0.785248 11.12 0.785248 9.608V9.446H4.74525C4.79925 9.95 5.10525 11.21 8.02125 11.21C10.9732 11.21 11.4412 10.436 11.4412 9.644C11.4412 8.852 11.1352 8.438 9.64125 8.438H5.21325V5.72H9.62325C11.0632 5.72 11.2612 5.288 11.2612 4.64C11.2612 3.92 10.8652 3.326 7.98525 3.326C5.12325 3.326 4.87125 4.28 4.81725 4.712H0.965248V4.514C0.965248 3.29 1.77525 0.446 7.30125 0.446H8.30925C13.8352 0.446 14.9512 2.3 14.9512 3.884V4.01C14.9512 5.522 14.0152 6.206 12.9532 6.494C14.1772 6.782 15.3652 7.664 15.3652 9.554V9.68C15.3652 11.822 14.0512 14.198 8.30925 14.198ZM21.8078 10.508V14H17.6138V10.508H21.8078ZM30.656 14V0.608H35.588L39.854 9.68L44.246 0.608H48.872V14H45.254V5.234L41.186 14H38.288L34.22 5.234V14H30.656ZM56.7072 12.002C58.7592 12.002 59.4612 10.706 59.4612 9.95V9.176C59.1552 9.302 58.2732 9.482 57.2652 9.644C55.5732 9.932 55.0332 10.166 55.0332 10.868V10.904C55.0332 11.534 55.4832 12.002 56.7072 12.002ZM59.5692 12.614C59.1372 13.136 58.0572 14.198 55.7172 14.198H55.4292C52.6392 14.198 51.4872 12.686 51.4872 11.03V10.958C51.4872 9.23 52.5852 8.168 55.9692 7.88L58.7052 7.646C59.2632 7.592 59.4612 7.412 59.4612 6.998C59.4612 6.53 59.3172 6.026 57.3732 6.026C55.5372 6.026 55.3572 6.746 55.3572 7.124H51.7572V7.088C51.7572 6.098 52.1532 3.776 57.0672 3.776H57.6252C62.5752 3.776 62.8812 5.81 62.8812 7.142V10.436C62.8812 11.066 63.0072 11.318 63.7092 11.318H64.0872V14H61.2432C60.1992 14 59.7132 13.262 59.5692 12.614ZM74.4409 10.076H78.1129C78.1129 11.588 77.2129 14.27 72.4069 14.27H71.5249C66.5389 14.27 65.6029 11.03 65.6029 9.14V8.888C65.6029 6.998 66.4849 3.74 71.5069 3.74H72.3349C77.1589 3.74 78.1129 6.368 78.1129 7.808V7.826H74.4409C74.3869 7.538 74.0449 6.296 71.9749 6.296H71.7949C69.7249 6.296 69.2389 7.718 69.2389 8.924V8.942C69.2389 10.184 69.8329 11.66 71.8669 11.66H72.0469C74.1349 11.66 74.4409 10.31 74.4409 10.076ZM83.3649 14V6.674H79.4949V4.01H90.7449V6.674H86.8749V14H83.3649ZM98.4634 6.08C96.6454 6.08 95.9614 6.818 95.7814 7.862H101.073C101.073 7.124 100.713 6.08 98.4634 6.08ZM101.145 10.886H104.799C104.799 11.714 104.151 14.234 98.9854 14.234H98.3194C93.3874 14.234 92.1634 11.534 92.1634 9.14V8.888C92.1634 6.638 93.2794 3.794 98.0134 3.794H98.8054C103.917 3.794 104.835 6.638 104.835 9.428V9.752H95.7454C95.8894 10.904 96.6274 11.84 98.7694 11.84C100.803 11.84 101.055 11.048 101.145 10.886ZM116.419 9.014V8.96C116.419 7.88 115.915 6.422 113.719 6.422H113.539C111.433 6.422 110.767 7.808 110.767 8.96V9.014C110.767 10.112 111.433 11.552 113.539 11.552H113.719C115.915 11.552 116.419 10.04 116.419 9.014ZM107.275 17.438V4.01H110.749V5.288C111.181 4.82 112.495 3.812 114.763 3.812H114.997C118.813 3.812 120.055 6.422 120.055 8.798V9.104C120.055 11.282 118.777 14.198 114.979 14.198H114.727C112.441 14.198 111.217 13.154 110.785 12.722V17.438H107.275ZM136.052 10.076H139.724C139.724 11.588 138.824 14.27 134.018 14.27H133.136C128.15 14.27 127.214 11.03 127.214 9.14V8.888C127.214 6.998 128.096 3.74 133.118 3.74H133.946C138.77 3.74 139.724 6.368 139.724 7.808V7.826H136.052C135.998 7.538 135.656 6.296 133.586 6.296H133.406C131.336 6.296 130.85 7.718 130.85 8.924V8.942C130.85 10.184 131.444 11.66 133.478 11.66H133.658C135.746 11.66 136.052 10.31 136.052 10.076ZM144.976 14V6.674H141.106V4.01H152.356V6.674H148.486V14H144.976ZM163.441 9.014V8.96C163.441 7.88 162.937 6.422 160.741 6.422H160.561C158.455 6.422 157.789 7.808 157.789 8.96V9.014C157.789 10.112 158.455 11.552 160.561 11.552H160.741C162.937 11.552 163.441 10.04 163.441 9.014ZM154.297 17.438V4.01H157.771V5.288C158.203 4.82 159.517 3.812 161.785 3.812H162.019C165.835 3.812 167.077 6.422 167.077 8.798V9.104C167.077 11.282 165.799 14.198 162.001 14.198H161.749C159.463 14.198 158.239 13.154 157.807 12.722V17.438H154.297ZM174.147 12.002C176.199 12.002 176.901 10.706 176.901 9.95V9.176C176.595 9.302 175.713 9.482 174.705 9.644C173.013 9.932 172.473 10.166 172.473 10.868V10.904C172.473 11.534 172.923 12.002 174.147 12.002ZM177.009 12.614C176.577 13.136 175.497 14.198 173.157 14.198H172.869C170.079 14.198 168.927 12.686 168.927 11.03V10.958C168.927 9.23 170.025 8.168 173.409 7.88L176.145 7.646C176.703 7.592 176.901 7.412 176.901 6.998C176.901 6.53 176.757 6.026 174.813 6.026C172.977 6.026 172.797 6.746 172.797 7.124H169.197V7.088C169.197 6.098 169.593 3.776 174.507 3.776H175.065C180.015 3.776 180.321 5.81 180.321 7.142V10.436C180.321 11.066 180.447 11.318 181.149 11.318H181.527V14H178.683C177.639 14 177.153 13.262 177.009 12.614ZM186.215 14V6.674H182.345V4.01H193.595V6.674H189.725V14H186.215ZM201.313 6.08C199.495 6.08 198.811 6.818 198.631 7.862H203.923C203.923 7.124 203.563 6.08 201.313 6.08ZM203.995 10.886H207.649C207.649 11.714 207.001 14.234 201.835 14.234H201.169C196.237 14.234 195.013 11.534 195.013 9.14V8.888C195.013 6.638 196.129 3.794 200.863 3.794H201.655C206.767 3.794 207.685 6.638 207.685 9.428V9.752H198.595C198.739 10.904 199.477 11.84 201.619 11.84C203.653 11.84 203.905 11.048 203.995 10.886ZM210.089 14V4.01H218.801V6.674H213.599V14H210.089ZM229.13 7.952L224.306 14H220.706V4.01H224.216V10.058L229.04 4.01H232.64V14H229.13V7.952ZM243.984 7.952L239.16 14H235.56V4.01H239.07V10.058L243.894 4.01H247.494V14H243.984V7.952Z" fill="url(#paint0_linear_41_166)"/>
<path d="M8.30925 14.198H7.55325C1.82925 14.198 0.785248 11.12 0.785248 9.608V9.446H4.74525C4.79925 9.95 5.10525 11.21 8.02125 11.21C10.9732 11.21 11.4412 10.436 11.4412 9.644C11.4412 8.852 11.1352 8.438 9.64125 8.438H5.21325V5.72H9.62325C11.0632 5.72 11.2612 5.288 11.2612 4.64C11.2612 3.92 10.8652 3.326 7.98525 3.326C5.12325 3.326 4.87125 4.28 4.81725 4.712H0.965248V4.514C0.965248 3.29 1.77525 0.446 7.30125 0.446H8.30925C13.8352 0.446 14.9512 2.3 14.9512 3.884V4.01C14.9512 5.522 14.0152 6.206 12.9532 6.494C14.1772 6.782 15.3652 7.664 15.3652 9.554V9.68C15.3652 11.822 14.0512 14.198 8.30925 14.198ZM21.8078 10.508V14H17.6138V10.508H21.8078ZM30.656 14V0.608H35.588L39.854 9.68L44.246 0.608H48.872V14H45.254V5.234L41.186 14H38.288L34.22 5.234V14H30.656ZM56.7072 12.002C58.7592 12.002 59.4612 10.706 59.4612 9.95V9.176C59.1552 9.302 58.2732 9.482 57.2652 9.644C55.5732 9.932 55.0332 10.166 55.0332 10.868V10.904C55.0332 11.534 55.4832 12.002 56.7072 12.002ZM59.5692 12.614C59.1372 13.136 58.0572 14.198 55.7172 14.198H55.4292C52.6392 14.198 51.4872 12.686 51.4872 11.03V10.958C51.4872 9.23 52.5852 8.168 55.9692 7.88L58.7052 7.646C59.2632 7.592 59.4612 7.412 59.4612 6.998C59.4612 6.53 59.3172 6.026 57.3732 6.026C55.5372 6.026 55.3572 6.746 55.3572 7.124H51.7572V7.088C51.7572 6.098 52.1532 3.776 57.0672 3.776H57.6252C62.5752 3.776 62.8812 5.81 62.8812 7.142V10.436C62.8812 11.066 63.0072 11.318 63.7092 11.318H64.0872V14H61.2432C60.1992 14 59.7132 13.262 59.5692 12.614ZM74.4409 10.076H78.1129C78.1129 11.588 77.2129 14.27 72.4069 14.27H71.5249C66.5389 14.27 65.6029 11.03 65.6029 9.14V8.888C65.6029 6.998 66.4849 3.74 71.5069 3.74H72.3349C77.1589 3.74 78.1129 6.368 78.1129 7.808V7.826H74.4409C74.3869 7.538 74.0449 6.296 71.9749 6.296H71.7949C69.7249 6.296 69.2389 7.718 69.2389 8.924V8.942C69.2389 10.184 69.8329 11.66 71.8669 11.66H72.0469C74.1349 11.66 74.4409 10.31 74.4409 10.076ZM83.3649 14V6.674H79.4949V4.01H90.7449V6.674H86.8749V14H83.3649ZM98.4634 6.08C96.6454 6.08 95.9614 6.818 95.7814 7.862H101.073C101.073 7.124 100.713 6.08 98.4634 6.08ZM101.145 10.886H104.799C104.799 11.714 104.151 14.234 98.9854 14.234H98.3194C93.3874 14.234 92.1634 11.534 92.1634 9.14V8.888C92.1634 6.638 93.2794 3.794 98.0134 3.794H98.8054C103.917 3.794 104.835 6.638 104.835 9.428V9.752H95.7454C95.8894 10.904 96.6274 11.84 98.7694 11.84C100.803 11.84 101.055 11.048 101.145 10.886ZM116.419 9.014V8.96C116.419 7.88 115.915 6.422 113.719 6.422H113.539C111.433 6.422 110.767 7.808 110.767 8.96V9.014C110.767 10.112 111.433 11.552 113.539 11.552H113.719C115.915 11.552 116.419 10.04 116.419 9.014ZM107.275 17.438V4.01H110.749V5.288C111.181 4.82 112.495 3.812 114.763 3.812H114.997C118.813 3.812 120.055 6.422 120.055 8.798V9.104C120.055 11.282 118.777 14.198 114.979 14.198H114.727C112.441 14.198 111.217 13.154 110.785 12.722V17.438H107.275ZM136.052 10.076H139.724C139.724 11.588 138.824 14.27 134.018 14.27H133.136C128.15 14.27 127.214 11.03 127.214 9.14V8.888C127.214 6.998 128.096 3.74 133.118 3.74H133.946C138.77 3.74 139.724 6.368 139.724 7.808V7.826H136.052C135.998 7.538 135.656 6.296 133.586 6.296H133.406C131.336 6.296 130.85 7.718 130.85 8.924V8.942C130.85 10.184 131.444 11.66 133.478 11.66H133.658C135.746 11.66 136.052 10.31 136.052 10.076ZM144.976 14V6.674H141.106V4.01H152.356V6.674H148.486V14H144.976ZM163.441 9.014V8.96C163.441 7.88 162.937 6.422 160.741 6.422H160.561C158.455 6.422 157.789 7.808 157.789 8.96V9.014C157.789 10.112 158.455 11.552 160.561 11.552H160.741C162.937 11.552 163.441 10.04 163.441 9.014ZM154.297 17.438V4.01H157.771V5.288C158.203 4.82 159.517 3.812 161.785 3.812H162.019C165.835 3.812 167.077 6.422 167.077 8.798V9.104C167.077 11.282 165.799 14.198 162.001 14.198H161.749C159.463 14.198 158.239 13.154 157.807 12.722V17.438H154.297ZM174.147 12.002C176.199 12.002 176.901 10.706 176.901 9.95V9.176C176.595 9.302 175.713 9.482 174.705 9.644C173.013 9.932 172.473 10.166 172.473 10.868V10.904C172.473 11.534 172.923 12.002 174.147 12.002ZM177.009 12.614C176.577 13.136 175.497 14.198 173.157 14.198H172.869C170.079 14.198 168.927 12.686 168.927 11.03V10.958C168.927 9.23 170.025 8.168 173.409 7.88L176.145 7.646C176.703 7.592 176.901 7.412 176.901 6.998C176.901 6.53 176.757 6.026 174.813 6.026C172.977 6.026 172.797 6.746 172.797 7.124H169.197V7.088C169.197 6.098 169.593 3.776 174.507 3.776H175.065C180.015 3.776 180.321 5.81 180.321 7.142V10.436C180.321 11.066 180.447 11.318 181.149 11.318H181.527V14H178.683C177.639 14 177.153 13.262 177.009 12.614ZM186.215 14V6.674H182.345V4.01H193.595V6.674H189.725V14H186.215ZM201.313 6.08C199.495 6.08 198.811 6.818 198.631 7.862H203.923C203.923 7.124 203.563 6.08 201.313 6.08ZM203.995 10.886H207.649C207.649 11.714 207.001 14.234 201.835 14.234H201.169C196.237 14.234 195.013 11.534 195.013 9.14V8.888C195.013 6.638 196.129 3.794 200.863 3.794H201.655C206.767 3.794 207.685 6.638 207.685 9.428V9.752H198.595C198.739 10.904 199.477 11.84 201.619 11.84C203.653 11.84 203.905 11.048 203.995 10.886ZM210.089 14V4.01H218.801V6.674H213.599V14H210.089ZM229.13 7.952L224.306 14H220.706V4.01H224.216V10.058L229.04 4.01H232.64V14H229.13V7.952ZM243.984 7.952L239.16 14H235.56V4.01H239.07V10.058L243.894 4.01H247.494V14H243.984V7.952Z" fill="url(#paint1_radial_41_166)" style="mix-blend-mode:overlay"/>
<path d="M8.30925 14.198H7.55325C1.82925 14.198 0.785248 11.12 0.785248 9.608V9.446H4.74525C4.79925 9.95 5.10525 11.21 8.02125 11.21C10.9732 11.21 11.4412 10.436 11.4412 9.644C11.4412 8.852 11.1352 8.438 9.64125 8.438H5.21325V5.72H9.62325C11.0632 5.72 11.2612 5.288 11.2612 4.64C11.2612 3.92 10.8652 3.326 7.98525 3.326C5.12325 3.326 4.87125 4.28 4.81725 4.712H0.965248V4.514C0.965248 3.29 1.77525 0.446 7.30125 0.446H8.30925C13.8352 0.446 14.9512 2.3 14.9512 3.884V4.01C14.9512 5.522 14.0152 6.206 12.9532 6.494C14.1772 6.782 15.3652 7.664 15.3652 9.554V9.68C15.3652 11.822 14.0512 14.198 8.30925 14.198ZM21.8078 10.508V14H17.6138V10.508H21.8078ZM30.656 14V0.608H35.588L39.854 9.68L44.246 0.608H48.872V14H45.254V5.234L41.186 14H38.288L34.22 5.234V14H30.656ZM56.7072 12.002C58.7592 12.002 59.4612 10.706 59.4612 9.95V9.176C59.1552 9.302 58.2732 9.482 57.2652 9.644C55.5732 9.932 55.0332 10.166 55.0332 10.868V10.904C55.0332 11.534 55.4832 12.002 56.7072 12.002ZM59.5692 12.614C59.1372 13.136 58.0572 14.198 55.7172 14.198H55.4292C52.6392 14.198 51.4872 12.686 51.4872 11.03V10.958C51.4872 9.23 52.5852 8.168 55.9692 7.88L58.7052 7.646C59.2632 7.592 59.4612 7.412 59.4612 6.998C59.4612 6.53 59.3172 6.026 57.3732 6.026C55.5372 6.026 55.3572 6.746 55.3572 7.124H51.7572V7.088C51.7572 6.098 52.1532 3.776 57.0672 3.776H57.6252C62.5752 3.776 62.8812 5.81 62.8812 7.142V10.436C62.8812 11.066 63.0072 11.318 63.7092 11.318H64.0872V14H61.2432C60.1992 14 59.7132 13.262 59.5692 12.614ZM74.4409 10.076H78.1129C78.1129 11.588 77.2129 14.27 72.4069 14.27H71.5249C66.5389 14.27 65.6029 11.03 65.6029 9.14V8.888C65.6029 6.998 66.4849 3.74 71.5069 3.74H72.3349C77.1589 3.74 78.1129 6.368 78.1129 7.808V7.826H74.4409C74.3869 7.538 74.0449 6.296 71.9749 6.296H71.7949C69.7249 6.296 69.2389 7.718 69.2389 8.924V8.942C69.2389 10.184 69.8329 11.66 71.8669 11.66H72.0469C74.1349 11.66 74.4409 10.31 74.4409 10.076ZM83.3649 14V6.674H79.4949V4.01H90.7449V6.674H86.8749V14H83.3649ZM98.4634 6.08C96.6454 6.08 95.9614 6.818 95.7814 7.862H101.073C101.073 7.124 100.713 6.08 98.4634 6.08ZM101.145 10.886H104.799C104.799 11.714 104.151 14.234 98.9854 14.234H98.3194C93.3874 14.234 92.1634 11.534 92.1634 9.14V8.888C92.1634 6.638 93.2794 3.794 98.0134 3.794H98.8054C103.917 3.794 104.835 6.638 104.835 9.428V9.752H95.7454C95.8894 10.904 96.6274 11.84 98.7694 11.84C100.803 11.84 101.055 11.048 101.145 10.886ZM116.419 9.014V8.96C116.419 7.88 115.915 6.422 113.719 6.422H113.539C111.433 6.422 110.767 7.808 110.767 8.96V9.014C110.767 10.112 111.433 11.552 113.539 11.552H113.719C115.915 11.552 116.419 10.04 116.419 9.014ZM107.275 17.438V4.01H110.749V5.288C111.181 4.82 112.495 3.812 114.763 3.812H114.997C118.813 3.812 120.055 6.422 120.055 8.798V9.104C120.055 11.282 118.777 14.198 114.979 14.198H114.727C112.441 14.198 111.217 13.154 110.785 12.722V17.438H107.275ZM136.052 10.076H139.724C139.724 11.588 138.824 14.27 134.018 14.27H133.136C128.15 14.27 127.214 11.03 127.214 9.14V8.888C127.214 6.998 128.096 3.74 133.118 3.74H133.946C138.77 3.74 139.724 6.368 139.724 7.808V7.826H136.052C135.998 7.538 135.656 6.296 133.586 6.296H133.406C131.336 6.296 130.85 7.718 130.85 8.924V8.942C130.85 10.184 131.444 11.66 133.478 11.66H133.658C135.746 11.66 136.052 10.31 136.052 10.076ZM144.976 14V6.674H141.106V4.01H152.356V6.674H148.486V14H144.976ZM163.441 9.014V8.96C163.441 7.88 162.937 6.422 160.741 6.422H160.561C158.455 6.422 157.789 7.808 157.789 8.96V9.014C157.789 10.112 158.455 11.552 160.561 11.552H160.741C162.937 11.552 163.441 10.04 163.441 9.014ZM154.297 17.438V4.01H157.771V5.288C158.203 4.82 159.517 3.812 161.785 3.812H162.019C165.835 3.812 167.077 6.422 167.077 8.798V9.104C167.077 11.282 165.799 14.198 162.001 14.198H161.749C159.463 14.198 158.239 13.154 157.807 12.722V17.438H154.297ZM174.147 12.002C176.199 12.002 176.901 10.706 176.901 9.95V9.176C176.595 9.302 175.713 9.482 174.705 9.644C173.013 9.932 172.473 10.166 172.473 10.868V10.904C172.473 11.534 172.923 12.002 174.147 12.002ZM177.009 12.614C176.577 13.136 175.497 14.198 173.157 14.198H172.869C170.079 14.198 168.927 12.686 168.927 11.03V10.958C168.927 9.23 170.025 8.168 173.409 7.88L176.145 7.646C176.703 7.592 176.901 7.412 176.901 6.998C176.901 6.53 176.757 6.026 174.813 6.026C172.977 6.026 172.797 6.746 172.797 7.124H169.197V7.088C169.197 6.098 169.593 3.776 174.507 3.776H175.065C180.015 3.776 180.321 5.81 180.321 7.142V10.436C180.321 11.066 180.447 11.318 181.149 11.318H181.527V14H178.683C177.639 14 177.153 13.262 177.009 12.614ZM186.215 14V6.674H182.345V4.01H193.595V6.674H189.725V14H186.215ZM201.313 6.08C199.495 6.08 198.811 6.818 198.631 7.862H203.923C203.923 7.124 203.563 6.08 201.313 6.08ZM203.995 10.886H207.649C207.649 11.714 207.001 14.234 201.835 14.234H201.169C196.237 14.234 195.013 11.534 195.013 9.14V8.888C195.013 6.638 196.129 3.794 200.863 3.794H201.655C206.767 3.794 207.685 6.638 207.685 9.428V9.752H198.595C198.739 10.904 199.477 11.84 201.619 11.84C203.653 11.84 203.905 11.048 203.995 10.886ZM210.089 14V4.01H218.801V6.674H213.599V14H210.089ZM229.13 7.952L224.306 14H220.706V4.01H224.216V10.058L229.04 4.01H232.64V14H229.13V7.952ZM243.984 7.952L239.16 14H235.56V4.01H239.07V10.058L243.894 4.01H247.494V14H243.984V7.952Z" fill="url(#paint2_radial_41_166)"/>
<path d="M8.30925 14.198H7.55325C1.82925 14.198 0.785248 11.12 0.785248 9.608V9.446H4.74525C4.79925 9.95 5.10525 11.21 8.02125 11.21C10.9732 11.21 11.4412 10.436 11.4412 9.644C11.4412 8.852 11.1352 8.438 9.64125 8.438H5.21325V5.72H9.62325C11.0632 5.72 11.2612 5.288 11.2612 4.64C11.2612 3.92 10.8652 3.326 7.98525 3.326C5.12325 3.326 4.87125 4.28 4.81725 4.712H0.965248V4.514C0.965248 3.29 1.77525 0.446 7.30125 0.446H8.30925C13.8352 0.446 14.9512 2.3 14.9512 3.884V4.01C14.9512 5.522 14.0152 6.206 12.9532 6.494C14.1772 6.782 15.3652 7.664 15.3652 9.554V9.68C15.3652 11.822 14.0512 14.198 8.30925 14.198ZM21.8078 10.508V14H17.6138V10.508H21.8078ZM30.656 14V0.608H35.588L39.854 9.68L44.246 0.608H48.872V14H45.254V5.234L41.186 14H38.288L34.22 5.234V14H30.656ZM56.7072 12.002C58.7592 12.002 59.4612 10.706 59.4612 9.95V9.176C59.1552 9.302 58.2732 9.482 57.2652 9.644C55.5732 9.932 55.0332 10.166 55.0332 10.868V10.904C55.0332 11.534 55.4832 12.002 56.7072 12.002ZM59.5692 12.614C59.1372 13.136 58.0572 14.198 55.7172 14.198H55.4292C52.6392 14.198 51.4872 12.686 51.4872 11.03V10.958C51.4872 9.23 52.5852 8.168 55.9692 7.88L58.7052 7.646C59.2632 7.592 59.4612 7.412 59.4612 6.998C59.4612 6.53 59.3172 6.026 57.3732 6.026C55.5372 6.026 55.3572 6.746 55.3572 7.124H51.7572V7.088C51.7572 6.098 52.1532 3.776 57.0672 3.776H57.6252C62.5752 3.776 62.8812 5.81 62.8812 7.142V10.436C62.8812 11.066 63.0072 11.318 63.7092 11.318H64.0872V14H61.2432C60.1992 14 59.7132 13.262 59.5692 12.614ZM74.4409 10.076H78.1129C78.1129 11.588 77.2129 14.27 72.4069 14.27H71.5249C66.5389 14.27 65.6029 11.03 65.6029 9.14V8.888C65.6029 6.998 66.4849 3.74 71.5069 3.74H72.3349C77.1589 3.74 78.1129 6.368 78.1129 7.808V7.826H74.4409C74.3869 7.538 74.0449 6.296 71.9749 6.296H71.7949C69.7249 6.296 69.2389 7.718 69.2389 8.924V8.942C69.2389 10.184 69.8329 11.66 71.8669 11.66H72.0469C74.1349 11.66 74.4409 10.31 74.4409 10.076ZM83.3649 14V6.674H79.4949V4.01H90.7449V6.674H86.8749V14H83.3649ZM98.4634 6.08C96.6454 6.08 95.9614 6.818 95.7814 7.862H101.073C101.073 7.124 100.713 6.08 98.4634 6.08ZM101.145 10.886H104.799C104.799 11.714 104.151 14.234 98.9854 14.234H98.3194C93.3874 14.234 92.1634 11.534 92.1634 9.14V8.888C92.1634 6.638 93.2794 3.794 98.0134 3.794H98.8054C103.917 3.794 104.835 6.638 104.835 9.428V9.752H95.7454C95.8894 10.904 96.6274 11.84 98.7694 11.84C100.803 11.84 101.055 11.048 101.145 10.886ZM116.419 9.014V8.96C116.419 7.88 115.915 6.422 113.719 6.422H113.539C111.433 6.422 110.767 7.808 110.767 8.96V9.014C110.767 10.112 111.433 11.552 113.539 11.552H113.719C115.915 11.552 116.419 10.04 116.419 9.014ZM107.275 17.438V4.01H110.749V5.288C111.181 4.82 112.495 3.812 114.763 3.812H114.997C118.813 3.812 120.055 6.422 120.055 8.798V9.104C120.055 11.282 118.777 14.198 114.979 14.198H114.727C112.441 14.198 111.217 13.154 110.785 12.722V17.438H107.275ZM136.052 10.076H139.724C139.724 11.588 138.824 14.27 134.018 14.27H133.136C128.15 14.27 127.214 11.03 127.214 9.14V8.888C127.214 6.998 128.096 3.74 133.118 3.74H133.946C138.77 3.74 139.724 6.368 139.724 7.808V7.826H136.052C135.998 7.538 135.656 6.296 133.586 6.296H133.406C131.336 6.296 130.85 7.718 130.85 8.924V8.942C130.85 10.184 131.444 11.66 133.478 11.66H133.658C135.746 11.66 136.052 10.31 136.052 10.076ZM144.976 14V6.674H141.106V4.01H152.356V6.674H148.486V14H144.976ZM163.441 9.014V8.96C163.441 7.88 162.937 6.422 160.741 6.422H160.561C158.455 6.422 157.789 7.808 157.789 8.96V9.014C157.789 10.112 158.455 11.552 160.561 11.552H160.741C162.937 11.552 163.441 10.04 163.441 9.014ZM154.297 17.438V4.01H157.771V5.288C158.203 4.82 159.517 3.812 161.785 3.812H162.019C165.835 3.812 167.077 6.422 167.077 8.798V9.104C167.077 11.282 165.799 14.198 162.001 14.198H161.749C159.463 14.198 158.239 13.154 157.807 12.722V17.438H154.297ZM174.147 12.002C176.199 12.002 176.901 10.706 176.901 9.95V9.176C176.595 9.302 175.713 9.482 174.705 9.644C173.013 9.932 172.473 10.166 172.473 10.868V10.904C172.473 11.534 172.923 12.002 174.147 12.002ZM177.009 12.614C176.577 13.136 175.497 14.198 173.157 14.198H172.869C170.079 14.198 168.927 12.686 168.927 11.03V10.958C168.927 9.23 170.025 8.168 173.409 7.88L176.145 7.646C176.703 7.592 176.901 7.412 176.901 6.998C176.901 6.53 176.757 6.026 174.813 6.026C172.977 6.026 172.797 6.746 172.797 7.124H169.197V7.088C169.197 6.098 169.593 3.776 174.507 3.776H175.065C180.015 3.776 180.321 5.81 180.321 7.142V10.436C180.321 11.066 180.447 11.318 181.149 11.318H181.527V14H178.683C177.639 14 177.153 13.262 177.009 12.614ZM186.215 14V6.674H182.345V4.01H193.595V6.674H189.725V14H186.215ZM201.313 6.08C199.495 6.08 198.811 6.818 198.631 7.862H203.923C203.923 7.124 203.563 6.08 201.313 6.08ZM203.995 10.886H207.649C207.649 11.714 207.001 14.234 201.835 14.234H201.169C196.237 14.234 195.013 11.534 195.013 9.14V8.888C195.013 6.638 196.129 3.794 200.863 3.794H201.655C206.767 3.794 207.685 6.638 207.685 9.428V9.752H198.595C198.739 10.904 199.477 11.84 201.619 11.84C203.653 11.84 203.905 11.048 203.995 10.886ZM210.089 14V4.01H218.801V6.674H213.599V14H210.089ZM229.13 7.952L224.306 14H220.706V4.01H224.216V10.058L229.04 4.01H232.64V14H229.13V7.952ZM243.984 7.952L239.16 14H235.56V4.01H239.07V10.058L243.894 4.01H247.494V14H243.984V7.952Z" fill="#C1A875" style="mix-blend-mode:color"/>
<defs>
<linearGradient id="paint0_linear_41_166" x1="2" y1="6" x2="249" y2="6.00002" gradientUnits="userSpaceOnUse">
<stop stop-color="#576167"/>
<stop offset="0.191294" stop-color="#9EA1A2"/>
<stop offset="0.396166" stop-color="#848989"/>
<stop offset="0.62055" stop-color="#576167"/>
<stop offset="0.830299" stop-color="#757A7C"/>
<stop offset="1" stop-color="#576167"/>
</linearGradient>
<radialGradient id="paint1_radial_41_166" cx="0" cy="0" r="1" gradientUnits="userSpaceOnUse" gradientTransform="translate(133.54 -3.20225) rotate(90) scale(17.8315 186.863)">
<stop stop-color="white"/>
<stop offset="1" stop-color="white" stop-opacity="0"/>
</radialGradient>
<radialGradient id="paint2_radial_41_166" cx="0" cy="0" r="1" gradientUnits="userSpaceOnUse" gradientTransform="translate(147.511 23.6629) rotate(-89.1134) scale(25.5536 267.179)">
<stop stop-color="white"/>
<stop offset="1" stop-color="white" stop-opacity="0"/>
</radialGradient>
</defs>
</svg>
