<svg width="1600" height="1152" viewBox="0 0 1600 1152" fill="none" xmlns="http://www.w3.org/2000/svg">
<circle cx="1403.5" cy="736.5" r="120" stroke="url(#paint0_linear_41_117)" stroke-width="25"/>
<circle cx="1403.5" cy="736.5" r="120" stroke="url(#paint1_radial_41_117)" stroke-width="25" style="mix-blend-mode:overlay"/>
<circle cx="1403.5" cy="736.5" r="120" stroke="url(#paint2_radial_41_117)" stroke-width="25"/>
<rect x="1030.5" y="221.5" width="169" height="185" stroke="url(#paint3_linear_41_117)" stroke-width="25"/>
<rect x="1030.5" y="221.5" width="169" height="185" stroke="url(#paint4_radial_41_117)" stroke-width="25" style="mix-blend-mode:overlay"/>
<rect x="1030.5" y="221.5" width="169" height="185" stroke="url(#paint5_radial_41_117)" stroke-width="25"/>
<rect x="1030.5" y="221.5" width="169" height="185" stroke="#C1A875" stroke-width="25" style="mix-blend-mode:color"/>
<path d="M47.8747 28.3245L54.7864 33.9951L63.0624 30.6136L76.0838 25.2933L83.8456 37.0244L88.7787 44.4803L97.6838 43.6885L111.695 42.4427L115.654 55.9404L118.17 64.5192L126.913 66.3874L140.669 69.3267L140.474 83.3918L140.35 92.3311L148.153 96.6932L160.432 103.557L156.099 116.939L153.346 125.445L159.517 131.913L169.227 142.091L161.142 153.602L156.004 160.918L159.995 168.918L166.273 181.506L155.155 190.122L148.088 195.599L149.544 204.42L151.833 218.299L138.669 223.256L130.302 226.406L129.092 235.264L127.189 249.201L113.149 250.057L104.225 250.602L100.459 258.709L94.5319 271.466L80.863 268.146L72.1754 266.036L66.1862 272.673L56.7627 283.117L44.6796 275.915L37 271.338L29.3204 275.915L17.2374 283.117L7.81385 272.673L1.82455 266.036L-6.86301 268.146L-20.5319 271.466L-26.4586 258.709L-30.2254 250.602L-39.149 250.057L-53.1893 249.201L-55.0925 235.264L-56.3021 226.406L-64.6688 223.256L-77.8329 218.299L-75.5435 204.42L-74.0885 195.599L-81.1549 190.122L-92.2731 181.506L-85.9946 168.918L-82.0042 160.918L-87.1424 153.602L-95.2269 142.091L-85.517 131.913L-79.3458 125.445L-82.0993 116.939L-86.4316 103.557L-74.1533 96.6932L-66.3496 92.3311L-66.4737 83.3918L-66.669 69.3267L-52.9131 66.3874L-44.1704 64.5192L-41.654 55.9404L-37.6949 42.4427L-23.6838 43.6885L-14.7787 44.4803L-9.8456 37.0244L-2.08383 25.2933L10.9376 30.6136L19.2136 33.9951L26.1253 28.3245L37 19.4024L47.8747 28.3245Z" stroke="url(#paint6_linear_41_117)" stroke-width="30"/>
<path d="M47.8747 28.3245L54.7864 33.9951L63.0624 30.6136L76.0838 25.2933L83.8456 37.0244L88.7787 44.4803L97.6838 43.6885L111.695 42.4427L115.654 55.9404L118.17 64.5192L126.913 66.3874L140.669 69.3267L140.474 83.3918L140.35 92.3311L148.153 96.6932L160.432 103.557L156.099 116.939L153.346 125.445L159.517 131.913L169.227 142.091L161.142 153.602L156.004 160.918L159.995 168.918L166.273 181.506L155.155 190.122L148.088 195.599L149.544 204.42L151.833 218.299L138.669 223.256L130.302 226.406L129.092 235.264L127.189 249.201L113.149 250.057L104.225 250.602L100.459 258.709L94.5319 271.466L80.863 268.146L72.1754 266.036L66.1862 272.673L56.7627 283.117L44.6796 275.915L37 271.338L29.3204 275.915L17.2374 283.117L7.81385 272.673L1.82455 266.036L-6.86301 268.146L-20.5319 271.466L-26.4586 258.709L-30.2254 250.602L-39.149 250.057L-53.1893 249.201L-55.0925 235.264L-56.3021 226.406L-64.6688 223.256L-77.8329 218.299L-75.5435 204.42L-74.0885 195.599L-81.1549 190.122L-92.2731 181.506L-85.9946 168.918L-82.0042 160.918L-87.1424 153.602L-95.2269 142.091L-85.517 131.913L-79.3458 125.445L-82.0993 116.939L-86.4316 103.557L-74.1533 96.6932L-66.3496 92.3311L-66.4737 83.3918L-66.669 69.3267L-52.9131 66.3874L-44.1704 64.5192L-41.654 55.9404L-37.6949 42.4427L-23.6838 43.6885L-14.7787 44.4803L-9.8456 37.0244L-2.08383 25.2933L10.9376 30.6136L19.2136 33.9951L26.1253 28.3245L37 19.4024L47.8747 28.3245Z" stroke="url(#paint7_radial_41_117)" stroke-width="30" style="mix-blend-mode:overlay"/>
<path d="M47.8747 28.3245L54.7864 33.9951L63.0624 30.6136L76.0838 25.2933L83.8456 37.0244L88.7787 44.4803L97.6838 43.6885L111.695 42.4427L115.654 55.9404L118.17 64.5192L126.913 66.3874L140.669 69.3267L140.474 83.3918L140.35 92.3311L148.153 96.6932L160.432 103.557L156.099 116.939L153.346 125.445L159.517 131.913L169.227 142.091L161.142 153.602L156.004 160.918L159.995 168.918L166.273 181.506L155.155 190.122L148.088 195.599L149.544 204.42L151.833 218.299L138.669 223.256L130.302 226.406L129.092 235.264L127.189 249.201L113.149 250.057L104.225 250.602L100.459 258.709L94.5319 271.466L80.863 268.146L72.1754 266.036L66.1862 272.673L56.7627 283.117L44.6796 275.915L37 271.338L29.3204 275.915L17.2374 283.117L7.81385 272.673L1.82455 266.036L-6.86301 268.146L-20.5319 271.466L-26.4586 258.709L-30.2254 250.602L-39.149 250.057L-53.1893 249.201L-55.0925 235.264L-56.3021 226.406L-64.6688 223.256L-77.8329 218.299L-75.5435 204.42L-74.0885 195.599L-81.1549 190.122L-92.2731 181.506L-85.9946 168.918L-82.0042 160.918L-87.1424 153.602L-95.2269 142.091L-85.517 131.913L-79.3458 125.445L-82.0993 116.939L-86.4316 103.557L-74.1533 96.6932L-66.3496 92.3311L-66.4737 83.3918L-66.669 69.3267L-52.9131 66.3874L-44.1704 64.5192L-41.654 55.9404L-37.6949 42.4427L-23.6838 43.6885L-14.7787 44.4803L-9.8456 37.0244L-2.08383 25.2933L10.9376 30.6136L19.2136 33.9951L26.1253 28.3245L37 19.4024L47.8747 28.3245Z" stroke="url(#paint8_radial_41_117)" stroke-width="30"/>
<path d="M0 176V1076" stroke="#C1A875" stroke-opacity="0.15" stroke-dasharray="30 30"/>
<path d="M114.286 176V1076" stroke="#C1A875" stroke-opacity="0.15" stroke-dasharray="30 30"/>
<path d="M228.571 176V1076" stroke="#C1A875" stroke-opacity="0.15" stroke-dasharray="30 30"/>
<path d="M342.857 176V1076" stroke="#C1A875" stroke-opacity="0.15" stroke-dasharray="30 30"/>
<path d="M457.143 176V1076" stroke="#C1A875" stroke-opacity="0.15" stroke-dasharray="30 30"/>
<path d="M571.429 176V1076" stroke="#C1A875" stroke-opacity="0.15" stroke-dasharray="30 30"/>
<path d="M685.714 176V1076" stroke="#C1A875" stroke-opacity="0.15" stroke-dasharray="30 30"/>
<path d="M800 176V1076" stroke="#C1A875" stroke-opacity="0.15" stroke-dasharray="30 30"/>
<path d="M914.286 176V1076" stroke="#C1A875" stroke-opacity="0.15" stroke-dasharray="30 30"/>
<path d="M1028.57 176V1076" stroke="#C1A875" stroke-opacity="0.15" stroke-dasharray="30 30"/>
<path d="M1142.86 176V1076" stroke="#C1A875" stroke-opacity="0.15" stroke-dasharray="30 30"/>
<path d="M1257.14 176V1076" stroke="#C1A875" stroke-opacity="0.15" stroke-dasharray="30 30"/>
<path d="M1371.43 176V1076" stroke="#C1A875" stroke-opacity="0.15" stroke-dasharray="30 30"/>
<path d="M1485.71 176V1076" stroke="#C1A875" stroke-opacity="0.15" stroke-dasharray="30 30"/>
<path d="M1600 176V1076" stroke="#C1A875" stroke-opacity="0.15" stroke-dasharray="30 30"/>
<path d="M501 691.345L100.018 911L501 1130.66L501 691.345Z" stroke="url(#paint9_linear_41_117)" stroke-width="25"/>
<path d="M501 691.345L100.018 911L501 1130.66L501 691.345Z" stroke="url(#paint10_radial_41_117)" stroke-width="25" style="mix-blend-mode:overlay"/>
<path d="M501 691.345L100.018 911L501 1130.66L501 691.345Z" stroke="url(#paint11_radial_41_117)" stroke-width="25"/>
<path d="M501 691.345L100.018 911L501 1130.66L501 691.345Z" stroke="#C1A875" stroke-width="25" style="mix-blend-mode:color"/>
<defs>
<linearGradient id="paint0_linear_41_117" x1="1271" y1="736.5" x2="1536" y2="736.5" gradientUnits="userSpaceOnUse">
<stop stop-color="#576167"/>
<stop offset="0.191294" stop-color="#9EA1A2"/>
<stop offset="0.396166" stop-color="#848989"/>
<stop offset="0.62055" stop-color="#576167"/>
<stop offset="0.830299" stop-color="#757A7C"/>
<stop offset="1" stop-color="#576167"/>
</linearGradient>
<radialGradient id="paint1_radial_41_117" cx="0" cy="0" r="1" gradientUnits="userSpaceOnUse" gradientTransform="translate(1412.13 634.892) rotate(90) scale(196.889 200.481)">
<stop stop-color="white"/>
<stop offset="1" stop-color="white" stop-opacity="0"/>
</radialGradient>
<radialGradient id="paint2_radial_41_117" cx="0" cy="0" r="1" gradientUnits="userSpaceOnUse" gradientTransform="translate(1427.12 931.528) rotate(-89.9138) scale(282.121 286.683)">
<stop stop-color="white"/>
<stop offset="1" stop-color="white" stop-opacity="0"/>
</radialGradient>
<linearGradient id="paint3_linear_41_117" x1="1018" y1="314" x2="1212" y2="314" gradientUnits="userSpaceOnUse">
<stop stop-color="#576167"/>
<stop offset="0.191294" stop-color="#9EA1A2"/>
<stop offset="0.396166" stop-color="#848989"/>
<stop offset="0.62055" stop-color="#576167"/>
<stop offset="0.830299" stop-color="#757A7C"/>
<stop offset="1" stop-color="#576167"/>
</linearGradient>
<radialGradient id="paint4_radial_41_117" cx="0" cy="0" r="1" gradientUnits="userSpaceOnUse" gradientTransform="translate(1121.31 233.48) rotate(90) scale(156.025 146.767)">
<stop stop-color="white"/>
<stop offset="1" stop-color="white" stop-opacity="0"/>
</radialGradient>
<radialGradient id="paint5_radial_41_117" cx="0" cy="0" r="1" gradientUnits="userSpaceOnUse" gradientTransform="translate(1132.29 468.551) rotate(-89.9204) scale(223.568 209.874)">
<stop stop-color="white"/>
<stop offset="1" stop-color="white" stop-opacity="0"/>
</radialGradient>
<linearGradient id="paint6_linear_41_117" x1="-115" y1="152" x2="189" y2="152" gradientUnits="userSpaceOnUse">
<stop stop-color="#576167"/>
<stop offset="0.191294" stop-color="#9EA1A2"/>
<stop offset="0.396166" stop-color="#848989"/>
<stop offset="0.62055" stop-color="#576167"/>
<stop offset="0.830299" stop-color="#757A7C"/>
<stop offset="1" stop-color="#576167"/>
</linearGradient>
<radialGradient id="paint7_radial_41_117" cx="0" cy="0" r="1" gradientUnits="userSpaceOnUse" gradientTransform="translate(46.8954 35.4382) rotate(90) scale(225.865 229.986)">
<stop stop-color="white"/>
<stop offset="1" stop-color="white" stop-opacity="0"/>
</radialGradient>
<radialGradient id="paint8_radial_41_117" cx="0" cy="0" r="1" gradientUnits="userSpaceOnUse" gradientTransform="translate(64.0907 375.73) rotate(-89.9138) scale(323.641 328.874)">
<stop stop-color="white"/>
<stop offset="1" stop-color="white" stop-opacity="0"/>
</radialGradient>
<linearGradient id="paint9_linear_41_117" x1="367" y1="633" x2="367" y2="1189" gradientUnits="userSpaceOnUse">
<stop stop-color="#576167"/>
<stop offset="0.191294" stop-color="#9EA1A2"/>
<stop offset="0.396166" stop-color="#848989"/>
<stop offset="0.62055" stop-color="#576167"/>
<stop offset="0.830299" stop-color="#757A7C"/>
<stop offset="1" stop-color="#576167"/>
</linearGradient>
<radialGradient id="paint10_radial_41_117" cx="0" cy="0" r="1" gradientUnits="userSpaceOnUse" gradientTransform="translate(142.312 929.098) scale(435.385 420.632)">
<stop stop-color="white"/>
<stop offset="1" stop-color="white" stop-opacity="0"/>
</radialGradient>
<radialGradient id="paint11_radial_41_117" cx="0" cy="0" r="1" gradientUnits="userSpaceOnUse" gradientTransform="translate(798.27 960.547) rotate(179.918) scale(623.86 601.493)">
<stop stop-color="white"/>
<stop offset="1" stop-color="white" stop-opacity="0"/>
</radialGradient>
</defs>
</svg>
