<svg width="294" height="18" viewBox="0 0 294 18" fill="none" xmlns="http://www.w3.org/2000/svg">
<path d="M13.4372 14H0.207248V11.156H5.06725V5.18H1.26925V2.606C4.36525 2.606 5.37325 2.138 5.94925 0.608H8.75725V11.156H13.4372V14ZM19.8078 10.508V14H15.6138V10.508H19.8078ZM39.24 14V3.56H33.48C33.48 7.214 33.318 10.004 32.832 11.462C32.4 12.74 31.626 14 28.962 14H27.63V10.85H27.756C28.854 10.85 29.304 10.346 29.52 9.788C29.88 8.852 29.97 7.574 29.97 0.608H42.948V14H39.24ZM54.4777 7.952L49.6537 14H46.0537V4.01H49.5637V10.058L54.3877 4.01H57.9877V14H54.4777V7.952ZM60.0792 16.124V11.336H61.2852C61.9692 9.968 62.0772 6.998 62.1672 4.01H72.7332V11.336H74.5332V16.124H71.2032V14H63.4092V16.124H60.0792ZM64.5972 11.336H69.2232V6.674H65.3172C65.2632 7.97 65.0832 9.95 64.5972 11.336ZM82.2603 6.08C80.4423 6.08 79.7583 6.818 79.5783 7.862H84.8703C84.8703 7.124 84.5103 6.08 82.2603 6.08ZM84.9423 10.886H88.5963C88.5963 11.714 87.9483 14.234 82.7823 14.234H82.1163C77.1843 14.234 75.9603 11.534 75.9603 9.14V8.888C75.9603 6.638 77.0763 3.794 81.8103 3.794H82.6023C87.7143 3.794 88.6323 6.638 88.6323 9.428V9.752H79.5423C79.6863 10.904 80.4243 11.84 82.5663 11.84C84.6003 11.84 84.8523 11.048 84.9423 10.886ZM100.216 9.014V8.96C100.216 7.88 99.7121 6.422 97.5161 6.422H97.3361C95.2301 6.422 94.5641 7.808 94.5641 8.96V9.014C94.5641 10.112 95.2301 11.552 97.3361 11.552H97.5161C99.7121 11.552 100.216 10.04 100.216 9.014ZM91.0721 17.438V4.01H94.5461V5.288C94.9781 4.82 96.2921 3.812 98.5601 3.812H98.7941C102.61 3.812 103.852 6.422 103.852 8.798V9.104C103.852 11.282 102.574 14.198 98.7761 14.198H98.5241C96.2381 14.198 95.0141 13.154 94.5821 12.722V17.438H91.0721ZM112.253 17.438V14.936H114.449C114.791 14.936 114.971 14.792 114.971 14.522V14.504C114.971 14.288 114.917 14.09 114.647 13.532L110.363 4.01H114.215L116.987 11.174L119.741 4.01H123.269L118.697 15.008C117.995 16.646 117.131 17.438 115.475 17.438H112.253ZM128.29 7.268V14H125.05V4.01H130L132.97 10.382L135.94 4.01H140.71V14H137.2V7.268L134.086 14H131.404L128.29 7.268ZM147.017 14H143.507V4.01H147.017V7.646H151.913V4.01H155.423V14H151.913V10.31H147.017V14ZM158.343 14V4.01H161.853V6.872H164.589C168.009 6.872 169.341 8.384 169.341 10.292V10.508C169.341 12.596 168.009 14 164.589 14H158.343ZM161.853 11.624H164.157C164.877 11.624 165.741 11.408 165.741 10.436V10.382C165.741 9.482 164.877 9.248 164.157 9.248H161.853V11.624ZM174.129 4.01V14H170.619V4.01H174.129ZM185.038 14L182.356 11.138L179.746 14H175.768L180.25 8.996L175.624 4.01H179.926L182.482 6.8L184.948 4.01H188.818L184.516 8.924L189.088 14H185.038ZM195.784 14V4.01H204.496V6.674H199.294V14H195.784ZM212.665 14.27H212.107C206.725 14.27 205.897 10.994 205.897 9.176V8.924C205.897 7.124 206.725 3.74 212.089 3.74H212.683C218.227 3.74 218.875 7.142 218.875 8.906V9.194C218.875 10.994 218.227 14.27 212.665 14.27ZM212.287 11.642H212.485C214.699 11.642 215.257 10.058 215.257 8.96C215.257 7.826 214.699 6.314 212.485 6.314H212.287C209.983 6.314 209.515 7.826 209.515 8.96C209.515 10.058 209.983 11.642 212.287 11.642ZM230.47 9.014V8.96C230.47 7.88 229.966 6.422 227.77 6.422H227.59C225.484 6.422 224.818 7.808 224.818 8.96V9.014C224.818 10.112 225.484 11.552 227.59 11.552H227.77C229.966 11.552 230.47 10.04 230.47 9.014ZM221.326 17.438V4.01H224.8V5.288C225.232 4.82 226.546 3.812 228.814 3.812H229.048C232.864 3.812 234.106 6.422 234.106 8.798V9.104C234.106 11.282 232.828 14.198 229.03 14.198H228.778C226.492 14.198 225.268 13.154 224.836 12.722V17.438H221.326ZM242.812 14.27H242.254C236.872 14.27 236.044 10.994 236.044 9.176V8.924C236.044 7.124 236.872 3.74 242.236 3.74H242.83C248.374 3.74 249.022 7.142 249.022 8.906V9.194C249.022 10.994 248.374 14.27 242.812 14.27ZM242.434 11.642H242.632C244.846 11.642 245.404 10.058 245.404 8.96C245.404 7.826 244.846 6.314 242.632 6.314H242.434C240.13 6.314 239.662 7.826 239.662 8.96C239.662 10.058 240.13 11.642 242.434 11.642ZM250.345 16.124V11.336H251.551C252.235 9.968 252.343 6.998 252.433 4.01H262.999V11.336H264.799V16.124H261.469V14H253.675V16.124H250.345ZM254.863 11.336H259.489V6.674H255.583C255.529 7.97 255.349 9.95 254.863 11.336ZM272.976 14.27H272.418C267.036 14.27 266.208 10.994 266.208 9.176V8.924C266.208 7.124 267.036 3.74 272.4 3.74H272.994C278.538 3.74 279.186 7.142 279.186 8.906V9.194C279.186 10.994 278.538 14.27 272.976 14.27ZM272.598 11.642H272.796C275.01 11.642 275.568 10.058 275.568 8.96C275.568 7.826 275.01 6.314 272.796 6.314H272.598C270.294 6.314 269.826 7.826 269.826 8.96C269.826 10.058 270.294 11.642 272.598 11.642ZM289.845 14H281.601V4.01H289.485C291.771 4.01 293.211 4.82 293.211 6.404V6.494C293.211 7.736 292.419 8.474 291.213 8.672C292.437 8.816 293.535 9.68 293.535 11.12V11.192C293.535 13.01 292.347 14 289.845 14ZM285.111 7.988H288.333C289.179 7.988 289.611 7.664 289.611 7.034V6.944C289.611 6.368 289.215 6.026 288.333 6.026H285.111V7.988ZM285.111 11.984H288.477C289.413 11.984 289.935 11.678 289.935 10.976V10.832C289.935 10.202 289.503 9.806 288.477 9.806H285.111V11.984Z" fill="url(#paint0_linear_2017_643)"/>
<path d="M13.4372 14H0.207248V11.156H5.06725V5.18H1.26925V2.606C4.36525 2.606 5.37325 2.138 5.94925 0.608H8.75725V11.156H13.4372V14ZM19.8078 10.508V14H15.6138V10.508H19.8078ZM39.24 14V3.56H33.48C33.48 7.214 33.318 10.004 32.832 11.462C32.4 12.74 31.626 14 28.962 14H27.63V10.85H27.756C28.854 10.85 29.304 10.346 29.52 9.788C29.88 8.852 29.97 7.574 29.97 0.608H42.948V14H39.24ZM54.4777 7.952L49.6537 14H46.0537V4.01H49.5637V10.058L54.3877 4.01H57.9877V14H54.4777V7.952ZM60.0792 16.124V11.336H61.2852C61.9692 9.968 62.0772 6.998 62.1672 4.01H72.7332V11.336H74.5332V16.124H71.2032V14H63.4092V16.124H60.0792ZM64.5972 11.336H69.2232V6.674H65.3172C65.2632 7.97 65.0832 9.95 64.5972 11.336ZM82.2603 6.08C80.4423 6.08 79.7583 6.818 79.5783 7.862H84.8703C84.8703 7.124 84.5103 6.08 82.2603 6.08ZM84.9423 10.886H88.5963C88.5963 11.714 87.9483 14.234 82.7823 14.234H82.1163C77.1843 14.234 75.9603 11.534 75.9603 9.14V8.888C75.9603 6.638 77.0763 3.794 81.8103 3.794H82.6023C87.7143 3.794 88.6323 6.638 88.6323 9.428V9.752H79.5423C79.6863 10.904 80.4243 11.84 82.5663 11.84C84.6003 11.84 84.8523 11.048 84.9423 10.886ZM100.216 9.014V8.96C100.216 7.88 99.7121 6.422 97.5161 6.422H97.3361C95.2301 6.422 94.5641 7.808 94.5641 8.96V9.014C94.5641 10.112 95.2301 11.552 97.3361 11.552H97.5161C99.7121 11.552 100.216 10.04 100.216 9.014ZM91.0721 17.438V4.01H94.5461V5.288C94.9781 4.82 96.2921 3.812 98.5601 3.812H98.7941C102.61 3.812 103.852 6.422 103.852 8.798V9.104C103.852 11.282 102.574 14.198 98.7761 14.198H98.5241C96.2381 14.198 95.0141 13.154 94.5821 12.722V17.438H91.0721ZM112.253 17.438V14.936H114.449C114.791 14.936 114.971 14.792 114.971 14.522V14.504C114.971 14.288 114.917 14.09 114.647 13.532L110.363 4.01H114.215L116.987 11.174L119.741 4.01H123.269L118.697 15.008C117.995 16.646 117.131 17.438 115.475 17.438H112.253ZM128.29 7.268V14H125.05V4.01H130L132.97 10.382L135.94 4.01H140.71V14H137.2V7.268L134.086 14H131.404L128.29 7.268ZM147.017 14H143.507V4.01H147.017V7.646H151.913V4.01H155.423V14H151.913V10.31H147.017V14ZM158.343 14V4.01H161.853V6.872H164.589C168.009 6.872 169.341 8.384 169.341 10.292V10.508C169.341 12.596 168.009 14 164.589 14H158.343ZM161.853 11.624H164.157C164.877 11.624 165.741 11.408 165.741 10.436V10.382C165.741 9.482 164.877 9.248 164.157 9.248H161.853V11.624ZM174.129 4.01V14H170.619V4.01H174.129ZM185.038 14L182.356 11.138L179.746 14H175.768L180.25 8.996L175.624 4.01H179.926L182.482 6.8L184.948 4.01H188.818L184.516 8.924L189.088 14H185.038ZM195.784 14V4.01H204.496V6.674H199.294V14H195.784ZM212.665 14.27H212.107C206.725 14.27 205.897 10.994 205.897 9.176V8.924C205.897 7.124 206.725 3.74 212.089 3.74H212.683C218.227 3.74 218.875 7.142 218.875 8.906V9.194C218.875 10.994 218.227 14.27 212.665 14.27ZM212.287 11.642H212.485C214.699 11.642 215.257 10.058 215.257 8.96C215.257 7.826 214.699 6.314 212.485 6.314H212.287C209.983 6.314 209.515 7.826 209.515 8.96C209.515 10.058 209.983 11.642 212.287 11.642ZM230.47 9.014V8.96C230.47 7.88 229.966 6.422 227.77 6.422H227.59C225.484 6.422 224.818 7.808 224.818 8.96V9.014C224.818 10.112 225.484 11.552 227.59 11.552H227.77C229.966 11.552 230.47 10.04 230.47 9.014ZM221.326 17.438V4.01H224.8V5.288C225.232 4.82 226.546 3.812 228.814 3.812H229.048C232.864 3.812 234.106 6.422 234.106 8.798V9.104C234.106 11.282 232.828 14.198 229.03 14.198H228.778C226.492 14.198 225.268 13.154 224.836 12.722V17.438H221.326ZM242.812 14.27H242.254C236.872 14.27 236.044 10.994 236.044 9.176V8.924C236.044 7.124 236.872 3.74 242.236 3.74H242.83C248.374 3.74 249.022 7.142 249.022 8.906V9.194C249.022 10.994 248.374 14.27 242.812 14.27ZM242.434 11.642H242.632C244.846 11.642 245.404 10.058 245.404 8.96C245.404 7.826 244.846 6.314 242.632 6.314H242.434C240.13 6.314 239.662 7.826 239.662 8.96C239.662 10.058 240.13 11.642 242.434 11.642ZM250.345 16.124V11.336H251.551C252.235 9.968 252.343 6.998 252.433 4.01H262.999V11.336H264.799V16.124H261.469V14H253.675V16.124H250.345ZM254.863 11.336H259.489V6.674H255.583C255.529 7.97 255.349 9.95 254.863 11.336ZM272.976 14.27H272.418C267.036 14.27 266.208 10.994 266.208 9.176V8.924C266.208 7.124 267.036 3.74 272.4 3.74H272.994C278.538 3.74 279.186 7.142 279.186 8.906V9.194C279.186 10.994 278.538 14.27 272.976 14.27ZM272.598 11.642H272.796C275.01 11.642 275.568 10.058 275.568 8.96C275.568 7.826 275.01 6.314 272.796 6.314H272.598C270.294 6.314 269.826 7.826 269.826 8.96C269.826 10.058 270.294 11.642 272.598 11.642ZM289.845 14H281.601V4.01H289.485C291.771 4.01 293.211 4.82 293.211 6.404V6.494C293.211 7.736 292.419 8.474 291.213 8.672C292.437 8.816 293.535 9.68 293.535 11.12V11.192C293.535 13.01 292.347 14 289.845 14ZM285.111 7.988H288.333C289.179 7.988 289.611 7.664 289.611 7.034V6.944C289.611 6.368 289.215 6.026 288.333 6.026H285.111V7.988ZM285.111 11.984H288.477C289.413 11.984 289.935 11.678 289.935 10.976V10.832C289.935 10.202 289.503 9.806 288.477 9.806H285.111V11.984Z" fill="url(#paint1_radial_2017_643)" style="mix-blend-mode:overlay"/>
<path d="M13.4372 14H0.207248V11.156H5.06725V5.18H1.26925V2.606C4.36525 2.606 5.37325 2.138 5.94925 0.608H8.75725V11.156H13.4372V14ZM19.8078 10.508V14H15.6138V10.508H19.8078ZM39.24 14V3.56H33.48C33.48 7.214 33.318 10.004 32.832 11.462C32.4 12.74 31.626 14 28.962 14H27.63V10.85H27.756C28.854 10.85 29.304 10.346 29.52 9.788C29.88 8.852 29.97 7.574 29.97 0.608H42.948V14H39.24ZM54.4777 7.952L49.6537 14H46.0537V4.01H49.5637V10.058L54.3877 4.01H57.9877V14H54.4777V7.952ZM60.0792 16.124V11.336H61.2852C61.9692 9.968 62.0772 6.998 62.1672 4.01H72.7332V11.336H74.5332V16.124H71.2032V14H63.4092V16.124H60.0792ZM64.5972 11.336H69.2232V6.674H65.3172C65.2632 7.97 65.0832 9.95 64.5972 11.336ZM82.2603 6.08C80.4423 6.08 79.7583 6.818 79.5783 7.862H84.8703C84.8703 7.124 84.5103 6.08 82.2603 6.08ZM84.9423 10.886H88.5963C88.5963 11.714 87.9483 14.234 82.7823 14.234H82.1163C77.1843 14.234 75.9603 11.534 75.9603 9.14V8.888C75.9603 6.638 77.0763 3.794 81.8103 3.794H82.6023C87.7143 3.794 88.6323 6.638 88.6323 9.428V9.752H79.5423C79.6863 10.904 80.4243 11.84 82.5663 11.84C84.6003 11.84 84.8523 11.048 84.9423 10.886ZM100.216 9.014V8.96C100.216 7.88 99.7121 6.422 97.5161 6.422H97.3361C95.2301 6.422 94.5641 7.808 94.5641 8.96V9.014C94.5641 10.112 95.2301 11.552 97.3361 11.552H97.5161C99.7121 11.552 100.216 10.04 100.216 9.014ZM91.0721 17.438V4.01H94.5461V5.288C94.9781 4.82 96.2921 3.812 98.5601 3.812H98.7941C102.61 3.812 103.852 6.422 103.852 8.798V9.104C103.852 11.282 102.574 14.198 98.7761 14.198H98.5241C96.2381 14.198 95.0141 13.154 94.5821 12.722V17.438H91.0721ZM112.253 17.438V14.936H114.449C114.791 14.936 114.971 14.792 114.971 14.522V14.504C114.971 14.288 114.917 14.09 114.647 13.532L110.363 4.01H114.215L116.987 11.174L119.741 4.01H123.269L118.697 15.008C117.995 16.646 117.131 17.438 115.475 17.438H112.253ZM128.29 7.268V14H125.05V4.01H130L132.97 10.382L135.94 4.01H140.71V14H137.2V7.268L134.086 14H131.404L128.29 7.268ZM147.017 14H143.507V4.01H147.017V7.646H151.913V4.01H155.423V14H151.913V10.31H147.017V14ZM158.343 14V4.01H161.853V6.872H164.589C168.009 6.872 169.341 8.384 169.341 10.292V10.508C169.341 12.596 168.009 14 164.589 14H158.343ZM161.853 11.624H164.157C164.877 11.624 165.741 11.408 165.741 10.436V10.382C165.741 9.482 164.877 9.248 164.157 9.248H161.853V11.624ZM174.129 4.01V14H170.619V4.01H174.129ZM185.038 14L182.356 11.138L179.746 14H175.768L180.25 8.996L175.624 4.01H179.926L182.482 6.8L184.948 4.01H188.818L184.516 8.924L189.088 14H185.038ZM195.784 14V4.01H204.496V6.674H199.294V14H195.784ZM212.665 14.27H212.107C206.725 14.27 205.897 10.994 205.897 9.176V8.924C205.897 7.124 206.725 3.74 212.089 3.74H212.683C218.227 3.74 218.875 7.142 218.875 8.906V9.194C218.875 10.994 218.227 14.27 212.665 14.27ZM212.287 11.642H212.485C214.699 11.642 215.257 10.058 215.257 8.96C215.257 7.826 214.699 6.314 212.485 6.314H212.287C209.983 6.314 209.515 7.826 209.515 8.96C209.515 10.058 209.983 11.642 212.287 11.642ZM230.47 9.014V8.96C230.47 7.88 229.966 6.422 227.77 6.422H227.59C225.484 6.422 224.818 7.808 224.818 8.96V9.014C224.818 10.112 225.484 11.552 227.59 11.552H227.77C229.966 11.552 230.47 10.04 230.47 9.014ZM221.326 17.438V4.01H224.8V5.288C225.232 4.82 226.546 3.812 228.814 3.812H229.048C232.864 3.812 234.106 6.422 234.106 8.798V9.104C234.106 11.282 232.828 14.198 229.03 14.198H228.778C226.492 14.198 225.268 13.154 224.836 12.722V17.438H221.326ZM242.812 14.27H242.254C236.872 14.27 236.044 10.994 236.044 9.176V8.924C236.044 7.124 236.872 3.74 242.236 3.74H242.83C248.374 3.74 249.022 7.142 249.022 8.906V9.194C249.022 10.994 248.374 14.27 242.812 14.27ZM242.434 11.642H242.632C244.846 11.642 245.404 10.058 245.404 8.96C245.404 7.826 244.846 6.314 242.632 6.314H242.434C240.13 6.314 239.662 7.826 239.662 8.96C239.662 10.058 240.13 11.642 242.434 11.642ZM250.345 16.124V11.336H251.551C252.235 9.968 252.343 6.998 252.433 4.01H262.999V11.336H264.799V16.124H261.469V14H253.675V16.124H250.345ZM254.863 11.336H259.489V6.674H255.583C255.529 7.97 255.349 9.95 254.863 11.336ZM272.976 14.27H272.418C267.036 14.27 266.208 10.994 266.208 9.176V8.924C266.208 7.124 267.036 3.74 272.4 3.74H272.994C278.538 3.74 279.186 7.142 279.186 8.906V9.194C279.186 10.994 278.538 14.27 272.976 14.27ZM272.598 11.642H272.796C275.01 11.642 275.568 10.058 275.568 8.96C275.568 7.826 275.01 6.314 272.796 6.314H272.598C270.294 6.314 269.826 7.826 269.826 8.96C269.826 10.058 270.294 11.642 272.598 11.642ZM289.845 14H281.601V4.01H289.485C291.771 4.01 293.211 4.82 293.211 6.404V6.494C293.211 7.736 292.419 8.474 291.213 8.672C292.437 8.816 293.535 9.68 293.535 11.12V11.192C293.535 13.01 292.347 14 289.845 14ZM285.111 7.988H288.333C289.179 7.988 289.611 7.664 289.611 7.034V6.944C289.611 6.368 289.215 6.026 288.333 6.026H285.111V7.988ZM285.111 11.984H288.477C289.413 11.984 289.935 11.678 289.935 10.976V10.832C289.935 10.202 289.503 9.806 288.477 9.806H285.111V11.984Z" fill="url(#paint2_radial_2017_643)"/>
<path d="M13.4372 14H0.207248V11.156H5.06725V5.18H1.26925V2.606C4.36525 2.606 5.37325 2.138 5.94925 0.608H8.75725V11.156H13.4372V14ZM19.8078 10.508V14H15.6138V10.508H19.8078ZM39.24 14V3.56H33.48C33.48 7.214 33.318 10.004 32.832 11.462C32.4 12.74 31.626 14 28.962 14H27.63V10.85H27.756C28.854 10.85 29.304 10.346 29.52 9.788C29.88 8.852 29.97 7.574 29.97 0.608H42.948V14H39.24ZM54.4777 7.952L49.6537 14H46.0537V4.01H49.5637V10.058L54.3877 4.01H57.9877V14H54.4777V7.952ZM60.0792 16.124V11.336H61.2852C61.9692 9.968 62.0772 6.998 62.1672 4.01H72.7332V11.336H74.5332V16.124H71.2032V14H63.4092V16.124H60.0792ZM64.5972 11.336H69.2232V6.674H65.3172C65.2632 7.97 65.0832 9.95 64.5972 11.336ZM82.2603 6.08C80.4423 6.08 79.7583 6.818 79.5783 7.862H84.8703C84.8703 7.124 84.5103 6.08 82.2603 6.08ZM84.9423 10.886H88.5963C88.5963 11.714 87.9483 14.234 82.7823 14.234H82.1163C77.1843 14.234 75.9603 11.534 75.9603 9.14V8.888C75.9603 6.638 77.0763 3.794 81.8103 3.794H82.6023C87.7143 3.794 88.6323 6.638 88.6323 9.428V9.752H79.5423C79.6863 10.904 80.4243 11.84 82.5663 11.84C84.6003 11.84 84.8523 11.048 84.9423 10.886ZM100.216 9.014V8.96C100.216 7.88 99.7121 6.422 97.5161 6.422H97.3361C95.2301 6.422 94.5641 7.808 94.5641 8.96V9.014C94.5641 10.112 95.2301 11.552 97.3361 11.552H97.5161C99.7121 11.552 100.216 10.04 100.216 9.014ZM91.0721 17.438V4.01H94.5461V5.288C94.9781 4.82 96.2921 3.812 98.5601 3.812H98.7941C102.61 3.812 103.852 6.422 103.852 8.798V9.104C103.852 11.282 102.574 14.198 98.7761 14.198H98.5241C96.2381 14.198 95.0141 13.154 94.5821 12.722V17.438H91.0721ZM112.253 17.438V14.936H114.449C114.791 14.936 114.971 14.792 114.971 14.522V14.504C114.971 14.288 114.917 14.09 114.647 13.532L110.363 4.01H114.215L116.987 11.174L119.741 4.01H123.269L118.697 15.008C117.995 16.646 117.131 17.438 115.475 17.438H112.253ZM128.29 7.268V14H125.05V4.01H130L132.97 10.382L135.94 4.01H140.71V14H137.2V7.268L134.086 14H131.404L128.29 7.268ZM147.017 14H143.507V4.01H147.017V7.646H151.913V4.01H155.423V14H151.913V10.31H147.017V14ZM158.343 14V4.01H161.853V6.872H164.589C168.009 6.872 169.341 8.384 169.341 10.292V10.508C169.341 12.596 168.009 14 164.589 14H158.343ZM161.853 11.624H164.157C164.877 11.624 165.741 11.408 165.741 10.436V10.382C165.741 9.482 164.877 9.248 164.157 9.248H161.853V11.624ZM174.129 4.01V14H170.619V4.01H174.129ZM185.038 14L182.356 11.138L179.746 14H175.768L180.25 8.996L175.624 4.01H179.926L182.482 6.8L184.948 4.01H188.818L184.516 8.924L189.088 14H185.038ZM195.784 14V4.01H204.496V6.674H199.294V14H195.784ZM212.665 14.27H212.107C206.725 14.27 205.897 10.994 205.897 9.176V8.924C205.897 7.124 206.725 3.74 212.089 3.74H212.683C218.227 3.74 218.875 7.142 218.875 8.906V9.194C218.875 10.994 218.227 14.27 212.665 14.27ZM212.287 11.642H212.485C214.699 11.642 215.257 10.058 215.257 8.96C215.257 7.826 214.699 6.314 212.485 6.314H212.287C209.983 6.314 209.515 7.826 209.515 8.96C209.515 10.058 209.983 11.642 212.287 11.642ZM230.47 9.014V8.96C230.47 7.88 229.966 6.422 227.77 6.422H227.59C225.484 6.422 224.818 7.808 224.818 8.96V9.014C224.818 10.112 225.484 11.552 227.59 11.552H227.77C229.966 11.552 230.47 10.04 230.47 9.014ZM221.326 17.438V4.01H224.8V5.288C225.232 4.82 226.546 3.812 228.814 3.812H229.048C232.864 3.812 234.106 6.422 234.106 8.798V9.104C234.106 11.282 232.828 14.198 229.03 14.198H228.778C226.492 14.198 225.268 13.154 224.836 12.722V17.438H221.326ZM242.812 14.27H242.254C236.872 14.27 236.044 10.994 236.044 9.176V8.924C236.044 7.124 236.872 3.74 242.236 3.74H242.83C248.374 3.74 249.022 7.142 249.022 8.906V9.194C249.022 10.994 248.374 14.27 242.812 14.27ZM242.434 11.642H242.632C244.846 11.642 245.404 10.058 245.404 8.96C245.404 7.826 244.846 6.314 242.632 6.314H242.434C240.13 6.314 239.662 7.826 239.662 8.96C239.662 10.058 240.13 11.642 242.434 11.642ZM250.345 16.124V11.336H251.551C252.235 9.968 252.343 6.998 252.433 4.01H262.999V11.336H264.799V16.124H261.469V14H253.675V16.124H250.345ZM254.863 11.336H259.489V6.674H255.583C255.529 7.97 255.349 9.95 254.863 11.336ZM272.976 14.27H272.418C267.036 14.27 266.208 10.994 266.208 9.176V8.924C266.208 7.124 267.036 3.74 272.4 3.74H272.994C278.538 3.74 279.186 7.142 279.186 8.906V9.194C279.186 10.994 278.538 14.27 272.976 14.27ZM272.598 11.642H272.796C275.01 11.642 275.568 10.058 275.568 8.96C275.568 7.826 275.01 6.314 272.796 6.314H272.598C270.294 6.314 269.826 7.826 269.826 8.96C269.826 10.058 270.294 11.642 272.598 11.642ZM289.845 14H281.601V4.01H289.485C291.771 4.01 293.211 4.82 293.211 6.404V6.494C293.211 7.736 292.419 8.474 291.213 8.672C292.437 8.816 293.535 9.68 293.535 11.12V11.192C293.535 13.01 292.347 14 289.845 14ZM285.111 7.988H288.333C289.179 7.988 289.611 7.664 289.611 7.034V6.944C289.611 6.368 289.215 6.026 288.333 6.026H285.111V7.988ZM285.111 11.984H288.477C289.413 11.984 289.935 11.678 289.935 10.976V10.832C289.935 10.202 289.503 9.806 288.477 9.806H285.111V11.984Z" fill="#C1A875" style="mix-blend-mode:color"/>
<defs>
<linearGradient id="paint0_linear_2017_643" x1="1.09896e-06" y1="6" x2="295" y2="6.00002" gradientUnits="userSpaceOnUse">
<stop stop-color="#576167"/>
<stop offset="0.191294" stop-color="#9EA1A2"/>
<stop offset="0.396166" stop-color="#848989"/>
<stop offset="0.62055" stop-color="#576167"/>
<stop offset="0.830299" stop-color="#757A7C"/>
<stop offset="1" stop-color="#576167"/>
</linearGradient>
<radialGradient id="paint1_radial_2017_643" cx="0" cy="0" r="1" gradientUnits="userSpaceOnUse" gradientTransform="translate(157.102 -3.20225) rotate(90) scale(17.8315 223.177)">
<stop stop-color="white"/>
<stop offset="1" stop-color="white" stop-opacity="0"/>
</radialGradient>
<radialGradient id="paint2_radial_2017_643" cx="0" cy="0" r="1" gradientUnits="userSpaceOnUse" gradientTransform="translate(173.789 23.6629) rotate(-88.9411) scale(25.5549 319.084)">
<stop stop-color="white"/>
<stop offset="1" stop-color="white" stop-opacity="0"/>
</radialGradient>
</defs>
</svg>
