<svg width="219" height="19" viewBox="0 0 219 19" fill="none" xmlns="http://www.w3.org/2000/svg">
<path d="M4.05 6.342H0.864V3.624C3.564 3.624 4.392 3.228 4.968 1.608H7.74V15H4.05V6.342ZM18.061 1.392H18.817C25.099 1.392 26.305 5.622 26.305 7.998V8.538C26.305 10.878 25.063 15.216 18.817 15.216H18.061C11.797 15.216 10.573 10.878 10.573 8.538V7.998C10.573 5.568 11.797 1.392 18.061 1.392ZM22.453 8.376V8.124C22.453 6.918 21.949 4.452 18.439 4.452C14.893 4.452 14.425 6.918 14.425 8.124V8.376C14.425 9.6 15.001 12.138 18.457 12.138C21.913 12.138 22.453 9.6 22.453 8.376ZM32.4523 11.508V15H28.2583V11.508H32.4523ZM45.7068 15V1.608H59.5848V15H55.8768V4.56H49.4148V15H45.7068ZM71.1242 8.952L66.3002 15H62.7002V5.01H66.2102V11.058L71.0342 5.01H74.6342V15H71.1242V8.952ZM83.8177 15.27H83.2597C77.8777 15.27 77.0497 11.994 77.0497 10.176V9.924C77.0497 8.124 77.8777 4.74 83.2417 4.74H83.8357C89.3797 4.74 90.0277 8.142 90.0277 9.906V10.194C90.0277 11.994 89.3797 15.27 83.8177 15.27ZM83.4397 12.642H83.6377C85.8517 12.642 86.4097 11.058 86.4097 9.96C86.4097 8.826 85.8517 7.314 83.6377 7.314H83.4397C81.1357 7.314 80.6677 8.826 80.6677 9.96C80.6677 11.058 81.1357 12.642 83.4397 12.642ZM95.9524 15H92.4424V5.01H95.9524V8.646H100.848V5.01H104.358V15H100.848V11.31H95.9524V15ZM113.092 7.08C111.274 7.08 110.59 7.818 110.41 8.862H115.702C115.702 8.124 115.342 7.08 113.092 7.08ZM115.774 11.886H119.428C119.428 12.714 118.78 15.234 113.614 15.234H112.948C108.016 15.234 106.792 12.534 106.792 10.14V9.888C106.792 7.638 107.908 4.794 112.642 4.794H113.434C118.546 4.794 119.464 7.638 119.464 10.428V10.752H110.374C110.518 11.904 111.256 12.84 113.398 12.84C115.432 12.84 115.684 12.048 115.774 11.886ZM131.048 10.014V9.96C131.048 8.88 130.544 7.422 128.348 7.422H128.168C126.062 7.422 125.396 8.808 125.396 9.96V10.014C125.396 11.112 126.062 12.552 128.168 12.552H128.348C130.544 12.552 131.048 11.04 131.048 10.014ZM121.904 18.438V5.01H125.378V6.288C125.81 5.82 127.124 4.812 129.392 4.812H129.626C133.442 4.812 134.684 7.422 134.684 9.798V10.104C134.684 12.282 133.406 15.198 129.608 15.198H129.356C127.07 15.198 125.846 14.154 125.414 13.722V18.438H121.904ZM152.193 15H147.315L141.105 1.608H145.425L149.781 11.76L154.155 1.608H158.187L152.193 15ZM163.778 4.56V7.404H168.944C170.456 7.404 170.87 6.756 170.87 5.982V5.946C170.87 5.172 170.456 4.56 168.944 4.56H163.778ZM171.932 8.556C173.75 8.97 174.848 10.068 174.848 12.03V13.416C174.848 14.424 174.938 14.694 175.064 14.91V15H171.23C171.176 14.91 171.104 14.658 171.104 14.064V12.966C171.104 11.238 170.474 10.446 168.602 10.446H163.778V15H160.07V1.608H169.088C174.182 1.608 174.758 3.732 174.758 5.19V5.37C174.758 7.044 173.606 8.178 171.932 8.556ZM184.342 0.455999L178.528 17.358H175.81L181.606 0.455999H184.342ZM195.006 9.762L192.576 4.308L190.218 9.762H195.006ZM197.346 15L196.248 12.516H189.012L187.932 15H184.206L190.146 1.608H195.114L201.324 15H197.346ZM206.88 4.56V7.404H212.046C213.558 7.404 213.972 6.756 213.972 5.982V5.946C213.972 5.172 213.558 4.56 212.046 4.56H206.88ZM215.034 8.556C216.852 8.97 217.95 10.068 217.95 12.03V13.416C217.95 14.424 218.04 14.694 218.166 14.91V15H214.332C214.278 14.91 214.206 14.658 214.206 14.064V12.966C214.206 11.238 213.576 10.446 211.704 10.446H206.88V15H203.172V1.608H212.19C217.284 1.608 217.86 3.732 217.86 5.19V5.37C217.86 7.044 216.708 8.178 215.034 8.556Z" fill="url(#paint0_linear_2017_707)"/>
<path d="M4.05 6.342H0.864V3.624C3.564 3.624 4.392 3.228 4.968 1.608H7.74V15H4.05V6.342ZM18.061 1.392H18.817C25.099 1.392 26.305 5.622 26.305 7.998V8.538C26.305 10.878 25.063 15.216 18.817 15.216H18.061C11.797 15.216 10.573 10.878 10.573 8.538V7.998C10.573 5.568 11.797 1.392 18.061 1.392ZM22.453 8.376V8.124C22.453 6.918 21.949 4.452 18.439 4.452C14.893 4.452 14.425 6.918 14.425 8.124V8.376C14.425 9.6 15.001 12.138 18.457 12.138C21.913 12.138 22.453 9.6 22.453 8.376ZM32.4523 11.508V15H28.2583V11.508H32.4523ZM45.7068 15V1.608H59.5848V15H55.8768V4.56H49.4148V15H45.7068ZM71.1242 8.952L66.3002 15H62.7002V5.01H66.2102V11.058L71.0342 5.01H74.6342V15H71.1242V8.952ZM83.8177 15.27H83.2597C77.8777 15.27 77.0497 11.994 77.0497 10.176V9.924C77.0497 8.124 77.8777 4.74 83.2417 4.74H83.8357C89.3797 4.74 90.0277 8.142 90.0277 9.906V10.194C90.0277 11.994 89.3797 15.27 83.8177 15.27ZM83.4397 12.642H83.6377C85.8517 12.642 86.4097 11.058 86.4097 9.96C86.4097 8.826 85.8517 7.314 83.6377 7.314H83.4397C81.1357 7.314 80.6677 8.826 80.6677 9.96C80.6677 11.058 81.1357 12.642 83.4397 12.642ZM95.9524 15H92.4424V5.01H95.9524V8.646H100.848V5.01H104.358V15H100.848V11.31H95.9524V15ZM113.092 7.08C111.274 7.08 110.59 7.818 110.41 8.862H115.702C115.702 8.124 115.342 7.08 113.092 7.08ZM115.774 11.886H119.428C119.428 12.714 118.78 15.234 113.614 15.234H112.948C108.016 15.234 106.792 12.534 106.792 10.14V9.888C106.792 7.638 107.908 4.794 112.642 4.794H113.434C118.546 4.794 119.464 7.638 119.464 10.428V10.752H110.374C110.518 11.904 111.256 12.84 113.398 12.84C115.432 12.84 115.684 12.048 115.774 11.886ZM131.048 10.014V9.96C131.048 8.88 130.544 7.422 128.348 7.422H128.168C126.062 7.422 125.396 8.808 125.396 9.96V10.014C125.396 11.112 126.062 12.552 128.168 12.552H128.348C130.544 12.552 131.048 11.04 131.048 10.014ZM121.904 18.438V5.01H125.378V6.288C125.81 5.82 127.124 4.812 129.392 4.812H129.626C133.442 4.812 134.684 7.422 134.684 9.798V10.104C134.684 12.282 133.406 15.198 129.608 15.198H129.356C127.07 15.198 125.846 14.154 125.414 13.722V18.438H121.904ZM152.193 15H147.315L141.105 1.608H145.425L149.781 11.76L154.155 1.608H158.187L152.193 15ZM163.778 4.56V7.404H168.944C170.456 7.404 170.87 6.756 170.87 5.982V5.946C170.87 5.172 170.456 4.56 168.944 4.56H163.778ZM171.932 8.556C173.75 8.97 174.848 10.068 174.848 12.03V13.416C174.848 14.424 174.938 14.694 175.064 14.91V15H171.23C171.176 14.91 171.104 14.658 171.104 14.064V12.966C171.104 11.238 170.474 10.446 168.602 10.446H163.778V15H160.07V1.608H169.088C174.182 1.608 174.758 3.732 174.758 5.19V5.37C174.758 7.044 173.606 8.178 171.932 8.556ZM184.342 0.455999L178.528 17.358H175.81L181.606 0.455999H184.342ZM195.006 9.762L192.576 4.308L190.218 9.762H195.006ZM197.346 15L196.248 12.516H189.012L187.932 15H184.206L190.146 1.608H195.114L201.324 15H197.346ZM206.88 4.56V7.404H212.046C213.558 7.404 213.972 6.756 213.972 5.982V5.946C213.972 5.172 213.558 4.56 212.046 4.56H206.88ZM215.034 8.556C216.852 8.97 217.95 10.068 217.95 12.03V13.416C217.95 14.424 218.04 14.694 218.166 14.91V15H214.332C214.278 14.91 214.206 14.658 214.206 14.064V12.966C214.206 11.238 213.576 10.446 211.704 10.446H206.88V15H203.172V1.608H212.19C217.284 1.608 217.86 3.732 217.86 5.19V5.37C217.86 7.044 216.708 8.178 215.034 8.556Z" fill="url(#paint1_radial_2017_707)" style="mix-blend-mode:overlay"/>
<path d="M4.05 6.342H0.864V3.624C3.564 3.624 4.392 3.228 4.968 1.608H7.74V15H4.05V6.342ZM18.061 1.392H18.817C25.099 1.392 26.305 5.622 26.305 7.998V8.538C26.305 10.878 25.063 15.216 18.817 15.216H18.061C11.797 15.216 10.573 10.878 10.573 8.538V7.998C10.573 5.568 11.797 1.392 18.061 1.392ZM22.453 8.376V8.124C22.453 6.918 21.949 4.452 18.439 4.452C14.893 4.452 14.425 6.918 14.425 8.124V8.376C14.425 9.6 15.001 12.138 18.457 12.138C21.913 12.138 22.453 9.6 22.453 8.376ZM32.4523 11.508V15H28.2583V11.508H32.4523ZM45.7068 15V1.608H59.5848V15H55.8768V4.56H49.4148V15H45.7068ZM71.1242 8.952L66.3002 15H62.7002V5.01H66.2102V11.058L71.0342 5.01H74.6342V15H71.1242V8.952ZM83.8177 15.27H83.2597C77.8777 15.27 77.0497 11.994 77.0497 10.176V9.924C77.0497 8.124 77.8777 4.74 83.2417 4.74H83.8357C89.3797 4.74 90.0277 8.142 90.0277 9.906V10.194C90.0277 11.994 89.3797 15.27 83.8177 15.27ZM83.4397 12.642H83.6377C85.8517 12.642 86.4097 11.058 86.4097 9.96C86.4097 8.826 85.8517 7.314 83.6377 7.314H83.4397C81.1357 7.314 80.6677 8.826 80.6677 9.96C80.6677 11.058 81.1357 12.642 83.4397 12.642ZM95.9524 15H92.4424V5.01H95.9524V8.646H100.848V5.01H104.358V15H100.848V11.31H95.9524V15ZM113.092 7.08C111.274 7.08 110.59 7.818 110.41 8.862H115.702C115.702 8.124 115.342 7.08 113.092 7.08ZM115.774 11.886H119.428C119.428 12.714 118.78 15.234 113.614 15.234H112.948C108.016 15.234 106.792 12.534 106.792 10.14V9.888C106.792 7.638 107.908 4.794 112.642 4.794H113.434C118.546 4.794 119.464 7.638 119.464 10.428V10.752H110.374C110.518 11.904 111.256 12.84 113.398 12.84C115.432 12.84 115.684 12.048 115.774 11.886ZM131.048 10.014V9.96C131.048 8.88 130.544 7.422 128.348 7.422H128.168C126.062 7.422 125.396 8.808 125.396 9.96V10.014C125.396 11.112 126.062 12.552 128.168 12.552H128.348C130.544 12.552 131.048 11.04 131.048 10.014ZM121.904 18.438V5.01H125.378V6.288C125.81 5.82 127.124 4.812 129.392 4.812H129.626C133.442 4.812 134.684 7.422 134.684 9.798V10.104C134.684 12.282 133.406 15.198 129.608 15.198H129.356C127.07 15.198 125.846 14.154 125.414 13.722V18.438H121.904ZM152.193 15H147.315L141.105 1.608H145.425L149.781 11.76L154.155 1.608H158.187L152.193 15ZM163.778 4.56V7.404H168.944C170.456 7.404 170.87 6.756 170.87 5.982V5.946C170.87 5.172 170.456 4.56 168.944 4.56H163.778ZM171.932 8.556C173.75 8.97 174.848 10.068 174.848 12.03V13.416C174.848 14.424 174.938 14.694 175.064 14.91V15H171.23C171.176 14.91 171.104 14.658 171.104 14.064V12.966C171.104 11.238 170.474 10.446 168.602 10.446H163.778V15H160.07V1.608H169.088C174.182 1.608 174.758 3.732 174.758 5.19V5.37C174.758 7.044 173.606 8.178 171.932 8.556ZM184.342 0.455999L178.528 17.358H175.81L181.606 0.455999H184.342ZM195.006 9.762L192.576 4.308L190.218 9.762H195.006ZM197.346 15L196.248 12.516H189.012L187.932 15H184.206L190.146 1.608H195.114L201.324 15H197.346ZM206.88 4.56V7.404H212.046C213.558 7.404 213.972 6.756 213.972 5.982V5.946C213.972 5.172 213.558 4.56 212.046 4.56H206.88ZM215.034 8.556C216.852 8.97 217.95 10.068 217.95 12.03V13.416C217.95 14.424 218.04 14.694 218.166 14.91V15H214.332C214.278 14.91 214.206 14.658 214.206 14.064V12.966C214.206 11.238 213.576 10.446 211.704 10.446H206.88V15H203.172V1.608H212.19C217.284 1.608 217.86 3.732 217.86 5.19V5.37C217.86 7.044 216.708 8.178 215.034 8.556Z" fill="url(#paint2_radial_2017_707)"/>
<path d="M4.05 6.342H0.864V3.624C3.564 3.624 4.392 3.228 4.968 1.608H7.74V15H4.05V6.342ZM18.061 1.392H18.817C25.099 1.392 26.305 5.622 26.305 7.998V8.538C26.305 10.878 25.063 15.216 18.817 15.216H18.061C11.797 15.216 10.573 10.878 10.573 8.538V7.998C10.573 5.568 11.797 1.392 18.061 1.392ZM22.453 8.376V8.124C22.453 6.918 21.949 4.452 18.439 4.452C14.893 4.452 14.425 6.918 14.425 8.124V8.376C14.425 9.6 15.001 12.138 18.457 12.138C21.913 12.138 22.453 9.6 22.453 8.376ZM32.4523 11.508V15H28.2583V11.508H32.4523ZM45.7068 15V1.608H59.5848V15H55.8768V4.56H49.4148V15H45.7068ZM71.1242 8.952L66.3002 15H62.7002V5.01H66.2102V11.058L71.0342 5.01H74.6342V15H71.1242V8.952ZM83.8177 15.27H83.2597C77.8777 15.27 77.0497 11.994 77.0497 10.176V9.924C77.0497 8.124 77.8777 4.74 83.2417 4.74H83.8357C89.3797 4.74 90.0277 8.142 90.0277 9.906V10.194C90.0277 11.994 89.3797 15.27 83.8177 15.27ZM83.4397 12.642H83.6377C85.8517 12.642 86.4097 11.058 86.4097 9.96C86.4097 8.826 85.8517 7.314 83.6377 7.314H83.4397C81.1357 7.314 80.6677 8.826 80.6677 9.96C80.6677 11.058 81.1357 12.642 83.4397 12.642ZM95.9524 15H92.4424V5.01H95.9524V8.646H100.848V5.01H104.358V15H100.848V11.31H95.9524V15ZM113.092 7.08C111.274 7.08 110.59 7.818 110.41 8.862H115.702C115.702 8.124 115.342 7.08 113.092 7.08ZM115.774 11.886H119.428C119.428 12.714 118.78 15.234 113.614 15.234H112.948C108.016 15.234 106.792 12.534 106.792 10.14V9.888C106.792 7.638 107.908 4.794 112.642 4.794H113.434C118.546 4.794 119.464 7.638 119.464 10.428V10.752H110.374C110.518 11.904 111.256 12.84 113.398 12.84C115.432 12.84 115.684 12.048 115.774 11.886ZM131.048 10.014V9.96C131.048 8.88 130.544 7.422 128.348 7.422H128.168C126.062 7.422 125.396 8.808 125.396 9.96V10.014C125.396 11.112 126.062 12.552 128.168 12.552H128.348C130.544 12.552 131.048 11.04 131.048 10.014ZM121.904 18.438V5.01H125.378V6.288C125.81 5.82 127.124 4.812 129.392 4.812H129.626C133.442 4.812 134.684 7.422 134.684 9.798V10.104C134.684 12.282 133.406 15.198 129.608 15.198H129.356C127.07 15.198 125.846 14.154 125.414 13.722V18.438H121.904ZM152.193 15H147.315L141.105 1.608H145.425L149.781 11.76L154.155 1.608H158.187L152.193 15ZM163.778 4.56V7.404H168.944C170.456 7.404 170.87 6.756 170.87 5.982V5.946C170.87 5.172 170.456 4.56 168.944 4.56H163.778ZM171.932 8.556C173.75 8.97 174.848 10.068 174.848 12.03V13.416C174.848 14.424 174.938 14.694 175.064 14.91V15H171.23C171.176 14.91 171.104 14.658 171.104 14.064V12.966C171.104 11.238 170.474 10.446 168.602 10.446H163.778V15H160.07V1.608H169.088C174.182 1.608 174.758 3.732 174.758 5.19V5.37C174.758 7.044 173.606 8.178 171.932 8.556ZM184.342 0.455999L178.528 17.358H175.81L181.606 0.455999H184.342ZM195.006 9.762L192.576 4.308L190.218 9.762H195.006ZM197.346 15L196.248 12.516H189.012L187.932 15H184.206L190.146 1.608H195.114L201.324 15H197.346ZM206.88 4.56V7.404H212.046C213.558 7.404 213.972 6.756 213.972 5.982V5.946C213.972 5.172 213.558 4.56 212.046 4.56H206.88ZM215.034 8.556C216.852 8.97 217.95 10.068 217.95 12.03V13.416C217.95 14.424 218.04 14.694 218.166 14.91V15H214.332C214.278 14.91 214.206 14.658 214.206 14.064V12.966C214.206 11.238 213.576 10.446 211.704 10.446H206.88V15H203.172V1.608H212.19C217.284 1.608 217.86 3.732 217.86 5.19V5.37C217.86 7.044 216.708 8.178 215.034 8.556Z" fill="#C1A875" style="mix-blend-mode:color"/>
<defs>
<linearGradient id="paint0_linear_2017_707" x1="8.19564e-07" y1="7" x2="220" y2="7.00001" gradientUnits="userSpaceOnUse">
<stop stop-color="#576167"/>
<stop offset="0.191294" stop-color="#9EA1A2"/>
<stop offset="0.396166" stop-color="#848989"/>
<stop offset="0.62055" stop-color="#576167"/>
<stop offset="0.830299" stop-color="#757A7C"/>
<stop offset="1" stop-color="#576167"/>
</linearGradient>
<radialGradient id="paint1_radial_2017_707" cx="0" cy="0" r="1" gradientUnits="userSpaceOnUse" gradientTransform="translate(117.161 -2.20225) rotate(90) scale(17.8315 166.437)">
<stop stop-color="white"/>
<stop offset="1" stop-color="white" stop-opacity="0"/>
</radialGradient>
<radialGradient id="paint2_radial_2017_707" cx="0" cy="0" r="1" gradientUnits="userSpaceOnUse" gradientTransform="translate(129.605 24.6629) rotate(-89.2103) scale(25.553 237.979)">
<stop stop-color="white"/>
<stop offset="1" stop-color="white" stop-opacity="0"/>
</radialGradient>
</defs>
</svg>
