<svg width="308" height="18" viewBox="0 0 308 18" fill="none" xmlns="http://www.w3.org/2000/svg">
<path d="M14.4372 14H0.109248V11.84C0.109248 10.022 0.379248 8.294 5.76125 6.656C6.33725 6.458 7.52525 6.17 8.06525 6.026C9.79325 5.594 10.1892 5.252 10.1892 4.622C10.1892 3.812 9.63125 3.308 7.39925 3.308C4.66325 3.308 4.32125 4.712 4.26725 5.432H0.325248V5.306C0.325248 3.416 1.38725 0.446 6.87725 0.446H7.68725C12.5832 0.446 14.1312 2.156 14.1312 4.586V4.73C14.1312 7.088 12.7452 8.078 9.03725 8.798L6.40925 9.356C3.78125 9.986 3.43925 10.418 3.43925 10.796H14.4372V14ZM20.8078 10.508V14H16.6138V10.508H20.8078ZM29.656 14V0.608H34.588L38.854 9.68L43.246 0.608H47.872V14H44.254V5.234L40.186 14H37.288L33.22 5.234V14H29.656ZM55.7072 12.002C57.7592 12.002 58.4612 10.706 58.4612 9.95V9.176C58.1552 9.302 57.2732 9.482 56.2652 9.644C54.5732 9.932 54.0332 10.166 54.0332 10.868V10.904C54.0332 11.534 54.4832 12.002 55.7072 12.002ZM58.5692 12.614C58.1372 13.136 57.0572 14.198 54.7172 14.198H54.4292C51.6392 14.198 50.4872 12.686 50.4872 11.03V10.958C50.4872 9.23 51.5852 8.168 54.9692 7.88L57.7052 7.646C58.2632 7.592 58.4612 7.412 58.4612 6.998C58.4612 6.53 58.3172 6.026 56.3732 6.026C54.5372 6.026 54.3572 6.746 54.3572 7.124H50.7572V7.088C50.7572 6.098 51.1532 3.776 56.0672 3.776H56.6252C61.5752 3.776 61.8812 5.81 61.8812 7.142V10.436C61.8812 11.066 62.0072 11.318 62.7092 11.318H63.0872V14H60.2432C59.1992 14 58.7132 13.262 58.5692 12.614ZM73.4409 10.076H77.1129C77.1129 11.588 76.2129 14.27 71.4069 14.27H70.5249C65.5389 14.27 64.6029 11.03 64.6029 9.14V8.888C64.6029 6.998 65.4849 3.74 70.5069 3.74H71.3349C76.1589 3.74 77.1129 6.368 77.1129 7.808V7.826H73.4409C73.3869 7.538 73.0449 6.296 70.9749 6.296H70.7949C68.7249 6.296 68.2389 7.718 68.2389 8.924V8.942C68.2389 10.184 68.8329 11.66 70.8669 11.66H71.0469C73.1349 11.66 73.4409 10.31 73.4409 10.076ZM82.3649 14V6.674H78.4949V4.01H89.7449V6.674H85.8749V14H82.3649ZM97.4634 6.08C95.6454 6.08 94.9614 6.818 94.7814 7.862H100.073C100.073 7.124 99.7134 6.08 97.4634 6.08ZM100.145 10.886H103.799C103.799 11.714 103.151 14.234 97.9854 14.234H97.3194C92.3874 14.234 91.1634 11.534 91.1634 9.14V8.888C91.1634 6.638 92.2794 3.794 97.0134 3.794H97.8054C102.917 3.794 103.835 6.638 103.835 9.428V9.752H94.7454C94.8894 10.904 95.6274 11.84 97.7694 11.84C99.8034 11.84 100.055 11.048 100.145 10.886ZM115.419 9.014V8.96C115.419 7.88 114.915 6.422 112.719 6.422H112.539C110.433 6.422 109.767 7.808 109.767 8.96V9.014C109.767 10.112 110.433 11.552 112.539 11.552H112.719C114.915 11.552 115.419 10.04 115.419 9.014ZM106.275 17.438V4.01H109.749V5.288C110.181 4.82 111.495 3.812 113.763 3.812H113.997C117.813 3.812 119.055 6.422 119.055 8.798V9.104C119.055 11.282 117.777 14.198 113.979 14.198H113.727C111.441 14.198 110.217 13.154 109.785 12.722V17.438H106.275ZM139.174 9.122V9.356C139.174 13.1 136.33 14.27 132.928 14.27H132.568C129.058 14.27 126.196 12.902 126.196 8.15V7.088C126.196 2.282 128.59 0.698 133.27 0.698H134.08C135.196 0.698 135.268 0.589999 135.304 0.373999H138.742C138.742 2.48 137.95 3.362 135.502 3.362H133.27C130.678 3.362 129.688 4.172 129.634 5.99C130.552 5.036 131.956 4.388 134.17 4.388H134.278C136.654 4.388 139.174 5.594 139.174 9.122ZM132.604 11.642H132.802C134.386 11.642 135.556 10.85 135.556 9.212C135.556 7.628 134.368 6.854 132.82 6.854H132.604C130.876 6.854 129.814 7.592 129.814 9.23C129.814 10.886 130.894 11.642 132.604 11.642ZM150.013 7.952L145.189 14H141.589V4.01H145.099V10.058L149.923 4.01H153.523V14H150.013V7.952ZM162.706 14.27H162.148C156.766 14.27 155.938 10.994 155.938 9.176V8.924C155.938 7.124 156.766 3.74 162.13 3.74H162.724C168.268 3.74 168.916 7.142 168.916 8.906V9.194C168.916 10.994 168.268 14.27 162.706 14.27ZM162.328 11.642H162.526C164.74 11.642 165.298 10.058 165.298 8.96C165.298 7.826 164.74 6.314 162.526 6.314H162.328C160.024 6.314 159.556 7.826 159.556 8.96C159.556 10.058 160.024 11.642 162.328 11.642ZM174.105 14V6.674H170.235V4.01H181.485V6.674H177.615V14H174.105ZM189.204 6.08C187.386 6.08 186.702 6.818 186.522 7.862H191.814C191.814 7.124 191.454 6.08 189.204 6.08ZM191.886 10.886H195.54C195.54 11.714 194.892 14.234 189.726 14.234H189.06C184.128 14.234 182.904 11.534 182.904 9.14V8.888C182.904 6.638 184.02 3.794 188.754 3.794H189.546C194.658 3.794 195.576 6.638 195.576 9.428V9.752H186.486C186.63 10.904 187.368 11.84 189.51 11.84C191.544 11.84 191.796 11.048 191.886 10.886ZM205.796 14L203.114 11.138L200.504 14H196.526L201.008 8.996L196.382 4.01H200.684L203.24 6.8L205.706 4.01H209.576L205.274 8.924L209.846 14H205.796ZM214.849 14H211.339V4.01H214.849V7.646H219.745V4.01H223.255V14H219.745V10.31H214.849V14ZM232.439 14.27H231.881C226.499 14.27 225.671 10.994 225.671 9.176V8.924C225.671 7.124 226.499 3.74 231.863 3.74H232.457C238.001 3.74 238.649 7.142 238.649 8.906V9.194C238.649 10.994 238.001 14.27 232.439 14.27ZM232.061 11.642H232.259C234.473 11.642 235.031 10.058 235.031 8.96C235.031 7.826 234.473 6.314 232.259 6.314H232.061C229.757 6.314 229.289 7.826 229.289 8.96C229.289 10.058 229.757 11.642 232.061 11.642ZM249.078 14V6.674H245.118C245.118 9.356 245.028 10.85 244.686 11.768C244.308 12.776 243.804 14 241.158 14H240.06V11.39H240.276C240.906 11.39 241.374 11.174 241.572 10.256C241.716 9.482 241.77 8.636 241.77 4.01H252.588V14H249.078ZM261.759 14.27H261.201C255.819 14.27 254.991 10.994 254.991 9.176V8.924C254.991 7.124 255.819 3.74 261.183 3.74H261.777C267.321 3.74 267.969 7.142 267.969 8.906V9.194C267.969 10.994 267.321 14.27 261.759 14.27ZM261.381 11.642H261.579C263.793 11.642 264.351 10.058 264.351 8.96C264.351 7.826 263.793 6.314 261.579 6.314H261.381C259.077 6.314 258.609 7.826 258.609 8.96C258.609 10.058 259.077 11.642 261.381 11.642ZM270.384 14V4.01H279.096V6.674H273.894V14H270.384ZM289.425 7.952L284.601 14H281.001V4.01H284.511V10.058L289.335 4.01H292.935V14H289.425V7.952ZM304.278 7.952L299.454 14H295.854V4.01H299.364V10.058L304.188 4.01H307.788V14H304.278V7.952ZM302.046 2.984H301.506C298.644 2.984 298.14 1.04 298.14 0.104V0.0499994H300.786C300.786 0.284 300.894 1.004 301.794 1.004C302.64 1.004 302.766 0.284 302.766 0.0499994H305.376V0.104C305.376 1.04 304.656 2.984 302.046 2.984Z" fill="url(#paint0_linear_2017_650)"/>
<path d="M14.4372 14H0.109248V11.84C0.109248 10.022 0.379248 8.294 5.76125 6.656C6.33725 6.458 7.52525 6.17 8.06525 6.026C9.79325 5.594 10.1892 5.252 10.1892 4.622C10.1892 3.812 9.63125 3.308 7.39925 3.308C4.66325 3.308 4.32125 4.712 4.26725 5.432H0.325248V5.306C0.325248 3.416 1.38725 0.446 6.87725 0.446H7.68725C12.5832 0.446 14.1312 2.156 14.1312 4.586V4.73C14.1312 7.088 12.7452 8.078 9.03725 8.798L6.40925 9.356C3.78125 9.986 3.43925 10.418 3.43925 10.796H14.4372V14ZM20.8078 10.508V14H16.6138V10.508H20.8078ZM29.656 14V0.608H34.588L38.854 9.68L43.246 0.608H47.872V14H44.254V5.234L40.186 14H37.288L33.22 5.234V14H29.656ZM55.7072 12.002C57.7592 12.002 58.4612 10.706 58.4612 9.95V9.176C58.1552 9.302 57.2732 9.482 56.2652 9.644C54.5732 9.932 54.0332 10.166 54.0332 10.868V10.904C54.0332 11.534 54.4832 12.002 55.7072 12.002ZM58.5692 12.614C58.1372 13.136 57.0572 14.198 54.7172 14.198H54.4292C51.6392 14.198 50.4872 12.686 50.4872 11.03V10.958C50.4872 9.23 51.5852 8.168 54.9692 7.88L57.7052 7.646C58.2632 7.592 58.4612 7.412 58.4612 6.998C58.4612 6.53 58.3172 6.026 56.3732 6.026C54.5372 6.026 54.3572 6.746 54.3572 7.124H50.7572V7.088C50.7572 6.098 51.1532 3.776 56.0672 3.776H56.6252C61.5752 3.776 61.8812 5.81 61.8812 7.142V10.436C61.8812 11.066 62.0072 11.318 62.7092 11.318H63.0872V14H60.2432C59.1992 14 58.7132 13.262 58.5692 12.614ZM73.4409 10.076H77.1129C77.1129 11.588 76.2129 14.27 71.4069 14.27H70.5249C65.5389 14.27 64.6029 11.03 64.6029 9.14V8.888C64.6029 6.998 65.4849 3.74 70.5069 3.74H71.3349C76.1589 3.74 77.1129 6.368 77.1129 7.808V7.826H73.4409C73.3869 7.538 73.0449 6.296 70.9749 6.296H70.7949C68.7249 6.296 68.2389 7.718 68.2389 8.924V8.942C68.2389 10.184 68.8329 11.66 70.8669 11.66H71.0469C73.1349 11.66 73.4409 10.31 73.4409 10.076ZM82.3649 14V6.674H78.4949V4.01H89.7449V6.674H85.8749V14H82.3649ZM97.4634 6.08C95.6454 6.08 94.9614 6.818 94.7814 7.862H100.073C100.073 7.124 99.7134 6.08 97.4634 6.08ZM100.145 10.886H103.799C103.799 11.714 103.151 14.234 97.9854 14.234H97.3194C92.3874 14.234 91.1634 11.534 91.1634 9.14V8.888C91.1634 6.638 92.2794 3.794 97.0134 3.794H97.8054C102.917 3.794 103.835 6.638 103.835 9.428V9.752H94.7454C94.8894 10.904 95.6274 11.84 97.7694 11.84C99.8034 11.84 100.055 11.048 100.145 10.886ZM115.419 9.014V8.96C115.419 7.88 114.915 6.422 112.719 6.422H112.539C110.433 6.422 109.767 7.808 109.767 8.96V9.014C109.767 10.112 110.433 11.552 112.539 11.552H112.719C114.915 11.552 115.419 10.04 115.419 9.014ZM106.275 17.438V4.01H109.749V5.288C110.181 4.82 111.495 3.812 113.763 3.812H113.997C117.813 3.812 119.055 6.422 119.055 8.798V9.104C119.055 11.282 117.777 14.198 113.979 14.198H113.727C111.441 14.198 110.217 13.154 109.785 12.722V17.438H106.275ZM139.174 9.122V9.356C139.174 13.1 136.33 14.27 132.928 14.27H132.568C129.058 14.27 126.196 12.902 126.196 8.15V7.088C126.196 2.282 128.59 0.698 133.27 0.698H134.08C135.196 0.698 135.268 0.589999 135.304 0.373999H138.742C138.742 2.48 137.95 3.362 135.502 3.362H133.27C130.678 3.362 129.688 4.172 129.634 5.99C130.552 5.036 131.956 4.388 134.17 4.388H134.278C136.654 4.388 139.174 5.594 139.174 9.122ZM132.604 11.642H132.802C134.386 11.642 135.556 10.85 135.556 9.212C135.556 7.628 134.368 6.854 132.82 6.854H132.604C130.876 6.854 129.814 7.592 129.814 9.23C129.814 10.886 130.894 11.642 132.604 11.642ZM150.013 7.952L145.189 14H141.589V4.01H145.099V10.058L149.923 4.01H153.523V14H150.013V7.952ZM162.706 14.27H162.148C156.766 14.27 155.938 10.994 155.938 9.176V8.924C155.938 7.124 156.766 3.74 162.13 3.74H162.724C168.268 3.74 168.916 7.142 168.916 8.906V9.194C168.916 10.994 168.268 14.27 162.706 14.27ZM162.328 11.642H162.526C164.74 11.642 165.298 10.058 165.298 8.96C165.298 7.826 164.74 6.314 162.526 6.314H162.328C160.024 6.314 159.556 7.826 159.556 8.96C159.556 10.058 160.024 11.642 162.328 11.642ZM174.105 14V6.674H170.235V4.01H181.485V6.674H177.615V14H174.105ZM189.204 6.08C187.386 6.08 186.702 6.818 186.522 7.862H191.814C191.814 7.124 191.454 6.08 189.204 6.08ZM191.886 10.886H195.54C195.54 11.714 194.892 14.234 189.726 14.234H189.06C184.128 14.234 182.904 11.534 182.904 9.14V8.888C182.904 6.638 184.02 3.794 188.754 3.794H189.546C194.658 3.794 195.576 6.638 195.576 9.428V9.752H186.486C186.63 10.904 187.368 11.84 189.51 11.84C191.544 11.84 191.796 11.048 191.886 10.886ZM205.796 14L203.114 11.138L200.504 14H196.526L201.008 8.996L196.382 4.01H200.684L203.24 6.8L205.706 4.01H209.576L205.274 8.924L209.846 14H205.796ZM214.849 14H211.339V4.01H214.849V7.646H219.745V4.01H223.255V14H219.745V10.31H214.849V14ZM232.439 14.27H231.881C226.499 14.27 225.671 10.994 225.671 9.176V8.924C225.671 7.124 226.499 3.74 231.863 3.74H232.457C238.001 3.74 238.649 7.142 238.649 8.906V9.194C238.649 10.994 238.001 14.27 232.439 14.27ZM232.061 11.642H232.259C234.473 11.642 235.031 10.058 235.031 8.96C235.031 7.826 234.473 6.314 232.259 6.314H232.061C229.757 6.314 229.289 7.826 229.289 8.96C229.289 10.058 229.757 11.642 232.061 11.642ZM249.078 14V6.674H245.118C245.118 9.356 245.028 10.85 244.686 11.768C244.308 12.776 243.804 14 241.158 14H240.06V11.39H240.276C240.906 11.39 241.374 11.174 241.572 10.256C241.716 9.482 241.77 8.636 241.77 4.01H252.588V14H249.078ZM261.759 14.27H261.201C255.819 14.27 254.991 10.994 254.991 9.176V8.924C254.991 7.124 255.819 3.74 261.183 3.74H261.777C267.321 3.74 267.969 7.142 267.969 8.906V9.194C267.969 10.994 267.321 14.27 261.759 14.27ZM261.381 11.642H261.579C263.793 11.642 264.351 10.058 264.351 8.96C264.351 7.826 263.793 6.314 261.579 6.314H261.381C259.077 6.314 258.609 7.826 258.609 8.96C258.609 10.058 259.077 11.642 261.381 11.642ZM270.384 14V4.01H279.096V6.674H273.894V14H270.384ZM289.425 7.952L284.601 14H281.001V4.01H284.511V10.058L289.335 4.01H292.935V14H289.425V7.952ZM304.278 7.952L299.454 14H295.854V4.01H299.364V10.058L304.188 4.01H307.788V14H304.278V7.952ZM302.046 2.984H301.506C298.644 2.984 298.14 1.04 298.14 0.104V0.0499994H300.786C300.786 0.284 300.894 1.004 301.794 1.004C302.64 1.004 302.766 0.284 302.766 0.0499994H305.376V0.104C305.376 1.04 304.656 2.984 302.046 2.984Z" fill="url(#paint1_radial_2017_650)" style="mix-blend-mode:overlay"/>
<path d="M14.4372 14H0.109248V11.84C0.109248 10.022 0.379248 8.294 5.76125 6.656C6.33725 6.458 7.52525 6.17 8.06525 6.026C9.79325 5.594 10.1892 5.252 10.1892 4.622C10.1892 3.812 9.63125 3.308 7.39925 3.308C4.66325 3.308 4.32125 4.712 4.26725 5.432H0.325248V5.306C0.325248 3.416 1.38725 0.446 6.87725 0.446H7.68725C12.5832 0.446 14.1312 2.156 14.1312 4.586V4.73C14.1312 7.088 12.7452 8.078 9.03725 8.798L6.40925 9.356C3.78125 9.986 3.43925 10.418 3.43925 10.796H14.4372V14ZM20.8078 10.508V14H16.6138V10.508H20.8078ZM29.656 14V0.608H34.588L38.854 9.68L43.246 0.608H47.872V14H44.254V5.234L40.186 14H37.288L33.22 5.234V14H29.656ZM55.7072 12.002C57.7592 12.002 58.4612 10.706 58.4612 9.95V9.176C58.1552 9.302 57.2732 9.482 56.2652 9.644C54.5732 9.932 54.0332 10.166 54.0332 10.868V10.904C54.0332 11.534 54.4832 12.002 55.7072 12.002ZM58.5692 12.614C58.1372 13.136 57.0572 14.198 54.7172 14.198H54.4292C51.6392 14.198 50.4872 12.686 50.4872 11.03V10.958C50.4872 9.23 51.5852 8.168 54.9692 7.88L57.7052 7.646C58.2632 7.592 58.4612 7.412 58.4612 6.998C58.4612 6.53 58.3172 6.026 56.3732 6.026C54.5372 6.026 54.3572 6.746 54.3572 7.124H50.7572V7.088C50.7572 6.098 51.1532 3.776 56.0672 3.776H56.6252C61.5752 3.776 61.8812 5.81 61.8812 7.142V10.436C61.8812 11.066 62.0072 11.318 62.7092 11.318H63.0872V14H60.2432C59.1992 14 58.7132 13.262 58.5692 12.614ZM73.4409 10.076H77.1129C77.1129 11.588 76.2129 14.27 71.4069 14.27H70.5249C65.5389 14.27 64.6029 11.03 64.6029 9.14V8.888C64.6029 6.998 65.4849 3.74 70.5069 3.74H71.3349C76.1589 3.74 77.1129 6.368 77.1129 7.808V7.826H73.4409C73.3869 7.538 73.0449 6.296 70.9749 6.296H70.7949C68.7249 6.296 68.2389 7.718 68.2389 8.924V8.942C68.2389 10.184 68.8329 11.66 70.8669 11.66H71.0469C73.1349 11.66 73.4409 10.31 73.4409 10.076ZM82.3649 14V6.674H78.4949V4.01H89.7449V6.674H85.8749V14H82.3649ZM97.4634 6.08C95.6454 6.08 94.9614 6.818 94.7814 7.862H100.073C100.073 7.124 99.7134 6.08 97.4634 6.08ZM100.145 10.886H103.799C103.799 11.714 103.151 14.234 97.9854 14.234H97.3194C92.3874 14.234 91.1634 11.534 91.1634 9.14V8.888C91.1634 6.638 92.2794 3.794 97.0134 3.794H97.8054C102.917 3.794 103.835 6.638 103.835 9.428V9.752H94.7454C94.8894 10.904 95.6274 11.84 97.7694 11.84C99.8034 11.84 100.055 11.048 100.145 10.886ZM115.419 9.014V8.96C115.419 7.88 114.915 6.422 112.719 6.422H112.539C110.433 6.422 109.767 7.808 109.767 8.96V9.014C109.767 10.112 110.433 11.552 112.539 11.552H112.719C114.915 11.552 115.419 10.04 115.419 9.014ZM106.275 17.438V4.01H109.749V5.288C110.181 4.82 111.495 3.812 113.763 3.812H113.997C117.813 3.812 119.055 6.422 119.055 8.798V9.104C119.055 11.282 117.777 14.198 113.979 14.198H113.727C111.441 14.198 110.217 13.154 109.785 12.722V17.438H106.275ZM139.174 9.122V9.356C139.174 13.1 136.33 14.27 132.928 14.27H132.568C129.058 14.27 126.196 12.902 126.196 8.15V7.088C126.196 2.282 128.59 0.698 133.27 0.698H134.08C135.196 0.698 135.268 0.589999 135.304 0.373999H138.742C138.742 2.48 137.95 3.362 135.502 3.362H133.27C130.678 3.362 129.688 4.172 129.634 5.99C130.552 5.036 131.956 4.388 134.17 4.388H134.278C136.654 4.388 139.174 5.594 139.174 9.122ZM132.604 11.642H132.802C134.386 11.642 135.556 10.85 135.556 9.212C135.556 7.628 134.368 6.854 132.82 6.854H132.604C130.876 6.854 129.814 7.592 129.814 9.23C129.814 10.886 130.894 11.642 132.604 11.642ZM150.013 7.952L145.189 14H141.589V4.01H145.099V10.058L149.923 4.01H153.523V14H150.013V7.952ZM162.706 14.27H162.148C156.766 14.27 155.938 10.994 155.938 9.176V8.924C155.938 7.124 156.766 3.74 162.13 3.74H162.724C168.268 3.74 168.916 7.142 168.916 8.906V9.194C168.916 10.994 168.268 14.27 162.706 14.27ZM162.328 11.642H162.526C164.74 11.642 165.298 10.058 165.298 8.96C165.298 7.826 164.74 6.314 162.526 6.314H162.328C160.024 6.314 159.556 7.826 159.556 8.96C159.556 10.058 160.024 11.642 162.328 11.642ZM174.105 14V6.674H170.235V4.01H181.485V6.674H177.615V14H174.105ZM189.204 6.08C187.386 6.08 186.702 6.818 186.522 7.862H191.814C191.814 7.124 191.454 6.08 189.204 6.08ZM191.886 10.886H195.54C195.54 11.714 194.892 14.234 189.726 14.234H189.06C184.128 14.234 182.904 11.534 182.904 9.14V8.888C182.904 6.638 184.02 3.794 188.754 3.794H189.546C194.658 3.794 195.576 6.638 195.576 9.428V9.752H186.486C186.63 10.904 187.368 11.84 189.51 11.84C191.544 11.84 191.796 11.048 191.886 10.886ZM205.796 14L203.114 11.138L200.504 14H196.526L201.008 8.996L196.382 4.01H200.684L203.24 6.8L205.706 4.01H209.576L205.274 8.924L209.846 14H205.796ZM214.849 14H211.339V4.01H214.849V7.646H219.745V4.01H223.255V14H219.745V10.31H214.849V14ZM232.439 14.27H231.881C226.499 14.27 225.671 10.994 225.671 9.176V8.924C225.671 7.124 226.499 3.74 231.863 3.74H232.457C238.001 3.74 238.649 7.142 238.649 8.906V9.194C238.649 10.994 238.001 14.27 232.439 14.27ZM232.061 11.642H232.259C234.473 11.642 235.031 10.058 235.031 8.96C235.031 7.826 234.473 6.314 232.259 6.314H232.061C229.757 6.314 229.289 7.826 229.289 8.96C229.289 10.058 229.757 11.642 232.061 11.642ZM249.078 14V6.674H245.118C245.118 9.356 245.028 10.85 244.686 11.768C244.308 12.776 243.804 14 241.158 14H240.06V11.39H240.276C240.906 11.39 241.374 11.174 241.572 10.256C241.716 9.482 241.77 8.636 241.77 4.01H252.588V14H249.078ZM261.759 14.27H261.201C255.819 14.27 254.991 10.994 254.991 9.176V8.924C254.991 7.124 255.819 3.74 261.183 3.74H261.777C267.321 3.74 267.969 7.142 267.969 8.906V9.194C267.969 10.994 267.321 14.27 261.759 14.27ZM261.381 11.642H261.579C263.793 11.642 264.351 10.058 264.351 8.96C264.351 7.826 263.793 6.314 261.579 6.314H261.381C259.077 6.314 258.609 7.826 258.609 8.96C258.609 10.058 259.077 11.642 261.381 11.642ZM270.384 14V4.01H279.096V6.674H273.894V14H270.384ZM289.425 7.952L284.601 14H281.001V4.01H284.511V10.058L289.335 4.01H292.935V14H289.425V7.952ZM304.278 7.952L299.454 14H295.854V4.01H299.364V10.058L304.188 4.01H307.788V14H304.278V7.952ZM302.046 2.984H301.506C298.644 2.984 298.14 1.04 298.14 0.104V0.0499994H300.786C300.786 0.284 300.894 1.004 301.794 1.004C302.64 1.004 302.766 0.284 302.766 0.0499994H305.376V0.104C305.376 1.04 304.656 2.984 302.046 2.984Z" fill="url(#paint2_radial_2017_650)"/>
<path d="M14.4372 14H0.109248V11.84C0.109248 10.022 0.379248 8.294 5.76125 6.656C6.33725 6.458 7.52525 6.17 8.06525 6.026C9.79325 5.594 10.1892 5.252 10.1892 4.622C10.1892 3.812 9.63125 3.308 7.39925 3.308C4.66325 3.308 4.32125 4.712 4.26725 5.432H0.325248V5.306C0.325248 3.416 1.38725 0.446 6.87725 0.446H7.68725C12.5832 0.446 14.1312 2.156 14.1312 4.586V4.73C14.1312 7.088 12.7452 8.078 9.03725 8.798L6.40925 9.356C3.78125 9.986 3.43925 10.418 3.43925 10.796H14.4372V14ZM20.8078 10.508V14H16.6138V10.508H20.8078ZM29.656 14V0.608H34.588L38.854 9.68L43.246 0.608H47.872V14H44.254V5.234L40.186 14H37.288L33.22 5.234V14H29.656ZM55.7072 12.002C57.7592 12.002 58.4612 10.706 58.4612 9.95V9.176C58.1552 9.302 57.2732 9.482 56.2652 9.644C54.5732 9.932 54.0332 10.166 54.0332 10.868V10.904C54.0332 11.534 54.4832 12.002 55.7072 12.002ZM58.5692 12.614C58.1372 13.136 57.0572 14.198 54.7172 14.198H54.4292C51.6392 14.198 50.4872 12.686 50.4872 11.03V10.958C50.4872 9.23 51.5852 8.168 54.9692 7.88L57.7052 7.646C58.2632 7.592 58.4612 7.412 58.4612 6.998C58.4612 6.53 58.3172 6.026 56.3732 6.026C54.5372 6.026 54.3572 6.746 54.3572 7.124H50.7572V7.088C50.7572 6.098 51.1532 3.776 56.0672 3.776H56.6252C61.5752 3.776 61.8812 5.81 61.8812 7.142V10.436C61.8812 11.066 62.0072 11.318 62.7092 11.318H63.0872V14H60.2432C59.1992 14 58.7132 13.262 58.5692 12.614ZM73.4409 10.076H77.1129C77.1129 11.588 76.2129 14.27 71.4069 14.27H70.5249C65.5389 14.27 64.6029 11.03 64.6029 9.14V8.888C64.6029 6.998 65.4849 3.74 70.5069 3.74H71.3349C76.1589 3.74 77.1129 6.368 77.1129 7.808V7.826H73.4409C73.3869 7.538 73.0449 6.296 70.9749 6.296H70.7949C68.7249 6.296 68.2389 7.718 68.2389 8.924V8.942C68.2389 10.184 68.8329 11.66 70.8669 11.66H71.0469C73.1349 11.66 73.4409 10.31 73.4409 10.076ZM82.3649 14V6.674H78.4949V4.01H89.7449V6.674H85.8749V14H82.3649ZM97.4634 6.08C95.6454 6.08 94.9614 6.818 94.7814 7.862H100.073C100.073 7.124 99.7134 6.08 97.4634 6.08ZM100.145 10.886H103.799C103.799 11.714 103.151 14.234 97.9854 14.234H97.3194C92.3874 14.234 91.1634 11.534 91.1634 9.14V8.888C91.1634 6.638 92.2794 3.794 97.0134 3.794H97.8054C102.917 3.794 103.835 6.638 103.835 9.428V9.752H94.7454C94.8894 10.904 95.6274 11.84 97.7694 11.84C99.8034 11.84 100.055 11.048 100.145 10.886ZM115.419 9.014V8.96C115.419 7.88 114.915 6.422 112.719 6.422H112.539C110.433 6.422 109.767 7.808 109.767 8.96V9.014C109.767 10.112 110.433 11.552 112.539 11.552H112.719C114.915 11.552 115.419 10.04 115.419 9.014ZM106.275 17.438V4.01H109.749V5.288C110.181 4.82 111.495 3.812 113.763 3.812H113.997C117.813 3.812 119.055 6.422 119.055 8.798V9.104C119.055 11.282 117.777 14.198 113.979 14.198H113.727C111.441 14.198 110.217 13.154 109.785 12.722V17.438H106.275ZM139.174 9.122V9.356C139.174 13.1 136.33 14.27 132.928 14.27H132.568C129.058 14.27 126.196 12.902 126.196 8.15V7.088C126.196 2.282 128.59 0.698 133.27 0.698H134.08C135.196 0.698 135.268 0.589999 135.304 0.373999H138.742C138.742 2.48 137.95 3.362 135.502 3.362H133.27C130.678 3.362 129.688 4.172 129.634 5.99C130.552 5.036 131.956 4.388 134.17 4.388H134.278C136.654 4.388 139.174 5.594 139.174 9.122ZM132.604 11.642H132.802C134.386 11.642 135.556 10.85 135.556 9.212C135.556 7.628 134.368 6.854 132.82 6.854H132.604C130.876 6.854 129.814 7.592 129.814 9.23C129.814 10.886 130.894 11.642 132.604 11.642ZM150.013 7.952L145.189 14H141.589V4.01H145.099V10.058L149.923 4.01H153.523V14H150.013V7.952ZM162.706 14.27H162.148C156.766 14.27 155.938 10.994 155.938 9.176V8.924C155.938 7.124 156.766 3.74 162.13 3.74H162.724C168.268 3.74 168.916 7.142 168.916 8.906V9.194C168.916 10.994 168.268 14.27 162.706 14.27ZM162.328 11.642H162.526C164.74 11.642 165.298 10.058 165.298 8.96C165.298 7.826 164.74 6.314 162.526 6.314H162.328C160.024 6.314 159.556 7.826 159.556 8.96C159.556 10.058 160.024 11.642 162.328 11.642ZM174.105 14V6.674H170.235V4.01H181.485V6.674H177.615V14H174.105ZM189.204 6.08C187.386 6.08 186.702 6.818 186.522 7.862H191.814C191.814 7.124 191.454 6.08 189.204 6.08ZM191.886 10.886H195.54C195.54 11.714 194.892 14.234 189.726 14.234H189.06C184.128 14.234 182.904 11.534 182.904 9.14V8.888C182.904 6.638 184.02 3.794 188.754 3.794H189.546C194.658 3.794 195.576 6.638 195.576 9.428V9.752H186.486C186.63 10.904 187.368 11.84 189.51 11.84C191.544 11.84 191.796 11.048 191.886 10.886ZM205.796 14L203.114 11.138L200.504 14H196.526L201.008 8.996L196.382 4.01H200.684L203.24 6.8L205.706 4.01H209.576L205.274 8.924L209.846 14H205.796ZM214.849 14H211.339V4.01H214.849V7.646H219.745V4.01H223.255V14H219.745V10.31H214.849V14ZM232.439 14.27H231.881C226.499 14.27 225.671 10.994 225.671 9.176V8.924C225.671 7.124 226.499 3.74 231.863 3.74H232.457C238.001 3.74 238.649 7.142 238.649 8.906V9.194C238.649 10.994 238.001 14.27 232.439 14.27ZM232.061 11.642H232.259C234.473 11.642 235.031 10.058 235.031 8.96C235.031 7.826 234.473 6.314 232.259 6.314H232.061C229.757 6.314 229.289 7.826 229.289 8.96C229.289 10.058 229.757 11.642 232.061 11.642ZM249.078 14V6.674H245.118C245.118 9.356 245.028 10.85 244.686 11.768C244.308 12.776 243.804 14 241.158 14H240.06V11.39H240.276C240.906 11.39 241.374 11.174 241.572 10.256C241.716 9.482 241.77 8.636 241.77 4.01H252.588V14H249.078ZM261.759 14.27H261.201C255.819 14.27 254.991 10.994 254.991 9.176V8.924C254.991 7.124 255.819 3.74 261.183 3.74H261.777C267.321 3.74 267.969 7.142 267.969 8.906V9.194C267.969 10.994 267.321 14.27 261.759 14.27ZM261.381 11.642H261.579C263.793 11.642 264.351 10.058 264.351 8.96C264.351 7.826 263.793 6.314 261.579 6.314H261.381C259.077 6.314 258.609 7.826 258.609 8.96C258.609 10.058 259.077 11.642 261.381 11.642ZM270.384 14V4.01H279.096V6.674H273.894V14H270.384ZM289.425 7.952L284.601 14H281.001V4.01H284.511V10.058L289.335 4.01H292.935V14H289.425V7.952ZM304.278 7.952L299.454 14H295.854V4.01H299.364V10.058L304.188 4.01H307.788V14H304.278V7.952ZM302.046 2.984H301.506C298.644 2.984 298.14 1.04 298.14 0.104V0.0499994H300.786C300.786 0.284 300.894 1.004 301.794 1.004C302.64 1.004 302.766 0.284 302.766 0.0499994H305.376V0.104C305.376 1.04 304.656 2.984 302.046 2.984Z" fill="#C1A875" style="mix-blend-mode:color"/>
<defs>
<linearGradient id="paint0_linear_2017_650" x1="1" y1="6" x2="310" y2="6.00002" gradientUnits="userSpaceOnUse">
<stop stop-color="#576167"/>
<stop offset="0.191294" stop-color="#9EA1A2"/>
<stop offset="0.396166" stop-color="#848989"/>
<stop offset="0.62055" stop-color="#576167"/>
<stop offset="0.830299" stop-color="#757A7C"/>
<stop offset="1" stop-color="#576167"/>
</linearGradient>
<radialGradient id="paint1_radial_2017_650" cx="0" cy="0" r="1" gradientUnits="userSpaceOnUse" gradientTransform="translate(165.558 -3.20225) rotate(90) scale(17.8315 233.769)">
<stop stop-color="white"/>
<stop offset="1" stop-color="white" stop-opacity="0"/>
</radialGradient>
<radialGradient id="paint2_radial_2017_650" cx="0" cy="0" r="1" gradientUnits="userSpaceOnUse" gradientTransform="translate(183.036 23.6629) rotate(-88.8909) scale(25.5553 334.221)">
<stop stop-color="white"/>
<stop offset="1" stop-color="white" stop-opacity="0"/>
</radialGradient>
</defs>
</svg>
