<svg width="226" height="18" viewBox="0 0 226 18" fill="none" xmlns="http://www.w3.org/2000/svg">
<path d="M8.30925 14.198H7.55325C1.82925 14.198 0.785248 11.12 0.785248 9.608V9.446H4.74525C4.79925 9.95 5.10525 11.21 8.02125 11.21C10.9732 11.21 11.4412 10.436 11.4412 9.644C11.4412 8.852 11.1352 8.438 9.64125 8.438H5.21325V5.72H9.62325C11.0632 5.72 11.2612 5.288 11.2612 4.64C11.2612 3.92 10.8652 3.326 7.98525 3.326C5.12325 3.326 4.87125 4.28 4.81725 4.712H0.965248V4.514C0.965248 3.29 1.77525 0.446 7.30125 0.446H8.30925C13.8352 0.446 14.9512 2.3 14.9512 3.884V4.01C14.9512 5.522 14.0152 6.206 12.9532 6.494C14.1772 6.782 15.3652 7.664 15.3652 9.554V9.68C15.3652 11.822 14.0512 14.198 8.30925 14.198ZM21.8078 10.508V14H17.6138V10.508H21.8078ZM30.656 14V0.608H41.816V3.56H34.364V14H30.656ZM48.19 6.08C46.372 6.08 45.688 6.818 45.508 7.862H50.8C50.8 7.124 50.44 6.08 48.19 6.08ZM50.872 10.886H54.526C54.526 11.714 53.878 14.234 48.712 14.234H48.046C43.114 14.234 41.89 11.534 41.89 9.14V8.888C41.89 6.638 43.006 3.794 47.74 3.794H48.532C53.644 3.794 54.562 6.638 54.562 9.428V9.752H45.472C45.616 10.904 46.354 11.84 48.496 11.84C50.53 11.84 50.782 11.048 50.872 10.886ZM66.1458 9.014V8.96C66.1458 7.88 65.6418 6.422 63.4458 6.422H63.2658C61.1598 6.422 60.4938 7.808 60.4938 8.96V9.014C60.4938 10.112 61.1598 11.552 63.2658 11.552H63.4458C65.6418 11.552 66.1458 10.04 66.1458 9.014ZM57.0018 17.438V4.01H60.4758V5.288C60.9078 4.82 62.2218 3.812 64.4898 3.812H64.7238C68.5398 3.812 69.7818 6.422 69.7818 8.798V9.104C69.7818 11.282 68.5038 14.198 64.7058 14.198H64.4538C62.1678 14.198 60.9438 13.154 60.5118 12.722V17.438H57.0018ZM78.4876 14.27H77.9296C72.5476 14.27 71.7196 10.994 71.7196 9.176V8.924C71.7196 7.124 72.5476 3.74 77.9116 3.74H78.5056C84.0496 3.74 84.6976 7.142 84.6976 8.906V9.194C84.6976 10.994 84.0496 14.27 78.4876 14.27ZM78.1096 11.642H78.3076C80.5216 11.642 81.0796 10.058 81.0796 8.96C81.0796 7.826 80.5216 6.314 78.3076 6.314H78.1096C75.8056 6.314 75.3376 7.826 75.3376 8.96C75.3376 10.058 75.8056 11.642 78.1096 11.642ZM95.5363 7.952L90.7123 14H87.1123V4.01H90.6223V10.058L95.4463 4.01H99.0463V14H95.5363V7.952ZM93.3043 2.984H92.7643C89.9023 2.984 89.3983 1.04 89.3983 0.104V0.0499994H92.0443C92.0443 0.284 92.1523 1.004 93.0523 1.004C93.8983 1.004 94.0243 0.284 94.0243 0.0499994H96.6343V0.104C96.6343 1.04 95.9143 2.984 93.3043 2.984ZM107.169 14V4.01H118.725V14H115.215V6.674H110.679V14H107.169ZM126.352 12.002C128.404 12.002 129.106 10.706 129.106 9.95V9.176C128.8 9.302 127.918 9.482 126.91 9.644C125.218 9.932 124.678 10.166 124.678 10.868V10.904C124.678 11.534 125.128 12.002 126.352 12.002ZM129.214 12.614C128.782 13.136 127.702 14.198 125.362 14.198H125.074C122.284 14.198 121.132 12.686 121.132 11.03V10.958C121.132 9.23 122.23 8.168 125.614 7.88L128.35 7.646C128.908 7.592 129.106 7.412 129.106 6.998C129.106 6.53 128.962 6.026 127.018 6.026C125.182 6.026 125.002 6.746 125.002 7.124H121.402V7.088C121.402 6.098 121.798 3.776 126.712 3.776H127.27C132.22 3.776 132.526 5.81 132.526 7.142V10.436C132.526 11.066 132.652 11.318 133.354 11.318H133.732V14H130.888C129.844 14 129.358 13.262 129.214 12.614ZM139.243 14H135.733V4.01H139.243V7.646H144.139V4.01H147.649V14H144.139V10.31H139.243V14ZM149.741 16.124V11.336H150.947C151.631 9.968 151.739 6.998 151.829 4.01H162.395V11.336H164.195V16.124H160.865V14H153.071V16.124H149.741ZM154.259 11.336H158.885V6.674H154.979C154.925 7.97 154.745 9.95 154.259 11.336ZM171.922 6.08C170.104 6.08 169.42 6.818 169.24 7.862H174.532C174.532 7.124 174.172 6.08 171.922 6.08ZM174.604 10.886H178.258C178.258 11.714 177.61 14.234 172.444 14.234H171.778C166.846 14.234 165.622 11.534 165.622 9.14V8.888C165.622 6.638 166.738 3.794 171.472 3.794H172.264C177.376 3.794 178.294 6.638 178.294 9.428V9.752H169.204C169.348 10.904 170.086 11.84 172.228 11.84C174.262 11.84 174.514 11.048 174.604 10.886ZM183.938 7.268V14H180.698V4.01H185.648L188.618 10.382L191.588 4.01H196.358V14H192.848V7.268L189.734 14H187.052L183.938 7.268ZM207.579 7.952L202.755 14H199.155V4.01H202.665V10.058L207.489 4.01H211.089V14H207.579V7.952ZM222.433 7.952L217.609 14H214.009V4.01H217.519V10.058L222.343 4.01H225.943V14H222.433V7.952Z" fill="url(#paint0_linear_2017_657)"/>
<path d="M8.30925 14.198H7.55325C1.82925 14.198 0.785248 11.12 0.785248 9.608V9.446H4.74525C4.79925 9.95 5.10525 11.21 8.02125 11.21C10.9732 11.21 11.4412 10.436 11.4412 9.644C11.4412 8.852 11.1352 8.438 9.64125 8.438H5.21325V5.72H9.62325C11.0632 5.72 11.2612 5.288 11.2612 4.64C11.2612 3.92 10.8652 3.326 7.98525 3.326C5.12325 3.326 4.87125 4.28 4.81725 4.712H0.965248V4.514C0.965248 3.29 1.77525 0.446 7.30125 0.446H8.30925C13.8352 0.446 14.9512 2.3 14.9512 3.884V4.01C14.9512 5.522 14.0152 6.206 12.9532 6.494C14.1772 6.782 15.3652 7.664 15.3652 9.554V9.68C15.3652 11.822 14.0512 14.198 8.30925 14.198ZM21.8078 10.508V14H17.6138V10.508H21.8078ZM30.656 14V0.608H41.816V3.56H34.364V14H30.656ZM48.19 6.08C46.372 6.08 45.688 6.818 45.508 7.862H50.8C50.8 7.124 50.44 6.08 48.19 6.08ZM50.872 10.886H54.526C54.526 11.714 53.878 14.234 48.712 14.234H48.046C43.114 14.234 41.89 11.534 41.89 9.14V8.888C41.89 6.638 43.006 3.794 47.74 3.794H48.532C53.644 3.794 54.562 6.638 54.562 9.428V9.752H45.472C45.616 10.904 46.354 11.84 48.496 11.84C50.53 11.84 50.782 11.048 50.872 10.886ZM66.1458 9.014V8.96C66.1458 7.88 65.6418 6.422 63.4458 6.422H63.2658C61.1598 6.422 60.4938 7.808 60.4938 8.96V9.014C60.4938 10.112 61.1598 11.552 63.2658 11.552H63.4458C65.6418 11.552 66.1458 10.04 66.1458 9.014ZM57.0018 17.438V4.01H60.4758V5.288C60.9078 4.82 62.2218 3.812 64.4898 3.812H64.7238C68.5398 3.812 69.7818 6.422 69.7818 8.798V9.104C69.7818 11.282 68.5038 14.198 64.7058 14.198H64.4538C62.1678 14.198 60.9438 13.154 60.5118 12.722V17.438H57.0018ZM78.4876 14.27H77.9296C72.5476 14.27 71.7196 10.994 71.7196 9.176V8.924C71.7196 7.124 72.5476 3.74 77.9116 3.74H78.5056C84.0496 3.74 84.6976 7.142 84.6976 8.906V9.194C84.6976 10.994 84.0496 14.27 78.4876 14.27ZM78.1096 11.642H78.3076C80.5216 11.642 81.0796 10.058 81.0796 8.96C81.0796 7.826 80.5216 6.314 78.3076 6.314H78.1096C75.8056 6.314 75.3376 7.826 75.3376 8.96C75.3376 10.058 75.8056 11.642 78.1096 11.642ZM95.5363 7.952L90.7123 14H87.1123V4.01H90.6223V10.058L95.4463 4.01H99.0463V14H95.5363V7.952ZM93.3043 2.984H92.7643C89.9023 2.984 89.3983 1.04 89.3983 0.104V0.0499994H92.0443C92.0443 0.284 92.1523 1.004 93.0523 1.004C93.8983 1.004 94.0243 0.284 94.0243 0.0499994H96.6343V0.104C96.6343 1.04 95.9143 2.984 93.3043 2.984ZM107.169 14V4.01H118.725V14H115.215V6.674H110.679V14H107.169ZM126.352 12.002C128.404 12.002 129.106 10.706 129.106 9.95V9.176C128.8 9.302 127.918 9.482 126.91 9.644C125.218 9.932 124.678 10.166 124.678 10.868V10.904C124.678 11.534 125.128 12.002 126.352 12.002ZM129.214 12.614C128.782 13.136 127.702 14.198 125.362 14.198H125.074C122.284 14.198 121.132 12.686 121.132 11.03V10.958C121.132 9.23 122.23 8.168 125.614 7.88L128.35 7.646C128.908 7.592 129.106 7.412 129.106 6.998C129.106 6.53 128.962 6.026 127.018 6.026C125.182 6.026 125.002 6.746 125.002 7.124H121.402V7.088C121.402 6.098 121.798 3.776 126.712 3.776H127.27C132.22 3.776 132.526 5.81 132.526 7.142V10.436C132.526 11.066 132.652 11.318 133.354 11.318H133.732V14H130.888C129.844 14 129.358 13.262 129.214 12.614ZM139.243 14H135.733V4.01H139.243V7.646H144.139V4.01H147.649V14H144.139V10.31H139.243V14ZM149.741 16.124V11.336H150.947C151.631 9.968 151.739 6.998 151.829 4.01H162.395V11.336H164.195V16.124H160.865V14H153.071V16.124H149.741ZM154.259 11.336H158.885V6.674H154.979C154.925 7.97 154.745 9.95 154.259 11.336ZM171.922 6.08C170.104 6.08 169.42 6.818 169.24 7.862H174.532C174.532 7.124 174.172 6.08 171.922 6.08ZM174.604 10.886H178.258C178.258 11.714 177.61 14.234 172.444 14.234H171.778C166.846 14.234 165.622 11.534 165.622 9.14V8.888C165.622 6.638 166.738 3.794 171.472 3.794H172.264C177.376 3.794 178.294 6.638 178.294 9.428V9.752H169.204C169.348 10.904 170.086 11.84 172.228 11.84C174.262 11.84 174.514 11.048 174.604 10.886ZM183.938 7.268V14H180.698V4.01H185.648L188.618 10.382L191.588 4.01H196.358V14H192.848V7.268L189.734 14H187.052L183.938 7.268ZM207.579 7.952L202.755 14H199.155V4.01H202.665V10.058L207.489 4.01H211.089V14H207.579V7.952ZM222.433 7.952L217.609 14H214.009V4.01H217.519V10.058L222.343 4.01H225.943V14H222.433V7.952Z" fill="url(#paint1_radial_2017_657)" style="mix-blend-mode:overlay"/>
<path d="M8.30925 14.198H7.55325C1.82925 14.198 0.785248 11.12 0.785248 9.608V9.446H4.74525C4.79925 9.95 5.10525 11.21 8.02125 11.21C10.9732 11.21 11.4412 10.436 11.4412 9.644C11.4412 8.852 11.1352 8.438 9.64125 8.438H5.21325V5.72H9.62325C11.0632 5.72 11.2612 5.288 11.2612 4.64C11.2612 3.92 10.8652 3.326 7.98525 3.326C5.12325 3.326 4.87125 4.28 4.81725 4.712H0.965248V4.514C0.965248 3.29 1.77525 0.446 7.30125 0.446H8.30925C13.8352 0.446 14.9512 2.3 14.9512 3.884V4.01C14.9512 5.522 14.0152 6.206 12.9532 6.494C14.1772 6.782 15.3652 7.664 15.3652 9.554V9.68C15.3652 11.822 14.0512 14.198 8.30925 14.198ZM21.8078 10.508V14H17.6138V10.508H21.8078ZM30.656 14V0.608H41.816V3.56H34.364V14H30.656ZM48.19 6.08C46.372 6.08 45.688 6.818 45.508 7.862H50.8C50.8 7.124 50.44 6.08 48.19 6.08ZM50.872 10.886H54.526C54.526 11.714 53.878 14.234 48.712 14.234H48.046C43.114 14.234 41.89 11.534 41.89 9.14V8.888C41.89 6.638 43.006 3.794 47.74 3.794H48.532C53.644 3.794 54.562 6.638 54.562 9.428V9.752H45.472C45.616 10.904 46.354 11.84 48.496 11.84C50.53 11.84 50.782 11.048 50.872 10.886ZM66.1458 9.014V8.96C66.1458 7.88 65.6418 6.422 63.4458 6.422H63.2658C61.1598 6.422 60.4938 7.808 60.4938 8.96V9.014C60.4938 10.112 61.1598 11.552 63.2658 11.552H63.4458C65.6418 11.552 66.1458 10.04 66.1458 9.014ZM57.0018 17.438V4.01H60.4758V5.288C60.9078 4.82 62.2218 3.812 64.4898 3.812H64.7238C68.5398 3.812 69.7818 6.422 69.7818 8.798V9.104C69.7818 11.282 68.5038 14.198 64.7058 14.198H64.4538C62.1678 14.198 60.9438 13.154 60.5118 12.722V17.438H57.0018ZM78.4876 14.27H77.9296C72.5476 14.27 71.7196 10.994 71.7196 9.176V8.924C71.7196 7.124 72.5476 3.74 77.9116 3.74H78.5056C84.0496 3.74 84.6976 7.142 84.6976 8.906V9.194C84.6976 10.994 84.0496 14.27 78.4876 14.27ZM78.1096 11.642H78.3076C80.5216 11.642 81.0796 10.058 81.0796 8.96C81.0796 7.826 80.5216 6.314 78.3076 6.314H78.1096C75.8056 6.314 75.3376 7.826 75.3376 8.96C75.3376 10.058 75.8056 11.642 78.1096 11.642ZM95.5363 7.952L90.7123 14H87.1123V4.01H90.6223V10.058L95.4463 4.01H99.0463V14H95.5363V7.952ZM93.3043 2.984H92.7643C89.9023 2.984 89.3983 1.04 89.3983 0.104V0.0499994H92.0443C92.0443 0.284 92.1523 1.004 93.0523 1.004C93.8983 1.004 94.0243 0.284 94.0243 0.0499994H96.6343V0.104C96.6343 1.04 95.9143 2.984 93.3043 2.984ZM107.169 14V4.01H118.725V14H115.215V6.674H110.679V14H107.169ZM126.352 12.002C128.404 12.002 129.106 10.706 129.106 9.95V9.176C128.8 9.302 127.918 9.482 126.91 9.644C125.218 9.932 124.678 10.166 124.678 10.868V10.904C124.678 11.534 125.128 12.002 126.352 12.002ZM129.214 12.614C128.782 13.136 127.702 14.198 125.362 14.198H125.074C122.284 14.198 121.132 12.686 121.132 11.03V10.958C121.132 9.23 122.23 8.168 125.614 7.88L128.35 7.646C128.908 7.592 129.106 7.412 129.106 6.998C129.106 6.53 128.962 6.026 127.018 6.026C125.182 6.026 125.002 6.746 125.002 7.124H121.402V7.088C121.402 6.098 121.798 3.776 126.712 3.776H127.27C132.22 3.776 132.526 5.81 132.526 7.142V10.436C132.526 11.066 132.652 11.318 133.354 11.318H133.732V14H130.888C129.844 14 129.358 13.262 129.214 12.614ZM139.243 14H135.733V4.01H139.243V7.646H144.139V4.01H147.649V14H144.139V10.31H139.243V14ZM149.741 16.124V11.336H150.947C151.631 9.968 151.739 6.998 151.829 4.01H162.395V11.336H164.195V16.124H160.865V14H153.071V16.124H149.741ZM154.259 11.336H158.885V6.674H154.979C154.925 7.97 154.745 9.95 154.259 11.336ZM171.922 6.08C170.104 6.08 169.42 6.818 169.24 7.862H174.532C174.532 7.124 174.172 6.08 171.922 6.08ZM174.604 10.886H178.258C178.258 11.714 177.61 14.234 172.444 14.234H171.778C166.846 14.234 165.622 11.534 165.622 9.14V8.888C165.622 6.638 166.738 3.794 171.472 3.794H172.264C177.376 3.794 178.294 6.638 178.294 9.428V9.752H169.204C169.348 10.904 170.086 11.84 172.228 11.84C174.262 11.84 174.514 11.048 174.604 10.886ZM183.938 7.268V14H180.698V4.01H185.648L188.618 10.382L191.588 4.01H196.358V14H192.848V7.268L189.734 14H187.052L183.938 7.268ZM207.579 7.952L202.755 14H199.155V4.01H202.665V10.058L207.489 4.01H211.089V14H207.579V7.952ZM222.433 7.952L217.609 14H214.009V4.01H217.519V10.058L222.343 4.01H225.943V14H222.433V7.952Z" fill="url(#paint2_radial_2017_657)"/>
<path d="M8.30925 14.198H7.55325C1.82925 14.198 0.785248 11.12 0.785248 9.608V9.446H4.74525C4.79925 9.95 5.10525 11.21 8.02125 11.21C10.9732 11.21 11.4412 10.436 11.4412 9.644C11.4412 8.852 11.1352 8.438 9.64125 8.438H5.21325V5.72H9.62325C11.0632 5.72 11.2612 5.288 11.2612 4.64C11.2612 3.92 10.8652 3.326 7.98525 3.326C5.12325 3.326 4.87125 4.28 4.81725 4.712H0.965248V4.514C0.965248 3.29 1.77525 0.446 7.30125 0.446H8.30925C13.8352 0.446 14.9512 2.3 14.9512 3.884V4.01C14.9512 5.522 14.0152 6.206 12.9532 6.494C14.1772 6.782 15.3652 7.664 15.3652 9.554V9.68C15.3652 11.822 14.0512 14.198 8.30925 14.198ZM21.8078 10.508V14H17.6138V10.508H21.8078ZM30.656 14V0.608H41.816V3.56H34.364V14H30.656ZM48.19 6.08C46.372 6.08 45.688 6.818 45.508 7.862H50.8C50.8 7.124 50.44 6.08 48.19 6.08ZM50.872 10.886H54.526C54.526 11.714 53.878 14.234 48.712 14.234H48.046C43.114 14.234 41.89 11.534 41.89 9.14V8.888C41.89 6.638 43.006 3.794 47.74 3.794H48.532C53.644 3.794 54.562 6.638 54.562 9.428V9.752H45.472C45.616 10.904 46.354 11.84 48.496 11.84C50.53 11.84 50.782 11.048 50.872 10.886ZM66.1458 9.014V8.96C66.1458 7.88 65.6418 6.422 63.4458 6.422H63.2658C61.1598 6.422 60.4938 7.808 60.4938 8.96V9.014C60.4938 10.112 61.1598 11.552 63.2658 11.552H63.4458C65.6418 11.552 66.1458 10.04 66.1458 9.014ZM57.0018 17.438V4.01H60.4758V5.288C60.9078 4.82 62.2218 3.812 64.4898 3.812H64.7238C68.5398 3.812 69.7818 6.422 69.7818 8.798V9.104C69.7818 11.282 68.5038 14.198 64.7058 14.198H64.4538C62.1678 14.198 60.9438 13.154 60.5118 12.722V17.438H57.0018ZM78.4876 14.27H77.9296C72.5476 14.27 71.7196 10.994 71.7196 9.176V8.924C71.7196 7.124 72.5476 3.74 77.9116 3.74H78.5056C84.0496 3.74 84.6976 7.142 84.6976 8.906V9.194C84.6976 10.994 84.0496 14.27 78.4876 14.27ZM78.1096 11.642H78.3076C80.5216 11.642 81.0796 10.058 81.0796 8.96C81.0796 7.826 80.5216 6.314 78.3076 6.314H78.1096C75.8056 6.314 75.3376 7.826 75.3376 8.96C75.3376 10.058 75.8056 11.642 78.1096 11.642ZM95.5363 7.952L90.7123 14H87.1123V4.01H90.6223V10.058L95.4463 4.01H99.0463V14H95.5363V7.952ZM93.3043 2.984H92.7643C89.9023 2.984 89.3983 1.04 89.3983 0.104V0.0499994H92.0443C92.0443 0.284 92.1523 1.004 93.0523 1.004C93.8983 1.004 94.0243 0.284 94.0243 0.0499994H96.6343V0.104C96.6343 1.04 95.9143 2.984 93.3043 2.984ZM107.169 14V4.01H118.725V14H115.215V6.674H110.679V14H107.169ZM126.352 12.002C128.404 12.002 129.106 10.706 129.106 9.95V9.176C128.8 9.302 127.918 9.482 126.91 9.644C125.218 9.932 124.678 10.166 124.678 10.868V10.904C124.678 11.534 125.128 12.002 126.352 12.002ZM129.214 12.614C128.782 13.136 127.702 14.198 125.362 14.198H125.074C122.284 14.198 121.132 12.686 121.132 11.03V10.958C121.132 9.23 122.23 8.168 125.614 7.88L128.35 7.646C128.908 7.592 129.106 7.412 129.106 6.998C129.106 6.53 128.962 6.026 127.018 6.026C125.182 6.026 125.002 6.746 125.002 7.124H121.402V7.088C121.402 6.098 121.798 3.776 126.712 3.776H127.27C132.22 3.776 132.526 5.81 132.526 7.142V10.436C132.526 11.066 132.652 11.318 133.354 11.318H133.732V14H130.888C129.844 14 129.358 13.262 129.214 12.614ZM139.243 14H135.733V4.01H139.243V7.646H144.139V4.01H147.649V14H144.139V10.31H139.243V14ZM149.741 16.124V11.336H150.947C151.631 9.968 151.739 6.998 151.829 4.01H162.395V11.336H164.195V16.124H160.865V14H153.071V16.124H149.741ZM154.259 11.336H158.885V6.674H154.979C154.925 7.97 154.745 9.95 154.259 11.336ZM171.922 6.08C170.104 6.08 169.42 6.818 169.24 7.862H174.532C174.532 7.124 174.172 6.08 171.922 6.08ZM174.604 10.886H178.258C178.258 11.714 177.61 14.234 172.444 14.234H171.778C166.846 14.234 165.622 11.534 165.622 9.14V8.888C165.622 6.638 166.738 3.794 171.472 3.794H172.264C177.376 3.794 178.294 6.638 178.294 9.428V9.752H169.204C169.348 10.904 170.086 11.84 172.228 11.84C174.262 11.84 174.514 11.048 174.604 10.886ZM183.938 7.268V14H180.698V4.01H185.648L188.618 10.382L191.588 4.01H196.358V14H192.848V7.268L189.734 14H187.052L183.938 7.268ZM207.579 7.952L202.755 14H199.155V4.01H202.665V10.058L207.489 4.01H211.089V14H207.579V7.952ZM222.433 7.952L217.609 14H214.009V4.01H217.519V10.058L222.343 4.01H225.943V14H222.433V7.952Z" fill="#C1A875" style="mix-blend-mode:color"/>
<defs>
<linearGradient id="paint0_linear_2017_657" x1="2" y1="6" x2="228" y2="6.00001" gradientUnits="userSpaceOnUse">
<stop stop-color="#576167"/>
<stop offset="0.191294" stop-color="#9EA1A2"/>
<stop offset="0.396166" stop-color="#848989"/>
<stop offset="0.62055" stop-color="#576167"/>
<stop offset="0.830299" stop-color="#757A7C"/>
<stop offset="1" stop-color="#576167"/>
</linearGradient>
<radialGradient id="paint1_radial_2017_657" cx="0" cy="0" r="1" gradientUnits="userSpaceOnUse" gradientTransform="translate(122.356 -3.20225) rotate(90) scale(17.8315 170.976)">
<stop stop-color="white"/>
<stop offset="1" stop-color="white" stop-opacity="0"/>
</radialGradient>
<radialGradient id="paint2_radial_2017_657" cx="0" cy="0" r="1" gradientUnits="userSpaceOnUse" gradientTransform="translate(135.14 23.6629) rotate(-89.1888) scale(25.5531 244.468)">
<stop stop-color="white"/>
<stop offset="1" stop-color="white" stop-opacity="0"/>
</radialGradient>
</defs>
</svg>
