<svg width="309" height="18" viewBox="0 0 309 18" fill="none" xmlns="http://www.w3.org/2000/svg">
<path d="M0.821248 11.084V8.726L8.05725 0.518H12.9712V8.204H15.7432V11.084H12.9712V14H9.29925V11.084H0.821248ZM9.29925 8.204V3.056L4.74525 8.204H9.29925ZM21.8078 10.508V14H17.6138V10.508H21.8078ZM41.24 14V3.56H35.48C35.48 7.214 35.318 10.004 34.832 11.462C34.4 12.74 33.626 14 30.962 14H29.63V10.85H29.756C30.854 10.85 31.304 10.346 31.52 9.788C31.88 8.852 31.97 7.574 31.97 0.608H44.948V14H41.24ZM56.4777 7.952L51.6537 14H48.0537V4.01H51.5637V10.058L56.3877 4.01H59.9877V14H56.4777V7.952ZM62.0792 16.124V11.336H63.2852C63.9692 9.968 64.0772 6.998 64.1672 4.01H74.7332V11.336H76.5332V16.124H73.2032V14H65.4092V16.124H62.0792ZM66.5972 11.336H71.2232V6.674H67.3172C67.2632 7.97 67.0832 9.95 66.5972 11.336ZM84.2603 6.08C82.4423 6.08 81.7583 6.818 81.5783 7.862H86.8703C86.8703 7.124 86.5103 6.08 84.2603 6.08ZM86.9423 10.886H90.5963C90.5963 11.714 89.9483 14.234 84.7823 14.234H84.1163C79.1843 14.234 77.9603 11.534 77.9603 9.14V8.888C77.9603 6.638 79.0763 3.794 83.8103 3.794H84.6023C89.7143 3.794 90.6323 6.638 90.6323 9.428V9.752H81.5423C81.6863 10.904 82.4243 11.84 84.5663 11.84C86.6003 11.84 86.8523 11.048 86.9423 10.886ZM102.216 9.014V8.96C102.216 7.88 101.712 6.422 99.5161 6.422H99.3361C97.2301 6.422 96.5641 7.808 96.5641 8.96V9.014C96.5641 10.112 97.2301 11.552 99.3361 11.552H99.5161C101.712 11.552 102.216 10.04 102.216 9.014ZM93.0721 17.438V4.01H96.5461V5.288C96.9781 4.82 98.2921 3.812 100.56 3.812H100.794C104.61 3.812 105.852 6.422 105.852 8.798V9.104C105.852 11.282 104.574 14.198 100.776 14.198H100.524C98.2381 14.198 97.0141 13.154 96.5821 12.722V17.438H93.0721ZM126.853 11.336V16.124H123.523V14H113.497V4.01H117.007V11.336H121.543V4.01H125.053V11.336H126.853ZM137.372 7.952L132.548 14H128.948V4.01H132.458V10.058L137.282 4.01H140.882V14H137.372V7.952ZM154.062 14.27H153.54V17.384H150.03V14.27H149.508C143.946 14.27 143.298 10.994 143.298 9.194V8.906C143.298 7.142 143.946 3.74 149.49 3.74H150.03V0.608H153.54V3.74H154.08C159.624 3.74 160.272 7.142 160.272 8.906V9.194C160.272 10.994 159.624 14.27 154.062 14.27ZM149.688 11.732H150.03V6.224H149.688C147.474 6.224 146.916 7.646 146.916 8.96C146.916 10.238 147.474 11.732 149.688 11.732ZM153.882 6.224H153.54V11.732H153.882C156.096 11.732 156.654 10.238 156.654 8.96C156.654 7.664 156.096 6.224 153.882 6.224ZM171.861 9.014V8.96C171.861 7.88 171.357 6.422 169.161 6.422H168.981C166.875 6.422 166.209 7.808 166.209 8.96V9.014C166.209 10.112 166.875 11.552 168.981 11.552H169.161C171.357 11.552 171.861 10.04 171.861 9.014ZM162.717 17.438V4.01H166.191V5.288C166.623 4.82 167.937 3.812 170.205 3.812H170.439C174.255 3.812 175.497 6.422 175.497 8.798V9.104C175.497 11.282 174.219 14.198 170.421 14.198H170.169C167.883 14.198 166.659 13.154 166.227 12.722V17.438H162.717ZM184.202 14.27H183.644C178.262 14.27 177.434 10.994 177.434 9.176V8.924C177.434 7.124 178.262 3.74 183.626 3.74H184.22C189.764 3.74 190.412 7.142 190.412 8.906V9.194C190.412 10.994 189.764 14.27 184.202 14.27ZM183.824 11.642H184.022C186.236 11.642 186.794 10.058 186.794 8.96C186.794 7.826 186.236 6.314 184.022 6.314H183.824C181.52 6.314 181.052 7.826 181.052 8.96C181.052 10.058 181.52 11.642 183.824 11.642ZM201.071 14H192.827V4.01H200.711C202.997 4.01 204.437 4.82 204.437 6.404V6.494C204.437 7.736 203.645 8.474 202.439 8.672C203.663 8.816 204.761 9.68 204.761 11.12V11.192C204.761 13.01 203.573 14 201.071 14ZM196.337 7.988H199.559C200.405 7.988 200.837 7.664 200.837 7.034V6.944C200.837 6.368 200.441 6.026 199.559 6.026H196.337V7.988ZM196.337 11.984H199.703C200.639 11.984 201.161 11.678 201.161 10.976V10.832C201.161 10.202 200.729 9.806 199.703 9.806H196.337V11.984ZM213.47 14.27H212.912C207.53 14.27 206.702 10.994 206.702 9.176V8.924C206.702 7.124 207.53 3.74 212.894 3.74H213.488C219.032 3.74 219.68 7.142 219.68 8.906V9.194C219.68 10.994 219.032 14.27 213.47 14.27ZM213.092 11.642H213.29C215.504 11.642 216.062 10.058 216.062 8.96C216.062 7.826 215.504 6.314 213.29 6.314H213.092C210.788 6.314 210.32 7.826 210.32 8.96C210.32 10.058 210.788 11.642 213.092 11.642ZM230.519 7.952L225.695 14H222.095V4.01H225.605V10.058L230.429 4.01H234.029V14H230.519V7.952ZM228.287 2.984H227.747C224.885 2.984 224.381 1.04 224.381 0.104V0.0499994H227.027C227.027 0.284 227.135 1.004 228.035 1.004C228.881 1.004 229.007 0.284 229.007 0.0499994H231.617V0.104C231.617 1.04 230.897 2.984 228.287 2.984ZM254.139 8.888V9.14C254.139 11.03 253.203 14.27 248.217 14.27H247.335C242.529 14.27 241.629 11.588 241.629 10.076H245.301C245.301 10.346 245.607 11.75 247.695 11.75H247.875C249.441 11.75 250.179 10.904 250.467 9.932H246.453V7.772H250.413C250.125 6.908 249.441 6.206 247.947 6.206H247.767C245.679 6.206 245.355 7.52 245.301 7.826H241.629V7.808C241.629 6.368 242.583 3.74 247.407 3.74H248.235C253.257 3.74 254.139 6.998 254.139 8.888ZM259.322 14V6.674H255.452V4.01H266.702V6.674H262.832V14H259.322ZM277.03 7.952L272.206 14H268.606V4.01H272.116V10.058L276.94 4.01H280.54V14H277.03V7.952ZM290.894 14L287.006 9.374V14H283.496V4.01H287.006V8.006L290.57 4.01H294.62L290.444 8.492L295.07 14H290.894ZM304.945 7.952L300.121 14H296.521V4.01H300.031V10.058L304.855 4.01H308.455V14H304.945V7.952Z" fill="url(#paint0_linear_2017_664)"/>
<path d="M0.821248 11.084V8.726L8.05725 0.518H12.9712V8.204H15.7432V11.084H12.9712V14H9.29925V11.084H0.821248ZM9.29925 8.204V3.056L4.74525 8.204H9.29925ZM21.8078 10.508V14H17.6138V10.508H21.8078ZM41.24 14V3.56H35.48C35.48 7.214 35.318 10.004 34.832 11.462C34.4 12.74 33.626 14 30.962 14H29.63V10.85H29.756C30.854 10.85 31.304 10.346 31.52 9.788C31.88 8.852 31.97 7.574 31.97 0.608H44.948V14H41.24ZM56.4777 7.952L51.6537 14H48.0537V4.01H51.5637V10.058L56.3877 4.01H59.9877V14H56.4777V7.952ZM62.0792 16.124V11.336H63.2852C63.9692 9.968 64.0772 6.998 64.1672 4.01H74.7332V11.336H76.5332V16.124H73.2032V14H65.4092V16.124H62.0792ZM66.5972 11.336H71.2232V6.674H67.3172C67.2632 7.97 67.0832 9.95 66.5972 11.336ZM84.2603 6.08C82.4423 6.08 81.7583 6.818 81.5783 7.862H86.8703C86.8703 7.124 86.5103 6.08 84.2603 6.08ZM86.9423 10.886H90.5963C90.5963 11.714 89.9483 14.234 84.7823 14.234H84.1163C79.1843 14.234 77.9603 11.534 77.9603 9.14V8.888C77.9603 6.638 79.0763 3.794 83.8103 3.794H84.6023C89.7143 3.794 90.6323 6.638 90.6323 9.428V9.752H81.5423C81.6863 10.904 82.4243 11.84 84.5663 11.84C86.6003 11.84 86.8523 11.048 86.9423 10.886ZM102.216 9.014V8.96C102.216 7.88 101.712 6.422 99.5161 6.422H99.3361C97.2301 6.422 96.5641 7.808 96.5641 8.96V9.014C96.5641 10.112 97.2301 11.552 99.3361 11.552H99.5161C101.712 11.552 102.216 10.04 102.216 9.014ZM93.0721 17.438V4.01H96.5461V5.288C96.9781 4.82 98.2921 3.812 100.56 3.812H100.794C104.61 3.812 105.852 6.422 105.852 8.798V9.104C105.852 11.282 104.574 14.198 100.776 14.198H100.524C98.2381 14.198 97.0141 13.154 96.5821 12.722V17.438H93.0721ZM126.853 11.336V16.124H123.523V14H113.497V4.01H117.007V11.336H121.543V4.01H125.053V11.336H126.853ZM137.372 7.952L132.548 14H128.948V4.01H132.458V10.058L137.282 4.01H140.882V14H137.372V7.952ZM154.062 14.27H153.54V17.384H150.03V14.27H149.508C143.946 14.27 143.298 10.994 143.298 9.194V8.906C143.298 7.142 143.946 3.74 149.49 3.74H150.03V0.608H153.54V3.74H154.08C159.624 3.74 160.272 7.142 160.272 8.906V9.194C160.272 10.994 159.624 14.27 154.062 14.27ZM149.688 11.732H150.03V6.224H149.688C147.474 6.224 146.916 7.646 146.916 8.96C146.916 10.238 147.474 11.732 149.688 11.732ZM153.882 6.224H153.54V11.732H153.882C156.096 11.732 156.654 10.238 156.654 8.96C156.654 7.664 156.096 6.224 153.882 6.224ZM171.861 9.014V8.96C171.861 7.88 171.357 6.422 169.161 6.422H168.981C166.875 6.422 166.209 7.808 166.209 8.96V9.014C166.209 10.112 166.875 11.552 168.981 11.552H169.161C171.357 11.552 171.861 10.04 171.861 9.014ZM162.717 17.438V4.01H166.191V5.288C166.623 4.82 167.937 3.812 170.205 3.812H170.439C174.255 3.812 175.497 6.422 175.497 8.798V9.104C175.497 11.282 174.219 14.198 170.421 14.198H170.169C167.883 14.198 166.659 13.154 166.227 12.722V17.438H162.717ZM184.202 14.27H183.644C178.262 14.27 177.434 10.994 177.434 9.176V8.924C177.434 7.124 178.262 3.74 183.626 3.74H184.22C189.764 3.74 190.412 7.142 190.412 8.906V9.194C190.412 10.994 189.764 14.27 184.202 14.27ZM183.824 11.642H184.022C186.236 11.642 186.794 10.058 186.794 8.96C186.794 7.826 186.236 6.314 184.022 6.314H183.824C181.52 6.314 181.052 7.826 181.052 8.96C181.052 10.058 181.52 11.642 183.824 11.642ZM201.071 14H192.827V4.01H200.711C202.997 4.01 204.437 4.82 204.437 6.404V6.494C204.437 7.736 203.645 8.474 202.439 8.672C203.663 8.816 204.761 9.68 204.761 11.12V11.192C204.761 13.01 203.573 14 201.071 14ZM196.337 7.988H199.559C200.405 7.988 200.837 7.664 200.837 7.034V6.944C200.837 6.368 200.441 6.026 199.559 6.026H196.337V7.988ZM196.337 11.984H199.703C200.639 11.984 201.161 11.678 201.161 10.976V10.832C201.161 10.202 200.729 9.806 199.703 9.806H196.337V11.984ZM213.47 14.27H212.912C207.53 14.27 206.702 10.994 206.702 9.176V8.924C206.702 7.124 207.53 3.74 212.894 3.74H213.488C219.032 3.74 219.68 7.142 219.68 8.906V9.194C219.68 10.994 219.032 14.27 213.47 14.27ZM213.092 11.642H213.29C215.504 11.642 216.062 10.058 216.062 8.96C216.062 7.826 215.504 6.314 213.29 6.314H213.092C210.788 6.314 210.32 7.826 210.32 8.96C210.32 10.058 210.788 11.642 213.092 11.642ZM230.519 7.952L225.695 14H222.095V4.01H225.605V10.058L230.429 4.01H234.029V14H230.519V7.952ZM228.287 2.984H227.747C224.885 2.984 224.381 1.04 224.381 0.104V0.0499994H227.027C227.027 0.284 227.135 1.004 228.035 1.004C228.881 1.004 229.007 0.284 229.007 0.0499994H231.617V0.104C231.617 1.04 230.897 2.984 228.287 2.984ZM254.139 8.888V9.14C254.139 11.03 253.203 14.27 248.217 14.27H247.335C242.529 14.27 241.629 11.588 241.629 10.076H245.301C245.301 10.346 245.607 11.75 247.695 11.75H247.875C249.441 11.75 250.179 10.904 250.467 9.932H246.453V7.772H250.413C250.125 6.908 249.441 6.206 247.947 6.206H247.767C245.679 6.206 245.355 7.52 245.301 7.826H241.629V7.808C241.629 6.368 242.583 3.74 247.407 3.74H248.235C253.257 3.74 254.139 6.998 254.139 8.888ZM259.322 14V6.674H255.452V4.01H266.702V6.674H262.832V14H259.322ZM277.03 7.952L272.206 14H268.606V4.01H272.116V10.058L276.94 4.01H280.54V14H277.03V7.952ZM290.894 14L287.006 9.374V14H283.496V4.01H287.006V8.006L290.57 4.01H294.62L290.444 8.492L295.07 14H290.894ZM304.945 7.952L300.121 14H296.521V4.01H300.031V10.058L304.855 4.01H308.455V14H304.945V7.952Z" fill="url(#paint1_radial_2017_664)" style="mix-blend-mode:overlay"/>
<path d="M0.821248 11.084V8.726L8.05725 0.518H12.9712V8.204H15.7432V11.084H12.9712V14H9.29925V11.084H0.821248ZM9.29925 8.204V3.056L4.74525 8.204H9.29925ZM21.8078 10.508V14H17.6138V10.508H21.8078ZM41.24 14V3.56H35.48C35.48 7.214 35.318 10.004 34.832 11.462C34.4 12.74 33.626 14 30.962 14H29.63V10.85H29.756C30.854 10.85 31.304 10.346 31.52 9.788C31.88 8.852 31.97 7.574 31.97 0.608H44.948V14H41.24ZM56.4777 7.952L51.6537 14H48.0537V4.01H51.5637V10.058L56.3877 4.01H59.9877V14H56.4777V7.952ZM62.0792 16.124V11.336H63.2852C63.9692 9.968 64.0772 6.998 64.1672 4.01H74.7332V11.336H76.5332V16.124H73.2032V14H65.4092V16.124H62.0792ZM66.5972 11.336H71.2232V6.674H67.3172C67.2632 7.97 67.0832 9.95 66.5972 11.336ZM84.2603 6.08C82.4423 6.08 81.7583 6.818 81.5783 7.862H86.8703C86.8703 7.124 86.5103 6.08 84.2603 6.08ZM86.9423 10.886H90.5963C90.5963 11.714 89.9483 14.234 84.7823 14.234H84.1163C79.1843 14.234 77.9603 11.534 77.9603 9.14V8.888C77.9603 6.638 79.0763 3.794 83.8103 3.794H84.6023C89.7143 3.794 90.6323 6.638 90.6323 9.428V9.752H81.5423C81.6863 10.904 82.4243 11.84 84.5663 11.84C86.6003 11.84 86.8523 11.048 86.9423 10.886ZM102.216 9.014V8.96C102.216 7.88 101.712 6.422 99.5161 6.422H99.3361C97.2301 6.422 96.5641 7.808 96.5641 8.96V9.014C96.5641 10.112 97.2301 11.552 99.3361 11.552H99.5161C101.712 11.552 102.216 10.04 102.216 9.014ZM93.0721 17.438V4.01H96.5461V5.288C96.9781 4.82 98.2921 3.812 100.56 3.812H100.794C104.61 3.812 105.852 6.422 105.852 8.798V9.104C105.852 11.282 104.574 14.198 100.776 14.198H100.524C98.2381 14.198 97.0141 13.154 96.5821 12.722V17.438H93.0721ZM126.853 11.336V16.124H123.523V14H113.497V4.01H117.007V11.336H121.543V4.01H125.053V11.336H126.853ZM137.372 7.952L132.548 14H128.948V4.01H132.458V10.058L137.282 4.01H140.882V14H137.372V7.952ZM154.062 14.27H153.54V17.384H150.03V14.27H149.508C143.946 14.27 143.298 10.994 143.298 9.194V8.906C143.298 7.142 143.946 3.74 149.49 3.74H150.03V0.608H153.54V3.74H154.08C159.624 3.74 160.272 7.142 160.272 8.906V9.194C160.272 10.994 159.624 14.27 154.062 14.27ZM149.688 11.732H150.03V6.224H149.688C147.474 6.224 146.916 7.646 146.916 8.96C146.916 10.238 147.474 11.732 149.688 11.732ZM153.882 6.224H153.54V11.732H153.882C156.096 11.732 156.654 10.238 156.654 8.96C156.654 7.664 156.096 6.224 153.882 6.224ZM171.861 9.014V8.96C171.861 7.88 171.357 6.422 169.161 6.422H168.981C166.875 6.422 166.209 7.808 166.209 8.96V9.014C166.209 10.112 166.875 11.552 168.981 11.552H169.161C171.357 11.552 171.861 10.04 171.861 9.014ZM162.717 17.438V4.01H166.191V5.288C166.623 4.82 167.937 3.812 170.205 3.812H170.439C174.255 3.812 175.497 6.422 175.497 8.798V9.104C175.497 11.282 174.219 14.198 170.421 14.198H170.169C167.883 14.198 166.659 13.154 166.227 12.722V17.438H162.717ZM184.202 14.27H183.644C178.262 14.27 177.434 10.994 177.434 9.176V8.924C177.434 7.124 178.262 3.74 183.626 3.74H184.22C189.764 3.74 190.412 7.142 190.412 8.906V9.194C190.412 10.994 189.764 14.27 184.202 14.27ZM183.824 11.642H184.022C186.236 11.642 186.794 10.058 186.794 8.96C186.794 7.826 186.236 6.314 184.022 6.314H183.824C181.52 6.314 181.052 7.826 181.052 8.96C181.052 10.058 181.52 11.642 183.824 11.642ZM201.071 14H192.827V4.01H200.711C202.997 4.01 204.437 4.82 204.437 6.404V6.494C204.437 7.736 203.645 8.474 202.439 8.672C203.663 8.816 204.761 9.68 204.761 11.12V11.192C204.761 13.01 203.573 14 201.071 14ZM196.337 7.988H199.559C200.405 7.988 200.837 7.664 200.837 7.034V6.944C200.837 6.368 200.441 6.026 199.559 6.026H196.337V7.988ZM196.337 11.984H199.703C200.639 11.984 201.161 11.678 201.161 10.976V10.832C201.161 10.202 200.729 9.806 199.703 9.806H196.337V11.984ZM213.47 14.27H212.912C207.53 14.27 206.702 10.994 206.702 9.176V8.924C206.702 7.124 207.53 3.74 212.894 3.74H213.488C219.032 3.74 219.68 7.142 219.68 8.906V9.194C219.68 10.994 219.032 14.27 213.47 14.27ZM213.092 11.642H213.29C215.504 11.642 216.062 10.058 216.062 8.96C216.062 7.826 215.504 6.314 213.29 6.314H213.092C210.788 6.314 210.32 7.826 210.32 8.96C210.32 10.058 210.788 11.642 213.092 11.642ZM230.519 7.952L225.695 14H222.095V4.01H225.605V10.058L230.429 4.01H234.029V14H230.519V7.952ZM228.287 2.984H227.747C224.885 2.984 224.381 1.04 224.381 0.104V0.0499994H227.027C227.027 0.284 227.135 1.004 228.035 1.004C228.881 1.004 229.007 0.284 229.007 0.0499994H231.617V0.104C231.617 1.04 230.897 2.984 228.287 2.984ZM254.139 8.888V9.14C254.139 11.03 253.203 14.27 248.217 14.27H247.335C242.529 14.27 241.629 11.588 241.629 10.076H245.301C245.301 10.346 245.607 11.75 247.695 11.75H247.875C249.441 11.75 250.179 10.904 250.467 9.932H246.453V7.772H250.413C250.125 6.908 249.441 6.206 247.947 6.206H247.767C245.679 6.206 245.355 7.52 245.301 7.826H241.629V7.808C241.629 6.368 242.583 3.74 247.407 3.74H248.235C253.257 3.74 254.139 6.998 254.139 8.888ZM259.322 14V6.674H255.452V4.01H266.702V6.674H262.832V14H259.322ZM277.03 7.952L272.206 14H268.606V4.01H272.116V10.058L276.94 4.01H280.54V14H277.03V7.952ZM290.894 14L287.006 9.374V14H283.496V4.01H287.006V8.006L290.57 4.01H294.62L290.444 8.492L295.07 14H290.894ZM304.945 7.952L300.121 14H296.521V4.01H300.031V10.058L304.855 4.01H308.455V14H304.945V7.952Z" fill="url(#paint2_radial_2017_664)"/>
<path d="M0.821248 11.084V8.726L8.05725 0.518H12.9712V8.204H15.7432V11.084H12.9712V14H9.29925V11.084H0.821248ZM9.29925 8.204V3.056L4.74525 8.204H9.29925ZM21.8078 10.508V14H17.6138V10.508H21.8078ZM41.24 14V3.56H35.48C35.48 7.214 35.318 10.004 34.832 11.462C34.4 12.74 33.626 14 30.962 14H29.63V10.85H29.756C30.854 10.85 31.304 10.346 31.52 9.788C31.88 8.852 31.97 7.574 31.97 0.608H44.948V14H41.24ZM56.4777 7.952L51.6537 14H48.0537V4.01H51.5637V10.058L56.3877 4.01H59.9877V14H56.4777V7.952ZM62.0792 16.124V11.336H63.2852C63.9692 9.968 64.0772 6.998 64.1672 4.01H74.7332V11.336H76.5332V16.124H73.2032V14H65.4092V16.124H62.0792ZM66.5972 11.336H71.2232V6.674H67.3172C67.2632 7.97 67.0832 9.95 66.5972 11.336ZM84.2603 6.08C82.4423 6.08 81.7583 6.818 81.5783 7.862H86.8703C86.8703 7.124 86.5103 6.08 84.2603 6.08ZM86.9423 10.886H90.5963C90.5963 11.714 89.9483 14.234 84.7823 14.234H84.1163C79.1843 14.234 77.9603 11.534 77.9603 9.14V8.888C77.9603 6.638 79.0763 3.794 83.8103 3.794H84.6023C89.7143 3.794 90.6323 6.638 90.6323 9.428V9.752H81.5423C81.6863 10.904 82.4243 11.84 84.5663 11.84C86.6003 11.84 86.8523 11.048 86.9423 10.886ZM102.216 9.014V8.96C102.216 7.88 101.712 6.422 99.5161 6.422H99.3361C97.2301 6.422 96.5641 7.808 96.5641 8.96V9.014C96.5641 10.112 97.2301 11.552 99.3361 11.552H99.5161C101.712 11.552 102.216 10.04 102.216 9.014ZM93.0721 17.438V4.01H96.5461V5.288C96.9781 4.82 98.2921 3.812 100.56 3.812H100.794C104.61 3.812 105.852 6.422 105.852 8.798V9.104C105.852 11.282 104.574 14.198 100.776 14.198H100.524C98.2381 14.198 97.0141 13.154 96.5821 12.722V17.438H93.0721ZM126.853 11.336V16.124H123.523V14H113.497V4.01H117.007V11.336H121.543V4.01H125.053V11.336H126.853ZM137.372 7.952L132.548 14H128.948V4.01H132.458V10.058L137.282 4.01H140.882V14H137.372V7.952ZM154.062 14.27H153.54V17.384H150.03V14.27H149.508C143.946 14.27 143.298 10.994 143.298 9.194V8.906C143.298 7.142 143.946 3.74 149.49 3.74H150.03V0.608H153.54V3.74H154.08C159.624 3.74 160.272 7.142 160.272 8.906V9.194C160.272 10.994 159.624 14.27 154.062 14.27ZM149.688 11.732H150.03V6.224H149.688C147.474 6.224 146.916 7.646 146.916 8.96C146.916 10.238 147.474 11.732 149.688 11.732ZM153.882 6.224H153.54V11.732H153.882C156.096 11.732 156.654 10.238 156.654 8.96C156.654 7.664 156.096 6.224 153.882 6.224ZM171.861 9.014V8.96C171.861 7.88 171.357 6.422 169.161 6.422H168.981C166.875 6.422 166.209 7.808 166.209 8.96V9.014C166.209 10.112 166.875 11.552 168.981 11.552H169.161C171.357 11.552 171.861 10.04 171.861 9.014ZM162.717 17.438V4.01H166.191V5.288C166.623 4.82 167.937 3.812 170.205 3.812H170.439C174.255 3.812 175.497 6.422 175.497 8.798V9.104C175.497 11.282 174.219 14.198 170.421 14.198H170.169C167.883 14.198 166.659 13.154 166.227 12.722V17.438H162.717ZM184.202 14.27H183.644C178.262 14.27 177.434 10.994 177.434 9.176V8.924C177.434 7.124 178.262 3.74 183.626 3.74H184.22C189.764 3.74 190.412 7.142 190.412 8.906V9.194C190.412 10.994 189.764 14.27 184.202 14.27ZM183.824 11.642H184.022C186.236 11.642 186.794 10.058 186.794 8.96C186.794 7.826 186.236 6.314 184.022 6.314H183.824C181.52 6.314 181.052 7.826 181.052 8.96C181.052 10.058 181.52 11.642 183.824 11.642ZM201.071 14H192.827V4.01H200.711C202.997 4.01 204.437 4.82 204.437 6.404V6.494C204.437 7.736 203.645 8.474 202.439 8.672C203.663 8.816 204.761 9.68 204.761 11.12V11.192C204.761 13.01 203.573 14 201.071 14ZM196.337 7.988H199.559C200.405 7.988 200.837 7.664 200.837 7.034V6.944C200.837 6.368 200.441 6.026 199.559 6.026H196.337V7.988ZM196.337 11.984H199.703C200.639 11.984 201.161 11.678 201.161 10.976V10.832C201.161 10.202 200.729 9.806 199.703 9.806H196.337V11.984ZM213.47 14.27H212.912C207.53 14.27 206.702 10.994 206.702 9.176V8.924C206.702 7.124 207.53 3.74 212.894 3.74H213.488C219.032 3.74 219.68 7.142 219.68 8.906V9.194C219.68 10.994 219.032 14.27 213.47 14.27ZM213.092 11.642H213.29C215.504 11.642 216.062 10.058 216.062 8.96C216.062 7.826 215.504 6.314 213.29 6.314H213.092C210.788 6.314 210.32 7.826 210.32 8.96C210.32 10.058 210.788 11.642 213.092 11.642ZM230.519 7.952L225.695 14H222.095V4.01H225.605V10.058L230.429 4.01H234.029V14H230.519V7.952ZM228.287 2.984H227.747C224.885 2.984 224.381 1.04 224.381 0.104V0.0499994H227.027C227.027 0.284 227.135 1.004 228.035 1.004C228.881 1.004 229.007 0.284 229.007 0.0499994H231.617V0.104C231.617 1.04 230.897 2.984 228.287 2.984ZM254.139 8.888V9.14C254.139 11.03 253.203 14.27 248.217 14.27H247.335C242.529 14.27 241.629 11.588 241.629 10.076H245.301C245.301 10.346 245.607 11.75 247.695 11.75H247.875C249.441 11.75 250.179 10.904 250.467 9.932H246.453V7.772H250.413C250.125 6.908 249.441 6.206 247.947 6.206H247.767C245.679 6.206 245.355 7.52 245.301 7.826H241.629V7.808C241.629 6.368 242.583 3.74 247.407 3.74H248.235C253.257 3.74 254.139 6.998 254.139 8.888ZM259.322 14V6.674H255.452V4.01H266.702V6.674H262.832V14H259.322ZM277.03 7.952L272.206 14H268.606V4.01H272.116V10.058L276.94 4.01H280.54V14H277.03V7.952ZM290.894 14L287.006 9.374V14H283.496V4.01H287.006V8.006L290.57 4.01H294.62L290.444 8.492L295.07 14H290.894ZM304.945 7.952L300.121 14H296.521V4.01H300.031V10.058L304.855 4.01H308.455V14H304.945V7.952Z" fill="#C1A875" style="mix-blend-mode:color"/>
<defs>
<linearGradient id="paint0_linear_2017_664" x1="2" y1="6" x2="310" y2="6.00002" gradientUnits="userSpaceOnUse">
<stop stop-color="#576167"/>
<stop offset="0.191294" stop-color="#9EA1A2"/>
<stop offset="0.396166" stop-color="#848989"/>
<stop offset="0.62055" stop-color="#576167"/>
<stop offset="0.830299" stop-color="#757A7C"/>
<stop offset="1" stop-color="#576167"/>
</linearGradient>
<radialGradient id="paint1_radial_2017_664" cx="0" cy="0" r="1" gradientUnits="userSpaceOnUse" gradientTransform="translate(166.026 -3.20225) rotate(90) scale(17.8315 233.012)">
<stop stop-color="white"/>
<stop offset="1" stop-color="white" stop-opacity="0"/>
</radialGradient>
<radialGradient id="paint2_radial_2017_664" cx="0" cy="0" r="1" gradientUnits="userSpaceOnUse" gradientTransform="translate(183.447 23.6629) rotate(-88.8945) scale(25.5553 333.14)">
<stop stop-color="white"/>
<stop offset="1" stop-color="white" stop-opacity="0"/>
</radialGradient>
</defs>
</svg>
