<svg width="437" height="18" viewBox="0 0 437 18" fill="none" xmlns="http://www.w3.org/2000/svg">
<path d="M7.70525 14.198H6.98525C1.29725 14.198 0.271248 11.48 0.271248 10.256V10.004H4.17725C4.26725 10.382 4.80725 11.21 7.38125 11.21C9.81125 11.21 10.7112 10.562 10.7112 9.554V9.446C10.7112 8.384 9.84725 7.844 7.38125 7.844C4.84325 7.844 4.28525 8.474 4.14125 8.888H0.469248V0.608H13.4652V3.65H4.14125V6.134C4.28525 5.99 5.50925 5.09 8.19125 5.09H8.37125C13.1412 5.09 14.4012 7.142 14.4012 9.248V9.464C14.4012 11.642 12.9792 14.198 7.70525 14.198ZM20.8078 10.508V14H16.6138V10.508H20.8078ZM29.656 14V0.608H34.588L38.854 9.68L43.246 0.608H47.872V14H44.254V5.234L40.186 14H37.288L33.22 5.234V14H29.656ZM57.2552 14.27H56.6972C51.3152 14.27 50.4872 10.994 50.4872 9.176V8.924C50.4872 7.124 51.3152 3.74 56.6792 3.74H57.2732C62.8172 3.74 63.4652 7.142 63.4652 8.906V9.194C63.4652 10.994 62.8172 14.27 57.2552 14.27ZM56.8772 11.642H57.0752C59.2892 11.642 59.8472 10.058 59.8472 8.96C59.8472 7.826 59.2892 6.314 57.0752 6.314H56.8772C54.5732 6.314 54.1052 7.826 54.1052 8.96C54.1052 10.058 54.5732 11.642 56.8772 11.642ZM73.8941 14V6.674H69.9341C69.9341 9.356 69.8441 10.85 69.5021 11.768C69.1241 12.776 68.6201 14 65.9741 14H64.8761V11.39H65.0921C65.7221 11.39 66.1901 11.174 66.3881 10.256C66.5321 9.482 66.5861 8.636 66.5861 4.01H77.4041V14H73.8941ZM86.5755 14.27H86.0175C80.6355 14.27 79.8075 10.994 79.8075 9.176V8.924C79.8075 7.124 80.6355 3.74 85.9995 3.74H86.5935C92.1375 3.74 92.7855 7.142 92.7855 8.906V9.194C92.7855 10.994 92.1375 14.27 86.5755 14.27ZM86.1975 11.642H86.3955C88.6095 11.642 89.1675 10.058 89.1675 8.96C89.1675 7.826 88.6095 6.314 86.3955 6.314H86.1975C83.8935 6.314 83.4255 7.826 83.4255 8.96C83.4255 10.058 83.8935 11.642 86.1975 11.642ZM94.1085 16.124V11.336H95.3145C95.9985 9.968 96.1065 6.998 96.1965 4.01H106.763V11.336H108.563V16.124H105.233V14H97.4385V16.124H94.1085ZM98.6265 11.336H103.253V6.674H99.3465C99.2925 7.97 99.1125 9.95 98.6265 11.336ZM116.74 14.27H116.182C110.8 14.27 109.972 10.994 109.972 9.176V8.924C109.972 7.124 110.8 3.74 116.164 3.74H116.758C122.302 3.74 122.95 7.142 122.95 8.906V9.194C122.95 10.994 122.302 14.27 116.74 14.27ZM116.362 11.642H116.56C118.774 11.642 119.332 10.058 119.332 8.96C119.332 7.826 118.774 6.314 116.56 6.314H116.362C114.058 6.314 113.59 7.826 113.59 8.96C113.59 10.058 114.058 11.642 116.362 11.642ZM133.788 7.952L128.964 14H125.364V4.01H128.874V10.058L133.698 4.01H137.298V14H133.788V7.952ZM131.556 2.984H131.016C128.154 2.984 127.65 1.04 127.65 0.104V0.0499994H130.296C130.296 0.284 130.404 1.004 131.304 1.004C132.15 1.004 132.276 0.284 132.276 0.0499994H134.886V0.104C134.886 1.04 134.166 2.984 131.556 2.984ZM153.845 7.952L149.021 14H145.421V4.01H148.931V10.058L153.755 4.01H157.355V14H153.845V7.952ZM163.784 14H160.274V4.01H163.784V7.646H168.68V4.01H172.19V14H168.68V10.31H163.784V14ZM178.62 14H175.11V4.01H178.62V7.646H183.516V4.01H187.026V14H183.516V10.31H178.62V14ZM196.21 14.27H195.652C190.27 14.27 189.442 10.994 189.442 9.176V8.924C189.442 7.124 190.27 3.74 195.634 3.74H196.228C201.772 3.74 202.42 7.142 202.42 8.906V9.194C202.42 10.994 201.772 14.27 196.21 14.27ZM195.832 11.642H196.03C198.244 11.642 198.802 10.058 198.802 8.96C198.802 7.826 198.244 6.314 196.03 6.314H195.832C193.528 6.314 193.06 7.826 193.06 8.96C193.06 10.058 193.528 11.642 195.832 11.642ZM213.079 14H204.835V4.01H212.719C215.005 4.01 216.445 4.82 216.445 6.404V6.494C216.445 7.736 215.653 8.474 214.447 8.672C215.671 8.816 216.769 9.68 216.769 11.12V11.192C216.769 13.01 215.581 14 213.079 14ZM208.345 7.988H211.567C212.413 7.988 212.845 7.664 212.845 7.034V6.944C212.845 6.368 212.449 6.026 211.567 6.026H208.345V7.988ZM208.345 11.984H211.711C212.647 11.984 213.169 11.678 213.169 10.976V10.832C213.169 10.202 212.737 9.806 211.711 9.806H208.345V11.984ZM223.842 12.002C225.894 12.002 226.596 10.706 226.596 9.95V9.176C226.29 9.302 225.408 9.482 224.4 9.644C222.708 9.932 222.168 10.166 222.168 10.868V10.904C222.168 11.534 222.618 12.002 223.842 12.002ZM226.704 12.614C226.272 13.136 225.192 14.198 222.852 14.198H222.564C219.774 14.198 218.622 12.686 218.622 11.03V10.958C218.622 9.23 219.72 8.168 223.104 7.88L225.84 7.646C226.398 7.592 226.596 7.412 226.596 6.998C226.596 6.53 226.452 6.026 224.508 6.026C222.672 6.026 222.492 6.746 222.492 7.124H218.892V7.088C218.892 6.098 219.288 3.776 224.202 3.776H224.76C229.71 3.776 230.016 5.81 230.016 7.142V10.436C230.016 11.066 230.142 11.318 230.844 11.318H231.222V14H228.378C227.334 14 226.848 13.262 226.704 12.614ZM235.91 14V6.674H232.04V4.01H243.29V6.674H239.42V14H235.91ZM251.458 14.27H250.9C245.518 14.27 244.69 10.994 244.69 9.176V8.924C244.69 7.124 245.518 3.74 250.882 3.74H251.476C257.02 3.74 257.668 7.142 257.668 8.906V9.194C257.668 10.994 257.02 14.27 251.458 14.27ZM251.08 11.642H251.278C253.492 11.642 254.05 10.058 254.05 8.96C254.05 7.826 253.492 6.314 251.278 6.314H251.08C248.776 6.314 248.308 7.826 248.308 8.96C248.308 10.058 248.776 11.642 251.08 11.642ZM269.263 9.014V8.96C269.263 7.88 268.759 6.422 266.563 6.422H266.383C264.277 6.422 263.611 7.808 263.611 8.96V9.014C263.611 10.112 264.277 11.552 266.383 11.552H266.563C268.759 11.552 269.263 10.04 269.263 9.014ZM260.119 17.438V4.01H263.593V5.288C264.025 4.82 265.339 3.812 267.607 3.812H267.841C271.657 3.812 272.899 6.422 272.899 8.798V9.104C272.899 11.282 271.621 14.198 267.823 14.198H267.571C265.285 14.198 264.061 13.154 263.629 12.722V17.438H260.119ZM288.788 14H280.544V4.01H288.428C290.714 4.01 292.154 4.82 292.154 6.404V6.494C292.154 7.736 291.362 8.474 290.156 8.672C291.38 8.816 292.478 9.68 292.478 11.12V11.192C292.478 13.01 291.29 14 288.788 14ZM284.054 7.988H287.276C288.122 7.988 288.554 7.664 288.554 7.034V6.944C288.554 6.368 288.158 6.026 287.276 6.026H284.054V7.988ZM284.054 11.984H287.42C288.356 11.984 288.878 11.678 288.878 10.976V10.832C288.878 10.202 288.446 9.806 287.42 9.806H284.054V11.984ZM312.114 8.888V9.14C312.114 11.03 311.178 14.27 306.192 14.27H305.31C300.504 14.27 299.604 11.588 299.604 10.076H303.276C303.276 10.346 303.582 11.75 305.67 11.75H305.85C307.416 11.75 308.154 10.904 308.442 9.932H304.428V7.772H308.388C308.1 6.908 307.416 6.206 305.922 6.206H305.742C303.654 6.206 303.33 7.52 303.276 7.826H299.604V7.808C299.604 6.368 300.558 3.74 305.382 3.74H306.21C311.232 3.74 312.114 6.998 312.114 8.888ZM318.032 14H314.522V4.01H318.032V7.646H322.928V4.01H326.438V14H322.928V10.31H318.032V14ZM335.172 6.08C333.354 6.08 332.67 6.818 332.49 7.862H337.782C337.782 7.124 337.422 6.08 335.172 6.08ZM337.854 10.886H341.508C341.508 11.714 340.86 14.234 335.694 14.234H335.028C330.096 14.234 328.872 11.534 328.872 9.14V8.888C328.872 6.638 329.988 3.794 334.722 3.794H335.514C340.626 3.794 341.544 6.638 341.544 9.428V9.752H332.454C332.598 10.904 333.336 11.84 335.478 11.84C337.512 11.84 337.764 11.048 337.854 10.886ZM353.128 9.014V8.96C353.128 7.88 352.624 6.422 350.428 6.422H350.248C348.142 6.422 347.476 7.808 347.476 8.96V9.014C347.476 10.112 348.142 11.552 350.248 11.552H350.428C352.624 11.552 353.128 10.04 353.128 9.014ZM343.984 17.438V4.01H347.458V5.288C347.89 4.82 349.204 3.812 351.472 3.812H351.706C355.522 3.812 356.764 6.422 356.764 8.798V9.104C356.764 11.282 355.486 14.198 351.688 14.198H351.436C349.15 14.198 347.926 13.154 347.494 12.722V17.438H343.984ZM359.206 14V4.01H367.918V6.674H362.716V14H359.206ZM375.637 6.08C373.819 6.08 373.135 6.818 372.955 7.862H378.247C378.247 7.124 377.887 6.08 375.637 6.08ZM378.319 10.886H381.973C381.973 11.714 381.325 14.234 376.159 14.234H375.493C370.561 14.234 369.337 11.534 369.337 9.14V8.888C369.337 6.638 370.453 3.794 375.187 3.794H375.979C381.091 3.794 382.009 6.638 382.009 9.428V9.752H372.919C373.063 10.904 373.801 11.84 375.943 11.84C377.977 11.84 378.229 11.048 378.319 10.886ZM387.099 14V6.674H383.229V4.01H394.479V6.674H390.609V14H387.099ZM404.808 7.952L399.984 14H396.384V4.01H399.894V10.058L404.718 4.01H408.318V14H404.808V7.952ZM418.671 14L414.783 9.374V14H411.273V4.01H414.783V8.006L418.347 4.01H422.397L418.221 8.492L422.847 14H418.671ZM429.655 6.08C427.837 6.08 427.153 6.818 426.973 7.862H432.265C432.265 7.124 431.905 6.08 429.655 6.08ZM432.337 10.886H435.991C435.991 11.714 435.343 14.234 430.177 14.234H429.511C424.579 14.234 423.355 11.534 423.355 9.14V8.888C423.355 6.638 424.471 3.794 429.205 3.794H429.997C435.109 3.794 436.027 6.638 436.027 9.428V9.752H426.937C427.081 10.904 427.819 11.84 429.961 11.84C431.995 11.84 432.247 11.048 432.337 10.886Z" fill="url(#paint0_linear_2017_671)"/>
<path d="M7.70525 14.198H6.98525C1.29725 14.198 0.271248 11.48 0.271248 10.256V10.004H4.17725C4.26725 10.382 4.80725 11.21 7.38125 11.21C9.81125 11.21 10.7112 10.562 10.7112 9.554V9.446C10.7112 8.384 9.84725 7.844 7.38125 7.844C4.84325 7.844 4.28525 8.474 4.14125 8.888H0.469248V0.608H13.4652V3.65H4.14125V6.134C4.28525 5.99 5.50925 5.09 8.19125 5.09H8.37125C13.1412 5.09 14.4012 7.142 14.4012 9.248V9.464C14.4012 11.642 12.9792 14.198 7.70525 14.198ZM20.8078 10.508V14H16.6138V10.508H20.8078ZM29.656 14V0.608H34.588L38.854 9.68L43.246 0.608H47.872V14H44.254V5.234L40.186 14H37.288L33.22 5.234V14H29.656ZM57.2552 14.27H56.6972C51.3152 14.27 50.4872 10.994 50.4872 9.176V8.924C50.4872 7.124 51.3152 3.74 56.6792 3.74H57.2732C62.8172 3.74 63.4652 7.142 63.4652 8.906V9.194C63.4652 10.994 62.8172 14.27 57.2552 14.27ZM56.8772 11.642H57.0752C59.2892 11.642 59.8472 10.058 59.8472 8.96C59.8472 7.826 59.2892 6.314 57.0752 6.314H56.8772C54.5732 6.314 54.1052 7.826 54.1052 8.96C54.1052 10.058 54.5732 11.642 56.8772 11.642ZM73.8941 14V6.674H69.9341C69.9341 9.356 69.8441 10.85 69.5021 11.768C69.1241 12.776 68.6201 14 65.9741 14H64.8761V11.39H65.0921C65.7221 11.39 66.1901 11.174 66.3881 10.256C66.5321 9.482 66.5861 8.636 66.5861 4.01H77.4041V14H73.8941ZM86.5755 14.27H86.0175C80.6355 14.27 79.8075 10.994 79.8075 9.176V8.924C79.8075 7.124 80.6355 3.74 85.9995 3.74H86.5935C92.1375 3.74 92.7855 7.142 92.7855 8.906V9.194C92.7855 10.994 92.1375 14.27 86.5755 14.27ZM86.1975 11.642H86.3955C88.6095 11.642 89.1675 10.058 89.1675 8.96C89.1675 7.826 88.6095 6.314 86.3955 6.314H86.1975C83.8935 6.314 83.4255 7.826 83.4255 8.96C83.4255 10.058 83.8935 11.642 86.1975 11.642ZM94.1085 16.124V11.336H95.3145C95.9985 9.968 96.1065 6.998 96.1965 4.01H106.763V11.336H108.563V16.124H105.233V14H97.4385V16.124H94.1085ZM98.6265 11.336H103.253V6.674H99.3465C99.2925 7.97 99.1125 9.95 98.6265 11.336ZM116.74 14.27H116.182C110.8 14.27 109.972 10.994 109.972 9.176V8.924C109.972 7.124 110.8 3.74 116.164 3.74H116.758C122.302 3.74 122.95 7.142 122.95 8.906V9.194C122.95 10.994 122.302 14.27 116.74 14.27ZM116.362 11.642H116.56C118.774 11.642 119.332 10.058 119.332 8.96C119.332 7.826 118.774 6.314 116.56 6.314H116.362C114.058 6.314 113.59 7.826 113.59 8.96C113.59 10.058 114.058 11.642 116.362 11.642ZM133.788 7.952L128.964 14H125.364V4.01H128.874V10.058L133.698 4.01H137.298V14H133.788V7.952ZM131.556 2.984H131.016C128.154 2.984 127.65 1.04 127.65 0.104V0.0499994H130.296C130.296 0.284 130.404 1.004 131.304 1.004C132.15 1.004 132.276 0.284 132.276 0.0499994H134.886V0.104C134.886 1.04 134.166 2.984 131.556 2.984ZM153.845 7.952L149.021 14H145.421V4.01H148.931V10.058L153.755 4.01H157.355V14H153.845V7.952ZM163.784 14H160.274V4.01H163.784V7.646H168.68V4.01H172.19V14H168.68V10.31H163.784V14ZM178.62 14H175.11V4.01H178.62V7.646H183.516V4.01H187.026V14H183.516V10.31H178.62V14ZM196.21 14.27H195.652C190.27 14.27 189.442 10.994 189.442 9.176V8.924C189.442 7.124 190.27 3.74 195.634 3.74H196.228C201.772 3.74 202.42 7.142 202.42 8.906V9.194C202.42 10.994 201.772 14.27 196.21 14.27ZM195.832 11.642H196.03C198.244 11.642 198.802 10.058 198.802 8.96C198.802 7.826 198.244 6.314 196.03 6.314H195.832C193.528 6.314 193.06 7.826 193.06 8.96C193.06 10.058 193.528 11.642 195.832 11.642ZM213.079 14H204.835V4.01H212.719C215.005 4.01 216.445 4.82 216.445 6.404V6.494C216.445 7.736 215.653 8.474 214.447 8.672C215.671 8.816 216.769 9.68 216.769 11.12V11.192C216.769 13.01 215.581 14 213.079 14ZM208.345 7.988H211.567C212.413 7.988 212.845 7.664 212.845 7.034V6.944C212.845 6.368 212.449 6.026 211.567 6.026H208.345V7.988ZM208.345 11.984H211.711C212.647 11.984 213.169 11.678 213.169 10.976V10.832C213.169 10.202 212.737 9.806 211.711 9.806H208.345V11.984ZM223.842 12.002C225.894 12.002 226.596 10.706 226.596 9.95V9.176C226.29 9.302 225.408 9.482 224.4 9.644C222.708 9.932 222.168 10.166 222.168 10.868V10.904C222.168 11.534 222.618 12.002 223.842 12.002ZM226.704 12.614C226.272 13.136 225.192 14.198 222.852 14.198H222.564C219.774 14.198 218.622 12.686 218.622 11.03V10.958C218.622 9.23 219.72 8.168 223.104 7.88L225.84 7.646C226.398 7.592 226.596 7.412 226.596 6.998C226.596 6.53 226.452 6.026 224.508 6.026C222.672 6.026 222.492 6.746 222.492 7.124H218.892V7.088C218.892 6.098 219.288 3.776 224.202 3.776H224.76C229.71 3.776 230.016 5.81 230.016 7.142V10.436C230.016 11.066 230.142 11.318 230.844 11.318H231.222V14H228.378C227.334 14 226.848 13.262 226.704 12.614ZM235.91 14V6.674H232.04V4.01H243.29V6.674H239.42V14H235.91ZM251.458 14.27H250.9C245.518 14.27 244.69 10.994 244.69 9.176V8.924C244.69 7.124 245.518 3.74 250.882 3.74H251.476C257.02 3.74 257.668 7.142 257.668 8.906V9.194C257.668 10.994 257.02 14.27 251.458 14.27ZM251.08 11.642H251.278C253.492 11.642 254.05 10.058 254.05 8.96C254.05 7.826 253.492 6.314 251.278 6.314H251.08C248.776 6.314 248.308 7.826 248.308 8.96C248.308 10.058 248.776 11.642 251.08 11.642ZM269.263 9.014V8.96C269.263 7.88 268.759 6.422 266.563 6.422H266.383C264.277 6.422 263.611 7.808 263.611 8.96V9.014C263.611 10.112 264.277 11.552 266.383 11.552H266.563C268.759 11.552 269.263 10.04 269.263 9.014ZM260.119 17.438V4.01H263.593V5.288C264.025 4.82 265.339 3.812 267.607 3.812H267.841C271.657 3.812 272.899 6.422 272.899 8.798V9.104C272.899 11.282 271.621 14.198 267.823 14.198H267.571C265.285 14.198 264.061 13.154 263.629 12.722V17.438H260.119ZM288.788 14H280.544V4.01H288.428C290.714 4.01 292.154 4.82 292.154 6.404V6.494C292.154 7.736 291.362 8.474 290.156 8.672C291.38 8.816 292.478 9.68 292.478 11.12V11.192C292.478 13.01 291.29 14 288.788 14ZM284.054 7.988H287.276C288.122 7.988 288.554 7.664 288.554 7.034V6.944C288.554 6.368 288.158 6.026 287.276 6.026H284.054V7.988ZM284.054 11.984H287.42C288.356 11.984 288.878 11.678 288.878 10.976V10.832C288.878 10.202 288.446 9.806 287.42 9.806H284.054V11.984ZM312.114 8.888V9.14C312.114 11.03 311.178 14.27 306.192 14.27H305.31C300.504 14.27 299.604 11.588 299.604 10.076H303.276C303.276 10.346 303.582 11.75 305.67 11.75H305.85C307.416 11.75 308.154 10.904 308.442 9.932H304.428V7.772H308.388C308.1 6.908 307.416 6.206 305.922 6.206H305.742C303.654 6.206 303.33 7.52 303.276 7.826H299.604V7.808C299.604 6.368 300.558 3.74 305.382 3.74H306.21C311.232 3.74 312.114 6.998 312.114 8.888ZM318.032 14H314.522V4.01H318.032V7.646H322.928V4.01H326.438V14H322.928V10.31H318.032V14ZM335.172 6.08C333.354 6.08 332.67 6.818 332.49 7.862H337.782C337.782 7.124 337.422 6.08 335.172 6.08ZM337.854 10.886H341.508C341.508 11.714 340.86 14.234 335.694 14.234H335.028C330.096 14.234 328.872 11.534 328.872 9.14V8.888C328.872 6.638 329.988 3.794 334.722 3.794H335.514C340.626 3.794 341.544 6.638 341.544 9.428V9.752H332.454C332.598 10.904 333.336 11.84 335.478 11.84C337.512 11.84 337.764 11.048 337.854 10.886ZM353.128 9.014V8.96C353.128 7.88 352.624 6.422 350.428 6.422H350.248C348.142 6.422 347.476 7.808 347.476 8.96V9.014C347.476 10.112 348.142 11.552 350.248 11.552H350.428C352.624 11.552 353.128 10.04 353.128 9.014ZM343.984 17.438V4.01H347.458V5.288C347.89 4.82 349.204 3.812 351.472 3.812H351.706C355.522 3.812 356.764 6.422 356.764 8.798V9.104C356.764 11.282 355.486 14.198 351.688 14.198H351.436C349.15 14.198 347.926 13.154 347.494 12.722V17.438H343.984ZM359.206 14V4.01H367.918V6.674H362.716V14H359.206ZM375.637 6.08C373.819 6.08 373.135 6.818 372.955 7.862H378.247C378.247 7.124 377.887 6.08 375.637 6.08ZM378.319 10.886H381.973C381.973 11.714 381.325 14.234 376.159 14.234H375.493C370.561 14.234 369.337 11.534 369.337 9.14V8.888C369.337 6.638 370.453 3.794 375.187 3.794H375.979C381.091 3.794 382.009 6.638 382.009 9.428V9.752H372.919C373.063 10.904 373.801 11.84 375.943 11.84C377.977 11.84 378.229 11.048 378.319 10.886ZM387.099 14V6.674H383.229V4.01H394.479V6.674H390.609V14H387.099ZM404.808 7.952L399.984 14H396.384V4.01H399.894V10.058L404.718 4.01H408.318V14H404.808V7.952ZM418.671 14L414.783 9.374V14H411.273V4.01H414.783V8.006L418.347 4.01H422.397L418.221 8.492L422.847 14H418.671ZM429.655 6.08C427.837 6.08 427.153 6.818 426.973 7.862H432.265C432.265 7.124 431.905 6.08 429.655 6.08ZM432.337 10.886H435.991C435.991 11.714 435.343 14.234 430.177 14.234H429.511C424.579 14.234 423.355 11.534 423.355 9.14V8.888C423.355 6.638 424.471 3.794 429.205 3.794H429.997C435.109 3.794 436.027 6.638 436.027 9.428V9.752H426.937C427.081 10.904 427.819 11.84 429.961 11.84C431.995 11.84 432.247 11.048 432.337 10.886Z" fill="url(#paint1_radial_2017_671)" style="mix-blend-mode:overlay"/>
<path d="M7.70525 14.198H6.98525C1.29725 14.198 0.271248 11.48 0.271248 10.256V10.004H4.17725C4.26725 10.382 4.80725 11.21 7.38125 11.21C9.81125 11.21 10.7112 10.562 10.7112 9.554V9.446C10.7112 8.384 9.84725 7.844 7.38125 7.844C4.84325 7.844 4.28525 8.474 4.14125 8.888H0.469248V0.608H13.4652V3.65H4.14125V6.134C4.28525 5.99 5.50925 5.09 8.19125 5.09H8.37125C13.1412 5.09 14.4012 7.142 14.4012 9.248V9.464C14.4012 11.642 12.9792 14.198 7.70525 14.198ZM20.8078 10.508V14H16.6138V10.508H20.8078ZM29.656 14V0.608H34.588L38.854 9.68L43.246 0.608H47.872V14H44.254V5.234L40.186 14H37.288L33.22 5.234V14H29.656ZM57.2552 14.27H56.6972C51.3152 14.27 50.4872 10.994 50.4872 9.176V8.924C50.4872 7.124 51.3152 3.74 56.6792 3.74H57.2732C62.8172 3.74 63.4652 7.142 63.4652 8.906V9.194C63.4652 10.994 62.8172 14.27 57.2552 14.27ZM56.8772 11.642H57.0752C59.2892 11.642 59.8472 10.058 59.8472 8.96C59.8472 7.826 59.2892 6.314 57.0752 6.314H56.8772C54.5732 6.314 54.1052 7.826 54.1052 8.96C54.1052 10.058 54.5732 11.642 56.8772 11.642ZM73.8941 14V6.674H69.9341C69.9341 9.356 69.8441 10.85 69.5021 11.768C69.1241 12.776 68.6201 14 65.9741 14H64.8761V11.39H65.0921C65.7221 11.39 66.1901 11.174 66.3881 10.256C66.5321 9.482 66.5861 8.636 66.5861 4.01H77.4041V14H73.8941ZM86.5755 14.27H86.0175C80.6355 14.27 79.8075 10.994 79.8075 9.176V8.924C79.8075 7.124 80.6355 3.74 85.9995 3.74H86.5935C92.1375 3.74 92.7855 7.142 92.7855 8.906V9.194C92.7855 10.994 92.1375 14.27 86.5755 14.27ZM86.1975 11.642H86.3955C88.6095 11.642 89.1675 10.058 89.1675 8.96C89.1675 7.826 88.6095 6.314 86.3955 6.314H86.1975C83.8935 6.314 83.4255 7.826 83.4255 8.96C83.4255 10.058 83.8935 11.642 86.1975 11.642ZM94.1085 16.124V11.336H95.3145C95.9985 9.968 96.1065 6.998 96.1965 4.01H106.763V11.336H108.563V16.124H105.233V14H97.4385V16.124H94.1085ZM98.6265 11.336H103.253V6.674H99.3465C99.2925 7.97 99.1125 9.95 98.6265 11.336ZM116.74 14.27H116.182C110.8 14.27 109.972 10.994 109.972 9.176V8.924C109.972 7.124 110.8 3.74 116.164 3.74H116.758C122.302 3.74 122.95 7.142 122.95 8.906V9.194C122.95 10.994 122.302 14.27 116.74 14.27ZM116.362 11.642H116.56C118.774 11.642 119.332 10.058 119.332 8.96C119.332 7.826 118.774 6.314 116.56 6.314H116.362C114.058 6.314 113.59 7.826 113.59 8.96C113.59 10.058 114.058 11.642 116.362 11.642ZM133.788 7.952L128.964 14H125.364V4.01H128.874V10.058L133.698 4.01H137.298V14H133.788V7.952ZM131.556 2.984H131.016C128.154 2.984 127.65 1.04 127.65 0.104V0.0499994H130.296C130.296 0.284 130.404 1.004 131.304 1.004C132.15 1.004 132.276 0.284 132.276 0.0499994H134.886V0.104C134.886 1.04 134.166 2.984 131.556 2.984ZM153.845 7.952L149.021 14H145.421V4.01H148.931V10.058L153.755 4.01H157.355V14H153.845V7.952ZM163.784 14H160.274V4.01H163.784V7.646H168.68V4.01H172.19V14H168.68V10.31H163.784V14ZM178.62 14H175.11V4.01H178.62V7.646H183.516V4.01H187.026V14H183.516V10.31H178.62V14ZM196.21 14.27H195.652C190.27 14.27 189.442 10.994 189.442 9.176V8.924C189.442 7.124 190.27 3.74 195.634 3.74H196.228C201.772 3.74 202.42 7.142 202.42 8.906V9.194C202.42 10.994 201.772 14.27 196.21 14.27ZM195.832 11.642H196.03C198.244 11.642 198.802 10.058 198.802 8.96C198.802 7.826 198.244 6.314 196.03 6.314H195.832C193.528 6.314 193.06 7.826 193.06 8.96C193.06 10.058 193.528 11.642 195.832 11.642ZM213.079 14H204.835V4.01H212.719C215.005 4.01 216.445 4.82 216.445 6.404V6.494C216.445 7.736 215.653 8.474 214.447 8.672C215.671 8.816 216.769 9.68 216.769 11.12V11.192C216.769 13.01 215.581 14 213.079 14ZM208.345 7.988H211.567C212.413 7.988 212.845 7.664 212.845 7.034V6.944C212.845 6.368 212.449 6.026 211.567 6.026H208.345V7.988ZM208.345 11.984H211.711C212.647 11.984 213.169 11.678 213.169 10.976V10.832C213.169 10.202 212.737 9.806 211.711 9.806H208.345V11.984ZM223.842 12.002C225.894 12.002 226.596 10.706 226.596 9.95V9.176C226.29 9.302 225.408 9.482 224.4 9.644C222.708 9.932 222.168 10.166 222.168 10.868V10.904C222.168 11.534 222.618 12.002 223.842 12.002ZM226.704 12.614C226.272 13.136 225.192 14.198 222.852 14.198H222.564C219.774 14.198 218.622 12.686 218.622 11.03V10.958C218.622 9.23 219.72 8.168 223.104 7.88L225.84 7.646C226.398 7.592 226.596 7.412 226.596 6.998C226.596 6.53 226.452 6.026 224.508 6.026C222.672 6.026 222.492 6.746 222.492 7.124H218.892V7.088C218.892 6.098 219.288 3.776 224.202 3.776H224.76C229.71 3.776 230.016 5.81 230.016 7.142V10.436C230.016 11.066 230.142 11.318 230.844 11.318H231.222V14H228.378C227.334 14 226.848 13.262 226.704 12.614ZM235.91 14V6.674H232.04V4.01H243.29V6.674H239.42V14H235.91ZM251.458 14.27H250.9C245.518 14.27 244.69 10.994 244.69 9.176V8.924C244.69 7.124 245.518 3.74 250.882 3.74H251.476C257.02 3.74 257.668 7.142 257.668 8.906V9.194C257.668 10.994 257.02 14.27 251.458 14.27ZM251.08 11.642H251.278C253.492 11.642 254.05 10.058 254.05 8.96C254.05 7.826 253.492 6.314 251.278 6.314H251.08C248.776 6.314 248.308 7.826 248.308 8.96C248.308 10.058 248.776 11.642 251.08 11.642ZM269.263 9.014V8.96C269.263 7.88 268.759 6.422 266.563 6.422H266.383C264.277 6.422 263.611 7.808 263.611 8.96V9.014C263.611 10.112 264.277 11.552 266.383 11.552H266.563C268.759 11.552 269.263 10.04 269.263 9.014ZM260.119 17.438V4.01H263.593V5.288C264.025 4.82 265.339 3.812 267.607 3.812H267.841C271.657 3.812 272.899 6.422 272.899 8.798V9.104C272.899 11.282 271.621 14.198 267.823 14.198H267.571C265.285 14.198 264.061 13.154 263.629 12.722V17.438H260.119ZM288.788 14H280.544V4.01H288.428C290.714 4.01 292.154 4.82 292.154 6.404V6.494C292.154 7.736 291.362 8.474 290.156 8.672C291.38 8.816 292.478 9.68 292.478 11.12V11.192C292.478 13.01 291.29 14 288.788 14ZM284.054 7.988H287.276C288.122 7.988 288.554 7.664 288.554 7.034V6.944C288.554 6.368 288.158 6.026 287.276 6.026H284.054V7.988ZM284.054 11.984H287.42C288.356 11.984 288.878 11.678 288.878 10.976V10.832C288.878 10.202 288.446 9.806 287.42 9.806H284.054V11.984ZM312.114 8.888V9.14C312.114 11.03 311.178 14.27 306.192 14.27H305.31C300.504 14.27 299.604 11.588 299.604 10.076H303.276C303.276 10.346 303.582 11.75 305.67 11.75H305.85C307.416 11.75 308.154 10.904 308.442 9.932H304.428V7.772H308.388C308.1 6.908 307.416 6.206 305.922 6.206H305.742C303.654 6.206 303.33 7.52 303.276 7.826H299.604V7.808C299.604 6.368 300.558 3.74 305.382 3.74H306.21C311.232 3.74 312.114 6.998 312.114 8.888ZM318.032 14H314.522V4.01H318.032V7.646H322.928V4.01H326.438V14H322.928V10.31H318.032V14ZM335.172 6.08C333.354 6.08 332.67 6.818 332.49 7.862H337.782C337.782 7.124 337.422 6.08 335.172 6.08ZM337.854 10.886H341.508C341.508 11.714 340.86 14.234 335.694 14.234H335.028C330.096 14.234 328.872 11.534 328.872 9.14V8.888C328.872 6.638 329.988 3.794 334.722 3.794H335.514C340.626 3.794 341.544 6.638 341.544 9.428V9.752H332.454C332.598 10.904 333.336 11.84 335.478 11.84C337.512 11.84 337.764 11.048 337.854 10.886ZM353.128 9.014V8.96C353.128 7.88 352.624 6.422 350.428 6.422H350.248C348.142 6.422 347.476 7.808 347.476 8.96V9.014C347.476 10.112 348.142 11.552 350.248 11.552H350.428C352.624 11.552 353.128 10.04 353.128 9.014ZM343.984 17.438V4.01H347.458V5.288C347.89 4.82 349.204 3.812 351.472 3.812H351.706C355.522 3.812 356.764 6.422 356.764 8.798V9.104C356.764 11.282 355.486 14.198 351.688 14.198H351.436C349.15 14.198 347.926 13.154 347.494 12.722V17.438H343.984ZM359.206 14V4.01H367.918V6.674H362.716V14H359.206ZM375.637 6.08C373.819 6.08 373.135 6.818 372.955 7.862H378.247C378.247 7.124 377.887 6.08 375.637 6.08ZM378.319 10.886H381.973C381.973 11.714 381.325 14.234 376.159 14.234H375.493C370.561 14.234 369.337 11.534 369.337 9.14V8.888C369.337 6.638 370.453 3.794 375.187 3.794H375.979C381.091 3.794 382.009 6.638 382.009 9.428V9.752H372.919C373.063 10.904 373.801 11.84 375.943 11.84C377.977 11.84 378.229 11.048 378.319 10.886ZM387.099 14V6.674H383.229V4.01H394.479V6.674H390.609V14H387.099ZM404.808 7.952L399.984 14H396.384V4.01H399.894V10.058L404.718 4.01H408.318V14H404.808V7.952ZM418.671 14L414.783 9.374V14H411.273V4.01H414.783V8.006L418.347 4.01H422.397L418.221 8.492L422.847 14H418.671ZM429.655 6.08C427.837 6.08 427.153 6.818 426.973 7.862H432.265C432.265 7.124 431.905 6.08 429.655 6.08ZM432.337 10.886H435.991C435.991 11.714 435.343 14.234 430.177 14.234H429.511C424.579 14.234 423.355 11.534 423.355 9.14V8.888C423.355 6.638 424.471 3.794 429.205 3.794H429.997C435.109 3.794 436.027 6.638 436.027 9.428V9.752H426.937C427.081 10.904 427.819 11.84 429.961 11.84C431.995 11.84 432.247 11.048 432.337 10.886Z" fill="url(#paint2_radial_2017_671)"/>
<path d="M7.70525 14.198H6.98525C1.29725 14.198 0.271248 11.48 0.271248 10.256V10.004H4.17725C4.26725 10.382 4.80725 11.21 7.38125 11.21C9.81125 11.21 10.7112 10.562 10.7112 9.554V9.446C10.7112 8.384 9.84725 7.844 7.38125 7.844C4.84325 7.844 4.28525 8.474 4.14125 8.888H0.469248V0.608H13.4652V3.65H4.14125V6.134C4.28525 5.99 5.50925 5.09 8.19125 5.09H8.37125C13.1412 5.09 14.4012 7.142 14.4012 9.248V9.464C14.4012 11.642 12.9792 14.198 7.70525 14.198ZM20.8078 10.508V14H16.6138V10.508H20.8078ZM29.656 14V0.608H34.588L38.854 9.68L43.246 0.608H47.872V14H44.254V5.234L40.186 14H37.288L33.22 5.234V14H29.656ZM57.2552 14.27H56.6972C51.3152 14.27 50.4872 10.994 50.4872 9.176V8.924C50.4872 7.124 51.3152 3.74 56.6792 3.74H57.2732C62.8172 3.74 63.4652 7.142 63.4652 8.906V9.194C63.4652 10.994 62.8172 14.27 57.2552 14.27ZM56.8772 11.642H57.0752C59.2892 11.642 59.8472 10.058 59.8472 8.96C59.8472 7.826 59.2892 6.314 57.0752 6.314H56.8772C54.5732 6.314 54.1052 7.826 54.1052 8.96C54.1052 10.058 54.5732 11.642 56.8772 11.642ZM73.8941 14V6.674H69.9341C69.9341 9.356 69.8441 10.85 69.5021 11.768C69.1241 12.776 68.6201 14 65.9741 14H64.8761V11.39H65.0921C65.7221 11.39 66.1901 11.174 66.3881 10.256C66.5321 9.482 66.5861 8.636 66.5861 4.01H77.4041V14H73.8941ZM86.5755 14.27H86.0175C80.6355 14.27 79.8075 10.994 79.8075 9.176V8.924C79.8075 7.124 80.6355 3.74 85.9995 3.74H86.5935C92.1375 3.74 92.7855 7.142 92.7855 8.906V9.194C92.7855 10.994 92.1375 14.27 86.5755 14.27ZM86.1975 11.642H86.3955C88.6095 11.642 89.1675 10.058 89.1675 8.96C89.1675 7.826 88.6095 6.314 86.3955 6.314H86.1975C83.8935 6.314 83.4255 7.826 83.4255 8.96C83.4255 10.058 83.8935 11.642 86.1975 11.642ZM94.1085 16.124V11.336H95.3145C95.9985 9.968 96.1065 6.998 96.1965 4.01H106.763V11.336H108.563V16.124H105.233V14H97.4385V16.124H94.1085ZM98.6265 11.336H103.253V6.674H99.3465C99.2925 7.97 99.1125 9.95 98.6265 11.336ZM116.74 14.27H116.182C110.8 14.27 109.972 10.994 109.972 9.176V8.924C109.972 7.124 110.8 3.74 116.164 3.74H116.758C122.302 3.74 122.95 7.142 122.95 8.906V9.194C122.95 10.994 122.302 14.27 116.74 14.27ZM116.362 11.642H116.56C118.774 11.642 119.332 10.058 119.332 8.96C119.332 7.826 118.774 6.314 116.56 6.314H116.362C114.058 6.314 113.59 7.826 113.59 8.96C113.59 10.058 114.058 11.642 116.362 11.642ZM133.788 7.952L128.964 14H125.364V4.01H128.874V10.058L133.698 4.01H137.298V14H133.788V7.952ZM131.556 2.984H131.016C128.154 2.984 127.65 1.04 127.65 0.104V0.0499994H130.296C130.296 0.284 130.404 1.004 131.304 1.004C132.15 1.004 132.276 0.284 132.276 0.0499994H134.886V0.104C134.886 1.04 134.166 2.984 131.556 2.984ZM153.845 7.952L149.021 14H145.421V4.01H148.931V10.058L153.755 4.01H157.355V14H153.845V7.952ZM163.784 14H160.274V4.01H163.784V7.646H168.68V4.01H172.19V14H168.68V10.31H163.784V14ZM178.62 14H175.11V4.01H178.62V7.646H183.516V4.01H187.026V14H183.516V10.31H178.62V14ZM196.21 14.27H195.652C190.27 14.27 189.442 10.994 189.442 9.176V8.924C189.442 7.124 190.27 3.74 195.634 3.74H196.228C201.772 3.74 202.42 7.142 202.42 8.906V9.194C202.42 10.994 201.772 14.27 196.21 14.27ZM195.832 11.642H196.03C198.244 11.642 198.802 10.058 198.802 8.96C198.802 7.826 198.244 6.314 196.03 6.314H195.832C193.528 6.314 193.06 7.826 193.06 8.96C193.06 10.058 193.528 11.642 195.832 11.642ZM213.079 14H204.835V4.01H212.719C215.005 4.01 216.445 4.82 216.445 6.404V6.494C216.445 7.736 215.653 8.474 214.447 8.672C215.671 8.816 216.769 9.68 216.769 11.12V11.192C216.769 13.01 215.581 14 213.079 14ZM208.345 7.988H211.567C212.413 7.988 212.845 7.664 212.845 7.034V6.944C212.845 6.368 212.449 6.026 211.567 6.026H208.345V7.988ZM208.345 11.984H211.711C212.647 11.984 213.169 11.678 213.169 10.976V10.832C213.169 10.202 212.737 9.806 211.711 9.806H208.345V11.984ZM223.842 12.002C225.894 12.002 226.596 10.706 226.596 9.95V9.176C226.29 9.302 225.408 9.482 224.4 9.644C222.708 9.932 222.168 10.166 222.168 10.868V10.904C222.168 11.534 222.618 12.002 223.842 12.002ZM226.704 12.614C226.272 13.136 225.192 14.198 222.852 14.198H222.564C219.774 14.198 218.622 12.686 218.622 11.03V10.958C218.622 9.23 219.72 8.168 223.104 7.88L225.84 7.646C226.398 7.592 226.596 7.412 226.596 6.998C226.596 6.53 226.452 6.026 224.508 6.026C222.672 6.026 222.492 6.746 222.492 7.124H218.892V7.088C218.892 6.098 219.288 3.776 224.202 3.776H224.76C229.71 3.776 230.016 5.81 230.016 7.142V10.436C230.016 11.066 230.142 11.318 230.844 11.318H231.222V14H228.378C227.334 14 226.848 13.262 226.704 12.614ZM235.91 14V6.674H232.04V4.01H243.29V6.674H239.42V14H235.91ZM251.458 14.27H250.9C245.518 14.27 244.69 10.994 244.69 9.176V8.924C244.69 7.124 245.518 3.74 250.882 3.74H251.476C257.02 3.74 257.668 7.142 257.668 8.906V9.194C257.668 10.994 257.02 14.27 251.458 14.27ZM251.08 11.642H251.278C253.492 11.642 254.05 10.058 254.05 8.96C254.05 7.826 253.492 6.314 251.278 6.314H251.08C248.776 6.314 248.308 7.826 248.308 8.96C248.308 10.058 248.776 11.642 251.08 11.642ZM269.263 9.014V8.96C269.263 7.88 268.759 6.422 266.563 6.422H266.383C264.277 6.422 263.611 7.808 263.611 8.96V9.014C263.611 10.112 264.277 11.552 266.383 11.552H266.563C268.759 11.552 269.263 10.04 269.263 9.014ZM260.119 17.438V4.01H263.593V5.288C264.025 4.82 265.339 3.812 267.607 3.812H267.841C271.657 3.812 272.899 6.422 272.899 8.798V9.104C272.899 11.282 271.621 14.198 267.823 14.198H267.571C265.285 14.198 264.061 13.154 263.629 12.722V17.438H260.119ZM288.788 14H280.544V4.01H288.428C290.714 4.01 292.154 4.82 292.154 6.404V6.494C292.154 7.736 291.362 8.474 290.156 8.672C291.38 8.816 292.478 9.68 292.478 11.12V11.192C292.478 13.01 291.29 14 288.788 14ZM284.054 7.988H287.276C288.122 7.988 288.554 7.664 288.554 7.034V6.944C288.554 6.368 288.158 6.026 287.276 6.026H284.054V7.988ZM284.054 11.984H287.42C288.356 11.984 288.878 11.678 288.878 10.976V10.832C288.878 10.202 288.446 9.806 287.42 9.806H284.054V11.984ZM312.114 8.888V9.14C312.114 11.03 311.178 14.27 306.192 14.27H305.31C300.504 14.27 299.604 11.588 299.604 10.076H303.276C303.276 10.346 303.582 11.75 305.67 11.75H305.85C307.416 11.75 308.154 10.904 308.442 9.932H304.428V7.772H308.388C308.1 6.908 307.416 6.206 305.922 6.206H305.742C303.654 6.206 303.33 7.52 303.276 7.826H299.604V7.808C299.604 6.368 300.558 3.74 305.382 3.74H306.21C311.232 3.74 312.114 6.998 312.114 8.888ZM318.032 14H314.522V4.01H318.032V7.646H322.928V4.01H326.438V14H322.928V10.31H318.032V14ZM335.172 6.08C333.354 6.08 332.67 6.818 332.49 7.862H337.782C337.782 7.124 337.422 6.08 335.172 6.08ZM337.854 10.886H341.508C341.508 11.714 340.86 14.234 335.694 14.234H335.028C330.096 14.234 328.872 11.534 328.872 9.14V8.888C328.872 6.638 329.988 3.794 334.722 3.794H335.514C340.626 3.794 341.544 6.638 341.544 9.428V9.752H332.454C332.598 10.904 333.336 11.84 335.478 11.84C337.512 11.84 337.764 11.048 337.854 10.886ZM353.128 9.014V8.96C353.128 7.88 352.624 6.422 350.428 6.422H350.248C348.142 6.422 347.476 7.808 347.476 8.96V9.014C347.476 10.112 348.142 11.552 350.248 11.552H350.428C352.624 11.552 353.128 10.04 353.128 9.014ZM343.984 17.438V4.01H347.458V5.288C347.89 4.82 349.204 3.812 351.472 3.812H351.706C355.522 3.812 356.764 6.422 356.764 8.798V9.104C356.764 11.282 355.486 14.198 351.688 14.198H351.436C349.15 14.198 347.926 13.154 347.494 12.722V17.438H343.984ZM359.206 14V4.01H367.918V6.674H362.716V14H359.206ZM375.637 6.08C373.819 6.08 373.135 6.818 372.955 7.862H378.247C378.247 7.124 377.887 6.08 375.637 6.08ZM378.319 10.886H381.973C381.973 11.714 381.325 14.234 376.159 14.234H375.493C370.561 14.234 369.337 11.534 369.337 9.14V8.888C369.337 6.638 370.453 3.794 375.187 3.794H375.979C381.091 3.794 382.009 6.638 382.009 9.428V9.752H372.919C373.063 10.904 373.801 11.84 375.943 11.84C377.977 11.84 378.229 11.048 378.319 10.886ZM387.099 14V6.674H383.229V4.01H394.479V6.674H390.609V14H387.099ZM404.808 7.952L399.984 14H396.384V4.01H399.894V10.058L404.718 4.01H408.318V14H404.808V7.952ZM418.671 14L414.783 9.374V14H411.273V4.01H414.783V8.006L418.347 4.01H422.397L418.221 8.492L422.847 14H418.671ZM429.655 6.08C427.837 6.08 427.153 6.818 426.973 7.862H432.265C432.265 7.124 431.905 6.08 429.655 6.08ZM432.337 10.886H435.991C435.991 11.714 435.343 14.234 430.177 14.234H429.511C424.579 14.234 423.355 11.534 423.355 9.14V8.888C423.355 6.638 424.471 3.794 429.205 3.794H429.997C435.109 3.794 436.027 6.638 436.027 9.428V9.752H426.937C427.081 10.904 427.819 11.84 429.961 11.84C431.995 11.84 432.247 11.048 432.337 10.886Z" fill="#C1A875" style="mix-blend-mode:color"/>
<defs>
<linearGradient id="paint0_linear_2017_671" x1="1" y1="6" x2="540" y2="6.00007" gradientUnits="userSpaceOnUse">
<stop stop-color="#576167"/>
<stop offset="0.191294" stop-color="#9EA1A2"/>
<stop offset="0.396166" stop-color="#848989"/>
<stop offset="0.62055" stop-color="#576167"/>
<stop offset="0.830299" stop-color="#757A7C"/>
<stop offset="1" stop-color="#576167"/>
</linearGradient>
<radialGradient id="paint1_radial_2017_671" cx="0" cy="0" r="1" gradientUnits="userSpaceOnUse" gradientTransform="translate(288.045 -3.20225) rotate(89.9999) scale(17.8315 407.771)">
<stop stop-color="white"/>
<stop offset="1" stop-color="white" stop-opacity="0"/>
</radialGradient>
<radialGradient id="paint2_radial_2017_671" cx="0" cy="0" r="1" gradientUnits="userSpaceOnUse" gradientTransform="translate(318.533 23.6629) rotate(-88.0658) scale(25.5651 582.771)">
<stop stop-color="white"/>
<stop offset="1" stop-color="white" stop-opacity="0"/>
</radialGradient>
</defs>
</svg>
