<svg width="373" height="18" viewBox="0 0 373 18" fill="none" xmlns="http://www.w3.org/2000/svg">
<path d="M8.81325 14.198H7.93125C1.77525 14.198 0.893248 10.022 0.893248 7.646V7.232C0.893248 5.144 1.86525 0.446 7.93125 0.446H8.47125C13.8892 0.446 14.9872 2.768 14.9872 4.496V4.514H11.3152C11.3152 4.316 11.0632 3.308 8.27325 3.308C5.03325 3.308 4.67325 5.612 4.67325 6.71V6.836C5.01525 6.548 6.16725 5.54 9.22725 5.54H9.62325C13.9612 5.54 15.4732 7.322 15.4732 9.356V9.662C15.4732 11.444 14.5012 14.198 8.81325 14.198ZM5.17725 9.662V9.752C5.17725 10.4 5.71725 11.354 8.39925 11.354C11.3152 11.354 11.6572 10.364 11.6572 9.77V9.662C11.6572 9.014 11.2252 8.15 8.39925 8.15C5.66325 8.15 5.17725 9.014 5.17725 9.662ZM21.8078 10.508V14H17.6138V10.508H21.8078ZM46.064 6.998V7.538C46.064 10.274 44.444 14.198 38.324 14.198H37.496C31.808 14.198 30.008 11.264 30.008 8.816V8.762H33.824C33.878 9.194 34.328 11.21 37.892 11.21C40.412 11.21 41.672 9.968 42.104 8.636H36.002V5.792H42.104C41.672 4.442 40.43 3.38 37.91 3.38C34.382 3.38 33.878 5.36 33.824 5.738H30.008V5.702C30.008 3.164 31.88 0.409999 37.496 0.409999H38.324C44.444 0.409999 46.064 4.208 46.064 6.998ZM56.015 14L52.127 9.374V14H48.617V4.01H52.127V8.006L55.691 4.01H59.741L55.565 8.492L60.191 14H56.015ZM67.4486 14.27H66.8906C61.5086 14.27 60.6806 10.994 60.6806 9.176V8.924C60.6806 7.124 61.5086 3.74 66.8726 3.74H67.4666C73.0106 3.74 73.6586 7.142 73.6586 8.906V9.194C73.6586 10.994 73.0106 14.27 67.4486 14.27ZM67.0706 11.642H67.2686C69.4826 11.642 70.0406 10.058 70.0406 8.96C70.0406 7.826 69.4826 6.314 67.2686 6.314H67.0706C64.7666 6.314 64.2986 7.826 64.2986 8.96C64.2986 10.058 64.7666 11.642 67.0706 11.642ZM84.0875 14V6.674H80.1275C80.1275 9.356 80.0375 10.85 79.6955 11.768C79.3175 12.776 78.8135 14 76.1675 14H75.0695V11.39H75.2855C75.9155 11.39 76.3835 11.174 76.5815 10.256C76.7255 9.482 76.7795 8.636 76.7795 4.01H87.5975V14H84.0875ZM96.7689 14.27H96.2109C90.8289 14.27 90.0009 10.994 90.0009 9.176V8.924C90.0009 7.124 90.8289 3.74 96.1929 3.74H96.7869C102.331 3.74 102.979 7.142 102.979 8.906V9.194C102.979 10.994 102.331 14.27 96.7689 14.27ZM96.3909 11.642H96.5889C98.8029 11.642 99.3609 10.058 99.3609 8.96C99.3609 7.826 98.8029 6.314 96.5889 6.314H96.3909C94.0869 6.314 93.6189 7.826 93.6189 8.96C93.6189 10.058 94.0869 11.642 96.3909 11.642ZM105.394 14V4.01H114.106V6.674H108.904V14H105.394ZM124.435 7.952L119.611 14H116.011V4.01H119.521V10.058L124.345 4.01H127.945V14H124.435V7.952ZM138.28 4.01H141.79V14H138.28V10.562C137.506 10.652 136.606 10.742 135.67 10.742C131.71 10.742 130.216 9.626 130.216 6.458V4.01H133.726V5.81C133.726 7.682 134.356 8.006 136.21 8.006C136.912 8.006 137.722 7.952 138.28 7.88V4.01ZM150.512 6.08C148.694 6.08 148.01 6.818 147.83 7.862H153.122C153.122 7.124 152.762 6.08 150.512 6.08ZM153.194 10.886H156.848C156.848 11.714 156.2 14.234 151.034 14.234H150.368C145.436 14.234 144.212 11.534 144.212 9.14V8.888C144.212 6.638 145.328 3.794 150.062 3.794H150.854C155.966 3.794 156.884 6.638 156.884 9.428V9.752H147.794C147.938 10.904 148.676 11.84 150.818 11.84C152.852 11.84 153.104 11.048 153.194 10.886ZM167.64 10.076H171.312C171.312 11.588 170.412 14.27 165.606 14.27H164.724C159.738 14.27 158.802 11.03 158.802 9.14V8.888C158.802 6.998 159.684 3.74 164.706 3.74H165.534C170.358 3.74 171.312 6.368 171.312 7.808V7.826H167.64C167.586 7.538 167.244 6.296 165.174 6.296H164.994C162.924 6.296 162.438 7.718 162.438 8.924V8.942C162.438 10.184 163.032 11.66 165.066 11.66H165.246C167.334 11.66 167.64 10.31 167.64 10.076ZM181.136 14L177.248 9.374V14H173.738V4.01H177.248V8.006L180.812 4.01H184.862L180.686 8.492L185.312 14H181.136ZM195.187 7.952L190.363 14H186.763V4.01H190.273V10.058L195.097 4.01H198.697V14H195.187V7.952ZM210.04 7.952L205.216 14H201.616V4.01H205.126V10.058L209.95 4.01H213.55V14H210.04V7.952ZM207.808 2.984H207.268C204.406 2.984 203.902 1.04 203.902 0.104V0.0499994H206.548C206.548 0.284 206.656 1.004 207.556 1.004C208.402 1.004 208.528 0.284 208.528 0.0499994H211.138V0.104C211.138 1.04 210.418 2.984 207.808 2.984ZM230.853 9.014V8.96C230.853 7.88 230.349 6.422 228.153 6.422H227.973C225.867 6.422 225.201 7.808 225.201 8.96V9.014C225.201 10.112 225.867 11.552 227.973 11.552H228.153C230.349 11.552 230.853 10.04 230.853 9.014ZM221.709 17.438V4.01H225.183V5.288C225.615 4.82 226.929 3.812 229.197 3.812H229.431C233.247 3.812 234.489 6.422 234.489 8.798V9.104C234.489 11.282 233.211 14.198 229.413 14.198H229.161C226.875 14.198 225.651 13.154 225.219 12.722V17.438H221.709ZM242.745 6.08C240.927 6.08 240.243 6.818 240.063 7.862H245.355C245.355 7.124 244.995 6.08 242.745 6.08ZM245.427 10.886H249.081C249.081 11.714 248.433 14.234 243.267 14.234H242.601C237.669 14.234 236.445 11.534 236.445 9.14V8.888C236.445 6.638 237.561 3.794 242.295 3.794H243.087C248.199 3.794 249.117 6.638 249.117 9.428V9.752H240.027C240.171 10.904 240.909 11.84 243.051 11.84C245.085 11.84 245.337 11.048 245.427 10.886ZM261.781 14.27H261.259V17.384H257.749V14.27H257.227C251.665 14.27 251.017 10.994 251.017 9.194V8.906C251.017 7.142 251.665 3.74 257.209 3.74H257.749V0.608H261.259V3.74H261.799C267.343 3.74 267.991 7.142 267.991 8.906V9.194C267.991 10.994 267.343 14.27 261.781 14.27ZM257.407 11.732H257.749V6.224H257.407C255.193 6.224 254.635 7.646 254.635 8.96C254.635 10.238 255.193 11.732 257.407 11.732ZM261.601 6.224H261.259V11.732H261.601C263.815 11.732 264.373 10.238 264.373 8.96C264.373 7.664 263.815 6.224 261.601 6.224ZM276.663 14.27H276.105C270.723 14.27 269.895 10.994 269.895 9.176V8.924C269.895 7.124 270.723 3.74 276.087 3.74H276.681C282.225 3.74 282.873 7.142 282.873 8.906V9.194C282.873 10.994 282.225 14.27 276.663 14.27ZM276.285 11.642H276.483C278.697 11.642 279.255 10.058 279.255 8.96C279.255 7.826 278.697 6.314 276.483 6.314H276.285C273.981 6.314 273.513 7.826 273.513 8.96C273.513 10.058 273.981 11.642 276.285 11.642ZM294.468 9.014V8.96C294.468 7.88 293.964 6.422 291.768 6.422H291.588C289.482 6.422 288.816 7.808 288.816 8.96V9.014C288.816 10.112 289.482 11.552 291.588 11.552H291.768C293.964 11.552 294.468 10.04 294.468 9.014ZM285.324 17.438V4.01H288.798V5.288C289.23 4.82 290.544 3.812 292.812 3.812H293.046C296.862 3.812 298.104 6.422 298.104 8.798V9.104C298.104 11.282 296.826 14.198 293.028 14.198H292.776C290.49 14.198 289.266 13.154 288.834 12.722V17.438H285.324ZM303.786 7.268V14H300.546V4.01H305.496L308.466 10.382L311.436 4.01H316.206V14H312.696V7.268L309.582 14H306.9L303.786 7.268ZM323.719 12.002C325.771 12.002 326.473 10.706 326.473 9.95V9.176C326.167 9.302 325.285 9.482 324.277 9.644C322.585 9.932 322.045 10.166 322.045 10.868V10.904C322.045 11.534 322.495 12.002 323.719 12.002ZM326.581 12.614C326.149 13.136 325.069 14.198 322.729 14.198H322.441C319.651 14.198 318.499 12.686 318.499 11.03V10.958C318.499 9.23 319.597 8.168 322.981 7.88L325.717 7.646C326.275 7.592 326.473 7.412 326.473 6.998C326.473 6.53 326.329 6.026 324.385 6.026C322.549 6.026 322.369 6.746 322.369 7.124H318.769V7.088C318.769 6.098 319.165 3.776 324.079 3.776H324.637C329.587 3.776 329.893 5.81 329.893 7.142V10.436C329.893 11.066 330.019 11.318 330.721 11.318H331.099V14H328.255C327.211 14 326.725 13.262 326.581 12.614ZM335.787 14V6.674H331.917V4.01H343.167V6.674H339.297V14H335.787ZM351.335 14.27H350.777C345.395 14.27 344.567 10.994 344.567 9.176V8.924C344.567 7.124 345.395 3.74 350.759 3.74H351.353C356.897 3.74 357.545 7.142 357.545 8.906V9.194C357.545 10.994 356.897 14.27 351.335 14.27ZM350.957 11.642H351.155C353.369 11.642 353.927 10.058 353.927 8.96C353.927 7.826 353.369 6.314 351.155 6.314H350.957C348.653 6.314 348.185 7.826 348.185 8.96C348.185 10.058 348.653 11.642 350.957 11.642ZM369.14 9.014V8.96C369.14 7.88 368.636 6.422 366.44 6.422H366.26C364.154 6.422 363.488 7.808 363.488 8.96V9.014C363.488 10.112 364.154 11.552 366.26 11.552H366.44C368.636 11.552 369.14 10.04 369.14 9.014ZM359.996 17.438V4.01H363.47V5.288C363.902 4.82 365.216 3.812 367.484 3.812H367.718C371.534 3.812 372.776 6.422 372.776 8.798V9.104C372.776 11.282 371.498 14.198 367.7 14.198H367.448C365.162 14.198 363.938 13.154 363.506 12.722V17.438H359.996Z" fill="url(#paint0_linear_2017_679)"/>
<path d="M8.81325 14.198H7.93125C1.77525 14.198 0.893248 10.022 0.893248 7.646V7.232C0.893248 5.144 1.86525 0.446 7.93125 0.446H8.47125C13.8892 0.446 14.9872 2.768 14.9872 4.496V4.514H11.3152C11.3152 4.316 11.0632 3.308 8.27325 3.308C5.03325 3.308 4.67325 5.612 4.67325 6.71V6.836C5.01525 6.548 6.16725 5.54 9.22725 5.54H9.62325C13.9612 5.54 15.4732 7.322 15.4732 9.356V9.662C15.4732 11.444 14.5012 14.198 8.81325 14.198ZM5.17725 9.662V9.752C5.17725 10.4 5.71725 11.354 8.39925 11.354C11.3152 11.354 11.6572 10.364 11.6572 9.77V9.662C11.6572 9.014 11.2252 8.15 8.39925 8.15C5.66325 8.15 5.17725 9.014 5.17725 9.662ZM21.8078 10.508V14H17.6138V10.508H21.8078ZM46.064 6.998V7.538C46.064 10.274 44.444 14.198 38.324 14.198H37.496C31.808 14.198 30.008 11.264 30.008 8.816V8.762H33.824C33.878 9.194 34.328 11.21 37.892 11.21C40.412 11.21 41.672 9.968 42.104 8.636H36.002V5.792H42.104C41.672 4.442 40.43 3.38 37.91 3.38C34.382 3.38 33.878 5.36 33.824 5.738H30.008V5.702C30.008 3.164 31.88 0.409999 37.496 0.409999H38.324C44.444 0.409999 46.064 4.208 46.064 6.998ZM56.015 14L52.127 9.374V14H48.617V4.01H52.127V8.006L55.691 4.01H59.741L55.565 8.492L60.191 14H56.015ZM67.4486 14.27H66.8906C61.5086 14.27 60.6806 10.994 60.6806 9.176V8.924C60.6806 7.124 61.5086 3.74 66.8726 3.74H67.4666C73.0106 3.74 73.6586 7.142 73.6586 8.906V9.194C73.6586 10.994 73.0106 14.27 67.4486 14.27ZM67.0706 11.642H67.2686C69.4826 11.642 70.0406 10.058 70.0406 8.96C70.0406 7.826 69.4826 6.314 67.2686 6.314H67.0706C64.7666 6.314 64.2986 7.826 64.2986 8.96C64.2986 10.058 64.7666 11.642 67.0706 11.642ZM84.0875 14V6.674H80.1275C80.1275 9.356 80.0375 10.85 79.6955 11.768C79.3175 12.776 78.8135 14 76.1675 14H75.0695V11.39H75.2855C75.9155 11.39 76.3835 11.174 76.5815 10.256C76.7255 9.482 76.7795 8.636 76.7795 4.01H87.5975V14H84.0875ZM96.7689 14.27H96.2109C90.8289 14.27 90.0009 10.994 90.0009 9.176V8.924C90.0009 7.124 90.8289 3.74 96.1929 3.74H96.7869C102.331 3.74 102.979 7.142 102.979 8.906V9.194C102.979 10.994 102.331 14.27 96.7689 14.27ZM96.3909 11.642H96.5889C98.8029 11.642 99.3609 10.058 99.3609 8.96C99.3609 7.826 98.8029 6.314 96.5889 6.314H96.3909C94.0869 6.314 93.6189 7.826 93.6189 8.96C93.6189 10.058 94.0869 11.642 96.3909 11.642ZM105.394 14V4.01H114.106V6.674H108.904V14H105.394ZM124.435 7.952L119.611 14H116.011V4.01H119.521V10.058L124.345 4.01H127.945V14H124.435V7.952ZM138.28 4.01H141.79V14H138.28V10.562C137.506 10.652 136.606 10.742 135.67 10.742C131.71 10.742 130.216 9.626 130.216 6.458V4.01H133.726V5.81C133.726 7.682 134.356 8.006 136.21 8.006C136.912 8.006 137.722 7.952 138.28 7.88V4.01ZM150.512 6.08C148.694 6.08 148.01 6.818 147.83 7.862H153.122C153.122 7.124 152.762 6.08 150.512 6.08ZM153.194 10.886H156.848C156.848 11.714 156.2 14.234 151.034 14.234H150.368C145.436 14.234 144.212 11.534 144.212 9.14V8.888C144.212 6.638 145.328 3.794 150.062 3.794H150.854C155.966 3.794 156.884 6.638 156.884 9.428V9.752H147.794C147.938 10.904 148.676 11.84 150.818 11.84C152.852 11.84 153.104 11.048 153.194 10.886ZM167.64 10.076H171.312C171.312 11.588 170.412 14.27 165.606 14.27H164.724C159.738 14.27 158.802 11.03 158.802 9.14V8.888C158.802 6.998 159.684 3.74 164.706 3.74H165.534C170.358 3.74 171.312 6.368 171.312 7.808V7.826H167.64C167.586 7.538 167.244 6.296 165.174 6.296H164.994C162.924 6.296 162.438 7.718 162.438 8.924V8.942C162.438 10.184 163.032 11.66 165.066 11.66H165.246C167.334 11.66 167.64 10.31 167.64 10.076ZM181.136 14L177.248 9.374V14H173.738V4.01H177.248V8.006L180.812 4.01H184.862L180.686 8.492L185.312 14H181.136ZM195.187 7.952L190.363 14H186.763V4.01H190.273V10.058L195.097 4.01H198.697V14H195.187V7.952ZM210.04 7.952L205.216 14H201.616V4.01H205.126V10.058L209.95 4.01H213.55V14H210.04V7.952ZM207.808 2.984H207.268C204.406 2.984 203.902 1.04 203.902 0.104V0.0499994H206.548C206.548 0.284 206.656 1.004 207.556 1.004C208.402 1.004 208.528 0.284 208.528 0.0499994H211.138V0.104C211.138 1.04 210.418 2.984 207.808 2.984ZM230.853 9.014V8.96C230.853 7.88 230.349 6.422 228.153 6.422H227.973C225.867 6.422 225.201 7.808 225.201 8.96V9.014C225.201 10.112 225.867 11.552 227.973 11.552H228.153C230.349 11.552 230.853 10.04 230.853 9.014ZM221.709 17.438V4.01H225.183V5.288C225.615 4.82 226.929 3.812 229.197 3.812H229.431C233.247 3.812 234.489 6.422 234.489 8.798V9.104C234.489 11.282 233.211 14.198 229.413 14.198H229.161C226.875 14.198 225.651 13.154 225.219 12.722V17.438H221.709ZM242.745 6.08C240.927 6.08 240.243 6.818 240.063 7.862H245.355C245.355 7.124 244.995 6.08 242.745 6.08ZM245.427 10.886H249.081C249.081 11.714 248.433 14.234 243.267 14.234H242.601C237.669 14.234 236.445 11.534 236.445 9.14V8.888C236.445 6.638 237.561 3.794 242.295 3.794H243.087C248.199 3.794 249.117 6.638 249.117 9.428V9.752H240.027C240.171 10.904 240.909 11.84 243.051 11.84C245.085 11.84 245.337 11.048 245.427 10.886ZM261.781 14.27H261.259V17.384H257.749V14.27H257.227C251.665 14.27 251.017 10.994 251.017 9.194V8.906C251.017 7.142 251.665 3.74 257.209 3.74H257.749V0.608H261.259V3.74H261.799C267.343 3.74 267.991 7.142 267.991 8.906V9.194C267.991 10.994 267.343 14.27 261.781 14.27ZM257.407 11.732H257.749V6.224H257.407C255.193 6.224 254.635 7.646 254.635 8.96C254.635 10.238 255.193 11.732 257.407 11.732ZM261.601 6.224H261.259V11.732H261.601C263.815 11.732 264.373 10.238 264.373 8.96C264.373 7.664 263.815 6.224 261.601 6.224ZM276.663 14.27H276.105C270.723 14.27 269.895 10.994 269.895 9.176V8.924C269.895 7.124 270.723 3.74 276.087 3.74H276.681C282.225 3.74 282.873 7.142 282.873 8.906V9.194C282.873 10.994 282.225 14.27 276.663 14.27ZM276.285 11.642H276.483C278.697 11.642 279.255 10.058 279.255 8.96C279.255 7.826 278.697 6.314 276.483 6.314H276.285C273.981 6.314 273.513 7.826 273.513 8.96C273.513 10.058 273.981 11.642 276.285 11.642ZM294.468 9.014V8.96C294.468 7.88 293.964 6.422 291.768 6.422H291.588C289.482 6.422 288.816 7.808 288.816 8.96V9.014C288.816 10.112 289.482 11.552 291.588 11.552H291.768C293.964 11.552 294.468 10.04 294.468 9.014ZM285.324 17.438V4.01H288.798V5.288C289.23 4.82 290.544 3.812 292.812 3.812H293.046C296.862 3.812 298.104 6.422 298.104 8.798V9.104C298.104 11.282 296.826 14.198 293.028 14.198H292.776C290.49 14.198 289.266 13.154 288.834 12.722V17.438H285.324ZM303.786 7.268V14H300.546V4.01H305.496L308.466 10.382L311.436 4.01H316.206V14H312.696V7.268L309.582 14H306.9L303.786 7.268ZM323.719 12.002C325.771 12.002 326.473 10.706 326.473 9.95V9.176C326.167 9.302 325.285 9.482 324.277 9.644C322.585 9.932 322.045 10.166 322.045 10.868V10.904C322.045 11.534 322.495 12.002 323.719 12.002ZM326.581 12.614C326.149 13.136 325.069 14.198 322.729 14.198H322.441C319.651 14.198 318.499 12.686 318.499 11.03V10.958C318.499 9.23 319.597 8.168 322.981 7.88L325.717 7.646C326.275 7.592 326.473 7.412 326.473 6.998C326.473 6.53 326.329 6.026 324.385 6.026C322.549 6.026 322.369 6.746 322.369 7.124H318.769V7.088C318.769 6.098 319.165 3.776 324.079 3.776H324.637C329.587 3.776 329.893 5.81 329.893 7.142V10.436C329.893 11.066 330.019 11.318 330.721 11.318H331.099V14H328.255C327.211 14 326.725 13.262 326.581 12.614ZM335.787 14V6.674H331.917V4.01H343.167V6.674H339.297V14H335.787ZM351.335 14.27H350.777C345.395 14.27 344.567 10.994 344.567 9.176V8.924C344.567 7.124 345.395 3.74 350.759 3.74H351.353C356.897 3.74 357.545 7.142 357.545 8.906V9.194C357.545 10.994 356.897 14.27 351.335 14.27ZM350.957 11.642H351.155C353.369 11.642 353.927 10.058 353.927 8.96C353.927 7.826 353.369 6.314 351.155 6.314H350.957C348.653 6.314 348.185 7.826 348.185 8.96C348.185 10.058 348.653 11.642 350.957 11.642ZM369.14 9.014V8.96C369.14 7.88 368.636 6.422 366.44 6.422H366.26C364.154 6.422 363.488 7.808 363.488 8.96V9.014C363.488 10.112 364.154 11.552 366.26 11.552H366.44C368.636 11.552 369.14 10.04 369.14 9.014ZM359.996 17.438V4.01H363.47V5.288C363.902 4.82 365.216 3.812 367.484 3.812H367.718C371.534 3.812 372.776 6.422 372.776 8.798V9.104C372.776 11.282 371.498 14.198 367.7 14.198H367.448C365.162 14.198 363.938 13.154 363.506 12.722V17.438H359.996Z" fill="url(#paint1_radial_2017_679)" style="mix-blend-mode:overlay"/>
<path d="M8.81325 14.198H7.93125C1.77525 14.198 0.893248 10.022 0.893248 7.646V7.232C0.893248 5.144 1.86525 0.446 7.93125 0.446H8.47125C13.8892 0.446 14.9872 2.768 14.9872 4.496V4.514H11.3152C11.3152 4.316 11.0632 3.308 8.27325 3.308C5.03325 3.308 4.67325 5.612 4.67325 6.71V6.836C5.01525 6.548 6.16725 5.54 9.22725 5.54H9.62325C13.9612 5.54 15.4732 7.322 15.4732 9.356V9.662C15.4732 11.444 14.5012 14.198 8.81325 14.198ZM5.17725 9.662V9.752C5.17725 10.4 5.71725 11.354 8.39925 11.354C11.3152 11.354 11.6572 10.364 11.6572 9.77V9.662C11.6572 9.014 11.2252 8.15 8.39925 8.15C5.66325 8.15 5.17725 9.014 5.17725 9.662ZM21.8078 10.508V14H17.6138V10.508H21.8078ZM46.064 6.998V7.538C46.064 10.274 44.444 14.198 38.324 14.198H37.496C31.808 14.198 30.008 11.264 30.008 8.816V8.762H33.824C33.878 9.194 34.328 11.21 37.892 11.21C40.412 11.21 41.672 9.968 42.104 8.636H36.002V5.792H42.104C41.672 4.442 40.43 3.38 37.91 3.38C34.382 3.38 33.878 5.36 33.824 5.738H30.008V5.702C30.008 3.164 31.88 0.409999 37.496 0.409999H38.324C44.444 0.409999 46.064 4.208 46.064 6.998ZM56.015 14L52.127 9.374V14H48.617V4.01H52.127V8.006L55.691 4.01H59.741L55.565 8.492L60.191 14H56.015ZM67.4486 14.27H66.8906C61.5086 14.27 60.6806 10.994 60.6806 9.176V8.924C60.6806 7.124 61.5086 3.74 66.8726 3.74H67.4666C73.0106 3.74 73.6586 7.142 73.6586 8.906V9.194C73.6586 10.994 73.0106 14.27 67.4486 14.27ZM67.0706 11.642H67.2686C69.4826 11.642 70.0406 10.058 70.0406 8.96C70.0406 7.826 69.4826 6.314 67.2686 6.314H67.0706C64.7666 6.314 64.2986 7.826 64.2986 8.96C64.2986 10.058 64.7666 11.642 67.0706 11.642ZM84.0875 14V6.674H80.1275C80.1275 9.356 80.0375 10.85 79.6955 11.768C79.3175 12.776 78.8135 14 76.1675 14H75.0695V11.39H75.2855C75.9155 11.39 76.3835 11.174 76.5815 10.256C76.7255 9.482 76.7795 8.636 76.7795 4.01H87.5975V14H84.0875ZM96.7689 14.27H96.2109C90.8289 14.27 90.0009 10.994 90.0009 9.176V8.924C90.0009 7.124 90.8289 3.74 96.1929 3.74H96.7869C102.331 3.74 102.979 7.142 102.979 8.906V9.194C102.979 10.994 102.331 14.27 96.7689 14.27ZM96.3909 11.642H96.5889C98.8029 11.642 99.3609 10.058 99.3609 8.96C99.3609 7.826 98.8029 6.314 96.5889 6.314H96.3909C94.0869 6.314 93.6189 7.826 93.6189 8.96C93.6189 10.058 94.0869 11.642 96.3909 11.642ZM105.394 14V4.01H114.106V6.674H108.904V14H105.394ZM124.435 7.952L119.611 14H116.011V4.01H119.521V10.058L124.345 4.01H127.945V14H124.435V7.952ZM138.28 4.01H141.79V14H138.28V10.562C137.506 10.652 136.606 10.742 135.67 10.742C131.71 10.742 130.216 9.626 130.216 6.458V4.01H133.726V5.81C133.726 7.682 134.356 8.006 136.21 8.006C136.912 8.006 137.722 7.952 138.28 7.88V4.01ZM150.512 6.08C148.694 6.08 148.01 6.818 147.83 7.862H153.122C153.122 7.124 152.762 6.08 150.512 6.08ZM153.194 10.886H156.848C156.848 11.714 156.2 14.234 151.034 14.234H150.368C145.436 14.234 144.212 11.534 144.212 9.14V8.888C144.212 6.638 145.328 3.794 150.062 3.794H150.854C155.966 3.794 156.884 6.638 156.884 9.428V9.752H147.794C147.938 10.904 148.676 11.84 150.818 11.84C152.852 11.84 153.104 11.048 153.194 10.886ZM167.64 10.076H171.312C171.312 11.588 170.412 14.27 165.606 14.27H164.724C159.738 14.27 158.802 11.03 158.802 9.14V8.888C158.802 6.998 159.684 3.74 164.706 3.74H165.534C170.358 3.74 171.312 6.368 171.312 7.808V7.826H167.64C167.586 7.538 167.244 6.296 165.174 6.296H164.994C162.924 6.296 162.438 7.718 162.438 8.924V8.942C162.438 10.184 163.032 11.66 165.066 11.66H165.246C167.334 11.66 167.64 10.31 167.64 10.076ZM181.136 14L177.248 9.374V14H173.738V4.01H177.248V8.006L180.812 4.01H184.862L180.686 8.492L185.312 14H181.136ZM195.187 7.952L190.363 14H186.763V4.01H190.273V10.058L195.097 4.01H198.697V14H195.187V7.952ZM210.04 7.952L205.216 14H201.616V4.01H205.126V10.058L209.95 4.01H213.55V14H210.04V7.952ZM207.808 2.984H207.268C204.406 2.984 203.902 1.04 203.902 0.104V0.0499994H206.548C206.548 0.284 206.656 1.004 207.556 1.004C208.402 1.004 208.528 0.284 208.528 0.0499994H211.138V0.104C211.138 1.04 210.418 2.984 207.808 2.984ZM230.853 9.014V8.96C230.853 7.88 230.349 6.422 228.153 6.422H227.973C225.867 6.422 225.201 7.808 225.201 8.96V9.014C225.201 10.112 225.867 11.552 227.973 11.552H228.153C230.349 11.552 230.853 10.04 230.853 9.014ZM221.709 17.438V4.01H225.183V5.288C225.615 4.82 226.929 3.812 229.197 3.812H229.431C233.247 3.812 234.489 6.422 234.489 8.798V9.104C234.489 11.282 233.211 14.198 229.413 14.198H229.161C226.875 14.198 225.651 13.154 225.219 12.722V17.438H221.709ZM242.745 6.08C240.927 6.08 240.243 6.818 240.063 7.862H245.355C245.355 7.124 244.995 6.08 242.745 6.08ZM245.427 10.886H249.081C249.081 11.714 248.433 14.234 243.267 14.234H242.601C237.669 14.234 236.445 11.534 236.445 9.14V8.888C236.445 6.638 237.561 3.794 242.295 3.794H243.087C248.199 3.794 249.117 6.638 249.117 9.428V9.752H240.027C240.171 10.904 240.909 11.84 243.051 11.84C245.085 11.84 245.337 11.048 245.427 10.886ZM261.781 14.27H261.259V17.384H257.749V14.27H257.227C251.665 14.27 251.017 10.994 251.017 9.194V8.906C251.017 7.142 251.665 3.74 257.209 3.74H257.749V0.608H261.259V3.74H261.799C267.343 3.74 267.991 7.142 267.991 8.906V9.194C267.991 10.994 267.343 14.27 261.781 14.27ZM257.407 11.732H257.749V6.224H257.407C255.193 6.224 254.635 7.646 254.635 8.96C254.635 10.238 255.193 11.732 257.407 11.732ZM261.601 6.224H261.259V11.732H261.601C263.815 11.732 264.373 10.238 264.373 8.96C264.373 7.664 263.815 6.224 261.601 6.224ZM276.663 14.27H276.105C270.723 14.27 269.895 10.994 269.895 9.176V8.924C269.895 7.124 270.723 3.74 276.087 3.74H276.681C282.225 3.74 282.873 7.142 282.873 8.906V9.194C282.873 10.994 282.225 14.27 276.663 14.27ZM276.285 11.642H276.483C278.697 11.642 279.255 10.058 279.255 8.96C279.255 7.826 278.697 6.314 276.483 6.314H276.285C273.981 6.314 273.513 7.826 273.513 8.96C273.513 10.058 273.981 11.642 276.285 11.642ZM294.468 9.014V8.96C294.468 7.88 293.964 6.422 291.768 6.422H291.588C289.482 6.422 288.816 7.808 288.816 8.96V9.014C288.816 10.112 289.482 11.552 291.588 11.552H291.768C293.964 11.552 294.468 10.04 294.468 9.014ZM285.324 17.438V4.01H288.798V5.288C289.23 4.82 290.544 3.812 292.812 3.812H293.046C296.862 3.812 298.104 6.422 298.104 8.798V9.104C298.104 11.282 296.826 14.198 293.028 14.198H292.776C290.49 14.198 289.266 13.154 288.834 12.722V17.438H285.324ZM303.786 7.268V14H300.546V4.01H305.496L308.466 10.382L311.436 4.01H316.206V14H312.696V7.268L309.582 14H306.9L303.786 7.268ZM323.719 12.002C325.771 12.002 326.473 10.706 326.473 9.95V9.176C326.167 9.302 325.285 9.482 324.277 9.644C322.585 9.932 322.045 10.166 322.045 10.868V10.904C322.045 11.534 322.495 12.002 323.719 12.002ZM326.581 12.614C326.149 13.136 325.069 14.198 322.729 14.198H322.441C319.651 14.198 318.499 12.686 318.499 11.03V10.958C318.499 9.23 319.597 8.168 322.981 7.88L325.717 7.646C326.275 7.592 326.473 7.412 326.473 6.998C326.473 6.53 326.329 6.026 324.385 6.026C322.549 6.026 322.369 6.746 322.369 7.124H318.769V7.088C318.769 6.098 319.165 3.776 324.079 3.776H324.637C329.587 3.776 329.893 5.81 329.893 7.142V10.436C329.893 11.066 330.019 11.318 330.721 11.318H331.099V14H328.255C327.211 14 326.725 13.262 326.581 12.614ZM335.787 14V6.674H331.917V4.01H343.167V6.674H339.297V14H335.787ZM351.335 14.27H350.777C345.395 14.27 344.567 10.994 344.567 9.176V8.924C344.567 7.124 345.395 3.74 350.759 3.74H351.353C356.897 3.74 357.545 7.142 357.545 8.906V9.194C357.545 10.994 356.897 14.27 351.335 14.27ZM350.957 11.642H351.155C353.369 11.642 353.927 10.058 353.927 8.96C353.927 7.826 353.369 6.314 351.155 6.314H350.957C348.653 6.314 348.185 7.826 348.185 8.96C348.185 10.058 348.653 11.642 350.957 11.642ZM369.14 9.014V8.96C369.14 7.88 368.636 6.422 366.44 6.422H366.26C364.154 6.422 363.488 7.808 363.488 8.96V9.014C363.488 10.112 364.154 11.552 366.26 11.552H366.44C368.636 11.552 369.14 10.04 369.14 9.014ZM359.996 17.438V4.01H363.47V5.288C363.902 4.82 365.216 3.812 367.484 3.812H367.718C371.534 3.812 372.776 6.422 372.776 8.798V9.104C372.776 11.282 371.498 14.198 367.7 14.198H367.448C365.162 14.198 363.938 13.154 363.506 12.722V17.438H359.996Z" fill="url(#paint2_radial_2017_679)"/>
<path d="M8.81325 14.198H7.93125C1.77525 14.198 0.893248 10.022 0.893248 7.646V7.232C0.893248 5.144 1.86525 0.446 7.93125 0.446H8.47125C13.8892 0.446 14.9872 2.768 14.9872 4.496V4.514H11.3152C11.3152 4.316 11.0632 3.308 8.27325 3.308C5.03325 3.308 4.67325 5.612 4.67325 6.71V6.836C5.01525 6.548 6.16725 5.54 9.22725 5.54H9.62325C13.9612 5.54 15.4732 7.322 15.4732 9.356V9.662C15.4732 11.444 14.5012 14.198 8.81325 14.198ZM5.17725 9.662V9.752C5.17725 10.4 5.71725 11.354 8.39925 11.354C11.3152 11.354 11.6572 10.364 11.6572 9.77V9.662C11.6572 9.014 11.2252 8.15 8.39925 8.15C5.66325 8.15 5.17725 9.014 5.17725 9.662ZM21.8078 10.508V14H17.6138V10.508H21.8078ZM46.064 6.998V7.538C46.064 10.274 44.444 14.198 38.324 14.198H37.496C31.808 14.198 30.008 11.264 30.008 8.816V8.762H33.824C33.878 9.194 34.328 11.21 37.892 11.21C40.412 11.21 41.672 9.968 42.104 8.636H36.002V5.792H42.104C41.672 4.442 40.43 3.38 37.91 3.38C34.382 3.38 33.878 5.36 33.824 5.738H30.008V5.702C30.008 3.164 31.88 0.409999 37.496 0.409999H38.324C44.444 0.409999 46.064 4.208 46.064 6.998ZM56.015 14L52.127 9.374V14H48.617V4.01H52.127V8.006L55.691 4.01H59.741L55.565 8.492L60.191 14H56.015ZM67.4486 14.27H66.8906C61.5086 14.27 60.6806 10.994 60.6806 9.176V8.924C60.6806 7.124 61.5086 3.74 66.8726 3.74H67.4666C73.0106 3.74 73.6586 7.142 73.6586 8.906V9.194C73.6586 10.994 73.0106 14.27 67.4486 14.27ZM67.0706 11.642H67.2686C69.4826 11.642 70.0406 10.058 70.0406 8.96C70.0406 7.826 69.4826 6.314 67.2686 6.314H67.0706C64.7666 6.314 64.2986 7.826 64.2986 8.96C64.2986 10.058 64.7666 11.642 67.0706 11.642ZM84.0875 14V6.674H80.1275C80.1275 9.356 80.0375 10.85 79.6955 11.768C79.3175 12.776 78.8135 14 76.1675 14H75.0695V11.39H75.2855C75.9155 11.39 76.3835 11.174 76.5815 10.256C76.7255 9.482 76.7795 8.636 76.7795 4.01H87.5975V14H84.0875ZM96.7689 14.27H96.2109C90.8289 14.27 90.0009 10.994 90.0009 9.176V8.924C90.0009 7.124 90.8289 3.74 96.1929 3.74H96.7869C102.331 3.74 102.979 7.142 102.979 8.906V9.194C102.979 10.994 102.331 14.27 96.7689 14.27ZM96.3909 11.642H96.5889C98.8029 11.642 99.3609 10.058 99.3609 8.96C99.3609 7.826 98.8029 6.314 96.5889 6.314H96.3909C94.0869 6.314 93.6189 7.826 93.6189 8.96C93.6189 10.058 94.0869 11.642 96.3909 11.642ZM105.394 14V4.01H114.106V6.674H108.904V14H105.394ZM124.435 7.952L119.611 14H116.011V4.01H119.521V10.058L124.345 4.01H127.945V14H124.435V7.952ZM138.28 4.01H141.79V14H138.28V10.562C137.506 10.652 136.606 10.742 135.67 10.742C131.71 10.742 130.216 9.626 130.216 6.458V4.01H133.726V5.81C133.726 7.682 134.356 8.006 136.21 8.006C136.912 8.006 137.722 7.952 138.28 7.88V4.01ZM150.512 6.08C148.694 6.08 148.01 6.818 147.83 7.862H153.122C153.122 7.124 152.762 6.08 150.512 6.08ZM153.194 10.886H156.848C156.848 11.714 156.2 14.234 151.034 14.234H150.368C145.436 14.234 144.212 11.534 144.212 9.14V8.888C144.212 6.638 145.328 3.794 150.062 3.794H150.854C155.966 3.794 156.884 6.638 156.884 9.428V9.752H147.794C147.938 10.904 148.676 11.84 150.818 11.84C152.852 11.84 153.104 11.048 153.194 10.886ZM167.64 10.076H171.312C171.312 11.588 170.412 14.27 165.606 14.27H164.724C159.738 14.27 158.802 11.03 158.802 9.14V8.888C158.802 6.998 159.684 3.74 164.706 3.74H165.534C170.358 3.74 171.312 6.368 171.312 7.808V7.826H167.64C167.586 7.538 167.244 6.296 165.174 6.296H164.994C162.924 6.296 162.438 7.718 162.438 8.924V8.942C162.438 10.184 163.032 11.66 165.066 11.66H165.246C167.334 11.66 167.64 10.31 167.64 10.076ZM181.136 14L177.248 9.374V14H173.738V4.01H177.248V8.006L180.812 4.01H184.862L180.686 8.492L185.312 14H181.136ZM195.187 7.952L190.363 14H186.763V4.01H190.273V10.058L195.097 4.01H198.697V14H195.187V7.952ZM210.04 7.952L205.216 14H201.616V4.01H205.126V10.058L209.95 4.01H213.55V14H210.04V7.952ZM207.808 2.984H207.268C204.406 2.984 203.902 1.04 203.902 0.104V0.0499994H206.548C206.548 0.284 206.656 1.004 207.556 1.004C208.402 1.004 208.528 0.284 208.528 0.0499994H211.138V0.104C211.138 1.04 210.418 2.984 207.808 2.984ZM230.853 9.014V8.96C230.853 7.88 230.349 6.422 228.153 6.422H227.973C225.867 6.422 225.201 7.808 225.201 8.96V9.014C225.201 10.112 225.867 11.552 227.973 11.552H228.153C230.349 11.552 230.853 10.04 230.853 9.014ZM221.709 17.438V4.01H225.183V5.288C225.615 4.82 226.929 3.812 229.197 3.812H229.431C233.247 3.812 234.489 6.422 234.489 8.798V9.104C234.489 11.282 233.211 14.198 229.413 14.198H229.161C226.875 14.198 225.651 13.154 225.219 12.722V17.438H221.709ZM242.745 6.08C240.927 6.08 240.243 6.818 240.063 7.862H245.355C245.355 7.124 244.995 6.08 242.745 6.08ZM245.427 10.886H249.081C249.081 11.714 248.433 14.234 243.267 14.234H242.601C237.669 14.234 236.445 11.534 236.445 9.14V8.888C236.445 6.638 237.561 3.794 242.295 3.794H243.087C248.199 3.794 249.117 6.638 249.117 9.428V9.752H240.027C240.171 10.904 240.909 11.84 243.051 11.84C245.085 11.84 245.337 11.048 245.427 10.886ZM261.781 14.27H261.259V17.384H257.749V14.27H257.227C251.665 14.27 251.017 10.994 251.017 9.194V8.906C251.017 7.142 251.665 3.74 257.209 3.74H257.749V0.608H261.259V3.74H261.799C267.343 3.74 267.991 7.142 267.991 8.906V9.194C267.991 10.994 267.343 14.27 261.781 14.27ZM257.407 11.732H257.749V6.224H257.407C255.193 6.224 254.635 7.646 254.635 8.96C254.635 10.238 255.193 11.732 257.407 11.732ZM261.601 6.224H261.259V11.732H261.601C263.815 11.732 264.373 10.238 264.373 8.96C264.373 7.664 263.815 6.224 261.601 6.224ZM276.663 14.27H276.105C270.723 14.27 269.895 10.994 269.895 9.176V8.924C269.895 7.124 270.723 3.74 276.087 3.74H276.681C282.225 3.74 282.873 7.142 282.873 8.906V9.194C282.873 10.994 282.225 14.27 276.663 14.27ZM276.285 11.642H276.483C278.697 11.642 279.255 10.058 279.255 8.96C279.255 7.826 278.697 6.314 276.483 6.314H276.285C273.981 6.314 273.513 7.826 273.513 8.96C273.513 10.058 273.981 11.642 276.285 11.642ZM294.468 9.014V8.96C294.468 7.88 293.964 6.422 291.768 6.422H291.588C289.482 6.422 288.816 7.808 288.816 8.96V9.014C288.816 10.112 289.482 11.552 291.588 11.552H291.768C293.964 11.552 294.468 10.04 294.468 9.014ZM285.324 17.438V4.01H288.798V5.288C289.23 4.82 290.544 3.812 292.812 3.812H293.046C296.862 3.812 298.104 6.422 298.104 8.798V9.104C298.104 11.282 296.826 14.198 293.028 14.198H292.776C290.49 14.198 289.266 13.154 288.834 12.722V17.438H285.324ZM303.786 7.268V14H300.546V4.01H305.496L308.466 10.382L311.436 4.01H316.206V14H312.696V7.268L309.582 14H306.9L303.786 7.268ZM323.719 12.002C325.771 12.002 326.473 10.706 326.473 9.95V9.176C326.167 9.302 325.285 9.482 324.277 9.644C322.585 9.932 322.045 10.166 322.045 10.868V10.904C322.045 11.534 322.495 12.002 323.719 12.002ZM326.581 12.614C326.149 13.136 325.069 14.198 322.729 14.198H322.441C319.651 14.198 318.499 12.686 318.499 11.03V10.958C318.499 9.23 319.597 8.168 322.981 7.88L325.717 7.646C326.275 7.592 326.473 7.412 326.473 6.998C326.473 6.53 326.329 6.026 324.385 6.026C322.549 6.026 322.369 6.746 322.369 7.124H318.769V7.088C318.769 6.098 319.165 3.776 324.079 3.776H324.637C329.587 3.776 329.893 5.81 329.893 7.142V10.436C329.893 11.066 330.019 11.318 330.721 11.318H331.099V14H328.255C327.211 14 326.725 13.262 326.581 12.614ZM335.787 14V6.674H331.917V4.01H343.167V6.674H339.297V14H335.787ZM351.335 14.27H350.777C345.395 14.27 344.567 10.994 344.567 9.176V8.924C344.567 7.124 345.395 3.74 350.759 3.74H351.353C356.897 3.74 357.545 7.142 357.545 8.906V9.194C357.545 10.994 356.897 14.27 351.335 14.27ZM350.957 11.642H351.155C353.369 11.642 353.927 10.058 353.927 8.96C353.927 7.826 353.369 6.314 351.155 6.314H350.957C348.653 6.314 348.185 7.826 348.185 8.96C348.185 10.058 348.653 11.642 350.957 11.642ZM369.14 9.014V8.96C369.14 7.88 368.636 6.422 366.44 6.422H366.26C364.154 6.422 363.488 7.808 363.488 8.96V9.014C363.488 10.112 364.154 11.552 366.26 11.552H366.44C368.636 11.552 369.14 10.04 369.14 9.014ZM359.996 17.438V4.01H363.47V5.288C363.902 4.82 365.216 3.812 367.484 3.812H367.718C371.534 3.812 372.776 6.422 372.776 8.798V9.104C372.776 11.282 371.498 14.198 367.7 14.198H367.448C365.162 14.198 363.938 13.154 363.506 12.722V17.438H359.996Z" fill="#C1A875" style="mix-blend-mode:color"/>
<defs>
<linearGradient id="paint0_linear_2017_679" x1="2" y1="6" x2="374" y2="6.00003" gradientUnits="userSpaceOnUse">
<stop stop-color="#576167"/>
<stop offset="0.191294" stop-color="#9EA1A2"/>
<stop offset="0.396166" stop-color="#848989"/>
<stop offset="0.62055" stop-color="#576167"/>
<stop offset="0.830299" stop-color="#757A7C"/>
<stop offset="1" stop-color="#576167"/>
</linearGradient>
<radialGradient id="paint1_radial_2017_679" cx="0" cy="0" r="1" gradientUnits="userSpaceOnUse" gradientTransform="translate(200.109 -3.20225) rotate(90) scale(17.8315 281.43)">
<stop stop-color="white"/>
<stop offset="1" stop-color="white" stop-opacity="0"/>
</radialGradient>
<radialGradient id="paint2_radial_2017_679" cx="0" cy="0" r="1" gradientUnits="userSpaceOnUse" gradientTransform="translate(221.15 23.6629) rotate(-88.6648) scale(25.5575 402.329)">
<stop stop-color="white"/>
<stop offset="1" stop-color="white" stop-opacity="0"/>
</radialGradient>
</defs>
</svg>
