<svg width="294" height="18" viewBox="0 0 294 18" fill="none" xmlns="http://www.w3.org/2000/svg">
<path d="M0.0912476 0.608H14.7072V3.38C14.0952 4.28 12.9252 6.026 11.7192 7.862C9.82925 10.706 9.45125 11.894 9.45125 13.64V14H5.40125V13.136C5.40125 10.976 5.95925 9.788 8.31725 7.142C9.90125 5.378 11.4132 3.758 11.4132 3.524H3.74525V5.846H0.0912476V0.608ZM20.8078 10.508V14H16.6138V10.508H20.8078ZM29.656 14V0.608H43.534V14H39.826V3.56H33.364V14H29.656ZM55.8294 9.014V8.96C55.8294 7.88 55.3254 6.422 53.1294 6.422H52.9494C50.8434 6.422 50.1774 7.808 50.1774 8.96V9.014C50.1774 10.112 50.8434 11.552 52.9494 11.552H53.1294C55.3254 11.552 55.8294 10.04 55.8294 9.014ZM46.6854 17.438V4.01H50.1594V5.288C50.5914 4.82 51.9054 3.812 54.1734 3.812H54.4074C58.2234 3.812 59.4654 6.422 59.4654 8.798V9.104C59.4654 11.282 58.1874 14.198 54.3894 14.198H54.1374C51.8514 14.198 50.6274 13.154 50.1954 12.722V17.438H46.6854ZM68.1712 14.27H67.6132C62.2312 14.27 61.4032 10.994 61.4032 9.176V8.924C61.4032 7.124 62.2312 3.74 67.5952 3.74H68.1892C73.7332 3.74 74.3812 7.142 74.3812 8.906V9.194C74.3812 10.994 73.7332 14.27 68.1712 14.27ZM67.7932 11.642H67.9912C70.2052 11.642 70.7632 10.058 70.7632 8.96C70.7632 7.826 70.2052 6.314 67.9912 6.314H67.7932C65.4892 6.314 65.0212 7.826 65.0212 8.96C65.0212 10.058 65.4892 11.642 67.7932 11.642ZM85.0399 14H76.7959V4.01H84.6799C86.9659 4.01 88.4059 4.82 88.4059 6.404V6.494C88.4059 7.736 87.6139 8.474 86.4079 8.672C87.6319 8.816 88.7299 9.68 88.7299 11.12V11.192C88.7299 13.01 87.5419 14 85.0399 14ZM80.3059 7.988H83.5279C84.3739 7.988 84.8059 7.664 84.8059 7.034V6.944C84.8059 6.368 84.4099 6.026 83.5279 6.026H80.3059V7.988ZM80.3059 11.984H83.6719C84.6079 11.984 85.1299 11.678 85.1299 10.976V10.832C85.1299 10.202 84.6979 9.806 83.6719 9.806H80.3059V11.984ZM99.5988 7.952L94.7748 14H91.1748V4.01H94.6848V10.058L99.5088 4.01H103.109V14H99.5988V7.952ZM105.2 16.124V11.336H106.406C107.09 9.968 107.198 6.998 107.288 4.01H117.854V11.336H119.654V16.124H116.324V14H108.53V16.124H105.2ZM109.718 11.336H114.344V6.674H110.438C110.384 7.97 110.204 9.95 109.718 11.336ZM127.381 6.08C125.563 6.08 124.879 6.818 124.699 7.862H129.991C129.991 7.124 129.631 6.08 127.381 6.08ZM130.063 10.886H133.717C133.717 11.714 133.069 14.234 127.903 14.234H127.237C122.305 14.234 121.081 11.534 121.081 9.14V8.888C121.081 6.638 122.197 3.794 126.931 3.794H127.723C132.835 3.794 133.753 6.638 133.753 9.428V9.752H124.663C124.807 10.904 125.545 11.84 127.687 11.84C129.721 11.84 129.973 11.048 130.063 10.886ZM149.513 11.336V16.124H146.183V14H136.157V4.01H139.667V11.336H144.203V4.01H147.713V11.336H149.513ZM159.674 14V6.674H155.804V4.01H167.054V6.674H163.184V14H159.674ZM174.772 6.08C172.954 6.08 172.27 6.818 172.09 7.862H177.382C177.382 7.124 177.022 6.08 174.772 6.08ZM177.454 10.886H181.108C181.108 11.714 180.46 14.234 175.294 14.234H174.628C169.696 14.234 168.472 11.534 168.472 9.14V8.888C168.472 6.638 169.588 3.794 174.322 3.794H175.114C180.226 3.794 181.144 6.638 181.144 9.428V9.752H172.054C172.198 10.904 172.936 11.84 175.078 11.84C177.112 11.84 177.364 11.048 177.454 10.886ZM191.364 14L188.682 11.138L186.072 14H182.094L186.576 8.996L181.95 4.01H186.252L188.808 6.8L191.274 4.01H195.144L190.842 8.924L195.414 14H191.364ZM200.417 14H196.907V4.01H200.417V7.646H205.313V4.01H208.823V14H205.313V10.31H200.417V14ZM218.007 14.27H217.449C212.067 14.27 211.239 10.994 211.239 9.176V8.924C211.239 7.124 212.067 3.74 217.431 3.74H218.025C223.569 3.74 224.217 7.142 224.217 8.906V9.194C224.217 10.994 223.569 14.27 218.007 14.27ZM217.629 11.642H217.827C220.041 11.642 220.599 10.058 220.599 8.96C220.599 7.826 220.041 6.314 217.827 6.314H217.629C215.325 6.314 214.857 7.826 214.857 8.96C214.857 10.058 215.325 11.642 217.629 11.642ZM234.646 14V6.674H230.686C230.686 9.356 230.596 10.85 230.254 11.768C229.876 12.776 229.372 14 226.726 14H225.628V11.39H225.844C226.474 11.39 226.942 11.174 227.14 10.256C227.284 9.482 227.338 8.636 227.338 4.01H238.156V14H234.646ZM247.327 14.27H246.769C241.387 14.27 240.559 10.994 240.559 9.176V8.924C240.559 7.124 241.387 3.74 246.751 3.74H247.345C252.889 3.74 253.537 7.142 253.537 8.906V9.194C253.537 10.994 252.889 14.27 247.327 14.27ZM246.949 11.642H247.147C249.361 11.642 249.919 10.058 249.919 8.96C249.919 7.826 249.361 6.314 247.147 6.314H246.949C244.645 6.314 244.177 7.826 244.177 8.96C244.177 10.058 244.645 11.642 246.949 11.642ZM255.952 14V4.01H264.664V6.674H259.462V14H255.952ZM274.993 7.952L270.169 14H266.569V4.01H270.079V10.058L274.903 4.01H278.503V14H274.993V7.952ZM289.847 7.952L285.023 14H281.423V4.01H284.933V10.058L289.757 4.01H293.357V14H289.847V7.952ZM287.615 2.984H287.075C284.213 2.984 283.709 1.04 283.709 0.104V0.0499994H286.355C286.355 0.284 286.463 1.004 287.363 1.004C288.209 1.004 288.335 0.284 288.335 0.0499994H290.945V0.104C290.945 1.04 290.225 2.984 287.615 2.984Z" fill="url(#paint0_linear_2017_686)"/>
<path d="M0.0912476 0.608H14.7072V3.38C14.0952 4.28 12.9252 6.026 11.7192 7.862C9.82925 10.706 9.45125 11.894 9.45125 13.64V14H5.40125V13.136C5.40125 10.976 5.95925 9.788 8.31725 7.142C9.90125 5.378 11.4132 3.758 11.4132 3.524H3.74525V5.846H0.0912476V0.608ZM20.8078 10.508V14H16.6138V10.508H20.8078ZM29.656 14V0.608H43.534V14H39.826V3.56H33.364V14H29.656ZM55.8294 9.014V8.96C55.8294 7.88 55.3254 6.422 53.1294 6.422H52.9494C50.8434 6.422 50.1774 7.808 50.1774 8.96V9.014C50.1774 10.112 50.8434 11.552 52.9494 11.552H53.1294C55.3254 11.552 55.8294 10.04 55.8294 9.014ZM46.6854 17.438V4.01H50.1594V5.288C50.5914 4.82 51.9054 3.812 54.1734 3.812H54.4074C58.2234 3.812 59.4654 6.422 59.4654 8.798V9.104C59.4654 11.282 58.1874 14.198 54.3894 14.198H54.1374C51.8514 14.198 50.6274 13.154 50.1954 12.722V17.438H46.6854ZM68.1712 14.27H67.6132C62.2312 14.27 61.4032 10.994 61.4032 9.176V8.924C61.4032 7.124 62.2312 3.74 67.5952 3.74H68.1892C73.7332 3.74 74.3812 7.142 74.3812 8.906V9.194C74.3812 10.994 73.7332 14.27 68.1712 14.27ZM67.7932 11.642H67.9912C70.2052 11.642 70.7632 10.058 70.7632 8.96C70.7632 7.826 70.2052 6.314 67.9912 6.314H67.7932C65.4892 6.314 65.0212 7.826 65.0212 8.96C65.0212 10.058 65.4892 11.642 67.7932 11.642ZM85.0399 14H76.7959V4.01H84.6799C86.9659 4.01 88.4059 4.82 88.4059 6.404V6.494C88.4059 7.736 87.6139 8.474 86.4079 8.672C87.6319 8.816 88.7299 9.68 88.7299 11.12V11.192C88.7299 13.01 87.5419 14 85.0399 14ZM80.3059 7.988H83.5279C84.3739 7.988 84.8059 7.664 84.8059 7.034V6.944C84.8059 6.368 84.4099 6.026 83.5279 6.026H80.3059V7.988ZM80.3059 11.984H83.6719C84.6079 11.984 85.1299 11.678 85.1299 10.976V10.832C85.1299 10.202 84.6979 9.806 83.6719 9.806H80.3059V11.984ZM99.5988 7.952L94.7748 14H91.1748V4.01H94.6848V10.058L99.5088 4.01H103.109V14H99.5988V7.952ZM105.2 16.124V11.336H106.406C107.09 9.968 107.198 6.998 107.288 4.01H117.854V11.336H119.654V16.124H116.324V14H108.53V16.124H105.2ZM109.718 11.336H114.344V6.674H110.438C110.384 7.97 110.204 9.95 109.718 11.336ZM127.381 6.08C125.563 6.08 124.879 6.818 124.699 7.862H129.991C129.991 7.124 129.631 6.08 127.381 6.08ZM130.063 10.886H133.717C133.717 11.714 133.069 14.234 127.903 14.234H127.237C122.305 14.234 121.081 11.534 121.081 9.14V8.888C121.081 6.638 122.197 3.794 126.931 3.794H127.723C132.835 3.794 133.753 6.638 133.753 9.428V9.752H124.663C124.807 10.904 125.545 11.84 127.687 11.84C129.721 11.84 129.973 11.048 130.063 10.886ZM149.513 11.336V16.124H146.183V14H136.157V4.01H139.667V11.336H144.203V4.01H147.713V11.336H149.513ZM159.674 14V6.674H155.804V4.01H167.054V6.674H163.184V14H159.674ZM174.772 6.08C172.954 6.08 172.27 6.818 172.09 7.862H177.382C177.382 7.124 177.022 6.08 174.772 6.08ZM177.454 10.886H181.108C181.108 11.714 180.46 14.234 175.294 14.234H174.628C169.696 14.234 168.472 11.534 168.472 9.14V8.888C168.472 6.638 169.588 3.794 174.322 3.794H175.114C180.226 3.794 181.144 6.638 181.144 9.428V9.752H172.054C172.198 10.904 172.936 11.84 175.078 11.84C177.112 11.84 177.364 11.048 177.454 10.886ZM191.364 14L188.682 11.138L186.072 14H182.094L186.576 8.996L181.95 4.01H186.252L188.808 6.8L191.274 4.01H195.144L190.842 8.924L195.414 14H191.364ZM200.417 14H196.907V4.01H200.417V7.646H205.313V4.01H208.823V14H205.313V10.31H200.417V14ZM218.007 14.27H217.449C212.067 14.27 211.239 10.994 211.239 9.176V8.924C211.239 7.124 212.067 3.74 217.431 3.74H218.025C223.569 3.74 224.217 7.142 224.217 8.906V9.194C224.217 10.994 223.569 14.27 218.007 14.27ZM217.629 11.642H217.827C220.041 11.642 220.599 10.058 220.599 8.96C220.599 7.826 220.041 6.314 217.827 6.314H217.629C215.325 6.314 214.857 7.826 214.857 8.96C214.857 10.058 215.325 11.642 217.629 11.642ZM234.646 14V6.674H230.686C230.686 9.356 230.596 10.85 230.254 11.768C229.876 12.776 229.372 14 226.726 14H225.628V11.39H225.844C226.474 11.39 226.942 11.174 227.14 10.256C227.284 9.482 227.338 8.636 227.338 4.01H238.156V14H234.646ZM247.327 14.27H246.769C241.387 14.27 240.559 10.994 240.559 9.176V8.924C240.559 7.124 241.387 3.74 246.751 3.74H247.345C252.889 3.74 253.537 7.142 253.537 8.906V9.194C253.537 10.994 252.889 14.27 247.327 14.27ZM246.949 11.642H247.147C249.361 11.642 249.919 10.058 249.919 8.96C249.919 7.826 249.361 6.314 247.147 6.314H246.949C244.645 6.314 244.177 7.826 244.177 8.96C244.177 10.058 244.645 11.642 246.949 11.642ZM255.952 14V4.01H264.664V6.674H259.462V14H255.952ZM274.993 7.952L270.169 14H266.569V4.01H270.079V10.058L274.903 4.01H278.503V14H274.993V7.952ZM289.847 7.952L285.023 14H281.423V4.01H284.933V10.058L289.757 4.01H293.357V14H289.847V7.952ZM287.615 2.984H287.075C284.213 2.984 283.709 1.04 283.709 0.104V0.0499994H286.355C286.355 0.284 286.463 1.004 287.363 1.004C288.209 1.004 288.335 0.284 288.335 0.0499994H290.945V0.104C290.945 1.04 290.225 2.984 287.615 2.984Z" fill="url(#paint1_radial_2017_686)" style="mix-blend-mode:overlay"/>
<path d="M0.0912476 0.608H14.7072V3.38C14.0952 4.28 12.9252 6.026 11.7192 7.862C9.82925 10.706 9.45125 11.894 9.45125 13.64V14H5.40125V13.136C5.40125 10.976 5.95925 9.788 8.31725 7.142C9.90125 5.378 11.4132 3.758 11.4132 3.524H3.74525V5.846H0.0912476V0.608ZM20.8078 10.508V14H16.6138V10.508H20.8078ZM29.656 14V0.608H43.534V14H39.826V3.56H33.364V14H29.656ZM55.8294 9.014V8.96C55.8294 7.88 55.3254 6.422 53.1294 6.422H52.9494C50.8434 6.422 50.1774 7.808 50.1774 8.96V9.014C50.1774 10.112 50.8434 11.552 52.9494 11.552H53.1294C55.3254 11.552 55.8294 10.04 55.8294 9.014ZM46.6854 17.438V4.01H50.1594V5.288C50.5914 4.82 51.9054 3.812 54.1734 3.812H54.4074C58.2234 3.812 59.4654 6.422 59.4654 8.798V9.104C59.4654 11.282 58.1874 14.198 54.3894 14.198H54.1374C51.8514 14.198 50.6274 13.154 50.1954 12.722V17.438H46.6854ZM68.1712 14.27H67.6132C62.2312 14.27 61.4032 10.994 61.4032 9.176V8.924C61.4032 7.124 62.2312 3.74 67.5952 3.74H68.1892C73.7332 3.74 74.3812 7.142 74.3812 8.906V9.194C74.3812 10.994 73.7332 14.27 68.1712 14.27ZM67.7932 11.642H67.9912C70.2052 11.642 70.7632 10.058 70.7632 8.96C70.7632 7.826 70.2052 6.314 67.9912 6.314H67.7932C65.4892 6.314 65.0212 7.826 65.0212 8.96C65.0212 10.058 65.4892 11.642 67.7932 11.642ZM85.0399 14H76.7959V4.01H84.6799C86.9659 4.01 88.4059 4.82 88.4059 6.404V6.494C88.4059 7.736 87.6139 8.474 86.4079 8.672C87.6319 8.816 88.7299 9.68 88.7299 11.12V11.192C88.7299 13.01 87.5419 14 85.0399 14ZM80.3059 7.988H83.5279C84.3739 7.988 84.8059 7.664 84.8059 7.034V6.944C84.8059 6.368 84.4099 6.026 83.5279 6.026H80.3059V7.988ZM80.3059 11.984H83.6719C84.6079 11.984 85.1299 11.678 85.1299 10.976V10.832C85.1299 10.202 84.6979 9.806 83.6719 9.806H80.3059V11.984ZM99.5988 7.952L94.7748 14H91.1748V4.01H94.6848V10.058L99.5088 4.01H103.109V14H99.5988V7.952ZM105.2 16.124V11.336H106.406C107.09 9.968 107.198 6.998 107.288 4.01H117.854V11.336H119.654V16.124H116.324V14H108.53V16.124H105.2ZM109.718 11.336H114.344V6.674H110.438C110.384 7.97 110.204 9.95 109.718 11.336ZM127.381 6.08C125.563 6.08 124.879 6.818 124.699 7.862H129.991C129.991 7.124 129.631 6.08 127.381 6.08ZM130.063 10.886H133.717C133.717 11.714 133.069 14.234 127.903 14.234H127.237C122.305 14.234 121.081 11.534 121.081 9.14V8.888C121.081 6.638 122.197 3.794 126.931 3.794H127.723C132.835 3.794 133.753 6.638 133.753 9.428V9.752H124.663C124.807 10.904 125.545 11.84 127.687 11.84C129.721 11.84 129.973 11.048 130.063 10.886ZM149.513 11.336V16.124H146.183V14H136.157V4.01H139.667V11.336H144.203V4.01H147.713V11.336H149.513ZM159.674 14V6.674H155.804V4.01H167.054V6.674H163.184V14H159.674ZM174.772 6.08C172.954 6.08 172.27 6.818 172.09 7.862H177.382C177.382 7.124 177.022 6.08 174.772 6.08ZM177.454 10.886H181.108C181.108 11.714 180.46 14.234 175.294 14.234H174.628C169.696 14.234 168.472 11.534 168.472 9.14V8.888C168.472 6.638 169.588 3.794 174.322 3.794H175.114C180.226 3.794 181.144 6.638 181.144 9.428V9.752H172.054C172.198 10.904 172.936 11.84 175.078 11.84C177.112 11.84 177.364 11.048 177.454 10.886ZM191.364 14L188.682 11.138L186.072 14H182.094L186.576 8.996L181.95 4.01H186.252L188.808 6.8L191.274 4.01H195.144L190.842 8.924L195.414 14H191.364ZM200.417 14H196.907V4.01H200.417V7.646H205.313V4.01H208.823V14H205.313V10.31H200.417V14ZM218.007 14.27H217.449C212.067 14.27 211.239 10.994 211.239 9.176V8.924C211.239 7.124 212.067 3.74 217.431 3.74H218.025C223.569 3.74 224.217 7.142 224.217 8.906V9.194C224.217 10.994 223.569 14.27 218.007 14.27ZM217.629 11.642H217.827C220.041 11.642 220.599 10.058 220.599 8.96C220.599 7.826 220.041 6.314 217.827 6.314H217.629C215.325 6.314 214.857 7.826 214.857 8.96C214.857 10.058 215.325 11.642 217.629 11.642ZM234.646 14V6.674H230.686C230.686 9.356 230.596 10.85 230.254 11.768C229.876 12.776 229.372 14 226.726 14H225.628V11.39H225.844C226.474 11.39 226.942 11.174 227.14 10.256C227.284 9.482 227.338 8.636 227.338 4.01H238.156V14H234.646ZM247.327 14.27H246.769C241.387 14.27 240.559 10.994 240.559 9.176V8.924C240.559 7.124 241.387 3.74 246.751 3.74H247.345C252.889 3.74 253.537 7.142 253.537 8.906V9.194C253.537 10.994 252.889 14.27 247.327 14.27ZM246.949 11.642H247.147C249.361 11.642 249.919 10.058 249.919 8.96C249.919 7.826 249.361 6.314 247.147 6.314H246.949C244.645 6.314 244.177 7.826 244.177 8.96C244.177 10.058 244.645 11.642 246.949 11.642ZM255.952 14V4.01H264.664V6.674H259.462V14H255.952ZM274.993 7.952L270.169 14H266.569V4.01H270.079V10.058L274.903 4.01H278.503V14H274.993V7.952ZM289.847 7.952L285.023 14H281.423V4.01H284.933V10.058L289.757 4.01H293.357V14H289.847V7.952ZM287.615 2.984H287.075C284.213 2.984 283.709 1.04 283.709 0.104V0.0499994H286.355C286.355 0.284 286.463 1.004 287.363 1.004C288.209 1.004 288.335 0.284 288.335 0.0499994H290.945V0.104C290.945 1.04 290.225 2.984 287.615 2.984Z" fill="url(#paint2_radial_2017_686)"/>
<path d="M0.0912476 0.608H14.7072V3.38C14.0952 4.28 12.9252 6.026 11.7192 7.862C9.82925 10.706 9.45125 11.894 9.45125 13.64V14H5.40125V13.136C5.40125 10.976 5.95925 9.788 8.31725 7.142C9.90125 5.378 11.4132 3.758 11.4132 3.524H3.74525V5.846H0.0912476V0.608ZM20.8078 10.508V14H16.6138V10.508H20.8078ZM29.656 14V0.608H43.534V14H39.826V3.56H33.364V14H29.656ZM55.8294 9.014V8.96C55.8294 7.88 55.3254 6.422 53.1294 6.422H52.9494C50.8434 6.422 50.1774 7.808 50.1774 8.96V9.014C50.1774 10.112 50.8434 11.552 52.9494 11.552H53.1294C55.3254 11.552 55.8294 10.04 55.8294 9.014ZM46.6854 17.438V4.01H50.1594V5.288C50.5914 4.82 51.9054 3.812 54.1734 3.812H54.4074C58.2234 3.812 59.4654 6.422 59.4654 8.798V9.104C59.4654 11.282 58.1874 14.198 54.3894 14.198H54.1374C51.8514 14.198 50.6274 13.154 50.1954 12.722V17.438H46.6854ZM68.1712 14.27H67.6132C62.2312 14.27 61.4032 10.994 61.4032 9.176V8.924C61.4032 7.124 62.2312 3.74 67.5952 3.74H68.1892C73.7332 3.74 74.3812 7.142 74.3812 8.906V9.194C74.3812 10.994 73.7332 14.27 68.1712 14.27ZM67.7932 11.642H67.9912C70.2052 11.642 70.7632 10.058 70.7632 8.96C70.7632 7.826 70.2052 6.314 67.9912 6.314H67.7932C65.4892 6.314 65.0212 7.826 65.0212 8.96C65.0212 10.058 65.4892 11.642 67.7932 11.642ZM85.0399 14H76.7959V4.01H84.6799C86.9659 4.01 88.4059 4.82 88.4059 6.404V6.494C88.4059 7.736 87.6139 8.474 86.4079 8.672C87.6319 8.816 88.7299 9.68 88.7299 11.12V11.192C88.7299 13.01 87.5419 14 85.0399 14ZM80.3059 7.988H83.5279C84.3739 7.988 84.8059 7.664 84.8059 7.034V6.944C84.8059 6.368 84.4099 6.026 83.5279 6.026H80.3059V7.988ZM80.3059 11.984H83.6719C84.6079 11.984 85.1299 11.678 85.1299 10.976V10.832C85.1299 10.202 84.6979 9.806 83.6719 9.806H80.3059V11.984ZM99.5988 7.952L94.7748 14H91.1748V4.01H94.6848V10.058L99.5088 4.01H103.109V14H99.5988V7.952ZM105.2 16.124V11.336H106.406C107.09 9.968 107.198 6.998 107.288 4.01H117.854V11.336H119.654V16.124H116.324V14H108.53V16.124H105.2ZM109.718 11.336H114.344V6.674H110.438C110.384 7.97 110.204 9.95 109.718 11.336ZM127.381 6.08C125.563 6.08 124.879 6.818 124.699 7.862H129.991C129.991 7.124 129.631 6.08 127.381 6.08ZM130.063 10.886H133.717C133.717 11.714 133.069 14.234 127.903 14.234H127.237C122.305 14.234 121.081 11.534 121.081 9.14V8.888C121.081 6.638 122.197 3.794 126.931 3.794H127.723C132.835 3.794 133.753 6.638 133.753 9.428V9.752H124.663C124.807 10.904 125.545 11.84 127.687 11.84C129.721 11.84 129.973 11.048 130.063 10.886ZM149.513 11.336V16.124H146.183V14H136.157V4.01H139.667V11.336H144.203V4.01H147.713V11.336H149.513ZM159.674 14V6.674H155.804V4.01H167.054V6.674H163.184V14H159.674ZM174.772 6.08C172.954 6.08 172.27 6.818 172.09 7.862H177.382C177.382 7.124 177.022 6.08 174.772 6.08ZM177.454 10.886H181.108C181.108 11.714 180.46 14.234 175.294 14.234H174.628C169.696 14.234 168.472 11.534 168.472 9.14V8.888C168.472 6.638 169.588 3.794 174.322 3.794H175.114C180.226 3.794 181.144 6.638 181.144 9.428V9.752H172.054C172.198 10.904 172.936 11.84 175.078 11.84C177.112 11.84 177.364 11.048 177.454 10.886ZM191.364 14L188.682 11.138L186.072 14H182.094L186.576 8.996L181.95 4.01H186.252L188.808 6.8L191.274 4.01H195.144L190.842 8.924L195.414 14H191.364ZM200.417 14H196.907V4.01H200.417V7.646H205.313V4.01H208.823V14H205.313V10.31H200.417V14ZM218.007 14.27H217.449C212.067 14.27 211.239 10.994 211.239 9.176V8.924C211.239 7.124 212.067 3.74 217.431 3.74H218.025C223.569 3.74 224.217 7.142 224.217 8.906V9.194C224.217 10.994 223.569 14.27 218.007 14.27ZM217.629 11.642H217.827C220.041 11.642 220.599 10.058 220.599 8.96C220.599 7.826 220.041 6.314 217.827 6.314H217.629C215.325 6.314 214.857 7.826 214.857 8.96C214.857 10.058 215.325 11.642 217.629 11.642ZM234.646 14V6.674H230.686C230.686 9.356 230.596 10.85 230.254 11.768C229.876 12.776 229.372 14 226.726 14H225.628V11.39H225.844C226.474 11.39 226.942 11.174 227.14 10.256C227.284 9.482 227.338 8.636 227.338 4.01H238.156V14H234.646ZM247.327 14.27H246.769C241.387 14.27 240.559 10.994 240.559 9.176V8.924C240.559 7.124 241.387 3.74 246.751 3.74H247.345C252.889 3.74 253.537 7.142 253.537 8.906V9.194C253.537 10.994 252.889 14.27 247.327 14.27ZM246.949 11.642H247.147C249.361 11.642 249.919 10.058 249.919 8.96C249.919 7.826 249.361 6.314 247.147 6.314H246.949C244.645 6.314 244.177 7.826 244.177 8.96C244.177 10.058 244.645 11.642 246.949 11.642ZM255.952 14V4.01H264.664V6.674H259.462V14H255.952ZM274.993 7.952L270.169 14H266.569V4.01H270.079V10.058L274.903 4.01H278.503V14H274.993V7.952ZM289.847 7.952L285.023 14H281.423V4.01H284.933V10.058L289.757 4.01H293.357V14H289.847V7.952ZM287.615 2.984H287.075C284.213 2.984 283.709 1.04 283.709 0.104V0.0499994H286.355C286.355 0.284 286.463 1.004 287.363 1.004C288.209 1.004 288.335 0.284 288.335 0.0499994H290.945V0.104C290.945 1.04 290.225 2.984 287.615 2.984Z" fill="#C1A875" style="mix-blend-mode:color"/>
<defs>
<linearGradient id="paint0_linear_2017_686" x1="1" y1="6" x2="295" y2="6.00002" gradientUnits="userSpaceOnUse">
<stop stop-color="#576167"/>
<stop offset="0.191294" stop-color="#9EA1A2"/>
<stop offset="0.396166" stop-color="#848989"/>
<stop offset="0.62055" stop-color="#576167"/>
<stop offset="0.830299" stop-color="#757A7C"/>
<stop offset="1" stop-color="#576167"/>
</linearGradient>
<radialGradient id="paint1_radial_2017_686" cx="0" cy="0" r="1" gradientUnits="userSpaceOnUse" gradientTransform="translate(157.57 -3.20225) rotate(90) scale(17.8315 222.421)">
<stop stop-color="white"/>
<stop offset="1" stop-color="white" stop-opacity="0"/>
</radialGradient>
<radialGradient id="paint2_radial_2017_686" cx="0" cy="0" r="1" gradientUnits="userSpaceOnUse" gradientTransform="translate(174.2 23.6629) rotate(-88.9447) scale(25.5549 318.002)">
<stop stop-color="white"/>
<stop offset="1" stop-color="white" stop-opacity="0"/>
</radialGradient>
</defs>
</svg>
