<svg width="266" height="18" viewBox="0 0 266 18" fill="none" xmlns="http://www.w3.org/2000/svg">
<path d="M7.76925 0.481999H8.52525C14.5192 0.481999 15.0772 2.714 15.0772 4.082V4.298C15.0772 5.756 13.7272 6.746 12.3952 6.98C14.0152 7.268 15.4012 8.33 15.4012 9.968V10.202C15.4012 11.66 14.6632 14.216 8.52525 14.216H7.76925C1.59525 14.216 0.893248 11.66 0.893248 10.202V9.968C0.893248 8.33 2.29725 7.268 3.88125 6.98C2.58525 6.746 1.21725 5.846 1.21725 4.298V4.082C1.21725 2.714 1.81125 0.481999 7.76925 0.481999ZM8.14725 3.2C5.48325 3.2 5.12325 3.938 5.12325 4.442V4.514C5.12325 5.036 5.50125 5.684 8.14725 5.684C10.8112 5.684 11.1532 5.036 11.1532 4.514V4.442C11.1532 3.938 10.8292 3.2 8.14725 3.2ZM8.14725 8.42C5.19525 8.42 4.79925 9.212 4.79925 9.77V9.824C4.79925 10.436 5.19525 11.336 8.14725 11.336C11.0992 11.336 11.4952 10.436 11.4952 9.824V9.77C11.4952 9.212 11.0992 8.42 8.14725 8.42ZM21.8078 10.508V14H17.6138V10.508H21.8078ZM30.656 14V0.608H35.588L39.854 9.68L44.246 0.608H48.872V14H45.254V5.234L41.186 14H38.288L34.22 5.234V14H30.656ZM57.8052 6.08C55.9872 6.08 55.3032 6.818 55.1232 7.862H60.4152C60.4152 7.124 60.0552 6.08 57.8052 6.08ZM60.4872 10.886H64.1412C64.1412 11.714 63.4932 14.234 58.3272 14.234H57.6612C52.7292 14.234 51.5052 11.534 51.5052 9.14V8.888C51.5052 6.638 52.6212 3.794 57.3552 3.794H58.1472C63.2592 3.794 64.1772 6.638 64.1772 9.428V9.752H55.0872C55.2312 10.904 55.9692 11.84 58.1112 11.84C60.1452 11.84 60.3972 11.048 60.4872 10.886ZM70.091 14H66.581V4.01H70.091V7.646H74.987V4.01H78.497V14H74.987V10.31H70.091V14ZM84.279 14V6.674H80.409V4.01H91.659V6.674H87.789V14H84.279ZM99.8275 14.27H99.2695C93.8875 14.27 93.0595 10.994 93.0595 9.176V8.924C93.0595 7.124 93.8875 3.74 99.2515 3.74H99.8455C105.389 3.74 106.037 7.142 106.037 8.906V9.194C106.037 10.994 105.389 14.27 99.8275 14.27ZM99.4495 11.642H99.6475C101.861 11.642 102.419 10.058 102.419 8.96C102.419 7.826 101.861 6.314 99.6475 6.314H99.4495C97.1455 6.314 96.6775 7.826 96.6775 8.96C96.6775 10.058 97.1455 11.642 99.4495 11.642ZM117.632 9.014V8.96C117.632 7.88 117.128 6.422 114.932 6.422H114.752C112.646 6.422 111.98 7.808 111.98 8.96V9.014C111.98 10.112 112.646 11.552 114.752 11.552H114.932C117.128 11.552 117.632 10.04 117.632 9.014ZM108.488 17.438V4.01H111.962V5.288C112.394 4.82 113.708 3.812 115.976 3.812H116.21C120.026 3.812 121.268 6.422 121.268 8.798V9.104C121.268 11.282 119.99 14.198 116.192 14.198H115.94C113.654 14.198 112.43 13.154 111.998 12.722V17.438H108.488ZM137.157 14H128.913V4.01H136.797C139.083 4.01 140.523 4.82 140.523 6.404V6.494C140.523 7.736 139.731 8.474 138.525 8.672C139.749 8.816 140.847 9.68 140.847 11.12V11.192C140.847 13.01 139.659 14 137.157 14ZM132.423 7.988H135.645C136.491 7.988 136.923 7.664 136.923 7.034V6.944C136.923 6.368 136.527 6.026 135.645 6.026H132.423V7.988ZM132.423 11.984H135.789C136.725 11.984 137.247 11.678 137.247 10.976V10.832C137.247 10.202 136.815 9.806 135.789 9.806H132.423V11.984ZM156.847 10.076H160.519C160.519 11.588 159.619 14.27 154.813 14.27H153.931C148.945 14.27 148.009 11.03 148.009 9.14V8.888C148.009 6.998 148.891 3.74 153.913 3.74H154.741C159.565 3.74 160.519 6.368 160.519 7.808V7.826H156.847C156.793 7.538 156.451 6.296 154.381 6.296H154.201C152.131 6.296 151.645 7.718 151.645 8.924V8.942C151.645 10.184 152.239 11.66 154.273 11.66H154.453C156.541 11.66 156.847 10.31 156.847 10.076ZM173.169 14.27H172.647V17.384H169.137V14.27H168.615C163.053 14.27 162.405 10.994 162.405 9.194V8.906C162.405 7.142 163.053 3.74 168.597 3.74H169.137V0.608H172.647V3.74H173.187C178.731 3.74 179.379 7.142 179.379 8.906V9.194C179.379 10.994 178.731 14.27 173.169 14.27ZM168.795 11.732H169.137V6.224H168.795C166.581 6.224 166.023 7.646 166.023 8.96C166.023 10.238 166.581 11.732 168.795 11.732ZM172.989 6.224H172.647V11.732H172.989C175.203 11.732 175.761 10.238 175.761 8.96C175.761 7.664 175.203 6.224 172.989 6.224ZM187.602 6.08C185.784 6.08 185.1 6.818 184.92 7.862H190.212C190.212 7.124 189.852 6.08 187.602 6.08ZM190.284 10.886H193.938C193.938 11.714 193.29 14.234 188.124 14.234H187.458C182.526 14.234 181.302 11.534 181.302 9.14V8.888C181.302 6.638 182.418 3.794 187.152 3.794H187.944C193.056 3.794 193.974 6.638 193.974 9.428V9.752H184.884C185.028 10.904 185.766 11.84 187.908 11.84C189.942 11.84 190.194 11.048 190.284 10.886ZM205.558 9.014V8.96C205.558 7.88 205.054 6.422 202.858 6.422H202.678C200.572 6.422 199.906 7.808 199.906 8.96V9.014C199.906 10.112 200.572 11.552 202.678 11.552H202.858C205.054 11.552 205.558 10.04 205.558 9.014ZM196.414 17.438V4.01H199.888V5.288C200.32 4.82 201.634 3.812 203.902 3.812H204.136C207.952 3.812 209.194 6.422 209.194 8.798V9.104C209.194 11.282 207.916 14.198 204.118 14.198H203.866C201.58 14.198 200.356 13.154 199.924 12.722V17.438H196.414ZM217.45 6.08C215.632 6.08 214.948 6.818 214.768 7.862H220.06C220.06 7.124 219.7 6.08 217.45 6.08ZM220.132 10.886H223.786C223.786 11.714 223.138 14.234 217.972 14.234H217.306C212.374 14.234 211.15 11.534 211.15 9.14V8.888C211.15 6.638 212.266 3.794 217 3.794H217.792C222.904 3.794 223.822 6.638 223.822 9.428V9.752H214.732C214.876 10.904 215.614 11.84 217.756 11.84C219.79 11.84 220.042 11.048 220.132 10.886ZM243.165 14V5L235.335 14H231.627V0.608H235.335V9.608L243.165 0.608H246.873V14H243.165ZM261.727 14V5L253.897 14H250.189V0.608H253.897V9.608L261.727 0.608H265.435V14H261.727Z" fill="url(#paint0_linear_2017_693)"/>
<path d="M7.76925 0.481999H8.52525C14.5192 0.481999 15.0772 2.714 15.0772 4.082V4.298C15.0772 5.756 13.7272 6.746 12.3952 6.98C14.0152 7.268 15.4012 8.33 15.4012 9.968V10.202C15.4012 11.66 14.6632 14.216 8.52525 14.216H7.76925C1.59525 14.216 0.893248 11.66 0.893248 10.202V9.968C0.893248 8.33 2.29725 7.268 3.88125 6.98C2.58525 6.746 1.21725 5.846 1.21725 4.298V4.082C1.21725 2.714 1.81125 0.481999 7.76925 0.481999ZM8.14725 3.2C5.48325 3.2 5.12325 3.938 5.12325 4.442V4.514C5.12325 5.036 5.50125 5.684 8.14725 5.684C10.8112 5.684 11.1532 5.036 11.1532 4.514V4.442C11.1532 3.938 10.8292 3.2 8.14725 3.2ZM8.14725 8.42C5.19525 8.42 4.79925 9.212 4.79925 9.77V9.824C4.79925 10.436 5.19525 11.336 8.14725 11.336C11.0992 11.336 11.4952 10.436 11.4952 9.824V9.77C11.4952 9.212 11.0992 8.42 8.14725 8.42ZM21.8078 10.508V14H17.6138V10.508H21.8078ZM30.656 14V0.608H35.588L39.854 9.68L44.246 0.608H48.872V14H45.254V5.234L41.186 14H38.288L34.22 5.234V14H30.656ZM57.8052 6.08C55.9872 6.08 55.3032 6.818 55.1232 7.862H60.4152C60.4152 7.124 60.0552 6.08 57.8052 6.08ZM60.4872 10.886H64.1412C64.1412 11.714 63.4932 14.234 58.3272 14.234H57.6612C52.7292 14.234 51.5052 11.534 51.5052 9.14V8.888C51.5052 6.638 52.6212 3.794 57.3552 3.794H58.1472C63.2592 3.794 64.1772 6.638 64.1772 9.428V9.752H55.0872C55.2312 10.904 55.9692 11.84 58.1112 11.84C60.1452 11.84 60.3972 11.048 60.4872 10.886ZM70.091 14H66.581V4.01H70.091V7.646H74.987V4.01H78.497V14H74.987V10.31H70.091V14ZM84.279 14V6.674H80.409V4.01H91.659V6.674H87.789V14H84.279ZM99.8275 14.27H99.2695C93.8875 14.27 93.0595 10.994 93.0595 9.176V8.924C93.0595 7.124 93.8875 3.74 99.2515 3.74H99.8455C105.389 3.74 106.037 7.142 106.037 8.906V9.194C106.037 10.994 105.389 14.27 99.8275 14.27ZM99.4495 11.642H99.6475C101.861 11.642 102.419 10.058 102.419 8.96C102.419 7.826 101.861 6.314 99.6475 6.314H99.4495C97.1455 6.314 96.6775 7.826 96.6775 8.96C96.6775 10.058 97.1455 11.642 99.4495 11.642ZM117.632 9.014V8.96C117.632 7.88 117.128 6.422 114.932 6.422H114.752C112.646 6.422 111.98 7.808 111.98 8.96V9.014C111.98 10.112 112.646 11.552 114.752 11.552H114.932C117.128 11.552 117.632 10.04 117.632 9.014ZM108.488 17.438V4.01H111.962V5.288C112.394 4.82 113.708 3.812 115.976 3.812H116.21C120.026 3.812 121.268 6.422 121.268 8.798V9.104C121.268 11.282 119.99 14.198 116.192 14.198H115.94C113.654 14.198 112.43 13.154 111.998 12.722V17.438H108.488ZM137.157 14H128.913V4.01H136.797C139.083 4.01 140.523 4.82 140.523 6.404V6.494C140.523 7.736 139.731 8.474 138.525 8.672C139.749 8.816 140.847 9.68 140.847 11.12V11.192C140.847 13.01 139.659 14 137.157 14ZM132.423 7.988H135.645C136.491 7.988 136.923 7.664 136.923 7.034V6.944C136.923 6.368 136.527 6.026 135.645 6.026H132.423V7.988ZM132.423 11.984H135.789C136.725 11.984 137.247 11.678 137.247 10.976V10.832C137.247 10.202 136.815 9.806 135.789 9.806H132.423V11.984ZM156.847 10.076H160.519C160.519 11.588 159.619 14.27 154.813 14.27H153.931C148.945 14.27 148.009 11.03 148.009 9.14V8.888C148.009 6.998 148.891 3.74 153.913 3.74H154.741C159.565 3.74 160.519 6.368 160.519 7.808V7.826H156.847C156.793 7.538 156.451 6.296 154.381 6.296H154.201C152.131 6.296 151.645 7.718 151.645 8.924V8.942C151.645 10.184 152.239 11.66 154.273 11.66H154.453C156.541 11.66 156.847 10.31 156.847 10.076ZM173.169 14.27H172.647V17.384H169.137V14.27H168.615C163.053 14.27 162.405 10.994 162.405 9.194V8.906C162.405 7.142 163.053 3.74 168.597 3.74H169.137V0.608H172.647V3.74H173.187C178.731 3.74 179.379 7.142 179.379 8.906V9.194C179.379 10.994 178.731 14.27 173.169 14.27ZM168.795 11.732H169.137V6.224H168.795C166.581 6.224 166.023 7.646 166.023 8.96C166.023 10.238 166.581 11.732 168.795 11.732ZM172.989 6.224H172.647V11.732H172.989C175.203 11.732 175.761 10.238 175.761 8.96C175.761 7.664 175.203 6.224 172.989 6.224ZM187.602 6.08C185.784 6.08 185.1 6.818 184.92 7.862H190.212C190.212 7.124 189.852 6.08 187.602 6.08ZM190.284 10.886H193.938C193.938 11.714 193.29 14.234 188.124 14.234H187.458C182.526 14.234 181.302 11.534 181.302 9.14V8.888C181.302 6.638 182.418 3.794 187.152 3.794H187.944C193.056 3.794 193.974 6.638 193.974 9.428V9.752H184.884C185.028 10.904 185.766 11.84 187.908 11.84C189.942 11.84 190.194 11.048 190.284 10.886ZM205.558 9.014V8.96C205.558 7.88 205.054 6.422 202.858 6.422H202.678C200.572 6.422 199.906 7.808 199.906 8.96V9.014C199.906 10.112 200.572 11.552 202.678 11.552H202.858C205.054 11.552 205.558 10.04 205.558 9.014ZM196.414 17.438V4.01H199.888V5.288C200.32 4.82 201.634 3.812 203.902 3.812H204.136C207.952 3.812 209.194 6.422 209.194 8.798V9.104C209.194 11.282 207.916 14.198 204.118 14.198H203.866C201.58 14.198 200.356 13.154 199.924 12.722V17.438H196.414ZM217.45 6.08C215.632 6.08 214.948 6.818 214.768 7.862H220.06C220.06 7.124 219.7 6.08 217.45 6.08ZM220.132 10.886H223.786C223.786 11.714 223.138 14.234 217.972 14.234H217.306C212.374 14.234 211.15 11.534 211.15 9.14V8.888C211.15 6.638 212.266 3.794 217 3.794H217.792C222.904 3.794 223.822 6.638 223.822 9.428V9.752H214.732C214.876 10.904 215.614 11.84 217.756 11.84C219.79 11.84 220.042 11.048 220.132 10.886ZM243.165 14V5L235.335 14H231.627V0.608H235.335V9.608L243.165 0.608H246.873V14H243.165ZM261.727 14V5L253.897 14H250.189V0.608H253.897V9.608L261.727 0.608H265.435V14H261.727Z" fill="url(#paint1_radial_2017_693)" style="mix-blend-mode:overlay"/>
<path d="M7.76925 0.481999H8.52525C14.5192 0.481999 15.0772 2.714 15.0772 4.082V4.298C15.0772 5.756 13.7272 6.746 12.3952 6.98C14.0152 7.268 15.4012 8.33 15.4012 9.968V10.202C15.4012 11.66 14.6632 14.216 8.52525 14.216H7.76925C1.59525 14.216 0.893248 11.66 0.893248 10.202V9.968C0.893248 8.33 2.29725 7.268 3.88125 6.98C2.58525 6.746 1.21725 5.846 1.21725 4.298V4.082C1.21725 2.714 1.81125 0.481999 7.76925 0.481999ZM8.14725 3.2C5.48325 3.2 5.12325 3.938 5.12325 4.442V4.514C5.12325 5.036 5.50125 5.684 8.14725 5.684C10.8112 5.684 11.1532 5.036 11.1532 4.514V4.442C11.1532 3.938 10.8292 3.2 8.14725 3.2ZM8.14725 8.42C5.19525 8.42 4.79925 9.212 4.79925 9.77V9.824C4.79925 10.436 5.19525 11.336 8.14725 11.336C11.0992 11.336 11.4952 10.436 11.4952 9.824V9.77C11.4952 9.212 11.0992 8.42 8.14725 8.42ZM21.8078 10.508V14H17.6138V10.508H21.8078ZM30.656 14V0.608H35.588L39.854 9.68L44.246 0.608H48.872V14H45.254V5.234L41.186 14H38.288L34.22 5.234V14H30.656ZM57.8052 6.08C55.9872 6.08 55.3032 6.818 55.1232 7.862H60.4152C60.4152 7.124 60.0552 6.08 57.8052 6.08ZM60.4872 10.886H64.1412C64.1412 11.714 63.4932 14.234 58.3272 14.234H57.6612C52.7292 14.234 51.5052 11.534 51.5052 9.14V8.888C51.5052 6.638 52.6212 3.794 57.3552 3.794H58.1472C63.2592 3.794 64.1772 6.638 64.1772 9.428V9.752H55.0872C55.2312 10.904 55.9692 11.84 58.1112 11.84C60.1452 11.84 60.3972 11.048 60.4872 10.886ZM70.091 14H66.581V4.01H70.091V7.646H74.987V4.01H78.497V14H74.987V10.31H70.091V14ZM84.279 14V6.674H80.409V4.01H91.659V6.674H87.789V14H84.279ZM99.8275 14.27H99.2695C93.8875 14.27 93.0595 10.994 93.0595 9.176V8.924C93.0595 7.124 93.8875 3.74 99.2515 3.74H99.8455C105.389 3.74 106.037 7.142 106.037 8.906V9.194C106.037 10.994 105.389 14.27 99.8275 14.27ZM99.4495 11.642H99.6475C101.861 11.642 102.419 10.058 102.419 8.96C102.419 7.826 101.861 6.314 99.6475 6.314H99.4495C97.1455 6.314 96.6775 7.826 96.6775 8.96C96.6775 10.058 97.1455 11.642 99.4495 11.642ZM117.632 9.014V8.96C117.632 7.88 117.128 6.422 114.932 6.422H114.752C112.646 6.422 111.98 7.808 111.98 8.96V9.014C111.98 10.112 112.646 11.552 114.752 11.552H114.932C117.128 11.552 117.632 10.04 117.632 9.014ZM108.488 17.438V4.01H111.962V5.288C112.394 4.82 113.708 3.812 115.976 3.812H116.21C120.026 3.812 121.268 6.422 121.268 8.798V9.104C121.268 11.282 119.99 14.198 116.192 14.198H115.94C113.654 14.198 112.43 13.154 111.998 12.722V17.438H108.488ZM137.157 14H128.913V4.01H136.797C139.083 4.01 140.523 4.82 140.523 6.404V6.494C140.523 7.736 139.731 8.474 138.525 8.672C139.749 8.816 140.847 9.68 140.847 11.12V11.192C140.847 13.01 139.659 14 137.157 14ZM132.423 7.988H135.645C136.491 7.988 136.923 7.664 136.923 7.034V6.944C136.923 6.368 136.527 6.026 135.645 6.026H132.423V7.988ZM132.423 11.984H135.789C136.725 11.984 137.247 11.678 137.247 10.976V10.832C137.247 10.202 136.815 9.806 135.789 9.806H132.423V11.984ZM156.847 10.076H160.519C160.519 11.588 159.619 14.27 154.813 14.27H153.931C148.945 14.27 148.009 11.03 148.009 9.14V8.888C148.009 6.998 148.891 3.74 153.913 3.74H154.741C159.565 3.74 160.519 6.368 160.519 7.808V7.826H156.847C156.793 7.538 156.451 6.296 154.381 6.296H154.201C152.131 6.296 151.645 7.718 151.645 8.924V8.942C151.645 10.184 152.239 11.66 154.273 11.66H154.453C156.541 11.66 156.847 10.31 156.847 10.076ZM173.169 14.27H172.647V17.384H169.137V14.27H168.615C163.053 14.27 162.405 10.994 162.405 9.194V8.906C162.405 7.142 163.053 3.74 168.597 3.74H169.137V0.608H172.647V3.74H173.187C178.731 3.74 179.379 7.142 179.379 8.906V9.194C179.379 10.994 178.731 14.27 173.169 14.27ZM168.795 11.732H169.137V6.224H168.795C166.581 6.224 166.023 7.646 166.023 8.96C166.023 10.238 166.581 11.732 168.795 11.732ZM172.989 6.224H172.647V11.732H172.989C175.203 11.732 175.761 10.238 175.761 8.96C175.761 7.664 175.203 6.224 172.989 6.224ZM187.602 6.08C185.784 6.08 185.1 6.818 184.92 7.862H190.212C190.212 7.124 189.852 6.08 187.602 6.08ZM190.284 10.886H193.938C193.938 11.714 193.29 14.234 188.124 14.234H187.458C182.526 14.234 181.302 11.534 181.302 9.14V8.888C181.302 6.638 182.418 3.794 187.152 3.794H187.944C193.056 3.794 193.974 6.638 193.974 9.428V9.752H184.884C185.028 10.904 185.766 11.84 187.908 11.84C189.942 11.84 190.194 11.048 190.284 10.886ZM205.558 9.014V8.96C205.558 7.88 205.054 6.422 202.858 6.422H202.678C200.572 6.422 199.906 7.808 199.906 8.96V9.014C199.906 10.112 200.572 11.552 202.678 11.552H202.858C205.054 11.552 205.558 10.04 205.558 9.014ZM196.414 17.438V4.01H199.888V5.288C200.32 4.82 201.634 3.812 203.902 3.812H204.136C207.952 3.812 209.194 6.422 209.194 8.798V9.104C209.194 11.282 207.916 14.198 204.118 14.198H203.866C201.58 14.198 200.356 13.154 199.924 12.722V17.438H196.414ZM217.45 6.08C215.632 6.08 214.948 6.818 214.768 7.862H220.06C220.06 7.124 219.7 6.08 217.45 6.08ZM220.132 10.886H223.786C223.786 11.714 223.138 14.234 217.972 14.234H217.306C212.374 14.234 211.15 11.534 211.15 9.14V8.888C211.15 6.638 212.266 3.794 217 3.794H217.792C222.904 3.794 223.822 6.638 223.822 9.428V9.752H214.732C214.876 10.904 215.614 11.84 217.756 11.84C219.79 11.84 220.042 11.048 220.132 10.886ZM243.165 14V5L235.335 14H231.627V0.608H235.335V9.608L243.165 0.608H246.873V14H243.165ZM261.727 14V5L253.897 14H250.189V0.608H253.897V9.608L261.727 0.608H265.435V14H261.727Z" fill="url(#paint2_radial_2017_693)"/>
<path d="M7.76925 0.481999H8.52525C14.5192 0.481999 15.0772 2.714 15.0772 4.082V4.298C15.0772 5.756 13.7272 6.746 12.3952 6.98C14.0152 7.268 15.4012 8.33 15.4012 9.968V10.202C15.4012 11.66 14.6632 14.216 8.52525 14.216H7.76925C1.59525 14.216 0.893248 11.66 0.893248 10.202V9.968C0.893248 8.33 2.29725 7.268 3.88125 6.98C2.58525 6.746 1.21725 5.846 1.21725 4.298V4.082C1.21725 2.714 1.81125 0.481999 7.76925 0.481999ZM8.14725 3.2C5.48325 3.2 5.12325 3.938 5.12325 4.442V4.514C5.12325 5.036 5.50125 5.684 8.14725 5.684C10.8112 5.684 11.1532 5.036 11.1532 4.514V4.442C11.1532 3.938 10.8292 3.2 8.14725 3.2ZM8.14725 8.42C5.19525 8.42 4.79925 9.212 4.79925 9.77V9.824C4.79925 10.436 5.19525 11.336 8.14725 11.336C11.0992 11.336 11.4952 10.436 11.4952 9.824V9.77C11.4952 9.212 11.0992 8.42 8.14725 8.42ZM21.8078 10.508V14H17.6138V10.508H21.8078ZM30.656 14V0.608H35.588L39.854 9.68L44.246 0.608H48.872V14H45.254V5.234L41.186 14H38.288L34.22 5.234V14H30.656ZM57.8052 6.08C55.9872 6.08 55.3032 6.818 55.1232 7.862H60.4152C60.4152 7.124 60.0552 6.08 57.8052 6.08ZM60.4872 10.886H64.1412C64.1412 11.714 63.4932 14.234 58.3272 14.234H57.6612C52.7292 14.234 51.5052 11.534 51.5052 9.14V8.888C51.5052 6.638 52.6212 3.794 57.3552 3.794H58.1472C63.2592 3.794 64.1772 6.638 64.1772 9.428V9.752H55.0872C55.2312 10.904 55.9692 11.84 58.1112 11.84C60.1452 11.84 60.3972 11.048 60.4872 10.886ZM70.091 14H66.581V4.01H70.091V7.646H74.987V4.01H78.497V14H74.987V10.31H70.091V14ZM84.279 14V6.674H80.409V4.01H91.659V6.674H87.789V14H84.279ZM99.8275 14.27H99.2695C93.8875 14.27 93.0595 10.994 93.0595 9.176V8.924C93.0595 7.124 93.8875 3.74 99.2515 3.74H99.8455C105.389 3.74 106.037 7.142 106.037 8.906V9.194C106.037 10.994 105.389 14.27 99.8275 14.27ZM99.4495 11.642H99.6475C101.861 11.642 102.419 10.058 102.419 8.96C102.419 7.826 101.861 6.314 99.6475 6.314H99.4495C97.1455 6.314 96.6775 7.826 96.6775 8.96C96.6775 10.058 97.1455 11.642 99.4495 11.642ZM117.632 9.014V8.96C117.632 7.88 117.128 6.422 114.932 6.422H114.752C112.646 6.422 111.98 7.808 111.98 8.96V9.014C111.98 10.112 112.646 11.552 114.752 11.552H114.932C117.128 11.552 117.632 10.04 117.632 9.014ZM108.488 17.438V4.01H111.962V5.288C112.394 4.82 113.708 3.812 115.976 3.812H116.21C120.026 3.812 121.268 6.422 121.268 8.798V9.104C121.268 11.282 119.99 14.198 116.192 14.198H115.94C113.654 14.198 112.43 13.154 111.998 12.722V17.438H108.488ZM137.157 14H128.913V4.01H136.797C139.083 4.01 140.523 4.82 140.523 6.404V6.494C140.523 7.736 139.731 8.474 138.525 8.672C139.749 8.816 140.847 9.68 140.847 11.12V11.192C140.847 13.01 139.659 14 137.157 14ZM132.423 7.988H135.645C136.491 7.988 136.923 7.664 136.923 7.034V6.944C136.923 6.368 136.527 6.026 135.645 6.026H132.423V7.988ZM132.423 11.984H135.789C136.725 11.984 137.247 11.678 137.247 10.976V10.832C137.247 10.202 136.815 9.806 135.789 9.806H132.423V11.984ZM156.847 10.076H160.519C160.519 11.588 159.619 14.27 154.813 14.27H153.931C148.945 14.27 148.009 11.03 148.009 9.14V8.888C148.009 6.998 148.891 3.74 153.913 3.74H154.741C159.565 3.74 160.519 6.368 160.519 7.808V7.826H156.847C156.793 7.538 156.451 6.296 154.381 6.296H154.201C152.131 6.296 151.645 7.718 151.645 8.924V8.942C151.645 10.184 152.239 11.66 154.273 11.66H154.453C156.541 11.66 156.847 10.31 156.847 10.076ZM173.169 14.27H172.647V17.384H169.137V14.27H168.615C163.053 14.27 162.405 10.994 162.405 9.194V8.906C162.405 7.142 163.053 3.74 168.597 3.74H169.137V0.608H172.647V3.74H173.187C178.731 3.74 179.379 7.142 179.379 8.906V9.194C179.379 10.994 178.731 14.27 173.169 14.27ZM168.795 11.732H169.137V6.224H168.795C166.581 6.224 166.023 7.646 166.023 8.96C166.023 10.238 166.581 11.732 168.795 11.732ZM172.989 6.224H172.647V11.732H172.989C175.203 11.732 175.761 10.238 175.761 8.96C175.761 7.664 175.203 6.224 172.989 6.224ZM187.602 6.08C185.784 6.08 185.1 6.818 184.92 7.862H190.212C190.212 7.124 189.852 6.08 187.602 6.08ZM190.284 10.886H193.938C193.938 11.714 193.29 14.234 188.124 14.234H187.458C182.526 14.234 181.302 11.534 181.302 9.14V8.888C181.302 6.638 182.418 3.794 187.152 3.794H187.944C193.056 3.794 193.974 6.638 193.974 9.428V9.752H184.884C185.028 10.904 185.766 11.84 187.908 11.84C189.942 11.84 190.194 11.048 190.284 10.886ZM205.558 9.014V8.96C205.558 7.88 205.054 6.422 202.858 6.422H202.678C200.572 6.422 199.906 7.808 199.906 8.96V9.014C199.906 10.112 200.572 11.552 202.678 11.552H202.858C205.054 11.552 205.558 10.04 205.558 9.014ZM196.414 17.438V4.01H199.888V5.288C200.32 4.82 201.634 3.812 203.902 3.812H204.136C207.952 3.812 209.194 6.422 209.194 8.798V9.104C209.194 11.282 207.916 14.198 204.118 14.198H203.866C201.58 14.198 200.356 13.154 199.924 12.722V17.438H196.414ZM217.45 6.08C215.632 6.08 214.948 6.818 214.768 7.862H220.06C220.06 7.124 219.7 6.08 217.45 6.08ZM220.132 10.886H223.786C223.786 11.714 223.138 14.234 217.972 14.234H217.306C212.374 14.234 211.15 11.534 211.15 9.14V8.888C211.15 6.638 212.266 3.794 217 3.794H217.792C222.904 3.794 223.822 6.638 223.822 9.428V9.752H214.732C214.876 10.904 215.614 11.84 217.756 11.84C219.79 11.84 220.042 11.048 220.132 10.886ZM243.165 14V5L235.335 14H231.627V0.608H235.335V9.608L243.165 0.608H246.873V14H243.165ZM261.727 14V5L253.897 14H250.189V0.608H253.897V9.608L261.727 0.608H265.435V14H261.727Z" fill="#C1A875" style="mix-blend-mode:color"/>
<defs>
<linearGradient id="paint0_linear_2017_693" x1="2" y1="6" x2="268" y2="6.00002" gradientUnits="userSpaceOnUse">
<stop stop-color="#576167"/>
<stop offset="0.191294" stop-color="#9EA1A2"/>
<stop offset="0.396166" stop-color="#848989"/>
<stop offset="0.62055" stop-color="#576167"/>
<stop offset="0.830299" stop-color="#757A7C"/>
<stop offset="1" stop-color="#576167"/>
</linearGradient>
<radialGradient id="paint1_radial_2017_693" cx="0" cy="0" r="1" gradientUnits="userSpaceOnUse" gradientTransform="translate(143.658 -3.20225) rotate(90) scale(17.8315 201.238)">
<stop stop-color="white"/>
<stop offset="1" stop-color="white" stop-opacity="0"/>
</radialGradient>
<radialGradient id="paint2_radial_2017_693" cx="0" cy="0" r="1" gradientUnits="userSpaceOnUse" gradientTransform="translate(158.704 23.6629) rotate(-89.0452) scale(25.5541 287.725)">
<stop stop-color="white"/>
<stop offset="1" stop-color="white" stop-opacity="0"/>
</radialGradient>
</defs>
</svg>
