<svg width="508" height="17" viewBox="0 0 508 17" fill="none" xmlns="http://www.w3.org/2000/svg">
<path d="M11.1172 4.982V4.892C11.1172 4.262 10.5772 3.29 7.89525 3.29C4.96125 3.29 4.63725 4.316 4.63725 4.874V4.982C4.63725 5.63 5.06925 6.494 7.89525 6.494C10.6312 6.494 11.1172 5.63 11.1172 4.982ZM8.43525 14.198H7.76925C2.45925 14.198 1.30725 11.75 1.30725 10.166V10.148H4.97925C4.97925 10.31 5.23125 11.336 8.02125 11.336C11.2432 11.336 11.6212 9.032 11.6212 7.934V7.808C11.2792 8.096 10.1272 9.104 7.06725 9.104H6.67125C2.35125 9.104 0.821248 7.214 0.821248 5.27V4.982C0.821248 3.128 1.75725 0.446 7.35525 0.446H8.45325C14.4652 0.446 15.4012 4.694 15.4012 6.998V7.412C15.4012 9.446 14.3752 14.198 8.43525 14.198ZM21.8078 10.508V14H17.6138V10.508H21.8078ZM42.194 14V5L34.364 14H30.656V0.608H34.364V9.608L42.194 0.608H45.902V14H42.194ZM52.5305 14H49.0205V4.01H52.5305V7.646H57.4265V4.01H60.9365V14H57.4265V10.31H52.5305V14ZM67.3664 14H63.8564V4.01H67.3664V7.646H72.2624V4.01H75.7724V14H72.2624V10.31H67.3664V14ZM84.9564 14.27H84.3984C79.0164 14.27 78.1884 10.994 78.1884 9.176V8.924C78.1884 7.124 79.0164 3.74 84.3804 3.74H84.9744C90.5184 3.74 91.1664 7.142 91.1664 8.906V9.194C91.1664 10.994 90.5184 14.27 84.9564 14.27ZM84.5784 11.642H84.7764C86.9904 11.642 87.5484 10.058 87.5484 8.96C87.5484 7.826 86.9904 6.314 84.7764 6.314H84.5784C82.2744 6.314 81.8064 7.826 81.8064 8.96C81.8064 10.058 82.2744 11.642 84.5784 11.642ZM101.825 14H93.581V4.01H101.465C103.751 4.01 105.191 4.82 105.191 6.404V6.494C105.191 7.736 104.399 8.474 103.193 8.672C104.417 8.816 105.515 9.68 105.515 11.12V11.192C105.515 13.01 104.327 14 101.825 14ZM97.091 7.988H100.313C101.159 7.988 101.591 7.664 101.591 7.034V6.944C101.591 6.368 101.195 6.026 100.313 6.026H97.091V7.988ZM97.091 11.984H100.457C101.393 11.984 101.915 11.678 101.915 10.976V10.832C101.915 10.202 101.483 9.806 100.457 9.806H97.091V11.984ZM112.588 12.002C114.64 12.002 115.342 10.706 115.342 9.95V9.176C115.036 9.302 114.154 9.482 113.146 9.644C111.454 9.932 110.914 10.166 110.914 10.868V10.904C110.914 11.534 111.364 12.002 112.588 12.002ZM115.45 12.614C115.018 13.136 113.938 14.198 111.598 14.198H111.31C108.52 14.198 107.368 12.686 107.368 11.03V10.958C107.368 9.23 108.466 8.168 111.85 7.88L114.586 7.646C115.144 7.592 115.342 7.412 115.342 6.998C115.342 6.53 115.198 6.026 113.254 6.026C111.418 6.026 111.238 6.746 111.238 7.124H107.638V7.088C107.638 6.098 108.034 3.776 112.948 3.776H113.506C118.456 3.776 118.762 5.81 118.762 7.142V10.436C118.762 11.066 118.888 11.318 119.59 11.318H119.968V14H117.124C116.08 14 115.594 13.262 115.45 12.614ZM135.326 11.336V16.124H131.996V14H121.97V4.01H125.48V11.336H130.016V4.01H133.526V11.336H135.326ZM145.845 7.952L141.021 14H137.421V4.01H140.931V10.058L145.755 4.01H149.355V14H145.845V7.952ZM160.68 10.652H158.322L155.406 14H151.446L154.704 10.274C152.976 9.932 151.986 8.942 151.986 7.43V7.214C151.986 5.396 153.462 4.01 155.964 4.01H164.19V14H160.68V10.652ZM160.68 6.314H156.918C156.144 6.314 155.496 6.494 155.496 7.286V7.358C155.496 8.132 156.162 8.366 156.936 8.366H160.68V6.314ZM180.557 14H172.313V4.01H180.197C182.483 4.01 183.923 4.82 183.923 6.404V6.494C183.923 7.736 183.131 8.474 181.925 8.672C183.149 8.816 184.247 9.68 184.247 11.12V11.192C184.247 13.01 183.059 14 180.557 14ZM175.823 7.988H179.045C179.891 7.988 180.323 7.664 180.323 7.034V6.944C180.323 6.368 179.927 6.026 179.045 6.026H175.823V7.988ZM175.823 11.984H179.189C180.125 11.984 180.647 11.678 180.647 10.976V10.832C180.647 10.202 180.215 9.806 179.189 9.806H175.823V11.984ZM191.896 14V4.01H200.607V6.674H195.406V14H191.896ZM210.439 14V6.674H206.479C206.479 9.356 206.389 10.85 206.047 11.768C205.669 12.776 205.165 14 202.519 14H201.421V11.39H201.637C202.267 11.39 202.735 11.174 202.933 10.256C203.077 9.482 203.131 8.636 203.131 4.01H213.949V14H210.439ZM223.12 14.27H222.562C217.18 14.27 216.352 10.994 216.352 9.176V8.924C216.352 7.124 217.18 3.74 222.544 3.74H223.138C228.682 3.74 229.33 7.142 229.33 8.906V9.194C229.33 10.994 228.682 14.27 223.12 14.27ZM222.742 11.642H222.94C225.154 11.642 225.712 10.058 225.712 8.96C225.712 7.826 225.154 6.314 222.94 6.314H222.742C220.438 6.314 219.97 7.826 219.97 8.96C219.97 10.058 220.438 11.642 222.742 11.642ZM244.219 9.122V9.356C244.219 13.1 241.375 14.27 237.973 14.27H237.613C234.103 14.27 231.241 12.902 231.241 8.15V7.088C231.241 2.282 233.635 0.698 238.315 0.698H239.125C240.241 0.698 240.313 0.589999 240.349 0.373999H243.787C243.787 2.48 242.995 3.362 240.547 3.362H238.315C235.723 3.362 234.733 4.172 234.679 5.99C235.597 5.036 237.001 4.388 239.215 4.388H239.323C241.699 4.388 244.219 5.594 244.219 9.122ZM237.649 11.642H237.847C239.431 11.642 240.601 10.85 240.601 9.212C240.601 7.628 239.413 6.854 237.865 6.854H237.649C235.921 6.854 234.859 7.592 234.859 9.23C234.859 10.886 235.939 11.642 237.649 11.642ZM251.262 12.002C253.314 12.002 254.016 10.706 254.016 9.95V9.176C253.71 9.302 252.828 9.482 251.82 9.644C250.128 9.932 249.588 10.166 249.588 10.868V10.904C249.588 11.534 250.038 12.002 251.262 12.002ZM254.124 12.614C253.692 13.136 252.612 14.198 250.272 14.198H249.984C247.194 14.198 246.042 12.686 246.042 11.03V10.958C246.042 9.23 247.14 8.168 250.524 7.88L253.26 7.646C253.818 7.592 254.016 7.412 254.016 6.998C254.016 6.53 253.872 6.026 251.928 6.026C250.092 6.026 249.912 6.746 249.912 7.124H246.312V7.088C246.312 6.098 246.708 3.776 251.622 3.776H252.18C257.13 3.776 257.436 5.81 257.436 7.142V10.436C257.436 11.066 257.562 11.318 258.264 11.318H258.642V14H255.798C254.754 14 254.268 13.262 254.124 12.614ZM268.921 14V6.674H264.961C264.961 9.356 264.871 10.85 264.529 11.768C264.151 12.776 263.647 14 261.001 14H259.903V11.39H260.119C260.749 11.39 261.217 11.174 261.415 10.256C261.559 9.482 261.613 8.636 261.613 4.01H272.431V14H268.921ZM275.339 14V4.01H278.849V6.872H281.585C285.005 6.872 286.337 8.384 286.337 10.292V10.508C286.337 12.596 285.005 14 281.585 14H275.339ZM278.849 11.624H281.153C281.873 11.624 282.737 11.408 282.737 10.436V10.382C282.737 9.482 281.873 9.248 281.153 9.248H278.849V11.624ZM291.927 14H288.417V4.01H291.927V7.646H296.823V4.01H300.333V14H296.823V10.31H291.927V14ZM309.517 14.27H308.959C303.577 14.27 302.749 10.994 302.749 9.176V8.924C302.749 7.124 303.577 3.74 308.941 3.74H309.535C315.079 3.74 315.727 7.142 315.727 8.906V9.194C315.727 10.994 315.079 14.27 309.517 14.27ZM309.139 11.642H309.337C311.551 11.642 312.109 10.058 312.109 8.96C312.109 7.826 311.551 6.314 309.337 6.314H309.139C306.835 6.314 306.367 7.826 306.367 8.96C306.367 10.058 306.835 11.642 309.139 11.642ZM326.566 7.952L321.742 14H318.142V4.01H321.652V10.058L326.476 4.01H330.076V14H326.566V7.952ZM324.334 2.984H323.794C320.932 2.984 320.428 1.04 320.428 0.104V0.0499994H323.074C323.074 0.284 323.182 1.004 324.082 1.004C324.928 1.004 325.054 0.284 325.054 0.0499994H327.664V0.104C327.664 1.04 326.944 2.984 324.334 2.984ZM350.672 9.122V9.356C350.672 13.1 347.828 14.27 344.426 14.27H344.066C340.556 14.27 337.694 12.902 337.694 8.15V7.088C337.694 2.282 340.088 0.698 344.768 0.698H345.578C346.694 0.698 346.766 0.589999 346.802 0.373999H350.24C350.24 2.48 349.448 3.362 347 3.362H344.768C342.176 3.362 341.186 4.172 341.132 5.99C342.05 5.036 343.454 4.388 345.668 4.388H345.776C348.152 4.388 350.672 5.594 350.672 9.122ZM344.102 11.642H344.3C345.884 11.642 347.054 10.85 347.054 9.212C347.054 7.628 345.866 6.854 344.318 6.854H344.102C342.374 6.854 341.312 7.592 341.312 9.23C341.312 10.886 342.392 11.642 344.102 11.642ZM358.901 6.08C357.083 6.08 356.399 6.818 356.219 7.862H361.511C361.511 7.124 361.151 6.08 358.901 6.08ZM361.583 10.886H365.237C365.237 11.714 364.589 14.234 359.423 14.234H358.757C353.825 14.234 352.601 11.534 352.601 9.14V8.888C352.601 6.638 353.717 3.794 358.451 3.794H359.243C364.355 3.794 365.273 6.638 365.273 9.428V9.752H356.183C356.327 10.904 357.065 11.84 359.207 11.84C361.241 11.84 361.493 11.048 361.583 10.886ZM378.803 11.048V11.156C378.803 13.154 377.129 14.27 373.295 14.27H372.971C368.867 14.27 367.085 12.74 367.085 10.67V10.526H370.847C370.901 11.642 371.927 12.056 373.151 12.056C374.465 12.056 375.185 11.66 375.185 10.868V10.814C375.185 10.076 374.609 9.896 373.601 9.896H371.225V7.754H373.601C374.375 7.754 374.861 7.448 374.861 6.872V6.818C374.861 6.224 374.267 5.918 373.061 5.918C371.711 5.918 370.991 6.242 370.937 6.944H367.175V6.89C367.175 4.748 369.677 3.74 372.935 3.74H373.223C376.589 3.74 378.479 4.55 378.479 6.422V6.494C378.479 8.006 377.327 8.582 376.499 8.78C377.507 8.978 378.803 9.464 378.803 11.048ZM387.511 14.27H386.953C381.571 14.27 380.743 10.994 380.743 9.176V8.924C380.743 7.124 381.571 3.74 386.935 3.74H387.529C393.073 3.74 393.721 7.142 393.721 8.906V9.194C393.721 10.994 393.073 14.27 387.511 14.27ZM387.133 11.642H387.331C389.545 11.642 390.103 10.058 390.103 8.96C390.103 7.826 389.545 6.314 387.331 6.314H387.133C384.829 6.314 384.361 7.826 384.361 8.96C384.361 10.058 384.829 11.642 387.133 11.642ZM396.136 14V4.01H407.692V14H404.182V6.674H399.646V14H396.136ZM415.319 12.002C417.371 12.002 418.073 10.706 418.073 9.95V9.176C417.767 9.302 416.885 9.482 415.877 9.644C414.185 9.932 413.645 10.166 413.645 10.868V10.904C413.645 11.534 414.095 12.002 415.319 12.002ZM418.181 12.614C417.749 13.136 416.669 14.198 414.329 14.198H414.041C411.251 14.198 410.099 12.686 410.099 11.03V10.958C410.099 9.23 411.197 8.168 414.581 7.88L417.317 7.646C417.875 7.592 418.073 7.412 418.073 6.998C418.073 6.53 417.929 6.026 415.985 6.026C414.149 6.026 413.969 6.746 413.969 7.124H410.369V7.088C410.369 6.098 410.765 3.776 415.679 3.776H416.237C421.187 3.776 421.493 5.81 421.493 7.142V10.436C421.493 11.066 421.619 11.318 422.321 11.318H422.699V14H419.855C418.811 14 418.325 13.262 418.181 12.614ZM433.052 10.076H436.724C436.724 11.588 435.824 14.27 431.018 14.27H430.136C425.15 14.27 424.214 11.03 424.214 9.14V8.888C424.214 6.998 425.096 3.74 430.118 3.74H430.946C435.77 3.74 436.724 6.368 436.724 7.808V7.826H433.052C432.998 7.538 432.656 6.296 430.586 6.296H430.406C428.336 6.296 427.85 7.718 427.85 8.924V8.942C427.85 10.184 428.444 11.66 430.478 11.66H430.658C432.746 11.66 433.052 10.31 433.052 10.076ZM442.624 14H439.114V4.01H442.624V7.646H447.52V4.01H451.03V14H447.52V10.31H442.624V14ZM460.214 14.27H459.656C454.274 14.27 453.446 10.994 453.446 9.176V8.924C453.446 7.124 454.274 3.74 459.638 3.74H460.232C465.776 3.74 466.424 7.142 466.424 8.906V9.194C466.424 10.994 465.776 14.27 460.214 14.27ZM459.836 11.642H460.034C462.248 11.642 462.806 10.058 462.806 8.96C462.806 7.826 462.248 6.314 460.034 6.314H459.836C457.532 6.314 457.064 7.826 457.064 8.96C457.064 10.058 457.532 11.642 459.836 11.642ZM477.191 10.076H480.863C480.863 11.588 479.963 14.27 475.157 14.27H474.275C469.289 14.27 468.353 11.03 468.353 9.14V8.888C468.353 6.998 469.235 3.74 474.257 3.74H475.085C479.909 3.74 480.863 6.368 480.863 7.808V7.826H477.191C477.137 7.538 476.795 6.296 474.725 6.296H474.545C472.475 6.296 471.989 7.718 471.989 8.924V8.942C471.989 10.184 472.583 11.66 474.617 11.66H474.797C476.885 11.66 477.191 10.31 477.191 10.076ZM486.115 14V6.674H482.245V4.01H493.495V6.674H489.625V14H486.115ZM503.823 7.952L498.999 14H495.399V4.01H498.909V10.058L503.733 4.01H507.333V14H503.823V7.952Z" fill="url(#paint0_linear_2017_700)"/>
<path d="M11.1172 4.982V4.892C11.1172 4.262 10.5772 3.29 7.89525 3.29C4.96125 3.29 4.63725 4.316 4.63725 4.874V4.982C4.63725 5.63 5.06925 6.494 7.89525 6.494C10.6312 6.494 11.1172 5.63 11.1172 4.982ZM8.43525 14.198H7.76925C2.45925 14.198 1.30725 11.75 1.30725 10.166V10.148H4.97925C4.97925 10.31 5.23125 11.336 8.02125 11.336C11.2432 11.336 11.6212 9.032 11.6212 7.934V7.808C11.2792 8.096 10.1272 9.104 7.06725 9.104H6.67125C2.35125 9.104 0.821248 7.214 0.821248 5.27V4.982C0.821248 3.128 1.75725 0.446 7.35525 0.446H8.45325C14.4652 0.446 15.4012 4.694 15.4012 6.998V7.412C15.4012 9.446 14.3752 14.198 8.43525 14.198ZM21.8078 10.508V14H17.6138V10.508H21.8078ZM42.194 14V5L34.364 14H30.656V0.608H34.364V9.608L42.194 0.608H45.902V14H42.194ZM52.5305 14H49.0205V4.01H52.5305V7.646H57.4265V4.01H60.9365V14H57.4265V10.31H52.5305V14ZM67.3664 14H63.8564V4.01H67.3664V7.646H72.2624V4.01H75.7724V14H72.2624V10.31H67.3664V14ZM84.9564 14.27H84.3984C79.0164 14.27 78.1884 10.994 78.1884 9.176V8.924C78.1884 7.124 79.0164 3.74 84.3804 3.74H84.9744C90.5184 3.74 91.1664 7.142 91.1664 8.906V9.194C91.1664 10.994 90.5184 14.27 84.9564 14.27ZM84.5784 11.642H84.7764C86.9904 11.642 87.5484 10.058 87.5484 8.96C87.5484 7.826 86.9904 6.314 84.7764 6.314H84.5784C82.2744 6.314 81.8064 7.826 81.8064 8.96C81.8064 10.058 82.2744 11.642 84.5784 11.642ZM101.825 14H93.581V4.01H101.465C103.751 4.01 105.191 4.82 105.191 6.404V6.494C105.191 7.736 104.399 8.474 103.193 8.672C104.417 8.816 105.515 9.68 105.515 11.12V11.192C105.515 13.01 104.327 14 101.825 14ZM97.091 7.988H100.313C101.159 7.988 101.591 7.664 101.591 7.034V6.944C101.591 6.368 101.195 6.026 100.313 6.026H97.091V7.988ZM97.091 11.984H100.457C101.393 11.984 101.915 11.678 101.915 10.976V10.832C101.915 10.202 101.483 9.806 100.457 9.806H97.091V11.984ZM112.588 12.002C114.64 12.002 115.342 10.706 115.342 9.95V9.176C115.036 9.302 114.154 9.482 113.146 9.644C111.454 9.932 110.914 10.166 110.914 10.868V10.904C110.914 11.534 111.364 12.002 112.588 12.002ZM115.45 12.614C115.018 13.136 113.938 14.198 111.598 14.198H111.31C108.52 14.198 107.368 12.686 107.368 11.03V10.958C107.368 9.23 108.466 8.168 111.85 7.88L114.586 7.646C115.144 7.592 115.342 7.412 115.342 6.998C115.342 6.53 115.198 6.026 113.254 6.026C111.418 6.026 111.238 6.746 111.238 7.124H107.638V7.088C107.638 6.098 108.034 3.776 112.948 3.776H113.506C118.456 3.776 118.762 5.81 118.762 7.142V10.436C118.762 11.066 118.888 11.318 119.59 11.318H119.968V14H117.124C116.08 14 115.594 13.262 115.45 12.614ZM135.326 11.336V16.124H131.996V14H121.97V4.01H125.48V11.336H130.016V4.01H133.526V11.336H135.326ZM145.845 7.952L141.021 14H137.421V4.01H140.931V10.058L145.755 4.01H149.355V14H145.845V7.952ZM160.68 10.652H158.322L155.406 14H151.446L154.704 10.274C152.976 9.932 151.986 8.942 151.986 7.43V7.214C151.986 5.396 153.462 4.01 155.964 4.01H164.19V14H160.68V10.652ZM160.68 6.314H156.918C156.144 6.314 155.496 6.494 155.496 7.286V7.358C155.496 8.132 156.162 8.366 156.936 8.366H160.68V6.314ZM180.557 14H172.313V4.01H180.197C182.483 4.01 183.923 4.82 183.923 6.404V6.494C183.923 7.736 183.131 8.474 181.925 8.672C183.149 8.816 184.247 9.68 184.247 11.12V11.192C184.247 13.01 183.059 14 180.557 14ZM175.823 7.988H179.045C179.891 7.988 180.323 7.664 180.323 7.034V6.944C180.323 6.368 179.927 6.026 179.045 6.026H175.823V7.988ZM175.823 11.984H179.189C180.125 11.984 180.647 11.678 180.647 10.976V10.832C180.647 10.202 180.215 9.806 179.189 9.806H175.823V11.984ZM191.896 14V4.01H200.607V6.674H195.406V14H191.896ZM210.439 14V6.674H206.479C206.479 9.356 206.389 10.85 206.047 11.768C205.669 12.776 205.165 14 202.519 14H201.421V11.39H201.637C202.267 11.39 202.735 11.174 202.933 10.256C203.077 9.482 203.131 8.636 203.131 4.01H213.949V14H210.439ZM223.12 14.27H222.562C217.18 14.27 216.352 10.994 216.352 9.176V8.924C216.352 7.124 217.18 3.74 222.544 3.74H223.138C228.682 3.74 229.33 7.142 229.33 8.906V9.194C229.33 10.994 228.682 14.27 223.12 14.27ZM222.742 11.642H222.94C225.154 11.642 225.712 10.058 225.712 8.96C225.712 7.826 225.154 6.314 222.94 6.314H222.742C220.438 6.314 219.97 7.826 219.97 8.96C219.97 10.058 220.438 11.642 222.742 11.642ZM244.219 9.122V9.356C244.219 13.1 241.375 14.27 237.973 14.27H237.613C234.103 14.27 231.241 12.902 231.241 8.15V7.088C231.241 2.282 233.635 0.698 238.315 0.698H239.125C240.241 0.698 240.313 0.589999 240.349 0.373999H243.787C243.787 2.48 242.995 3.362 240.547 3.362H238.315C235.723 3.362 234.733 4.172 234.679 5.99C235.597 5.036 237.001 4.388 239.215 4.388H239.323C241.699 4.388 244.219 5.594 244.219 9.122ZM237.649 11.642H237.847C239.431 11.642 240.601 10.85 240.601 9.212C240.601 7.628 239.413 6.854 237.865 6.854H237.649C235.921 6.854 234.859 7.592 234.859 9.23C234.859 10.886 235.939 11.642 237.649 11.642ZM251.262 12.002C253.314 12.002 254.016 10.706 254.016 9.95V9.176C253.71 9.302 252.828 9.482 251.82 9.644C250.128 9.932 249.588 10.166 249.588 10.868V10.904C249.588 11.534 250.038 12.002 251.262 12.002ZM254.124 12.614C253.692 13.136 252.612 14.198 250.272 14.198H249.984C247.194 14.198 246.042 12.686 246.042 11.03V10.958C246.042 9.23 247.14 8.168 250.524 7.88L253.26 7.646C253.818 7.592 254.016 7.412 254.016 6.998C254.016 6.53 253.872 6.026 251.928 6.026C250.092 6.026 249.912 6.746 249.912 7.124H246.312V7.088C246.312 6.098 246.708 3.776 251.622 3.776H252.18C257.13 3.776 257.436 5.81 257.436 7.142V10.436C257.436 11.066 257.562 11.318 258.264 11.318H258.642V14H255.798C254.754 14 254.268 13.262 254.124 12.614ZM268.921 14V6.674H264.961C264.961 9.356 264.871 10.85 264.529 11.768C264.151 12.776 263.647 14 261.001 14H259.903V11.39H260.119C260.749 11.39 261.217 11.174 261.415 10.256C261.559 9.482 261.613 8.636 261.613 4.01H272.431V14H268.921ZM275.339 14V4.01H278.849V6.872H281.585C285.005 6.872 286.337 8.384 286.337 10.292V10.508C286.337 12.596 285.005 14 281.585 14H275.339ZM278.849 11.624H281.153C281.873 11.624 282.737 11.408 282.737 10.436V10.382C282.737 9.482 281.873 9.248 281.153 9.248H278.849V11.624ZM291.927 14H288.417V4.01H291.927V7.646H296.823V4.01H300.333V14H296.823V10.31H291.927V14ZM309.517 14.27H308.959C303.577 14.27 302.749 10.994 302.749 9.176V8.924C302.749 7.124 303.577 3.74 308.941 3.74H309.535C315.079 3.74 315.727 7.142 315.727 8.906V9.194C315.727 10.994 315.079 14.27 309.517 14.27ZM309.139 11.642H309.337C311.551 11.642 312.109 10.058 312.109 8.96C312.109 7.826 311.551 6.314 309.337 6.314H309.139C306.835 6.314 306.367 7.826 306.367 8.96C306.367 10.058 306.835 11.642 309.139 11.642ZM326.566 7.952L321.742 14H318.142V4.01H321.652V10.058L326.476 4.01H330.076V14H326.566V7.952ZM324.334 2.984H323.794C320.932 2.984 320.428 1.04 320.428 0.104V0.0499994H323.074C323.074 0.284 323.182 1.004 324.082 1.004C324.928 1.004 325.054 0.284 325.054 0.0499994H327.664V0.104C327.664 1.04 326.944 2.984 324.334 2.984ZM350.672 9.122V9.356C350.672 13.1 347.828 14.27 344.426 14.27H344.066C340.556 14.27 337.694 12.902 337.694 8.15V7.088C337.694 2.282 340.088 0.698 344.768 0.698H345.578C346.694 0.698 346.766 0.589999 346.802 0.373999H350.24C350.24 2.48 349.448 3.362 347 3.362H344.768C342.176 3.362 341.186 4.172 341.132 5.99C342.05 5.036 343.454 4.388 345.668 4.388H345.776C348.152 4.388 350.672 5.594 350.672 9.122ZM344.102 11.642H344.3C345.884 11.642 347.054 10.85 347.054 9.212C347.054 7.628 345.866 6.854 344.318 6.854H344.102C342.374 6.854 341.312 7.592 341.312 9.23C341.312 10.886 342.392 11.642 344.102 11.642ZM358.901 6.08C357.083 6.08 356.399 6.818 356.219 7.862H361.511C361.511 7.124 361.151 6.08 358.901 6.08ZM361.583 10.886H365.237C365.237 11.714 364.589 14.234 359.423 14.234H358.757C353.825 14.234 352.601 11.534 352.601 9.14V8.888C352.601 6.638 353.717 3.794 358.451 3.794H359.243C364.355 3.794 365.273 6.638 365.273 9.428V9.752H356.183C356.327 10.904 357.065 11.84 359.207 11.84C361.241 11.84 361.493 11.048 361.583 10.886ZM378.803 11.048V11.156C378.803 13.154 377.129 14.27 373.295 14.27H372.971C368.867 14.27 367.085 12.74 367.085 10.67V10.526H370.847C370.901 11.642 371.927 12.056 373.151 12.056C374.465 12.056 375.185 11.66 375.185 10.868V10.814C375.185 10.076 374.609 9.896 373.601 9.896H371.225V7.754H373.601C374.375 7.754 374.861 7.448 374.861 6.872V6.818C374.861 6.224 374.267 5.918 373.061 5.918C371.711 5.918 370.991 6.242 370.937 6.944H367.175V6.89C367.175 4.748 369.677 3.74 372.935 3.74H373.223C376.589 3.74 378.479 4.55 378.479 6.422V6.494C378.479 8.006 377.327 8.582 376.499 8.78C377.507 8.978 378.803 9.464 378.803 11.048ZM387.511 14.27H386.953C381.571 14.27 380.743 10.994 380.743 9.176V8.924C380.743 7.124 381.571 3.74 386.935 3.74H387.529C393.073 3.74 393.721 7.142 393.721 8.906V9.194C393.721 10.994 393.073 14.27 387.511 14.27ZM387.133 11.642H387.331C389.545 11.642 390.103 10.058 390.103 8.96C390.103 7.826 389.545 6.314 387.331 6.314H387.133C384.829 6.314 384.361 7.826 384.361 8.96C384.361 10.058 384.829 11.642 387.133 11.642ZM396.136 14V4.01H407.692V14H404.182V6.674H399.646V14H396.136ZM415.319 12.002C417.371 12.002 418.073 10.706 418.073 9.95V9.176C417.767 9.302 416.885 9.482 415.877 9.644C414.185 9.932 413.645 10.166 413.645 10.868V10.904C413.645 11.534 414.095 12.002 415.319 12.002ZM418.181 12.614C417.749 13.136 416.669 14.198 414.329 14.198H414.041C411.251 14.198 410.099 12.686 410.099 11.03V10.958C410.099 9.23 411.197 8.168 414.581 7.88L417.317 7.646C417.875 7.592 418.073 7.412 418.073 6.998C418.073 6.53 417.929 6.026 415.985 6.026C414.149 6.026 413.969 6.746 413.969 7.124H410.369V7.088C410.369 6.098 410.765 3.776 415.679 3.776H416.237C421.187 3.776 421.493 5.81 421.493 7.142V10.436C421.493 11.066 421.619 11.318 422.321 11.318H422.699V14H419.855C418.811 14 418.325 13.262 418.181 12.614ZM433.052 10.076H436.724C436.724 11.588 435.824 14.27 431.018 14.27H430.136C425.15 14.27 424.214 11.03 424.214 9.14V8.888C424.214 6.998 425.096 3.74 430.118 3.74H430.946C435.77 3.74 436.724 6.368 436.724 7.808V7.826H433.052C432.998 7.538 432.656 6.296 430.586 6.296H430.406C428.336 6.296 427.85 7.718 427.85 8.924V8.942C427.85 10.184 428.444 11.66 430.478 11.66H430.658C432.746 11.66 433.052 10.31 433.052 10.076ZM442.624 14H439.114V4.01H442.624V7.646H447.52V4.01H451.03V14H447.52V10.31H442.624V14ZM460.214 14.27H459.656C454.274 14.27 453.446 10.994 453.446 9.176V8.924C453.446 7.124 454.274 3.74 459.638 3.74H460.232C465.776 3.74 466.424 7.142 466.424 8.906V9.194C466.424 10.994 465.776 14.27 460.214 14.27ZM459.836 11.642H460.034C462.248 11.642 462.806 10.058 462.806 8.96C462.806 7.826 462.248 6.314 460.034 6.314H459.836C457.532 6.314 457.064 7.826 457.064 8.96C457.064 10.058 457.532 11.642 459.836 11.642ZM477.191 10.076H480.863C480.863 11.588 479.963 14.27 475.157 14.27H474.275C469.289 14.27 468.353 11.03 468.353 9.14V8.888C468.353 6.998 469.235 3.74 474.257 3.74H475.085C479.909 3.74 480.863 6.368 480.863 7.808V7.826H477.191C477.137 7.538 476.795 6.296 474.725 6.296H474.545C472.475 6.296 471.989 7.718 471.989 8.924V8.942C471.989 10.184 472.583 11.66 474.617 11.66H474.797C476.885 11.66 477.191 10.31 477.191 10.076ZM486.115 14V6.674H482.245V4.01H493.495V6.674H489.625V14H486.115ZM503.823 7.952L498.999 14H495.399V4.01H498.909V10.058L503.733 4.01H507.333V14H503.823V7.952Z" fill="url(#paint1_radial_2017_700)" style="mix-blend-mode:overlay"/>
<path d="M11.1172 4.982V4.892C11.1172 4.262 10.5772 3.29 7.89525 3.29C4.96125 3.29 4.63725 4.316 4.63725 4.874V4.982C4.63725 5.63 5.06925 6.494 7.89525 6.494C10.6312 6.494 11.1172 5.63 11.1172 4.982ZM8.43525 14.198H7.76925C2.45925 14.198 1.30725 11.75 1.30725 10.166V10.148H4.97925C4.97925 10.31 5.23125 11.336 8.02125 11.336C11.2432 11.336 11.6212 9.032 11.6212 7.934V7.808C11.2792 8.096 10.1272 9.104 7.06725 9.104H6.67125C2.35125 9.104 0.821248 7.214 0.821248 5.27V4.982C0.821248 3.128 1.75725 0.446 7.35525 0.446H8.45325C14.4652 0.446 15.4012 4.694 15.4012 6.998V7.412C15.4012 9.446 14.3752 14.198 8.43525 14.198ZM21.8078 10.508V14H17.6138V10.508H21.8078ZM42.194 14V5L34.364 14H30.656V0.608H34.364V9.608L42.194 0.608H45.902V14H42.194ZM52.5305 14H49.0205V4.01H52.5305V7.646H57.4265V4.01H60.9365V14H57.4265V10.31H52.5305V14ZM67.3664 14H63.8564V4.01H67.3664V7.646H72.2624V4.01H75.7724V14H72.2624V10.31H67.3664V14ZM84.9564 14.27H84.3984C79.0164 14.27 78.1884 10.994 78.1884 9.176V8.924C78.1884 7.124 79.0164 3.74 84.3804 3.74H84.9744C90.5184 3.74 91.1664 7.142 91.1664 8.906V9.194C91.1664 10.994 90.5184 14.27 84.9564 14.27ZM84.5784 11.642H84.7764C86.9904 11.642 87.5484 10.058 87.5484 8.96C87.5484 7.826 86.9904 6.314 84.7764 6.314H84.5784C82.2744 6.314 81.8064 7.826 81.8064 8.96C81.8064 10.058 82.2744 11.642 84.5784 11.642ZM101.825 14H93.581V4.01H101.465C103.751 4.01 105.191 4.82 105.191 6.404V6.494C105.191 7.736 104.399 8.474 103.193 8.672C104.417 8.816 105.515 9.68 105.515 11.12V11.192C105.515 13.01 104.327 14 101.825 14ZM97.091 7.988H100.313C101.159 7.988 101.591 7.664 101.591 7.034V6.944C101.591 6.368 101.195 6.026 100.313 6.026H97.091V7.988ZM97.091 11.984H100.457C101.393 11.984 101.915 11.678 101.915 10.976V10.832C101.915 10.202 101.483 9.806 100.457 9.806H97.091V11.984ZM112.588 12.002C114.64 12.002 115.342 10.706 115.342 9.95V9.176C115.036 9.302 114.154 9.482 113.146 9.644C111.454 9.932 110.914 10.166 110.914 10.868V10.904C110.914 11.534 111.364 12.002 112.588 12.002ZM115.45 12.614C115.018 13.136 113.938 14.198 111.598 14.198H111.31C108.52 14.198 107.368 12.686 107.368 11.03V10.958C107.368 9.23 108.466 8.168 111.85 7.88L114.586 7.646C115.144 7.592 115.342 7.412 115.342 6.998C115.342 6.53 115.198 6.026 113.254 6.026C111.418 6.026 111.238 6.746 111.238 7.124H107.638V7.088C107.638 6.098 108.034 3.776 112.948 3.776H113.506C118.456 3.776 118.762 5.81 118.762 7.142V10.436C118.762 11.066 118.888 11.318 119.59 11.318H119.968V14H117.124C116.08 14 115.594 13.262 115.45 12.614ZM135.326 11.336V16.124H131.996V14H121.97V4.01H125.48V11.336H130.016V4.01H133.526V11.336H135.326ZM145.845 7.952L141.021 14H137.421V4.01H140.931V10.058L145.755 4.01H149.355V14H145.845V7.952ZM160.68 10.652H158.322L155.406 14H151.446L154.704 10.274C152.976 9.932 151.986 8.942 151.986 7.43V7.214C151.986 5.396 153.462 4.01 155.964 4.01H164.19V14H160.68V10.652ZM160.68 6.314H156.918C156.144 6.314 155.496 6.494 155.496 7.286V7.358C155.496 8.132 156.162 8.366 156.936 8.366H160.68V6.314ZM180.557 14H172.313V4.01H180.197C182.483 4.01 183.923 4.82 183.923 6.404V6.494C183.923 7.736 183.131 8.474 181.925 8.672C183.149 8.816 184.247 9.68 184.247 11.12V11.192C184.247 13.01 183.059 14 180.557 14ZM175.823 7.988H179.045C179.891 7.988 180.323 7.664 180.323 7.034V6.944C180.323 6.368 179.927 6.026 179.045 6.026H175.823V7.988ZM175.823 11.984H179.189C180.125 11.984 180.647 11.678 180.647 10.976V10.832C180.647 10.202 180.215 9.806 179.189 9.806H175.823V11.984ZM191.896 14V4.01H200.607V6.674H195.406V14H191.896ZM210.439 14V6.674H206.479C206.479 9.356 206.389 10.85 206.047 11.768C205.669 12.776 205.165 14 202.519 14H201.421V11.39H201.637C202.267 11.39 202.735 11.174 202.933 10.256C203.077 9.482 203.131 8.636 203.131 4.01H213.949V14H210.439ZM223.12 14.27H222.562C217.18 14.27 216.352 10.994 216.352 9.176V8.924C216.352 7.124 217.18 3.74 222.544 3.74H223.138C228.682 3.74 229.33 7.142 229.33 8.906V9.194C229.33 10.994 228.682 14.27 223.12 14.27ZM222.742 11.642H222.94C225.154 11.642 225.712 10.058 225.712 8.96C225.712 7.826 225.154 6.314 222.94 6.314H222.742C220.438 6.314 219.97 7.826 219.97 8.96C219.97 10.058 220.438 11.642 222.742 11.642ZM244.219 9.122V9.356C244.219 13.1 241.375 14.27 237.973 14.27H237.613C234.103 14.27 231.241 12.902 231.241 8.15V7.088C231.241 2.282 233.635 0.698 238.315 0.698H239.125C240.241 0.698 240.313 0.589999 240.349 0.373999H243.787C243.787 2.48 242.995 3.362 240.547 3.362H238.315C235.723 3.362 234.733 4.172 234.679 5.99C235.597 5.036 237.001 4.388 239.215 4.388H239.323C241.699 4.388 244.219 5.594 244.219 9.122ZM237.649 11.642H237.847C239.431 11.642 240.601 10.85 240.601 9.212C240.601 7.628 239.413 6.854 237.865 6.854H237.649C235.921 6.854 234.859 7.592 234.859 9.23C234.859 10.886 235.939 11.642 237.649 11.642ZM251.262 12.002C253.314 12.002 254.016 10.706 254.016 9.95V9.176C253.71 9.302 252.828 9.482 251.82 9.644C250.128 9.932 249.588 10.166 249.588 10.868V10.904C249.588 11.534 250.038 12.002 251.262 12.002ZM254.124 12.614C253.692 13.136 252.612 14.198 250.272 14.198H249.984C247.194 14.198 246.042 12.686 246.042 11.03V10.958C246.042 9.23 247.14 8.168 250.524 7.88L253.26 7.646C253.818 7.592 254.016 7.412 254.016 6.998C254.016 6.53 253.872 6.026 251.928 6.026C250.092 6.026 249.912 6.746 249.912 7.124H246.312V7.088C246.312 6.098 246.708 3.776 251.622 3.776H252.18C257.13 3.776 257.436 5.81 257.436 7.142V10.436C257.436 11.066 257.562 11.318 258.264 11.318H258.642V14H255.798C254.754 14 254.268 13.262 254.124 12.614ZM268.921 14V6.674H264.961C264.961 9.356 264.871 10.85 264.529 11.768C264.151 12.776 263.647 14 261.001 14H259.903V11.39H260.119C260.749 11.39 261.217 11.174 261.415 10.256C261.559 9.482 261.613 8.636 261.613 4.01H272.431V14H268.921ZM275.339 14V4.01H278.849V6.872H281.585C285.005 6.872 286.337 8.384 286.337 10.292V10.508C286.337 12.596 285.005 14 281.585 14H275.339ZM278.849 11.624H281.153C281.873 11.624 282.737 11.408 282.737 10.436V10.382C282.737 9.482 281.873 9.248 281.153 9.248H278.849V11.624ZM291.927 14H288.417V4.01H291.927V7.646H296.823V4.01H300.333V14H296.823V10.31H291.927V14ZM309.517 14.27H308.959C303.577 14.27 302.749 10.994 302.749 9.176V8.924C302.749 7.124 303.577 3.74 308.941 3.74H309.535C315.079 3.74 315.727 7.142 315.727 8.906V9.194C315.727 10.994 315.079 14.27 309.517 14.27ZM309.139 11.642H309.337C311.551 11.642 312.109 10.058 312.109 8.96C312.109 7.826 311.551 6.314 309.337 6.314H309.139C306.835 6.314 306.367 7.826 306.367 8.96C306.367 10.058 306.835 11.642 309.139 11.642ZM326.566 7.952L321.742 14H318.142V4.01H321.652V10.058L326.476 4.01H330.076V14H326.566V7.952ZM324.334 2.984H323.794C320.932 2.984 320.428 1.04 320.428 0.104V0.0499994H323.074C323.074 0.284 323.182 1.004 324.082 1.004C324.928 1.004 325.054 0.284 325.054 0.0499994H327.664V0.104C327.664 1.04 326.944 2.984 324.334 2.984ZM350.672 9.122V9.356C350.672 13.1 347.828 14.27 344.426 14.27H344.066C340.556 14.27 337.694 12.902 337.694 8.15V7.088C337.694 2.282 340.088 0.698 344.768 0.698H345.578C346.694 0.698 346.766 0.589999 346.802 0.373999H350.24C350.24 2.48 349.448 3.362 347 3.362H344.768C342.176 3.362 341.186 4.172 341.132 5.99C342.05 5.036 343.454 4.388 345.668 4.388H345.776C348.152 4.388 350.672 5.594 350.672 9.122ZM344.102 11.642H344.3C345.884 11.642 347.054 10.85 347.054 9.212C347.054 7.628 345.866 6.854 344.318 6.854H344.102C342.374 6.854 341.312 7.592 341.312 9.23C341.312 10.886 342.392 11.642 344.102 11.642ZM358.901 6.08C357.083 6.08 356.399 6.818 356.219 7.862H361.511C361.511 7.124 361.151 6.08 358.901 6.08ZM361.583 10.886H365.237C365.237 11.714 364.589 14.234 359.423 14.234H358.757C353.825 14.234 352.601 11.534 352.601 9.14V8.888C352.601 6.638 353.717 3.794 358.451 3.794H359.243C364.355 3.794 365.273 6.638 365.273 9.428V9.752H356.183C356.327 10.904 357.065 11.84 359.207 11.84C361.241 11.84 361.493 11.048 361.583 10.886ZM378.803 11.048V11.156C378.803 13.154 377.129 14.27 373.295 14.27H372.971C368.867 14.27 367.085 12.74 367.085 10.67V10.526H370.847C370.901 11.642 371.927 12.056 373.151 12.056C374.465 12.056 375.185 11.66 375.185 10.868V10.814C375.185 10.076 374.609 9.896 373.601 9.896H371.225V7.754H373.601C374.375 7.754 374.861 7.448 374.861 6.872V6.818C374.861 6.224 374.267 5.918 373.061 5.918C371.711 5.918 370.991 6.242 370.937 6.944H367.175V6.89C367.175 4.748 369.677 3.74 372.935 3.74H373.223C376.589 3.74 378.479 4.55 378.479 6.422V6.494C378.479 8.006 377.327 8.582 376.499 8.78C377.507 8.978 378.803 9.464 378.803 11.048ZM387.511 14.27H386.953C381.571 14.27 380.743 10.994 380.743 9.176V8.924C380.743 7.124 381.571 3.74 386.935 3.74H387.529C393.073 3.74 393.721 7.142 393.721 8.906V9.194C393.721 10.994 393.073 14.27 387.511 14.27ZM387.133 11.642H387.331C389.545 11.642 390.103 10.058 390.103 8.96C390.103 7.826 389.545 6.314 387.331 6.314H387.133C384.829 6.314 384.361 7.826 384.361 8.96C384.361 10.058 384.829 11.642 387.133 11.642ZM396.136 14V4.01H407.692V14H404.182V6.674H399.646V14H396.136ZM415.319 12.002C417.371 12.002 418.073 10.706 418.073 9.95V9.176C417.767 9.302 416.885 9.482 415.877 9.644C414.185 9.932 413.645 10.166 413.645 10.868V10.904C413.645 11.534 414.095 12.002 415.319 12.002ZM418.181 12.614C417.749 13.136 416.669 14.198 414.329 14.198H414.041C411.251 14.198 410.099 12.686 410.099 11.03V10.958C410.099 9.23 411.197 8.168 414.581 7.88L417.317 7.646C417.875 7.592 418.073 7.412 418.073 6.998C418.073 6.53 417.929 6.026 415.985 6.026C414.149 6.026 413.969 6.746 413.969 7.124H410.369V7.088C410.369 6.098 410.765 3.776 415.679 3.776H416.237C421.187 3.776 421.493 5.81 421.493 7.142V10.436C421.493 11.066 421.619 11.318 422.321 11.318H422.699V14H419.855C418.811 14 418.325 13.262 418.181 12.614ZM433.052 10.076H436.724C436.724 11.588 435.824 14.27 431.018 14.27H430.136C425.15 14.27 424.214 11.03 424.214 9.14V8.888C424.214 6.998 425.096 3.74 430.118 3.74H430.946C435.77 3.74 436.724 6.368 436.724 7.808V7.826H433.052C432.998 7.538 432.656 6.296 430.586 6.296H430.406C428.336 6.296 427.85 7.718 427.85 8.924V8.942C427.85 10.184 428.444 11.66 430.478 11.66H430.658C432.746 11.66 433.052 10.31 433.052 10.076ZM442.624 14H439.114V4.01H442.624V7.646H447.52V4.01H451.03V14H447.52V10.31H442.624V14ZM460.214 14.27H459.656C454.274 14.27 453.446 10.994 453.446 9.176V8.924C453.446 7.124 454.274 3.74 459.638 3.74H460.232C465.776 3.74 466.424 7.142 466.424 8.906V9.194C466.424 10.994 465.776 14.27 460.214 14.27ZM459.836 11.642H460.034C462.248 11.642 462.806 10.058 462.806 8.96C462.806 7.826 462.248 6.314 460.034 6.314H459.836C457.532 6.314 457.064 7.826 457.064 8.96C457.064 10.058 457.532 11.642 459.836 11.642ZM477.191 10.076H480.863C480.863 11.588 479.963 14.27 475.157 14.27H474.275C469.289 14.27 468.353 11.03 468.353 9.14V8.888C468.353 6.998 469.235 3.74 474.257 3.74H475.085C479.909 3.74 480.863 6.368 480.863 7.808V7.826H477.191C477.137 7.538 476.795 6.296 474.725 6.296H474.545C472.475 6.296 471.989 7.718 471.989 8.924V8.942C471.989 10.184 472.583 11.66 474.617 11.66H474.797C476.885 11.66 477.191 10.31 477.191 10.076ZM486.115 14V6.674H482.245V4.01H493.495V6.674H489.625V14H486.115ZM503.823 7.952L498.999 14H495.399V4.01H498.909V10.058L503.733 4.01H507.333V14H503.823V7.952Z" fill="url(#paint2_radial_2017_700)"/>
<path d="M11.1172 4.982V4.892C11.1172 4.262 10.5772 3.29 7.89525 3.29C4.96125 3.29 4.63725 4.316 4.63725 4.874V4.982C4.63725 5.63 5.06925 6.494 7.89525 6.494C10.6312 6.494 11.1172 5.63 11.1172 4.982ZM8.43525 14.198H7.76925C2.45925 14.198 1.30725 11.75 1.30725 10.166V10.148H4.97925C4.97925 10.31 5.23125 11.336 8.02125 11.336C11.2432 11.336 11.6212 9.032 11.6212 7.934V7.808C11.2792 8.096 10.1272 9.104 7.06725 9.104H6.67125C2.35125 9.104 0.821248 7.214 0.821248 5.27V4.982C0.821248 3.128 1.75725 0.446 7.35525 0.446H8.45325C14.4652 0.446 15.4012 4.694 15.4012 6.998V7.412C15.4012 9.446 14.3752 14.198 8.43525 14.198ZM21.8078 10.508V14H17.6138V10.508H21.8078ZM42.194 14V5L34.364 14H30.656V0.608H34.364V9.608L42.194 0.608H45.902V14H42.194ZM52.5305 14H49.0205V4.01H52.5305V7.646H57.4265V4.01H60.9365V14H57.4265V10.31H52.5305V14ZM67.3664 14H63.8564V4.01H67.3664V7.646H72.2624V4.01H75.7724V14H72.2624V10.31H67.3664V14ZM84.9564 14.27H84.3984C79.0164 14.27 78.1884 10.994 78.1884 9.176V8.924C78.1884 7.124 79.0164 3.74 84.3804 3.74H84.9744C90.5184 3.74 91.1664 7.142 91.1664 8.906V9.194C91.1664 10.994 90.5184 14.27 84.9564 14.27ZM84.5784 11.642H84.7764C86.9904 11.642 87.5484 10.058 87.5484 8.96C87.5484 7.826 86.9904 6.314 84.7764 6.314H84.5784C82.2744 6.314 81.8064 7.826 81.8064 8.96C81.8064 10.058 82.2744 11.642 84.5784 11.642ZM101.825 14H93.581V4.01H101.465C103.751 4.01 105.191 4.82 105.191 6.404V6.494C105.191 7.736 104.399 8.474 103.193 8.672C104.417 8.816 105.515 9.68 105.515 11.12V11.192C105.515 13.01 104.327 14 101.825 14ZM97.091 7.988H100.313C101.159 7.988 101.591 7.664 101.591 7.034V6.944C101.591 6.368 101.195 6.026 100.313 6.026H97.091V7.988ZM97.091 11.984H100.457C101.393 11.984 101.915 11.678 101.915 10.976V10.832C101.915 10.202 101.483 9.806 100.457 9.806H97.091V11.984ZM112.588 12.002C114.64 12.002 115.342 10.706 115.342 9.95V9.176C115.036 9.302 114.154 9.482 113.146 9.644C111.454 9.932 110.914 10.166 110.914 10.868V10.904C110.914 11.534 111.364 12.002 112.588 12.002ZM115.45 12.614C115.018 13.136 113.938 14.198 111.598 14.198H111.31C108.52 14.198 107.368 12.686 107.368 11.03V10.958C107.368 9.23 108.466 8.168 111.85 7.88L114.586 7.646C115.144 7.592 115.342 7.412 115.342 6.998C115.342 6.53 115.198 6.026 113.254 6.026C111.418 6.026 111.238 6.746 111.238 7.124H107.638V7.088C107.638 6.098 108.034 3.776 112.948 3.776H113.506C118.456 3.776 118.762 5.81 118.762 7.142V10.436C118.762 11.066 118.888 11.318 119.59 11.318H119.968V14H117.124C116.08 14 115.594 13.262 115.45 12.614ZM135.326 11.336V16.124H131.996V14H121.97V4.01H125.48V11.336H130.016V4.01H133.526V11.336H135.326ZM145.845 7.952L141.021 14H137.421V4.01H140.931V10.058L145.755 4.01H149.355V14H145.845V7.952ZM160.68 10.652H158.322L155.406 14H151.446L154.704 10.274C152.976 9.932 151.986 8.942 151.986 7.43V7.214C151.986 5.396 153.462 4.01 155.964 4.01H164.19V14H160.68V10.652ZM160.68 6.314H156.918C156.144 6.314 155.496 6.494 155.496 7.286V7.358C155.496 8.132 156.162 8.366 156.936 8.366H160.68V6.314ZM180.557 14H172.313V4.01H180.197C182.483 4.01 183.923 4.82 183.923 6.404V6.494C183.923 7.736 183.131 8.474 181.925 8.672C183.149 8.816 184.247 9.68 184.247 11.12V11.192C184.247 13.01 183.059 14 180.557 14ZM175.823 7.988H179.045C179.891 7.988 180.323 7.664 180.323 7.034V6.944C180.323 6.368 179.927 6.026 179.045 6.026H175.823V7.988ZM175.823 11.984H179.189C180.125 11.984 180.647 11.678 180.647 10.976V10.832C180.647 10.202 180.215 9.806 179.189 9.806H175.823V11.984ZM191.896 14V4.01H200.607V6.674H195.406V14H191.896ZM210.439 14V6.674H206.479C206.479 9.356 206.389 10.85 206.047 11.768C205.669 12.776 205.165 14 202.519 14H201.421V11.39H201.637C202.267 11.39 202.735 11.174 202.933 10.256C203.077 9.482 203.131 8.636 203.131 4.01H213.949V14H210.439ZM223.12 14.27H222.562C217.18 14.27 216.352 10.994 216.352 9.176V8.924C216.352 7.124 217.18 3.74 222.544 3.74H223.138C228.682 3.74 229.33 7.142 229.33 8.906V9.194C229.33 10.994 228.682 14.27 223.12 14.27ZM222.742 11.642H222.94C225.154 11.642 225.712 10.058 225.712 8.96C225.712 7.826 225.154 6.314 222.94 6.314H222.742C220.438 6.314 219.97 7.826 219.97 8.96C219.97 10.058 220.438 11.642 222.742 11.642ZM244.219 9.122V9.356C244.219 13.1 241.375 14.27 237.973 14.27H237.613C234.103 14.27 231.241 12.902 231.241 8.15V7.088C231.241 2.282 233.635 0.698 238.315 0.698H239.125C240.241 0.698 240.313 0.589999 240.349 0.373999H243.787C243.787 2.48 242.995 3.362 240.547 3.362H238.315C235.723 3.362 234.733 4.172 234.679 5.99C235.597 5.036 237.001 4.388 239.215 4.388H239.323C241.699 4.388 244.219 5.594 244.219 9.122ZM237.649 11.642H237.847C239.431 11.642 240.601 10.85 240.601 9.212C240.601 7.628 239.413 6.854 237.865 6.854H237.649C235.921 6.854 234.859 7.592 234.859 9.23C234.859 10.886 235.939 11.642 237.649 11.642ZM251.262 12.002C253.314 12.002 254.016 10.706 254.016 9.95V9.176C253.71 9.302 252.828 9.482 251.82 9.644C250.128 9.932 249.588 10.166 249.588 10.868V10.904C249.588 11.534 250.038 12.002 251.262 12.002ZM254.124 12.614C253.692 13.136 252.612 14.198 250.272 14.198H249.984C247.194 14.198 246.042 12.686 246.042 11.03V10.958C246.042 9.23 247.14 8.168 250.524 7.88L253.26 7.646C253.818 7.592 254.016 7.412 254.016 6.998C254.016 6.53 253.872 6.026 251.928 6.026C250.092 6.026 249.912 6.746 249.912 7.124H246.312V7.088C246.312 6.098 246.708 3.776 251.622 3.776H252.18C257.13 3.776 257.436 5.81 257.436 7.142V10.436C257.436 11.066 257.562 11.318 258.264 11.318H258.642V14H255.798C254.754 14 254.268 13.262 254.124 12.614ZM268.921 14V6.674H264.961C264.961 9.356 264.871 10.85 264.529 11.768C264.151 12.776 263.647 14 261.001 14H259.903V11.39H260.119C260.749 11.39 261.217 11.174 261.415 10.256C261.559 9.482 261.613 8.636 261.613 4.01H272.431V14H268.921ZM275.339 14V4.01H278.849V6.872H281.585C285.005 6.872 286.337 8.384 286.337 10.292V10.508C286.337 12.596 285.005 14 281.585 14H275.339ZM278.849 11.624H281.153C281.873 11.624 282.737 11.408 282.737 10.436V10.382C282.737 9.482 281.873 9.248 281.153 9.248H278.849V11.624ZM291.927 14H288.417V4.01H291.927V7.646H296.823V4.01H300.333V14H296.823V10.31H291.927V14ZM309.517 14.27H308.959C303.577 14.27 302.749 10.994 302.749 9.176V8.924C302.749 7.124 303.577 3.74 308.941 3.74H309.535C315.079 3.74 315.727 7.142 315.727 8.906V9.194C315.727 10.994 315.079 14.27 309.517 14.27ZM309.139 11.642H309.337C311.551 11.642 312.109 10.058 312.109 8.96C312.109 7.826 311.551 6.314 309.337 6.314H309.139C306.835 6.314 306.367 7.826 306.367 8.96C306.367 10.058 306.835 11.642 309.139 11.642ZM326.566 7.952L321.742 14H318.142V4.01H321.652V10.058L326.476 4.01H330.076V14H326.566V7.952ZM324.334 2.984H323.794C320.932 2.984 320.428 1.04 320.428 0.104V0.0499994H323.074C323.074 0.284 323.182 1.004 324.082 1.004C324.928 1.004 325.054 0.284 325.054 0.0499994H327.664V0.104C327.664 1.04 326.944 2.984 324.334 2.984ZM350.672 9.122V9.356C350.672 13.1 347.828 14.27 344.426 14.27H344.066C340.556 14.27 337.694 12.902 337.694 8.15V7.088C337.694 2.282 340.088 0.698 344.768 0.698H345.578C346.694 0.698 346.766 0.589999 346.802 0.373999H350.24C350.24 2.48 349.448 3.362 347 3.362H344.768C342.176 3.362 341.186 4.172 341.132 5.99C342.05 5.036 343.454 4.388 345.668 4.388H345.776C348.152 4.388 350.672 5.594 350.672 9.122ZM344.102 11.642H344.3C345.884 11.642 347.054 10.85 347.054 9.212C347.054 7.628 345.866 6.854 344.318 6.854H344.102C342.374 6.854 341.312 7.592 341.312 9.23C341.312 10.886 342.392 11.642 344.102 11.642ZM358.901 6.08C357.083 6.08 356.399 6.818 356.219 7.862H361.511C361.511 7.124 361.151 6.08 358.901 6.08ZM361.583 10.886H365.237C365.237 11.714 364.589 14.234 359.423 14.234H358.757C353.825 14.234 352.601 11.534 352.601 9.14V8.888C352.601 6.638 353.717 3.794 358.451 3.794H359.243C364.355 3.794 365.273 6.638 365.273 9.428V9.752H356.183C356.327 10.904 357.065 11.84 359.207 11.84C361.241 11.84 361.493 11.048 361.583 10.886ZM378.803 11.048V11.156C378.803 13.154 377.129 14.27 373.295 14.27H372.971C368.867 14.27 367.085 12.74 367.085 10.67V10.526H370.847C370.901 11.642 371.927 12.056 373.151 12.056C374.465 12.056 375.185 11.66 375.185 10.868V10.814C375.185 10.076 374.609 9.896 373.601 9.896H371.225V7.754H373.601C374.375 7.754 374.861 7.448 374.861 6.872V6.818C374.861 6.224 374.267 5.918 373.061 5.918C371.711 5.918 370.991 6.242 370.937 6.944H367.175V6.89C367.175 4.748 369.677 3.74 372.935 3.74H373.223C376.589 3.74 378.479 4.55 378.479 6.422V6.494C378.479 8.006 377.327 8.582 376.499 8.78C377.507 8.978 378.803 9.464 378.803 11.048ZM387.511 14.27H386.953C381.571 14.27 380.743 10.994 380.743 9.176V8.924C380.743 7.124 381.571 3.74 386.935 3.74H387.529C393.073 3.74 393.721 7.142 393.721 8.906V9.194C393.721 10.994 393.073 14.27 387.511 14.27ZM387.133 11.642H387.331C389.545 11.642 390.103 10.058 390.103 8.96C390.103 7.826 389.545 6.314 387.331 6.314H387.133C384.829 6.314 384.361 7.826 384.361 8.96C384.361 10.058 384.829 11.642 387.133 11.642ZM396.136 14V4.01H407.692V14H404.182V6.674H399.646V14H396.136ZM415.319 12.002C417.371 12.002 418.073 10.706 418.073 9.95V9.176C417.767 9.302 416.885 9.482 415.877 9.644C414.185 9.932 413.645 10.166 413.645 10.868V10.904C413.645 11.534 414.095 12.002 415.319 12.002ZM418.181 12.614C417.749 13.136 416.669 14.198 414.329 14.198H414.041C411.251 14.198 410.099 12.686 410.099 11.03V10.958C410.099 9.23 411.197 8.168 414.581 7.88L417.317 7.646C417.875 7.592 418.073 7.412 418.073 6.998C418.073 6.53 417.929 6.026 415.985 6.026C414.149 6.026 413.969 6.746 413.969 7.124H410.369V7.088C410.369 6.098 410.765 3.776 415.679 3.776H416.237C421.187 3.776 421.493 5.81 421.493 7.142V10.436C421.493 11.066 421.619 11.318 422.321 11.318H422.699V14H419.855C418.811 14 418.325 13.262 418.181 12.614ZM433.052 10.076H436.724C436.724 11.588 435.824 14.27 431.018 14.27H430.136C425.15 14.27 424.214 11.03 424.214 9.14V8.888C424.214 6.998 425.096 3.74 430.118 3.74H430.946C435.77 3.74 436.724 6.368 436.724 7.808V7.826H433.052C432.998 7.538 432.656 6.296 430.586 6.296H430.406C428.336 6.296 427.85 7.718 427.85 8.924V8.942C427.85 10.184 428.444 11.66 430.478 11.66H430.658C432.746 11.66 433.052 10.31 433.052 10.076ZM442.624 14H439.114V4.01H442.624V7.646H447.52V4.01H451.03V14H447.52V10.31H442.624V14ZM460.214 14.27H459.656C454.274 14.27 453.446 10.994 453.446 9.176V8.924C453.446 7.124 454.274 3.74 459.638 3.74H460.232C465.776 3.74 466.424 7.142 466.424 8.906V9.194C466.424 10.994 465.776 14.27 460.214 14.27ZM459.836 11.642H460.034C462.248 11.642 462.806 10.058 462.806 8.96C462.806 7.826 462.248 6.314 460.034 6.314H459.836C457.532 6.314 457.064 7.826 457.064 8.96C457.064 10.058 457.532 11.642 459.836 11.642ZM477.191 10.076H480.863C480.863 11.588 479.963 14.27 475.157 14.27H474.275C469.289 14.27 468.353 11.03 468.353 9.14V8.888C468.353 6.998 469.235 3.74 474.257 3.74H475.085C479.909 3.74 480.863 6.368 480.863 7.808V7.826H477.191C477.137 7.538 476.795 6.296 474.725 6.296H474.545C472.475 6.296 471.989 7.718 471.989 8.924V8.942C471.989 10.184 472.583 11.66 474.617 11.66H474.797C476.885 11.66 477.191 10.31 477.191 10.076ZM486.115 14V6.674H482.245V4.01H493.495V6.674H489.625V14H486.115ZM503.823 7.952L498.999 14H495.399V4.01H498.909V10.058L503.733 4.01H507.333V14H503.823V7.952Z" fill="#C1A875" style="mix-blend-mode:color"/>
<defs>
<linearGradient id="paint0_linear_2017_700" x1="2" y1="6" x2="509" y2="6.00006" gradientUnits="userSpaceOnUse">
<stop stop-color="#576167"/>
<stop offset="0.191294" stop-color="#9EA1A2"/>
<stop offset="0.396166" stop-color="#848989"/>
<stop offset="0.62055" stop-color="#576167"/>
<stop offset="0.830299" stop-color="#757A7C"/>
<stop offset="1" stop-color="#576167"/>
</linearGradient>
<radialGradient id="paint1_radial_2017_700" cx="0" cy="0" r="1" gradientUnits="userSpaceOnUse" gradientTransform="translate(272.003 -3.20225) rotate(89.9999) scale(17.8315 383.562)">
<stop stop-color="white"/>
<stop offset="1" stop-color="white" stop-opacity="0"/>
</radialGradient>
<radialGradient id="paint2_radial_2017_700" cx="0" cy="0" r="1" gradientUnits="userSpaceOnUse" gradientTransform="translate(300.681 23.6629) rotate(-88.1806) scale(25.5634 548.208)">
<stop stop-color="white"/>
<stop offset="1" stop-color="white" stop-opacity="0"/>
</radialGradient>
</defs>
</svg>
