<svg width="197" height="39" viewBox="0 0 197 39" fill="none" xmlns="http://www.w3.org/2000/svg">
<path d="M0.656 14V0.608H10.43C14.264 0.608 15.218 2.282 15.218 3.776V3.974C15.218 5.666 13.76 6.476 12.752 6.62C14.264 6.872 15.884 7.772 15.884 9.932V10.13C15.884 11.948 14.786 14 10.484 14H0.656ZM9.89 3.398H4.364V5.792H9.89C11.024 5.792 11.348 5.252 11.348 4.622V4.586C11.348 3.938 10.988 3.398 9.89 3.398ZM10.178 8.42H4.364V11.066H10.178C11.474 11.066 11.852 10.382 11.852 9.716V9.644C11.852 8.978 11.474 8.42 10.178 8.42ZM24.0962 6.08C22.2782 6.08 21.5942 6.818 21.4142 7.862H26.7062C26.7062 7.124 26.3462 6.08 24.0962 6.08ZM26.7782 10.886H30.4322C30.4322 11.714 29.7842 14.234 24.6182 14.234H23.9522C19.0202 14.234 17.7962 11.534 17.7962 9.14V8.888C17.7962 6.638 18.9122 3.794 23.6462 3.794H24.4382C29.5502 3.794 30.4682 6.638 30.4682 9.428V9.752H21.3782C21.5222 10.904 22.2602 11.84 24.4022 11.84C26.4362 11.84 26.6882 11.048 26.7782 10.886ZM42.0521 9.014V8.96C42.0521 7.88 41.5481 6.422 39.3521 6.422H39.1721C37.0661 6.422 36.4001 7.808 36.4001 8.96V9.014C36.4001 10.112 37.0661 11.552 39.1721 11.552H39.3521C41.5481 11.552 42.0521 10.04 42.0521 9.014ZM32.9081 17.438V4.01H36.3821V5.288C36.8141 4.82 38.1281 3.812 40.3961 3.812H40.6301C44.4461 3.812 45.6881 6.422 45.6881 8.798V9.104C45.6881 11.282 44.4101 14.198 40.6121 14.198H40.3601C38.0741 14.198 36.8501 13.154 36.4181 12.722V17.438H32.9081ZM52.758 12.002C54.81 12.002 55.512 10.706 55.512 9.95V9.176C55.206 9.302 54.324 9.482 53.316 9.644C51.624 9.932 51.084 10.166 51.084 10.868V10.904C51.084 11.534 51.534 12.002 52.758 12.002ZM55.62 12.614C55.188 13.136 54.108 14.198 51.768 14.198H51.48C48.69 14.198 47.538 12.686 47.538 11.03V10.958C47.538 9.23 48.636 8.168 52.02 7.88L54.756 7.646C55.314 7.592 55.512 7.412 55.512 6.998C55.512 6.53 55.368 6.026 53.424 6.026C51.588 6.026 51.408 6.746 51.408 7.124H47.808V7.088C47.808 6.098 48.204 3.776 53.118 3.776H53.676C58.626 3.776 58.932 5.81 58.932 7.142V10.436C58.932 11.066 59.058 11.318 59.76 11.318H60.138V14H57.294C56.25 14 55.764 13.262 55.62 12.614ZM75.5148 14.198H74.6868C68.5668 14.198 66.9468 10.274 66.9468 7.538V6.998C66.9468 4.208 68.5668 0.409999 74.6868 0.409999H75.5148C81.1308 0.409999 83.0028 3.164 83.0028 5.702V5.738H79.1868C79.1328 5.36 78.6288 3.47 75.1008 3.47C71.8248 3.47 70.7988 5.306 70.7988 7.106V7.358C70.7988 9.014 71.8608 11.12 75.1188 11.12C78.6828 11.12 79.1328 9.194 79.1868 8.762H83.0028V8.816C83.0028 11.264 81.2028 14.198 75.5148 14.198ZM91.2798 6.08C89.4618 6.08 88.7778 6.818 88.5978 7.862H93.8898C93.8898 7.124 93.5298 6.08 91.2798 6.08ZM93.9618 10.886H97.6158C97.6158 11.714 96.9678 14.234 91.8018 14.234H91.1358C86.2038 14.234 84.9798 11.534 84.9798 9.14V8.888C84.9798 6.638 86.0958 3.794 90.8298 3.794H91.6218C96.7338 3.794 97.6518 6.638 97.6518 9.428V9.752H88.5618C88.7058 10.904 89.4438 11.84 91.5858 11.84C93.6198 11.84 93.8718 11.048 93.9618 10.886ZM109.236 9.014V8.96C109.236 7.88 108.732 6.422 106.536 6.422H106.356C104.25 6.422 103.584 7.808 103.584 8.96V9.014C103.584 10.112 104.25 11.552 106.356 11.552H106.536C108.732 11.552 109.236 10.04 109.236 9.014ZM100.092 17.438V4.01H103.566V5.288C103.998 4.82 105.312 3.812 107.58 3.812H107.814C111.63 3.812 112.872 6.422 112.872 8.798V9.104C112.872 11.282 111.594 14.198 107.796 14.198H107.544C105.258 14.198 104.034 13.154 103.602 12.722V17.438H100.092ZM115.313 14V4.01H124.025V6.674H118.823V14H115.313ZM131.745 6.08C129.927 6.08 129.243 6.818 129.063 7.862H134.355C134.355 7.124 133.995 6.08 131.745 6.08ZM134.427 10.886H138.081C138.081 11.714 137.433 14.234 132.267 14.234H131.601C126.669 14.234 125.445 11.534 125.445 9.14V8.888C125.445 6.638 126.561 3.794 131.295 3.794H132.087C137.199 3.794 138.117 6.638 138.117 9.428V9.752H129.027C129.171 10.904 129.909 11.84 132.051 11.84C134.085 11.84 134.337 11.048 134.427 10.886ZM146.335 6.08C144.517 6.08 143.833 6.818 143.653 7.862H148.945C148.945 7.124 148.585 6.08 146.335 6.08ZM149.017 10.886H152.671C152.671 11.714 152.023 14.234 146.857 14.234H146.191C141.259 14.234 140.035 11.534 140.035 9.14V8.888C140.035 6.638 141.151 3.794 145.885 3.794H146.677C151.789 3.794 152.707 6.638 152.707 9.428V9.752H143.617C143.761 10.904 144.499 11.84 146.641 11.84C148.675 11.84 148.927 11.048 149.017 10.886ZM163.354 14H155.11V4.01H162.994C165.28 4.01 166.72 4.82 166.72 6.404V6.494C166.72 7.736 165.928 8.474 164.722 8.672C165.946 8.816 167.044 9.68 167.044 11.12V11.192C167.044 13.01 165.856 14 163.354 14ZM158.62 7.988H161.842C162.688 7.988 163.12 7.664 163.12 7.034V6.944C163.12 6.368 162.724 6.026 161.842 6.026H158.62V7.988ZM158.62 11.984H161.986C162.922 11.984 163.444 11.678 163.444 10.976V10.832C163.444 10.202 163.012 9.806 161.986 9.806H158.62V11.984ZM172.999 14H169.489V4.01H172.999V7.646H177.895V4.01H181.405V14H177.895V10.31H172.999V14ZM189.041 12.002C191.093 12.002 191.795 10.706 191.795 9.95V9.176C191.489 9.302 190.607 9.482 189.599 9.644C187.907 9.932 187.367 10.166 187.367 10.868V10.904C187.367 11.534 187.817 12.002 189.041 12.002ZM191.903 12.614C191.471 13.136 190.391 14.198 188.051 14.198H187.763C184.973 14.198 183.821 12.686 183.821 11.03V10.958C183.821 9.23 184.919 8.168 188.303 7.88L191.039 7.646C191.597 7.592 191.795 7.412 191.795 6.998C191.795 6.53 191.651 6.026 189.707 6.026C187.871 6.026 187.691 6.746 187.691 7.124H184.091V7.088C184.091 6.098 184.487 3.776 189.401 3.776H189.959C194.909 3.776 195.215 5.81 195.215 7.142V10.436C195.215 11.066 195.341 11.318 196.043 11.318H196.421V14H193.577C192.533 14 192.047 13.262 191.903 12.614ZM11.834 38V32.618H4.364V38H0.656V24.608H4.364V29.576H11.834V24.608H15.542V38H11.834ZM27.0754 31.952L22.2514 38H18.6514V28.01H22.1614V34.058L26.9854 28.01H30.5854V38H27.0754V31.952ZM40.9389 38L37.0509 33.374V38H33.5409V28.01H37.0509V32.006L40.6149 28.01H44.6649L40.4889 32.492L45.1149 38H40.9389ZM52.3724 38.27H51.8144C46.4324 38.27 45.6044 34.994 45.6044 33.176V32.924C45.6044 31.124 46.4324 27.74 51.7964 27.74H52.3904C57.9344 27.74 58.5824 31.142 58.5824 32.906V33.194C58.5824 34.994 57.9344 38.27 52.3724 38.27ZM51.9944 35.642H52.1924C54.4064 35.642 54.9644 34.058 54.9644 32.96C54.9644 31.826 54.4064 30.314 52.1924 30.314H51.9944C49.6904 30.314 49.2224 31.826 49.2224 32.96C49.2224 34.058 49.6904 35.642 51.9944 35.642ZM69.0113 38V30.674H65.0513C65.0513 33.356 64.9613 34.85 64.6193 35.768C64.2413 36.776 63.7373 38 61.0913 38H59.9933V35.39H60.2093C60.8393 35.39 61.3073 35.174 61.5053 34.256C61.6493 33.482 61.7033 32.636 61.7033 28.01H72.5213V38H69.0113ZM80.1447 36.002C82.1967 36.002 82.8987 34.706 82.8987 33.95V33.176C82.5927 33.302 81.7107 33.482 80.7027 33.644C79.0107 33.932 78.4707 34.166 78.4707 34.868V34.904C78.4707 35.534 78.9207 36.002 80.1447 36.002ZM83.0067 36.614C82.5747 37.136 81.4947 38.198 79.1547 38.198H78.8667C76.0767 38.198 74.9247 36.686 74.9247 35.03V34.958C74.9247 33.23 76.0227 32.168 79.4067 31.88L82.1427 31.646C82.7007 31.592 82.8987 31.412 82.8987 30.998C82.8987 30.53 82.7547 30.026 80.8107 30.026C78.9747 30.026 78.7947 30.746 78.7947 31.124H75.1947V31.088C75.1947 30.098 75.5907 27.776 80.5047 27.776H81.0627C86.0127 27.776 86.3187 29.81 86.3187 31.142V34.436C86.3187 35.066 86.4447 35.318 87.1467 35.318H87.5247V38H84.6807C83.6367 38 83.1507 37.262 83.0067 36.614ZM95.3404 30.08C93.5224 30.08 92.8384 30.818 92.6584 31.862H97.9504C97.9504 31.124 97.5904 30.08 95.3404 30.08ZM98.0224 34.886H101.676C101.676 35.714 101.028 38.234 95.8624 38.234H95.1964C90.2644 38.234 89.0404 35.534 89.0404 33.14V32.888C89.0404 30.638 90.1564 27.794 94.8904 27.794H95.6824C100.794 27.794 101.712 30.638 101.712 33.428V33.752H92.6224C92.7664 34.904 93.5044 35.84 95.6464 35.84C97.6804 35.84 97.9324 35.048 98.0224 34.886ZM112.36 38H104.116V28.01H112C114.286 28.01 115.726 28.82 115.726 30.404V30.494C115.726 31.736 114.934 32.474 113.728 32.672C114.952 32.816 116.05 33.68 116.05 35.12V35.192C116.05 37.01 114.862 38 112.36 38ZM107.626 31.988H110.848C111.694 31.988 112.126 31.664 112.126 31.034V30.944C112.126 30.368 111.73 30.026 110.848 30.026H107.626V31.988ZM107.626 35.984H110.992C111.928 35.984 112.45 35.678 112.45 34.976V34.832C112.45 34.202 112.018 33.806 110.992 33.806H107.626V35.984ZM123.123 36.002C125.175 36.002 125.877 34.706 125.877 33.95V33.176C125.571 33.302 124.689 33.482 123.681 33.644C121.989 33.932 121.449 34.166 121.449 34.868V34.904C121.449 35.534 121.899 36.002 123.123 36.002ZM125.985 36.614C125.553 37.136 124.473 38.198 122.133 38.198H121.845C119.055 38.198 117.903 36.686 117.903 35.03V34.958C117.903 33.23 119.001 32.168 122.385 31.88L125.121 31.646C125.679 31.592 125.877 31.412 125.877 30.998C125.877 30.53 125.733 30.026 123.789 30.026C121.953 30.026 121.773 30.746 121.773 31.124H118.173V31.088C118.173 30.098 118.569 27.776 123.483 27.776H124.041C128.991 27.776 129.297 29.81 129.297 31.142V34.436C129.297 35.066 129.423 35.318 130.125 35.318H130.503V38H127.659C126.615 38 126.129 37.262 125.985 36.614Z" fill="url(#paint0_linear_2017_791)"/>
<path d="M0.656 14V0.608H10.43C14.264 0.608 15.218 2.282 15.218 3.776V3.974C15.218 5.666 13.76 6.476 12.752 6.62C14.264 6.872 15.884 7.772 15.884 9.932V10.13C15.884 11.948 14.786 14 10.484 14H0.656ZM9.89 3.398H4.364V5.792H9.89C11.024 5.792 11.348 5.252 11.348 4.622V4.586C11.348 3.938 10.988 3.398 9.89 3.398ZM10.178 8.42H4.364V11.066H10.178C11.474 11.066 11.852 10.382 11.852 9.716V9.644C11.852 8.978 11.474 8.42 10.178 8.42ZM24.0962 6.08C22.2782 6.08 21.5942 6.818 21.4142 7.862H26.7062C26.7062 7.124 26.3462 6.08 24.0962 6.08ZM26.7782 10.886H30.4322C30.4322 11.714 29.7842 14.234 24.6182 14.234H23.9522C19.0202 14.234 17.7962 11.534 17.7962 9.14V8.888C17.7962 6.638 18.9122 3.794 23.6462 3.794H24.4382C29.5502 3.794 30.4682 6.638 30.4682 9.428V9.752H21.3782C21.5222 10.904 22.2602 11.84 24.4022 11.84C26.4362 11.84 26.6882 11.048 26.7782 10.886ZM42.0521 9.014V8.96C42.0521 7.88 41.5481 6.422 39.3521 6.422H39.1721C37.0661 6.422 36.4001 7.808 36.4001 8.96V9.014C36.4001 10.112 37.0661 11.552 39.1721 11.552H39.3521C41.5481 11.552 42.0521 10.04 42.0521 9.014ZM32.9081 17.438V4.01H36.3821V5.288C36.8141 4.82 38.1281 3.812 40.3961 3.812H40.6301C44.4461 3.812 45.6881 6.422 45.6881 8.798V9.104C45.6881 11.282 44.4101 14.198 40.6121 14.198H40.3601C38.0741 14.198 36.8501 13.154 36.4181 12.722V17.438H32.9081ZM52.758 12.002C54.81 12.002 55.512 10.706 55.512 9.95V9.176C55.206 9.302 54.324 9.482 53.316 9.644C51.624 9.932 51.084 10.166 51.084 10.868V10.904C51.084 11.534 51.534 12.002 52.758 12.002ZM55.62 12.614C55.188 13.136 54.108 14.198 51.768 14.198H51.48C48.69 14.198 47.538 12.686 47.538 11.03V10.958C47.538 9.23 48.636 8.168 52.02 7.88L54.756 7.646C55.314 7.592 55.512 7.412 55.512 6.998C55.512 6.53 55.368 6.026 53.424 6.026C51.588 6.026 51.408 6.746 51.408 7.124H47.808V7.088C47.808 6.098 48.204 3.776 53.118 3.776H53.676C58.626 3.776 58.932 5.81 58.932 7.142V10.436C58.932 11.066 59.058 11.318 59.76 11.318H60.138V14H57.294C56.25 14 55.764 13.262 55.62 12.614ZM75.5148 14.198H74.6868C68.5668 14.198 66.9468 10.274 66.9468 7.538V6.998C66.9468 4.208 68.5668 0.409999 74.6868 0.409999H75.5148C81.1308 0.409999 83.0028 3.164 83.0028 5.702V5.738H79.1868C79.1328 5.36 78.6288 3.47 75.1008 3.47C71.8248 3.47 70.7988 5.306 70.7988 7.106V7.358C70.7988 9.014 71.8608 11.12 75.1188 11.12C78.6828 11.12 79.1328 9.194 79.1868 8.762H83.0028V8.816C83.0028 11.264 81.2028 14.198 75.5148 14.198ZM91.2798 6.08C89.4618 6.08 88.7778 6.818 88.5978 7.862H93.8898C93.8898 7.124 93.5298 6.08 91.2798 6.08ZM93.9618 10.886H97.6158C97.6158 11.714 96.9678 14.234 91.8018 14.234H91.1358C86.2038 14.234 84.9798 11.534 84.9798 9.14V8.888C84.9798 6.638 86.0958 3.794 90.8298 3.794H91.6218C96.7338 3.794 97.6518 6.638 97.6518 9.428V9.752H88.5618C88.7058 10.904 89.4438 11.84 91.5858 11.84C93.6198 11.84 93.8718 11.048 93.9618 10.886ZM109.236 9.014V8.96C109.236 7.88 108.732 6.422 106.536 6.422H106.356C104.25 6.422 103.584 7.808 103.584 8.96V9.014C103.584 10.112 104.25 11.552 106.356 11.552H106.536C108.732 11.552 109.236 10.04 109.236 9.014ZM100.092 17.438V4.01H103.566V5.288C103.998 4.82 105.312 3.812 107.58 3.812H107.814C111.63 3.812 112.872 6.422 112.872 8.798V9.104C112.872 11.282 111.594 14.198 107.796 14.198H107.544C105.258 14.198 104.034 13.154 103.602 12.722V17.438H100.092ZM115.313 14V4.01H124.025V6.674H118.823V14H115.313ZM131.745 6.08C129.927 6.08 129.243 6.818 129.063 7.862H134.355C134.355 7.124 133.995 6.08 131.745 6.08ZM134.427 10.886H138.081C138.081 11.714 137.433 14.234 132.267 14.234H131.601C126.669 14.234 125.445 11.534 125.445 9.14V8.888C125.445 6.638 126.561 3.794 131.295 3.794H132.087C137.199 3.794 138.117 6.638 138.117 9.428V9.752H129.027C129.171 10.904 129.909 11.84 132.051 11.84C134.085 11.84 134.337 11.048 134.427 10.886ZM146.335 6.08C144.517 6.08 143.833 6.818 143.653 7.862H148.945C148.945 7.124 148.585 6.08 146.335 6.08ZM149.017 10.886H152.671C152.671 11.714 152.023 14.234 146.857 14.234H146.191C141.259 14.234 140.035 11.534 140.035 9.14V8.888C140.035 6.638 141.151 3.794 145.885 3.794H146.677C151.789 3.794 152.707 6.638 152.707 9.428V9.752H143.617C143.761 10.904 144.499 11.84 146.641 11.84C148.675 11.84 148.927 11.048 149.017 10.886ZM163.354 14H155.11V4.01H162.994C165.28 4.01 166.72 4.82 166.72 6.404V6.494C166.72 7.736 165.928 8.474 164.722 8.672C165.946 8.816 167.044 9.68 167.044 11.12V11.192C167.044 13.01 165.856 14 163.354 14ZM158.62 7.988H161.842C162.688 7.988 163.12 7.664 163.12 7.034V6.944C163.12 6.368 162.724 6.026 161.842 6.026H158.62V7.988ZM158.62 11.984H161.986C162.922 11.984 163.444 11.678 163.444 10.976V10.832C163.444 10.202 163.012 9.806 161.986 9.806H158.62V11.984ZM172.999 14H169.489V4.01H172.999V7.646H177.895V4.01H181.405V14H177.895V10.31H172.999V14ZM189.041 12.002C191.093 12.002 191.795 10.706 191.795 9.95V9.176C191.489 9.302 190.607 9.482 189.599 9.644C187.907 9.932 187.367 10.166 187.367 10.868V10.904C187.367 11.534 187.817 12.002 189.041 12.002ZM191.903 12.614C191.471 13.136 190.391 14.198 188.051 14.198H187.763C184.973 14.198 183.821 12.686 183.821 11.03V10.958C183.821 9.23 184.919 8.168 188.303 7.88L191.039 7.646C191.597 7.592 191.795 7.412 191.795 6.998C191.795 6.53 191.651 6.026 189.707 6.026C187.871 6.026 187.691 6.746 187.691 7.124H184.091V7.088C184.091 6.098 184.487 3.776 189.401 3.776H189.959C194.909 3.776 195.215 5.81 195.215 7.142V10.436C195.215 11.066 195.341 11.318 196.043 11.318H196.421V14H193.577C192.533 14 192.047 13.262 191.903 12.614ZM11.834 38V32.618H4.364V38H0.656V24.608H4.364V29.576H11.834V24.608H15.542V38H11.834ZM27.0754 31.952L22.2514 38H18.6514V28.01H22.1614V34.058L26.9854 28.01H30.5854V38H27.0754V31.952ZM40.9389 38L37.0509 33.374V38H33.5409V28.01H37.0509V32.006L40.6149 28.01H44.6649L40.4889 32.492L45.1149 38H40.9389ZM52.3724 38.27H51.8144C46.4324 38.27 45.6044 34.994 45.6044 33.176V32.924C45.6044 31.124 46.4324 27.74 51.7964 27.74H52.3904C57.9344 27.74 58.5824 31.142 58.5824 32.906V33.194C58.5824 34.994 57.9344 38.27 52.3724 38.27ZM51.9944 35.642H52.1924C54.4064 35.642 54.9644 34.058 54.9644 32.96C54.9644 31.826 54.4064 30.314 52.1924 30.314H51.9944C49.6904 30.314 49.2224 31.826 49.2224 32.96C49.2224 34.058 49.6904 35.642 51.9944 35.642ZM69.0113 38V30.674H65.0513C65.0513 33.356 64.9613 34.85 64.6193 35.768C64.2413 36.776 63.7373 38 61.0913 38H59.9933V35.39H60.2093C60.8393 35.39 61.3073 35.174 61.5053 34.256C61.6493 33.482 61.7033 32.636 61.7033 28.01H72.5213V38H69.0113ZM80.1447 36.002C82.1967 36.002 82.8987 34.706 82.8987 33.95V33.176C82.5927 33.302 81.7107 33.482 80.7027 33.644C79.0107 33.932 78.4707 34.166 78.4707 34.868V34.904C78.4707 35.534 78.9207 36.002 80.1447 36.002ZM83.0067 36.614C82.5747 37.136 81.4947 38.198 79.1547 38.198H78.8667C76.0767 38.198 74.9247 36.686 74.9247 35.03V34.958C74.9247 33.23 76.0227 32.168 79.4067 31.88L82.1427 31.646C82.7007 31.592 82.8987 31.412 82.8987 30.998C82.8987 30.53 82.7547 30.026 80.8107 30.026C78.9747 30.026 78.7947 30.746 78.7947 31.124H75.1947V31.088C75.1947 30.098 75.5907 27.776 80.5047 27.776H81.0627C86.0127 27.776 86.3187 29.81 86.3187 31.142V34.436C86.3187 35.066 86.4447 35.318 87.1467 35.318H87.5247V38H84.6807C83.6367 38 83.1507 37.262 83.0067 36.614ZM95.3404 30.08C93.5224 30.08 92.8384 30.818 92.6584 31.862H97.9504C97.9504 31.124 97.5904 30.08 95.3404 30.08ZM98.0224 34.886H101.676C101.676 35.714 101.028 38.234 95.8624 38.234H95.1964C90.2644 38.234 89.0404 35.534 89.0404 33.14V32.888C89.0404 30.638 90.1564 27.794 94.8904 27.794H95.6824C100.794 27.794 101.712 30.638 101.712 33.428V33.752H92.6224C92.7664 34.904 93.5044 35.84 95.6464 35.84C97.6804 35.84 97.9324 35.048 98.0224 34.886ZM112.36 38H104.116V28.01H112C114.286 28.01 115.726 28.82 115.726 30.404V30.494C115.726 31.736 114.934 32.474 113.728 32.672C114.952 32.816 116.05 33.68 116.05 35.12V35.192C116.05 37.01 114.862 38 112.36 38ZM107.626 31.988H110.848C111.694 31.988 112.126 31.664 112.126 31.034V30.944C112.126 30.368 111.73 30.026 110.848 30.026H107.626V31.988ZM107.626 35.984H110.992C111.928 35.984 112.45 35.678 112.45 34.976V34.832C112.45 34.202 112.018 33.806 110.992 33.806H107.626V35.984ZM123.123 36.002C125.175 36.002 125.877 34.706 125.877 33.95V33.176C125.571 33.302 124.689 33.482 123.681 33.644C121.989 33.932 121.449 34.166 121.449 34.868V34.904C121.449 35.534 121.899 36.002 123.123 36.002ZM125.985 36.614C125.553 37.136 124.473 38.198 122.133 38.198H121.845C119.055 38.198 117.903 36.686 117.903 35.03V34.958C117.903 33.23 119.001 32.168 122.385 31.88L125.121 31.646C125.679 31.592 125.877 31.412 125.877 30.998C125.877 30.53 125.733 30.026 123.789 30.026C121.953 30.026 121.773 30.746 121.773 31.124H118.173V31.088C118.173 30.098 118.569 27.776 123.483 27.776H124.041C128.991 27.776 129.297 29.81 129.297 31.142V34.436C129.297 35.066 129.423 35.318 130.125 35.318H130.503V38H127.659C126.615 38 126.129 37.262 125.985 36.614Z" fill="url(#paint1_radial_2017_791)" style="mix-blend-mode:overlay"/>
<path d="M0.656 14V0.608H10.43C14.264 0.608 15.218 2.282 15.218 3.776V3.974C15.218 5.666 13.76 6.476 12.752 6.62C14.264 6.872 15.884 7.772 15.884 9.932V10.13C15.884 11.948 14.786 14 10.484 14H0.656ZM9.89 3.398H4.364V5.792H9.89C11.024 5.792 11.348 5.252 11.348 4.622V4.586C11.348 3.938 10.988 3.398 9.89 3.398ZM10.178 8.42H4.364V11.066H10.178C11.474 11.066 11.852 10.382 11.852 9.716V9.644C11.852 8.978 11.474 8.42 10.178 8.42ZM24.0962 6.08C22.2782 6.08 21.5942 6.818 21.4142 7.862H26.7062C26.7062 7.124 26.3462 6.08 24.0962 6.08ZM26.7782 10.886H30.4322C30.4322 11.714 29.7842 14.234 24.6182 14.234H23.9522C19.0202 14.234 17.7962 11.534 17.7962 9.14V8.888C17.7962 6.638 18.9122 3.794 23.6462 3.794H24.4382C29.5502 3.794 30.4682 6.638 30.4682 9.428V9.752H21.3782C21.5222 10.904 22.2602 11.84 24.4022 11.84C26.4362 11.84 26.6882 11.048 26.7782 10.886ZM42.0521 9.014V8.96C42.0521 7.88 41.5481 6.422 39.3521 6.422H39.1721C37.0661 6.422 36.4001 7.808 36.4001 8.96V9.014C36.4001 10.112 37.0661 11.552 39.1721 11.552H39.3521C41.5481 11.552 42.0521 10.04 42.0521 9.014ZM32.9081 17.438V4.01H36.3821V5.288C36.8141 4.82 38.1281 3.812 40.3961 3.812H40.6301C44.4461 3.812 45.6881 6.422 45.6881 8.798V9.104C45.6881 11.282 44.4101 14.198 40.6121 14.198H40.3601C38.0741 14.198 36.8501 13.154 36.4181 12.722V17.438H32.9081ZM52.758 12.002C54.81 12.002 55.512 10.706 55.512 9.95V9.176C55.206 9.302 54.324 9.482 53.316 9.644C51.624 9.932 51.084 10.166 51.084 10.868V10.904C51.084 11.534 51.534 12.002 52.758 12.002ZM55.62 12.614C55.188 13.136 54.108 14.198 51.768 14.198H51.48C48.69 14.198 47.538 12.686 47.538 11.03V10.958C47.538 9.23 48.636 8.168 52.02 7.88L54.756 7.646C55.314 7.592 55.512 7.412 55.512 6.998C55.512 6.53 55.368 6.026 53.424 6.026C51.588 6.026 51.408 6.746 51.408 7.124H47.808V7.088C47.808 6.098 48.204 3.776 53.118 3.776H53.676C58.626 3.776 58.932 5.81 58.932 7.142V10.436C58.932 11.066 59.058 11.318 59.76 11.318H60.138V14H57.294C56.25 14 55.764 13.262 55.62 12.614ZM75.5148 14.198H74.6868C68.5668 14.198 66.9468 10.274 66.9468 7.538V6.998C66.9468 4.208 68.5668 0.409999 74.6868 0.409999H75.5148C81.1308 0.409999 83.0028 3.164 83.0028 5.702V5.738H79.1868C79.1328 5.36 78.6288 3.47 75.1008 3.47C71.8248 3.47 70.7988 5.306 70.7988 7.106V7.358C70.7988 9.014 71.8608 11.12 75.1188 11.12C78.6828 11.12 79.1328 9.194 79.1868 8.762H83.0028V8.816C83.0028 11.264 81.2028 14.198 75.5148 14.198ZM91.2798 6.08C89.4618 6.08 88.7778 6.818 88.5978 7.862H93.8898C93.8898 7.124 93.5298 6.08 91.2798 6.08ZM93.9618 10.886H97.6158C97.6158 11.714 96.9678 14.234 91.8018 14.234H91.1358C86.2038 14.234 84.9798 11.534 84.9798 9.14V8.888C84.9798 6.638 86.0958 3.794 90.8298 3.794H91.6218C96.7338 3.794 97.6518 6.638 97.6518 9.428V9.752H88.5618C88.7058 10.904 89.4438 11.84 91.5858 11.84C93.6198 11.84 93.8718 11.048 93.9618 10.886ZM109.236 9.014V8.96C109.236 7.88 108.732 6.422 106.536 6.422H106.356C104.25 6.422 103.584 7.808 103.584 8.96V9.014C103.584 10.112 104.25 11.552 106.356 11.552H106.536C108.732 11.552 109.236 10.04 109.236 9.014ZM100.092 17.438V4.01H103.566V5.288C103.998 4.82 105.312 3.812 107.58 3.812H107.814C111.63 3.812 112.872 6.422 112.872 8.798V9.104C112.872 11.282 111.594 14.198 107.796 14.198H107.544C105.258 14.198 104.034 13.154 103.602 12.722V17.438H100.092ZM115.313 14V4.01H124.025V6.674H118.823V14H115.313ZM131.745 6.08C129.927 6.08 129.243 6.818 129.063 7.862H134.355C134.355 7.124 133.995 6.08 131.745 6.08ZM134.427 10.886H138.081C138.081 11.714 137.433 14.234 132.267 14.234H131.601C126.669 14.234 125.445 11.534 125.445 9.14V8.888C125.445 6.638 126.561 3.794 131.295 3.794H132.087C137.199 3.794 138.117 6.638 138.117 9.428V9.752H129.027C129.171 10.904 129.909 11.84 132.051 11.84C134.085 11.84 134.337 11.048 134.427 10.886ZM146.335 6.08C144.517 6.08 143.833 6.818 143.653 7.862H148.945C148.945 7.124 148.585 6.08 146.335 6.08ZM149.017 10.886H152.671C152.671 11.714 152.023 14.234 146.857 14.234H146.191C141.259 14.234 140.035 11.534 140.035 9.14V8.888C140.035 6.638 141.151 3.794 145.885 3.794H146.677C151.789 3.794 152.707 6.638 152.707 9.428V9.752H143.617C143.761 10.904 144.499 11.84 146.641 11.84C148.675 11.84 148.927 11.048 149.017 10.886ZM163.354 14H155.11V4.01H162.994C165.28 4.01 166.72 4.82 166.72 6.404V6.494C166.72 7.736 165.928 8.474 164.722 8.672C165.946 8.816 167.044 9.68 167.044 11.12V11.192C167.044 13.01 165.856 14 163.354 14ZM158.62 7.988H161.842C162.688 7.988 163.12 7.664 163.12 7.034V6.944C163.12 6.368 162.724 6.026 161.842 6.026H158.62V7.988ZM158.62 11.984H161.986C162.922 11.984 163.444 11.678 163.444 10.976V10.832C163.444 10.202 163.012 9.806 161.986 9.806H158.62V11.984ZM172.999 14H169.489V4.01H172.999V7.646H177.895V4.01H181.405V14H177.895V10.31H172.999V14ZM189.041 12.002C191.093 12.002 191.795 10.706 191.795 9.95V9.176C191.489 9.302 190.607 9.482 189.599 9.644C187.907 9.932 187.367 10.166 187.367 10.868V10.904C187.367 11.534 187.817 12.002 189.041 12.002ZM191.903 12.614C191.471 13.136 190.391 14.198 188.051 14.198H187.763C184.973 14.198 183.821 12.686 183.821 11.03V10.958C183.821 9.23 184.919 8.168 188.303 7.88L191.039 7.646C191.597 7.592 191.795 7.412 191.795 6.998C191.795 6.53 191.651 6.026 189.707 6.026C187.871 6.026 187.691 6.746 187.691 7.124H184.091V7.088C184.091 6.098 184.487 3.776 189.401 3.776H189.959C194.909 3.776 195.215 5.81 195.215 7.142V10.436C195.215 11.066 195.341 11.318 196.043 11.318H196.421V14H193.577C192.533 14 192.047 13.262 191.903 12.614ZM11.834 38V32.618H4.364V38H0.656V24.608H4.364V29.576H11.834V24.608H15.542V38H11.834ZM27.0754 31.952L22.2514 38H18.6514V28.01H22.1614V34.058L26.9854 28.01H30.5854V38H27.0754V31.952ZM40.9389 38L37.0509 33.374V38H33.5409V28.01H37.0509V32.006L40.6149 28.01H44.6649L40.4889 32.492L45.1149 38H40.9389ZM52.3724 38.27H51.8144C46.4324 38.27 45.6044 34.994 45.6044 33.176V32.924C45.6044 31.124 46.4324 27.74 51.7964 27.74H52.3904C57.9344 27.74 58.5824 31.142 58.5824 32.906V33.194C58.5824 34.994 57.9344 38.27 52.3724 38.27ZM51.9944 35.642H52.1924C54.4064 35.642 54.9644 34.058 54.9644 32.96C54.9644 31.826 54.4064 30.314 52.1924 30.314H51.9944C49.6904 30.314 49.2224 31.826 49.2224 32.96C49.2224 34.058 49.6904 35.642 51.9944 35.642ZM69.0113 38V30.674H65.0513C65.0513 33.356 64.9613 34.85 64.6193 35.768C64.2413 36.776 63.7373 38 61.0913 38H59.9933V35.39H60.2093C60.8393 35.39 61.3073 35.174 61.5053 34.256C61.6493 33.482 61.7033 32.636 61.7033 28.01H72.5213V38H69.0113ZM80.1447 36.002C82.1967 36.002 82.8987 34.706 82.8987 33.95V33.176C82.5927 33.302 81.7107 33.482 80.7027 33.644C79.0107 33.932 78.4707 34.166 78.4707 34.868V34.904C78.4707 35.534 78.9207 36.002 80.1447 36.002ZM83.0067 36.614C82.5747 37.136 81.4947 38.198 79.1547 38.198H78.8667C76.0767 38.198 74.9247 36.686 74.9247 35.03V34.958C74.9247 33.23 76.0227 32.168 79.4067 31.88L82.1427 31.646C82.7007 31.592 82.8987 31.412 82.8987 30.998C82.8987 30.53 82.7547 30.026 80.8107 30.026C78.9747 30.026 78.7947 30.746 78.7947 31.124H75.1947V31.088C75.1947 30.098 75.5907 27.776 80.5047 27.776H81.0627C86.0127 27.776 86.3187 29.81 86.3187 31.142V34.436C86.3187 35.066 86.4447 35.318 87.1467 35.318H87.5247V38H84.6807C83.6367 38 83.1507 37.262 83.0067 36.614ZM95.3404 30.08C93.5224 30.08 92.8384 30.818 92.6584 31.862H97.9504C97.9504 31.124 97.5904 30.08 95.3404 30.08ZM98.0224 34.886H101.676C101.676 35.714 101.028 38.234 95.8624 38.234H95.1964C90.2644 38.234 89.0404 35.534 89.0404 33.14V32.888C89.0404 30.638 90.1564 27.794 94.8904 27.794H95.6824C100.794 27.794 101.712 30.638 101.712 33.428V33.752H92.6224C92.7664 34.904 93.5044 35.84 95.6464 35.84C97.6804 35.84 97.9324 35.048 98.0224 34.886ZM112.36 38H104.116V28.01H112C114.286 28.01 115.726 28.82 115.726 30.404V30.494C115.726 31.736 114.934 32.474 113.728 32.672C114.952 32.816 116.05 33.68 116.05 35.12V35.192C116.05 37.01 114.862 38 112.36 38ZM107.626 31.988H110.848C111.694 31.988 112.126 31.664 112.126 31.034V30.944C112.126 30.368 111.73 30.026 110.848 30.026H107.626V31.988ZM107.626 35.984H110.992C111.928 35.984 112.45 35.678 112.45 34.976V34.832C112.45 34.202 112.018 33.806 110.992 33.806H107.626V35.984ZM123.123 36.002C125.175 36.002 125.877 34.706 125.877 33.95V33.176C125.571 33.302 124.689 33.482 123.681 33.644C121.989 33.932 121.449 34.166 121.449 34.868V34.904C121.449 35.534 121.899 36.002 123.123 36.002ZM125.985 36.614C125.553 37.136 124.473 38.198 122.133 38.198H121.845C119.055 38.198 117.903 36.686 117.903 35.03V34.958C117.903 33.23 119.001 32.168 122.385 31.88L125.121 31.646C125.679 31.592 125.877 31.412 125.877 30.998C125.877 30.53 125.733 30.026 123.789 30.026C121.953 30.026 121.773 30.746 121.773 31.124H118.173V31.088C118.173 30.098 118.569 27.776 123.483 27.776H124.041C128.991 27.776 129.297 29.81 129.297 31.142V34.436C129.297 35.066 129.423 35.318 130.125 35.318H130.503V38H127.659C126.615 38 126.129 37.262 125.985 36.614Z" fill="url(#paint2_radial_2017_791)"/>
<path d="M0.656 14V0.608H10.43C14.264 0.608 15.218 2.282 15.218 3.776V3.974C15.218 5.666 13.76 6.476 12.752 6.62C14.264 6.872 15.884 7.772 15.884 9.932V10.13C15.884 11.948 14.786 14 10.484 14H0.656ZM9.89 3.398H4.364V5.792H9.89C11.024 5.792 11.348 5.252 11.348 4.622V4.586C11.348 3.938 10.988 3.398 9.89 3.398ZM10.178 8.42H4.364V11.066H10.178C11.474 11.066 11.852 10.382 11.852 9.716V9.644C11.852 8.978 11.474 8.42 10.178 8.42ZM24.0962 6.08C22.2782 6.08 21.5942 6.818 21.4142 7.862H26.7062C26.7062 7.124 26.3462 6.08 24.0962 6.08ZM26.7782 10.886H30.4322C30.4322 11.714 29.7842 14.234 24.6182 14.234H23.9522C19.0202 14.234 17.7962 11.534 17.7962 9.14V8.888C17.7962 6.638 18.9122 3.794 23.6462 3.794H24.4382C29.5502 3.794 30.4682 6.638 30.4682 9.428V9.752H21.3782C21.5222 10.904 22.2602 11.84 24.4022 11.84C26.4362 11.84 26.6882 11.048 26.7782 10.886ZM42.0521 9.014V8.96C42.0521 7.88 41.5481 6.422 39.3521 6.422H39.1721C37.0661 6.422 36.4001 7.808 36.4001 8.96V9.014C36.4001 10.112 37.0661 11.552 39.1721 11.552H39.3521C41.5481 11.552 42.0521 10.04 42.0521 9.014ZM32.9081 17.438V4.01H36.3821V5.288C36.8141 4.82 38.1281 3.812 40.3961 3.812H40.6301C44.4461 3.812 45.6881 6.422 45.6881 8.798V9.104C45.6881 11.282 44.4101 14.198 40.6121 14.198H40.3601C38.0741 14.198 36.8501 13.154 36.4181 12.722V17.438H32.9081ZM52.758 12.002C54.81 12.002 55.512 10.706 55.512 9.95V9.176C55.206 9.302 54.324 9.482 53.316 9.644C51.624 9.932 51.084 10.166 51.084 10.868V10.904C51.084 11.534 51.534 12.002 52.758 12.002ZM55.62 12.614C55.188 13.136 54.108 14.198 51.768 14.198H51.48C48.69 14.198 47.538 12.686 47.538 11.03V10.958C47.538 9.23 48.636 8.168 52.02 7.88L54.756 7.646C55.314 7.592 55.512 7.412 55.512 6.998C55.512 6.53 55.368 6.026 53.424 6.026C51.588 6.026 51.408 6.746 51.408 7.124H47.808V7.088C47.808 6.098 48.204 3.776 53.118 3.776H53.676C58.626 3.776 58.932 5.81 58.932 7.142V10.436C58.932 11.066 59.058 11.318 59.76 11.318H60.138V14H57.294C56.25 14 55.764 13.262 55.62 12.614ZM75.5148 14.198H74.6868C68.5668 14.198 66.9468 10.274 66.9468 7.538V6.998C66.9468 4.208 68.5668 0.409999 74.6868 0.409999H75.5148C81.1308 0.409999 83.0028 3.164 83.0028 5.702V5.738H79.1868C79.1328 5.36 78.6288 3.47 75.1008 3.47C71.8248 3.47 70.7988 5.306 70.7988 7.106V7.358C70.7988 9.014 71.8608 11.12 75.1188 11.12C78.6828 11.12 79.1328 9.194 79.1868 8.762H83.0028V8.816C83.0028 11.264 81.2028 14.198 75.5148 14.198ZM91.2798 6.08C89.4618 6.08 88.7778 6.818 88.5978 7.862H93.8898C93.8898 7.124 93.5298 6.08 91.2798 6.08ZM93.9618 10.886H97.6158C97.6158 11.714 96.9678 14.234 91.8018 14.234H91.1358C86.2038 14.234 84.9798 11.534 84.9798 9.14V8.888C84.9798 6.638 86.0958 3.794 90.8298 3.794H91.6218C96.7338 3.794 97.6518 6.638 97.6518 9.428V9.752H88.5618C88.7058 10.904 89.4438 11.84 91.5858 11.84C93.6198 11.84 93.8718 11.048 93.9618 10.886ZM109.236 9.014V8.96C109.236 7.88 108.732 6.422 106.536 6.422H106.356C104.25 6.422 103.584 7.808 103.584 8.96V9.014C103.584 10.112 104.25 11.552 106.356 11.552H106.536C108.732 11.552 109.236 10.04 109.236 9.014ZM100.092 17.438V4.01H103.566V5.288C103.998 4.82 105.312 3.812 107.58 3.812H107.814C111.63 3.812 112.872 6.422 112.872 8.798V9.104C112.872 11.282 111.594 14.198 107.796 14.198H107.544C105.258 14.198 104.034 13.154 103.602 12.722V17.438H100.092ZM115.313 14V4.01H124.025V6.674H118.823V14H115.313ZM131.745 6.08C129.927 6.08 129.243 6.818 129.063 7.862H134.355C134.355 7.124 133.995 6.08 131.745 6.08ZM134.427 10.886H138.081C138.081 11.714 137.433 14.234 132.267 14.234H131.601C126.669 14.234 125.445 11.534 125.445 9.14V8.888C125.445 6.638 126.561 3.794 131.295 3.794H132.087C137.199 3.794 138.117 6.638 138.117 9.428V9.752H129.027C129.171 10.904 129.909 11.84 132.051 11.84C134.085 11.84 134.337 11.048 134.427 10.886ZM146.335 6.08C144.517 6.08 143.833 6.818 143.653 7.862H148.945C148.945 7.124 148.585 6.08 146.335 6.08ZM149.017 10.886H152.671C152.671 11.714 152.023 14.234 146.857 14.234H146.191C141.259 14.234 140.035 11.534 140.035 9.14V8.888C140.035 6.638 141.151 3.794 145.885 3.794H146.677C151.789 3.794 152.707 6.638 152.707 9.428V9.752H143.617C143.761 10.904 144.499 11.84 146.641 11.84C148.675 11.84 148.927 11.048 149.017 10.886ZM163.354 14H155.11V4.01H162.994C165.28 4.01 166.72 4.82 166.72 6.404V6.494C166.72 7.736 165.928 8.474 164.722 8.672C165.946 8.816 167.044 9.68 167.044 11.12V11.192C167.044 13.01 165.856 14 163.354 14ZM158.62 7.988H161.842C162.688 7.988 163.12 7.664 163.12 7.034V6.944C163.12 6.368 162.724 6.026 161.842 6.026H158.62V7.988ZM158.62 11.984H161.986C162.922 11.984 163.444 11.678 163.444 10.976V10.832C163.444 10.202 163.012 9.806 161.986 9.806H158.62V11.984ZM172.999 14H169.489V4.01H172.999V7.646H177.895V4.01H181.405V14H177.895V10.31H172.999V14ZM189.041 12.002C191.093 12.002 191.795 10.706 191.795 9.95V9.176C191.489 9.302 190.607 9.482 189.599 9.644C187.907 9.932 187.367 10.166 187.367 10.868V10.904C187.367 11.534 187.817 12.002 189.041 12.002ZM191.903 12.614C191.471 13.136 190.391 14.198 188.051 14.198H187.763C184.973 14.198 183.821 12.686 183.821 11.03V10.958C183.821 9.23 184.919 8.168 188.303 7.88L191.039 7.646C191.597 7.592 191.795 7.412 191.795 6.998C191.795 6.53 191.651 6.026 189.707 6.026C187.871 6.026 187.691 6.746 187.691 7.124H184.091V7.088C184.091 6.098 184.487 3.776 189.401 3.776H189.959C194.909 3.776 195.215 5.81 195.215 7.142V10.436C195.215 11.066 195.341 11.318 196.043 11.318H196.421V14H193.577C192.533 14 192.047 13.262 191.903 12.614ZM11.834 38V32.618H4.364V38H0.656V24.608H4.364V29.576H11.834V24.608H15.542V38H11.834ZM27.0754 31.952L22.2514 38H18.6514V28.01H22.1614V34.058L26.9854 28.01H30.5854V38H27.0754V31.952ZM40.9389 38L37.0509 33.374V38H33.5409V28.01H37.0509V32.006L40.6149 28.01H44.6649L40.4889 32.492L45.1149 38H40.9389ZM52.3724 38.27H51.8144C46.4324 38.27 45.6044 34.994 45.6044 33.176V32.924C45.6044 31.124 46.4324 27.74 51.7964 27.74H52.3904C57.9344 27.74 58.5824 31.142 58.5824 32.906V33.194C58.5824 34.994 57.9344 38.27 52.3724 38.27ZM51.9944 35.642H52.1924C54.4064 35.642 54.9644 34.058 54.9644 32.96C54.9644 31.826 54.4064 30.314 52.1924 30.314H51.9944C49.6904 30.314 49.2224 31.826 49.2224 32.96C49.2224 34.058 49.6904 35.642 51.9944 35.642ZM69.0113 38V30.674H65.0513C65.0513 33.356 64.9613 34.85 64.6193 35.768C64.2413 36.776 63.7373 38 61.0913 38H59.9933V35.39H60.2093C60.8393 35.39 61.3073 35.174 61.5053 34.256C61.6493 33.482 61.7033 32.636 61.7033 28.01H72.5213V38H69.0113ZM80.1447 36.002C82.1967 36.002 82.8987 34.706 82.8987 33.95V33.176C82.5927 33.302 81.7107 33.482 80.7027 33.644C79.0107 33.932 78.4707 34.166 78.4707 34.868V34.904C78.4707 35.534 78.9207 36.002 80.1447 36.002ZM83.0067 36.614C82.5747 37.136 81.4947 38.198 79.1547 38.198H78.8667C76.0767 38.198 74.9247 36.686 74.9247 35.03V34.958C74.9247 33.23 76.0227 32.168 79.4067 31.88L82.1427 31.646C82.7007 31.592 82.8987 31.412 82.8987 30.998C82.8987 30.53 82.7547 30.026 80.8107 30.026C78.9747 30.026 78.7947 30.746 78.7947 31.124H75.1947V31.088C75.1947 30.098 75.5907 27.776 80.5047 27.776H81.0627C86.0127 27.776 86.3187 29.81 86.3187 31.142V34.436C86.3187 35.066 86.4447 35.318 87.1467 35.318H87.5247V38H84.6807C83.6367 38 83.1507 37.262 83.0067 36.614ZM95.3404 30.08C93.5224 30.08 92.8384 30.818 92.6584 31.862H97.9504C97.9504 31.124 97.5904 30.08 95.3404 30.08ZM98.0224 34.886H101.676C101.676 35.714 101.028 38.234 95.8624 38.234H95.1964C90.2644 38.234 89.0404 35.534 89.0404 33.14V32.888C89.0404 30.638 90.1564 27.794 94.8904 27.794H95.6824C100.794 27.794 101.712 30.638 101.712 33.428V33.752H92.6224C92.7664 34.904 93.5044 35.84 95.6464 35.84C97.6804 35.84 97.9324 35.048 98.0224 34.886ZM112.36 38H104.116V28.01H112C114.286 28.01 115.726 28.82 115.726 30.404V30.494C115.726 31.736 114.934 32.474 113.728 32.672C114.952 32.816 116.05 33.68 116.05 35.12V35.192C116.05 37.01 114.862 38 112.36 38ZM107.626 31.988H110.848C111.694 31.988 112.126 31.664 112.126 31.034V30.944C112.126 30.368 111.73 30.026 110.848 30.026H107.626V31.988ZM107.626 35.984H110.992C111.928 35.984 112.45 35.678 112.45 34.976V34.832C112.45 34.202 112.018 33.806 110.992 33.806H107.626V35.984ZM123.123 36.002C125.175 36.002 125.877 34.706 125.877 33.95V33.176C125.571 33.302 124.689 33.482 123.681 33.644C121.989 33.932 121.449 34.166 121.449 34.868V34.904C121.449 35.534 121.899 36.002 123.123 36.002ZM125.985 36.614C125.553 37.136 124.473 38.198 122.133 38.198H121.845C119.055 38.198 117.903 36.686 117.903 35.03V34.958C117.903 33.23 119.001 32.168 122.385 31.88L125.121 31.646C125.679 31.592 125.877 31.412 125.877 30.998C125.877 30.53 125.733 30.026 123.789 30.026C121.953 30.026 121.773 30.746 121.773 31.124H118.173V31.088C118.173 30.098 118.569 27.776 123.483 27.776H124.041C128.991 27.776 129.297 29.81 129.297 31.142V34.436C129.297 35.066 129.423 35.318 130.125 35.318H130.503V38H127.659C126.615 38 126.129 37.262 125.985 36.614Z" fill="#C1A875" style="mix-blend-mode:color"/>
<defs>
<linearGradient id="paint0_linear_2017_791" x1="-0.999999" y1="30" x2="221" y2="30" gradientUnits="userSpaceOnUse">
<stop stop-color="#576167"/>
<stop offset="0.191294" stop-color="#9EA1A2"/>
<stop offset="0.396166" stop-color="#848989"/>
<stop offset="0.62055" stop-color="#576167"/>
<stop offset="0.830299" stop-color="#757A7C"/>
<stop offset="1" stop-color="#576167"/>
</linearGradient>
<radialGradient id="paint1_radial_2017_791" cx="0" cy="0" r="1" gradientUnits="userSpaceOnUse" gradientTransform="translate(117.226 2.39326) rotate(90) scale(53.4944 167.95)">
<stop stop-color="white"/>
<stop offset="1" stop-color="white" stop-opacity="0"/>
</radialGradient>
<radialGradient id="paint2_radial_2017_791" cx="0" cy="0" r="1" gradientUnits="userSpaceOnUse" gradientTransform="translate(129.783 82.9888) rotate(-89.7344) scale(76.6525 240.162)">
<stop stop-color="white"/>
<stop offset="1" stop-color="white" stop-opacity="0"/>
</radialGradient>
</defs>
</svg>
