<svg width="145" height="66" viewBox="0 0 145 66" fill="none" xmlns="http://www.w3.org/2000/svg">
<path d="M10.998 8.762L8.568 3.308L6.21 8.762H10.998ZM13.338 14L12.24 11.516H5.004L3.924 14H0.198L6.138 0.608H11.106L17.316 14H13.338ZM28.1458 9.014V8.96C28.1458 7.88 27.6418 6.422 25.4458 6.422H25.2658C23.1598 6.422 22.4938 7.808 22.4938 8.96V9.014C22.4938 10.112 23.1598 11.552 25.2658 11.552H25.4458C27.6418 11.552 28.1458 10.04 28.1458 9.014ZM19.0018 17.438V4.01H22.4758V5.288C22.9078 4.82 24.2218 3.812 26.4898 3.812H26.7238C30.5398 3.812 31.7818 6.422 31.7818 8.798V9.104C31.7818 11.282 30.5038 14.198 26.7058 14.198H26.4538C24.1678 14.198 22.9438 13.154 22.5118 12.722V17.438H19.0018ZM37.0856 14V6.674H33.2156V4.01H44.4656V6.674H40.5956V14H37.0856ZM47.1261 17.438V14.936H49.3221C49.6641 14.936 49.8441 14.792 49.8441 14.522V14.504C49.8441 14.288 49.7901 14.09 49.5201 13.532L45.2361 4.01H49.0881L51.8601 11.174L54.6141 4.01H58.1421L53.5701 15.008C52.8681 16.646 52.0041 17.438 50.3481 17.438H47.1261ZM69.1028 9.014V8.96C69.1028 7.88 68.5988 6.422 66.4028 6.422H66.2228C64.1168 6.422 63.4508 7.808 63.4508 8.96V9.014C63.4508 10.112 64.1168 11.552 66.2228 11.552H66.4028C68.5988 11.552 69.1028 10.04 69.1028 9.014ZM59.9588 17.438V4.01H63.4328V5.288C63.8648 4.82 65.1788 3.812 67.4468 3.812H67.6808C71.4968 3.812 72.7388 6.422 72.7388 8.798V9.104C72.7388 11.282 71.4608 14.198 67.6628 14.198H67.4108C65.1248 14.198 63.9008 13.154 63.4688 12.722V17.438H59.9588ZM9.63 38.198H8.802C2.682 38.198 1.062 34.274 1.062 31.538V30.998C1.062 28.208 2.682 24.41 8.802 24.41H9.63C15.246 24.41 17.118 27.164 17.118 29.702V29.738H13.302C13.248 29.36 12.744 27.47 9.216 27.47C5.94 27.47 4.914 29.306 4.914 31.106V31.358C4.914 33.014 5.976 35.12 9.234 35.12C12.798 35.12 13.248 33.194 13.302 32.762H17.118V32.816C17.118 35.264 15.318 38.198 9.63 38.198ZM22.443 38V30.674H18.573V28.01H29.823V30.674H25.953V38H22.443ZM37.5415 30.08C35.7235 30.08 35.0395 30.818 34.8595 31.862H40.1515C40.1515 31.124 39.7915 30.08 37.5415 30.08ZM40.2235 34.886H43.8775C43.8775 35.714 43.2295 38.234 38.0635 38.234H37.3975C32.4655 38.234 31.2415 35.534 31.2415 33.14V32.888C31.2415 30.638 32.3575 27.794 37.0915 27.794H37.8835C42.9955 27.794 43.9135 30.638 43.9135 33.428V33.752H34.8235C34.9675 34.904 35.7055 35.84 37.8475 35.84C39.8815 35.84 40.1335 35.048 40.2235 34.886ZM46.3174 38V28.01H57.8734V38H54.3634V30.674H49.8274V38H46.3174ZM65.5002 36.002C67.5522 36.002 68.2542 34.706 68.2542 33.95V33.176C67.9482 33.302 67.0662 33.482 66.0582 33.644C64.3662 33.932 63.8262 34.166 63.8262 34.868V34.904C63.8262 35.534 64.2762 36.002 65.5002 36.002ZM68.3622 36.614C67.9302 37.136 66.8502 38.198 64.5102 38.198H64.2222C61.4322 38.198 60.2802 36.686 60.2802 35.03V34.958C60.2802 33.23 61.3782 32.168 64.7622 31.88L67.4982 31.646C68.0562 31.592 68.2542 31.412 68.2542 30.998C68.2542 30.53 68.1102 30.026 66.1662 30.026C64.3302 30.026 64.1502 30.746 64.1502 31.124H60.5502V31.088C60.5502 30.098 60.9462 27.776 65.8602 27.776H66.4182C71.3682 27.776 71.6742 29.81 71.6742 31.142V34.436C71.6742 35.066 71.8002 35.318 72.5022 35.318H72.8802V38H70.0362C68.9922 38 68.5062 37.262 68.3622 36.614ZM78.3918 38H74.8818V28.01H78.3918V31.646H83.2878V28.01H86.7978V38H83.2878V34.31H78.3918V38ZM95.9818 38.27H95.4238C90.0418 38.27 89.2138 34.994 89.2138 33.176V32.924C89.2138 31.124 90.0418 27.74 95.4058 27.74H95.9998C101.544 27.74 102.192 31.142 102.192 32.906V33.194C102.192 34.994 101.544 38.27 95.9818 38.27ZM95.6038 35.642H95.8018C98.0158 35.642 98.5738 34.058 98.5738 32.96C98.5738 31.826 98.0158 30.314 95.8018 30.314H95.6038C93.2998 30.314 92.8318 31.826 92.8318 32.96C92.8318 34.058 93.2998 35.642 95.6038 35.642ZM112.85 38H104.606V28.01H112.49C114.776 28.01 116.216 28.82 116.216 30.404V30.494C116.216 31.736 115.424 32.474 114.218 32.672C115.442 32.816 116.54 33.68 116.54 35.12V35.192C116.54 37.01 115.352 38 112.85 38ZM108.116 31.988H111.338C112.184 31.988 112.616 31.664 112.616 31.034V30.944C112.616 30.368 112.22 30.026 111.338 30.026H108.116V31.988ZM108.116 35.984H111.482C112.418 35.984 112.94 35.678 112.94 34.976V34.832C112.94 34.202 112.508 33.806 111.482 33.806H108.116V35.984ZM127.409 31.952L122.585 38H118.985V28.01H122.495V34.058L127.319 28.01H130.919V38H127.409V31.952ZM141.255 28.01H144.765V38H141.255V34.562C140.481 34.652 139.581 34.742 138.645 34.742C134.685 34.742 133.191 33.626 133.191 30.458V28.01H136.701V29.81C136.701 31.682 137.331 32.006 139.185 32.006C139.887 32.006 140.697 31.952 141.255 31.88V28.01ZM11.808 62L5.364 55.7V62H1.656V48.608H5.364V54.116L11.628 48.608H16.344L9.288 54.746L16.65 62H11.808ZM27.2493 57.014V56.96C27.2493 55.88 26.7453 54.422 24.5493 54.422H24.3693C22.2633 54.422 21.5973 55.808 21.5973 56.96V57.014C21.5973 58.112 22.2633 59.552 24.3693 59.552H24.5493C26.7453 59.552 27.2493 58.04 27.2493 57.014ZM18.1053 65.438V52.01H21.5793V53.288C22.0113 52.82 23.3253 51.812 25.5933 51.812H25.8273C29.6433 51.812 30.8853 54.422 30.8853 56.798V57.104C30.8853 59.282 29.6073 62.198 25.8093 62.198H25.5573C23.2713 62.198 22.0473 61.154 21.6153 60.722V65.438H18.1053ZM37.9553 60.002C40.0073 60.002 40.7093 58.706 40.7093 57.95V57.176C40.4033 57.302 39.5213 57.482 38.5133 57.644C36.8213 57.932 36.2812 58.166 36.2812 58.868V58.904C36.2812 59.534 36.7313 60.002 37.9553 60.002ZM40.8173 60.614C40.3853 61.136 39.3053 62.198 36.9653 62.198H36.6773C33.8873 62.198 32.7353 60.686 32.7353 59.03V58.958C32.7353 57.23 33.8333 56.168 37.2173 55.88L39.9533 55.646C40.5113 55.592 40.7093 55.412 40.7093 54.998C40.7093 54.53 40.5653 54.026 38.6213 54.026C36.7853 54.026 36.6053 54.746 36.6053 55.124H33.0053V55.088C33.0053 54.098 33.4013 51.776 38.3153 51.776H38.8733C43.8233 51.776 44.1293 53.81 44.1293 55.142V58.436C44.1293 59.066 44.2553 59.318 44.9573 59.318H45.3353V62H42.4913C41.4473 62 40.9613 61.262 40.8173 60.614ZM55.5809 62H47.3369V52.01H55.2209C57.5069 52.01 58.9469 52.82 58.9469 54.404V54.494C58.9469 55.736 58.1549 56.474 56.9489 56.672C58.1729 56.816 59.2709 57.68 59.2709 59.12V59.192C59.2709 61.01 58.0829 62 55.5809 62ZM50.8469 55.988H54.0689C54.9149 55.988 55.3469 55.664 55.3469 55.034V54.944C55.3469 54.368 54.9509 54.026 54.0689 54.026H50.8469V55.988ZM50.8469 59.984H54.2129C55.1489 59.984 55.6709 59.678 55.6709 58.976V58.832C55.6709 58.202 55.2389 57.806 54.2129 57.806H50.8469V59.984ZM75.0718 59.336V64.124H71.7418V62H61.7158V52.01H65.2258V59.336H69.7618V52.01H73.2718V59.336H75.0718ZM83.2552 62.27H82.6972C77.3152 62.27 76.4872 58.994 76.4872 57.176V56.924C76.4872 55.124 77.3152 51.74 82.6792 51.74H83.2732C88.8172 51.74 89.4652 55.142 89.4652 56.906V57.194C89.4652 58.994 88.8172 62.27 83.2552 62.27ZM82.8772 59.642H83.0752C85.2892 59.642 85.8472 58.058 85.8472 56.96C85.8472 55.826 85.2892 54.314 83.0752 54.314H82.8772C80.5732 54.314 80.1052 55.826 80.1052 56.96C80.1052 58.058 80.5732 59.642 82.8772 59.642ZM100.124 62H91.8799V52.01H99.7639C102.05 52.01 103.49 52.82 103.49 54.404V54.494C103.49 55.736 102.698 56.474 101.492 56.672C102.716 56.816 103.814 57.68 103.814 59.12V59.192C103.814 61.01 102.626 62 100.124 62ZM95.3899 55.988H98.6119C99.4579 55.988 99.8899 55.664 99.8899 55.034V54.944C99.8899 54.368 99.4939 54.026 98.6119 54.026H95.3899V55.988ZM95.3899 59.984H98.7559C99.6919 59.984 100.214 59.678 100.214 58.976V58.832C100.214 58.202 99.7819 57.806 98.7559 57.806H95.3899V59.984Z" fill="url(#paint0_linear_2017_848)"/>
<path d="M10.998 8.762L8.568 3.308L6.21 8.762H10.998ZM13.338 14L12.24 11.516H5.004L3.924 14H0.198L6.138 0.608H11.106L17.316 14H13.338ZM28.1458 9.014V8.96C28.1458 7.88 27.6418 6.422 25.4458 6.422H25.2658C23.1598 6.422 22.4938 7.808 22.4938 8.96V9.014C22.4938 10.112 23.1598 11.552 25.2658 11.552H25.4458C27.6418 11.552 28.1458 10.04 28.1458 9.014ZM19.0018 17.438V4.01H22.4758V5.288C22.9078 4.82 24.2218 3.812 26.4898 3.812H26.7238C30.5398 3.812 31.7818 6.422 31.7818 8.798V9.104C31.7818 11.282 30.5038 14.198 26.7058 14.198H26.4538C24.1678 14.198 22.9438 13.154 22.5118 12.722V17.438H19.0018ZM37.0856 14V6.674H33.2156V4.01H44.4656V6.674H40.5956V14H37.0856ZM47.1261 17.438V14.936H49.3221C49.6641 14.936 49.8441 14.792 49.8441 14.522V14.504C49.8441 14.288 49.7901 14.09 49.5201 13.532L45.2361 4.01H49.0881L51.8601 11.174L54.6141 4.01H58.1421L53.5701 15.008C52.8681 16.646 52.0041 17.438 50.3481 17.438H47.1261ZM69.1028 9.014V8.96C69.1028 7.88 68.5988 6.422 66.4028 6.422H66.2228C64.1168 6.422 63.4508 7.808 63.4508 8.96V9.014C63.4508 10.112 64.1168 11.552 66.2228 11.552H66.4028C68.5988 11.552 69.1028 10.04 69.1028 9.014ZM59.9588 17.438V4.01H63.4328V5.288C63.8648 4.82 65.1788 3.812 67.4468 3.812H67.6808C71.4968 3.812 72.7388 6.422 72.7388 8.798V9.104C72.7388 11.282 71.4608 14.198 67.6628 14.198H67.4108C65.1248 14.198 63.9008 13.154 63.4688 12.722V17.438H59.9588ZM9.63 38.198H8.802C2.682 38.198 1.062 34.274 1.062 31.538V30.998C1.062 28.208 2.682 24.41 8.802 24.41H9.63C15.246 24.41 17.118 27.164 17.118 29.702V29.738H13.302C13.248 29.36 12.744 27.47 9.216 27.47C5.94 27.47 4.914 29.306 4.914 31.106V31.358C4.914 33.014 5.976 35.12 9.234 35.12C12.798 35.12 13.248 33.194 13.302 32.762H17.118V32.816C17.118 35.264 15.318 38.198 9.63 38.198ZM22.443 38V30.674H18.573V28.01H29.823V30.674H25.953V38H22.443ZM37.5415 30.08C35.7235 30.08 35.0395 30.818 34.8595 31.862H40.1515C40.1515 31.124 39.7915 30.08 37.5415 30.08ZM40.2235 34.886H43.8775C43.8775 35.714 43.2295 38.234 38.0635 38.234H37.3975C32.4655 38.234 31.2415 35.534 31.2415 33.14V32.888C31.2415 30.638 32.3575 27.794 37.0915 27.794H37.8835C42.9955 27.794 43.9135 30.638 43.9135 33.428V33.752H34.8235C34.9675 34.904 35.7055 35.84 37.8475 35.84C39.8815 35.84 40.1335 35.048 40.2235 34.886ZM46.3174 38V28.01H57.8734V38H54.3634V30.674H49.8274V38H46.3174ZM65.5002 36.002C67.5522 36.002 68.2542 34.706 68.2542 33.95V33.176C67.9482 33.302 67.0662 33.482 66.0582 33.644C64.3662 33.932 63.8262 34.166 63.8262 34.868V34.904C63.8262 35.534 64.2762 36.002 65.5002 36.002ZM68.3622 36.614C67.9302 37.136 66.8502 38.198 64.5102 38.198H64.2222C61.4322 38.198 60.2802 36.686 60.2802 35.03V34.958C60.2802 33.23 61.3782 32.168 64.7622 31.88L67.4982 31.646C68.0562 31.592 68.2542 31.412 68.2542 30.998C68.2542 30.53 68.1102 30.026 66.1662 30.026C64.3302 30.026 64.1502 30.746 64.1502 31.124H60.5502V31.088C60.5502 30.098 60.9462 27.776 65.8602 27.776H66.4182C71.3682 27.776 71.6742 29.81 71.6742 31.142V34.436C71.6742 35.066 71.8002 35.318 72.5022 35.318H72.8802V38H70.0362C68.9922 38 68.5062 37.262 68.3622 36.614ZM78.3918 38H74.8818V28.01H78.3918V31.646H83.2878V28.01H86.7978V38H83.2878V34.31H78.3918V38ZM95.9818 38.27H95.4238C90.0418 38.27 89.2138 34.994 89.2138 33.176V32.924C89.2138 31.124 90.0418 27.74 95.4058 27.74H95.9998C101.544 27.74 102.192 31.142 102.192 32.906V33.194C102.192 34.994 101.544 38.27 95.9818 38.27ZM95.6038 35.642H95.8018C98.0158 35.642 98.5738 34.058 98.5738 32.96C98.5738 31.826 98.0158 30.314 95.8018 30.314H95.6038C93.2998 30.314 92.8318 31.826 92.8318 32.96C92.8318 34.058 93.2998 35.642 95.6038 35.642ZM112.85 38H104.606V28.01H112.49C114.776 28.01 116.216 28.82 116.216 30.404V30.494C116.216 31.736 115.424 32.474 114.218 32.672C115.442 32.816 116.54 33.68 116.54 35.12V35.192C116.54 37.01 115.352 38 112.85 38ZM108.116 31.988H111.338C112.184 31.988 112.616 31.664 112.616 31.034V30.944C112.616 30.368 112.22 30.026 111.338 30.026H108.116V31.988ZM108.116 35.984H111.482C112.418 35.984 112.94 35.678 112.94 34.976V34.832C112.94 34.202 112.508 33.806 111.482 33.806H108.116V35.984ZM127.409 31.952L122.585 38H118.985V28.01H122.495V34.058L127.319 28.01H130.919V38H127.409V31.952ZM141.255 28.01H144.765V38H141.255V34.562C140.481 34.652 139.581 34.742 138.645 34.742C134.685 34.742 133.191 33.626 133.191 30.458V28.01H136.701V29.81C136.701 31.682 137.331 32.006 139.185 32.006C139.887 32.006 140.697 31.952 141.255 31.88V28.01ZM11.808 62L5.364 55.7V62H1.656V48.608H5.364V54.116L11.628 48.608H16.344L9.288 54.746L16.65 62H11.808ZM27.2493 57.014V56.96C27.2493 55.88 26.7453 54.422 24.5493 54.422H24.3693C22.2633 54.422 21.5973 55.808 21.5973 56.96V57.014C21.5973 58.112 22.2633 59.552 24.3693 59.552H24.5493C26.7453 59.552 27.2493 58.04 27.2493 57.014ZM18.1053 65.438V52.01H21.5793V53.288C22.0113 52.82 23.3253 51.812 25.5933 51.812H25.8273C29.6433 51.812 30.8853 54.422 30.8853 56.798V57.104C30.8853 59.282 29.6073 62.198 25.8093 62.198H25.5573C23.2713 62.198 22.0473 61.154 21.6153 60.722V65.438H18.1053ZM37.9553 60.002C40.0073 60.002 40.7093 58.706 40.7093 57.95V57.176C40.4033 57.302 39.5213 57.482 38.5133 57.644C36.8213 57.932 36.2812 58.166 36.2812 58.868V58.904C36.2812 59.534 36.7313 60.002 37.9553 60.002ZM40.8173 60.614C40.3853 61.136 39.3053 62.198 36.9653 62.198H36.6773C33.8873 62.198 32.7353 60.686 32.7353 59.03V58.958C32.7353 57.23 33.8333 56.168 37.2173 55.88L39.9533 55.646C40.5113 55.592 40.7093 55.412 40.7093 54.998C40.7093 54.53 40.5653 54.026 38.6213 54.026C36.7853 54.026 36.6053 54.746 36.6053 55.124H33.0053V55.088C33.0053 54.098 33.4013 51.776 38.3153 51.776H38.8733C43.8233 51.776 44.1293 53.81 44.1293 55.142V58.436C44.1293 59.066 44.2553 59.318 44.9573 59.318H45.3353V62H42.4913C41.4473 62 40.9613 61.262 40.8173 60.614ZM55.5809 62H47.3369V52.01H55.2209C57.5069 52.01 58.9469 52.82 58.9469 54.404V54.494C58.9469 55.736 58.1549 56.474 56.9489 56.672C58.1729 56.816 59.2709 57.68 59.2709 59.12V59.192C59.2709 61.01 58.0829 62 55.5809 62ZM50.8469 55.988H54.0689C54.9149 55.988 55.3469 55.664 55.3469 55.034V54.944C55.3469 54.368 54.9509 54.026 54.0689 54.026H50.8469V55.988ZM50.8469 59.984H54.2129C55.1489 59.984 55.6709 59.678 55.6709 58.976V58.832C55.6709 58.202 55.2389 57.806 54.2129 57.806H50.8469V59.984ZM75.0718 59.336V64.124H71.7418V62H61.7158V52.01H65.2258V59.336H69.7618V52.01H73.2718V59.336H75.0718ZM83.2552 62.27H82.6972C77.3152 62.27 76.4872 58.994 76.4872 57.176V56.924C76.4872 55.124 77.3152 51.74 82.6792 51.74H83.2732C88.8172 51.74 89.4652 55.142 89.4652 56.906V57.194C89.4652 58.994 88.8172 62.27 83.2552 62.27ZM82.8772 59.642H83.0752C85.2892 59.642 85.8472 58.058 85.8472 56.96C85.8472 55.826 85.2892 54.314 83.0752 54.314H82.8772C80.5732 54.314 80.1052 55.826 80.1052 56.96C80.1052 58.058 80.5732 59.642 82.8772 59.642ZM100.124 62H91.8799V52.01H99.7639C102.05 52.01 103.49 52.82 103.49 54.404V54.494C103.49 55.736 102.698 56.474 101.492 56.672C102.716 56.816 103.814 57.68 103.814 59.12V59.192C103.814 61.01 102.626 62 100.124 62ZM95.3899 55.988H98.6119C99.4579 55.988 99.8899 55.664 99.8899 55.034V54.944C99.8899 54.368 99.4939 54.026 98.6119 54.026H95.3899V55.988ZM95.3899 59.984H98.7559C99.6919 59.984 100.214 59.678 100.214 58.976V58.832C100.214 58.202 99.7819 57.806 98.7559 57.806H95.3899V59.984Z" fill="url(#paint1_radial_2017_848)" style="mix-blend-mode:overlay"/>
<path d="M10.998 8.762L8.568 3.308L6.21 8.762H10.998ZM13.338 14L12.24 11.516H5.004L3.924 14H0.198L6.138 0.608H11.106L17.316 14H13.338ZM28.1458 9.014V8.96C28.1458 7.88 27.6418 6.422 25.4458 6.422H25.2658C23.1598 6.422 22.4938 7.808 22.4938 8.96V9.014C22.4938 10.112 23.1598 11.552 25.2658 11.552H25.4458C27.6418 11.552 28.1458 10.04 28.1458 9.014ZM19.0018 17.438V4.01H22.4758V5.288C22.9078 4.82 24.2218 3.812 26.4898 3.812H26.7238C30.5398 3.812 31.7818 6.422 31.7818 8.798V9.104C31.7818 11.282 30.5038 14.198 26.7058 14.198H26.4538C24.1678 14.198 22.9438 13.154 22.5118 12.722V17.438H19.0018ZM37.0856 14V6.674H33.2156V4.01H44.4656V6.674H40.5956V14H37.0856ZM47.1261 17.438V14.936H49.3221C49.6641 14.936 49.8441 14.792 49.8441 14.522V14.504C49.8441 14.288 49.7901 14.09 49.5201 13.532L45.2361 4.01H49.0881L51.8601 11.174L54.6141 4.01H58.1421L53.5701 15.008C52.8681 16.646 52.0041 17.438 50.3481 17.438H47.1261ZM69.1028 9.014V8.96C69.1028 7.88 68.5988 6.422 66.4028 6.422H66.2228C64.1168 6.422 63.4508 7.808 63.4508 8.96V9.014C63.4508 10.112 64.1168 11.552 66.2228 11.552H66.4028C68.5988 11.552 69.1028 10.04 69.1028 9.014ZM59.9588 17.438V4.01H63.4328V5.288C63.8648 4.82 65.1788 3.812 67.4468 3.812H67.6808C71.4968 3.812 72.7388 6.422 72.7388 8.798V9.104C72.7388 11.282 71.4608 14.198 67.6628 14.198H67.4108C65.1248 14.198 63.9008 13.154 63.4688 12.722V17.438H59.9588ZM9.63 38.198H8.802C2.682 38.198 1.062 34.274 1.062 31.538V30.998C1.062 28.208 2.682 24.41 8.802 24.41H9.63C15.246 24.41 17.118 27.164 17.118 29.702V29.738H13.302C13.248 29.36 12.744 27.47 9.216 27.47C5.94 27.47 4.914 29.306 4.914 31.106V31.358C4.914 33.014 5.976 35.12 9.234 35.12C12.798 35.12 13.248 33.194 13.302 32.762H17.118V32.816C17.118 35.264 15.318 38.198 9.63 38.198ZM22.443 38V30.674H18.573V28.01H29.823V30.674H25.953V38H22.443ZM37.5415 30.08C35.7235 30.08 35.0395 30.818 34.8595 31.862H40.1515C40.1515 31.124 39.7915 30.08 37.5415 30.08ZM40.2235 34.886H43.8775C43.8775 35.714 43.2295 38.234 38.0635 38.234H37.3975C32.4655 38.234 31.2415 35.534 31.2415 33.14V32.888C31.2415 30.638 32.3575 27.794 37.0915 27.794H37.8835C42.9955 27.794 43.9135 30.638 43.9135 33.428V33.752H34.8235C34.9675 34.904 35.7055 35.84 37.8475 35.84C39.8815 35.84 40.1335 35.048 40.2235 34.886ZM46.3174 38V28.01H57.8734V38H54.3634V30.674H49.8274V38H46.3174ZM65.5002 36.002C67.5522 36.002 68.2542 34.706 68.2542 33.95V33.176C67.9482 33.302 67.0662 33.482 66.0582 33.644C64.3662 33.932 63.8262 34.166 63.8262 34.868V34.904C63.8262 35.534 64.2762 36.002 65.5002 36.002ZM68.3622 36.614C67.9302 37.136 66.8502 38.198 64.5102 38.198H64.2222C61.4322 38.198 60.2802 36.686 60.2802 35.03V34.958C60.2802 33.23 61.3782 32.168 64.7622 31.88L67.4982 31.646C68.0562 31.592 68.2542 31.412 68.2542 30.998C68.2542 30.53 68.1102 30.026 66.1662 30.026C64.3302 30.026 64.1502 30.746 64.1502 31.124H60.5502V31.088C60.5502 30.098 60.9462 27.776 65.8602 27.776H66.4182C71.3682 27.776 71.6742 29.81 71.6742 31.142V34.436C71.6742 35.066 71.8002 35.318 72.5022 35.318H72.8802V38H70.0362C68.9922 38 68.5062 37.262 68.3622 36.614ZM78.3918 38H74.8818V28.01H78.3918V31.646H83.2878V28.01H86.7978V38H83.2878V34.31H78.3918V38ZM95.9818 38.27H95.4238C90.0418 38.27 89.2138 34.994 89.2138 33.176V32.924C89.2138 31.124 90.0418 27.74 95.4058 27.74H95.9998C101.544 27.74 102.192 31.142 102.192 32.906V33.194C102.192 34.994 101.544 38.27 95.9818 38.27ZM95.6038 35.642H95.8018C98.0158 35.642 98.5738 34.058 98.5738 32.96C98.5738 31.826 98.0158 30.314 95.8018 30.314H95.6038C93.2998 30.314 92.8318 31.826 92.8318 32.96C92.8318 34.058 93.2998 35.642 95.6038 35.642ZM112.85 38H104.606V28.01H112.49C114.776 28.01 116.216 28.82 116.216 30.404V30.494C116.216 31.736 115.424 32.474 114.218 32.672C115.442 32.816 116.54 33.68 116.54 35.12V35.192C116.54 37.01 115.352 38 112.85 38ZM108.116 31.988H111.338C112.184 31.988 112.616 31.664 112.616 31.034V30.944C112.616 30.368 112.22 30.026 111.338 30.026H108.116V31.988ZM108.116 35.984H111.482C112.418 35.984 112.94 35.678 112.94 34.976V34.832C112.94 34.202 112.508 33.806 111.482 33.806H108.116V35.984ZM127.409 31.952L122.585 38H118.985V28.01H122.495V34.058L127.319 28.01H130.919V38H127.409V31.952ZM141.255 28.01H144.765V38H141.255V34.562C140.481 34.652 139.581 34.742 138.645 34.742C134.685 34.742 133.191 33.626 133.191 30.458V28.01H136.701V29.81C136.701 31.682 137.331 32.006 139.185 32.006C139.887 32.006 140.697 31.952 141.255 31.88V28.01ZM11.808 62L5.364 55.7V62H1.656V48.608H5.364V54.116L11.628 48.608H16.344L9.288 54.746L16.65 62H11.808ZM27.2493 57.014V56.96C27.2493 55.88 26.7453 54.422 24.5493 54.422H24.3693C22.2633 54.422 21.5973 55.808 21.5973 56.96V57.014C21.5973 58.112 22.2633 59.552 24.3693 59.552H24.5493C26.7453 59.552 27.2493 58.04 27.2493 57.014ZM18.1053 65.438V52.01H21.5793V53.288C22.0113 52.82 23.3253 51.812 25.5933 51.812H25.8273C29.6433 51.812 30.8853 54.422 30.8853 56.798V57.104C30.8853 59.282 29.6073 62.198 25.8093 62.198H25.5573C23.2713 62.198 22.0473 61.154 21.6153 60.722V65.438H18.1053ZM37.9553 60.002C40.0073 60.002 40.7093 58.706 40.7093 57.95V57.176C40.4033 57.302 39.5213 57.482 38.5133 57.644C36.8213 57.932 36.2812 58.166 36.2812 58.868V58.904C36.2812 59.534 36.7313 60.002 37.9553 60.002ZM40.8173 60.614C40.3853 61.136 39.3053 62.198 36.9653 62.198H36.6773C33.8873 62.198 32.7353 60.686 32.7353 59.03V58.958C32.7353 57.23 33.8333 56.168 37.2173 55.88L39.9533 55.646C40.5113 55.592 40.7093 55.412 40.7093 54.998C40.7093 54.53 40.5653 54.026 38.6213 54.026C36.7853 54.026 36.6053 54.746 36.6053 55.124H33.0053V55.088C33.0053 54.098 33.4013 51.776 38.3153 51.776H38.8733C43.8233 51.776 44.1293 53.81 44.1293 55.142V58.436C44.1293 59.066 44.2553 59.318 44.9573 59.318H45.3353V62H42.4913C41.4473 62 40.9613 61.262 40.8173 60.614ZM55.5809 62H47.3369V52.01H55.2209C57.5069 52.01 58.9469 52.82 58.9469 54.404V54.494C58.9469 55.736 58.1549 56.474 56.9489 56.672C58.1729 56.816 59.2709 57.68 59.2709 59.12V59.192C59.2709 61.01 58.0829 62 55.5809 62ZM50.8469 55.988H54.0689C54.9149 55.988 55.3469 55.664 55.3469 55.034V54.944C55.3469 54.368 54.9509 54.026 54.0689 54.026H50.8469V55.988ZM50.8469 59.984H54.2129C55.1489 59.984 55.6709 59.678 55.6709 58.976V58.832C55.6709 58.202 55.2389 57.806 54.2129 57.806H50.8469V59.984ZM75.0718 59.336V64.124H71.7418V62H61.7158V52.01H65.2258V59.336H69.7618V52.01H73.2718V59.336H75.0718ZM83.2552 62.27H82.6972C77.3152 62.27 76.4872 58.994 76.4872 57.176V56.924C76.4872 55.124 77.3152 51.74 82.6792 51.74H83.2732C88.8172 51.74 89.4652 55.142 89.4652 56.906V57.194C89.4652 58.994 88.8172 62.27 83.2552 62.27ZM82.8772 59.642H83.0752C85.2892 59.642 85.8472 58.058 85.8472 56.96C85.8472 55.826 85.2892 54.314 83.0752 54.314H82.8772C80.5732 54.314 80.1052 55.826 80.1052 56.96C80.1052 58.058 80.5732 59.642 82.8772 59.642ZM100.124 62H91.8799V52.01H99.7639C102.05 52.01 103.49 52.82 103.49 54.404V54.494C103.49 55.736 102.698 56.474 101.492 56.672C102.716 56.816 103.814 57.68 103.814 59.12V59.192C103.814 61.01 102.626 62 100.124 62ZM95.3899 55.988H98.6119C99.4579 55.988 99.8899 55.664 99.8899 55.034V54.944C99.8899 54.368 99.4939 54.026 98.6119 54.026H95.3899V55.988ZM95.3899 59.984H98.7559C99.6919 59.984 100.214 59.678 100.214 58.976V58.832C100.214 58.202 99.7819 57.806 98.7559 57.806H95.3899V59.984Z" fill="url(#paint2_radial_2017_848)"/>
<path d="M10.998 8.762L8.568 3.308L6.21 8.762H10.998ZM13.338 14L12.24 11.516H5.004L3.924 14H0.198L6.138 0.608H11.106L17.316 14H13.338ZM28.1458 9.014V8.96C28.1458 7.88 27.6418 6.422 25.4458 6.422H25.2658C23.1598 6.422 22.4938 7.808 22.4938 8.96V9.014C22.4938 10.112 23.1598 11.552 25.2658 11.552H25.4458C27.6418 11.552 28.1458 10.04 28.1458 9.014ZM19.0018 17.438V4.01H22.4758V5.288C22.9078 4.82 24.2218 3.812 26.4898 3.812H26.7238C30.5398 3.812 31.7818 6.422 31.7818 8.798V9.104C31.7818 11.282 30.5038 14.198 26.7058 14.198H26.4538C24.1678 14.198 22.9438 13.154 22.5118 12.722V17.438H19.0018ZM37.0856 14V6.674H33.2156V4.01H44.4656V6.674H40.5956V14H37.0856ZM47.1261 17.438V14.936H49.3221C49.6641 14.936 49.8441 14.792 49.8441 14.522V14.504C49.8441 14.288 49.7901 14.09 49.5201 13.532L45.2361 4.01H49.0881L51.8601 11.174L54.6141 4.01H58.1421L53.5701 15.008C52.8681 16.646 52.0041 17.438 50.3481 17.438H47.1261ZM69.1028 9.014V8.96C69.1028 7.88 68.5988 6.422 66.4028 6.422H66.2228C64.1168 6.422 63.4508 7.808 63.4508 8.96V9.014C63.4508 10.112 64.1168 11.552 66.2228 11.552H66.4028C68.5988 11.552 69.1028 10.04 69.1028 9.014ZM59.9588 17.438V4.01H63.4328V5.288C63.8648 4.82 65.1788 3.812 67.4468 3.812H67.6808C71.4968 3.812 72.7388 6.422 72.7388 8.798V9.104C72.7388 11.282 71.4608 14.198 67.6628 14.198H67.4108C65.1248 14.198 63.9008 13.154 63.4688 12.722V17.438H59.9588ZM9.63 38.198H8.802C2.682 38.198 1.062 34.274 1.062 31.538V30.998C1.062 28.208 2.682 24.41 8.802 24.41H9.63C15.246 24.41 17.118 27.164 17.118 29.702V29.738H13.302C13.248 29.36 12.744 27.47 9.216 27.47C5.94 27.47 4.914 29.306 4.914 31.106V31.358C4.914 33.014 5.976 35.12 9.234 35.12C12.798 35.12 13.248 33.194 13.302 32.762H17.118V32.816C17.118 35.264 15.318 38.198 9.63 38.198ZM22.443 38V30.674H18.573V28.01H29.823V30.674H25.953V38H22.443ZM37.5415 30.08C35.7235 30.08 35.0395 30.818 34.8595 31.862H40.1515C40.1515 31.124 39.7915 30.08 37.5415 30.08ZM40.2235 34.886H43.8775C43.8775 35.714 43.2295 38.234 38.0635 38.234H37.3975C32.4655 38.234 31.2415 35.534 31.2415 33.14V32.888C31.2415 30.638 32.3575 27.794 37.0915 27.794H37.8835C42.9955 27.794 43.9135 30.638 43.9135 33.428V33.752H34.8235C34.9675 34.904 35.7055 35.84 37.8475 35.84C39.8815 35.84 40.1335 35.048 40.2235 34.886ZM46.3174 38V28.01H57.8734V38H54.3634V30.674H49.8274V38H46.3174ZM65.5002 36.002C67.5522 36.002 68.2542 34.706 68.2542 33.95V33.176C67.9482 33.302 67.0662 33.482 66.0582 33.644C64.3662 33.932 63.8262 34.166 63.8262 34.868V34.904C63.8262 35.534 64.2762 36.002 65.5002 36.002ZM68.3622 36.614C67.9302 37.136 66.8502 38.198 64.5102 38.198H64.2222C61.4322 38.198 60.2802 36.686 60.2802 35.03V34.958C60.2802 33.23 61.3782 32.168 64.7622 31.88L67.4982 31.646C68.0562 31.592 68.2542 31.412 68.2542 30.998C68.2542 30.53 68.1102 30.026 66.1662 30.026C64.3302 30.026 64.1502 30.746 64.1502 31.124H60.5502V31.088C60.5502 30.098 60.9462 27.776 65.8602 27.776H66.4182C71.3682 27.776 71.6742 29.81 71.6742 31.142V34.436C71.6742 35.066 71.8002 35.318 72.5022 35.318H72.8802V38H70.0362C68.9922 38 68.5062 37.262 68.3622 36.614ZM78.3918 38H74.8818V28.01H78.3918V31.646H83.2878V28.01H86.7978V38H83.2878V34.31H78.3918V38ZM95.9818 38.27H95.4238C90.0418 38.27 89.2138 34.994 89.2138 33.176V32.924C89.2138 31.124 90.0418 27.74 95.4058 27.74H95.9998C101.544 27.74 102.192 31.142 102.192 32.906V33.194C102.192 34.994 101.544 38.27 95.9818 38.27ZM95.6038 35.642H95.8018C98.0158 35.642 98.5738 34.058 98.5738 32.96C98.5738 31.826 98.0158 30.314 95.8018 30.314H95.6038C93.2998 30.314 92.8318 31.826 92.8318 32.96C92.8318 34.058 93.2998 35.642 95.6038 35.642ZM112.85 38H104.606V28.01H112.49C114.776 28.01 116.216 28.82 116.216 30.404V30.494C116.216 31.736 115.424 32.474 114.218 32.672C115.442 32.816 116.54 33.68 116.54 35.12V35.192C116.54 37.01 115.352 38 112.85 38ZM108.116 31.988H111.338C112.184 31.988 112.616 31.664 112.616 31.034V30.944C112.616 30.368 112.22 30.026 111.338 30.026H108.116V31.988ZM108.116 35.984H111.482C112.418 35.984 112.94 35.678 112.94 34.976V34.832C112.94 34.202 112.508 33.806 111.482 33.806H108.116V35.984ZM127.409 31.952L122.585 38H118.985V28.01H122.495V34.058L127.319 28.01H130.919V38H127.409V31.952ZM141.255 28.01H144.765V38H141.255V34.562C140.481 34.652 139.581 34.742 138.645 34.742C134.685 34.742 133.191 33.626 133.191 30.458V28.01H136.701V29.81C136.701 31.682 137.331 32.006 139.185 32.006C139.887 32.006 140.697 31.952 141.255 31.88V28.01ZM11.808 62L5.364 55.7V62H1.656V48.608H5.364V54.116L11.628 48.608H16.344L9.288 54.746L16.65 62H11.808ZM27.2493 57.014V56.96C27.2493 55.88 26.7453 54.422 24.5493 54.422H24.3693C22.2633 54.422 21.5973 55.808 21.5973 56.96V57.014C21.5973 58.112 22.2633 59.552 24.3693 59.552H24.5493C26.7453 59.552 27.2493 58.04 27.2493 57.014ZM18.1053 65.438V52.01H21.5793V53.288C22.0113 52.82 23.3253 51.812 25.5933 51.812H25.8273C29.6433 51.812 30.8853 54.422 30.8853 56.798V57.104C30.8853 59.282 29.6073 62.198 25.8093 62.198H25.5573C23.2713 62.198 22.0473 61.154 21.6153 60.722V65.438H18.1053ZM37.9553 60.002C40.0073 60.002 40.7093 58.706 40.7093 57.95V57.176C40.4033 57.302 39.5213 57.482 38.5133 57.644C36.8213 57.932 36.2812 58.166 36.2812 58.868V58.904C36.2812 59.534 36.7313 60.002 37.9553 60.002ZM40.8173 60.614C40.3853 61.136 39.3053 62.198 36.9653 62.198H36.6773C33.8873 62.198 32.7353 60.686 32.7353 59.03V58.958C32.7353 57.23 33.8333 56.168 37.2173 55.88L39.9533 55.646C40.5113 55.592 40.7093 55.412 40.7093 54.998C40.7093 54.53 40.5653 54.026 38.6213 54.026C36.7853 54.026 36.6053 54.746 36.6053 55.124H33.0053V55.088C33.0053 54.098 33.4013 51.776 38.3153 51.776H38.8733C43.8233 51.776 44.1293 53.81 44.1293 55.142V58.436C44.1293 59.066 44.2553 59.318 44.9573 59.318H45.3353V62H42.4913C41.4473 62 40.9613 61.262 40.8173 60.614ZM55.5809 62H47.3369V52.01H55.2209C57.5069 52.01 58.9469 52.82 58.9469 54.404V54.494C58.9469 55.736 58.1549 56.474 56.9489 56.672C58.1729 56.816 59.2709 57.68 59.2709 59.12V59.192C59.2709 61.01 58.0829 62 55.5809 62ZM50.8469 55.988H54.0689C54.9149 55.988 55.3469 55.664 55.3469 55.034V54.944C55.3469 54.368 54.9509 54.026 54.0689 54.026H50.8469V55.988ZM50.8469 59.984H54.2129C55.1489 59.984 55.6709 59.678 55.6709 58.976V58.832C55.6709 58.202 55.2389 57.806 54.2129 57.806H50.8469V59.984ZM75.0718 59.336V64.124H71.7418V62H61.7158V52.01H65.2258V59.336H69.7618V52.01H73.2718V59.336H75.0718ZM83.2552 62.27H82.6972C77.3152 62.27 76.4872 58.994 76.4872 57.176V56.924C76.4872 55.124 77.3152 51.74 82.6792 51.74H83.2732C88.8172 51.74 89.4652 55.142 89.4652 56.906V57.194C89.4652 58.994 88.8172 62.27 83.2552 62.27ZM82.8772 59.642H83.0752C85.2892 59.642 85.8472 58.058 85.8472 56.96C85.8472 55.826 85.2892 54.314 83.0752 54.314H82.8772C80.5732 54.314 80.1052 55.826 80.1052 56.96C80.1052 58.058 80.5732 59.642 82.8772 59.642ZM100.124 62H91.8799V52.01H99.7639C102.05 52.01 103.49 52.82 103.49 54.404V54.494C103.49 55.736 102.698 56.474 101.492 56.672C102.716 56.816 103.814 57.68 103.814 59.12V59.192C103.814 61.01 102.626 62 100.124 62ZM95.3899 55.988H98.6119C99.4579 55.988 99.8899 55.664 99.8899 55.034V54.944C99.8899 54.368 99.4939 54.026 98.6119 54.026H95.3899V55.988ZM95.3899 59.984H98.7559C99.6919 59.984 100.214 59.678 100.214 58.976V58.832C100.214 58.202 99.7819 57.806 98.7559 57.806H95.3899V59.984Z" fill="#C1A875" style="mix-blend-mode:color"/>
<defs>
<linearGradient id="paint0_linear_2017_848" x1="8.27014e-07" y1="30" x2="222" y2="30" gradientUnits="userSpaceOnUse">
<stop stop-color="#576167"/>
<stop offset="0.191294" stop-color="#9EA1A2"/>
<stop offset="0.396166" stop-color="#848989"/>
<stop offset="0.62055" stop-color="#576167"/>
<stop offset="0.830299" stop-color="#757A7C"/>
<stop offset="1" stop-color="#576167"/>
</linearGradient>
<radialGradient id="paint1_radial_2017_848" cx="0" cy="0" r="1" gradientUnits="userSpaceOnUse" gradientTransform="translate(118.226 2.39326) rotate(90) scale(53.4944 167.95)">
<stop stop-color="white"/>
<stop offset="1" stop-color="white" stop-opacity="0"/>
</radialGradient>
<radialGradient id="paint2_radial_2017_848" cx="0" cy="0" r="1" gradientUnits="userSpaceOnUse" gradientTransform="translate(130.783 82.9888) rotate(-89.7344) scale(76.6525 240.162)">
<stop stop-color="white"/>
<stop offset="1" stop-color="white" stop-opacity="0"/>
</radialGradient>
</defs>
</svg>
