<svg width="213" height="39" viewBox="0 0 213 39" fill="none" xmlns="http://www.w3.org/2000/svg">
<path d="M9.108 0.391999H9.9C16.164 0.391999 17.946 4.064 17.946 6.998V7.538C17.946 10.418 16.164 14.216 9.9 14.216H9.108C2.844 14.216 1.062 10.418 1.062 7.538V6.998C1.062 4.082 2.844 0.391999 9.108 0.391999ZM14.094 7.394V7.142C14.094 5.486 13.284 3.452 9.504 3.452C5.76 3.452 4.914 5.486 4.914 7.142V7.394C4.914 9.014 5.814 11.138 9.504 11.138C13.266 11.138 14.094 9.014 14.094 7.394ZM28.105 14V6.674H24.145C24.145 9.356 24.055 10.85 23.713 11.768C23.335 12.776 22.831 14 20.185 14H19.087V11.39H19.303C19.933 11.39 20.401 11.174 20.599 10.256C20.743 9.482 20.797 8.636 20.797 4.01H31.615V14H28.105ZM34.5225 14V4.01H38.0325V6.872H40.7685C44.1885 6.872 45.5205 8.384 45.5205 10.292V10.508C45.5205 12.596 44.1885 14 40.7685 14H34.5225ZM38.0325 11.624H40.3365C41.0565 11.624 41.9205 11.408 41.9205 10.436V10.382C41.9205 9.482 41.0565 9.248 40.3365 9.248H38.0325V11.624ZM47.6006 14V4.01H56.3126V6.674H51.1106V14H47.6006ZM62.9338 12.002C64.9858 12.002 65.6878 10.706 65.6878 9.95V9.176C65.3818 9.302 64.4998 9.482 63.4918 9.644C61.7998 9.932 61.2598 10.166 61.2598 10.868V10.904C61.2598 11.534 61.7098 12.002 62.9338 12.002ZM65.7958 12.614C65.3638 13.136 64.2838 14.198 61.9438 14.198H61.6558C58.8658 14.198 57.7138 12.686 57.7138 11.03V10.958C57.7138 9.23 58.8118 8.168 62.1958 7.88L64.9318 7.646C65.4898 7.592 65.6878 7.412 65.6878 6.998C65.6878 6.53 65.5438 6.026 63.5998 6.026C61.7638 6.026 61.5838 6.746 61.5838 7.124H57.9838V7.088C57.9838 6.098 58.3798 3.776 63.2938 3.776H63.8518C68.8018 3.776 69.1078 5.81 69.1078 7.142V10.436C69.1078 11.066 69.2338 11.318 69.9358 11.318H70.3138V14H67.4698C66.4258 14 65.9398 13.262 65.7958 12.614ZM86.7885 9.716H81.4245V14H77.7165V0.608H86.7885C91.0185 0.608 92.3325 2.462 92.3325 5.054V5.252C92.3325 7.79 90.9645 9.716 86.7885 9.716ZM81.4245 3.596V6.728H86.5185C87.8865 6.728 88.4805 6.152 88.4805 5.198V5.126C88.4805 4.19 87.8865 3.596 86.5185 3.596H81.4245ZM100.535 14.27H99.9765C94.5945 14.27 93.7665 10.994 93.7665 9.176V8.924C93.7665 7.124 94.5945 3.74 99.9585 3.74H100.553C106.097 3.74 106.745 7.142 106.745 8.906V9.194C106.745 10.994 106.097 14.27 100.535 14.27ZM100.157 11.642H100.355C102.569 11.642 103.127 10.058 103.127 8.96C103.127 7.826 102.569 6.314 100.355 6.314H100.157C97.8525 6.314 97.3845 7.826 97.3845 8.96C97.3845 10.058 97.8525 11.642 100.157 11.642ZM112.399 7.268V14H109.159V4.01H114.109L117.079 10.382L120.049 4.01H124.819V14H121.309V7.268L118.195 14H115.513L112.399 7.268ZM132.332 12.002C134.384 12.002 135.086 10.706 135.086 9.95V9.176C134.78 9.302 133.898 9.482 132.89 9.644C131.198 9.932 130.658 10.166 130.658 10.868V10.904C130.658 11.534 131.108 12.002 132.332 12.002ZM135.194 12.614C134.762 13.136 133.682 14.198 131.342 14.198H131.054C128.264 14.198 127.112 12.686 127.112 11.03V10.958C127.112 9.23 128.21 8.168 131.594 7.88L134.33 7.646C134.888 7.592 135.086 7.412 135.086 6.998C135.086 6.53 134.942 6.026 132.998 6.026C131.162 6.026 130.982 6.746 130.982 7.124H127.382V7.088C127.382 6.098 127.778 3.776 132.692 3.776H133.25C138.2 3.776 138.506 5.81 138.506 7.142V10.436C138.506 11.066 138.632 11.318 139.334 11.318H139.712V14H136.868C135.824 14 135.338 13.262 135.194 12.614ZM145.224 14H141.714V4.01H145.224V7.646H150.12V4.01H153.63V14H150.12V10.31H145.224V14ZM162.814 14.27H162.256C156.874 14.27 156.046 10.994 156.046 9.176V8.924C156.046 7.124 156.874 3.74 162.238 3.74H162.832C168.376 3.74 169.024 7.142 169.024 8.906V9.194C169.024 10.994 168.376 14.27 162.814 14.27ZM162.436 11.642H162.634C164.848 11.642 165.406 10.058 165.406 8.96C165.406 7.826 164.848 6.314 162.634 6.314H162.436C160.132 6.314 159.664 7.826 159.664 8.96C159.664 10.058 160.132 11.642 162.436 11.642ZM179.682 14H171.438V4.01H179.322C181.608 4.01 183.048 4.82 183.048 6.404V6.494C183.048 7.736 182.256 8.474 181.05 8.672C182.274 8.816 183.372 9.68 183.372 11.12V11.192C183.372 13.01 182.184 14 179.682 14ZM174.948 7.988H178.17C179.016 7.988 179.448 7.664 179.448 7.034V6.944C179.448 6.368 179.052 6.026 178.17 6.026H174.948V7.988ZM174.948 11.984H178.314C179.25 11.984 179.772 11.678 179.772 10.976V10.832C179.772 10.202 179.34 9.806 178.314 9.806H174.948V11.984ZM189.327 14H185.817V4.01H189.327V7.646H194.223V4.01H197.733V14H194.223V10.31H189.327V14ZM205.369 12.002C207.421 12.002 208.123 10.706 208.123 9.95V9.176C207.817 9.302 206.935 9.482 205.927 9.644C204.235 9.932 203.695 10.166 203.695 10.868V10.904C203.695 11.534 204.145 12.002 205.369 12.002ZM208.231 12.614C207.799 13.136 206.719 14.198 204.379 14.198H204.091C201.301 14.198 200.149 12.686 200.149 11.03V10.958C200.149 9.23 201.247 8.168 204.631 7.88L207.367 7.646C207.925 7.592 208.123 7.412 208.123 6.998C208.123 6.53 207.979 6.026 206.035 6.026C204.199 6.026 204.019 6.746 204.019 7.124H200.419V7.088C200.419 6.098 200.815 3.776 205.729 3.776H206.287C211.237 3.776 211.543 5.81 211.543 7.142V10.436C211.543 11.066 211.669 11.318 212.371 11.318H212.749V14H209.905C208.861 14 208.375 13.262 208.231 12.614ZM6.012 38V27.668H0.828V24.608H14.886V27.668H9.702V38H6.012ZM24.7004 31.952L19.8764 38H16.2764V28.01H19.7864V34.058L24.6104 28.01H28.2104V38H24.7004V31.952ZM33.9919 38V30.674H30.1219V28.01H41.3719V30.674H37.5019V38H33.9919ZM49.5404 38.27H48.9824C43.6004 38.27 42.7724 34.994 42.7724 33.176V32.924C42.7724 31.124 43.6004 27.74 48.9644 27.74H49.5584C55.1024 27.74 55.7504 31.142 55.7504 32.906V33.194C55.7504 34.994 55.1024 38.27 49.5404 38.27ZM49.1624 35.642H49.3604C51.5744 35.642 52.1324 34.058 52.1324 32.96C52.1324 31.826 51.5744 30.314 49.3604 30.314H49.1624C46.8584 30.314 46.3904 31.826 46.3904 32.96C46.3904 34.058 46.8584 35.642 49.1624 35.642ZM66.409 38H58.165V28.01H66.049C68.335 28.01 69.775 28.82 69.775 30.404V30.494C69.775 31.736 68.983 32.474 67.777 32.672C69.001 32.816 70.099 33.68 70.099 35.12V35.192C70.099 37.01 68.911 38 66.409 38ZM61.675 31.988H64.897C65.743 31.988 66.175 31.664 66.175 31.034V30.944C66.175 30.368 65.779 30.026 64.897 30.026H61.675V31.988ZM61.675 35.984H65.041C65.977 35.984 66.499 35.678 66.499 34.976V34.832C66.499 34.202 66.067 33.806 65.041 33.806H61.675V35.984ZM77.172 36.002C79.224 36.002 79.926 34.706 79.926 33.95V33.176C79.62 33.302 78.738 33.482 77.73 33.644C76.038 33.932 75.498 34.166 75.498 34.868V34.904C75.498 35.534 75.948 36.002 77.172 36.002ZM80.034 36.614C79.602 37.136 78.522 38.198 76.182 38.198H75.894C73.104 38.198 71.952 36.686 71.952 35.03V34.958C71.952 33.23 73.05 32.168 76.434 31.88L79.17 31.646C79.728 31.592 79.926 31.412 79.926 30.998C79.926 30.53 79.782 30.026 77.838 30.026C76.002 30.026 75.822 30.746 75.822 31.124H72.222V31.088C72.222 30.098 72.618 27.776 77.532 27.776H78.09C83.04 27.776 83.346 29.81 83.346 31.142V34.436C83.346 35.066 83.472 35.318 84.174 35.318H84.552V38H81.708C80.664 38 80.178 37.262 80.034 36.614Z" fill="url(#paint0_linear_2017_838)"/>
<path d="M9.108 0.391999H9.9C16.164 0.391999 17.946 4.064 17.946 6.998V7.538C17.946 10.418 16.164 14.216 9.9 14.216H9.108C2.844 14.216 1.062 10.418 1.062 7.538V6.998C1.062 4.082 2.844 0.391999 9.108 0.391999ZM14.094 7.394V7.142C14.094 5.486 13.284 3.452 9.504 3.452C5.76 3.452 4.914 5.486 4.914 7.142V7.394C4.914 9.014 5.814 11.138 9.504 11.138C13.266 11.138 14.094 9.014 14.094 7.394ZM28.105 14V6.674H24.145C24.145 9.356 24.055 10.85 23.713 11.768C23.335 12.776 22.831 14 20.185 14H19.087V11.39H19.303C19.933 11.39 20.401 11.174 20.599 10.256C20.743 9.482 20.797 8.636 20.797 4.01H31.615V14H28.105ZM34.5225 14V4.01H38.0325V6.872H40.7685C44.1885 6.872 45.5205 8.384 45.5205 10.292V10.508C45.5205 12.596 44.1885 14 40.7685 14H34.5225ZM38.0325 11.624H40.3365C41.0565 11.624 41.9205 11.408 41.9205 10.436V10.382C41.9205 9.482 41.0565 9.248 40.3365 9.248H38.0325V11.624ZM47.6006 14V4.01H56.3126V6.674H51.1106V14H47.6006ZM62.9338 12.002C64.9858 12.002 65.6878 10.706 65.6878 9.95V9.176C65.3818 9.302 64.4998 9.482 63.4918 9.644C61.7998 9.932 61.2598 10.166 61.2598 10.868V10.904C61.2598 11.534 61.7098 12.002 62.9338 12.002ZM65.7958 12.614C65.3638 13.136 64.2838 14.198 61.9438 14.198H61.6558C58.8658 14.198 57.7138 12.686 57.7138 11.03V10.958C57.7138 9.23 58.8118 8.168 62.1958 7.88L64.9318 7.646C65.4898 7.592 65.6878 7.412 65.6878 6.998C65.6878 6.53 65.5438 6.026 63.5998 6.026C61.7638 6.026 61.5838 6.746 61.5838 7.124H57.9838V7.088C57.9838 6.098 58.3798 3.776 63.2938 3.776H63.8518C68.8018 3.776 69.1078 5.81 69.1078 7.142V10.436C69.1078 11.066 69.2338 11.318 69.9358 11.318H70.3138V14H67.4698C66.4258 14 65.9398 13.262 65.7958 12.614ZM86.7885 9.716H81.4245V14H77.7165V0.608H86.7885C91.0185 0.608 92.3325 2.462 92.3325 5.054V5.252C92.3325 7.79 90.9645 9.716 86.7885 9.716ZM81.4245 3.596V6.728H86.5185C87.8865 6.728 88.4805 6.152 88.4805 5.198V5.126C88.4805 4.19 87.8865 3.596 86.5185 3.596H81.4245ZM100.535 14.27H99.9765C94.5945 14.27 93.7665 10.994 93.7665 9.176V8.924C93.7665 7.124 94.5945 3.74 99.9585 3.74H100.553C106.097 3.74 106.745 7.142 106.745 8.906V9.194C106.745 10.994 106.097 14.27 100.535 14.27ZM100.157 11.642H100.355C102.569 11.642 103.127 10.058 103.127 8.96C103.127 7.826 102.569 6.314 100.355 6.314H100.157C97.8525 6.314 97.3845 7.826 97.3845 8.96C97.3845 10.058 97.8525 11.642 100.157 11.642ZM112.399 7.268V14H109.159V4.01H114.109L117.079 10.382L120.049 4.01H124.819V14H121.309V7.268L118.195 14H115.513L112.399 7.268ZM132.332 12.002C134.384 12.002 135.086 10.706 135.086 9.95V9.176C134.78 9.302 133.898 9.482 132.89 9.644C131.198 9.932 130.658 10.166 130.658 10.868V10.904C130.658 11.534 131.108 12.002 132.332 12.002ZM135.194 12.614C134.762 13.136 133.682 14.198 131.342 14.198H131.054C128.264 14.198 127.112 12.686 127.112 11.03V10.958C127.112 9.23 128.21 8.168 131.594 7.88L134.33 7.646C134.888 7.592 135.086 7.412 135.086 6.998C135.086 6.53 134.942 6.026 132.998 6.026C131.162 6.026 130.982 6.746 130.982 7.124H127.382V7.088C127.382 6.098 127.778 3.776 132.692 3.776H133.25C138.2 3.776 138.506 5.81 138.506 7.142V10.436C138.506 11.066 138.632 11.318 139.334 11.318H139.712V14H136.868C135.824 14 135.338 13.262 135.194 12.614ZM145.224 14H141.714V4.01H145.224V7.646H150.12V4.01H153.63V14H150.12V10.31H145.224V14ZM162.814 14.27H162.256C156.874 14.27 156.046 10.994 156.046 9.176V8.924C156.046 7.124 156.874 3.74 162.238 3.74H162.832C168.376 3.74 169.024 7.142 169.024 8.906V9.194C169.024 10.994 168.376 14.27 162.814 14.27ZM162.436 11.642H162.634C164.848 11.642 165.406 10.058 165.406 8.96C165.406 7.826 164.848 6.314 162.634 6.314H162.436C160.132 6.314 159.664 7.826 159.664 8.96C159.664 10.058 160.132 11.642 162.436 11.642ZM179.682 14H171.438V4.01H179.322C181.608 4.01 183.048 4.82 183.048 6.404V6.494C183.048 7.736 182.256 8.474 181.05 8.672C182.274 8.816 183.372 9.68 183.372 11.12V11.192C183.372 13.01 182.184 14 179.682 14ZM174.948 7.988H178.17C179.016 7.988 179.448 7.664 179.448 7.034V6.944C179.448 6.368 179.052 6.026 178.17 6.026H174.948V7.988ZM174.948 11.984H178.314C179.25 11.984 179.772 11.678 179.772 10.976V10.832C179.772 10.202 179.34 9.806 178.314 9.806H174.948V11.984ZM189.327 14H185.817V4.01H189.327V7.646H194.223V4.01H197.733V14H194.223V10.31H189.327V14ZM205.369 12.002C207.421 12.002 208.123 10.706 208.123 9.95V9.176C207.817 9.302 206.935 9.482 205.927 9.644C204.235 9.932 203.695 10.166 203.695 10.868V10.904C203.695 11.534 204.145 12.002 205.369 12.002ZM208.231 12.614C207.799 13.136 206.719 14.198 204.379 14.198H204.091C201.301 14.198 200.149 12.686 200.149 11.03V10.958C200.149 9.23 201.247 8.168 204.631 7.88L207.367 7.646C207.925 7.592 208.123 7.412 208.123 6.998C208.123 6.53 207.979 6.026 206.035 6.026C204.199 6.026 204.019 6.746 204.019 7.124H200.419V7.088C200.419 6.098 200.815 3.776 205.729 3.776H206.287C211.237 3.776 211.543 5.81 211.543 7.142V10.436C211.543 11.066 211.669 11.318 212.371 11.318H212.749V14H209.905C208.861 14 208.375 13.262 208.231 12.614ZM6.012 38V27.668H0.828V24.608H14.886V27.668H9.702V38H6.012ZM24.7004 31.952L19.8764 38H16.2764V28.01H19.7864V34.058L24.6104 28.01H28.2104V38H24.7004V31.952ZM33.9919 38V30.674H30.1219V28.01H41.3719V30.674H37.5019V38H33.9919ZM49.5404 38.27H48.9824C43.6004 38.27 42.7724 34.994 42.7724 33.176V32.924C42.7724 31.124 43.6004 27.74 48.9644 27.74H49.5584C55.1024 27.74 55.7504 31.142 55.7504 32.906V33.194C55.7504 34.994 55.1024 38.27 49.5404 38.27ZM49.1624 35.642H49.3604C51.5744 35.642 52.1324 34.058 52.1324 32.96C52.1324 31.826 51.5744 30.314 49.3604 30.314H49.1624C46.8584 30.314 46.3904 31.826 46.3904 32.96C46.3904 34.058 46.8584 35.642 49.1624 35.642ZM66.409 38H58.165V28.01H66.049C68.335 28.01 69.775 28.82 69.775 30.404V30.494C69.775 31.736 68.983 32.474 67.777 32.672C69.001 32.816 70.099 33.68 70.099 35.12V35.192C70.099 37.01 68.911 38 66.409 38ZM61.675 31.988H64.897C65.743 31.988 66.175 31.664 66.175 31.034V30.944C66.175 30.368 65.779 30.026 64.897 30.026H61.675V31.988ZM61.675 35.984H65.041C65.977 35.984 66.499 35.678 66.499 34.976V34.832C66.499 34.202 66.067 33.806 65.041 33.806H61.675V35.984ZM77.172 36.002C79.224 36.002 79.926 34.706 79.926 33.95V33.176C79.62 33.302 78.738 33.482 77.73 33.644C76.038 33.932 75.498 34.166 75.498 34.868V34.904C75.498 35.534 75.948 36.002 77.172 36.002ZM80.034 36.614C79.602 37.136 78.522 38.198 76.182 38.198H75.894C73.104 38.198 71.952 36.686 71.952 35.03V34.958C71.952 33.23 73.05 32.168 76.434 31.88L79.17 31.646C79.728 31.592 79.926 31.412 79.926 30.998C79.926 30.53 79.782 30.026 77.838 30.026C76.002 30.026 75.822 30.746 75.822 31.124H72.222V31.088C72.222 30.098 72.618 27.776 77.532 27.776H78.09C83.04 27.776 83.346 29.81 83.346 31.142V34.436C83.346 35.066 83.472 35.318 84.174 35.318H84.552V38H81.708C80.664 38 80.178 37.262 80.034 36.614Z" fill="url(#paint1_radial_2017_838)" style="mix-blend-mode:overlay"/>
<path d="M9.108 0.391999H9.9C16.164 0.391999 17.946 4.064 17.946 6.998V7.538C17.946 10.418 16.164 14.216 9.9 14.216H9.108C2.844 14.216 1.062 10.418 1.062 7.538V6.998C1.062 4.082 2.844 0.391999 9.108 0.391999ZM14.094 7.394V7.142C14.094 5.486 13.284 3.452 9.504 3.452C5.76 3.452 4.914 5.486 4.914 7.142V7.394C4.914 9.014 5.814 11.138 9.504 11.138C13.266 11.138 14.094 9.014 14.094 7.394ZM28.105 14V6.674H24.145C24.145 9.356 24.055 10.85 23.713 11.768C23.335 12.776 22.831 14 20.185 14H19.087V11.39H19.303C19.933 11.39 20.401 11.174 20.599 10.256C20.743 9.482 20.797 8.636 20.797 4.01H31.615V14H28.105ZM34.5225 14V4.01H38.0325V6.872H40.7685C44.1885 6.872 45.5205 8.384 45.5205 10.292V10.508C45.5205 12.596 44.1885 14 40.7685 14H34.5225ZM38.0325 11.624H40.3365C41.0565 11.624 41.9205 11.408 41.9205 10.436V10.382C41.9205 9.482 41.0565 9.248 40.3365 9.248H38.0325V11.624ZM47.6006 14V4.01H56.3126V6.674H51.1106V14H47.6006ZM62.9338 12.002C64.9858 12.002 65.6878 10.706 65.6878 9.95V9.176C65.3818 9.302 64.4998 9.482 63.4918 9.644C61.7998 9.932 61.2598 10.166 61.2598 10.868V10.904C61.2598 11.534 61.7098 12.002 62.9338 12.002ZM65.7958 12.614C65.3638 13.136 64.2838 14.198 61.9438 14.198H61.6558C58.8658 14.198 57.7138 12.686 57.7138 11.03V10.958C57.7138 9.23 58.8118 8.168 62.1958 7.88L64.9318 7.646C65.4898 7.592 65.6878 7.412 65.6878 6.998C65.6878 6.53 65.5438 6.026 63.5998 6.026C61.7638 6.026 61.5838 6.746 61.5838 7.124H57.9838V7.088C57.9838 6.098 58.3798 3.776 63.2938 3.776H63.8518C68.8018 3.776 69.1078 5.81 69.1078 7.142V10.436C69.1078 11.066 69.2338 11.318 69.9358 11.318H70.3138V14H67.4698C66.4258 14 65.9398 13.262 65.7958 12.614ZM86.7885 9.716H81.4245V14H77.7165V0.608H86.7885C91.0185 0.608 92.3325 2.462 92.3325 5.054V5.252C92.3325 7.79 90.9645 9.716 86.7885 9.716ZM81.4245 3.596V6.728H86.5185C87.8865 6.728 88.4805 6.152 88.4805 5.198V5.126C88.4805 4.19 87.8865 3.596 86.5185 3.596H81.4245ZM100.535 14.27H99.9765C94.5945 14.27 93.7665 10.994 93.7665 9.176V8.924C93.7665 7.124 94.5945 3.74 99.9585 3.74H100.553C106.097 3.74 106.745 7.142 106.745 8.906V9.194C106.745 10.994 106.097 14.27 100.535 14.27ZM100.157 11.642H100.355C102.569 11.642 103.127 10.058 103.127 8.96C103.127 7.826 102.569 6.314 100.355 6.314H100.157C97.8525 6.314 97.3845 7.826 97.3845 8.96C97.3845 10.058 97.8525 11.642 100.157 11.642ZM112.399 7.268V14H109.159V4.01H114.109L117.079 10.382L120.049 4.01H124.819V14H121.309V7.268L118.195 14H115.513L112.399 7.268ZM132.332 12.002C134.384 12.002 135.086 10.706 135.086 9.95V9.176C134.78 9.302 133.898 9.482 132.89 9.644C131.198 9.932 130.658 10.166 130.658 10.868V10.904C130.658 11.534 131.108 12.002 132.332 12.002ZM135.194 12.614C134.762 13.136 133.682 14.198 131.342 14.198H131.054C128.264 14.198 127.112 12.686 127.112 11.03V10.958C127.112 9.23 128.21 8.168 131.594 7.88L134.33 7.646C134.888 7.592 135.086 7.412 135.086 6.998C135.086 6.53 134.942 6.026 132.998 6.026C131.162 6.026 130.982 6.746 130.982 7.124H127.382V7.088C127.382 6.098 127.778 3.776 132.692 3.776H133.25C138.2 3.776 138.506 5.81 138.506 7.142V10.436C138.506 11.066 138.632 11.318 139.334 11.318H139.712V14H136.868C135.824 14 135.338 13.262 135.194 12.614ZM145.224 14H141.714V4.01H145.224V7.646H150.12V4.01H153.63V14H150.12V10.31H145.224V14ZM162.814 14.27H162.256C156.874 14.27 156.046 10.994 156.046 9.176V8.924C156.046 7.124 156.874 3.74 162.238 3.74H162.832C168.376 3.74 169.024 7.142 169.024 8.906V9.194C169.024 10.994 168.376 14.27 162.814 14.27ZM162.436 11.642H162.634C164.848 11.642 165.406 10.058 165.406 8.96C165.406 7.826 164.848 6.314 162.634 6.314H162.436C160.132 6.314 159.664 7.826 159.664 8.96C159.664 10.058 160.132 11.642 162.436 11.642ZM179.682 14H171.438V4.01H179.322C181.608 4.01 183.048 4.82 183.048 6.404V6.494C183.048 7.736 182.256 8.474 181.05 8.672C182.274 8.816 183.372 9.68 183.372 11.12V11.192C183.372 13.01 182.184 14 179.682 14ZM174.948 7.988H178.17C179.016 7.988 179.448 7.664 179.448 7.034V6.944C179.448 6.368 179.052 6.026 178.17 6.026H174.948V7.988ZM174.948 11.984H178.314C179.25 11.984 179.772 11.678 179.772 10.976V10.832C179.772 10.202 179.34 9.806 178.314 9.806H174.948V11.984ZM189.327 14H185.817V4.01H189.327V7.646H194.223V4.01H197.733V14H194.223V10.31H189.327V14ZM205.369 12.002C207.421 12.002 208.123 10.706 208.123 9.95V9.176C207.817 9.302 206.935 9.482 205.927 9.644C204.235 9.932 203.695 10.166 203.695 10.868V10.904C203.695 11.534 204.145 12.002 205.369 12.002ZM208.231 12.614C207.799 13.136 206.719 14.198 204.379 14.198H204.091C201.301 14.198 200.149 12.686 200.149 11.03V10.958C200.149 9.23 201.247 8.168 204.631 7.88L207.367 7.646C207.925 7.592 208.123 7.412 208.123 6.998C208.123 6.53 207.979 6.026 206.035 6.026C204.199 6.026 204.019 6.746 204.019 7.124H200.419V7.088C200.419 6.098 200.815 3.776 205.729 3.776H206.287C211.237 3.776 211.543 5.81 211.543 7.142V10.436C211.543 11.066 211.669 11.318 212.371 11.318H212.749V14H209.905C208.861 14 208.375 13.262 208.231 12.614ZM6.012 38V27.668H0.828V24.608H14.886V27.668H9.702V38H6.012ZM24.7004 31.952L19.8764 38H16.2764V28.01H19.7864V34.058L24.6104 28.01H28.2104V38H24.7004V31.952ZM33.9919 38V30.674H30.1219V28.01H41.3719V30.674H37.5019V38H33.9919ZM49.5404 38.27H48.9824C43.6004 38.27 42.7724 34.994 42.7724 33.176V32.924C42.7724 31.124 43.6004 27.74 48.9644 27.74H49.5584C55.1024 27.74 55.7504 31.142 55.7504 32.906V33.194C55.7504 34.994 55.1024 38.27 49.5404 38.27ZM49.1624 35.642H49.3604C51.5744 35.642 52.1324 34.058 52.1324 32.96C52.1324 31.826 51.5744 30.314 49.3604 30.314H49.1624C46.8584 30.314 46.3904 31.826 46.3904 32.96C46.3904 34.058 46.8584 35.642 49.1624 35.642ZM66.409 38H58.165V28.01H66.049C68.335 28.01 69.775 28.82 69.775 30.404V30.494C69.775 31.736 68.983 32.474 67.777 32.672C69.001 32.816 70.099 33.68 70.099 35.12V35.192C70.099 37.01 68.911 38 66.409 38ZM61.675 31.988H64.897C65.743 31.988 66.175 31.664 66.175 31.034V30.944C66.175 30.368 65.779 30.026 64.897 30.026H61.675V31.988ZM61.675 35.984H65.041C65.977 35.984 66.499 35.678 66.499 34.976V34.832C66.499 34.202 66.067 33.806 65.041 33.806H61.675V35.984ZM77.172 36.002C79.224 36.002 79.926 34.706 79.926 33.95V33.176C79.62 33.302 78.738 33.482 77.73 33.644C76.038 33.932 75.498 34.166 75.498 34.868V34.904C75.498 35.534 75.948 36.002 77.172 36.002ZM80.034 36.614C79.602 37.136 78.522 38.198 76.182 38.198H75.894C73.104 38.198 71.952 36.686 71.952 35.03V34.958C71.952 33.23 73.05 32.168 76.434 31.88L79.17 31.646C79.728 31.592 79.926 31.412 79.926 30.998C79.926 30.53 79.782 30.026 77.838 30.026C76.002 30.026 75.822 30.746 75.822 31.124H72.222V31.088C72.222 30.098 72.618 27.776 77.532 27.776H78.09C83.04 27.776 83.346 29.81 83.346 31.142V34.436C83.346 35.066 83.472 35.318 84.174 35.318H84.552V38H81.708C80.664 38 80.178 37.262 80.034 36.614Z" fill="url(#paint2_radial_2017_838)"/>
<path d="M9.108 0.391999H9.9C16.164 0.391999 17.946 4.064 17.946 6.998V7.538C17.946 10.418 16.164 14.216 9.9 14.216H9.108C2.844 14.216 1.062 10.418 1.062 7.538V6.998C1.062 4.082 2.844 0.391999 9.108 0.391999ZM14.094 7.394V7.142C14.094 5.486 13.284 3.452 9.504 3.452C5.76 3.452 4.914 5.486 4.914 7.142V7.394C4.914 9.014 5.814 11.138 9.504 11.138C13.266 11.138 14.094 9.014 14.094 7.394ZM28.105 14V6.674H24.145C24.145 9.356 24.055 10.85 23.713 11.768C23.335 12.776 22.831 14 20.185 14H19.087V11.39H19.303C19.933 11.39 20.401 11.174 20.599 10.256C20.743 9.482 20.797 8.636 20.797 4.01H31.615V14H28.105ZM34.5225 14V4.01H38.0325V6.872H40.7685C44.1885 6.872 45.5205 8.384 45.5205 10.292V10.508C45.5205 12.596 44.1885 14 40.7685 14H34.5225ZM38.0325 11.624H40.3365C41.0565 11.624 41.9205 11.408 41.9205 10.436V10.382C41.9205 9.482 41.0565 9.248 40.3365 9.248H38.0325V11.624ZM47.6006 14V4.01H56.3126V6.674H51.1106V14H47.6006ZM62.9338 12.002C64.9858 12.002 65.6878 10.706 65.6878 9.95V9.176C65.3818 9.302 64.4998 9.482 63.4918 9.644C61.7998 9.932 61.2598 10.166 61.2598 10.868V10.904C61.2598 11.534 61.7098 12.002 62.9338 12.002ZM65.7958 12.614C65.3638 13.136 64.2838 14.198 61.9438 14.198H61.6558C58.8658 14.198 57.7138 12.686 57.7138 11.03V10.958C57.7138 9.23 58.8118 8.168 62.1958 7.88L64.9318 7.646C65.4898 7.592 65.6878 7.412 65.6878 6.998C65.6878 6.53 65.5438 6.026 63.5998 6.026C61.7638 6.026 61.5838 6.746 61.5838 7.124H57.9838V7.088C57.9838 6.098 58.3798 3.776 63.2938 3.776H63.8518C68.8018 3.776 69.1078 5.81 69.1078 7.142V10.436C69.1078 11.066 69.2338 11.318 69.9358 11.318H70.3138V14H67.4698C66.4258 14 65.9398 13.262 65.7958 12.614ZM86.7885 9.716H81.4245V14H77.7165V0.608H86.7885C91.0185 0.608 92.3325 2.462 92.3325 5.054V5.252C92.3325 7.79 90.9645 9.716 86.7885 9.716ZM81.4245 3.596V6.728H86.5185C87.8865 6.728 88.4805 6.152 88.4805 5.198V5.126C88.4805 4.19 87.8865 3.596 86.5185 3.596H81.4245ZM100.535 14.27H99.9765C94.5945 14.27 93.7665 10.994 93.7665 9.176V8.924C93.7665 7.124 94.5945 3.74 99.9585 3.74H100.553C106.097 3.74 106.745 7.142 106.745 8.906V9.194C106.745 10.994 106.097 14.27 100.535 14.27ZM100.157 11.642H100.355C102.569 11.642 103.127 10.058 103.127 8.96C103.127 7.826 102.569 6.314 100.355 6.314H100.157C97.8525 6.314 97.3845 7.826 97.3845 8.96C97.3845 10.058 97.8525 11.642 100.157 11.642ZM112.399 7.268V14H109.159V4.01H114.109L117.079 10.382L120.049 4.01H124.819V14H121.309V7.268L118.195 14H115.513L112.399 7.268ZM132.332 12.002C134.384 12.002 135.086 10.706 135.086 9.95V9.176C134.78 9.302 133.898 9.482 132.89 9.644C131.198 9.932 130.658 10.166 130.658 10.868V10.904C130.658 11.534 131.108 12.002 132.332 12.002ZM135.194 12.614C134.762 13.136 133.682 14.198 131.342 14.198H131.054C128.264 14.198 127.112 12.686 127.112 11.03V10.958C127.112 9.23 128.21 8.168 131.594 7.88L134.33 7.646C134.888 7.592 135.086 7.412 135.086 6.998C135.086 6.53 134.942 6.026 132.998 6.026C131.162 6.026 130.982 6.746 130.982 7.124H127.382V7.088C127.382 6.098 127.778 3.776 132.692 3.776H133.25C138.2 3.776 138.506 5.81 138.506 7.142V10.436C138.506 11.066 138.632 11.318 139.334 11.318H139.712V14H136.868C135.824 14 135.338 13.262 135.194 12.614ZM145.224 14H141.714V4.01H145.224V7.646H150.12V4.01H153.63V14H150.12V10.31H145.224V14ZM162.814 14.27H162.256C156.874 14.27 156.046 10.994 156.046 9.176V8.924C156.046 7.124 156.874 3.74 162.238 3.74H162.832C168.376 3.74 169.024 7.142 169.024 8.906V9.194C169.024 10.994 168.376 14.27 162.814 14.27ZM162.436 11.642H162.634C164.848 11.642 165.406 10.058 165.406 8.96C165.406 7.826 164.848 6.314 162.634 6.314H162.436C160.132 6.314 159.664 7.826 159.664 8.96C159.664 10.058 160.132 11.642 162.436 11.642ZM179.682 14H171.438V4.01H179.322C181.608 4.01 183.048 4.82 183.048 6.404V6.494C183.048 7.736 182.256 8.474 181.05 8.672C182.274 8.816 183.372 9.68 183.372 11.12V11.192C183.372 13.01 182.184 14 179.682 14ZM174.948 7.988H178.17C179.016 7.988 179.448 7.664 179.448 7.034V6.944C179.448 6.368 179.052 6.026 178.17 6.026H174.948V7.988ZM174.948 11.984H178.314C179.25 11.984 179.772 11.678 179.772 10.976V10.832C179.772 10.202 179.34 9.806 178.314 9.806H174.948V11.984ZM189.327 14H185.817V4.01H189.327V7.646H194.223V4.01H197.733V14H194.223V10.31H189.327V14ZM205.369 12.002C207.421 12.002 208.123 10.706 208.123 9.95V9.176C207.817 9.302 206.935 9.482 205.927 9.644C204.235 9.932 203.695 10.166 203.695 10.868V10.904C203.695 11.534 204.145 12.002 205.369 12.002ZM208.231 12.614C207.799 13.136 206.719 14.198 204.379 14.198H204.091C201.301 14.198 200.149 12.686 200.149 11.03V10.958C200.149 9.23 201.247 8.168 204.631 7.88L207.367 7.646C207.925 7.592 208.123 7.412 208.123 6.998C208.123 6.53 207.979 6.026 206.035 6.026C204.199 6.026 204.019 6.746 204.019 7.124H200.419V7.088C200.419 6.098 200.815 3.776 205.729 3.776H206.287C211.237 3.776 211.543 5.81 211.543 7.142V10.436C211.543 11.066 211.669 11.318 212.371 11.318H212.749V14H209.905C208.861 14 208.375 13.262 208.231 12.614ZM6.012 38V27.668H0.828V24.608H14.886V27.668H9.702V38H6.012ZM24.7004 31.952L19.8764 38H16.2764V28.01H19.7864V34.058L24.6104 28.01H28.2104V38H24.7004V31.952ZM33.9919 38V30.674H30.1219V28.01H41.3719V30.674H37.5019V38H33.9919ZM49.5404 38.27H48.9824C43.6004 38.27 42.7724 34.994 42.7724 33.176V32.924C42.7724 31.124 43.6004 27.74 48.9644 27.74H49.5584C55.1024 27.74 55.7504 31.142 55.7504 32.906V33.194C55.7504 34.994 55.1024 38.27 49.5404 38.27ZM49.1624 35.642H49.3604C51.5744 35.642 52.1324 34.058 52.1324 32.96C52.1324 31.826 51.5744 30.314 49.3604 30.314H49.1624C46.8584 30.314 46.3904 31.826 46.3904 32.96C46.3904 34.058 46.8584 35.642 49.1624 35.642ZM66.409 38H58.165V28.01H66.049C68.335 28.01 69.775 28.82 69.775 30.404V30.494C69.775 31.736 68.983 32.474 67.777 32.672C69.001 32.816 70.099 33.68 70.099 35.12V35.192C70.099 37.01 68.911 38 66.409 38ZM61.675 31.988H64.897C65.743 31.988 66.175 31.664 66.175 31.034V30.944C66.175 30.368 65.779 30.026 64.897 30.026H61.675V31.988ZM61.675 35.984H65.041C65.977 35.984 66.499 35.678 66.499 34.976V34.832C66.499 34.202 66.067 33.806 65.041 33.806H61.675V35.984ZM77.172 36.002C79.224 36.002 79.926 34.706 79.926 33.95V33.176C79.62 33.302 78.738 33.482 77.73 33.644C76.038 33.932 75.498 34.166 75.498 34.868V34.904C75.498 35.534 75.948 36.002 77.172 36.002ZM80.034 36.614C79.602 37.136 78.522 38.198 76.182 38.198H75.894C73.104 38.198 71.952 36.686 71.952 35.03V34.958C71.952 33.23 73.05 32.168 76.434 31.88L79.17 31.646C79.728 31.592 79.926 31.412 79.926 30.998C79.926 30.53 79.782 30.026 77.838 30.026C76.002 30.026 75.822 30.746 75.822 31.124H72.222V31.088C72.222 30.098 72.618 27.776 77.532 27.776H78.09C83.04 27.776 83.346 29.81 83.346 31.142V34.436C83.346 35.066 83.472 35.318 84.174 35.318H84.552V38H81.708C80.664 38 80.178 37.262 80.034 36.614Z" fill="#C1A875" style="mix-blend-mode:color"/>
<defs>
<linearGradient id="paint0_linear_2017_838" x1="8.27014e-07" y1="30" x2="222" y2="30" gradientUnits="userSpaceOnUse">
<stop stop-color="#576167"/>
<stop offset="0.191294" stop-color="#9EA1A2"/>
<stop offset="0.396166" stop-color="#848989"/>
<stop offset="0.62055" stop-color="#576167"/>
<stop offset="0.830299" stop-color="#757A7C"/>
<stop offset="1" stop-color="#576167"/>
</linearGradient>
<radialGradient id="paint1_radial_2017_838" cx="0" cy="0" r="1" gradientUnits="userSpaceOnUse" gradientTransform="translate(118.226 2.39326) rotate(90) scale(53.4944 167.95)">
<stop stop-color="white"/>
<stop offset="1" stop-color="white" stop-opacity="0"/>
</radialGradient>
<radialGradient id="paint2_radial_2017_838" cx="0" cy="0" r="1" gradientUnits="userSpaceOnUse" gradientTransform="translate(130.783 82.9888) rotate(-89.7344) scale(76.6525 240.162)">
<stop stop-color="white"/>
<stop offset="1" stop-color="white" stop-opacity="0"/>
</radialGradient>
</defs>
</svg>
