<svg width="211" height="42" viewBox="0 0 211 42" fill="none" xmlns="http://www.w3.org/2000/svg">
<path d="M12.194 14V5L4.364 14H0.656V0.608H4.364V9.608L12.194 0.608H15.902V14H12.194ZM27.2105 14V6.674H23.2505C23.2505 9.356 23.1605 10.85 22.8185 11.768C22.4405 12.776 21.9365 14 19.2905 14H18.1925V11.39H18.4085C19.0385 11.39 19.5065 11.174 19.7045 10.256C19.8485 9.482 19.9025 8.636 19.9025 4.01H30.7205V14H27.2105ZM33.6279 14V4.01H37.1379V6.872H39.8739C43.2939 6.872 44.6259 8.384 44.6259 10.292V10.508C44.6259 12.596 43.2939 14 39.8739 14H33.6279ZM37.1379 11.624H39.4419C40.1619 11.624 41.0259 11.408 41.0259 10.436V10.382C41.0259 9.482 40.1619 9.248 39.4419 9.248H37.1379V11.624ZM55.112 10.652H52.754L49.838 14H45.878L49.136 10.274C47.408 9.932 46.418 8.942 46.418 7.43V7.214C46.418 5.396 47.894 4.01 50.396 4.01H58.622V14H55.112V10.652ZM55.112 6.314H51.35C50.576 6.314 49.928 6.494 49.928 7.286V7.358C49.928 8.132 50.594 8.366 51.368 8.366H55.112V6.314ZM76.0151 9.716H70.6511V14H66.9431V0.608H76.0151C80.2451 0.608 81.5591 2.462 81.5591 5.054V5.252C81.5591 7.79 80.1911 9.716 76.0151 9.716ZM70.6511 3.596V6.728H75.7451C77.1131 6.728 77.7071 6.152 77.7071 5.198V5.126C77.7071 4.19 77.1131 3.596 75.7451 3.596H70.6511ZM84.7101 17.438V14.936H86.9061C87.2481 14.936 87.4281 14.792 87.4281 14.522V14.504C87.4281 14.288 87.3741 14.09 87.1041 13.532L82.8201 4.01H86.6721L89.4441 11.174L92.1981 4.01H95.7261L91.1541 15.008C90.4521 16.646 89.5881 17.438 87.9321 17.438H84.7101ZM105.683 10.076H109.355C109.355 11.588 108.455 14.27 103.649 14.27H102.767C97.781 14.27 96.845 11.03 96.845 9.14V8.888C96.845 6.998 97.727 3.74 102.749 3.74H103.577C108.401 3.74 109.355 6.368 109.355 7.808V7.826H105.683C105.629 7.538 105.287 6.296 103.217 6.296H103.037C100.967 6.296 100.481 7.718 100.481 8.924V8.942C100.481 10.184 101.075 11.66 103.109 11.66H103.289C105.377 11.66 105.683 10.31 105.683 10.076ZM119.759 14V6.674H115.799C115.799 9.356 115.709 10.85 115.367 11.768C114.989 12.776 114.485 14 111.839 14H110.741V11.39H110.957C111.587 11.39 112.055 11.174 112.253 10.256C112.397 9.482 112.451 8.636 112.451 4.01H123.269V14H119.759ZM130.893 12.002C132.945 12.002 133.647 10.706 133.647 9.95V9.176C133.341 9.302 132.459 9.482 131.451 9.644C129.759 9.932 129.219 10.166 129.219 10.868V10.904C129.219 11.534 129.669 12.002 130.893 12.002ZM133.755 12.614C133.323 13.136 132.243 14.198 129.903 14.198H129.615C126.825 14.198 125.673 12.686 125.673 11.03V10.958C125.673 9.23 126.771 8.168 130.155 7.88L132.891 7.646C133.449 7.592 133.647 7.412 133.647 6.998C133.647 6.53 133.503 6.026 131.559 6.026C129.723 6.026 129.543 6.746 129.543 7.124H125.943V7.088C125.943 6.098 126.339 3.776 131.253 3.776H131.811C136.761 3.776 137.067 5.81 137.067 7.142V10.436C137.067 11.066 137.193 11.318 137.895 11.318H138.273V14H135.429C134.385 14 133.899 13.262 133.755 12.614ZM143.784 14H140.274V4.01H143.784V7.646H148.68V4.01H152.19V14H148.68V10.31H143.784V14ZM161.374 14.27H160.816C155.434 14.27 154.606 10.994 154.606 9.176V8.924C154.606 7.124 155.434 3.74 160.798 3.74H161.392C166.936 3.74 167.584 7.142 167.584 8.906V9.194C167.584 10.994 166.936 14.27 161.374 14.27ZM160.996 11.642H161.194C163.408 11.642 163.966 10.058 163.966 8.96C163.966 7.826 163.408 6.314 161.194 6.314H160.996C158.692 6.314 158.224 7.826 158.224 8.96C158.224 10.058 158.692 11.642 160.996 11.642ZM178.243 14H169.999V4.01H177.883C180.169 4.01 181.609 4.82 181.609 6.404V6.494C181.609 7.736 180.817 8.474 179.611 8.672C180.835 8.816 181.933 9.68 181.933 11.12V11.192C181.933 13.01 180.745 14 178.243 14ZM173.509 7.988H176.731C177.577 7.988 178.009 7.664 178.009 7.034V6.944C178.009 6.368 177.613 6.026 176.731 6.026H173.509V7.988ZM173.509 11.984H176.875C177.811 11.984 178.333 11.678 178.333 10.976V10.832C178.333 10.202 177.901 9.806 176.875 9.806H173.509V11.984ZM192.802 7.952L187.978 14H184.378V4.01H187.888V10.058L192.712 4.01H196.312V14H192.802V7.952ZM206.647 4.01H210.157V14H206.647V10.562C205.873 10.652 204.973 10.742 204.037 10.742C200.077 10.742 198.583 9.626 198.583 6.458V4.01H202.093V5.81C202.093 7.682 202.723 8.006 204.577 8.006C205.279 8.006 206.089 7.952 206.647 7.88V4.01ZM0.656 38V24.608H11.816V27.56H4.364V38H0.656ZM18.64 38.27H18.082C12.7 38.27 11.872 34.994 11.872 33.176V32.924C11.872 31.124 12.7 27.74 18.064 27.74H18.658C24.202 27.74 24.85 31.142 24.85 32.906V33.194C24.85 34.994 24.202 38.27 18.64 38.27ZM18.262 35.642H18.46C20.674 35.642 21.232 34.058 21.232 32.96C21.232 31.826 20.674 30.314 18.46 30.314H18.262C15.958 30.314 15.49 31.826 15.49 32.96C15.49 34.058 15.958 35.642 18.262 35.642ZM36.4446 33.014V32.96C36.4446 31.88 35.9406 30.422 33.7446 30.422H33.5646C31.4586 30.422 30.7926 31.808 30.7926 32.96V33.014C30.7926 34.112 31.4586 35.552 33.5646 35.552H33.7446C35.9406 35.552 36.4446 34.04 36.4446 33.014ZM27.3006 41.438V28.01H30.7746V29.288C31.2066 28.82 32.5206 27.812 34.7886 27.812H35.0226C38.8386 27.812 40.0806 30.422 40.0806 32.798V33.104C40.0806 35.282 38.8026 38.198 35.0046 38.198H34.7526C32.4666 38.198 31.2426 37.154 30.8106 36.722V41.438H27.3006ZM54.9965 33.122V33.356C54.9965 37.1 52.1525 38.27 48.7505 38.27H48.3905C44.8805 38.27 42.0185 36.902 42.0185 32.15V31.088C42.0185 26.282 44.4125 24.698 49.0925 24.698H49.9025C51.0185 24.698 51.0905 24.59 51.1265 24.374H54.5645C54.5645 26.48 53.7725 27.362 51.3245 27.362H49.0925C46.5005 27.362 45.5105 28.172 45.4565 29.99C46.3745 29.036 47.7785 28.388 49.9925 28.388H50.1005C52.4765 28.388 54.9965 29.594 54.9965 33.122ZM48.4265 35.642H48.6245C50.2085 35.642 51.3785 34.85 51.3785 33.212C51.3785 31.628 50.1905 30.854 48.6425 30.854H48.4265C46.6985 30.854 45.6365 31.592 45.6365 33.23C45.6365 34.886 46.7165 35.642 48.4265 35.642ZM57.9035 41.438V38.936H60.0995C60.4415 38.936 60.6215 38.792 60.6215 38.522V38.504C60.6215 38.288 60.5675 38.09 60.2975 37.532L56.0135 28.01H59.8655L62.6375 35.174L65.3915 28.01H68.9195L64.3475 39.008C63.6455 40.646 62.7815 41.438 61.1255 41.438H57.9035ZM74.2102 38H70.7002V28.01H74.2102V31.646H79.1062V28.01H82.6162V38H79.1062V34.31H74.2102V38ZM91.8001 38.27H91.2421C85.8601 38.27 85.0321 34.994 85.0321 33.176V32.924C85.0321 31.124 85.8601 27.74 91.2241 27.74H91.8181C97.3621 27.74 98.0101 31.142 98.0101 32.906V33.194C98.0101 34.994 97.3621 38.27 91.8001 38.27ZM91.4221 35.642H91.6201C93.8341 35.642 94.3921 34.058 94.3921 32.96C94.3921 31.826 93.8341 30.314 91.6201 30.314H91.4221C89.1181 30.314 88.6501 31.826 88.6501 32.96C88.6501 34.058 89.1181 35.642 91.4221 35.642ZM108.669 38H100.425V28.01H108.309C110.595 28.01 112.035 28.82 112.035 30.404V30.494C112.035 31.736 111.243 32.474 110.037 32.672C111.261 32.816 112.359 33.68 112.359 35.12V35.192C112.359 37.01 111.171 38 108.669 38ZM103.935 31.988H107.157C108.003 31.988 108.435 31.664 108.435 31.034V30.944C108.435 30.368 108.039 30.026 107.157 30.026H103.935V31.988ZM103.935 35.984H107.301C108.237 35.984 108.759 35.678 108.759 34.976V34.832C108.759 34.202 108.327 33.806 107.301 33.806H103.935V35.984Z" fill="url(#paint0_linear_2017_809)"/>
<path d="M12.194 14V5L4.364 14H0.656V0.608H4.364V9.608L12.194 0.608H15.902V14H12.194ZM27.2105 14V6.674H23.2505C23.2505 9.356 23.1605 10.85 22.8185 11.768C22.4405 12.776 21.9365 14 19.2905 14H18.1925V11.39H18.4085C19.0385 11.39 19.5065 11.174 19.7045 10.256C19.8485 9.482 19.9025 8.636 19.9025 4.01H30.7205V14H27.2105ZM33.6279 14V4.01H37.1379V6.872H39.8739C43.2939 6.872 44.6259 8.384 44.6259 10.292V10.508C44.6259 12.596 43.2939 14 39.8739 14H33.6279ZM37.1379 11.624H39.4419C40.1619 11.624 41.0259 11.408 41.0259 10.436V10.382C41.0259 9.482 40.1619 9.248 39.4419 9.248H37.1379V11.624ZM55.112 10.652H52.754L49.838 14H45.878L49.136 10.274C47.408 9.932 46.418 8.942 46.418 7.43V7.214C46.418 5.396 47.894 4.01 50.396 4.01H58.622V14H55.112V10.652ZM55.112 6.314H51.35C50.576 6.314 49.928 6.494 49.928 7.286V7.358C49.928 8.132 50.594 8.366 51.368 8.366H55.112V6.314ZM76.0151 9.716H70.6511V14H66.9431V0.608H76.0151C80.2451 0.608 81.5591 2.462 81.5591 5.054V5.252C81.5591 7.79 80.1911 9.716 76.0151 9.716ZM70.6511 3.596V6.728H75.7451C77.1131 6.728 77.7071 6.152 77.7071 5.198V5.126C77.7071 4.19 77.1131 3.596 75.7451 3.596H70.6511ZM84.7101 17.438V14.936H86.9061C87.2481 14.936 87.4281 14.792 87.4281 14.522V14.504C87.4281 14.288 87.3741 14.09 87.1041 13.532L82.8201 4.01H86.6721L89.4441 11.174L92.1981 4.01H95.7261L91.1541 15.008C90.4521 16.646 89.5881 17.438 87.9321 17.438H84.7101ZM105.683 10.076H109.355C109.355 11.588 108.455 14.27 103.649 14.27H102.767C97.781 14.27 96.845 11.03 96.845 9.14V8.888C96.845 6.998 97.727 3.74 102.749 3.74H103.577C108.401 3.74 109.355 6.368 109.355 7.808V7.826H105.683C105.629 7.538 105.287 6.296 103.217 6.296H103.037C100.967 6.296 100.481 7.718 100.481 8.924V8.942C100.481 10.184 101.075 11.66 103.109 11.66H103.289C105.377 11.66 105.683 10.31 105.683 10.076ZM119.759 14V6.674H115.799C115.799 9.356 115.709 10.85 115.367 11.768C114.989 12.776 114.485 14 111.839 14H110.741V11.39H110.957C111.587 11.39 112.055 11.174 112.253 10.256C112.397 9.482 112.451 8.636 112.451 4.01H123.269V14H119.759ZM130.893 12.002C132.945 12.002 133.647 10.706 133.647 9.95V9.176C133.341 9.302 132.459 9.482 131.451 9.644C129.759 9.932 129.219 10.166 129.219 10.868V10.904C129.219 11.534 129.669 12.002 130.893 12.002ZM133.755 12.614C133.323 13.136 132.243 14.198 129.903 14.198H129.615C126.825 14.198 125.673 12.686 125.673 11.03V10.958C125.673 9.23 126.771 8.168 130.155 7.88L132.891 7.646C133.449 7.592 133.647 7.412 133.647 6.998C133.647 6.53 133.503 6.026 131.559 6.026C129.723 6.026 129.543 6.746 129.543 7.124H125.943V7.088C125.943 6.098 126.339 3.776 131.253 3.776H131.811C136.761 3.776 137.067 5.81 137.067 7.142V10.436C137.067 11.066 137.193 11.318 137.895 11.318H138.273V14H135.429C134.385 14 133.899 13.262 133.755 12.614ZM143.784 14H140.274V4.01H143.784V7.646H148.68V4.01H152.19V14H148.68V10.31H143.784V14ZM161.374 14.27H160.816C155.434 14.27 154.606 10.994 154.606 9.176V8.924C154.606 7.124 155.434 3.74 160.798 3.74H161.392C166.936 3.74 167.584 7.142 167.584 8.906V9.194C167.584 10.994 166.936 14.27 161.374 14.27ZM160.996 11.642H161.194C163.408 11.642 163.966 10.058 163.966 8.96C163.966 7.826 163.408 6.314 161.194 6.314H160.996C158.692 6.314 158.224 7.826 158.224 8.96C158.224 10.058 158.692 11.642 160.996 11.642ZM178.243 14H169.999V4.01H177.883C180.169 4.01 181.609 4.82 181.609 6.404V6.494C181.609 7.736 180.817 8.474 179.611 8.672C180.835 8.816 181.933 9.68 181.933 11.12V11.192C181.933 13.01 180.745 14 178.243 14ZM173.509 7.988H176.731C177.577 7.988 178.009 7.664 178.009 7.034V6.944C178.009 6.368 177.613 6.026 176.731 6.026H173.509V7.988ZM173.509 11.984H176.875C177.811 11.984 178.333 11.678 178.333 10.976V10.832C178.333 10.202 177.901 9.806 176.875 9.806H173.509V11.984ZM192.802 7.952L187.978 14H184.378V4.01H187.888V10.058L192.712 4.01H196.312V14H192.802V7.952ZM206.647 4.01H210.157V14H206.647V10.562C205.873 10.652 204.973 10.742 204.037 10.742C200.077 10.742 198.583 9.626 198.583 6.458V4.01H202.093V5.81C202.093 7.682 202.723 8.006 204.577 8.006C205.279 8.006 206.089 7.952 206.647 7.88V4.01ZM0.656 38V24.608H11.816V27.56H4.364V38H0.656ZM18.64 38.27H18.082C12.7 38.27 11.872 34.994 11.872 33.176V32.924C11.872 31.124 12.7 27.74 18.064 27.74H18.658C24.202 27.74 24.85 31.142 24.85 32.906V33.194C24.85 34.994 24.202 38.27 18.64 38.27ZM18.262 35.642H18.46C20.674 35.642 21.232 34.058 21.232 32.96C21.232 31.826 20.674 30.314 18.46 30.314H18.262C15.958 30.314 15.49 31.826 15.49 32.96C15.49 34.058 15.958 35.642 18.262 35.642ZM36.4446 33.014V32.96C36.4446 31.88 35.9406 30.422 33.7446 30.422H33.5646C31.4586 30.422 30.7926 31.808 30.7926 32.96V33.014C30.7926 34.112 31.4586 35.552 33.5646 35.552H33.7446C35.9406 35.552 36.4446 34.04 36.4446 33.014ZM27.3006 41.438V28.01H30.7746V29.288C31.2066 28.82 32.5206 27.812 34.7886 27.812H35.0226C38.8386 27.812 40.0806 30.422 40.0806 32.798V33.104C40.0806 35.282 38.8026 38.198 35.0046 38.198H34.7526C32.4666 38.198 31.2426 37.154 30.8106 36.722V41.438H27.3006ZM54.9965 33.122V33.356C54.9965 37.1 52.1525 38.27 48.7505 38.27H48.3905C44.8805 38.27 42.0185 36.902 42.0185 32.15V31.088C42.0185 26.282 44.4125 24.698 49.0925 24.698H49.9025C51.0185 24.698 51.0905 24.59 51.1265 24.374H54.5645C54.5645 26.48 53.7725 27.362 51.3245 27.362H49.0925C46.5005 27.362 45.5105 28.172 45.4565 29.99C46.3745 29.036 47.7785 28.388 49.9925 28.388H50.1005C52.4765 28.388 54.9965 29.594 54.9965 33.122ZM48.4265 35.642H48.6245C50.2085 35.642 51.3785 34.85 51.3785 33.212C51.3785 31.628 50.1905 30.854 48.6425 30.854H48.4265C46.6985 30.854 45.6365 31.592 45.6365 33.23C45.6365 34.886 46.7165 35.642 48.4265 35.642ZM57.9035 41.438V38.936H60.0995C60.4415 38.936 60.6215 38.792 60.6215 38.522V38.504C60.6215 38.288 60.5675 38.09 60.2975 37.532L56.0135 28.01H59.8655L62.6375 35.174L65.3915 28.01H68.9195L64.3475 39.008C63.6455 40.646 62.7815 41.438 61.1255 41.438H57.9035ZM74.2102 38H70.7002V28.01H74.2102V31.646H79.1062V28.01H82.6162V38H79.1062V34.31H74.2102V38ZM91.8001 38.27H91.2421C85.8601 38.27 85.0321 34.994 85.0321 33.176V32.924C85.0321 31.124 85.8601 27.74 91.2241 27.74H91.8181C97.3621 27.74 98.0101 31.142 98.0101 32.906V33.194C98.0101 34.994 97.3621 38.27 91.8001 38.27ZM91.4221 35.642H91.6201C93.8341 35.642 94.3921 34.058 94.3921 32.96C94.3921 31.826 93.8341 30.314 91.6201 30.314H91.4221C89.1181 30.314 88.6501 31.826 88.6501 32.96C88.6501 34.058 89.1181 35.642 91.4221 35.642ZM108.669 38H100.425V28.01H108.309C110.595 28.01 112.035 28.82 112.035 30.404V30.494C112.035 31.736 111.243 32.474 110.037 32.672C111.261 32.816 112.359 33.68 112.359 35.12V35.192C112.359 37.01 111.171 38 108.669 38ZM103.935 31.988H107.157C108.003 31.988 108.435 31.664 108.435 31.034V30.944C108.435 30.368 108.039 30.026 107.157 30.026H103.935V31.988ZM103.935 35.984H107.301C108.237 35.984 108.759 35.678 108.759 34.976V34.832C108.759 34.202 108.327 33.806 107.301 33.806H103.935V35.984Z" fill="url(#paint1_radial_2017_809)" style="mix-blend-mode:overlay"/>
<path d="M12.194 14V5L4.364 14H0.656V0.608H4.364V9.608L12.194 0.608H15.902V14H12.194ZM27.2105 14V6.674H23.2505C23.2505 9.356 23.1605 10.85 22.8185 11.768C22.4405 12.776 21.9365 14 19.2905 14H18.1925V11.39H18.4085C19.0385 11.39 19.5065 11.174 19.7045 10.256C19.8485 9.482 19.9025 8.636 19.9025 4.01H30.7205V14H27.2105ZM33.6279 14V4.01H37.1379V6.872H39.8739C43.2939 6.872 44.6259 8.384 44.6259 10.292V10.508C44.6259 12.596 43.2939 14 39.8739 14H33.6279ZM37.1379 11.624H39.4419C40.1619 11.624 41.0259 11.408 41.0259 10.436V10.382C41.0259 9.482 40.1619 9.248 39.4419 9.248H37.1379V11.624ZM55.112 10.652H52.754L49.838 14H45.878L49.136 10.274C47.408 9.932 46.418 8.942 46.418 7.43V7.214C46.418 5.396 47.894 4.01 50.396 4.01H58.622V14H55.112V10.652ZM55.112 6.314H51.35C50.576 6.314 49.928 6.494 49.928 7.286V7.358C49.928 8.132 50.594 8.366 51.368 8.366H55.112V6.314ZM76.0151 9.716H70.6511V14H66.9431V0.608H76.0151C80.2451 0.608 81.5591 2.462 81.5591 5.054V5.252C81.5591 7.79 80.1911 9.716 76.0151 9.716ZM70.6511 3.596V6.728H75.7451C77.1131 6.728 77.7071 6.152 77.7071 5.198V5.126C77.7071 4.19 77.1131 3.596 75.7451 3.596H70.6511ZM84.7101 17.438V14.936H86.9061C87.2481 14.936 87.4281 14.792 87.4281 14.522V14.504C87.4281 14.288 87.3741 14.09 87.1041 13.532L82.8201 4.01H86.6721L89.4441 11.174L92.1981 4.01H95.7261L91.1541 15.008C90.4521 16.646 89.5881 17.438 87.9321 17.438H84.7101ZM105.683 10.076H109.355C109.355 11.588 108.455 14.27 103.649 14.27H102.767C97.781 14.27 96.845 11.03 96.845 9.14V8.888C96.845 6.998 97.727 3.74 102.749 3.74H103.577C108.401 3.74 109.355 6.368 109.355 7.808V7.826H105.683C105.629 7.538 105.287 6.296 103.217 6.296H103.037C100.967 6.296 100.481 7.718 100.481 8.924V8.942C100.481 10.184 101.075 11.66 103.109 11.66H103.289C105.377 11.66 105.683 10.31 105.683 10.076ZM119.759 14V6.674H115.799C115.799 9.356 115.709 10.85 115.367 11.768C114.989 12.776 114.485 14 111.839 14H110.741V11.39H110.957C111.587 11.39 112.055 11.174 112.253 10.256C112.397 9.482 112.451 8.636 112.451 4.01H123.269V14H119.759ZM130.893 12.002C132.945 12.002 133.647 10.706 133.647 9.95V9.176C133.341 9.302 132.459 9.482 131.451 9.644C129.759 9.932 129.219 10.166 129.219 10.868V10.904C129.219 11.534 129.669 12.002 130.893 12.002ZM133.755 12.614C133.323 13.136 132.243 14.198 129.903 14.198H129.615C126.825 14.198 125.673 12.686 125.673 11.03V10.958C125.673 9.23 126.771 8.168 130.155 7.88L132.891 7.646C133.449 7.592 133.647 7.412 133.647 6.998C133.647 6.53 133.503 6.026 131.559 6.026C129.723 6.026 129.543 6.746 129.543 7.124H125.943V7.088C125.943 6.098 126.339 3.776 131.253 3.776H131.811C136.761 3.776 137.067 5.81 137.067 7.142V10.436C137.067 11.066 137.193 11.318 137.895 11.318H138.273V14H135.429C134.385 14 133.899 13.262 133.755 12.614ZM143.784 14H140.274V4.01H143.784V7.646H148.68V4.01H152.19V14H148.68V10.31H143.784V14ZM161.374 14.27H160.816C155.434 14.27 154.606 10.994 154.606 9.176V8.924C154.606 7.124 155.434 3.74 160.798 3.74H161.392C166.936 3.74 167.584 7.142 167.584 8.906V9.194C167.584 10.994 166.936 14.27 161.374 14.27ZM160.996 11.642H161.194C163.408 11.642 163.966 10.058 163.966 8.96C163.966 7.826 163.408 6.314 161.194 6.314H160.996C158.692 6.314 158.224 7.826 158.224 8.96C158.224 10.058 158.692 11.642 160.996 11.642ZM178.243 14H169.999V4.01H177.883C180.169 4.01 181.609 4.82 181.609 6.404V6.494C181.609 7.736 180.817 8.474 179.611 8.672C180.835 8.816 181.933 9.68 181.933 11.12V11.192C181.933 13.01 180.745 14 178.243 14ZM173.509 7.988H176.731C177.577 7.988 178.009 7.664 178.009 7.034V6.944C178.009 6.368 177.613 6.026 176.731 6.026H173.509V7.988ZM173.509 11.984H176.875C177.811 11.984 178.333 11.678 178.333 10.976V10.832C178.333 10.202 177.901 9.806 176.875 9.806H173.509V11.984ZM192.802 7.952L187.978 14H184.378V4.01H187.888V10.058L192.712 4.01H196.312V14H192.802V7.952ZM206.647 4.01H210.157V14H206.647V10.562C205.873 10.652 204.973 10.742 204.037 10.742C200.077 10.742 198.583 9.626 198.583 6.458V4.01H202.093V5.81C202.093 7.682 202.723 8.006 204.577 8.006C205.279 8.006 206.089 7.952 206.647 7.88V4.01ZM0.656 38V24.608H11.816V27.56H4.364V38H0.656ZM18.64 38.27H18.082C12.7 38.27 11.872 34.994 11.872 33.176V32.924C11.872 31.124 12.7 27.74 18.064 27.74H18.658C24.202 27.74 24.85 31.142 24.85 32.906V33.194C24.85 34.994 24.202 38.27 18.64 38.27ZM18.262 35.642H18.46C20.674 35.642 21.232 34.058 21.232 32.96C21.232 31.826 20.674 30.314 18.46 30.314H18.262C15.958 30.314 15.49 31.826 15.49 32.96C15.49 34.058 15.958 35.642 18.262 35.642ZM36.4446 33.014V32.96C36.4446 31.88 35.9406 30.422 33.7446 30.422H33.5646C31.4586 30.422 30.7926 31.808 30.7926 32.96V33.014C30.7926 34.112 31.4586 35.552 33.5646 35.552H33.7446C35.9406 35.552 36.4446 34.04 36.4446 33.014ZM27.3006 41.438V28.01H30.7746V29.288C31.2066 28.82 32.5206 27.812 34.7886 27.812H35.0226C38.8386 27.812 40.0806 30.422 40.0806 32.798V33.104C40.0806 35.282 38.8026 38.198 35.0046 38.198H34.7526C32.4666 38.198 31.2426 37.154 30.8106 36.722V41.438H27.3006ZM54.9965 33.122V33.356C54.9965 37.1 52.1525 38.27 48.7505 38.27H48.3905C44.8805 38.27 42.0185 36.902 42.0185 32.15V31.088C42.0185 26.282 44.4125 24.698 49.0925 24.698H49.9025C51.0185 24.698 51.0905 24.59 51.1265 24.374H54.5645C54.5645 26.48 53.7725 27.362 51.3245 27.362H49.0925C46.5005 27.362 45.5105 28.172 45.4565 29.99C46.3745 29.036 47.7785 28.388 49.9925 28.388H50.1005C52.4765 28.388 54.9965 29.594 54.9965 33.122ZM48.4265 35.642H48.6245C50.2085 35.642 51.3785 34.85 51.3785 33.212C51.3785 31.628 50.1905 30.854 48.6425 30.854H48.4265C46.6985 30.854 45.6365 31.592 45.6365 33.23C45.6365 34.886 46.7165 35.642 48.4265 35.642ZM57.9035 41.438V38.936H60.0995C60.4415 38.936 60.6215 38.792 60.6215 38.522V38.504C60.6215 38.288 60.5675 38.09 60.2975 37.532L56.0135 28.01H59.8655L62.6375 35.174L65.3915 28.01H68.9195L64.3475 39.008C63.6455 40.646 62.7815 41.438 61.1255 41.438H57.9035ZM74.2102 38H70.7002V28.01H74.2102V31.646H79.1062V28.01H82.6162V38H79.1062V34.31H74.2102V38ZM91.8001 38.27H91.2421C85.8601 38.27 85.0321 34.994 85.0321 33.176V32.924C85.0321 31.124 85.8601 27.74 91.2241 27.74H91.8181C97.3621 27.74 98.0101 31.142 98.0101 32.906V33.194C98.0101 34.994 97.3621 38.27 91.8001 38.27ZM91.4221 35.642H91.6201C93.8341 35.642 94.3921 34.058 94.3921 32.96C94.3921 31.826 93.8341 30.314 91.6201 30.314H91.4221C89.1181 30.314 88.6501 31.826 88.6501 32.96C88.6501 34.058 89.1181 35.642 91.4221 35.642ZM108.669 38H100.425V28.01H108.309C110.595 28.01 112.035 28.82 112.035 30.404V30.494C112.035 31.736 111.243 32.474 110.037 32.672C111.261 32.816 112.359 33.68 112.359 35.12V35.192C112.359 37.01 111.171 38 108.669 38ZM103.935 31.988H107.157C108.003 31.988 108.435 31.664 108.435 31.034V30.944C108.435 30.368 108.039 30.026 107.157 30.026H103.935V31.988ZM103.935 35.984H107.301C108.237 35.984 108.759 35.678 108.759 34.976V34.832C108.759 34.202 108.327 33.806 107.301 33.806H103.935V35.984Z" fill="url(#paint2_radial_2017_809)"/>
<path d="M12.194 14V5L4.364 14H0.656V0.608H4.364V9.608L12.194 0.608H15.902V14H12.194ZM27.2105 14V6.674H23.2505C23.2505 9.356 23.1605 10.85 22.8185 11.768C22.4405 12.776 21.9365 14 19.2905 14H18.1925V11.39H18.4085C19.0385 11.39 19.5065 11.174 19.7045 10.256C19.8485 9.482 19.9025 8.636 19.9025 4.01H30.7205V14H27.2105ZM33.6279 14V4.01H37.1379V6.872H39.8739C43.2939 6.872 44.6259 8.384 44.6259 10.292V10.508C44.6259 12.596 43.2939 14 39.8739 14H33.6279ZM37.1379 11.624H39.4419C40.1619 11.624 41.0259 11.408 41.0259 10.436V10.382C41.0259 9.482 40.1619 9.248 39.4419 9.248H37.1379V11.624ZM55.112 10.652H52.754L49.838 14H45.878L49.136 10.274C47.408 9.932 46.418 8.942 46.418 7.43V7.214C46.418 5.396 47.894 4.01 50.396 4.01H58.622V14H55.112V10.652ZM55.112 6.314H51.35C50.576 6.314 49.928 6.494 49.928 7.286V7.358C49.928 8.132 50.594 8.366 51.368 8.366H55.112V6.314ZM76.0151 9.716H70.6511V14H66.9431V0.608H76.0151C80.2451 0.608 81.5591 2.462 81.5591 5.054V5.252C81.5591 7.79 80.1911 9.716 76.0151 9.716ZM70.6511 3.596V6.728H75.7451C77.1131 6.728 77.7071 6.152 77.7071 5.198V5.126C77.7071 4.19 77.1131 3.596 75.7451 3.596H70.6511ZM84.7101 17.438V14.936H86.9061C87.2481 14.936 87.4281 14.792 87.4281 14.522V14.504C87.4281 14.288 87.3741 14.09 87.1041 13.532L82.8201 4.01H86.6721L89.4441 11.174L92.1981 4.01H95.7261L91.1541 15.008C90.4521 16.646 89.5881 17.438 87.9321 17.438H84.7101ZM105.683 10.076H109.355C109.355 11.588 108.455 14.27 103.649 14.27H102.767C97.781 14.27 96.845 11.03 96.845 9.14V8.888C96.845 6.998 97.727 3.74 102.749 3.74H103.577C108.401 3.74 109.355 6.368 109.355 7.808V7.826H105.683C105.629 7.538 105.287 6.296 103.217 6.296H103.037C100.967 6.296 100.481 7.718 100.481 8.924V8.942C100.481 10.184 101.075 11.66 103.109 11.66H103.289C105.377 11.66 105.683 10.31 105.683 10.076ZM119.759 14V6.674H115.799C115.799 9.356 115.709 10.85 115.367 11.768C114.989 12.776 114.485 14 111.839 14H110.741V11.39H110.957C111.587 11.39 112.055 11.174 112.253 10.256C112.397 9.482 112.451 8.636 112.451 4.01H123.269V14H119.759ZM130.893 12.002C132.945 12.002 133.647 10.706 133.647 9.95V9.176C133.341 9.302 132.459 9.482 131.451 9.644C129.759 9.932 129.219 10.166 129.219 10.868V10.904C129.219 11.534 129.669 12.002 130.893 12.002ZM133.755 12.614C133.323 13.136 132.243 14.198 129.903 14.198H129.615C126.825 14.198 125.673 12.686 125.673 11.03V10.958C125.673 9.23 126.771 8.168 130.155 7.88L132.891 7.646C133.449 7.592 133.647 7.412 133.647 6.998C133.647 6.53 133.503 6.026 131.559 6.026C129.723 6.026 129.543 6.746 129.543 7.124H125.943V7.088C125.943 6.098 126.339 3.776 131.253 3.776H131.811C136.761 3.776 137.067 5.81 137.067 7.142V10.436C137.067 11.066 137.193 11.318 137.895 11.318H138.273V14H135.429C134.385 14 133.899 13.262 133.755 12.614ZM143.784 14H140.274V4.01H143.784V7.646H148.68V4.01H152.19V14H148.68V10.31H143.784V14ZM161.374 14.27H160.816C155.434 14.27 154.606 10.994 154.606 9.176V8.924C154.606 7.124 155.434 3.74 160.798 3.74H161.392C166.936 3.74 167.584 7.142 167.584 8.906V9.194C167.584 10.994 166.936 14.27 161.374 14.27ZM160.996 11.642H161.194C163.408 11.642 163.966 10.058 163.966 8.96C163.966 7.826 163.408 6.314 161.194 6.314H160.996C158.692 6.314 158.224 7.826 158.224 8.96C158.224 10.058 158.692 11.642 160.996 11.642ZM178.243 14H169.999V4.01H177.883C180.169 4.01 181.609 4.82 181.609 6.404V6.494C181.609 7.736 180.817 8.474 179.611 8.672C180.835 8.816 181.933 9.68 181.933 11.12V11.192C181.933 13.01 180.745 14 178.243 14ZM173.509 7.988H176.731C177.577 7.988 178.009 7.664 178.009 7.034V6.944C178.009 6.368 177.613 6.026 176.731 6.026H173.509V7.988ZM173.509 11.984H176.875C177.811 11.984 178.333 11.678 178.333 10.976V10.832C178.333 10.202 177.901 9.806 176.875 9.806H173.509V11.984ZM192.802 7.952L187.978 14H184.378V4.01H187.888V10.058L192.712 4.01H196.312V14H192.802V7.952ZM206.647 4.01H210.157V14H206.647V10.562C205.873 10.652 204.973 10.742 204.037 10.742C200.077 10.742 198.583 9.626 198.583 6.458V4.01H202.093V5.81C202.093 7.682 202.723 8.006 204.577 8.006C205.279 8.006 206.089 7.952 206.647 7.88V4.01ZM0.656 38V24.608H11.816V27.56H4.364V38H0.656ZM18.64 38.27H18.082C12.7 38.27 11.872 34.994 11.872 33.176V32.924C11.872 31.124 12.7 27.74 18.064 27.74H18.658C24.202 27.74 24.85 31.142 24.85 32.906V33.194C24.85 34.994 24.202 38.27 18.64 38.27ZM18.262 35.642H18.46C20.674 35.642 21.232 34.058 21.232 32.96C21.232 31.826 20.674 30.314 18.46 30.314H18.262C15.958 30.314 15.49 31.826 15.49 32.96C15.49 34.058 15.958 35.642 18.262 35.642ZM36.4446 33.014V32.96C36.4446 31.88 35.9406 30.422 33.7446 30.422H33.5646C31.4586 30.422 30.7926 31.808 30.7926 32.96V33.014C30.7926 34.112 31.4586 35.552 33.5646 35.552H33.7446C35.9406 35.552 36.4446 34.04 36.4446 33.014ZM27.3006 41.438V28.01H30.7746V29.288C31.2066 28.82 32.5206 27.812 34.7886 27.812H35.0226C38.8386 27.812 40.0806 30.422 40.0806 32.798V33.104C40.0806 35.282 38.8026 38.198 35.0046 38.198H34.7526C32.4666 38.198 31.2426 37.154 30.8106 36.722V41.438H27.3006ZM54.9965 33.122V33.356C54.9965 37.1 52.1525 38.27 48.7505 38.27H48.3905C44.8805 38.27 42.0185 36.902 42.0185 32.15V31.088C42.0185 26.282 44.4125 24.698 49.0925 24.698H49.9025C51.0185 24.698 51.0905 24.59 51.1265 24.374H54.5645C54.5645 26.48 53.7725 27.362 51.3245 27.362H49.0925C46.5005 27.362 45.5105 28.172 45.4565 29.99C46.3745 29.036 47.7785 28.388 49.9925 28.388H50.1005C52.4765 28.388 54.9965 29.594 54.9965 33.122ZM48.4265 35.642H48.6245C50.2085 35.642 51.3785 34.85 51.3785 33.212C51.3785 31.628 50.1905 30.854 48.6425 30.854H48.4265C46.6985 30.854 45.6365 31.592 45.6365 33.23C45.6365 34.886 46.7165 35.642 48.4265 35.642ZM57.9035 41.438V38.936H60.0995C60.4415 38.936 60.6215 38.792 60.6215 38.522V38.504C60.6215 38.288 60.5675 38.09 60.2975 37.532L56.0135 28.01H59.8655L62.6375 35.174L65.3915 28.01H68.9195L64.3475 39.008C63.6455 40.646 62.7815 41.438 61.1255 41.438H57.9035ZM74.2102 38H70.7002V28.01H74.2102V31.646H79.1062V28.01H82.6162V38H79.1062V34.31H74.2102V38ZM91.8001 38.27H91.2421C85.8601 38.27 85.0321 34.994 85.0321 33.176V32.924C85.0321 31.124 85.8601 27.74 91.2241 27.74H91.8181C97.3621 27.74 98.0101 31.142 98.0101 32.906V33.194C98.0101 34.994 97.3621 38.27 91.8001 38.27ZM91.4221 35.642H91.6201C93.8341 35.642 94.3921 34.058 94.3921 32.96C94.3921 31.826 93.8341 30.314 91.6201 30.314H91.4221C89.1181 30.314 88.6501 31.826 88.6501 32.96C88.6501 34.058 89.1181 35.642 91.4221 35.642ZM108.669 38H100.425V28.01H108.309C110.595 28.01 112.035 28.82 112.035 30.404V30.494C112.035 31.736 111.243 32.474 110.037 32.672C111.261 32.816 112.359 33.68 112.359 35.12V35.192C112.359 37.01 111.171 38 108.669 38ZM103.935 31.988H107.157C108.003 31.988 108.435 31.664 108.435 31.034V30.944C108.435 30.368 108.039 30.026 107.157 30.026H103.935V31.988ZM103.935 35.984H107.301C108.237 35.984 108.759 35.678 108.759 34.976V34.832C108.759 34.202 108.327 33.806 107.301 33.806H103.935V35.984Z" fill="#C1A875" style="mix-blend-mode:color"/>
<defs>
<linearGradient id="paint0_linear_2017_809" x1="-0.999999" y1="18" x2="221" y2="18" gradientUnits="userSpaceOnUse">
<stop stop-color="#576167"/>
<stop offset="0.191294" stop-color="#9EA1A2"/>
<stop offset="0.396166" stop-color="#848989"/>
<stop offset="0.62055" stop-color="#576167"/>
<stop offset="0.830299" stop-color="#757A7C"/>
<stop offset="1" stop-color="#576167"/>
</linearGradient>
<radialGradient id="paint1_radial_2017_809" cx="0" cy="0" r="1" gradientUnits="userSpaceOnUse" gradientTransform="translate(117.226 -0.404494) rotate(90) scale(35.6629 167.95)">
<stop stop-color="white"/>
<stop offset="1" stop-color="white" stop-opacity="0"/>
</radialGradient>
<radialGradient id="paint2_radial_2017_809" cx="0" cy="0" r="1" gradientUnits="userSpaceOnUse" gradientTransform="translate(129.783 53.3258) rotate(-89.6015) scale(51.1024 240.159)">
<stop stop-color="white"/>
<stop offset="1" stop-color="white" stop-opacity="0"/>
</radialGradient>
</defs>
</svg>
