<svg width="151" height="66" viewBox="0 0 151 66" fill="none" xmlns="http://www.w3.org/2000/svg">
<path d="M10.808 14L4.364 7.7V14H0.656V0.608H4.364V6.116L10.628 0.608H15.344L8.288 6.746L15.65 14H10.808ZM21.3283 12.002C23.3803 12.002 24.0823 10.706 24.0823 9.95V9.176C23.7763 9.302 22.8943 9.482 21.8863 9.644C20.1943 9.932 19.6543 10.166 19.6543 10.868V10.904C19.6543 11.534 20.1043 12.002 21.3283 12.002ZM24.1903 12.614C23.7583 13.136 22.6783 14.198 20.3383 14.198H20.0503C17.2603 14.198 16.1083 12.686 16.1083 11.03V10.958C16.1083 9.23 17.2063 8.168 20.5903 7.88L23.3263 7.646C23.8843 7.592 24.0823 7.412 24.0823 6.998C24.0823 6.53 23.9383 6.026 21.9943 6.026C20.1583 6.026 19.9783 6.746 19.9783 7.124H16.3783V7.088C16.3783 6.098 16.7743 3.776 21.6883 3.776H22.2463C27.1963 3.776 27.5023 5.81 27.5023 7.142V10.436C27.5023 11.066 27.6283 11.318 28.3303 11.318H28.7083V14H25.8643C24.8203 14 24.3343 13.262 24.1903 12.614ZM39.89 9.014V8.96C39.89 7.88 39.386 6.422 37.19 6.422H37.01C34.904 6.422 34.238 7.808 34.238 8.96V9.014C34.238 10.112 34.904 11.552 37.01 11.552H37.19C39.386 11.552 39.89 10.04 39.89 9.014ZM30.746 17.438V4.01H34.22V5.288C34.652 4.82 35.966 3.812 38.234 3.812H38.468C42.284 3.812 43.526 6.422 43.526 8.798V9.104C43.526 11.282 42.248 14.198 38.45 14.198H38.198C35.912 14.198 34.688 13.154 34.256 12.722V17.438H30.746ZM54.3918 7.952L49.5678 14H45.9678V4.01H49.4778V10.058L54.3018 4.01H57.9018V14H54.3918V7.952ZM64.3313 14H60.8213V4.01H64.3313V7.646H69.2273V4.01H72.7373V14H69.2273V10.31H64.3313V14ZM80.3732 12.002C82.4252 12.002 83.1272 10.706 83.1272 9.95V9.176C82.8212 9.302 81.9392 9.482 80.9312 9.644C79.2392 9.932 78.6992 10.166 78.6992 10.868V10.904C78.6992 11.534 79.1492 12.002 80.3732 12.002ZM83.2352 12.614C82.8032 13.136 81.7232 14.198 79.3832 14.198H79.0952C76.3052 14.198 75.1532 12.686 75.1532 11.03V10.958C75.1532 9.23 76.2512 8.168 79.6352 7.88L82.3712 7.646C82.9292 7.592 83.1272 7.412 83.1272 6.998C83.1272 6.53 82.9832 6.026 81.0392 6.026C79.2032 6.026 79.0232 6.746 79.0232 7.124H75.4232V7.088C75.4232 6.098 75.8192 3.776 80.7332 3.776H81.2912C86.2412 3.776 86.5472 5.81 86.5472 7.142V10.436C86.5472 11.066 86.6732 11.318 87.3752 11.318H87.7532V14H84.9092C83.8652 14 83.3792 13.262 83.2352 12.614ZM0.656 38V24.608H5.588L9.854 33.68L14.246 24.608H18.872V38H15.254V29.234L11.186 38H8.288L4.22 29.234V38H0.656ZM30.4152 31.952L25.5912 38H21.9912V28.01H25.5012V34.058L30.3252 28.01H33.9252V38H30.4152V31.952ZM44.8367 38L42.1547 35.138L39.5447 38H35.5667L40.0487 32.996L35.4227 28.01H39.7247L42.2807 30.8L44.7467 28.01H48.6167L44.3147 32.924L48.8867 38H44.8367ZM55.008 36.002C57.06 36.002 57.762 34.706 57.762 33.95V33.176C57.456 33.302 56.574 33.482 55.566 33.644C53.874 33.932 53.334 34.166 53.334 34.868V34.904C53.334 35.534 53.784 36.002 55.008 36.002ZM57.87 36.614C57.438 37.136 56.358 38.198 54.018 38.198H53.73C50.94 38.198 49.788 36.686 49.788 35.03V34.958C49.788 33.23 50.886 32.168 54.27 31.88L57.006 31.646C57.564 31.592 57.762 31.412 57.762 30.998C57.762 30.53 57.618 30.026 55.674 30.026C53.838 30.026 53.658 30.746 53.658 31.124H50.058V31.088C50.058 30.098 50.454 27.776 55.368 27.776H55.926C60.876 27.776 61.182 29.81 61.182 31.142V34.436C61.182 35.066 61.308 35.318 62.01 35.318H62.388V38H59.544C58.5 38 58.014 37.262 57.87 36.614ZM72.8136 31.952L67.9896 38H64.3896V28.01H67.8996V34.058L72.7236 28.01H76.3236V38H72.8136V31.952ZM70.5816 26.984H70.0416C67.1796 26.984 66.6756 25.04 66.6756 24.104V24.05H69.3216C69.3216 24.284 69.4296 25.004 70.3296 25.004C71.1756 25.004 71.3016 24.284 71.3016 24.05H73.9116V24.104C73.9116 25.04 73.1916 26.984 70.5816 26.984ZM87.4332 38V30.674H83.4732C83.4732 33.356 83.3832 34.85 83.0412 35.768C82.6632 36.776 82.1592 38 79.5132 38H78.4152V35.39H78.6312C79.2612 35.39 79.7292 35.174 79.9272 34.256C80.0712 33.482 80.1252 32.636 80.1252 28.01H90.9432V38H87.4332ZM100.115 38.27H99.5566C94.1746 38.27 93.3466 34.994 93.3466 33.176V32.924C93.3466 31.124 94.1746 27.74 99.5386 27.74H100.133C105.677 27.74 106.325 31.142 106.325 32.906V33.194C106.325 34.994 105.677 38.27 100.115 38.27ZM99.7366 35.642H99.9346C102.149 35.642 102.707 34.058 102.707 32.96C102.707 31.826 102.149 30.314 99.9346 30.314H99.7366C97.4326 30.314 96.9646 31.826 96.9646 32.96C96.9646 34.058 97.4326 35.642 99.7366 35.642ZM116.983 38H108.739V28.01H116.623C118.909 28.01 120.349 28.82 120.349 30.404V30.494C120.349 31.736 119.557 32.474 118.351 32.672C119.575 32.816 120.673 33.68 120.673 35.12V35.192C120.673 37.01 119.485 38 116.983 38ZM112.249 31.988H115.471C116.317 31.988 116.749 31.664 116.749 31.034V30.944C116.749 30.368 116.353 30.026 115.471 30.026H112.249V31.988ZM112.249 35.984H115.615C116.551 35.984 117.073 35.678 117.073 34.976V34.832C117.073 34.202 116.641 33.806 115.615 33.806H112.249V35.984ZM126.628 38H123.118V28.01H126.628V31.646H131.524V28.01H135.034V38H131.524V34.31H126.628V38ZM142.67 36.002C144.722 36.002 145.424 34.706 145.424 33.95V33.176C145.118 33.302 144.236 33.482 143.228 33.644C141.536 33.932 140.996 34.166 140.996 34.868V34.904C140.996 35.534 141.446 36.002 142.67 36.002ZM145.532 36.614C145.1 37.136 144.02 38.198 141.68 38.198H141.392C138.602 38.198 137.45 36.686 137.45 35.03V34.958C137.45 33.23 138.548 32.168 141.932 31.88L144.668 31.646C145.226 31.592 145.424 31.412 145.424 30.998C145.424 30.53 145.28 30.026 143.336 30.026C141.5 30.026 141.32 30.746 141.32 31.124H137.72V31.088C137.72 30.098 138.116 27.776 143.03 27.776H143.588C148.538 27.776 148.844 29.81 148.844 31.142V34.436C148.844 35.066 148.97 35.318 149.672 35.318H150.05V38H147.206C146.162 38 145.676 37.262 145.532 36.614ZM8.108 48.392H8.9C15.164 48.392 16.946 52.064 16.946 54.998V55.538C16.946 58.418 15.164 62.216 8.9 62.216H8.108C1.844 62.216 0.0620001 58.418 0.0620001 55.538V54.998C0.0620001 52.082 1.844 48.392 8.108 48.392ZM13.094 55.394V55.142C13.094 53.486 12.284 51.452 8.504 51.452C4.76 51.452 3.914 53.486 3.914 55.142V55.394C3.914 57.014 4.814 59.138 8.504 59.138C12.266 59.138 13.094 57.014 13.094 55.394ZM28.64 57.014V56.96C28.64 55.88 28.136 54.422 25.94 54.422H25.76C23.654 54.422 22.988 55.808 22.988 56.96V57.014C22.988 58.112 23.654 59.552 25.76 59.552H25.94C28.136 59.552 28.64 58.04 28.64 57.014ZM19.496 65.438V52.01H22.97V53.288C23.402 52.82 24.716 51.812 26.984 51.812H27.218C31.034 51.812 32.276 54.422 32.276 56.798V57.104C32.276 59.282 30.998 62.198 27.2 62.198H26.948C24.662 62.198 23.438 61.154 23.006 60.722V65.438H19.496ZM42.732 62V54.674H38.772C38.772 57.356 38.682 58.85 38.34 59.768C37.962 60.776 37.458 62 34.812 62H33.714V59.39H33.93C34.56 59.39 35.028 59.174 35.226 58.256C35.37 57.482 35.424 56.636 35.424 52.01H46.242V62H42.732ZM57.5734 55.952L52.7494 62H49.1494V52.01H52.6594V58.058L57.4834 52.01H61.0834V62H57.5734V55.952ZM71.4189 52.01H74.9289V62H71.4189V58.562C70.6449 58.652 69.7449 58.742 68.8089 58.742C64.8489 58.742 63.3549 57.626 63.3549 54.458V52.01H66.8649V53.81C66.8649 55.682 67.4949 56.006 69.3489 56.006C70.0509 56.006 70.8609 55.952 71.4189 55.88V52.01ZM83.6509 54.08C81.8329 54.08 81.1489 54.818 80.9689 55.862H86.2609C86.2609 55.124 85.9009 54.08 83.6509 54.08ZM86.3329 58.886H89.9869C89.9869 59.714 89.3389 62.234 84.1729 62.234H83.5069C78.5749 62.234 77.3509 59.534 77.3509 57.14V56.888C77.3509 54.638 78.4669 51.794 83.2009 51.794H83.9929C89.1049 51.794 90.0229 54.638 90.0229 57.428V57.752H80.9329C81.0769 58.904 81.8149 59.84 83.9569 59.84C85.9909 59.84 86.2429 59.048 86.3329 58.886ZM95.9368 62H92.4268V52.01H95.9368V55.646H100.833V52.01H104.343V62H100.833V58.31H95.9368V62ZM114.697 62L110.809 57.374V62H107.299V52.01H110.809V56.006L114.373 52.01H118.423L114.247 56.492L118.873 62H114.697ZM126.13 62.27H125.572C120.19 62.27 119.362 58.994 119.362 57.176V56.924C119.362 55.124 120.19 51.74 125.554 51.74H126.148C131.692 51.74 132.34 55.142 132.34 56.906V57.194C132.34 58.994 131.692 62.27 126.13 62.27ZM125.752 59.642H125.95C128.164 59.642 128.722 58.058 128.722 56.96C128.722 55.826 128.164 54.314 125.95 54.314H125.752C123.448 54.314 122.98 55.826 122.98 56.96C122.98 58.058 123.448 59.642 125.752 59.642Z" fill="url(#paint0_linear_2017_857)"/>
<path d="M10.808 14L4.364 7.7V14H0.656V0.608H4.364V6.116L10.628 0.608H15.344L8.288 6.746L15.65 14H10.808ZM21.3283 12.002C23.3803 12.002 24.0823 10.706 24.0823 9.95V9.176C23.7763 9.302 22.8943 9.482 21.8863 9.644C20.1943 9.932 19.6543 10.166 19.6543 10.868V10.904C19.6543 11.534 20.1043 12.002 21.3283 12.002ZM24.1903 12.614C23.7583 13.136 22.6783 14.198 20.3383 14.198H20.0503C17.2603 14.198 16.1083 12.686 16.1083 11.03V10.958C16.1083 9.23 17.2063 8.168 20.5903 7.88L23.3263 7.646C23.8843 7.592 24.0823 7.412 24.0823 6.998C24.0823 6.53 23.9383 6.026 21.9943 6.026C20.1583 6.026 19.9783 6.746 19.9783 7.124H16.3783V7.088C16.3783 6.098 16.7743 3.776 21.6883 3.776H22.2463C27.1963 3.776 27.5023 5.81 27.5023 7.142V10.436C27.5023 11.066 27.6283 11.318 28.3303 11.318H28.7083V14H25.8643C24.8203 14 24.3343 13.262 24.1903 12.614ZM39.89 9.014V8.96C39.89 7.88 39.386 6.422 37.19 6.422H37.01C34.904 6.422 34.238 7.808 34.238 8.96V9.014C34.238 10.112 34.904 11.552 37.01 11.552H37.19C39.386 11.552 39.89 10.04 39.89 9.014ZM30.746 17.438V4.01H34.22V5.288C34.652 4.82 35.966 3.812 38.234 3.812H38.468C42.284 3.812 43.526 6.422 43.526 8.798V9.104C43.526 11.282 42.248 14.198 38.45 14.198H38.198C35.912 14.198 34.688 13.154 34.256 12.722V17.438H30.746ZM54.3918 7.952L49.5678 14H45.9678V4.01H49.4778V10.058L54.3018 4.01H57.9018V14H54.3918V7.952ZM64.3313 14H60.8213V4.01H64.3313V7.646H69.2273V4.01H72.7373V14H69.2273V10.31H64.3313V14ZM80.3732 12.002C82.4252 12.002 83.1272 10.706 83.1272 9.95V9.176C82.8212 9.302 81.9392 9.482 80.9312 9.644C79.2392 9.932 78.6992 10.166 78.6992 10.868V10.904C78.6992 11.534 79.1492 12.002 80.3732 12.002ZM83.2352 12.614C82.8032 13.136 81.7232 14.198 79.3832 14.198H79.0952C76.3052 14.198 75.1532 12.686 75.1532 11.03V10.958C75.1532 9.23 76.2512 8.168 79.6352 7.88L82.3712 7.646C82.9292 7.592 83.1272 7.412 83.1272 6.998C83.1272 6.53 82.9832 6.026 81.0392 6.026C79.2032 6.026 79.0232 6.746 79.0232 7.124H75.4232V7.088C75.4232 6.098 75.8192 3.776 80.7332 3.776H81.2912C86.2412 3.776 86.5472 5.81 86.5472 7.142V10.436C86.5472 11.066 86.6732 11.318 87.3752 11.318H87.7532V14H84.9092C83.8652 14 83.3792 13.262 83.2352 12.614ZM0.656 38V24.608H5.588L9.854 33.68L14.246 24.608H18.872V38H15.254V29.234L11.186 38H8.288L4.22 29.234V38H0.656ZM30.4152 31.952L25.5912 38H21.9912V28.01H25.5012V34.058L30.3252 28.01H33.9252V38H30.4152V31.952ZM44.8367 38L42.1547 35.138L39.5447 38H35.5667L40.0487 32.996L35.4227 28.01H39.7247L42.2807 30.8L44.7467 28.01H48.6167L44.3147 32.924L48.8867 38H44.8367ZM55.008 36.002C57.06 36.002 57.762 34.706 57.762 33.95V33.176C57.456 33.302 56.574 33.482 55.566 33.644C53.874 33.932 53.334 34.166 53.334 34.868V34.904C53.334 35.534 53.784 36.002 55.008 36.002ZM57.87 36.614C57.438 37.136 56.358 38.198 54.018 38.198H53.73C50.94 38.198 49.788 36.686 49.788 35.03V34.958C49.788 33.23 50.886 32.168 54.27 31.88L57.006 31.646C57.564 31.592 57.762 31.412 57.762 30.998C57.762 30.53 57.618 30.026 55.674 30.026C53.838 30.026 53.658 30.746 53.658 31.124H50.058V31.088C50.058 30.098 50.454 27.776 55.368 27.776H55.926C60.876 27.776 61.182 29.81 61.182 31.142V34.436C61.182 35.066 61.308 35.318 62.01 35.318H62.388V38H59.544C58.5 38 58.014 37.262 57.87 36.614ZM72.8136 31.952L67.9896 38H64.3896V28.01H67.8996V34.058L72.7236 28.01H76.3236V38H72.8136V31.952ZM70.5816 26.984H70.0416C67.1796 26.984 66.6756 25.04 66.6756 24.104V24.05H69.3216C69.3216 24.284 69.4296 25.004 70.3296 25.004C71.1756 25.004 71.3016 24.284 71.3016 24.05H73.9116V24.104C73.9116 25.04 73.1916 26.984 70.5816 26.984ZM87.4332 38V30.674H83.4732C83.4732 33.356 83.3832 34.85 83.0412 35.768C82.6632 36.776 82.1592 38 79.5132 38H78.4152V35.39H78.6312C79.2612 35.39 79.7292 35.174 79.9272 34.256C80.0712 33.482 80.1252 32.636 80.1252 28.01H90.9432V38H87.4332ZM100.115 38.27H99.5566C94.1746 38.27 93.3466 34.994 93.3466 33.176V32.924C93.3466 31.124 94.1746 27.74 99.5386 27.74H100.133C105.677 27.74 106.325 31.142 106.325 32.906V33.194C106.325 34.994 105.677 38.27 100.115 38.27ZM99.7366 35.642H99.9346C102.149 35.642 102.707 34.058 102.707 32.96C102.707 31.826 102.149 30.314 99.9346 30.314H99.7366C97.4326 30.314 96.9646 31.826 96.9646 32.96C96.9646 34.058 97.4326 35.642 99.7366 35.642ZM116.983 38H108.739V28.01H116.623C118.909 28.01 120.349 28.82 120.349 30.404V30.494C120.349 31.736 119.557 32.474 118.351 32.672C119.575 32.816 120.673 33.68 120.673 35.12V35.192C120.673 37.01 119.485 38 116.983 38ZM112.249 31.988H115.471C116.317 31.988 116.749 31.664 116.749 31.034V30.944C116.749 30.368 116.353 30.026 115.471 30.026H112.249V31.988ZM112.249 35.984H115.615C116.551 35.984 117.073 35.678 117.073 34.976V34.832C117.073 34.202 116.641 33.806 115.615 33.806H112.249V35.984ZM126.628 38H123.118V28.01H126.628V31.646H131.524V28.01H135.034V38H131.524V34.31H126.628V38ZM142.67 36.002C144.722 36.002 145.424 34.706 145.424 33.95V33.176C145.118 33.302 144.236 33.482 143.228 33.644C141.536 33.932 140.996 34.166 140.996 34.868V34.904C140.996 35.534 141.446 36.002 142.67 36.002ZM145.532 36.614C145.1 37.136 144.02 38.198 141.68 38.198H141.392C138.602 38.198 137.45 36.686 137.45 35.03V34.958C137.45 33.23 138.548 32.168 141.932 31.88L144.668 31.646C145.226 31.592 145.424 31.412 145.424 30.998C145.424 30.53 145.28 30.026 143.336 30.026C141.5 30.026 141.32 30.746 141.32 31.124H137.72V31.088C137.72 30.098 138.116 27.776 143.03 27.776H143.588C148.538 27.776 148.844 29.81 148.844 31.142V34.436C148.844 35.066 148.97 35.318 149.672 35.318H150.05V38H147.206C146.162 38 145.676 37.262 145.532 36.614ZM8.108 48.392H8.9C15.164 48.392 16.946 52.064 16.946 54.998V55.538C16.946 58.418 15.164 62.216 8.9 62.216H8.108C1.844 62.216 0.0620001 58.418 0.0620001 55.538V54.998C0.0620001 52.082 1.844 48.392 8.108 48.392ZM13.094 55.394V55.142C13.094 53.486 12.284 51.452 8.504 51.452C4.76 51.452 3.914 53.486 3.914 55.142V55.394C3.914 57.014 4.814 59.138 8.504 59.138C12.266 59.138 13.094 57.014 13.094 55.394ZM28.64 57.014V56.96C28.64 55.88 28.136 54.422 25.94 54.422H25.76C23.654 54.422 22.988 55.808 22.988 56.96V57.014C22.988 58.112 23.654 59.552 25.76 59.552H25.94C28.136 59.552 28.64 58.04 28.64 57.014ZM19.496 65.438V52.01H22.97V53.288C23.402 52.82 24.716 51.812 26.984 51.812H27.218C31.034 51.812 32.276 54.422 32.276 56.798V57.104C32.276 59.282 30.998 62.198 27.2 62.198H26.948C24.662 62.198 23.438 61.154 23.006 60.722V65.438H19.496ZM42.732 62V54.674H38.772C38.772 57.356 38.682 58.85 38.34 59.768C37.962 60.776 37.458 62 34.812 62H33.714V59.39H33.93C34.56 59.39 35.028 59.174 35.226 58.256C35.37 57.482 35.424 56.636 35.424 52.01H46.242V62H42.732ZM57.5734 55.952L52.7494 62H49.1494V52.01H52.6594V58.058L57.4834 52.01H61.0834V62H57.5734V55.952ZM71.4189 52.01H74.9289V62H71.4189V58.562C70.6449 58.652 69.7449 58.742 68.8089 58.742C64.8489 58.742 63.3549 57.626 63.3549 54.458V52.01H66.8649V53.81C66.8649 55.682 67.4949 56.006 69.3489 56.006C70.0509 56.006 70.8609 55.952 71.4189 55.88V52.01ZM83.6509 54.08C81.8329 54.08 81.1489 54.818 80.9689 55.862H86.2609C86.2609 55.124 85.9009 54.08 83.6509 54.08ZM86.3329 58.886H89.9869C89.9869 59.714 89.3389 62.234 84.1729 62.234H83.5069C78.5749 62.234 77.3509 59.534 77.3509 57.14V56.888C77.3509 54.638 78.4669 51.794 83.2009 51.794H83.9929C89.1049 51.794 90.0229 54.638 90.0229 57.428V57.752H80.9329C81.0769 58.904 81.8149 59.84 83.9569 59.84C85.9909 59.84 86.2429 59.048 86.3329 58.886ZM95.9368 62H92.4268V52.01H95.9368V55.646H100.833V52.01H104.343V62H100.833V58.31H95.9368V62ZM114.697 62L110.809 57.374V62H107.299V52.01H110.809V56.006L114.373 52.01H118.423L114.247 56.492L118.873 62H114.697ZM126.13 62.27H125.572C120.19 62.27 119.362 58.994 119.362 57.176V56.924C119.362 55.124 120.19 51.74 125.554 51.74H126.148C131.692 51.74 132.34 55.142 132.34 56.906V57.194C132.34 58.994 131.692 62.27 126.13 62.27ZM125.752 59.642H125.95C128.164 59.642 128.722 58.058 128.722 56.96C128.722 55.826 128.164 54.314 125.95 54.314H125.752C123.448 54.314 122.98 55.826 122.98 56.96C122.98 58.058 123.448 59.642 125.752 59.642Z" fill="url(#paint1_radial_2017_857)" style="mix-blend-mode:overlay"/>
<path d="M10.808 14L4.364 7.7V14H0.656V0.608H4.364V6.116L10.628 0.608H15.344L8.288 6.746L15.65 14H10.808ZM21.3283 12.002C23.3803 12.002 24.0823 10.706 24.0823 9.95V9.176C23.7763 9.302 22.8943 9.482 21.8863 9.644C20.1943 9.932 19.6543 10.166 19.6543 10.868V10.904C19.6543 11.534 20.1043 12.002 21.3283 12.002ZM24.1903 12.614C23.7583 13.136 22.6783 14.198 20.3383 14.198H20.0503C17.2603 14.198 16.1083 12.686 16.1083 11.03V10.958C16.1083 9.23 17.2063 8.168 20.5903 7.88L23.3263 7.646C23.8843 7.592 24.0823 7.412 24.0823 6.998C24.0823 6.53 23.9383 6.026 21.9943 6.026C20.1583 6.026 19.9783 6.746 19.9783 7.124H16.3783V7.088C16.3783 6.098 16.7743 3.776 21.6883 3.776H22.2463C27.1963 3.776 27.5023 5.81 27.5023 7.142V10.436C27.5023 11.066 27.6283 11.318 28.3303 11.318H28.7083V14H25.8643C24.8203 14 24.3343 13.262 24.1903 12.614ZM39.89 9.014V8.96C39.89 7.88 39.386 6.422 37.19 6.422H37.01C34.904 6.422 34.238 7.808 34.238 8.96V9.014C34.238 10.112 34.904 11.552 37.01 11.552H37.19C39.386 11.552 39.89 10.04 39.89 9.014ZM30.746 17.438V4.01H34.22V5.288C34.652 4.82 35.966 3.812 38.234 3.812H38.468C42.284 3.812 43.526 6.422 43.526 8.798V9.104C43.526 11.282 42.248 14.198 38.45 14.198H38.198C35.912 14.198 34.688 13.154 34.256 12.722V17.438H30.746ZM54.3918 7.952L49.5678 14H45.9678V4.01H49.4778V10.058L54.3018 4.01H57.9018V14H54.3918V7.952ZM64.3313 14H60.8213V4.01H64.3313V7.646H69.2273V4.01H72.7373V14H69.2273V10.31H64.3313V14ZM80.3732 12.002C82.4252 12.002 83.1272 10.706 83.1272 9.95V9.176C82.8212 9.302 81.9392 9.482 80.9312 9.644C79.2392 9.932 78.6992 10.166 78.6992 10.868V10.904C78.6992 11.534 79.1492 12.002 80.3732 12.002ZM83.2352 12.614C82.8032 13.136 81.7232 14.198 79.3832 14.198H79.0952C76.3052 14.198 75.1532 12.686 75.1532 11.03V10.958C75.1532 9.23 76.2512 8.168 79.6352 7.88L82.3712 7.646C82.9292 7.592 83.1272 7.412 83.1272 6.998C83.1272 6.53 82.9832 6.026 81.0392 6.026C79.2032 6.026 79.0232 6.746 79.0232 7.124H75.4232V7.088C75.4232 6.098 75.8192 3.776 80.7332 3.776H81.2912C86.2412 3.776 86.5472 5.81 86.5472 7.142V10.436C86.5472 11.066 86.6732 11.318 87.3752 11.318H87.7532V14H84.9092C83.8652 14 83.3792 13.262 83.2352 12.614ZM0.656 38V24.608H5.588L9.854 33.68L14.246 24.608H18.872V38H15.254V29.234L11.186 38H8.288L4.22 29.234V38H0.656ZM30.4152 31.952L25.5912 38H21.9912V28.01H25.5012V34.058L30.3252 28.01H33.9252V38H30.4152V31.952ZM44.8367 38L42.1547 35.138L39.5447 38H35.5667L40.0487 32.996L35.4227 28.01H39.7247L42.2807 30.8L44.7467 28.01H48.6167L44.3147 32.924L48.8867 38H44.8367ZM55.008 36.002C57.06 36.002 57.762 34.706 57.762 33.95V33.176C57.456 33.302 56.574 33.482 55.566 33.644C53.874 33.932 53.334 34.166 53.334 34.868V34.904C53.334 35.534 53.784 36.002 55.008 36.002ZM57.87 36.614C57.438 37.136 56.358 38.198 54.018 38.198H53.73C50.94 38.198 49.788 36.686 49.788 35.03V34.958C49.788 33.23 50.886 32.168 54.27 31.88L57.006 31.646C57.564 31.592 57.762 31.412 57.762 30.998C57.762 30.53 57.618 30.026 55.674 30.026C53.838 30.026 53.658 30.746 53.658 31.124H50.058V31.088C50.058 30.098 50.454 27.776 55.368 27.776H55.926C60.876 27.776 61.182 29.81 61.182 31.142V34.436C61.182 35.066 61.308 35.318 62.01 35.318H62.388V38H59.544C58.5 38 58.014 37.262 57.87 36.614ZM72.8136 31.952L67.9896 38H64.3896V28.01H67.8996V34.058L72.7236 28.01H76.3236V38H72.8136V31.952ZM70.5816 26.984H70.0416C67.1796 26.984 66.6756 25.04 66.6756 24.104V24.05H69.3216C69.3216 24.284 69.4296 25.004 70.3296 25.004C71.1756 25.004 71.3016 24.284 71.3016 24.05H73.9116V24.104C73.9116 25.04 73.1916 26.984 70.5816 26.984ZM87.4332 38V30.674H83.4732C83.4732 33.356 83.3832 34.85 83.0412 35.768C82.6632 36.776 82.1592 38 79.5132 38H78.4152V35.39H78.6312C79.2612 35.39 79.7292 35.174 79.9272 34.256C80.0712 33.482 80.1252 32.636 80.1252 28.01H90.9432V38H87.4332ZM100.115 38.27H99.5566C94.1746 38.27 93.3466 34.994 93.3466 33.176V32.924C93.3466 31.124 94.1746 27.74 99.5386 27.74H100.133C105.677 27.74 106.325 31.142 106.325 32.906V33.194C106.325 34.994 105.677 38.27 100.115 38.27ZM99.7366 35.642H99.9346C102.149 35.642 102.707 34.058 102.707 32.96C102.707 31.826 102.149 30.314 99.9346 30.314H99.7366C97.4326 30.314 96.9646 31.826 96.9646 32.96C96.9646 34.058 97.4326 35.642 99.7366 35.642ZM116.983 38H108.739V28.01H116.623C118.909 28.01 120.349 28.82 120.349 30.404V30.494C120.349 31.736 119.557 32.474 118.351 32.672C119.575 32.816 120.673 33.68 120.673 35.12V35.192C120.673 37.01 119.485 38 116.983 38ZM112.249 31.988H115.471C116.317 31.988 116.749 31.664 116.749 31.034V30.944C116.749 30.368 116.353 30.026 115.471 30.026H112.249V31.988ZM112.249 35.984H115.615C116.551 35.984 117.073 35.678 117.073 34.976V34.832C117.073 34.202 116.641 33.806 115.615 33.806H112.249V35.984ZM126.628 38H123.118V28.01H126.628V31.646H131.524V28.01H135.034V38H131.524V34.31H126.628V38ZM142.67 36.002C144.722 36.002 145.424 34.706 145.424 33.95V33.176C145.118 33.302 144.236 33.482 143.228 33.644C141.536 33.932 140.996 34.166 140.996 34.868V34.904C140.996 35.534 141.446 36.002 142.67 36.002ZM145.532 36.614C145.1 37.136 144.02 38.198 141.68 38.198H141.392C138.602 38.198 137.45 36.686 137.45 35.03V34.958C137.45 33.23 138.548 32.168 141.932 31.88L144.668 31.646C145.226 31.592 145.424 31.412 145.424 30.998C145.424 30.53 145.28 30.026 143.336 30.026C141.5 30.026 141.32 30.746 141.32 31.124H137.72V31.088C137.72 30.098 138.116 27.776 143.03 27.776H143.588C148.538 27.776 148.844 29.81 148.844 31.142V34.436C148.844 35.066 148.97 35.318 149.672 35.318H150.05V38H147.206C146.162 38 145.676 37.262 145.532 36.614ZM8.108 48.392H8.9C15.164 48.392 16.946 52.064 16.946 54.998V55.538C16.946 58.418 15.164 62.216 8.9 62.216H8.108C1.844 62.216 0.0620001 58.418 0.0620001 55.538V54.998C0.0620001 52.082 1.844 48.392 8.108 48.392ZM13.094 55.394V55.142C13.094 53.486 12.284 51.452 8.504 51.452C4.76 51.452 3.914 53.486 3.914 55.142V55.394C3.914 57.014 4.814 59.138 8.504 59.138C12.266 59.138 13.094 57.014 13.094 55.394ZM28.64 57.014V56.96C28.64 55.88 28.136 54.422 25.94 54.422H25.76C23.654 54.422 22.988 55.808 22.988 56.96V57.014C22.988 58.112 23.654 59.552 25.76 59.552H25.94C28.136 59.552 28.64 58.04 28.64 57.014ZM19.496 65.438V52.01H22.97V53.288C23.402 52.82 24.716 51.812 26.984 51.812H27.218C31.034 51.812 32.276 54.422 32.276 56.798V57.104C32.276 59.282 30.998 62.198 27.2 62.198H26.948C24.662 62.198 23.438 61.154 23.006 60.722V65.438H19.496ZM42.732 62V54.674H38.772C38.772 57.356 38.682 58.85 38.34 59.768C37.962 60.776 37.458 62 34.812 62H33.714V59.39H33.93C34.56 59.39 35.028 59.174 35.226 58.256C35.37 57.482 35.424 56.636 35.424 52.01H46.242V62H42.732ZM57.5734 55.952L52.7494 62H49.1494V52.01H52.6594V58.058L57.4834 52.01H61.0834V62H57.5734V55.952ZM71.4189 52.01H74.9289V62H71.4189V58.562C70.6449 58.652 69.7449 58.742 68.8089 58.742C64.8489 58.742 63.3549 57.626 63.3549 54.458V52.01H66.8649V53.81C66.8649 55.682 67.4949 56.006 69.3489 56.006C70.0509 56.006 70.8609 55.952 71.4189 55.88V52.01ZM83.6509 54.08C81.8329 54.08 81.1489 54.818 80.9689 55.862H86.2609C86.2609 55.124 85.9009 54.08 83.6509 54.08ZM86.3329 58.886H89.9869C89.9869 59.714 89.3389 62.234 84.1729 62.234H83.5069C78.5749 62.234 77.3509 59.534 77.3509 57.14V56.888C77.3509 54.638 78.4669 51.794 83.2009 51.794H83.9929C89.1049 51.794 90.0229 54.638 90.0229 57.428V57.752H80.9329C81.0769 58.904 81.8149 59.84 83.9569 59.84C85.9909 59.84 86.2429 59.048 86.3329 58.886ZM95.9368 62H92.4268V52.01H95.9368V55.646H100.833V52.01H104.343V62H100.833V58.31H95.9368V62ZM114.697 62L110.809 57.374V62H107.299V52.01H110.809V56.006L114.373 52.01H118.423L114.247 56.492L118.873 62H114.697ZM126.13 62.27H125.572C120.19 62.27 119.362 58.994 119.362 57.176V56.924C119.362 55.124 120.19 51.74 125.554 51.74H126.148C131.692 51.74 132.34 55.142 132.34 56.906V57.194C132.34 58.994 131.692 62.27 126.13 62.27ZM125.752 59.642H125.95C128.164 59.642 128.722 58.058 128.722 56.96C128.722 55.826 128.164 54.314 125.95 54.314H125.752C123.448 54.314 122.98 55.826 122.98 56.96C122.98 58.058 123.448 59.642 125.752 59.642Z" fill="url(#paint2_radial_2017_857)"/>
<path d="M10.808 14L4.364 7.7V14H0.656V0.608H4.364V6.116L10.628 0.608H15.344L8.288 6.746L15.65 14H10.808ZM21.3283 12.002C23.3803 12.002 24.0823 10.706 24.0823 9.95V9.176C23.7763 9.302 22.8943 9.482 21.8863 9.644C20.1943 9.932 19.6543 10.166 19.6543 10.868V10.904C19.6543 11.534 20.1043 12.002 21.3283 12.002ZM24.1903 12.614C23.7583 13.136 22.6783 14.198 20.3383 14.198H20.0503C17.2603 14.198 16.1083 12.686 16.1083 11.03V10.958C16.1083 9.23 17.2063 8.168 20.5903 7.88L23.3263 7.646C23.8843 7.592 24.0823 7.412 24.0823 6.998C24.0823 6.53 23.9383 6.026 21.9943 6.026C20.1583 6.026 19.9783 6.746 19.9783 7.124H16.3783V7.088C16.3783 6.098 16.7743 3.776 21.6883 3.776H22.2463C27.1963 3.776 27.5023 5.81 27.5023 7.142V10.436C27.5023 11.066 27.6283 11.318 28.3303 11.318H28.7083V14H25.8643C24.8203 14 24.3343 13.262 24.1903 12.614ZM39.89 9.014V8.96C39.89 7.88 39.386 6.422 37.19 6.422H37.01C34.904 6.422 34.238 7.808 34.238 8.96V9.014C34.238 10.112 34.904 11.552 37.01 11.552H37.19C39.386 11.552 39.89 10.04 39.89 9.014ZM30.746 17.438V4.01H34.22V5.288C34.652 4.82 35.966 3.812 38.234 3.812H38.468C42.284 3.812 43.526 6.422 43.526 8.798V9.104C43.526 11.282 42.248 14.198 38.45 14.198H38.198C35.912 14.198 34.688 13.154 34.256 12.722V17.438H30.746ZM54.3918 7.952L49.5678 14H45.9678V4.01H49.4778V10.058L54.3018 4.01H57.9018V14H54.3918V7.952ZM64.3313 14H60.8213V4.01H64.3313V7.646H69.2273V4.01H72.7373V14H69.2273V10.31H64.3313V14ZM80.3732 12.002C82.4252 12.002 83.1272 10.706 83.1272 9.95V9.176C82.8212 9.302 81.9392 9.482 80.9312 9.644C79.2392 9.932 78.6992 10.166 78.6992 10.868V10.904C78.6992 11.534 79.1492 12.002 80.3732 12.002ZM83.2352 12.614C82.8032 13.136 81.7232 14.198 79.3832 14.198H79.0952C76.3052 14.198 75.1532 12.686 75.1532 11.03V10.958C75.1532 9.23 76.2512 8.168 79.6352 7.88L82.3712 7.646C82.9292 7.592 83.1272 7.412 83.1272 6.998C83.1272 6.53 82.9832 6.026 81.0392 6.026C79.2032 6.026 79.0232 6.746 79.0232 7.124H75.4232V7.088C75.4232 6.098 75.8192 3.776 80.7332 3.776H81.2912C86.2412 3.776 86.5472 5.81 86.5472 7.142V10.436C86.5472 11.066 86.6732 11.318 87.3752 11.318H87.7532V14H84.9092C83.8652 14 83.3792 13.262 83.2352 12.614ZM0.656 38V24.608H5.588L9.854 33.68L14.246 24.608H18.872V38H15.254V29.234L11.186 38H8.288L4.22 29.234V38H0.656ZM30.4152 31.952L25.5912 38H21.9912V28.01H25.5012V34.058L30.3252 28.01H33.9252V38H30.4152V31.952ZM44.8367 38L42.1547 35.138L39.5447 38H35.5667L40.0487 32.996L35.4227 28.01H39.7247L42.2807 30.8L44.7467 28.01H48.6167L44.3147 32.924L48.8867 38H44.8367ZM55.008 36.002C57.06 36.002 57.762 34.706 57.762 33.95V33.176C57.456 33.302 56.574 33.482 55.566 33.644C53.874 33.932 53.334 34.166 53.334 34.868V34.904C53.334 35.534 53.784 36.002 55.008 36.002ZM57.87 36.614C57.438 37.136 56.358 38.198 54.018 38.198H53.73C50.94 38.198 49.788 36.686 49.788 35.03V34.958C49.788 33.23 50.886 32.168 54.27 31.88L57.006 31.646C57.564 31.592 57.762 31.412 57.762 30.998C57.762 30.53 57.618 30.026 55.674 30.026C53.838 30.026 53.658 30.746 53.658 31.124H50.058V31.088C50.058 30.098 50.454 27.776 55.368 27.776H55.926C60.876 27.776 61.182 29.81 61.182 31.142V34.436C61.182 35.066 61.308 35.318 62.01 35.318H62.388V38H59.544C58.5 38 58.014 37.262 57.87 36.614ZM72.8136 31.952L67.9896 38H64.3896V28.01H67.8996V34.058L72.7236 28.01H76.3236V38H72.8136V31.952ZM70.5816 26.984H70.0416C67.1796 26.984 66.6756 25.04 66.6756 24.104V24.05H69.3216C69.3216 24.284 69.4296 25.004 70.3296 25.004C71.1756 25.004 71.3016 24.284 71.3016 24.05H73.9116V24.104C73.9116 25.04 73.1916 26.984 70.5816 26.984ZM87.4332 38V30.674H83.4732C83.4732 33.356 83.3832 34.85 83.0412 35.768C82.6632 36.776 82.1592 38 79.5132 38H78.4152V35.39H78.6312C79.2612 35.39 79.7292 35.174 79.9272 34.256C80.0712 33.482 80.1252 32.636 80.1252 28.01H90.9432V38H87.4332ZM100.115 38.27H99.5566C94.1746 38.27 93.3466 34.994 93.3466 33.176V32.924C93.3466 31.124 94.1746 27.74 99.5386 27.74H100.133C105.677 27.74 106.325 31.142 106.325 32.906V33.194C106.325 34.994 105.677 38.27 100.115 38.27ZM99.7366 35.642H99.9346C102.149 35.642 102.707 34.058 102.707 32.96C102.707 31.826 102.149 30.314 99.9346 30.314H99.7366C97.4326 30.314 96.9646 31.826 96.9646 32.96C96.9646 34.058 97.4326 35.642 99.7366 35.642ZM116.983 38H108.739V28.01H116.623C118.909 28.01 120.349 28.82 120.349 30.404V30.494C120.349 31.736 119.557 32.474 118.351 32.672C119.575 32.816 120.673 33.68 120.673 35.12V35.192C120.673 37.01 119.485 38 116.983 38ZM112.249 31.988H115.471C116.317 31.988 116.749 31.664 116.749 31.034V30.944C116.749 30.368 116.353 30.026 115.471 30.026H112.249V31.988ZM112.249 35.984H115.615C116.551 35.984 117.073 35.678 117.073 34.976V34.832C117.073 34.202 116.641 33.806 115.615 33.806H112.249V35.984ZM126.628 38H123.118V28.01H126.628V31.646H131.524V28.01H135.034V38H131.524V34.31H126.628V38ZM142.67 36.002C144.722 36.002 145.424 34.706 145.424 33.95V33.176C145.118 33.302 144.236 33.482 143.228 33.644C141.536 33.932 140.996 34.166 140.996 34.868V34.904C140.996 35.534 141.446 36.002 142.67 36.002ZM145.532 36.614C145.1 37.136 144.02 38.198 141.68 38.198H141.392C138.602 38.198 137.45 36.686 137.45 35.03V34.958C137.45 33.23 138.548 32.168 141.932 31.88L144.668 31.646C145.226 31.592 145.424 31.412 145.424 30.998C145.424 30.53 145.28 30.026 143.336 30.026C141.5 30.026 141.32 30.746 141.32 31.124H137.72V31.088C137.72 30.098 138.116 27.776 143.03 27.776H143.588C148.538 27.776 148.844 29.81 148.844 31.142V34.436C148.844 35.066 148.97 35.318 149.672 35.318H150.05V38H147.206C146.162 38 145.676 37.262 145.532 36.614ZM8.108 48.392H8.9C15.164 48.392 16.946 52.064 16.946 54.998V55.538C16.946 58.418 15.164 62.216 8.9 62.216H8.108C1.844 62.216 0.0620001 58.418 0.0620001 55.538V54.998C0.0620001 52.082 1.844 48.392 8.108 48.392ZM13.094 55.394V55.142C13.094 53.486 12.284 51.452 8.504 51.452C4.76 51.452 3.914 53.486 3.914 55.142V55.394C3.914 57.014 4.814 59.138 8.504 59.138C12.266 59.138 13.094 57.014 13.094 55.394ZM28.64 57.014V56.96C28.64 55.88 28.136 54.422 25.94 54.422H25.76C23.654 54.422 22.988 55.808 22.988 56.96V57.014C22.988 58.112 23.654 59.552 25.76 59.552H25.94C28.136 59.552 28.64 58.04 28.64 57.014ZM19.496 65.438V52.01H22.97V53.288C23.402 52.82 24.716 51.812 26.984 51.812H27.218C31.034 51.812 32.276 54.422 32.276 56.798V57.104C32.276 59.282 30.998 62.198 27.2 62.198H26.948C24.662 62.198 23.438 61.154 23.006 60.722V65.438H19.496ZM42.732 62V54.674H38.772C38.772 57.356 38.682 58.85 38.34 59.768C37.962 60.776 37.458 62 34.812 62H33.714V59.39H33.93C34.56 59.39 35.028 59.174 35.226 58.256C35.37 57.482 35.424 56.636 35.424 52.01H46.242V62H42.732ZM57.5734 55.952L52.7494 62H49.1494V52.01H52.6594V58.058L57.4834 52.01H61.0834V62H57.5734V55.952ZM71.4189 52.01H74.9289V62H71.4189V58.562C70.6449 58.652 69.7449 58.742 68.8089 58.742C64.8489 58.742 63.3549 57.626 63.3549 54.458V52.01H66.8649V53.81C66.8649 55.682 67.4949 56.006 69.3489 56.006C70.0509 56.006 70.8609 55.952 71.4189 55.88V52.01ZM83.6509 54.08C81.8329 54.08 81.1489 54.818 80.9689 55.862H86.2609C86.2609 55.124 85.9009 54.08 83.6509 54.08ZM86.3329 58.886H89.9869C89.9869 59.714 89.3389 62.234 84.1729 62.234H83.5069C78.5749 62.234 77.3509 59.534 77.3509 57.14V56.888C77.3509 54.638 78.4669 51.794 83.2009 51.794H83.9929C89.1049 51.794 90.0229 54.638 90.0229 57.428V57.752H80.9329C81.0769 58.904 81.8149 59.84 83.9569 59.84C85.9909 59.84 86.2429 59.048 86.3329 58.886ZM95.9368 62H92.4268V52.01H95.9368V55.646H100.833V52.01H104.343V62H100.833V58.31H95.9368V62ZM114.697 62L110.809 57.374V62H107.299V52.01H110.809V56.006L114.373 52.01H118.423L114.247 56.492L118.873 62H114.697ZM126.13 62.27H125.572C120.19 62.27 119.362 58.994 119.362 57.176V56.924C119.362 55.124 120.19 51.74 125.554 51.74H126.148C131.692 51.74 132.34 55.142 132.34 56.906V57.194C132.34 58.994 131.692 62.27 126.13 62.27ZM125.752 59.642H125.95C128.164 59.642 128.722 58.058 128.722 56.96C128.722 55.826 128.164 54.314 125.95 54.314H125.752C123.448 54.314 122.98 55.826 122.98 56.96C122.98 58.058 123.448 59.642 125.752 59.642Z" fill="#C1A875" style="mix-blend-mode:color"/>
<defs>
<linearGradient id="paint0_linear_2017_857" x1="-0.999999" y1="30" x2="221" y2="30" gradientUnits="userSpaceOnUse">
<stop stop-color="#576167"/>
<stop offset="0.191294" stop-color="#9EA1A2"/>
<stop offset="0.396166" stop-color="#848989"/>
<stop offset="0.62055" stop-color="#576167"/>
<stop offset="0.830299" stop-color="#757A7C"/>
<stop offset="1" stop-color="#576167"/>
</linearGradient>
<radialGradient id="paint1_radial_2017_857" cx="0" cy="0" r="1" gradientUnits="userSpaceOnUse" gradientTransform="translate(117.226 2.39326) rotate(90) scale(53.4944 167.95)">
<stop stop-color="white"/>
<stop offset="1" stop-color="white" stop-opacity="0"/>
</radialGradient>
<radialGradient id="paint2_radial_2017_857" cx="0" cy="0" r="1" gradientUnits="userSpaceOnUse" gradientTransform="translate(129.783 82.9888) rotate(-89.7344) scale(76.6525 240.162)">
<stop stop-color="white"/>
<stop offset="1" stop-color="white" stop-opacity="0"/>
</radialGradient>
</defs>
</svg>
