<svg width="145" height="63" viewBox="0 0 145 63" fill="none" xmlns="http://www.w3.org/2000/svg">
<path d="M10.998 8.762L8.568 3.308L6.21 8.762H10.998ZM13.338 14L12.24 11.516H5.004L3.924 14H0.198L6.138 0.608H11.106L17.316 14H13.338ZM22.4758 14H18.9658V4.01H22.4758V7.646H27.3718V4.01H30.8818V14H27.3718V10.31H22.4758V14ZM32.9738 16.124V11.336H34.1798C34.8638 9.968 34.9718 6.998 35.0618 4.01H45.6278V11.336H47.4278V16.124H44.0978V14H36.3038V16.124H32.9738ZM37.4918 11.336H42.1178V6.674H38.2118C38.1578 7.97 37.9778 9.95 37.4918 11.336ZM58.6966 9.014V8.96C58.6966 7.88 58.1926 6.422 55.9966 6.422H55.8166C53.7106 6.422 53.0446 7.808 53.0446 8.96V9.014C53.0446 10.112 53.7106 11.552 55.8166 11.552H55.9966C58.1926 11.552 58.6966 10.04 58.6966 9.014ZM49.5526 17.438V4.01H53.0266V5.288C53.4586 4.82 54.7726 3.812 57.0406 3.812H57.2746C61.0906 3.812 62.3326 6.422 62.3326 8.798V9.104C62.3326 11.282 61.0546 14.198 57.2566 14.198H57.0046C54.7186 14.198 53.4946 13.154 53.0626 12.722V17.438H49.5526ZM70.5884 6.08C68.7704 6.08 68.0864 6.818 67.9064 7.862H73.1984C73.1984 7.124 72.8384 6.08 70.5884 6.08ZM73.2704 10.886H76.9244C76.9244 11.714 76.2764 14.234 71.1104 14.234H70.4444C65.5124 14.234 64.2884 11.534 64.2884 9.14V8.888C64.2884 6.638 65.4044 3.794 70.1384 3.794H70.9304C76.0424 3.794 76.9604 6.638 76.9604 9.428V9.752H67.8704C68.0144 10.904 68.7524 11.84 70.8944 11.84C72.9284 11.84 73.1804 11.048 73.2704 10.886ZM87.7883 7.952L82.9643 14H79.3643V4.01H82.8743V10.058L87.6983 4.01H91.2983V14H87.7883V7.952ZM85.5563 2.984H85.0163C82.1543 2.984 81.6503 1.04 81.6503 0.104V0.0499994H84.2963C84.2963 0.284 84.4043 1.004 85.3043 1.004C86.1503 1.004 86.2763 0.284 86.2763 0.0499994H88.8863V0.104C88.8863 1.04 88.1663 2.984 85.5563 2.984ZM1.656 38V24.608H11.43C15.264 24.608 16.218 26.282 16.218 27.776V27.974C16.218 29.666 14.76 30.476 13.752 30.62C15.264 30.872 16.884 31.772 16.884 33.932V34.13C16.884 35.948 15.786 38 11.484 38H1.656ZM10.89 27.398H5.364V29.792H10.89C12.024 29.792 12.348 29.252 12.348 28.622V28.586C12.348 27.938 11.988 27.398 10.89 27.398ZM11.178 32.42H5.364V35.066H11.178C12.474 35.066 12.852 34.382 12.852 33.716V33.644C12.852 32.978 12.474 32.42 11.178 32.42ZM27.7062 31.952L22.8822 38H19.2822V28.01H22.7922V34.058L27.6162 28.01H31.2162V38H27.7062V31.952ZM41.5697 38L37.6817 33.374V38H34.1717V28.01H37.6817V32.006L41.2457 28.01H45.2957L41.1197 32.492L45.7457 38H41.5697ZM50.0583 38V30.674H46.1883V28.01H57.4383V30.674H53.5683V38H50.0583ZM65.6068 38.27H65.0488C59.6668 38.27 58.8388 34.994 58.8388 33.176V32.924C58.8388 31.124 59.6668 27.74 65.0308 27.74H65.6248C71.1688 27.74 71.8168 31.142 71.8168 32.906V33.194C71.8168 34.994 71.1688 38.27 65.6068 38.27ZM65.2288 35.642H65.4268C67.6408 35.642 68.1988 34.058 68.1988 32.96C68.1988 31.826 67.6408 30.314 65.4268 30.314H65.2288C62.9248 30.314 62.4568 31.826 62.4568 32.96C62.4568 34.058 62.9248 35.642 65.2288 35.642ZM83.4114 33.014V32.96C83.4114 31.88 82.9074 30.422 80.7114 30.422H80.5314C78.4254 30.422 77.7594 31.808 77.7594 32.96V33.014C77.7594 34.112 78.4254 35.552 80.5314 35.552H80.7114C82.9074 35.552 83.4114 34.04 83.4114 33.014ZM74.2674 41.438V28.01H77.7414V29.288C78.1734 28.82 79.4874 27.812 81.7554 27.812H81.9894C85.8054 27.812 87.0474 30.422 87.0474 32.798V33.104C87.0474 35.282 85.7694 38.198 81.9714 38.198H81.7194C79.4334 38.198 78.2094 37.154 77.7774 36.722V41.438H74.2674ZM95.7533 38.27H95.1953C89.8133 38.27 88.9853 34.994 88.9853 33.176V32.924C88.9853 31.124 89.8133 27.74 95.1773 27.74H95.7713C101.315 27.74 101.963 31.142 101.963 32.906V33.194C101.963 34.994 101.315 38.27 95.7533 38.27ZM95.3753 35.642H95.5733C97.7873 35.642 98.3453 34.058 98.3453 32.96C98.3453 31.826 97.7873 30.314 95.5733 30.314H95.3753C93.0713 30.314 92.6033 31.826 92.6033 32.96C92.6033 34.058 93.0713 35.642 95.3753 35.642ZM112.622 38H104.378V28.01H112.262C114.548 28.01 115.988 28.82 115.988 30.404V30.494C115.988 31.736 115.196 32.474 113.99 32.672C115.214 32.816 116.312 33.68 116.312 35.12V35.192C116.312 37.01 115.124 38 112.622 38ZM107.888 31.988H111.11C111.956 31.988 112.388 31.664 112.388 31.034V30.944C112.388 30.368 111.992 30.026 111.11 30.026H107.888V31.988ZM107.888 35.984H111.254C112.19 35.984 112.712 35.678 112.712 34.976V34.832C112.712 34.202 112.28 33.806 111.254 33.806H107.888V35.984ZM127.181 31.952L122.357 38H118.757V28.01H122.267V34.058L127.091 28.01H130.691V38H127.181V31.952ZM141.026 28.01H144.536V38H141.026V34.562C140.252 34.652 139.352 34.742 138.416 34.742C134.456 34.742 132.962 33.626 132.962 30.458V28.01H136.472V29.81C136.472 31.682 137.102 32.006 138.956 32.006C139.658 32.006 140.468 31.952 141.026 31.88V28.01ZM1.656 62V48.608H6.588L10.854 57.68L15.246 48.608H19.872V62H16.254V53.234L12.186 62H9.288L5.22 53.234V62H1.656ZM28.8052 54.08C26.9872 54.08 26.3032 54.818 26.1232 55.862H31.4152C31.4152 55.124 31.0552 54.08 28.8052 54.08ZM31.4872 58.886H35.1412C35.1412 59.714 34.4932 62.234 29.3272 62.234H28.6612C23.7292 62.234 22.5052 59.534 22.5052 57.14V56.888C22.5052 54.638 23.6212 51.794 28.3552 51.794H29.1472C34.2592 51.794 35.1772 54.638 35.1772 57.428V57.752H26.0872C26.2312 58.904 26.9692 59.84 29.1112 59.84C31.1452 59.84 31.3972 59.048 31.4872 58.886ZM45.5953 62V54.674H41.6353C41.6353 57.356 41.5453 58.85 41.2033 59.768C40.8253 60.776 40.3213 62 37.6753 62H36.5773V59.39H36.7933C37.4233 59.39 37.8913 59.174 38.0893 58.256C38.2333 57.482 38.2873 56.636 38.2873 52.01H49.1053V62H45.5953ZM52.0127 62V52.01H55.5227V54.872H58.2587C61.6787 54.872 63.0107 56.384 63.0107 58.292V58.508C63.0107 60.596 61.6787 62 58.2587 62H52.0127ZM55.5227 59.624H57.8267C58.5467 59.624 59.4107 59.408 59.4107 58.436V58.382C59.4107 57.482 58.5467 57.248 57.8267 57.248H55.5227V59.624ZM68.6008 62H65.0908V52.01H68.6008V55.646H73.4968V52.01H77.0068V62H73.4968V58.31H68.6008V62ZM88.3508 55.952L83.5268 62H79.9268V52.01H83.4368V58.058L88.2608 52.01H91.8608V62H88.3508V55.952ZM102.214 62L98.3263 57.374V62H94.8163V52.01H98.3263V56.006L101.89 52.01H105.94L101.764 56.492L106.39 62H102.214ZM113.648 62.27H113.09C107.708 62.27 106.88 58.994 106.88 57.176V56.924C106.88 55.124 107.708 51.74 113.072 51.74H113.666C119.21 51.74 119.858 55.142 119.858 56.906V57.194C119.858 58.994 119.21 62.27 113.648 62.27ZM113.27 59.642H113.468C115.682 59.642 116.24 58.058 116.24 56.96C116.24 55.826 115.682 54.314 113.468 54.314H113.27C110.966 54.314 110.498 55.826 110.498 56.96C110.498 58.058 110.966 59.642 113.27 59.642ZM130.516 62H122.272V52.01H130.156C132.442 52.01 133.882 52.82 133.882 54.404V54.494C133.882 55.736 133.09 56.474 131.884 56.672C133.108 56.816 134.206 57.68 134.206 59.12V59.192C134.206 61.01 133.018 62 130.516 62ZM125.782 55.988H129.004C129.85 55.988 130.282 55.664 130.282 55.034V54.944C130.282 54.368 129.886 54.026 129.004 54.026H125.782V55.988ZM125.782 59.984H129.148C130.084 59.984 130.606 59.678 130.606 58.976V58.832C130.606 58.202 130.174 57.806 129.148 57.806H125.782V59.984Z" fill="url(#paint0_linear_2017_829)"/>
<path d="M10.998 8.762L8.568 3.308L6.21 8.762H10.998ZM13.338 14L12.24 11.516H5.004L3.924 14H0.198L6.138 0.608H11.106L17.316 14H13.338ZM22.4758 14H18.9658V4.01H22.4758V7.646H27.3718V4.01H30.8818V14H27.3718V10.31H22.4758V14ZM32.9738 16.124V11.336H34.1798C34.8638 9.968 34.9718 6.998 35.0618 4.01H45.6278V11.336H47.4278V16.124H44.0978V14H36.3038V16.124H32.9738ZM37.4918 11.336H42.1178V6.674H38.2118C38.1578 7.97 37.9778 9.95 37.4918 11.336ZM58.6966 9.014V8.96C58.6966 7.88 58.1926 6.422 55.9966 6.422H55.8166C53.7106 6.422 53.0446 7.808 53.0446 8.96V9.014C53.0446 10.112 53.7106 11.552 55.8166 11.552H55.9966C58.1926 11.552 58.6966 10.04 58.6966 9.014ZM49.5526 17.438V4.01H53.0266V5.288C53.4586 4.82 54.7726 3.812 57.0406 3.812H57.2746C61.0906 3.812 62.3326 6.422 62.3326 8.798V9.104C62.3326 11.282 61.0546 14.198 57.2566 14.198H57.0046C54.7186 14.198 53.4946 13.154 53.0626 12.722V17.438H49.5526ZM70.5884 6.08C68.7704 6.08 68.0864 6.818 67.9064 7.862H73.1984C73.1984 7.124 72.8384 6.08 70.5884 6.08ZM73.2704 10.886H76.9244C76.9244 11.714 76.2764 14.234 71.1104 14.234H70.4444C65.5124 14.234 64.2884 11.534 64.2884 9.14V8.888C64.2884 6.638 65.4044 3.794 70.1384 3.794H70.9304C76.0424 3.794 76.9604 6.638 76.9604 9.428V9.752H67.8704C68.0144 10.904 68.7524 11.84 70.8944 11.84C72.9284 11.84 73.1804 11.048 73.2704 10.886ZM87.7883 7.952L82.9643 14H79.3643V4.01H82.8743V10.058L87.6983 4.01H91.2983V14H87.7883V7.952ZM85.5563 2.984H85.0163C82.1543 2.984 81.6503 1.04 81.6503 0.104V0.0499994H84.2963C84.2963 0.284 84.4043 1.004 85.3043 1.004C86.1503 1.004 86.2763 0.284 86.2763 0.0499994H88.8863V0.104C88.8863 1.04 88.1663 2.984 85.5563 2.984ZM1.656 38V24.608H11.43C15.264 24.608 16.218 26.282 16.218 27.776V27.974C16.218 29.666 14.76 30.476 13.752 30.62C15.264 30.872 16.884 31.772 16.884 33.932V34.13C16.884 35.948 15.786 38 11.484 38H1.656ZM10.89 27.398H5.364V29.792H10.89C12.024 29.792 12.348 29.252 12.348 28.622V28.586C12.348 27.938 11.988 27.398 10.89 27.398ZM11.178 32.42H5.364V35.066H11.178C12.474 35.066 12.852 34.382 12.852 33.716V33.644C12.852 32.978 12.474 32.42 11.178 32.42ZM27.7062 31.952L22.8822 38H19.2822V28.01H22.7922V34.058L27.6162 28.01H31.2162V38H27.7062V31.952ZM41.5697 38L37.6817 33.374V38H34.1717V28.01H37.6817V32.006L41.2457 28.01H45.2957L41.1197 32.492L45.7457 38H41.5697ZM50.0583 38V30.674H46.1883V28.01H57.4383V30.674H53.5683V38H50.0583ZM65.6068 38.27H65.0488C59.6668 38.27 58.8388 34.994 58.8388 33.176V32.924C58.8388 31.124 59.6668 27.74 65.0308 27.74H65.6248C71.1688 27.74 71.8168 31.142 71.8168 32.906V33.194C71.8168 34.994 71.1688 38.27 65.6068 38.27ZM65.2288 35.642H65.4268C67.6408 35.642 68.1988 34.058 68.1988 32.96C68.1988 31.826 67.6408 30.314 65.4268 30.314H65.2288C62.9248 30.314 62.4568 31.826 62.4568 32.96C62.4568 34.058 62.9248 35.642 65.2288 35.642ZM83.4114 33.014V32.96C83.4114 31.88 82.9074 30.422 80.7114 30.422H80.5314C78.4254 30.422 77.7594 31.808 77.7594 32.96V33.014C77.7594 34.112 78.4254 35.552 80.5314 35.552H80.7114C82.9074 35.552 83.4114 34.04 83.4114 33.014ZM74.2674 41.438V28.01H77.7414V29.288C78.1734 28.82 79.4874 27.812 81.7554 27.812H81.9894C85.8054 27.812 87.0474 30.422 87.0474 32.798V33.104C87.0474 35.282 85.7694 38.198 81.9714 38.198H81.7194C79.4334 38.198 78.2094 37.154 77.7774 36.722V41.438H74.2674ZM95.7533 38.27H95.1953C89.8133 38.27 88.9853 34.994 88.9853 33.176V32.924C88.9853 31.124 89.8133 27.74 95.1773 27.74H95.7713C101.315 27.74 101.963 31.142 101.963 32.906V33.194C101.963 34.994 101.315 38.27 95.7533 38.27ZM95.3753 35.642H95.5733C97.7873 35.642 98.3453 34.058 98.3453 32.96C98.3453 31.826 97.7873 30.314 95.5733 30.314H95.3753C93.0713 30.314 92.6033 31.826 92.6033 32.96C92.6033 34.058 93.0713 35.642 95.3753 35.642ZM112.622 38H104.378V28.01H112.262C114.548 28.01 115.988 28.82 115.988 30.404V30.494C115.988 31.736 115.196 32.474 113.99 32.672C115.214 32.816 116.312 33.68 116.312 35.12V35.192C116.312 37.01 115.124 38 112.622 38ZM107.888 31.988H111.11C111.956 31.988 112.388 31.664 112.388 31.034V30.944C112.388 30.368 111.992 30.026 111.11 30.026H107.888V31.988ZM107.888 35.984H111.254C112.19 35.984 112.712 35.678 112.712 34.976V34.832C112.712 34.202 112.28 33.806 111.254 33.806H107.888V35.984ZM127.181 31.952L122.357 38H118.757V28.01H122.267V34.058L127.091 28.01H130.691V38H127.181V31.952ZM141.026 28.01H144.536V38H141.026V34.562C140.252 34.652 139.352 34.742 138.416 34.742C134.456 34.742 132.962 33.626 132.962 30.458V28.01H136.472V29.81C136.472 31.682 137.102 32.006 138.956 32.006C139.658 32.006 140.468 31.952 141.026 31.88V28.01ZM1.656 62V48.608H6.588L10.854 57.68L15.246 48.608H19.872V62H16.254V53.234L12.186 62H9.288L5.22 53.234V62H1.656ZM28.8052 54.08C26.9872 54.08 26.3032 54.818 26.1232 55.862H31.4152C31.4152 55.124 31.0552 54.08 28.8052 54.08ZM31.4872 58.886H35.1412C35.1412 59.714 34.4932 62.234 29.3272 62.234H28.6612C23.7292 62.234 22.5052 59.534 22.5052 57.14V56.888C22.5052 54.638 23.6212 51.794 28.3552 51.794H29.1472C34.2592 51.794 35.1772 54.638 35.1772 57.428V57.752H26.0872C26.2312 58.904 26.9692 59.84 29.1112 59.84C31.1452 59.84 31.3972 59.048 31.4872 58.886ZM45.5953 62V54.674H41.6353C41.6353 57.356 41.5453 58.85 41.2033 59.768C40.8253 60.776 40.3213 62 37.6753 62H36.5773V59.39H36.7933C37.4233 59.39 37.8913 59.174 38.0893 58.256C38.2333 57.482 38.2873 56.636 38.2873 52.01H49.1053V62H45.5953ZM52.0127 62V52.01H55.5227V54.872H58.2587C61.6787 54.872 63.0107 56.384 63.0107 58.292V58.508C63.0107 60.596 61.6787 62 58.2587 62H52.0127ZM55.5227 59.624H57.8267C58.5467 59.624 59.4107 59.408 59.4107 58.436V58.382C59.4107 57.482 58.5467 57.248 57.8267 57.248H55.5227V59.624ZM68.6008 62H65.0908V52.01H68.6008V55.646H73.4968V52.01H77.0068V62H73.4968V58.31H68.6008V62ZM88.3508 55.952L83.5268 62H79.9268V52.01H83.4368V58.058L88.2608 52.01H91.8608V62H88.3508V55.952ZM102.214 62L98.3263 57.374V62H94.8163V52.01H98.3263V56.006L101.89 52.01H105.94L101.764 56.492L106.39 62H102.214ZM113.648 62.27H113.09C107.708 62.27 106.88 58.994 106.88 57.176V56.924C106.88 55.124 107.708 51.74 113.072 51.74H113.666C119.21 51.74 119.858 55.142 119.858 56.906V57.194C119.858 58.994 119.21 62.27 113.648 62.27ZM113.27 59.642H113.468C115.682 59.642 116.24 58.058 116.24 56.96C116.24 55.826 115.682 54.314 113.468 54.314H113.27C110.966 54.314 110.498 55.826 110.498 56.96C110.498 58.058 110.966 59.642 113.27 59.642ZM130.516 62H122.272V52.01H130.156C132.442 52.01 133.882 52.82 133.882 54.404V54.494C133.882 55.736 133.09 56.474 131.884 56.672C133.108 56.816 134.206 57.68 134.206 59.12V59.192C134.206 61.01 133.018 62 130.516 62ZM125.782 55.988H129.004C129.85 55.988 130.282 55.664 130.282 55.034V54.944C130.282 54.368 129.886 54.026 129.004 54.026H125.782V55.988ZM125.782 59.984H129.148C130.084 59.984 130.606 59.678 130.606 58.976V58.832C130.606 58.202 130.174 57.806 129.148 57.806H125.782V59.984Z" fill="url(#paint1_radial_2017_829)" style="mix-blend-mode:overlay"/>
<path d="M10.998 8.762L8.568 3.308L6.21 8.762H10.998ZM13.338 14L12.24 11.516H5.004L3.924 14H0.198L6.138 0.608H11.106L17.316 14H13.338ZM22.4758 14H18.9658V4.01H22.4758V7.646H27.3718V4.01H30.8818V14H27.3718V10.31H22.4758V14ZM32.9738 16.124V11.336H34.1798C34.8638 9.968 34.9718 6.998 35.0618 4.01H45.6278V11.336H47.4278V16.124H44.0978V14H36.3038V16.124H32.9738ZM37.4918 11.336H42.1178V6.674H38.2118C38.1578 7.97 37.9778 9.95 37.4918 11.336ZM58.6966 9.014V8.96C58.6966 7.88 58.1926 6.422 55.9966 6.422H55.8166C53.7106 6.422 53.0446 7.808 53.0446 8.96V9.014C53.0446 10.112 53.7106 11.552 55.8166 11.552H55.9966C58.1926 11.552 58.6966 10.04 58.6966 9.014ZM49.5526 17.438V4.01H53.0266V5.288C53.4586 4.82 54.7726 3.812 57.0406 3.812H57.2746C61.0906 3.812 62.3326 6.422 62.3326 8.798V9.104C62.3326 11.282 61.0546 14.198 57.2566 14.198H57.0046C54.7186 14.198 53.4946 13.154 53.0626 12.722V17.438H49.5526ZM70.5884 6.08C68.7704 6.08 68.0864 6.818 67.9064 7.862H73.1984C73.1984 7.124 72.8384 6.08 70.5884 6.08ZM73.2704 10.886H76.9244C76.9244 11.714 76.2764 14.234 71.1104 14.234H70.4444C65.5124 14.234 64.2884 11.534 64.2884 9.14V8.888C64.2884 6.638 65.4044 3.794 70.1384 3.794H70.9304C76.0424 3.794 76.9604 6.638 76.9604 9.428V9.752H67.8704C68.0144 10.904 68.7524 11.84 70.8944 11.84C72.9284 11.84 73.1804 11.048 73.2704 10.886ZM87.7883 7.952L82.9643 14H79.3643V4.01H82.8743V10.058L87.6983 4.01H91.2983V14H87.7883V7.952ZM85.5563 2.984H85.0163C82.1543 2.984 81.6503 1.04 81.6503 0.104V0.0499994H84.2963C84.2963 0.284 84.4043 1.004 85.3043 1.004C86.1503 1.004 86.2763 0.284 86.2763 0.0499994H88.8863V0.104C88.8863 1.04 88.1663 2.984 85.5563 2.984ZM1.656 38V24.608H11.43C15.264 24.608 16.218 26.282 16.218 27.776V27.974C16.218 29.666 14.76 30.476 13.752 30.62C15.264 30.872 16.884 31.772 16.884 33.932V34.13C16.884 35.948 15.786 38 11.484 38H1.656ZM10.89 27.398H5.364V29.792H10.89C12.024 29.792 12.348 29.252 12.348 28.622V28.586C12.348 27.938 11.988 27.398 10.89 27.398ZM11.178 32.42H5.364V35.066H11.178C12.474 35.066 12.852 34.382 12.852 33.716V33.644C12.852 32.978 12.474 32.42 11.178 32.42ZM27.7062 31.952L22.8822 38H19.2822V28.01H22.7922V34.058L27.6162 28.01H31.2162V38H27.7062V31.952ZM41.5697 38L37.6817 33.374V38H34.1717V28.01H37.6817V32.006L41.2457 28.01H45.2957L41.1197 32.492L45.7457 38H41.5697ZM50.0583 38V30.674H46.1883V28.01H57.4383V30.674H53.5683V38H50.0583ZM65.6068 38.27H65.0488C59.6668 38.27 58.8388 34.994 58.8388 33.176V32.924C58.8388 31.124 59.6668 27.74 65.0308 27.74H65.6248C71.1688 27.74 71.8168 31.142 71.8168 32.906V33.194C71.8168 34.994 71.1688 38.27 65.6068 38.27ZM65.2288 35.642H65.4268C67.6408 35.642 68.1988 34.058 68.1988 32.96C68.1988 31.826 67.6408 30.314 65.4268 30.314H65.2288C62.9248 30.314 62.4568 31.826 62.4568 32.96C62.4568 34.058 62.9248 35.642 65.2288 35.642ZM83.4114 33.014V32.96C83.4114 31.88 82.9074 30.422 80.7114 30.422H80.5314C78.4254 30.422 77.7594 31.808 77.7594 32.96V33.014C77.7594 34.112 78.4254 35.552 80.5314 35.552H80.7114C82.9074 35.552 83.4114 34.04 83.4114 33.014ZM74.2674 41.438V28.01H77.7414V29.288C78.1734 28.82 79.4874 27.812 81.7554 27.812H81.9894C85.8054 27.812 87.0474 30.422 87.0474 32.798V33.104C87.0474 35.282 85.7694 38.198 81.9714 38.198H81.7194C79.4334 38.198 78.2094 37.154 77.7774 36.722V41.438H74.2674ZM95.7533 38.27H95.1953C89.8133 38.27 88.9853 34.994 88.9853 33.176V32.924C88.9853 31.124 89.8133 27.74 95.1773 27.74H95.7713C101.315 27.74 101.963 31.142 101.963 32.906V33.194C101.963 34.994 101.315 38.27 95.7533 38.27ZM95.3753 35.642H95.5733C97.7873 35.642 98.3453 34.058 98.3453 32.96C98.3453 31.826 97.7873 30.314 95.5733 30.314H95.3753C93.0713 30.314 92.6033 31.826 92.6033 32.96C92.6033 34.058 93.0713 35.642 95.3753 35.642ZM112.622 38H104.378V28.01H112.262C114.548 28.01 115.988 28.82 115.988 30.404V30.494C115.988 31.736 115.196 32.474 113.99 32.672C115.214 32.816 116.312 33.68 116.312 35.12V35.192C116.312 37.01 115.124 38 112.622 38ZM107.888 31.988H111.11C111.956 31.988 112.388 31.664 112.388 31.034V30.944C112.388 30.368 111.992 30.026 111.11 30.026H107.888V31.988ZM107.888 35.984H111.254C112.19 35.984 112.712 35.678 112.712 34.976V34.832C112.712 34.202 112.28 33.806 111.254 33.806H107.888V35.984ZM127.181 31.952L122.357 38H118.757V28.01H122.267V34.058L127.091 28.01H130.691V38H127.181V31.952ZM141.026 28.01H144.536V38H141.026V34.562C140.252 34.652 139.352 34.742 138.416 34.742C134.456 34.742 132.962 33.626 132.962 30.458V28.01H136.472V29.81C136.472 31.682 137.102 32.006 138.956 32.006C139.658 32.006 140.468 31.952 141.026 31.88V28.01ZM1.656 62V48.608H6.588L10.854 57.68L15.246 48.608H19.872V62H16.254V53.234L12.186 62H9.288L5.22 53.234V62H1.656ZM28.8052 54.08C26.9872 54.08 26.3032 54.818 26.1232 55.862H31.4152C31.4152 55.124 31.0552 54.08 28.8052 54.08ZM31.4872 58.886H35.1412C35.1412 59.714 34.4932 62.234 29.3272 62.234H28.6612C23.7292 62.234 22.5052 59.534 22.5052 57.14V56.888C22.5052 54.638 23.6212 51.794 28.3552 51.794H29.1472C34.2592 51.794 35.1772 54.638 35.1772 57.428V57.752H26.0872C26.2312 58.904 26.9692 59.84 29.1112 59.84C31.1452 59.84 31.3972 59.048 31.4872 58.886ZM45.5953 62V54.674H41.6353C41.6353 57.356 41.5453 58.85 41.2033 59.768C40.8253 60.776 40.3213 62 37.6753 62H36.5773V59.39H36.7933C37.4233 59.39 37.8913 59.174 38.0893 58.256C38.2333 57.482 38.2873 56.636 38.2873 52.01H49.1053V62H45.5953ZM52.0127 62V52.01H55.5227V54.872H58.2587C61.6787 54.872 63.0107 56.384 63.0107 58.292V58.508C63.0107 60.596 61.6787 62 58.2587 62H52.0127ZM55.5227 59.624H57.8267C58.5467 59.624 59.4107 59.408 59.4107 58.436V58.382C59.4107 57.482 58.5467 57.248 57.8267 57.248H55.5227V59.624ZM68.6008 62H65.0908V52.01H68.6008V55.646H73.4968V52.01H77.0068V62H73.4968V58.31H68.6008V62ZM88.3508 55.952L83.5268 62H79.9268V52.01H83.4368V58.058L88.2608 52.01H91.8608V62H88.3508V55.952ZM102.214 62L98.3263 57.374V62H94.8163V52.01H98.3263V56.006L101.89 52.01H105.94L101.764 56.492L106.39 62H102.214ZM113.648 62.27H113.09C107.708 62.27 106.88 58.994 106.88 57.176V56.924C106.88 55.124 107.708 51.74 113.072 51.74H113.666C119.21 51.74 119.858 55.142 119.858 56.906V57.194C119.858 58.994 119.21 62.27 113.648 62.27ZM113.27 59.642H113.468C115.682 59.642 116.24 58.058 116.24 56.96C116.24 55.826 115.682 54.314 113.468 54.314H113.27C110.966 54.314 110.498 55.826 110.498 56.96C110.498 58.058 110.966 59.642 113.27 59.642ZM130.516 62H122.272V52.01H130.156C132.442 52.01 133.882 52.82 133.882 54.404V54.494C133.882 55.736 133.09 56.474 131.884 56.672C133.108 56.816 134.206 57.68 134.206 59.12V59.192C134.206 61.01 133.018 62 130.516 62ZM125.782 55.988H129.004C129.85 55.988 130.282 55.664 130.282 55.034V54.944C130.282 54.368 129.886 54.026 129.004 54.026H125.782V55.988ZM125.782 59.984H129.148C130.084 59.984 130.606 59.678 130.606 58.976V58.832C130.606 58.202 130.174 57.806 129.148 57.806H125.782V59.984Z" fill="url(#paint2_radial_2017_829)"/>
<path d="M10.998 8.762L8.568 3.308L6.21 8.762H10.998ZM13.338 14L12.24 11.516H5.004L3.924 14H0.198L6.138 0.608H11.106L17.316 14H13.338ZM22.4758 14H18.9658V4.01H22.4758V7.646H27.3718V4.01H30.8818V14H27.3718V10.31H22.4758V14ZM32.9738 16.124V11.336H34.1798C34.8638 9.968 34.9718 6.998 35.0618 4.01H45.6278V11.336H47.4278V16.124H44.0978V14H36.3038V16.124H32.9738ZM37.4918 11.336H42.1178V6.674H38.2118C38.1578 7.97 37.9778 9.95 37.4918 11.336ZM58.6966 9.014V8.96C58.6966 7.88 58.1926 6.422 55.9966 6.422H55.8166C53.7106 6.422 53.0446 7.808 53.0446 8.96V9.014C53.0446 10.112 53.7106 11.552 55.8166 11.552H55.9966C58.1926 11.552 58.6966 10.04 58.6966 9.014ZM49.5526 17.438V4.01H53.0266V5.288C53.4586 4.82 54.7726 3.812 57.0406 3.812H57.2746C61.0906 3.812 62.3326 6.422 62.3326 8.798V9.104C62.3326 11.282 61.0546 14.198 57.2566 14.198H57.0046C54.7186 14.198 53.4946 13.154 53.0626 12.722V17.438H49.5526ZM70.5884 6.08C68.7704 6.08 68.0864 6.818 67.9064 7.862H73.1984C73.1984 7.124 72.8384 6.08 70.5884 6.08ZM73.2704 10.886H76.9244C76.9244 11.714 76.2764 14.234 71.1104 14.234H70.4444C65.5124 14.234 64.2884 11.534 64.2884 9.14V8.888C64.2884 6.638 65.4044 3.794 70.1384 3.794H70.9304C76.0424 3.794 76.9604 6.638 76.9604 9.428V9.752H67.8704C68.0144 10.904 68.7524 11.84 70.8944 11.84C72.9284 11.84 73.1804 11.048 73.2704 10.886ZM87.7883 7.952L82.9643 14H79.3643V4.01H82.8743V10.058L87.6983 4.01H91.2983V14H87.7883V7.952ZM85.5563 2.984H85.0163C82.1543 2.984 81.6503 1.04 81.6503 0.104V0.0499994H84.2963C84.2963 0.284 84.4043 1.004 85.3043 1.004C86.1503 1.004 86.2763 0.284 86.2763 0.0499994H88.8863V0.104C88.8863 1.04 88.1663 2.984 85.5563 2.984ZM1.656 38V24.608H11.43C15.264 24.608 16.218 26.282 16.218 27.776V27.974C16.218 29.666 14.76 30.476 13.752 30.62C15.264 30.872 16.884 31.772 16.884 33.932V34.13C16.884 35.948 15.786 38 11.484 38H1.656ZM10.89 27.398H5.364V29.792H10.89C12.024 29.792 12.348 29.252 12.348 28.622V28.586C12.348 27.938 11.988 27.398 10.89 27.398ZM11.178 32.42H5.364V35.066H11.178C12.474 35.066 12.852 34.382 12.852 33.716V33.644C12.852 32.978 12.474 32.42 11.178 32.42ZM27.7062 31.952L22.8822 38H19.2822V28.01H22.7922V34.058L27.6162 28.01H31.2162V38H27.7062V31.952ZM41.5697 38L37.6817 33.374V38H34.1717V28.01H37.6817V32.006L41.2457 28.01H45.2957L41.1197 32.492L45.7457 38H41.5697ZM50.0583 38V30.674H46.1883V28.01H57.4383V30.674H53.5683V38H50.0583ZM65.6068 38.27H65.0488C59.6668 38.27 58.8388 34.994 58.8388 33.176V32.924C58.8388 31.124 59.6668 27.74 65.0308 27.74H65.6248C71.1688 27.74 71.8168 31.142 71.8168 32.906V33.194C71.8168 34.994 71.1688 38.27 65.6068 38.27ZM65.2288 35.642H65.4268C67.6408 35.642 68.1988 34.058 68.1988 32.96C68.1988 31.826 67.6408 30.314 65.4268 30.314H65.2288C62.9248 30.314 62.4568 31.826 62.4568 32.96C62.4568 34.058 62.9248 35.642 65.2288 35.642ZM83.4114 33.014V32.96C83.4114 31.88 82.9074 30.422 80.7114 30.422H80.5314C78.4254 30.422 77.7594 31.808 77.7594 32.96V33.014C77.7594 34.112 78.4254 35.552 80.5314 35.552H80.7114C82.9074 35.552 83.4114 34.04 83.4114 33.014ZM74.2674 41.438V28.01H77.7414V29.288C78.1734 28.82 79.4874 27.812 81.7554 27.812H81.9894C85.8054 27.812 87.0474 30.422 87.0474 32.798V33.104C87.0474 35.282 85.7694 38.198 81.9714 38.198H81.7194C79.4334 38.198 78.2094 37.154 77.7774 36.722V41.438H74.2674ZM95.7533 38.27H95.1953C89.8133 38.27 88.9853 34.994 88.9853 33.176V32.924C88.9853 31.124 89.8133 27.74 95.1773 27.74H95.7713C101.315 27.74 101.963 31.142 101.963 32.906V33.194C101.963 34.994 101.315 38.27 95.7533 38.27ZM95.3753 35.642H95.5733C97.7873 35.642 98.3453 34.058 98.3453 32.96C98.3453 31.826 97.7873 30.314 95.5733 30.314H95.3753C93.0713 30.314 92.6033 31.826 92.6033 32.96C92.6033 34.058 93.0713 35.642 95.3753 35.642ZM112.622 38H104.378V28.01H112.262C114.548 28.01 115.988 28.82 115.988 30.404V30.494C115.988 31.736 115.196 32.474 113.99 32.672C115.214 32.816 116.312 33.68 116.312 35.12V35.192C116.312 37.01 115.124 38 112.622 38ZM107.888 31.988H111.11C111.956 31.988 112.388 31.664 112.388 31.034V30.944C112.388 30.368 111.992 30.026 111.11 30.026H107.888V31.988ZM107.888 35.984H111.254C112.19 35.984 112.712 35.678 112.712 34.976V34.832C112.712 34.202 112.28 33.806 111.254 33.806H107.888V35.984ZM127.181 31.952L122.357 38H118.757V28.01H122.267V34.058L127.091 28.01H130.691V38H127.181V31.952ZM141.026 28.01H144.536V38H141.026V34.562C140.252 34.652 139.352 34.742 138.416 34.742C134.456 34.742 132.962 33.626 132.962 30.458V28.01H136.472V29.81C136.472 31.682 137.102 32.006 138.956 32.006C139.658 32.006 140.468 31.952 141.026 31.88V28.01ZM1.656 62V48.608H6.588L10.854 57.68L15.246 48.608H19.872V62H16.254V53.234L12.186 62H9.288L5.22 53.234V62H1.656ZM28.8052 54.08C26.9872 54.08 26.3032 54.818 26.1232 55.862H31.4152C31.4152 55.124 31.0552 54.08 28.8052 54.08ZM31.4872 58.886H35.1412C35.1412 59.714 34.4932 62.234 29.3272 62.234H28.6612C23.7292 62.234 22.5052 59.534 22.5052 57.14V56.888C22.5052 54.638 23.6212 51.794 28.3552 51.794H29.1472C34.2592 51.794 35.1772 54.638 35.1772 57.428V57.752H26.0872C26.2312 58.904 26.9692 59.84 29.1112 59.84C31.1452 59.84 31.3972 59.048 31.4872 58.886ZM45.5953 62V54.674H41.6353C41.6353 57.356 41.5453 58.85 41.2033 59.768C40.8253 60.776 40.3213 62 37.6753 62H36.5773V59.39H36.7933C37.4233 59.39 37.8913 59.174 38.0893 58.256C38.2333 57.482 38.2873 56.636 38.2873 52.01H49.1053V62H45.5953ZM52.0127 62V52.01H55.5227V54.872H58.2587C61.6787 54.872 63.0107 56.384 63.0107 58.292V58.508C63.0107 60.596 61.6787 62 58.2587 62H52.0127ZM55.5227 59.624H57.8267C58.5467 59.624 59.4107 59.408 59.4107 58.436V58.382C59.4107 57.482 58.5467 57.248 57.8267 57.248H55.5227V59.624ZM68.6008 62H65.0908V52.01H68.6008V55.646H73.4968V52.01H77.0068V62H73.4968V58.31H68.6008V62ZM88.3508 55.952L83.5268 62H79.9268V52.01H83.4368V58.058L88.2608 52.01H91.8608V62H88.3508V55.952ZM102.214 62L98.3263 57.374V62H94.8163V52.01H98.3263V56.006L101.89 52.01H105.94L101.764 56.492L106.39 62H102.214ZM113.648 62.27H113.09C107.708 62.27 106.88 58.994 106.88 57.176V56.924C106.88 55.124 107.708 51.74 113.072 51.74H113.666C119.21 51.74 119.858 55.142 119.858 56.906V57.194C119.858 58.994 119.21 62.27 113.648 62.27ZM113.27 59.642H113.468C115.682 59.642 116.24 58.058 116.24 56.96C116.24 55.826 115.682 54.314 113.468 54.314H113.27C110.966 54.314 110.498 55.826 110.498 56.96C110.498 58.058 110.966 59.642 113.27 59.642ZM130.516 62H122.272V52.01H130.156C132.442 52.01 133.882 52.82 133.882 54.404V54.494C133.882 55.736 133.09 56.474 131.884 56.672C133.108 56.816 134.206 57.68 134.206 59.12V59.192C134.206 61.01 133.018 62 130.516 62ZM125.782 55.988H129.004C129.85 55.988 130.282 55.664 130.282 55.034V54.944C130.282 54.368 129.886 54.026 129.004 54.026H125.782V55.988ZM125.782 59.984H129.148C130.084 59.984 130.606 59.678 130.606 58.976V58.832C130.606 58.202 130.174 57.806 129.148 57.806H125.782V59.984Z" fill="#C1A875" style="mix-blend-mode:color"/>
<defs>
<linearGradient id="paint0_linear_2017_829" x1="8.27014e-07" y1="30" x2="222" y2="30" gradientUnits="userSpaceOnUse">
<stop stop-color="#576167"/>
<stop offset="0.191294" stop-color="#9EA1A2"/>
<stop offset="0.396166" stop-color="#848989"/>
<stop offset="0.62055" stop-color="#576167"/>
<stop offset="0.830299" stop-color="#757A7C"/>
<stop offset="1" stop-color="#576167"/>
</linearGradient>
<radialGradient id="paint1_radial_2017_829" cx="0" cy="0" r="1" gradientUnits="userSpaceOnUse" gradientTransform="translate(118.226 2.39326) rotate(90) scale(53.4944 167.95)">
<stop stop-color="white"/>
<stop offset="1" stop-color="white" stop-opacity="0"/>
</radialGradient>
<radialGradient id="paint2_radial_2017_829" cx="0" cy="0" r="1" gradientUnits="userSpaceOnUse" gradientTransform="translate(130.783 82.9888) rotate(-89.7344) scale(76.6525 240.162)">
<stop stop-color="white"/>
<stop offset="1" stop-color="white" stop-opacity="0"/>
</radialGradient>
</defs>
</svg>
