<svg width="223" height="42" viewBox="0 0 223 42" fill="none" xmlns="http://www.w3.org/2000/svg">
<path d="M11.062 14V8.096L5.518 14H0.91L7.57 6.908L1 0.608H5.698L11.062 5.738V0.608H14.77V5.738L20.134 0.608H24.742L18.352 6.746L25.048 14H20.314L14.77 8.096V14H11.062ZM30.676 12.002C32.728 12.002 33.43 10.706 33.43 9.95V9.176C33.124 9.302 32.242 9.482 31.234 9.644C29.542 9.932 29.002 10.166 29.002 10.868V10.904C29.002 11.534 29.452 12.002 30.676 12.002ZM33.538 12.614C33.106 13.136 32.026 14.198 29.686 14.198H29.398C26.608 14.198 25.456 12.686 25.456 11.03V10.958C25.456 9.23 26.554 8.168 29.938 7.88L32.674 7.646C33.232 7.592 33.43 7.412 33.43 6.998C33.43 6.53 33.286 6.026 31.342 6.026C29.506 6.026 29.326 6.746 29.326 7.124H25.726V7.088C25.726 6.098 26.122 3.776 31.036 3.776H31.594C36.544 3.776 36.85 5.81 36.85 7.142V10.436C36.85 11.066 36.976 11.318 37.678 11.318H38.056V14H35.212C34.168 14 33.682 13.262 33.538 12.614ZM43.5676 14H40.0576V4.01H43.5676V7.646H48.4636V4.01H51.9736V14H48.4636V10.31H43.5676V14ZM58.4035 14H54.8935V4.01H58.4035V7.646H63.2995V4.01H66.8095V14H63.2995V10.31H58.4035V14ZM74.4455 12.002C76.4975 12.002 77.1995 10.706 77.1995 9.95V9.176C76.8935 9.302 76.0115 9.482 75.0035 9.644C73.3115 9.932 72.7715 10.166 72.7715 10.868V10.904C72.7715 11.534 73.2215 12.002 74.4455 12.002ZM77.3075 12.614C76.8755 13.136 75.7955 14.198 73.4555 14.198H73.1675C70.3775 14.198 69.2255 12.686 69.2255 11.03V10.958C69.2255 9.23 70.3235 8.168 73.7075 7.88L76.4435 7.646C77.0015 7.592 77.1995 7.412 77.1995 6.998C77.1995 6.53 77.0555 6.026 75.1115 6.026C73.2755 6.026 73.0955 6.746 73.0955 7.124H69.4955V7.088C69.4955 6.098 69.8915 3.776 74.8055 3.776H75.3635C80.3135 3.776 80.6195 5.81 80.6195 7.142V10.436C80.6195 11.066 80.7455 11.318 81.4475 11.318H81.8255V14H78.9815C77.9375 14 77.4515 13.262 77.3075 12.614ZM87.8423 11.048H89.1923C90.1103 9.374 90.6863 6.872 90.6863 0.608H103.466V11.048H105.626V16.25H102.098V14H91.3703V16.25H87.8423V11.048ZM92.9543 11.048H99.7583V3.56H94.2143C94.2143 7.214 93.5843 9.77 92.9543 11.048ZM112.256 12.002C114.308 12.002 115.01 10.706 115.01 9.95V9.176C114.704 9.302 113.822 9.482 112.814 9.644C111.122 9.932 110.582 10.166 110.582 10.868V10.904C110.582 11.534 111.032 12.002 112.256 12.002ZM115.118 12.614C114.686 13.136 113.606 14.198 111.266 14.198H110.978C108.188 14.198 107.036 12.686 107.036 11.03V10.958C107.036 9.23 108.134 8.168 111.518 7.88L114.254 7.646C114.812 7.592 115.01 7.412 115.01 6.998C115.01 6.53 114.866 6.026 112.922 6.026C111.086 6.026 110.906 6.746 110.906 7.124H107.306V7.088C107.306 6.098 107.702 3.776 112.616 3.776H113.174C118.124 3.776 118.43 5.81 118.43 7.142V10.436C118.43 11.066 118.556 11.318 119.258 11.318H119.636V14H116.792C115.748 14 115.262 13.262 115.118 12.614ZM125.148 14H121.638V4.01H125.148V7.646H130.044V4.01H133.554V14H130.044V10.31H125.148V14ZM144.898 7.952L140.074 14H136.474V4.01H139.984V10.058L144.808 4.01H148.408V14H144.898V7.952ZM159.517 14V6.674H155.557C155.557 9.356 155.467 10.85 155.125 11.768C154.747 12.776 154.243 14 151.597 14H150.499V11.39H150.715C151.345 11.39 151.813 11.174 152.011 10.256C152.155 9.482 152.209 8.636 152.209 4.01H163.027V14H159.517ZM172.199 14.27H171.641C166.259 14.27 165.431 10.994 165.431 9.176V8.924C165.431 7.124 166.259 3.74 171.623 3.74H172.217C177.761 3.74 178.409 7.142 178.409 8.906V9.194C178.409 10.994 177.761 14.27 172.199 14.27ZM171.821 11.642H172.019C174.233 11.642 174.791 10.058 174.791 8.96C174.791 7.826 174.233 6.314 172.019 6.314H171.821C169.517 6.314 169.049 7.826 169.049 8.96C169.049 10.058 169.517 11.642 171.821 11.642ZM189.067 14H180.823V4.01H188.707C190.993 4.01 192.433 4.82 192.433 6.404V6.494C192.433 7.736 191.641 8.474 190.435 8.672C191.659 8.816 192.757 9.68 192.757 11.12V11.192C192.757 13.01 191.569 14 189.067 14ZM184.333 7.988H187.555C188.401 7.988 188.833 7.664 188.833 7.034V6.944C188.833 6.368 188.437 6.026 187.555 6.026H184.333V7.988ZM184.333 11.984H187.699C188.635 11.984 189.157 11.678 189.157 10.976V10.832C189.157 10.202 188.725 9.806 187.699 9.806H184.333V11.984ZM198.712 14H195.202V4.01H198.712V7.646H203.608V4.01H207.118V14H203.608V10.31H198.712V14ZM214.754 12.002C216.806 12.002 217.508 10.706 217.508 9.95V9.176C217.202 9.302 216.32 9.482 215.312 9.644C213.62 9.932 213.08 10.166 213.08 10.868V10.904C213.08 11.534 213.53 12.002 214.754 12.002ZM217.616 12.614C217.184 13.136 216.104 14.198 213.764 14.198H213.476C210.686 14.198 209.534 12.686 209.534 11.03V10.958C209.534 9.23 210.632 8.168 214.016 7.88L216.752 7.646C217.31 7.592 217.508 7.412 217.508 6.998C217.508 6.53 217.364 6.026 215.42 6.026C213.584 6.026 213.404 6.746 213.404 7.124H209.804V7.088C209.804 6.098 210.2 3.776 215.114 3.776H215.672C220.622 3.776 220.928 5.81 220.928 7.142V10.436C220.928 11.066 221.054 11.318 221.756 11.318H222.134V14H219.29C218.246 14 217.76 13.262 217.616 12.614ZM2.656 38V24.608H6.364V35.048H10.756V24.608H14.464V35.048H18.856V24.608H22.564V35.048H24.724V40.25H21.196V38H2.656ZM32.4419 30.08C30.6239 30.08 29.9399 30.818 29.7599 31.862H35.0519C35.0519 31.124 34.6919 30.08 32.4419 30.08ZM35.1239 34.886H38.7779C38.7779 35.714 38.1299 38.234 32.9639 38.234H32.2979C27.3659 38.234 26.1419 35.534 26.1419 33.14V32.888C26.1419 30.638 27.2579 27.794 31.9919 27.794H32.7839C37.8959 27.794 38.8139 30.638 38.8139 33.428V33.752H29.7239C29.8679 34.904 30.6059 35.84 32.7479 35.84C34.7819 35.84 35.0339 35.048 35.1239 34.886ZM50.3978 33.014V32.96C50.3978 31.88 49.8938 30.422 47.6978 30.422H47.5178C45.4118 30.422 44.7458 31.808 44.7458 32.96V33.014C44.7458 34.112 45.4118 35.552 47.5178 35.552H47.6978C49.8938 35.552 50.3978 34.04 50.3978 33.014ZM41.2538 41.438V28.01H44.7278V29.288C45.1598 28.82 46.4738 27.812 48.7418 27.812H48.9758C52.7918 27.812 54.0338 30.422 54.0338 32.798V33.104C54.0338 35.282 52.7558 38.198 48.9578 38.198H48.7058C46.4198 38.198 45.1958 37.154 44.7638 36.722V41.438H41.2538ZM68.9496 33.122V33.356C68.9496 37.1 66.1056 38.27 62.7036 38.27H62.3436C58.8336 38.27 55.9716 36.902 55.9716 32.15V31.088C55.9716 26.282 58.3656 24.698 63.0456 24.698H63.8556C64.9716 24.698 65.0436 24.59 65.0796 24.374H68.5176C68.5176 26.48 67.7256 27.362 65.2776 27.362H63.0456C60.4536 27.362 59.4636 28.172 59.4096 29.99C60.3276 29.036 61.7316 28.388 63.9456 28.388H64.0536C66.4296 28.388 68.9496 29.594 68.9496 33.122ZM62.3796 35.642H62.5776C64.1616 35.642 65.3316 34.85 65.3316 33.212C65.3316 31.628 64.1436 30.854 62.5956 30.854H62.3796C60.6516 30.854 59.5896 31.592 59.5896 33.23C59.5896 34.886 60.6696 35.642 62.3796 35.642ZM75.9924 36.002C78.0444 36.002 78.7464 34.706 78.7464 33.95V33.176C78.4404 33.302 77.5584 33.482 76.5504 33.644C74.8584 33.932 74.3184 34.166 74.3184 34.868V34.904C74.3184 35.534 74.7684 36.002 75.9924 36.002ZM78.8544 36.614C78.4224 37.136 77.3424 38.198 75.0024 38.198H74.7144C71.9244 38.198 70.7724 36.686 70.7724 35.03V34.958C70.7724 33.23 71.8704 32.168 75.2544 31.88L77.9904 31.646C78.5484 31.592 78.7464 31.412 78.7464 30.998C78.7464 30.53 78.6024 30.026 76.6584 30.026C74.8224 30.026 74.6424 30.746 74.6424 31.124H71.0424V31.088C71.0424 30.098 71.4384 27.776 76.3524 27.776H76.9104C81.8604 27.776 82.1664 29.81 82.1664 31.142V34.436C82.1664 35.066 82.2924 35.318 82.9944 35.318H83.3724V38H80.5284C79.4844 38 78.9984 37.262 78.8544 36.614ZM92.808 38L88.92 33.374V38H85.41V28.01H88.92V32.006L92.484 28.01H96.534L92.358 32.492L96.984 38H92.808ZM104.242 38.27H103.684C98.3015 38.27 97.4735 34.994 97.4735 33.176V32.924C97.4735 31.124 98.3015 27.74 103.666 27.74H104.26C109.804 27.74 110.452 31.142 110.452 32.906V33.194C110.452 34.994 109.804 38.27 104.242 38.27ZM103.864 35.642H104.062C106.276 35.642 106.834 34.058 106.834 32.96C106.834 31.826 106.276 30.314 104.062 30.314H103.864C101.56 30.314 101.092 31.826 101.092 32.96C101.092 34.058 101.56 35.642 103.864 35.642ZM121.11 38H112.866V28.01H120.75C123.036 28.01 124.476 28.82 124.476 30.404V30.494C124.476 31.736 123.684 32.474 122.478 32.672C123.702 32.816 124.8 33.68 124.8 35.12V35.192C124.8 37.01 123.612 38 121.11 38ZM116.376 31.988H119.598C120.444 31.988 120.876 31.664 120.876 31.034V30.944C120.876 30.368 120.48 30.026 119.598 30.026H116.376V31.988ZM116.376 35.984H119.742C120.678 35.984 121.2 35.678 121.2 34.976V34.832C121.2 34.202 120.768 33.806 119.742 33.806H116.376V35.984ZM135.597 34.076H139.269C139.269 35.588 138.369 38.27 133.563 38.27H132.681C127.695 38.27 126.759 35.03 126.759 33.14V32.888C126.759 30.998 127.641 27.74 132.663 27.74H133.491C138.315 27.74 139.269 30.368 139.269 31.808V31.826H135.597C135.543 31.538 135.201 30.296 133.131 30.296H132.951C130.881 30.296 130.395 31.718 130.395 32.924V32.942C130.395 34.184 130.989 35.66 133.023 35.66H133.203C135.291 35.66 135.597 34.31 135.597 34.076ZM149.093 38L145.205 33.374V38H141.695V28.01H145.205V32.006L148.769 28.01H152.819L148.643 32.492L153.269 38H149.093ZM159.084 36.002C161.136 36.002 161.838 34.706 161.838 33.95V33.176C161.532 33.302 160.65 33.482 159.642 33.644C157.95 33.932 157.41 34.166 157.41 34.868V34.904C157.41 35.534 157.86 36.002 159.084 36.002ZM161.946 36.614C161.514 37.136 160.434 38.198 158.094 38.198H157.806C155.016 38.198 153.864 36.686 153.864 35.03V34.958C153.864 33.23 154.962 32.168 158.346 31.88L161.082 31.646C161.64 31.592 161.838 31.412 161.838 30.998C161.838 30.53 161.694 30.026 159.75 30.026C157.914 30.026 157.734 30.746 157.734 31.124H154.134V31.088C154.134 30.098 154.53 27.776 159.444 27.776H160.002C164.952 27.776 165.258 29.81 165.258 31.142V34.436C165.258 35.066 165.384 35.318 166.086 35.318H166.464V38H163.62C162.576 38 162.09 37.262 161.946 36.614ZM176.784 34.652H174.426L171.51 38H167.55L170.808 34.274C169.08 33.932 168.09 32.942 168.09 31.43V31.214C168.09 29.396 169.566 28.01 172.068 28.01H180.294V38H176.784V34.652ZM176.784 30.314H173.022C172.248 30.314 171.6 30.494 171.6 31.286V31.358C171.6 32.132 172.266 32.366 173.04 32.366H176.784V30.314Z" fill="url(#paint0_linear_2017_875)"/>
<path d="M11.062 14V8.096L5.518 14H0.91L7.57 6.908L1 0.608H5.698L11.062 5.738V0.608H14.77V5.738L20.134 0.608H24.742L18.352 6.746L25.048 14H20.314L14.77 8.096V14H11.062ZM30.676 12.002C32.728 12.002 33.43 10.706 33.43 9.95V9.176C33.124 9.302 32.242 9.482 31.234 9.644C29.542 9.932 29.002 10.166 29.002 10.868V10.904C29.002 11.534 29.452 12.002 30.676 12.002ZM33.538 12.614C33.106 13.136 32.026 14.198 29.686 14.198H29.398C26.608 14.198 25.456 12.686 25.456 11.03V10.958C25.456 9.23 26.554 8.168 29.938 7.88L32.674 7.646C33.232 7.592 33.43 7.412 33.43 6.998C33.43 6.53 33.286 6.026 31.342 6.026C29.506 6.026 29.326 6.746 29.326 7.124H25.726V7.088C25.726 6.098 26.122 3.776 31.036 3.776H31.594C36.544 3.776 36.85 5.81 36.85 7.142V10.436C36.85 11.066 36.976 11.318 37.678 11.318H38.056V14H35.212C34.168 14 33.682 13.262 33.538 12.614ZM43.5676 14H40.0576V4.01H43.5676V7.646H48.4636V4.01H51.9736V14H48.4636V10.31H43.5676V14ZM58.4035 14H54.8935V4.01H58.4035V7.646H63.2995V4.01H66.8095V14H63.2995V10.31H58.4035V14ZM74.4455 12.002C76.4975 12.002 77.1995 10.706 77.1995 9.95V9.176C76.8935 9.302 76.0115 9.482 75.0035 9.644C73.3115 9.932 72.7715 10.166 72.7715 10.868V10.904C72.7715 11.534 73.2215 12.002 74.4455 12.002ZM77.3075 12.614C76.8755 13.136 75.7955 14.198 73.4555 14.198H73.1675C70.3775 14.198 69.2255 12.686 69.2255 11.03V10.958C69.2255 9.23 70.3235 8.168 73.7075 7.88L76.4435 7.646C77.0015 7.592 77.1995 7.412 77.1995 6.998C77.1995 6.53 77.0555 6.026 75.1115 6.026C73.2755 6.026 73.0955 6.746 73.0955 7.124H69.4955V7.088C69.4955 6.098 69.8915 3.776 74.8055 3.776H75.3635C80.3135 3.776 80.6195 5.81 80.6195 7.142V10.436C80.6195 11.066 80.7455 11.318 81.4475 11.318H81.8255V14H78.9815C77.9375 14 77.4515 13.262 77.3075 12.614ZM87.8423 11.048H89.1923C90.1103 9.374 90.6863 6.872 90.6863 0.608H103.466V11.048H105.626V16.25H102.098V14H91.3703V16.25H87.8423V11.048ZM92.9543 11.048H99.7583V3.56H94.2143C94.2143 7.214 93.5843 9.77 92.9543 11.048ZM112.256 12.002C114.308 12.002 115.01 10.706 115.01 9.95V9.176C114.704 9.302 113.822 9.482 112.814 9.644C111.122 9.932 110.582 10.166 110.582 10.868V10.904C110.582 11.534 111.032 12.002 112.256 12.002ZM115.118 12.614C114.686 13.136 113.606 14.198 111.266 14.198H110.978C108.188 14.198 107.036 12.686 107.036 11.03V10.958C107.036 9.23 108.134 8.168 111.518 7.88L114.254 7.646C114.812 7.592 115.01 7.412 115.01 6.998C115.01 6.53 114.866 6.026 112.922 6.026C111.086 6.026 110.906 6.746 110.906 7.124H107.306V7.088C107.306 6.098 107.702 3.776 112.616 3.776H113.174C118.124 3.776 118.43 5.81 118.43 7.142V10.436C118.43 11.066 118.556 11.318 119.258 11.318H119.636V14H116.792C115.748 14 115.262 13.262 115.118 12.614ZM125.148 14H121.638V4.01H125.148V7.646H130.044V4.01H133.554V14H130.044V10.31H125.148V14ZM144.898 7.952L140.074 14H136.474V4.01H139.984V10.058L144.808 4.01H148.408V14H144.898V7.952ZM159.517 14V6.674H155.557C155.557 9.356 155.467 10.85 155.125 11.768C154.747 12.776 154.243 14 151.597 14H150.499V11.39H150.715C151.345 11.39 151.813 11.174 152.011 10.256C152.155 9.482 152.209 8.636 152.209 4.01H163.027V14H159.517ZM172.199 14.27H171.641C166.259 14.27 165.431 10.994 165.431 9.176V8.924C165.431 7.124 166.259 3.74 171.623 3.74H172.217C177.761 3.74 178.409 7.142 178.409 8.906V9.194C178.409 10.994 177.761 14.27 172.199 14.27ZM171.821 11.642H172.019C174.233 11.642 174.791 10.058 174.791 8.96C174.791 7.826 174.233 6.314 172.019 6.314H171.821C169.517 6.314 169.049 7.826 169.049 8.96C169.049 10.058 169.517 11.642 171.821 11.642ZM189.067 14H180.823V4.01H188.707C190.993 4.01 192.433 4.82 192.433 6.404V6.494C192.433 7.736 191.641 8.474 190.435 8.672C191.659 8.816 192.757 9.68 192.757 11.12V11.192C192.757 13.01 191.569 14 189.067 14ZM184.333 7.988H187.555C188.401 7.988 188.833 7.664 188.833 7.034V6.944C188.833 6.368 188.437 6.026 187.555 6.026H184.333V7.988ZM184.333 11.984H187.699C188.635 11.984 189.157 11.678 189.157 10.976V10.832C189.157 10.202 188.725 9.806 187.699 9.806H184.333V11.984ZM198.712 14H195.202V4.01H198.712V7.646H203.608V4.01H207.118V14H203.608V10.31H198.712V14ZM214.754 12.002C216.806 12.002 217.508 10.706 217.508 9.95V9.176C217.202 9.302 216.32 9.482 215.312 9.644C213.62 9.932 213.08 10.166 213.08 10.868V10.904C213.08 11.534 213.53 12.002 214.754 12.002ZM217.616 12.614C217.184 13.136 216.104 14.198 213.764 14.198H213.476C210.686 14.198 209.534 12.686 209.534 11.03V10.958C209.534 9.23 210.632 8.168 214.016 7.88L216.752 7.646C217.31 7.592 217.508 7.412 217.508 6.998C217.508 6.53 217.364 6.026 215.42 6.026C213.584 6.026 213.404 6.746 213.404 7.124H209.804V7.088C209.804 6.098 210.2 3.776 215.114 3.776H215.672C220.622 3.776 220.928 5.81 220.928 7.142V10.436C220.928 11.066 221.054 11.318 221.756 11.318H222.134V14H219.29C218.246 14 217.76 13.262 217.616 12.614ZM2.656 38V24.608H6.364V35.048H10.756V24.608H14.464V35.048H18.856V24.608H22.564V35.048H24.724V40.25H21.196V38H2.656ZM32.4419 30.08C30.6239 30.08 29.9399 30.818 29.7599 31.862H35.0519C35.0519 31.124 34.6919 30.08 32.4419 30.08ZM35.1239 34.886H38.7779C38.7779 35.714 38.1299 38.234 32.9639 38.234H32.2979C27.3659 38.234 26.1419 35.534 26.1419 33.14V32.888C26.1419 30.638 27.2579 27.794 31.9919 27.794H32.7839C37.8959 27.794 38.8139 30.638 38.8139 33.428V33.752H29.7239C29.8679 34.904 30.6059 35.84 32.7479 35.84C34.7819 35.84 35.0339 35.048 35.1239 34.886ZM50.3978 33.014V32.96C50.3978 31.88 49.8938 30.422 47.6978 30.422H47.5178C45.4118 30.422 44.7458 31.808 44.7458 32.96V33.014C44.7458 34.112 45.4118 35.552 47.5178 35.552H47.6978C49.8938 35.552 50.3978 34.04 50.3978 33.014ZM41.2538 41.438V28.01H44.7278V29.288C45.1598 28.82 46.4738 27.812 48.7418 27.812H48.9758C52.7918 27.812 54.0338 30.422 54.0338 32.798V33.104C54.0338 35.282 52.7558 38.198 48.9578 38.198H48.7058C46.4198 38.198 45.1958 37.154 44.7638 36.722V41.438H41.2538ZM68.9496 33.122V33.356C68.9496 37.1 66.1056 38.27 62.7036 38.27H62.3436C58.8336 38.27 55.9716 36.902 55.9716 32.15V31.088C55.9716 26.282 58.3656 24.698 63.0456 24.698H63.8556C64.9716 24.698 65.0436 24.59 65.0796 24.374H68.5176C68.5176 26.48 67.7256 27.362 65.2776 27.362H63.0456C60.4536 27.362 59.4636 28.172 59.4096 29.99C60.3276 29.036 61.7316 28.388 63.9456 28.388H64.0536C66.4296 28.388 68.9496 29.594 68.9496 33.122ZM62.3796 35.642H62.5776C64.1616 35.642 65.3316 34.85 65.3316 33.212C65.3316 31.628 64.1436 30.854 62.5956 30.854H62.3796C60.6516 30.854 59.5896 31.592 59.5896 33.23C59.5896 34.886 60.6696 35.642 62.3796 35.642ZM75.9924 36.002C78.0444 36.002 78.7464 34.706 78.7464 33.95V33.176C78.4404 33.302 77.5584 33.482 76.5504 33.644C74.8584 33.932 74.3184 34.166 74.3184 34.868V34.904C74.3184 35.534 74.7684 36.002 75.9924 36.002ZM78.8544 36.614C78.4224 37.136 77.3424 38.198 75.0024 38.198H74.7144C71.9244 38.198 70.7724 36.686 70.7724 35.03V34.958C70.7724 33.23 71.8704 32.168 75.2544 31.88L77.9904 31.646C78.5484 31.592 78.7464 31.412 78.7464 30.998C78.7464 30.53 78.6024 30.026 76.6584 30.026C74.8224 30.026 74.6424 30.746 74.6424 31.124H71.0424V31.088C71.0424 30.098 71.4384 27.776 76.3524 27.776H76.9104C81.8604 27.776 82.1664 29.81 82.1664 31.142V34.436C82.1664 35.066 82.2924 35.318 82.9944 35.318H83.3724V38H80.5284C79.4844 38 78.9984 37.262 78.8544 36.614ZM92.808 38L88.92 33.374V38H85.41V28.01H88.92V32.006L92.484 28.01H96.534L92.358 32.492L96.984 38H92.808ZM104.242 38.27H103.684C98.3015 38.27 97.4735 34.994 97.4735 33.176V32.924C97.4735 31.124 98.3015 27.74 103.666 27.74H104.26C109.804 27.74 110.452 31.142 110.452 32.906V33.194C110.452 34.994 109.804 38.27 104.242 38.27ZM103.864 35.642H104.062C106.276 35.642 106.834 34.058 106.834 32.96C106.834 31.826 106.276 30.314 104.062 30.314H103.864C101.56 30.314 101.092 31.826 101.092 32.96C101.092 34.058 101.56 35.642 103.864 35.642ZM121.11 38H112.866V28.01H120.75C123.036 28.01 124.476 28.82 124.476 30.404V30.494C124.476 31.736 123.684 32.474 122.478 32.672C123.702 32.816 124.8 33.68 124.8 35.12V35.192C124.8 37.01 123.612 38 121.11 38ZM116.376 31.988H119.598C120.444 31.988 120.876 31.664 120.876 31.034V30.944C120.876 30.368 120.48 30.026 119.598 30.026H116.376V31.988ZM116.376 35.984H119.742C120.678 35.984 121.2 35.678 121.2 34.976V34.832C121.2 34.202 120.768 33.806 119.742 33.806H116.376V35.984ZM135.597 34.076H139.269C139.269 35.588 138.369 38.27 133.563 38.27H132.681C127.695 38.27 126.759 35.03 126.759 33.14V32.888C126.759 30.998 127.641 27.74 132.663 27.74H133.491C138.315 27.74 139.269 30.368 139.269 31.808V31.826H135.597C135.543 31.538 135.201 30.296 133.131 30.296H132.951C130.881 30.296 130.395 31.718 130.395 32.924V32.942C130.395 34.184 130.989 35.66 133.023 35.66H133.203C135.291 35.66 135.597 34.31 135.597 34.076ZM149.093 38L145.205 33.374V38H141.695V28.01H145.205V32.006L148.769 28.01H152.819L148.643 32.492L153.269 38H149.093ZM159.084 36.002C161.136 36.002 161.838 34.706 161.838 33.95V33.176C161.532 33.302 160.65 33.482 159.642 33.644C157.95 33.932 157.41 34.166 157.41 34.868V34.904C157.41 35.534 157.86 36.002 159.084 36.002ZM161.946 36.614C161.514 37.136 160.434 38.198 158.094 38.198H157.806C155.016 38.198 153.864 36.686 153.864 35.03V34.958C153.864 33.23 154.962 32.168 158.346 31.88L161.082 31.646C161.64 31.592 161.838 31.412 161.838 30.998C161.838 30.53 161.694 30.026 159.75 30.026C157.914 30.026 157.734 30.746 157.734 31.124H154.134V31.088C154.134 30.098 154.53 27.776 159.444 27.776H160.002C164.952 27.776 165.258 29.81 165.258 31.142V34.436C165.258 35.066 165.384 35.318 166.086 35.318H166.464V38H163.62C162.576 38 162.09 37.262 161.946 36.614ZM176.784 34.652H174.426L171.51 38H167.55L170.808 34.274C169.08 33.932 168.09 32.942 168.09 31.43V31.214C168.09 29.396 169.566 28.01 172.068 28.01H180.294V38H176.784V34.652ZM176.784 30.314H173.022C172.248 30.314 171.6 30.494 171.6 31.286V31.358C171.6 32.132 172.266 32.366 173.04 32.366H176.784V30.314Z" fill="url(#paint1_radial_2017_875)" style="mix-blend-mode:overlay"/>
<path d="M11.062 14V8.096L5.518 14H0.91L7.57 6.908L1 0.608H5.698L11.062 5.738V0.608H14.77V5.738L20.134 0.608H24.742L18.352 6.746L25.048 14H20.314L14.77 8.096V14H11.062ZM30.676 12.002C32.728 12.002 33.43 10.706 33.43 9.95V9.176C33.124 9.302 32.242 9.482 31.234 9.644C29.542 9.932 29.002 10.166 29.002 10.868V10.904C29.002 11.534 29.452 12.002 30.676 12.002ZM33.538 12.614C33.106 13.136 32.026 14.198 29.686 14.198H29.398C26.608 14.198 25.456 12.686 25.456 11.03V10.958C25.456 9.23 26.554 8.168 29.938 7.88L32.674 7.646C33.232 7.592 33.43 7.412 33.43 6.998C33.43 6.53 33.286 6.026 31.342 6.026C29.506 6.026 29.326 6.746 29.326 7.124H25.726V7.088C25.726 6.098 26.122 3.776 31.036 3.776H31.594C36.544 3.776 36.85 5.81 36.85 7.142V10.436C36.85 11.066 36.976 11.318 37.678 11.318H38.056V14H35.212C34.168 14 33.682 13.262 33.538 12.614ZM43.5676 14H40.0576V4.01H43.5676V7.646H48.4636V4.01H51.9736V14H48.4636V10.31H43.5676V14ZM58.4035 14H54.8935V4.01H58.4035V7.646H63.2995V4.01H66.8095V14H63.2995V10.31H58.4035V14ZM74.4455 12.002C76.4975 12.002 77.1995 10.706 77.1995 9.95V9.176C76.8935 9.302 76.0115 9.482 75.0035 9.644C73.3115 9.932 72.7715 10.166 72.7715 10.868V10.904C72.7715 11.534 73.2215 12.002 74.4455 12.002ZM77.3075 12.614C76.8755 13.136 75.7955 14.198 73.4555 14.198H73.1675C70.3775 14.198 69.2255 12.686 69.2255 11.03V10.958C69.2255 9.23 70.3235 8.168 73.7075 7.88L76.4435 7.646C77.0015 7.592 77.1995 7.412 77.1995 6.998C77.1995 6.53 77.0555 6.026 75.1115 6.026C73.2755 6.026 73.0955 6.746 73.0955 7.124H69.4955V7.088C69.4955 6.098 69.8915 3.776 74.8055 3.776H75.3635C80.3135 3.776 80.6195 5.81 80.6195 7.142V10.436C80.6195 11.066 80.7455 11.318 81.4475 11.318H81.8255V14H78.9815C77.9375 14 77.4515 13.262 77.3075 12.614ZM87.8423 11.048H89.1923C90.1103 9.374 90.6863 6.872 90.6863 0.608H103.466V11.048H105.626V16.25H102.098V14H91.3703V16.25H87.8423V11.048ZM92.9543 11.048H99.7583V3.56H94.2143C94.2143 7.214 93.5843 9.77 92.9543 11.048ZM112.256 12.002C114.308 12.002 115.01 10.706 115.01 9.95V9.176C114.704 9.302 113.822 9.482 112.814 9.644C111.122 9.932 110.582 10.166 110.582 10.868V10.904C110.582 11.534 111.032 12.002 112.256 12.002ZM115.118 12.614C114.686 13.136 113.606 14.198 111.266 14.198H110.978C108.188 14.198 107.036 12.686 107.036 11.03V10.958C107.036 9.23 108.134 8.168 111.518 7.88L114.254 7.646C114.812 7.592 115.01 7.412 115.01 6.998C115.01 6.53 114.866 6.026 112.922 6.026C111.086 6.026 110.906 6.746 110.906 7.124H107.306V7.088C107.306 6.098 107.702 3.776 112.616 3.776H113.174C118.124 3.776 118.43 5.81 118.43 7.142V10.436C118.43 11.066 118.556 11.318 119.258 11.318H119.636V14H116.792C115.748 14 115.262 13.262 115.118 12.614ZM125.148 14H121.638V4.01H125.148V7.646H130.044V4.01H133.554V14H130.044V10.31H125.148V14ZM144.898 7.952L140.074 14H136.474V4.01H139.984V10.058L144.808 4.01H148.408V14H144.898V7.952ZM159.517 14V6.674H155.557C155.557 9.356 155.467 10.85 155.125 11.768C154.747 12.776 154.243 14 151.597 14H150.499V11.39H150.715C151.345 11.39 151.813 11.174 152.011 10.256C152.155 9.482 152.209 8.636 152.209 4.01H163.027V14H159.517ZM172.199 14.27H171.641C166.259 14.27 165.431 10.994 165.431 9.176V8.924C165.431 7.124 166.259 3.74 171.623 3.74H172.217C177.761 3.74 178.409 7.142 178.409 8.906V9.194C178.409 10.994 177.761 14.27 172.199 14.27ZM171.821 11.642H172.019C174.233 11.642 174.791 10.058 174.791 8.96C174.791 7.826 174.233 6.314 172.019 6.314H171.821C169.517 6.314 169.049 7.826 169.049 8.96C169.049 10.058 169.517 11.642 171.821 11.642ZM189.067 14H180.823V4.01H188.707C190.993 4.01 192.433 4.82 192.433 6.404V6.494C192.433 7.736 191.641 8.474 190.435 8.672C191.659 8.816 192.757 9.68 192.757 11.12V11.192C192.757 13.01 191.569 14 189.067 14ZM184.333 7.988H187.555C188.401 7.988 188.833 7.664 188.833 7.034V6.944C188.833 6.368 188.437 6.026 187.555 6.026H184.333V7.988ZM184.333 11.984H187.699C188.635 11.984 189.157 11.678 189.157 10.976V10.832C189.157 10.202 188.725 9.806 187.699 9.806H184.333V11.984ZM198.712 14H195.202V4.01H198.712V7.646H203.608V4.01H207.118V14H203.608V10.31H198.712V14ZM214.754 12.002C216.806 12.002 217.508 10.706 217.508 9.95V9.176C217.202 9.302 216.32 9.482 215.312 9.644C213.62 9.932 213.08 10.166 213.08 10.868V10.904C213.08 11.534 213.53 12.002 214.754 12.002ZM217.616 12.614C217.184 13.136 216.104 14.198 213.764 14.198H213.476C210.686 14.198 209.534 12.686 209.534 11.03V10.958C209.534 9.23 210.632 8.168 214.016 7.88L216.752 7.646C217.31 7.592 217.508 7.412 217.508 6.998C217.508 6.53 217.364 6.026 215.42 6.026C213.584 6.026 213.404 6.746 213.404 7.124H209.804V7.088C209.804 6.098 210.2 3.776 215.114 3.776H215.672C220.622 3.776 220.928 5.81 220.928 7.142V10.436C220.928 11.066 221.054 11.318 221.756 11.318H222.134V14H219.29C218.246 14 217.76 13.262 217.616 12.614ZM2.656 38V24.608H6.364V35.048H10.756V24.608H14.464V35.048H18.856V24.608H22.564V35.048H24.724V40.25H21.196V38H2.656ZM32.4419 30.08C30.6239 30.08 29.9399 30.818 29.7599 31.862H35.0519C35.0519 31.124 34.6919 30.08 32.4419 30.08ZM35.1239 34.886H38.7779C38.7779 35.714 38.1299 38.234 32.9639 38.234H32.2979C27.3659 38.234 26.1419 35.534 26.1419 33.14V32.888C26.1419 30.638 27.2579 27.794 31.9919 27.794H32.7839C37.8959 27.794 38.8139 30.638 38.8139 33.428V33.752H29.7239C29.8679 34.904 30.6059 35.84 32.7479 35.84C34.7819 35.84 35.0339 35.048 35.1239 34.886ZM50.3978 33.014V32.96C50.3978 31.88 49.8938 30.422 47.6978 30.422H47.5178C45.4118 30.422 44.7458 31.808 44.7458 32.96V33.014C44.7458 34.112 45.4118 35.552 47.5178 35.552H47.6978C49.8938 35.552 50.3978 34.04 50.3978 33.014ZM41.2538 41.438V28.01H44.7278V29.288C45.1598 28.82 46.4738 27.812 48.7418 27.812H48.9758C52.7918 27.812 54.0338 30.422 54.0338 32.798V33.104C54.0338 35.282 52.7558 38.198 48.9578 38.198H48.7058C46.4198 38.198 45.1958 37.154 44.7638 36.722V41.438H41.2538ZM68.9496 33.122V33.356C68.9496 37.1 66.1056 38.27 62.7036 38.27H62.3436C58.8336 38.27 55.9716 36.902 55.9716 32.15V31.088C55.9716 26.282 58.3656 24.698 63.0456 24.698H63.8556C64.9716 24.698 65.0436 24.59 65.0796 24.374H68.5176C68.5176 26.48 67.7256 27.362 65.2776 27.362H63.0456C60.4536 27.362 59.4636 28.172 59.4096 29.99C60.3276 29.036 61.7316 28.388 63.9456 28.388H64.0536C66.4296 28.388 68.9496 29.594 68.9496 33.122ZM62.3796 35.642H62.5776C64.1616 35.642 65.3316 34.85 65.3316 33.212C65.3316 31.628 64.1436 30.854 62.5956 30.854H62.3796C60.6516 30.854 59.5896 31.592 59.5896 33.23C59.5896 34.886 60.6696 35.642 62.3796 35.642ZM75.9924 36.002C78.0444 36.002 78.7464 34.706 78.7464 33.95V33.176C78.4404 33.302 77.5584 33.482 76.5504 33.644C74.8584 33.932 74.3184 34.166 74.3184 34.868V34.904C74.3184 35.534 74.7684 36.002 75.9924 36.002ZM78.8544 36.614C78.4224 37.136 77.3424 38.198 75.0024 38.198H74.7144C71.9244 38.198 70.7724 36.686 70.7724 35.03V34.958C70.7724 33.23 71.8704 32.168 75.2544 31.88L77.9904 31.646C78.5484 31.592 78.7464 31.412 78.7464 30.998C78.7464 30.53 78.6024 30.026 76.6584 30.026C74.8224 30.026 74.6424 30.746 74.6424 31.124H71.0424V31.088C71.0424 30.098 71.4384 27.776 76.3524 27.776H76.9104C81.8604 27.776 82.1664 29.81 82.1664 31.142V34.436C82.1664 35.066 82.2924 35.318 82.9944 35.318H83.3724V38H80.5284C79.4844 38 78.9984 37.262 78.8544 36.614ZM92.808 38L88.92 33.374V38H85.41V28.01H88.92V32.006L92.484 28.01H96.534L92.358 32.492L96.984 38H92.808ZM104.242 38.27H103.684C98.3015 38.27 97.4735 34.994 97.4735 33.176V32.924C97.4735 31.124 98.3015 27.74 103.666 27.74H104.26C109.804 27.74 110.452 31.142 110.452 32.906V33.194C110.452 34.994 109.804 38.27 104.242 38.27ZM103.864 35.642H104.062C106.276 35.642 106.834 34.058 106.834 32.96C106.834 31.826 106.276 30.314 104.062 30.314H103.864C101.56 30.314 101.092 31.826 101.092 32.96C101.092 34.058 101.56 35.642 103.864 35.642ZM121.11 38H112.866V28.01H120.75C123.036 28.01 124.476 28.82 124.476 30.404V30.494C124.476 31.736 123.684 32.474 122.478 32.672C123.702 32.816 124.8 33.68 124.8 35.12V35.192C124.8 37.01 123.612 38 121.11 38ZM116.376 31.988H119.598C120.444 31.988 120.876 31.664 120.876 31.034V30.944C120.876 30.368 120.48 30.026 119.598 30.026H116.376V31.988ZM116.376 35.984H119.742C120.678 35.984 121.2 35.678 121.2 34.976V34.832C121.2 34.202 120.768 33.806 119.742 33.806H116.376V35.984ZM135.597 34.076H139.269C139.269 35.588 138.369 38.27 133.563 38.27H132.681C127.695 38.27 126.759 35.03 126.759 33.14V32.888C126.759 30.998 127.641 27.74 132.663 27.74H133.491C138.315 27.74 139.269 30.368 139.269 31.808V31.826H135.597C135.543 31.538 135.201 30.296 133.131 30.296H132.951C130.881 30.296 130.395 31.718 130.395 32.924V32.942C130.395 34.184 130.989 35.66 133.023 35.66H133.203C135.291 35.66 135.597 34.31 135.597 34.076ZM149.093 38L145.205 33.374V38H141.695V28.01H145.205V32.006L148.769 28.01H152.819L148.643 32.492L153.269 38H149.093ZM159.084 36.002C161.136 36.002 161.838 34.706 161.838 33.95V33.176C161.532 33.302 160.65 33.482 159.642 33.644C157.95 33.932 157.41 34.166 157.41 34.868V34.904C157.41 35.534 157.86 36.002 159.084 36.002ZM161.946 36.614C161.514 37.136 160.434 38.198 158.094 38.198H157.806C155.016 38.198 153.864 36.686 153.864 35.03V34.958C153.864 33.23 154.962 32.168 158.346 31.88L161.082 31.646C161.64 31.592 161.838 31.412 161.838 30.998C161.838 30.53 161.694 30.026 159.75 30.026C157.914 30.026 157.734 30.746 157.734 31.124H154.134V31.088C154.134 30.098 154.53 27.776 159.444 27.776H160.002C164.952 27.776 165.258 29.81 165.258 31.142V34.436C165.258 35.066 165.384 35.318 166.086 35.318H166.464V38H163.62C162.576 38 162.09 37.262 161.946 36.614ZM176.784 34.652H174.426L171.51 38H167.55L170.808 34.274C169.08 33.932 168.09 32.942 168.09 31.43V31.214C168.09 29.396 169.566 28.01 172.068 28.01H180.294V38H176.784V34.652ZM176.784 30.314H173.022C172.248 30.314 171.6 30.494 171.6 31.286V31.358C171.6 32.132 172.266 32.366 173.04 32.366H176.784V30.314Z" fill="url(#paint2_radial_2017_875)"/>
<path d="M11.062 14V8.096L5.518 14H0.91L7.57 6.908L1 0.608H5.698L11.062 5.738V0.608H14.77V5.738L20.134 0.608H24.742L18.352 6.746L25.048 14H20.314L14.77 8.096V14H11.062ZM30.676 12.002C32.728 12.002 33.43 10.706 33.43 9.95V9.176C33.124 9.302 32.242 9.482 31.234 9.644C29.542 9.932 29.002 10.166 29.002 10.868V10.904C29.002 11.534 29.452 12.002 30.676 12.002ZM33.538 12.614C33.106 13.136 32.026 14.198 29.686 14.198H29.398C26.608 14.198 25.456 12.686 25.456 11.03V10.958C25.456 9.23 26.554 8.168 29.938 7.88L32.674 7.646C33.232 7.592 33.43 7.412 33.43 6.998C33.43 6.53 33.286 6.026 31.342 6.026C29.506 6.026 29.326 6.746 29.326 7.124H25.726V7.088C25.726 6.098 26.122 3.776 31.036 3.776H31.594C36.544 3.776 36.85 5.81 36.85 7.142V10.436C36.85 11.066 36.976 11.318 37.678 11.318H38.056V14H35.212C34.168 14 33.682 13.262 33.538 12.614ZM43.5676 14H40.0576V4.01H43.5676V7.646H48.4636V4.01H51.9736V14H48.4636V10.31H43.5676V14ZM58.4035 14H54.8935V4.01H58.4035V7.646H63.2995V4.01H66.8095V14H63.2995V10.31H58.4035V14ZM74.4455 12.002C76.4975 12.002 77.1995 10.706 77.1995 9.95V9.176C76.8935 9.302 76.0115 9.482 75.0035 9.644C73.3115 9.932 72.7715 10.166 72.7715 10.868V10.904C72.7715 11.534 73.2215 12.002 74.4455 12.002ZM77.3075 12.614C76.8755 13.136 75.7955 14.198 73.4555 14.198H73.1675C70.3775 14.198 69.2255 12.686 69.2255 11.03V10.958C69.2255 9.23 70.3235 8.168 73.7075 7.88L76.4435 7.646C77.0015 7.592 77.1995 7.412 77.1995 6.998C77.1995 6.53 77.0555 6.026 75.1115 6.026C73.2755 6.026 73.0955 6.746 73.0955 7.124H69.4955V7.088C69.4955 6.098 69.8915 3.776 74.8055 3.776H75.3635C80.3135 3.776 80.6195 5.81 80.6195 7.142V10.436C80.6195 11.066 80.7455 11.318 81.4475 11.318H81.8255V14H78.9815C77.9375 14 77.4515 13.262 77.3075 12.614ZM87.8423 11.048H89.1923C90.1103 9.374 90.6863 6.872 90.6863 0.608H103.466V11.048H105.626V16.25H102.098V14H91.3703V16.25H87.8423V11.048ZM92.9543 11.048H99.7583V3.56H94.2143C94.2143 7.214 93.5843 9.77 92.9543 11.048ZM112.256 12.002C114.308 12.002 115.01 10.706 115.01 9.95V9.176C114.704 9.302 113.822 9.482 112.814 9.644C111.122 9.932 110.582 10.166 110.582 10.868V10.904C110.582 11.534 111.032 12.002 112.256 12.002ZM115.118 12.614C114.686 13.136 113.606 14.198 111.266 14.198H110.978C108.188 14.198 107.036 12.686 107.036 11.03V10.958C107.036 9.23 108.134 8.168 111.518 7.88L114.254 7.646C114.812 7.592 115.01 7.412 115.01 6.998C115.01 6.53 114.866 6.026 112.922 6.026C111.086 6.026 110.906 6.746 110.906 7.124H107.306V7.088C107.306 6.098 107.702 3.776 112.616 3.776H113.174C118.124 3.776 118.43 5.81 118.43 7.142V10.436C118.43 11.066 118.556 11.318 119.258 11.318H119.636V14H116.792C115.748 14 115.262 13.262 115.118 12.614ZM125.148 14H121.638V4.01H125.148V7.646H130.044V4.01H133.554V14H130.044V10.31H125.148V14ZM144.898 7.952L140.074 14H136.474V4.01H139.984V10.058L144.808 4.01H148.408V14H144.898V7.952ZM159.517 14V6.674H155.557C155.557 9.356 155.467 10.85 155.125 11.768C154.747 12.776 154.243 14 151.597 14H150.499V11.39H150.715C151.345 11.39 151.813 11.174 152.011 10.256C152.155 9.482 152.209 8.636 152.209 4.01H163.027V14H159.517ZM172.199 14.27H171.641C166.259 14.27 165.431 10.994 165.431 9.176V8.924C165.431 7.124 166.259 3.74 171.623 3.74H172.217C177.761 3.74 178.409 7.142 178.409 8.906V9.194C178.409 10.994 177.761 14.27 172.199 14.27ZM171.821 11.642H172.019C174.233 11.642 174.791 10.058 174.791 8.96C174.791 7.826 174.233 6.314 172.019 6.314H171.821C169.517 6.314 169.049 7.826 169.049 8.96C169.049 10.058 169.517 11.642 171.821 11.642ZM189.067 14H180.823V4.01H188.707C190.993 4.01 192.433 4.82 192.433 6.404V6.494C192.433 7.736 191.641 8.474 190.435 8.672C191.659 8.816 192.757 9.68 192.757 11.12V11.192C192.757 13.01 191.569 14 189.067 14ZM184.333 7.988H187.555C188.401 7.988 188.833 7.664 188.833 7.034V6.944C188.833 6.368 188.437 6.026 187.555 6.026H184.333V7.988ZM184.333 11.984H187.699C188.635 11.984 189.157 11.678 189.157 10.976V10.832C189.157 10.202 188.725 9.806 187.699 9.806H184.333V11.984ZM198.712 14H195.202V4.01H198.712V7.646H203.608V4.01H207.118V14H203.608V10.31H198.712V14ZM214.754 12.002C216.806 12.002 217.508 10.706 217.508 9.95V9.176C217.202 9.302 216.32 9.482 215.312 9.644C213.62 9.932 213.08 10.166 213.08 10.868V10.904C213.08 11.534 213.53 12.002 214.754 12.002ZM217.616 12.614C217.184 13.136 216.104 14.198 213.764 14.198H213.476C210.686 14.198 209.534 12.686 209.534 11.03V10.958C209.534 9.23 210.632 8.168 214.016 7.88L216.752 7.646C217.31 7.592 217.508 7.412 217.508 6.998C217.508 6.53 217.364 6.026 215.42 6.026C213.584 6.026 213.404 6.746 213.404 7.124H209.804V7.088C209.804 6.098 210.2 3.776 215.114 3.776H215.672C220.622 3.776 220.928 5.81 220.928 7.142V10.436C220.928 11.066 221.054 11.318 221.756 11.318H222.134V14H219.29C218.246 14 217.76 13.262 217.616 12.614ZM2.656 38V24.608H6.364V35.048H10.756V24.608H14.464V35.048H18.856V24.608H22.564V35.048H24.724V40.25H21.196V38H2.656ZM32.4419 30.08C30.6239 30.08 29.9399 30.818 29.7599 31.862H35.0519C35.0519 31.124 34.6919 30.08 32.4419 30.08ZM35.1239 34.886H38.7779C38.7779 35.714 38.1299 38.234 32.9639 38.234H32.2979C27.3659 38.234 26.1419 35.534 26.1419 33.14V32.888C26.1419 30.638 27.2579 27.794 31.9919 27.794H32.7839C37.8959 27.794 38.8139 30.638 38.8139 33.428V33.752H29.7239C29.8679 34.904 30.6059 35.84 32.7479 35.84C34.7819 35.84 35.0339 35.048 35.1239 34.886ZM50.3978 33.014V32.96C50.3978 31.88 49.8938 30.422 47.6978 30.422H47.5178C45.4118 30.422 44.7458 31.808 44.7458 32.96V33.014C44.7458 34.112 45.4118 35.552 47.5178 35.552H47.6978C49.8938 35.552 50.3978 34.04 50.3978 33.014ZM41.2538 41.438V28.01H44.7278V29.288C45.1598 28.82 46.4738 27.812 48.7418 27.812H48.9758C52.7918 27.812 54.0338 30.422 54.0338 32.798V33.104C54.0338 35.282 52.7558 38.198 48.9578 38.198H48.7058C46.4198 38.198 45.1958 37.154 44.7638 36.722V41.438H41.2538ZM68.9496 33.122V33.356C68.9496 37.1 66.1056 38.27 62.7036 38.27H62.3436C58.8336 38.27 55.9716 36.902 55.9716 32.15V31.088C55.9716 26.282 58.3656 24.698 63.0456 24.698H63.8556C64.9716 24.698 65.0436 24.59 65.0796 24.374H68.5176C68.5176 26.48 67.7256 27.362 65.2776 27.362H63.0456C60.4536 27.362 59.4636 28.172 59.4096 29.99C60.3276 29.036 61.7316 28.388 63.9456 28.388H64.0536C66.4296 28.388 68.9496 29.594 68.9496 33.122ZM62.3796 35.642H62.5776C64.1616 35.642 65.3316 34.85 65.3316 33.212C65.3316 31.628 64.1436 30.854 62.5956 30.854H62.3796C60.6516 30.854 59.5896 31.592 59.5896 33.23C59.5896 34.886 60.6696 35.642 62.3796 35.642ZM75.9924 36.002C78.0444 36.002 78.7464 34.706 78.7464 33.95V33.176C78.4404 33.302 77.5584 33.482 76.5504 33.644C74.8584 33.932 74.3184 34.166 74.3184 34.868V34.904C74.3184 35.534 74.7684 36.002 75.9924 36.002ZM78.8544 36.614C78.4224 37.136 77.3424 38.198 75.0024 38.198H74.7144C71.9244 38.198 70.7724 36.686 70.7724 35.03V34.958C70.7724 33.23 71.8704 32.168 75.2544 31.88L77.9904 31.646C78.5484 31.592 78.7464 31.412 78.7464 30.998C78.7464 30.53 78.6024 30.026 76.6584 30.026C74.8224 30.026 74.6424 30.746 74.6424 31.124H71.0424V31.088C71.0424 30.098 71.4384 27.776 76.3524 27.776H76.9104C81.8604 27.776 82.1664 29.81 82.1664 31.142V34.436C82.1664 35.066 82.2924 35.318 82.9944 35.318H83.3724V38H80.5284C79.4844 38 78.9984 37.262 78.8544 36.614ZM92.808 38L88.92 33.374V38H85.41V28.01H88.92V32.006L92.484 28.01H96.534L92.358 32.492L96.984 38H92.808ZM104.242 38.27H103.684C98.3015 38.27 97.4735 34.994 97.4735 33.176V32.924C97.4735 31.124 98.3015 27.74 103.666 27.74H104.26C109.804 27.74 110.452 31.142 110.452 32.906V33.194C110.452 34.994 109.804 38.27 104.242 38.27ZM103.864 35.642H104.062C106.276 35.642 106.834 34.058 106.834 32.96C106.834 31.826 106.276 30.314 104.062 30.314H103.864C101.56 30.314 101.092 31.826 101.092 32.96C101.092 34.058 101.56 35.642 103.864 35.642ZM121.11 38H112.866V28.01H120.75C123.036 28.01 124.476 28.82 124.476 30.404V30.494C124.476 31.736 123.684 32.474 122.478 32.672C123.702 32.816 124.8 33.68 124.8 35.12V35.192C124.8 37.01 123.612 38 121.11 38ZM116.376 31.988H119.598C120.444 31.988 120.876 31.664 120.876 31.034V30.944C120.876 30.368 120.48 30.026 119.598 30.026H116.376V31.988ZM116.376 35.984H119.742C120.678 35.984 121.2 35.678 121.2 34.976V34.832C121.2 34.202 120.768 33.806 119.742 33.806H116.376V35.984ZM135.597 34.076H139.269C139.269 35.588 138.369 38.27 133.563 38.27H132.681C127.695 38.27 126.759 35.03 126.759 33.14V32.888C126.759 30.998 127.641 27.74 132.663 27.74H133.491C138.315 27.74 139.269 30.368 139.269 31.808V31.826H135.597C135.543 31.538 135.201 30.296 133.131 30.296H132.951C130.881 30.296 130.395 31.718 130.395 32.924V32.942C130.395 34.184 130.989 35.66 133.023 35.66H133.203C135.291 35.66 135.597 34.31 135.597 34.076ZM149.093 38L145.205 33.374V38H141.695V28.01H145.205V32.006L148.769 28.01H152.819L148.643 32.492L153.269 38H149.093ZM159.084 36.002C161.136 36.002 161.838 34.706 161.838 33.95V33.176C161.532 33.302 160.65 33.482 159.642 33.644C157.95 33.932 157.41 34.166 157.41 34.868V34.904C157.41 35.534 157.86 36.002 159.084 36.002ZM161.946 36.614C161.514 37.136 160.434 38.198 158.094 38.198H157.806C155.016 38.198 153.864 36.686 153.864 35.03V34.958C153.864 33.23 154.962 32.168 158.346 31.88L161.082 31.646C161.64 31.592 161.838 31.412 161.838 30.998C161.838 30.53 161.694 30.026 159.75 30.026C157.914 30.026 157.734 30.746 157.734 31.124H154.134V31.088C154.134 30.098 154.53 27.776 159.444 27.776H160.002C164.952 27.776 165.258 29.81 165.258 31.142V34.436C165.258 35.066 165.384 35.318 166.086 35.318H166.464V38H163.62C162.576 38 162.09 37.262 161.946 36.614ZM176.784 34.652H174.426L171.51 38H167.55L170.808 34.274C169.08 33.932 168.09 32.942 168.09 31.43V31.214C168.09 29.396 169.566 28.01 172.068 28.01H180.294V38H176.784V34.652ZM176.784 30.314H173.022C172.248 30.314 171.6 30.494 171.6 31.286V31.358C171.6 32.132 172.266 32.366 173.04 32.366H176.784V30.314Z" fill="#C1A875" style="mix-blend-mode:color"/>
<defs>
<linearGradient id="paint0_linear_2017_875" x1="1" y1="18" x2="223" y2="18" gradientUnits="userSpaceOnUse">
<stop stop-color="#576167"/>
<stop offset="0.191294" stop-color="#9EA1A2"/>
<stop offset="0.396166" stop-color="#848989"/>
<stop offset="0.62055" stop-color="#576167"/>
<stop offset="0.830299" stop-color="#757A7C"/>
<stop offset="1" stop-color="#576167"/>
</linearGradient>
<radialGradient id="paint1_radial_2017_875" cx="0" cy="0" r="1" gradientUnits="userSpaceOnUse" gradientTransform="translate(119.226 -0.404494) rotate(90) scale(35.6629 167.95)">
<stop stop-color="white"/>
<stop offset="1" stop-color="white" stop-opacity="0"/>
</radialGradient>
<radialGradient id="paint2_radial_2017_875" cx="0" cy="0" r="1" gradientUnits="userSpaceOnUse" gradientTransform="translate(131.783 53.3258) rotate(-89.6015) scale(51.1024 240.159)">
<stop stop-color="white"/>
<stop offset="1" stop-color="white" stop-opacity="0"/>
</radialGradient>
</defs>
</svg>
