<svg width="135" height="66" viewBox="0 0 135 66" fill="none" xmlns="http://www.w3.org/2000/svg">
<path d="M1.656 14V0.608H11.43C15.264 0.608 16.218 2.282 16.218 3.776V3.974C16.218 5.666 14.76 6.476 13.752 6.62C15.264 6.872 16.884 7.772 16.884 9.932V10.13C16.884 11.948 15.786 14 11.484 14H1.656ZM10.89 3.398H5.364V5.792H10.89C12.024 5.792 12.348 5.252 12.348 4.622V4.586C12.348 3.938 11.988 3.398 10.89 3.398ZM11.178 8.42H5.364V11.066H11.178C12.474 11.066 12.852 10.382 12.852 9.716V9.644C12.852 8.978 12.474 8.42 11.178 8.42ZM27.4722 14V6.674H23.5122C23.5122 9.356 23.4222 10.85 23.0802 11.768C22.7022 12.776 22.1982 14 19.5522 14H18.4542V11.39H18.6702C19.3002 11.39 19.7682 11.174 19.9662 10.256C20.1102 9.482 20.1642 8.636 20.1642 4.01H30.9822V14H27.4722ZM38.6056 12.002C40.6576 12.002 41.3596 10.706 41.3596 9.95V9.176C41.0536 9.302 40.1716 9.482 39.1636 9.644C37.4716 9.932 36.9316 10.166 36.9316 10.868V10.904C36.9316 11.534 37.3816 12.002 38.6056 12.002ZM41.4676 12.614C41.0356 13.136 39.9556 14.198 37.6156 14.198H37.3276C34.5376 14.198 33.3856 12.686 33.3856 11.03V10.958C33.3856 9.23 34.4836 8.168 37.8676 7.88L40.6036 7.646C41.1616 7.592 41.3596 7.412 41.3596 6.998C41.3596 6.53 41.2156 6.026 39.2716 6.026C37.4356 6.026 37.2556 6.746 37.2556 7.124H33.6556V7.088C33.6556 6.098 34.0516 3.776 38.9656 3.776H39.5236C44.4736 3.776 44.7796 5.81 44.7796 7.142V10.436C44.7796 11.066 44.9056 11.318 45.6076 11.318H45.9856V14H43.1416C42.0976 14 41.6116 13.262 41.4676 12.614ZM47.5109 16.124V11.336H48.7169C49.4009 9.968 49.5089 6.998 49.5989 4.01H60.1649V11.336H61.9649V16.124H58.6349V14H50.8409V16.124H47.5109ZM52.0289 11.336H56.6549V6.674H52.7489C52.6949 7.97 52.5149 9.95 52.0289 11.336ZM72.4777 7.952L67.6537 14H64.0537V4.01H67.5637V10.058L72.3877 4.01H75.9877V14H72.4777V7.952ZM82.1472 7.268V14H78.9072V4.01H83.8572L86.8272 10.382L89.7972 4.01H94.5672V14H91.0572V7.268L87.9432 14H85.2612L82.1472 7.268ZM105.788 7.952L100.964 14H97.3643V4.01H100.874V10.058L105.698 4.01H109.298V14H105.788V7.952ZM121.398 9.014V8.96C121.398 7.88 120.894 6.422 118.698 6.422H118.518C116.412 6.422 115.746 7.808 115.746 8.96V9.014C115.746 10.112 116.412 11.552 118.518 11.552H118.698C120.894 11.552 121.398 10.04 121.398 9.014ZM112.254 17.438V4.01H115.728V5.288C116.16 4.82 117.474 3.812 119.742 3.812H119.976C123.792 3.812 125.034 6.422 125.034 8.798V9.104C125.034 11.282 123.756 14.198 119.958 14.198H119.706C117.42 14.198 116.196 13.154 115.764 12.722V17.438H112.254ZM10.998 32.762L8.568 27.308L6.21 32.762H10.998ZM13.338 38L12.24 35.516H5.004L3.924 38H0.198L6.138 24.608H11.106L17.316 38H13.338ZM28.1458 33.014V32.96C28.1458 31.88 27.6418 30.422 25.4458 30.422H25.2658C23.1598 30.422 22.4938 31.808 22.4938 32.96V33.014C22.4938 34.112 23.1598 35.552 25.2658 35.552H25.4458C27.6418 35.552 28.1458 34.04 28.1458 33.014ZM19.0018 41.438V28.01H22.4758V29.288C22.9078 28.82 24.2218 27.812 26.4898 27.812H26.7238C30.5398 27.812 31.7818 30.422 31.7818 32.798V33.104C31.7818 35.282 30.5038 38.198 26.7058 38.198H26.4538C24.1678 38.198 22.9438 37.154 22.5118 36.722V41.438H19.0018ZM37.0856 38V30.674H33.2156V28.01H44.4656V30.674H40.5956V38H37.0856ZM52.1841 30.08C50.3661 30.08 49.6821 30.818 49.5021 31.862H54.7941C54.7941 31.124 54.4341 30.08 52.1841 30.08ZM54.8661 34.886H58.5201C58.5201 35.714 57.8721 38.234 52.7061 38.234H52.0401C47.1081 38.234 45.8841 35.534 45.8841 33.14V32.888C45.8841 30.638 47.0001 27.794 51.7341 27.794H52.5261C57.6381 27.794 58.5561 30.638 58.5561 33.428V33.752H49.4661C49.6101 34.904 50.3481 35.84 52.4901 35.84C54.5241 35.84 54.7761 35.048 54.8661 34.886ZM64.2 31.268V38H60.96V28.01H65.91L68.88 34.382L71.85 28.01H76.62V38H73.11V31.268L69.996 38H67.314L64.2 31.268ZM85.681 38.27H85.123C79.741 38.27 78.913 34.994 78.913 33.176V32.924C78.913 31.124 79.741 27.74 85.105 27.74H85.699C91.243 27.74 91.891 31.142 91.891 32.906V33.194C91.891 34.994 91.243 38.27 85.681 38.27ZM85.303 35.642H85.501C87.715 35.642 88.273 34.058 88.273 32.96C88.273 31.826 87.715 30.314 85.501 30.314H85.303C82.999 30.314 82.531 31.826 82.531 32.96C82.531 34.058 82.999 35.642 85.303 35.642ZM102.55 38H94.3057V28.01H102.19C104.476 28.01 105.916 28.82 105.916 30.404V30.494C105.916 31.736 105.124 32.474 103.918 32.672C105.142 32.816 106.24 33.68 106.24 35.12V35.192C106.24 37.01 105.052 38 102.55 38ZM97.8157 31.988H101.038C101.884 31.988 102.316 31.664 102.316 31.034V30.944C102.316 30.368 101.92 30.026 101.038 30.026H97.8157V31.988ZM97.8157 35.984H101.182C102.118 35.984 102.64 35.678 102.64 34.976V34.832C102.64 34.202 102.208 33.806 101.182 33.806H97.8157V35.984ZM117.109 31.952L112.285 38H108.685V28.01H112.195V34.058L117.019 28.01H120.619V38H117.109V31.952ZM130.954 28.01H134.464V38H130.954V34.562C130.18 34.652 129.28 34.742 128.344 34.742C124.384 34.742 122.89 33.626 122.89 30.458V28.01H126.4V29.81C126.4 31.682 127.03 32.006 128.884 32.006C129.586 32.006 130.396 31.952 130.954 31.88V28.01ZM1.656 62V48.608H15.534V62H11.826V51.56H5.364V62H1.656ZM24.4634 54.08C22.6454 54.08 21.9614 54.818 21.7814 55.862H27.0734C27.0734 55.124 26.7134 54.08 24.4634 54.08ZM27.1454 58.886H30.7994C30.7994 59.714 30.1514 62.234 24.9854 62.234H24.3194C19.3874 62.234 18.1634 59.534 18.1634 57.14V56.888C18.1634 54.638 19.2794 51.794 24.0134 51.794H24.8054C29.9174 51.794 30.8354 54.638 30.8354 57.428V57.752H21.7454C21.8894 58.904 22.6274 59.84 24.7694 59.84C26.8034 59.84 27.0554 59.048 27.1454 58.886ZM35.9255 62V54.674H32.0555V52.01H43.3055V54.674H39.4355V62H35.9255ZM54.39 57.014V56.96C54.39 55.88 53.886 54.422 51.69 54.422H51.51C49.404 54.422 48.738 55.808 48.738 56.96V57.014C48.738 58.112 49.404 59.552 51.51 59.552H51.69C53.886 59.552 54.39 58.04 54.39 57.014ZM45.246 65.438V52.01H48.72V53.288C49.152 52.82 50.466 51.812 52.734 51.812H52.968C56.784 51.812 58.026 54.422 58.026 56.798V57.104C58.026 59.282 56.748 62.198 52.95 62.198H52.698C50.412 62.198 49.188 61.154 48.756 60.722V65.438H45.246ZM66.7318 62.27H66.1738C60.7918 62.27 59.9638 58.994 59.9638 57.176V56.924C59.9638 55.124 60.7918 51.74 66.1558 51.74H66.7498C72.2938 51.74 72.9418 55.142 72.9418 56.906V57.194C72.9418 58.994 72.2938 62.27 66.7318 62.27ZM66.3538 59.642H66.5518C68.7658 59.642 69.3238 58.058 69.3238 56.96C69.3238 55.826 68.7658 54.314 66.5518 54.314H66.3538C64.0498 54.314 63.5818 55.826 63.5818 56.96C63.5818 58.058 64.0498 59.642 66.3538 59.642ZM83.6004 62H75.3564V52.01H83.2404C85.5264 52.01 86.9664 52.82 86.9664 54.404V54.494C86.9664 55.736 86.1744 56.474 84.9684 56.672C86.1924 56.816 87.2904 57.68 87.2904 59.12V59.192C87.2904 61.01 86.1024 62 83.6004 62ZM78.8664 55.988H82.0884C82.9344 55.988 83.3664 55.664 83.3664 55.034V54.944C83.3664 54.368 82.9704 54.026 82.0884 54.026H78.8664V55.988ZM78.8664 59.984H82.2324C83.1684 59.984 83.6904 59.678 83.6904 58.976V58.832C83.6904 58.202 83.2584 57.806 82.2324 57.806H78.8664V59.984Z" fill="url(#paint0_linear_2017_819)"/>
<path d="M1.656 14V0.608H11.43C15.264 0.608 16.218 2.282 16.218 3.776V3.974C16.218 5.666 14.76 6.476 13.752 6.62C15.264 6.872 16.884 7.772 16.884 9.932V10.13C16.884 11.948 15.786 14 11.484 14H1.656ZM10.89 3.398H5.364V5.792H10.89C12.024 5.792 12.348 5.252 12.348 4.622V4.586C12.348 3.938 11.988 3.398 10.89 3.398ZM11.178 8.42H5.364V11.066H11.178C12.474 11.066 12.852 10.382 12.852 9.716V9.644C12.852 8.978 12.474 8.42 11.178 8.42ZM27.4722 14V6.674H23.5122C23.5122 9.356 23.4222 10.85 23.0802 11.768C22.7022 12.776 22.1982 14 19.5522 14H18.4542V11.39H18.6702C19.3002 11.39 19.7682 11.174 19.9662 10.256C20.1102 9.482 20.1642 8.636 20.1642 4.01H30.9822V14H27.4722ZM38.6056 12.002C40.6576 12.002 41.3596 10.706 41.3596 9.95V9.176C41.0536 9.302 40.1716 9.482 39.1636 9.644C37.4716 9.932 36.9316 10.166 36.9316 10.868V10.904C36.9316 11.534 37.3816 12.002 38.6056 12.002ZM41.4676 12.614C41.0356 13.136 39.9556 14.198 37.6156 14.198H37.3276C34.5376 14.198 33.3856 12.686 33.3856 11.03V10.958C33.3856 9.23 34.4836 8.168 37.8676 7.88L40.6036 7.646C41.1616 7.592 41.3596 7.412 41.3596 6.998C41.3596 6.53 41.2156 6.026 39.2716 6.026C37.4356 6.026 37.2556 6.746 37.2556 7.124H33.6556V7.088C33.6556 6.098 34.0516 3.776 38.9656 3.776H39.5236C44.4736 3.776 44.7796 5.81 44.7796 7.142V10.436C44.7796 11.066 44.9056 11.318 45.6076 11.318H45.9856V14H43.1416C42.0976 14 41.6116 13.262 41.4676 12.614ZM47.5109 16.124V11.336H48.7169C49.4009 9.968 49.5089 6.998 49.5989 4.01H60.1649V11.336H61.9649V16.124H58.6349V14H50.8409V16.124H47.5109ZM52.0289 11.336H56.6549V6.674H52.7489C52.6949 7.97 52.5149 9.95 52.0289 11.336ZM72.4777 7.952L67.6537 14H64.0537V4.01H67.5637V10.058L72.3877 4.01H75.9877V14H72.4777V7.952ZM82.1472 7.268V14H78.9072V4.01H83.8572L86.8272 10.382L89.7972 4.01H94.5672V14H91.0572V7.268L87.9432 14H85.2612L82.1472 7.268ZM105.788 7.952L100.964 14H97.3643V4.01H100.874V10.058L105.698 4.01H109.298V14H105.788V7.952ZM121.398 9.014V8.96C121.398 7.88 120.894 6.422 118.698 6.422H118.518C116.412 6.422 115.746 7.808 115.746 8.96V9.014C115.746 10.112 116.412 11.552 118.518 11.552H118.698C120.894 11.552 121.398 10.04 121.398 9.014ZM112.254 17.438V4.01H115.728V5.288C116.16 4.82 117.474 3.812 119.742 3.812H119.976C123.792 3.812 125.034 6.422 125.034 8.798V9.104C125.034 11.282 123.756 14.198 119.958 14.198H119.706C117.42 14.198 116.196 13.154 115.764 12.722V17.438H112.254ZM10.998 32.762L8.568 27.308L6.21 32.762H10.998ZM13.338 38L12.24 35.516H5.004L3.924 38H0.198L6.138 24.608H11.106L17.316 38H13.338ZM28.1458 33.014V32.96C28.1458 31.88 27.6418 30.422 25.4458 30.422H25.2658C23.1598 30.422 22.4938 31.808 22.4938 32.96V33.014C22.4938 34.112 23.1598 35.552 25.2658 35.552H25.4458C27.6418 35.552 28.1458 34.04 28.1458 33.014ZM19.0018 41.438V28.01H22.4758V29.288C22.9078 28.82 24.2218 27.812 26.4898 27.812H26.7238C30.5398 27.812 31.7818 30.422 31.7818 32.798V33.104C31.7818 35.282 30.5038 38.198 26.7058 38.198H26.4538C24.1678 38.198 22.9438 37.154 22.5118 36.722V41.438H19.0018ZM37.0856 38V30.674H33.2156V28.01H44.4656V30.674H40.5956V38H37.0856ZM52.1841 30.08C50.3661 30.08 49.6821 30.818 49.5021 31.862H54.7941C54.7941 31.124 54.4341 30.08 52.1841 30.08ZM54.8661 34.886H58.5201C58.5201 35.714 57.8721 38.234 52.7061 38.234H52.0401C47.1081 38.234 45.8841 35.534 45.8841 33.14V32.888C45.8841 30.638 47.0001 27.794 51.7341 27.794H52.5261C57.6381 27.794 58.5561 30.638 58.5561 33.428V33.752H49.4661C49.6101 34.904 50.3481 35.84 52.4901 35.84C54.5241 35.84 54.7761 35.048 54.8661 34.886ZM64.2 31.268V38H60.96V28.01H65.91L68.88 34.382L71.85 28.01H76.62V38H73.11V31.268L69.996 38H67.314L64.2 31.268ZM85.681 38.27H85.123C79.741 38.27 78.913 34.994 78.913 33.176V32.924C78.913 31.124 79.741 27.74 85.105 27.74H85.699C91.243 27.74 91.891 31.142 91.891 32.906V33.194C91.891 34.994 91.243 38.27 85.681 38.27ZM85.303 35.642H85.501C87.715 35.642 88.273 34.058 88.273 32.96C88.273 31.826 87.715 30.314 85.501 30.314H85.303C82.999 30.314 82.531 31.826 82.531 32.96C82.531 34.058 82.999 35.642 85.303 35.642ZM102.55 38H94.3057V28.01H102.19C104.476 28.01 105.916 28.82 105.916 30.404V30.494C105.916 31.736 105.124 32.474 103.918 32.672C105.142 32.816 106.24 33.68 106.24 35.12V35.192C106.24 37.01 105.052 38 102.55 38ZM97.8157 31.988H101.038C101.884 31.988 102.316 31.664 102.316 31.034V30.944C102.316 30.368 101.92 30.026 101.038 30.026H97.8157V31.988ZM97.8157 35.984H101.182C102.118 35.984 102.64 35.678 102.64 34.976V34.832C102.64 34.202 102.208 33.806 101.182 33.806H97.8157V35.984ZM117.109 31.952L112.285 38H108.685V28.01H112.195V34.058L117.019 28.01H120.619V38H117.109V31.952ZM130.954 28.01H134.464V38H130.954V34.562C130.18 34.652 129.28 34.742 128.344 34.742C124.384 34.742 122.89 33.626 122.89 30.458V28.01H126.4V29.81C126.4 31.682 127.03 32.006 128.884 32.006C129.586 32.006 130.396 31.952 130.954 31.88V28.01ZM1.656 62V48.608H15.534V62H11.826V51.56H5.364V62H1.656ZM24.4634 54.08C22.6454 54.08 21.9614 54.818 21.7814 55.862H27.0734C27.0734 55.124 26.7134 54.08 24.4634 54.08ZM27.1454 58.886H30.7994C30.7994 59.714 30.1514 62.234 24.9854 62.234H24.3194C19.3874 62.234 18.1634 59.534 18.1634 57.14V56.888C18.1634 54.638 19.2794 51.794 24.0134 51.794H24.8054C29.9174 51.794 30.8354 54.638 30.8354 57.428V57.752H21.7454C21.8894 58.904 22.6274 59.84 24.7694 59.84C26.8034 59.84 27.0554 59.048 27.1454 58.886ZM35.9255 62V54.674H32.0555V52.01H43.3055V54.674H39.4355V62H35.9255ZM54.39 57.014V56.96C54.39 55.88 53.886 54.422 51.69 54.422H51.51C49.404 54.422 48.738 55.808 48.738 56.96V57.014C48.738 58.112 49.404 59.552 51.51 59.552H51.69C53.886 59.552 54.39 58.04 54.39 57.014ZM45.246 65.438V52.01H48.72V53.288C49.152 52.82 50.466 51.812 52.734 51.812H52.968C56.784 51.812 58.026 54.422 58.026 56.798V57.104C58.026 59.282 56.748 62.198 52.95 62.198H52.698C50.412 62.198 49.188 61.154 48.756 60.722V65.438H45.246ZM66.7318 62.27H66.1738C60.7918 62.27 59.9638 58.994 59.9638 57.176V56.924C59.9638 55.124 60.7918 51.74 66.1558 51.74H66.7498C72.2938 51.74 72.9418 55.142 72.9418 56.906V57.194C72.9418 58.994 72.2938 62.27 66.7318 62.27ZM66.3538 59.642H66.5518C68.7658 59.642 69.3238 58.058 69.3238 56.96C69.3238 55.826 68.7658 54.314 66.5518 54.314H66.3538C64.0498 54.314 63.5818 55.826 63.5818 56.96C63.5818 58.058 64.0498 59.642 66.3538 59.642ZM83.6004 62H75.3564V52.01H83.2404C85.5264 52.01 86.9664 52.82 86.9664 54.404V54.494C86.9664 55.736 86.1744 56.474 84.9684 56.672C86.1924 56.816 87.2904 57.68 87.2904 59.12V59.192C87.2904 61.01 86.1024 62 83.6004 62ZM78.8664 55.988H82.0884C82.9344 55.988 83.3664 55.664 83.3664 55.034V54.944C83.3664 54.368 82.9704 54.026 82.0884 54.026H78.8664V55.988ZM78.8664 59.984H82.2324C83.1684 59.984 83.6904 59.678 83.6904 58.976V58.832C83.6904 58.202 83.2584 57.806 82.2324 57.806H78.8664V59.984Z" fill="url(#paint1_radial_2017_819)" style="mix-blend-mode:overlay"/>
<path d="M1.656 14V0.608H11.43C15.264 0.608 16.218 2.282 16.218 3.776V3.974C16.218 5.666 14.76 6.476 13.752 6.62C15.264 6.872 16.884 7.772 16.884 9.932V10.13C16.884 11.948 15.786 14 11.484 14H1.656ZM10.89 3.398H5.364V5.792H10.89C12.024 5.792 12.348 5.252 12.348 4.622V4.586C12.348 3.938 11.988 3.398 10.89 3.398ZM11.178 8.42H5.364V11.066H11.178C12.474 11.066 12.852 10.382 12.852 9.716V9.644C12.852 8.978 12.474 8.42 11.178 8.42ZM27.4722 14V6.674H23.5122C23.5122 9.356 23.4222 10.85 23.0802 11.768C22.7022 12.776 22.1982 14 19.5522 14H18.4542V11.39H18.6702C19.3002 11.39 19.7682 11.174 19.9662 10.256C20.1102 9.482 20.1642 8.636 20.1642 4.01H30.9822V14H27.4722ZM38.6056 12.002C40.6576 12.002 41.3596 10.706 41.3596 9.95V9.176C41.0536 9.302 40.1716 9.482 39.1636 9.644C37.4716 9.932 36.9316 10.166 36.9316 10.868V10.904C36.9316 11.534 37.3816 12.002 38.6056 12.002ZM41.4676 12.614C41.0356 13.136 39.9556 14.198 37.6156 14.198H37.3276C34.5376 14.198 33.3856 12.686 33.3856 11.03V10.958C33.3856 9.23 34.4836 8.168 37.8676 7.88L40.6036 7.646C41.1616 7.592 41.3596 7.412 41.3596 6.998C41.3596 6.53 41.2156 6.026 39.2716 6.026C37.4356 6.026 37.2556 6.746 37.2556 7.124H33.6556V7.088C33.6556 6.098 34.0516 3.776 38.9656 3.776H39.5236C44.4736 3.776 44.7796 5.81 44.7796 7.142V10.436C44.7796 11.066 44.9056 11.318 45.6076 11.318H45.9856V14H43.1416C42.0976 14 41.6116 13.262 41.4676 12.614ZM47.5109 16.124V11.336H48.7169C49.4009 9.968 49.5089 6.998 49.5989 4.01H60.1649V11.336H61.9649V16.124H58.6349V14H50.8409V16.124H47.5109ZM52.0289 11.336H56.6549V6.674H52.7489C52.6949 7.97 52.5149 9.95 52.0289 11.336ZM72.4777 7.952L67.6537 14H64.0537V4.01H67.5637V10.058L72.3877 4.01H75.9877V14H72.4777V7.952ZM82.1472 7.268V14H78.9072V4.01H83.8572L86.8272 10.382L89.7972 4.01H94.5672V14H91.0572V7.268L87.9432 14H85.2612L82.1472 7.268ZM105.788 7.952L100.964 14H97.3643V4.01H100.874V10.058L105.698 4.01H109.298V14H105.788V7.952ZM121.398 9.014V8.96C121.398 7.88 120.894 6.422 118.698 6.422H118.518C116.412 6.422 115.746 7.808 115.746 8.96V9.014C115.746 10.112 116.412 11.552 118.518 11.552H118.698C120.894 11.552 121.398 10.04 121.398 9.014ZM112.254 17.438V4.01H115.728V5.288C116.16 4.82 117.474 3.812 119.742 3.812H119.976C123.792 3.812 125.034 6.422 125.034 8.798V9.104C125.034 11.282 123.756 14.198 119.958 14.198H119.706C117.42 14.198 116.196 13.154 115.764 12.722V17.438H112.254ZM10.998 32.762L8.568 27.308L6.21 32.762H10.998ZM13.338 38L12.24 35.516H5.004L3.924 38H0.198L6.138 24.608H11.106L17.316 38H13.338ZM28.1458 33.014V32.96C28.1458 31.88 27.6418 30.422 25.4458 30.422H25.2658C23.1598 30.422 22.4938 31.808 22.4938 32.96V33.014C22.4938 34.112 23.1598 35.552 25.2658 35.552H25.4458C27.6418 35.552 28.1458 34.04 28.1458 33.014ZM19.0018 41.438V28.01H22.4758V29.288C22.9078 28.82 24.2218 27.812 26.4898 27.812H26.7238C30.5398 27.812 31.7818 30.422 31.7818 32.798V33.104C31.7818 35.282 30.5038 38.198 26.7058 38.198H26.4538C24.1678 38.198 22.9438 37.154 22.5118 36.722V41.438H19.0018ZM37.0856 38V30.674H33.2156V28.01H44.4656V30.674H40.5956V38H37.0856ZM52.1841 30.08C50.3661 30.08 49.6821 30.818 49.5021 31.862H54.7941C54.7941 31.124 54.4341 30.08 52.1841 30.08ZM54.8661 34.886H58.5201C58.5201 35.714 57.8721 38.234 52.7061 38.234H52.0401C47.1081 38.234 45.8841 35.534 45.8841 33.14V32.888C45.8841 30.638 47.0001 27.794 51.7341 27.794H52.5261C57.6381 27.794 58.5561 30.638 58.5561 33.428V33.752H49.4661C49.6101 34.904 50.3481 35.84 52.4901 35.84C54.5241 35.84 54.7761 35.048 54.8661 34.886ZM64.2 31.268V38H60.96V28.01H65.91L68.88 34.382L71.85 28.01H76.62V38H73.11V31.268L69.996 38H67.314L64.2 31.268ZM85.681 38.27H85.123C79.741 38.27 78.913 34.994 78.913 33.176V32.924C78.913 31.124 79.741 27.74 85.105 27.74H85.699C91.243 27.74 91.891 31.142 91.891 32.906V33.194C91.891 34.994 91.243 38.27 85.681 38.27ZM85.303 35.642H85.501C87.715 35.642 88.273 34.058 88.273 32.96C88.273 31.826 87.715 30.314 85.501 30.314H85.303C82.999 30.314 82.531 31.826 82.531 32.96C82.531 34.058 82.999 35.642 85.303 35.642ZM102.55 38H94.3057V28.01H102.19C104.476 28.01 105.916 28.82 105.916 30.404V30.494C105.916 31.736 105.124 32.474 103.918 32.672C105.142 32.816 106.24 33.68 106.24 35.12V35.192C106.24 37.01 105.052 38 102.55 38ZM97.8157 31.988H101.038C101.884 31.988 102.316 31.664 102.316 31.034V30.944C102.316 30.368 101.92 30.026 101.038 30.026H97.8157V31.988ZM97.8157 35.984H101.182C102.118 35.984 102.64 35.678 102.64 34.976V34.832C102.64 34.202 102.208 33.806 101.182 33.806H97.8157V35.984ZM117.109 31.952L112.285 38H108.685V28.01H112.195V34.058L117.019 28.01H120.619V38H117.109V31.952ZM130.954 28.01H134.464V38H130.954V34.562C130.18 34.652 129.28 34.742 128.344 34.742C124.384 34.742 122.89 33.626 122.89 30.458V28.01H126.4V29.81C126.4 31.682 127.03 32.006 128.884 32.006C129.586 32.006 130.396 31.952 130.954 31.88V28.01ZM1.656 62V48.608H15.534V62H11.826V51.56H5.364V62H1.656ZM24.4634 54.08C22.6454 54.08 21.9614 54.818 21.7814 55.862H27.0734C27.0734 55.124 26.7134 54.08 24.4634 54.08ZM27.1454 58.886H30.7994C30.7994 59.714 30.1514 62.234 24.9854 62.234H24.3194C19.3874 62.234 18.1634 59.534 18.1634 57.14V56.888C18.1634 54.638 19.2794 51.794 24.0134 51.794H24.8054C29.9174 51.794 30.8354 54.638 30.8354 57.428V57.752H21.7454C21.8894 58.904 22.6274 59.84 24.7694 59.84C26.8034 59.84 27.0554 59.048 27.1454 58.886ZM35.9255 62V54.674H32.0555V52.01H43.3055V54.674H39.4355V62H35.9255ZM54.39 57.014V56.96C54.39 55.88 53.886 54.422 51.69 54.422H51.51C49.404 54.422 48.738 55.808 48.738 56.96V57.014C48.738 58.112 49.404 59.552 51.51 59.552H51.69C53.886 59.552 54.39 58.04 54.39 57.014ZM45.246 65.438V52.01H48.72V53.288C49.152 52.82 50.466 51.812 52.734 51.812H52.968C56.784 51.812 58.026 54.422 58.026 56.798V57.104C58.026 59.282 56.748 62.198 52.95 62.198H52.698C50.412 62.198 49.188 61.154 48.756 60.722V65.438H45.246ZM66.7318 62.27H66.1738C60.7918 62.27 59.9638 58.994 59.9638 57.176V56.924C59.9638 55.124 60.7918 51.74 66.1558 51.74H66.7498C72.2938 51.74 72.9418 55.142 72.9418 56.906V57.194C72.9418 58.994 72.2938 62.27 66.7318 62.27ZM66.3538 59.642H66.5518C68.7658 59.642 69.3238 58.058 69.3238 56.96C69.3238 55.826 68.7658 54.314 66.5518 54.314H66.3538C64.0498 54.314 63.5818 55.826 63.5818 56.96C63.5818 58.058 64.0498 59.642 66.3538 59.642ZM83.6004 62H75.3564V52.01H83.2404C85.5264 52.01 86.9664 52.82 86.9664 54.404V54.494C86.9664 55.736 86.1744 56.474 84.9684 56.672C86.1924 56.816 87.2904 57.68 87.2904 59.12V59.192C87.2904 61.01 86.1024 62 83.6004 62ZM78.8664 55.988H82.0884C82.9344 55.988 83.3664 55.664 83.3664 55.034V54.944C83.3664 54.368 82.9704 54.026 82.0884 54.026H78.8664V55.988ZM78.8664 59.984H82.2324C83.1684 59.984 83.6904 59.678 83.6904 58.976V58.832C83.6904 58.202 83.2584 57.806 82.2324 57.806H78.8664V59.984Z" fill="url(#paint2_radial_2017_819)"/>
<path d="M1.656 14V0.608H11.43C15.264 0.608 16.218 2.282 16.218 3.776V3.974C16.218 5.666 14.76 6.476 13.752 6.62C15.264 6.872 16.884 7.772 16.884 9.932V10.13C16.884 11.948 15.786 14 11.484 14H1.656ZM10.89 3.398H5.364V5.792H10.89C12.024 5.792 12.348 5.252 12.348 4.622V4.586C12.348 3.938 11.988 3.398 10.89 3.398ZM11.178 8.42H5.364V11.066H11.178C12.474 11.066 12.852 10.382 12.852 9.716V9.644C12.852 8.978 12.474 8.42 11.178 8.42ZM27.4722 14V6.674H23.5122C23.5122 9.356 23.4222 10.85 23.0802 11.768C22.7022 12.776 22.1982 14 19.5522 14H18.4542V11.39H18.6702C19.3002 11.39 19.7682 11.174 19.9662 10.256C20.1102 9.482 20.1642 8.636 20.1642 4.01H30.9822V14H27.4722ZM38.6056 12.002C40.6576 12.002 41.3596 10.706 41.3596 9.95V9.176C41.0536 9.302 40.1716 9.482 39.1636 9.644C37.4716 9.932 36.9316 10.166 36.9316 10.868V10.904C36.9316 11.534 37.3816 12.002 38.6056 12.002ZM41.4676 12.614C41.0356 13.136 39.9556 14.198 37.6156 14.198H37.3276C34.5376 14.198 33.3856 12.686 33.3856 11.03V10.958C33.3856 9.23 34.4836 8.168 37.8676 7.88L40.6036 7.646C41.1616 7.592 41.3596 7.412 41.3596 6.998C41.3596 6.53 41.2156 6.026 39.2716 6.026C37.4356 6.026 37.2556 6.746 37.2556 7.124H33.6556V7.088C33.6556 6.098 34.0516 3.776 38.9656 3.776H39.5236C44.4736 3.776 44.7796 5.81 44.7796 7.142V10.436C44.7796 11.066 44.9056 11.318 45.6076 11.318H45.9856V14H43.1416C42.0976 14 41.6116 13.262 41.4676 12.614ZM47.5109 16.124V11.336H48.7169C49.4009 9.968 49.5089 6.998 49.5989 4.01H60.1649V11.336H61.9649V16.124H58.6349V14H50.8409V16.124H47.5109ZM52.0289 11.336H56.6549V6.674H52.7489C52.6949 7.97 52.5149 9.95 52.0289 11.336ZM72.4777 7.952L67.6537 14H64.0537V4.01H67.5637V10.058L72.3877 4.01H75.9877V14H72.4777V7.952ZM82.1472 7.268V14H78.9072V4.01H83.8572L86.8272 10.382L89.7972 4.01H94.5672V14H91.0572V7.268L87.9432 14H85.2612L82.1472 7.268ZM105.788 7.952L100.964 14H97.3643V4.01H100.874V10.058L105.698 4.01H109.298V14H105.788V7.952ZM121.398 9.014V8.96C121.398 7.88 120.894 6.422 118.698 6.422H118.518C116.412 6.422 115.746 7.808 115.746 8.96V9.014C115.746 10.112 116.412 11.552 118.518 11.552H118.698C120.894 11.552 121.398 10.04 121.398 9.014ZM112.254 17.438V4.01H115.728V5.288C116.16 4.82 117.474 3.812 119.742 3.812H119.976C123.792 3.812 125.034 6.422 125.034 8.798V9.104C125.034 11.282 123.756 14.198 119.958 14.198H119.706C117.42 14.198 116.196 13.154 115.764 12.722V17.438H112.254ZM10.998 32.762L8.568 27.308L6.21 32.762H10.998ZM13.338 38L12.24 35.516H5.004L3.924 38H0.198L6.138 24.608H11.106L17.316 38H13.338ZM28.1458 33.014V32.96C28.1458 31.88 27.6418 30.422 25.4458 30.422H25.2658C23.1598 30.422 22.4938 31.808 22.4938 32.96V33.014C22.4938 34.112 23.1598 35.552 25.2658 35.552H25.4458C27.6418 35.552 28.1458 34.04 28.1458 33.014ZM19.0018 41.438V28.01H22.4758V29.288C22.9078 28.82 24.2218 27.812 26.4898 27.812H26.7238C30.5398 27.812 31.7818 30.422 31.7818 32.798V33.104C31.7818 35.282 30.5038 38.198 26.7058 38.198H26.4538C24.1678 38.198 22.9438 37.154 22.5118 36.722V41.438H19.0018ZM37.0856 38V30.674H33.2156V28.01H44.4656V30.674H40.5956V38H37.0856ZM52.1841 30.08C50.3661 30.08 49.6821 30.818 49.5021 31.862H54.7941C54.7941 31.124 54.4341 30.08 52.1841 30.08ZM54.8661 34.886H58.5201C58.5201 35.714 57.8721 38.234 52.7061 38.234H52.0401C47.1081 38.234 45.8841 35.534 45.8841 33.14V32.888C45.8841 30.638 47.0001 27.794 51.7341 27.794H52.5261C57.6381 27.794 58.5561 30.638 58.5561 33.428V33.752H49.4661C49.6101 34.904 50.3481 35.84 52.4901 35.84C54.5241 35.84 54.7761 35.048 54.8661 34.886ZM64.2 31.268V38H60.96V28.01H65.91L68.88 34.382L71.85 28.01H76.62V38H73.11V31.268L69.996 38H67.314L64.2 31.268ZM85.681 38.27H85.123C79.741 38.27 78.913 34.994 78.913 33.176V32.924C78.913 31.124 79.741 27.74 85.105 27.74H85.699C91.243 27.74 91.891 31.142 91.891 32.906V33.194C91.891 34.994 91.243 38.27 85.681 38.27ZM85.303 35.642H85.501C87.715 35.642 88.273 34.058 88.273 32.96C88.273 31.826 87.715 30.314 85.501 30.314H85.303C82.999 30.314 82.531 31.826 82.531 32.96C82.531 34.058 82.999 35.642 85.303 35.642ZM102.55 38H94.3057V28.01H102.19C104.476 28.01 105.916 28.82 105.916 30.404V30.494C105.916 31.736 105.124 32.474 103.918 32.672C105.142 32.816 106.24 33.68 106.24 35.12V35.192C106.24 37.01 105.052 38 102.55 38ZM97.8157 31.988H101.038C101.884 31.988 102.316 31.664 102.316 31.034V30.944C102.316 30.368 101.92 30.026 101.038 30.026H97.8157V31.988ZM97.8157 35.984H101.182C102.118 35.984 102.64 35.678 102.64 34.976V34.832C102.64 34.202 102.208 33.806 101.182 33.806H97.8157V35.984ZM117.109 31.952L112.285 38H108.685V28.01H112.195V34.058L117.019 28.01H120.619V38H117.109V31.952ZM130.954 28.01H134.464V38H130.954V34.562C130.18 34.652 129.28 34.742 128.344 34.742C124.384 34.742 122.89 33.626 122.89 30.458V28.01H126.4V29.81C126.4 31.682 127.03 32.006 128.884 32.006C129.586 32.006 130.396 31.952 130.954 31.88V28.01ZM1.656 62V48.608H15.534V62H11.826V51.56H5.364V62H1.656ZM24.4634 54.08C22.6454 54.08 21.9614 54.818 21.7814 55.862H27.0734C27.0734 55.124 26.7134 54.08 24.4634 54.08ZM27.1454 58.886H30.7994C30.7994 59.714 30.1514 62.234 24.9854 62.234H24.3194C19.3874 62.234 18.1634 59.534 18.1634 57.14V56.888C18.1634 54.638 19.2794 51.794 24.0134 51.794H24.8054C29.9174 51.794 30.8354 54.638 30.8354 57.428V57.752H21.7454C21.8894 58.904 22.6274 59.84 24.7694 59.84C26.8034 59.84 27.0554 59.048 27.1454 58.886ZM35.9255 62V54.674H32.0555V52.01H43.3055V54.674H39.4355V62H35.9255ZM54.39 57.014V56.96C54.39 55.88 53.886 54.422 51.69 54.422H51.51C49.404 54.422 48.738 55.808 48.738 56.96V57.014C48.738 58.112 49.404 59.552 51.51 59.552H51.69C53.886 59.552 54.39 58.04 54.39 57.014ZM45.246 65.438V52.01H48.72V53.288C49.152 52.82 50.466 51.812 52.734 51.812H52.968C56.784 51.812 58.026 54.422 58.026 56.798V57.104C58.026 59.282 56.748 62.198 52.95 62.198H52.698C50.412 62.198 49.188 61.154 48.756 60.722V65.438H45.246ZM66.7318 62.27H66.1738C60.7918 62.27 59.9638 58.994 59.9638 57.176V56.924C59.9638 55.124 60.7918 51.74 66.1558 51.74H66.7498C72.2938 51.74 72.9418 55.142 72.9418 56.906V57.194C72.9418 58.994 72.2938 62.27 66.7318 62.27ZM66.3538 59.642H66.5518C68.7658 59.642 69.3238 58.058 69.3238 56.96C69.3238 55.826 68.7658 54.314 66.5518 54.314H66.3538C64.0498 54.314 63.5818 55.826 63.5818 56.96C63.5818 58.058 64.0498 59.642 66.3538 59.642ZM83.6004 62H75.3564V52.01H83.2404C85.5264 52.01 86.9664 52.82 86.9664 54.404V54.494C86.9664 55.736 86.1744 56.474 84.9684 56.672C86.1924 56.816 87.2904 57.68 87.2904 59.12V59.192C87.2904 61.01 86.1024 62 83.6004 62ZM78.8664 55.988H82.0884C82.9344 55.988 83.3664 55.664 83.3664 55.034V54.944C83.3664 54.368 82.9704 54.026 82.0884 54.026H78.8664V55.988ZM78.8664 59.984H82.2324C83.1684 59.984 83.6904 59.678 83.6904 58.976V58.832C83.6904 58.202 83.2584 57.806 82.2324 57.806H78.8664V59.984Z" fill="#C1A875" style="mix-blend-mode:color"/>
<defs>
<linearGradient id="paint0_linear_2017_819" x1="8.27014e-07" y1="30" x2="222" y2="30" gradientUnits="userSpaceOnUse">
<stop stop-color="#576167"/>
<stop offset="0.191294" stop-color="#9EA1A2"/>
<stop offset="0.396166" stop-color="#848989"/>
<stop offset="0.62055" stop-color="#576167"/>
<stop offset="0.830299" stop-color="#757A7C"/>
<stop offset="1" stop-color="#576167"/>
</linearGradient>
<radialGradient id="paint1_radial_2017_819" cx="0" cy="0" r="1" gradientUnits="userSpaceOnUse" gradientTransform="translate(118.226 2.39326) rotate(90) scale(53.4944 167.95)">
<stop stop-color="white"/>
<stop offset="1" stop-color="white" stop-opacity="0"/>
</radialGradient>
<radialGradient id="paint2_radial_2017_819" cx="0" cy="0" r="1" gradientUnits="userSpaceOnUse" gradientTransform="translate(130.783 82.9888) rotate(-89.7344) scale(76.6525 240.162)">
<stop stop-color="white"/>
<stop offset="1" stop-color="white" stop-opacity="0"/>
</radialGradient>
</defs>
</svg>
