<svg width="131" height="63" viewBox="0 0 131 63" fill="none" xmlns="http://www.w3.org/2000/svg">
<path d="M9.63 14.198H8.802C2.682 14.198 1.062 10.274 1.062 7.538V6.998C1.062 4.208 2.682 0.409999 8.802 0.409999H9.63C15.246 0.409999 17.118 3.164 17.118 5.702V5.738H13.302C13.248 5.36 12.744 3.47 9.216 3.47C5.94 3.47 4.914 5.306 4.914 7.106V7.358C4.914 9.014 5.976 11.12 9.234 11.12C12.798 11.12 13.248 9.194 13.302 8.762H17.118V8.816C17.118 11.264 15.318 14.198 9.63 14.198ZM22.443 14V6.674H18.573V4.01H29.823V6.674H25.953V14H22.443ZM36.4435 12.002C38.4955 12.002 39.1975 10.706 39.1975 9.95V9.176C38.8915 9.302 38.0095 9.482 37.0015 9.644C35.3095 9.932 34.7695 10.166 34.7695 10.868V10.904C34.7695 11.534 35.2195 12.002 36.4435 12.002ZM39.3055 12.614C38.8735 13.136 37.7935 14.198 35.4535 14.198H35.1655C32.3755 14.198 31.2235 12.686 31.2235 11.03V10.958C31.2235 9.23 32.3215 8.168 35.7055 7.88L38.4415 7.646C38.9995 7.592 39.1975 7.412 39.1975 6.998C39.1975 6.53 39.0535 6.026 37.1095 6.026C35.2735 6.026 35.0935 6.746 35.0935 7.124H31.4935V7.088C31.4935 6.098 31.8895 3.776 36.8035 3.776H37.3615C42.3115 3.776 42.6175 5.81 42.6175 7.142V10.436C42.6175 11.066 42.7435 11.318 43.4455 11.318H43.8235V14H40.9795C39.9355 14 39.4495 13.262 39.3055 12.614ZM49.3352 14H45.8252V4.01H49.3352V7.646H54.2312V4.01H57.7412V14H54.2312V10.31H49.3352V14ZM69.0851 7.952L64.2611 14H60.6611V4.01H64.1711V10.058L68.9951 4.01H72.5951V14H69.0851V7.952ZM83.8666 10.076H87.5386C87.5386 11.588 86.6386 14.27 81.8326 14.27H80.9506C75.9646 14.27 75.0286 11.03 75.0286 9.14V8.888C75.0286 6.998 75.9106 3.74 80.9326 3.74H81.7606C86.5846 3.74 87.5386 6.368 87.5386 7.808V7.826H83.8666C83.8126 7.538 83.4706 6.296 81.4006 6.296H81.2206C79.1506 6.296 78.6646 7.718 78.6646 8.924V8.942C78.6646 10.184 79.2586 11.66 81.2926 11.66H81.4726C83.5606 11.66 83.8666 10.31 83.8666 10.076ZM97.9429 14V6.674H93.9829C93.9829 9.356 93.8929 10.85 93.5509 11.768C93.1729 12.776 92.6689 14 90.0229 14H88.9249V11.39H89.1409C89.7709 11.39 90.2389 11.174 90.4369 10.256C90.5809 9.482 90.6349 8.636 90.6349 4.01H101.453V14H97.9429ZM109.076 12.002C111.128 12.002 111.83 10.706 111.83 9.95V9.176C111.524 9.302 110.642 9.482 109.634 9.644C107.942 9.932 107.402 10.166 107.402 10.868V10.904C107.402 11.534 107.852 12.002 109.076 12.002ZM111.938 12.614C111.506 13.136 110.426 14.198 108.086 14.198H107.798C105.008 14.198 103.856 12.686 103.856 11.03V10.958C103.856 9.23 104.954 8.168 108.338 7.88L111.074 7.646C111.632 7.592 111.83 7.412 111.83 6.998C111.83 6.53 111.686 6.026 109.742 6.026C107.906 6.026 107.726 6.746 107.726 7.124H104.126V7.088C104.126 6.098 104.522 3.776 109.436 3.776H109.994C114.944 3.776 115.25 5.81 115.25 7.142V10.436C115.25 11.066 115.376 11.318 116.078 11.318H116.456V14H113.612C112.568 14 112.082 13.262 111.938 12.614ZM126.702 14H118.458V4.01H126.342C128.628 4.01 130.068 4.82 130.068 6.404V6.494C130.068 7.736 129.276 8.474 128.07 8.672C129.294 8.816 130.392 9.68 130.392 11.12V11.192C130.392 13.01 129.204 14 126.702 14ZM121.968 7.988H125.19C126.036 7.988 126.468 7.664 126.468 7.034V6.944C126.468 6.368 126.072 6.026 125.19 6.026H121.968V7.988ZM121.968 11.984H125.334C126.27 11.984 126.792 11.678 126.792 10.976V10.832C126.792 10.202 126.36 9.806 125.334 9.806H121.968V11.984ZM10.998 32.762L8.568 27.308L6.21 32.762H10.998ZM13.338 38L12.24 35.516H5.004L3.924 38H0.198L6.138 24.608H11.106L17.316 38H13.338ZM22.4758 38H18.9658V28.01H22.4758V31.646H27.3718V28.01H30.8818V38H27.3718V34.31H22.4758V38ZM36.6638 38V30.674H32.7938V28.01H44.0438V30.674H40.1738V38H36.6638ZM52.2122 38.27H51.6542C46.2722 38.27 45.4442 34.994 45.4442 33.176V32.924C45.4442 31.124 46.2722 27.74 51.6362 27.74H52.2302C57.7742 27.74 58.4222 31.142 58.4222 32.906V33.194C58.4222 34.994 57.7742 38.27 52.2122 38.27ZM51.8342 35.642H52.0322C54.2462 35.642 54.8042 34.058 54.8042 32.96C54.8042 31.826 54.2462 30.314 52.0322 30.314H51.8342C49.5302 30.314 49.0622 31.826 49.0622 32.96C49.0622 34.058 49.5302 35.642 51.8342 35.642ZM64.3469 38H60.8369V28.01H64.3469V31.646H69.2429V28.01H72.7529V38H69.2429V34.31H64.3469V38ZM81.9368 38.27H81.3788C75.9968 38.27 75.1688 34.994 75.1688 33.176V32.924C75.1688 31.124 75.9968 27.74 81.3608 27.74H81.9548C87.4988 27.74 88.1468 31.142 88.1468 32.906V33.194C88.1468 34.994 87.4988 38.27 81.9368 38.27ZM81.5588 35.642H81.7568C83.9708 35.642 84.5288 34.058 84.5288 32.96C84.5288 31.826 83.9708 30.314 81.7568 30.314H81.5588C79.2548 30.314 78.7868 31.826 78.7868 32.96C78.7868 34.058 79.2548 35.642 81.5588 35.642ZM98.8055 38H90.5615V28.01H98.4455C100.732 28.01 102.172 28.82 102.172 30.404V30.494C102.172 31.736 101.38 32.474 100.174 32.672C101.398 32.816 102.496 33.68 102.496 35.12V35.192C102.496 37.01 101.308 38 98.8055 38ZM94.0715 31.988H97.2935C98.1395 31.988 98.5715 31.664 98.5715 31.034V30.944C98.5715 30.368 98.1755 30.026 97.2935 30.026H94.0715V31.988ZM94.0715 35.984H97.4375C98.3735 35.984 98.8955 35.678 98.8955 34.976V34.832C98.8955 34.202 98.4635 33.806 97.4375 33.806H94.0715V35.984ZM113.364 31.952L108.54 38H104.94V28.01H108.45V34.058L113.274 28.01H116.874V38H113.364V31.952ZM127.21 28.01H130.72V38H127.21V34.562C126.436 34.652 125.536 34.742 124.6 34.742C120.64 34.742 119.146 33.626 119.146 30.458V28.01H122.656V29.81C122.656 31.682 123.286 32.006 125.14 32.006C125.842 32.006 126.652 31.952 127.21 31.88V28.01ZM11.808 62L5.364 55.7V62H1.656V48.608H5.364V54.116L11.628 48.608H16.344L9.288 54.746L16.65 62H11.808ZM23.5247 62.27H22.9667C17.5847 62.27 16.7567 58.994 16.7567 57.176V56.924C16.7567 55.124 17.5847 51.74 22.9487 51.74H23.5427C29.0867 51.74 29.7347 55.142 29.7347 56.906V57.194C29.7347 58.994 29.0867 62.27 23.5247 62.27ZM23.1467 59.642H23.3447C25.5587 59.642 26.1167 58.058 26.1167 56.96C26.1167 55.826 25.5587 54.314 23.3447 54.314H23.1467C20.8427 54.314 20.3747 55.826 20.3747 56.96C20.3747 58.058 20.8427 59.642 23.1467 59.642ZM43.1876 59.048V59.156C43.1876 61.154 41.5136 62.27 37.6796 62.27H37.3556C33.2516 62.27 31.4696 60.74 31.4696 58.67V58.526H35.2316C35.2856 59.642 36.3116 60.056 37.5356 60.056C38.8496 60.056 39.5696 59.66 39.5696 58.868V58.814C39.5696 58.076 38.9936 57.896 37.9856 57.896H35.6096V55.754H37.9856C38.7596 55.754 39.2456 55.448 39.2456 54.872V54.818C39.2456 54.224 38.6516 53.918 37.4456 53.918C36.0956 53.918 35.3756 54.242 35.3216 54.944H31.5596V54.89C31.5596 52.748 34.0616 51.74 37.3196 51.74H37.6076C40.9736 51.74 42.8636 52.55 42.8636 54.422V54.494C42.8636 56.006 41.7116 56.582 40.8836 56.78C41.8916 56.978 43.1876 57.464 43.1876 59.048ZM53.7339 62V54.674H49.7739C49.7739 57.356 49.6839 58.85 49.3419 59.768C48.9639 60.776 48.4599 62 45.8139 62H44.7159V59.39H44.9319C45.5619 59.39 46.0299 59.174 46.2279 58.256C46.3719 57.482 46.4259 56.636 46.4259 52.01H57.2439V62H53.7339ZM66.4154 62.27H65.8574C60.4754 62.27 59.6474 58.994 59.6474 57.176V56.924C59.6474 55.124 60.4754 51.74 65.8394 51.74H66.4334C71.9774 51.74 72.6254 55.142 72.6254 56.906V57.194C72.6254 58.994 71.9774 62.27 66.4154 62.27ZM66.0374 59.642H66.2354C68.4494 59.642 69.0074 58.058 69.0074 56.96C69.0074 55.826 68.4494 54.314 66.2354 54.314H66.0374C63.7334 54.314 63.2654 55.826 63.2654 56.96C63.2654 58.058 63.7334 59.642 66.0374 59.642ZM83.284 62H75.04V52.01H82.924C85.21 52.01 86.65 52.82 86.65 54.404V54.494C86.65 55.736 85.858 56.474 84.652 56.672C85.876 56.816 86.974 57.68 86.974 59.12V59.192C86.974 61.01 85.786 62 83.284 62ZM78.55 55.988H81.772C82.618 55.988 83.05 55.664 83.05 55.034V54.944C83.05 54.368 82.654 54.026 81.772 54.026H78.55V55.988ZM78.55 59.984H81.916C82.852 59.984 83.374 59.678 83.374 58.976V58.832C83.374 58.202 82.942 57.806 81.916 57.806H78.55V59.984Z" fill="url(#paint0_linear_2017_800)"/>
<path d="M9.63 14.198H8.802C2.682 14.198 1.062 10.274 1.062 7.538V6.998C1.062 4.208 2.682 0.409999 8.802 0.409999H9.63C15.246 0.409999 17.118 3.164 17.118 5.702V5.738H13.302C13.248 5.36 12.744 3.47 9.216 3.47C5.94 3.47 4.914 5.306 4.914 7.106V7.358C4.914 9.014 5.976 11.12 9.234 11.12C12.798 11.12 13.248 9.194 13.302 8.762H17.118V8.816C17.118 11.264 15.318 14.198 9.63 14.198ZM22.443 14V6.674H18.573V4.01H29.823V6.674H25.953V14H22.443ZM36.4435 12.002C38.4955 12.002 39.1975 10.706 39.1975 9.95V9.176C38.8915 9.302 38.0095 9.482 37.0015 9.644C35.3095 9.932 34.7695 10.166 34.7695 10.868V10.904C34.7695 11.534 35.2195 12.002 36.4435 12.002ZM39.3055 12.614C38.8735 13.136 37.7935 14.198 35.4535 14.198H35.1655C32.3755 14.198 31.2235 12.686 31.2235 11.03V10.958C31.2235 9.23 32.3215 8.168 35.7055 7.88L38.4415 7.646C38.9995 7.592 39.1975 7.412 39.1975 6.998C39.1975 6.53 39.0535 6.026 37.1095 6.026C35.2735 6.026 35.0935 6.746 35.0935 7.124H31.4935V7.088C31.4935 6.098 31.8895 3.776 36.8035 3.776H37.3615C42.3115 3.776 42.6175 5.81 42.6175 7.142V10.436C42.6175 11.066 42.7435 11.318 43.4455 11.318H43.8235V14H40.9795C39.9355 14 39.4495 13.262 39.3055 12.614ZM49.3352 14H45.8252V4.01H49.3352V7.646H54.2312V4.01H57.7412V14H54.2312V10.31H49.3352V14ZM69.0851 7.952L64.2611 14H60.6611V4.01H64.1711V10.058L68.9951 4.01H72.5951V14H69.0851V7.952ZM83.8666 10.076H87.5386C87.5386 11.588 86.6386 14.27 81.8326 14.27H80.9506C75.9646 14.27 75.0286 11.03 75.0286 9.14V8.888C75.0286 6.998 75.9106 3.74 80.9326 3.74H81.7606C86.5846 3.74 87.5386 6.368 87.5386 7.808V7.826H83.8666C83.8126 7.538 83.4706 6.296 81.4006 6.296H81.2206C79.1506 6.296 78.6646 7.718 78.6646 8.924V8.942C78.6646 10.184 79.2586 11.66 81.2926 11.66H81.4726C83.5606 11.66 83.8666 10.31 83.8666 10.076ZM97.9429 14V6.674H93.9829C93.9829 9.356 93.8929 10.85 93.5509 11.768C93.1729 12.776 92.6689 14 90.0229 14H88.9249V11.39H89.1409C89.7709 11.39 90.2389 11.174 90.4369 10.256C90.5809 9.482 90.6349 8.636 90.6349 4.01H101.453V14H97.9429ZM109.076 12.002C111.128 12.002 111.83 10.706 111.83 9.95V9.176C111.524 9.302 110.642 9.482 109.634 9.644C107.942 9.932 107.402 10.166 107.402 10.868V10.904C107.402 11.534 107.852 12.002 109.076 12.002ZM111.938 12.614C111.506 13.136 110.426 14.198 108.086 14.198H107.798C105.008 14.198 103.856 12.686 103.856 11.03V10.958C103.856 9.23 104.954 8.168 108.338 7.88L111.074 7.646C111.632 7.592 111.83 7.412 111.83 6.998C111.83 6.53 111.686 6.026 109.742 6.026C107.906 6.026 107.726 6.746 107.726 7.124H104.126V7.088C104.126 6.098 104.522 3.776 109.436 3.776H109.994C114.944 3.776 115.25 5.81 115.25 7.142V10.436C115.25 11.066 115.376 11.318 116.078 11.318H116.456V14H113.612C112.568 14 112.082 13.262 111.938 12.614ZM126.702 14H118.458V4.01H126.342C128.628 4.01 130.068 4.82 130.068 6.404V6.494C130.068 7.736 129.276 8.474 128.07 8.672C129.294 8.816 130.392 9.68 130.392 11.12V11.192C130.392 13.01 129.204 14 126.702 14ZM121.968 7.988H125.19C126.036 7.988 126.468 7.664 126.468 7.034V6.944C126.468 6.368 126.072 6.026 125.19 6.026H121.968V7.988ZM121.968 11.984H125.334C126.27 11.984 126.792 11.678 126.792 10.976V10.832C126.792 10.202 126.36 9.806 125.334 9.806H121.968V11.984ZM10.998 32.762L8.568 27.308L6.21 32.762H10.998ZM13.338 38L12.24 35.516H5.004L3.924 38H0.198L6.138 24.608H11.106L17.316 38H13.338ZM22.4758 38H18.9658V28.01H22.4758V31.646H27.3718V28.01H30.8818V38H27.3718V34.31H22.4758V38ZM36.6638 38V30.674H32.7938V28.01H44.0438V30.674H40.1738V38H36.6638ZM52.2122 38.27H51.6542C46.2722 38.27 45.4442 34.994 45.4442 33.176V32.924C45.4442 31.124 46.2722 27.74 51.6362 27.74H52.2302C57.7742 27.74 58.4222 31.142 58.4222 32.906V33.194C58.4222 34.994 57.7742 38.27 52.2122 38.27ZM51.8342 35.642H52.0322C54.2462 35.642 54.8042 34.058 54.8042 32.96C54.8042 31.826 54.2462 30.314 52.0322 30.314H51.8342C49.5302 30.314 49.0622 31.826 49.0622 32.96C49.0622 34.058 49.5302 35.642 51.8342 35.642ZM64.3469 38H60.8369V28.01H64.3469V31.646H69.2429V28.01H72.7529V38H69.2429V34.31H64.3469V38ZM81.9368 38.27H81.3788C75.9968 38.27 75.1688 34.994 75.1688 33.176V32.924C75.1688 31.124 75.9968 27.74 81.3608 27.74H81.9548C87.4988 27.74 88.1468 31.142 88.1468 32.906V33.194C88.1468 34.994 87.4988 38.27 81.9368 38.27ZM81.5588 35.642H81.7568C83.9708 35.642 84.5288 34.058 84.5288 32.96C84.5288 31.826 83.9708 30.314 81.7568 30.314H81.5588C79.2548 30.314 78.7868 31.826 78.7868 32.96C78.7868 34.058 79.2548 35.642 81.5588 35.642ZM98.8055 38H90.5615V28.01H98.4455C100.732 28.01 102.172 28.82 102.172 30.404V30.494C102.172 31.736 101.38 32.474 100.174 32.672C101.398 32.816 102.496 33.68 102.496 35.12V35.192C102.496 37.01 101.308 38 98.8055 38ZM94.0715 31.988H97.2935C98.1395 31.988 98.5715 31.664 98.5715 31.034V30.944C98.5715 30.368 98.1755 30.026 97.2935 30.026H94.0715V31.988ZM94.0715 35.984H97.4375C98.3735 35.984 98.8955 35.678 98.8955 34.976V34.832C98.8955 34.202 98.4635 33.806 97.4375 33.806H94.0715V35.984ZM113.364 31.952L108.54 38H104.94V28.01H108.45V34.058L113.274 28.01H116.874V38H113.364V31.952ZM127.21 28.01H130.72V38H127.21V34.562C126.436 34.652 125.536 34.742 124.6 34.742C120.64 34.742 119.146 33.626 119.146 30.458V28.01H122.656V29.81C122.656 31.682 123.286 32.006 125.14 32.006C125.842 32.006 126.652 31.952 127.21 31.88V28.01ZM11.808 62L5.364 55.7V62H1.656V48.608H5.364V54.116L11.628 48.608H16.344L9.288 54.746L16.65 62H11.808ZM23.5247 62.27H22.9667C17.5847 62.27 16.7567 58.994 16.7567 57.176V56.924C16.7567 55.124 17.5847 51.74 22.9487 51.74H23.5427C29.0867 51.74 29.7347 55.142 29.7347 56.906V57.194C29.7347 58.994 29.0867 62.27 23.5247 62.27ZM23.1467 59.642H23.3447C25.5587 59.642 26.1167 58.058 26.1167 56.96C26.1167 55.826 25.5587 54.314 23.3447 54.314H23.1467C20.8427 54.314 20.3747 55.826 20.3747 56.96C20.3747 58.058 20.8427 59.642 23.1467 59.642ZM43.1876 59.048V59.156C43.1876 61.154 41.5136 62.27 37.6796 62.27H37.3556C33.2516 62.27 31.4696 60.74 31.4696 58.67V58.526H35.2316C35.2856 59.642 36.3116 60.056 37.5356 60.056C38.8496 60.056 39.5696 59.66 39.5696 58.868V58.814C39.5696 58.076 38.9936 57.896 37.9856 57.896H35.6096V55.754H37.9856C38.7596 55.754 39.2456 55.448 39.2456 54.872V54.818C39.2456 54.224 38.6516 53.918 37.4456 53.918C36.0956 53.918 35.3756 54.242 35.3216 54.944H31.5596V54.89C31.5596 52.748 34.0616 51.74 37.3196 51.74H37.6076C40.9736 51.74 42.8636 52.55 42.8636 54.422V54.494C42.8636 56.006 41.7116 56.582 40.8836 56.78C41.8916 56.978 43.1876 57.464 43.1876 59.048ZM53.7339 62V54.674H49.7739C49.7739 57.356 49.6839 58.85 49.3419 59.768C48.9639 60.776 48.4599 62 45.8139 62H44.7159V59.39H44.9319C45.5619 59.39 46.0299 59.174 46.2279 58.256C46.3719 57.482 46.4259 56.636 46.4259 52.01H57.2439V62H53.7339ZM66.4154 62.27H65.8574C60.4754 62.27 59.6474 58.994 59.6474 57.176V56.924C59.6474 55.124 60.4754 51.74 65.8394 51.74H66.4334C71.9774 51.74 72.6254 55.142 72.6254 56.906V57.194C72.6254 58.994 71.9774 62.27 66.4154 62.27ZM66.0374 59.642H66.2354C68.4494 59.642 69.0074 58.058 69.0074 56.96C69.0074 55.826 68.4494 54.314 66.2354 54.314H66.0374C63.7334 54.314 63.2654 55.826 63.2654 56.96C63.2654 58.058 63.7334 59.642 66.0374 59.642ZM83.284 62H75.04V52.01H82.924C85.21 52.01 86.65 52.82 86.65 54.404V54.494C86.65 55.736 85.858 56.474 84.652 56.672C85.876 56.816 86.974 57.68 86.974 59.12V59.192C86.974 61.01 85.786 62 83.284 62ZM78.55 55.988H81.772C82.618 55.988 83.05 55.664 83.05 55.034V54.944C83.05 54.368 82.654 54.026 81.772 54.026H78.55V55.988ZM78.55 59.984H81.916C82.852 59.984 83.374 59.678 83.374 58.976V58.832C83.374 58.202 82.942 57.806 81.916 57.806H78.55V59.984Z" fill="url(#paint1_radial_2017_800)" style="mix-blend-mode:overlay"/>
<path d="M9.63 14.198H8.802C2.682 14.198 1.062 10.274 1.062 7.538V6.998C1.062 4.208 2.682 0.409999 8.802 0.409999H9.63C15.246 0.409999 17.118 3.164 17.118 5.702V5.738H13.302C13.248 5.36 12.744 3.47 9.216 3.47C5.94 3.47 4.914 5.306 4.914 7.106V7.358C4.914 9.014 5.976 11.12 9.234 11.12C12.798 11.12 13.248 9.194 13.302 8.762H17.118V8.816C17.118 11.264 15.318 14.198 9.63 14.198ZM22.443 14V6.674H18.573V4.01H29.823V6.674H25.953V14H22.443ZM36.4435 12.002C38.4955 12.002 39.1975 10.706 39.1975 9.95V9.176C38.8915 9.302 38.0095 9.482 37.0015 9.644C35.3095 9.932 34.7695 10.166 34.7695 10.868V10.904C34.7695 11.534 35.2195 12.002 36.4435 12.002ZM39.3055 12.614C38.8735 13.136 37.7935 14.198 35.4535 14.198H35.1655C32.3755 14.198 31.2235 12.686 31.2235 11.03V10.958C31.2235 9.23 32.3215 8.168 35.7055 7.88L38.4415 7.646C38.9995 7.592 39.1975 7.412 39.1975 6.998C39.1975 6.53 39.0535 6.026 37.1095 6.026C35.2735 6.026 35.0935 6.746 35.0935 7.124H31.4935V7.088C31.4935 6.098 31.8895 3.776 36.8035 3.776H37.3615C42.3115 3.776 42.6175 5.81 42.6175 7.142V10.436C42.6175 11.066 42.7435 11.318 43.4455 11.318H43.8235V14H40.9795C39.9355 14 39.4495 13.262 39.3055 12.614ZM49.3352 14H45.8252V4.01H49.3352V7.646H54.2312V4.01H57.7412V14H54.2312V10.31H49.3352V14ZM69.0851 7.952L64.2611 14H60.6611V4.01H64.1711V10.058L68.9951 4.01H72.5951V14H69.0851V7.952ZM83.8666 10.076H87.5386C87.5386 11.588 86.6386 14.27 81.8326 14.27H80.9506C75.9646 14.27 75.0286 11.03 75.0286 9.14V8.888C75.0286 6.998 75.9106 3.74 80.9326 3.74H81.7606C86.5846 3.74 87.5386 6.368 87.5386 7.808V7.826H83.8666C83.8126 7.538 83.4706 6.296 81.4006 6.296H81.2206C79.1506 6.296 78.6646 7.718 78.6646 8.924V8.942C78.6646 10.184 79.2586 11.66 81.2926 11.66H81.4726C83.5606 11.66 83.8666 10.31 83.8666 10.076ZM97.9429 14V6.674H93.9829C93.9829 9.356 93.8929 10.85 93.5509 11.768C93.1729 12.776 92.6689 14 90.0229 14H88.9249V11.39H89.1409C89.7709 11.39 90.2389 11.174 90.4369 10.256C90.5809 9.482 90.6349 8.636 90.6349 4.01H101.453V14H97.9429ZM109.076 12.002C111.128 12.002 111.83 10.706 111.83 9.95V9.176C111.524 9.302 110.642 9.482 109.634 9.644C107.942 9.932 107.402 10.166 107.402 10.868V10.904C107.402 11.534 107.852 12.002 109.076 12.002ZM111.938 12.614C111.506 13.136 110.426 14.198 108.086 14.198H107.798C105.008 14.198 103.856 12.686 103.856 11.03V10.958C103.856 9.23 104.954 8.168 108.338 7.88L111.074 7.646C111.632 7.592 111.83 7.412 111.83 6.998C111.83 6.53 111.686 6.026 109.742 6.026C107.906 6.026 107.726 6.746 107.726 7.124H104.126V7.088C104.126 6.098 104.522 3.776 109.436 3.776H109.994C114.944 3.776 115.25 5.81 115.25 7.142V10.436C115.25 11.066 115.376 11.318 116.078 11.318H116.456V14H113.612C112.568 14 112.082 13.262 111.938 12.614ZM126.702 14H118.458V4.01H126.342C128.628 4.01 130.068 4.82 130.068 6.404V6.494C130.068 7.736 129.276 8.474 128.07 8.672C129.294 8.816 130.392 9.68 130.392 11.12V11.192C130.392 13.01 129.204 14 126.702 14ZM121.968 7.988H125.19C126.036 7.988 126.468 7.664 126.468 7.034V6.944C126.468 6.368 126.072 6.026 125.19 6.026H121.968V7.988ZM121.968 11.984H125.334C126.27 11.984 126.792 11.678 126.792 10.976V10.832C126.792 10.202 126.36 9.806 125.334 9.806H121.968V11.984ZM10.998 32.762L8.568 27.308L6.21 32.762H10.998ZM13.338 38L12.24 35.516H5.004L3.924 38H0.198L6.138 24.608H11.106L17.316 38H13.338ZM22.4758 38H18.9658V28.01H22.4758V31.646H27.3718V28.01H30.8818V38H27.3718V34.31H22.4758V38ZM36.6638 38V30.674H32.7938V28.01H44.0438V30.674H40.1738V38H36.6638ZM52.2122 38.27H51.6542C46.2722 38.27 45.4442 34.994 45.4442 33.176V32.924C45.4442 31.124 46.2722 27.74 51.6362 27.74H52.2302C57.7742 27.74 58.4222 31.142 58.4222 32.906V33.194C58.4222 34.994 57.7742 38.27 52.2122 38.27ZM51.8342 35.642H52.0322C54.2462 35.642 54.8042 34.058 54.8042 32.96C54.8042 31.826 54.2462 30.314 52.0322 30.314H51.8342C49.5302 30.314 49.0622 31.826 49.0622 32.96C49.0622 34.058 49.5302 35.642 51.8342 35.642ZM64.3469 38H60.8369V28.01H64.3469V31.646H69.2429V28.01H72.7529V38H69.2429V34.31H64.3469V38ZM81.9368 38.27H81.3788C75.9968 38.27 75.1688 34.994 75.1688 33.176V32.924C75.1688 31.124 75.9968 27.74 81.3608 27.74H81.9548C87.4988 27.74 88.1468 31.142 88.1468 32.906V33.194C88.1468 34.994 87.4988 38.27 81.9368 38.27ZM81.5588 35.642H81.7568C83.9708 35.642 84.5288 34.058 84.5288 32.96C84.5288 31.826 83.9708 30.314 81.7568 30.314H81.5588C79.2548 30.314 78.7868 31.826 78.7868 32.96C78.7868 34.058 79.2548 35.642 81.5588 35.642ZM98.8055 38H90.5615V28.01H98.4455C100.732 28.01 102.172 28.82 102.172 30.404V30.494C102.172 31.736 101.38 32.474 100.174 32.672C101.398 32.816 102.496 33.68 102.496 35.12V35.192C102.496 37.01 101.308 38 98.8055 38ZM94.0715 31.988H97.2935C98.1395 31.988 98.5715 31.664 98.5715 31.034V30.944C98.5715 30.368 98.1755 30.026 97.2935 30.026H94.0715V31.988ZM94.0715 35.984H97.4375C98.3735 35.984 98.8955 35.678 98.8955 34.976V34.832C98.8955 34.202 98.4635 33.806 97.4375 33.806H94.0715V35.984ZM113.364 31.952L108.54 38H104.94V28.01H108.45V34.058L113.274 28.01H116.874V38H113.364V31.952ZM127.21 28.01H130.72V38H127.21V34.562C126.436 34.652 125.536 34.742 124.6 34.742C120.64 34.742 119.146 33.626 119.146 30.458V28.01H122.656V29.81C122.656 31.682 123.286 32.006 125.14 32.006C125.842 32.006 126.652 31.952 127.21 31.88V28.01ZM11.808 62L5.364 55.7V62H1.656V48.608H5.364V54.116L11.628 48.608H16.344L9.288 54.746L16.65 62H11.808ZM23.5247 62.27H22.9667C17.5847 62.27 16.7567 58.994 16.7567 57.176V56.924C16.7567 55.124 17.5847 51.74 22.9487 51.74H23.5427C29.0867 51.74 29.7347 55.142 29.7347 56.906V57.194C29.7347 58.994 29.0867 62.27 23.5247 62.27ZM23.1467 59.642H23.3447C25.5587 59.642 26.1167 58.058 26.1167 56.96C26.1167 55.826 25.5587 54.314 23.3447 54.314H23.1467C20.8427 54.314 20.3747 55.826 20.3747 56.96C20.3747 58.058 20.8427 59.642 23.1467 59.642ZM43.1876 59.048V59.156C43.1876 61.154 41.5136 62.27 37.6796 62.27H37.3556C33.2516 62.27 31.4696 60.74 31.4696 58.67V58.526H35.2316C35.2856 59.642 36.3116 60.056 37.5356 60.056C38.8496 60.056 39.5696 59.66 39.5696 58.868V58.814C39.5696 58.076 38.9936 57.896 37.9856 57.896H35.6096V55.754H37.9856C38.7596 55.754 39.2456 55.448 39.2456 54.872V54.818C39.2456 54.224 38.6516 53.918 37.4456 53.918C36.0956 53.918 35.3756 54.242 35.3216 54.944H31.5596V54.89C31.5596 52.748 34.0616 51.74 37.3196 51.74H37.6076C40.9736 51.74 42.8636 52.55 42.8636 54.422V54.494C42.8636 56.006 41.7116 56.582 40.8836 56.78C41.8916 56.978 43.1876 57.464 43.1876 59.048ZM53.7339 62V54.674H49.7739C49.7739 57.356 49.6839 58.85 49.3419 59.768C48.9639 60.776 48.4599 62 45.8139 62H44.7159V59.39H44.9319C45.5619 59.39 46.0299 59.174 46.2279 58.256C46.3719 57.482 46.4259 56.636 46.4259 52.01H57.2439V62H53.7339ZM66.4154 62.27H65.8574C60.4754 62.27 59.6474 58.994 59.6474 57.176V56.924C59.6474 55.124 60.4754 51.74 65.8394 51.74H66.4334C71.9774 51.74 72.6254 55.142 72.6254 56.906V57.194C72.6254 58.994 71.9774 62.27 66.4154 62.27ZM66.0374 59.642H66.2354C68.4494 59.642 69.0074 58.058 69.0074 56.96C69.0074 55.826 68.4494 54.314 66.2354 54.314H66.0374C63.7334 54.314 63.2654 55.826 63.2654 56.96C63.2654 58.058 63.7334 59.642 66.0374 59.642ZM83.284 62H75.04V52.01H82.924C85.21 52.01 86.65 52.82 86.65 54.404V54.494C86.65 55.736 85.858 56.474 84.652 56.672C85.876 56.816 86.974 57.68 86.974 59.12V59.192C86.974 61.01 85.786 62 83.284 62ZM78.55 55.988H81.772C82.618 55.988 83.05 55.664 83.05 55.034V54.944C83.05 54.368 82.654 54.026 81.772 54.026H78.55V55.988ZM78.55 59.984H81.916C82.852 59.984 83.374 59.678 83.374 58.976V58.832C83.374 58.202 82.942 57.806 81.916 57.806H78.55V59.984Z" fill="url(#paint2_radial_2017_800)"/>
<path d="M9.63 14.198H8.802C2.682 14.198 1.062 10.274 1.062 7.538V6.998C1.062 4.208 2.682 0.409999 8.802 0.409999H9.63C15.246 0.409999 17.118 3.164 17.118 5.702V5.738H13.302C13.248 5.36 12.744 3.47 9.216 3.47C5.94 3.47 4.914 5.306 4.914 7.106V7.358C4.914 9.014 5.976 11.12 9.234 11.12C12.798 11.12 13.248 9.194 13.302 8.762H17.118V8.816C17.118 11.264 15.318 14.198 9.63 14.198ZM22.443 14V6.674H18.573V4.01H29.823V6.674H25.953V14H22.443ZM36.4435 12.002C38.4955 12.002 39.1975 10.706 39.1975 9.95V9.176C38.8915 9.302 38.0095 9.482 37.0015 9.644C35.3095 9.932 34.7695 10.166 34.7695 10.868V10.904C34.7695 11.534 35.2195 12.002 36.4435 12.002ZM39.3055 12.614C38.8735 13.136 37.7935 14.198 35.4535 14.198H35.1655C32.3755 14.198 31.2235 12.686 31.2235 11.03V10.958C31.2235 9.23 32.3215 8.168 35.7055 7.88L38.4415 7.646C38.9995 7.592 39.1975 7.412 39.1975 6.998C39.1975 6.53 39.0535 6.026 37.1095 6.026C35.2735 6.026 35.0935 6.746 35.0935 7.124H31.4935V7.088C31.4935 6.098 31.8895 3.776 36.8035 3.776H37.3615C42.3115 3.776 42.6175 5.81 42.6175 7.142V10.436C42.6175 11.066 42.7435 11.318 43.4455 11.318H43.8235V14H40.9795C39.9355 14 39.4495 13.262 39.3055 12.614ZM49.3352 14H45.8252V4.01H49.3352V7.646H54.2312V4.01H57.7412V14H54.2312V10.31H49.3352V14ZM69.0851 7.952L64.2611 14H60.6611V4.01H64.1711V10.058L68.9951 4.01H72.5951V14H69.0851V7.952ZM83.8666 10.076H87.5386C87.5386 11.588 86.6386 14.27 81.8326 14.27H80.9506C75.9646 14.27 75.0286 11.03 75.0286 9.14V8.888C75.0286 6.998 75.9106 3.74 80.9326 3.74H81.7606C86.5846 3.74 87.5386 6.368 87.5386 7.808V7.826H83.8666C83.8126 7.538 83.4706 6.296 81.4006 6.296H81.2206C79.1506 6.296 78.6646 7.718 78.6646 8.924V8.942C78.6646 10.184 79.2586 11.66 81.2926 11.66H81.4726C83.5606 11.66 83.8666 10.31 83.8666 10.076ZM97.9429 14V6.674H93.9829C93.9829 9.356 93.8929 10.85 93.5509 11.768C93.1729 12.776 92.6689 14 90.0229 14H88.9249V11.39H89.1409C89.7709 11.39 90.2389 11.174 90.4369 10.256C90.5809 9.482 90.6349 8.636 90.6349 4.01H101.453V14H97.9429ZM109.076 12.002C111.128 12.002 111.83 10.706 111.83 9.95V9.176C111.524 9.302 110.642 9.482 109.634 9.644C107.942 9.932 107.402 10.166 107.402 10.868V10.904C107.402 11.534 107.852 12.002 109.076 12.002ZM111.938 12.614C111.506 13.136 110.426 14.198 108.086 14.198H107.798C105.008 14.198 103.856 12.686 103.856 11.03V10.958C103.856 9.23 104.954 8.168 108.338 7.88L111.074 7.646C111.632 7.592 111.83 7.412 111.83 6.998C111.83 6.53 111.686 6.026 109.742 6.026C107.906 6.026 107.726 6.746 107.726 7.124H104.126V7.088C104.126 6.098 104.522 3.776 109.436 3.776H109.994C114.944 3.776 115.25 5.81 115.25 7.142V10.436C115.25 11.066 115.376 11.318 116.078 11.318H116.456V14H113.612C112.568 14 112.082 13.262 111.938 12.614ZM126.702 14H118.458V4.01H126.342C128.628 4.01 130.068 4.82 130.068 6.404V6.494C130.068 7.736 129.276 8.474 128.07 8.672C129.294 8.816 130.392 9.68 130.392 11.12V11.192C130.392 13.01 129.204 14 126.702 14ZM121.968 7.988H125.19C126.036 7.988 126.468 7.664 126.468 7.034V6.944C126.468 6.368 126.072 6.026 125.19 6.026H121.968V7.988ZM121.968 11.984H125.334C126.27 11.984 126.792 11.678 126.792 10.976V10.832C126.792 10.202 126.36 9.806 125.334 9.806H121.968V11.984ZM10.998 32.762L8.568 27.308L6.21 32.762H10.998ZM13.338 38L12.24 35.516H5.004L3.924 38H0.198L6.138 24.608H11.106L17.316 38H13.338ZM22.4758 38H18.9658V28.01H22.4758V31.646H27.3718V28.01H30.8818V38H27.3718V34.31H22.4758V38ZM36.6638 38V30.674H32.7938V28.01H44.0438V30.674H40.1738V38H36.6638ZM52.2122 38.27H51.6542C46.2722 38.27 45.4442 34.994 45.4442 33.176V32.924C45.4442 31.124 46.2722 27.74 51.6362 27.74H52.2302C57.7742 27.74 58.4222 31.142 58.4222 32.906V33.194C58.4222 34.994 57.7742 38.27 52.2122 38.27ZM51.8342 35.642H52.0322C54.2462 35.642 54.8042 34.058 54.8042 32.96C54.8042 31.826 54.2462 30.314 52.0322 30.314H51.8342C49.5302 30.314 49.0622 31.826 49.0622 32.96C49.0622 34.058 49.5302 35.642 51.8342 35.642ZM64.3469 38H60.8369V28.01H64.3469V31.646H69.2429V28.01H72.7529V38H69.2429V34.31H64.3469V38ZM81.9368 38.27H81.3788C75.9968 38.27 75.1688 34.994 75.1688 33.176V32.924C75.1688 31.124 75.9968 27.74 81.3608 27.74H81.9548C87.4988 27.74 88.1468 31.142 88.1468 32.906V33.194C88.1468 34.994 87.4988 38.27 81.9368 38.27ZM81.5588 35.642H81.7568C83.9708 35.642 84.5288 34.058 84.5288 32.96C84.5288 31.826 83.9708 30.314 81.7568 30.314H81.5588C79.2548 30.314 78.7868 31.826 78.7868 32.96C78.7868 34.058 79.2548 35.642 81.5588 35.642ZM98.8055 38H90.5615V28.01H98.4455C100.732 28.01 102.172 28.82 102.172 30.404V30.494C102.172 31.736 101.38 32.474 100.174 32.672C101.398 32.816 102.496 33.68 102.496 35.12V35.192C102.496 37.01 101.308 38 98.8055 38ZM94.0715 31.988H97.2935C98.1395 31.988 98.5715 31.664 98.5715 31.034V30.944C98.5715 30.368 98.1755 30.026 97.2935 30.026H94.0715V31.988ZM94.0715 35.984H97.4375C98.3735 35.984 98.8955 35.678 98.8955 34.976V34.832C98.8955 34.202 98.4635 33.806 97.4375 33.806H94.0715V35.984ZM113.364 31.952L108.54 38H104.94V28.01H108.45V34.058L113.274 28.01H116.874V38H113.364V31.952ZM127.21 28.01H130.72V38H127.21V34.562C126.436 34.652 125.536 34.742 124.6 34.742C120.64 34.742 119.146 33.626 119.146 30.458V28.01H122.656V29.81C122.656 31.682 123.286 32.006 125.14 32.006C125.842 32.006 126.652 31.952 127.21 31.88V28.01ZM11.808 62L5.364 55.7V62H1.656V48.608H5.364V54.116L11.628 48.608H16.344L9.288 54.746L16.65 62H11.808ZM23.5247 62.27H22.9667C17.5847 62.27 16.7567 58.994 16.7567 57.176V56.924C16.7567 55.124 17.5847 51.74 22.9487 51.74H23.5427C29.0867 51.74 29.7347 55.142 29.7347 56.906V57.194C29.7347 58.994 29.0867 62.27 23.5247 62.27ZM23.1467 59.642H23.3447C25.5587 59.642 26.1167 58.058 26.1167 56.96C26.1167 55.826 25.5587 54.314 23.3447 54.314H23.1467C20.8427 54.314 20.3747 55.826 20.3747 56.96C20.3747 58.058 20.8427 59.642 23.1467 59.642ZM43.1876 59.048V59.156C43.1876 61.154 41.5136 62.27 37.6796 62.27H37.3556C33.2516 62.27 31.4696 60.74 31.4696 58.67V58.526H35.2316C35.2856 59.642 36.3116 60.056 37.5356 60.056C38.8496 60.056 39.5696 59.66 39.5696 58.868V58.814C39.5696 58.076 38.9936 57.896 37.9856 57.896H35.6096V55.754H37.9856C38.7596 55.754 39.2456 55.448 39.2456 54.872V54.818C39.2456 54.224 38.6516 53.918 37.4456 53.918C36.0956 53.918 35.3756 54.242 35.3216 54.944H31.5596V54.89C31.5596 52.748 34.0616 51.74 37.3196 51.74H37.6076C40.9736 51.74 42.8636 52.55 42.8636 54.422V54.494C42.8636 56.006 41.7116 56.582 40.8836 56.78C41.8916 56.978 43.1876 57.464 43.1876 59.048ZM53.7339 62V54.674H49.7739C49.7739 57.356 49.6839 58.85 49.3419 59.768C48.9639 60.776 48.4599 62 45.8139 62H44.7159V59.39H44.9319C45.5619 59.39 46.0299 59.174 46.2279 58.256C46.3719 57.482 46.4259 56.636 46.4259 52.01H57.2439V62H53.7339ZM66.4154 62.27H65.8574C60.4754 62.27 59.6474 58.994 59.6474 57.176V56.924C59.6474 55.124 60.4754 51.74 65.8394 51.74H66.4334C71.9774 51.74 72.6254 55.142 72.6254 56.906V57.194C72.6254 58.994 71.9774 62.27 66.4154 62.27ZM66.0374 59.642H66.2354C68.4494 59.642 69.0074 58.058 69.0074 56.96C69.0074 55.826 68.4494 54.314 66.2354 54.314H66.0374C63.7334 54.314 63.2654 55.826 63.2654 56.96C63.2654 58.058 63.7334 59.642 66.0374 59.642ZM83.284 62H75.04V52.01H82.924C85.21 52.01 86.65 52.82 86.65 54.404V54.494C86.65 55.736 85.858 56.474 84.652 56.672C85.876 56.816 86.974 57.68 86.974 59.12V59.192C86.974 61.01 85.786 62 83.284 62ZM78.55 55.988H81.772C82.618 55.988 83.05 55.664 83.05 55.034V54.944C83.05 54.368 82.654 54.026 81.772 54.026H78.55V55.988ZM78.55 59.984H81.916C82.852 59.984 83.374 59.678 83.374 58.976V58.832C83.374 58.202 82.942 57.806 81.916 57.806H78.55V59.984Z" fill="#C1A875" style="mix-blend-mode:color"/>
<defs>
<linearGradient id="paint0_linear_2017_800" x1="8.27014e-07" y1="30" x2="222" y2="30" gradientUnits="userSpaceOnUse">
<stop stop-color="#576167"/>
<stop offset="0.191294" stop-color="#9EA1A2"/>
<stop offset="0.396166" stop-color="#848989"/>
<stop offset="0.62055" stop-color="#576167"/>
<stop offset="0.830299" stop-color="#757A7C"/>
<stop offset="1" stop-color="#576167"/>
</linearGradient>
<radialGradient id="paint1_radial_2017_800" cx="0" cy="0" r="1" gradientUnits="userSpaceOnUse" gradientTransform="translate(118.226 2.39326) rotate(90) scale(53.4944 167.95)">
<stop stop-color="white"/>
<stop offset="1" stop-color="white" stop-opacity="0"/>
</radialGradient>
<radialGradient id="paint2_radial_2017_800" cx="0" cy="0" r="1" gradientUnits="userSpaceOnUse" gradientTransform="translate(130.783 82.9888) rotate(-89.7344) scale(76.6525 240.162)">
<stop stop-color="white"/>
<stop offset="1" stop-color="white" stop-opacity="0"/>
</radialGradient>
</defs>
</svg>
