<svg width="203" height="41" viewBox="0 0 203 41" fill="none" xmlns="http://www.w3.org/2000/svg">
<path d="M11.808 14L5.364 7.7V14H1.656V0.608H5.364V6.116L11.628 0.608H16.344L9.288 6.746L16.65 14H11.808ZM25.6127 10.076H29.2847C29.2847 11.588 28.3847 14.27 23.5787 14.27H22.6967C17.7107 14.27 16.7747 11.03 16.7747 9.14V8.888C16.7747 6.998 17.6567 3.74 22.6787 3.74H23.5067C28.3307 3.74 29.2847 6.368 29.2847 7.808V7.826H25.6127C25.5587 7.538 25.2167 6.296 23.1467 6.296H22.9667C20.8967 6.296 20.4107 7.718 20.4107 8.924V8.942C20.4107 10.184 21.0047 11.66 23.0387 11.66H23.2187C25.3067 11.66 25.6127 10.31 25.6127 10.076ZM37.4888 6.08C35.6708 6.08 34.9868 6.818 34.8068 7.862H40.0988C40.0988 7.124 39.7388 6.08 37.4888 6.08ZM40.1708 10.886H43.8248C43.8248 11.714 43.1768 14.234 38.0108 14.234H37.3448C32.4128 14.234 31.1888 11.534 31.1888 9.14V8.888C31.1888 6.638 32.3048 3.794 37.0388 3.794H37.8308C42.9428 3.794 43.8608 6.638 43.8608 9.428V9.752H34.7708C34.9148 10.904 35.6528 11.84 37.7948 11.84C39.8288 11.84 40.0808 11.048 40.1708 10.886ZM49.7746 14H46.2646V4.01H49.7746V7.646H54.6706V4.01H58.1806V14H54.6706V10.31H49.7746V14ZM69.5246 7.952L64.7006 14H61.1006V4.01H64.6106V10.058L69.4346 4.01H73.0346V14H69.5246V7.952ZM84.3601 10.652H82.0021L79.0861 14H75.1261L78.3841 10.274C76.6561 9.932 75.6661 8.942 75.6661 7.43V7.214C75.6661 5.396 77.1421 4.01 79.6441 4.01H87.8701V14H84.3601V10.652ZM84.3601 6.314H80.5981C79.8241 6.314 79.1761 6.494 79.1761 7.286V7.358C79.1761 8.132 79.8421 8.366 80.6161 8.366H84.3601V6.314ZM12.24 38V27.56H6.48C6.48 31.214 6.318 34.004 5.832 35.462C5.4 36.74 4.626 38 1.962 38H0.63V34.85H0.756C1.854 34.85 2.304 34.346 2.52 33.788C2.88 32.852 2.97 31.574 2.97 24.608H15.948V38H12.24ZM24.8677 30.08C23.0497 30.08 22.3657 30.818 22.1857 31.862H27.4777C27.4777 31.124 27.1177 30.08 24.8677 30.08ZM27.5497 34.886H31.2037C31.2037 35.714 30.5557 38.234 25.3897 38.234H24.7237C19.7917 38.234 18.5677 35.534 18.5677 33.14V32.888C18.5677 30.638 19.6837 27.794 24.4177 27.794H25.2097C30.3217 27.794 31.2397 30.638 31.2397 33.428V33.752H22.1497C22.2937 34.904 23.0317 35.84 25.1737 35.84C27.2077 35.84 27.4597 35.048 27.5497 34.886ZM39.9075 38.27H39.3495C33.9675 38.27 33.1395 34.994 33.1395 33.176V32.924C33.1395 31.124 33.9675 27.74 39.3315 27.74H39.9255C45.4695 27.74 46.1175 31.142 46.1175 32.906V33.194C46.1175 34.994 45.4695 38.27 39.9075 38.27ZM39.5295 35.642H39.7275C41.9415 35.642 42.4995 34.058 42.4995 32.96C42.4995 31.826 41.9415 30.314 39.7275 30.314H39.5295C37.2255 30.314 36.7575 31.826 36.7575 32.96C36.7575 34.058 37.2255 35.642 39.5295 35.642ZM52.0422 38H48.5322V28.01H52.0422V31.646H56.9382V28.01H60.4482V38H56.9382V34.31H52.0422V38ZM71.7922 31.952L66.9682 38H63.3682V28.01H66.8782V34.058L71.7022 28.01H75.3022V38H71.7922V31.952ZM77.3937 40.124V35.336H78.5997C79.2837 33.968 79.3917 30.998 79.4817 28.01H90.0477V35.336H91.8477V40.124H88.5177V38H80.7237V40.124H77.3937ZM81.9117 35.336H86.5377V30.674H82.6317C82.5777 31.97 82.3977 33.95 81.9117 35.336ZM100.025 38.27H99.4667C94.0847 38.27 93.2567 34.994 93.2567 33.176V32.924C93.2567 31.124 94.0847 27.74 99.4487 27.74H100.043C105.587 27.74 106.235 31.142 106.235 32.906V33.194C106.235 34.994 105.587 38.27 100.025 38.27ZM99.6467 35.642H99.8447C102.059 35.642 102.617 34.058 102.617 32.96C102.617 31.826 102.059 30.314 99.8447 30.314H99.6467C97.3427 30.314 96.8747 31.826 96.8747 32.96C96.8747 34.058 97.3427 35.642 99.6467 35.642ZM116.893 38H108.649V28.01H116.533C118.819 28.01 120.259 28.82 120.259 30.404V30.494C120.259 31.736 119.467 32.474 118.261 32.672C119.485 32.816 120.583 33.68 120.583 35.12V35.192C120.583 37.01 119.395 38 116.893 38ZM112.159 31.988H115.381C116.227 31.988 116.659 31.664 116.659 31.034V30.944C116.659 30.368 116.263 30.026 115.381 30.026H112.159V31.988ZM112.159 35.984H115.525C116.461 35.984 116.983 35.678 116.983 34.976V34.832C116.983 34.202 116.551 33.806 115.525 33.806H112.159V35.984ZM126.538 38H123.028V28.01H126.538V31.646H131.434V28.01H134.944V38H131.434V34.31H126.538V38ZM142.58 36.002C144.632 36.002 145.334 34.706 145.334 33.95V33.176C145.028 33.302 144.146 33.482 143.138 33.644C141.446 33.932 140.906 34.166 140.906 34.868V34.904C140.906 35.534 141.356 36.002 142.58 36.002ZM145.442 36.614C145.01 37.136 143.93 38.198 141.59 38.198H141.302C138.512 38.198 137.36 36.686 137.36 35.03V34.958C137.36 33.23 138.458 32.168 141.842 31.88L144.578 31.646C145.136 31.592 145.334 31.412 145.334 30.998C145.334 30.53 145.19 30.026 143.246 30.026C141.41 30.026 141.23 30.746 141.23 31.124H137.63V31.088C137.63 30.098 138.026 27.776 142.94 27.776H143.498C148.448 27.776 148.754 29.81 148.754 31.142V34.436C148.754 35.066 148.88 35.318 149.582 35.318H149.96V38H147.116C146.072 38 145.586 37.262 145.442 36.614ZM169.873 40.25V38H157.363V24.608H161.071V35.048H167.533V24.608H171.241V35.048H173.401V40.25H169.873ZM181.57 38.27H181.012C175.63 38.27 174.802 34.994 174.802 33.176V32.924C174.802 31.124 175.63 27.74 180.994 27.74H181.588C187.132 27.74 187.78 31.142 187.78 32.906V33.194C187.78 34.994 187.132 38.27 181.57 38.27ZM181.192 35.642H181.39C183.604 35.642 184.162 34.058 184.162 32.96C184.162 31.826 183.604 30.314 181.39 30.314H181.192C178.888 30.314 178.42 31.826 178.42 32.96C178.42 34.058 178.888 35.642 181.192 35.642ZM198.618 31.952L193.794 38H190.194V28.01H193.704V34.058L198.528 28.01H202.128V38H198.618V31.952ZM196.386 26.984H195.846C192.984 26.984 192.48 25.04 192.48 24.104V24.05H195.126C195.126 24.284 195.234 25.004 196.134 25.004C196.98 25.004 197.106 24.284 197.106 24.05H199.716V24.104C199.716 25.04 198.996 26.984 196.386 26.984Z" fill="url(#paint0_linear_2017_866)"/>
<path d="M11.808 14L5.364 7.7V14H1.656V0.608H5.364V6.116L11.628 0.608H16.344L9.288 6.746L16.65 14H11.808ZM25.6127 10.076H29.2847C29.2847 11.588 28.3847 14.27 23.5787 14.27H22.6967C17.7107 14.27 16.7747 11.03 16.7747 9.14V8.888C16.7747 6.998 17.6567 3.74 22.6787 3.74H23.5067C28.3307 3.74 29.2847 6.368 29.2847 7.808V7.826H25.6127C25.5587 7.538 25.2167 6.296 23.1467 6.296H22.9667C20.8967 6.296 20.4107 7.718 20.4107 8.924V8.942C20.4107 10.184 21.0047 11.66 23.0387 11.66H23.2187C25.3067 11.66 25.6127 10.31 25.6127 10.076ZM37.4888 6.08C35.6708 6.08 34.9868 6.818 34.8068 7.862H40.0988C40.0988 7.124 39.7388 6.08 37.4888 6.08ZM40.1708 10.886H43.8248C43.8248 11.714 43.1768 14.234 38.0108 14.234H37.3448C32.4128 14.234 31.1888 11.534 31.1888 9.14V8.888C31.1888 6.638 32.3048 3.794 37.0388 3.794H37.8308C42.9428 3.794 43.8608 6.638 43.8608 9.428V9.752H34.7708C34.9148 10.904 35.6528 11.84 37.7948 11.84C39.8288 11.84 40.0808 11.048 40.1708 10.886ZM49.7746 14H46.2646V4.01H49.7746V7.646H54.6706V4.01H58.1806V14H54.6706V10.31H49.7746V14ZM69.5246 7.952L64.7006 14H61.1006V4.01H64.6106V10.058L69.4346 4.01H73.0346V14H69.5246V7.952ZM84.3601 10.652H82.0021L79.0861 14H75.1261L78.3841 10.274C76.6561 9.932 75.6661 8.942 75.6661 7.43V7.214C75.6661 5.396 77.1421 4.01 79.6441 4.01H87.8701V14H84.3601V10.652ZM84.3601 6.314H80.5981C79.8241 6.314 79.1761 6.494 79.1761 7.286V7.358C79.1761 8.132 79.8421 8.366 80.6161 8.366H84.3601V6.314ZM12.24 38V27.56H6.48C6.48 31.214 6.318 34.004 5.832 35.462C5.4 36.74 4.626 38 1.962 38H0.63V34.85H0.756C1.854 34.85 2.304 34.346 2.52 33.788C2.88 32.852 2.97 31.574 2.97 24.608H15.948V38H12.24ZM24.8677 30.08C23.0497 30.08 22.3657 30.818 22.1857 31.862H27.4777C27.4777 31.124 27.1177 30.08 24.8677 30.08ZM27.5497 34.886H31.2037C31.2037 35.714 30.5557 38.234 25.3897 38.234H24.7237C19.7917 38.234 18.5677 35.534 18.5677 33.14V32.888C18.5677 30.638 19.6837 27.794 24.4177 27.794H25.2097C30.3217 27.794 31.2397 30.638 31.2397 33.428V33.752H22.1497C22.2937 34.904 23.0317 35.84 25.1737 35.84C27.2077 35.84 27.4597 35.048 27.5497 34.886ZM39.9075 38.27H39.3495C33.9675 38.27 33.1395 34.994 33.1395 33.176V32.924C33.1395 31.124 33.9675 27.74 39.3315 27.74H39.9255C45.4695 27.74 46.1175 31.142 46.1175 32.906V33.194C46.1175 34.994 45.4695 38.27 39.9075 38.27ZM39.5295 35.642H39.7275C41.9415 35.642 42.4995 34.058 42.4995 32.96C42.4995 31.826 41.9415 30.314 39.7275 30.314H39.5295C37.2255 30.314 36.7575 31.826 36.7575 32.96C36.7575 34.058 37.2255 35.642 39.5295 35.642ZM52.0422 38H48.5322V28.01H52.0422V31.646H56.9382V28.01H60.4482V38H56.9382V34.31H52.0422V38ZM71.7922 31.952L66.9682 38H63.3682V28.01H66.8782V34.058L71.7022 28.01H75.3022V38H71.7922V31.952ZM77.3937 40.124V35.336H78.5997C79.2837 33.968 79.3917 30.998 79.4817 28.01H90.0477V35.336H91.8477V40.124H88.5177V38H80.7237V40.124H77.3937ZM81.9117 35.336H86.5377V30.674H82.6317C82.5777 31.97 82.3977 33.95 81.9117 35.336ZM100.025 38.27H99.4667C94.0847 38.27 93.2567 34.994 93.2567 33.176V32.924C93.2567 31.124 94.0847 27.74 99.4487 27.74H100.043C105.587 27.74 106.235 31.142 106.235 32.906V33.194C106.235 34.994 105.587 38.27 100.025 38.27ZM99.6467 35.642H99.8447C102.059 35.642 102.617 34.058 102.617 32.96C102.617 31.826 102.059 30.314 99.8447 30.314H99.6467C97.3427 30.314 96.8747 31.826 96.8747 32.96C96.8747 34.058 97.3427 35.642 99.6467 35.642ZM116.893 38H108.649V28.01H116.533C118.819 28.01 120.259 28.82 120.259 30.404V30.494C120.259 31.736 119.467 32.474 118.261 32.672C119.485 32.816 120.583 33.68 120.583 35.12V35.192C120.583 37.01 119.395 38 116.893 38ZM112.159 31.988H115.381C116.227 31.988 116.659 31.664 116.659 31.034V30.944C116.659 30.368 116.263 30.026 115.381 30.026H112.159V31.988ZM112.159 35.984H115.525C116.461 35.984 116.983 35.678 116.983 34.976V34.832C116.983 34.202 116.551 33.806 115.525 33.806H112.159V35.984ZM126.538 38H123.028V28.01H126.538V31.646H131.434V28.01H134.944V38H131.434V34.31H126.538V38ZM142.58 36.002C144.632 36.002 145.334 34.706 145.334 33.95V33.176C145.028 33.302 144.146 33.482 143.138 33.644C141.446 33.932 140.906 34.166 140.906 34.868V34.904C140.906 35.534 141.356 36.002 142.58 36.002ZM145.442 36.614C145.01 37.136 143.93 38.198 141.59 38.198H141.302C138.512 38.198 137.36 36.686 137.36 35.03V34.958C137.36 33.23 138.458 32.168 141.842 31.88L144.578 31.646C145.136 31.592 145.334 31.412 145.334 30.998C145.334 30.53 145.19 30.026 143.246 30.026C141.41 30.026 141.23 30.746 141.23 31.124H137.63V31.088C137.63 30.098 138.026 27.776 142.94 27.776H143.498C148.448 27.776 148.754 29.81 148.754 31.142V34.436C148.754 35.066 148.88 35.318 149.582 35.318H149.96V38H147.116C146.072 38 145.586 37.262 145.442 36.614ZM169.873 40.25V38H157.363V24.608H161.071V35.048H167.533V24.608H171.241V35.048H173.401V40.25H169.873ZM181.57 38.27H181.012C175.63 38.27 174.802 34.994 174.802 33.176V32.924C174.802 31.124 175.63 27.74 180.994 27.74H181.588C187.132 27.74 187.78 31.142 187.78 32.906V33.194C187.78 34.994 187.132 38.27 181.57 38.27ZM181.192 35.642H181.39C183.604 35.642 184.162 34.058 184.162 32.96C184.162 31.826 183.604 30.314 181.39 30.314H181.192C178.888 30.314 178.42 31.826 178.42 32.96C178.42 34.058 178.888 35.642 181.192 35.642ZM198.618 31.952L193.794 38H190.194V28.01H193.704V34.058L198.528 28.01H202.128V38H198.618V31.952ZM196.386 26.984H195.846C192.984 26.984 192.48 25.04 192.48 24.104V24.05H195.126C195.126 24.284 195.234 25.004 196.134 25.004C196.98 25.004 197.106 24.284 197.106 24.05H199.716V24.104C199.716 25.04 198.996 26.984 196.386 26.984Z" fill="url(#paint1_radial_2017_866)" style="mix-blend-mode:overlay"/>
<path d="M11.808 14L5.364 7.7V14H1.656V0.608H5.364V6.116L11.628 0.608H16.344L9.288 6.746L16.65 14H11.808ZM25.6127 10.076H29.2847C29.2847 11.588 28.3847 14.27 23.5787 14.27H22.6967C17.7107 14.27 16.7747 11.03 16.7747 9.14V8.888C16.7747 6.998 17.6567 3.74 22.6787 3.74H23.5067C28.3307 3.74 29.2847 6.368 29.2847 7.808V7.826H25.6127C25.5587 7.538 25.2167 6.296 23.1467 6.296H22.9667C20.8967 6.296 20.4107 7.718 20.4107 8.924V8.942C20.4107 10.184 21.0047 11.66 23.0387 11.66H23.2187C25.3067 11.66 25.6127 10.31 25.6127 10.076ZM37.4888 6.08C35.6708 6.08 34.9868 6.818 34.8068 7.862H40.0988C40.0988 7.124 39.7388 6.08 37.4888 6.08ZM40.1708 10.886H43.8248C43.8248 11.714 43.1768 14.234 38.0108 14.234H37.3448C32.4128 14.234 31.1888 11.534 31.1888 9.14V8.888C31.1888 6.638 32.3048 3.794 37.0388 3.794H37.8308C42.9428 3.794 43.8608 6.638 43.8608 9.428V9.752H34.7708C34.9148 10.904 35.6528 11.84 37.7948 11.84C39.8288 11.84 40.0808 11.048 40.1708 10.886ZM49.7746 14H46.2646V4.01H49.7746V7.646H54.6706V4.01H58.1806V14H54.6706V10.31H49.7746V14ZM69.5246 7.952L64.7006 14H61.1006V4.01H64.6106V10.058L69.4346 4.01H73.0346V14H69.5246V7.952ZM84.3601 10.652H82.0021L79.0861 14H75.1261L78.3841 10.274C76.6561 9.932 75.6661 8.942 75.6661 7.43V7.214C75.6661 5.396 77.1421 4.01 79.6441 4.01H87.8701V14H84.3601V10.652ZM84.3601 6.314H80.5981C79.8241 6.314 79.1761 6.494 79.1761 7.286V7.358C79.1761 8.132 79.8421 8.366 80.6161 8.366H84.3601V6.314ZM12.24 38V27.56H6.48C6.48 31.214 6.318 34.004 5.832 35.462C5.4 36.74 4.626 38 1.962 38H0.63V34.85H0.756C1.854 34.85 2.304 34.346 2.52 33.788C2.88 32.852 2.97 31.574 2.97 24.608H15.948V38H12.24ZM24.8677 30.08C23.0497 30.08 22.3657 30.818 22.1857 31.862H27.4777C27.4777 31.124 27.1177 30.08 24.8677 30.08ZM27.5497 34.886H31.2037C31.2037 35.714 30.5557 38.234 25.3897 38.234H24.7237C19.7917 38.234 18.5677 35.534 18.5677 33.14V32.888C18.5677 30.638 19.6837 27.794 24.4177 27.794H25.2097C30.3217 27.794 31.2397 30.638 31.2397 33.428V33.752H22.1497C22.2937 34.904 23.0317 35.84 25.1737 35.84C27.2077 35.84 27.4597 35.048 27.5497 34.886ZM39.9075 38.27H39.3495C33.9675 38.27 33.1395 34.994 33.1395 33.176V32.924C33.1395 31.124 33.9675 27.74 39.3315 27.74H39.9255C45.4695 27.74 46.1175 31.142 46.1175 32.906V33.194C46.1175 34.994 45.4695 38.27 39.9075 38.27ZM39.5295 35.642H39.7275C41.9415 35.642 42.4995 34.058 42.4995 32.96C42.4995 31.826 41.9415 30.314 39.7275 30.314H39.5295C37.2255 30.314 36.7575 31.826 36.7575 32.96C36.7575 34.058 37.2255 35.642 39.5295 35.642ZM52.0422 38H48.5322V28.01H52.0422V31.646H56.9382V28.01H60.4482V38H56.9382V34.31H52.0422V38ZM71.7922 31.952L66.9682 38H63.3682V28.01H66.8782V34.058L71.7022 28.01H75.3022V38H71.7922V31.952ZM77.3937 40.124V35.336H78.5997C79.2837 33.968 79.3917 30.998 79.4817 28.01H90.0477V35.336H91.8477V40.124H88.5177V38H80.7237V40.124H77.3937ZM81.9117 35.336H86.5377V30.674H82.6317C82.5777 31.97 82.3977 33.95 81.9117 35.336ZM100.025 38.27H99.4667C94.0847 38.27 93.2567 34.994 93.2567 33.176V32.924C93.2567 31.124 94.0847 27.74 99.4487 27.74H100.043C105.587 27.74 106.235 31.142 106.235 32.906V33.194C106.235 34.994 105.587 38.27 100.025 38.27ZM99.6467 35.642H99.8447C102.059 35.642 102.617 34.058 102.617 32.96C102.617 31.826 102.059 30.314 99.8447 30.314H99.6467C97.3427 30.314 96.8747 31.826 96.8747 32.96C96.8747 34.058 97.3427 35.642 99.6467 35.642ZM116.893 38H108.649V28.01H116.533C118.819 28.01 120.259 28.82 120.259 30.404V30.494C120.259 31.736 119.467 32.474 118.261 32.672C119.485 32.816 120.583 33.68 120.583 35.12V35.192C120.583 37.01 119.395 38 116.893 38ZM112.159 31.988H115.381C116.227 31.988 116.659 31.664 116.659 31.034V30.944C116.659 30.368 116.263 30.026 115.381 30.026H112.159V31.988ZM112.159 35.984H115.525C116.461 35.984 116.983 35.678 116.983 34.976V34.832C116.983 34.202 116.551 33.806 115.525 33.806H112.159V35.984ZM126.538 38H123.028V28.01H126.538V31.646H131.434V28.01H134.944V38H131.434V34.31H126.538V38ZM142.58 36.002C144.632 36.002 145.334 34.706 145.334 33.95V33.176C145.028 33.302 144.146 33.482 143.138 33.644C141.446 33.932 140.906 34.166 140.906 34.868V34.904C140.906 35.534 141.356 36.002 142.58 36.002ZM145.442 36.614C145.01 37.136 143.93 38.198 141.59 38.198H141.302C138.512 38.198 137.36 36.686 137.36 35.03V34.958C137.36 33.23 138.458 32.168 141.842 31.88L144.578 31.646C145.136 31.592 145.334 31.412 145.334 30.998C145.334 30.53 145.19 30.026 143.246 30.026C141.41 30.026 141.23 30.746 141.23 31.124H137.63V31.088C137.63 30.098 138.026 27.776 142.94 27.776H143.498C148.448 27.776 148.754 29.81 148.754 31.142V34.436C148.754 35.066 148.88 35.318 149.582 35.318H149.96V38H147.116C146.072 38 145.586 37.262 145.442 36.614ZM169.873 40.25V38H157.363V24.608H161.071V35.048H167.533V24.608H171.241V35.048H173.401V40.25H169.873ZM181.57 38.27H181.012C175.63 38.27 174.802 34.994 174.802 33.176V32.924C174.802 31.124 175.63 27.74 180.994 27.74H181.588C187.132 27.74 187.78 31.142 187.78 32.906V33.194C187.78 34.994 187.132 38.27 181.57 38.27ZM181.192 35.642H181.39C183.604 35.642 184.162 34.058 184.162 32.96C184.162 31.826 183.604 30.314 181.39 30.314H181.192C178.888 30.314 178.42 31.826 178.42 32.96C178.42 34.058 178.888 35.642 181.192 35.642ZM198.618 31.952L193.794 38H190.194V28.01H193.704V34.058L198.528 28.01H202.128V38H198.618V31.952ZM196.386 26.984H195.846C192.984 26.984 192.48 25.04 192.48 24.104V24.05H195.126C195.126 24.284 195.234 25.004 196.134 25.004C196.98 25.004 197.106 24.284 197.106 24.05H199.716V24.104C199.716 25.04 198.996 26.984 196.386 26.984Z" fill="url(#paint2_radial_2017_866)"/>
<path d="M11.808 14L5.364 7.7V14H1.656V0.608H5.364V6.116L11.628 0.608H16.344L9.288 6.746L16.65 14H11.808ZM25.6127 10.076H29.2847C29.2847 11.588 28.3847 14.27 23.5787 14.27H22.6967C17.7107 14.27 16.7747 11.03 16.7747 9.14V8.888C16.7747 6.998 17.6567 3.74 22.6787 3.74H23.5067C28.3307 3.74 29.2847 6.368 29.2847 7.808V7.826H25.6127C25.5587 7.538 25.2167 6.296 23.1467 6.296H22.9667C20.8967 6.296 20.4107 7.718 20.4107 8.924V8.942C20.4107 10.184 21.0047 11.66 23.0387 11.66H23.2187C25.3067 11.66 25.6127 10.31 25.6127 10.076ZM37.4888 6.08C35.6708 6.08 34.9868 6.818 34.8068 7.862H40.0988C40.0988 7.124 39.7388 6.08 37.4888 6.08ZM40.1708 10.886H43.8248C43.8248 11.714 43.1768 14.234 38.0108 14.234H37.3448C32.4128 14.234 31.1888 11.534 31.1888 9.14V8.888C31.1888 6.638 32.3048 3.794 37.0388 3.794H37.8308C42.9428 3.794 43.8608 6.638 43.8608 9.428V9.752H34.7708C34.9148 10.904 35.6528 11.84 37.7948 11.84C39.8288 11.84 40.0808 11.048 40.1708 10.886ZM49.7746 14H46.2646V4.01H49.7746V7.646H54.6706V4.01H58.1806V14H54.6706V10.31H49.7746V14ZM69.5246 7.952L64.7006 14H61.1006V4.01H64.6106V10.058L69.4346 4.01H73.0346V14H69.5246V7.952ZM84.3601 10.652H82.0021L79.0861 14H75.1261L78.3841 10.274C76.6561 9.932 75.6661 8.942 75.6661 7.43V7.214C75.6661 5.396 77.1421 4.01 79.6441 4.01H87.8701V14H84.3601V10.652ZM84.3601 6.314H80.5981C79.8241 6.314 79.1761 6.494 79.1761 7.286V7.358C79.1761 8.132 79.8421 8.366 80.6161 8.366H84.3601V6.314ZM12.24 38V27.56H6.48C6.48 31.214 6.318 34.004 5.832 35.462C5.4 36.74 4.626 38 1.962 38H0.63V34.85H0.756C1.854 34.85 2.304 34.346 2.52 33.788C2.88 32.852 2.97 31.574 2.97 24.608H15.948V38H12.24ZM24.8677 30.08C23.0497 30.08 22.3657 30.818 22.1857 31.862H27.4777C27.4777 31.124 27.1177 30.08 24.8677 30.08ZM27.5497 34.886H31.2037C31.2037 35.714 30.5557 38.234 25.3897 38.234H24.7237C19.7917 38.234 18.5677 35.534 18.5677 33.14V32.888C18.5677 30.638 19.6837 27.794 24.4177 27.794H25.2097C30.3217 27.794 31.2397 30.638 31.2397 33.428V33.752H22.1497C22.2937 34.904 23.0317 35.84 25.1737 35.84C27.2077 35.84 27.4597 35.048 27.5497 34.886ZM39.9075 38.27H39.3495C33.9675 38.27 33.1395 34.994 33.1395 33.176V32.924C33.1395 31.124 33.9675 27.74 39.3315 27.74H39.9255C45.4695 27.74 46.1175 31.142 46.1175 32.906V33.194C46.1175 34.994 45.4695 38.27 39.9075 38.27ZM39.5295 35.642H39.7275C41.9415 35.642 42.4995 34.058 42.4995 32.96C42.4995 31.826 41.9415 30.314 39.7275 30.314H39.5295C37.2255 30.314 36.7575 31.826 36.7575 32.96C36.7575 34.058 37.2255 35.642 39.5295 35.642ZM52.0422 38H48.5322V28.01H52.0422V31.646H56.9382V28.01H60.4482V38H56.9382V34.31H52.0422V38ZM71.7922 31.952L66.9682 38H63.3682V28.01H66.8782V34.058L71.7022 28.01H75.3022V38H71.7922V31.952ZM77.3937 40.124V35.336H78.5997C79.2837 33.968 79.3917 30.998 79.4817 28.01H90.0477V35.336H91.8477V40.124H88.5177V38H80.7237V40.124H77.3937ZM81.9117 35.336H86.5377V30.674H82.6317C82.5777 31.97 82.3977 33.95 81.9117 35.336ZM100.025 38.27H99.4667C94.0847 38.27 93.2567 34.994 93.2567 33.176V32.924C93.2567 31.124 94.0847 27.74 99.4487 27.74H100.043C105.587 27.74 106.235 31.142 106.235 32.906V33.194C106.235 34.994 105.587 38.27 100.025 38.27ZM99.6467 35.642H99.8447C102.059 35.642 102.617 34.058 102.617 32.96C102.617 31.826 102.059 30.314 99.8447 30.314H99.6467C97.3427 30.314 96.8747 31.826 96.8747 32.96C96.8747 34.058 97.3427 35.642 99.6467 35.642ZM116.893 38H108.649V28.01H116.533C118.819 28.01 120.259 28.82 120.259 30.404V30.494C120.259 31.736 119.467 32.474 118.261 32.672C119.485 32.816 120.583 33.68 120.583 35.12V35.192C120.583 37.01 119.395 38 116.893 38ZM112.159 31.988H115.381C116.227 31.988 116.659 31.664 116.659 31.034V30.944C116.659 30.368 116.263 30.026 115.381 30.026H112.159V31.988ZM112.159 35.984H115.525C116.461 35.984 116.983 35.678 116.983 34.976V34.832C116.983 34.202 116.551 33.806 115.525 33.806H112.159V35.984ZM126.538 38H123.028V28.01H126.538V31.646H131.434V28.01H134.944V38H131.434V34.31H126.538V38ZM142.58 36.002C144.632 36.002 145.334 34.706 145.334 33.95V33.176C145.028 33.302 144.146 33.482 143.138 33.644C141.446 33.932 140.906 34.166 140.906 34.868V34.904C140.906 35.534 141.356 36.002 142.58 36.002ZM145.442 36.614C145.01 37.136 143.93 38.198 141.59 38.198H141.302C138.512 38.198 137.36 36.686 137.36 35.03V34.958C137.36 33.23 138.458 32.168 141.842 31.88L144.578 31.646C145.136 31.592 145.334 31.412 145.334 30.998C145.334 30.53 145.19 30.026 143.246 30.026C141.41 30.026 141.23 30.746 141.23 31.124H137.63V31.088C137.63 30.098 138.026 27.776 142.94 27.776H143.498C148.448 27.776 148.754 29.81 148.754 31.142V34.436C148.754 35.066 148.88 35.318 149.582 35.318H149.96V38H147.116C146.072 38 145.586 37.262 145.442 36.614ZM169.873 40.25V38H157.363V24.608H161.071V35.048H167.533V24.608H171.241V35.048H173.401V40.25H169.873ZM181.57 38.27H181.012C175.63 38.27 174.802 34.994 174.802 33.176V32.924C174.802 31.124 175.63 27.74 180.994 27.74H181.588C187.132 27.74 187.78 31.142 187.78 32.906V33.194C187.78 34.994 187.132 38.27 181.57 38.27ZM181.192 35.642H181.39C183.604 35.642 184.162 34.058 184.162 32.96C184.162 31.826 183.604 30.314 181.39 30.314H181.192C178.888 30.314 178.42 31.826 178.42 32.96C178.42 34.058 178.888 35.642 181.192 35.642ZM198.618 31.952L193.794 38H190.194V28.01H193.704V34.058L198.528 28.01H202.128V38H198.618V31.952ZM196.386 26.984H195.846C192.984 26.984 192.48 25.04 192.48 24.104V24.05H195.126C195.126 24.284 195.234 25.004 196.134 25.004C196.98 25.004 197.106 24.284 197.106 24.05H199.716V24.104C199.716 25.04 198.996 26.984 196.386 26.984Z" fill="#C1A875" style="mix-blend-mode:color"/>
<defs>
<linearGradient id="paint0_linear_2017_866" x1="8.27014e-07" y1="18" x2="222" y2="18" gradientUnits="userSpaceOnUse">
<stop stop-color="#576167"/>
<stop offset="0.191294" stop-color="#9EA1A2"/>
<stop offset="0.396166" stop-color="#848989"/>
<stop offset="0.62055" stop-color="#576167"/>
<stop offset="0.830299" stop-color="#757A7C"/>
<stop offset="1" stop-color="#576167"/>
</linearGradient>
<radialGradient id="paint1_radial_2017_866" cx="0" cy="0" r="1" gradientUnits="userSpaceOnUse" gradientTransform="translate(118.226 -0.404494) rotate(90) scale(35.6629 167.95)">
<stop stop-color="white"/>
<stop offset="1" stop-color="white" stop-opacity="0"/>
</radialGradient>
<radialGradient id="paint2_radial_2017_866" cx="0" cy="0" r="1" gradientUnits="userSpaceOnUse" gradientTransform="translate(130.783 53.3258) rotate(-89.6015) scale(51.1024 240.159)">
<stop stop-color="white"/>
<stop offset="1" stop-color="white" stop-opacity="0"/>
</radialGradient>
</defs>
</svg>
