<svg width="420" height="47" viewBox="0 0 420 47" fill="none" xmlns="http://www.w3.org/2000/svg">
<path d="M47.1 46H0.72V39.52C0.72 33.16 1.56 27.28 18.36 22L25.5 19.84C31.44 18.1 33 16.9 33 14.68C33 12.28 31.44 10.36 24.06 10.36C15.3 10.36 14.58 15.28 14.4 17.44H1.5V17.02C1.5 10.96 4.5 0.819999 22.5 0.819999H25.2C41.16 0.819999 46.08 7 46.08 14.62V15.1C46.08 22.84 41.76 26.08 29.34 28.96C26.94 29.5 24.3 30.1 22.2 30.64C13.38 32.86 11.82 34.36 11.82 35.32H47.1V46ZM79.0589 0.639997H81.5789C102.519 0.639997 106.539 14.74 106.539 22.66V24.46C106.539 32.26 102.399 46.72 81.5789 46.72H79.0589C58.1789 46.72 54.0989 32.26 54.0989 24.46V22.66C54.0989 14.56 58.1789 0.639997 79.0589 0.639997ZM93.6989 23.92V23.08C93.6989 19.06 92.0189 10.84 80.3189 10.84C68.4989 10.84 66.9389 19.06 66.9389 23.08V23.92C66.9389 28 68.8589 36.46 80.3789 36.46C91.8989 36.46 93.6989 28 93.6989 23.92ZM133.125 46V1.36H149.565L163.785 31.6L178.425 1.36H193.845V46H181.785V16.78L168.225 46H158.565L145.005 16.78V46H133.125ZM236.043 28.54L227.943 10.36L220.083 28.54H236.043ZM243.843 46L240.183 37.72H216.063L212.463 46H200.043L219.843 1.36H236.403L257.103 46H243.843ZM293.502 31.72H275.622V46H263.262V1.36H293.502C307.602 1.36 311.982 7.54 311.982 16.18V16.84C311.982 25.3 307.422 31.72 293.502 31.72ZM275.622 11.32V21.76H292.602C297.162 21.76 299.142 19.84 299.142 16.66V16.42C299.142 13.3 297.162 11.32 292.602 11.32H275.622ZM334.853 46V11.56H317.573V1.36H364.433V11.56H347.153V46H334.853ZM398.758 28.54L390.658 10.36L382.798 28.54H398.758ZM406.558 46L402.898 37.72H378.778L375.178 46H362.758L382.558 1.36H399.118L419.818 46H406.558Z" fill="url(#paint0_linear_10_590)"/>
<path d="M47.1 46H0.72V39.52C0.72 33.16 1.56 27.28 18.36 22L25.5 19.84C31.44 18.1 33 16.9 33 14.68C33 12.28 31.44 10.36 24.06 10.36C15.3 10.36 14.58 15.28 14.4 17.44H1.5V17.02C1.5 10.96 4.5 0.819999 22.5 0.819999H25.2C41.16 0.819999 46.08 7 46.08 14.62V15.1C46.08 22.84 41.76 26.08 29.34 28.96C26.94 29.5 24.3 30.1 22.2 30.64C13.38 32.86 11.82 34.36 11.82 35.32H47.1V46ZM79.0589 0.639997H81.5789C102.519 0.639997 106.539 14.74 106.539 22.66V24.46C106.539 32.26 102.399 46.72 81.5789 46.72H79.0589C58.1789 46.72 54.0989 32.26 54.0989 24.46V22.66C54.0989 14.56 58.1789 0.639997 79.0589 0.639997ZM93.6989 23.92V23.08C93.6989 19.06 92.0189 10.84 80.3189 10.84C68.4989 10.84 66.9389 19.06 66.9389 23.08V23.92C66.9389 28 68.8589 36.46 80.3789 36.46C91.8989 36.46 93.6989 28 93.6989 23.92ZM133.125 46V1.36H149.565L163.785 31.6L178.425 1.36H193.845V46H181.785V16.78L168.225 46H158.565L145.005 16.78V46H133.125ZM236.043 28.54L227.943 10.36L220.083 28.54H236.043ZM243.843 46L240.183 37.72H216.063L212.463 46H200.043L219.843 1.36H236.403L257.103 46H243.843ZM293.502 31.72H275.622V46H263.262V1.36H293.502C307.602 1.36 311.982 7.54 311.982 16.18V16.84C311.982 25.3 307.422 31.72 293.502 31.72ZM275.622 11.32V21.76H292.602C297.162 21.76 299.142 19.84 299.142 16.66V16.42C299.142 13.3 297.162 11.32 292.602 11.32H275.622ZM334.853 46V11.56H317.573V1.36H364.433V11.56H347.153V46H334.853ZM398.758 28.54L390.658 10.36L382.798 28.54H398.758ZM406.558 46L402.898 37.72H378.778L375.178 46H362.758L382.558 1.36H399.118L419.818 46H406.558Z" fill="url(#paint1_radial_10_590)" style="mix-blend-mode:overlay"/>
<path d="M47.1 46H0.72V39.52C0.72 33.16 1.56 27.28 18.36 22L25.5 19.84C31.44 18.1 33 16.9 33 14.68C33 12.28 31.44 10.36 24.06 10.36C15.3 10.36 14.58 15.28 14.4 17.44H1.5V17.02C1.5 10.96 4.5 0.819999 22.5 0.819999H25.2C41.16 0.819999 46.08 7 46.08 14.62V15.1C46.08 22.84 41.76 26.08 29.34 28.96C26.94 29.5 24.3 30.1 22.2 30.64C13.38 32.86 11.82 34.36 11.82 35.32H47.1V46ZM79.0589 0.639997H81.5789C102.519 0.639997 106.539 14.74 106.539 22.66V24.46C106.539 32.26 102.399 46.72 81.5789 46.72H79.0589C58.1789 46.72 54.0989 32.26 54.0989 24.46V22.66C54.0989 14.56 58.1789 0.639997 79.0589 0.639997ZM93.6989 23.92V23.08C93.6989 19.06 92.0189 10.84 80.3189 10.84C68.4989 10.84 66.9389 19.06 66.9389 23.08V23.92C66.9389 28 68.8589 36.46 80.3789 36.46C91.8989 36.46 93.6989 28 93.6989 23.92ZM133.125 46V1.36H149.565L163.785 31.6L178.425 1.36H193.845V46H181.785V16.78L168.225 46H158.565L145.005 16.78V46H133.125ZM236.043 28.54L227.943 10.36L220.083 28.54H236.043ZM243.843 46L240.183 37.72H216.063L212.463 46H200.043L219.843 1.36H236.403L257.103 46H243.843ZM293.502 31.72H275.622V46H263.262V1.36H293.502C307.602 1.36 311.982 7.54 311.982 16.18V16.84C311.982 25.3 307.422 31.72 293.502 31.72ZM275.622 11.32V21.76H292.602C297.162 21.76 299.142 19.84 299.142 16.66V16.42C299.142 13.3 297.162 11.32 292.602 11.32H275.622ZM334.853 46V11.56H317.573V1.36H364.433V11.56H347.153V46H334.853ZM398.758 28.54L390.658 10.36L382.798 28.54H398.758ZM406.558 46L402.898 37.72H378.778L375.178 46H362.758L382.558 1.36H399.118L419.818 46H406.558Z" fill="url(#paint2_radial_10_590)"/>
<path d="M47.1 46H0.72V39.52C0.72 33.16 1.56 27.28 18.36 22L25.5 19.84C31.44 18.1 33 16.9 33 14.68C33 12.28 31.44 10.36 24.06 10.36C15.3 10.36 14.58 15.28 14.4 17.44H1.5V17.02C1.5 10.96 4.5 0.819999 22.5 0.819999H25.2C41.16 0.819999 46.08 7 46.08 14.62V15.1C46.08 22.84 41.76 26.08 29.34 28.96C26.94 29.5 24.3 30.1 22.2 30.64C13.38 32.86 11.82 34.36 11.82 35.32H47.1V46ZM79.0589 0.639997H81.5789C102.519 0.639997 106.539 14.74 106.539 22.66V24.46C106.539 32.26 102.399 46.72 81.5789 46.72H79.0589C58.1789 46.72 54.0989 32.26 54.0989 24.46V22.66C54.0989 14.56 58.1789 0.639997 79.0589 0.639997ZM93.6989 23.92V23.08C93.6989 19.06 92.0189 10.84 80.3189 10.84C68.4989 10.84 66.9389 19.06 66.9389 23.08V23.92C66.9389 28 68.8589 36.46 80.3789 36.46C91.8989 36.46 93.6989 28 93.6989 23.92ZM133.125 46V1.36H149.565L163.785 31.6L178.425 1.36H193.845V46H181.785V16.78L168.225 46H158.565L145.005 16.78V46H133.125ZM236.043 28.54L227.943 10.36L220.083 28.54H236.043ZM243.843 46L240.183 37.72H216.063L212.463 46H200.043L219.843 1.36H236.403L257.103 46H243.843ZM293.502 31.72H275.622V46H263.262V1.36H293.502C307.602 1.36 311.982 7.54 311.982 16.18V16.84C311.982 25.3 307.422 31.72 293.502 31.72ZM275.622 11.32V21.76H292.602C297.162 21.76 299.142 19.84 299.142 16.66V16.42C299.142 13.3 297.162 11.32 292.602 11.32H275.622ZM334.853 46V11.56H317.573V1.36H364.433V11.56H347.153V46H334.853ZM398.758 28.54L390.658 10.36L382.798 28.54H398.758ZM406.558 46L402.898 37.72H378.778L375.178 46H362.758L382.558 1.36H399.118L419.818 46H406.558Z" fill="#C1A875" style="mix-blend-mode:color"/>
<defs>
<linearGradient id="paint0_linear_10_590" x1="-3" y1="20.5" x2="421" y2="20.5" gradientUnits="userSpaceOnUse">
<stop stop-color="#576167"/>
<stop offset="0.191294" stop-color="#9EA1A2"/>
<stop offset="0.396166" stop-color="#848989"/>
<stop offset="0.62055" stop-color="#576167"/>
<stop offset="0.830299" stop-color="#757A7C"/>
<stop offset="1" stop-color="#576167"/>
</linearGradient>
<radialGradient id="paint1_radial_10_590" cx="0" cy="0" r="1" gradientUnits="userSpaceOnUse" gradientTransform="translate(222.801 -10.5576) rotate(90) scale(60.1812 320.77)">
<stop stop-color="white"/>
<stop offset="1" stop-color="white" stop-opacity="0"/>
</radialGradient>
<radialGradient id="paint2_radial_10_590" cx="0" cy="0" r="1" gradientUnits="userSpaceOnUse" gradientTransform="translate(246.784 80.1124) rotate(-89.549) scale(86.2358 458.679)">
<stop stop-color="white"/>
<stop offset="1" stop-color="white" stop-opacity="0"/>
</radialGradient>
</defs>
</svg>
