<svg width="980" height="306" viewBox="0 0 980 306" fill="none" xmlns="http://www.w3.org/2000/svg">
<g clip-path="url(#clip0_41_243)">
<mask id="path-1-inside-1_41_243" fill="white">
<path d="M0 0H980V306H0V0Z"/>
</mask>
<path d="M0 0H980V306H0V0Z" fill="#0C0C0C"/>
<path d="M3.00887 28.4345L9.92052 34.1051L18.1965 30.7237L31.3786 25.3378L39.2361 37.2135L44.1693 44.6694L53.0743 43.8776L67.2582 42.6165L71.2662 56.2807L73.7825 64.8594L82.5253 66.7276L96.4508 69.7033L96.2531 83.9418L96.1291 92.8811L103.933 97.2432L116.363 104.191L111.977 117.739L109.223 126.245L115.394 132.713L125.224 143.016L117.04 154.669L111.902 161.985L115.892 169.986L122.248 182.728L110.993 191.451L103.926 196.928L105.381 205.749L107.699 219.799L94.3725 224.817L86.0058 227.967L84.7961 236.825L82.8695 250.934L68.656 251.801L59.7324 252.345L55.9656 260.453L49.9658 273.367L36.1283 270.006L27.4407 267.896L21.4514 274.533L11.9117 285.105L-0.320389 277.815L-8 273.238L-15.6796 277.815L-27.9117 285.105L-37.4514 274.533L-43.4407 267.896L-52.1283 270.006L-65.9658 273.367L-71.9656 260.453L-75.7324 252.345L-84.656 251.801L-98.8695 250.934L-100.796 236.825L-102.006 227.967L-110.372 224.817L-123.699 219.799L-121.381 205.749L-119.926 196.928L-126.993 191.451L-138.248 182.728L-131.892 169.986L-127.902 161.985L-133.04 154.669L-141.224 143.016L-131.394 132.713L-125.223 126.245L-127.977 117.739L-132.363 104.191L-119.933 97.2432L-112.129 92.8811L-112.253 83.9418L-112.451 69.7033L-98.5253 66.7276L-89.7825 64.8594L-87.2662 56.2807L-83.2582 42.6165L-69.0743 43.8776L-60.1693 44.6694L-55.2361 37.2135L-47.3786 25.3378L-34.1965 30.7237L-25.9205 34.1051L-19.0089 28.4345L-8 19.4024L3.00887 28.4345Z" stroke="url(#paint0_linear_41_243)" stroke-width="30"/>
<path d="M3.00887 28.4345L9.92052 34.1051L18.1965 30.7237L31.3786 25.3378L39.2361 37.2135L44.1693 44.6694L53.0743 43.8776L67.2582 42.6165L71.2662 56.2807L73.7825 64.8594L82.5253 66.7276L96.4508 69.7033L96.2531 83.9418L96.1291 92.8811L103.933 97.2432L116.363 104.191L111.977 117.739L109.223 126.245L115.394 132.713L125.224 143.016L117.04 154.669L111.902 161.985L115.892 169.986L122.248 182.728L110.993 191.451L103.926 196.928L105.381 205.749L107.699 219.799L94.3725 224.817L86.0058 227.967L84.7961 236.825L82.8695 250.934L68.656 251.801L59.7324 252.345L55.9656 260.453L49.9658 273.367L36.1283 270.006L27.4407 267.896L21.4514 274.533L11.9117 285.105L-0.320389 277.815L-8 273.238L-15.6796 277.815L-27.9117 285.105L-37.4514 274.533L-43.4407 267.896L-52.1283 270.006L-65.9658 273.367L-71.9656 260.453L-75.7324 252.345L-84.656 251.801L-98.8695 250.934L-100.796 236.825L-102.006 227.967L-110.372 224.817L-123.699 219.799L-121.381 205.749L-119.926 196.928L-126.993 191.451L-138.248 182.728L-131.892 169.986L-127.902 161.985L-133.04 154.669L-141.224 143.016L-131.394 132.713L-125.223 126.245L-127.977 117.739L-132.363 104.191L-119.933 97.2432L-112.129 92.8811L-112.253 83.9418L-112.451 69.7033L-98.5253 66.7276L-89.7825 64.8594L-87.2662 56.2807L-83.2582 42.6165L-69.0743 43.8776L-60.1693 44.6694L-55.2361 37.2135L-47.3786 25.3378L-34.1965 30.7237L-25.9205 34.1051L-19.0089 28.4345L-8 19.4024L3.00887 28.4345Z" stroke="url(#paint1_radial_41_243)" stroke-width="30" style="mix-blend-mode:overlay"/>
<path d="M3.00887 28.4345L9.92052 34.1051L18.1965 30.7237L31.3786 25.3378L39.2361 37.2135L44.1693 44.6694L53.0743 43.8776L67.2582 42.6165L71.2662 56.2807L73.7825 64.8594L82.5253 66.7276L96.4508 69.7033L96.2531 83.9418L96.1291 92.8811L103.933 97.2432L116.363 104.191L111.977 117.739L109.223 126.245L115.394 132.713L125.224 143.016L117.04 154.669L111.902 161.985L115.892 169.986L122.248 182.728L110.993 191.451L103.926 196.928L105.381 205.749L107.699 219.799L94.3725 224.817L86.0058 227.967L84.7961 236.825L82.8695 250.934L68.656 251.801L59.7324 252.345L55.9656 260.453L49.9658 273.367L36.1283 270.006L27.4407 267.896L21.4514 274.533L11.9117 285.105L-0.320389 277.815L-8 273.238L-15.6796 277.815L-27.9117 285.105L-37.4514 274.533L-43.4407 267.896L-52.1283 270.006L-65.9658 273.367L-71.9656 260.453L-75.7324 252.345L-84.656 251.801L-98.8695 250.934L-100.796 236.825L-102.006 227.967L-110.372 224.817L-123.699 219.799L-121.381 205.749L-119.926 196.928L-126.993 191.451L-138.248 182.728L-131.892 169.986L-127.902 161.985L-133.04 154.669L-141.224 143.016L-131.394 132.713L-125.223 126.245L-127.977 117.739L-132.363 104.191L-119.933 97.2432L-112.129 92.8811L-112.253 83.9418L-112.451 69.7033L-98.5253 66.7276L-89.7825 64.8594L-87.2662 56.2807L-83.2582 42.6165L-69.0743 43.8776L-60.1693 44.6694L-55.2361 37.2135L-47.3786 25.3378L-34.1965 30.7237L-25.9205 34.1051L-19.0089 28.4345L-8 19.4024L3.00887 28.4345Z" stroke="url(#paint2_radial_41_243)" stroke-width="30"/>
<path d="M3.00887 28.4345L9.92052 34.1051L18.1965 30.7237L31.3786 25.3378L39.2361 37.2135L44.1693 44.6694L53.0743 43.8776L67.2582 42.6165L71.2662 56.2807L73.7825 64.8594L82.5253 66.7276L96.4508 69.7033L96.2531 83.9418L96.1291 92.8811L103.933 97.2432L116.363 104.191L111.977 117.739L109.223 126.245L115.394 132.713L125.224 143.016L117.04 154.669L111.902 161.985L115.892 169.986L122.248 182.728L110.993 191.451L103.926 196.928L105.381 205.749L107.699 219.799L94.3725 224.817L86.0058 227.967L84.7961 236.825L82.8695 250.934L68.656 251.801L59.7324 252.345L55.9656 260.453L49.9658 273.367L36.1283 270.006L27.4407 267.896L21.4514 274.533L11.9117 285.105L-0.320389 277.815L-8 273.238L-15.6796 277.815L-27.9117 285.105L-37.4514 274.533L-43.4407 267.896L-52.1283 270.006L-65.9658 273.367L-71.9656 260.453L-75.7324 252.345L-84.656 251.801L-98.8695 250.934L-100.796 236.825L-102.006 227.967L-110.372 224.817L-123.699 219.799L-121.381 205.749L-119.926 196.928L-126.993 191.451L-138.248 182.728L-131.892 169.986L-127.902 161.985L-133.04 154.669L-141.224 143.016L-131.394 132.713L-125.223 126.245L-127.977 117.739L-132.363 104.191L-119.933 97.2432L-112.129 92.8811L-112.253 83.9418L-112.451 69.7033L-98.5253 66.7276L-89.7825 64.8594L-87.2662 56.2807L-83.2582 42.6165L-69.0743 43.8776L-60.1693 44.6694L-55.2361 37.2135L-47.3786 25.3378L-34.1965 30.7237L-25.9205 34.1051L-19.0089 28.4345L-8 19.4024L3.00887 28.4345Z" stroke="#C1A875" stroke-width="30" style="mix-blend-mode:color"/>
</g>
<path d="M980 0H981V-1H980V0ZM980 306V307H981V306H980ZM0 1H980V-1H0V1ZM979 0V306H981V0H979ZM980 305H0V307H980V305Z" fill="url(#paint3_linear_41_243)" mask="url(#path-1-inside-1_41_243)"/>
<path d="M980 0H981V-1H980V0ZM980 306V307H981V306H980ZM0 1H980V-1H0V1ZM979 0V306H981V0H979ZM980 305H0V307H980V305Z" fill="url(#paint4_radial_41_243)" style="mix-blend-mode:overlay" mask="url(#path-1-inside-1_41_243)"/>
<path d="M980 0H981V-1H980V0ZM980 306V307H981V306H980ZM0 1H980V-1H0V1ZM979 0V306H981V0H979ZM980 305H0V307H980V305Z" fill="url(#paint5_radial_41_243)" mask="url(#path-1-inside-1_41_243)"/>
<path d="M980 0H981V-1H980V0ZM980 306V307H981V306H980ZM0 1H980V-1H0V1ZM979 0V306H981V0H979ZM980 305H0V307H980V305Z" fill="#C1A875" style="mix-blend-mode:color" mask="url(#path-1-inside-1_41_243)"/>
<defs>
<linearGradient id="paint0_linear_41_243" x1="-161" y1="153" x2="145" y2="153" gradientUnits="userSpaceOnUse">
<stop stop-color="#576167"/>
<stop offset="0.191294" stop-color="#9EA1A2"/>
<stop offset="0.396166" stop-color="#848989"/>
<stop offset="0.62055" stop-color="#576167"/>
<stop offset="0.830299" stop-color="#757A7C"/>
<stop offset="1" stop-color="#576167"/>
</linearGradient>
<radialGradient id="paint1_radial_41_243" cx="0" cy="0" r="1" gradientUnits="userSpaceOnUse" gradientTransform="translate(1.96049 35.6714) rotate(90) scale(227.351 231.499)">
<stop stop-color="white"/>
<stop offset="1" stop-color="white" stop-opacity="0"/>
</radialGradient>
<radialGradient id="paint2_radial_41_243" cx="0" cy="0" r="1" gradientUnits="userSpaceOnUse" gradientTransform="translate(19.2689 378.202) rotate(-89.9138) scale(325.77 331.038)">
<stop stop-color="white"/>
<stop offset="1" stop-color="white" stop-opacity="0"/>
</radialGradient>
<linearGradient id="paint3_linear_41_243" x1="3.65078e-06" y1="153" x2="980" y2="153" gradientUnits="userSpaceOnUse">
<stop stop-color="#576167"/>
<stop offset="0.191294" stop-color="#9EA1A2"/>
<stop offset="0.396166" stop-color="#848989"/>
<stop offset="0.62055" stop-color="#576167"/>
<stop offset="0.830299" stop-color="#757A7C"/>
<stop offset="1" stop-color="#576167"/>
</linearGradient>
<radialGradient id="paint4_radial_41_243" cx="0" cy="0" r="1" gradientUnits="userSpaceOnUse" gradientTransform="translate(521.9 35.6714) rotate(90) scale(227.351 741.402)">
<stop stop-color="white"/>
<stop offset="1" stop-color="white" stop-opacity="0"/>
</radialGradient>
<radialGradient id="paint5_radial_41_243" cx="0" cy="0" r="1" gradientUnits="userSpaceOnUse" gradientTransform="translate(577.332 378.202) rotate(-89.7241) scale(325.773 1060.18)">
<stop stop-color="white"/>
<stop offset="1" stop-color="white" stop-opacity="0"/>
</radialGradient>
<clipPath id="clip0_41_243">
<path d="M0 0H980V306H0V0Z" fill="white"/>
</clipPath>
</defs>
</svg>
