<svg width="221" height="18" viewBox="0 0 221 18" fill="none" xmlns="http://www.w3.org/2000/svg">
<path d="M13.4372 14H0.207248V11.156H5.06725V5.18H1.26925V2.606C4.36525 2.606 5.37325 2.138 5.94925 0.608H8.75725V11.156H13.4372V14ZM19.8078 10.508V14H15.6138V10.508H19.8078ZM40.194 14V5L32.364 14H28.656V0.608H32.364V9.608L40.194 0.608H43.902V14H40.194ZM50.5305 14H47.0205V4.01H50.5305V7.646H55.4265V4.01H58.9365V14H55.4265V10.31H50.5305V14ZM65.3664 14H61.8564V4.01H65.3664V7.646H70.2624V4.01H73.7724V14H70.2624V10.31H65.3664V14ZM82.9564 14.27H82.3984C77.0164 14.27 76.1884 10.994 76.1884 9.176V8.924C76.1884 7.124 77.0164 3.74 82.3804 3.74H82.9744C88.5184 3.74 89.1664 7.142 89.1664 8.906V9.194C89.1664 10.994 88.5184 14.27 82.9564 14.27ZM82.5784 11.642H82.7764C84.9904 11.642 85.5484 10.058 85.5484 8.96C85.5484 7.826 84.9904 6.314 82.7764 6.314H82.5784C80.2744 6.314 79.8064 7.826 79.8064 8.96C79.8064 10.058 80.2744 11.642 82.5784 11.642ZM99.825 14H91.581V4.01H99.465C101.751 4.01 103.191 4.82 103.191 6.404V6.494C103.191 7.736 102.399 8.474 101.193 8.672C102.417 8.816 103.515 9.68 103.515 11.12V11.192C103.515 13.01 102.327 14 99.825 14ZM95.091 7.988H98.313C99.159 7.988 99.591 7.664 99.591 7.034V6.944C99.591 6.368 99.195 6.026 98.313 6.026H95.091V7.988ZM95.091 11.984H98.457C99.393 11.984 99.915 11.678 99.915 10.976V10.832C99.915 10.202 99.483 9.806 98.457 9.806H95.091V11.984ZM110.588 12.002C112.64 12.002 113.342 10.706 113.342 9.95V9.176C113.036 9.302 112.154 9.482 111.146 9.644C109.454 9.932 108.914 10.166 108.914 10.868V10.904C108.914 11.534 109.364 12.002 110.588 12.002ZM113.45 12.614C113.018 13.136 111.938 14.198 109.598 14.198H109.31C106.52 14.198 105.368 12.686 105.368 11.03V10.958C105.368 9.23 106.466 8.168 109.85 7.88L112.586 7.646C113.144 7.592 113.342 7.412 113.342 6.998C113.342 6.53 113.198 6.026 111.254 6.026C109.418 6.026 109.238 6.746 109.238 7.124H105.638V7.088C105.638 6.098 106.034 3.776 110.948 3.776H111.506C116.456 3.776 116.762 5.81 116.762 7.142V10.436C116.762 11.066 116.888 11.318 117.59 11.318H117.968V14H115.124C114.08 14 113.594 13.262 113.45 12.614ZM122.656 14V6.674H118.786V4.01H130.036V6.674H126.166V14H122.656ZM138.204 14.27H137.646C132.264 14.27 131.436 10.994 131.436 9.176V8.924C131.436 7.124 132.264 3.74 137.628 3.74H138.222C143.766 3.74 144.414 7.142 144.414 8.906V9.194C144.414 10.994 143.766 14.27 138.204 14.27ZM137.826 11.642H138.024C140.238 11.642 140.796 10.058 140.796 8.96C140.796 7.826 140.238 6.314 138.024 6.314H137.826C135.522 6.314 135.054 7.826 135.054 8.96C135.054 10.058 135.522 11.642 137.826 11.642ZM156.009 9.014V8.96C156.009 7.88 155.505 6.422 153.309 6.422H153.129C151.023 6.422 150.357 7.808 150.357 8.96V9.014C150.357 10.112 151.023 11.552 153.129 11.552H153.309C155.505 11.552 156.009 10.04 156.009 9.014ZM146.865 17.438V4.01H150.339V5.288C150.771 4.82 152.085 3.812 154.353 3.812H154.587C158.403 3.812 159.645 6.422 159.645 8.798V9.104C159.645 11.282 158.367 14.198 154.569 14.198H154.317C152.031 14.198 150.807 13.154 150.375 12.722V17.438H146.865ZM167.29 14V4.01H176.002V6.674H170.8V14H167.29ZM184.171 14.27H183.613C178.231 14.27 177.403 10.994 177.403 9.176V8.924C177.403 7.124 178.231 3.74 183.595 3.74H184.189C189.733 3.74 190.381 7.142 190.381 8.906V9.194C190.381 10.994 189.733 14.27 184.171 14.27ZM183.793 11.642H183.991C186.205 11.642 186.763 10.058 186.763 8.96C186.763 7.826 186.205 6.314 183.991 6.314H183.793C181.489 6.314 181.021 7.826 181.021 8.96C181.021 10.058 181.489 11.642 183.793 11.642ZM191.704 16.124V11.336H192.91C193.594 9.968 193.702 6.998 193.792 4.01H204.358V11.336H206.158V16.124H202.828V14H195.034V16.124H191.704ZM196.222 11.336H200.848V6.674H196.942C196.888 7.97 196.708 9.95 196.222 11.336ZM212.963 12.002C215.015 12.002 215.717 10.706 215.717 9.95V9.176C215.411 9.302 214.529 9.482 213.521 9.644C211.829 9.932 211.289 10.166 211.289 10.868V10.904C211.289 11.534 211.739 12.002 212.963 12.002ZM215.825 12.614C215.393 13.136 214.313 14.198 211.973 14.198H211.685C208.895 14.198 207.743 12.686 207.743 11.03V10.958C207.743 9.23 208.841 8.168 212.225 7.88L214.961 7.646C215.519 7.592 215.717 7.412 215.717 6.998C215.717 6.53 215.573 6.026 213.629 6.026C211.793 6.026 211.613 6.746 211.613 7.124H208.013V7.088C208.013 6.098 208.409 3.776 213.323 3.776H213.881C218.831 3.776 219.137 5.81 219.137 7.142V10.436C219.137 11.066 219.263 11.318 219.965 11.318H220.343V14H217.499C216.455 14 215.969 13.262 215.825 12.614Z" fill="url(#paint0_linear_41_160)"/>
<path d="M13.4372 14H0.207248V11.156H5.06725V5.18H1.26925V2.606C4.36525 2.606 5.37325 2.138 5.94925 0.608H8.75725V11.156H13.4372V14ZM19.8078 10.508V14H15.6138V10.508H19.8078ZM40.194 14V5L32.364 14H28.656V0.608H32.364V9.608L40.194 0.608H43.902V14H40.194ZM50.5305 14H47.0205V4.01H50.5305V7.646H55.4265V4.01H58.9365V14H55.4265V10.31H50.5305V14ZM65.3664 14H61.8564V4.01H65.3664V7.646H70.2624V4.01H73.7724V14H70.2624V10.31H65.3664V14ZM82.9564 14.27H82.3984C77.0164 14.27 76.1884 10.994 76.1884 9.176V8.924C76.1884 7.124 77.0164 3.74 82.3804 3.74H82.9744C88.5184 3.74 89.1664 7.142 89.1664 8.906V9.194C89.1664 10.994 88.5184 14.27 82.9564 14.27ZM82.5784 11.642H82.7764C84.9904 11.642 85.5484 10.058 85.5484 8.96C85.5484 7.826 84.9904 6.314 82.7764 6.314H82.5784C80.2744 6.314 79.8064 7.826 79.8064 8.96C79.8064 10.058 80.2744 11.642 82.5784 11.642ZM99.825 14H91.581V4.01H99.465C101.751 4.01 103.191 4.82 103.191 6.404V6.494C103.191 7.736 102.399 8.474 101.193 8.672C102.417 8.816 103.515 9.68 103.515 11.12V11.192C103.515 13.01 102.327 14 99.825 14ZM95.091 7.988H98.313C99.159 7.988 99.591 7.664 99.591 7.034V6.944C99.591 6.368 99.195 6.026 98.313 6.026H95.091V7.988ZM95.091 11.984H98.457C99.393 11.984 99.915 11.678 99.915 10.976V10.832C99.915 10.202 99.483 9.806 98.457 9.806H95.091V11.984ZM110.588 12.002C112.64 12.002 113.342 10.706 113.342 9.95V9.176C113.036 9.302 112.154 9.482 111.146 9.644C109.454 9.932 108.914 10.166 108.914 10.868V10.904C108.914 11.534 109.364 12.002 110.588 12.002ZM113.45 12.614C113.018 13.136 111.938 14.198 109.598 14.198H109.31C106.52 14.198 105.368 12.686 105.368 11.03V10.958C105.368 9.23 106.466 8.168 109.85 7.88L112.586 7.646C113.144 7.592 113.342 7.412 113.342 6.998C113.342 6.53 113.198 6.026 111.254 6.026C109.418 6.026 109.238 6.746 109.238 7.124H105.638V7.088C105.638 6.098 106.034 3.776 110.948 3.776H111.506C116.456 3.776 116.762 5.81 116.762 7.142V10.436C116.762 11.066 116.888 11.318 117.59 11.318H117.968V14H115.124C114.08 14 113.594 13.262 113.45 12.614ZM122.656 14V6.674H118.786V4.01H130.036V6.674H126.166V14H122.656ZM138.204 14.27H137.646C132.264 14.27 131.436 10.994 131.436 9.176V8.924C131.436 7.124 132.264 3.74 137.628 3.74H138.222C143.766 3.74 144.414 7.142 144.414 8.906V9.194C144.414 10.994 143.766 14.27 138.204 14.27ZM137.826 11.642H138.024C140.238 11.642 140.796 10.058 140.796 8.96C140.796 7.826 140.238 6.314 138.024 6.314H137.826C135.522 6.314 135.054 7.826 135.054 8.96C135.054 10.058 135.522 11.642 137.826 11.642ZM156.009 9.014V8.96C156.009 7.88 155.505 6.422 153.309 6.422H153.129C151.023 6.422 150.357 7.808 150.357 8.96V9.014C150.357 10.112 151.023 11.552 153.129 11.552H153.309C155.505 11.552 156.009 10.04 156.009 9.014ZM146.865 17.438V4.01H150.339V5.288C150.771 4.82 152.085 3.812 154.353 3.812H154.587C158.403 3.812 159.645 6.422 159.645 8.798V9.104C159.645 11.282 158.367 14.198 154.569 14.198H154.317C152.031 14.198 150.807 13.154 150.375 12.722V17.438H146.865ZM167.29 14V4.01H176.002V6.674H170.8V14H167.29ZM184.171 14.27H183.613C178.231 14.27 177.403 10.994 177.403 9.176V8.924C177.403 7.124 178.231 3.74 183.595 3.74H184.189C189.733 3.74 190.381 7.142 190.381 8.906V9.194C190.381 10.994 189.733 14.27 184.171 14.27ZM183.793 11.642H183.991C186.205 11.642 186.763 10.058 186.763 8.96C186.763 7.826 186.205 6.314 183.991 6.314H183.793C181.489 6.314 181.021 7.826 181.021 8.96C181.021 10.058 181.489 11.642 183.793 11.642ZM191.704 16.124V11.336H192.91C193.594 9.968 193.702 6.998 193.792 4.01H204.358V11.336H206.158V16.124H202.828V14H195.034V16.124H191.704ZM196.222 11.336H200.848V6.674H196.942C196.888 7.97 196.708 9.95 196.222 11.336ZM212.963 12.002C215.015 12.002 215.717 10.706 215.717 9.95V9.176C215.411 9.302 214.529 9.482 213.521 9.644C211.829 9.932 211.289 10.166 211.289 10.868V10.904C211.289 11.534 211.739 12.002 212.963 12.002ZM215.825 12.614C215.393 13.136 214.313 14.198 211.973 14.198H211.685C208.895 14.198 207.743 12.686 207.743 11.03V10.958C207.743 9.23 208.841 8.168 212.225 7.88L214.961 7.646C215.519 7.592 215.717 7.412 215.717 6.998C215.717 6.53 215.573 6.026 213.629 6.026C211.793 6.026 211.613 6.746 211.613 7.124H208.013V7.088C208.013 6.098 208.409 3.776 213.323 3.776H213.881C218.831 3.776 219.137 5.81 219.137 7.142V10.436C219.137 11.066 219.263 11.318 219.965 11.318H220.343V14H217.499C216.455 14 215.969 13.262 215.825 12.614Z" fill="url(#paint1_radial_41_160)" style="mix-blend-mode:overlay"/>
<path d="M13.4372 14H0.207248V11.156H5.06725V5.18H1.26925V2.606C4.36525 2.606 5.37325 2.138 5.94925 0.608H8.75725V11.156H13.4372V14ZM19.8078 10.508V14H15.6138V10.508H19.8078ZM40.194 14V5L32.364 14H28.656V0.608H32.364V9.608L40.194 0.608H43.902V14H40.194ZM50.5305 14H47.0205V4.01H50.5305V7.646H55.4265V4.01H58.9365V14H55.4265V10.31H50.5305V14ZM65.3664 14H61.8564V4.01H65.3664V7.646H70.2624V4.01H73.7724V14H70.2624V10.31H65.3664V14ZM82.9564 14.27H82.3984C77.0164 14.27 76.1884 10.994 76.1884 9.176V8.924C76.1884 7.124 77.0164 3.74 82.3804 3.74H82.9744C88.5184 3.74 89.1664 7.142 89.1664 8.906V9.194C89.1664 10.994 88.5184 14.27 82.9564 14.27ZM82.5784 11.642H82.7764C84.9904 11.642 85.5484 10.058 85.5484 8.96C85.5484 7.826 84.9904 6.314 82.7764 6.314H82.5784C80.2744 6.314 79.8064 7.826 79.8064 8.96C79.8064 10.058 80.2744 11.642 82.5784 11.642ZM99.825 14H91.581V4.01H99.465C101.751 4.01 103.191 4.82 103.191 6.404V6.494C103.191 7.736 102.399 8.474 101.193 8.672C102.417 8.816 103.515 9.68 103.515 11.12V11.192C103.515 13.01 102.327 14 99.825 14ZM95.091 7.988H98.313C99.159 7.988 99.591 7.664 99.591 7.034V6.944C99.591 6.368 99.195 6.026 98.313 6.026H95.091V7.988ZM95.091 11.984H98.457C99.393 11.984 99.915 11.678 99.915 10.976V10.832C99.915 10.202 99.483 9.806 98.457 9.806H95.091V11.984ZM110.588 12.002C112.64 12.002 113.342 10.706 113.342 9.95V9.176C113.036 9.302 112.154 9.482 111.146 9.644C109.454 9.932 108.914 10.166 108.914 10.868V10.904C108.914 11.534 109.364 12.002 110.588 12.002ZM113.45 12.614C113.018 13.136 111.938 14.198 109.598 14.198H109.31C106.52 14.198 105.368 12.686 105.368 11.03V10.958C105.368 9.23 106.466 8.168 109.85 7.88L112.586 7.646C113.144 7.592 113.342 7.412 113.342 6.998C113.342 6.53 113.198 6.026 111.254 6.026C109.418 6.026 109.238 6.746 109.238 7.124H105.638V7.088C105.638 6.098 106.034 3.776 110.948 3.776H111.506C116.456 3.776 116.762 5.81 116.762 7.142V10.436C116.762 11.066 116.888 11.318 117.59 11.318H117.968V14H115.124C114.08 14 113.594 13.262 113.45 12.614ZM122.656 14V6.674H118.786V4.01H130.036V6.674H126.166V14H122.656ZM138.204 14.27H137.646C132.264 14.27 131.436 10.994 131.436 9.176V8.924C131.436 7.124 132.264 3.74 137.628 3.74H138.222C143.766 3.74 144.414 7.142 144.414 8.906V9.194C144.414 10.994 143.766 14.27 138.204 14.27ZM137.826 11.642H138.024C140.238 11.642 140.796 10.058 140.796 8.96C140.796 7.826 140.238 6.314 138.024 6.314H137.826C135.522 6.314 135.054 7.826 135.054 8.96C135.054 10.058 135.522 11.642 137.826 11.642ZM156.009 9.014V8.96C156.009 7.88 155.505 6.422 153.309 6.422H153.129C151.023 6.422 150.357 7.808 150.357 8.96V9.014C150.357 10.112 151.023 11.552 153.129 11.552H153.309C155.505 11.552 156.009 10.04 156.009 9.014ZM146.865 17.438V4.01H150.339V5.288C150.771 4.82 152.085 3.812 154.353 3.812H154.587C158.403 3.812 159.645 6.422 159.645 8.798V9.104C159.645 11.282 158.367 14.198 154.569 14.198H154.317C152.031 14.198 150.807 13.154 150.375 12.722V17.438H146.865ZM167.29 14V4.01H176.002V6.674H170.8V14H167.29ZM184.171 14.27H183.613C178.231 14.27 177.403 10.994 177.403 9.176V8.924C177.403 7.124 178.231 3.74 183.595 3.74H184.189C189.733 3.74 190.381 7.142 190.381 8.906V9.194C190.381 10.994 189.733 14.27 184.171 14.27ZM183.793 11.642H183.991C186.205 11.642 186.763 10.058 186.763 8.96C186.763 7.826 186.205 6.314 183.991 6.314H183.793C181.489 6.314 181.021 7.826 181.021 8.96C181.021 10.058 181.489 11.642 183.793 11.642ZM191.704 16.124V11.336H192.91C193.594 9.968 193.702 6.998 193.792 4.01H204.358V11.336H206.158V16.124H202.828V14H195.034V16.124H191.704ZM196.222 11.336H200.848V6.674H196.942C196.888 7.97 196.708 9.95 196.222 11.336ZM212.963 12.002C215.015 12.002 215.717 10.706 215.717 9.95V9.176C215.411 9.302 214.529 9.482 213.521 9.644C211.829 9.932 211.289 10.166 211.289 10.868V10.904C211.289 11.534 211.739 12.002 212.963 12.002ZM215.825 12.614C215.393 13.136 214.313 14.198 211.973 14.198H211.685C208.895 14.198 207.743 12.686 207.743 11.03V10.958C207.743 9.23 208.841 8.168 212.225 7.88L214.961 7.646C215.519 7.592 215.717 7.412 215.717 6.998C215.717 6.53 215.573 6.026 213.629 6.026C211.793 6.026 211.613 6.746 211.613 7.124H208.013V7.088C208.013 6.098 208.409 3.776 213.323 3.776H213.881C218.831 3.776 219.137 5.81 219.137 7.142V10.436C219.137 11.066 219.263 11.318 219.965 11.318H220.343V14H217.499C216.455 14 215.969 13.262 215.825 12.614Z" fill="url(#paint2_radial_41_160)"/>
<path d="M13.4372 14H0.207248V11.156H5.06725V5.18H1.26925V2.606C4.36525 2.606 5.37325 2.138 5.94925 0.608H8.75725V11.156H13.4372V14ZM19.8078 10.508V14H15.6138V10.508H19.8078ZM40.194 14V5L32.364 14H28.656V0.608H32.364V9.608L40.194 0.608H43.902V14H40.194ZM50.5305 14H47.0205V4.01H50.5305V7.646H55.4265V4.01H58.9365V14H55.4265V10.31H50.5305V14ZM65.3664 14H61.8564V4.01H65.3664V7.646H70.2624V4.01H73.7724V14H70.2624V10.31H65.3664V14ZM82.9564 14.27H82.3984C77.0164 14.27 76.1884 10.994 76.1884 9.176V8.924C76.1884 7.124 77.0164 3.74 82.3804 3.74H82.9744C88.5184 3.74 89.1664 7.142 89.1664 8.906V9.194C89.1664 10.994 88.5184 14.27 82.9564 14.27ZM82.5784 11.642H82.7764C84.9904 11.642 85.5484 10.058 85.5484 8.96C85.5484 7.826 84.9904 6.314 82.7764 6.314H82.5784C80.2744 6.314 79.8064 7.826 79.8064 8.96C79.8064 10.058 80.2744 11.642 82.5784 11.642ZM99.825 14H91.581V4.01H99.465C101.751 4.01 103.191 4.82 103.191 6.404V6.494C103.191 7.736 102.399 8.474 101.193 8.672C102.417 8.816 103.515 9.68 103.515 11.12V11.192C103.515 13.01 102.327 14 99.825 14ZM95.091 7.988H98.313C99.159 7.988 99.591 7.664 99.591 7.034V6.944C99.591 6.368 99.195 6.026 98.313 6.026H95.091V7.988ZM95.091 11.984H98.457C99.393 11.984 99.915 11.678 99.915 10.976V10.832C99.915 10.202 99.483 9.806 98.457 9.806H95.091V11.984ZM110.588 12.002C112.64 12.002 113.342 10.706 113.342 9.95V9.176C113.036 9.302 112.154 9.482 111.146 9.644C109.454 9.932 108.914 10.166 108.914 10.868V10.904C108.914 11.534 109.364 12.002 110.588 12.002ZM113.45 12.614C113.018 13.136 111.938 14.198 109.598 14.198H109.31C106.52 14.198 105.368 12.686 105.368 11.03V10.958C105.368 9.23 106.466 8.168 109.85 7.88L112.586 7.646C113.144 7.592 113.342 7.412 113.342 6.998C113.342 6.53 113.198 6.026 111.254 6.026C109.418 6.026 109.238 6.746 109.238 7.124H105.638V7.088C105.638 6.098 106.034 3.776 110.948 3.776H111.506C116.456 3.776 116.762 5.81 116.762 7.142V10.436C116.762 11.066 116.888 11.318 117.59 11.318H117.968V14H115.124C114.08 14 113.594 13.262 113.45 12.614ZM122.656 14V6.674H118.786V4.01H130.036V6.674H126.166V14H122.656ZM138.204 14.27H137.646C132.264 14.27 131.436 10.994 131.436 9.176V8.924C131.436 7.124 132.264 3.74 137.628 3.74H138.222C143.766 3.74 144.414 7.142 144.414 8.906V9.194C144.414 10.994 143.766 14.27 138.204 14.27ZM137.826 11.642H138.024C140.238 11.642 140.796 10.058 140.796 8.96C140.796 7.826 140.238 6.314 138.024 6.314H137.826C135.522 6.314 135.054 7.826 135.054 8.96C135.054 10.058 135.522 11.642 137.826 11.642ZM156.009 9.014V8.96C156.009 7.88 155.505 6.422 153.309 6.422H153.129C151.023 6.422 150.357 7.808 150.357 8.96V9.014C150.357 10.112 151.023 11.552 153.129 11.552H153.309C155.505 11.552 156.009 10.04 156.009 9.014ZM146.865 17.438V4.01H150.339V5.288C150.771 4.82 152.085 3.812 154.353 3.812H154.587C158.403 3.812 159.645 6.422 159.645 8.798V9.104C159.645 11.282 158.367 14.198 154.569 14.198H154.317C152.031 14.198 150.807 13.154 150.375 12.722V17.438H146.865ZM167.29 14V4.01H176.002V6.674H170.8V14H167.29ZM184.171 14.27H183.613C178.231 14.27 177.403 10.994 177.403 9.176V8.924C177.403 7.124 178.231 3.74 183.595 3.74H184.189C189.733 3.74 190.381 7.142 190.381 8.906V9.194C190.381 10.994 189.733 14.27 184.171 14.27ZM183.793 11.642H183.991C186.205 11.642 186.763 10.058 186.763 8.96C186.763 7.826 186.205 6.314 183.991 6.314H183.793C181.489 6.314 181.021 7.826 181.021 8.96C181.021 10.058 181.489 11.642 183.793 11.642ZM191.704 16.124V11.336H192.91C193.594 9.968 193.702 6.998 193.792 4.01H204.358V11.336H206.158V16.124H202.828V14H195.034V16.124H191.704ZM196.222 11.336H200.848V6.674H196.942C196.888 7.97 196.708 9.95 196.222 11.336ZM212.963 12.002C215.015 12.002 215.717 10.706 215.717 9.95V9.176C215.411 9.302 214.529 9.482 213.521 9.644C211.829 9.932 211.289 10.166 211.289 10.868V10.904C211.289 11.534 211.739 12.002 212.963 12.002ZM215.825 12.614C215.393 13.136 214.313 14.198 211.973 14.198H211.685C208.895 14.198 207.743 12.686 207.743 11.03V10.958C207.743 9.23 208.841 8.168 212.225 7.88L214.961 7.646C215.519 7.592 215.717 7.412 215.717 6.998C215.717 6.53 215.573 6.026 213.629 6.026C211.793 6.026 211.613 6.746 211.613 7.124H208.013V7.088C208.013 6.098 208.409 3.776 213.323 3.776H213.881C218.831 3.776 219.137 5.81 219.137 7.142V10.436C219.137 11.066 219.263 11.318 219.965 11.318H220.343V14H217.499C216.455 14 215.969 13.262 215.825 12.614Z" fill="#C1A875" style="mix-blend-mode:color"/>
<defs>
<linearGradient id="paint0_linear_41_160" x1="8.23289e-07" y1="6" x2="221" y2="6.00001" gradientUnits="userSpaceOnUse">
<stop stop-color="#576167"/>
<stop offset="0.191294" stop-color="#9EA1A2"/>
<stop offset="0.396166" stop-color="#848989"/>
<stop offset="0.62055" stop-color="#576167"/>
<stop offset="0.830299" stop-color="#757A7C"/>
<stop offset="1" stop-color="#576167"/>
</linearGradient>
<radialGradient id="paint1_radial_41_160" cx="0" cy="0" r="1" gradientUnits="userSpaceOnUse" gradientTransform="translate(117.694 -3.20225) rotate(90) scale(17.8315 167.194)">
<stop stop-color="white"/>
<stop offset="1" stop-color="white" stop-opacity="0"/>
</radialGradient>
<radialGradient id="paint2_radial_41_160" cx="0" cy="0" r="1" gradientUnits="userSpaceOnUse" gradientTransform="translate(130.194 23.6629) rotate(-89.2067) scale(25.553 239.06)">
<stop stop-color="white"/>
<stop offset="1" stop-color="white" stop-opacity="0"/>
</radialGradient>
</defs>
</svg>
