<svg width="278" height="18" viewBox="0 0 278 18" fill="none" xmlns="http://www.w3.org/2000/svg">
<path d="M4.05 5.342H0.864V2.624C3.564 2.624 4.392 2.228 4.968 0.608H7.74V14H4.05V5.342ZM18.061 0.391999H18.817C25.099 0.391999 26.305 4.622 26.305 6.998V7.538C26.305 9.878 25.063 14.216 18.817 14.216H18.061C11.797 14.216 10.573 9.878 10.573 7.538V6.998C10.573 4.568 11.797 0.391999 18.061 0.391999ZM22.453 7.376V7.124C22.453 5.918 21.949 3.452 18.439 3.452C14.893 3.452 14.425 5.918 14.425 7.124V7.376C14.425 8.6 15.001 11.138 18.457 11.138C21.913 11.138 22.453 8.6 22.453 7.376ZM32.4523 10.508V14H28.2583V10.508H32.4523ZM55.1197 9.968V10.148C55.1197 13.01 52.4557 14.234 47.7757 14.234H47.3437C43.5277 14.234 39.8557 13.1 39.8557 9.5V9.284H43.8157C43.8157 10.94 45.2917 11.516 47.9737 11.516C50.2057 11.516 51.2677 10.922 51.2677 9.842C51.2677 8.834 50.5657 8.402 48.8197 8.402H44.9497V5.756H48.6217C49.7017 5.756 50.8537 5.594 50.8537 4.586C50.8537 3.452 49.8817 3.092 47.5237 3.092C45.5977 3.092 43.9777 3.452 43.9237 4.964H39.9637V4.694C39.9637 1.508 43.4377 0.446 47.1637 0.446H47.7397C52.2577 0.446 54.7057 1.58 54.7057 3.83V3.956C54.7057 5.666 53.5717 6.494 52.1317 6.872C53.5717 7.16 55.1197 8.096 55.1197 9.968ZM62.1428 12.002C64.1948 12.002 64.8968 10.706 64.8968 9.95V9.176C64.5908 9.302 63.7088 9.482 62.7008 9.644C61.0088 9.932 60.4688 10.166 60.4688 10.868V10.904C60.4688 11.534 60.9188 12.002 62.1428 12.002ZM65.0048 12.614C64.5728 13.136 63.4928 14.198 61.1528 14.198H60.8648C58.0748 14.198 56.9228 12.686 56.9228 11.03V10.958C56.9228 9.23 58.0208 8.168 61.4048 7.88L64.1408 7.646C64.6988 7.592 64.8968 7.412 64.8968 6.998C64.8968 6.53 64.7528 6.026 62.8088 6.026C60.9728 6.026 60.7928 6.746 60.7928 7.124H57.1928V7.088C57.1928 6.098 57.5888 3.776 62.5028 3.776H63.0608C68.0108 3.776 68.3168 5.81 68.3168 7.142V10.436C68.3168 11.066 68.4428 11.318 69.1448 11.318H69.5228V14H66.6788C65.6348 14 65.1488 13.262 65.0048 12.614ZM84.9715 14H76.7275V4.01H84.6115C86.8975 4.01 88.3375 4.82 88.3375 6.404V6.494C88.3375 7.736 87.5455 8.474 86.3395 8.672C87.5635 8.816 88.6615 9.68 88.6615 11.12V11.192C88.6615 13.01 87.4735 14 84.9715 14ZM80.2375 7.988H83.4595C84.3055 7.988 84.7375 7.664 84.7375 7.034V6.944C84.7375 6.368 84.3415 6.026 83.4595 6.026H80.2375V7.988ZM80.2375 11.984H83.6035C84.5395 11.984 85.0615 11.678 85.0615 10.976V10.832C85.0615 10.202 84.6295 9.806 83.6035 9.806H80.2375V11.984ZM98.5404 14L94.6524 9.374V14H91.1424V4.01H94.6524V8.006L98.2164 4.01H102.266L98.0904 8.492L102.716 14H98.5404ZM112.181 14V6.674H108.221C108.221 9.356 108.131 10.85 107.789 11.768C107.411 12.776 106.907 14 104.261 14H103.163V11.39H103.379C104.009 11.39 104.477 11.174 104.675 10.256C104.819 9.482 104.873 8.636 104.873 4.01H115.691V14H112.181ZM123.315 12.002C125.367 12.002 126.069 10.706 126.069 9.95V9.176C125.763 9.302 124.881 9.482 123.873 9.644C122.181 9.932 121.641 10.166 121.641 10.868V10.904C121.641 11.534 122.091 12.002 123.315 12.002ZM126.177 12.614C125.745 13.136 124.665 14.198 122.325 14.198H122.037C119.247 14.198 118.095 12.686 118.095 11.03V10.958C118.095 9.23 119.193 8.168 122.577 7.88L125.313 7.646C125.871 7.592 126.069 7.412 126.069 6.998C126.069 6.53 125.925 6.026 123.981 6.026C122.145 6.026 121.965 6.746 121.965 7.124H118.365V7.088C118.365 6.098 118.761 3.776 123.675 3.776H124.233C129.183 3.776 129.489 5.81 129.489 7.142V10.436C129.489 11.066 129.615 11.318 130.317 11.318H130.695V14H127.851C126.807 14 126.321 13.262 126.177 12.614ZM132.22 16.124V11.336H133.426C134.11 9.968 134.218 6.998 134.308 4.01H144.874V11.336H146.674V16.124H143.344V14H135.55V16.124H132.22ZM136.738 11.336H141.364V6.674H137.458C137.404 7.97 137.224 9.95 136.738 11.336ZM162.21 14H153.966V4.01H161.85C164.136 4.01 165.576 4.82 165.576 6.404V6.494C165.576 7.736 164.784 8.474 163.578 8.672C164.802 8.816 165.9 9.68 165.9 11.12V11.192C165.9 13.01 164.712 14 162.21 14ZM157.476 7.988H160.698C161.544 7.988 161.976 7.664 161.976 7.034V6.944C161.976 6.368 161.58 6.026 160.698 6.026H157.476V7.988ZM157.476 11.984H160.842C161.778 11.984 162.3 11.678 162.3 10.976V10.832C162.3 10.202 161.868 9.806 160.842 9.806H157.476V11.984ZM186.022 9.122V9.356C186.022 13.1 183.178 14.27 179.776 14.27H179.416C175.906 14.27 173.044 12.902 173.044 8.15V7.088C173.044 2.282 175.438 0.698 180.118 0.698H180.928C182.044 0.698 182.116 0.589999 182.152 0.373999H185.59C185.59 2.48 184.798 3.362 182.35 3.362H180.118C177.526 3.362 176.536 4.172 176.482 5.99C177.4 5.036 178.804 4.388 181.018 4.388H181.126C183.502 4.388 186.022 5.594 186.022 9.122ZM179.452 11.642H179.65C181.234 11.642 182.404 10.85 182.404 9.212C182.404 7.628 181.216 6.854 179.668 6.854H179.452C177.724 6.854 176.662 7.592 176.662 9.23C176.662 10.886 177.742 11.642 179.452 11.642ZM188.929 17.438V14.936H191.125C191.467 14.936 191.647 14.792 191.647 14.522V14.504C191.647 14.288 191.593 14.09 191.323 13.532L187.039 4.01H190.891L193.663 11.174L196.417 4.01H199.945L195.373 15.008C194.671 16.646 193.807 17.438 192.151 17.438H188.929ZM200.546 16.124V11.336H201.752C202.436 9.968 202.544 6.998 202.634 4.01H213.2V11.336H215V16.124H211.67V14H203.876V16.124H200.546ZM205.064 11.336H209.69V6.674H205.784C205.73 7.97 205.55 9.95 205.064 11.336ZM217.388 17.438V14.936H219.584C219.926 14.936 220.106 14.792 220.106 14.522V14.504C220.106 14.288 220.052 14.09 219.782 13.532L215.498 4.01H219.35L222.122 11.174L224.876 4.01H228.404L223.832 15.008C223.13 16.646 222.266 17.438 220.61 17.438H217.388ZM230.185 14V4.01H233.695V11.336H236.791V4.01H240.301V11.336H243.397V4.01H246.907V11.336H248.707V16.124H245.377V14H230.185ZM256.424 6.08C254.606 6.08 253.922 6.818 253.742 7.862H259.034C259.034 7.124 258.674 6.08 256.424 6.08ZM259.106 10.886H262.76C262.76 11.714 262.112 14.234 256.946 14.234H256.28C251.348 14.234 250.124 11.534 250.124 9.14V8.888C250.124 6.638 251.24 3.794 255.974 3.794H256.766C261.878 3.794 262.796 6.638 262.796 9.428V9.752H253.706C253.85 10.904 254.588 11.84 256.73 11.84C258.764 11.84 259.016 11.048 259.106 10.886ZM271.014 6.08C269.196 6.08 268.512 6.818 268.332 7.862H273.624C273.624 7.124 273.264 6.08 271.014 6.08ZM273.696 10.886H277.35C277.35 11.714 276.702 14.234 271.536 14.234H270.87C265.938 14.234 264.714 11.534 264.714 9.14V8.888C264.714 6.638 265.83 3.794 270.564 3.794H271.356C276.468 3.794 277.386 6.638 277.386 9.428V9.752H268.296C268.44 10.904 269.178 11.84 271.32 11.84C273.354 11.84 273.606 11.048 273.696 10.886Z" fill="url(#paint0_linear_41_188)"/>
<path d="M4.05 5.342H0.864V2.624C3.564 2.624 4.392 2.228 4.968 0.608H7.74V14H4.05V5.342ZM18.061 0.391999H18.817C25.099 0.391999 26.305 4.622 26.305 6.998V7.538C26.305 9.878 25.063 14.216 18.817 14.216H18.061C11.797 14.216 10.573 9.878 10.573 7.538V6.998C10.573 4.568 11.797 0.391999 18.061 0.391999ZM22.453 7.376V7.124C22.453 5.918 21.949 3.452 18.439 3.452C14.893 3.452 14.425 5.918 14.425 7.124V7.376C14.425 8.6 15.001 11.138 18.457 11.138C21.913 11.138 22.453 8.6 22.453 7.376ZM32.4523 10.508V14H28.2583V10.508H32.4523ZM55.1197 9.968V10.148C55.1197 13.01 52.4557 14.234 47.7757 14.234H47.3437C43.5277 14.234 39.8557 13.1 39.8557 9.5V9.284H43.8157C43.8157 10.94 45.2917 11.516 47.9737 11.516C50.2057 11.516 51.2677 10.922 51.2677 9.842C51.2677 8.834 50.5657 8.402 48.8197 8.402H44.9497V5.756H48.6217C49.7017 5.756 50.8537 5.594 50.8537 4.586C50.8537 3.452 49.8817 3.092 47.5237 3.092C45.5977 3.092 43.9777 3.452 43.9237 4.964H39.9637V4.694C39.9637 1.508 43.4377 0.446 47.1637 0.446H47.7397C52.2577 0.446 54.7057 1.58 54.7057 3.83V3.956C54.7057 5.666 53.5717 6.494 52.1317 6.872C53.5717 7.16 55.1197 8.096 55.1197 9.968ZM62.1428 12.002C64.1948 12.002 64.8968 10.706 64.8968 9.95V9.176C64.5908 9.302 63.7088 9.482 62.7008 9.644C61.0088 9.932 60.4688 10.166 60.4688 10.868V10.904C60.4688 11.534 60.9188 12.002 62.1428 12.002ZM65.0048 12.614C64.5728 13.136 63.4928 14.198 61.1528 14.198H60.8648C58.0748 14.198 56.9228 12.686 56.9228 11.03V10.958C56.9228 9.23 58.0208 8.168 61.4048 7.88L64.1408 7.646C64.6988 7.592 64.8968 7.412 64.8968 6.998C64.8968 6.53 64.7528 6.026 62.8088 6.026C60.9728 6.026 60.7928 6.746 60.7928 7.124H57.1928V7.088C57.1928 6.098 57.5888 3.776 62.5028 3.776H63.0608C68.0108 3.776 68.3168 5.81 68.3168 7.142V10.436C68.3168 11.066 68.4428 11.318 69.1448 11.318H69.5228V14H66.6788C65.6348 14 65.1488 13.262 65.0048 12.614ZM84.9715 14H76.7275V4.01H84.6115C86.8975 4.01 88.3375 4.82 88.3375 6.404V6.494C88.3375 7.736 87.5455 8.474 86.3395 8.672C87.5635 8.816 88.6615 9.68 88.6615 11.12V11.192C88.6615 13.01 87.4735 14 84.9715 14ZM80.2375 7.988H83.4595C84.3055 7.988 84.7375 7.664 84.7375 7.034V6.944C84.7375 6.368 84.3415 6.026 83.4595 6.026H80.2375V7.988ZM80.2375 11.984H83.6035C84.5395 11.984 85.0615 11.678 85.0615 10.976V10.832C85.0615 10.202 84.6295 9.806 83.6035 9.806H80.2375V11.984ZM98.5404 14L94.6524 9.374V14H91.1424V4.01H94.6524V8.006L98.2164 4.01H102.266L98.0904 8.492L102.716 14H98.5404ZM112.181 14V6.674H108.221C108.221 9.356 108.131 10.85 107.789 11.768C107.411 12.776 106.907 14 104.261 14H103.163V11.39H103.379C104.009 11.39 104.477 11.174 104.675 10.256C104.819 9.482 104.873 8.636 104.873 4.01H115.691V14H112.181ZM123.315 12.002C125.367 12.002 126.069 10.706 126.069 9.95V9.176C125.763 9.302 124.881 9.482 123.873 9.644C122.181 9.932 121.641 10.166 121.641 10.868V10.904C121.641 11.534 122.091 12.002 123.315 12.002ZM126.177 12.614C125.745 13.136 124.665 14.198 122.325 14.198H122.037C119.247 14.198 118.095 12.686 118.095 11.03V10.958C118.095 9.23 119.193 8.168 122.577 7.88L125.313 7.646C125.871 7.592 126.069 7.412 126.069 6.998C126.069 6.53 125.925 6.026 123.981 6.026C122.145 6.026 121.965 6.746 121.965 7.124H118.365V7.088C118.365 6.098 118.761 3.776 123.675 3.776H124.233C129.183 3.776 129.489 5.81 129.489 7.142V10.436C129.489 11.066 129.615 11.318 130.317 11.318H130.695V14H127.851C126.807 14 126.321 13.262 126.177 12.614ZM132.22 16.124V11.336H133.426C134.11 9.968 134.218 6.998 134.308 4.01H144.874V11.336H146.674V16.124H143.344V14H135.55V16.124H132.22ZM136.738 11.336H141.364V6.674H137.458C137.404 7.97 137.224 9.95 136.738 11.336ZM162.21 14H153.966V4.01H161.85C164.136 4.01 165.576 4.82 165.576 6.404V6.494C165.576 7.736 164.784 8.474 163.578 8.672C164.802 8.816 165.9 9.68 165.9 11.12V11.192C165.9 13.01 164.712 14 162.21 14ZM157.476 7.988H160.698C161.544 7.988 161.976 7.664 161.976 7.034V6.944C161.976 6.368 161.58 6.026 160.698 6.026H157.476V7.988ZM157.476 11.984H160.842C161.778 11.984 162.3 11.678 162.3 10.976V10.832C162.3 10.202 161.868 9.806 160.842 9.806H157.476V11.984ZM186.022 9.122V9.356C186.022 13.1 183.178 14.27 179.776 14.27H179.416C175.906 14.27 173.044 12.902 173.044 8.15V7.088C173.044 2.282 175.438 0.698 180.118 0.698H180.928C182.044 0.698 182.116 0.589999 182.152 0.373999H185.59C185.59 2.48 184.798 3.362 182.35 3.362H180.118C177.526 3.362 176.536 4.172 176.482 5.99C177.4 5.036 178.804 4.388 181.018 4.388H181.126C183.502 4.388 186.022 5.594 186.022 9.122ZM179.452 11.642H179.65C181.234 11.642 182.404 10.85 182.404 9.212C182.404 7.628 181.216 6.854 179.668 6.854H179.452C177.724 6.854 176.662 7.592 176.662 9.23C176.662 10.886 177.742 11.642 179.452 11.642ZM188.929 17.438V14.936H191.125C191.467 14.936 191.647 14.792 191.647 14.522V14.504C191.647 14.288 191.593 14.09 191.323 13.532L187.039 4.01H190.891L193.663 11.174L196.417 4.01H199.945L195.373 15.008C194.671 16.646 193.807 17.438 192.151 17.438H188.929ZM200.546 16.124V11.336H201.752C202.436 9.968 202.544 6.998 202.634 4.01H213.2V11.336H215V16.124H211.67V14H203.876V16.124H200.546ZM205.064 11.336H209.69V6.674H205.784C205.73 7.97 205.55 9.95 205.064 11.336ZM217.388 17.438V14.936H219.584C219.926 14.936 220.106 14.792 220.106 14.522V14.504C220.106 14.288 220.052 14.09 219.782 13.532L215.498 4.01H219.35L222.122 11.174L224.876 4.01H228.404L223.832 15.008C223.13 16.646 222.266 17.438 220.61 17.438H217.388ZM230.185 14V4.01H233.695V11.336H236.791V4.01H240.301V11.336H243.397V4.01H246.907V11.336H248.707V16.124H245.377V14H230.185ZM256.424 6.08C254.606 6.08 253.922 6.818 253.742 7.862H259.034C259.034 7.124 258.674 6.08 256.424 6.08ZM259.106 10.886H262.76C262.76 11.714 262.112 14.234 256.946 14.234H256.28C251.348 14.234 250.124 11.534 250.124 9.14V8.888C250.124 6.638 251.24 3.794 255.974 3.794H256.766C261.878 3.794 262.796 6.638 262.796 9.428V9.752H253.706C253.85 10.904 254.588 11.84 256.73 11.84C258.764 11.84 259.016 11.048 259.106 10.886ZM271.014 6.08C269.196 6.08 268.512 6.818 268.332 7.862H273.624C273.624 7.124 273.264 6.08 271.014 6.08ZM273.696 10.886H277.35C277.35 11.714 276.702 14.234 271.536 14.234H270.87C265.938 14.234 264.714 11.534 264.714 9.14V8.888C264.714 6.638 265.83 3.794 270.564 3.794H271.356C276.468 3.794 277.386 6.638 277.386 9.428V9.752H268.296C268.44 10.904 269.178 11.84 271.32 11.84C273.354 11.84 273.606 11.048 273.696 10.886Z" fill="url(#paint1_radial_41_188)" style="mix-blend-mode:overlay"/>
<path d="M4.05 5.342H0.864V2.624C3.564 2.624 4.392 2.228 4.968 0.608H7.74V14H4.05V5.342ZM18.061 0.391999H18.817C25.099 0.391999 26.305 4.622 26.305 6.998V7.538C26.305 9.878 25.063 14.216 18.817 14.216H18.061C11.797 14.216 10.573 9.878 10.573 7.538V6.998C10.573 4.568 11.797 0.391999 18.061 0.391999ZM22.453 7.376V7.124C22.453 5.918 21.949 3.452 18.439 3.452C14.893 3.452 14.425 5.918 14.425 7.124V7.376C14.425 8.6 15.001 11.138 18.457 11.138C21.913 11.138 22.453 8.6 22.453 7.376ZM32.4523 10.508V14H28.2583V10.508H32.4523ZM55.1197 9.968V10.148C55.1197 13.01 52.4557 14.234 47.7757 14.234H47.3437C43.5277 14.234 39.8557 13.1 39.8557 9.5V9.284H43.8157C43.8157 10.94 45.2917 11.516 47.9737 11.516C50.2057 11.516 51.2677 10.922 51.2677 9.842C51.2677 8.834 50.5657 8.402 48.8197 8.402H44.9497V5.756H48.6217C49.7017 5.756 50.8537 5.594 50.8537 4.586C50.8537 3.452 49.8817 3.092 47.5237 3.092C45.5977 3.092 43.9777 3.452 43.9237 4.964H39.9637V4.694C39.9637 1.508 43.4377 0.446 47.1637 0.446H47.7397C52.2577 0.446 54.7057 1.58 54.7057 3.83V3.956C54.7057 5.666 53.5717 6.494 52.1317 6.872C53.5717 7.16 55.1197 8.096 55.1197 9.968ZM62.1428 12.002C64.1948 12.002 64.8968 10.706 64.8968 9.95V9.176C64.5908 9.302 63.7088 9.482 62.7008 9.644C61.0088 9.932 60.4688 10.166 60.4688 10.868V10.904C60.4688 11.534 60.9188 12.002 62.1428 12.002ZM65.0048 12.614C64.5728 13.136 63.4928 14.198 61.1528 14.198H60.8648C58.0748 14.198 56.9228 12.686 56.9228 11.03V10.958C56.9228 9.23 58.0208 8.168 61.4048 7.88L64.1408 7.646C64.6988 7.592 64.8968 7.412 64.8968 6.998C64.8968 6.53 64.7528 6.026 62.8088 6.026C60.9728 6.026 60.7928 6.746 60.7928 7.124H57.1928V7.088C57.1928 6.098 57.5888 3.776 62.5028 3.776H63.0608C68.0108 3.776 68.3168 5.81 68.3168 7.142V10.436C68.3168 11.066 68.4428 11.318 69.1448 11.318H69.5228V14H66.6788C65.6348 14 65.1488 13.262 65.0048 12.614ZM84.9715 14H76.7275V4.01H84.6115C86.8975 4.01 88.3375 4.82 88.3375 6.404V6.494C88.3375 7.736 87.5455 8.474 86.3395 8.672C87.5635 8.816 88.6615 9.68 88.6615 11.12V11.192C88.6615 13.01 87.4735 14 84.9715 14ZM80.2375 7.988H83.4595C84.3055 7.988 84.7375 7.664 84.7375 7.034V6.944C84.7375 6.368 84.3415 6.026 83.4595 6.026H80.2375V7.988ZM80.2375 11.984H83.6035C84.5395 11.984 85.0615 11.678 85.0615 10.976V10.832C85.0615 10.202 84.6295 9.806 83.6035 9.806H80.2375V11.984ZM98.5404 14L94.6524 9.374V14H91.1424V4.01H94.6524V8.006L98.2164 4.01H102.266L98.0904 8.492L102.716 14H98.5404ZM112.181 14V6.674H108.221C108.221 9.356 108.131 10.85 107.789 11.768C107.411 12.776 106.907 14 104.261 14H103.163V11.39H103.379C104.009 11.39 104.477 11.174 104.675 10.256C104.819 9.482 104.873 8.636 104.873 4.01H115.691V14H112.181ZM123.315 12.002C125.367 12.002 126.069 10.706 126.069 9.95V9.176C125.763 9.302 124.881 9.482 123.873 9.644C122.181 9.932 121.641 10.166 121.641 10.868V10.904C121.641 11.534 122.091 12.002 123.315 12.002ZM126.177 12.614C125.745 13.136 124.665 14.198 122.325 14.198H122.037C119.247 14.198 118.095 12.686 118.095 11.03V10.958C118.095 9.23 119.193 8.168 122.577 7.88L125.313 7.646C125.871 7.592 126.069 7.412 126.069 6.998C126.069 6.53 125.925 6.026 123.981 6.026C122.145 6.026 121.965 6.746 121.965 7.124H118.365V7.088C118.365 6.098 118.761 3.776 123.675 3.776H124.233C129.183 3.776 129.489 5.81 129.489 7.142V10.436C129.489 11.066 129.615 11.318 130.317 11.318H130.695V14H127.851C126.807 14 126.321 13.262 126.177 12.614ZM132.22 16.124V11.336H133.426C134.11 9.968 134.218 6.998 134.308 4.01H144.874V11.336H146.674V16.124H143.344V14H135.55V16.124H132.22ZM136.738 11.336H141.364V6.674H137.458C137.404 7.97 137.224 9.95 136.738 11.336ZM162.21 14H153.966V4.01H161.85C164.136 4.01 165.576 4.82 165.576 6.404V6.494C165.576 7.736 164.784 8.474 163.578 8.672C164.802 8.816 165.9 9.68 165.9 11.12V11.192C165.9 13.01 164.712 14 162.21 14ZM157.476 7.988H160.698C161.544 7.988 161.976 7.664 161.976 7.034V6.944C161.976 6.368 161.58 6.026 160.698 6.026H157.476V7.988ZM157.476 11.984H160.842C161.778 11.984 162.3 11.678 162.3 10.976V10.832C162.3 10.202 161.868 9.806 160.842 9.806H157.476V11.984ZM186.022 9.122V9.356C186.022 13.1 183.178 14.27 179.776 14.27H179.416C175.906 14.27 173.044 12.902 173.044 8.15V7.088C173.044 2.282 175.438 0.698 180.118 0.698H180.928C182.044 0.698 182.116 0.589999 182.152 0.373999H185.59C185.59 2.48 184.798 3.362 182.35 3.362H180.118C177.526 3.362 176.536 4.172 176.482 5.99C177.4 5.036 178.804 4.388 181.018 4.388H181.126C183.502 4.388 186.022 5.594 186.022 9.122ZM179.452 11.642H179.65C181.234 11.642 182.404 10.85 182.404 9.212C182.404 7.628 181.216 6.854 179.668 6.854H179.452C177.724 6.854 176.662 7.592 176.662 9.23C176.662 10.886 177.742 11.642 179.452 11.642ZM188.929 17.438V14.936H191.125C191.467 14.936 191.647 14.792 191.647 14.522V14.504C191.647 14.288 191.593 14.09 191.323 13.532L187.039 4.01H190.891L193.663 11.174L196.417 4.01H199.945L195.373 15.008C194.671 16.646 193.807 17.438 192.151 17.438H188.929ZM200.546 16.124V11.336H201.752C202.436 9.968 202.544 6.998 202.634 4.01H213.2V11.336H215V16.124H211.67V14H203.876V16.124H200.546ZM205.064 11.336H209.69V6.674H205.784C205.73 7.97 205.55 9.95 205.064 11.336ZM217.388 17.438V14.936H219.584C219.926 14.936 220.106 14.792 220.106 14.522V14.504C220.106 14.288 220.052 14.09 219.782 13.532L215.498 4.01H219.35L222.122 11.174L224.876 4.01H228.404L223.832 15.008C223.13 16.646 222.266 17.438 220.61 17.438H217.388ZM230.185 14V4.01H233.695V11.336H236.791V4.01H240.301V11.336H243.397V4.01H246.907V11.336H248.707V16.124H245.377V14H230.185ZM256.424 6.08C254.606 6.08 253.922 6.818 253.742 7.862H259.034C259.034 7.124 258.674 6.08 256.424 6.08ZM259.106 10.886H262.76C262.76 11.714 262.112 14.234 256.946 14.234H256.28C251.348 14.234 250.124 11.534 250.124 9.14V8.888C250.124 6.638 251.24 3.794 255.974 3.794H256.766C261.878 3.794 262.796 6.638 262.796 9.428V9.752H253.706C253.85 10.904 254.588 11.84 256.73 11.84C258.764 11.84 259.016 11.048 259.106 10.886ZM271.014 6.08C269.196 6.08 268.512 6.818 268.332 7.862H273.624C273.624 7.124 273.264 6.08 271.014 6.08ZM273.696 10.886H277.35C277.35 11.714 276.702 14.234 271.536 14.234H270.87C265.938 14.234 264.714 11.534 264.714 9.14V8.888C264.714 6.638 265.83 3.794 270.564 3.794H271.356C276.468 3.794 277.386 6.638 277.386 9.428V9.752H268.296C268.44 10.904 269.178 11.84 271.32 11.84C273.354 11.84 273.606 11.048 273.696 10.886Z" fill="url(#paint2_radial_41_188)"/>
<path d="M4.05 5.342H0.864V2.624C3.564 2.624 4.392 2.228 4.968 0.608H7.74V14H4.05V5.342ZM18.061 0.391999H18.817C25.099 0.391999 26.305 4.622 26.305 6.998V7.538C26.305 9.878 25.063 14.216 18.817 14.216H18.061C11.797 14.216 10.573 9.878 10.573 7.538V6.998C10.573 4.568 11.797 0.391999 18.061 0.391999ZM22.453 7.376V7.124C22.453 5.918 21.949 3.452 18.439 3.452C14.893 3.452 14.425 5.918 14.425 7.124V7.376C14.425 8.6 15.001 11.138 18.457 11.138C21.913 11.138 22.453 8.6 22.453 7.376ZM32.4523 10.508V14H28.2583V10.508H32.4523ZM55.1197 9.968V10.148C55.1197 13.01 52.4557 14.234 47.7757 14.234H47.3437C43.5277 14.234 39.8557 13.1 39.8557 9.5V9.284H43.8157C43.8157 10.94 45.2917 11.516 47.9737 11.516C50.2057 11.516 51.2677 10.922 51.2677 9.842C51.2677 8.834 50.5657 8.402 48.8197 8.402H44.9497V5.756H48.6217C49.7017 5.756 50.8537 5.594 50.8537 4.586C50.8537 3.452 49.8817 3.092 47.5237 3.092C45.5977 3.092 43.9777 3.452 43.9237 4.964H39.9637V4.694C39.9637 1.508 43.4377 0.446 47.1637 0.446H47.7397C52.2577 0.446 54.7057 1.58 54.7057 3.83V3.956C54.7057 5.666 53.5717 6.494 52.1317 6.872C53.5717 7.16 55.1197 8.096 55.1197 9.968ZM62.1428 12.002C64.1948 12.002 64.8968 10.706 64.8968 9.95V9.176C64.5908 9.302 63.7088 9.482 62.7008 9.644C61.0088 9.932 60.4688 10.166 60.4688 10.868V10.904C60.4688 11.534 60.9188 12.002 62.1428 12.002ZM65.0048 12.614C64.5728 13.136 63.4928 14.198 61.1528 14.198H60.8648C58.0748 14.198 56.9228 12.686 56.9228 11.03V10.958C56.9228 9.23 58.0208 8.168 61.4048 7.88L64.1408 7.646C64.6988 7.592 64.8968 7.412 64.8968 6.998C64.8968 6.53 64.7528 6.026 62.8088 6.026C60.9728 6.026 60.7928 6.746 60.7928 7.124H57.1928V7.088C57.1928 6.098 57.5888 3.776 62.5028 3.776H63.0608C68.0108 3.776 68.3168 5.81 68.3168 7.142V10.436C68.3168 11.066 68.4428 11.318 69.1448 11.318H69.5228V14H66.6788C65.6348 14 65.1488 13.262 65.0048 12.614ZM84.9715 14H76.7275V4.01H84.6115C86.8975 4.01 88.3375 4.82 88.3375 6.404V6.494C88.3375 7.736 87.5455 8.474 86.3395 8.672C87.5635 8.816 88.6615 9.68 88.6615 11.12V11.192C88.6615 13.01 87.4735 14 84.9715 14ZM80.2375 7.988H83.4595C84.3055 7.988 84.7375 7.664 84.7375 7.034V6.944C84.7375 6.368 84.3415 6.026 83.4595 6.026H80.2375V7.988ZM80.2375 11.984H83.6035C84.5395 11.984 85.0615 11.678 85.0615 10.976V10.832C85.0615 10.202 84.6295 9.806 83.6035 9.806H80.2375V11.984ZM98.5404 14L94.6524 9.374V14H91.1424V4.01H94.6524V8.006L98.2164 4.01H102.266L98.0904 8.492L102.716 14H98.5404ZM112.181 14V6.674H108.221C108.221 9.356 108.131 10.85 107.789 11.768C107.411 12.776 106.907 14 104.261 14H103.163V11.39H103.379C104.009 11.39 104.477 11.174 104.675 10.256C104.819 9.482 104.873 8.636 104.873 4.01H115.691V14H112.181ZM123.315 12.002C125.367 12.002 126.069 10.706 126.069 9.95V9.176C125.763 9.302 124.881 9.482 123.873 9.644C122.181 9.932 121.641 10.166 121.641 10.868V10.904C121.641 11.534 122.091 12.002 123.315 12.002ZM126.177 12.614C125.745 13.136 124.665 14.198 122.325 14.198H122.037C119.247 14.198 118.095 12.686 118.095 11.03V10.958C118.095 9.23 119.193 8.168 122.577 7.88L125.313 7.646C125.871 7.592 126.069 7.412 126.069 6.998C126.069 6.53 125.925 6.026 123.981 6.026C122.145 6.026 121.965 6.746 121.965 7.124H118.365V7.088C118.365 6.098 118.761 3.776 123.675 3.776H124.233C129.183 3.776 129.489 5.81 129.489 7.142V10.436C129.489 11.066 129.615 11.318 130.317 11.318H130.695V14H127.851C126.807 14 126.321 13.262 126.177 12.614ZM132.22 16.124V11.336H133.426C134.11 9.968 134.218 6.998 134.308 4.01H144.874V11.336H146.674V16.124H143.344V14H135.55V16.124H132.22ZM136.738 11.336H141.364V6.674H137.458C137.404 7.97 137.224 9.95 136.738 11.336ZM162.21 14H153.966V4.01H161.85C164.136 4.01 165.576 4.82 165.576 6.404V6.494C165.576 7.736 164.784 8.474 163.578 8.672C164.802 8.816 165.9 9.68 165.9 11.12V11.192C165.9 13.01 164.712 14 162.21 14ZM157.476 7.988H160.698C161.544 7.988 161.976 7.664 161.976 7.034V6.944C161.976 6.368 161.58 6.026 160.698 6.026H157.476V7.988ZM157.476 11.984H160.842C161.778 11.984 162.3 11.678 162.3 10.976V10.832C162.3 10.202 161.868 9.806 160.842 9.806H157.476V11.984ZM186.022 9.122V9.356C186.022 13.1 183.178 14.27 179.776 14.27H179.416C175.906 14.27 173.044 12.902 173.044 8.15V7.088C173.044 2.282 175.438 0.698 180.118 0.698H180.928C182.044 0.698 182.116 0.589999 182.152 0.373999H185.59C185.59 2.48 184.798 3.362 182.35 3.362H180.118C177.526 3.362 176.536 4.172 176.482 5.99C177.4 5.036 178.804 4.388 181.018 4.388H181.126C183.502 4.388 186.022 5.594 186.022 9.122ZM179.452 11.642H179.65C181.234 11.642 182.404 10.85 182.404 9.212C182.404 7.628 181.216 6.854 179.668 6.854H179.452C177.724 6.854 176.662 7.592 176.662 9.23C176.662 10.886 177.742 11.642 179.452 11.642ZM188.929 17.438V14.936H191.125C191.467 14.936 191.647 14.792 191.647 14.522V14.504C191.647 14.288 191.593 14.09 191.323 13.532L187.039 4.01H190.891L193.663 11.174L196.417 4.01H199.945L195.373 15.008C194.671 16.646 193.807 17.438 192.151 17.438H188.929ZM200.546 16.124V11.336H201.752C202.436 9.968 202.544 6.998 202.634 4.01H213.2V11.336H215V16.124H211.67V14H203.876V16.124H200.546ZM205.064 11.336H209.69V6.674H205.784C205.73 7.97 205.55 9.95 205.064 11.336ZM217.388 17.438V14.936H219.584C219.926 14.936 220.106 14.792 220.106 14.522V14.504C220.106 14.288 220.052 14.09 219.782 13.532L215.498 4.01H219.35L222.122 11.174L224.876 4.01H228.404L223.832 15.008C223.13 16.646 222.266 17.438 220.61 17.438H217.388ZM230.185 14V4.01H233.695V11.336H236.791V4.01H240.301V11.336H243.397V4.01H246.907V11.336H248.707V16.124H245.377V14H230.185ZM256.424 6.08C254.606 6.08 253.922 6.818 253.742 7.862H259.034C259.034 7.124 258.674 6.08 256.424 6.08ZM259.106 10.886H262.76C262.76 11.714 262.112 14.234 256.946 14.234H256.28C251.348 14.234 250.124 11.534 250.124 9.14V8.888C250.124 6.638 251.24 3.794 255.974 3.794H256.766C261.878 3.794 262.796 6.638 262.796 9.428V9.752H253.706C253.85 10.904 254.588 11.84 256.73 11.84C258.764 11.84 259.016 11.048 259.106 10.886ZM271.014 6.08C269.196 6.08 268.512 6.818 268.332 7.862H273.624C273.624 7.124 273.264 6.08 271.014 6.08ZM273.696 10.886H277.35C277.35 11.714 276.702 14.234 271.536 14.234H270.87C265.938 14.234 264.714 11.534 264.714 9.14V8.888C264.714 6.638 265.83 3.794 270.564 3.794H271.356C276.468 3.794 277.386 6.638 277.386 9.428V9.752H268.296C268.44 10.904 269.178 11.84 271.32 11.84C273.354 11.84 273.606 11.048 273.696 10.886Z" fill="#C1A875" style="mix-blend-mode:color"/>
<defs>
<linearGradient id="paint0_linear_41_188" x1="1.03936e-06" y1="6" x2="279" y2="6.00002" gradientUnits="userSpaceOnUse">
<stop stop-color="#576167"/>
<stop offset="0.191294" stop-color="#9EA1A2"/>
<stop offset="0.396166" stop-color="#848989"/>
<stop offset="0.62055" stop-color="#576167"/>
<stop offset="0.830299" stop-color="#757A7C"/>
<stop offset="1" stop-color="#576167"/>
</linearGradient>
<radialGradient id="paint1_radial_41_188" cx="0" cy="0" r="1" gradientUnits="userSpaceOnUse" gradientTransform="translate(148.582 -3.20225) rotate(90) scale(17.8315 211.073)">
<stop stop-color="white"/>
<stop offset="1" stop-color="white" stop-opacity="0"/>
</radialGradient>
<radialGradient id="paint2_radial_41_188" cx="0" cy="0" r="1" gradientUnits="userSpaceOnUse" gradientTransform="translate(164.363 23.6629) rotate(-88.9986) scale(25.5545 301.783)">
<stop stop-color="white"/>
<stop offset="1" stop-color="white" stop-opacity="0"/>
</radialGradient>
</defs>
</svg>
