<svg width="108" height="13" viewBox="0 0 108 13" fill="none" xmlns="http://www.w3.org/2000/svg">
<path d="M8.982 11V6.814H3.172V11H0.288V0.584H3.172V4.448H8.982V0.584H11.866V11H8.982ZM19.1564 11.21H18.7224C14.5364 11.21 13.8924 8.662 13.8924 7.248V7.052C13.8924 5.652 14.5364 3.02 18.7084 3.02H19.1704C23.4824 3.02 23.9864 5.666 23.9864 7.038V7.262C23.9864 8.662 23.4824 11.21 19.1564 11.21ZM18.8624 9.166H19.0164C20.7384 9.166 21.1724 7.934 21.1724 7.08C21.1724 6.198 20.7384 5.022 19.0164 5.022H18.8624C17.0704 5.022 16.7064 6.198 16.7064 7.08C16.7064 7.934 17.0704 9.166 18.8624 9.166ZM28.3845 5.764V11H25.8645V3.23H29.7145L32.0245 8.186L34.3345 3.23H38.0445V11H35.3145V5.764L32.8925 11H30.8065L28.3845 5.764ZM46.7719 6.296L43.0199 11H40.2199V3.23H42.9499V7.934L46.7019 3.23H49.5019V11H46.7719V6.296ZM54.5027 11H51.7727V3.23H54.5027V6.058H58.3107V3.23H61.0407V11H58.3107V8.13H54.5027V11ZM66.9797 9.446C68.5757 9.446 69.1217 8.438 69.1217 7.85V7.248C68.8837 7.346 68.1977 7.486 67.4137 7.612C66.0977 7.836 65.6777 8.018 65.6777 8.564V8.592C65.6777 9.082 66.0277 9.446 66.9797 9.446ZM69.2057 9.922C68.8697 10.328 68.0297 11.154 66.2097 11.154H65.9857C63.8157 11.154 62.9197 9.978 62.9197 8.69V8.634C62.9197 7.29 63.7737 6.464 66.4057 6.24L68.5337 6.058C68.9677 6.016 69.1217 5.876 69.1217 5.554C69.1217 5.19 69.0097 4.798 67.4977 4.798C66.0697 4.798 65.9297 5.358 65.9297 5.652H63.1297V5.624C63.1297 4.854 63.4377 3.048 67.2597 3.048H67.6937C71.5437 3.048 71.7817 4.63 71.7817 5.666V8.228C71.7817 8.718 71.8797 8.914 72.4257 8.914H72.7197V11H70.5077C69.6957 11 69.3177 10.426 69.2057 9.922ZM84.6646 8.928V12.652H82.0746V11H74.2766V3.23H77.0066V8.928H80.5346V3.23H83.2646V8.928H84.6646ZM92.8462 6.296L89.0942 11H86.2942V3.23H89.0242V7.934L92.7762 3.23H95.5762V11H92.8462V6.296ZM104.385 8.396H102.551L100.283 11H97.2029L99.7369 8.102C98.3929 7.836 97.6229 7.066 97.6229 5.89V5.722C97.6229 4.308 98.7709 3.23 100.717 3.23H107.115V11H104.385V8.396ZM104.385 5.022H101.459C100.857 5.022 100.353 5.162 100.353 5.778V5.834C100.353 6.436 100.871 6.618 101.473 6.618H104.385V5.022Z" fill="url(#paint0_linear_41_303)"/>
<path d="M8.982 11V6.814H3.172V11H0.288V0.584H3.172V4.448H8.982V0.584H11.866V11H8.982ZM19.1564 11.21H18.7224C14.5364 11.21 13.8924 8.662 13.8924 7.248V7.052C13.8924 5.652 14.5364 3.02 18.7084 3.02H19.1704C23.4824 3.02 23.9864 5.666 23.9864 7.038V7.262C23.9864 8.662 23.4824 11.21 19.1564 11.21ZM18.8624 9.166H19.0164C20.7384 9.166 21.1724 7.934 21.1724 7.08C21.1724 6.198 20.7384 5.022 19.0164 5.022H18.8624C17.0704 5.022 16.7064 6.198 16.7064 7.08C16.7064 7.934 17.0704 9.166 18.8624 9.166ZM28.3845 5.764V11H25.8645V3.23H29.7145L32.0245 8.186L34.3345 3.23H38.0445V11H35.3145V5.764L32.8925 11H30.8065L28.3845 5.764ZM46.7719 6.296L43.0199 11H40.2199V3.23H42.9499V7.934L46.7019 3.23H49.5019V11H46.7719V6.296ZM54.5027 11H51.7727V3.23H54.5027V6.058H58.3107V3.23H61.0407V11H58.3107V8.13H54.5027V11ZM66.9797 9.446C68.5757 9.446 69.1217 8.438 69.1217 7.85V7.248C68.8837 7.346 68.1977 7.486 67.4137 7.612C66.0977 7.836 65.6777 8.018 65.6777 8.564V8.592C65.6777 9.082 66.0277 9.446 66.9797 9.446ZM69.2057 9.922C68.8697 10.328 68.0297 11.154 66.2097 11.154H65.9857C63.8157 11.154 62.9197 9.978 62.9197 8.69V8.634C62.9197 7.29 63.7737 6.464 66.4057 6.24L68.5337 6.058C68.9677 6.016 69.1217 5.876 69.1217 5.554C69.1217 5.19 69.0097 4.798 67.4977 4.798C66.0697 4.798 65.9297 5.358 65.9297 5.652H63.1297V5.624C63.1297 4.854 63.4377 3.048 67.2597 3.048H67.6937C71.5437 3.048 71.7817 4.63 71.7817 5.666V8.228C71.7817 8.718 71.8797 8.914 72.4257 8.914H72.7197V11H70.5077C69.6957 11 69.3177 10.426 69.2057 9.922ZM84.6646 8.928V12.652H82.0746V11H74.2766V3.23H77.0066V8.928H80.5346V3.23H83.2646V8.928H84.6646ZM92.8462 6.296L89.0942 11H86.2942V3.23H89.0242V7.934L92.7762 3.23H95.5762V11H92.8462V6.296ZM104.385 8.396H102.551L100.283 11H97.2029L99.7369 8.102C98.3929 7.836 97.6229 7.066 97.6229 5.89V5.722C97.6229 4.308 98.7709 3.23 100.717 3.23H107.115V11H104.385V8.396ZM104.385 5.022H101.459C100.857 5.022 100.353 5.162 100.353 5.778V5.834C100.353 6.436 100.871 6.618 101.473 6.618H104.385V5.022Z" fill="url(#paint1_radial_41_303)" style="mix-blend-mode:overlay"/>
<path d="M8.982 11V6.814H3.172V11H0.288V0.584H3.172V4.448H8.982V0.584H11.866V11H8.982ZM19.1564 11.21H18.7224C14.5364 11.21 13.8924 8.662 13.8924 7.248V7.052C13.8924 5.652 14.5364 3.02 18.7084 3.02H19.1704C23.4824 3.02 23.9864 5.666 23.9864 7.038V7.262C23.9864 8.662 23.4824 11.21 19.1564 11.21ZM18.8624 9.166H19.0164C20.7384 9.166 21.1724 7.934 21.1724 7.08C21.1724 6.198 20.7384 5.022 19.0164 5.022H18.8624C17.0704 5.022 16.7064 6.198 16.7064 7.08C16.7064 7.934 17.0704 9.166 18.8624 9.166ZM28.3845 5.764V11H25.8645V3.23H29.7145L32.0245 8.186L34.3345 3.23H38.0445V11H35.3145V5.764L32.8925 11H30.8065L28.3845 5.764ZM46.7719 6.296L43.0199 11H40.2199V3.23H42.9499V7.934L46.7019 3.23H49.5019V11H46.7719V6.296ZM54.5027 11H51.7727V3.23H54.5027V6.058H58.3107V3.23H61.0407V11H58.3107V8.13H54.5027V11ZM66.9797 9.446C68.5757 9.446 69.1217 8.438 69.1217 7.85V7.248C68.8837 7.346 68.1977 7.486 67.4137 7.612C66.0977 7.836 65.6777 8.018 65.6777 8.564V8.592C65.6777 9.082 66.0277 9.446 66.9797 9.446ZM69.2057 9.922C68.8697 10.328 68.0297 11.154 66.2097 11.154H65.9857C63.8157 11.154 62.9197 9.978 62.9197 8.69V8.634C62.9197 7.29 63.7737 6.464 66.4057 6.24L68.5337 6.058C68.9677 6.016 69.1217 5.876 69.1217 5.554C69.1217 5.19 69.0097 4.798 67.4977 4.798C66.0697 4.798 65.9297 5.358 65.9297 5.652H63.1297V5.624C63.1297 4.854 63.4377 3.048 67.2597 3.048H67.6937C71.5437 3.048 71.7817 4.63 71.7817 5.666V8.228C71.7817 8.718 71.8797 8.914 72.4257 8.914H72.7197V11H70.5077C69.6957 11 69.3177 10.426 69.2057 9.922ZM84.6646 8.928V12.652H82.0746V11H74.2766V3.23H77.0066V8.928H80.5346V3.23H83.2646V8.928H84.6646ZM92.8462 6.296L89.0942 11H86.2942V3.23H89.0242V7.934L92.7762 3.23H95.5762V11H92.8462V6.296ZM104.385 8.396H102.551L100.283 11H97.2029L99.7369 8.102C98.3929 7.836 97.6229 7.066 97.6229 5.89V5.722C97.6229 4.308 98.7709 3.23 100.717 3.23H107.115V11H104.385V8.396ZM104.385 5.022H101.459C100.857 5.022 100.353 5.162 100.353 5.778V5.834C100.353 6.436 100.871 6.618 101.473 6.618H104.385V5.022Z" fill="url(#paint2_radial_41_303)"/>
<path d="M8.982 11V6.814H3.172V11H0.288V0.584H3.172V4.448H8.982V0.584H11.866V11H8.982ZM19.1564 11.21H18.7224C14.5364 11.21 13.8924 8.662 13.8924 7.248V7.052C13.8924 5.652 14.5364 3.02 18.7084 3.02H19.1704C23.4824 3.02 23.9864 5.666 23.9864 7.038V7.262C23.9864 8.662 23.4824 11.21 19.1564 11.21ZM18.8624 9.166H19.0164C20.7384 9.166 21.1724 7.934 21.1724 7.08C21.1724 6.198 20.7384 5.022 19.0164 5.022H18.8624C17.0704 5.022 16.7064 6.198 16.7064 7.08C16.7064 7.934 17.0704 9.166 18.8624 9.166ZM28.3845 5.764V11H25.8645V3.23H29.7145L32.0245 8.186L34.3345 3.23H38.0445V11H35.3145V5.764L32.8925 11H30.8065L28.3845 5.764ZM46.7719 6.296L43.0199 11H40.2199V3.23H42.9499V7.934L46.7019 3.23H49.5019V11H46.7719V6.296ZM54.5027 11H51.7727V3.23H54.5027V6.058H58.3107V3.23H61.0407V11H58.3107V8.13H54.5027V11ZM66.9797 9.446C68.5757 9.446 69.1217 8.438 69.1217 7.85V7.248C68.8837 7.346 68.1977 7.486 67.4137 7.612C66.0977 7.836 65.6777 8.018 65.6777 8.564V8.592C65.6777 9.082 66.0277 9.446 66.9797 9.446ZM69.2057 9.922C68.8697 10.328 68.0297 11.154 66.2097 11.154H65.9857C63.8157 11.154 62.9197 9.978 62.9197 8.69V8.634C62.9197 7.29 63.7737 6.464 66.4057 6.24L68.5337 6.058C68.9677 6.016 69.1217 5.876 69.1217 5.554C69.1217 5.19 69.0097 4.798 67.4977 4.798C66.0697 4.798 65.9297 5.358 65.9297 5.652H63.1297V5.624C63.1297 4.854 63.4377 3.048 67.2597 3.048H67.6937C71.5437 3.048 71.7817 4.63 71.7817 5.666V8.228C71.7817 8.718 71.8797 8.914 72.4257 8.914H72.7197V11H70.5077C69.6957 11 69.3177 10.426 69.2057 9.922ZM84.6646 8.928V12.652H82.0746V11H74.2766V3.23H77.0066V8.928H80.5346V3.23H83.2646V8.928H84.6646ZM92.8462 6.296L89.0942 11H86.2942V3.23H89.0242V7.934L92.7762 3.23H95.5762V11H92.8462V6.296ZM104.385 8.396H102.551L100.283 11H97.2029L99.7369 8.102C98.3929 7.836 97.6229 7.066 97.6229 5.89V5.722C97.6229 4.308 98.7709 3.23 100.717 3.23H107.115V11H104.385V8.396ZM104.385 5.022H101.459C100.857 5.022 100.353 5.162 100.353 5.778V5.834C100.353 6.436 100.871 6.618 101.473 6.618H104.385V5.022Z" fill="#C1A875" style="mix-blend-mode:color"/>
<defs>
<linearGradient id="paint0_linear_41_303" x1="-1" y1="5.5" x2="109" y2="5.5" gradientUnits="userSpaceOnUse">
<stop stop-color="#576167"/>
<stop offset="0.191294" stop-color="#9EA1A2"/>
<stop offset="0.396166" stop-color="#848989"/>
<stop offset="0.62055" stop-color="#576167"/>
<stop offset="0.830299" stop-color="#757A7C"/>
<stop offset="1" stop-color="#576167"/>
</linearGradient>
<radialGradient id="paint1_radial_41_303" cx="0" cy="0" r="1" gradientUnits="userSpaceOnUse" gradientTransform="translate(57.5806 -1.78511) rotate(90) scale(14.1166 83.2186)">
<stop stop-color="white"/>
<stop offset="1" stop-color="white" stop-opacity="0"/>
</radialGradient>
<radialGradient id="paint2_radial_41_303" cx="0" cy="0" r="1" gradientUnits="userSpaceOnUse" gradientTransform="translate(63.8026 19.4831) rotate(-89.5012) scale(20.2283 118.996)">
<stop stop-color="white"/>
<stop offset="1" stop-color="white" stop-opacity="0"/>
</radialGradient>
</defs>
</svg>
