<svg width="129" height="14" viewBox="0 0 129 14" fill="none" xmlns="http://www.w3.org/2000/svg">
<path d="M8.184 11L3.172 6.1V11H0.288V0.584H3.172V4.868L8.044 0.584H11.712L6.224 5.358L11.95 11H8.184ZM17.297 11.21H16.863C12.677 11.21 12.033 8.662 12.033 7.248V7.052C12.033 5.652 12.677 3.02 16.849 3.02H17.311C21.623 3.02 22.127 5.666 22.127 7.038V7.262C22.127 8.662 21.623 11.21 17.297 11.21ZM17.003 9.166H17.157C18.879 9.166 19.313 7.934 19.313 7.08C19.313 6.198 18.879 5.022 17.157 5.022H17.003C15.211 5.022 14.847 6.198 14.847 7.08C14.847 7.934 15.211 9.166 17.003 9.166ZM26.5251 5.764V11H24.0051V3.23H27.8551L30.1651 8.186L32.4751 3.23H36.1851V11H33.4551V5.764L31.0331 11H28.9471L26.5251 5.764ZM40.8806 5.764V11H38.3606V3.23H42.2106L44.5206 8.186L46.8306 3.23H50.5406V11H47.8106V5.764L45.3886 11H43.3026L40.8806 5.764ZM57.238 4.84C55.824 4.84 55.292 5.414 55.152 6.226H59.268C59.268 5.652 58.988 4.84 57.238 4.84ZM59.324 8.578H62.166C62.166 9.222 61.662 11.182 57.644 11.182H57.126C53.29 11.182 52.338 9.082 52.338 7.22V7.024C52.338 5.274 53.206 3.062 56.888 3.062H57.504C61.48 3.062 62.194 5.274 62.194 7.444V7.696H55.124C55.236 8.592 55.81 9.32 57.476 9.32C59.058 9.32 59.254 8.704 59.324 8.578ZM66.7937 11H64.0637V3.23H66.7937V6.058H70.6017V3.23H73.3317V11H70.6017V8.13H66.7937V11ZM77.8288 11V5.302H74.8188V3.23H83.5688V5.302H80.5588V11H77.8288ZM88.718 9.446C90.314 9.446 90.86 8.438 90.86 7.85V7.248C90.622 7.346 89.936 7.486 89.152 7.612C87.836 7.836 87.416 8.018 87.416 8.564V8.592C87.416 9.082 87.766 9.446 88.718 9.446ZM90.944 9.922C90.608 10.328 89.768 11.154 87.948 11.154H87.724C85.554 11.154 84.658 9.978 84.658 8.69V8.634C84.658 7.29 85.512 6.464 88.144 6.24L90.272 6.058C90.706 6.016 90.86 5.876 90.86 5.554C90.86 5.19 90.748 4.798 89.236 4.798C87.808 4.798 87.668 5.358 87.668 5.652H84.868V5.624C84.868 4.854 85.176 3.048 88.998 3.048H89.432C93.282 3.048 93.52 4.63 93.52 5.666V8.228C93.52 8.718 93.618 8.914 94.164 8.914H94.458V11H92.246C91.434 11 91.056 10.426 90.944 9.922ZM103.155 7.122V7.08C103.155 6.24 102.763 5.106 101.055 5.106H100.915C99.2769 5.106 98.7589 6.184 98.7589 7.08V7.122C98.7589 7.976 99.2769 9.096 100.915 9.096H101.055C102.763 9.096 103.155 7.92 103.155 7.122ZM96.0429 13.674V3.23H98.7449V4.224C99.0809 3.86 100.103 3.076 101.867 3.076H102.049C105.017 3.076 105.983 5.106 105.983 6.954V7.192C105.983 8.886 104.989 11.154 102.035 11.154H101.839C100.061 11.154 99.1089 10.342 98.7729 10.006V13.674H96.0429ZM114.434 6.296L110.682 11H107.882V3.23H110.612V7.934L114.364 3.23H117.164V11H114.434V6.296ZM125.987 6.296L122.235 11H119.435V3.23H122.165V7.934L125.917 3.23H128.717V11H125.987V6.296ZM124.251 2.432H123.831C121.605 2.432 121.213 0.92 121.213 0.192V0.149999H123.271C123.271 0.332 123.355 0.891999 124.055 0.891999C124.713 0.891999 124.811 0.332 124.811 0.149999H126.841V0.192C126.841 0.92 126.281 2.432 124.251 2.432Z" fill="url(#paint0_linear_41_312)"/>
<path d="M8.184 11L3.172 6.1V11H0.288V0.584H3.172V4.868L8.044 0.584H11.712L6.224 5.358L11.95 11H8.184ZM17.297 11.21H16.863C12.677 11.21 12.033 8.662 12.033 7.248V7.052C12.033 5.652 12.677 3.02 16.849 3.02H17.311C21.623 3.02 22.127 5.666 22.127 7.038V7.262C22.127 8.662 21.623 11.21 17.297 11.21ZM17.003 9.166H17.157C18.879 9.166 19.313 7.934 19.313 7.08C19.313 6.198 18.879 5.022 17.157 5.022H17.003C15.211 5.022 14.847 6.198 14.847 7.08C14.847 7.934 15.211 9.166 17.003 9.166ZM26.5251 5.764V11H24.0051V3.23H27.8551L30.1651 8.186L32.4751 3.23H36.1851V11H33.4551V5.764L31.0331 11H28.9471L26.5251 5.764ZM40.8806 5.764V11H38.3606V3.23H42.2106L44.5206 8.186L46.8306 3.23H50.5406V11H47.8106V5.764L45.3886 11H43.3026L40.8806 5.764ZM57.238 4.84C55.824 4.84 55.292 5.414 55.152 6.226H59.268C59.268 5.652 58.988 4.84 57.238 4.84ZM59.324 8.578H62.166C62.166 9.222 61.662 11.182 57.644 11.182H57.126C53.29 11.182 52.338 9.082 52.338 7.22V7.024C52.338 5.274 53.206 3.062 56.888 3.062H57.504C61.48 3.062 62.194 5.274 62.194 7.444V7.696H55.124C55.236 8.592 55.81 9.32 57.476 9.32C59.058 9.32 59.254 8.704 59.324 8.578ZM66.7937 11H64.0637V3.23H66.7937V6.058H70.6017V3.23H73.3317V11H70.6017V8.13H66.7937V11ZM77.8288 11V5.302H74.8188V3.23H83.5688V5.302H80.5588V11H77.8288ZM88.718 9.446C90.314 9.446 90.86 8.438 90.86 7.85V7.248C90.622 7.346 89.936 7.486 89.152 7.612C87.836 7.836 87.416 8.018 87.416 8.564V8.592C87.416 9.082 87.766 9.446 88.718 9.446ZM90.944 9.922C90.608 10.328 89.768 11.154 87.948 11.154H87.724C85.554 11.154 84.658 9.978 84.658 8.69V8.634C84.658 7.29 85.512 6.464 88.144 6.24L90.272 6.058C90.706 6.016 90.86 5.876 90.86 5.554C90.86 5.19 90.748 4.798 89.236 4.798C87.808 4.798 87.668 5.358 87.668 5.652H84.868V5.624C84.868 4.854 85.176 3.048 88.998 3.048H89.432C93.282 3.048 93.52 4.63 93.52 5.666V8.228C93.52 8.718 93.618 8.914 94.164 8.914H94.458V11H92.246C91.434 11 91.056 10.426 90.944 9.922ZM103.155 7.122V7.08C103.155 6.24 102.763 5.106 101.055 5.106H100.915C99.2769 5.106 98.7589 6.184 98.7589 7.08V7.122C98.7589 7.976 99.2769 9.096 100.915 9.096H101.055C102.763 9.096 103.155 7.92 103.155 7.122ZM96.0429 13.674V3.23H98.7449V4.224C99.0809 3.86 100.103 3.076 101.867 3.076H102.049C105.017 3.076 105.983 5.106 105.983 6.954V7.192C105.983 8.886 104.989 11.154 102.035 11.154H101.839C100.061 11.154 99.1089 10.342 98.7729 10.006V13.674H96.0429ZM114.434 6.296L110.682 11H107.882V3.23H110.612V7.934L114.364 3.23H117.164V11H114.434V6.296ZM125.987 6.296L122.235 11H119.435V3.23H122.165V7.934L125.917 3.23H128.717V11H125.987V6.296ZM124.251 2.432H123.831C121.605 2.432 121.213 0.92 121.213 0.192V0.149999H123.271C123.271 0.332 123.355 0.891999 124.055 0.891999C124.713 0.891999 124.811 0.332 124.811 0.149999H126.841V0.192C126.841 0.92 126.281 2.432 124.251 2.432Z" fill="url(#paint1_radial_41_312)" style="mix-blend-mode:overlay"/>
<path d="M8.184 11L3.172 6.1V11H0.288V0.584H3.172V4.868L8.044 0.584H11.712L6.224 5.358L11.95 11H8.184ZM17.297 11.21H16.863C12.677 11.21 12.033 8.662 12.033 7.248V7.052C12.033 5.652 12.677 3.02 16.849 3.02H17.311C21.623 3.02 22.127 5.666 22.127 7.038V7.262C22.127 8.662 21.623 11.21 17.297 11.21ZM17.003 9.166H17.157C18.879 9.166 19.313 7.934 19.313 7.08C19.313 6.198 18.879 5.022 17.157 5.022H17.003C15.211 5.022 14.847 6.198 14.847 7.08C14.847 7.934 15.211 9.166 17.003 9.166ZM26.5251 5.764V11H24.0051V3.23H27.8551L30.1651 8.186L32.4751 3.23H36.1851V11H33.4551V5.764L31.0331 11H28.9471L26.5251 5.764ZM40.8806 5.764V11H38.3606V3.23H42.2106L44.5206 8.186L46.8306 3.23H50.5406V11H47.8106V5.764L45.3886 11H43.3026L40.8806 5.764ZM57.238 4.84C55.824 4.84 55.292 5.414 55.152 6.226H59.268C59.268 5.652 58.988 4.84 57.238 4.84ZM59.324 8.578H62.166C62.166 9.222 61.662 11.182 57.644 11.182H57.126C53.29 11.182 52.338 9.082 52.338 7.22V7.024C52.338 5.274 53.206 3.062 56.888 3.062H57.504C61.48 3.062 62.194 5.274 62.194 7.444V7.696H55.124C55.236 8.592 55.81 9.32 57.476 9.32C59.058 9.32 59.254 8.704 59.324 8.578ZM66.7937 11H64.0637V3.23H66.7937V6.058H70.6017V3.23H73.3317V11H70.6017V8.13H66.7937V11ZM77.8288 11V5.302H74.8188V3.23H83.5688V5.302H80.5588V11H77.8288ZM88.718 9.446C90.314 9.446 90.86 8.438 90.86 7.85V7.248C90.622 7.346 89.936 7.486 89.152 7.612C87.836 7.836 87.416 8.018 87.416 8.564V8.592C87.416 9.082 87.766 9.446 88.718 9.446ZM90.944 9.922C90.608 10.328 89.768 11.154 87.948 11.154H87.724C85.554 11.154 84.658 9.978 84.658 8.69V8.634C84.658 7.29 85.512 6.464 88.144 6.24L90.272 6.058C90.706 6.016 90.86 5.876 90.86 5.554C90.86 5.19 90.748 4.798 89.236 4.798C87.808 4.798 87.668 5.358 87.668 5.652H84.868V5.624C84.868 4.854 85.176 3.048 88.998 3.048H89.432C93.282 3.048 93.52 4.63 93.52 5.666V8.228C93.52 8.718 93.618 8.914 94.164 8.914H94.458V11H92.246C91.434 11 91.056 10.426 90.944 9.922ZM103.155 7.122V7.08C103.155 6.24 102.763 5.106 101.055 5.106H100.915C99.2769 5.106 98.7589 6.184 98.7589 7.08V7.122C98.7589 7.976 99.2769 9.096 100.915 9.096H101.055C102.763 9.096 103.155 7.92 103.155 7.122ZM96.0429 13.674V3.23H98.7449V4.224C99.0809 3.86 100.103 3.076 101.867 3.076H102.049C105.017 3.076 105.983 5.106 105.983 6.954V7.192C105.983 8.886 104.989 11.154 102.035 11.154H101.839C100.061 11.154 99.1089 10.342 98.7729 10.006V13.674H96.0429ZM114.434 6.296L110.682 11H107.882V3.23H110.612V7.934L114.364 3.23H117.164V11H114.434V6.296ZM125.987 6.296L122.235 11H119.435V3.23H122.165V7.934L125.917 3.23H128.717V11H125.987V6.296ZM124.251 2.432H123.831C121.605 2.432 121.213 0.92 121.213 0.192V0.149999H123.271C123.271 0.332 123.355 0.891999 124.055 0.891999C124.713 0.891999 124.811 0.332 124.811 0.149999H126.841V0.192C126.841 0.92 126.281 2.432 124.251 2.432Z" fill="url(#paint2_radial_41_312)"/>
<path d="M8.184 11L3.172 6.1V11H0.288V0.584H3.172V4.868L8.044 0.584H11.712L6.224 5.358L11.95 11H8.184ZM17.297 11.21H16.863C12.677 11.21 12.033 8.662 12.033 7.248V7.052C12.033 5.652 12.677 3.02 16.849 3.02H17.311C21.623 3.02 22.127 5.666 22.127 7.038V7.262C22.127 8.662 21.623 11.21 17.297 11.21ZM17.003 9.166H17.157C18.879 9.166 19.313 7.934 19.313 7.08C19.313 6.198 18.879 5.022 17.157 5.022H17.003C15.211 5.022 14.847 6.198 14.847 7.08C14.847 7.934 15.211 9.166 17.003 9.166ZM26.5251 5.764V11H24.0051V3.23H27.8551L30.1651 8.186L32.4751 3.23H36.1851V11H33.4551V5.764L31.0331 11H28.9471L26.5251 5.764ZM40.8806 5.764V11H38.3606V3.23H42.2106L44.5206 8.186L46.8306 3.23H50.5406V11H47.8106V5.764L45.3886 11H43.3026L40.8806 5.764ZM57.238 4.84C55.824 4.84 55.292 5.414 55.152 6.226H59.268C59.268 5.652 58.988 4.84 57.238 4.84ZM59.324 8.578H62.166C62.166 9.222 61.662 11.182 57.644 11.182H57.126C53.29 11.182 52.338 9.082 52.338 7.22V7.024C52.338 5.274 53.206 3.062 56.888 3.062H57.504C61.48 3.062 62.194 5.274 62.194 7.444V7.696H55.124C55.236 8.592 55.81 9.32 57.476 9.32C59.058 9.32 59.254 8.704 59.324 8.578ZM66.7937 11H64.0637V3.23H66.7937V6.058H70.6017V3.23H73.3317V11H70.6017V8.13H66.7937V11ZM77.8288 11V5.302H74.8188V3.23H83.5688V5.302H80.5588V11H77.8288ZM88.718 9.446C90.314 9.446 90.86 8.438 90.86 7.85V7.248C90.622 7.346 89.936 7.486 89.152 7.612C87.836 7.836 87.416 8.018 87.416 8.564V8.592C87.416 9.082 87.766 9.446 88.718 9.446ZM90.944 9.922C90.608 10.328 89.768 11.154 87.948 11.154H87.724C85.554 11.154 84.658 9.978 84.658 8.69V8.634C84.658 7.29 85.512 6.464 88.144 6.24L90.272 6.058C90.706 6.016 90.86 5.876 90.86 5.554C90.86 5.19 90.748 4.798 89.236 4.798C87.808 4.798 87.668 5.358 87.668 5.652H84.868V5.624C84.868 4.854 85.176 3.048 88.998 3.048H89.432C93.282 3.048 93.52 4.63 93.52 5.666V8.228C93.52 8.718 93.618 8.914 94.164 8.914H94.458V11H92.246C91.434 11 91.056 10.426 90.944 9.922ZM103.155 7.122V7.08C103.155 6.24 102.763 5.106 101.055 5.106H100.915C99.2769 5.106 98.7589 6.184 98.7589 7.08V7.122C98.7589 7.976 99.2769 9.096 100.915 9.096H101.055C102.763 9.096 103.155 7.92 103.155 7.122ZM96.0429 13.674V3.23H98.7449V4.224C99.0809 3.86 100.103 3.076 101.867 3.076H102.049C105.017 3.076 105.983 5.106 105.983 6.954V7.192C105.983 8.886 104.989 11.154 102.035 11.154H101.839C100.061 11.154 99.1089 10.342 98.7729 10.006V13.674H96.0429ZM114.434 6.296L110.682 11H107.882V3.23H110.612V7.934L114.364 3.23H117.164V11H114.434V6.296ZM125.987 6.296L122.235 11H119.435V3.23H122.165V7.934L125.917 3.23H128.717V11H125.987V6.296ZM124.251 2.432H123.831C121.605 2.432 121.213 0.92 121.213 0.192V0.149999H123.271C123.271 0.332 123.355 0.891999 124.055 0.891999C124.713 0.891999 124.811 0.332 124.811 0.149999H126.841V0.192C126.841 0.92 126.281 2.432 124.251 2.432Z" fill="#C1A875" style="mix-blend-mode:color"/>
<defs>
<linearGradient id="paint0_linear_41_312" x1="-1" y1="5.5" x2="130" y2="5.50001" gradientUnits="userSpaceOnUse">
<stop stop-color="#576167"/>
<stop offset="0.191294" stop-color="#9EA1A2"/>
<stop offset="0.396166" stop-color="#848989"/>
<stop offset="0.62055" stop-color="#576167"/>
<stop offset="0.830299" stop-color="#757A7C"/>
<stop offset="1" stop-color="#576167"/>
</linearGradient>
<radialGradient id="paint1_radial_41_312" cx="0" cy="0" r="1" gradientUnits="userSpaceOnUse" gradientTransform="translate(68.7641 -1.78511) rotate(90) scale(14.1166 99.1057)">
<stop stop-color="white"/>
<stop offset="1" stop-color="white" stop-opacity="0"/>
</radialGradient>
<radialGradient id="paint2_radial_41_312" cx="0" cy="0" r="1" gradientUnits="userSpaceOnUse" gradientTransform="translate(76.174 19.4831) rotate(-89.406) scale(20.2286 141.711)">
<stop stop-color="white"/>
<stop offset="1" stop-color="white" stop-opacity="0"/>
</radialGradient>
</defs>
</svg>
