<svg width="464" height="18" viewBox="0 0 464 18" fill="none" xmlns="http://www.w3.org/2000/svg">
<path d="M13.4372 14H0.207248V11.156H5.06725V5.18H1.26925V2.606C4.36525 2.606 5.37325 2.138 5.94925 0.608H8.75725V11.156H13.4372V14ZM19.8078 10.508V14H15.6138V10.508H19.8078ZM40.194 14V5L32.364 14H28.656V0.608H32.364V9.608L40.194 0.608H43.902V14H40.194ZM50.5305 14H47.0205V4.01H50.5305V7.646H55.4265V4.01H58.9365V14H55.4265V10.31H50.5305V14ZM65.3664 14H61.8564V4.01H65.3664V7.646H70.2624V4.01H73.7724V14H70.2624V10.31H65.3664V14ZM82.9564 14.27H82.3984C77.0164 14.27 76.1884 10.994 76.1884 9.176V8.924C76.1884 7.124 77.0164 3.74 82.3804 3.74H82.9744C88.5184 3.74 89.1664 7.142 89.1664 8.906V9.194C89.1664 10.994 88.5184 14.27 82.9564 14.27ZM82.5784 11.642H82.7764C84.9904 11.642 85.5484 10.058 85.5484 8.96C85.5484 7.826 84.9904 6.314 82.7764 6.314H82.5784C80.2744 6.314 79.8064 7.826 79.8064 8.96C79.8064 10.058 80.2744 11.642 82.5784 11.642ZM99.825 14H91.581V4.01H99.465C101.751 4.01 103.191 4.82 103.191 6.404V6.494C103.191 7.736 102.399 8.474 101.193 8.672C102.417 8.816 103.515 9.68 103.515 11.12V11.192C103.515 13.01 102.327 14 99.825 14ZM95.091 7.988H98.313C99.159 7.988 99.591 7.664 99.591 7.034V6.944C99.591 6.368 99.195 6.026 98.313 6.026H95.091V7.988ZM95.091 11.984H98.457C99.393 11.984 99.915 11.678 99.915 10.976V10.832C99.915 10.202 99.483 9.806 98.457 9.806H95.091V11.984ZM110.588 12.002C112.64 12.002 113.342 10.706 113.342 9.95V9.176C113.036 9.302 112.154 9.482 111.146 9.644C109.454 9.932 108.914 10.166 108.914 10.868V10.904C108.914 11.534 109.364 12.002 110.588 12.002ZM113.45 12.614C113.018 13.136 111.938 14.198 109.598 14.198H109.31C106.52 14.198 105.368 12.686 105.368 11.03V10.958C105.368 9.23 106.466 8.168 109.85 7.88L112.586 7.646C113.144 7.592 113.342 7.412 113.342 6.998C113.342 6.53 113.198 6.026 111.254 6.026C109.418 6.026 109.238 6.746 109.238 7.124H105.638V7.088C105.638 6.098 106.034 3.776 110.948 3.776H111.506C116.456 3.776 116.762 5.81 116.762 7.142V10.436C116.762 11.066 116.888 11.318 117.59 11.318H117.968V14H115.124C114.08 14 113.594 13.262 113.45 12.614ZM122.656 14V6.674H118.786V4.01H130.036V6.674H126.166V14H122.656ZM138.204 14.27H137.646C132.264 14.27 131.436 10.994 131.436 9.176V8.924C131.436 7.124 132.264 3.74 137.628 3.74H138.222C143.766 3.74 144.414 7.142 144.414 8.906V9.194C144.414 10.994 143.766 14.27 138.204 14.27ZM137.826 11.642H138.024C140.238 11.642 140.796 10.058 140.796 8.96C140.796 7.826 140.238 6.314 138.024 6.314H137.826C135.522 6.314 135.054 7.826 135.054 8.96C135.054 10.058 135.522 11.642 137.826 11.642ZM156.009 9.014V8.96C156.009 7.88 155.505 6.422 153.309 6.422H153.129C151.023 6.422 150.357 7.808 150.357 8.96V9.014C150.357 10.112 151.023 11.552 153.129 11.552H153.309C155.505 11.552 156.009 10.04 156.009 9.014ZM146.865 17.438V4.01H150.339V5.288C150.771 4.82 152.085 3.812 154.353 3.812H154.587C158.403 3.812 159.645 6.422 159.645 8.798V9.104C159.645 11.282 158.367 14.198 154.569 14.198H154.317C152.031 14.198 150.807 13.154 150.375 12.722V17.438H146.865ZM167.29 14V4.01H176.002V6.674H170.8V14H167.29ZM184.171 14.27H183.613C178.231 14.27 177.403 10.994 177.403 9.176V8.924C177.403 7.124 178.231 3.74 183.595 3.74H184.189C189.733 3.74 190.381 7.142 190.381 8.906V9.194C190.381 10.994 189.733 14.27 184.171 14.27ZM183.793 11.642H183.991C186.205 11.642 186.763 10.058 186.763 8.96C186.763 7.826 186.205 6.314 183.991 6.314H183.793C181.489 6.314 181.021 7.826 181.021 8.96C181.021 10.058 181.489 11.642 183.793 11.642ZM191.704 16.124V11.336H192.91C193.594 9.968 193.702 6.998 193.792 4.01H204.358V11.336H206.158V16.124H202.828V14H195.034V16.124H191.704ZM196.222 11.336H200.848V6.674H196.942C196.888 7.97 196.708 9.95 196.222 11.336ZM212.963 12.002C215.015 12.002 215.717 10.706 215.717 9.95V9.176C215.411 9.302 214.529 9.482 213.521 9.644C211.829 9.932 211.289 10.166 211.289 10.868V10.904C211.289 11.534 211.739 12.002 212.963 12.002ZM215.825 12.614C215.393 13.136 214.313 14.198 211.973 14.198H211.685C208.895 14.198 207.743 12.686 207.743 11.03V10.958C207.743 9.23 208.841 8.168 212.225 7.88L214.961 7.646C215.519 7.592 215.717 7.412 215.717 6.998C215.717 6.53 215.573 6.026 213.629 6.026C211.793 6.026 211.613 6.746 211.613 7.124H208.013V7.088C208.013 6.098 208.409 3.776 213.323 3.776H213.881C218.831 3.776 219.137 5.81 219.137 7.142V10.436C219.137 11.066 219.263 11.318 219.965 11.318H220.343V14H217.499C216.455 14 215.969 13.262 215.825 12.614ZM235.792 14H227.548V4.01H235.432C237.718 4.01 239.158 4.82 239.158 6.404V6.494C239.158 7.736 238.366 8.474 237.16 8.672C238.384 8.816 239.482 9.68 239.482 11.12V11.192C239.482 13.01 238.294 14 235.792 14ZM231.058 7.988H234.28C235.126 7.988 235.558 7.664 235.558 7.034V6.944C235.558 6.368 235.162 6.026 234.28 6.026H231.058V7.988ZM231.058 11.984H234.424C235.36 11.984 235.882 11.678 235.882 10.976V10.832C235.882 10.202 235.45 9.806 234.424 9.806H231.058V11.984ZM258.344 11.048V11.156C258.344 13.154 256.67 14.27 252.836 14.27H252.512C248.408 14.27 246.626 12.74 246.626 10.67V10.526H250.388C250.442 11.642 251.468 12.056 252.692 12.056C254.006 12.056 254.726 11.66 254.726 10.868V10.814C254.726 10.076 254.15 9.896 253.142 9.896H250.766V7.754H253.142C253.916 7.754 254.402 7.448 254.402 6.872V6.818C254.402 6.224 253.808 5.918 252.602 5.918C251.252 5.918 250.532 6.242 250.478 6.944H246.716V6.89C246.716 4.748 249.218 3.74 252.476 3.74H252.764C256.13 3.74 258.02 4.55 258.02 6.422V6.494C258.02 8.006 256.868 8.582 256.04 8.78C257.048 8.978 258.344 9.464 258.344 11.048ZM259.784 16.124V11.336H260.99C261.674 9.968 261.782 6.998 261.872 4.01H272.438V11.336H274.238V16.124H270.908V14H263.114V16.124H259.784ZM264.302 11.336H268.928V6.674H265.022C264.968 7.97 264.788 9.95 264.302 11.336ZM285.507 9.014V8.96C285.507 7.88 285.003 6.422 282.807 6.422H282.627C280.521 6.422 279.855 7.808 279.855 8.96V9.014C279.855 10.112 280.521 11.552 282.627 11.552H282.807C285.003 11.552 285.507 10.04 285.507 9.014ZM276.363 17.438V4.01H279.837V5.288C280.269 4.82 281.583 3.812 283.851 3.812H284.085C287.901 3.812 289.143 6.422 289.143 8.798V9.104C289.143 11.282 287.865 14.198 284.067 14.198H283.815C281.529 14.198 280.305 13.154 279.873 12.722V17.438H276.363ZM296.213 12.002C298.265 12.002 298.967 10.706 298.967 9.95V9.176C298.661 9.302 297.779 9.482 296.771 9.644C295.079 9.932 294.539 10.166 294.539 10.868V10.904C294.539 11.534 294.989 12.002 296.213 12.002ZM299.075 12.614C298.643 13.136 297.563 14.198 295.223 14.198H294.935C292.145 14.198 290.993 12.686 290.993 11.03V10.958C290.993 9.23 292.091 8.168 295.475 7.88L298.211 7.646C298.769 7.592 298.967 7.412 298.967 6.998C298.967 6.53 298.823 6.026 296.879 6.026C295.043 6.026 294.863 6.746 294.863 7.124H291.263V7.088C291.263 6.098 291.659 3.776 296.573 3.776H297.131C302.081 3.776 302.387 5.81 302.387 7.142V10.436C302.387 11.066 302.513 11.318 303.215 11.318H303.593V14H300.749C299.705 14 299.219 13.262 299.075 12.614ZM313.839 14H305.595V4.01H313.479C315.765 4.01 317.205 4.82 317.205 6.404V6.494C317.205 7.736 316.413 8.474 315.207 8.672C316.431 8.816 317.529 9.68 317.529 11.12V11.192C317.529 13.01 316.341 14 313.839 14ZM309.105 7.988H312.327C313.173 7.988 313.605 7.664 313.605 7.034V6.944C313.605 6.368 313.209 6.026 312.327 6.026H309.105V7.988ZM309.105 11.984H312.471C313.407 11.984 313.929 11.678 313.929 10.976V10.832C313.929 10.202 313.497 9.806 312.471 9.806H309.105V11.984ZM326.238 14.27H325.68C320.298 14.27 319.47 10.994 319.47 9.176V8.924C319.47 7.124 320.298 3.74 325.662 3.74H326.256C331.8 3.74 332.448 7.142 332.448 8.906V9.194C332.448 10.994 331.8 14.27 326.238 14.27ZM325.86 11.642H326.058C328.272 11.642 328.83 10.058 328.83 8.96C328.83 7.826 328.272 6.314 326.058 6.314H325.86C323.556 6.314 323.088 7.826 323.088 8.96C323.088 10.058 323.556 11.642 325.86 11.642ZM341.126 14.27H340.568C335.186 14.27 334.358 10.994 334.358 9.176V8.924C334.358 7.124 335.186 3.74 340.55 3.74H341.144C346.688 3.74 347.336 7.142 347.336 8.906V9.194C347.336 10.994 346.688 14.27 341.126 14.27ZM340.748 11.642H340.946C343.16 11.642 343.718 10.058 343.718 8.96C343.718 7.826 343.16 6.314 340.946 6.314H340.748C338.444 6.314 337.976 7.826 337.976 8.96C337.976 10.058 338.444 11.642 340.748 11.642ZM357.567 14L354.885 11.138L352.275 14H348.297L352.779 8.996L348.153 4.01H352.455L355.011 6.8L357.477 4.01H361.347L357.045 8.924L361.617 14H357.567ZM372.29 9.014V8.96C372.29 7.88 371.786 6.422 369.59 6.422H369.41C367.304 6.422 366.638 7.808 366.638 8.96V9.014C366.638 10.112 367.304 11.552 369.41 11.552H369.59C371.786 11.552 372.29 10.04 372.29 9.014ZM363.146 17.438V4.01H366.62V5.288C367.052 4.82 368.366 3.812 370.634 3.812H370.868C374.684 3.812 375.926 6.422 375.926 8.798V9.104C375.926 11.282 374.648 14.198 370.85 14.198H370.598C368.312 14.198 367.088 13.154 366.656 12.722V17.438H363.146ZM382.996 12.002C385.048 12.002 385.75 10.706 385.75 9.95V9.176C385.444 9.302 384.562 9.482 383.554 9.644C381.862 9.932 381.322 10.166 381.322 10.868V10.904C381.322 11.534 381.772 12.002 382.996 12.002ZM385.858 12.614C385.426 13.136 384.346 14.198 382.006 14.198H381.718C378.928 14.198 377.776 12.686 377.776 11.03V10.958C377.776 9.23 378.874 8.168 382.258 7.88L384.994 7.646C385.552 7.592 385.75 7.412 385.75 6.998C385.75 6.53 385.606 6.026 383.662 6.026C381.826 6.026 381.646 6.746 381.646 7.124H378.046V7.088C378.046 6.098 378.442 3.776 383.356 3.776H383.914C388.864 3.776 389.17 5.81 389.17 7.142V10.436C389.17 11.066 389.296 11.318 389.998 11.318H390.376V14H387.532C386.488 14 386.002 13.262 385.858 12.614ZM395.888 14H392.378V4.01H395.888V7.646H400.784V4.01H404.294V14H400.784V10.31H395.888V14ZM413.028 6.08C411.21 6.08 410.526 6.818 410.346 7.862H415.638C415.638 7.124 415.278 6.08 413.028 6.08ZM415.71 10.886H419.364C419.364 11.714 418.716 14.234 413.55 14.234H412.884C407.952 14.234 406.728 11.534 406.728 9.14V8.888C406.728 6.638 407.844 3.794 412.578 3.794H413.37C418.482 3.794 419.4 6.638 419.4 9.428V9.752H410.31C410.454 10.904 411.192 11.84 413.334 11.84C415.368 11.84 415.62 11.048 415.71 10.886ZM425.314 14H421.804V4.01H425.314V7.646H430.21V4.01H433.72V14H430.21V10.31H425.314V14ZM445.064 7.952L440.24 14H436.64V4.01H440.15V10.058L444.974 4.01H448.574V14H445.064V7.952ZM459.917 7.952L455.093 14H451.493V4.01H455.003V10.058L459.827 4.01H463.427V14H459.917V7.952Z" fill="url(#paint0_linear_2018_1226)"/>
<path d="M13.4372 14H0.207248V11.156H5.06725V5.18H1.26925V2.606C4.36525 2.606 5.37325 2.138 5.94925 0.608H8.75725V11.156H13.4372V14ZM19.8078 10.508V14H15.6138V10.508H19.8078ZM40.194 14V5L32.364 14H28.656V0.608H32.364V9.608L40.194 0.608H43.902V14H40.194ZM50.5305 14H47.0205V4.01H50.5305V7.646H55.4265V4.01H58.9365V14H55.4265V10.31H50.5305V14ZM65.3664 14H61.8564V4.01H65.3664V7.646H70.2624V4.01H73.7724V14H70.2624V10.31H65.3664V14ZM82.9564 14.27H82.3984C77.0164 14.27 76.1884 10.994 76.1884 9.176V8.924C76.1884 7.124 77.0164 3.74 82.3804 3.74H82.9744C88.5184 3.74 89.1664 7.142 89.1664 8.906V9.194C89.1664 10.994 88.5184 14.27 82.9564 14.27ZM82.5784 11.642H82.7764C84.9904 11.642 85.5484 10.058 85.5484 8.96C85.5484 7.826 84.9904 6.314 82.7764 6.314H82.5784C80.2744 6.314 79.8064 7.826 79.8064 8.96C79.8064 10.058 80.2744 11.642 82.5784 11.642ZM99.825 14H91.581V4.01H99.465C101.751 4.01 103.191 4.82 103.191 6.404V6.494C103.191 7.736 102.399 8.474 101.193 8.672C102.417 8.816 103.515 9.68 103.515 11.12V11.192C103.515 13.01 102.327 14 99.825 14ZM95.091 7.988H98.313C99.159 7.988 99.591 7.664 99.591 7.034V6.944C99.591 6.368 99.195 6.026 98.313 6.026H95.091V7.988ZM95.091 11.984H98.457C99.393 11.984 99.915 11.678 99.915 10.976V10.832C99.915 10.202 99.483 9.806 98.457 9.806H95.091V11.984ZM110.588 12.002C112.64 12.002 113.342 10.706 113.342 9.95V9.176C113.036 9.302 112.154 9.482 111.146 9.644C109.454 9.932 108.914 10.166 108.914 10.868V10.904C108.914 11.534 109.364 12.002 110.588 12.002ZM113.45 12.614C113.018 13.136 111.938 14.198 109.598 14.198H109.31C106.52 14.198 105.368 12.686 105.368 11.03V10.958C105.368 9.23 106.466 8.168 109.85 7.88L112.586 7.646C113.144 7.592 113.342 7.412 113.342 6.998C113.342 6.53 113.198 6.026 111.254 6.026C109.418 6.026 109.238 6.746 109.238 7.124H105.638V7.088C105.638 6.098 106.034 3.776 110.948 3.776H111.506C116.456 3.776 116.762 5.81 116.762 7.142V10.436C116.762 11.066 116.888 11.318 117.59 11.318H117.968V14H115.124C114.08 14 113.594 13.262 113.45 12.614ZM122.656 14V6.674H118.786V4.01H130.036V6.674H126.166V14H122.656ZM138.204 14.27H137.646C132.264 14.27 131.436 10.994 131.436 9.176V8.924C131.436 7.124 132.264 3.74 137.628 3.74H138.222C143.766 3.74 144.414 7.142 144.414 8.906V9.194C144.414 10.994 143.766 14.27 138.204 14.27ZM137.826 11.642H138.024C140.238 11.642 140.796 10.058 140.796 8.96C140.796 7.826 140.238 6.314 138.024 6.314H137.826C135.522 6.314 135.054 7.826 135.054 8.96C135.054 10.058 135.522 11.642 137.826 11.642ZM156.009 9.014V8.96C156.009 7.88 155.505 6.422 153.309 6.422H153.129C151.023 6.422 150.357 7.808 150.357 8.96V9.014C150.357 10.112 151.023 11.552 153.129 11.552H153.309C155.505 11.552 156.009 10.04 156.009 9.014ZM146.865 17.438V4.01H150.339V5.288C150.771 4.82 152.085 3.812 154.353 3.812H154.587C158.403 3.812 159.645 6.422 159.645 8.798V9.104C159.645 11.282 158.367 14.198 154.569 14.198H154.317C152.031 14.198 150.807 13.154 150.375 12.722V17.438H146.865ZM167.29 14V4.01H176.002V6.674H170.8V14H167.29ZM184.171 14.27H183.613C178.231 14.27 177.403 10.994 177.403 9.176V8.924C177.403 7.124 178.231 3.74 183.595 3.74H184.189C189.733 3.74 190.381 7.142 190.381 8.906V9.194C190.381 10.994 189.733 14.27 184.171 14.27ZM183.793 11.642H183.991C186.205 11.642 186.763 10.058 186.763 8.96C186.763 7.826 186.205 6.314 183.991 6.314H183.793C181.489 6.314 181.021 7.826 181.021 8.96C181.021 10.058 181.489 11.642 183.793 11.642ZM191.704 16.124V11.336H192.91C193.594 9.968 193.702 6.998 193.792 4.01H204.358V11.336H206.158V16.124H202.828V14H195.034V16.124H191.704ZM196.222 11.336H200.848V6.674H196.942C196.888 7.97 196.708 9.95 196.222 11.336ZM212.963 12.002C215.015 12.002 215.717 10.706 215.717 9.95V9.176C215.411 9.302 214.529 9.482 213.521 9.644C211.829 9.932 211.289 10.166 211.289 10.868V10.904C211.289 11.534 211.739 12.002 212.963 12.002ZM215.825 12.614C215.393 13.136 214.313 14.198 211.973 14.198H211.685C208.895 14.198 207.743 12.686 207.743 11.03V10.958C207.743 9.23 208.841 8.168 212.225 7.88L214.961 7.646C215.519 7.592 215.717 7.412 215.717 6.998C215.717 6.53 215.573 6.026 213.629 6.026C211.793 6.026 211.613 6.746 211.613 7.124H208.013V7.088C208.013 6.098 208.409 3.776 213.323 3.776H213.881C218.831 3.776 219.137 5.81 219.137 7.142V10.436C219.137 11.066 219.263 11.318 219.965 11.318H220.343V14H217.499C216.455 14 215.969 13.262 215.825 12.614ZM235.792 14H227.548V4.01H235.432C237.718 4.01 239.158 4.82 239.158 6.404V6.494C239.158 7.736 238.366 8.474 237.16 8.672C238.384 8.816 239.482 9.68 239.482 11.12V11.192C239.482 13.01 238.294 14 235.792 14ZM231.058 7.988H234.28C235.126 7.988 235.558 7.664 235.558 7.034V6.944C235.558 6.368 235.162 6.026 234.28 6.026H231.058V7.988ZM231.058 11.984H234.424C235.36 11.984 235.882 11.678 235.882 10.976V10.832C235.882 10.202 235.45 9.806 234.424 9.806H231.058V11.984ZM258.344 11.048V11.156C258.344 13.154 256.67 14.27 252.836 14.27H252.512C248.408 14.27 246.626 12.74 246.626 10.67V10.526H250.388C250.442 11.642 251.468 12.056 252.692 12.056C254.006 12.056 254.726 11.66 254.726 10.868V10.814C254.726 10.076 254.15 9.896 253.142 9.896H250.766V7.754H253.142C253.916 7.754 254.402 7.448 254.402 6.872V6.818C254.402 6.224 253.808 5.918 252.602 5.918C251.252 5.918 250.532 6.242 250.478 6.944H246.716V6.89C246.716 4.748 249.218 3.74 252.476 3.74H252.764C256.13 3.74 258.02 4.55 258.02 6.422V6.494C258.02 8.006 256.868 8.582 256.04 8.78C257.048 8.978 258.344 9.464 258.344 11.048ZM259.784 16.124V11.336H260.99C261.674 9.968 261.782 6.998 261.872 4.01H272.438V11.336H274.238V16.124H270.908V14H263.114V16.124H259.784ZM264.302 11.336H268.928V6.674H265.022C264.968 7.97 264.788 9.95 264.302 11.336ZM285.507 9.014V8.96C285.507 7.88 285.003 6.422 282.807 6.422H282.627C280.521 6.422 279.855 7.808 279.855 8.96V9.014C279.855 10.112 280.521 11.552 282.627 11.552H282.807C285.003 11.552 285.507 10.04 285.507 9.014ZM276.363 17.438V4.01H279.837V5.288C280.269 4.82 281.583 3.812 283.851 3.812H284.085C287.901 3.812 289.143 6.422 289.143 8.798V9.104C289.143 11.282 287.865 14.198 284.067 14.198H283.815C281.529 14.198 280.305 13.154 279.873 12.722V17.438H276.363ZM296.213 12.002C298.265 12.002 298.967 10.706 298.967 9.95V9.176C298.661 9.302 297.779 9.482 296.771 9.644C295.079 9.932 294.539 10.166 294.539 10.868V10.904C294.539 11.534 294.989 12.002 296.213 12.002ZM299.075 12.614C298.643 13.136 297.563 14.198 295.223 14.198H294.935C292.145 14.198 290.993 12.686 290.993 11.03V10.958C290.993 9.23 292.091 8.168 295.475 7.88L298.211 7.646C298.769 7.592 298.967 7.412 298.967 6.998C298.967 6.53 298.823 6.026 296.879 6.026C295.043 6.026 294.863 6.746 294.863 7.124H291.263V7.088C291.263 6.098 291.659 3.776 296.573 3.776H297.131C302.081 3.776 302.387 5.81 302.387 7.142V10.436C302.387 11.066 302.513 11.318 303.215 11.318H303.593V14H300.749C299.705 14 299.219 13.262 299.075 12.614ZM313.839 14H305.595V4.01H313.479C315.765 4.01 317.205 4.82 317.205 6.404V6.494C317.205 7.736 316.413 8.474 315.207 8.672C316.431 8.816 317.529 9.68 317.529 11.12V11.192C317.529 13.01 316.341 14 313.839 14ZM309.105 7.988H312.327C313.173 7.988 313.605 7.664 313.605 7.034V6.944C313.605 6.368 313.209 6.026 312.327 6.026H309.105V7.988ZM309.105 11.984H312.471C313.407 11.984 313.929 11.678 313.929 10.976V10.832C313.929 10.202 313.497 9.806 312.471 9.806H309.105V11.984ZM326.238 14.27H325.68C320.298 14.27 319.47 10.994 319.47 9.176V8.924C319.47 7.124 320.298 3.74 325.662 3.74H326.256C331.8 3.74 332.448 7.142 332.448 8.906V9.194C332.448 10.994 331.8 14.27 326.238 14.27ZM325.86 11.642H326.058C328.272 11.642 328.83 10.058 328.83 8.96C328.83 7.826 328.272 6.314 326.058 6.314H325.86C323.556 6.314 323.088 7.826 323.088 8.96C323.088 10.058 323.556 11.642 325.86 11.642ZM341.126 14.27H340.568C335.186 14.27 334.358 10.994 334.358 9.176V8.924C334.358 7.124 335.186 3.74 340.55 3.74H341.144C346.688 3.74 347.336 7.142 347.336 8.906V9.194C347.336 10.994 346.688 14.27 341.126 14.27ZM340.748 11.642H340.946C343.16 11.642 343.718 10.058 343.718 8.96C343.718 7.826 343.16 6.314 340.946 6.314H340.748C338.444 6.314 337.976 7.826 337.976 8.96C337.976 10.058 338.444 11.642 340.748 11.642ZM357.567 14L354.885 11.138L352.275 14H348.297L352.779 8.996L348.153 4.01H352.455L355.011 6.8L357.477 4.01H361.347L357.045 8.924L361.617 14H357.567ZM372.29 9.014V8.96C372.29 7.88 371.786 6.422 369.59 6.422H369.41C367.304 6.422 366.638 7.808 366.638 8.96V9.014C366.638 10.112 367.304 11.552 369.41 11.552H369.59C371.786 11.552 372.29 10.04 372.29 9.014ZM363.146 17.438V4.01H366.62V5.288C367.052 4.82 368.366 3.812 370.634 3.812H370.868C374.684 3.812 375.926 6.422 375.926 8.798V9.104C375.926 11.282 374.648 14.198 370.85 14.198H370.598C368.312 14.198 367.088 13.154 366.656 12.722V17.438H363.146ZM382.996 12.002C385.048 12.002 385.75 10.706 385.75 9.95V9.176C385.444 9.302 384.562 9.482 383.554 9.644C381.862 9.932 381.322 10.166 381.322 10.868V10.904C381.322 11.534 381.772 12.002 382.996 12.002ZM385.858 12.614C385.426 13.136 384.346 14.198 382.006 14.198H381.718C378.928 14.198 377.776 12.686 377.776 11.03V10.958C377.776 9.23 378.874 8.168 382.258 7.88L384.994 7.646C385.552 7.592 385.75 7.412 385.75 6.998C385.75 6.53 385.606 6.026 383.662 6.026C381.826 6.026 381.646 6.746 381.646 7.124H378.046V7.088C378.046 6.098 378.442 3.776 383.356 3.776H383.914C388.864 3.776 389.17 5.81 389.17 7.142V10.436C389.17 11.066 389.296 11.318 389.998 11.318H390.376V14H387.532C386.488 14 386.002 13.262 385.858 12.614ZM395.888 14H392.378V4.01H395.888V7.646H400.784V4.01H404.294V14H400.784V10.31H395.888V14ZM413.028 6.08C411.21 6.08 410.526 6.818 410.346 7.862H415.638C415.638 7.124 415.278 6.08 413.028 6.08ZM415.71 10.886H419.364C419.364 11.714 418.716 14.234 413.55 14.234H412.884C407.952 14.234 406.728 11.534 406.728 9.14V8.888C406.728 6.638 407.844 3.794 412.578 3.794H413.37C418.482 3.794 419.4 6.638 419.4 9.428V9.752H410.31C410.454 10.904 411.192 11.84 413.334 11.84C415.368 11.84 415.62 11.048 415.71 10.886ZM425.314 14H421.804V4.01H425.314V7.646H430.21V4.01H433.72V14H430.21V10.31H425.314V14ZM445.064 7.952L440.24 14H436.64V4.01H440.15V10.058L444.974 4.01H448.574V14H445.064V7.952ZM459.917 7.952L455.093 14H451.493V4.01H455.003V10.058L459.827 4.01H463.427V14H459.917V7.952Z" fill="url(#paint1_radial_2018_1226)" style="mix-blend-mode:overlay"/>
<path d="M13.4372 14H0.207248V11.156H5.06725V5.18H1.26925V2.606C4.36525 2.606 5.37325 2.138 5.94925 0.608H8.75725V11.156H13.4372V14ZM19.8078 10.508V14H15.6138V10.508H19.8078ZM40.194 14V5L32.364 14H28.656V0.608H32.364V9.608L40.194 0.608H43.902V14H40.194ZM50.5305 14H47.0205V4.01H50.5305V7.646H55.4265V4.01H58.9365V14H55.4265V10.31H50.5305V14ZM65.3664 14H61.8564V4.01H65.3664V7.646H70.2624V4.01H73.7724V14H70.2624V10.31H65.3664V14ZM82.9564 14.27H82.3984C77.0164 14.27 76.1884 10.994 76.1884 9.176V8.924C76.1884 7.124 77.0164 3.74 82.3804 3.74H82.9744C88.5184 3.74 89.1664 7.142 89.1664 8.906V9.194C89.1664 10.994 88.5184 14.27 82.9564 14.27ZM82.5784 11.642H82.7764C84.9904 11.642 85.5484 10.058 85.5484 8.96C85.5484 7.826 84.9904 6.314 82.7764 6.314H82.5784C80.2744 6.314 79.8064 7.826 79.8064 8.96C79.8064 10.058 80.2744 11.642 82.5784 11.642ZM99.825 14H91.581V4.01H99.465C101.751 4.01 103.191 4.82 103.191 6.404V6.494C103.191 7.736 102.399 8.474 101.193 8.672C102.417 8.816 103.515 9.68 103.515 11.12V11.192C103.515 13.01 102.327 14 99.825 14ZM95.091 7.988H98.313C99.159 7.988 99.591 7.664 99.591 7.034V6.944C99.591 6.368 99.195 6.026 98.313 6.026H95.091V7.988ZM95.091 11.984H98.457C99.393 11.984 99.915 11.678 99.915 10.976V10.832C99.915 10.202 99.483 9.806 98.457 9.806H95.091V11.984ZM110.588 12.002C112.64 12.002 113.342 10.706 113.342 9.95V9.176C113.036 9.302 112.154 9.482 111.146 9.644C109.454 9.932 108.914 10.166 108.914 10.868V10.904C108.914 11.534 109.364 12.002 110.588 12.002ZM113.45 12.614C113.018 13.136 111.938 14.198 109.598 14.198H109.31C106.52 14.198 105.368 12.686 105.368 11.03V10.958C105.368 9.23 106.466 8.168 109.85 7.88L112.586 7.646C113.144 7.592 113.342 7.412 113.342 6.998C113.342 6.53 113.198 6.026 111.254 6.026C109.418 6.026 109.238 6.746 109.238 7.124H105.638V7.088C105.638 6.098 106.034 3.776 110.948 3.776H111.506C116.456 3.776 116.762 5.81 116.762 7.142V10.436C116.762 11.066 116.888 11.318 117.59 11.318H117.968V14H115.124C114.08 14 113.594 13.262 113.45 12.614ZM122.656 14V6.674H118.786V4.01H130.036V6.674H126.166V14H122.656ZM138.204 14.27H137.646C132.264 14.27 131.436 10.994 131.436 9.176V8.924C131.436 7.124 132.264 3.74 137.628 3.74H138.222C143.766 3.74 144.414 7.142 144.414 8.906V9.194C144.414 10.994 143.766 14.27 138.204 14.27ZM137.826 11.642H138.024C140.238 11.642 140.796 10.058 140.796 8.96C140.796 7.826 140.238 6.314 138.024 6.314H137.826C135.522 6.314 135.054 7.826 135.054 8.96C135.054 10.058 135.522 11.642 137.826 11.642ZM156.009 9.014V8.96C156.009 7.88 155.505 6.422 153.309 6.422H153.129C151.023 6.422 150.357 7.808 150.357 8.96V9.014C150.357 10.112 151.023 11.552 153.129 11.552H153.309C155.505 11.552 156.009 10.04 156.009 9.014ZM146.865 17.438V4.01H150.339V5.288C150.771 4.82 152.085 3.812 154.353 3.812H154.587C158.403 3.812 159.645 6.422 159.645 8.798V9.104C159.645 11.282 158.367 14.198 154.569 14.198H154.317C152.031 14.198 150.807 13.154 150.375 12.722V17.438H146.865ZM167.29 14V4.01H176.002V6.674H170.8V14H167.29ZM184.171 14.27H183.613C178.231 14.27 177.403 10.994 177.403 9.176V8.924C177.403 7.124 178.231 3.74 183.595 3.74H184.189C189.733 3.74 190.381 7.142 190.381 8.906V9.194C190.381 10.994 189.733 14.27 184.171 14.27ZM183.793 11.642H183.991C186.205 11.642 186.763 10.058 186.763 8.96C186.763 7.826 186.205 6.314 183.991 6.314H183.793C181.489 6.314 181.021 7.826 181.021 8.96C181.021 10.058 181.489 11.642 183.793 11.642ZM191.704 16.124V11.336H192.91C193.594 9.968 193.702 6.998 193.792 4.01H204.358V11.336H206.158V16.124H202.828V14H195.034V16.124H191.704ZM196.222 11.336H200.848V6.674H196.942C196.888 7.97 196.708 9.95 196.222 11.336ZM212.963 12.002C215.015 12.002 215.717 10.706 215.717 9.95V9.176C215.411 9.302 214.529 9.482 213.521 9.644C211.829 9.932 211.289 10.166 211.289 10.868V10.904C211.289 11.534 211.739 12.002 212.963 12.002ZM215.825 12.614C215.393 13.136 214.313 14.198 211.973 14.198H211.685C208.895 14.198 207.743 12.686 207.743 11.03V10.958C207.743 9.23 208.841 8.168 212.225 7.88L214.961 7.646C215.519 7.592 215.717 7.412 215.717 6.998C215.717 6.53 215.573 6.026 213.629 6.026C211.793 6.026 211.613 6.746 211.613 7.124H208.013V7.088C208.013 6.098 208.409 3.776 213.323 3.776H213.881C218.831 3.776 219.137 5.81 219.137 7.142V10.436C219.137 11.066 219.263 11.318 219.965 11.318H220.343V14H217.499C216.455 14 215.969 13.262 215.825 12.614ZM235.792 14H227.548V4.01H235.432C237.718 4.01 239.158 4.82 239.158 6.404V6.494C239.158 7.736 238.366 8.474 237.16 8.672C238.384 8.816 239.482 9.68 239.482 11.12V11.192C239.482 13.01 238.294 14 235.792 14ZM231.058 7.988H234.28C235.126 7.988 235.558 7.664 235.558 7.034V6.944C235.558 6.368 235.162 6.026 234.28 6.026H231.058V7.988ZM231.058 11.984H234.424C235.36 11.984 235.882 11.678 235.882 10.976V10.832C235.882 10.202 235.45 9.806 234.424 9.806H231.058V11.984ZM258.344 11.048V11.156C258.344 13.154 256.67 14.27 252.836 14.27H252.512C248.408 14.27 246.626 12.74 246.626 10.67V10.526H250.388C250.442 11.642 251.468 12.056 252.692 12.056C254.006 12.056 254.726 11.66 254.726 10.868V10.814C254.726 10.076 254.15 9.896 253.142 9.896H250.766V7.754H253.142C253.916 7.754 254.402 7.448 254.402 6.872V6.818C254.402 6.224 253.808 5.918 252.602 5.918C251.252 5.918 250.532 6.242 250.478 6.944H246.716V6.89C246.716 4.748 249.218 3.74 252.476 3.74H252.764C256.13 3.74 258.02 4.55 258.02 6.422V6.494C258.02 8.006 256.868 8.582 256.04 8.78C257.048 8.978 258.344 9.464 258.344 11.048ZM259.784 16.124V11.336H260.99C261.674 9.968 261.782 6.998 261.872 4.01H272.438V11.336H274.238V16.124H270.908V14H263.114V16.124H259.784ZM264.302 11.336H268.928V6.674H265.022C264.968 7.97 264.788 9.95 264.302 11.336ZM285.507 9.014V8.96C285.507 7.88 285.003 6.422 282.807 6.422H282.627C280.521 6.422 279.855 7.808 279.855 8.96V9.014C279.855 10.112 280.521 11.552 282.627 11.552H282.807C285.003 11.552 285.507 10.04 285.507 9.014ZM276.363 17.438V4.01H279.837V5.288C280.269 4.82 281.583 3.812 283.851 3.812H284.085C287.901 3.812 289.143 6.422 289.143 8.798V9.104C289.143 11.282 287.865 14.198 284.067 14.198H283.815C281.529 14.198 280.305 13.154 279.873 12.722V17.438H276.363ZM296.213 12.002C298.265 12.002 298.967 10.706 298.967 9.95V9.176C298.661 9.302 297.779 9.482 296.771 9.644C295.079 9.932 294.539 10.166 294.539 10.868V10.904C294.539 11.534 294.989 12.002 296.213 12.002ZM299.075 12.614C298.643 13.136 297.563 14.198 295.223 14.198H294.935C292.145 14.198 290.993 12.686 290.993 11.03V10.958C290.993 9.23 292.091 8.168 295.475 7.88L298.211 7.646C298.769 7.592 298.967 7.412 298.967 6.998C298.967 6.53 298.823 6.026 296.879 6.026C295.043 6.026 294.863 6.746 294.863 7.124H291.263V7.088C291.263 6.098 291.659 3.776 296.573 3.776H297.131C302.081 3.776 302.387 5.81 302.387 7.142V10.436C302.387 11.066 302.513 11.318 303.215 11.318H303.593V14H300.749C299.705 14 299.219 13.262 299.075 12.614ZM313.839 14H305.595V4.01H313.479C315.765 4.01 317.205 4.82 317.205 6.404V6.494C317.205 7.736 316.413 8.474 315.207 8.672C316.431 8.816 317.529 9.68 317.529 11.12V11.192C317.529 13.01 316.341 14 313.839 14ZM309.105 7.988H312.327C313.173 7.988 313.605 7.664 313.605 7.034V6.944C313.605 6.368 313.209 6.026 312.327 6.026H309.105V7.988ZM309.105 11.984H312.471C313.407 11.984 313.929 11.678 313.929 10.976V10.832C313.929 10.202 313.497 9.806 312.471 9.806H309.105V11.984ZM326.238 14.27H325.68C320.298 14.27 319.47 10.994 319.47 9.176V8.924C319.47 7.124 320.298 3.74 325.662 3.74H326.256C331.8 3.74 332.448 7.142 332.448 8.906V9.194C332.448 10.994 331.8 14.27 326.238 14.27ZM325.86 11.642H326.058C328.272 11.642 328.83 10.058 328.83 8.96C328.83 7.826 328.272 6.314 326.058 6.314H325.86C323.556 6.314 323.088 7.826 323.088 8.96C323.088 10.058 323.556 11.642 325.86 11.642ZM341.126 14.27H340.568C335.186 14.27 334.358 10.994 334.358 9.176V8.924C334.358 7.124 335.186 3.74 340.55 3.74H341.144C346.688 3.74 347.336 7.142 347.336 8.906V9.194C347.336 10.994 346.688 14.27 341.126 14.27ZM340.748 11.642H340.946C343.16 11.642 343.718 10.058 343.718 8.96C343.718 7.826 343.16 6.314 340.946 6.314H340.748C338.444 6.314 337.976 7.826 337.976 8.96C337.976 10.058 338.444 11.642 340.748 11.642ZM357.567 14L354.885 11.138L352.275 14H348.297L352.779 8.996L348.153 4.01H352.455L355.011 6.8L357.477 4.01H361.347L357.045 8.924L361.617 14H357.567ZM372.29 9.014V8.96C372.29 7.88 371.786 6.422 369.59 6.422H369.41C367.304 6.422 366.638 7.808 366.638 8.96V9.014C366.638 10.112 367.304 11.552 369.41 11.552H369.59C371.786 11.552 372.29 10.04 372.29 9.014ZM363.146 17.438V4.01H366.62V5.288C367.052 4.82 368.366 3.812 370.634 3.812H370.868C374.684 3.812 375.926 6.422 375.926 8.798V9.104C375.926 11.282 374.648 14.198 370.85 14.198H370.598C368.312 14.198 367.088 13.154 366.656 12.722V17.438H363.146ZM382.996 12.002C385.048 12.002 385.75 10.706 385.75 9.95V9.176C385.444 9.302 384.562 9.482 383.554 9.644C381.862 9.932 381.322 10.166 381.322 10.868V10.904C381.322 11.534 381.772 12.002 382.996 12.002ZM385.858 12.614C385.426 13.136 384.346 14.198 382.006 14.198H381.718C378.928 14.198 377.776 12.686 377.776 11.03V10.958C377.776 9.23 378.874 8.168 382.258 7.88L384.994 7.646C385.552 7.592 385.75 7.412 385.75 6.998C385.75 6.53 385.606 6.026 383.662 6.026C381.826 6.026 381.646 6.746 381.646 7.124H378.046V7.088C378.046 6.098 378.442 3.776 383.356 3.776H383.914C388.864 3.776 389.17 5.81 389.17 7.142V10.436C389.17 11.066 389.296 11.318 389.998 11.318H390.376V14H387.532C386.488 14 386.002 13.262 385.858 12.614ZM395.888 14H392.378V4.01H395.888V7.646H400.784V4.01H404.294V14H400.784V10.31H395.888V14ZM413.028 6.08C411.21 6.08 410.526 6.818 410.346 7.862H415.638C415.638 7.124 415.278 6.08 413.028 6.08ZM415.71 10.886H419.364C419.364 11.714 418.716 14.234 413.55 14.234H412.884C407.952 14.234 406.728 11.534 406.728 9.14V8.888C406.728 6.638 407.844 3.794 412.578 3.794H413.37C418.482 3.794 419.4 6.638 419.4 9.428V9.752H410.31C410.454 10.904 411.192 11.84 413.334 11.84C415.368 11.84 415.62 11.048 415.71 10.886ZM425.314 14H421.804V4.01H425.314V7.646H430.21V4.01H433.72V14H430.21V10.31H425.314V14ZM445.064 7.952L440.24 14H436.64V4.01H440.15V10.058L444.974 4.01H448.574V14H445.064V7.952ZM459.917 7.952L455.093 14H451.493V4.01H455.003V10.058L459.827 4.01H463.427V14H459.917V7.952Z" fill="url(#paint2_radial_2018_1226)"/>
<path d="M13.4372 14H0.207248V11.156H5.06725V5.18H1.26925V2.606C4.36525 2.606 5.37325 2.138 5.94925 0.608H8.75725V11.156H13.4372V14ZM19.8078 10.508V14H15.6138V10.508H19.8078ZM40.194 14V5L32.364 14H28.656V0.608H32.364V9.608L40.194 0.608H43.902V14H40.194ZM50.5305 14H47.0205V4.01H50.5305V7.646H55.4265V4.01H58.9365V14H55.4265V10.31H50.5305V14ZM65.3664 14H61.8564V4.01H65.3664V7.646H70.2624V4.01H73.7724V14H70.2624V10.31H65.3664V14ZM82.9564 14.27H82.3984C77.0164 14.27 76.1884 10.994 76.1884 9.176V8.924C76.1884 7.124 77.0164 3.74 82.3804 3.74H82.9744C88.5184 3.74 89.1664 7.142 89.1664 8.906V9.194C89.1664 10.994 88.5184 14.27 82.9564 14.27ZM82.5784 11.642H82.7764C84.9904 11.642 85.5484 10.058 85.5484 8.96C85.5484 7.826 84.9904 6.314 82.7764 6.314H82.5784C80.2744 6.314 79.8064 7.826 79.8064 8.96C79.8064 10.058 80.2744 11.642 82.5784 11.642ZM99.825 14H91.581V4.01H99.465C101.751 4.01 103.191 4.82 103.191 6.404V6.494C103.191 7.736 102.399 8.474 101.193 8.672C102.417 8.816 103.515 9.68 103.515 11.12V11.192C103.515 13.01 102.327 14 99.825 14ZM95.091 7.988H98.313C99.159 7.988 99.591 7.664 99.591 7.034V6.944C99.591 6.368 99.195 6.026 98.313 6.026H95.091V7.988ZM95.091 11.984H98.457C99.393 11.984 99.915 11.678 99.915 10.976V10.832C99.915 10.202 99.483 9.806 98.457 9.806H95.091V11.984ZM110.588 12.002C112.64 12.002 113.342 10.706 113.342 9.95V9.176C113.036 9.302 112.154 9.482 111.146 9.644C109.454 9.932 108.914 10.166 108.914 10.868V10.904C108.914 11.534 109.364 12.002 110.588 12.002ZM113.45 12.614C113.018 13.136 111.938 14.198 109.598 14.198H109.31C106.52 14.198 105.368 12.686 105.368 11.03V10.958C105.368 9.23 106.466 8.168 109.85 7.88L112.586 7.646C113.144 7.592 113.342 7.412 113.342 6.998C113.342 6.53 113.198 6.026 111.254 6.026C109.418 6.026 109.238 6.746 109.238 7.124H105.638V7.088C105.638 6.098 106.034 3.776 110.948 3.776H111.506C116.456 3.776 116.762 5.81 116.762 7.142V10.436C116.762 11.066 116.888 11.318 117.59 11.318H117.968V14H115.124C114.08 14 113.594 13.262 113.45 12.614ZM122.656 14V6.674H118.786V4.01H130.036V6.674H126.166V14H122.656ZM138.204 14.27H137.646C132.264 14.27 131.436 10.994 131.436 9.176V8.924C131.436 7.124 132.264 3.74 137.628 3.74H138.222C143.766 3.74 144.414 7.142 144.414 8.906V9.194C144.414 10.994 143.766 14.27 138.204 14.27ZM137.826 11.642H138.024C140.238 11.642 140.796 10.058 140.796 8.96C140.796 7.826 140.238 6.314 138.024 6.314H137.826C135.522 6.314 135.054 7.826 135.054 8.96C135.054 10.058 135.522 11.642 137.826 11.642ZM156.009 9.014V8.96C156.009 7.88 155.505 6.422 153.309 6.422H153.129C151.023 6.422 150.357 7.808 150.357 8.96V9.014C150.357 10.112 151.023 11.552 153.129 11.552H153.309C155.505 11.552 156.009 10.04 156.009 9.014ZM146.865 17.438V4.01H150.339V5.288C150.771 4.82 152.085 3.812 154.353 3.812H154.587C158.403 3.812 159.645 6.422 159.645 8.798V9.104C159.645 11.282 158.367 14.198 154.569 14.198H154.317C152.031 14.198 150.807 13.154 150.375 12.722V17.438H146.865ZM167.29 14V4.01H176.002V6.674H170.8V14H167.29ZM184.171 14.27H183.613C178.231 14.27 177.403 10.994 177.403 9.176V8.924C177.403 7.124 178.231 3.74 183.595 3.74H184.189C189.733 3.74 190.381 7.142 190.381 8.906V9.194C190.381 10.994 189.733 14.27 184.171 14.27ZM183.793 11.642H183.991C186.205 11.642 186.763 10.058 186.763 8.96C186.763 7.826 186.205 6.314 183.991 6.314H183.793C181.489 6.314 181.021 7.826 181.021 8.96C181.021 10.058 181.489 11.642 183.793 11.642ZM191.704 16.124V11.336H192.91C193.594 9.968 193.702 6.998 193.792 4.01H204.358V11.336H206.158V16.124H202.828V14H195.034V16.124H191.704ZM196.222 11.336H200.848V6.674H196.942C196.888 7.97 196.708 9.95 196.222 11.336ZM212.963 12.002C215.015 12.002 215.717 10.706 215.717 9.95V9.176C215.411 9.302 214.529 9.482 213.521 9.644C211.829 9.932 211.289 10.166 211.289 10.868V10.904C211.289 11.534 211.739 12.002 212.963 12.002ZM215.825 12.614C215.393 13.136 214.313 14.198 211.973 14.198H211.685C208.895 14.198 207.743 12.686 207.743 11.03V10.958C207.743 9.23 208.841 8.168 212.225 7.88L214.961 7.646C215.519 7.592 215.717 7.412 215.717 6.998C215.717 6.53 215.573 6.026 213.629 6.026C211.793 6.026 211.613 6.746 211.613 7.124H208.013V7.088C208.013 6.098 208.409 3.776 213.323 3.776H213.881C218.831 3.776 219.137 5.81 219.137 7.142V10.436C219.137 11.066 219.263 11.318 219.965 11.318H220.343V14H217.499C216.455 14 215.969 13.262 215.825 12.614ZM235.792 14H227.548V4.01H235.432C237.718 4.01 239.158 4.82 239.158 6.404V6.494C239.158 7.736 238.366 8.474 237.16 8.672C238.384 8.816 239.482 9.68 239.482 11.12V11.192C239.482 13.01 238.294 14 235.792 14ZM231.058 7.988H234.28C235.126 7.988 235.558 7.664 235.558 7.034V6.944C235.558 6.368 235.162 6.026 234.28 6.026H231.058V7.988ZM231.058 11.984H234.424C235.36 11.984 235.882 11.678 235.882 10.976V10.832C235.882 10.202 235.45 9.806 234.424 9.806H231.058V11.984ZM258.344 11.048V11.156C258.344 13.154 256.67 14.27 252.836 14.27H252.512C248.408 14.27 246.626 12.74 246.626 10.67V10.526H250.388C250.442 11.642 251.468 12.056 252.692 12.056C254.006 12.056 254.726 11.66 254.726 10.868V10.814C254.726 10.076 254.15 9.896 253.142 9.896H250.766V7.754H253.142C253.916 7.754 254.402 7.448 254.402 6.872V6.818C254.402 6.224 253.808 5.918 252.602 5.918C251.252 5.918 250.532 6.242 250.478 6.944H246.716V6.89C246.716 4.748 249.218 3.74 252.476 3.74H252.764C256.13 3.74 258.02 4.55 258.02 6.422V6.494C258.02 8.006 256.868 8.582 256.04 8.78C257.048 8.978 258.344 9.464 258.344 11.048ZM259.784 16.124V11.336H260.99C261.674 9.968 261.782 6.998 261.872 4.01H272.438V11.336H274.238V16.124H270.908V14H263.114V16.124H259.784ZM264.302 11.336H268.928V6.674H265.022C264.968 7.97 264.788 9.95 264.302 11.336ZM285.507 9.014V8.96C285.507 7.88 285.003 6.422 282.807 6.422H282.627C280.521 6.422 279.855 7.808 279.855 8.96V9.014C279.855 10.112 280.521 11.552 282.627 11.552H282.807C285.003 11.552 285.507 10.04 285.507 9.014ZM276.363 17.438V4.01H279.837V5.288C280.269 4.82 281.583 3.812 283.851 3.812H284.085C287.901 3.812 289.143 6.422 289.143 8.798V9.104C289.143 11.282 287.865 14.198 284.067 14.198H283.815C281.529 14.198 280.305 13.154 279.873 12.722V17.438H276.363ZM296.213 12.002C298.265 12.002 298.967 10.706 298.967 9.95V9.176C298.661 9.302 297.779 9.482 296.771 9.644C295.079 9.932 294.539 10.166 294.539 10.868V10.904C294.539 11.534 294.989 12.002 296.213 12.002ZM299.075 12.614C298.643 13.136 297.563 14.198 295.223 14.198H294.935C292.145 14.198 290.993 12.686 290.993 11.03V10.958C290.993 9.23 292.091 8.168 295.475 7.88L298.211 7.646C298.769 7.592 298.967 7.412 298.967 6.998C298.967 6.53 298.823 6.026 296.879 6.026C295.043 6.026 294.863 6.746 294.863 7.124H291.263V7.088C291.263 6.098 291.659 3.776 296.573 3.776H297.131C302.081 3.776 302.387 5.81 302.387 7.142V10.436C302.387 11.066 302.513 11.318 303.215 11.318H303.593V14H300.749C299.705 14 299.219 13.262 299.075 12.614ZM313.839 14H305.595V4.01H313.479C315.765 4.01 317.205 4.82 317.205 6.404V6.494C317.205 7.736 316.413 8.474 315.207 8.672C316.431 8.816 317.529 9.68 317.529 11.12V11.192C317.529 13.01 316.341 14 313.839 14ZM309.105 7.988H312.327C313.173 7.988 313.605 7.664 313.605 7.034V6.944C313.605 6.368 313.209 6.026 312.327 6.026H309.105V7.988ZM309.105 11.984H312.471C313.407 11.984 313.929 11.678 313.929 10.976V10.832C313.929 10.202 313.497 9.806 312.471 9.806H309.105V11.984ZM326.238 14.27H325.68C320.298 14.27 319.47 10.994 319.47 9.176V8.924C319.47 7.124 320.298 3.74 325.662 3.74H326.256C331.8 3.74 332.448 7.142 332.448 8.906V9.194C332.448 10.994 331.8 14.27 326.238 14.27ZM325.86 11.642H326.058C328.272 11.642 328.83 10.058 328.83 8.96C328.83 7.826 328.272 6.314 326.058 6.314H325.86C323.556 6.314 323.088 7.826 323.088 8.96C323.088 10.058 323.556 11.642 325.86 11.642ZM341.126 14.27H340.568C335.186 14.27 334.358 10.994 334.358 9.176V8.924C334.358 7.124 335.186 3.74 340.55 3.74H341.144C346.688 3.74 347.336 7.142 347.336 8.906V9.194C347.336 10.994 346.688 14.27 341.126 14.27ZM340.748 11.642H340.946C343.16 11.642 343.718 10.058 343.718 8.96C343.718 7.826 343.16 6.314 340.946 6.314H340.748C338.444 6.314 337.976 7.826 337.976 8.96C337.976 10.058 338.444 11.642 340.748 11.642ZM357.567 14L354.885 11.138L352.275 14H348.297L352.779 8.996L348.153 4.01H352.455L355.011 6.8L357.477 4.01H361.347L357.045 8.924L361.617 14H357.567ZM372.29 9.014V8.96C372.29 7.88 371.786 6.422 369.59 6.422H369.41C367.304 6.422 366.638 7.808 366.638 8.96V9.014C366.638 10.112 367.304 11.552 369.41 11.552H369.59C371.786 11.552 372.29 10.04 372.29 9.014ZM363.146 17.438V4.01H366.62V5.288C367.052 4.82 368.366 3.812 370.634 3.812H370.868C374.684 3.812 375.926 6.422 375.926 8.798V9.104C375.926 11.282 374.648 14.198 370.85 14.198H370.598C368.312 14.198 367.088 13.154 366.656 12.722V17.438H363.146ZM382.996 12.002C385.048 12.002 385.75 10.706 385.75 9.95V9.176C385.444 9.302 384.562 9.482 383.554 9.644C381.862 9.932 381.322 10.166 381.322 10.868V10.904C381.322 11.534 381.772 12.002 382.996 12.002ZM385.858 12.614C385.426 13.136 384.346 14.198 382.006 14.198H381.718C378.928 14.198 377.776 12.686 377.776 11.03V10.958C377.776 9.23 378.874 8.168 382.258 7.88L384.994 7.646C385.552 7.592 385.75 7.412 385.75 6.998C385.75 6.53 385.606 6.026 383.662 6.026C381.826 6.026 381.646 6.746 381.646 7.124H378.046V7.088C378.046 6.098 378.442 3.776 383.356 3.776H383.914C388.864 3.776 389.17 5.81 389.17 7.142V10.436C389.17 11.066 389.296 11.318 389.998 11.318H390.376V14H387.532C386.488 14 386.002 13.262 385.858 12.614ZM395.888 14H392.378V4.01H395.888V7.646H400.784V4.01H404.294V14H400.784V10.31H395.888V14ZM413.028 6.08C411.21 6.08 410.526 6.818 410.346 7.862H415.638C415.638 7.124 415.278 6.08 413.028 6.08ZM415.71 10.886H419.364C419.364 11.714 418.716 14.234 413.55 14.234H412.884C407.952 14.234 406.728 11.534 406.728 9.14V8.888C406.728 6.638 407.844 3.794 412.578 3.794H413.37C418.482 3.794 419.4 6.638 419.4 9.428V9.752H410.31C410.454 10.904 411.192 11.84 413.334 11.84C415.368 11.84 415.62 11.048 415.71 10.886ZM425.314 14H421.804V4.01H425.314V7.646H430.21V4.01H433.72V14H430.21V10.31H425.314V14ZM445.064 7.952L440.24 14H436.64V4.01H440.15V10.058L444.974 4.01H448.574V14H445.064V7.952ZM459.917 7.952L455.093 14H451.493V4.01H455.003V10.058L459.827 4.01H463.427V14H459.917V7.952Z" fill="#C1A875" style="mix-blend-mode:color"/>
<defs>
<linearGradient id="paint0_linear_2018_1226" x1="1.73226e-06" y1="6" x2="465" y2="6.00005" gradientUnits="userSpaceOnUse">
<stop stop-color="#576167"/>
<stop offset="0.191294" stop-color="#9EA1A2"/>
<stop offset="0.396166" stop-color="#848989"/>
<stop offset="0.62055" stop-color="#576167"/>
<stop offset="0.830299" stop-color="#757A7C"/>
<stop offset="1" stop-color="#576167"/>
</linearGradient>
<radialGradient id="paint1_radial_2018_1226" cx="0" cy="0" r="1" gradientUnits="userSpaceOnUse" gradientTransform="translate(247.636 -3.20225) rotate(89.9999) scale(17.8315 351.788)">
<stop stop-color="white"/>
<stop offset="1" stop-color="white" stop-opacity="0"/>
</radialGradient>
<radialGradient id="paint2_radial_2018_1226" cx="0" cy="0" r="1" gradientUnits="userSpaceOnUse" gradientTransform="translate(273.938 23.6629) rotate(-88.3312) scale(25.5614 502.835)">
<stop stop-color="white"/>
<stop offset="1" stop-color="white" stop-opacity="0"/>
</radialGradient>
</defs>
</svg>
