<svg width="364" height="18" viewBox="0 0 364 18" fill="none" xmlns="http://www.w3.org/2000/svg">
<path d="M4.05 5.342H0.864V2.624C3.564 2.624 4.392 2.228 4.968 0.608H7.74V14H4.05V5.342ZM18.061 0.391999H18.817C25.099 0.391999 26.305 4.622 26.305 6.998V7.538C26.305 9.878 25.063 14.216 18.817 14.216H18.061C11.797 14.216 10.573 9.878 10.573 7.538V6.998C10.573 4.568 11.797 0.391999 18.061 0.391999ZM22.453 7.376V7.124C22.453 5.918 21.949 3.452 18.439 3.452C14.893 3.452 14.425 5.918 14.425 7.124V7.376C14.425 8.6 15.001 11.138 18.457 11.138C21.913 11.138 22.453 8.6 22.453 7.376ZM32.4523 10.508V14H28.2583V10.508H32.4523ZM52.0417 14V5L44.2117 14H40.5037V0.608H44.2117V9.608L52.0417 0.608H55.7497V14H52.0417ZM62.3782 14H58.8682V4.01H62.3782V7.646H67.2742V4.01H70.7842V14H67.2742V10.31H62.3782V14ZM77.2141 14H73.7041V4.01H77.2141V7.646H82.1101V4.01H85.6201V14H82.1101V10.31H77.2141V14ZM94.804 14.27H94.246C88.864 14.27 88.036 10.994 88.036 9.176V8.924C88.036 7.124 88.864 3.74 94.228 3.74H94.822C100.366 3.74 101.014 7.142 101.014 8.906V9.194C101.014 10.994 100.366 14.27 94.804 14.27ZM94.426 11.642H94.624C96.838 11.642 97.396 10.058 97.396 8.96C97.396 7.826 96.838 6.314 94.624 6.314H94.426C92.122 6.314 91.654 7.826 91.654 8.96C91.654 10.058 92.122 11.642 94.426 11.642ZM111.673 14H103.429V4.01H111.313C113.599 4.01 115.039 4.82 115.039 6.404V6.494C115.039 7.736 114.247 8.474 113.041 8.672C114.265 8.816 115.363 9.68 115.363 11.12V11.192C115.363 13.01 114.175 14 111.673 14ZM106.939 7.988H110.161C111.007 7.988 111.439 7.664 111.439 7.034V6.944C111.439 6.368 111.043 6.026 110.161 6.026H106.939V7.988ZM106.939 11.984H110.305C111.241 11.984 111.763 11.678 111.763 10.976V10.832C111.763 10.202 111.331 9.806 110.305 9.806H106.939V11.984ZM122.436 12.002C124.488 12.002 125.19 10.706 125.19 9.95V9.176C124.884 9.302 124.002 9.482 122.994 9.644C121.302 9.932 120.762 10.166 120.762 10.868V10.904C120.762 11.534 121.212 12.002 122.436 12.002ZM125.298 12.614C124.866 13.136 123.786 14.198 121.446 14.198H121.158C118.368 14.198 117.216 12.686 117.216 11.03V10.958C117.216 9.23 118.314 8.168 121.698 7.88L124.434 7.646C124.992 7.592 125.19 7.412 125.19 6.998C125.19 6.53 125.046 6.026 123.102 6.026C121.266 6.026 121.086 6.746 121.086 7.124H117.486V7.088C117.486 6.098 117.882 3.776 122.796 3.776H123.354C128.304 3.776 128.61 5.81 128.61 7.142V10.436C128.61 11.066 128.736 11.318 129.438 11.318H129.816V14H126.972C125.928 14 125.442 13.262 125.298 12.614ZM145.173 11.336V16.124H141.843V14H131.817V4.01H135.327V11.336H139.863V4.01H143.373V11.336H145.173ZM155.693 7.952L150.869 14H147.269V4.01H150.779V10.058L155.603 4.01H159.203V14H155.693V7.952ZM170.528 10.652H168.17L165.254 14H161.294L164.552 10.274C162.824 9.932 161.834 8.942 161.834 7.43V7.214C161.834 5.396 163.31 4.01 165.812 4.01H174.038V14H170.528V10.652ZM170.528 6.314H166.766C165.992 6.314 165.344 6.494 165.344 7.286V7.358C165.344 8.132 166.01 8.366 166.784 8.366H170.528V6.314ZM190.405 14H182.161V4.01H190.045C192.331 4.01 193.771 4.82 193.771 6.404V6.494C193.771 7.736 192.979 8.474 191.773 8.672C192.997 8.816 194.095 9.68 194.095 11.12V11.192C194.095 13.01 192.907 14 190.405 14ZM185.671 7.988H188.893C189.739 7.988 190.171 7.664 190.171 7.034V6.944C190.171 6.368 189.775 6.026 188.893 6.026H185.671V7.988ZM185.671 11.984H189.037C189.973 11.984 190.495 11.678 190.495 10.976V10.832C190.495 10.202 190.063 9.806 189.037 9.806H185.671V11.984ZM209.393 0.391999H210.185C216.449 0.391999 218.231 4.064 218.231 6.998V7.538C218.231 10.418 216.449 14.216 210.185 14.216H209.393C203.129 14.216 201.347 10.418 201.347 7.538V6.998C201.347 4.082 203.129 0.391999 209.393 0.391999ZM214.379 7.394V7.142C214.379 5.486 213.569 3.452 209.789 3.452C206.045 3.452 205.199 5.486 205.199 7.142V7.394C205.199 9.014 206.099 11.138 209.789 11.138C213.551 11.138 214.379 9.014 214.379 7.394ZM233.219 9.122V9.356C233.219 13.1 230.375 14.27 226.973 14.27H226.613C223.103 14.27 220.241 12.902 220.241 8.15V7.088C220.241 2.282 222.635 0.698 227.315 0.698H228.125C229.241 0.698 229.313 0.589999 229.349 0.373999H232.787C232.787 2.48 231.995 3.362 229.547 3.362H227.315C224.723 3.362 223.733 4.172 223.679 5.99C224.597 5.036 226.001 4.388 228.215 4.388H228.323C230.699 4.388 233.219 5.594 233.219 9.122ZM226.649 11.642H226.847C228.431 11.642 229.601 10.85 229.601 9.212C229.601 7.628 228.413 6.854 226.865 6.854H226.649C224.921 6.854 223.859 7.592 223.859 9.23C223.859 10.886 224.939 11.642 226.649 11.642ZM244.814 9.014V8.96C244.814 7.88 244.31 6.422 242.114 6.422H241.934C239.828 6.422 239.162 7.808 239.162 8.96V9.014C239.162 10.112 239.828 11.552 241.934 11.552H242.114C244.31 11.552 244.814 10.04 244.814 9.014ZM235.67 17.438V4.01H239.144V5.288C239.576 4.82 240.89 3.812 243.158 3.812H243.392C247.208 3.812 248.45 6.422 248.45 8.798V9.104C248.45 11.282 247.172 14.198 243.374 14.198H243.122C240.836 14.198 239.612 13.154 239.18 12.722V17.438H235.67ZM255.52 12.002C257.572 12.002 258.274 10.706 258.274 9.95V9.176C257.968 9.302 257.086 9.482 256.078 9.644C254.386 9.932 253.846 10.166 253.846 10.868V10.904C253.846 11.534 254.296 12.002 255.52 12.002ZM258.382 12.614C257.95 13.136 256.87 14.198 254.53 14.198H254.242C251.452 14.198 250.3 12.686 250.3 11.03V10.958C250.3 9.23 251.398 8.168 254.782 7.88L257.518 7.646C258.076 7.592 258.274 7.412 258.274 6.998C258.274 6.53 258.13 6.026 256.186 6.026C254.35 6.026 254.17 6.746 254.17 7.124H250.57V7.088C250.57 6.098 250.966 3.776 255.88 3.776H256.438C261.388 3.776 261.694 5.81 261.694 7.142V10.436C261.694 11.066 261.82 11.318 262.522 11.318H262.9V14H260.056C259.012 14 258.526 13.262 258.382 12.614ZM276.115 11.048V11.156C276.115 13.154 274.441 14.27 270.607 14.27H270.283C266.179 14.27 264.397 12.74 264.397 10.67V10.526H268.159C268.213 11.642 269.239 12.056 270.463 12.056C271.777 12.056 272.497 11.66 272.497 10.868V10.814C272.497 10.076 271.921 9.896 270.913 9.896H268.537V7.754H270.913C271.687 7.754 272.173 7.448 272.173 6.872V6.818C272.173 6.224 271.579 5.918 270.373 5.918C269.023 5.918 268.303 6.242 268.249 6.944H264.487V6.89C264.487 4.748 266.989 3.74 270.247 3.74H270.535C273.901 3.74 275.791 4.55 275.791 6.422V6.494C275.791 8.006 274.639 8.582 273.811 8.78C274.819 8.978 276.115 9.464 276.115 11.048ZM284.824 14.27H284.266C278.884 14.27 278.056 10.994 278.056 9.176V8.924C278.056 7.124 278.884 3.74 284.248 3.74H284.842C290.386 3.74 291.034 7.142 291.034 8.906V9.194C291.034 10.994 290.386 14.27 284.824 14.27ZM284.446 11.642H284.644C286.858 11.642 287.416 10.058 287.416 8.96C287.416 7.826 286.858 6.314 284.644 6.314H284.446C282.142 6.314 281.674 7.826 281.674 8.96C281.674 10.058 282.142 11.642 284.446 11.642ZM301.692 14H293.448V4.01H301.332C303.618 4.01 305.058 4.82 305.058 6.404V6.494C305.058 7.736 304.266 8.474 303.06 8.672C304.284 8.816 305.382 9.68 305.382 11.12V11.192C305.382 13.01 304.194 14 301.692 14ZM296.958 7.988H300.18C301.026 7.988 301.458 7.664 301.458 7.034V6.944C301.458 6.368 301.062 6.026 300.18 6.026H296.958V7.988ZM296.958 11.984H300.324C301.26 11.984 301.782 11.678 301.782 10.976V10.832C301.782 10.202 301.35 9.806 300.324 9.806H296.958V11.984ZM312.455 12.002C314.507 12.002 315.209 10.706 315.209 9.95V9.176C314.903 9.302 314.021 9.482 313.013 9.644C311.321 9.932 310.781 10.166 310.781 10.868V10.904C310.781 11.534 311.231 12.002 312.455 12.002ZM315.317 12.614C314.885 13.136 313.805 14.198 311.465 14.198H311.177C308.387 14.198 307.235 12.686 307.235 11.03V10.958C307.235 9.23 308.333 8.168 311.717 7.88L314.453 7.646C315.011 7.592 315.209 7.412 315.209 6.998C315.209 6.53 315.065 6.026 313.121 6.026C311.285 6.026 311.105 6.746 311.105 7.124H307.505V7.088C307.505 6.098 307.901 3.776 312.815 3.776H313.373C318.323 3.776 318.629 5.81 318.629 7.142V10.436C318.629 11.066 318.755 11.318 319.457 11.318H319.835V14H316.991C315.947 14 315.461 13.262 315.317 12.614ZM325.347 14H321.837V4.01H325.347V7.646H330.243V4.01H333.753V14H330.243V10.31H325.347V14ZM345.097 7.952L340.273 14H336.673V4.01H340.183V10.058L345.007 4.01H348.607V14H345.097V7.952ZM359.95 7.952L355.126 14H351.526V4.01H355.036V10.058L359.86 4.01H363.46V14H359.95V7.952Z" fill="url(#paint0_linear_2018_1290)"/>
<path d="M4.05 5.342H0.864V2.624C3.564 2.624 4.392 2.228 4.968 0.608H7.74V14H4.05V5.342ZM18.061 0.391999H18.817C25.099 0.391999 26.305 4.622 26.305 6.998V7.538C26.305 9.878 25.063 14.216 18.817 14.216H18.061C11.797 14.216 10.573 9.878 10.573 7.538V6.998C10.573 4.568 11.797 0.391999 18.061 0.391999ZM22.453 7.376V7.124C22.453 5.918 21.949 3.452 18.439 3.452C14.893 3.452 14.425 5.918 14.425 7.124V7.376C14.425 8.6 15.001 11.138 18.457 11.138C21.913 11.138 22.453 8.6 22.453 7.376ZM32.4523 10.508V14H28.2583V10.508H32.4523ZM52.0417 14V5L44.2117 14H40.5037V0.608H44.2117V9.608L52.0417 0.608H55.7497V14H52.0417ZM62.3782 14H58.8682V4.01H62.3782V7.646H67.2742V4.01H70.7842V14H67.2742V10.31H62.3782V14ZM77.2141 14H73.7041V4.01H77.2141V7.646H82.1101V4.01H85.6201V14H82.1101V10.31H77.2141V14ZM94.804 14.27H94.246C88.864 14.27 88.036 10.994 88.036 9.176V8.924C88.036 7.124 88.864 3.74 94.228 3.74H94.822C100.366 3.74 101.014 7.142 101.014 8.906V9.194C101.014 10.994 100.366 14.27 94.804 14.27ZM94.426 11.642H94.624C96.838 11.642 97.396 10.058 97.396 8.96C97.396 7.826 96.838 6.314 94.624 6.314H94.426C92.122 6.314 91.654 7.826 91.654 8.96C91.654 10.058 92.122 11.642 94.426 11.642ZM111.673 14H103.429V4.01H111.313C113.599 4.01 115.039 4.82 115.039 6.404V6.494C115.039 7.736 114.247 8.474 113.041 8.672C114.265 8.816 115.363 9.68 115.363 11.12V11.192C115.363 13.01 114.175 14 111.673 14ZM106.939 7.988H110.161C111.007 7.988 111.439 7.664 111.439 7.034V6.944C111.439 6.368 111.043 6.026 110.161 6.026H106.939V7.988ZM106.939 11.984H110.305C111.241 11.984 111.763 11.678 111.763 10.976V10.832C111.763 10.202 111.331 9.806 110.305 9.806H106.939V11.984ZM122.436 12.002C124.488 12.002 125.19 10.706 125.19 9.95V9.176C124.884 9.302 124.002 9.482 122.994 9.644C121.302 9.932 120.762 10.166 120.762 10.868V10.904C120.762 11.534 121.212 12.002 122.436 12.002ZM125.298 12.614C124.866 13.136 123.786 14.198 121.446 14.198H121.158C118.368 14.198 117.216 12.686 117.216 11.03V10.958C117.216 9.23 118.314 8.168 121.698 7.88L124.434 7.646C124.992 7.592 125.19 7.412 125.19 6.998C125.19 6.53 125.046 6.026 123.102 6.026C121.266 6.026 121.086 6.746 121.086 7.124H117.486V7.088C117.486 6.098 117.882 3.776 122.796 3.776H123.354C128.304 3.776 128.61 5.81 128.61 7.142V10.436C128.61 11.066 128.736 11.318 129.438 11.318H129.816V14H126.972C125.928 14 125.442 13.262 125.298 12.614ZM145.173 11.336V16.124H141.843V14H131.817V4.01H135.327V11.336H139.863V4.01H143.373V11.336H145.173ZM155.693 7.952L150.869 14H147.269V4.01H150.779V10.058L155.603 4.01H159.203V14H155.693V7.952ZM170.528 10.652H168.17L165.254 14H161.294L164.552 10.274C162.824 9.932 161.834 8.942 161.834 7.43V7.214C161.834 5.396 163.31 4.01 165.812 4.01H174.038V14H170.528V10.652ZM170.528 6.314H166.766C165.992 6.314 165.344 6.494 165.344 7.286V7.358C165.344 8.132 166.01 8.366 166.784 8.366H170.528V6.314ZM190.405 14H182.161V4.01H190.045C192.331 4.01 193.771 4.82 193.771 6.404V6.494C193.771 7.736 192.979 8.474 191.773 8.672C192.997 8.816 194.095 9.68 194.095 11.12V11.192C194.095 13.01 192.907 14 190.405 14ZM185.671 7.988H188.893C189.739 7.988 190.171 7.664 190.171 7.034V6.944C190.171 6.368 189.775 6.026 188.893 6.026H185.671V7.988ZM185.671 11.984H189.037C189.973 11.984 190.495 11.678 190.495 10.976V10.832C190.495 10.202 190.063 9.806 189.037 9.806H185.671V11.984ZM209.393 0.391999H210.185C216.449 0.391999 218.231 4.064 218.231 6.998V7.538C218.231 10.418 216.449 14.216 210.185 14.216H209.393C203.129 14.216 201.347 10.418 201.347 7.538V6.998C201.347 4.082 203.129 0.391999 209.393 0.391999ZM214.379 7.394V7.142C214.379 5.486 213.569 3.452 209.789 3.452C206.045 3.452 205.199 5.486 205.199 7.142V7.394C205.199 9.014 206.099 11.138 209.789 11.138C213.551 11.138 214.379 9.014 214.379 7.394ZM233.219 9.122V9.356C233.219 13.1 230.375 14.27 226.973 14.27H226.613C223.103 14.27 220.241 12.902 220.241 8.15V7.088C220.241 2.282 222.635 0.698 227.315 0.698H228.125C229.241 0.698 229.313 0.589999 229.349 0.373999H232.787C232.787 2.48 231.995 3.362 229.547 3.362H227.315C224.723 3.362 223.733 4.172 223.679 5.99C224.597 5.036 226.001 4.388 228.215 4.388H228.323C230.699 4.388 233.219 5.594 233.219 9.122ZM226.649 11.642H226.847C228.431 11.642 229.601 10.85 229.601 9.212C229.601 7.628 228.413 6.854 226.865 6.854H226.649C224.921 6.854 223.859 7.592 223.859 9.23C223.859 10.886 224.939 11.642 226.649 11.642ZM244.814 9.014V8.96C244.814 7.88 244.31 6.422 242.114 6.422H241.934C239.828 6.422 239.162 7.808 239.162 8.96V9.014C239.162 10.112 239.828 11.552 241.934 11.552H242.114C244.31 11.552 244.814 10.04 244.814 9.014ZM235.67 17.438V4.01H239.144V5.288C239.576 4.82 240.89 3.812 243.158 3.812H243.392C247.208 3.812 248.45 6.422 248.45 8.798V9.104C248.45 11.282 247.172 14.198 243.374 14.198H243.122C240.836 14.198 239.612 13.154 239.18 12.722V17.438H235.67ZM255.52 12.002C257.572 12.002 258.274 10.706 258.274 9.95V9.176C257.968 9.302 257.086 9.482 256.078 9.644C254.386 9.932 253.846 10.166 253.846 10.868V10.904C253.846 11.534 254.296 12.002 255.52 12.002ZM258.382 12.614C257.95 13.136 256.87 14.198 254.53 14.198H254.242C251.452 14.198 250.3 12.686 250.3 11.03V10.958C250.3 9.23 251.398 8.168 254.782 7.88L257.518 7.646C258.076 7.592 258.274 7.412 258.274 6.998C258.274 6.53 258.13 6.026 256.186 6.026C254.35 6.026 254.17 6.746 254.17 7.124H250.57V7.088C250.57 6.098 250.966 3.776 255.88 3.776H256.438C261.388 3.776 261.694 5.81 261.694 7.142V10.436C261.694 11.066 261.82 11.318 262.522 11.318H262.9V14H260.056C259.012 14 258.526 13.262 258.382 12.614ZM276.115 11.048V11.156C276.115 13.154 274.441 14.27 270.607 14.27H270.283C266.179 14.27 264.397 12.74 264.397 10.67V10.526H268.159C268.213 11.642 269.239 12.056 270.463 12.056C271.777 12.056 272.497 11.66 272.497 10.868V10.814C272.497 10.076 271.921 9.896 270.913 9.896H268.537V7.754H270.913C271.687 7.754 272.173 7.448 272.173 6.872V6.818C272.173 6.224 271.579 5.918 270.373 5.918C269.023 5.918 268.303 6.242 268.249 6.944H264.487V6.89C264.487 4.748 266.989 3.74 270.247 3.74H270.535C273.901 3.74 275.791 4.55 275.791 6.422V6.494C275.791 8.006 274.639 8.582 273.811 8.78C274.819 8.978 276.115 9.464 276.115 11.048ZM284.824 14.27H284.266C278.884 14.27 278.056 10.994 278.056 9.176V8.924C278.056 7.124 278.884 3.74 284.248 3.74H284.842C290.386 3.74 291.034 7.142 291.034 8.906V9.194C291.034 10.994 290.386 14.27 284.824 14.27ZM284.446 11.642H284.644C286.858 11.642 287.416 10.058 287.416 8.96C287.416 7.826 286.858 6.314 284.644 6.314H284.446C282.142 6.314 281.674 7.826 281.674 8.96C281.674 10.058 282.142 11.642 284.446 11.642ZM301.692 14H293.448V4.01H301.332C303.618 4.01 305.058 4.82 305.058 6.404V6.494C305.058 7.736 304.266 8.474 303.06 8.672C304.284 8.816 305.382 9.68 305.382 11.12V11.192C305.382 13.01 304.194 14 301.692 14ZM296.958 7.988H300.18C301.026 7.988 301.458 7.664 301.458 7.034V6.944C301.458 6.368 301.062 6.026 300.18 6.026H296.958V7.988ZM296.958 11.984H300.324C301.26 11.984 301.782 11.678 301.782 10.976V10.832C301.782 10.202 301.35 9.806 300.324 9.806H296.958V11.984ZM312.455 12.002C314.507 12.002 315.209 10.706 315.209 9.95V9.176C314.903 9.302 314.021 9.482 313.013 9.644C311.321 9.932 310.781 10.166 310.781 10.868V10.904C310.781 11.534 311.231 12.002 312.455 12.002ZM315.317 12.614C314.885 13.136 313.805 14.198 311.465 14.198H311.177C308.387 14.198 307.235 12.686 307.235 11.03V10.958C307.235 9.23 308.333 8.168 311.717 7.88L314.453 7.646C315.011 7.592 315.209 7.412 315.209 6.998C315.209 6.53 315.065 6.026 313.121 6.026C311.285 6.026 311.105 6.746 311.105 7.124H307.505V7.088C307.505 6.098 307.901 3.776 312.815 3.776H313.373C318.323 3.776 318.629 5.81 318.629 7.142V10.436C318.629 11.066 318.755 11.318 319.457 11.318H319.835V14H316.991C315.947 14 315.461 13.262 315.317 12.614ZM325.347 14H321.837V4.01H325.347V7.646H330.243V4.01H333.753V14H330.243V10.31H325.347V14ZM345.097 7.952L340.273 14H336.673V4.01H340.183V10.058L345.007 4.01H348.607V14H345.097V7.952ZM359.95 7.952L355.126 14H351.526V4.01H355.036V10.058L359.86 4.01H363.46V14H359.95V7.952Z" fill="url(#paint1_radial_2018_1290)" style="mix-blend-mode:overlay"/>
<path d="M4.05 5.342H0.864V2.624C3.564 2.624 4.392 2.228 4.968 0.608H7.74V14H4.05V5.342ZM18.061 0.391999H18.817C25.099 0.391999 26.305 4.622 26.305 6.998V7.538C26.305 9.878 25.063 14.216 18.817 14.216H18.061C11.797 14.216 10.573 9.878 10.573 7.538V6.998C10.573 4.568 11.797 0.391999 18.061 0.391999ZM22.453 7.376V7.124C22.453 5.918 21.949 3.452 18.439 3.452C14.893 3.452 14.425 5.918 14.425 7.124V7.376C14.425 8.6 15.001 11.138 18.457 11.138C21.913 11.138 22.453 8.6 22.453 7.376ZM32.4523 10.508V14H28.2583V10.508H32.4523ZM52.0417 14V5L44.2117 14H40.5037V0.608H44.2117V9.608L52.0417 0.608H55.7497V14H52.0417ZM62.3782 14H58.8682V4.01H62.3782V7.646H67.2742V4.01H70.7842V14H67.2742V10.31H62.3782V14ZM77.2141 14H73.7041V4.01H77.2141V7.646H82.1101V4.01H85.6201V14H82.1101V10.31H77.2141V14ZM94.804 14.27H94.246C88.864 14.27 88.036 10.994 88.036 9.176V8.924C88.036 7.124 88.864 3.74 94.228 3.74H94.822C100.366 3.74 101.014 7.142 101.014 8.906V9.194C101.014 10.994 100.366 14.27 94.804 14.27ZM94.426 11.642H94.624C96.838 11.642 97.396 10.058 97.396 8.96C97.396 7.826 96.838 6.314 94.624 6.314H94.426C92.122 6.314 91.654 7.826 91.654 8.96C91.654 10.058 92.122 11.642 94.426 11.642ZM111.673 14H103.429V4.01H111.313C113.599 4.01 115.039 4.82 115.039 6.404V6.494C115.039 7.736 114.247 8.474 113.041 8.672C114.265 8.816 115.363 9.68 115.363 11.12V11.192C115.363 13.01 114.175 14 111.673 14ZM106.939 7.988H110.161C111.007 7.988 111.439 7.664 111.439 7.034V6.944C111.439 6.368 111.043 6.026 110.161 6.026H106.939V7.988ZM106.939 11.984H110.305C111.241 11.984 111.763 11.678 111.763 10.976V10.832C111.763 10.202 111.331 9.806 110.305 9.806H106.939V11.984ZM122.436 12.002C124.488 12.002 125.19 10.706 125.19 9.95V9.176C124.884 9.302 124.002 9.482 122.994 9.644C121.302 9.932 120.762 10.166 120.762 10.868V10.904C120.762 11.534 121.212 12.002 122.436 12.002ZM125.298 12.614C124.866 13.136 123.786 14.198 121.446 14.198H121.158C118.368 14.198 117.216 12.686 117.216 11.03V10.958C117.216 9.23 118.314 8.168 121.698 7.88L124.434 7.646C124.992 7.592 125.19 7.412 125.19 6.998C125.19 6.53 125.046 6.026 123.102 6.026C121.266 6.026 121.086 6.746 121.086 7.124H117.486V7.088C117.486 6.098 117.882 3.776 122.796 3.776H123.354C128.304 3.776 128.61 5.81 128.61 7.142V10.436C128.61 11.066 128.736 11.318 129.438 11.318H129.816V14H126.972C125.928 14 125.442 13.262 125.298 12.614ZM145.173 11.336V16.124H141.843V14H131.817V4.01H135.327V11.336H139.863V4.01H143.373V11.336H145.173ZM155.693 7.952L150.869 14H147.269V4.01H150.779V10.058L155.603 4.01H159.203V14H155.693V7.952ZM170.528 10.652H168.17L165.254 14H161.294L164.552 10.274C162.824 9.932 161.834 8.942 161.834 7.43V7.214C161.834 5.396 163.31 4.01 165.812 4.01H174.038V14H170.528V10.652ZM170.528 6.314H166.766C165.992 6.314 165.344 6.494 165.344 7.286V7.358C165.344 8.132 166.01 8.366 166.784 8.366H170.528V6.314ZM190.405 14H182.161V4.01H190.045C192.331 4.01 193.771 4.82 193.771 6.404V6.494C193.771 7.736 192.979 8.474 191.773 8.672C192.997 8.816 194.095 9.68 194.095 11.12V11.192C194.095 13.01 192.907 14 190.405 14ZM185.671 7.988H188.893C189.739 7.988 190.171 7.664 190.171 7.034V6.944C190.171 6.368 189.775 6.026 188.893 6.026H185.671V7.988ZM185.671 11.984H189.037C189.973 11.984 190.495 11.678 190.495 10.976V10.832C190.495 10.202 190.063 9.806 189.037 9.806H185.671V11.984ZM209.393 0.391999H210.185C216.449 0.391999 218.231 4.064 218.231 6.998V7.538C218.231 10.418 216.449 14.216 210.185 14.216H209.393C203.129 14.216 201.347 10.418 201.347 7.538V6.998C201.347 4.082 203.129 0.391999 209.393 0.391999ZM214.379 7.394V7.142C214.379 5.486 213.569 3.452 209.789 3.452C206.045 3.452 205.199 5.486 205.199 7.142V7.394C205.199 9.014 206.099 11.138 209.789 11.138C213.551 11.138 214.379 9.014 214.379 7.394ZM233.219 9.122V9.356C233.219 13.1 230.375 14.27 226.973 14.27H226.613C223.103 14.27 220.241 12.902 220.241 8.15V7.088C220.241 2.282 222.635 0.698 227.315 0.698H228.125C229.241 0.698 229.313 0.589999 229.349 0.373999H232.787C232.787 2.48 231.995 3.362 229.547 3.362H227.315C224.723 3.362 223.733 4.172 223.679 5.99C224.597 5.036 226.001 4.388 228.215 4.388H228.323C230.699 4.388 233.219 5.594 233.219 9.122ZM226.649 11.642H226.847C228.431 11.642 229.601 10.85 229.601 9.212C229.601 7.628 228.413 6.854 226.865 6.854H226.649C224.921 6.854 223.859 7.592 223.859 9.23C223.859 10.886 224.939 11.642 226.649 11.642ZM244.814 9.014V8.96C244.814 7.88 244.31 6.422 242.114 6.422H241.934C239.828 6.422 239.162 7.808 239.162 8.96V9.014C239.162 10.112 239.828 11.552 241.934 11.552H242.114C244.31 11.552 244.814 10.04 244.814 9.014ZM235.67 17.438V4.01H239.144V5.288C239.576 4.82 240.89 3.812 243.158 3.812H243.392C247.208 3.812 248.45 6.422 248.45 8.798V9.104C248.45 11.282 247.172 14.198 243.374 14.198H243.122C240.836 14.198 239.612 13.154 239.18 12.722V17.438H235.67ZM255.52 12.002C257.572 12.002 258.274 10.706 258.274 9.95V9.176C257.968 9.302 257.086 9.482 256.078 9.644C254.386 9.932 253.846 10.166 253.846 10.868V10.904C253.846 11.534 254.296 12.002 255.52 12.002ZM258.382 12.614C257.95 13.136 256.87 14.198 254.53 14.198H254.242C251.452 14.198 250.3 12.686 250.3 11.03V10.958C250.3 9.23 251.398 8.168 254.782 7.88L257.518 7.646C258.076 7.592 258.274 7.412 258.274 6.998C258.274 6.53 258.13 6.026 256.186 6.026C254.35 6.026 254.17 6.746 254.17 7.124H250.57V7.088C250.57 6.098 250.966 3.776 255.88 3.776H256.438C261.388 3.776 261.694 5.81 261.694 7.142V10.436C261.694 11.066 261.82 11.318 262.522 11.318H262.9V14H260.056C259.012 14 258.526 13.262 258.382 12.614ZM276.115 11.048V11.156C276.115 13.154 274.441 14.27 270.607 14.27H270.283C266.179 14.27 264.397 12.74 264.397 10.67V10.526H268.159C268.213 11.642 269.239 12.056 270.463 12.056C271.777 12.056 272.497 11.66 272.497 10.868V10.814C272.497 10.076 271.921 9.896 270.913 9.896H268.537V7.754H270.913C271.687 7.754 272.173 7.448 272.173 6.872V6.818C272.173 6.224 271.579 5.918 270.373 5.918C269.023 5.918 268.303 6.242 268.249 6.944H264.487V6.89C264.487 4.748 266.989 3.74 270.247 3.74H270.535C273.901 3.74 275.791 4.55 275.791 6.422V6.494C275.791 8.006 274.639 8.582 273.811 8.78C274.819 8.978 276.115 9.464 276.115 11.048ZM284.824 14.27H284.266C278.884 14.27 278.056 10.994 278.056 9.176V8.924C278.056 7.124 278.884 3.74 284.248 3.74H284.842C290.386 3.74 291.034 7.142 291.034 8.906V9.194C291.034 10.994 290.386 14.27 284.824 14.27ZM284.446 11.642H284.644C286.858 11.642 287.416 10.058 287.416 8.96C287.416 7.826 286.858 6.314 284.644 6.314H284.446C282.142 6.314 281.674 7.826 281.674 8.96C281.674 10.058 282.142 11.642 284.446 11.642ZM301.692 14H293.448V4.01H301.332C303.618 4.01 305.058 4.82 305.058 6.404V6.494C305.058 7.736 304.266 8.474 303.06 8.672C304.284 8.816 305.382 9.68 305.382 11.12V11.192C305.382 13.01 304.194 14 301.692 14ZM296.958 7.988H300.18C301.026 7.988 301.458 7.664 301.458 7.034V6.944C301.458 6.368 301.062 6.026 300.18 6.026H296.958V7.988ZM296.958 11.984H300.324C301.26 11.984 301.782 11.678 301.782 10.976V10.832C301.782 10.202 301.35 9.806 300.324 9.806H296.958V11.984ZM312.455 12.002C314.507 12.002 315.209 10.706 315.209 9.95V9.176C314.903 9.302 314.021 9.482 313.013 9.644C311.321 9.932 310.781 10.166 310.781 10.868V10.904C310.781 11.534 311.231 12.002 312.455 12.002ZM315.317 12.614C314.885 13.136 313.805 14.198 311.465 14.198H311.177C308.387 14.198 307.235 12.686 307.235 11.03V10.958C307.235 9.23 308.333 8.168 311.717 7.88L314.453 7.646C315.011 7.592 315.209 7.412 315.209 6.998C315.209 6.53 315.065 6.026 313.121 6.026C311.285 6.026 311.105 6.746 311.105 7.124H307.505V7.088C307.505 6.098 307.901 3.776 312.815 3.776H313.373C318.323 3.776 318.629 5.81 318.629 7.142V10.436C318.629 11.066 318.755 11.318 319.457 11.318H319.835V14H316.991C315.947 14 315.461 13.262 315.317 12.614ZM325.347 14H321.837V4.01H325.347V7.646H330.243V4.01H333.753V14H330.243V10.31H325.347V14ZM345.097 7.952L340.273 14H336.673V4.01H340.183V10.058L345.007 4.01H348.607V14H345.097V7.952ZM359.95 7.952L355.126 14H351.526V4.01H355.036V10.058L359.86 4.01H363.46V14H359.95V7.952Z" fill="url(#paint2_radial_2018_1290)"/>
<path d="M4.05 5.342H0.864V2.624C3.564 2.624 4.392 2.228 4.968 0.608H7.74V14H4.05V5.342ZM18.061 0.391999H18.817C25.099 0.391999 26.305 4.622 26.305 6.998V7.538C26.305 9.878 25.063 14.216 18.817 14.216H18.061C11.797 14.216 10.573 9.878 10.573 7.538V6.998C10.573 4.568 11.797 0.391999 18.061 0.391999ZM22.453 7.376V7.124C22.453 5.918 21.949 3.452 18.439 3.452C14.893 3.452 14.425 5.918 14.425 7.124V7.376C14.425 8.6 15.001 11.138 18.457 11.138C21.913 11.138 22.453 8.6 22.453 7.376ZM32.4523 10.508V14H28.2583V10.508H32.4523ZM52.0417 14V5L44.2117 14H40.5037V0.608H44.2117V9.608L52.0417 0.608H55.7497V14H52.0417ZM62.3782 14H58.8682V4.01H62.3782V7.646H67.2742V4.01H70.7842V14H67.2742V10.31H62.3782V14ZM77.2141 14H73.7041V4.01H77.2141V7.646H82.1101V4.01H85.6201V14H82.1101V10.31H77.2141V14ZM94.804 14.27H94.246C88.864 14.27 88.036 10.994 88.036 9.176V8.924C88.036 7.124 88.864 3.74 94.228 3.74H94.822C100.366 3.74 101.014 7.142 101.014 8.906V9.194C101.014 10.994 100.366 14.27 94.804 14.27ZM94.426 11.642H94.624C96.838 11.642 97.396 10.058 97.396 8.96C97.396 7.826 96.838 6.314 94.624 6.314H94.426C92.122 6.314 91.654 7.826 91.654 8.96C91.654 10.058 92.122 11.642 94.426 11.642ZM111.673 14H103.429V4.01H111.313C113.599 4.01 115.039 4.82 115.039 6.404V6.494C115.039 7.736 114.247 8.474 113.041 8.672C114.265 8.816 115.363 9.68 115.363 11.12V11.192C115.363 13.01 114.175 14 111.673 14ZM106.939 7.988H110.161C111.007 7.988 111.439 7.664 111.439 7.034V6.944C111.439 6.368 111.043 6.026 110.161 6.026H106.939V7.988ZM106.939 11.984H110.305C111.241 11.984 111.763 11.678 111.763 10.976V10.832C111.763 10.202 111.331 9.806 110.305 9.806H106.939V11.984ZM122.436 12.002C124.488 12.002 125.19 10.706 125.19 9.95V9.176C124.884 9.302 124.002 9.482 122.994 9.644C121.302 9.932 120.762 10.166 120.762 10.868V10.904C120.762 11.534 121.212 12.002 122.436 12.002ZM125.298 12.614C124.866 13.136 123.786 14.198 121.446 14.198H121.158C118.368 14.198 117.216 12.686 117.216 11.03V10.958C117.216 9.23 118.314 8.168 121.698 7.88L124.434 7.646C124.992 7.592 125.19 7.412 125.19 6.998C125.19 6.53 125.046 6.026 123.102 6.026C121.266 6.026 121.086 6.746 121.086 7.124H117.486V7.088C117.486 6.098 117.882 3.776 122.796 3.776H123.354C128.304 3.776 128.61 5.81 128.61 7.142V10.436C128.61 11.066 128.736 11.318 129.438 11.318H129.816V14H126.972C125.928 14 125.442 13.262 125.298 12.614ZM145.173 11.336V16.124H141.843V14H131.817V4.01H135.327V11.336H139.863V4.01H143.373V11.336H145.173ZM155.693 7.952L150.869 14H147.269V4.01H150.779V10.058L155.603 4.01H159.203V14H155.693V7.952ZM170.528 10.652H168.17L165.254 14H161.294L164.552 10.274C162.824 9.932 161.834 8.942 161.834 7.43V7.214C161.834 5.396 163.31 4.01 165.812 4.01H174.038V14H170.528V10.652ZM170.528 6.314H166.766C165.992 6.314 165.344 6.494 165.344 7.286V7.358C165.344 8.132 166.01 8.366 166.784 8.366H170.528V6.314ZM190.405 14H182.161V4.01H190.045C192.331 4.01 193.771 4.82 193.771 6.404V6.494C193.771 7.736 192.979 8.474 191.773 8.672C192.997 8.816 194.095 9.68 194.095 11.12V11.192C194.095 13.01 192.907 14 190.405 14ZM185.671 7.988H188.893C189.739 7.988 190.171 7.664 190.171 7.034V6.944C190.171 6.368 189.775 6.026 188.893 6.026H185.671V7.988ZM185.671 11.984H189.037C189.973 11.984 190.495 11.678 190.495 10.976V10.832C190.495 10.202 190.063 9.806 189.037 9.806H185.671V11.984ZM209.393 0.391999H210.185C216.449 0.391999 218.231 4.064 218.231 6.998V7.538C218.231 10.418 216.449 14.216 210.185 14.216H209.393C203.129 14.216 201.347 10.418 201.347 7.538V6.998C201.347 4.082 203.129 0.391999 209.393 0.391999ZM214.379 7.394V7.142C214.379 5.486 213.569 3.452 209.789 3.452C206.045 3.452 205.199 5.486 205.199 7.142V7.394C205.199 9.014 206.099 11.138 209.789 11.138C213.551 11.138 214.379 9.014 214.379 7.394ZM233.219 9.122V9.356C233.219 13.1 230.375 14.27 226.973 14.27H226.613C223.103 14.27 220.241 12.902 220.241 8.15V7.088C220.241 2.282 222.635 0.698 227.315 0.698H228.125C229.241 0.698 229.313 0.589999 229.349 0.373999H232.787C232.787 2.48 231.995 3.362 229.547 3.362H227.315C224.723 3.362 223.733 4.172 223.679 5.99C224.597 5.036 226.001 4.388 228.215 4.388H228.323C230.699 4.388 233.219 5.594 233.219 9.122ZM226.649 11.642H226.847C228.431 11.642 229.601 10.85 229.601 9.212C229.601 7.628 228.413 6.854 226.865 6.854H226.649C224.921 6.854 223.859 7.592 223.859 9.23C223.859 10.886 224.939 11.642 226.649 11.642ZM244.814 9.014V8.96C244.814 7.88 244.31 6.422 242.114 6.422H241.934C239.828 6.422 239.162 7.808 239.162 8.96V9.014C239.162 10.112 239.828 11.552 241.934 11.552H242.114C244.31 11.552 244.814 10.04 244.814 9.014ZM235.67 17.438V4.01H239.144V5.288C239.576 4.82 240.89 3.812 243.158 3.812H243.392C247.208 3.812 248.45 6.422 248.45 8.798V9.104C248.45 11.282 247.172 14.198 243.374 14.198H243.122C240.836 14.198 239.612 13.154 239.18 12.722V17.438H235.67ZM255.52 12.002C257.572 12.002 258.274 10.706 258.274 9.95V9.176C257.968 9.302 257.086 9.482 256.078 9.644C254.386 9.932 253.846 10.166 253.846 10.868V10.904C253.846 11.534 254.296 12.002 255.52 12.002ZM258.382 12.614C257.95 13.136 256.87 14.198 254.53 14.198H254.242C251.452 14.198 250.3 12.686 250.3 11.03V10.958C250.3 9.23 251.398 8.168 254.782 7.88L257.518 7.646C258.076 7.592 258.274 7.412 258.274 6.998C258.274 6.53 258.13 6.026 256.186 6.026C254.35 6.026 254.17 6.746 254.17 7.124H250.57V7.088C250.57 6.098 250.966 3.776 255.88 3.776H256.438C261.388 3.776 261.694 5.81 261.694 7.142V10.436C261.694 11.066 261.82 11.318 262.522 11.318H262.9V14H260.056C259.012 14 258.526 13.262 258.382 12.614ZM276.115 11.048V11.156C276.115 13.154 274.441 14.27 270.607 14.27H270.283C266.179 14.27 264.397 12.74 264.397 10.67V10.526H268.159C268.213 11.642 269.239 12.056 270.463 12.056C271.777 12.056 272.497 11.66 272.497 10.868V10.814C272.497 10.076 271.921 9.896 270.913 9.896H268.537V7.754H270.913C271.687 7.754 272.173 7.448 272.173 6.872V6.818C272.173 6.224 271.579 5.918 270.373 5.918C269.023 5.918 268.303 6.242 268.249 6.944H264.487V6.89C264.487 4.748 266.989 3.74 270.247 3.74H270.535C273.901 3.74 275.791 4.55 275.791 6.422V6.494C275.791 8.006 274.639 8.582 273.811 8.78C274.819 8.978 276.115 9.464 276.115 11.048ZM284.824 14.27H284.266C278.884 14.27 278.056 10.994 278.056 9.176V8.924C278.056 7.124 278.884 3.74 284.248 3.74H284.842C290.386 3.74 291.034 7.142 291.034 8.906V9.194C291.034 10.994 290.386 14.27 284.824 14.27ZM284.446 11.642H284.644C286.858 11.642 287.416 10.058 287.416 8.96C287.416 7.826 286.858 6.314 284.644 6.314H284.446C282.142 6.314 281.674 7.826 281.674 8.96C281.674 10.058 282.142 11.642 284.446 11.642ZM301.692 14H293.448V4.01H301.332C303.618 4.01 305.058 4.82 305.058 6.404V6.494C305.058 7.736 304.266 8.474 303.06 8.672C304.284 8.816 305.382 9.68 305.382 11.12V11.192C305.382 13.01 304.194 14 301.692 14ZM296.958 7.988H300.18C301.026 7.988 301.458 7.664 301.458 7.034V6.944C301.458 6.368 301.062 6.026 300.18 6.026H296.958V7.988ZM296.958 11.984H300.324C301.26 11.984 301.782 11.678 301.782 10.976V10.832C301.782 10.202 301.35 9.806 300.324 9.806H296.958V11.984ZM312.455 12.002C314.507 12.002 315.209 10.706 315.209 9.95V9.176C314.903 9.302 314.021 9.482 313.013 9.644C311.321 9.932 310.781 10.166 310.781 10.868V10.904C310.781 11.534 311.231 12.002 312.455 12.002ZM315.317 12.614C314.885 13.136 313.805 14.198 311.465 14.198H311.177C308.387 14.198 307.235 12.686 307.235 11.03V10.958C307.235 9.23 308.333 8.168 311.717 7.88L314.453 7.646C315.011 7.592 315.209 7.412 315.209 6.998C315.209 6.53 315.065 6.026 313.121 6.026C311.285 6.026 311.105 6.746 311.105 7.124H307.505V7.088C307.505 6.098 307.901 3.776 312.815 3.776H313.373C318.323 3.776 318.629 5.81 318.629 7.142V10.436C318.629 11.066 318.755 11.318 319.457 11.318H319.835V14H316.991C315.947 14 315.461 13.262 315.317 12.614ZM325.347 14H321.837V4.01H325.347V7.646H330.243V4.01H333.753V14H330.243V10.31H325.347V14ZM345.097 7.952L340.273 14H336.673V4.01H340.183V10.058L345.007 4.01H348.607V14H345.097V7.952ZM359.95 7.952L355.126 14H351.526V4.01H355.036V10.058L359.86 4.01H363.46V14H359.95V7.952Z" fill="#C1A875" style="mix-blend-mode:color"/>
<defs>
<linearGradient id="paint0_linear_2018_1290" x1="1.35973e-06" y1="6" x2="365" y2="6.00003" gradientUnits="userSpaceOnUse">
<stop stop-color="#576167"/>
<stop offset="0.191294" stop-color="#9EA1A2"/>
<stop offset="0.396166" stop-color="#848989"/>
<stop offset="0.62055" stop-color="#576167"/>
<stop offset="0.830299" stop-color="#757A7C"/>
<stop offset="1" stop-color="#576167"/>
</linearGradient>
<radialGradient id="paint1_radial_2018_1290" cx="0" cy="0" r="1" gradientUnits="userSpaceOnUse" gradientTransform="translate(194.381 -3.20225) rotate(90) scale(17.8315 276.134)">
<stop stop-color="white"/>
<stop offset="1" stop-color="white" stop-opacity="0"/>
</radialGradient>
<radialGradient id="paint2_radial_2018_1290" cx="0" cy="0" r="1" gradientUnits="userSpaceOnUse" gradientTransform="translate(215.027 23.6629) rotate(-88.69) scale(25.5572 394.763)">
<stop stop-color="white"/>
<stop offset="1" stop-color="white" stop-opacity="0"/>
</radialGradient>
</defs>
</svg>
