<svg width="436" height="18" viewBox="0 0 436 18" fill="none" xmlns="http://www.w3.org/2000/svg">
<path d="M14.4372 14H0.109248V11.84C0.109248 10.022 0.379248 8.294 5.76125 6.656C6.33725 6.458 7.52525 6.17 8.06525 6.026C9.79325 5.594 10.1892 5.252 10.1892 4.622C10.1892 3.812 9.63125 3.308 7.39925 3.308C4.66325 3.308 4.32125 4.712 4.26725 5.432H0.325248V5.306C0.325248 3.416 1.38725 0.446 6.87725 0.446H7.68725C12.5832 0.446 14.1312 2.156 14.1312 4.586V4.73C14.1312 7.088 12.7452 8.078 9.03725 8.798L6.40925 9.356C3.78125 9.986 3.43925 10.418 3.43925 10.796H14.4372V14ZM20.8078 10.508V14H16.6138V10.508H20.8078ZM40.24 14V3.56H34.48C34.48 7.214 34.318 10.004 33.832 11.462C33.4 12.74 32.626 14 29.962 14H28.63V10.85H28.756C29.854 10.85 30.304 10.346 30.52 9.788C30.88 8.852 30.97 7.574 30.97 0.608H43.948V14H40.24ZM55.4777 7.952L50.6537 14H47.0537V4.01H50.5637V10.058L55.3877 4.01H58.9877V14H55.4777V7.952ZM61.0792 16.124V11.336H62.2852C62.9692 9.968 63.0772 6.998 63.1672 4.01H73.7332V11.336H75.5332V16.124H72.2032V14H64.4092V16.124H61.0792ZM65.5972 11.336H70.2232V6.674H66.3172C66.2632 7.97 66.0832 9.95 65.5972 11.336ZM83.2603 6.08C81.4423 6.08 80.7583 6.818 80.5783 7.862H85.8703C85.8703 7.124 85.5103 6.08 83.2603 6.08ZM85.9423 10.886H89.5963C89.5963 11.714 88.9483 14.234 83.7823 14.234H83.1163C78.1843 14.234 76.9603 11.534 76.9603 9.14V8.888C76.9603 6.638 78.0763 3.794 82.8103 3.794H83.6023C88.7143 3.794 89.6323 6.638 89.6323 9.428V9.752H80.5423C80.6863 10.904 81.4243 11.84 83.5663 11.84C85.6003 11.84 85.8523 11.048 85.9423 10.886ZM101.216 9.014V8.96C101.216 7.88 100.712 6.422 98.5161 6.422H98.3361C96.2301 6.422 95.5641 7.808 95.5641 8.96V9.014C95.5641 10.112 96.2301 11.552 98.3361 11.552H98.5161C100.712 11.552 101.216 10.04 101.216 9.014ZM92.0721 17.438V4.01H95.5461V5.288C95.9781 4.82 97.2921 3.812 99.5601 3.812H99.7941C103.61 3.812 104.852 6.422 104.852 8.798V9.104C104.852 11.282 103.574 14.198 99.7761 14.198H99.5241C97.2381 14.198 96.0141 13.154 95.5821 12.722V17.438H92.0721ZM125.853 11.336V16.124H122.523V14H112.497V4.01H116.007V11.336H120.543V4.01H124.053V11.336H125.853ZM136.372 7.952L131.548 14H127.948V4.01H131.458V10.058L136.282 4.01H139.882V14H136.372V7.952ZM153.062 14.27H152.54V17.384H149.03V14.27H148.508C142.946 14.27 142.298 10.994 142.298 9.194V8.906C142.298 7.142 142.946 3.74 148.49 3.74H149.03V0.608H152.54V3.74H153.08C158.624 3.74 159.272 7.142 159.272 8.906V9.194C159.272 10.994 158.624 14.27 153.062 14.27ZM148.688 11.732H149.03V6.224H148.688C146.474 6.224 145.916 7.646 145.916 8.96C145.916 10.238 146.474 11.732 148.688 11.732ZM152.882 6.224H152.54V11.732H152.882C155.096 11.732 155.654 10.238 155.654 8.96C155.654 7.664 155.096 6.224 152.882 6.224ZM170.861 9.014V8.96C170.861 7.88 170.357 6.422 168.161 6.422H167.981C165.875 6.422 165.209 7.808 165.209 8.96V9.014C165.209 10.112 165.875 11.552 167.981 11.552H168.161C170.357 11.552 170.861 10.04 170.861 9.014ZM161.717 17.438V4.01H165.191V5.288C165.623 4.82 166.937 3.812 169.205 3.812H169.439C173.255 3.812 174.497 6.422 174.497 8.798V9.104C174.497 11.282 173.219 14.198 169.421 14.198H169.169C166.883 14.198 165.659 13.154 165.227 12.722V17.438H161.717ZM183.202 14.27H182.644C177.262 14.27 176.434 10.994 176.434 9.176V8.924C176.434 7.124 177.262 3.74 182.626 3.74H183.22C188.764 3.74 189.412 7.142 189.412 8.906V9.194C189.412 10.994 188.764 14.27 183.202 14.27ZM182.824 11.642H183.022C185.236 11.642 185.794 10.058 185.794 8.96C185.794 7.826 185.236 6.314 183.022 6.314H182.824C180.52 6.314 180.052 7.826 180.052 8.96C180.052 10.058 180.52 11.642 182.824 11.642ZM200.071 14H191.827V4.01H199.711C201.997 4.01 203.437 4.82 203.437 6.404V6.494C203.437 7.736 202.645 8.474 201.439 8.672C202.663 8.816 203.761 9.68 203.761 11.12V11.192C203.761 13.01 202.573 14 200.071 14ZM195.337 7.988H198.559C199.405 7.988 199.837 7.664 199.837 7.034V6.944C199.837 6.368 199.441 6.026 198.559 6.026H195.337V7.988ZM195.337 11.984H198.703C199.639 11.984 200.161 11.678 200.161 10.976V10.832C200.161 10.202 199.729 9.806 198.703 9.806H195.337V11.984ZM212.47 14.27H211.912C206.53 14.27 205.702 10.994 205.702 9.176V8.924C205.702 7.124 206.53 3.74 211.894 3.74H212.488C218.032 3.74 218.68 7.142 218.68 8.906V9.194C218.68 10.994 218.032 14.27 212.47 14.27ZM212.092 11.642H212.29C214.504 11.642 215.062 10.058 215.062 8.96C215.062 7.826 214.504 6.314 212.29 6.314H212.092C209.788 6.314 209.32 7.826 209.32 8.96C209.32 10.058 209.788 11.642 212.092 11.642ZM229.519 7.952L224.695 14H221.095V4.01H224.605V10.058L229.429 4.01H233.029V14H229.519V7.952ZM227.287 2.984H226.747C223.885 2.984 223.381 1.04 223.381 0.104V0.0499994H226.027C226.027 0.284 226.135 1.004 227.035 1.004C227.881 1.004 228.007 0.284 228.007 0.0499994H230.617V0.104C230.617 1.04 229.897 2.984 227.287 2.984ZM244.013 14V6.674H240.143V4.01H251.393V6.674H247.523V14H244.013ZM262.478 9.014V8.96C262.478 7.88 261.974 6.422 259.778 6.422H259.598C257.492 6.422 256.826 7.808 256.826 8.96V9.014C256.826 10.112 257.492 11.552 259.598 11.552H259.778C261.974 11.552 262.478 10.04 262.478 9.014ZM253.334 17.438V4.01H256.808V5.288C257.24 4.82 258.554 3.812 260.822 3.812H261.056C264.872 3.812 266.114 6.422 266.114 8.798V9.104C266.114 11.282 264.836 14.198 261.038 14.198H260.786C258.5 14.198 257.276 13.154 256.844 12.722V17.438H253.334ZM273.184 12.002C275.236 12.002 275.938 10.706 275.938 9.95V9.176C275.632 9.302 274.75 9.482 273.742 9.644C272.05 9.932 271.51 10.166 271.51 10.868V10.904C271.51 11.534 271.96 12.002 273.184 12.002ZM276.046 12.614C275.614 13.136 274.534 14.198 272.194 14.198H271.906C269.116 14.198 267.964 12.686 267.964 11.03V10.958C267.964 9.23 269.062 8.168 272.446 7.88L275.182 7.646C275.74 7.592 275.938 7.412 275.938 6.998C275.938 6.53 275.794 6.026 273.85 6.026C272.014 6.026 271.834 6.746 271.834 7.124H268.234V7.088C268.234 6.098 268.63 3.776 273.544 3.776H274.102C279.052 3.776 279.358 5.81 279.358 7.142V10.436C279.358 11.066 279.484 11.318 280.186 11.318H280.564V14H277.72C276.676 14 276.19 13.262 276.046 12.614ZM286.075 14H282.565V4.01H286.075V7.646H290.971V4.01H294.481V14H290.971V10.31H286.075V14ZM305.753 10.076H309.425C309.425 11.588 308.525 14.27 303.719 14.27H302.837C297.851 14.27 296.915 11.03 296.915 9.14V8.888C296.915 6.998 297.797 3.74 302.819 3.74H303.647C308.471 3.74 309.425 6.368 309.425 7.808V7.826H305.753C305.699 7.538 305.357 6.296 303.287 6.296H303.107C301.037 6.296 300.551 7.718 300.551 8.924V8.942C300.551 10.184 301.145 11.66 303.179 11.66H303.359C305.447 11.66 305.753 10.31 305.753 10.076ZM322.075 14.27H321.553V17.384H318.043V14.27H317.521C311.959 14.27 311.311 10.994 311.311 9.194V8.906C311.311 7.142 311.959 3.74 317.503 3.74H318.043V0.608H321.553V3.74H322.093C327.637 3.74 328.285 7.142 328.285 8.906V9.194C328.285 10.994 327.637 14.27 322.075 14.27ZM317.701 11.732H318.043V6.224H317.701C315.487 6.224 314.929 7.646 314.929 8.96C314.929 10.238 315.487 11.732 317.701 11.732ZM321.895 6.224H321.553V11.732H321.895C324.109 11.732 324.667 10.238 324.667 8.96C324.667 7.664 324.109 6.224 321.895 6.224ZM336.958 14.27H336.4C331.018 14.27 330.19 10.994 330.19 9.176V8.924C330.19 7.124 331.018 3.74 336.382 3.74H336.976C342.52 3.74 343.168 7.142 343.168 8.906V9.194C343.168 10.994 342.52 14.27 336.958 14.27ZM336.58 11.642H336.778C338.992 11.642 339.55 10.058 339.55 8.96C339.55 7.826 338.992 6.314 336.778 6.314H336.58C334.276 6.314 333.808 7.826 333.808 8.96C333.808 10.058 334.276 11.642 336.58 11.642ZM354.763 9.014V8.96C354.763 7.88 354.259 6.422 352.063 6.422H351.883C349.777 6.422 349.111 7.808 349.111 8.96V9.014C349.111 10.112 349.777 11.552 351.883 11.552H352.063C354.259 11.552 354.763 10.04 354.763 9.014ZM345.619 17.438V4.01H349.093V5.288C349.525 4.82 350.839 3.812 353.107 3.812H353.341C357.157 3.812 358.399 6.422 358.399 8.798V9.104C358.399 11.282 357.121 14.198 353.323 14.198H353.071C350.785 14.198 349.561 13.154 349.129 12.722V17.438H345.619ZM364.081 7.268V14H360.841V4.01H365.791L368.761 10.382L371.731 4.01H376.501V14H372.991V7.268L369.877 14H367.195L364.081 7.268ZM384.014 12.002C386.066 12.002 386.768 10.706 386.768 9.95V9.176C386.462 9.302 385.58 9.482 384.572 9.644C382.88 9.932 382.34 10.166 382.34 10.868V10.904C382.34 11.534 382.79 12.002 384.014 12.002ZM386.876 12.614C386.444 13.136 385.364 14.198 383.024 14.198H382.736C379.946 14.198 378.794 12.686 378.794 11.03V10.958C378.794 9.23 379.892 8.168 383.276 7.88L386.012 7.646C386.57 7.592 386.768 7.412 386.768 6.998C386.768 6.53 386.624 6.026 384.68 6.026C382.844 6.026 382.664 6.746 382.664 7.124H379.064V7.088C379.064 6.098 379.46 3.776 384.374 3.776H384.932C389.882 3.776 390.188 5.81 390.188 7.142V10.436C390.188 11.066 390.314 11.318 391.016 11.318H391.394V14H388.55C387.506 14 387.02 13.262 386.876 12.614ZM406.752 11.336V16.124H403.422V14H393.396V4.01H396.906V11.336H401.441V4.01H404.952V11.336H406.752ZM417.271 7.952L412.447 14H408.847V4.01H412.357V10.058L417.181 4.01H420.781V14H417.271V7.952ZM432.124 7.952L427.3 14H423.7V4.01H427.21V10.058L432.034 4.01H435.634V14H432.124V7.952Z" fill="url(#paint0_linear_2018_1233)"/>
<path d="M14.4372 14H0.109248V11.84C0.109248 10.022 0.379248 8.294 5.76125 6.656C6.33725 6.458 7.52525 6.17 8.06525 6.026C9.79325 5.594 10.1892 5.252 10.1892 4.622C10.1892 3.812 9.63125 3.308 7.39925 3.308C4.66325 3.308 4.32125 4.712 4.26725 5.432H0.325248V5.306C0.325248 3.416 1.38725 0.446 6.87725 0.446H7.68725C12.5832 0.446 14.1312 2.156 14.1312 4.586V4.73C14.1312 7.088 12.7452 8.078 9.03725 8.798L6.40925 9.356C3.78125 9.986 3.43925 10.418 3.43925 10.796H14.4372V14ZM20.8078 10.508V14H16.6138V10.508H20.8078ZM40.24 14V3.56H34.48C34.48 7.214 34.318 10.004 33.832 11.462C33.4 12.74 32.626 14 29.962 14H28.63V10.85H28.756C29.854 10.85 30.304 10.346 30.52 9.788C30.88 8.852 30.97 7.574 30.97 0.608H43.948V14H40.24ZM55.4777 7.952L50.6537 14H47.0537V4.01H50.5637V10.058L55.3877 4.01H58.9877V14H55.4777V7.952ZM61.0792 16.124V11.336H62.2852C62.9692 9.968 63.0772 6.998 63.1672 4.01H73.7332V11.336H75.5332V16.124H72.2032V14H64.4092V16.124H61.0792ZM65.5972 11.336H70.2232V6.674H66.3172C66.2632 7.97 66.0832 9.95 65.5972 11.336ZM83.2603 6.08C81.4423 6.08 80.7583 6.818 80.5783 7.862H85.8703C85.8703 7.124 85.5103 6.08 83.2603 6.08ZM85.9423 10.886H89.5963C89.5963 11.714 88.9483 14.234 83.7823 14.234H83.1163C78.1843 14.234 76.9603 11.534 76.9603 9.14V8.888C76.9603 6.638 78.0763 3.794 82.8103 3.794H83.6023C88.7143 3.794 89.6323 6.638 89.6323 9.428V9.752H80.5423C80.6863 10.904 81.4243 11.84 83.5663 11.84C85.6003 11.84 85.8523 11.048 85.9423 10.886ZM101.216 9.014V8.96C101.216 7.88 100.712 6.422 98.5161 6.422H98.3361C96.2301 6.422 95.5641 7.808 95.5641 8.96V9.014C95.5641 10.112 96.2301 11.552 98.3361 11.552H98.5161C100.712 11.552 101.216 10.04 101.216 9.014ZM92.0721 17.438V4.01H95.5461V5.288C95.9781 4.82 97.2921 3.812 99.5601 3.812H99.7941C103.61 3.812 104.852 6.422 104.852 8.798V9.104C104.852 11.282 103.574 14.198 99.7761 14.198H99.5241C97.2381 14.198 96.0141 13.154 95.5821 12.722V17.438H92.0721ZM125.853 11.336V16.124H122.523V14H112.497V4.01H116.007V11.336H120.543V4.01H124.053V11.336H125.853ZM136.372 7.952L131.548 14H127.948V4.01H131.458V10.058L136.282 4.01H139.882V14H136.372V7.952ZM153.062 14.27H152.54V17.384H149.03V14.27H148.508C142.946 14.27 142.298 10.994 142.298 9.194V8.906C142.298 7.142 142.946 3.74 148.49 3.74H149.03V0.608H152.54V3.74H153.08C158.624 3.74 159.272 7.142 159.272 8.906V9.194C159.272 10.994 158.624 14.27 153.062 14.27ZM148.688 11.732H149.03V6.224H148.688C146.474 6.224 145.916 7.646 145.916 8.96C145.916 10.238 146.474 11.732 148.688 11.732ZM152.882 6.224H152.54V11.732H152.882C155.096 11.732 155.654 10.238 155.654 8.96C155.654 7.664 155.096 6.224 152.882 6.224ZM170.861 9.014V8.96C170.861 7.88 170.357 6.422 168.161 6.422H167.981C165.875 6.422 165.209 7.808 165.209 8.96V9.014C165.209 10.112 165.875 11.552 167.981 11.552H168.161C170.357 11.552 170.861 10.04 170.861 9.014ZM161.717 17.438V4.01H165.191V5.288C165.623 4.82 166.937 3.812 169.205 3.812H169.439C173.255 3.812 174.497 6.422 174.497 8.798V9.104C174.497 11.282 173.219 14.198 169.421 14.198H169.169C166.883 14.198 165.659 13.154 165.227 12.722V17.438H161.717ZM183.202 14.27H182.644C177.262 14.27 176.434 10.994 176.434 9.176V8.924C176.434 7.124 177.262 3.74 182.626 3.74H183.22C188.764 3.74 189.412 7.142 189.412 8.906V9.194C189.412 10.994 188.764 14.27 183.202 14.27ZM182.824 11.642H183.022C185.236 11.642 185.794 10.058 185.794 8.96C185.794 7.826 185.236 6.314 183.022 6.314H182.824C180.52 6.314 180.052 7.826 180.052 8.96C180.052 10.058 180.52 11.642 182.824 11.642ZM200.071 14H191.827V4.01H199.711C201.997 4.01 203.437 4.82 203.437 6.404V6.494C203.437 7.736 202.645 8.474 201.439 8.672C202.663 8.816 203.761 9.68 203.761 11.12V11.192C203.761 13.01 202.573 14 200.071 14ZM195.337 7.988H198.559C199.405 7.988 199.837 7.664 199.837 7.034V6.944C199.837 6.368 199.441 6.026 198.559 6.026H195.337V7.988ZM195.337 11.984H198.703C199.639 11.984 200.161 11.678 200.161 10.976V10.832C200.161 10.202 199.729 9.806 198.703 9.806H195.337V11.984ZM212.47 14.27H211.912C206.53 14.27 205.702 10.994 205.702 9.176V8.924C205.702 7.124 206.53 3.74 211.894 3.74H212.488C218.032 3.74 218.68 7.142 218.68 8.906V9.194C218.68 10.994 218.032 14.27 212.47 14.27ZM212.092 11.642H212.29C214.504 11.642 215.062 10.058 215.062 8.96C215.062 7.826 214.504 6.314 212.29 6.314H212.092C209.788 6.314 209.32 7.826 209.32 8.96C209.32 10.058 209.788 11.642 212.092 11.642ZM229.519 7.952L224.695 14H221.095V4.01H224.605V10.058L229.429 4.01H233.029V14H229.519V7.952ZM227.287 2.984H226.747C223.885 2.984 223.381 1.04 223.381 0.104V0.0499994H226.027C226.027 0.284 226.135 1.004 227.035 1.004C227.881 1.004 228.007 0.284 228.007 0.0499994H230.617V0.104C230.617 1.04 229.897 2.984 227.287 2.984ZM244.013 14V6.674H240.143V4.01H251.393V6.674H247.523V14H244.013ZM262.478 9.014V8.96C262.478 7.88 261.974 6.422 259.778 6.422H259.598C257.492 6.422 256.826 7.808 256.826 8.96V9.014C256.826 10.112 257.492 11.552 259.598 11.552H259.778C261.974 11.552 262.478 10.04 262.478 9.014ZM253.334 17.438V4.01H256.808V5.288C257.24 4.82 258.554 3.812 260.822 3.812H261.056C264.872 3.812 266.114 6.422 266.114 8.798V9.104C266.114 11.282 264.836 14.198 261.038 14.198H260.786C258.5 14.198 257.276 13.154 256.844 12.722V17.438H253.334ZM273.184 12.002C275.236 12.002 275.938 10.706 275.938 9.95V9.176C275.632 9.302 274.75 9.482 273.742 9.644C272.05 9.932 271.51 10.166 271.51 10.868V10.904C271.51 11.534 271.96 12.002 273.184 12.002ZM276.046 12.614C275.614 13.136 274.534 14.198 272.194 14.198H271.906C269.116 14.198 267.964 12.686 267.964 11.03V10.958C267.964 9.23 269.062 8.168 272.446 7.88L275.182 7.646C275.74 7.592 275.938 7.412 275.938 6.998C275.938 6.53 275.794 6.026 273.85 6.026C272.014 6.026 271.834 6.746 271.834 7.124H268.234V7.088C268.234 6.098 268.63 3.776 273.544 3.776H274.102C279.052 3.776 279.358 5.81 279.358 7.142V10.436C279.358 11.066 279.484 11.318 280.186 11.318H280.564V14H277.72C276.676 14 276.19 13.262 276.046 12.614ZM286.075 14H282.565V4.01H286.075V7.646H290.971V4.01H294.481V14H290.971V10.31H286.075V14ZM305.753 10.076H309.425C309.425 11.588 308.525 14.27 303.719 14.27H302.837C297.851 14.27 296.915 11.03 296.915 9.14V8.888C296.915 6.998 297.797 3.74 302.819 3.74H303.647C308.471 3.74 309.425 6.368 309.425 7.808V7.826H305.753C305.699 7.538 305.357 6.296 303.287 6.296H303.107C301.037 6.296 300.551 7.718 300.551 8.924V8.942C300.551 10.184 301.145 11.66 303.179 11.66H303.359C305.447 11.66 305.753 10.31 305.753 10.076ZM322.075 14.27H321.553V17.384H318.043V14.27H317.521C311.959 14.27 311.311 10.994 311.311 9.194V8.906C311.311 7.142 311.959 3.74 317.503 3.74H318.043V0.608H321.553V3.74H322.093C327.637 3.74 328.285 7.142 328.285 8.906V9.194C328.285 10.994 327.637 14.27 322.075 14.27ZM317.701 11.732H318.043V6.224H317.701C315.487 6.224 314.929 7.646 314.929 8.96C314.929 10.238 315.487 11.732 317.701 11.732ZM321.895 6.224H321.553V11.732H321.895C324.109 11.732 324.667 10.238 324.667 8.96C324.667 7.664 324.109 6.224 321.895 6.224ZM336.958 14.27H336.4C331.018 14.27 330.19 10.994 330.19 9.176V8.924C330.19 7.124 331.018 3.74 336.382 3.74H336.976C342.52 3.74 343.168 7.142 343.168 8.906V9.194C343.168 10.994 342.52 14.27 336.958 14.27ZM336.58 11.642H336.778C338.992 11.642 339.55 10.058 339.55 8.96C339.55 7.826 338.992 6.314 336.778 6.314H336.58C334.276 6.314 333.808 7.826 333.808 8.96C333.808 10.058 334.276 11.642 336.58 11.642ZM354.763 9.014V8.96C354.763 7.88 354.259 6.422 352.063 6.422H351.883C349.777 6.422 349.111 7.808 349.111 8.96V9.014C349.111 10.112 349.777 11.552 351.883 11.552H352.063C354.259 11.552 354.763 10.04 354.763 9.014ZM345.619 17.438V4.01H349.093V5.288C349.525 4.82 350.839 3.812 353.107 3.812H353.341C357.157 3.812 358.399 6.422 358.399 8.798V9.104C358.399 11.282 357.121 14.198 353.323 14.198H353.071C350.785 14.198 349.561 13.154 349.129 12.722V17.438H345.619ZM364.081 7.268V14H360.841V4.01H365.791L368.761 10.382L371.731 4.01H376.501V14H372.991V7.268L369.877 14H367.195L364.081 7.268ZM384.014 12.002C386.066 12.002 386.768 10.706 386.768 9.95V9.176C386.462 9.302 385.58 9.482 384.572 9.644C382.88 9.932 382.34 10.166 382.34 10.868V10.904C382.34 11.534 382.79 12.002 384.014 12.002ZM386.876 12.614C386.444 13.136 385.364 14.198 383.024 14.198H382.736C379.946 14.198 378.794 12.686 378.794 11.03V10.958C378.794 9.23 379.892 8.168 383.276 7.88L386.012 7.646C386.57 7.592 386.768 7.412 386.768 6.998C386.768 6.53 386.624 6.026 384.68 6.026C382.844 6.026 382.664 6.746 382.664 7.124H379.064V7.088C379.064 6.098 379.46 3.776 384.374 3.776H384.932C389.882 3.776 390.188 5.81 390.188 7.142V10.436C390.188 11.066 390.314 11.318 391.016 11.318H391.394V14H388.55C387.506 14 387.02 13.262 386.876 12.614ZM406.752 11.336V16.124H403.422V14H393.396V4.01H396.906V11.336H401.441V4.01H404.952V11.336H406.752ZM417.271 7.952L412.447 14H408.847V4.01H412.357V10.058L417.181 4.01H420.781V14H417.271V7.952ZM432.124 7.952L427.3 14H423.7V4.01H427.21V10.058L432.034 4.01H435.634V14H432.124V7.952Z" fill="url(#paint1_radial_2018_1233)" style="mix-blend-mode:overlay"/>
<path d="M14.4372 14H0.109248V11.84C0.109248 10.022 0.379248 8.294 5.76125 6.656C6.33725 6.458 7.52525 6.17 8.06525 6.026C9.79325 5.594 10.1892 5.252 10.1892 4.622C10.1892 3.812 9.63125 3.308 7.39925 3.308C4.66325 3.308 4.32125 4.712 4.26725 5.432H0.325248V5.306C0.325248 3.416 1.38725 0.446 6.87725 0.446H7.68725C12.5832 0.446 14.1312 2.156 14.1312 4.586V4.73C14.1312 7.088 12.7452 8.078 9.03725 8.798L6.40925 9.356C3.78125 9.986 3.43925 10.418 3.43925 10.796H14.4372V14ZM20.8078 10.508V14H16.6138V10.508H20.8078ZM40.24 14V3.56H34.48C34.48 7.214 34.318 10.004 33.832 11.462C33.4 12.74 32.626 14 29.962 14H28.63V10.85H28.756C29.854 10.85 30.304 10.346 30.52 9.788C30.88 8.852 30.97 7.574 30.97 0.608H43.948V14H40.24ZM55.4777 7.952L50.6537 14H47.0537V4.01H50.5637V10.058L55.3877 4.01H58.9877V14H55.4777V7.952ZM61.0792 16.124V11.336H62.2852C62.9692 9.968 63.0772 6.998 63.1672 4.01H73.7332V11.336H75.5332V16.124H72.2032V14H64.4092V16.124H61.0792ZM65.5972 11.336H70.2232V6.674H66.3172C66.2632 7.97 66.0832 9.95 65.5972 11.336ZM83.2603 6.08C81.4423 6.08 80.7583 6.818 80.5783 7.862H85.8703C85.8703 7.124 85.5103 6.08 83.2603 6.08ZM85.9423 10.886H89.5963C89.5963 11.714 88.9483 14.234 83.7823 14.234H83.1163C78.1843 14.234 76.9603 11.534 76.9603 9.14V8.888C76.9603 6.638 78.0763 3.794 82.8103 3.794H83.6023C88.7143 3.794 89.6323 6.638 89.6323 9.428V9.752H80.5423C80.6863 10.904 81.4243 11.84 83.5663 11.84C85.6003 11.84 85.8523 11.048 85.9423 10.886ZM101.216 9.014V8.96C101.216 7.88 100.712 6.422 98.5161 6.422H98.3361C96.2301 6.422 95.5641 7.808 95.5641 8.96V9.014C95.5641 10.112 96.2301 11.552 98.3361 11.552H98.5161C100.712 11.552 101.216 10.04 101.216 9.014ZM92.0721 17.438V4.01H95.5461V5.288C95.9781 4.82 97.2921 3.812 99.5601 3.812H99.7941C103.61 3.812 104.852 6.422 104.852 8.798V9.104C104.852 11.282 103.574 14.198 99.7761 14.198H99.5241C97.2381 14.198 96.0141 13.154 95.5821 12.722V17.438H92.0721ZM125.853 11.336V16.124H122.523V14H112.497V4.01H116.007V11.336H120.543V4.01H124.053V11.336H125.853ZM136.372 7.952L131.548 14H127.948V4.01H131.458V10.058L136.282 4.01H139.882V14H136.372V7.952ZM153.062 14.27H152.54V17.384H149.03V14.27H148.508C142.946 14.27 142.298 10.994 142.298 9.194V8.906C142.298 7.142 142.946 3.74 148.49 3.74H149.03V0.608H152.54V3.74H153.08C158.624 3.74 159.272 7.142 159.272 8.906V9.194C159.272 10.994 158.624 14.27 153.062 14.27ZM148.688 11.732H149.03V6.224H148.688C146.474 6.224 145.916 7.646 145.916 8.96C145.916 10.238 146.474 11.732 148.688 11.732ZM152.882 6.224H152.54V11.732H152.882C155.096 11.732 155.654 10.238 155.654 8.96C155.654 7.664 155.096 6.224 152.882 6.224ZM170.861 9.014V8.96C170.861 7.88 170.357 6.422 168.161 6.422H167.981C165.875 6.422 165.209 7.808 165.209 8.96V9.014C165.209 10.112 165.875 11.552 167.981 11.552H168.161C170.357 11.552 170.861 10.04 170.861 9.014ZM161.717 17.438V4.01H165.191V5.288C165.623 4.82 166.937 3.812 169.205 3.812H169.439C173.255 3.812 174.497 6.422 174.497 8.798V9.104C174.497 11.282 173.219 14.198 169.421 14.198H169.169C166.883 14.198 165.659 13.154 165.227 12.722V17.438H161.717ZM183.202 14.27H182.644C177.262 14.27 176.434 10.994 176.434 9.176V8.924C176.434 7.124 177.262 3.74 182.626 3.74H183.22C188.764 3.74 189.412 7.142 189.412 8.906V9.194C189.412 10.994 188.764 14.27 183.202 14.27ZM182.824 11.642H183.022C185.236 11.642 185.794 10.058 185.794 8.96C185.794 7.826 185.236 6.314 183.022 6.314H182.824C180.52 6.314 180.052 7.826 180.052 8.96C180.052 10.058 180.52 11.642 182.824 11.642ZM200.071 14H191.827V4.01H199.711C201.997 4.01 203.437 4.82 203.437 6.404V6.494C203.437 7.736 202.645 8.474 201.439 8.672C202.663 8.816 203.761 9.68 203.761 11.12V11.192C203.761 13.01 202.573 14 200.071 14ZM195.337 7.988H198.559C199.405 7.988 199.837 7.664 199.837 7.034V6.944C199.837 6.368 199.441 6.026 198.559 6.026H195.337V7.988ZM195.337 11.984H198.703C199.639 11.984 200.161 11.678 200.161 10.976V10.832C200.161 10.202 199.729 9.806 198.703 9.806H195.337V11.984ZM212.47 14.27H211.912C206.53 14.27 205.702 10.994 205.702 9.176V8.924C205.702 7.124 206.53 3.74 211.894 3.74H212.488C218.032 3.74 218.68 7.142 218.68 8.906V9.194C218.68 10.994 218.032 14.27 212.47 14.27ZM212.092 11.642H212.29C214.504 11.642 215.062 10.058 215.062 8.96C215.062 7.826 214.504 6.314 212.29 6.314H212.092C209.788 6.314 209.32 7.826 209.32 8.96C209.32 10.058 209.788 11.642 212.092 11.642ZM229.519 7.952L224.695 14H221.095V4.01H224.605V10.058L229.429 4.01H233.029V14H229.519V7.952ZM227.287 2.984H226.747C223.885 2.984 223.381 1.04 223.381 0.104V0.0499994H226.027C226.027 0.284 226.135 1.004 227.035 1.004C227.881 1.004 228.007 0.284 228.007 0.0499994H230.617V0.104C230.617 1.04 229.897 2.984 227.287 2.984ZM244.013 14V6.674H240.143V4.01H251.393V6.674H247.523V14H244.013ZM262.478 9.014V8.96C262.478 7.88 261.974 6.422 259.778 6.422H259.598C257.492 6.422 256.826 7.808 256.826 8.96V9.014C256.826 10.112 257.492 11.552 259.598 11.552H259.778C261.974 11.552 262.478 10.04 262.478 9.014ZM253.334 17.438V4.01H256.808V5.288C257.24 4.82 258.554 3.812 260.822 3.812H261.056C264.872 3.812 266.114 6.422 266.114 8.798V9.104C266.114 11.282 264.836 14.198 261.038 14.198H260.786C258.5 14.198 257.276 13.154 256.844 12.722V17.438H253.334ZM273.184 12.002C275.236 12.002 275.938 10.706 275.938 9.95V9.176C275.632 9.302 274.75 9.482 273.742 9.644C272.05 9.932 271.51 10.166 271.51 10.868V10.904C271.51 11.534 271.96 12.002 273.184 12.002ZM276.046 12.614C275.614 13.136 274.534 14.198 272.194 14.198H271.906C269.116 14.198 267.964 12.686 267.964 11.03V10.958C267.964 9.23 269.062 8.168 272.446 7.88L275.182 7.646C275.74 7.592 275.938 7.412 275.938 6.998C275.938 6.53 275.794 6.026 273.85 6.026C272.014 6.026 271.834 6.746 271.834 7.124H268.234V7.088C268.234 6.098 268.63 3.776 273.544 3.776H274.102C279.052 3.776 279.358 5.81 279.358 7.142V10.436C279.358 11.066 279.484 11.318 280.186 11.318H280.564V14H277.72C276.676 14 276.19 13.262 276.046 12.614ZM286.075 14H282.565V4.01H286.075V7.646H290.971V4.01H294.481V14H290.971V10.31H286.075V14ZM305.753 10.076H309.425C309.425 11.588 308.525 14.27 303.719 14.27H302.837C297.851 14.27 296.915 11.03 296.915 9.14V8.888C296.915 6.998 297.797 3.74 302.819 3.74H303.647C308.471 3.74 309.425 6.368 309.425 7.808V7.826H305.753C305.699 7.538 305.357 6.296 303.287 6.296H303.107C301.037 6.296 300.551 7.718 300.551 8.924V8.942C300.551 10.184 301.145 11.66 303.179 11.66H303.359C305.447 11.66 305.753 10.31 305.753 10.076ZM322.075 14.27H321.553V17.384H318.043V14.27H317.521C311.959 14.27 311.311 10.994 311.311 9.194V8.906C311.311 7.142 311.959 3.74 317.503 3.74H318.043V0.608H321.553V3.74H322.093C327.637 3.74 328.285 7.142 328.285 8.906V9.194C328.285 10.994 327.637 14.27 322.075 14.27ZM317.701 11.732H318.043V6.224H317.701C315.487 6.224 314.929 7.646 314.929 8.96C314.929 10.238 315.487 11.732 317.701 11.732ZM321.895 6.224H321.553V11.732H321.895C324.109 11.732 324.667 10.238 324.667 8.96C324.667 7.664 324.109 6.224 321.895 6.224ZM336.958 14.27H336.4C331.018 14.27 330.19 10.994 330.19 9.176V8.924C330.19 7.124 331.018 3.74 336.382 3.74H336.976C342.52 3.74 343.168 7.142 343.168 8.906V9.194C343.168 10.994 342.52 14.27 336.958 14.27ZM336.58 11.642H336.778C338.992 11.642 339.55 10.058 339.55 8.96C339.55 7.826 338.992 6.314 336.778 6.314H336.58C334.276 6.314 333.808 7.826 333.808 8.96C333.808 10.058 334.276 11.642 336.58 11.642ZM354.763 9.014V8.96C354.763 7.88 354.259 6.422 352.063 6.422H351.883C349.777 6.422 349.111 7.808 349.111 8.96V9.014C349.111 10.112 349.777 11.552 351.883 11.552H352.063C354.259 11.552 354.763 10.04 354.763 9.014ZM345.619 17.438V4.01H349.093V5.288C349.525 4.82 350.839 3.812 353.107 3.812H353.341C357.157 3.812 358.399 6.422 358.399 8.798V9.104C358.399 11.282 357.121 14.198 353.323 14.198H353.071C350.785 14.198 349.561 13.154 349.129 12.722V17.438H345.619ZM364.081 7.268V14H360.841V4.01H365.791L368.761 10.382L371.731 4.01H376.501V14H372.991V7.268L369.877 14H367.195L364.081 7.268ZM384.014 12.002C386.066 12.002 386.768 10.706 386.768 9.95V9.176C386.462 9.302 385.58 9.482 384.572 9.644C382.88 9.932 382.34 10.166 382.34 10.868V10.904C382.34 11.534 382.79 12.002 384.014 12.002ZM386.876 12.614C386.444 13.136 385.364 14.198 383.024 14.198H382.736C379.946 14.198 378.794 12.686 378.794 11.03V10.958C378.794 9.23 379.892 8.168 383.276 7.88L386.012 7.646C386.57 7.592 386.768 7.412 386.768 6.998C386.768 6.53 386.624 6.026 384.68 6.026C382.844 6.026 382.664 6.746 382.664 7.124H379.064V7.088C379.064 6.098 379.46 3.776 384.374 3.776H384.932C389.882 3.776 390.188 5.81 390.188 7.142V10.436C390.188 11.066 390.314 11.318 391.016 11.318H391.394V14H388.55C387.506 14 387.02 13.262 386.876 12.614ZM406.752 11.336V16.124H403.422V14H393.396V4.01H396.906V11.336H401.441V4.01H404.952V11.336H406.752ZM417.271 7.952L412.447 14H408.847V4.01H412.357V10.058L417.181 4.01H420.781V14H417.271V7.952ZM432.124 7.952L427.3 14H423.7V4.01H427.21V10.058L432.034 4.01H435.634V14H432.124V7.952Z" fill="url(#paint2_radial_2018_1233)"/>
<path d="M14.4372 14H0.109248V11.84C0.109248 10.022 0.379248 8.294 5.76125 6.656C6.33725 6.458 7.52525 6.17 8.06525 6.026C9.79325 5.594 10.1892 5.252 10.1892 4.622C10.1892 3.812 9.63125 3.308 7.39925 3.308C4.66325 3.308 4.32125 4.712 4.26725 5.432H0.325248V5.306C0.325248 3.416 1.38725 0.446 6.87725 0.446H7.68725C12.5832 0.446 14.1312 2.156 14.1312 4.586V4.73C14.1312 7.088 12.7452 8.078 9.03725 8.798L6.40925 9.356C3.78125 9.986 3.43925 10.418 3.43925 10.796H14.4372V14ZM20.8078 10.508V14H16.6138V10.508H20.8078ZM40.24 14V3.56H34.48C34.48 7.214 34.318 10.004 33.832 11.462C33.4 12.74 32.626 14 29.962 14H28.63V10.85H28.756C29.854 10.85 30.304 10.346 30.52 9.788C30.88 8.852 30.97 7.574 30.97 0.608H43.948V14H40.24ZM55.4777 7.952L50.6537 14H47.0537V4.01H50.5637V10.058L55.3877 4.01H58.9877V14H55.4777V7.952ZM61.0792 16.124V11.336H62.2852C62.9692 9.968 63.0772 6.998 63.1672 4.01H73.7332V11.336H75.5332V16.124H72.2032V14H64.4092V16.124H61.0792ZM65.5972 11.336H70.2232V6.674H66.3172C66.2632 7.97 66.0832 9.95 65.5972 11.336ZM83.2603 6.08C81.4423 6.08 80.7583 6.818 80.5783 7.862H85.8703C85.8703 7.124 85.5103 6.08 83.2603 6.08ZM85.9423 10.886H89.5963C89.5963 11.714 88.9483 14.234 83.7823 14.234H83.1163C78.1843 14.234 76.9603 11.534 76.9603 9.14V8.888C76.9603 6.638 78.0763 3.794 82.8103 3.794H83.6023C88.7143 3.794 89.6323 6.638 89.6323 9.428V9.752H80.5423C80.6863 10.904 81.4243 11.84 83.5663 11.84C85.6003 11.84 85.8523 11.048 85.9423 10.886ZM101.216 9.014V8.96C101.216 7.88 100.712 6.422 98.5161 6.422H98.3361C96.2301 6.422 95.5641 7.808 95.5641 8.96V9.014C95.5641 10.112 96.2301 11.552 98.3361 11.552H98.5161C100.712 11.552 101.216 10.04 101.216 9.014ZM92.0721 17.438V4.01H95.5461V5.288C95.9781 4.82 97.2921 3.812 99.5601 3.812H99.7941C103.61 3.812 104.852 6.422 104.852 8.798V9.104C104.852 11.282 103.574 14.198 99.7761 14.198H99.5241C97.2381 14.198 96.0141 13.154 95.5821 12.722V17.438H92.0721ZM125.853 11.336V16.124H122.523V14H112.497V4.01H116.007V11.336H120.543V4.01H124.053V11.336H125.853ZM136.372 7.952L131.548 14H127.948V4.01H131.458V10.058L136.282 4.01H139.882V14H136.372V7.952ZM153.062 14.27H152.54V17.384H149.03V14.27H148.508C142.946 14.27 142.298 10.994 142.298 9.194V8.906C142.298 7.142 142.946 3.74 148.49 3.74H149.03V0.608H152.54V3.74H153.08C158.624 3.74 159.272 7.142 159.272 8.906V9.194C159.272 10.994 158.624 14.27 153.062 14.27ZM148.688 11.732H149.03V6.224H148.688C146.474 6.224 145.916 7.646 145.916 8.96C145.916 10.238 146.474 11.732 148.688 11.732ZM152.882 6.224H152.54V11.732H152.882C155.096 11.732 155.654 10.238 155.654 8.96C155.654 7.664 155.096 6.224 152.882 6.224ZM170.861 9.014V8.96C170.861 7.88 170.357 6.422 168.161 6.422H167.981C165.875 6.422 165.209 7.808 165.209 8.96V9.014C165.209 10.112 165.875 11.552 167.981 11.552H168.161C170.357 11.552 170.861 10.04 170.861 9.014ZM161.717 17.438V4.01H165.191V5.288C165.623 4.82 166.937 3.812 169.205 3.812H169.439C173.255 3.812 174.497 6.422 174.497 8.798V9.104C174.497 11.282 173.219 14.198 169.421 14.198H169.169C166.883 14.198 165.659 13.154 165.227 12.722V17.438H161.717ZM183.202 14.27H182.644C177.262 14.27 176.434 10.994 176.434 9.176V8.924C176.434 7.124 177.262 3.74 182.626 3.74H183.22C188.764 3.74 189.412 7.142 189.412 8.906V9.194C189.412 10.994 188.764 14.27 183.202 14.27ZM182.824 11.642H183.022C185.236 11.642 185.794 10.058 185.794 8.96C185.794 7.826 185.236 6.314 183.022 6.314H182.824C180.52 6.314 180.052 7.826 180.052 8.96C180.052 10.058 180.52 11.642 182.824 11.642ZM200.071 14H191.827V4.01H199.711C201.997 4.01 203.437 4.82 203.437 6.404V6.494C203.437 7.736 202.645 8.474 201.439 8.672C202.663 8.816 203.761 9.68 203.761 11.12V11.192C203.761 13.01 202.573 14 200.071 14ZM195.337 7.988H198.559C199.405 7.988 199.837 7.664 199.837 7.034V6.944C199.837 6.368 199.441 6.026 198.559 6.026H195.337V7.988ZM195.337 11.984H198.703C199.639 11.984 200.161 11.678 200.161 10.976V10.832C200.161 10.202 199.729 9.806 198.703 9.806H195.337V11.984ZM212.47 14.27H211.912C206.53 14.27 205.702 10.994 205.702 9.176V8.924C205.702 7.124 206.53 3.74 211.894 3.74H212.488C218.032 3.74 218.68 7.142 218.68 8.906V9.194C218.68 10.994 218.032 14.27 212.47 14.27ZM212.092 11.642H212.29C214.504 11.642 215.062 10.058 215.062 8.96C215.062 7.826 214.504 6.314 212.29 6.314H212.092C209.788 6.314 209.32 7.826 209.32 8.96C209.32 10.058 209.788 11.642 212.092 11.642ZM229.519 7.952L224.695 14H221.095V4.01H224.605V10.058L229.429 4.01H233.029V14H229.519V7.952ZM227.287 2.984H226.747C223.885 2.984 223.381 1.04 223.381 0.104V0.0499994H226.027C226.027 0.284 226.135 1.004 227.035 1.004C227.881 1.004 228.007 0.284 228.007 0.0499994H230.617V0.104C230.617 1.04 229.897 2.984 227.287 2.984ZM244.013 14V6.674H240.143V4.01H251.393V6.674H247.523V14H244.013ZM262.478 9.014V8.96C262.478 7.88 261.974 6.422 259.778 6.422H259.598C257.492 6.422 256.826 7.808 256.826 8.96V9.014C256.826 10.112 257.492 11.552 259.598 11.552H259.778C261.974 11.552 262.478 10.04 262.478 9.014ZM253.334 17.438V4.01H256.808V5.288C257.24 4.82 258.554 3.812 260.822 3.812H261.056C264.872 3.812 266.114 6.422 266.114 8.798V9.104C266.114 11.282 264.836 14.198 261.038 14.198H260.786C258.5 14.198 257.276 13.154 256.844 12.722V17.438H253.334ZM273.184 12.002C275.236 12.002 275.938 10.706 275.938 9.95V9.176C275.632 9.302 274.75 9.482 273.742 9.644C272.05 9.932 271.51 10.166 271.51 10.868V10.904C271.51 11.534 271.96 12.002 273.184 12.002ZM276.046 12.614C275.614 13.136 274.534 14.198 272.194 14.198H271.906C269.116 14.198 267.964 12.686 267.964 11.03V10.958C267.964 9.23 269.062 8.168 272.446 7.88L275.182 7.646C275.74 7.592 275.938 7.412 275.938 6.998C275.938 6.53 275.794 6.026 273.85 6.026C272.014 6.026 271.834 6.746 271.834 7.124H268.234V7.088C268.234 6.098 268.63 3.776 273.544 3.776H274.102C279.052 3.776 279.358 5.81 279.358 7.142V10.436C279.358 11.066 279.484 11.318 280.186 11.318H280.564V14H277.72C276.676 14 276.19 13.262 276.046 12.614ZM286.075 14H282.565V4.01H286.075V7.646H290.971V4.01H294.481V14H290.971V10.31H286.075V14ZM305.753 10.076H309.425C309.425 11.588 308.525 14.27 303.719 14.27H302.837C297.851 14.27 296.915 11.03 296.915 9.14V8.888C296.915 6.998 297.797 3.74 302.819 3.74H303.647C308.471 3.74 309.425 6.368 309.425 7.808V7.826H305.753C305.699 7.538 305.357 6.296 303.287 6.296H303.107C301.037 6.296 300.551 7.718 300.551 8.924V8.942C300.551 10.184 301.145 11.66 303.179 11.66H303.359C305.447 11.66 305.753 10.31 305.753 10.076ZM322.075 14.27H321.553V17.384H318.043V14.27H317.521C311.959 14.27 311.311 10.994 311.311 9.194V8.906C311.311 7.142 311.959 3.74 317.503 3.74H318.043V0.608H321.553V3.74H322.093C327.637 3.74 328.285 7.142 328.285 8.906V9.194C328.285 10.994 327.637 14.27 322.075 14.27ZM317.701 11.732H318.043V6.224H317.701C315.487 6.224 314.929 7.646 314.929 8.96C314.929 10.238 315.487 11.732 317.701 11.732ZM321.895 6.224H321.553V11.732H321.895C324.109 11.732 324.667 10.238 324.667 8.96C324.667 7.664 324.109 6.224 321.895 6.224ZM336.958 14.27H336.4C331.018 14.27 330.19 10.994 330.19 9.176V8.924C330.19 7.124 331.018 3.74 336.382 3.74H336.976C342.52 3.74 343.168 7.142 343.168 8.906V9.194C343.168 10.994 342.52 14.27 336.958 14.27ZM336.58 11.642H336.778C338.992 11.642 339.55 10.058 339.55 8.96C339.55 7.826 338.992 6.314 336.778 6.314H336.58C334.276 6.314 333.808 7.826 333.808 8.96C333.808 10.058 334.276 11.642 336.58 11.642ZM354.763 9.014V8.96C354.763 7.88 354.259 6.422 352.063 6.422H351.883C349.777 6.422 349.111 7.808 349.111 8.96V9.014C349.111 10.112 349.777 11.552 351.883 11.552H352.063C354.259 11.552 354.763 10.04 354.763 9.014ZM345.619 17.438V4.01H349.093V5.288C349.525 4.82 350.839 3.812 353.107 3.812H353.341C357.157 3.812 358.399 6.422 358.399 8.798V9.104C358.399 11.282 357.121 14.198 353.323 14.198H353.071C350.785 14.198 349.561 13.154 349.129 12.722V17.438H345.619ZM364.081 7.268V14H360.841V4.01H365.791L368.761 10.382L371.731 4.01H376.501V14H372.991V7.268L369.877 14H367.195L364.081 7.268ZM384.014 12.002C386.066 12.002 386.768 10.706 386.768 9.95V9.176C386.462 9.302 385.58 9.482 384.572 9.644C382.88 9.932 382.34 10.166 382.34 10.868V10.904C382.34 11.534 382.79 12.002 384.014 12.002ZM386.876 12.614C386.444 13.136 385.364 14.198 383.024 14.198H382.736C379.946 14.198 378.794 12.686 378.794 11.03V10.958C378.794 9.23 379.892 8.168 383.276 7.88L386.012 7.646C386.57 7.592 386.768 7.412 386.768 6.998C386.768 6.53 386.624 6.026 384.68 6.026C382.844 6.026 382.664 6.746 382.664 7.124H379.064V7.088C379.064 6.098 379.46 3.776 384.374 3.776H384.932C389.882 3.776 390.188 5.81 390.188 7.142V10.436C390.188 11.066 390.314 11.318 391.016 11.318H391.394V14H388.55C387.506 14 387.02 13.262 386.876 12.614ZM406.752 11.336V16.124H403.422V14H393.396V4.01H396.906V11.336H401.441V4.01H404.952V11.336H406.752ZM417.271 7.952L412.447 14H408.847V4.01H412.357V10.058L417.181 4.01H420.781V14H417.271V7.952ZM432.124 7.952L427.3 14H423.7V4.01H427.21V10.058L432.034 4.01H435.634V14H432.124V7.952Z" fill="#C1A875" style="mix-blend-mode:color"/>
<defs>
<linearGradient id="paint0_linear_2018_1233" x1="1" y1="6" x2="438" y2="6.00005" gradientUnits="userSpaceOnUse">
<stop stop-color="#576167"/>
<stop offset="0.191294" stop-color="#9EA1A2"/>
<stop offset="0.396166" stop-color="#848989"/>
<stop offset="0.62055" stop-color="#576167"/>
<stop offset="0.830299" stop-color="#757A7C"/>
<stop offset="1" stop-color="#576167"/>
</linearGradient>
<radialGradient id="paint1_radial_2018_1233" cx="0" cy="0" r="1" gradientUnits="userSpaceOnUse" gradientTransform="translate(233.725 -3.20225) rotate(89.9999) scale(17.8315 330.605)">
<stop stop-color="white"/>
<stop offset="1" stop-color="white" stop-opacity="0"/>
</radialGradient>
<radialGradient id="paint2_radial_2018_1233" cx="0" cy="0" r="1" gradientUnits="userSpaceOnUse" gradientTransform="translate(258.443 23.6629) rotate(-88.4317) scale(25.5601 472.58)">
<stop stop-color="white"/>
<stop offset="1" stop-color="white" stop-opacity="0"/>
</radialGradient>
</defs>
</svg>
