<svg width="294" height="18" viewBox="0 0 294 18" fill="none" xmlns="http://www.w3.org/2000/svg">
<path d="M8.30925 14.198H7.55325C1.82925 14.198 0.785248 11.12 0.785248 9.608V9.446H4.74525C4.79925 9.95 5.10525 11.21 8.02125 11.21C10.9732 11.21 11.4412 10.436 11.4412 9.644C11.4412 8.852 11.1352 8.438 9.64125 8.438H5.21325V5.72H9.62325C11.0632 5.72 11.2612 5.288 11.2612 4.64C11.2612 3.92 10.8652 3.326 7.98525 3.326C5.12325 3.326 4.87125 4.28 4.81725 4.712H0.965248V4.514C0.965248 3.29 1.77525 0.446 7.30125 0.446H8.30925C13.8352 0.446 14.9512 2.3 14.9512 3.884V4.01C14.9512 5.522 14.0152 6.206 12.9532 6.494C14.1772 6.782 15.3652 7.664 15.3652 9.554V9.68C15.3652 11.822 14.0512 14.198 8.30925 14.198ZM21.8078 10.508V14H17.6138V10.508H21.8078ZM30.656 14V0.608H35.588L39.854 9.68L44.246 0.608H48.872V14H45.254V5.234L41.186 14H38.288L34.22 5.234V14H30.656ZM56.7072 12.002C58.7592 12.002 59.4612 10.706 59.4612 9.95V9.176C59.1552 9.302 58.2732 9.482 57.2652 9.644C55.5732 9.932 55.0332 10.166 55.0332 10.868V10.904C55.0332 11.534 55.4832 12.002 56.7072 12.002ZM59.5692 12.614C59.1372 13.136 58.0572 14.198 55.7172 14.198H55.4292C52.6392 14.198 51.4872 12.686 51.4872 11.03V10.958C51.4872 9.23 52.5852 8.168 55.9692 7.88L58.7052 7.646C59.2632 7.592 59.4612 7.412 59.4612 6.998C59.4612 6.53 59.3172 6.026 57.3732 6.026C55.5372 6.026 55.3572 6.746 55.3572 7.124H51.7572V7.088C51.7572 6.098 52.1532 3.776 57.0672 3.776H57.6252C62.5752 3.776 62.8812 5.81 62.8812 7.142V10.436C62.8812 11.066 63.0072 11.318 63.7092 11.318H64.0872V14H61.2432C60.1992 14 59.7132 13.262 59.5692 12.614ZM74.4409 10.076H78.1129C78.1129 11.588 77.2129 14.27 72.4069 14.27H71.5249C66.5389 14.27 65.6029 11.03 65.6029 9.14V8.888C65.6029 6.998 66.4849 3.74 71.5069 3.74H72.3349C77.1589 3.74 78.1129 6.368 78.1129 7.808V7.826H74.4409C74.3869 7.538 74.0449 6.296 71.9749 6.296H71.7949C69.7249 6.296 69.2389 7.718 69.2389 8.924V8.942C69.2389 10.184 69.8329 11.66 71.8669 11.66H72.0469C74.1349 11.66 74.4409 10.31 74.4409 10.076ZM83.3649 14V6.674H79.4949V4.01H90.7449V6.674H86.8749V14H83.3649ZM98.4634 6.08C96.6454 6.08 95.9614 6.818 95.7814 7.862H101.073C101.073 7.124 100.713 6.08 98.4634 6.08ZM101.145 10.886H104.799C104.799 11.714 104.151 14.234 98.9854 14.234H98.3194C93.3874 14.234 92.1634 11.534 92.1634 9.14V8.888C92.1634 6.638 93.2794 3.794 98.0134 3.794H98.8054C103.917 3.794 104.835 6.638 104.835 9.428V9.752H95.7454C95.8894 10.904 96.6274 11.84 98.7694 11.84C100.803 11.84 101.055 11.048 101.145 10.886ZM116.419 9.014V8.96C116.419 7.88 115.915 6.422 113.719 6.422H113.539C111.433 6.422 110.767 7.808 110.767 8.96V9.014C110.767 10.112 111.433 11.552 113.539 11.552H113.719C115.915 11.552 116.419 10.04 116.419 9.014ZM107.275 17.438V4.01H110.749V5.288C111.181 4.82 112.495 3.812 114.763 3.812H114.997C118.813 3.812 120.055 6.422 120.055 8.798V9.104C120.055 11.282 118.777 14.198 114.979 14.198H114.727C112.441 14.198 111.217 13.154 110.785 12.722V17.438H107.275ZM128.456 17.438V14.936H130.652C130.994 14.936 131.174 14.792 131.174 14.522V14.504C131.174 14.288 131.12 14.09 130.85 13.532L126.566 4.01H130.418L133.19 11.174L135.944 4.01H139.472L134.9 15.008C134.198 16.646 133.334 17.438 131.678 17.438H128.456ZM149.429 10.076H153.101C153.101 11.588 152.201 14.27 147.395 14.27H146.513C141.527 14.27 140.591 11.03 140.591 9.14V8.888C140.591 6.998 141.473 3.74 146.495 3.74H147.323C152.147 3.74 153.101 6.368 153.101 7.808V7.826H149.429C149.375 7.538 149.033 6.296 146.963 6.296H146.783C144.713 6.296 144.227 7.718 144.227 8.924V8.942C144.227 10.184 144.821 11.66 146.855 11.66H147.035C149.123 11.66 149.429 10.31 149.429 10.076ZM158.353 14V6.674H154.483V4.01H165.733V6.674H161.863V14H158.353ZM173.902 14.27H173.344C167.962 14.27 167.134 10.994 167.134 9.176V8.924C167.134 7.124 167.962 3.74 173.326 3.74H173.92C179.464 3.74 180.112 7.142 180.112 8.906V9.194C180.112 10.994 179.464 14.27 173.902 14.27ZM173.524 11.642H173.722C175.936 11.642 176.494 10.058 176.494 8.96C176.494 7.826 175.936 6.314 173.722 6.314H173.524C171.22 6.314 170.752 7.826 170.752 8.96C170.752 10.058 171.22 11.642 173.524 11.642ZM190.95 7.952L186.126 14H182.526V4.01H186.036V10.058L190.86 4.01H194.46V14H190.95V7.952ZM188.718 2.984H188.178C185.316 2.984 184.812 1.04 184.812 0.104V0.0499994H187.458C187.458 0.284 187.566 1.004 188.466 1.004C189.312 1.004 189.438 0.284 189.438 0.0499994H192.048V0.104C192.048 1.04 191.328 2.984 188.718 2.984ZM204.796 4.01H208.306V14H204.796V10.562C204.022 10.652 203.122 10.742 202.186 10.742C198.226 10.742 196.732 9.626 196.732 6.458V4.01H200.242V5.81C200.242 7.682 200.872 8.006 202.726 8.006C203.428 8.006 204.238 7.952 204.796 7.88V4.01ZM219.638 7.952L214.814 14H211.214V4.01H214.724V10.058L219.548 4.01H223.148V14H219.638V7.952ZM234.311 14H226.067V4.01H233.951C236.237 4.01 237.677 4.82 237.677 6.404V6.494C237.677 7.736 236.885 8.474 235.679 8.672C236.903 8.816 238.001 9.68 238.001 11.12V11.192C238.001 13.01 236.813 14 234.311 14ZM229.577 7.988H232.799C233.645 7.988 234.077 7.664 234.077 7.034V6.944C234.077 6.368 233.681 6.026 232.799 6.026H229.577V7.988ZM229.577 11.984H232.943C233.879 11.984 234.401 11.678 234.401 10.976V10.832C234.401 10.202 233.969 9.806 232.943 9.806H229.577V11.984ZM246.71 14.27H246.152C240.77 14.27 239.942 10.994 239.942 9.176V8.924C239.942 7.124 240.77 3.74 246.134 3.74H246.728C252.272 3.74 252.92 7.142 252.92 8.906V9.194C252.92 10.994 252.272 14.27 246.71 14.27ZM246.332 11.642H246.53C248.744 11.642 249.302 10.058 249.302 8.96C249.302 7.826 248.744 6.314 246.53 6.314H246.332C244.028 6.314 243.56 7.826 243.56 8.96C243.56 10.058 244.028 11.642 246.332 11.642ZM263.687 10.076H267.359C267.359 11.588 266.459 14.27 261.653 14.27H260.771C255.785 14.27 254.849 11.03 254.849 9.14V8.888C254.849 6.998 255.731 3.74 260.753 3.74H261.581C266.405 3.74 267.359 6.368 267.359 7.808V7.826H263.687C263.633 7.538 263.291 6.296 261.221 6.296H261.041C258.971 6.296 258.485 7.718 258.485 8.924V8.942C258.485 10.184 259.079 11.66 261.113 11.66H261.293C263.381 11.66 263.687 10.31 263.687 10.076ZM272.611 14V6.674H268.741V4.01H279.991V6.674H276.121V14H272.611ZM290.32 7.952L285.496 14H281.896V4.01H285.406V10.058L290.23 4.01H293.83V14H290.32V7.952Z" fill="url(#paint0_linear_2018_1240)"/>
<path d="M8.30925 14.198H7.55325C1.82925 14.198 0.785248 11.12 0.785248 9.608V9.446H4.74525C4.79925 9.95 5.10525 11.21 8.02125 11.21C10.9732 11.21 11.4412 10.436 11.4412 9.644C11.4412 8.852 11.1352 8.438 9.64125 8.438H5.21325V5.72H9.62325C11.0632 5.72 11.2612 5.288 11.2612 4.64C11.2612 3.92 10.8652 3.326 7.98525 3.326C5.12325 3.326 4.87125 4.28 4.81725 4.712H0.965248V4.514C0.965248 3.29 1.77525 0.446 7.30125 0.446H8.30925C13.8352 0.446 14.9512 2.3 14.9512 3.884V4.01C14.9512 5.522 14.0152 6.206 12.9532 6.494C14.1772 6.782 15.3652 7.664 15.3652 9.554V9.68C15.3652 11.822 14.0512 14.198 8.30925 14.198ZM21.8078 10.508V14H17.6138V10.508H21.8078ZM30.656 14V0.608H35.588L39.854 9.68L44.246 0.608H48.872V14H45.254V5.234L41.186 14H38.288L34.22 5.234V14H30.656ZM56.7072 12.002C58.7592 12.002 59.4612 10.706 59.4612 9.95V9.176C59.1552 9.302 58.2732 9.482 57.2652 9.644C55.5732 9.932 55.0332 10.166 55.0332 10.868V10.904C55.0332 11.534 55.4832 12.002 56.7072 12.002ZM59.5692 12.614C59.1372 13.136 58.0572 14.198 55.7172 14.198H55.4292C52.6392 14.198 51.4872 12.686 51.4872 11.03V10.958C51.4872 9.23 52.5852 8.168 55.9692 7.88L58.7052 7.646C59.2632 7.592 59.4612 7.412 59.4612 6.998C59.4612 6.53 59.3172 6.026 57.3732 6.026C55.5372 6.026 55.3572 6.746 55.3572 7.124H51.7572V7.088C51.7572 6.098 52.1532 3.776 57.0672 3.776H57.6252C62.5752 3.776 62.8812 5.81 62.8812 7.142V10.436C62.8812 11.066 63.0072 11.318 63.7092 11.318H64.0872V14H61.2432C60.1992 14 59.7132 13.262 59.5692 12.614ZM74.4409 10.076H78.1129C78.1129 11.588 77.2129 14.27 72.4069 14.27H71.5249C66.5389 14.27 65.6029 11.03 65.6029 9.14V8.888C65.6029 6.998 66.4849 3.74 71.5069 3.74H72.3349C77.1589 3.74 78.1129 6.368 78.1129 7.808V7.826H74.4409C74.3869 7.538 74.0449 6.296 71.9749 6.296H71.7949C69.7249 6.296 69.2389 7.718 69.2389 8.924V8.942C69.2389 10.184 69.8329 11.66 71.8669 11.66H72.0469C74.1349 11.66 74.4409 10.31 74.4409 10.076ZM83.3649 14V6.674H79.4949V4.01H90.7449V6.674H86.8749V14H83.3649ZM98.4634 6.08C96.6454 6.08 95.9614 6.818 95.7814 7.862H101.073C101.073 7.124 100.713 6.08 98.4634 6.08ZM101.145 10.886H104.799C104.799 11.714 104.151 14.234 98.9854 14.234H98.3194C93.3874 14.234 92.1634 11.534 92.1634 9.14V8.888C92.1634 6.638 93.2794 3.794 98.0134 3.794H98.8054C103.917 3.794 104.835 6.638 104.835 9.428V9.752H95.7454C95.8894 10.904 96.6274 11.84 98.7694 11.84C100.803 11.84 101.055 11.048 101.145 10.886ZM116.419 9.014V8.96C116.419 7.88 115.915 6.422 113.719 6.422H113.539C111.433 6.422 110.767 7.808 110.767 8.96V9.014C110.767 10.112 111.433 11.552 113.539 11.552H113.719C115.915 11.552 116.419 10.04 116.419 9.014ZM107.275 17.438V4.01H110.749V5.288C111.181 4.82 112.495 3.812 114.763 3.812H114.997C118.813 3.812 120.055 6.422 120.055 8.798V9.104C120.055 11.282 118.777 14.198 114.979 14.198H114.727C112.441 14.198 111.217 13.154 110.785 12.722V17.438H107.275ZM128.456 17.438V14.936H130.652C130.994 14.936 131.174 14.792 131.174 14.522V14.504C131.174 14.288 131.12 14.09 130.85 13.532L126.566 4.01H130.418L133.19 11.174L135.944 4.01H139.472L134.9 15.008C134.198 16.646 133.334 17.438 131.678 17.438H128.456ZM149.429 10.076H153.101C153.101 11.588 152.201 14.27 147.395 14.27H146.513C141.527 14.27 140.591 11.03 140.591 9.14V8.888C140.591 6.998 141.473 3.74 146.495 3.74H147.323C152.147 3.74 153.101 6.368 153.101 7.808V7.826H149.429C149.375 7.538 149.033 6.296 146.963 6.296H146.783C144.713 6.296 144.227 7.718 144.227 8.924V8.942C144.227 10.184 144.821 11.66 146.855 11.66H147.035C149.123 11.66 149.429 10.31 149.429 10.076ZM158.353 14V6.674H154.483V4.01H165.733V6.674H161.863V14H158.353ZM173.902 14.27H173.344C167.962 14.27 167.134 10.994 167.134 9.176V8.924C167.134 7.124 167.962 3.74 173.326 3.74H173.92C179.464 3.74 180.112 7.142 180.112 8.906V9.194C180.112 10.994 179.464 14.27 173.902 14.27ZM173.524 11.642H173.722C175.936 11.642 176.494 10.058 176.494 8.96C176.494 7.826 175.936 6.314 173.722 6.314H173.524C171.22 6.314 170.752 7.826 170.752 8.96C170.752 10.058 171.22 11.642 173.524 11.642ZM190.95 7.952L186.126 14H182.526V4.01H186.036V10.058L190.86 4.01H194.46V14H190.95V7.952ZM188.718 2.984H188.178C185.316 2.984 184.812 1.04 184.812 0.104V0.0499994H187.458C187.458 0.284 187.566 1.004 188.466 1.004C189.312 1.004 189.438 0.284 189.438 0.0499994H192.048V0.104C192.048 1.04 191.328 2.984 188.718 2.984ZM204.796 4.01H208.306V14H204.796V10.562C204.022 10.652 203.122 10.742 202.186 10.742C198.226 10.742 196.732 9.626 196.732 6.458V4.01H200.242V5.81C200.242 7.682 200.872 8.006 202.726 8.006C203.428 8.006 204.238 7.952 204.796 7.88V4.01ZM219.638 7.952L214.814 14H211.214V4.01H214.724V10.058L219.548 4.01H223.148V14H219.638V7.952ZM234.311 14H226.067V4.01H233.951C236.237 4.01 237.677 4.82 237.677 6.404V6.494C237.677 7.736 236.885 8.474 235.679 8.672C236.903 8.816 238.001 9.68 238.001 11.12V11.192C238.001 13.01 236.813 14 234.311 14ZM229.577 7.988H232.799C233.645 7.988 234.077 7.664 234.077 7.034V6.944C234.077 6.368 233.681 6.026 232.799 6.026H229.577V7.988ZM229.577 11.984H232.943C233.879 11.984 234.401 11.678 234.401 10.976V10.832C234.401 10.202 233.969 9.806 232.943 9.806H229.577V11.984ZM246.71 14.27H246.152C240.77 14.27 239.942 10.994 239.942 9.176V8.924C239.942 7.124 240.77 3.74 246.134 3.74H246.728C252.272 3.74 252.92 7.142 252.92 8.906V9.194C252.92 10.994 252.272 14.27 246.71 14.27ZM246.332 11.642H246.53C248.744 11.642 249.302 10.058 249.302 8.96C249.302 7.826 248.744 6.314 246.53 6.314H246.332C244.028 6.314 243.56 7.826 243.56 8.96C243.56 10.058 244.028 11.642 246.332 11.642ZM263.687 10.076H267.359C267.359 11.588 266.459 14.27 261.653 14.27H260.771C255.785 14.27 254.849 11.03 254.849 9.14V8.888C254.849 6.998 255.731 3.74 260.753 3.74H261.581C266.405 3.74 267.359 6.368 267.359 7.808V7.826H263.687C263.633 7.538 263.291 6.296 261.221 6.296H261.041C258.971 6.296 258.485 7.718 258.485 8.924V8.942C258.485 10.184 259.079 11.66 261.113 11.66H261.293C263.381 11.66 263.687 10.31 263.687 10.076ZM272.611 14V6.674H268.741V4.01H279.991V6.674H276.121V14H272.611ZM290.32 7.952L285.496 14H281.896V4.01H285.406V10.058L290.23 4.01H293.83V14H290.32V7.952Z" fill="url(#paint1_radial_2018_1240)" style="mix-blend-mode:overlay"/>
<path d="M8.30925 14.198H7.55325C1.82925 14.198 0.785248 11.12 0.785248 9.608V9.446H4.74525C4.79925 9.95 5.10525 11.21 8.02125 11.21C10.9732 11.21 11.4412 10.436 11.4412 9.644C11.4412 8.852 11.1352 8.438 9.64125 8.438H5.21325V5.72H9.62325C11.0632 5.72 11.2612 5.288 11.2612 4.64C11.2612 3.92 10.8652 3.326 7.98525 3.326C5.12325 3.326 4.87125 4.28 4.81725 4.712H0.965248V4.514C0.965248 3.29 1.77525 0.446 7.30125 0.446H8.30925C13.8352 0.446 14.9512 2.3 14.9512 3.884V4.01C14.9512 5.522 14.0152 6.206 12.9532 6.494C14.1772 6.782 15.3652 7.664 15.3652 9.554V9.68C15.3652 11.822 14.0512 14.198 8.30925 14.198ZM21.8078 10.508V14H17.6138V10.508H21.8078ZM30.656 14V0.608H35.588L39.854 9.68L44.246 0.608H48.872V14H45.254V5.234L41.186 14H38.288L34.22 5.234V14H30.656ZM56.7072 12.002C58.7592 12.002 59.4612 10.706 59.4612 9.95V9.176C59.1552 9.302 58.2732 9.482 57.2652 9.644C55.5732 9.932 55.0332 10.166 55.0332 10.868V10.904C55.0332 11.534 55.4832 12.002 56.7072 12.002ZM59.5692 12.614C59.1372 13.136 58.0572 14.198 55.7172 14.198H55.4292C52.6392 14.198 51.4872 12.686 51.4872 11.03V10.958C51.4872 9.23 52.5852 8.168 55.9692 7.88L58.7052 7.646C59.2632 7.592 59.4612 7.412 59.4612 6.998C59.4612 6.53 59.3172 6.026 57.3732 6.026C55.5372 6.026 55.3572 6.746 55.3572 7.124H51.7572V7.088C51.7572 6.098 52.1532 3.776 57.0672 3.776H57.6252C62.5752 3.776 62.8812 5.81 62.8812 7.142V10.436C62.8812 11.066 63.0072 11.318 63.7092 11.318H64.0872V14H61.2432C60.1992 14 59.7132 13.262 59.5692 12.614ZM74.4409 10.076H78.1129C78.1129 11.588 77.2129 14.27 72.4069 14.27H71.5249C66.5389 14.27 65.6029 11.03 65.6029 9.14V8.888C65.6029 6.998 66.4849 3.74 71.5069 3.74H72.3349C77.1589 3.74 78.1129 6.368 78.1129 7.808V7.826H74.4409C74.3869 7.538 74.0449 6.296 71.9749 6.296H71.7949C69.7249 6.296 69.2389 7.718 69.2389 8.924V8.942C69.2389 10.184 69.8329 11.66 71.8669 11.66H72.0469C74.1349 11.66 74.4409 10.31 74.4409 10.076ZM83.3649 14V6.674H79.4949V4.01H90.7449V6.674H86.8749V14H83.3649ZM98.4634 6.08C96.6454 6.08 95.9614 6.818 95.7814 7.862H101.073C101.073 7.124 100.713 6.08 98.4634 6.08ZM101.145 10.886H104.799C104.799 11.714 104.151 14.234 98.9854 14.234H98.3194C93.3874 14.234 92.1634 11.534 92.1634 9.14V8.888C92.1634 6.638 93.2794 3.794 98.0134 3.794H98.8054C103.917 3.794 104.835 6.638 104.835 9.428V9.752H95.7454C95.8894 10.904 96.6274 11.84 98.7694 11.84C100.803 11.84 101.055 11.048 101.145 10.886ZM116.419 9.014V8.96C116.419 7.88 115.915 6.422 113.719 6.422H113.539C111.433 6.422 110.767 7.808 110.767 8.96V9.014C110.767 10.112 111.433 11.552 113.539 11.552H113.719C115.915 11.552 116.419 10.04 116.419 9.014ZM107.275 17.438V4.01H110.749V5.288C111.181 4.82 112.495 3.812 114.763 3.812H114.997C118.813 3.812 120.055 6.422 120.055 8.798V9.104C120.055 11.282 118.777 14.198 114.979 14.198H114.727C112.441 14.198 111.217 13.154 110.785 12.722V17.438H107.275ZM128.456 17.438V14.936H130.652C130.994 14.936 131.174 14.792 131.174 14.522V14.504C131.174 14.288 131.12 14.09 130.85 13.532L126.566 4.01H130.418L133.19 11.174L135.944 4.01H139.472L134.9 15.008C134.198 16.646 133.334 17.438 131.678 17.438H128.456ZM149.429 10.076H153.101C153.101 11.588 152.201 14.27 147.395 14.27H146.513C141.527 14.27 140.591 11.03 140.591 9.14V8.888C140.591 6.998 141.473 3.74 146.495 3.74H147.323C152.147 3.74 153.101 6.368 153.101 7.808V7.826H149.429C149.375 7.538 149.033 6.296 146.963 6.296H146.783C144.713 6.296 144.227 7.718 144.227 8.924V8.942C144.227 10.184 144.821 11.66 146.855 11.66H147.035C149.123 11.66 149.429 10.31 149.429 10.076ZM158.353 14V6.674H154.483V4.01H165.733V6.674H161.863V14H158.353ZM173.902 14.27H173.344C167.962 14.27 167.134 10.994 167.134 9.176V8.924C167.134 7.124 167.962 3.74 173.326 3.74H173.92C179.464 3.74 180.112 7.142 180.112 8.906V9.194C180.112 10.994 179.464 14.27 173.902 14.27ZM173.524 11.642H173.722C175.936 11.642 176.494 10.058 176.494 8.96C176.494 7.826 175.936 6.314 173.722 6.314H173.524C171.22 6.314 170.752 7.826 170.752 8.96C170.752 10.058 171.22 11.642 173.524 11.642ZM190.95 7.952L186.126 14H182.526V4.01H186.036V10.058L190.86 4.01H194.46V14H190.95V7.952ZM188.718 2.984H188.178C185.316 2.984 184.812 1.04 184.812 0.104V0.0499994H187.458C187.458 0.284 187.566 1.004 188.466 1.004C189.312 1.004 189.438 0.284 189.438 0.0499994H192.048V0.104C192.048 1.04 191.328 2.984 188.718 2.984ZM204.796 4.01H208.306V14H204.796V10.562C204.022 10.652 203.122 10.742 202.186 10.742C198.226 10.742 196.732 9.626 196.732 6.458V4.01H200.242V5.81C200.242 7.682 200.872 8.006 202.726 8.006C203.428 8.006 204.238 7.952 204.796 7.88V4.01ZM219.638 7.952L214.814 14H211.214V4.01H214.724V10.058L219.548 4.01H223.148V14H219.638V7.952ZM234.311 14H226.067V4.01H233.951C236.237 4.01 237.677 4.82 237.677 6.404V6.494C237.677 7.736 236.885 8.474 235.679 8.672C236.903 8.816 238.001 9.68 238.001 11.12V11.192C238.001 13.01 236.813 14 234.311 14ZM229.577 7.988H232.799C233.645 7.988 234.077 7.664 234.077 7.034V6.944C234.077 6.368 233.681 6.026 232.799 6.026H229.577V7.988ZM229.577 11.984H232.943C233.879 11.984 234.401 11.678 234.401 10.976V10.832C234.401 10.202 233.969 9.806 232.943 9.806H229.577V11.984ZM246.71 14.27H246.152C240.77 14.27 239.942 10.994 239.942 9.176V8.924C239.942 7.124 240.77 3.74 246.134 3.74H246.728C252.272 3.74 252.92 7.142 252.92 8.906V9.194C252.92 10.994 252.272 14.27 246.71 14.27ZM246.332 11.642H246.53C248.744 11.642 249.302 10.058 249.302 8.96C249.302 7.826 248.744 6.314 246.53 6.314H246.332C244.028 6.314 243.56 7.826 243.56 8.96C243.56 10.058 244.028 11.642 246.332 11.642ZM263.687 10.076H267.359C267.359 11.588 266.459 14.27 261.653 14.27H260.771C255.785 14.27 254.849 11.03 254.849 9.14V8.888C254.849 6.998 255.731 3.74 260.753 3.74H261.581C266.405 3.74 267.359 6.368 267.359 7.808V7.826H263.687C263.633 7.538 263.291 6.296 261.221 6.296H261.041C258.971 6.296 258.485 7.718 258.485 8.924V8.942C258.485 10.184 259.079 11.66 261.113 11.66H261.293C263.381 11.66 263.687 10.31 263.687 10.076ZM272.611 14V6.674H268.741V4.01H279.991V6.674H276.121V14H272.611ZM290.32 7.952L285.496 14H281.896V4.01H285.406V10.058L290.23 4.01H293.83V14H290.32V7.952Z" fill="url(#paint2_radial_2018_1240)"/>
<path d="M8.30925 14.198H7.55325C1.82925 14.198 0.785248 11.12 0.785248 9.608V9.446H4.74525C4.79925 9.95 5.10525 11.21 8.02125 11.21C10.9732 11.21 11.4412 10.436 11.4412 9.644C11.4412 8.852 11.1352 8.438 9.64125 8.438H5.21325V5.72H9.62325C11.0632 5.72 11.2612 5.288 11.2612 4.64C11.2612 3.92 10.8652 3.326 7.98525 3.326C5.12325 3.326 4.87125 4.28 4.81725 4.712H0.965248V4.514C0.965248 3.29 1.77525 0.446 7.30125 0.446H8.30925C13.8352 0.446 14.9512 2.3 14.9512 3.884V4.01C14.9512 5.522 14.0152 6.206 12.9532 6.494C14.1772 6.782 15.3652 7.664 15.3652 9.554V9.68C15.3652 11.822 14.0512 14.198 8.30925 14.198ZM21.8078 10.508V14H17.6138V10.508H21.8078ZM30.656 14V0.608H35.588L39.854 9.68L44.246 0.608H48.872V14H45.254V5.234L41.186 14H38.288L34.22 5.234V14H30.656ZM56.7072 12.002C58.7592 12.002 59.4612 10.706 59.4612 9.95V9.176C59.1552 9.302 58.2732 9.482 57.2652 9.644C55.5732 9.932 55.0332 10.166 55.0332 10.868V10.904C55.0332 11.534 55.4832 12.002 56.7072 12.002ZM59.5692 12.614C59.1372 13.136 58.0572 14.198 55.7172 14.198H55.4292C52.6392 14.198 51.4872 12.686 51.4872 11.03V10.958C51.4872 9.23 52.5852 8.168 55.9692 7.88L58.7052 7.646C59.2632 7.592 59.4612 7.412 59.4612 6.998C59.4612 6.53 59.3172 6.026 57.3732 6.026C55.5372 6.026 55.3572 6.746 55.3572 7.124H51.7572V7.088C51.7572 6.098 52.1532 3.776 57.0672 3.776H57.6252C62.5752 3.776 62.8812 5.81 62.8812 7.142V10.436C62.8812 11.066 63.0072 11.318 63.7092 11.318H64.0872V14H61.2432C60.1992 14 59.7132 13.262 59.5692 12.614ZM74.4409 10.076H78.1129C78.1129 11.588 77.2129 14.27 72.4069 14.27H71.5249C66.5389 14.27 65.6029 11.03 65.6029 9.14V8.888C65.6029 6.998 66.4849 3.74 71.5069 3.74H72.3349C77.1589 3.74 78.1129 6.368 78.1129 7.808V7.826H74.4409C74.3869 7.538 74.0449 6.296 71.9749 6.296H71.7949C69.7249 6.296 69.2389 7.718 69.2389 8.924V8.942C69.2389 10.184 69.8329 11.66 71.8669 11.66H72.0469C74.1349 11.66 74.4409 10.31 74.4409 10.076ZM83.3649 14V6.674H79.4949V4.01H90.7449V6.674H86.8749V14H83.3649ZM98.4634 6.08C96.6454 6.08 95.9614 6.818 95.7814 7.862H101.073C101.073 7.124 100.713 6.08 98.4634 6.08ZM101.145 10.886H104.799C104.799 11.714 104.151 14.234 98.9854 14.234H98.3194C93.3874 14.234 92.1634 11.534 92.1634 9.14V8.888C92.1634 6.638 93.2794 3.794 98.0134 3.794H98.8054C103.917 3.794 104.835 6.638 104.835 9.428V9.752H95.7454C95.8894 10.904 96.6274 11.84 98.7694 11.84C100.803 11.84 101.055 11.048 101.145 10.886ZM116.419 9.014V8.96C116.419 7.88 115.915 6.422 113.719 6.422H113.539C111.433 6.422 110.767 7.808 110.767 8.96V9.014C110.767 10.112 111.433 11.552 113.539 11.552H113.719C115.915 11.552 116.419 10.04 116.419 9.014ZM107.275 17.438V4.01H110.749V5.288C111.181 4.82 112.495 3.812 114.763 3.812H114.997C118.813 3.812 120.055 6.422 120.055 8.798V9.104C120.055 11.282 118.777 14.198 114.979 14.198H114.727C112.441 14.198 111.217 13.154 110.785 12.722V17.438H107.275ZM128.456 17.438V14.936H130.652C130.994 14.936 131.174 14.792 131.174 14.522V14.504C131.174 14.288 131.12 14.09 130.85 13.532L126.566 4.01H130.418L133.19 11.174L135.944 4.01H139.472L134.9 15.008C134.198 16.646 133.334 17.438 131.678 17.438H128.456ZM149.429 10.076H153.101C153.101 11.588 152.201 14.27 147.395 14.27H146.513C141.527 14.27 140.591 11.03 140.591 9.14V8.888C140.591 6.998 141.473 3.74 146.495 3.74H147.323C152.147 3.74 153.101 6.368 153.101 7.808V7.826H149.429C149.375 7.538 149.033 6.296 146.963 6.296H146.783C144.713 6.296 144.227 7.718 144.227 8.924V8.942C144.227 10.184 144.821 11.66 146.855 11.66H147.035C149.123 11.66 149.429 10.31 149.429 10.076ZM158.353 14V6.674H154.483V4.01H165.733V6.674H161.863V14H158.353ZM173.902 14.27H173.344C167.962 14.27 167.134 10.994 167.134 9.176V8.924C167.134 7.124 167.962 3.74 173.326 3.74H173.92C179.464 3.74 180.112 7.142 180.112 8.906V9.194C180.112 10.994 179.464 14.27 173.902 14.27ZM173.524 11.642H173.722C175.936 11.642 176.494 10.058 176.494 8.96C176.494 7.826 175.936 6.314 173.722 6.314H173.524C171.22 6.314 170.752 7.826 170.752 8.96C170.752 10.058 171.22 11.642 173.524 11.642ZM190.95 7.952L186.126 14H182.526V4.01H186.036V10.058L190.86 4.01H194.46V14H190.95V7.952ZM188.718 2.984H188.178C185.316 2.984 184.812 1.04 184.812 0.104V0.0499994H187.458C187.458 0.284 187.566 1.004 188.466 1.004C189.312 1.004 189.438 0.284 189.438 0.0499994H192.048V0.104C192.048 1.04 191.328 2.984 188.718 2.984ZM204.796 4.01H208.306V14H204.796V10.562C204.022 10.652 203.122 10.742 202.186 10.742C198.226 10.742 196.732 9.626 196.732 6.458V4.01H200.242V5.81C200.242 7.682 200.872 8.006 202.726 8.006C203.428 8.006 204.238 7.952 204.796 7.88V4.01ZM219.638 7.952L214.814 14H211.214V4.01H214.724V10.058L219.548 4.01H223.148V14H219.638V7.952ZM234.311 14H226.067V4.01H233.951C236.237 4.01 237.677 4.82 237.677 6.404V6.494C237.677 7.736 236.885 8.474 235.679 8.672C236.903 8.816 238.001 9.68 238.001 11.12V11.192C238.001 13.01 236.813 14 234.311 14ZM229.577 7.988H232.799C233.645 7.988 234.077 7.664 234.077 7.034V6.944C234.077 6.368 233.681 6.026 232.799 6.026H229.577V7.988ZM229.577 11.984H232.943C233.879 11.984 234.401 11.678 234.401 10.976V10.832C234.401 10.202 233.969 9.806 232.943 9.806H229.577V11.984ZM246.71 14.27H246.152C240.77 14.27 239.942 10.994 239.942 9.176V8.924C239.942 7.124 240.77 3.74 246.134 3.74H246.728C252.272 3.74 252.92 7.142 252.92 8.906V9.194C252.92 10.994 252.272 14.27 246.71 14.27ZM246.332 11.642H246.53C248.744 11.642 249.302 10.058 249.302 8.96C249.302 7.826 248.744 6.314 246.53 6.314H246.332C244.028 6.314 243.56 7.826 243.56 8.96C243.56 10.058 244.028 11.642 246.332 11.642ZM263.687 10.076H267.359C267.359 11.588 266.459 14.27 261.653 14.27H260.771C255.785 14.27 254.849 11.03 254.849 9.14V8.888C254.849 6.998 255.731 3.74 260.753 3.74H261.581C266.405 3.74 267.359 6.368 267.359 7.808V7.826H263.687C263.633 7.538 263.291 6.296 261.221 6.296H261.041C258.971 6.296 258.485 7.718 258.485 8.924V8.942C258.485 10.184 259.079 11.66 261.113 11.66H261.293C263.381 11.66 263.687 10.31 263.687 10.076ZM272.611 14V6.674H268.741V4.01H279.991V6.674H276.121V14H272.611ZM290.32 7.952L285.496 14H281.896V4.01H285.406V10.058L290.23 4.01H293.83V14H290.32V7.952Z" fill="#C1A875" style="mix-blend-mode:color"/>
<defs>
<linearGradient id="paint0_linear_2018_1240" x1="2" y1="6" x2="296" y2="6.00002" gradientUnits="userSpaceOnUse">
<stop stop-color="#576167"/>
<stop offset="0.191294" stop-color="#9EA1A2"/>
<stop offset="0.396166" stop-color="#848989"/>
<stop offset="0.62055" stop-color="#576167"/>
<stop offset="0.830299" stop-color="#757A7C"/>
<stop offset="1" stop-color="#576167"/>
</linearGradient>
<radialGradient id="paint1_radial_2018_1240" cx="0" cy="0" r="1" gradientUnits="userSpaceOnUse" gradientTransform="translate(158.57 -3.20225) rotate(90) scale(17.8315 222.421)">
<stop stop-color="white"/>
<stop offset="1" stop-color="white" stop-opacity="0"/>
</radialGradient>
<radialGradient id="paint2_radial_2018_1240" cx="0" cy="0" r="1" gradientUnits="userSpaceOnUse" gradientTransform="translate(175.2 23.6629) rotate(-88.9447) scale(25.5549 318.002)">
<stop stop-color="white"/>
<stop offset="1" stop-color="white" stop-opacity="0"/>
</radialGradient>
</defs>
</svg>
