<svg width="306" height="17" viewBox="0 0 306 17" fill="none" xmlns="http://www.w3.org/2000/svg">
<path d="M0.821248 11.084V8.726L8.05725 0.518H12.9712V8.204H15.7432V11.084H12.9712V14H9.29925V11.084H0.821248ZM9.29925 8.204V3.056L4.74525 8.204H9.29925ZM21.8078 10.508V14H17.6138V10.508H21.8078ZM38.63 14.198H37.802C31.682 14.198 30.062 10.274 30.062 7.538V6.998C30.062 4.208 31.682 0.409999 37.802 0.409999H38.63C44.246 0.409999 46.118 3.164 46.118 5.702V5.738H42.302C42.248 5.36 41.744 3.47 38.216 3.47C34.94 3.47 33.914 5.306 33.914 7.106V7.358C33.914 9.014 34.976 11.12 38.234 11.12C41.798 11.12 42.248 9.194 42.302 8.762H46.118V8.816C46.118 11.264 44.318 14.198 38.63 14.198ZM54.845 14.27H54.287C48.905 14.27 48.077 10.994 48.077 9.176V8.924C48.077 7.124 48.905 3.74 54.269 3.74H54.863C60.407 3.74 61.055 7.142 61.055 8.906V9.194C61.055 10.994 60.407 14.27 54.845 14.27ZM54.467 11.642H54.665C56.879 11.642 57.437 10.058 57.437 8.96C57.437 7.826 56.879 6.314 54.665 6.314H54.467C52.163 6.314 51.695 7.826 51.695 8.96C51.695 10.058 52.163 11.642 54.467 11.642ZM76.8257 11.336V16.124H73.4957V14H63.4697V4.01H66.9797V11.336H71.5157V4.01H75.0257V11.336H76.8257ZM87.3449 7.952L82.5209 14H78.9209V4.01H82.4309V10.058L87.2549 4.01H90.8549V14H87.3449V7.952ZM98.4904 12.002C100.542 12.002 101.244 10.706 101.244 9.95V9.176C100.938 9.302 100.056 9.482 99.0484 9.644C97.3564 9.932 96.8164 10.166 96.8164 10.868V10.904C96.8164 11.534 97.2664 12.002 98.4904 12.002ZM101.352 12.614C100.92 13.136 99.8404 14.198 97.5004 14.198H97.2124C94.4224 14.198 93.2704 12.686 93.2704 11.03V10.958C93.2704 9.23 94.3684 8.168 97.7524 7.88L100.488 7.646C101.046 7.592 101.244 7.412 101.244 6.998C101.244 6.53 101.1 6.026 99.1564 6.026C97.3204 6.026 97.1404 6.746 97.1404 7.124H93.5404V7.088C93.5404 6.098 93.9364 3.776 98.8504 3.776H99.4084C104.358 3.776 104.664 5.81 104.664 7.142V10.436C104.664 11.066 104.79 11.318 105.492 11.318H105.87V14H103.026C101.982 14 101.496 13.262 101.352 12.614ZM116.15 14V6.674H112.19C112.19 9.356 112.1 10.85 111.758 11.768C111.38 12.776 110.876 14 108.23 14H107.132V11.39H107.348C107.978 11.39 108.446 11.174 108.644 10.256C108.788 9.482 108.842 8.636 108.842 4.01H119.66V14H116.15ZM122.567 14V4.01H126.077V6.872H128.813C132.233 6.872 133.565 8.384 133.565 10.292V10.508C133.565 12.596 132.233 14 128.813 14H122.567ZM126.077 11.624H128.381C129.101 11.624 129.965 11.408 129.965 10.436V10.382C129.965 9.482 129.101 9.248 128.381 9.248H126.077V11.624ZM139.156 14H135.646V4.01H139.156V7.646H144.052V4.01H147.562V14H144.052V10.31H139.156V14ZM150.481 14V4.01H153.991V6.872H156.727C160.147 6.872 161.479 8.384 161.479 10.292V10.508C161.479 12.596 160.147 14 156.727 14H150.481ZM153.991 11.624H156.295C157.015 11.624 157.879 11.408 157.879 10.436V10.382C157.879 9.482 157.015 9.248 156.295 9.248H153.991V11.624ZM166.267 4.01V14H162.757V4.01H166.267ZM177.609 7.952L172.785 14H169.185V4.01H172.695V10.058L177.519 4.01H181.119V14H177.609V7.952ZM175.377 2.984H174.837C171.975 2.984 171.471 1.04 171.471 0.104V0.0499994H174.117C174.117 0.284 174.225 1.004 175.125 1.004C175.971 1.004 176.097 0.284 176.097 0.0499994H178.707V0.104C178.707 1.04 177.987 2.984 175.377 2.984ZM200.455 11.048V11.156C200.455 13.154 198.781 14.27 194.947 14.27H194.623C190.519 14.27 188.737 12.74 188.737 10.67V10.526H192.499C192.553 11.642 193.579 12.056 194.803 12.056C196.117 12.056 196.837 11.66 196.837 10.868V10.814C196.837 10.076 196.261 9.896 195.253 9.896H192.877V7.754H195.253C196.027 7.754 196.513 7.448 196.513 6.872V6.818C196.513 6.224 195.919 5.918 194.713 5.918C193.363 5.918 192.643 6.242 192.589 6.944H188.827V6.89C188.827 4.748 191.329 3.74 194.587 3.74H194.875C198.241 3.74 200.131 4.55 200.131 6.422V6.494C200.131 8.006 198.979 8.582 198.151 8.78C199.159 8.978 200.455 9.464 200.455 11.048ZM207.528 12.002C209.58 12.002 210.282 10.706 210.282 9.95V9.176C209.976 9.302 209.094 9.482 208.086 9.644C206.394 9.932 205.854 10.166 205.854 10.868V10.904C205.854 11.534 206.304 12.002 207.528 12.002ZM210.39 12.614C209.958 13.136 208.878 14.198 206.538 14.198H206.25C203.46 14.198 202.308 12.686 202.308 11.03V10.958C202.308 9.23 203.406 8.168 206.79 7.88L209.526 7.646C210.084 7.592 210.282 7.412 210.282 6.998C210.282 6.53 210.138 6.026 208.194 6.026C206.358 6.026 206.178 6.746 206.178 7.124H202.578V7.088C202.578 6.098 202.974 3.776 207.888 3.776H208.446C213.396 3.776 213.702 5.81 213.702 7.142V10.436C213.702 11.066 213.828 11.318 214.53 11.318H214.908V14H212.064C211.02 14 210.534 13.262 210.39 12.614ZM216.909 14V4.01H220.419V11.336H223.515V4.01H227.025V11.336H230.121V4.01H233.631V11.336H235.431V16.124H232.101V14H216.909ZM245.935 7.952L241.111 14H237.511V4.01H241.021V10.058L245.845 4.01H249.445V14H245.935V7.952ZM255.226 14V6.674H251.356V4.01H262.606V6.674H258.736V14H255.226ZM268.021 14H264.511V4.01H268.021V7.646H272.917V4.01H276.427V14H272.917V10.31H268.021V14ZM287.771 7.952L282.947 14H279.347V4.01H282.857V10.058L287.681 4.01H291.281V14H287.771V7.952ZM301.634 14L297.746 9.374V14H294.236V4.01H297.746V8.006L301.31 4.01H305.36L301.184 8.492L305.81 14H301.634Z" fill="url(#paint0_linear_2018_1247)"/>
<path d="M0.821248 11.084V8.726L8.05725 0.518H12.9712V8.204H15.7432V11.084H12.9712V14H9.29925V11.084H0.821248ZM9.29925 8.204V3.056L4.74525 8.204H9.29925ZM21.8078 10.508V14H17.6138V10.508H21.8078ZM38.63 14.198H37.802C31.682 14.198 30.062 10.274 30.062 7.538V6.998C30.062 4.208 31.682 0.409999 37.802 0.409999H38.63C44.246 0.409999 46.118 3.164 46.118 5.702V5.738H42.302C42.248 5.36 41.744 3.47 38.216 3.47C34.94 3.47 33.914 5.306 33.914 7.106V7.358C33.914 9.014 34.976 11.12 38.234 11.12C41.798 11.12 42.248 9.194 42.302 8.762H46.118V8.816C46.118 11.264 44.318 14.198 38.63 14.198ZM54.845 14.27H54.287C48.905 14.27 48.077 10.994 48.077 9.176V8.924C48.077 7.124 48.905 3.74 54.269 3.74H54.863C60.407 3.74 61.055 7.142 61.055 8.906V9.194C61.055 10.994 60.407 14.27 54.845 14.27ZM54.467 11.642H54.665C56.879 11.642 57.437 10.058 57.437 8.96C57.437 7.826 56.879 6.314 54.665 6.314H54.467C52.163 6.314 51.695 7.826 51.695 8.96C51.695 10.058 52.163 11.642 54.467 11.642ZM76.8257 11.336V16.124H73.4957V14H63.4697V4.01H66.9797V11.336H71.5157V4.01H75.0257V11.336H76.8257ZM87.3449 7.952L82.5209 14H78.9209V4.01H82.4309V10.058L87.2549 4.01H90.8549V14H87.3449V7.952ZM98.4904 12.002C100.542 12.002 101.244 10.706 101.244 9.95V9.176C100.938 9.302 100.056 9.482 99.0484 9.644C97.3564 9.932 96.8164 10.166 96.8164 10.868V10.904C96.8164 11.534 97.2664 12.002 98.4904 12.002ZM101.352 12.614C100.92 13.136 99.8404 14.198 97.5004 14.198H97.2124C94.4224 14.198 93.2704 12.686 93.2704 11.03V10.958C93.2704 9.23 94.3684 8.168 97.7524 7.88L100.488 7.646C101.046 7.592 101.244 7.412 101.244 6.998C101.244 6.53 101.1 6.026 99.1564 6.026C97.3204 6.026 97.1404 6.746 97.1404 7.124H93.5404V7.088C93.5404 6.098 93.9364 3.776 98.8504 3.776H99.4084C104.358 3.776 104.664 5.81 104.664 7.142V10.436C104.664 11.066 104.79 11.318 105.492 11.318H105.87V14H103.026C101.982 14 101.496 13.262 101.352 12.614ZM116.15 14V6.674H112.19C112.19 9.356 112.1 10.85 111.758 11.768C111.38 12.776 110.876 14 108.23 14H107.132V11.39H107.348C107.978 11.39 108.446 11.174 108.644 10.256C108.788 9.482 108.842 8.636 108.842 4.01H119.66V14H116.15ZM122.567 14V4.01H126.077V6.872H128.813C132.233 6.872 133.565 8.384 133.565 10.292V10.508C133.565 12.596 132.233 14 128.813 14H122.567ZM126.077 11.624H128.381C129.101 11.624 129.965 11.408 129.965 10.436V10.382C129.965 9.482 129.101 9.248 128.381 9.248H126.077V11.624ZM139.156 14H135.646V4.01H139.156V7.646H144.052V4.01H147.562V14H144.052V10.31H139.156V14ZM150.481 14V4.01H153.991V6.872H156.727C160.147 6.872 161.479 8.384 161.479 10.292V10.508C161.479 12.596 160.147 14 156.727 14H150.481ZM153.991 11.624H156.295C157.015 11.624 157.879 11.408 157.879 10.436V10.382C157.879 9.482 157.015 9.248 156.295 9.248H153.991V11.624ZM166.267 4.01V14H162.757V4.01H166.267ZM177.609 7.952L172.785 14H169.185V4.01H172.695V10.058L177.519 4.01H181.119V14H177.609V7.952ZM175.377 2.984H174.837C171.975 2.984 171.471 1.04 171.471 0.104V0.0499994H174.117C174.117 0.284 174.225 1.004 175.125 1.004C175.971 1.004 176.097 0.284 176.097 0.0499994H178.707V0.104C178.707 1.04 177.987 2.984 175.377 2.984ZM200.455 11.048V11.156C200.455 13.154 198.781 14.27 194.947 14.27H194.623C190.519 14.27 188.737 12.74 188.737 10.67V10.526H192.499C192.553 11.642 193.579 12.056 194.803 12.056C196.117 12.056 196.837 11.66 196.837 10.868V10.814C196.837 10.076 196.261 9.896 195.253 9.896H192.877V7.754H195.253C196.027 7.754 196.513 7.448 196.513 6.872V6.818C196.513 6.224 195.919 5.918 194.713 5.918C193.363 5.918 192.643 6.242 192.589 6.944H188.827V6.89C188.827 4.748 191.329 3.74 194.587 3.74H194.875C198.241 3.74 200.131 4.55 200.131 6.422V6.494C200.131 8.006 198.979 8.582 198.151 8.78C199.159 8.978 200.455 9.464 200.455 11.048ZM207.528 12.002C209.58 12.002 210.282 10.706 210.282 9.95V9.176C209.976 9.302 209.094 9.482 208.086 9.644C206.394 9.932 205.854 10.166 205.854 10.868V10.904C205.854 11.534 206.304 12.002 207.528 12.002ZM210.39 12.614C209.958 13.136 208.878 14.198 206.538 14.198H206.25C203.46 14.198 202.308 12.686 202.308 11.03V10.958C202.308 9.23 203.406 8.168 206.79 7.88L209.526 7.646C210.084 7.592 210.282 7.412 210.282 6.998C210.282 6.53 210.138 6.026 208.194 6.026C206.358 6.026 206.178 6.746 206.178 7.124H202.578V7.088C202.578 6.098 202.974 3.776 207.888 3.776H208.446C213.396 3.776 213.702 5.81 213.702 7.142V10.436C213.702 11.066 213.828 11.318 214.53 11.318H214.908V14H212.064C211.02 14 210.534 13.262 210.39 12.614ZM216.909 14V4.01H220.419V11.336H223.515V4.01H227.025V11.336H230.121V4.01H233.631V11.336H235.431V16.124H232.101V14H216.909ZM245.935 7.952L241.111 14H237.511V4.01H241.021V10.058L245.845 4.01H249.445V14H245.935V7.952ZM255.226 14V6.674H251.356V4.01H262.606V6.674H258.736V14H255.226ZM268.021 14H264.511V4.01H268.021V7.646H272.917V4.01H276.427V14H272.917V10.31H268.021V14ZM287.771 7.952L282.947 14H279.347V4.01H282.857V10.058L287.681 4.01H291.281V14H287.771V7.952ZM301.634 14L297.746 9.374V14H294.236V4.01H297.746V8.006L301.31 4.01H305.36L301.184 8.492L305.81 14H301.634Z" fill="url(#paint1_radial_2018_1247)" style="mix-blend-mode:overlay"/>
<path d="M0.821248 11.084V8.726L8.05725 0.518H12.9712V8.204H15.7432V11.084H12.9712V14H9.29925V11.084H0.821248ZM9.29925 8.204V3.056L4.74525 8.204H9.29925ZM21.8078 10.508V14H17.6138V10.508H21.8078ZM38.63 14.198H37.802C31.682 14.198 30.062 10.274 30.062 7.538V6.998C30.062 4.208 31.682 0.409999 37.802 0.409999H38.63C44.246 0.409999 46.118 3.164 46.118 5.702V5.738H42.302C42.248 5.36 41.744 3.47 38.216 3.47C34.94 3.47 33.914 5.306 33.914 7.106V7.358C33.914 9.014 34.976 11.12 38.234 11.12C41.798 11.12 42.248 9.194 42.302 8.762H46.118V8.816C46.118 11.264 44.318 14.198 38.63 14.198ZM54.845 14.27H54.287C48.905 14.27 48.077 10.994 48.077 9.176V8.924C48.077 7.124 48.905 3.74 54.269 3.74H54.863C60.407 3.74 61.055 7.142 61.055 8.906V9.194C61.055 10.994 60.407 14.27 54.845 14.27ZM54.467 11.642H54.665C56.879 11.642 57.437 10.058 57.437 8.96C57.437 7.826 56.879 6.314 54.665 6.314H54.467C52.163 6.314 51.695 7.826 51.695 8.96C51.695 10.058 52.163 11.642 54.467 11.642ZM76.8257 11.336V16.124H73.4957V14H63.4697V4.01H66.9797V11.336H71.5157V4.01H75.0257V11.336H76.8257ZM87.3449 7.952L82.5209 14H78.9209V4.01H82.4309V10.058L87.2549 4.01H90.8549V14H87.3449V7.952ZM98.4904 12.002C100.542 12.002 101.244 10.706 101.244 9.95V9.176C100.938 9.302 100.056 9.482 99.0484 9.644C97.3564 9.932 96.8164 10.166 96.8164 10.868V10.904C96.8164 11.534 97.2664 12.002 98.4904 12.002ZM101.352 12.614C100.92 13.136 99.8404 14.198 97.5004 14.198H97.2124C94.4224 14.198 93.2704 12.686 93.2704 11.03V10.958C93.2704 9.23 94.3684 8.168 97.7524 7.88L100.488 7.646C101.046 7.592 101.244 7.412 101.244 6.998C101.244 6.53 101.1 6.026 99.1564 6.026C97.3204 6.026 97.1404 6.746 97.1404 7.124H93.5404V7.088C93.5404 6.098 93.9364 3.776 98.8504 3.776H99.4084C104.358 3.776 104.664 5.81 104.664 7.142V10.436C104.664 11.066 104.79 11.318 105.492 11.318H105.87V14H103.026C101.982 14 101.496 13.262 101.352 12.614ZM116.15 14V6.674H112.19C112.19 9.356 112.1 10.85 111.758 11.768C111.38 12.776 110.876 14 108.23 14H107.132V11.39H107.348C107.978 11.39 108.446 11.174 108.644 10.256C108.788 9.482 108.842 8.636 108.842 4.01H119.66V14H116.15ZM122.567 14V4.01H126.077V6.872H128.813C132.233 6.872 133.565 8.384 133.565 10.292V10.508C133.565 12.596 132.233 14 128.813 14H122.567ZM126.077 11.624H128.381C129.101 11.624 129.965 11.408 129.965 10.436V10.382C129.965 9.482 129.101 9.248 128.381 9.248H126.077V11.624ZM139.156 14H135.646V4.01H139.156V7.646H144.052V4.01H147.562V14H144.052V10.31H139.156V14ZM150.481 14V4.01H153.991V6.872H156.727C160.147 6.872 161.479 8.384 161.479 10.292V10.508C161.479 12.596 160.147 14 156.727 14H150.481ZM153.991 11.624H156.295C157.015 11.624 157.879 11.408 157.879 10.436V10.382C157.879 9.482 157.015 9.248 156.295 9.248H153.991V11.624ZM166.267 4.01V14H162.757V4.01H166.267ZM177.609 7.952L172.785 14H169.185V4.01H172.695V10.058L177.519 4.01H181.119V14H177.609V7.952ZM175.377 2.984H174.837C171.975 2.984 171.471 1.04 171.471 0.104V0.0499994H174.117C174.117 0.284 174.225 1.004 175.125 1.004C175.971 1.004 176.097 0.284 176.097 0.0499994H178.707V0.104C178.707 1.04 177.987 2.984 175.377 2.984ZM200.455 11.048V11.156C200.455 13.154 198.781 14.27 194.947 14.27H194.623C190.519 14.27 188.737 12.74 188.737 10.67V10.526H192.499C192.553 11.642 193.579 12.056 194.803 12.056C196.117 12.056 196.837 11.66 196.837 10.868V10.814C196.837 10.076 196.261 9.896 195.253 9.896H192.877V7.754H195.253C196.027 7.754 196.513 7.448 196.513 6.872V6.818C196.513 6.224 195.919 5.918 194.713 5.918C193.363 5.918 192.643 6.242 192.589 6.944H188.827V6.89C188.827 4.748 191.329 3.74 194.587 3.74H194.875C198.241 3.74 200.131 4.55 200.131 6.422V6.494C200.131 8.006 198.979 8.582 198.151 8.78C199.159 8.978 200.455 9.464 200.455 11.048ZM207.528 12.002C209.58 12.002 210.282 10.706 210.282 9.95V9.176C209.976 9.302 209.094 9.482 208.086 9.644C206.394 9.932 205.854 10.166 205.854 10.868V10.904C205.854 11.534 206.304 12.002 207.528 12.002ZM210.39 12.614C209.958 13.136 208.878 14.198 206.538 14.198H206.25C203.46 14.198 202.308 12.686 202.308 11.03V10.958C202.308 9.23 203.406 8.168 206.79 7.88L209.526 7.646C210.084 7.592 210.282 7.412 210.282 6.998C210.282 6.53 210.138 6.026 208.194 6.026C206.358 6.026 206.178 6.746 206.178 7.124H202.578V7.088C202.578 6.098 202.974 3.776 207.888 3.776H208.446C213.396 3.776 213.702 5.81 213.702 7.142V10.436C213.702 11.066 213.828 11.318 214.53 11.318H214.908V14H212.064C211.02 14 210.534 13.262 210.39 12.614ZM216.909 14V4.01H220.419V11.336H223.515V4.01H227.025V11.336H230.121V4.01H233.631V11.336H235.431V16.124H232.101V14H216.909ZM245.935 7.952L241.111 14H237.511V4.01H241.021V10.058L245.845 4.01H249.445V14H245.935V7.952ZM255.226 14V6.674H251.356V4.01H262.606V6.674H258.736V14H255.226ZM268.021 14H264.511V4.01H268.021V7.646H272.917V4.01H276.427V14H272.917V10.31H268.021V14ZM287.771 7.952L282.947 14H279.347V4.01H282.857V10.058L287.681 4.01H291.281V14H287.771V7.952ZM301.634 14L297.746 9.374V14H294.236V4.01H297.746V8.006L301.31 4.01H305.36L301.184 8.492L305.81 14H301.634Z" fill="url(#paint2_radial_2018_1247)"/>
<path d="M0.821248 11.084V8.726L8.05725 0.518H12.9712V8.204H15.7432V11.084H12.9712V14H9.29925V11.084H0.821248ZM9.29925 8.204V3.056L4.74525 8.204H9.29925ZM21.8078 10.508V14H17.6138V10.508H21.8078ZM38.63 14.198H37.802C31.682 14.198 30.062 10.274 30.062 7.538V6.998C30.062 4.208 31.682 0.409999 37.802 0.409999H38.63C44.246 0.409999 46.118 3.164 46.118 5.702V5.738H42.302C42.248 5.36 41.744 3.47 38.216 3.47C34.94 3.47 33.914 5.306 33.914 7.106V7.358C33.914 9.014 34.976 11.12 38.234 11.12C41.798 11.12 42.248 9.194 42.302 8.762H46.118V8.816C46.118 11.264 44.318 14.198 38.63 14.198ZM54.845 14.27H54.287C48.905 14.27 48.077 10.994 48.077 9.176V8.924C48.077 7.124 48.905 3.74 54.269 3.74H54.863C60.407 3.74 61.055 7.142 61.055 8.906V9.194C61.055 10.994 60.407 14.27 54.845 14.27ZM54.467 11.642H54.665C56.879 11.642 57.437 10.058 57.437 8.96C57.437 7.826 56.879 6.314 54.665 6.314H54.467C52.163 6.314 51.695 7.826 51.695 8.96C51.695 10.058 52.163 11.642 54.467 11.642ZM76.8257 11.336V16.124H73.4957V14H63.4697V4.01H66.9797V11.336H71.5157V4.01H75.0257V11.336H76.8257ZM87.3449 7.952L82.5209 14H78.9209V4.01H82.4309V10.058L87.2549 4.01H90.8549V14H87.3449V7.952ZM98.4904 12.002C100.542 12.002 101.244 10.706 101.244 9.95V9.176C100.938 9.302 100.056 9.482 99.0484 9.644C97.3564 9.932 96.8164 10.166 96.8164 10.868V10.904C96.8164 11.534 97.2664 12.002 98.4904 12.002ZM101.352 12.614C100.92 13.136 99.8404 14.198 97.5004 14.198H97.2124C94.4224 14.198 93.2704 12.686 93.2704 11.03V10.958C93.2704 9.23 94.3684 8.168 97.7524 7.88L100.488 7.646C101.046 7.592 101.244 7.412 101.244 6.998C101.244 6.53 101.1 6.026 99.1564 6.026C97.3204 6.026 97.1404 6.746 97.1404 7.124H93.5404V7.088C93.5404 6.098 93.9364 3.776 98.8504 3.776H99.4084C104.358 3.776 104.664 5.81 104.664 7.142V10.436C104.664 11.066 104.79 11.318 105.492 11.318H105.87V14H103.026C101.982 14 101.496 13.262 101.352 12.614ZM116.15 14V6.674H112.19C112.19 9.356 112.1 10.85 111.758 11.768C111.38 12.776 110.876 14 108.23 14H107.132V11.39H107.348C107.978 11.39 108.446 11.174 108.644 10.256C108.788 9.482 108.842 8.636 108.842 4.01H119.66V14H116.15ZM122.567 14V4.01H126.077V6.872H128.813C132.233 6.872 133.565 8.384 133.565 10.292V10.508C133.565 12.596 132.233 14 128.813 14H122.567ZM126.077 11.624H128.381C129.101 11.624 129.965 11.408 129.965 10.436V10.382C129.965 9.482 129.101 9.248 128.381 9.248H126.077V11.624ZM139.156 14H135.646V4.01H139.156V7.646H144.052V4.01H147.562V14H144.052V10.31H139.156V14ZM150.481 14V4.01H153.991V6.872H156.727C160.147 6.872 161.479 8.384 161.479 10.292V10.508C161.479 12.596 160.147 14 156.727 14H150.481ZM153.991 11.624H156.295C157.015 11.624 157.879 11.408 157.879 10.436V10.382C157.879 9.482 157.015 9.248 156.295 9.248H153.991V11.624ZM166.267 4.01V14H162.757V4.01H166.267ZM177.609 7.952L172.785 14H169.185V4.01H172.695V10.058L177.519 4.01H181.119V14H177.609V7.952ZM175.377 2.984H174.837C171.975 2.984 171.471 1.04 171.471 0.104V0.0499994H174.117C174.117 0.284 174.225 1.004 175.125 1.004C175.971 1.004 176.097 0.284 176.097 0.0499994H178.707V0.104C178.707 1.04 177.987 2.984 175.377 2.984ZM200.455 11.048V11.156C200.455 13.154 198.781 14.27 194.947 14.27H194.623C190.519 14.27 188.737 12.74 188.737 10.67V10.526H192.499C192.553 11.642 193.579 12.056 194.803 12.056C196.117 12.056 196.837 11.66 196.837 10.868V10.814C196.837 10.076 196.261 9.896 195.253 9.896H192.877V7.754H195.253C196.027 7.754 196.513 7.448 196.513 6.872V6.818C196.513 6.224 195.919 5.918 194.713 5.918C193.363 5.918 192.643 6.242 192.589 6.944H188.827V6.89C188.827 4.748 191.329 3.74 194.587 3.74H194.875C198.241 3.74 200.131 4.55 200.131 6.422V6.494C200.131 8.006 198.979 8.582 198.151 8.78C199.159 8.978 200.455 9.464 200.455 11.048ZM207.528 12.002C209.58 12.002 210.282 10.706 210.282 9.95V9.176C209.976 9.302 209.094 9.482 208.086 9.644C206.394 9.932 205.854 10.166 205.854 10.868V10.904C205.854 11.534 206.304 12.002 207.528 12.002ZM210.39 12.614C209.958 13.136 208.878 14.198 206.538 14.198H206.25C203.46 14.198 202.308 12.686 202.308 11.03V10.958C202.308 9.23 203.406 8.168 206.79 7.88L209.526 7.646C210.084 7.592 210.282 7.412 210.282 6.998C210.282 6.53 210.138 6.026 208.194 6.026C206.358 6.026 206.178 6.746 206.178 7.124H202.578V7.088C202.578 6.098 202.974 3.776 207.888 3.776H208.446C213.396 3.776 213.702 5.81 213.702 7.142V10.436C213.702 11.066 213.828 11.318 214.53 11.318H214.908V14H212.064C211.02 14 210.534 13.262 210.39 12.614ZM216.909 14V4.01H220.419V11.336H223.515V4.01H227.025V11.336H230.121V4.01H233.631V11.336H235.431V16.124H232.101V14H216.909ZM245.935 7.952L241.111 14H237.511V4.01H241.021V10.058L245.845 4.01H249.445V14H245.935V7.952ZM255.226 14V6.674H251.356V4.01H262.606V6.674H258.736V14H255.226ZM268.021 14H264.511V4.01H268.021V7.646H272.917V4.01H276.427V14H272.917V10.31H268.021V14ZM287.771 7.952L282.947 14H279.347V4.01H282.857V10.058L287.681 4.01H291.281V14H287.771V7.952ZM301.634 14L297.746 9.374V14H294.236V4.01H297.746V8.006L301.31 4.01H305.36L301.184 8.492L305.81 14H301.634Z" fill="#C1A875" style="mix-blend-mode:color"/>
<defs>
<linearGradient id="paint0_linear_2018_1247" x1="2" y1="6" x2="306" y2="6.00002" gradientUnits="userSpaceOnUse">
<stop stop-color="#576167"/>
<stop offset="0.191294" stop-color="#9EA1A2"/>
<stop offset="0.396166" stop-color="#848989"/>
<stop offset="0.62055" stop-color="#576167"/>
<stop offset="0.830299" stop-color="#757A7C"/>
<stop offset="1" stop-color="#576167"/>
</linearGradient>
<radialGradient id="paint1_radial_2018_1247" cx="0" cy="0" r="1" gradientUnits="userSpaceOnUse" gradientTransform="translate(163.895 -3.20225) rotate(90) scale(17.8315 229.986)">
<stop stop-color="white"/>
<stop offset="1" stop-color="white" stop-opacity="0"/>
</radialGradient>
<radialGradient id="paint2_radial_2018_1247" cx="0" cy="0" r="1" gradientUnits="userSpaceOnUse" gradientTransform="translate(181.091 23.6629) rotate(-88.9088) scale(25.5552 328.815)">
<stop stop-color="white"/>
<stop offset="1" stop-color="white" stop-opacity="0"/>
</radialGradient>
</defs>
</svg>
