<svg width="298" height="18" viewBox="0 0 298 18" fill="none" xmlns="http://www.w3.org/2000/svg">
<path d="M7.70525 14.198H6.98525C1.29725 14.198 0.271248 11.48 0.271248 10.256V10.004H4.17725C4.26725 10.382 4.80725 11.21 7.38125 11.21C9.81125 11.21 10.7112 10.562 10.7112 9.554V9.446C10.7112 8.384 9.84725 7.844 7.38125 7.844C4.84325 7.844 4.28525 8.474 4.14125 8.888H0.469248V0.608H13.4652V3.65H4.14125V6.134C4.28525 5.99 5.50925 5.09 8.19125 5.09H8.37125C13.1412 5.09 14.4012 7.142 14.4012 9.248V9.464C14.4012 11.642 12.9792 14.198 7.70525 14.198ZM20.8078 10.508V14H16.6138V10.508H20.8078ZM34.012 14V3.668H28.828V0.608H42.886V3.668H37.702V14H34.012ZM49.3697 6.08C47.5517 6.08 46.8677 6.818 46.6877 7.862H51.9797C51.9797 7.124 51.6197 6.08 49.3697 6.08ZM52.0517 10.886H55.7057C55.7057 11.714 55.0577 14.234 49.8917 14.234H49.2257C44.2937 14.234 43.0697 11.534 43.0697 9.14V8.888C43.0697 6.638 44.1857 3.794 48.9197 3.794H49.7117C54.8237 3.794 55.7417 6.638 55.7417 9.428V9.752H46.6517C46.7957 10.904 47.5337 11.84 49.6757 11.84C51.7097 11.84 51.9617 11.048 52.0517 10.886ZM65.9617 14L63.2797 11.138L60.6697 14H56.6917L61.1737 8.996L56.5477 4.01H60.8497L63.4057 6.8L65.8717 4.01H69.7417L65.4397 8.924L70.0117 14H65.9617ZM75.0149 14H71.5049V4.01H75.0149V7.646H79.9109V4.01H83.4209V14H79.9109V10.31H75.0149V14ZM92.6048 14.27H92.0468C86.6648 14.27 85.8368 10.994 85.8368 9.176V8.924C85.8368 7.124 86.6648 3.74 92.0288 3.74H92.6228C98.1668 3.74 98.8148 7.142 98.8148 8.906V9.194C98.8148 10.994 98.1668 14.27 92.6048 14.27ZM92.2268 11.642H92.4248C94.6388 11.642 95.1968 10.058 95.1968 8.96C95.1968 7.826 94.6388 6.314 92.4248 6.314H92.2268C89.9228 6.314 89.4548 7.826 89.4548 8.96C89.4548 10.058 89.9228 11.642 92.2268 11.642ZM109.244 14V6.674H105.284C105.284 9.356 105.194 10.85 104.852 11.768C104.474 12.776 103.97 14 101.324 14H100.226V11.39H100.442C101.072 11.39 101.54 11.174 101.738 10.256C101.882 9.482 101.936 8.636 101.936 4.01H112.754V14H109.244ZM121.925 14.27H121.367C115.985 14.27 115.157 10.994 115.157 9.176V8.924C115.157 7.124 115.985 3.74 121.349 3.74H121.943C127.487 3.74 128.135 7.142 128.135 8.906V9.194C128.135 10.994 127.487 14.27 121.925 14.27ZM121.547 11.642H121.745C123.959 11.642 124.517 10.058 124.517 8.96C124.517 7.826 123.959 6.314 121.745 6.314H121.547C119.243 6.314 118.775 7.826 118.775 8.96C118.775 10.058 119.243 11.642 121.547 11.642ZM130.55 14V4.01H139.262V6.674H134.06V14H130.55ZM149.591 7.952L144.767 14H141.167V4.01H144.677V10.058L149.501 4.01H153.101V14H149.591V7.952ZM163.437 4.01H166.947V14H163.437V10.562C162.663 10.652 161.763 10.742 160.827 10.742C156.867 10.742 155.373 9.626 155.373 6.458V4.01H158.883V5.81C158.883 7.682 159.513 8.006 161.367 8.006C162.069 8.006 162.879 7.952 163.437 7.88V4.01ZM175.668 6.08C173.85 6.08 173.166 6.818 172.986 7.862H178.278C178.278 7.124 177.918 6.08 175.668 6.08ZM178.35 10.886H182.004C182.004 11.714 181.356 14.234 176.19 14.234H175.524C170.592 14.234 169.368 11.534 169.368 9.14V8.888C169.368 6.638 170.484 3.794 175.218 3.794H176.01C181.122 3.794 182.04 6.638 182.04 9.428V9.752H172.95C173.094 10.904 173.832 11.84 175.974 11.84C178.008 11.84 178.26 11.048 178.35 10.886ZM192.796 10.076H196.468C196.468 11.588 195.568 14.27 190.762 14.27H189.88C184.894 14.27 183.958 11.03 183.958 9.14V8.888C183.958 6.998 184.84 3.74 189.862 3.74H190.69C195.514 3.74 196.468 6.368 196.468 7.808V7.826H192.796C192.742 7.538 192.4 6.296 190.33 6.296H190.15C188.08 6.296 187.594 7.718 187.594 8.924V8.942C187.594 10.184 188.188 11.66 190.222 11.66H190.402C192.49 11.66 192.796 10.31 192.796 10.076ZM206.292 14L202.404 9.374V14H198.894V4.01H202.404V8.006L205.968 4.01H210.018L205.842 8.492L210.468 14H206.292ZM220.343 7.952L215.519 14H211.919V4.01H215.429V10.058L220.253 4.01H223.853V14H220.343V7.952ZM235.196 7.952L230.372 14H226.772V4.01H230.282V10.058L235.106 4.01H238.706V14H235.196V7.952ZM232.964 2.984H232.424C229.562 2.984 229.058 1.04 229.058 0.104V0.0499994H231.704C231.704 0.284 231.812 1.004 232.712 1.004C233.558 1.004 233.684 0.284 233.684 0.0499994H236.294V0.104C236.294 1.04 235.574 2.984 232.964 2.984ZM246.829 14V4.01H255.541V6.674H250.339V14H246.829ZM258.202 17.438V14.936H260.398C260.74 14.936 260.92 14.792 260.92 14.522V14.504C260.92 14.288 260.866 14.09 260.596 13.532L256.312 4.01H260.164L262.936 11.174L265.69 4.01H269.218L264.646 15.008C263.944 16.646 263.08 17.438 261.424 17.438H258.202ZM280.179 9.014V8.96C280.179 7.88 279.675 6.422 277.479 6.422H277.299C275.193 6.422 274.527 7.808 274.527 8.96V9.014C274.527 10.112 275.193 11.552 277.299 11.552H277.479C279.675 11.552 280.179 10.04 280.179 9.014ZM271.035 17.438V4.01H274.509V5.288C274.941 4.82 276.255 3.812 278.523 3.812H278.757C282.573 3.812 283.815 6.422 283.815 8.798V9.104C283.815 11.282 282.537 14.198 278.739 14.198H278.487C276.201 14.198 274.977 13.154 274.545 12.722V17.438H271.035ZM286.837 17.438V14.936H289.033C289.375 14.936 289.555 14.792 289.555 14.522V14.504C289.555 14.288 289.501 14.09 289.231 13.532L284.947 4.01H288.799L291.571 11.174L294.325 4.01H297.853L293.281 15.008C292.579 16.646 291.715 17.438 290.059 17.438H286.837Z" fill="url(#paint0_linear_2018_1254)"/>
<path d="M7.70525 14.198H6.98525C1.29725 14.198 0.271248 11.48 0.271248 10.256V10.004H4.17725C4.26725 10.382 4.80725 11.21 7.38125 11.21C9.81125 11.21 10.7112 10.562 10.7112 9.554V9.446C10.7112 8.384 9.84725 7.844 7.38125 7.844C4.84325 7.844 4.28525 8.474 4.14125 8.888H0.469248V0.608H13.4652V3.65H4.14125V6.134C4.28525 5.99 5.50925 5.09 8.19125 5.09H8.37125C13.1412 5.09 14.4012 7.142 14.4012 9.248V9.464C14.4012 11.642 12.9792 14.198 7.70525 14.198ZM20.8078 10.508V14H16.6138V10.508H20.8078ZM34.012 14V3.668H28.828V0.608H42.886V3.668H37.702V14H34.012ZM49.3697 6.08C47.5517 6.08 46.8677 6.818 46.6877 7.862H51.9797C51.9797 7.124 51.6197 6.08 49.3697 6.08ZM52.0517 10.886H55.7057C55.7057 11.714 55.0577 14.234 49.8917 14.234H49.2257C44.2937 14.234 43.0697 11.534 43.0697 9.14V8.888C43.0697 6.638 44.1857 3.794 48.9197 3.794H49.7117C54.8237 3.794 55.7417 6.638 55.7417 9.428V9.752H46.6517C46.7957 10.904 47.5337 11.84 49.6757 11.84C51.7097 11.84 51.9617 11.048 52.0517 10.886ZM65.9617 14L63.2797 11.138L60.6697 14H56.6917L61.1737 8.996L56.5477 4.01H60.8497L63.4057 6.8L65.8717 4.01H69.7417L65.4397 8.924L70.0117 14H65.9617ZM75.0149 14H71.5049V4.01H75.0149V7.646H79.9109V4.01H83.4209V14H79.9109V10.31H75.0149V14ZM92.6048 14.27H92.0468C86.6648 14.27 85.8368 10.994 85.8368 9.176V8.924C85.8368 7.124 86.6648 3.74 92.0288 3.74H92.6228C98.1668 3.74 98.8148 7.142 98.8148 8.906V9.194C98.8148 10.994 98.1668 14.27 92.6048 14.27ZM92.2268 11.642H92.4248C94.6388 11.642 95.1968 10.058 95.1968 8.96C95.1968 7.826 94.6388 6.314 92.4248 6.314H92.2268C89.9228 6.314 89.4548 7.826 89.4548 8.96C89.4548 10.058 89.9228 11.642 92.2268 11.642ZM109.244 14V6.674H105.284C105.284 9.356 105.194 10.85 104.852 11.768C104.474 12.776 103.97 14 101.324 14H100.226V11.39H100.442C101.072 11.39 101.54 11.174 101.738 10.256C101.882 9.482 101.936 8.636 101.936 4.01H112.754V14H109.244ZM121.925 14.27H121.367C115.985 14.27 115.157 10.994 115.157 9.176V8.924C115.157 7.124 115.985 3.74 121.349 3.74H121.943C127.487 3.74 128.135 7.142 128.135 8.906V9.194C128.135 10.994 127.487 14.27 121.925 14.27ZM121.547 11.642H121.745C123.959 11.642 124.517 10.058 124.517 8.96C124.517 7.826 123.959 6.314 121.745 6.314H121.547C119.243 6.314 118.775 7.826 118.775 8.96C118.775 10.058 119.243 11.642 121.547 11.642ZM130.55 14V4.01H139.262V6.674H134.06V14H130.55ZM149.591 7.952L144.767 14H141.167V4.01H144.677V10.058L149.501 4.01H153.101V14H149.591V7.952ZM163.437 4.01H166.947V14H163.437V10.562C162.663 10.652 161.763 10.742 160.827 10.742C156.867 10.742 155.373 9.626 155.373 6.458V4.01H158.883V5.81C158.883 7.682 159.513 8.006 161.367 8.006C162.069 8.006 162.879 7.952 163.437 7.88V4.01ZM175.668 6.08C173.85 6.08 173.166 6.818 172.986 7.862H178.278C178.278 7.124 177.918 6.08 175.668 6.08ZM178.35 10.886H182.004C182.004 11.714 181.356 14.234 176.19 14.234H175.524C170.592 14.234 169.368 11.534 169.368 9.14V8.888C169.368 6.638 170.484 3.794 175.218 3.794H176.01C181.122 3.794 182.04 6.638 182.04 9.428V9.752H172.95C173.094 10.904 173.832 11.84 175.974 11.84C178.008 11.84 178.26 11.048 178.35 10.886ZM192.796 10.076H196.468C196.468 11.588 195.568 14.27 190.762 14.27H189.88C184.894 14.27 183.958 11.03 183.958 9.14V8.888C183.958 6.998 184.84 3.74 189.862 3.74H190.69C195.514 3.74 196.468 6.368 196.468 7.808V7.826H192.796C192.742 7.538 192.4 6.296 190.33 6.296H190.15C188.08 6.296 187.594 7.718 187.594 8.924V8.942C187.594 10.184 188.188 11.66 190.222 11.66H190.402C192.49 11.66 192.796 10.31 192.796 10.076ZM206.292 14L202.404 9.374V14H198.894V4.01H202.404V8.006L205.968 4.01H210.018L205.842 8.492L210.468 14H206.292ZM220.343 7.952L215.519 14H211.919V4.01H215.429V10.058L220.253 4.01H223.853V14H220.343V7.952ZM235.196 7.952L230.372 14H226.772V4.01H230.282V10.058L235.106 4.01H238.706V14H235.196V7.952ZM232.964 2.984H232.424C229.562 2.984 229.058 1.04 229.058 0.104V0.0499994H231.704C231.704 0.284 231.812 1.004 232.712 1.004C233.558 1.004 233.684 0.284 233.684 0.0499994H236.294V0.104C236.294 1.04 235.574 2.984 232.964 2.984ZM246.829 14V4.01H255.541V6.674H250.339V14H246.829ZM258.202 17.438V14.936H260.398C260.74 14.936 260.92 14.792 260.92 14.522V14.504C260.92 14.288 260.866 14.09 260.596 13.532L256.312 4.01H260.164L262.936 11.174L265.69 4.01H269.218L264.646 15.008C263.944 16.646 263.08 17.438 261.424 17.438H258.202ZM280.179 9.014V8.96C280.179 7.88 279.675 6.422 277.479 6.422H277.299C275.193 6.422 274.527 7.808 274.527 8.96V9.014C274.527 10.112 275.193 11.552 277.299 11.552H277.479C279.675 11.552 280.179 10.04 280.179 9.014ZM271.035 17.438V4.01H274.509V5.288C274.941 4.82 276.255 3.812 278.523 3.812H278.757C282.573 3.812 283.815 6.422 283.815 8.798V9.104C283.815 11.282 282.537 14.198 278.739 14.198H278.487C276.201 14.198 274.977 13.154 274.545 12.722V17.438H271.035ZM286.837 17.438V14.936H289.033C289.375 14.936 289.555 14.792 289.555 14.522V14.504C289.555 14.288 289.501 14.09 289.231 13.532L284.947 4.01H288.799L291.571 11.174L294.325 4.01H297.853L293.281 15.008C292.579 16.646 291.715 17.438 290.059 17.438H286.837Z" fill="url(#paint1_radial_2018_1254)" style="mix-blend-mode:overlay"/>
<path d="M7.70525 14.198H6.98525C1.29725 14.198 0.271248 11.48 0.271248 10.256V10.004H4.17725C4.26725 10.382 4.80725 11.21 7.38125 11.21C9.81125 11.21 10.7112 10.562 10.7112 9.554V9.446C10.7112 8.384 9.84725 7.844 7.38125 7.844C4.84325 7.844 4.28525 8.474 4.14125 8.888H0.469248V0.608H13.4652V3.65H4.14125V6.134C4.28525 5.99 5.50925 5.09 8.19125 5.09H8.37125C13.1412 5.09 14.4012 7.142 14.4012 9.248V9.464C14.4012 11.642 12.9792 14.198 7.70525 14.198ZM20.8078 10.508V14H16.6138V10.508H20.8078ZM34.012 14V3.668H28.828V0.608H42.886V3.668H37.702V14H34.012ZM49.3697 6.08C47.5517 6.08 46.8677 6.818 46.6877 7.862H51.9797C51.9797 7.124 51.6197 6.08 49.3697 6.08ZM52.0517 10.886H55.7057C55.7057 11.714 55.0577 14.234 49.8917 14.234H49.2257C44.2937 14.234 43.0697 11.534 43.0697 9.14V8.888C43.0697 6.638 44.1857 3.794 48.9197 3.794H49.7117C54.8237 3.794 55.7417 6.638 55.7417 9.428V9.752H46.6517C46.7957 10.904 47.5337 11.84 49.6757 11.84C51.7097 11.84 51.9617 11.048 52.0517 10.886ZM65.9617 14L63.2797 11.138L60.6697 14H56.6917L61.1737 8.996L56.5477 4.01H60.8497L63.4057 6.8L65.8717 4.01H69.7417L65.4397 8.924L70.0117 14H65.9617ZM75.0149 14H71.5049V4.01H75.0149V7.646H79.9109V4.01H83.4209V14H79.9109V10.31H75.0149V14ZM92.6048 14.27H92.0468C86.6648 14.27 85.8368 10.994 85.8368 9.176V8.924C85.8368 7.124 86.6648 3.74 92.0288 3.74H92.6228C98.1668 3.74 98.8148 7.142 98.8148 8.906V9.194C98.8148 10.994 98.1668 14.27 92.6048 14.27ZM92.2268 11.642H92.4248C94.6388 11.642 95.1968 10.058 95.1968 8.96C95.1968 7.826 94.6388 6.314 92.4248 6.314H92.2268C89.9228 6.314 89.4548 7.826 89.4548 8.96C89.4548 10.058 89.9228 11.642 92.2268 11.642ZM109.244 14V6.674H105.284C105.284 9.356 105.194 10.85 104.852 11.768C104.474 12.776 103.97 14 101.324 14H100.226V11.39H100.442C101.072 11.39 101.54 11.174 101.738 10.256C101.882 9.482 101.936 8.636 101.936 4.01H112.754V14H109.244ZM121.925 14.27H121.367C115.985 14.27 115.157 10.994 115.157 9.176V8.924C115.157 7.124 115.985 3.74 121.349 3.74H121.943C127.487 3.74 128.135 7.142 128.135 8.906V9.194C128.135 10.994 127.487 14.27 121.925 14.27ZM121.547 11.642H121.745C123.959 11.642 124.517 10.058 124.517 8.96C124.517 7.826 123.959 6.314 121.745 6.314H121.547C119.243 6.314 118.775 7.826 118.775 8.96C118.775 10.058 119.243 11.642 121.547 11.642ZM130.55 14V4.01H139.262V6.674H134.06V14H130.55ZM149.591 7.952L144.767 14H141.167V4.01H144.677V10.058L149.501 4.01H153.101V14H149.591V7.952ZM163.437 4.01H166.947V14H163.437V10.562C162.663 10.652 161.763 10.742 160.827 10.742C156.867 10.742 155.373 9.626 155.373 6.458V4.01H158.883V5.81C158.883 7.682 159.513 8.006 161.367 8.006C162.069 8.006 162.879 7.952 163.437 7.88V4.01ZM175.668 6.08C173.85 6.08 173.166 6.818 172.986 7.862H178.278C178.278 7.124 177.918 6.08 175.668 6.08ZM178.35 10.886H182.004C182.004 11.714 181.356 14.234 176.19 14.234H175.524C170.592 14.234 169.368 11.534 169.368 9.14V8.888C169.368 6.638 170.484 3.794 175.218 3.794H176.01C181.122 3.794 182.04 6.638 182.04 9.428V9.752H172.95C173.094 10.904 173.832 11.84 175.974 11.84C178.008 11.84 178.26 11.048 178.35 10.886ZM192.796 10.076H196.468C196.468 11.588 195.568 14.27 190.762 14.27H189.88C184.894 14.27 183.958 11.03 183.958 9.14V8.888C183.958 6.998 184.84 3.74 189.862 3.74H190.69C195.514 3.74 196.468 6.368 196.468 7.808V7.826H192.796C192.742 7.538 192.4 6.296 190.33 6.296H190.15C188.08 6.296 187.594 7.718 187.594 8.924V8.942C187.594 10.184 188.188 11.66 190.222 11.66H190.402C192.49 11.66 192.796 10.31 192.796 10.076ZM206.292 14L202.404 9.374V14H198.894V4.01H202.404V8.006L205.968 4.01H210.018L205.842 8.492L210.468 14H206.292ZM220.343 7.952L215.519 14H211.919V4.01H215.429V10.058L220.253 4.01H223.853V14H220.343V7.952ZM235.196 7.952L230.372 14H226.772V4.01H230.282V10.058L235.106 4.01H238.706V14H235.196V7.952ZM232.964 2.984H232.424C229.562 2.984 229.058 1.04 229.058 0.104V0.0499994H231.704C231.704 0.284 231.812 1.004 232.712 1.004C233.558 1.004 233.684 0.284 233.684 0.0499994H236.294V0.104C236.294 1.04 235.574 2.984 232.964 2.984ZM246.829 14V4.01H255.541V6.674H250.339V14H246.829ZM258.202 17.438V14.936H260.398C260.74 14.936 260.92 14.792 260.92 14.522V14.504C260.92 14.288 260.866 14.09 260.596 13.532L256.312 4.01H260.164L262.936 11.174L265.69 4.01H269.218L264.646 15.008C263.944 16.646 263.08 17.438 261.424 17.438H258.202ZM280.179 9.014V8.96C280.179 7.88 279.675 6.422 277.479 6.422H277.299C275.193 6.422 274.527 7.808 274.527 8.96V9.014C274.527 10.112 275.193 11.552 277.299 11.552H277.479C279.675 11.552 280.179 10.04 280.179 9.014ZM271.035 17.438V4.01H274.509V5.288C274.941 4.82 276.255 3.812 278.523 3.812H278.757C282.573 3.812 283.815 6.422 283.815 8.798V9.104C283.815 11.282 282.537 14.198 278.739 14.198H278.487C276.201 14.198 274.977 13.154 274.545 12.722V17.438H271.035ZM286.837 17.438V14.936H289.033C289.375 14.936 289.555 14.792 289.555 14.522V14.504C289.555 14.288 289.501 14.09 289.231 13.532L284.947 4.01H288.799L291.571 11.174L294.325 4.01H297.853L293.281 15.008C292.579 16.646 291.715 17.438 290.059 17.438H286.837Z" fill="url(#paint2_radial_2018_1254)"/>
<path d="M7.70525 14.198H6.98525C1.29725 14.198 0.271248 11.48 0.271248 10.256V10.004H4.17725C4.26725 10.382 4.80725 11.21 7.38125 11.21C9.81125 11.21 10.7112 10.562 10.7112 9.554V9.446C10.7112 8.384 9.84725 7.844 7.38125 7.844C4.84325 7.844 4.28525 8.474 4.14125 8.888H0.469248V0.608H13.4652V3.65H4.14125V6.134C4.28525 5.99 5.50925 5.09 8.19125 5.09H8.37125C13.1412 5.09 14.4012 7.142 14.4012 9.248V9.464C14.4012 11.642 12.9792 14.198 7.70525 14.198ZM20.8078 10.508V14H16.6138V10.508H20.8078ZM34.012 14V3.668H28.828V0.608H42.886V3.668H37.702V14H34.012ZM49.3697 6.08C47.5517 6.08 46.8677 6.818 46.6877 7.862H51.9797C51.9797 7.124 51.6197 6.08 49.3697 6.08ZM52.0517 10.886H55.7057C55.7057 11.714 55.0577 14.234 49.8917 14.234H49.2257C44.2937 14.234 43.0697 11.534 43.0697 9.14V8.888C43.0697 6.638 44.1857 3.794 48.9197 3.794H49.7117C54.8237 3.794 55.7417 6.638 55.7417 9.428V9.752H46.6517C46.7957 10.904 47.5337 11.84 49.6757 11.84C51.7097 11.84 51.9617 11.048 52.0517 10.886ZM65.9617 14L63.2797 11.138L60.6697 14H56.6917L61.1737 8.996L56.5477 4.01H60.8497L63.4057 6.8L65.8717 4.01H69.7417L65.4397 8.924L70.0117 14H65.9617ZM75.0149 14H71.5049V4.01H75.0149V7.646H79.9109V4.01H83.4209V14H79.9109V10.31H75.0149V14ZM92.6048 14.27H92.0468C86.6648 14.27 85.8368 10.994 85.8368 9.176V8.924C85.8368 7.124 86.6648 3.74 92.0288 3.74H92.6228C98.1668 3.74 98.8148 7.142 98.8148 8.906V9.194C98.8148 10.994 98.1668 14.27 92.6048 14.27ZM92.2268 11.642H92.4248C94.6388 11.642 95.1968 10.058 95.1968 8.96C95.1968 7.826 94.6388 6.314 92.4248 6.314H92.2268C89.9228 6.314 89.4548 7.826 89.4548 8.96C89.4548 10.058 89.9228 11.642 92.2268 11.642ZM109.244 14V6.674H105.284C105.284 9.356 105.194 10.85 104.852 11.768C104.474 12.776 103.97 14 101.324 14H100.226V11.39H100.442C101.072 11.39 101.54 11.174 101.738 10.256C101.882 9.482 101.936 8.636 101.936 4.01H112.754V14H109.244ZM121.925 14.27H121.367C115.985 14.27 115.157 10.994 115.157 9.176V8.924C115.157 7.124 115.985 3.74 121.349 3.74H121.943C127.487 3.74 128.135 7.142 128.135 8.906V9.194C128.135 10.994 127.487 14.27 121.925 14.27ZM121.547 11.642H121.745C123.959 11.642 124.517 10.058 124.517 8.96C124.517 7.826 123.959 6.314 121.745 6.314H121.547C119.243 6.314 118.775 7.826 118.775 8.96C118.775 10.058 119.243 11.642 121.547 11.642ZM130.55 14V4.01H139.262V6.674H134.06V14H130.55ZM149.591 7.952L144.767 14H141.167V4.01H144.677V10.058L149.501 4.01H153.101V14H149.591V7.952ZM163.437 4.01H166.947V14H163.437V10.562C162.663 10.652 161.763 10.742 160.827 10.742C156.867 10.742 155.373 9.626 155.373 6.458V4.01H158.883V5.81C158.883 7.682 159.513 8.006 161.367 8.006C162.069 8.006 162.879 7.952 163.437 7.88V4.01ZM175.668 6.08C173.85 6.08 173.166 6.818 172.986 7.862H178.278C178.278 7.124 177.918 6.08 175.668 6.08ZM178.35 10.886H182.004C182.004 11.714 181.356 14.234 176.19 14.234H175.524C170.592 14.234 169.368 11.534 169.368 9.14V8.888C169.368 6.638 170.484 3.794 175.218 3.794H176.01C181.122 3.794 182.04 6.638 182.04 9.428V9.752H172.95C173.094 10.904 173.832 11.84 175.974 11.84C178.008 11.84 178.26 11.048 178.35 10.886ZM192.796 10.076H196.468C196.468 11.588 195.568 14.27 190.762 14.27H189.88C184.894 14.27 183.958 11.03 183.958 9.14V8.888C183.958 6.998 184.84 3.74 189.862 3.74H190.69C195.514 3.74 196.468 6.368 196.468 7.808V7.826H192.796C192.742 7.538 192.4 6.296 190.33 6.296H190.15C188.08 6.296 187.594 7.718 187.594 8.924V8.942C187.594 10.184 188.188 11.66 190.222 11.66H190.402C192.49 11.66 192.796 10.31 192.796 10.076ZM206.292 14L202.404 9.374V14H198.894V4.01H202.404V8.006L205.968 4.01H210.018L205.842 8.492L210.468 14H206.292ZM220.343 7.952L215.519 14H211.919V4.01H215.429V10.058L220.253 4.01H223.853V14H220.343V7.952ZM235.196 7.952L230.372 14H226.772V4.01H230.282V10.058L235.106 4.01H238.706V14H235.196V7.952ZM232.964 2.984H232.424C229.562 2.984 229.058 1.04 229.058 0.104V0.0499994H231.704C231.704 0.284 231.812 1.004 232.712 1.004C233.558 1.004 233.684 0.284 233.684 0.0499994H236.294V0.104C236.294 1.04 235.574 2.984 232.964 2.984ZM246.829 14V4.01H255.541V6.674H250.339V14H246.829ZM258.202 17.438V14.936H260.398C260.74 14.936 260.92 14.792 260.92 14.522V14.504C260.92 14.288 260.866 14.09 260.596 13.532L256.312 4.01H260.164L262.936 11.174L265.69 4.01H269.218L264.646 15.008C263.944 16.646 263.08 17.438 261.424 17.438H258.202ZM280.179 9.014V8.96C280.179 7.88 279.675 6.422 277.479 6.422H277.299C275.193 6.422 274.527 7.808 274.527 8.96V9.014C274.527 10.112 275.193 11.552 277.299 11.552H277.479C279.675 11.552 280.179 10.04 280.179 9.014ZM271.035 17.438V4.01H274.509V5.288C274.941 4.82 276.255 3.812 278.523 3.812H278.757C282.573 3.812 283.815 6.422 283.815 8.798V9.104C283.815 11.282 282.537 14.198 278.739 14.198H278.487C276.201 14.198 274.977 13.154 274.545 12.722V17.438H271.035ZM286.837 17.438V14.936H289.033C289.375 14.936 289.555 14.792 289.555 14.522V14.504C289.555 14.288 289.501 14.09 289.231 13.532L284.947 4.01H288.799L291.571 11.174L294.325 4.01H297.853L293.281 15.008C292.579 16.646 291.715 17.438 290.059 17.438H286.837Z" fill="#C1A875" style="mix-blend-mode:color"/>
<defs>
<linearGradient id="paint0_linear_2018_1254" x1="1" y1="6" x2="540" y2="6.00007" gradientUnits="userSpaceOnUse">
<stop stop-color="#576167"/>
<stop offset="0.191294" stop-color="#9EA1A2"/>
<stop offset="0.396166" stop-color="#848989"/>
<stop offset="0.62055" stop-color="#576167"/>
<stop offset="0.830299" stop-color="#757A7C"/>
<stop offset="1" stop-color="#576167"/>
</linearGradient>
<radialGradient id="paint1_radial_2018_1254" cx="0" cy="0" r="1" gradientUnits="userSpaceOnUse" gradientTransform="translate(288.045 -3.20225) rotate(89.9999) scale(17.8315 407.771)">
<stop stop-color="white"/>
<stop offset="1" stop-color="white" stop-opacity="0"/>
</radialGradient>
<radialGradient id="paint2_radial_2018_1254" cx="0" cy="0" r="1" gradientUnits="userSpaceOnUse" gradientTransform="translate(318.533 23.6629) rotate(-88.0658) scale(25.5651 582.771)">
<stop stop-color="white"/>
<stop offset="1" stop-color="white" stop-opacity="0"/>
</radialGradient>
</defs>
</svg>
