<svg width="354" height="18" viewBox="0 0 354 18" fill="none" xmlns="http://www.w3.org/2000/svg">
<path d="M8.81325 14.198H7.93125C1.77525 14.198 0.893248 10.022 0.893248 7.646V7.232C0.893248 5.144 1.86525 0.446 7.93125 0.446H8.47125C13.8892 0.446 14.9872 2.768 14.9872 4.496V4.514H11.3152C11.3152 4.316 11.0632 3.308 8.27325 3.308C5.03325 3.308 4.67325 5.612 4.67325 6.71V6.836C5.01525 6.548 6.16725 5.54 9.22725 5.54H9.62325C13.9612 5.54 15.4732 7.322 15.4732 9.356V9.662C15.4732 11.444 14.5012 14.198 8.81325 14.198ZM5.17725 9.662V9.752C5.17725 10.4 5.71725 11.354 8.39925 11.354C11.3152 11.354 11.6572 10.364 11.6572 9.77V9.662C11.6572 9.014 11.2252 8.15 8.39925 8.15C5.66325 8.15 5.17725 9.014 5.17725 9.662ZM21.8078 10.508V14H17.6138V10.508H21.8078ZM30.656 14V0.608H44.534V14H40.826V3.56H34.364V14H30.656ZM53.4634 6.08C51.6454 6.08 50.9614 6.818 50.7814 7.862H56.0734C56.0734 7.124 55.7134 6.08 53.4634 6.08ZM56.1454 10.886H59.7994C59.7994 11.714 59.1514 14.234 53.9854 14.234H53.3194C48.3874 14.234 47.1634 11.534 47.1634 9.14V8.888C47.1634 6.638 48.2794 3.794 53.0134 3.794H53.8054C58.9174 3.794 59.8354 6.638 59.8354 9.428V9.752H50.7454C50.8894 10.904 51.6274 11.84 53.7694 11.84C55.8034 11.84 56.0554 11.048 56.1454 10.886ZM71.4193 9.014V8.96C71.4193 7.88 70.9153 6.422 68.7193 6.422H68.5393C66.4333 6.422 65.7673 7.808 65.7673 8.96V9.014C65.7673 10.112 66.4333 11.552 68.5393 11.552H68.7193C70.9153 11.552 71.4193 10.04 71.4193 9.014ZM62.2753 17.438V4.01H65.7493V5.288C66.1813 4.82 67.4953 3.812 69.7633 3.812H69.9973C73.8133 3.812 75.0553 6.422 75.0553 8.798V9.104C75.0553 11.282 73.7773 14.198 69.9793 14.198H69.7273C67.4413 14.198 66.2173 13.154 65.7853 12.722V17.438H62.2753ZM85.8491 10.076H89.5211C89.5211 11.588 88.6211 14.27 83.8151 14.27H82.9331C77.9471 14.27 77.0111 11.03 77.0111 9.14V8.888C77.0111 6.998 77.8931 3.74 82.9151 3.74H83.7431C88.5671 3.74 89.5211 6.368 89.5211 7.808V7.826H85.8491C85.7951 7.538 85.4531 6.296 83.3831 6.296H83.2031C81.1331 6.296 80.6471 7.718 80.6471 8.924V8.942C80.6471 10.184 81.2411 11.66 83.2751 11.66H83.4551C85.5431 11.66 85.8491 10.31 85.8491 10.076ZM91.9111 14V4.01H103.467V14H99.9571V6.674H95.4211V14H91.9111ZM112.192 6.08C110.374 6.08 109.69 6.818 109.51 7.862H114.802C114.802 7.124 114.442 6.08 112.192 6.08ZM114.874 10.886H118.528C118.528 11.714 117.88 14.234 112.714 14.234H112.048C107.116 14.234 105.892 11.534 105.892 9.14V8.888C105.892 6.638 107.008 3.794 111.742 3.794H112.534C117.646 3.794 118.564 6.638 118.564 9.428V9.752H109.474C109.618 10.904 110.356 11.84 112.498 11.84C114.532 11.84 114.784 11.048 114.874 10.886ZM128.402 14L124.514 9.374V14H121.004V4.01H124.514V8.006L128.078 4.01H132.128L127.952 8.492L132.578 14H128.402ZM136.89 14V6.674H133.02V4.01H144.27V6.674H140.4V14H136.89ZM154.599 7.952L149.775 14H146.175V4.01H149.685V10.058L154.509 4.01H158.109V14H154.599V7.952ZM169.272 14H161.028V4.01H168.912C171.198 4.01 172.638 4.82 172.638 6.404V6.494C172.638 7.736 171.846 8.474 170.64 8.672C171.864 8.816 172.962 9.68 172.962 11.12V11.192C172.962 13.01 171.774 14 169.272 14ZM164.538 7.988H167.76C168.606 7.988 169.038 7.664 169.038 7.034V6.944C169.038 6.368 168.642 6.026 167.76 6.026H164.538V7.988ZM164.538 11.984H167.904C168.84 11.984 169.362 11.678 169.362 10.976V10.832C169.362 10.202 168.93 9.806 167.904 9.806H164.538V11.984ZM178.917 14H175.407V4.01H178.917V7.646H183.813V4.01H187.323V14H183.813V10.31H178.917V14ZM190.243 14V4.01H193.753V6.872H196.489C199.909 6.872 201.241 8.384 201.241 10.292V10.508C201.241 12.596 199.909 14 196.489 14H190.243ZM193.753 11.624H196.057C196.777 11.624 197.641 11.408 197.641 10.436V10.382C197.641 9.482 196.777 9.248 196.057 9.248H193.753V11.624ZM206.029 4.01V14H202.519V4.01H206.029ZM217.37 7.952L212.546 14H208.946V4.01H212.456V10.058L217.28 4.01H220.88V14H217.37V7.952ZM215.138 2.984H214.598C211.736 2.984 211.232 1.04 211.232 0.104V0.0499994H213.878C213.878 0.284 213.986 1.004 214.886 1.004C215.732 1.004 215.858 0.284 215.858 0.0499994H218.468V0.104C218.468 1.04 217.748 2.984 215.138 2.984ZM237.355 10.076H241.027C241.027 11.588 240.127 14.27 235.321 14.27H234.439C229.453 14.27 228.517 11.03 228.517 9.14V8.888C228.517 6.998 229.399 3.74 234.421 3.74H235.249C240.073 3.74 241.027 6.368 241.027 7.808V7.826H237.355C237.301 7.538 236.959 6.296 234.889 6.296H234.709C232.639 6.296 232.153 7.718 232.153 8.924V8.942C232.153 10.184 232.747 11.66 234.781 11.66H234.961C237.049 11.66 237.355 10.31 237.355 10.076ZM246.279 14V6.674H242.409V4.01H253.659V6.674H249.789V14H246.279ZM260.279 12.002C262.331 12.002 263.033 10.706 263.033 9.95V9.176C262.727 9.302 261.845 9.482 260.837 9.644C259.145 9.932 258.605 10.166 258.605 10.868V10.904C258.605 11.534 259.055 12.002 260.279 12.002ZM263.141 12.614C262.709 13.136 261.629 14.198 259.289 14.198H259.001C256.211 14.198 255.059 12.686 255.059 11.03V10.958C255.059 9.23 256.157 8.168 259.541 7.88L262.277 7.646C262.835 7.592 263.033 7.412 263.033 6.998C263.033 6.53 262.889 6.026 260.945 6.026C259.109 6.026 258.929 6.746 258.929 7.124H255.329V7.088C255.329 6.098 255.725 3.776 260.639 3.776H261.197C266.147 3.776 266.453 5.81 266.453 7.142V10.436C266.453 11.066 266.579 11.318 267.281 11.318H267.659V14H264.815C263.771 14 263.285 13.262 263.141 12.614ZM278.841 9.014V8.96C278.841 7.88 278.337 6.422 276.141 6.422H275.961C273.855 6.422 273.189 7.808 273.189 8.96V9.014C273.189 10.112 273.855 11.552 275.961 11.552H276.141C278.337 11.552 278.841 10.04 278.841 9.014ZM269.697 17.438V4.01H273.171V5.288C273.603 4.82 274.917 3.812 277.185 3.812H277.419C281.235 3.812 282.477 6.422 282.477 8.798V9.104C282.477 11.282 281.199 14.198 277.401 14.198H277.149C274.863 14.198 273.639 13.154 273.207 12.722V17.438H269.697ZM287.781 14V6.674H283.911V4.01H295.161V6.674H291.291V14H287.781ZM301.781 12.002C303.833 12.002 304.535 10.706 304.535 9.95V9.176C304.229 9.302 303.347 9.482 302.339 9.644C300.647 9.932 300.107 10.166 300.107 10.868V10.904C300.107 11.534 300.557 12.002 301.781 12.002ZM304.643 12.614C304.211 13.136 303.131 14.198 300.791 14.198H300.503C297.713 14.198 296.561 12.686 296.561 11.03V10.958C296.561 9.23 297.659 8.168 301.043 7.88L303.779 7.646C304.337 7.592 304.535 7.412 304.535 6.998C304.535 6.53 304.391 6.026 302.447 6.026C300.611 6.026 300.431 6.746 300.431 7.124H296.831V7.088C296.831 6.098 297.227 3.776 302.141 3.776H302.699C307.649 3.776 307.955 5.81 307.955 7.142V10.436C307.955 11.066 308.081 11.318 308.783 11.318H309.161V14H306.317C305.273 14 304.787 13.262 304.643 12.614ZM311.163 14V4.01H322.719V14H319.209V6.674H314.673V14H311.163ZM331.444 6.08C329.626 6.08 328.942 6.818 328.762 7.862H334.054C334.054 7.124 333.694 6.08 331.444 6.08ZM334.126 10.886H337.78C337.78 11.714 337.132 14.234 331.966 14.234H331.3C326.368 14.234 325.144 11.534 325.144 9.14V8.888C325.144 6.638 326.26 3.794 330.994 3.794H331.786C336.898 3.794 337.816 6.638 337.816 9.428V9.752H328.726C328.87 10.904 329.608 11.84 331.75 11.84C333.784 11.84 334.036 11.048 334.126 10.886ZM349.4 9.014V8.96C349.4 7.88 348.896 6.422 346.7 6.422H346.52C344.414 6.422 343.748 7.808 343.748 8.96V9.014C343.748 10.112 344.414 11.552 346.52 11.552H346.7C348.896 11.552 349.4 10.04 349.4 9.014ZM340.256 17.438V4.01H343.73V5.288C344.162 4.82 345.476 3.812 347.744 3.812H347.978C351.794 3.812 353.036 6.422 353.036 8.798V9.104C353.036 11.282 351.758 14.198 347.96 14.198H347.708C345.422 14.198 344.198 13.154 343.766 12.722V17.438H340.256Z" fill="url(#paint0_linear_2018_1262)"/>
<path d="M8.81325 14.198H7.93125C1.77525 14.198 0.893248 10.022 0.893248 7.646V7.232C0.893248 5.144 1.86525 0.446 7.93125 0.446H8.47125C13.8892 0.446 14.9872 2.768 14.9872 4.496V4.514H11.3152C11.3152 4.316 11.0632 3.308 8.27325 3.308C5.03325 3.308 4.67325 5.612 4.67325 6.71V6.836C5.01525 6.548 6.16725 5.54 9.22725 5.54H9.62325C13.9612 5.54 15.4732 7.322 15.4732 9.356V9.662C15.4732 11.444 14.5012 14.198 8.81325 14.198ZM5.17725 9.662V9.752C5.17725 10.4 5.71725 11.354 8.39925 11.354C11.3152 11.354 11.6572 10.364 11.6572 9.77V9.662C11.6572 9.014 11.2252 8.15 8.39925 8.15C5.66325 8.15 5.17725 9.014 5.17725 9.662ZM21.8078 10.508V14H17.6138V10.508H21.8078ZM30.656 14V0.608H44.534V14H40.826V3.56H34.364V14H30.656ZM53.4634 6.08C51.6454 6.08 50.9614 6.818 50.7814 7.862H56.0734C56.0734 7.124 55.7134 6.08 53.4634 6.08ZM56.1454 10.886H59.7994C59.7994 11.714 59.1514 14.234 53.9854 14.234H53.3194C48.3874 14.234 47.1634 11.534 47.1634 9.14V8.888C47.1634 6.638 48.2794 3.794 53.0134 3.794H53.8054C58.9174 3.794 59.8354 6.638 59.8354 9.428V9.752H50.7454C50.8894 10.904 51.6274 11.84 53.7694 11.84C55.8034 11.84 56.0554 11.048 56.1454 10.886ZM71.4193 9.014V8.96C71.4193 7.88 70.9153 6.422 68.7193 6.422H68.5393C66.4333 6.422 65.7673 7.808 65.7673 8.96V9.014C65.7673 10.112 66.4333 11.552 68.5393 11.552H68.7193C70.9153 11.552 71.4193 10.04 71.4193 9.014ZM62.2753 17.438V4.01H65.7493V5.288C66.1813 4.82 67.4953 3.812 69.7633 3.812H69.9973C73.8133 3.812 75.0553 6.422 75.0553 8.798V9.104C75.0553 11.282 73.7773 14.198 69.9793 14.198H69.7273C67.4413 14.198 66.2173 13.154 65.7853 12.722V17.438H62.2753ZM85.8491 10.076H89.5211C89.5211 11.588 88.6211 14.27 83.8151 14.27H82.9331C77.9471 14.27 77.0111 11.03 77.0111 9.14V8.888C77.0111 6.998 77.8931 3.74 82.9151 3.74H83.7431C88.5671 3.74 89.5211 6.368 89.5211 7.808V7.826H85.8491C85.7951 7.538 85.4531 6.296 83.3831 6.296H83.2031C81.1331 6.296 80.6471 7.718 80.6471 8.924V8.942C80.6471 10.184 81.2411 11.66 83.2751 11.66H83.4551C85.5431 11.66 85.8491 10.31 85.8491 10.076ZM91.9111 14V4.01H103.467V14H99.9571V6.674H95.4211V14H91.9111ZM112.192 6.08C110.374 6.08 109.69 6.818 109.51 7.862H114.802C114.802 7.124 114.442 6.08 112.192 6.08ZM114.874 10.886H118.528C118.528 11.714 117.88 14.234 112.714 14.234H112.048C107.116 14.234 105.892 11.534 105.892 9.14V8.888C105.892 6.638 107.008 3.794 111.742 3.794H112.534C117.646 3.794 118.564 6.638 118.564 9.428V9.752H109.474C109.618 10.904 110.356 11.84 112.498 11.84C114.532 11.84 114.784 11.048 114.874 10.886ZM128.402 14L124.514 9.374V14H121.004V4.01H124.514V8.006L128.078 4.01H132.128L127.952 8.492L132.578 14H128.402ZM136.89 14V6.674H133.02V4.01H144.27V6.674H140.4V14H136.89ZM154.599 7.952L149.775 14H146.175V4.01H149.685V10.058L154.509 4.01H158.109V14H154.599V7.952ZM169.272 14H161.028V4.01H168.912C171.198 4.01 172.638 4.82 172.638 6.404V6.494C172.638 7.736 171.846 8.474 170.64 8.672C171.864 8.816 172.962 9.68 172.962 11.12V11.192C172.962 13.01 171.774 14 169.272 14ZM164.538 7.988H167.76C168.606 7.988 169.038 7.664 169.038 7.034V6.944C169.038 6.368 168.642 6.026 167.76 6.026H164.538V7.988ZM164.538 11.984H167.904C168.84 11.984 169.362 11.678 169.362 10.976V10.832C169.362 10.202 168.93 9.806 167.904 9.806H164.538V11.984ZM178.917 14H175.407V4.01H178.917V7.646H183.813V4.01H187.323V14H183.813V10.31H178.917V14ZM190.243 14V4.01H193.753V6.872H196.489C199.909 6.872 201.241 8.384 201.241 10.292V10.508C201.241 12.596 199.909 14 196.489 14H190.243ZM193.753 11.624H196.057C196.777 11.624 197.641 11.408 197.641 10.436V10.382C197.641 9.482 196.777 9.248 196.057 9.248H193.753V11.624ZM206.029 4.01V14H202.519V4.01H206.029ZM217.37 7.952L212.546 14H208.946V4.01H212.456V10.058L217.28 4.01H220.88V14H217.37V7.952ZM215.138 2.984H214.598C211.736 2.984 211.232 1.04 211.232 0.104V0.0499994H213.878C213.878 0.284 213.986 1.004 214.886 1.004C215.732 1.004 215.858 0.284 215.858 0.0499994H218.468V0.104C218.468 1.04 217.748 2.984 215.138 2.984ZM237.355 10.076H241.027C241.027 11.588 240.127 14.27 235.321 14.27H234.439C229.453 14.27 228.517 11.03 228.517 9.14V8.888C228.517 6.998 229.399 3.74 234.421 3.74H235.249C240.073 3.74 241.027 6.368 241.027 7.808V7.826H237.355C237.301 7.538 236.959 6.296 234.889 6.296H234.709C232.639 6.296 232.153 7.718 232.153 8.924V8.942C232.153 10.184 232.747 11.66 234.781 11.66H234.961C237.049 11.66 237.355 10.31 237.355 10.076ZM246.279 14V6.674H242.409V4.01H253.659V6.674H249.789V14H246.279ZM260.279 12.002C262.331 12.002 263.033 10.706 263.033 9.95V9.176C262.727 9.302 261.845 9.482 260.837 9.644C259.145 9.932 258.605 10.166 258.605 10.868V10.904C258.605 11.534 259.055 12.002 260.279 12.002ZM263.141 12.614C262.709 13.136 261.629 14.198 259.289 14.198H259.001C256.211 14.198 255.059 12.686 255.059 11.03V10.958C255.059 9.23 256.157 8.168 259.541 7.88L262.277 7.646C262.835 7.592 263.033 7.412 263.033 6.998C263.033 6.53 262.889 6.026 260.945 6.026C259.109 6.026 258.929 6.746 258.929 7.124H255.329V7.088C255.329 6.098 255.725 3.776 260.639 3.776H261.197C266.147 3.776 266.453 5.81 266.453 7.142V10.436C266.453 11.066 266.579 11.318 267.281 11.318H267.659V14H264.815C263.771 14 263.285 13.262 263.141 12.614ZM278.841 9.014V8.96C278.841 7.88 278.337 6.422 276.141 6.422H275.961C273.855 6.422 273.189 7.808 273.189 8.96V9.014C273.189 10.112 273.855 11.552 275.961 11.552H276.141C278.337 11.552 278.841 10.04 278.841 9.014ZM269.697 17.438V4.01H273.171V5.288C273.603 4.82 274.917 3.812 277.185 3.812H277.419C281.235 3.812 282.477 6.422 282.477 8.798V9.104C282.477 11.282 281.199 14.198 277.401 14.198H277.149C274.863 14.198 273.639 13.154 273.207 12.722V17.438H269.697ZM287.781 14V6.674H283.911V4.01H295.161V6.674H291.291V14H287.781ZM301.781 12.002C303.833 12.002 304.535 10.706 304.535 9.95V9.176C304.229 9.302 303.347 9.482 302.339 9.644C300.647 9.932 300.107 10.166 300.107 10.868V10.904C300.107 11.534 300.557 12.002 301.781 12.002ZM304.643 12.614C304.211 13.136 303.131 14.198 300.791 14.198H300.503C297.713 14.198 296.561 12.686 296.561 11.03V10.958C296.561 9.23 297.659 8.168 301.043 7.88L303.779 7.646C304.337 7.592 304.535 7.412 304.535 6.998C304.535 6.53 304.391 6.026 302.447 6.026C300.611 6.026 300.431 6.746 300.431 7.124H296.831V7.088C296.831 6.098 297.227 3.776 302.141 3.776H302.699C307.649 3.776 307.955 5.81 307.955 7.142V10.436C307.955 11.066 308.081 11.318 308.783 11.318H309.161V14H306.317C305.273 14 304.787 13.262 304.643 12.614ZM311.163 14V4.01H322.719V14H319.209V6.674H314.673V14H311.163ZM331.444 6.08C329.626 6.08 328.942 6.818 328.762 7.862H334.054C334.054 7.124 333.694 6.08 331.444 6.08ZM334.126 10.886H337.78C337.78 11.714 337.132 14.234 331.966 14.234H331.3C326.368 14.234 325.144 11.534 325.144 9.14V8.888C325.144 6.638 326.26 3.794 330.994 3.794H331.786C336.898 3.794 337.816 6.638 337.816 9.428V9.752H328.726C328.87 10.904 329.608 11.84 331.75 11.84C333.784 11.84 334.036 11.048 334.126 10.886ZM349.4 9.014V8.96C349.4 7.88 348.896 6.422 346.7 6.422H346.52C344.414 6.422 343.748 7.808 343.748 8.96V9.014C343.748 10.112 344.414 11.552 346.52 11.552H346.7C348.896 11.552 349.4 10.04 349.4 9.014ZM340.256 17.438V4.01H343.73V5.288C344.162 4.82 345.476 3.812 347.744 3.812H347.978C351.794 3.812 353.036 6.422 353.036 8.798V9.104C353.036 11.282 351.758 14.198 347.96 14.198H347.708C345.422 14.198 344.198 13.154 343.766 12.722V17.438H340.256Z" fill="url(#paint1_radial_2018_1262)" style="mix-blend-mode:overlay"/>
<path d="M8.81325 14.198H7.93125C1.77525 14.198 0.893248 10.022 0.893248 7.646V7.232C0.893248 5.144 1.86525 0.446 7.93125 0.446H8.47125C13.8892 0.446 14.9872 2.768 14.9872 4.496V4.514H11.3152C11.3152 4.316 11.0632 3.308 8.27325 3.308C5.03325 3.308 4.67325 5.612 4.67325 6.71V6.836C5.01525 6.548 6.16725 5.54 9.22725 5.54H9.62325C13.9612 5.54 15.4732 7.322 15.4732 9.356V9.662C15.4732 11.444 14.5012 14.198 8.81325 14.198ZM5.17725 9.662V9.752C5.17725 10.4 5.71725 11.354 8.39925 11.354C11.3152 11.354 11.6572 10.364 11.6572 9.77V9.662C11.6572 9.014 11.2252 8.15 8.39925 8.15C5.66325 8.15 5.17725 9.014 5.17725 9.662ZM21.8078 10.508V14H17.6138V10.508H21.8078ZM30.656 14V0.608H44.534V14H40.826V3.56H34.364V14H30.656ZM53.4634 6.08C51.6454 6.08 50.9614 6.818 50.7814 7.862H56.0734C56.0734 7.124 55.7134 6.08 53.4634 6.08ZM56.1454 10.886H59.7994C59.7994 11.714 59.1514 14.234 53.9854 14.234H53.3194C48.3874 14.234 47.1634 11.534 47.1634 9.14V8.888C47.1634 6.638 48.2794 3.794 53.0134 3.794H53.8054C58.9174 3.794 59.8354 6.638 59.8354 9.428V9.752H50.7454C50.8894 10.904 51.6274 11.84 53.7694 11.84C55.8034 11.84 56.0554 11.048 56.1454 10.886ZM71.4193 9.014V8.96C71.4193 7.88 70.9153 6.422 68.7193 6.422H68.5393C66.4333 6.422 65.7673 7.808 65.7673 8.96V9.014C65.7673 10.112 66.4333 11.552 68.5393 11.552H68.7193C70.9153 11.552 71.4193 10.04 71.4193 9.014ZM62.2753 17.438V4.01H65.7493V5.288C66.1813 4.82 67.4953 3.812 69.7633 3.812H69.9973C73.8133 3.812 75.0553 6.422 75.0553 8.798V9.104C75.0553 11.282 73.7773 14.198 69.9793 14.198H69.7273C67.4413 14.198 66.2173 13.154 65.7853 12.722V17.438H62.2753ZM85.8491 10.076H89.5211C89.5211 11.588 88.6211 14.27 83.8151 14.27H82.9331C77.9471 14.27 77.0111 11.03 77.0111 9.14V8.888C77.0111 6.998 77.8931 3.74 82.9151 3.74H83.7431C88.5671 3.74 89.5211 6.368 89.5211 7.808V7.826H85.8491C85.7951 7.538 85.4531 6.296 83.3831 6.296H83.2031C81.1331 6.296 80.6471 7.718 80.6471 8.924V8.942C80.6471 10.184 81.2411 11.66 83.2751 11.66H83.4551C85.5431 11.66 85.8491 10.31 85.8491 10.076ZM91.9111 14V4.01H103.467V14H99.9571V6.674H95.4211V14H91.9111ZM112.192 6.08C110.374 6.08 109.69 6.818 109.51 7.862H114.802C114.802 7.124 114.442 6.08 112.192 6.08ZM114.874 10.886H118.528C118.528 11.714 117.88 14.234 112.714 14.234H112.048C107.116 14.234 105.892 11.534 105.892 9.14V8.888C105.892 6.638 107.008 3.794 111.742 3.794H112.534C117.646 3.794 118.564 6.638 118.564 9.428V9.752H109.474C109.618 10.904 110.356 11.84 112.498 11.84C114.532 11.84 114.784 11.048 114.874 10.886ZM128.402 14L124.514 9.374V14H121.004V4.01H124.514V8.006L128.078 4.01H132.128L127.952 8.492L132.578 14H128.402ZM136.89 14V6.674H133.02V4.01H144.27V6.674H140.4V14H136.89ZM154.599 7.952L149.775 14H146.175V4.01H149.685V10.058L154.509 4.01H158.109V14H154.599V7.952ZM169.272 14H161.028V4.01H168.912C171.198 4.01 172.638 4.82 172.638 6.404V6.494C172.638 7.736 171.846 8.474 170.64 8.672C171.864 8.816 172.962 9.68 172.962 11.12V11.192C172.962 13.01 171.774 14 169.272 14ZM164.538 7.988H167.76C168.606 7.988 169.038 7.664 169.038 7.034V6.944C169.038 6.368 168.642 6.026 167.76 6.026H164.538V7.988ZM164.538 11.984H167.904C168.84 11.984 169.362 11.678 169.362 10.976V10.832C169.362 10.202 168.93 9.806 167.904 9.806H164.538V11.984ZM178.917 14H175.407V4.01H178.917V7.646H183.813V4.01H187.323V14H183.813V10.31H178.917V14ZM190.243 14V4.01H193.753V6.872H196.489C199.909 6.872 201.241 8.384 201.241 10.292V10.508C201.241 12.596 199.909 14 196.489 14H190.243ZM193.753 11.624H196.057C196.777 11.624 197.641 11.408 197.641 10.436V10.382C197.641 9.482 196.777 9.248 196.057 9.248H193.753V11.624ZM206.029 4.01V14H202.519V4.01H206.029ZM217.37 7.952L212.546 14H208.946V4.01H212.456V10.058L217.28 4.01H220.88V14H217.37V7.952ZM215.138 2.984H214.598C211.736 2.984 211.232 1.04 211.232 0.104V0.0499994H213.878C213.878 0.284 213.986 1.004 214.886 1.004C215.732 1.004 215.858 0.284 215.858 0.0499994H218.468V0.104C218.468 1.04 217.748 2.984 215.138 2.984ZM237.355 10.076H241.027C241.027 11.588 240.127 14.27 235.321 14.27H234.439C229.453 14.27 228.517 11.03 228.517 9.14V8.888C228.517 6.998 229.399 3.74 234.421 3.74H235.249C240.073 3.74 241.027 6.368 241.027 7.808V7.826H237.355C237.301 7.538 236.959 6.296 234.889 6.296H234.709C232.639 6.296 232.153 7.718 232.153 8.924V8.942C232.153 10.184 232.747 11.66 234.781 11.66H234.961C237.049 11.66 237.355 10.31 237.355 10.076ZM246.279 14V6.674H242.409V4.01H253.659V6.674H249.789V14H246.279ZM260.279 12.002C262.331 12.002 263.033 10.706 263.033 9.95V9.176C262.727 9.302 261.845 9.482 260.837 9.644C259.145 9.932 258.605 10.166 258.605 10.868V10.904C258.605 11.534 259.055 12.002 260.279 12.002ZM263.141 12.614C262.709 13.136 261.629 14.198 259.289 14.198H259.001C256.211 14.198 255.059 12.686 255.059 11.03V10.958C255.059 9.23 256.157 8.168 259.541 7.88L262.277 7.646C262.835 7.592 263.033 7.412 263.033 6.998C263.033 6.53 262.889 6.026 260.945 6.026C259.109 6.026 258.929 6.746 258.929 7.124H255.329V7.088C255.329 6.098 255.725 3.776 260.639 3.776H261.197C266.147 3.776 266.453 5.81 266.453 7.142V10.436C266.453 11.066 266.579 11.318 267.281 11.318H267.659V14H264.815C263.771 14 263.285 13.262 263.141 12.614ZM278.841 9.014V8.96C278.841 7.88 278.337 6.422 276.141 6.422H275.961C273.855 6.422 273.189 7.808 273.189 8.96V9.014C273.189 10.112 273.855 11.552 275.961 11.552H276.141C278.337 11.552 278.841 10.04 278.841 9.014ZM269.697 17.438V4.01H273.171V5.288C273.603 4.82 274.917 3.812 277.185 3.812H277.419C281.235 3.812 282.477 6.422 282.477 8.798V9.104C282.477 11.282 281.199 14.198 277.401 14.198H277.149C274.863 14.198 273.639 13.154 273.207 12.722V17.438H269.697ZM287.781 14V6.674H283.911V4.01H295.161V6.674H291.291V14H287.781ZM301.781 12.002C303.833 12.002 304.535 10.706 304.535 9.95V9.176C304.229 9.302 303.347 9.482 302.339 9.644C300.647 9.932 300.107 10.166 300.107 10.868V10.904C300.107 11.534 300.557 12.002 301.781 12.002ZM304.643 12.614C304.211 13.136 303.131 14.198 300.791 14.198H300.503C297.713 14.198 296.561 12.686 296.561 11.03V10.958C296.561 9.23 297.659 8.168 301.043 7.88L303.779 7.646C304.337 7.592 304.535 7.412 304.535 6.998C304.535 6.53 304.391 6.026 302.447 6.026C300.611 6.026 300.431 6.746 300.431 7.124H296.831V7.088C296.831 6.098 297.227 3.776 302.141 3.776H302.699C307.649 3.776 307.955 5.81 307.955 7.142V10.436C307.955 11.066 308.081 11.318 308.783 11.318H309.161V14H306.317C305.273 14 304.787 13.262 304.643 12.614ZM311.163 14V4.01H322.719V14H319.209V6.674H314.673V14H311.163ZM331.444 6.08C329.626 6.08 328.942 6.818 328.762 7.862H334.054C334.054 7.124 333.694 6.08 331.444 6.08ZM334.126 10.886H337.78C337.78 11.714 337.132 14.234 331.966 14.234H331.3C326.368 14.234 325.144 11.534 325.144 9.14V8.888C325.144 6.638 326.26 3.794 330.994 3.794H331.786C336.898 3.794 337.816 6.638 337.816 9.428V9.752H328.726C328.87 10.904 329.608 11.84 331.75 11.84C333.784 11.84 334.036 11.048 334.126 10.886ZM349.4 9.014V8.96C349.4 7.88 348.896 6.422 346.7 6.422H346.52C344.414 6.422 343.748 7.808 343.748 8.96V9.014C343.748 10.112 344.414 11.552 346.52 11.552H346.7C348.896 11.552 349.4 10.04 349.4 9.014ZM340.256 17.438V4.01H343.73V5.288C344.162 4.82 345.476 3.812 347.744 3.812H347.978C351.794 3.812 353.036 6.422 353.036 8.798V9.104C353.036 11.282 351.758 14.198 347.96 14.198H347.708C345.422 14.198 344.198 13.154 343.766 12.722V17.438H340.256Z" fill="url(#paint2_radial_2018_1262)"/>
<path d="M8.81325 14.198H7.93125C1.77525 14.198 0.893248 10.022 0.893248 7.646V7.232C0.893248 5.144 1.86525 0.446 7.93125 0.446H8.47125C13.8892 0.446 14.9872 2.768 14.9872 4.496V4.514H11.3152C11.3152 4.316 11.0632 3.308 8.27325 3.308C5.03325 3.308 4.67325 5.612 4.67325 6.71V6.836C5.01525 6.548 6.16725 5.54 9.22725 5.54H9.62325C13.9612 5.54 15.4732 7.322 15.4732 9.356V9.662C15.4732 11.444 14.5012 14.198 8.81325 14.198ZM5.17725 9.662V9.752C5.17725 10.4 5.71725 11.354 8.39925 11.354C11.3152 11.354 11.6572 10.364 11.6572 9.77V9.662C11.6572 9.014 11.2252 8.15 8.39925 8.15C5.66325 8.15 5.17725 9.014 5.17725 9.662ZM21.8078 10.508V14H17.6138V10.508H21.8078ZM30.656 14V0.608H44.534V14H40.826V3.56H34.364V14H30.656ZM53.4634 6.08C51.6454 6.08 50.9614 6.818 50.7814 7.862H56.0734C56.0734 7.124 55.7134 6.08 53.4634 6.08ZM56.1454 10.886H59.7994C59.7994 11.714 59.1514 14.234 53.9854 14.234H53.3194C48.3874 14.234 47.1634 11.534 47.1634 9.14V8.888C47.1634 6.638 48.2794 3.794 53.0134 3.794H53.8054C58.9174 3.794 59.8354 6.638 59.8354 9.428V9.752H50.7454C50.8894 10.904 51.6274 11.84 53.7694 11.84C55.8034 11.84 56.0554 11.048 56.1454 10.886ZM71.4193 9.014V8.96C71.4193 7.88 70.9153 6.422 68.7193 6.422H68.5393C66.4333 6.422 65.7673 7.808 65.7673 8.96V9.014C65.7673 10.112 66.4333 11.552 68.5393 11.552H68.7193C70.9153 11.552 71.4193 10.04 71.4193 9.014ZM62.2753 17.438V4.01H65.7493V5.288C66.1813 4.82 67.4953 3.812 69.7633 3.812H69.9973C73.8133 3.812 75.0553 6.422 75.0553 8.798V9.104C75.0553 11.282 73.7773 14.198 69.9793 14.198H69.7273C67.4413 14.198 66.2173 13.154 65.7853 12.722V17.438H62.2753ZM85.8491 10.076H89.5211C89.5211 11.588 88.6211 14.27 83.8151 14.27H82.9331C77.9471 14.27 77.0111 11.03 77.0111 9.14V8.888C77.0111 6.998 77.8931 3.74 82.9151 3.74H83.7431C88.5671 3.74 89.5211 6.368 89.5211 7.808V7.826H85.8491C85.7951 7.538 85.4531 6.296 83.3831 6.296H83.2031C81.1331 6.296 80.6471 7.718 80.6471 8.924V8.942C80.6471 10.184 81.2411 11.66 83.2751 11.66H83.4551C85.5431 11.66 85.8491 10.31 85.8491 10.076ZM91.9111 14V4.01H103.467V14H99.9571V6.674H95.4211V14H91.9111ZM112.192 6.08C110.374 6.08 109.69 6.818 109.51 7.862H114.802C114.802 7.124 114.442 6.08 112.192 6.08ZM114.874 10.886H118.528C118.528 11.714 117.88 14.234 112.714 14.234H112.048C107.116 14.234 105.892 11.534 105.892 9.14V8.888C105.892 6.638 107.008 3.794 111.742 3.794H112.534C117.646 3.794 118.564 6.638 118.564 9.428V9.752H109.474C109.618 10.904 110.356 11.84 112.498 11.84C114.532 11.84 114.784 11.048 114.874 10.886ZM128.402 14L124.514 9.374V14H121.004V4.01H124.514V8.006L128.078 4.01H132.128L127.952 8.492L132.578 14H128.402ZM136.89 14V6.674H133.02V4.01H144.27V6.674H140.4V14H136.89ZM154.599 7.952L149.775 14H146.175V4.01H149.685V10.058L154.509 4.01H158.109V14H154.599V7.952ZM169.272 14H161.028V4.01H168.912C171.198 4.01 172.638 4.82 172.638 6.404V6.494C172.638 7.736 171.846 8.474 170.64 8.672C171.864 8.816 172.962 9.68 172.962 11.12V11.192C172.962 13.01 171.774 14 169.272 14ZM164.538 7.988H167.76C168.606 7.988 169.038 7.664 169.038 7.034V6.944C169.038 6.368 168.642 6.026 167.76 6.026H164.538V7.988ZM164.538 11.984H167.904C168.84 11.984 169.362 11.678 169.362 10.976V10.832C169.362 10.202 168.93 9.806 167.904 9.806H164.538V11.984ZM178.917 14H175.407V4.01H178.917V7.646H183.813V4.01H187.323V14H183.813V10.31H178.917V14ZM190.243 14V4.01H193.753V6.872H196.489C199.909 6.872 201.241 8.384 201.241 10.292V10.508C201.241 12.596 199.909 14 196.489 14H190.243ZM193.753 11.624H196.057C196.777 11.624 197.641 11.408 197.641 10.436V10.382C197.641 9.482 196.777 9.248 196.057 9.248H193.753V11.624ZM206.029 4.01V14H202.519V4.01H206.029ZM217.37 7.952L212.546 14H208.946V4.01H212.456V10.058L217.28 4.01H220.88V14H217.37V7.952ZM215.138 2.984H214.598C211.736 2.984 211.232 1.04 211.232 0.104V0.0499994H213.878C213.878 0.284 213.986 1.004 214.886 1.004C215.732 1.004 215.858 0.284 215.858 0.0499994H218.468V0.104C218.468 1.04 217.748 2.984 215.138 2.984ZM237.355 10.076H241.027C241.027 11.588 240.127 14.27 235.321 14.27H234.439C229.453 14.27 228.517 11.03 228.517 9.14V8.888C228.517 6.998 229.399 3.74 234.421 3.74H235.249C240.073 3.74 241.027 6.368 241.027 7.808V7.826H237.355C237.301 7.538 236.959 6.296 234.889 6.296H234.709C232.639 6.296 232.153 7.718 232.153 8.924V8.942C232.153 10.184 232.747 11.66 234.781 11.66H234.961C237.049 11.66 237.355 10.31 237.355 10.076ZM246.279 14V6.674H242.409V4.01H253.659V6.674H249.789V14H246.279ZM260.279 12.002C262.331 12.002 263.033 10.706 263.033 9.95V9.176C262.727 9.302 261.845 9.482 260.837 9.644C259.145 9.932 258.605 10.166 258.605 10.868V10.904C258.605 11.534 259.055 12.002 260.279 12.002ZM263.141 12.614C262.709 13.136 261.629 14.198 259.289 14.198H259.001C256.211 14.198 255.059 12.686 255.059 11.03V10.958C255.059 9.23 256.157 8.168 259.541 7.88L262.277 7.646C262.835 7.592 263.033 7.412 263.033 6.998C263.033 6.53 262.889 6.026 260.945 6.026C259.109 6.026 258.929 6.746 258.929 7.124H255.329V7.088C255.329 6.098 255.725 3.776 260.639 3.776H261.197C266.147 3.776 266.453 5.81 266.453 7.142V10.436C266.453 11.066 266.579 11.318 267.281 11.318H267.659V14H264.815C263.771 14 263.285 13.262 263.141 12.614ZM278.841 9.014V8.96C278.841 7.88 278.337 6.422 276.141 6.422H275.961C273.855 6.422 273.189 7.808 273.189 8.96V9.014C273.189 10.112 273.855 11.552 275.961 11.552H276.141C278.337 11.552 278.841 10.04 278.841 9.014ZM269.697 17.438V4.01H273.171V5.288C273.603 4.82 274.917 3.812 277.185 3.812H277.419C281.235 3.812 282.477 6.422 282.477 8.798V9.104C282.477 11.282 281.199 14.198 277.401 14.198H277.149C274.863 14.198 273.639 13.154 273.207 12.722V17.438H269.697ZM287.781 14V6.674H283.911V4.01H295.161V6.674H291.291V14H287.781ZM301.781 12.002C303.833 12.002 304.535 10.706 304.535 9.95V9.176C304.229 9.302 303.347 9.482 302.339 9.644C300.647 9.932 300.107 10.166 300.107 10.868V10.904C300.107 11.534 300.557 12.002 301.781 12.002ZM304.643 12.614C304.211 13.136 303.131 14.198 300.791 14.198H300.503C297.713 14.198 296.561 12.686 296.561 11.03V10.958C296.561 9.23 297.659 8.168 301.043 7.88L303.779 7.646C304.337 7.592 304.535 7.412 304.535 6.998C304.535 6.53 304.391 6.026 302.447 6.026C300.611 6.026 300.431 6.746 300.431 7.124H296.831V7.088C296.831 6.098 297.227 3.776 302.141 3.776H302.699C307.649 3.776 307.955 5.81 307.955 7.142V10.436C307.955 11.066 308.081 11.318 308.783 11.318H309.161V14H306.317C305.273 14 304.787 13.262 304.643 12.614ZM311.163 14V4.01H322.719V14H319.209V6.674H314.673V14H311.163ZM331.444 6.08C329.626 6.08 328.942 6.818 328.762 7.862H334.054C334.054 7.124 333.694 6.08 331.444 6.08ZM334.126 10.886H337.78C337.78 11.714 337.132 14.234 331.966 14.234H331.3C326.368 14.234 325.144 11.534 325.144 9.14V8.888C325.144 6.638 326.26 3.794 330.994 3.794H331.786C336.898 3.794 337.816 6.638 337.816 9.428V9.752H328.726C328.87 10.904 329.608 11.84 331.75 11.84C333.784 11.84 334.036 11.048 334.126 10.886ZM349.4 9.014V8.96C349.4 7.88 348.896 6.422 346.7 6.422H346.52C344.414 6.422 343.748 7.808 343.748 8.96V9.014C343.748 10.112 344.414 11.552 346.52 11.552H346.7C348.896 11.552 349.4 10.04 349.4 9.014ZM340.256 17.438V4.01H343.73V5.288C344.162 4.82 345.476 3.812 347.744 3.812H347.978C351.794 3.812 353.036 6.422 353.036 8.798V9.104C353.036 11.282 351.758 14.198 347.96 14.198H347.708C345.422 14.198 344.198 13.154 343.766 12.722V17.438H340.256Z" fill="#C1A875" style="mix-blend-mode:color"/>
<defs>
<linearGradient id="paint0_linear_2018_1262" x1="2" y1="6" x2="355" y2="6.00003" gradientUnits="userSpaceOnUse">
<stop stop-color="#576167"/>
<stop offset="0.191294" stop-color="#9EA1A2"/>
<stop offset="0.396166" stop-color="#848989"/>
<stop offset="0.62055" stop-color="#576167"/>
<stop offset="0.830299" stop-color="#757A7C"/>
<stop offset="1" stop-color="#576167"/>
</linearGradient>
<radialGradient id="paint1_radial_2018_1262" cx="0" cy="0" r="1" gradientUnits="userSpaceOnUse" gradientTransform="translate(189.99 -3.20225) rotate(90) scale(17.8315 267.056)">
<stop stop-color="white"/>
<stop offset="1" stop-color="white" stop-opacity="0"/>
</radialGradient>
<radialGradient id="paint2_radial_2018_1262" cx="0" cy="0" r="1" gradientUnits="userSpaceOnUse" gradientTransform="translate(209.957 23.6629) rotate(-88.733) scale(25.5568 381.79)">
<stop stop-color="white"/>
<stop offset="1" stop-color="white" stop-opacity="0"/>
</radialGradient>
</defs>
</svg>
