<svg width="281" height="18" viewBox="0 0 281 18" fill="none" xmlns="http://www.w3.org/2000/svg">
<path d="M7.76925 0.481999H8.52525C14.5192 0.481999 15.0772 2.714 15.0772 4.082V4.298C15.0772 5.756 13.7272 6.746 12.3952 6.98C14.0152 7.268 15.4012 8.33 15.4012 9.968V10.202C15.4012 11.66 14.6632 14.216 8.52525 14.216H7.76925C1.59525 14.216 0.893248 11.66 0.893248 10.202V9.968C0.893248 8.33 2.29725 7.268 3.88125 6.98C2.58525 6.746 1.21725 5.846 1.21725 4.298V4.082C1.21725 2.714 1.81125 0.481999 7.76925 0.481999ZM8.14725 3.2C5.48325 3.2 5.12325 3.938 5.12325 4.442V4.514C5.12325 5.036 5.50125 5.684 8.14725 5.684C10.8112 5.684 11.1532 5.036 11.1532 4.514V4.442C11.1532 3.938 10.8292 3.2 8.14725 3.2ZM8.14725 8.42C5.19525 8.42 4.79925 9.212 4.79925 9.77V9.824C4.79925 10.436 5.19525 11.336 8.14725 11.336C11.0992 11.336 11.4952 10.436 11.4952 9.824V9.77C11.4952 9.212 11.0992 8.42 8.14725 8.42ZM21.8078 10.508V14H17.6138V10.508H21.8078ZM41.258 14L37.424 9.644L33.536 14H29.18L35.084 7.196L29.27 0.608H33.968L37.604 4.766L41.222 0.608H45.488L39.854 7.16L45.74 14H41.258ZM56.5657 9.014V8.96C56.5657 7.88 56.0617 6.422 53.8657 6.422H53.6857C51.5797 6.422 50.9137 7.808 50.9137 8.96V9.014C50.9137 10.112 51.5797 11.552 53.6857 11.552H53.8657C56.0617 11.552 56.5657 10.04 56.5657 9.014ZM47.4217 17.438V4.01H50.8957V5.288C51.3277 4.82 52.6417 3.812 54.9097 3.812H55.1437C58.9597 3.812 60.2017 6.422 60.2017 8.798V9.104C60.2017 11.282 58.9237 14.198 55.1257 14.198H54.8737C52.5877 14.198 51.3637 13.154 50.9317 12.722V17.438H47.4217ZM67.2717 12.002C69.3237 12.002 70.0257 10.706 70.0257 9.95V9.176C69.7197 9.302 68.8377 9.482 67.8297 9.644C66.1377 9.932 65.5977 10.166 65.5977 10.868V10.904C65.5977 11.534 66.0477 12.002 67.2717 12.002ZM70.1337 12.614C69.7017 13.136 68.6217 14.198 66.2817 14.198H65.9937C63.2037 14.198 62.0517 12.686 62.0517 11.03V10.958C62.0517 9.23 63.1497 8.168 66.5337 7.88L69.2697 7.646C69.8277 7.592 70.0257 7.412 70.0257 6.998C70.0257 6.53 69.8817 6.026 67.9377 6.026C66.1017 6.026 65.9217 6.746 65.9217 7.124H62.3217V7.088C62.3217 6.098 62.7177 3.776 67.6317 3.776H68.1897C73.1397 3.776 73.4457 5.81 73.4457 7.142V10.436C73.4457 11.066 73.5717 11.318 74.2737 11.318H74.6517V14H71.8077C70.7637 14 70.2777 13.262 70.1337 12.614ZM80.1633 14H76.6533V4.01H80.1633V7.646H85.0593V4.01H88.5693V14H85.0593V10.31H80.1633V14ZM99.9133 7.952L95.0893 14H91.4893V4.01H94.9993V10.058L99.8233 4.01H103.423V14H99.9133V7.952ZM109.205 14V6.674H105.335V4.01H116.585V6.674H112.715V14H109.205ZM124.303 6.08C122.485 6.08 121.801 6.818 121.621 7.862H126.913C126.913 7.124 126.553 6.08 124.303 6.08ZM126.985 10.886H130.639C130.639 11.714 129.991 14.234 124.825 14.234H124.159C119.227 14.234 118.003 11.534 118.003 9.14V8.888C118.003 6.638 119.119 3.794 123.853 3.794H124.645C129.757 3.794 130.675 6.638 130.675 9.428V9.752H121.585C121.729 10.904 122.467 11.84 124.609 11.84C126.643 11.84 126.895 11.048 126.985 10.886ZM141.093 14V6.674H137.133C137.133 9.356 137.043 10.85 136.701 11.768C136.323 12.776 135.819 14 133.173 14H132.075V11.39H132.291C132.921 11.39 133.389 11.174 133.587 10.256C133.731 9.482 133.785 8.636 133.785 4.01H144.603V14H141.093ZM147.511 14V4.01H151.021V6.872H153.757C157.177 6.872 158.509 8.384 158.509 10.292V10.508C158.509 12.596 157.177 14 153.757 14H147.511ZM151.021 11.624H153.325C154.045 11.624 154.909 11.408 154.909 10.436V10.382C154.909 9.482 154.045 9.248 153.325 9.248H151.021V11.624ZM168.654 14V6.674H164.784V4.01H176.034V6.674H172.164V14H168.654ZM187.118 9.014V8.96C187.118 7.88 186.614 6.422 184.418 6.422H184.238C182.132 6.422 181.466 7.808 181.466 8.96V9.014C181.466 10.112 182.132 11.552 184.238 11.552H184.418C186.614 11.552 187.118 10.04 187.118 9.014ZM177.974 17.438V4.01H181.448V5.288C181.88 4.82 183.194 3.812 185.462 3.812H185.696C189.512 3.812 190.754 6.422 190.754 8.798V9.104C190.754 11.282 189.476 14.198 185.678 14.198H185.426C183.14 14.198 181.916 13.154 181.484 12.722V17.438H177.974ZM197.824 12.002C199.876 12.002 200.578 10.706 200.578 9.95V9.176C200.272 9.302 199.39 9.482 198.382 9.644C196.69 9.932 196.15 10.166 196.15 10.868V10.904C196.15 11.534 196.6 12.002 197.824 12.002ZM200.686 12.614C200.254 13.136 199.174 14.198 196.834 14.198H196.546C193.756 14.198 192.604 12.686 192.604 11.03V10.958C192.604 9.23 193.702 8.168 197.086 7.88L199.822 7.646C200.38 7.592 200.578 7.412 200.578 6.998C200.578 6.53 200.434 6.026 198.49 6.026C196.654 6.026 196.474 6.746 196.474 7.124H192.874V7.088C192.874 6.098 193.27 3.776 198.184 3.776H198.742C203.692 3.776 203.998 5.81 203.998 7.142V10.436C203.998 11.066 204.124 11.318 204.826 11.318H205.204V14H202.36C201.316 14 200.83 13.262 200.686 12.614ZM206.73 16.124V11.336H207.936C208.62 9.968 208.728 6.998 208.818 4.01H219.384V11.336H221.184V16.124H217.854V14H210.06V16.124H206.73ZM211.248 11.336H215.874V6.674H211.968C211.914 7.97 211.734 9.95 211.248 11.336ZM231.696 7.952L226.872 14H223.272V4.01H226.782V10.058L231.606 4.01H235.206V14H231.696V7.952ZM251.482 11.336V16.124H248.152V14H238.126V4.01H241.636V11.336H246.172V4.01H249.682V11.336H251.482ZM262.001 7.952L257.177 14H253.577V4.01H257.087V10.058L261.911 4.01H265.511V14H262.001V7.952ZM276.855 7.952L272.031 14H268.431V4.01H271.941V10.058L276.765 4.01H280.365V14H276.855V7.952ZM274.623 2.984H274.083C271.221 2.984 270.717 1.04 270.717 0.104V0.0499994H273.363C273.363 0.284 273.471 1.004 274.371 1.004C275.217 1.004 275.343 0.284 275.343 0.0499994H277.953V0.104C277.953 1.04 277.233 2.984 274.623 2.984Z" fill="url(#paint0_linear_2018_1276)"/>
<path d="M7.76925 0.481999H8.52525C14.5192 0.481999 15.0772 2.714 15.0772 4.082V4.298C15.0772 5.756 13.7272 6.746 12.3952 6.98C14.0152 7.268 15.4012 8.33 15.4012 9.968V10.202C15.4012 11.66 14.6632 14.216 8.52525 14.216H7.76925C1.59525 14.216 0.893248 11.66 0.893248 10.202V9.968C0.893248 8.33 2.29725 7.268 3.88125 6.98C2.58525 6.746 1.21725 5.846 1.21725 4.298V4.082C1.21725 2.714 1.81125 0.481999 7.76925 0.481999ZM8.14725 3.2C5.48325 3.2 5.12325 3.938 5.12325 4.442V4.514C5.12325 5.036 5.50125 5.684 8.14725 5.684C10.8112 5.684 11.1532 5.036 11.1532 4.514V4.442C11.1532 3.938 10.8292 3.2 8.14725 3.2ZM8.14725 8.42C5.19525 8.42 4.79925 9.212 4.79925 9.77V9.824C4.79925 10.436 5.19525 11.336 8.14725 11.336C11.0992 11.336 11.4952 10.436 11.4952 9.824V9.77C11.4952 9.212 11.0992 8.42 8.14725 8.42ZM21.8078 10.508V14H17.6138V10.508H21.8078ZM41.258 14L37.424 9.644L33.536 14H29.18L35.084 7.196L29.27 0.608H33.968L37.604 4.766L41.222 0.608H45.488L39.854 7.16L45.74 14H41.258ZM56.5657 9.014V8.96C56.5657 7.88 56.0617 6.422 53.8657 6.422H53.6857C51.5797 6.422 50.9137 7.808 50.9137 8.96V9.014C50.9137 10.112 51.5797 11.552 53.6857 11.552H53.8657C56.0617 11.552 56.5657 10.04 56.5657 9.014ZM47.4217 17.438V4.01H50.8957V5.288C51.3277 4.82 52.6417 3.812 54.9097 3.812H55.1437C58.9597 3.812 60.2017 6.422 60.2017 8.798V9.104C60.2017 11.282 58.9237 14.198 55.1257 14.198H54.8737C52.5877 14.198 51.3637 13.154 50.9317 12.722V17.438H47.4217ZM67.2717 12.002C69.3237 12.002 70.0257 10.706 70.0257 9.95V9.176C69.7197 9.302 68.8377 9.482 67.8297 9.644C66.1377 9.932 65.5977 10.166 65.5977 10.868V10.904C65.5977 11.534 66.0477 12.002 67.2717 12.002ZM70.1337 12.614C69.7017 13.136 68.6217 14.198 66.2817 14.198H65.9937C63.2037 14.198 62.0517 12.686 62.0517 11.03V10.958C62.0517 9.23 63.1497 8.168 66.5337 7.88L69.2697 7.646C69.8277 7.592 70.0257 7.412 70.0257 6.998C70.0257 6.53 69.8817 6.026 67.9377 6.026C66.1017 6.026 65.9217 6.746 65.9217 7.124H62.3217V7.088C62.3217 6.098 62.7177 3.776 67.6317 3.776H68.1897C73.1397 3.776 73.4457 5.81 73.4457 7.142V10.436C73.4457 11.066 73.5717 11.318 74.2737 11.318H74.6517V14H71.8077C70.7637 14 70.2777 13.262 70.1337 12.614ZM80.1633 14H76.6533V4.01H80.1633V7.646H85.0593V4.01H88.5693V14H85.0593V10.31H80.1633V14ZM99.9133 7.952L95.0893 14H91.4893V4.01H94.9993V10.058L99.8233 4.01H103.423V14H99.9133V7.952ZM109.205 14V6.674H105.335V4.01H116.585V6.674H112.715V14H109.205ZM124.303 6.08C122.485 6.08 121.801 6.818 121.621 7.862H126.913C126.913 7.124 126.553 6.08 124.303 6.08ZM126.985 10.886H130.639C130.639 11.714 129.991 14.234 124.825 14.234H124.159C119.227 14.234 118.003 11.534 118.003 9.14V8.888C118.003 6.638 119.119 3.794 123.853 3.794H124.645C129.757 3.794 130.675 6.638 130.675 9.428V9.752H121.585C121.729 10.904 122.467 11.84 124.609 11.84C126.643 11.84 126.895 11.048 126.985 10.886ZM141.093 14V6.674H137.133C137.133 9.356 137.043 10.85 136.701 11.768C136.323 12.776 135.819 14 133.173 14H132.075V11.39H132.291C132.921 11.39 133.389 11.174 133.587 10.256C133.731 9.482 133.785 8.636 133.785 4.01H144.603V14H141.093ZM147.511 14V4.01H151.021V6.872H153.757C157.177 6.872 158.509 8.384 158.509 10.292V10.508C158.509 12.596 157.177 14 153.757 14H147.511ZM151.021 11.624H153.325C154.045 11.624 154.909 11.408 154.909 10.436V10.382C154.909 9.482 154.045 9.248 153.325 9.248H151.021V11.624ZM168.654 14V6.674H164.784V4.01H176.034V6.674H172.164V14H168.654ZM187.118 9.014V8.96C187.118 7.88 186.614 6.422 184.418 6.422H184.238C182.132 6.422 181.466 7.808 181.466 8.96V9.014C181.466 10.112 182.132 11.552 184.238 11.552H184.418C186.614 11.552 187.118 10.04 187.118 9.014ZM177.974 17.438V4.01H181.448V5.288C181.88 4.82 183.194 3.812 185.462 3.812H185.696C189.512 3.812 190.754 6.422 190.754 8.798V9.104C190.754 11.282 189.476 14.198 185.678 14.198H185.426C183.14 14.198 181.916 13.154 181.484 12.722V17.438H177.974ZM197.824 12.002C199.876 12.002 200.578 10.706 200.578 9.95V9.176C200.272 9.302 199.39 9.482 198.382 9.644C196.69 9.932 196.15 10.166 196.15 10.868V10.904C196.15 11.534 196.6 12.002 197.824 12.002ZM200.686 12.614C200.254 13.136 199.174 14.198 196.834 14.198H196.546C193.756 14.198 192.604 12.686 192.604 11.03V10.958C192.604 9.23 193.702 8.168 197.086 7.88L199.822 7.646C200.38 7.592 200.578 7.412 200.578 6.998C200.578 6.53 200.434 6.026 198.49 6.026C196.654 6.026 196.474 6.746 196.474 7.124H192.874V7.088C192.874 6.098 193.27 3.776 198.184 3.776H198.742C203.692 3.776 203.998 5.81 203.998 7.142V10.436C203.998 11.066 204.124 11.318 204.826 11.318H205.204V14H202.36C201.316 14 200.83 13.262 200.686 12.614ZM206.73 16.124V11.336H207.936C208.62 9.968 208.728 6.998 208.818 4.01H219.384V11.336H221.184V16.124H217.854V14H210.06V16.124H206.73ZM211.248 11.336H215.874V6.674H211.968C211.914 7.97 211.734 9.95 211.248 11.336ZM231.696 7.952L226.872 14H223.272V4.01H226.782V10.058L231.606 4.01H235.206V14H231.696V7.952ZM251.482 11.336V16.124H248.152V14H238.126V4.01H241.636V11.336H246.172V4.01H249.682V11.336H251.482ZM262.001 7.952L257.177 14H253.577V4.01H257.087V10.058L261.911 4.01H265.511V14H262.001V7.952ZM276.855 7.952L272.031 14H268.431V4.01H271.941V10.058L276.765 4.01H280.365V14H276.855V7.952ZM274.623 2.984H274.083C271.221 2.984 270.717 1.04 270.717 0.104V0.0499994H273.363C273.363 0.284 273.471 1.004 274.371 1.004C275.217 1.004 275.343 0.284 275.343 0.0499994H277.953V0.104C277.953 1.04 277.233 2.984 274.623 2.984Z" fill="url(#paint1_radial_2018_1276)" style="mix-blend-mode:overlay"/>
<path d="M7.76925 0.481999H8.52525C14.5192 0.481999 15.0772 2.714 15.0772 4.082V4.298C15.0772 5.756 13.7272 6.746 12.3952 6.98C14.0152 7.268 15.4012 8.33 15.4012 9.968V10.202C15.4012 11.66 14.6632 14.216 8.52525 14.216H7.76925C1.59525 14.216 0.893248 11.66 0.893248 10.202V9.968C0.893248 8.33 2.29725 7.268 3.88125 6.98C2.58525 6.746 1.21725 5.846 1.21725 4.298V4.082C1.21725 2.714 1.81125 0.481999 7.76925 0.481999ZM8.14725 3.2C5.48325 3.2 5.12325 3.938 5.12325 4.442V4.514C5.12325 5.036 5.50125 5.684 8.14725 5.684C10.8112 5.684 11.1532 5.036 11.1532 4.514V4.442C11.1532 3.938 10.8292 3.2 8.14725 3.2ZM8.14725 8.42C5.19525 8.42 4.79925 9.212 4.79925 9.77V9.824C4.79925 10.436 5.19525 11.336 8.14725 11.336C11.0992 11.336 11.4952 10.436 11.4952 9.824V9.77C11.4952 9.212 11.0992 8.42 8.14725 8.42ZM21.8078 10.508V14H17.6138V10.508H21.8078ZM41.258 14L37.424 9.644L33.536 14H29.18L35.084 7.196L29.27 0.608H33.968L37.604 4.766L41.222 0.608H45.488L39.854 7.16L45.74 14H41.258ZM56.5657 9.014V8.96C56.5657 7.88 56.0617 6.422 53.8657 6.422H53.6857C51.5797 6.422 50.9137 7.808 50.9137 8.96V9.014C50.9137 10.112 51.5797 11.552 53.6857 11.552H53.8657C56.0617 11.552 56.5657 10.04 56.5657 9.014ZM47.4217 17.438V4.01H50.8957V5.288C51.3277 4.82 52.6417 3.812 54.9097 3.812H55.1437C58.9597 3.812 60.2017 6.422 60.2017 8.798V9.104C60.2017 11.282 58.9237 14.198 55.1257 14.198H54.8737C52.5877 14.198 51.3637 13.154 50.9317 12.722V17.438H47.4217ZM67.2717 12.002C69.3237 12.002 70.0257 10.706 70.0257 9.95V9.176C69.7197 9.302 68.8377 9.482 67.8297 9.644C66.1377 9.932 65.5977 10.166 65.5977 10.868V10.904C65.5977 11.534 66.0477 12.002 67.2717 12.002ZM70.1337 12.614C69.7017 13.136 68.6217 14.198 66.2817 14.198H65.9937C63.2037 14.198 62.0517 12.686 62.0517 11.03V10.958C62.0517 9.23 63.1497 8.168 66.5337 7.88L69.2697 7.646C69.8277 7.592 70.0257 7.412 70.0257 6.998C70.0257 6.53 69.8817 6.026 67.9377 6.026C66.1017 6.026 65.9217 6.746 65.9217 7.124H62.3217V7.088C62.3217 6.098 62.7177 3.776 67.6317 3.776H68.1897C73.1397 3.776 73.4457 5.81 73.4457 7.142V10.436C73.4457 11.066 73.5717 11.318 74.2737 11.318H74.6517V14H71.8077C70.7637 14 70.2777 13.262 70.1337 12.614ZM80.1633 14H76.6533V4.01H80.1633V7.646H85.0593V4.01H88.5693V14H85.0593V10.31H80.1633V14ZM99.9133 7.952L95.0893 14H91.4893V4.01H94.9993V10.058L99.8233 4.01H103.423V14H99.9133V7.952ZM109.205 14V6.674H105.335V4.01H116.585V6.674H112.715V14H109.205ZM124.303 6.08C122.485 6.08 121.801 6.818 121.621 7.862H126.913C126.913 7.124 126.553 6.08 124.303 6.08ZM126.985 10.886H130.639C130.639 11.714 129.991 14.234 124.825 14.234H124.159C119.227 14.234 118.003 11.534 118.003 9.14V8.888C118.003 6.638 119.119 3.794 123.853 3.794H124.645C129.757 3.794 130.675 6.638 130.675 9.428V9.752H121.585C121.729 10.904 122.467 11.84 124.609 11.84C126.643 11.84 126.895 11.048 126.985 10.886ZM141.093 14V6.674H137.133C137.133 9.356 137.043 10.85 136.701 11.768C136.323 12.776 135.819 14 133.173 14H132.075V11.39H132.291C132.921 11.39 133.389 11.174 133.587 10.256C133.731 9.482 133.785 8.636 133.785 4.01H144.603V14H141.093ZM147.511 14V4.01H151.021V6.872H153.757C157.177 6.872 158.509 8.384 158.509 10.292V10.508C158.509 12.596 157.177 14 153.757 14H147.511ZM151.021 11.624H153.325C154.045 11.624 154.909 11.408 154.909 10.436V10.382C154.909 9.482 154.045 9.248 153.325 9.248H151.021V11.624ZM168.654 14V6.674H164.784V4.01H176.034V6.674H172.164V14H168.654ZM187.118 9.014V8.96C187.118 7.88 186.614 6.422 184.418 6.422H184.238C182.132 6.422 181.466 7.808 181.466 8.96V9.014C181.466 10.112 182.132 11.552 184.238 11.552H184.418C186.614 11.552 187.118 10.04 187.118 9.014ZM177.974 17.438V4.01H181.448V5.288C181.88 4.82 183.194 3.812 185.462 3.812H185.696C189.512 3.812 190.754 6.422 190.754 8.798V9.104C190.754 11.282 189.476 14.198 185.678 14.198H185.426C183.14 14.198 181.916 13.154 181.484 12.722V17.438H177.974ZM197.824 12.002C199.876 12.002 200.578 10.706 200.578 9.95V9.176C200.272 9.302 199.39 9.482 198.382 9.644C196.69 9.932 196.15 10.166 196.15 10.868V10.904C196.15 11.534 196.6 12.002 197.824 12.002ZM200.686 12.614C200.254 13.136 199.174 14.198 196.834 14.198H196.546C193.756 14.198 192.604 12.686 192.604 11.03V10.958C192.604 9.23 193.702 8.168 197.086 7.88L199.822 7.646C200.38 7.592 200.578 7.412 200.578 6.998C200.578 6.53 200.434 6.026 198.49 6.026C196.654 6.026 196.474 6.746 196.474 7.124H192.874V7.088C192.874 6.098 193.27 3.776 198.184 3.776H198.742C203.692 3.776 203.998 5.81 203.998 7.142V10.436C203.998 11.066 204.124 11.318 204.826 11.318H205.204V14H202.36C201.316 14 200.83 13.262 200.686 12.614ZM206.73 16.124V11.336H207.936C208.62 9.968 208.728 6.998 208.818 4.01H219.384V11.336H221.184V16.124H217.854V14H210.06V16.124H206.73ZM211.248 11.336H215.874V6.674H211.968C211.914 7.97 211.734 9.95 211.248 11.336ZM231.696 7.952L226.872 14H223.272V4.01H226.782V10.058L231.606 4.01H235.206V14H231.696V7.952ZM251.482 11.336V16.124H248.152V14H238.126V4.01H241.636V11.336H246.172V4.01H249.682V11.336H251.482ZM262.001 7.952L257.177 14H253.577V4.01H257.087V10.058L261.911 4.01H265.511V14H262.001V7.952ZM276.855 7.952L272.031 14H268.431V4.01H271.941V10.058L276.765 4.01H280.365V14H276.855V7.952ZM274.623 2.984H274.083C271.221 2.984 270.717 1.04 270.717 0.104V0.0499994H273.363C273.363 0.284 273.471 1.004 274.371 1.004C275.217 1.004 275.343 0.284 275.343 0.0499994H277.953V0.104C277.953 1.04 277.233 2.984 274.623 2.984Z" fill="url(#paint2_radial_2018_1276)"/>
<path d="M7.76925 0.481999H8.52525C14.5192 0.481999 15.0772 2.714 15.0772 4.082V4.298C15.0772 5.756 13.7272 6.746 12.3952 6.98C14.0152 7.268 15.4012 8.33 15.4012 9.968V10.202C15.4012 11.66 14.6632 14.216 8.52525 14.216H7.76925C1.59525 14.216 0.893248 11.66 0.893248 10.202V9.968C0.893248 8.33 2.29725 7.268 3.88125 6.98C2.58525 6.746 1.21725 5.846 1.21725 4.298V4.082C1.21725 2.714 1.81125 0.481999 7.76925 0.481999ZM8.14725 3.2C5.48325 3.2 5.12325 3.938 5.12325 4.442V4.514C5.12325 5.036 5.50125 5.684 8.14725 5.684C10.8112 5.684 11.1532 5.036 11.1532 4.514V4.442C11.1532 3.938 10.8292 3.2 8.14725 3.2ZM8.14725 8.42C5.19525 8.42 4.79925 9.212 4.79925 9.77V9.824C4.79925 10.436 5.19525 11.336 8.14725 11.336C11.0992 11.336 11.4952 10.436 11.4952 9.824V9.77C11.4952 9.212 11.0992 8.42 8.14725 8.42ZM21.8078 10.508V14H17.6138V10.508H21.8078ZM41.258 14L37.424 9.644L33.536 14H29.18L35.084 7.196L29.27 0.608H33.968L37.604 4.766L41.222 0.608H45.488L39.854 7.16L45.74 14H41.258ZM56.5657 9.014V8.96C56.5657 7.88 56.0617 6.422 53.8657 6.422H53.6857C51.5797 6.422 50.9137 7.808 50.9137 8.96V9.014C50.9137 10.112 51.5797 11.552 53.6857 11.552H53.8657C56.0617 11.552 56.5657 10.04 56.5657 9.014ZM47.4217 17.438V4.01H50.8957V5.288C51.3277 4.82 52.6417 3.812 54.9097 3.812H55.1437C58.9597 3.812 60.2017 6.422 60.2017 8.798V9.104C60.2017 11.282 58.9237 14.198 55.1257 14.198H54.8737C52.5877 14.198 51.3637 13.154 50.9317 12.722V17.438H47.4217ZM67.2717 12.002C69.3237 12.002 70.0257 10.706 70.0257 9.95V9.176C69.7197 9.302 68.8377 9.482 67.8297 9.644C66.1377 9.932 65.5977 10.166 65.5977 10.868V10.904C65.5977 11.534 66.0477 12.002 67.2717 12.002ZM70.1337 12.614C69.7017 13.136 68.6217 14.198 66.2817 14.198H65.9937C63.2037 14.198 62.0517 12.686 62.0517 11.03V10.958C62.0517 9.23 63.1497 8.168 66.5337 7.88L69.2697 7.646C69.8277 7.592 70.0257 7.412 70.0257 6.998C70.0257 6.53 69.8817 6.026 67.9377 6.026C66.1017 6.026 65.9217 6.746 65.9217 7.124H62.3217V7.088C62.3217 6.098 62.7177 3.776 67.6317 3.776H68.1897C73.1397 3.776 73.4457 5.81 73.4457 7.142V10.436C73.4457 11.066 73.5717 11.318 74.2737 11.318H74.6517V14H71.8077C70.7637 14 70.2777 13.262 70.1337 12.614ZM80.1633 14H76.6533V4.01H80.1633V7.646H85.0593V4.01H88.5693V14H85.0593V10.31H80.1633V14ZM99.9133 7.952L95.0893 14H91.4893V4.01H94.9993V10.058L99.8233 4.01H103.423V14H99.9133V7.952ZM109.205 14V6.674H105.335V4.01H116.585V6.674H112.715V14H109.205ZM124.303 6.08C122.485 6.08 121.801 6.818 121.621 7.862H126.913C126.913 7.124 126.553 6.08 124.303 6.08ZM126.985 10.886H130.639C130.639 11.714 129.991 14.234 124.825 14.234H124.159C119.227 14.234 118.003 11.534 118.003 9.14V8.888C118.003 6.638 119.119 3.794 123.853 3.794H124.645C129.757 3.794 130.675 6.638 130.675 9.428V9.752H121.585C121.729 10.904 122.467 11.84 124.609 11.84C126.643 11.84 126.895 11.048 126.985 10.886ZM141.093 14V6.674H137.133C137.133 9.356 137.043 10.85 136.701 11.768C136.323 12.776 135.819 14 133.173 14H132.075V11.39H132.291C132.921 11.39 133.389 11.174 133.587 10.256C133.731 9.482 133.785 8.636 133.785 4.01H144.603V14H141.093ZM147.511 14V4.01H151.021V6.872H153.757C157.177 6.872 158.509 8.384 158.509 10.292V10.508C158.509 12.596 157.177 14 153.757 14H147.511ZM151.021 11.624H153.325C154.045 11.624 154.909 11.408 154.909 10.436V10.382C154.909 9.482 154.045 9.248 153.325 9.248H151.021V11.624ZM168.654 14V6.674H164.784V4.01H176.034V6.674H172.164V14H168.654ZM187.118 9.014V8.96C187.118 7.88 186.614 6.422 184.418 6.422H184.238C182.132 6.422 181.466 7.808 181.466 8.96V9.014C181.466 10.112 182.132 11.552 184.238 11.552H184.418C186.614 11.552 187.118 10.04 187.118 9.014ZM177.974 17.438V4.01H181.448V5.288C181.88 4.82 183.194 3.812 185.462 3.812H185.696C189.512 3.812 190.754 6.422 190.754 8.798V9.104C190.754 11.282 189.476 14.198 185.678 14.198H185.426C183.14 14.198 181.916 13.154 181.484 12.722V17.438H177.974ZM197.824 12.002C199.876 12.002 200.578 10.706 200.578 9.95V9.176C200.272 9.302 199.39 9.482 198.382 9.644C196.69 9.932 196.15 10.166 196.15 10.868V10.904C196.15 11.534 196.6 12.002 197.824 12.002ZM200.686 12.614C200.254 13.136 199.174 14.198 196.834 14.198H196.546C193.756 14.198 192.604 12.686 192.604 11.03V10.958C192.604 9.23 193.702 8.168 197.086 7.88L199.822 7.646C200.38 7.592 200.578 7.412 200.578 6.998C200.578 6.53 200.434 6.026 198.49 6.026C196.654 6.026 196.474 6.746 196.474 7.124H192.874V7.088C192.874 6.098 193.27 3.776 198.184 3.776H198.742C203.692 3.776 203.998 5.81 203.998 7.142V10.436C203.998 11.066 204.124 11.318 204.826 11.318H205.204V14H202.36C201.316 14 200.83 13.262 200.686 12.614ZM206.73 16.124V11.336H207.936C208.62 9.968 208.728 6.998 208.818 4.01H219.384V11.336H221.184V16.124H217.854V14H210.06V16.124H206.73ZM211.248 11.336H215.874V6.674H211.968C211.914 7.97 211.734 9.95 211.248 11.336ZM231.696 7.952L226.872 14H223.272V4.01H226.782V10.058L231.606 4.01H235.206V14H231.696V7.952ZM251.482 11.336V16.124H248.152V14H238.126V4.01H241.636V11.336H246.172V4.01H249.682V11.336H251.482ZM262.001 7.952L257.177 14H253.577V4.01H257.087V10.058L261.911 4.01H265.511V14H262.001V7.952ZM276.855 7.952L272.031 14H268.431V4.01H271.941V10.058L276.765 4.01H280.365V14H276.855V7.952ZM274.623 2.984H274.083C271.221 2.984 270.717 1.04 270.717 0.104V0.0499994H273.363C273.363 0.284 273.471 1.004 274.371 1.004C275.217 1.004 275.343 0.284 275.343 0.0499994H277.953V0.104C277.953 1.04 277.233 2.984 274.623 2.984Z" fill="#C1A875" style="mix-blend-mode:color"/>
<defs>
<linearGradient id="paint0_linear_2018_1276" x1="2" y1="6" x2="282" y2="6.00002" gradientUnits="userSpaceOnUse">
<stop stop-color="#576167"/>
<stop offset="0.191294" stop-color="#9EA1A2"/>
<stop offset="0.396166" stop-color="#848989"/>
<stop offset="0.62055" stop-color="#576167"/>
<stop offset="0.830299" stop-color="#757A7C"/>
<stop offset="1" stop-color="#576167"/>
</linearGradient>
<radialGradient id="paint1_radial_2018_1276" cx="0" cy="0" r="1" gradientUnits="userSpaceOnUse" gradientTransform="translate(151.114 -3.20225) rotate(90) scale(17.8315 211.829)">
<stop stop-color="white"/>
<stop offset="1" stop-color="white" stop-opacity="0"/>
</radialGradient>
<radialGradient id="paint2_radial_2018_1276" cx="0" cy="0" r="1" gradientUnits="userSpaceOnUse" gradientTransform="translate(166.952 23.6629) rotate(-88.995) scale(25.5545 302.864)">
<stop stop-color="white"/>
<stop offset="1" stop-color="white" stop-opacity="0"/>
</radialGradient>
</defs>
</svg>
