<svg width="219" height="17" viewBox="0 0 219 17" fill="none" xmlns="http://www.w3.org/2000/svg">
<path d="M11.1172 4.982V4.892C11.1172 4.262 10.5772 3.29 7.89525 3.29C4.96125 3.29 4.63725 4.316 4.63725 4.874V4.982C4.63725 5.63 5.06925 6.494 7.89525 6.494C10.6312 6.494 11.1172 5.63 11.1172 4.982ZM8.43525 14.198H7.76925C2.45925 14.198 1.30725 11.75 1.30725 10.166V10.148H4.97925C4.97925 10.31 5.23125 11.336 8.02125 11.336C11.2432 11.336 11.6212 9.032 11.6212 7.934V7.808C11.2792 8.096 10.1272 9.104 7.06725 9.104H6.67125C2.35125 9.104 0.821248 7.214 0.821248 5.27V4.982C0.821248 3.128 1.75725 0.446 7.35525 0.446H8.45325C14.4652 0.446 15.4012 4.694 15.4012 6.998V7.412C15.4012 9.446 14.3752 14.198 8.43525 14.198ZM21.8078 10.508V14H17.6138V10.508H21.8078ZM41.834 14V8.618H34.364V14H30.656V0.608H34.364V5.576H41.834V0.608H45.542V14H41.834ZM53.3674 12.002C55.4194 12.002 56.1214 10.706 56.1214 9.95V9.176C55.8154 9.302 54.9334 9.482 53.9254 9.644C52.2334 9.932 51.6934 10.166 51.6934 10.868V10.904C51.6934 11.534 52.1434 12.002 53.3674 12.002ZM56.2294 12.614C55.7974 13.136 54.7174 14.198 52.3774 14.198H52.0894C49.2994 14.198 48.1474 12.686 48.1474 11.03V10.958C48.1474 9.23 49.2454 8.168 52.6294 7.88L55.3654 7.646C55.9234 7.592 56.1214 7.412 56.1214 6.998C56.1214 6.53 55.9774 6.026 54.0334 6.026C52.1974 6.026 52.0174 6.746 52.0174 7.124H48.4174V7.088C48.4174 6.098 48.8134 3.776 53.7274 3.776H54.2854C59.2354 3.776 59.5414 5.81 59.5414 7.142V10.436C59.5414 11.066 59.6674 11.318 60.3694 11.318H60.7474V14H57.9034C56.8594 14 56.3734 13.262 56.2294 12.614ZM71.101 10.076H74.773C74.773 11.588 73.873 14.27 69.067 14.27H68.185C63.199 14.27 62.263 11.03 62.263 9.14V8.888C62.263 6.998 63.145 3.74 68.167 3.74H68.995C73.819 3.74 74.773 6.368 74.773 7.808V7.826H71.101C71.047 7.538 70.705 6.296 68.635 6.296H68.455C66.385 6.296 65.899 7.718 65.899 8.924V8.942C65.899 10.184 66.493 11.66 68.527 11.66H68.707C70.795 11.66 71.101 10.31 71.101 10.076ZM80.0251 14V6.674H76.1551V4.01H87.4051V6.674H83.5351V14H80.0251ZM94.0256 12.002C96.0776 12.002 96.7796 10.706 96.7796 9.95V9.176C96.4736 9.302 95.5916 9.482 94.5836 9.644C92.8916 9.932 92.3516 10.166 92.3516 10.868V10.904C92.3516 11.534 92.8016 12.002 94.0256 12.002ZM96.8876 12.614C96.4556 13.136 95.3756 14.198 93.0356 14.198H92.7476C89.9576 14.198 88.8056 12.686 88.8056 11.03V10.958C88.8056 9.23 89.9036 8.168 93.2876 7.88L96.0236 7.646C96.5816 7.592 96.7796 7.412 96.7796 6.998C96.7796 6.53 96.6356 6.026 94.6916 6.026C92.8556 6.026 92.6756 6.746 92.6756 7.124H89.0756V7.088C89.0756 6.098 89.4716 3.776 94.3856 3.776H94.9436C99.8936 3.776 100.2 5.81 100.2 7.142V10.436C100.2 11.066 100.326 11.318 101.028 11.318H101.406V14H98.5616C97.5176 14 97.0316 13.262 96.8876 12.614ZM111.651 14H103.407V4.01H111.291C113.577 4.01 115.017 4.82 115.017 6.404V6.494C115.017 7.736 114.225 8.474 113.019 8.672C114.243 8.816 115.341 9.68 115.341 11.12V11.192C115.341 13.01 114.153 14 111.651 14ZM106.917 7.988H110.139C110.985 7.988 111.417 7.664 111.417 7.034V6.944C111.417 6.368 111.021 6.026 110.139 6.026H106.917V7.988ZM106.917 11.984H110.283C111.219 11.984 111.741 11.678 111.741 10.976V10.832C111.741 10.202 111.309 9.806 110.283 9.806H106.917V11.984ZM121.296 14H117.786V4.01H121.296V7.646H126.192V4.01H129.702V14H126.192V10.31H121.296V14ZM141.046 7.952L136.222 14H132.622V4.01H136.132V10.058L140.956 4.01H144.556V14H141.046V7.952ZM154.91 14L151.022 9.374V14H147.512V4.01H151.022V8.006L154.586 4.01H158.636L154.46 8.492L159.086 14H154.91ZM165.739 14V4.01H174.451V6.674H169.249V14H165.739ZM182.62 14.27H182.062C176.68 14.27 175.852 10.994 175.852 9.176V8.924C175.852 7.124 176.68 3.74 182.044 3.74H182.638C188.182 3.74 188.83 7.142 188.83 8.906V9.194C188.83 10.994 188.182 14.27 182.62 14.27ZM182.242 11.642H182.44C184.654 11.642 185.212 10.058 185.212 8.96C185.212 7.826 184.654 6.314 182.44 6.314H182.242C179.938 6.314 179.47 7.826 179.47 8.96C179.47 10.058 179.938 11.642 182.242 11.642ZM190.153 16.124V11.336H191.359C192.043 9.968 192.151 6.998 192.241 4.01H202.807V11.336H204.607V16.124H201.277V14H193.483V16.124H190.153ZM194.671 11.336H199.297V6.674H195.391C195.337 7.97 195.157 9.95 194.671 11.336ZM211.412 12.002C213.464 12.002 214.166 10.706 214.166 9.95V9.176C213.86 9.302 212.978 9.482 211.97 9.644C210.278 9.932 209.738 10.166 209.738 10.868V10.904C209.738 11.534 210.188 12.002 211.412 12.002ZM214.274 12.614C213.842 13.136 212.762 14.198 210.422 14.198H210.134C207.344 14.198 206.192 12.686 206.192 11.03V10.958C206.192 9.23 207.29 8.168 210.674 7.88L213.41 7.646C213.968 7.592 214.166 7.412 214.166 6.998C214.166 6.53 214.022 6.026 212.078 6.026C210.242 6.026 210.062 6.746 210.062 7.124H206.462V7.088C206.462 6.098 206.858 3.776 211.772 3.776H212.33C217.28 3.776 217.586 5.81 217.586 7.142V10.436C217.586 11.066 217.712 11.318 218.414 11.318H218.792V14H215.948C214.904 14 214.418 13.262 214.274 12.614Z" fill="url(#paint0_linear_2018_1283)"/>
<path d="M11.1172 4.982V4.892C11.1172 4.262 10.5772 3.29 7.89525 3.29C4.96125 3.29 4.63725 4.316 4.63725 4.874V4.982C4.63725 5.63 5.06925 6.494 7.89525 6.494C10.6312 6.494 11.1172 5.63 11.1172 4.982ZM8.43525 14.198H7.76925C2.45925 14.198 1.30725 11.75 1.30725 10.166V10.148H4.97925C4.97925 10.31 5.23125 11.336 8.02125 11.336C11.2432 11.336 11.6212 9.032 11.6212 7.934V7.808C11.2792 8.096 10.1272 9.104 7.06725 9.104H6.67125C2.35125 9.104 0.821248 7.214 0.821248 5.27V4.982C0.821248 3.128 1.75725 0.446 7.35525 0.446H8.45325C14.4652 0.446 15.4012 4.694 15.4012 6.998V7.412C15.4012 9.446 14.3752 14.198 8.43525 14.198ZM21.8078 10.508V14H17.6138V10.508H21.8078ZM41.834 14V8.618H34.364V14H30.656V0.608H34.364V5.576H41.834V0.608H45.542V14H41.834ZM53.3674 12.002C55.4194 12.002 56.1214 10.706 56.1214 9.95V9.176C55.8154 9.302 54.9334 9.482 53.9254 9.644C52.2334 9.932 51.6934 10.166 51.6934 10.868V10.904C51.6934 11.534 52.1434 12.002 53.3674 12.002ZM56.2294 12.614C55.7974 13.136 54.7174 14.198 52.3774 14.198H52.0894C49.2994 14.198 48.1474 12.686 48.1474 11.03V10.958C48.1474 9.23 49.2454 8.168 52.6294 7.88L55.3654 7.646C55.9234 7.592 56.1214 7.412 56.1214 6.998C56.1214 6.53 55.9774 6.026 54.0334 6.026C52.1974 6.026 52.0174 6.746 52.0174 7.124H48.4174V7.088C48.4174 6.098 48.8134 3.776 53.7274 3.776H54.2854C59.2354 3.776 59.5414 5.81 59.5414 7.142V10.436C59.5414 11.066 59.6674 11.318 60.3694 11.318H60.7474V14H57.9034C56.8594 14 56.3734 13.262 56.2294 12.614ZM71.101 10.076H74.773C74.773 11.588 73.873 14.27 69.067 14.27H68.185C63.199 14.27 62.263 11.03 62.263 9.14V8.888C62.263 6.998 63.145 3.74 68.167 3.74H68.995C73.819 3.74 74.773 6.368 74.773 7.808V7.826H71.101C71.047 7.538 70.705 6.296 68.635 6.296H68.455C66.385 6.296 65.899 7.718 65.899 8.924V8.942C65.899 10.184 66.493 11.66 68.527 11.66H68.707C70.795 11.66 71.101 10.31 71.101 10.076ZM80.0251 14V6.674H76.1551V4.01H87.4051V6.674H83.5351V14H80.0251ZM94.0256 12.002C96.0776 12.002 96.7796 10.706 96.7796 9.95V9.176C96.4736 9.302 95.5916 9.482 94.5836 9.644C92.8916 9.932 92.3516 10.166 92.3516 10.868V10.904C92.3516 11.534 92.8016 12.002 94.0256 12.002ZM96.8876 12.614C96.4556 13.136 95.3756 14.198 93.0356 14.198H92.7476C89.9576 14.198 88.8056 12.686 88.8056 11.03V10.958C88.8056 9.23 89.9036 8.168 93.2876 7.88L96.0236 7.646C96.5816 7.592 96.7796 7.412 96.7796 6.998C96.7796 6.53 96.6356 6.026 94.6916 6.026C92.8556 6.026 92.6756 6.746 92.6756 7.124H89.0756V7.088C89.0756 6.098 89.4716 3.776 94.3856 3.776H94.9436C99.8936 3.776 100.2 5.81 100.2 7.142V10.436C100.2 11.066 100.326 11.318 101.028 11.318H101.406V14H98.5616C97.5176 14 97.0316 13.262 96.8876 12.614ZM111.651 14H103.407V4.01H111.291C113.577 4.01 115.017 4.82 115.017 6.404V6.494C115.017 7.736 114.225 8.474 113.019 8.672C114.243 8.816 115.341 9.68 115.341 11.12V11.192C115.341 13.01 114.153 14 111.651 14ZM106.917 7.988H110.139C110.985 7.988 111.417 7.664 111.417 7.034V6.944C111.417 6.368 111.021 6.026 110.139 6.026H106.917V7.988ZM106.917 11.984H110.283C111.219 11.984 111.741 11.678 111.741 10.976V10.832C111.741 10.202 111.309 9.806 110.283 9.806H106.917V11.984ZM121.296 14H117.786V4.01H121.296V7.646H126.192V4.01H129.702V14H126.192V10.31H121.296V14ZM141.046 7.952L136.222 14H132.622V4.01H136.132V10.058L140.956 4.01H144.556V14H141.046V7.952ZM154.91 14L151.022 9.374V14H147.512V4.01H151.022V8.006L154.586 4.01H158.636L154.46 8.492L159.086 14H154.91ZM165.739 14V4.01H174.451V6.674H169.249V14H165.739ZM182.62 14.27H182.062C176.68 14.27 175.852 10.994 175.852 9.176V8.924C175.852 7.124 176.68 3.74 182.044 3.74H182.638C188.182 3.74 188.83 7.142 188.83 8.906V9.194C188.83 10.994 188.182 14.27 182.62 14.27ZM182.242 11.642H182.44C184.654 11.642 185.212 10.058 185.212 8.96C185.212 7.826 184.654 6.314 182.44 6.314H182.242C179.938 6.314 179.47 7.826 179.47 8.96C179.47 10.058 179.938 11.642 182.242 11.642ZM190.153 16.124V11.336H191.359C192.043 9.968 192.151 6.998 192.241 4.01H202.807V11.336H204.607V16.124H201.277V14H193.483V16.124H190.153ZM194.671 11.336H199.297V6.674H195.391C195.337 7.97 195.157 9.95 194.671 11.336ZM211.412 12.002C213.464 12.002 214.166 10.706 214.166 9.95V9.176C213.86 9.302 212.978 9.482 211.97 9.644C210.278 9.932 209.738 10.166 209.738 10.868V10.904C209.738 11.534 210.188 12.002 211.412 12.002ZM214.274 12.614C213.842 13.136 212.762 14.198 210.422 14.198H210.134C207.344 14.198 206.192 12.686 206.192 11.03V10.958C206.192 9.23 207.29 8.168 210.674 7.88L213.41 7.646C213.968 7.592 214.166 7.412 214.166 6.998C214.166 6.53 214.022 6.026 212.078 6.026C210.242 6.026 210.062 6.746 210.062 7.124H206.462V7.088C206.462 6.098 206.858 3.776 211.772 3.776H212.33C217.28 3.776 217.586 5.81 217.586 7.142V10.436C217.586 11.066 217.712 11.318 218.414 11.318H218.792V14H215.948C214.904 14 214.418 13.262 214.274 12.614Z" fill="url(#paint1_radial_2018_1283)" style="mix-blend-mode:overlay"/>
<path d="M11.1172 4.982V4.892C11.1172 4.262 10.5772 3.29 7.89525 3.29C4.96125 3.29 4.63725 4.316 4.63725 4.874V4.982C4.63725 5.63 5.06925 6.494 7.89525 6.494C10.6312 6.494 11.1172 5.63 11.1172 4.982ZM8.43525 14.198H7.76925C2.45925 14.198 1.30725 11.75 1.30725 10.166V10.148H4.97925C4.97925 10.31 5.23125 11.336 8.02125 11.336C11.2432 11.336 11.6212 9.032 11.6212 7.934V7.808C11.2792 8.096 10.1272 9.104 7.06725 9.104H6.67125C2.35125 9.104 0.821248 7.214 0.821248 5.27V4.982C0.821248 3.128 1.75725 0.446 7.35525 0.446H8.45325C14.4652 0.446 15.4012 4.694 15.4012 6.998V7.412C15.4012 9.446 14.3752 14.198 8.43525 14.198ZM21.8078 10.508V14H17.6138V10.508H21.8078ZM41.834 14V8.618H34.364V14H30.656V0.608H34.364V5.576H41.834V0.608H45.542V14H41.834ZM53.3674 12.002C55.4194 12.002 56.1214 10.706 56.1214 9.95V9.176C55.8154 9.302 54.9334 9.482 53.9254 9.644C52.2334 9.932 51.6934 10.166 51.6934 10.868V10.904C51.6934 11.534 52.1434 12.002 53.3674 12.002ZM56.2294 12.614C55.7974 13.136 54.7174 14.198 52.3774 14.198H52.0894C49.2994 14.198 48.1474 12.686 48.1474 11.03V10.958C48.1474 9.23 49.2454 8.168 52.6294 7.88L55.3654 7.646C55.9234 7.592 56.1214 7.412 56.1214 6.998C56.1214 6.53 55.9774 6.026 54.0334 6.026C52.1974 6.026 52.0174 6.746 52.0174 7.124H48.4174V7.088C48.4174 6.098 48.8134 3.776 53.7274 3.776H54.2854C59.2354 3.776 59.5414 5.81 59.5414 7.142V10.436C59.5414 11.066 59.6674 11.318 60.3694 11.318H60.7474V14H57.9034C56.8594 14 56.3734 13.262 56.2294 12.614ZM71.101 10.076H74.773C74.773 11.588 73.873 14.27 69.067 14.27H68.185C63.199 14.27 62.263 11.03 62.263 9.14V8.888C62.263 6.998 63.145 3.74 68.167 3.74H68.995C73.819 3.74 74.773 6.368 74.773 7.808V7.826H71.101C71.047 7.538 70.705 6.296 68.635 6.296H68.455C66.385 6.296 65.899 7.718 65.899 8.924V8.942C65.899 10.184 66.493 11.66 68.527 11.66H68.707C70.795 11.66 71.101 10.31 71.101 10.076ZM80.0251 14V6.674H76.1551V4.01H87.4051V6.674H83.5351V14H80.0251ZM94.0256 12.002C96.0776 12.002 96.7796 10.706 96.7796 9.95V9.176C96.4736 9.302 95.5916 9.482 94.5836 9.644C92.8916 9.932 92.3516 10.166 92.3516 10.868V10.904C92.3516 11.534 92.8016 12.002 94.0256 12.002ZM96.8876 12.614C96.4556 13.136 95.3756 14.198 93.0356 14.198H92.7476C89.9576 14.198 88.8056 12.686 88.8056 11.03V10.958C88.8056 9.23 89.9036 8.168 93.2876 7.88L96.0236 7.646C96.5816 7.592 96.7796 7.412 96.7796 6.998C96.7796 6.53 96.6356 6.026 94.6916 6.026C92.8556 6.026 92.6756 6.746 92.6756 7.124H89.0756V7.088C89.0756 6.098 89.4716 3.776 94.3856 3.776H94.9436C99.8936 3.776 100.2 5.81 100.2 7.142V10.436C100.2 11.066 100.326 11.318 101.028 11.318H101.406V14H98.5616C97.5176 14 97.0316 13.262 96.8876 12.614ZM111.651 14H103.407V4.01H111.291C113.577 4.01 115.017 4.82 115.017 6.404V6.494C115.017 7.736 114.225 8.474 113.019 8.672C114.243 8.816 115.341 9.68 115.341 11.12V11.192C115.341 13.01 114.153 14 111.651 14ZM106.917 7.988H110.139C110.985 7.988 111.417 7.664 111.417 7.034V6.944C111.417 6.368 111.021 6.026 110.139 6.026H106.917V7.988ZM106.917 11.984H110.283C111.219 11.984 111.741 11.678 111.741 10.976V10.832C111.741 10.202 111.309 9.806 110.283 9.806H106.917V11.984ZM121.296 14H117.786V4.01H121.296V7.646H126.192V4.01H129.702V14H126.192V10.31H121.296V14ZM141.046 7.952L136.222 14H132.622V4.01H136.132V10.058L140.956 4.01H144.556V14H141.046V7.952ZM154.91 14L151.022 9.374V14H147.512V4.01H151.022V8.006L154.586 4.01H158.636L154.46 8.492L159.086 14H154.91ZM165.739 14V4.01H174.451V6.674H169.249V14H165.739ZM182.62 14.27H182.062C176.68 14.27 175.852 10.994 175.852 9.176V8.924C175.852 7.124 176.68 3.74 182.044 3.74H182.638C188.182 3.74 188.83 7.142 188.83 8.906V9.194C188.83 10.994 188.182 14.27 182.62 14.27ZM182.242 11.642H182.44C184.654 11.642 185.212 10.058 185.212 8.96C185.212 7.826 184.654 6.314 182.44 6.314H182.242C179.938 6.314 179.47 7.826 179.47 8.96C179.47 10.058 179.938 11.642 182.242 11.642ZM190.153 16.124V11.336H191.359C192.043 9.968 192.151 6.998 192.241 4.01H202.807V11.336H204.607V16.124H201.277V14H193.483V16.124H190.153ZM194.671 11.336H199.297V6.674H195.391C195.337 7.97 195.157 9.95 194.671 11.336ZM211.412 12.002C213.464 12.002 214.166 10.706 214.166 9.95V9.176C213.86 9.302 212.978 9.482 211.97 9.644C210.278 9.932 209.738 10.166 209.738 10.868V10.904C209.738 11.534 210.188 12.002 211.412 12.002ZM214.274 12.614C213.842 13.136 212.762 14.198 210.422 14.198H210.134C207.344 14.198 206.192 12.686 206.192 11.03V10.958C206.192 9.23 207.29 8.168 210.674 7.88L213.41 7.646C213.968 7.592 214.166 7.412 214.166 6.998C214.166 6.53 214.022 6.026 212.078 6.026C210.242 6.026 210.062 6.746 210.062 7.124H206.462V7.088C206.462 6.098 206.858 3.776 211.772 3.776H212.33C217.28 3.776 217.586 5.81 217.586 7.142V10.436C217.586 11.066 217.712 11.318 218.414 11.318H218.792V14H215.948C214.904 14 214.418 13.262 214.274 12.614Z" fill="url(#paint2_radial_2018_1283)"/>
<path d="M11.1172 4.982V4.892C11.1172 4.262 10.5772 3.29 7.89525 3.29C4.96125 3.29 4.63725 4.316 4.63725 4.874V4.982C4.63725 5.63 5.06925 6.494 7.89525 6.494C10.6312 6.494 11.1172 5.63 11.1172 4.982ZM8.43525 14.198H7.76925C2.45925 14.198 1.30725 11.75 1.30725 10.166V10.148H4.97925C4.97925 10.31 5.23125 11.336 8.02125 11.336C11.2432 11.336 11.6212 9.032 11.6212 7.934V7.808C11.2792 8.096 10.1272 9.104 7.06725 9.104H6.67125C2.35125 9.104 0.821248 7.214 0.821248 5.27V4.982C0.821248 3.128 1.75725 0.446 7.35525 0.446H8.45325C14.4652 0.446 15.4012 4.694 15.4012 6.998V7.412C15.4012 9.446 14.3752 14.198 8.43525 14.198ZM21.8078 10.508V14H17.6138V10.508H21.8078ZM41.834 14V8.618H34.364V14H30.656V0.608H34.364V5.576H41.834V0.608H45.542V14H41.834ZM53.3674 12.002C55.4194 12.002 56.1214 10.706 56.1214 9.95V9.176C55.8154 9.302 54.9334 9.482 53.9254 9.644C52.2334 9.932 51.6934 10.166 51.6934 10.868V10.904C51.6934 11.534 52.1434 12.002 53.3674 12.002ZM56.2294 12.614C55.7974 13.136 54.7174 14.198 52.3774 14.198H52.0894C49.2994 14.198 48.1474 12.686 48.1474 11.03V10.958C48.1474 9.23 49.2454 8.168 52.6294 7.88L55.3654 7.646C55.9234 7.592 56.1214 7.412 56.1214 6.998C56.1214 6.53 55.9774 6.026 54.0334 6.026C52.1974 6.026 52.0174 6.746 52.0174 7.124H48.4174V7.088C48.4174 6.098 48.8134 3.776 53.7274 3.776H54.2854C59.2354 3.776 59.5414 5.81 59.5414 7.142V10.436C59.5414 11.066 59.6674 11.318 60.3694 11.318H60.7474V14H57.9034C56.8594 14 56.3734 13.262 56.2294 12.614ZM71.101 10.076H74.773C74.773 11.588 73.873 14.27 69.067 14.27H68.185C63.199 14.27 62.263 11.03 62.263 9.14V8.888C62.263 6.998 63.145 3.74 68.167 3.74H68.995C73.819 3.74 74.773 6.368 74.773 7.808V7.826H71.101C71.047 7.538 70.705 6.296 68.635 6.296H68.455C66.385 6.296 65.899 7.718 65.899 8.924V8.942C65.899 10.184 66.493 11.66 68.527 11.66H68.707C70.795 11.66 71.101 10.31 71.101 10.076ZM80.0251 14V6.674H76.1551V4.01H87.4051V6.674H83.5351V14H80.0251ZM94.0256 12.002C96.0776 12.002 96.7796 10.706 96.7796 9.95V9.176C96.4736 9.302 95.5916 9.482 94.5836 9.644C92.8916 9.932 92.3516 10.166 92.3516 10.868V10.904C92.3516 11.534 92.8016 12.002 94.0256 12.002ZM96.8876 12.614C96.4556 13.136 95.3756 14.198 93.0356 14.198H92.7476C89.9576 14.198 88.8056 12.686 88.8056 11.03V10.958C88.8056 9.23 89.9036 8.168 93.2876 7.88L96.0236 7.646C96.5816 7.592 96.7796 7.412 96.7796 6.998C96.7796 6.53 96.6356 6.026 94.6916 6.026C92.8556 6.026 92.6756 6.746 92.6756 7.124H89.0756V7.088C89.0756 6.098 89.4716 3.776 94.3856 3.776H94.9436C99.8936 3.776 100.2 5.81 100.2 7.142V10.436C100.2 11.066 100.326 11.318 101.028 11.318H101.406V14H98.5616C97.5176 14 97.0316 13.262 96.8876 12.614ZM111.651 14H103.407V4.01H111.291C113.577 4.01 115.017 4.82 115.017 6.404V6.494C115.017 7.736 114.225 8.474 113.019 8.672C114.243 8.816 115.341 9.68 115.341 11.12V11.192C115.341 13.01 114.153 14 111.651 14ZM106.917 7.988H110.139C110.985 7.988 111.417 7.664 111.417 7.034V6.944C111.417 6.368 111.021 6.026 110.139 6.026H106.917V7.988ZM106.917 11.984H110.283C111.219 11.984 111.741 11.678 111.741 10.976V10.832C111.741 10.202 111.309 9.806 110.283 9.806H106.917V11.984ZM121.296 14H117.786V4.01H121.296V7.646H126.192V4.01H129.702V14H126.192V10.31H121.296V14ZM141.046 7.952L136.222 14H132.622V4.01H136.132V10.058L140.956 4.01H144.556V14H141.046V7.952ZM154.91 14L151.022 9.374V14H147.512V4.01H151.022V8.006L154.586 4.01H158.636L154.46 8.492L159.086 14H154.91ZM165.739 14V4.01H174.451V6.674H169.249V14H165.739ZM182.62 14.27H182.062C176.68 14.27 175.852 10.994 175.852 9.176V8.924C175.852 7.124 176.68 3.74 182.044 3.74H182.638C188.182 3.74 188.83 7.142 188.83 8.906V9.194C188.83 10.994 188.182 14.27 182.62 14.27ZM182.242 11.642H182.44C184.654 11.642 185.212 10.058 185.212 8.96C185.212 7.826 184.654 6.314 182.44 6.314H182.242C179.938 6.314 179.47 7.826 179.47 8.96C179.47 10.058 179.938 11.642 182.242 11.642ZM190.153 16.124V11.336H191.359C192.043 9.968 192.151 6.998 192.241 4.01H202.807V11.336H204.607V16.124H201.277V14H193.483V16.124H190.153ZM194.671 11.336H199.297V6.674H195.391C195.337 7.97 195.157 9.95 194.671 11.336ZM211.412 12.002C213.464 12.002 214.166 10.706 214.166 9.95V9.176C213.86 9.302 212.978 9.482 211.97 9.644C210.278 9.932 209.738 10.166 209.738 10.868V10.904C209.738 11.534 210.188 12.002 211.412 12.002ZM214.274 12.614C213.842 13.136 212.762 14.198 210.422 14.198H210.134C207.344 14.198 206.192 12.686 206.192 11.03V10.958C206.192 9.23 207.29 8.168 210.674 7.88L213.41 7.646C213.968 7.592 214.166 7.412 214.166 6.998C214.166 6.53 214.022 6.026 212.078 6.026C210.242 6.026 210.062 6.746 210.062 7.124H206.462V7.088C206.462 6.098 206.858 3.776 211.772 3.776H212.33C217.28 3.776 217.586 5.81 217.586 7.142V10.436C217.586 11.066 217.712 11.318 218.414 11.318H218.792V14H215.948C214.904 14 214.418 13.262 214.274 12.614Z" fill="#C1A875" style="mix-blend-mode:color"/>
<defs>
<linearGradient id="paint0_linear_2018_1283" x1="2" y1="6" x2="220" y2="6.00001" gradientUnits="userSpaceOnUse">
<stop stop-color="#576167"/>
<stop offset="0.191294" stop-color="#9EA1A2"/>
<stop offset="0.396166" stop-color="#848989"/>
<stop offset="0.62055" stop-color="#576167"/>
<stop offset="0.830299" stop-color="#757A7C"/>
<stop offset="1" stop-color="#576167"/>
</linearGradient>
<radialGradient id="paint1_radial_2018_1283" cx="0" cy="0" r="1" gradientUnits="userSpaceOnUse" gradientTransform="translate(118.096 -3.20225) rotate(90) scale(17.8315 164.924)">
<stop stop-color="white"/>
<stop offset="1" stop-color="white" stop-opacity="0"/>
</radialGradient>
<radialGradient id="paint2_radial_2018_1283" cx="0" cy="0" r="1" gradientUnits="userSpaceOnUse" gradientTransform="translate(130.427 23.6629) rotate(-89.2175) scale(25.5529 235.816)">
<stop stop-color="white"/>
<stop offset="1" stop-color="white" stop-opacity="0"/>
</radialGradient>
</defs>
</svg>
