<svg width="312" height="18" viewBox="0 0 312 18" fill="none" xmlns="http://www.w3.org/2000/svg">
<path d="M4.05 5.342H0.864V2.624C3.564 2.624 4.392 2.228 4.968 0.608H7.74V14H4.05V5.342ZM18.061 0.391999H18.817C25.099 0.391999 26.305 4.622 26.305 6.998V7.538C26.305 9.878 25.063 14.216 18.817 14.216H18.061C11.797 14.216 10.573 9.878 10.573 7.538V6.998C10.573 4.568 11.797 0.391999 18.061 0.391999ZM22.453 7.376V7.124C22.453 5.918 21.949 3.452 18.439 3.452C14.893 3.452 14.425 5.918 14.425 7.124V7.376C14.425 8.6 15.001 11.138 18.457 11.138C21.913 11.138 22.453 8.6 22.453 7.376ZM32.4523 10.508V14H28.2583V10.508H32.4523ZM40.5037 14V0.608H54.3277V3.56H44.2117V5.288H49.8457C54.0037 5.288 55.2997 7.07 55.2997 9.518V9.716C55.2997 12.164 53.9497 14 49.8457 14H40.5037ZM44.2117 11.048H49.5577C50.8357 11.048 51.4477 10.49 51.4477 9.68V9.554C51.4477 8.762 50.8357 8.24 49.5577 8.24H44.2117V11.048ZM58.2355 17.438V14.936H60.4315C60.7735 14.936 60.9535 14.792 60.9535 14.522V14.504C60.9535 14.288 60.8995 14.09 60.6295 13.532L56.3455 4.01H60.1975L62.9695 11.174L65.7235 4.01H69.2515L64.6795 15.008C63.9775 16.646 63.1135 17.438 61.4575 17.438H58.2355ZM69.8527 16.124V11.336H71.0587C71.7427 9.968 71.8507 6.998 71.9407 4.01H82.5067V11.336H84.3067V16.124H80.9767V14H73.1827V16.124H69.8527ZM74.3707 11.336H78.9967V6.674H75.0907C75.0367 7.97 74.8567 9.95 74.3707 11.336ZM86.6945 17.438V14.936H88.8905C89.2325 14.936 89.4125 14.792 89.4125 14.522V14.504C89.4125 14.288 89.3585 14.09 89.0885 13.532L84.8045 4.01H88.6565L91.4285 11.174L94.1825 4.01H97.7105L93.1385 15.008C92.4365 16.646 91.5725 17.438 89.9165 17.438H86.6945ZM99.4912 14V4.01H103.001V11.336H106.097V4.01H109.607V11.336H112.703V4.01H116.213V11.336H118.013V16.124H114.683V14H99.4912ZM125.731 6.08C123.913 6.08 123.229 6.818 123.049 7.862H128.341C128.341 7.124 127.981 6.08 125.731 6.08ZM128.413 10.886H132.067C132.067 11.714 131.419 14.234 126.253 14.234H125.587C120.655 14.234 119.431 11.534 119.431 9.14V8.888C119.431 6.638 120.547 3.794 125.281 3.794H126.073C131.185 3.794 132.103 6.638 132.103 9.428V9.752H123.013C123.157 10.904 123.895 11.84 126.037 11.84C128.071 11.84 128.323 11.048 128.413 10.886ZM140.321 6.08C138.503 6.08 137.819 6.818 137.639 7.862H142.931C142.931 7.124 142.571 6.08 140.321 6.08ZM143.003 10.886H146.657C146.657 11.714 146.009 14.234 140.843 14.234H140.177C135.245 14.234 134.021 11.534 134.021 9.14V8.888C134.021 6.638 135.137 3.794 139.871 3.794H140.663C145.775 3.794 146.693 6.638 146.693 9.428V9.752H137.603C137.747 10.904 138.485 11.84 140.627 11.84C142.661 11.84 142.913 11.048 143.003 10.886ZM160.564 14.27H160.006C154.624 14.27 153.796 10.994 153.796 9.176V8.924C153.796 7.124 154.624 3.74 159.988 3.74H160.582C166.126 3.74 166.774 7.142 166.774 8.906V9.194C166.774 10.994 166.126 14.27 160.564 14.27ZM160.186 11.642H160.384C162.598 11.642 163.156 10.058 163.156 8.96C163.156 7.826 162.598 6.314 160.384 6.314H160.186C157.882 6.314 157.414 7.826 157.414 8.96C157.414 10.058 157.882 11.642 160.186 11.642ZM181.662 9.122V9.356C181.662 13.1 178.818 14.27 175.416 14.27H175.056C171.546 14.27 168.684 12.902 168.684 8.15V7.088C168.684 2.282 171.078 0.698 175.758 0.698H176.568C177.684 0.698 177.756 0.589999 177.792 0.373999H181.23C181.23 2.48 180.438 3.362 177.99 3.362H175.758C173.166 3.362 172.176 4.172 172.122 5.99C173.04 5.036 174.444 4.388 176.658 4.388H176.766C179.142 4.388 181.662 5.594 181.662 9.122ZM175.092 11.642H175.29C176.874 11.642 178.044 10.85 178.044 9.212C178.044 7.628 176.856 6.854 175.308 6.854H175.092C173.364 6.854 172.302 7.592 172.302 9.23C172.302 10.886 173.382 11.642 175.092 11.642ZM193.257 9.014V8.96C193.257 7.88 192.753 6.422 190.557 6.422H190.377C188.271 6.422 187.605 7.808 187.605 8.96V9.014C187.605 10.112 188.271 11.552 190.377 11.552H190.557C192.753 11.552 193.257 10.04 193.257 9.014ZM184.113 17.438V4.01H187.587V5.288C188.019 4.82 189.333 3.812 191.601 3.812H191.835C195.651 3.812 196.893 6.422 196.893 8.798V9.104C196.893 11.282 195.615 14.198 191.817 14.198H191.565C189.279 14.198 188.055 13.154 187.623 12.722V17.438H184.113ZM203.963 12.002C206.015 12.002 206.717 10.706 206.717 9.95V9.176C206.411 9.302 205.529 9.482 204.521 9.644C202.829 9.932 202.289 10.166 202.289 10.868V10.904C202.289 11.534 202.739 12.002 203.963 12.002ZM206.825 12.614C206.393 13.136 205.313 14.198 202.973 14.198H202.685C199.895 14.198 198.743 12.686 198.743 11.03V10.958C198.743 9.23 199.841 8.168 203.225 7.88L205.961 7.646C206.519 7.592 206.717 7.412 206.717 6.998C206.717 6.53 206.573 6.026 204.629 6.026C202.793 6.026 202.613 6.746 202.613 7.124H199.013V7.088C199.013 6.098 199.409 3.776 204.323 3.776H204.881C209.831 3.776 210.137 5.81 210.137 7.142V10.436C210.137 11.066 210.263 11.318 210.965 11.318H211.343V14H208.499C207.455 14 206.969 13.262 206.825 12.614ZM224.559 11.048V11.156C224.559 13.154 222.885 14.27 219.051 14.27H218.727C214.623 14.27 212.841 12.74 212.841 10.67V10.526H216.603C216.657 11.642 217.683 12.056 218.907 12.056C220.221 12.056 220.941 11.66 220.941 10.868V10.814C220.941 10.076 220.365 9.896 219.357 9.896H216.981V7.754H219.357C220.131 7.754 220.617 7.448 220.617 6.872V6.818C220.617 6.224 220.023 5.918 218.817 5.918C217.467 5.918 216.747 6.242 216.693 6.944H212.931V6.89C212.931 4.748 215.433 3.74 218.691 3.74H218.979C222.345 3.74 224.235 4.55 224.235 6.422V6.494C224.235 8.006 223.083 8.582 222.255 8.78C223.263 8.978 224.559 9.464 224.559 11.048ZM233.267 14.27H232.709C227.327 14.27 226.499 10.994 226.499 9.176V8.924C226.499 7.124 227.327 3.74 232.691 3.74H233.285C238.829 3.74 239.477 7.142 239.477 8.906V9.194C239.477 10.994 238.829 14.27 233.267 14.27ZM232.889 11.642H233.087C235.301 11.642 235.859 10.058 235.859 8.96C235.859 7.826 235.301 6.314 233.087 6.314H232.889C230.585 6.314 230.117 7.826 230.117 8.96C230.117 10.058 230.585 11.642 232.889 11.642ZM250.136 14H241.892V4.01H249.776C252.062 4.01 253.502 4.82 253.502 6.404V6.494C253.502 7.736 252.71 8.474 251.504 8.672C252.728 8.816 253.826 9.68 253.826 11.12V11.192C253.826 13.01 252.638 14 250.136 14ZM245.402 7.988H248.624C249.47 7.988 249.902 7.664 249.902 7.034V6.944C249.902 6.368 249.506 6.026 248.624 6.026H245.402V7.988ZM245.402 11.984H248.768C249.704 11.984 250.226 11.678 250.226 10.976V10.832C250.226 10.202 249.794 9.806 248.768 9.806H245.402V11.984ZM260.899 12.002C262.951 12.002 263.653 10.706 263.653 9.95V9.176C263.347 9.302 262.465 9.482 261.457 9.644C259.765 9.932 259.225 10.166 259.225 10.868V10.904C259.225 11.534 259.675 12.002 260.899 12.002ZM263.761 12.614C263.329 13.136 262.249 14.198 259.909 14.198H259.621C256.831 14.198 255.679 12.686 255.679 11.03V10.958C255.679 9.23 256.777 8.168 260.161 7.88L262.897 7.646C263.455 7.592 263.653 7.412 263.653 6.998C263.653 6.53 263.509 6.026 261.565 6.026C259.729 6.026 259.549 6.746 259.549 7.124H255.949V7.088C255.949 6.098 256.345 3.776 261.259 3.776H261.817C266.767 3.776 267.073 5.81 267.073 7.142V10.436C267.073 11.066 267.199 11.318 267.901 11.318H268.279V14H265.435C264.391 14 263.905 13.262 263.761 12.614ZM273.79 14H270.28V4.01H273.79V7.646H278.686V4.01H282.196V14H278.686V10.31H273.79V14ZM293.54 7.952L288.716 14H285.116V4.01H288.626V10.058L293.45 4.01H297.05V14H293.54V7.952ZM308.376 10.652H306.018L303.102 14H299.142L302.4 10.274C300.672 9.932 299.682 8.942 299.682 7.43V7.214C299.682 5.396 301.158 4.01 303.66 4.01H311.886V14H308.376V10.652ZM308.376 6.314H304.614C303.84 6.314 303.192 6.494 303.192 7.286V7.358C303.192 8.132 303.858 8.366 304.632 8.366H308.376V6.314Z" fill="url(#paint0_linear_2018_999)"/>
<path d="M4.05 5.342H0.864V2.624C3.564 2.624 4.392 2.228 4.968 0.608H7.74V14H4.05V5.342ZM18.061 0.391999H18.817C25.099 0.391999 26.305 4.622 26.305 6.998V7.538C26.305 9.878 25.063 14.216 18.817 14.216H18.061C11.797 14.216 10.573 9.878 10.573 7.538V6.998C10.573 4.568 11.797 0.391999 18.061 0.391999ZM22.453 7.376V7.124C22.453 5.918 21.949 3.452 18.439 3.452C14.893 3.452 14.425 5.918 14.425 7.124V7.376C14.425 8.6 15.001 11.138 18.457 11.138C21.913 11.138 22.453 8.6 22.453 7.376ZM32.4523 10.508V14H28.2583V10.508H32.4523ZM40.5037 14V0.608H54.3277V3.56H44.2117V5.288H49.8457C54.0037 5.288 55.2997 7.07 55.2997 9.518V9.716C55.2997 12.164 53.9497 14 49.8457 14H40.5037ZM44.2117 11.048H49.5577C50.8357 11.048 51.4477 10.49 51.4477 9.68V9.554C51.4477 8.762 50.8357 8.24 49.5577 8.24H44.2117V11.048ZM58.2355 17.438V14.936H60.4315C60.7735 14.936 60.9535 14.792 60.9535 14.522V14.504C60.9535 14.288 60.8995 14.09 60.6295 13.532L56.3455 4.01H60.1975L62.9695 11.174L65.7235 4.01H69.2515L64.6795 15.008C63.9775 16.646 63.1135 17.438 61.4575 17.438H58.2355ZM69.8527 16.124V11.336H71.0587C71.7427 9.968 71.8507 6.998 71.9407 4.01H82.5067V11.336H84.3067V16.124H80.9767V14H73.1827V16.124H69.8527ZM74.3707 11.336H78.9967V6.674H75.0907C75.0367 7.97 74.8567 9.95 74.3707 11.336ZM86.6945 17.438V14.936H88.8905C89.2325 14.936 89.4125 14.792 89.4125 14.522V14.504C89.4125 14.288 89.3585 14.09 89.0885 13.532L84.8045 4.01H88.6565L91.4285 11.174L94.1825 4.01H97.7105L93.1385 15.008C92.4365 16.646 91.5725 17.438 89.9165 17.438H86.6945ZM99.4912 14V4.01H103.001V11.336H106.097V4.01H109.607V11.336H112.703V4.01H116.213V11.336H118.013V16.124H114.683V14H99.4912ZM125.731 6.08C123.913 6.08 123.229 6.818 123.049 7.862H128.341C128.341 7.124 127.981 6.08 125.731 6.08ZM128.413 10.886H132.067C132.067 11.714 131.419 14.234 126.253 14.234H125.587C120.655 14.234 119.431 11.534 119.431 9.14V8.888C119.431 6.638 120.547 3.794 125.281 3.794H126.073C131.185 3.794 132.103 6.638 132.103 9.428V9.752H123.013C123.157 10.904 123.895 11.84 126.037 11.84C128.071 11.84 128.323 11.048 128.413 10.886ZM140.321 6.08C138.503 6.08 137.819 6.818 137.639 7.862H142.931C142.931 7.124 142.571 6.08 140.321 6.08ZM143.003 10.886H146.657C146.657 11.714 146.009 14.234 140.843 14.234H140.177C135.245 14.234 134.021 11.534 134.021 9.14V8.888C134.021 6.638 135.137 3.794 139.871 3.794H140.663C145.775 3.794 146.693 6.638 146.693 9.428V9.752H137.603C137.747 10.904 138.485 11.84 140.627 11.84C142.661 11.84 142.913 11.048 143.003 10.886ZM160.564 14.27H160.006C154.624 14.27 153.796 10.994 153.796 9.176V8.924C153.796 7.124 154.624 3.74 159.988 3.74H160.582C166.126 3.74 166.774 7.142 166.774 8.906V9.194C166.774 10.994 166.126 14.27 160.564 14.27ZM160.186 11.642H160.384C162.598 11.642 163.156 10.058 163.156 8.96C163.156 7.826 162.598 6.314 160.384 6.314H160.186C157.882 6.314 157.414 7.826 157.414 8.96C157.414 10.058 157.882 11.642 160.186 11.642ZM181.662 9.122V9.356C181.662 13.1 178.818 14.27 175.416 14.27H175.056C171.546 14.27 168.684 12.902 168.684 8.15V7.088C168.684 2.282 171.078 0.698 175.758 0.698H176.568C177.684 0.698 177.756 0.589999 177.792 0.373999H181.23C181.23 2.48 180.438 3.362 177.99 3.362H175.758C173.166 3.362 172.176 4.172 172.122 5.99C173.04 5.036 174.444 4.388 176.658 4.388H176.766C179.142 4.388 181.662 5.594 181.662 9.122ZM175.092 11.642H175.29C176.874 11.642 178.044 10.85 178.044 9.212C178.044 7.628 176.856 6.854 175.308 6.854H175.092C173.364 6.854 172.302 7.592 172.302 9.23C172.302 10.886 173.382 11.642 175.092 11.642ZM193.257 9.014V8.96C193.257 7.88 192.753 6.422 190.557 6.422H190.377C188.271 6.422 187.605 7.808 187.605 8.96V9.014C187.605 10.112 188.271 11.552 190.377 11.552H190.557C192.753 11.552 193.257 10.04 193.257 9.014ZM184.113 17.438V4.01H187.587V5.288C188.019 4.82 189.333 3.812 191.601 3.812H191.835C195.651 3.812 196.893 6.422 196.893 8.798V9.104C196.893 11.282 195.615 14.198 191.817 14.198H191.565C189.279 14.198 188.055 13.154 187.623 12.722V17.438H184.113ZM203.963 12.002C206.015 12.002 206.717 10.706 206.717 9.95V9.176C206.411 9.302 205.529 9.482 204.521 9.644C202.829 9.932 202.289 10.166 202.289 10.868V10.904C202.289 11.534 202.739 12.002 203.963 12.002ZM206.825 12.614C206.393 13.136 205.313 14.198 202.973 14.198H202.685C199.895 14.198 198.743 12.686 198.743 11.03V10.958C198.743 9.23 199.841 8.168 203.225 7.88L205.961 7.646C206.519 7.592 206.717 7.412 206.717 6.998C206.717 6.53 206.573 6.026 204.629 6.026C202.793 6.026 202.613 6.746 202.613 7.124H199.013V7.088C199.013 6.098 199.409 3.776 204.323 3.776H204.881C209.831 3.776 210.137 5.81 210.137 7.142V10.436C210.137 11.066 210.263 11.318 210.965 11.318H211.343V14H208.499C207.455 14 206.969 13.262 206.825 12.614ZM224.559 11.048V11.156C224.559 13.154 222.885 14.27 219.051 14.27H218.727C214.623 14.27 212.841 12.74 212.841 10.67V10.526H216.603C216.657 11.642 217.683 12.056 218.907 12.056C220.221 12.056 220.941 11.66 220.941 10.868V10.814C220.941 10.076 220.365 9.896 219.357 9.896H216.981V7.754H219.357C220.131 7.754 220.617 7.448 220.617 6.872V6.818C220.617 6.224 220.023 5.918 218.817 5.918C217.467 5.918 216.747 6.242 216.693 6.944H212.931V6.89C212.931 4.748 215.433 3.74 218.691 3.74H218.979C222.345 3.74 224.235 4.55 224.235 6.422V6.494C224.235 8.006 223.083 8.582 222.255 8.78C223.263 8.978 224.559 9.464 224.559 11.048ZM233.267 14.27H232.709C227.327 14.27 226.499 10.994 226.499 9.176V8.924C226.499 7.124 227.327 3.74 232.691 3.74H233.285C238.829 3.74 239.477 7.142 239.477 8.906V9.194C239.477 10.994 238.829 14.27 233.267 14.27ZM232.889 11.642H233.087C235.301 11.642 235.859 10.058 235.859 8.96C235.859 7.826 235.301 6.314 233.087 6.314H232.889C230.585 6.314 230.117 7.826 230.117 8.96C230.117 10.058 230.585 11.642 232.889 11.642ZM250.136 14H241.892V4.01H249.776C252.062 4.01 253.502 4.82 253.502 6.404V6.494C253.502 7.736 252.71 8.474 251.504 8.672C252.728 8.816 253.826 9.68 253.826 11.12V11.192C253.826 13.01 252.638 14 250.136 14ZM245.402 7.988H248.624C249.47 7.988 249.902 7.664 249.902 7.034V6.944C249.902 6.368 249.506 6.026 248.624 6.026H245.402V7.988ZM245.402 11.984H248.768C249.704 11.984 250.226 11.678 250.226 10.976V10.832C250.226 10.202 249.794 9.806 248.768 9.806H245.402V11.984ZM260.899 12.002C262.951 12.002 263.653 10.706 263.653 9.95V9.176C263.347 9.302 262.465 9.482 261.457 9.644C259.765 9.932 259.225 10.166 259.225 10.868V10.904C259.225 11.534 259.675 12.002 260.899 12.002ZM263.761 12.614C263.329 13.136 262.249 14.198 259.909 14.198H259.621C256.831 14.198 255.679 12.686 255.679 11.03V10.958C255.679 9.23 256.777 8.168 260.161 7.88L262.897 7.646C263.455 7.592 263.653 7.412 263.653 6.998C263.653 6.53 263.509 6.026 261.565 6.026C259.729 6.026 259.549 6.746 259.549 7.124H255.949V7.088C255.949 6.098 256.345 3.776 261.259 3.776H261.817C266.767 3.776 267.073 5.81 267.073 7.142V10.436C267.073 11.066 267.199 11.318 267.901 11.318H268.279V14H265.435C264.391 14 263.905 13.262 263.761 12.614ZM273.79 14H270.28V4.01H273.79V7.646H278.686V4.01H282.196V14H278.686V10.31H273.79V14ZM293.54 7.952L288.716 14H285.116V4.01H288.626V10.058L293.45 4.01H297.05V14H293.54V7.952ZM308.376 10.652H306.018L303.102 14H299.142L302.4 10.274C300.672 9.932 299.682 8.942 299.682 7.43V7.214C299.682 5.396 301.158 4.01 303.66 4.01H311.886V14H308.376V10.652ZM308.376 6.314H304.614C303.84 6.314 303.192 6.494 303.192 7.286V7.358C303.192 8.132 303.858 8.366 304.632 8.366H308.376V6.314Z" fill="url(#paint1_radial_2018_999)" style="mix-blend-mode:overlay"/>
<path d="M4.05 5.342H0.864V2.624C3.564 2.624 4.392 2.228 4.968 0.608H7.74V14H4.05V5.342ZM18.061 0.391999H18.817C25.099 0.391999 26.305 4.622 26.305 6.998V7.538C26.305 9.878 25.063 14.216 18.817 14.216H18.061C11.797 14.216 10.573 9.878 10.573 7.538V6.998C10.573 4.568 11.797 0.391999 18.061 0.391999ZM22.453 7.376V7.124C22.453 5.918 21.949 3.452 18.439 3.452C14.893 3.452 14.425 5.918 14.425 7.124V7.376C14.425 8.6 15.001 11.138 18.457 11.138C21.913 11.138 22.453 8.6 22.453 7.376ZM32.4523 10.508V14H28.2583V10.508H32.4523ZM40.5037 14V0.608H54.3277V3.56H44.2117V5.288H49.8457C54.0037 5.288 55.2997 7.07 55.2997 9.518V9.716C55.2997 12.164 53.9497 14 49.8457 14H40.5037ZM44.2117 11.048H49.5577C50.8357 11.048 51.4477 10.49 51.4477 9.68V9.554C51.4477 8.762 50.8357 8.24 49.5577 8.24H44.2117V11.048ZM58.2355 17.438V14.936H60.4315C60.7735 14.936 60.9535 14.792 60.9535 14.522V14.504C60.9535 14.288 60.8995 14.09 60.6295 13.532L56.3455 4.01H60.1975L62.9695 11.174L65.7235 4.01H69.2515L64.6795 15.008C63.9775 16.646 63.1135 17.438 61.4575 17.438H58.2355ZM69.8527 16.124V11.336H71.0587C71.7427 9.968 71.8507 6.998 71.9407 4.01H82.5067V11.336H84.3067V16.124H80.9767V14H73.1827V16.124H69.8527ZM74.3707 11.336H78.9967V6.674H75.0907C75.0367 7.97 74.8567 9.95 74.3707 11.336ZM86.6945 17.438V14.936H88.8905C89.2325 14.936 89.4125 14.792 89.4125 14.522V14.504C89.4125 14.288 89.3585 14.09 89.0885 13.532L84.8045 4.01H88.6565L91.4285 11.174L94.1825 4.01H97.7105L93.1385 15.008C92.4365 16.646 91.5725 17.438 89.9165 17.438H86.6945ZM99.4912 14V4.01H103.001V11.336H106.097V4.01H109.607V11.336H112.703V4.01H116.213V11.336H118.013V16.124H114.683V14H99.4912ZM125.731 6.08C123.913 6.08 123.229 6.818 123.049 7.862H128.341C128.341 7.124 127.981 6.08 125.731 6.08ZM128.413 10.886H132.067C132.067 11.714 131.419 14.234 126.253 14.234H125.587C120.655 14.234 119.431 11.534 119.431 9.14V8.888C119.431 6.638 120.547 3.794 125.281 3.794H126.073C131.185 3.794 132.103 6.638 132.103 9.428V9.752H123.013C123.157 10.904 123.895 11.84 126.037 11.84C128.071 11.84 128.323 11.048 128.413 10.886ZM140.321 6.08C138.503 6.08 137.819 6.818 137.639 7.862H142.931C142.931 7.124 142.571 6.08 140.321 6.08ZM143.003 10.886H146.657C146.657 11.714 146.009 14.234 140.843 14.234H140.177C135.245 14.234 134.021 11.534 134.021 9.14V8.888C134.021 6.638 135.137 3.794 139.871 3.794H140.663C145.775 3.794 146.693 6.638 146.693 9.428V9.752H137.603C137.747 10.904 138.485 11.84 140.627 11.84C142.661 11.84 142.913 11.048 143.003 10.886ZM160.564 14.27H160.006C154.624 14.27 153.796 10.994 153.796 9.176V8.924C153.796 7.124 154.624 3.74 159.988 3.74H160.582C166.126 3.74 166.774 7.142 166.774 8.906V9.194C166.774 10.994 166.126 14.27 160.564 14.27ZM160.186 11.642H160.384C162.598 11.642 163.156 10.058 163.156 8.96C163.156 7.826 162.598 6.314 160.384 6.314H160.186C157.882 6.314 157.414 7.826 157.414 8.96C157.414 10.058 157.882 11.642 160.186 11.642ZM181.662 9.122V9.356C181.662 13.1 178.818 14.27 175.416 14.27H175.056C171.546 14.27 168.684 12.902 168.684 8.15V7.088C168.684 2.282 171.078 0.698 175.758 0.698H176.568C177.684 0.698 177.756 0.589999 177.792 0.373999H181.23C181.23 2.48 180.438 3.362 177.99 3.362H175.758C173.166 3.362 172.176 4.172 172.122 5.99C173.04 5.036 174.444 4.388 176.658 4.388H176.766C179.142 4.388 181.662 5.594 181.662 9.122ZM175.092 11.642H175.29C176.874 11.642 178.044 10.85 178.044 9.212C178.044 7.628 176.856 6.854 175.308 6.854H175.092C173.364 6.854 172.302 7.592 172.302 9.23C172.302 10.886 173.382 11.642 175.092 11.642ZM193.257 9.014V8.96C193.257 7.88 192.753 6.422 190.557 6.422H190.377C188.271 6.422 187.605 7.808 187.605 8.96V9.014C187.605 10.112 188.271 11.552 190.377 11.552H190.557C192.753 11.552 193.257 10.04 193.257 9.014ZM184.113 17.438V4.01H187.587V5.288C188.019 4.82 189.333 3.812 191.601 3.812H191.835C195.651 3.812 196.893 6.422 196.893 8.798V9.104C196.893 11.282 195.615 14.198 191.817 14.198H191.565C189.279 14.198 188.055 13.154 187.623 12.722V17.438H184.113ZM203.963 12.002C206.015 12.002 206.717 10.706 206.717 9.95V9.176C206.411 9.302 205.529 9.482 204.521 9.644C202.829 9.932 202.289 10.166 202.289 10.868V10.904C202.289 11.534 202.739 12.002 203.963 12.002ZM206.825 12.614C206.393 13.136 205.313 14.198 202.973 14.198H202.685C199.895 14.198 198.743 12.686 198.743 11.03V10.958C198.743 9.23 199.841 8.168 203.225 7.88L205.961 7.646C206.519 7.592 206.717 7.412 206.717 6.998C206.717 6.53 206.573 6.026 204.629 6.026C202.793 6.026 202.613 6.746 202.613 7.124H199.013V7.088C199.013 6.098 199.409 3.776 204.323 3.776H204.881C209.831 3.776 210.137 5.81 210.137 7.142V10.436C210.137 11.066 210.263 11.318 210.965 11.318H211.343V14H208.499C207.455 14 206.969 13.262 206.825 12.614ZM224.559 11.048V11.156C224.559 13.154 222.885 14.27 219.051 14.27H218.727C214.623 14.27 212.841 12.74 212.841 10.67V10.526H216.603C216.657 11.642 217.683 12.056 218.907 12.056C220.221 12.056 220.941 11.66 220.941 10.868V10.814C220.941 10.076 220.365 9.896 219.357 9.896H216.981V7.754H219.357C220.131 7.754 220.617 7.448 220.617 6.872V6.818C220.617 6.224 220.023 5.918 218.817 5.918C217.467 5.918 216.747 6.242 216.693 6.944H212.931V6.89C212.931 4.748 215.433 3.74 218.691 3.74H218.979C222.345 3.74 224.235 4.55 224.235 6.422V6.494C224.235 8.006 223.083 8.582 222.255 8.78C223.263 8.978 224.559 9.464 224.559 11.048ZM233.267 14.27H232.709C227.327 14.27 226.499 10.994 226.499 9.176V8.924C226.499 7.124 227.327 3.74 232.691 3.74H233.285C238.829 3.74 239.477 7.142 239.477 8.906V9.194C239.477 10.994 238.829 14.27 233.267 14.27ZM232.889 11.642H233.087C235.301 11.642 235.859 10.058 235.859 8.96C235.859 7.826 235.301 6.314 233.087 6.314H232.889C230.585 6.314 230.117 7.826 230.117 8.96C230.117 10.058 230.585 11.642 232.889 11.642ZM250.136 14H241.892V4.01H249.776C252.062 4.01 253.502 4.82 253.502 6.404V6.494C253.502 7.736 252.71 8.474 251.504 8.672C252.728 8.816 253.826 9.68 253.826 11.12V11.192C253.826 13.01 252.638 14 250.136 14ZM245.402 7.988H248.624C249.47 7.988 249.902 7.664 249.902 7.034V6.944C249.902 6.368 249.506 6.026 248.624 6.026H245.402V7.988ZM245.402 11.984H248.768C249.704 11.984 250.226 11.678 250.226 10.976V10.832C250.226 10.202 249.794 9.806 248.768 9.806H245.402V11.984ZM260.899 12.002C262.951 12.002 263.653 10.706 263.653 9.95V9.176C263.347 9.302 262.465 9.482 261.457 9.644C259.765 9.932 259.225 10.166 259.225 10.868V10.904C259.225 11.534 259.675 12.002 260.899 12.002ZM263.761 12.614C263.329 13.136 262.249 14.198 259.909 14.198H259.621C256.831 14.198 255.679 12.686 255.679 11.03V10.958C255.679 9.23 256.777 8.168 260.161 7.88L262.897 7.646C263.455 7.592 263.653 7.412 263.653 6.998C263.653 6.53 263.509 6.026 261.565 6.026C259.729 6.026 259.549 6.746 259.549 7.124H255.949V7.088C255.949 6.098 256.345 3.776 261.259 3.776H261.817C266.767 3.776 267.073 5.81 267.073 7.142V10.436C267.073 11.066 267.199 11.318 267.901 11.318H268.279V14H265.435C264.391 14 263.905 13.262 263.761 12.614ZM273.79 14H270.28V4.01H273.79V7.646H278.686V4.01H282.196V14H278.686V10.31H273.79V14ZM293.54 7.952L288.716 14H285.116V4.01H288.626V10.058L293.45 4.01H297.05V14H293.54V7.952ZM308.376 10.652H306.018L303.102 14H299.142L302.4 10.274C300.672 9.932 299.682 8.942 299.682 7.43V7.214C299.682 5.396 301.158 4.01 303.66 4.01H311.886V14H308.376V10.652ZM308.376 6.314H304.614C303.84 6.314 303.192 6.494 303.192 7.286V7.358C303.192 8.132 303.858 8.366 304.632 8.366H308.376V6.314Z" fill="url(#paint2_radial_2018_999)"/>
<path d="M4.05 5.342H0.864V2.624C3.564 2.624 4.392 2.228 4.968 0.608H7.74V14H4.05V5.342ZM18.061 0.391999H18.817C25.099 0.391999 26.305 4.622 26.305 6.998V7.538C26.305 9.878 25.063 14.216 18.817 14.216H18.061C11.797 14.216 10.573 9.878 10.573 7.538V6.998C10.573 4.568 11.797 0.391999 18.061 0.391999ZM22.453 7.376V7.124C22.453 5.918 21.949 3.452 18.439 3.452C14.893 3.452 14.425 5.918 14.425 7.124V7.376C14.425 8.6 15.001 11.138 18.457 11.138C21.913 11.138 22.453 8.6 22.453 7.376ZM32.4523 10.508V14H28.2583V10.508H32.4523ZM40.5037 14V0.608H54.3277V3.56H44.2117V5.288H49.8457C54.0037 5.288 55.2997 7.07 55.2997 9.518V9.716C55.2997 12.164 53.9497 14 49.8457 14H40.5037ZM44.2117 11.048H49.5577C50.8357 11.048 51.4477 10.49 51.4477 9.68V9.554C51.4477 8.762 50.8357 8.24 49.5577 8.24H44.2117V11.048ZM58.2355 17.438V14.936H60.4315C60.7735 14.936 60.9535 14.792 60.9535 14.522V14.504C60.9535 14.288 60.8995 14.09 60.6295 13.532L56.3455 4.01H60.1975L62.9695 11.174L65.7235 4.01H69.2515L64.6795 15.008C63.9775 16.646 63.1135 17.438 61.4575 17.438H58.2355ZM69.8527 16.124V11.336H71.0587C71.7427 9.968 71.8507 6.998 71.9407 4.01H82.5067V11.336H84.3067V16.124H80.9767V14H73.1827V16.124H69.8527ZM74.3707 11.336H78.9967V6.674H75.0907C75.0367 7.97 74.8567 9.95 74.3707 11.336ZM86.6945 17.438V14.936H88.8905C89.2325 14.936 89.4125 14.792 89.4125 14.522V14.504C89.4125 14.288 89.3585 14.09 89.0885 13.532L84.8045 4.01H88.6565L91.4285 11.174L94.1825 4.01H97.7105L93.1385 15.008C92.4365 16.646 91.5725 17.438 89.9165 17.438H86.6945ZM99.4912 14V4.01H103.001V11.336H106.097V4.01H109.607V11.336H112.703V4.01H116.213V11.336H118.013V16.124H114.683V14H99.4912ZM125.731 6.08C123.913 6.08 123.229 6.818 123.049 7.862H128.341C128.341 7.124 127.981 6.08 125.731 6.08ZM128.413 10.886H132.067C132.067 11.714 131.419 14.234 126.253 14.234H125.587C120.655 14.234 119.431 11.534 119.431 9.14V8.888C119.431 6.638 120.547 3.794 125.281 3.794H126.073C131.185 3.794 132.103 6.638 132.103 9.428V9.752H123.013C123.157 10.904 123.895 11.84 126.037 11.84C128.071 11.84 128.323 11.048 128.413 10.886ZM140.321 6.08C138.503 6.08 137.819 6.818 137.639 7.862H142.931C142.931 7.124 142.571 6.08 140.321 6.08ZM143.003 10.886H146.657C146.657 11.714 146.009 14.234 140.843 14.234H140.177C135.245 14.234 134.021 11.534 134.021 9.14V8.888C134.021 6.638 135.137 3.794 139.871 3.794H140.663C145.775 3.794 146.693 6.638 146.693 9.428V9.752H137.603C137.747 10.904 138.485 11.84 140.627 11.84C142.661 11.84 142.913 11.048 143.003 10.886ZM160.564 14.27H160.006C154.624 14.27 153.796 10.994 153.796 9.176V8.924C153.796 7.124 154.624 3.74 159.988 3.74H160.582C166.126 3.74 166.774 7.142 166.774 8.906V9.194C166.774 10.994 166.126 14.27 160.564 14.27ZM160.186 11.642H160.384C162.598 11.642 163.156 10.058 163.156 8.96C163.156 7.826 162.598 6.314 160.384 6.314H160.186C157.882 6.314 157.414 7.826 157.414 8.96C157.414 10.058 157.882 11.642 160.186 11.642ZM181.662 9.122V9.356C181.662 13.1 178.818 14.27 175.416 14.27H175.056C171.546 14.27 168.684 12.902 168.684 8.15V7.088C168.684 2.282 171.078 0.698 175.758 0.698H176.568C177.684 0.698 177.756 0.589999 177.792 0.373999H181.23C181.23 2.48 180.438 3.362 177.99 3.362H175.758C173.166 3.362 172.176 4.172 172.122 5.99C173.04 5.036 174.444 4.388 176.658 4.388H176.766C179.142 4.388 181.662 5.594 181.662 9.122ZM175.092 11.642H175.29C176.874 11.642 178.044 10.85 178.044 9.212C178.044 7.628 176.856 6.854 175.308 6.854H175.092C173.364 6.854 172.302 7.592 172.302 9.23C172.302 10.886 173.382 11.642 175.092 11.642ZM193.257 9.014V8.96C193.257 7.88 192.753 6.422 190.557 6.422H190.377C188.271 6.422 187.605 7.808 187.605 8.96V9.014C187.605 10.112 188.271 11.552 190.377 11.552H190.557C192.753 11.552 193.257 10.04 193.257 9.014ZM184.113 17.438V4.01H187.587V5.288C188.019 4.82 189.333 3.812 191.601 3.812H191.835C195.651 3.812 196.893 6.422 196.893 8.798V9.104C196.893 11.282 195.615 14.198 191.817 14.198H191.565C189.279 14.198 188.055 13.154 187.623 12.722V17.438H184.113ZM203.963 12.002C206.015 12.002 206.717 10.706 206.717 9.95V9.176C206.411 9.302 205.529 9.482 204.521 9.644C202.829 9.932 202.289 10.166 202.289 10.868V10.904C202.289 11.534 202.739 12.002 203.963 12.002ZM206.825 12.614C206.393 13.136 205.313 14.198 202.973 14.198H202.685C199.895 14.198 198.743 12.686 198.743 11.03V10.958C198.743 9.23 199.841 8.168 203.225 7.88L205.961 7.646C206.519 7.592 206.717 7.412 206.717 6.998C206.717 6.53 206.573 6.026 204.629 6.026C202.793 6.026 202.613 6.746 202.613 7.124H199.013V7.088C199.013 6.098 199.409 3.776 204.323 3.776H204.881C209.831 3.776 210.137 5.81 210.137 7.142V10.436C210.137 11.066 210.263 11.318 210.965 11.318H211.343V14H208.499C207.455 14 206.969 13.262 206.825 12.614ZM224.559 11.048V11.156C224.559 13.154 222.885 14.27 219.051 14.27H218.727C214.623 14.27 212.841 12.74 212.841 10.67V10.526H216.603C216.657 11.642 217.683 12.056 218.907 12.056C220.221 12.056 220.941 11.66 220.941 10.868V10.814C220.941 10.076 220.365 9.896 219.357 9.896H216.981V7.754H219.357C220.131 7.754 220.617 7.448 220.617 6.872V6.818C220.617 6.224 220.023 5.918 218.817 5.918C217.467 5.918 216.747 6.242 216.693 6.944H212.931V6.89C212.931 4.748 215.433 3.74 218.691 3.74H218.979C222.345 3.74 224.235 4.55 224.235 6.422V6.494C224.235 8.006 223.083 8.582 222.255 8.78C223.263 8.978 224.559 9.464 224.559 11.048ZM233.267 14.27H232.709C227.327 14.27 226.499 10.994 226.499 9.176V8.924C226.499 7.124 227.327 3.74 232.691 3.74H233.285C238.829 3.74 239.477 7.142 239.477 8.906V9.194C239.477 10.994 238.829 14.27 233.267 14.27ZM232.889 11.642H233.087C235.301 11.642 235.859 10.058 235.859 8.96C235.859 7.826 235.301 6.314 233.087 6.314H232.889C230.585 6.314 230.117 7.826 230.117 8.96C230.117 10.058 230.585 11.642 232.889 11.642ZM250.136 14H241.892V4.01H249.776C252.062 4.01 253.502 4.82 253.502 6.404V6.494C253.502 7.736 252.71 8.474 251.504 8.672C252.728 8.816 253.826 9.68 253.826 11.12V11.192C253.826 13.01 252.638 14 250.136 14ZM245.402 7.988H248.624C249.47 7.988 249.902 7.664 249.902 7.034V6.944C249.902 6.368 249.506 6.026 248.624 6.026H245.402V7.988ZM245.402 11.984H248.768C249.704 11.984 250.226 11.678 250.226 10.976V10.832C250.226 10.202 249.794 9.806 248.768 9.806H245.402V11.984ZM260.899 12.002C262.951 12.002 263.653 10.706 263.653 9.95V9.176C263.347 9.302 262.465 9.482 261.457 9.644C259.765 9.932 259.225 10.166 259.225 10.868V10.904C259.225 11.534 259.675 12.002 260.899 12.002ZM263.761 12.614C263.329 13.136 262.249 14.198 259.909 14.198H259.621C256.831 14.198 255.679 12.686 255.679 11.03V10.958C255.679 9.23 256.777 8.168 260.161 7.88L262.897 7.646C263.455 7.592 263.653 7.412 263.653 6.998C263.653 6.53 263.509 6.026 261.565 6.026C259.729 6.026 259.549 6.746 259.549 7.124H255.949V7.088C255.949 6.098 256.345 3.776 261.259 3.776H261.817C266.767 3.776 267.073 5.81 267.073 7.142V10.436C267.073 11.066 267.199 11.318 267.901 11.318H268.279V14H265.435C264.391 14 263.905 13.262 263.761 12.614ZM273.79 14H270.28V4.01H273.79V7.646H278.686V4.01H282.196V14H278.686V10.31H273.79V14ZM293.54 7.952L288.716 14H285.116V4.01H288.626V10.058L293.45 4.01H297.05V14H293.54V7.952ZM308.376 10.652H306.018L303.102 14H299.142L302.4 10.274C300.672 9.932 299.682 8.942 299.682 7.43V7.214C299.682 5.396 301.158 4.01 303.66 4.01H311.886V14H308.376V10.652ZM308.376 6.314H304.614C303.84 6.314 303.192 6.494 303.192 7.286V7.358C303.192 8.132 303.858 8.366 304.632 8.366H308.376V6.314Z" fill="#C1A875" style="mix-blend-mode:color"/>
<defs>
<linearGradient id="paint0_linear_2018_999" x1="1.16974e-06" y1="6" x2="314" y2="6.00002" gradientUnits="userSpaceOnUse">
<stop stop-color="#576167"/>
<stop offset="0.191294" stop-color="#9EA1A2"/>
<stop offset="0.396166" stop-color="#848989"/>
<stop offset="0.62055" stop-color="#576167"/>
<stop offset="0.830299" stop-color="#757A7C"/>
<stop offset="1" stop-color="#576167"/>
</linearGradient>
<radialGradient id="paint1_radial_2018_999" cx="0" cy="0" r="1" gradientUnits="userSpaceOnUse" gradientTransform="translate(167.221 -3.20225) rotate(90) scale(17.8315 237.551)">
<stop stop-color="white"/>
<stop offset="1" stop-color="white" stop-opacity="0"/>
</radialGradient>
<radialGradient id="paint2_radial_2018_999" cx="0" cy="0" r="1" gradientUnits="userSpaceOnUse" gradientTransform="translate(184.982 23.6629) rotate(-88.873) scale(25.5555 339.627)">
<stop stop-color="white"/>
<stop offset="1" stop-color="white" stop-opacity="0"/>
</radialGradient>
</defs>
</svg>
