<svg width="317" height="18" viewBox="0 0 317 18" fill="none" xmlns="http://www.w3.org/2000/svg">
<path d="M14.4372 14H0.109248V11.84C0.109248 10.022 0.379248 8.294 5.76125 6.656C6.33725 6.458 7.52525 6.17 8.06525 6.026C9.79325 5.594 10.1892 5.252 10.1892 4.622C10.1892 3.812 9.63125 3.308 7.39925 3.308C4.66325 3.308 4.32125 4.712 4.26725 5.432H0.325248V5.306C0.325248 3.416 1.38725 0.446 6.87725 0.446H7.68725C12.5832 0.446 14.1312 2.156 14.1312 4.586V4.73C14.1312 7.088 12.7452 8.078 9.03725 8.798L6.40925 9.356C3.78125 9.986 3.43925 10.418 3.43925 10.796H14.4372V14ZM20.8078 10.508V14H16.6138V10.508H20.8078ZM40.24 14V3.56H34.48C34.48 7.214 34.318 10.004 33.832 11.462C33.4 12.74 32.626 14 29.962 14H28.63V10.85H28.756C29.854 10.85 30.304 10.346 30.52 9.788C30.88 8.852 30.97 7.574 30.97 0.608H43.948V14H40.24ZM55.4777 7.952L50.6537 14H47.0537V4.01H50.5637V10.058L55.3877 4.01H58.9877V14H55.4777V7.952ZM61.0792 16.124V11.336H62.2852C62.9692 9.968 63.0772 6.998 63.1672 4.01H73.7332V11.336H75.5332V16.124H72.2032V14H64.4092V16.124H61.0792ZM65.5972 11.336H70.2232V6.674H66.3172C66.2632 7.97 66.0832 9.95 65.5972 11.336ZM83.2603 6.08C81.4423 6.08 80.7583 6.818 80.5783 7.862H85.8703C85.8703 7.124 85.5103 6.08 83.2603 6.08ZM85.9423 10.886H89.5963C89.5963 11.714 88.9483 14.234 83.7823 14.234H83.1163C78.1843 14.234 76.9603 11.534 76.9603 9.14V8.888C76.9603 6.638 78.0763 3.794 82.8103 3.794H83.6023C88.7143 3.794 89.6323 6.638 89.6323 9.428V9.752H80.5423C80.6863 10.904 81.4243 11.84 83.5663 11.84C85.6003 11.84 85.8523 11.048 85.9423 10.886ZM101.216 9.014V8.96C101.216 7.88 100.712 6.422 98.5161 6.422H98.3361C96.2301 6.422 95.5641 7.808 95.5641 8.96V9.014C95.5641 10.112 96.2301 11.552 98.3361 11.552H98.5161C100.712 11.552 101.216 10.04 101.216 9.014ZM92.0721 17.438V4.01H95.5461V5.288C95.9781 4.82 97.2921 3.812 99.5601 3.812H99.7941C103.61 3.812 104.852 6.422 104.852 8.798V9.104C104.852 11.282 103.574 14.198 99.7761 14.198H99.5241C97.2381 14.198 96.0141 13.154 95.5821 12.722V17.438H92.0721ZM123.711 11.048V11.156C123.711 13.154 122.037 14.27 118.203 14.27H117.879C113.775 14.27 111.993 12.74 111.993 10.67V10.526H115.755C115.809 11.642 116.835 12.056 118.059 12.056C119.373 12.056 120.093 11.66 120.093 10.868V10.814C120.093 10.076 119.517 9.896 118.509 9.896H116.133V7.754H118.509C119.283 7.754 119.769 7.448 119.769 6.872V6.818C119.769 6.224 119.175 5.918 117.969 5.918C116.619 5.918 115.899 6.242 115.845 6.944H112.083V6.89C112.083 4.748 114.585 3.74 117.843 3.74H118.131C121.497 3.74 123.387 4.55 123.387 6.422V6.494C123.387 8.006 122.235 8.582 121.407 8.78C122.415 8.978 123.711 9.464 123.711 11.048ZM131.969 6.08C130.151 6.08 129.467 6.818 129.287 7.862H134.579C134.579 7.124 134.219 6.08 131.969 6.08ZM134.651 10.886H138.305C138.305 11.714 137.657 14.234 132.491 14.234H131.825C126.893 14.234 125.669 11.534 125.669 9.14V8.888C125.669 6.638 126.785 3.794 131.519 3.794H132.311C137.423 3.794 138.341 6.638 138.341 9.428V9.752H129.251C129.395 10.904 130.133 11.84 132.275 11.84C134.309 11.84 134.561 11.048 134.651 10.886ZM148.759 14V6.674H144.799C144.799 9.356 144.709 10.85 144.367 11.768C143.989 12.776 143.485 14 140.839 14H139.741V11.39H139.957C140.587 11.39 141.055 11.174 141.253 10.256C141.397 9.482 141.451 8.636 141.451 4.01H152.269V14H148.759ZM160.991 6.08C159.173 6.08 158.489 6.818 158.309 7.862H163.601C163.601 7.124 163.241 6.08 160.991 6.08ZM163.673 10.886H167.327C167.327 11.714 166.679 14.234 161.513 14.234H160.847C155.915 14.234 154.691 11.534 154.691 9.14V8.888C154.691 6.638 155.807 3.794 160.541 3.794H161.333C166.445 3.794 167.363 6.638 167.363 9.428V9.752H158.273C158.417 10.904 159.155 11.84 161.297 11.84C163.331 11.84 163.583 11.048 163.673 10.886ZM160.415 0.373999V2.894H156.977V0.373999H160.415ZM164.933 0.373999V2.894H161.495V0.373999H164.933ZM173.277 14H169.767V4.01H173.277V7.646H178.173V4.01H181.683V14H178.173V10.31H173.277V14ZM190.867 14.27H190.309C184.927 14.27 184.099 10.994 184.099 9.176V8.924C184.099 7.124 184.927 3.74 190.291 3.74H190.885C196.429 3.74 197.077 7.142 197.077 8.906V9.194C197.077 10.994 196.429 14.27 190.867 14.27ZM190.489 11.642H190.687C192.901 11.642 193.459 10.058 193.459 8.96C193.459 7.826 192.901 6.314 190.687 6.314H190.489C188.185 6.314 187.717 7.826 187.717 8.96C187.717 10.058 188.185 11.642 190.489 11.642ZM207.915 7.952L203.091 14H199.491V4.01H203.001V10.058L207.825 4.01H211.425V14H207.915V7.952ZM205.683 2.984H205.143C202.281 2.984 201.777 1.04 201.777 0.104V0.0499994H204.423C204.423 0.284 204.531 1.004 205.431 1.004C206.277 1.004 206.403 0.284 206.403 0.0499994H209.013V0.104C209.013 1.04 208.293 2.984 205.683 2.984ZM231.536 8.888V9.14C231.536 11.03 230.6 14.27 225.614 14.27H224.732C219.926 14.27 219.026 11.588 219.026 10.076H222.698C222.698 10.346 223.004 11.75 225.092 11.75H225.272C226.838 11.75 227.576 10.904 227.864 9.932H223.85V7.772H227.81C227.522 6.908 226.838 6.206 225.344 6.206H225.164C223.076 6.206 222.752 7.52 222.698 7.826H219.026V7.808C219.026 6.368 219.98 3.74 224.804 3.74H225.632C230.654 3.74 231.536 6.998 231.536 8.888ZM237.454 14H233.944V4.01H237.454V7.646H242.35V4.01H245.86V14H242.35V10.31H237.454V14ZM254.594 6.08C252.776 6.08 252.092 6.818 251.912 7.862H257.204C257.204 7.124 256.844 6.08 254.594 6.08ZM257.276 10.886H260.93C260.93 11.714 260.282 14.234 255.116 14.234H254.45C249.518 14.234 248.294 11.534 248.294 9.14V8.888C248.294 6.638 249.41 3.794 254.144 3.794H254.936C260.048 3.794 260.966 6.638 260.966 9.428V9.752H251.876C252.02 10.904 252.758 11.84 254.9 11.84C256.934 11.84 257.186 11.048 257.276 10.886ZM272.55 9.014V8.96C272.55 7.88 272.046 6.422 269.85 6.422H269.67C267.564 6.422 266.898 7.808 266.898 8.96V9.014C266.898 10.112 267.564 11.552 269.67 11.552H269.85C272.046 11.552 272.55 10.04 272.55 9.014ZM263.406 17.438V4.01H266.88V5.288C267.312 4.82 268.626 3.812 270.894 3.812H271.128C274.944 3.812 276.186 6.422 276.186 8.798V9.104C276.186 11.282 274.908 14.198 271.11 14.198H270.858C268.572 14.198 267.348 13.154 266.916 12.722V17.438H263.406ZM278.628 14V4.01H287.34V6.674H282.138V14H278.628ZM297.669 7.952L292.845 14H289.245V4.01H292.755V10.058L297.579 4.01H301.179V14H297.669V7.952ZM312.523 7.952L307.699 14H304.099V4.01H307.609V10.058L312.433 4.01H316.033V14H312.523V7.952Z" fill="url(#paint0_linear_2018_942)"/>
<path d="M14.4372 14H0.109248V11.84C0.109248 10.022 0.379248 8.294 5.76125 6.656C6.33725 6.458 7.52525 6.17 8.06525 6.026C9.79325 5.594 10.1892 5.252 10.1892 4.622C10.1892 3.812 9.63125 3.308 7.39925 3.308C4.66325 3.308 4.32125 4.712 4.26725 5.432H0.325248V5.306C0.325248 3.416 1.38725 0.446 6.87725 0.446H7.68725C12.5832 0.446 14.1312 2.156 14.1312 4.586V4.73C14.1312 7.088 12.7452 8.078 9.03725 8.798L6.40925 9.356C3.78125 9.986 3.43925 10.418 3.43925 10.796H14.4372V14ZM20.8078 10.508V14H16.6138V10.508H20.8078ZM40.24 14V3.56H34.48C34.48 7.214 34.318 10.004 33.832 11.462C33.4 12.74 32.626 14 29.962 14H28.63V10.85H28.756C29.854 10.85 30.304 10.346 30.52 9.788C30.88 8.852 30.97 7.574 30.97 0.608H43.948V14H40.24ZM55.4777 7.952L50.6537 14H47.0537V4.01H50.5637V10.058L55.3877 4.01H58.9877V14H55.4777V7.952ZM61.0792 16.124V11.336H62.2852C62.9692 9.968 63.0772 6.998 63.1672 4.01H73.7332V11.336H75.5332V16.124H72.2032V14H64.4092V16.124H61.0792ZM65.5972 11.336H70.2232V6.674H66.3172C66.2632 7.97 66.0832 9.95 65.5972 11.336ZM83.2603 6.08C81.4423 6.08 80.7583 6.818 80.5783 7.862H85.8703C85.8703 7.124 85.5103 6.08 83.2603 6.08ZM85.9423 10.886H89.5963C89.5963 11.714 88.9483 14.234 83.7823 14.234H83.1163C78.1843 14.234 76.9603 11.534 76.9603 9.14V8.888C76.9603 6.638 78.0763 3.794 82.8103 3.794H83.6023C88.7143 3.794 89.6323 6.638 89.6323 9.428V9.752H80.5423C80.6863 10.904 81.4243 11.84 83.5663 11.84C85.6003 11.84 85.8523 11.048 85.9423 10.886ZM101.216 9.014V8.96C101.216 7.88 100.712 6.422 98.5161 6.422H98.3361C96.2301 6.422 95.5641 7.808 95.5641 8.96V9.014C95.5641 10.112 96.2301 11.552 98.3361 11.552H98.5161C100.712 11.552 101.216 10.04 101.216 9.014ZM92.0721 17.438V4.01H95.5461V5.288C95.9781 4.82 97.2921 3.812 99.5601 3.812H99.7941C103.61 3.812 104.852 6.422 104.852 8.798V9.104C104.852 11.282 103.574 14.198 99.7761 14.198H99.5241C97.2381 14.198 96.0141 13.154 95.5821 12.722V17.438H92.0721ZM123.711 11.048V11.156C123.711 13.154 122.037 14.27 118.203 14.27H117.879C113.775 14.27 111.993 12.74 111.993 10.67V10.526H115.755C115.809 11.642 116.835 12.056 118.059 12.056C119.373 12.056 120.093 11.66 120.093 10.868V10.814C120.093 10.076 119.517 9.896 118.509 9.896H116.133V7.754H118.509C119.283 7.754 119.769 7.448 119.769 6.872V6.818C119.769 6.224 119.175 5.918 117.969 5.918C116.619 5.918 115.899 6.242 115.845 6.944H112.083V6.89C112.083 4.748 114.585 3.74 117.843 3.74H118.131C121.497 3.74 123.387 4.55 123.387 6.422V6.494C123.387 8.006 122.235 8.582 121.407 8.78C122.415 8.978 123.711 9.464 123.711 11.048ZM131.969 6.08C130.151 6.08 129.467 6.818 129.287 7.862H134.579C134.579 7.124 134.219 6.08 131.969 6.08ZM134.651 10.886H138.305C138.305 11.714 137.657 14.234 132.491 14.234H131.825C126.893 14.234 125.669 11.534 125.669 9.14V8.888C125.669 6.638 126.785 3.794 131.519 3.794H132.311C137.423 3.794 138.341 6.638 138.341 9.428V9.752H129.251C129.395 10.904 130.133 11.84 132.275 11.84C134.309 11.84 134.561 11.048 134.651 10.886ZM148.759 14V6.674H144.799C144.799 9.356 144.709 10.85 144.367 11.768C143.989 12.776 143.485 14 140.839 14H139.741V11.39H139.957C140.587 11.39 141.055 11.174 141.253 10.256C141.397 9.482 141.451 8.636 141.451 4.01H152.269V14H148.759ZM160.991 6.08C159.173 6.08 158.489 6.818 158.309 7.862H163.601C163.601 7.124 163.241 6.08 160.991 6.08ZM163.673 10.886H167.327C167.327 11.714 166.679 14.234 161.513 14.234H160.847C155.915 14.234 154.691 11.534 154.691 9.14V8.888C154.691 6.638 155.807 3.794 160.541 3.794H161.333C166.445 3.794 167.363 6.638 167.363 9.428V9.752H158.273C158.417 10.904 159.155 11.84 161.297 11.84C163.331 11.84 163.583 11.048 163.673 10.886ZM160.415 0.373999V2.894H156.977V0.373999H160.415ZM164.933 0.373999V2.894H161.495V0.373999H164.933ZM173.277 14H169.767V4.01H173.277V7.646H178.173V4.01H181.683V14H178.173V10.31H173.277V14ZM190.867 14.27H190.309C184.927 14.27 184.099 10.994 184.099 9.176V8.924C184.099 7.124 184.927 3.74 190.291 3.74H190.885C196.429 3.74 197.077 7.142 197.077 8.906V9.194C197.077 10.994 196.429 14.27 190.867 14.27ZM190.489 11.642H190.687C192.901 11.642 193.459 10.058 193.459 8.96C193.459 7.826 192.901 6.314 190.687 6.314H190.489C188.185 6.314 187.717 7.826 187.717 8.96C187.717 10.058 188.185 11.642 190.489 11.642ZM207.915 7.952L203.091 14H199.491V4.01H203.001V10.058L207.825 4.01H211.425V14H207.915V7.952ZM205.683 2.984H205.143C202.281 2.984 201.777 1.04 201.777 0.104V0.0499994H204.423C204.423 0.284 204.531 1.004 205.431 1.004C206.277 1.004 206.403 0.284 206.403 0.0499994H209.013V0.104C209.013 1.04 208.293 2.984 205.683 2.984ZM231.536 8.888V9.14C231.536 11.03 230.6 14.27 225.614 14.27H224.732C219.926 14.27 219.026 11.588 219.026 10.076H222.698C222.698 10.346 223.004 11.75 225.092 11.75H225.272C226.838 11.75 227.576 10.904 227.864 9.932H223.85V7.772H227.81C227.522 6.908 226.838 6.206 225.344 6.206H225.164C223.076 6.206 222.752 7.52 222.698 7.826H219.026V7.808C219.026 6.368 219.98 3.74 224.804 3.74H225.632C230.654 3.74 231.536 6.998 231.536 8.888ZM237.454 14H233.944V4.01H237.454V7.646H242.35V4.01H245.86V14H242.35V10.31H237.454V14ZM254.594 6.08C252.776 6.08 252.092 6.818 251.912 7.862H257.204C257.204 7.124 256.844 6.08 254.594 6.08ZM257.276 10.886H260.93C260.93 11.714 260.282 14.234 255.116 14.234H254.45C249.518 14.234 248.294 11.534 248.294 9.14V8.888C248.294 6.638 249.41 3.794 254.144 3.794H254.936C260.048 3.794 260.966 6.638 260.966 9.428V9.752H251.876C252.02 10.904 252.758 11.84 254.9 11.84C256.934 11.84 257.186 11.048 257.276 10.886ZM272.55 9.014V8.96C272.55 7.88 272.046 6.422 269.85 6.422H269.67C267.564 6.422 266.898 7.808 266.898 8.96V9.014C266.898 10.112 267.564 11.552 269.67 11.552H269.85C272.046 11.552 272.55 10.04 272.55 9.014ZM263.406 17.438V4.01H266.88V5.288C267.312 4.82 268.626 3.812 270.894 3.812H271.128C274.944 3.812 276.186 6.422 276.186 8.798V9.104C276.186 11.282 274.908 14.198 271.11 14.198H270.858C268.572 14.198 267.348 13.154 266.916 12.722V17.438H263.406ZM278.628 14V4.01H287.34V6.674H282.138V14H278.628ZM297.669 7.952L292.845 14H289.245V4.01H292.755V10.058L297.579 4.01H301.179V14H297.669V7.952ZM312.523 7.952L307.699 14H304.099V4.01H307.609V10.058L312.433 4.01H316.033V14H312.523V7.952Z" fill="url(#paint1_radial_2018_942)" style="mix-blend-mode:overlay"/>
<path d="M14.4372 14H0.109248V11.84C0.109248 10.022 0.379248 8.294 5.76125 6.656C6.33725 6.458 7.52525 6.17 8.06525 6.026C9.79325 5.594 10.1892 5.252 10.1892 4.622C10.1892 3.812 9.63125 3.308 7.39925 3.308C4.66325 3.308 4.32125 4.712 4.26725 5.432H0.325248V5.306C0.325248 3.416 1.38725 0.446 6.87725 0.446H7.68725C12.5832 0.446 14.1312 2.156 14.1312 4.586V4.73C14.1312 7.088 12.7452 8.078 9.03725 8.798L6.40925 9.356C3.78125 9.986 3.43925 10.418 3.43925 10.796H14.4372V14ZM20.8078 10.508V14H16.6138V10.508H20.8078ZM40.24 14V3.56H34.48C34.48 7.214 34.318 10.004 33.832 11.462C33.4 12.74 32.626 14 29.962 14H28.63V10.85H28.756C29.854 10.85 30.304 10.346 30.52 9.788C30.88 8.852 30.97 7.574 30.97 0.608H43.948V14H40.24ZM55.4777 7.952L50.6537 14H47.0537V4.01H50.5637V10.058L55.3877 4.01H58.9877V14H55.4777V7.952ZM61.0792 16.124V11.336H62.2852C62.9692 9.968 63.0772 6.998 63.1672 4.01H73.7332V11.336H75.5332V16.124H72.2032V14H64.4092V16.124H61.0792ZM65.5972 11.336H70.2232V6.674H66.3172C66.2632 7.97 66.0832 9.95 65.5972 11.336ZM83.2603 6.08C81.4423 6.08 80.7583 6.818 80.5783 7.862H85.8703C85.8703 7.124 85.5103 6.08 83.2603 6.08ZM85.9423 10.886H89.5963C89.5963 11.714 88.9483 14.234 83.7823 14.234H83.1163C78.1843 14.234 76.9603 11.534 76.9603 9.14V8.888C76.9603 6.638 78.0763 3.794 82.8103 3.794H83.6023C88.7143 3.794 89.6323 6.638 89.6323 9.428V9.752H80.5423C80.6863 10.904 81.4243 11.84 83.5663 11.84C85.6003 11.84 85.8523 11.048 85.9423 10.886ZM101.216 9.014V8.96C101.216 7.88 100.712 6.422 98.5161 6.422H98.3361C96.2301 6.422 95.5641 7.808 95.5641 8.96V9.014C95.5641 10.112 96.2301 11.552 98.3361 11.552H98.5161C100.712 11.552 101.216 10.04 101.216 9.014ZM92.0721 17.438V4.01H95.5461V5.288C95.9781 4.82 97.2921 3.812 99.5601 3.812H99.7941C103.61 3.812 104.852 6.422 104.852 8.798V9.104C104.852 11.282 103.574 14.198 99.7761 14.198H99.5241C97.2381 14.198 96.0141 13.154 95.5821 12.722V17.438H92.0721ZM123.711 11.048V11.156C123.711 13.154 122.037 14.27 118.203 14.27H117.879C113.775 14.27 111.993 12.74 111.993 10.67V10.526H115.755C115.809 11.642 116.835 12.056 118.059 12.056C119.373 12.056 120.093 11.66 120.093 10.868V10.814C120.093 10.076 119.517 9.896 118.509 9.896H116.133V7.754H118.509C119.283 7.754 119.769 7.448 119.769 6.872V6.818C119.769 6.224 119.175 5.918 117.969 5.918C116.619 5.918 115.899 6.242 115.845 6.944H112.083V6.89C112.083 4.748 114.585 3.74 117.843 3.74H118.131C121.497 3.74 123.387 4.55 123.387 6.422V6.494C123.387 8.006 122.235 8.582 121.407 8.78C122.415 8.978 123.711 9.464 123.711 11.048ZM131.969 6.08C130.151 6.08 129.467 6.818 129.287 7.862H134.579C134.579 7.124 134.219 6.08 131.969 6.08ZM134.651 10.886H138.305C138.305 11.714 137.657 14.234 132.491 14.234H131.825C126.893 14.234 125.669 11.534 125.669 9.14V8.888C125.669 6.638 126.785 3.794 131.519 3.794H132.311C137.423 3.794 138.341 6.638 138.341 9.428V9.752H129.251C129.395 10.904 130.133 11.84 132.275 11.84C134.309 11.84 134.561 11.048 134.651 10.886ZM148.759 14V6.674H144.799C144.799 9.356 144.709 10.85 144.367 11.768C143.989 12.776 143.485 14 140.839 14H139.741V11.39H139.957C140.587 11.39 141.055 11.174 141.253 10.256C141.397 9.482 141.451 8.636 141.451 4.01H152.269V14H148.759ZM160.991 6.08C159.173 6.08 158.489 6.818 158.309 7.862H163.601C163.601 7.124 163.241 6.08 160.991 6.08ZM163.673 10.886H167.327C167.327 11.714 166.679 14.234 161.513 14.234H160.847C155.915 14.234 154.691 11.534 154.691 9.14V8.888C154.691 6.638 155.807 3.794 160.541 3.794H161.333C166.445 3.794 167.363 6.638 167.363 9.428V9.752H158.273C158.417 10.904 159.155 11.84 161.297 11.84C163.331 11.84 163.583 11.048 163.673 10.886ZM160.415 0.373999V2.894H156.977V0.373999H160.415ZM164.933 0.373999V2.894H161.495V0.373999H164.933ZM173.277 14H169.767V4.01H173.277V7.646H178.173V4.01H181.683V14H178.173V10.31H173.277V14ZM190.867 14.27H190.309C184.927 14.27 184.099 10.994 184.099 9.176V8.924C184.099 7.124 184.927 3.74 190.291 3.74H190.885C196.429 3.74 197.077 7.142 197.077 8.906V9.194C197.077 10.994 196.429 14.27 190.867 14.27ZM190.489 11.642H190.687C192.901 11.642 193.459 10.058 193.459 8.96C193.459 7.826 192.901 6.314 190.687 6.314H190.489C188.185 6.314 187.717 7.826 187.717 8.96C187.717 10.058 188.185 11.642 190.489 11.642ZM207.915 7.952L203.091 14H199.491V4.01H203.001V10.058L207.825 4.01H211.425V14H207.915V7.952ZM205.683 2.984H205.143C202.281 2.984 201.777 1.04 201.777 0.104V0.0499994H204.423C204.423 0.284 204.531 1.004 205.431 1.004C206.277 1.004 206.403 0.284 206.403 0.0499994H209.013V0.104C209.013 1.04 208.293 2.984 205.683 2.984ZM231.536 8.888V9.14C231.536 11.03 230.6 14.27 225.614 14.27H224.732C219.926 14.27 219.026 11.588 219.026 10.076H222.698C222.698 10.346 223.004 11.75 225.092 11.75H225.272C226.838 11.75 227.576 10.904 227.864 9.932H223.85V7.772H227.81C227.522 6.908 226.838 6.206 225.344 6.206H225.164C223.076 6.206 222.752 7.52 222.698 7.826H219.026V7.808C219.026 6.368 219.98 3.74 224.804 3.74H225.632C230.654 3.74 231.536 6.998 231.536 8.888ZM237.454 14H233.944V4.01H237.454V7.646H242.35V4.01H245.86V14H242.35V10.31H237.454V14ZM254.594 6.08C252.776 6.08 252.092 6.818 251.912 7.862H257.204C257.204 7.124 256.844 6.08 254.594 6.08ZM257.276 10.886H260.93C260.93 11.714 260.282 14.234 255.116 14.234H254.45C249.518 14.234 248.294 11.534 248.294 9.14V8.888C248.294 6.638 249.41 3.794 254.144 3.794H254.936C260.048 3.794 260.966 6.638 260.966 9.428V9.752H251.876C252.02 10.904 252.758 11.84 254.9 11.84C256.934 11.84 257.186 11.048 257.276 10.886ZM272.55 9.014V8.96C272.55 7.88 272.046 6.422 269.85 6.422H269.67C267.564 6.422 266.898 7.808 266.898 8.96V9.014C266.898 10.112 267.564 11.552 269.67 11.552H269.85C272.046 11.552 272.55 10.04 272.55 9.014ZM263.406 17.438V4.01H266.88V5.288C267.312 4.82 268.626 3.812 270.894 3.812H271.128C274.944 3.812 276.186 6.422 276.186 8.798V9.104C276.186 11.282 274.908 14.198 271.11 14.198H270.858C268.572 14.198 267.348 13.154 266.916 12.722V17.438H263.406ZM278.628 14V4.01H287.34V6.674H282.138V14H278.628ZM297.669 7.952L292.845 14H289.245V4.01H292.755V10.058L297.579 4.01H301.179V14H297.669V7.952ZM312.523 7.952L307.699 14H304.099V4.01H307.609V10.058L312.433 4.01H316.033V14H312.523V7.952Z" fill="url(#paint2_radial_2018_942)"/>
<path d="M14.4372 14H0.109248V11.84C0.109248 10.022 0.379248 8.294 5.76125 6.656C6.33725 6.458 7.52525 6.17 8.06525 6.026C9.79325 5.594 10.1892 5.252 10.1892 4.622C10.1892 3.812 9.63125 3.308 7.39925 3.308C4.66325 3.308 4.32125 4.712 4.26725 5.432H0.325248V5.306C0.325248 3.416 1.38725 0.446 6.87725 0.446H7.68725C12.5832 0.446 14.1312 2.156 14.1312 4.586V4.73C14.1312 7.088 12.7452 8.078 9.03725 8.798L6.40925 9.356C3.78125 9.986 3.43925 10.418 3.43925 10.796H14.4372V14ZM20.8078 10.508V14H16.6138V10.508H20.8078ZM40.24 14V3.56H34.48C34.48 7.214 34.318 10.004 33.832 11.462C33.4 12.74 32.626 14 29.962 14H28.63V10.85H28.756C29.854 10.85 30.304 10.346 30.52 9.788C30.88 8.852 30.97 7.574 30.97 0.608H43.948V14H40.24ZM55.4777 7.952L50.6537 14H47.0537V4.01H50.5637V10.058L55.3877 4.01H58.9877V14H55.4777V7.952ZM61.0792 16.124V11.336H62.2852C62.9692 9.968 63.0772 6.998 63.1672 4.01H73.7332V11.336H75.5332V16.124H72.2032V14H64.4092V16.124H61.0792ZM65.5972 11.336H70.2232V6.674H66.3172C66.2632 7.97 66.0832 9.95 65.5972 11.336ZM83.2603 6.08C81.4423 6.08 80.7583 6.818 80.5783 7.862H85.8703C85.8703 7.124 85.5103 6.08 83.2603 6.08ZM85.9423 10.886H89.5963C89.5963 11.714 88.9483 14.234 83.7823 14.234H83.1163C78.1843 14.234 76.9603 11.534 76.9603 9.14V8.888C76.9603 6.638 78.0763 3.794 82.8103 3.794H83.6023C88.7143 3.794 89.6323 6.638 89.6323 9.428V9.752H80.5423C80.6863 10.904 81.4243 11.84 83.5663 11.84C85.6003 11.84 85.8523 11.048 85.9423 10.886ZM101.216 9.014V8.96C101.216 7.88 100.712 6.422 98.5161 6.422H98.3361C96.2301 6.422 95.5641 7.808 95.5641 8.96V9.014C95.5641 10.112 96.2301 11.552 98.3361 11.552H98.5161C100.712 11.552 101.216 10.04 101.216 9.014ZM92.0721 17.438V4.01H95.5461V5.288C95.9781 4.82 97.2921 3.812 99.5601 3.812H99.7941C103.61 3.812 104.852 6.422 104.852 8.798V9.104C104.852 11.282 103.574 14.198 99.7761 14.198H99.5241C97.2381 14.198 96.0141 13.154 95.5821 12.722V17.438H92.0721ZM123.711 11.048V11.156C123.711 13.154 122.037 14.27 118.203 14.27H117.879C113.775 14.27 111.993 12.74 111.993 10.67V10.526H115.755C115.809 11.642 116.835 12.056 118.059 12.056C119.373 12.056 120.093 11.66 120.093 10.868V10.814C120.093 10.076 119.517 9.896 118.509 9.896H116.133V7.754H118.509C119.283 7.754 119.769 7.448 119.769 6.872V6.818C119.769 6.224 119.175 5.918 117.969 5.918C116.619 5.918 115.899 6.242 115.845 6.944H112.083V6.89C112.083 4.748 114.585 3.74 117.843 3.74H118.131C121.497 3.74 123.387 4.55 123.387 6.422V6.494C123.387 8.006 122.235 8.582 121.407 8.78C122.415 8.978 123.711 9.464 123.711 11.048ZM131.969 6.08C130.151 6.08 129.467 6.818 129.287 7.862H134.579C134.579 7.124 134.219 6.08 131.969 6.08ZM134.651 10.886H138.305C138.305 11.714 137.657 14.234 132.491 14.234H131.825C126.893 14.234 125.669 11.534 125.669 9.14V8.888C125.669 6.638 126.785 3.794 131.519 3.794H132.311C137.423 3.794 138.341 6.638 138.341 9.428V9.752H129.251C129.395 10.904 130.133 11.84 132.275 11.84C134.309 11.84 134.561 11.048 134.651 10.886ZM148.759 14V6.674H144.799C144.799 9.356 144.709 10.85 144.367 11.768C143.989 12.776 143.485 14 140.839 14H139.741V11.39H139.957C140.587 11.39 141.055 11.174 141.253 10.256C141.397 9.482 141.451 8.636 141.451 4.01H152.269V14H148.759ZM160.991 6.08C159.173 6.08 158.489 6.818 158.309 7.862H163.601C163.601 7.124 163.241 6.08 160.991 6.08ZM163.673 10.886H167.327C167.327 11.714 166.679 14.234 161.513 14.234H160.847C155.915 14.234 154.691 11.534 154.691 9.14V8.888C154.691 6.638 155.807 3.794 160.541 3.794H161.333C166.445 3.794 167.363 6.638 167.363 9.428V9.752H158.273C158.417 10.904 159.155 11.84 161.297 11.84C163.331 11.84 163.583 11.048 163.673 10.886ZM160.415 0.373999V2.894H156.977V0.373999H160.415ZM164.933 0.373999V2.894H161.495V0.373999H164.933ZM173.277 14H169.767V4.01H173.277V7.646H178.173V4.01H181.683V14H178.173V10.31H173.277V14ZM190.867 14.27H190.309C184.927 14.27 184.099 10.994 184.099 9.176V8.924C184.099 7.124 184.927 3.74 190.291 3.74H190.885C196.429 3.74 197.077 7.142 197.077 8.906V9.194C197.077 10.994 196.429 14.27 190.867 14.27ZM190.489 11.642H190.687C192.901 11.642 193.459 10.058 193.459 8.96C193.459 7.826 192.901 6.314 190.687 6.314H190.489C188.185 6.314 187.717 7.826 187.717 8.96C187.717 10.058 188.185 11.642 190.489 11.642ZM207.915 7.952L203.091 14H199.491V4.01H203.001V10.058L207.825 4.01H211.425V14H207.915V7.952ZM205.683 2.984H205.143C202.281 2.984 201.777 1.04 201.777 0.104V0.0499994H204.423C204.423 0.284 204.531 1.004 205.431 1.004C206.277 1.004 206.403 0.284 206.403 0.0499994H209.013V0.104C209.013 1.04 208.293 2.984 205.683 2.984ZM231.536 8.888V9.14C231.536 11.03 230.6 14.27 225.614 14.27H224.732C219.926 14.27 219.026 11.588 219.026 10.076H222.698C222.698 10.346 223.004 11.75 225.092 11.75H225.272C226.838 11.75 227.576 10.904 227.864 9.932H223.85V7.772H227.81C227.522 6.908 226.838 6.206 225.344 6.206H225.164C223.076 6.206 222.752 7.52 222.698 7.826H219.026V7.808C219.026 6.368 219.98 3.74 224.804 3.74H225.632C230.654 3.74 231.536 6.998 231.536 8.888ZM237.454 14H233.944V4.01H237.454V7.646H242.35V4.01H245.86V14H242.35V10.31H237.454V14ZM254.594 6.08C252.776 6.08 252.092 6.818 251.912 7.862H257.204C257.204 7.124 256.844 6.08 254.594 6.08ZM257.276 10.886H260.93C260.93 11.714 260.282 14.234 255.116 14.234H254.45C249.518 14.234 248.294 11.534 248.294 9.14V8.888C248.294 6.638 249.41 3.794 254.144 3.794H254.936C260.048 3.794 260.966 6.638 260.966 9.428V9.752H251.876C252.02 10.904 252.758 11.84 254.9 11.84C256.934 11.84 257.186 11.048 257.276 10.886ZM272.55 9.014V8.96C272.55 7.88 272.046 6.422 269.85 6.422H269.67C267.564 6.422 266.898 7.808 266.898 8.96V9.014C266.898 10.112 267.564 11.552 269.67 11.552H269.85C272.046 11.552 272.55 10.04 272.55 9.014ZM263.406 17.438V4.01H266.88V5.288C267.312 4.82 268.626 3.812 270.894 3.812H271.128C274.944 3.812 276.186 6.422 276.186 8.798V9.104C276.186 11.282 274.908 14.198 271.11 14.198H270.858C268.572 14.198 267.348 13.154 266.916 12.722V17.438H263.406ZM278.628 14V4.01H287.34V6.674H282.138V14H278.628ZM297.669 7.952L292.845 14H289.245V4.01H292.755V10.058L297.579 4.01H301.179V14H297.669V7.952ZM312.523 7.952L307.699 14H304.099V4.01H307.609V10.058L312.433 4.01H316.033V14H312.523V7.952Z" fill="#C1A875" style="mix-blend-mode:color"/>
<defs>
<linearGradient id="paint0_linear_2018_942" x1="1" y1="6" x2="318" y2="6.00002" gradientUnits="userSpaceOnUse">
<stop stop-color="#576167"/>
<stop offset="0.191294" stop-color="#9EA1A2"/>
<stop offset="0.396166" stop-color="#848989"/>
<stop offset="0.62055" stop-color="#576167"/>
<stop offset="0.830299" stop-color="#757A7C"/>
<stop offset="1" stop-color="#576167"/>
</linearGradient>
<radialGradient id="paint1_radial_2018_942" cx="0" cy="0" r="1" gradientUnits="userSpaceOnUse" gradientTransform="translate(169.819 -3.20225) rotate(90) scale(17.8315 239.821)">
<stop stop-color="white"/>
<stop offset="1" stop-color="white" stop-opacity="0"/>
</radialGradient>
<radialGradient id="paint2_radial_2018_942" cx="0" cy="0" r="1" gradientUnits="userSpaceOnUse" gradientTransform="translate(187.749 23.6629) rotate(-88.8622) scale(25.5556 342.871)">
<stop stop-color="white"/>
<stop offset="1" stop-color="white" stop-opacity="0"/>
</radialGradient>
</defs>
</svg>
