<svg width="386" height="18" viewBox="0 0 386 18" fill="none" xmlns="http://www.w3.org/2000/svg">
<path d="M8.30925 14.198H7.55325C1.82925 14.198 0.785248 11.12 0.785248 9.608V9.446H4.74525C4.79925 9.95 5.10525 11.21 8.02125 11.21C10.9732 11.21 11.4412 10.436 11.4412 9.644C11.4412 8.852 11.1352 8.438 9.64125 8.438H5.21325V5.72H9.62325C11.0632 5.72 11.2612 5.288 11.2612 4.64C11.2612 3.92 10.8652 3.326 7.98525 3.326C5.12325 3.326 4.87125 4.28 4.81725 4.712H0.965248V4.514C0.965248 3.29 1.77525 0.446 7.30125 0.446H8.30925C13.8352 0.446 14.9512 2.3 14.9512 3.884V4.01C14.9512 5.522 14.0152 6.206 12.9532 6.494C14.1772 6.782 15.3652 7.664 15.3652 9.554V9.68C15.3652 11.822 14.0512 14.198 8.30925 14.198ZM21.8078 10.508V14H17.6138V10.508H21.8078ZM38.63 14.198H37.802C31.682 14.198 30.062 10.274 30.062 7.538V6.998C30.062 4.208 31.682 0.409999 37.802 0.409999H38.63C44.246 0.409999 46.118 3.164 46.118 5.702V5.738H42.302C42.248 5.36 41.744 3.47 38.216 3.47C34.94 3.47 33.914 5.306 33.914 7.106V7.358C33.914 9.014 34.976 11.12 38.234 11.12C41.798 11.12 42.248 9.194 42.302 8.762H46.118V8.816C46.118 11.264 44.318 14.198 38.63 14.198ZM51.443 14V6.674H47.573V4.01H58.823V6.674H54.953V14H51.443ZM69.9075 9.014V8.96C69.9075 7.88 69.4035 6.422 67.2075 6.422H67.0275C64.9215 6.422 64.2555 7.808 64.2555 8.96V9.014C64.2555 10.112 64.9215 11.552 67.0275 11.552H67.2075C69.4035 11.552 69.9075 10.04 69.9075 9.014ZM60.7635 17.438V4.01H64.2375V5.288C64.6695 4.82 65.9835 3.812 68.2515 3.812H68.4855C72.3015 3.812 73.5435 6.422 73.5435 8.798V9.104C73.5435 11.282 72.2655 14.198 68.4675 14.198H68.2155C65.9295 14.198 64.7055 13.154 64.2735 12.722V17.438H60.7635ZM80.6135 12.002C82.6655 12.002 83.3675 10.706 83.3675 9.95V9.176C83.0615 9.302 82.1795 9.482 81.1715 9.644C79.4795 9.932 78.9395 10.166 78.9395 10.868V10.904C78.9395 11.534 79.3895 12.002 80.6135 12.002ZM83.4755 12.614C83.0435 13.136 81.9635 14.198 79.6235 14.198H79.3355C76.5455 14.198 75.3935 12.686 75.3935 11.03V10.958C75.3935 9.23 76.4915 8.168 79.8755 7.88L82.6115 7.646C83.1695 7.592 83.3675 7.412 83.3675 6.998C83.3675 6.53 83.2235 6.026 81.2795 6.026C79.4435 6.026 79.2635 6.746 79.2635 7.124H75.6635V7.088C75.6635 6.098 76.0595 3.776 80.9735 3.776H81.5315C86.4815 3.776 86.7875 5.81 86.7875 7.142V10.436C86.7875 11.066 86.9135 11.318 87.6155 11.318H87.9935V14H85.1495C84.1055 14 83.6195 13.262 83.4755 12.614ZM92.6813 14V6.674H88.8113V4.01H100.061V6.674H96.1913V14H92.6813ZM107.78 6.08C105.962 6.08 105.278 6.818 105.098 7.862H110.39C110.39 7.124 110.03 6.08 107.78 6.08ZM110.462 10.886H114.116C114.116 11.714 113.468 14.234 108.302 14.234H107.636C102.704 14.234 101.48 11.534 101.48 9.14V8.888C101.48 6.638 102.596 3.794 107.33 3.794H108.122C113.234 3.794 114.152 6.638 114.152 9.428V9.752H105.062C105.206 10.904 105.944 11.84 108.086 11.84C110.12 11.84 110.372 11.048 110.462 10.886ZM116.556 14V4.01H125.268V6.674H120.066V14H116.556ZM135.597 7.952L130.773 14H127.173V4.01H130.683V10.058L135.507 4.01H139.107V14H135.597V7.952ZM149.442 4.01H152.952V14H149.442V10.562C148.668 10.652 147.768 10.742 146.832 10.742C142.872 10.742 141.378 9.626 141.378 6.458V4.01H144.888V5.81C144.888 7.682 145.518 8.006 147.372 8.006C148.074 8.006 148.884 7.952 149.442 7.88V4.01ZM161.674 6.08C159.856 6.08 159.172 6.818 158.992 7.862H164.284C164.284 7.124 163.924 6.08 161.674 6.08ZM164.356 10.886H168.01C168.01 11.714 167.362 14.234 162.196 14.234H161.53C156.598 14.234 155.374 11.534 155.374 9.14V8.888C155.374 6.638 156.49 3.794 161.224 3.794H162.016C167.128 3.794 168.046 6.638 168.046 9.428V9.752H158.956C159.1 10.904 159.838 11.84 161.98 11.84C164.014 11.84 164.266 11.048 164.356 10.886ZM178.802 10.076H182.474C182.474 11.588 181.574 14.27 176.768 14.27H175.886C170.9 14.27 169.964 11.03 169.964 9.14V8.888C169.964 6.998 170.846 3.74 175.868 3.74H176.696C181.52 3.74 182.474 6.368 182.474 7.808V7.826H178.802C178.748 7.538 178.406 6.296 176.336 6.296H176.156C174.086 6.296 173.6 7.718 173.6 8.924V8.942C173.6 10.184 174.194 11.66 176.228 11.66H176.408C178.496 11.66 178.802 10.31 178.802 10.076ZM192.298 14L188.41 9.374V14H184.9V4.01H188.41V8.006L191.974 4.01H196.024L191.848 8.492L196.474 14H192.298ZM206.349 7.952L201.525 14H197.925V4.01H201.435V10.058L206.259 4.01H209.859V14H206.349V7.952ZM221.202 7.952L216.378 14H212.778V4.01H216.288V10.058L221.112 4.01H224.712V14H221.202V7.952ZM218.97 2.984H218.43C215.568 2.984 215.064 1.04 215.064 0.104V0.0499994H217.71C217.71 0.284 217.818 1.004 218.718 1.004C219.564 1.004 219.69 0.284 219.69 0.0499994H222.3V0.104C222.3 1.04 221.58 2.984 218.97 2.984ZM242.015 9.014V8.96C242.015 7.88 241.511 6.422 239.315 6.422H239.135C237.029 6.422 236.363 7.808 236.363 8.96V9.014C236.363 10.112 237.029 11.552 239.135 11.552H239.315C241.511 11.552 242.015 10.04 242.015 9.014ZM232.871 17.438V4.01H236.345V5.288C236.777 4.82 238.091 3.812 240.359 3.812H240.593C244.409 3.812 245.651 6.422 245.651 8.798V9.104C245.651 11.282 244.373 14.198 240.575 14.198H240.323C238.037 14.198 236.813 13.154 236.381 12.722V17.438H232.871ZM252.721 12.002C254.773 12.002 255.475 10.706 255.475 9.95V9.176C255.169 9.302 254.287 9.482 253.279 9.644C251.587 9.932 251.047 10.166 251.047 10.868V10.904C251.047 11.534 251.497 12.002 252.721 12.002ZM255.583 12.614C255.151 13.136 254.071 14.198 251.731 14.198H251.443C248.653 14.198 247.501 12.686 247.501 11.03V10.958C247.501 9.23 248.599 8.168 251.983 7.88L254.719 7.646C255.277 7.592 255.475 7.412 255.475 6.998C255.475 6.53 255.331 6.026 253.387 6.026C251.551 6.026 251.371 6.746 251.371 7.124H247.771V7.088C247.771 6.098 248.167 3.776 253.081 3.776H253.639C258.589 3.776 258.895 5.81 258.895 7.142V10.436C258.895 11.066 259.021 11.318 259.723 11.318H260.101V14H257.257C256.213 14 255.727 13.262 255.583 12.614ZM273.317 11.048V11.156C273.317 13.154 271.643 14.27 267.809 14.27H267.485C263.381 14.27 261.599 12.74 261.599 10.67V10.526H265.361C265.415 11.642 266.441 12.056 267.665 12.056C268.979 12.056 269.699 11.66 269.699 10.868V10.814C269.699 10.076 269.123 9.896 268.115 9.896H265.739V7.754H268.115C268.889 7.754 269.375 7.448 269.375 6.872V6.818C269.375 6.224 268.781 5.918 267.575 5.918C266.225 5.918 265.505 6.242 265.451 6.944H261.689V6.89C261.689 4.748 264.191 3.74 267.449 3.74H267.737C271.103 3.74 272.993 4.55 272.993 6.422V6.494C272.993 8.006 271.841 8.582 271.013 8.78C272.021 8.978 273.317 9.464 273.317 11.048ZM284.005 14H275.761V4.01H283.645C285.931 4.01 287.371 4.82 287.371 6.404V6.494C287.371 7.736 286.579 8.474 285.373 8.672C286.597 8.816 287.695 9.68 287.695 11.12V11.192C287.695 13.01 286.507 14 284.005 14ZM279.271 7.988H282.493C283.339 7.988 283.771 7.664 283.771 7.034V6.944C283.771 6.368 283.375 6.026 282.493 6.026H279.271V7.988ZM279.271 11.984H282.637C283.573 11.984 284.095 11.678 284.095 10.976V10.832C284.095 10.202 283.663 9.806 282.637 9.806H279.271V11.984ZM298.564 7.952L293.74 14H290.14V4.01H293.65V10.058L298.474 4.01H302.074V14H298.564V7.952ZM313.237 14H304.993V4.01H312.877C315.163 4.01 316.603 4.82 316.603 6.404V6.494C316.603 7.736 315.811 8.474 314.605 8.672C315.829 8.816 316.927 9.68 316.927 11.12V11.192C316.927 13.01 315.739 14 313.237 14ZM308.503 7.988H311.725C312.571 7.988 313.003 7.664 313.003 7.034V6.944C313.003 6.368 312.607 6.026 311.725 6.026H308.503V7.988ZM308.503 11.984H311.869C312.805 11.984 313.327 11.678 313.327 10.976V10.832C313.327 10.202 312.895 9.806 311.869 9.806H308.503V11.984ZM324 12.002C326.052 12.002 326.754 10.706 326.754 9.95V9.176C326.448 9.302 325.566 9.482 324.558 9.644C322.866 9.932 322.326 10.166 322.326 10.868V10.904C322.326 11.534 322.776 12.002 324 12.002ZM326.862 12.614C326.43 13.136 325.35 14.198 323.01 14.198H322.722C319.932 14.198 318.78 12.686 318.78 11.03V10.958C318.78 9.23 319.878 8.168 323.262 7.88L325.998 7.646C326.556 7.592 326.754 7.412 326.754 6.998C326.754 6.53 326.61 6.026 324.666 6.026C322.83 6.026 322.65 6.746 322.65 7.124H319.05V7.088C319.05 6.098 319.446 3.776 324.36 3.776H324.918C329.868 3.776 330.174 5.81 330.174 7.142V10.436C330.174 11.066 330.3 11.318 331.002 11.318H331.38V14H328.536C327.492 14 327.006 13.262 326.862 12.614ZM336.068 14V6.674H332.198V4.01H343.448V6.674H339.578V14H336.068ZM351.167 6.08C349.349 6.08 348.665 6.818 348.485 7.862H353.777C353.777 7.124 353.417 6.08 351.167 6.08ZM353.849 10.886H357.503C357.503 11.714 356.855 14.234 351.689 14.234H351.023C346.091 14.234 344.867 11.534 344.867 9.14V8.888C344.867 6.638 345.983 3.794 350.717 3.794H351.509C356.621 3.794 357.539 6.638 357.539 9.428V9.752H348.449C348.593 10.904 349.331 11.84 351.473 11.84C353.507 11.84 353.759 11.048 353.849 10.886ZM367.957 14V6.674H363.997C363.997 9.356 363.907 10.85 363.565 11.768C363.187 12.776 362.683 14 360.037 14H358.939V11.39H359.155C359.785 11.39 360.253 11.174 360.451 10.256C360.595 9.482 360.649 8.636 360.649 4.01H371.467V14H367.957ZM374.374 14V4.01H377.884V6.872H380.62C384.04 6.872 385.372 8.384 385.372 10.292V10.508C385.372 12.596 384.04 14 380.62 14H374.374ZM377.884 11.624H380.188C380.908 11.624 381.772 11.408 381.772 10.436V10.382C381.772 9.482 380.908 9.248 380.188 9.248H377.884V11.624Z" fill="url(#paint0_linear_2018_949)"/>
<path d="M8.30925 14.198H7.55325C1.82925 14.198 0.785248 11.12 0.785248 9.608V9.446H4.74525C4.79925 9.95 5.10525 11.21 8.02125 11.21C10.9732 11.21 11.4412 10.436 11.4412 9.644C11.4412 8.852 11.1352 8.438 9.64125 8.438H5.21325V5.72H9.62325C11.0632 5.72 11.2612 5.288 11.2612 4.64C11.2612 3.92 10.8652 3.326 7.98525 3.326C5.12325 3.326 4.87125 4.28 4.81725 4.712H0.965248V4.514C0.965248 3.29 1.77525 0.446 7.30125 0.446H8.30925C13.8352 0.446 14.9512 2.3 14.9512 3.884V4.01C14.9512 5.522 14.0152 6.206 12.9532 6.494C14.1772 6.782 15.3652 7.664 15.3652 9.554V9.68C15.3652 11.822 14.0512 14.198 8.30925 14.198ZM21.8078 10.508V14H17.6138V10.508H21.8078ZM38.63 14.198H37.802C31.682 14.198 30.062 10.274 30.062 7.538V6.998C30.062 4.208 31.682 0.409999 37.802 0.409999H38.63C44.246 0.409999 46.118 3.164 46.118 5.702V5.738H42.302C42.248 5.36 41.744 3.47 38.216 3.47C34.94 3.47 33.914 5.306 33.914 7.106V7.358C33.914 9.014 34.976 11.12 38.234 11.12C41.798 11.12 42.248 9.194 42.302 8.762H46.118V8.816C46.118 11.264 44.318 14.198 38.63 14.198ZM51.443 14V6.674H47.573V4.01H58.823V6.674H54.953V14H51.443ZM69.9075 9.014V8.96C69.9075 7.88 69.4035 6.422 67.2075 6.422H67.0275C64.9215 6.422 64.2555 7.808 64.2555 8.96V9.014C64.2555 10.112 64.9215 11.552 67.0275 11.552H67.2075C69.4035 11.552 69.9075 10.04 69.9075 9.014ZM60.7635 17.438V4.01H64.2375V5.288C64.6695 4.82 65.9835 3.812 68.2515 3.812H68.4855C72.3015 3.812 73.5435 6.422 73.5435 8.798V9.104C73.5435 11.282 72.2655 14.198 68.4675 14.198H68.2155C65.9295 14.198 64.7055 13.154 64.2735 12.722V17.438H60.7635ZM80.6135 12.002C82.6655 12.002 83.3675 10.706 83.3675 9.95V9.176C83.0615 9.302 82.1795 9.482 81.1715 9.644C79.4795 9.932 78.9395 10.166 78.9395 10.868V10.904C78.9395 11.534 79.3895 12.002 80.6135 12.002ZM83.4755 12.614C83.0435 13.136 81.9635 14.198 79.6235 14.198H79.3355C76.5455 14.198 75.3935 12.686 75.3935 11.03V10.958C75.3935 9.23 76.4915 8.168 79.8755 7.88L82.6115 7.646C83.1695 7.592 83.3675 7.412 83.3675 6.998C83.3675 6.53 83.2235 6.026 81.2795 6.026C79.4435 6.026 79.2635 6.746 79.2635 7.124H75.6635V7.088C75.6635 6.098 76.0595 3.776 80.9735 3.776H81.5315C86.4815 3.776 86.7875 5.81 86.7875 7.142V10.436C86.7875 11.066 86.9135 11.318 87.6155 11.318H87.9935V14H85.1495C84.1055 14 83.6195 13.262 83.4755 12.614ZM92.6813 14V6.674H88.8113V4.01H100.061V6.674H96.1913V14H92.6813ZM107.78 6.08C105.962 6.08 105.278 6.818 105.098 7.862H110.39C110.39 7.124 110.03 6.08 107.78 6.08ZM110.462 10.886H114.116C114.116 11.714 113.468 14.234 108.302 14.234H107.636C102.704 14.234 101.48 11.534 101.48 9.14V8.888C101.48 6.638 102.596 3.794 107.33 3.794H108.122C113.234 3.794 114.152 6.638 114.152 9.428V9.752H105.062C105.206 10.904 105.944 11.84 108.086 11.84C110.12 11.84 110.372 11.048 110.462 10.886ZM116.556 14V4.01H125.268V6.674H120.066V14H116.556ZM135.597 7.952L130.773 14H127.173V4.01H130.683V10.058L135.507 4.01H139.107V14H135.597V7.952ZM149.442 4.01H152.952V14H149.442V10.562C148.668 10.652 147.768 10.742 146.832 10.742C142.872 10.742 141.378 9.626 141.378 6.458V4.01H144.888V5.81C144.888 7.682 145.518 8.006 147.372 8.006C148.074 8.006 148.884 7.952 149.442 7.88V4.01ZM161.674 6.08C159.856 6.08 159.172 6.818 158.992 7.862H164.284C164.284 7.124 163.924 6.08 161.674 6.08ZM164.356 10.886H168.01C168.01 11.714 167.362 14.234 162.196 14.234H161.53C156.598 14.234 155.374 11.534 155.374 9.14V8.888C155.374 6.638 156.49 3.794 161.224 3.794H162.016C167.128 3.794 168.046 6.638 168.046 9.428V9.752H158.956C159.1 10.904 159.838 11.84 161.98 11.84C164.014 11.84 164.266 11.048 164.356 10.886ZM178.802 10.076H182.474C182.474 11.588 181.574 14.27 176.768 14.27H175.886C170.9 14.27 169.964 11.03 169.964 9.14V8.888C169.964 6.998 170.846 3.74 175.868 3.74H176.696C181.52 3.74 182.474 6.368 182.474 7.808V7.826H178.802C178.748 7.538 178.406 6.296 176.336 6.296H176.156C174.086 6.296 173.6 7.718 173.6 8.924V8.942C173.6 10.184 174.194 11.66 176.228 11.66H176.408C178.496 11.66 178.802 10.31 178.802 10.076ZM192.298 14L188.41 9.374V14H184.9V4.01H188.41V8.006L191.974 4.01H196.024L191.848 8.492L196.474 14H192.298ZM206.349 7.952L201.525 14H197.925V4.01H201.435V10.058L206.259 4.01H209.859V14H206.349V7.952ZM221.202 7.952L216.378 14H212.778V4.01H216.288V10.058L221.112 4.01H224.712V14H221.202V7.952ZM218.97 2.984H218.43C215.568 2.984 215.064 1.04 215.064 0.104V0.0499994H217.71C217.71 0.284 217.818 1.004 218.718 1.004C219.564 1.004 219.69 0.284 219.69 0.0499994H222.3V0.104C222.3 1.04 221.58 2.984 218.97 2.984ZM242.015 9.014V8.96C242.015 7.88 241.511 6.422 239.315 6.422H239.135C237.029 6.422 236.363 7.808 236.363 8.96V9.014C236.363 10.112 237.029 11.552 239.135 11.552H239.315C241.511 11.552 242.015 10.04 242.015 9.014ZM232.871 17.438V4.01H236.345V5.288C236.777 4.82 238.091 3.812 240.359 3.812H240.593C244.409 3.812 245.651 6.422 245.651 8.798V9.104C245.651 11.282 244.373 14.198 240.575 14.198H240.323C238.037 14.198 236.813 13.154 236.381 12.722V17.438H232.871ZM252.721 12.002C254.773 12.002 255.475 10.706 255.475 9.95V9.176C255.169 9.302 254.287 9.482 253.279 9.644C251.587 9.932 251.047 10.166 251.047 10.868V10.904C251.047 11.534 251.497 12.002 252.721 12.002ZM255.583 12.614C255.151 13.136 254.071 14.198 251.731 14.198H251.443C248.653 14.198 247.501 12.686 247.501 11.03V10.958C247.501 9.23 248.599 8.168 251.983 7.88L254.719 7.646C255.277 7.592 255.475 7.412 255.475 6.998C255.475 6.53 255.331 6.026 253.387 6.026C251.551 6.026 251.371 6.746 251.371 7.124H247.771V7.088C247.771 6.098 248.167 3.776 253.081 3.776H253.639C258.589 3.776 258.895 5.81 258.895 7.142V10.436C258.895 11.066 259.021 11.318 259.723 11.318H260.101V14H257.257C256.213 14 255.727 13.262 255.583 12.614ZM273.317 11.048V11.156C273.317 13.154 271.643 14.27 267.809 14.27H267.485C263.381 14.27 261.599 12.74 261.599 10.67V10.526H265.361C265.415 11.642 266.441 12.056 267.665 12.056C268.979 12.056 269.699 11.66 269.699 10.868V10.814C269.699 10.076 269.123 9.896 268.115 9.896H265.739V7.754H268.115C268.889 7.754 269.375 7.448 269.375 6.872V6.818C269.375 6.224 268.781 5.918 267.575 5.918C266.225 5.918 265.505 6.242 265.451 6.944H261.689V6.89C261.689 4.748 264.191 3.74 267.449 3.74H267.737C271.103 3.74 272.993 4.55 272.993 6.422V6.494C272.993 8.006 271.841 8.582 271.013 8.78C272.021 8.978 273.317 9.464 273.317 11.048ZM284.005 14H275.761V4.01H283.645C285.931 4.01 287.371 4.82 287.371 6.404V6.494C287.371 7.736 286.579 8.474 285.373 8.672C286.597 8.816 287.695 9.68 287.695 11.12V11.192C287.695 13.01 286.507 14 284.005 14ZM279.271 7.988H282.493C283.339 7.988 283.771 7.664 283.771 7.034V6.944C283.771 6.368 283.375 6.026 282.493 6.026H279.271V7.988ZM279.271 11.984H282.637C283.573 11.984 284.095 11.678 284.095 10.976V10.832C284.095 10.202 283.663 9.806 282.637 9.806H279.271V11.984ZM298.564 7.952L293.74 14H290.14V4.01H293.65V10.058L298.474 4.01H302.074V14H298.564V7.952ZM313.237 14H304.993V4.01H312.877C315.163 4.01 316.603 4.82 316.603 6.404V6.494C316.603 7.736 315.811 8.474 314.605 8.672C315.829 8.816 316.927 9.68 316.927 11.12V11.192C316.927 13.01 315.739 14 313.237 14ZM308.503 7.988H311.725C312.571 7.988 313.003 7.664 313.003 7.034V6.944C313.003 6.368 312.607 6.026 311.725 6.026H308.503V7.988ZM308.503 11.984H311.869C312.805 11.984 313.327 11.678 313.327 10.976V10.832C313.327 10.202 312.895 9.806 311.869 9.806H308.503V11.984ZM324 12.002C326.052 12.002 326.754 10.706 326.754 9.95V9.176C326.448 9.302 325.566 9.482 324.558 9.644C322.866 9.932 322.326 10.166 322.326 10.868V10.904C322.326 11.534 322.776 12.002 324 12.002ZM326.862 12.614C326.43 13.136 325.35 14.198 323.01 14.198H322.722C319.932 14.198 318.78 12.686 318.78 11.03V10.958C318.78 9.23 319.878 8.168 323.262 7.88L325.998 7.646C326.556 7.592 326.754 7.412 326.754 6.998C326.754 6.53 326.61 6.026 324.666 6.026C322.83 6.026 322.65 6.746 322.65 7.124H319.05V7.088C319.05 6.098 319.446 3.776 324.36 3.776H324.918C329.868 3.776 330.174 5.81 330.174 7.142V10.436C330.174 11.066 330.3 11.318 331.002 11.318H331.38V14H328.536C327.492 14 327.006 13.262 326.862 12.614ZM336.068 14V6.674H332.198V4.01H343.448V6.674H339.578V14H336.068ZM351.167 6.08C349.349 6.08 348.665 6.818 348.485 7.862H353.777C353.777 7.124 353.417 6.08 351.167 6.08ZM353.849 10.886H357.503C357.503 11.714 356.855 14.234 351.689 14.234H351.023C346.091 14.234 344.867 11.534 344.867 9.14V8.888C344.867 6.638 345.983 3.794 350.717 3.794H351.509C356.621 3.794 357.539 6.638 357.539 9.428V9.752H348.449C348.593 10.904 349.331 11.84 351.473 11.84C353.507 11.84 353.759 11.048 353.849 10.886ZM367.957 14V6.674H363.997C363.997 9.356 363.907 10.85 363.565 11.768C363.187 12.776 362.683 14 360.037 14H358.939V11.39H359.155C359.785 11.39 360.253 11.174 360.451 10.256C360.595 9.482 360.649 8.636 360.649 4.01H371.467V14H367.957ZM374.374 14V4.01H377.884V6.872H380.62C384.04 6.872 385.372 8.384 385.372 10.292V10.508C385.372 12.596 384.04 14 380.62 14H374.374ZM377.884 11.624H380.188C380.908 11.624 381.772 11.408 381.772 10.436V10.382C381.772 9.482 380.908 9.248 380.188 9.248H377.884V11.624Z" fill="url(#paint1_radial_2018_949)" style="mix-blend-mode:overlay"/>
<path d="M8.30925 14.198H7.55325C1.82925 14.198 0.785248 11.12 0.785248 9.608V9.446H4.74525C4.79925 9.95 5.10525 11.21 8.02125 11.21C10.9732 11.21 11.4412 10.436 11.4412 9.644C11.4412 8.852 11.1352 8.438 9.64125 8.438H5.21325V5.72H9.62325C11.0632 5.72 11.2612 5.288 11.2612 4.64C11.2612 3.92 10.8652 3.326 7.98525 3.326C5.12325 3.326 4.87125 4.28 4.81725 4.712H0.965248V4.514C0.965248 3.29 1.77525 0.446 7.30125 0.446H8.30925C13.8352 0.446 14.9512 2.3 14.9512 3.884V4.01C14.9512 5.522 14.0152 6.206 12.9532 6.494C14.1772 6.782 15.3652 7.664 15.3652 9.554V9.68C15.3652 11.822 14.0512 14.198 8.30925 14.198ZM21.8078 10.508V14H17.6138V10.508H21.8078ZM38.63 14.198H37.802C31.682 14.198 30.062 10.274 30.062 7.538V6.998C30.062 4.208 31.682 0.409999 37.802 0.409999H38.63C44.246 0.409999 46.118 3.164 46.118 5.702V5.738H42.302C42.248 5.36 41.744 3.47 38.216 3.47C34.94 3.47 33.914 5.306 33.914 7.106V7.358C33.914 9.014 34.976 11.12 38.234 11.12C41.798 11.12 42.248 9.194 42.302 8.762H46.118V8.816C46.118 11.264 44.318 14.198 38.63 14.198ZM51.443 14V6.674H47.573V4.01H58.823V6.674H54.953V14H51.443ZM69.9075 9.014V8.96C69.9075 7.88 69.4035 6.422 67.2075 6.422H67.0275C64.9215 6.422 64.2555 7.808 64.2555 8.96V9.014C64.2555 10.112 64.9215 11.552 67.0275 11.552H67.2075C69.4035 11.552 69.9075 10.04 69.9075 9.014ZM60.7635 17.438V4.01H64.2375V5.288C64.6695 4.82 65.9835 3.812 68.2515 3.812H68.4855C72.3015 3.812 73.5435 6.422 73.5435 8.798V9.104C73.5435 11.282 72.2655 14.198 68.4675 14.198H68.2155C65.9295 14.198 64.7055 13.154 64.2735 12.722V17.438H60.7635ZM80.6135 12.002C82.6655 12.002 83.3675 10.706 83.3675 9.95V9.176C83.0615 9.302 82.1795 9.482 81.1715 9.644C79.4795 9.932 78.9395 10.166 78.9395 10.868V10.904C78.9395 11.534 79.3895 12.002 80.6135 12.002ZM83.4755 12.614C83.0435 13.136 81.9635 14.198 79.6235 14.198H79.3355C76.5455 14.198 75.3935 12.686 75.3935 11.03V10.958C75.3935 9.23 76.4915 8.168 79.8755 7.88L82.6115 7.646C83.1695 7.592 83.3675 7.412 83.3675 6.998C83.3675 6.53 83.2235 6.026 81.2795 6.026C79.4435 6.026 79.2635 6.746 79.2635 7.124H75.6635V7.088C75.6635 6.098 76.0595 3.776 80.9735 3.776H81.5315C86.4815 3.776 86.7875 5.81 86.7875 7.142V10.436C86.7875 11.066 86.9135 11.318 87.6155 11.318H87.9935V14H85.1495C84.1055 14 83.6195 13.262 83.4755 12.614ZM92.6813 14V6.674H88.8113V4.01H100.061V6.674H96.1913V14H92.6813ZM107.78 6.08C105.962 6.08 105.278 6.818 105.098 7.862H110.39C110.39 7.124 110.03 6.08 107.78 6.08ZM110.462 10.886H114.116C114.116 11.714 113.468 14.234 108.302 14.234H107.636C102.704 14.234 101.48 11.534 101.48 9.14V8.888C101.48 6.638 102.596 3.794 107.33 3.794H108.122C113.234 3.794 114.152 6.638 114.152 9.428V9.752H105.062C105.206 10.904 105.944 11.84 108.086 11.84C110.12 11.84 110.372 11.048 110.462 10.886ZM116.556 14V4.01H125.268V6.674H120.066V14H116.556ZM135.597 7.952L130.773 14H127.173V4.01H130.683V10.058L135.507 4.01H139.107V14H135.597V7.952ZM149.442 4.01H152.952V14H149.442V10.562C148.668 10.652 147.768 10.742 146.832 10.742C142.872 10.742 141.378 9.626 141.378 6.458V4.01H144.888V5.81C144.888 7.682 145.518 8.006 147.372 8.006C148.074 8.006 148.884 7.952 149.442 7.88V4.01ZM161.674 6.08C159.856 6.08 159.172 6.818 158.992 7.862H164.284C164.284 7.124 163.924 6.08 161.674 6.08ZM164.356 10.886H168.01C168.01 11.714 167.362 14.234 162.196 14.234H161.53C156.598 14.234 155.374 11.534 155.374 9.14V8.888C155.374 6.638 156.49 3.794 161.224 3.794H162.016C167.128 3.794 168.046 6.638 168.046 9.428V9.752H158.956C159.1 10.904 159.838 11.84 161.98 11.84C164.014 11.84 164.266 11.048 164.356 10.886ZM178.802 10.076H182.474C182.474 11.588 181.574 14.27 176.768 14.27H175.886C170.9 14.27 169.964 11.03 169.964 9.14V8.888C169.964 6.998 170.846 3.74 175.868 3.74H176.696C181.52 3.74 182.474 6.368 182.474 7.808V7.826H178.802C178.748 7.538 178.406 6.296 176.336 6.296H176.156C174.086 6.296 173.6 7.718 173.6 8.924V8.942C173.6 10.184 174.194 11.66 176.228 11.66H176.408C178.496 11.66 178.802 10.31 178.802 10.076ZM192.298 14L188.41 9.374V14H184.9V4.01H188.41V8.006L191.974 4.01H196.024L191.848 8.492L196.474 14H192.298ZM206.349 7.952L201.525 14H197.925V4.01H201.435V10.058L206.259 4.01H209.859V14H206.349V7.952ZM221.202 7.952L216.378 14H212.778V4.01H216.288V10.058L221.112 4.01H224.712V14H221.202V7.952ZM218.97 2.984H218.43C215.568 2.984 215.064 1.04 215.064 0.104V0.0499994H217.71C217.71 0.284 217.818 1.004 218.718 1.004C219.564 1.004 219.69 0.284 219.69 0.0499994H222.3V0.104C222.3 1.04 221.58 2.984 218.97 2.984ZM242.015 9.014V8.96C242.015 7.88 241.511 6.422 239.315 6.422H239.135C237.029 6.422 236.363 7.808 236.363 8.96V9.014C236.363 10.112 237.029 11.552 239.135 11.552H239.315C241.511 11.552 242.015 10.04 242.015 9.014ZM232.871 17.438V4.01H236.345V5.288C236.777 4.82 238.091 3.812 240.359 3.812H240.593C244.409 3.812 245.651 6.422 245.651 8.798V9.104C245.651 11.282 244.373 14.198 240.575 14.198H240.323C238.037 14.198 236.813 13.154 236.381 12.722V17.438H232.871ZM252.721 12.002C254.773 12.002 255.475 10.706 255.475 9.95V9.176C255.169 9.302 254.287 9.482 253.279 9.644C251.587 9.932 251.047 10.166 251.047 10.868V10.904C251.047 11.534 251.497 12.002 252.721 12.002ZM255.583 12.614C255.151 13.136 254.071 14.198 251.731 14.198H251.443C248.653 14.198 247.501 12.686 247.501 11.03V10.958C247.501 9.23 248.599 8.168 251.983 7.88L254.719 7.646C255.277 7.592 255.475 7.412 255.475 6.998C255.475 6.53 255.331 6.026 253.387 6.026C251.551 6.026 251.371 6.746 251.371 7.124H247.771V7.088C247.771 6.098 248.167 3.776 253.081 3.776H253.639C258.589 3.776 258.895 5.81 258.895 7.142V10.436C258.895 11.066 259.021 11.318 259.723 11.318H260.101V14H257.257C256.213 14 255.727 13.262 255.583 12.614ZM273.317 11.048V11.156C273.317 13.154 271.643 14.27 267.809 14.27H267.485C263.381 14.27 261.599 12.74 261.599 10.67V10.526H265.361C265.415 11.642 266.441 12.056 267.665 12.056C268.979 12.056 269.699 11.66 269.699 10.868V10.814C269.699 10.076 269.123 9.896 268.115 9.896H265.739V7.754H268.115C268.889 7.754 269.375 7.448 269.375 6.872V6.818C269.375 6.224 268.781 5.918 267.575 5.918C266.225 5.918 265.505 6.242 265.451 6.944H261.689V6.89C261.689 4.748 264.191 3.74 267.449 3.74H267.737C271.103 3.74 272.993 4.55 272.993 6.422V6.494C272.993 8.006 271.841 8.582 271.013 8.78C272.021 8.978 273.317 9.464 273.317 11.048ZM284.005 14H275.761V4.01H283.645C285.931 4.01 287.371 4.82 287.371 6.404V6.494C287.371 7.736 286.579 8.474 285.373 8.672C286.597 8.816 287.695 9.68 287.695 11.12V11.192C287.695 13.01 286.507 14 284.005 14ZM279.271 7.988H282.493C283.339 7.988 283.771 7.664 283.771 7.034V6.944C283.771 6.368 283.375 6.026 282.493 6.026H279.271V7.988ZM279.271 11.984H282.637C283.573 11.984 284.095 11.678 284.095 10.976V10.832C284.095 10.202 283.663 9.806 282.637 9.806H279.271V11.984ZM298.564 7.952L293.74 14H290.14V4.01H293.65V10.058L298.474 4.01H302.074V14H298.564V7.952ZM313.237 14H304.993V4.01H312.877C315.163 4.01 316.603 4.82 316.603 6.404V6.494C316.603 7.736 315.811 8.474 314.605 8.672C315.829 8.816 316.927 9.68 316.927 11.12V11.192C316.927 13.01 315.739 14 313.237 14ZM308.503 7.988H311.725C312.571 7.988 313.003 7.664 313.003 7.034V6.944C313.003 6.368 312.607 6.026 311.725 6.026H308.503V7.988ZM308.503 11.984H311.869C312.805 11.984 313.327 11.678 313.327 10.976V10.832C313.327 10.202 312.895 9.806 311.869 9.806H308.503V11.984ZM324 12.002C326.052 12.002 326.754 10.706 326.754 9.95V9.176C326.448 9.302 325.566 9.482 324.558 9.644C322.866 9.932 322.326 10.166 322.326 10.868V10.904C322.326 11.534 322.776 12.002 324 12.002ZM326.862 12.614C326.43 13.136 325.35 14.198 323.01 14.198H322.722C319.932 14.198 318.78 12.686 318.78 11.03V10.958C318.78 9.23 319.878 8.168 323.262 7.88L325.998 7.646C326.556 7.592 326.754 7.412 326.754 6.998C326.754 6.53 326.61 6.026 324.666 6.026C322.83 6.026 322.65 6.746 322.65 7.124H319.05V7.088C319.05 6.098 319.446 3.776 324.36 3.776H324.918C329.868 3.776 330.174 5.81 330.174 7.142V10.436C330.174 11.066 330.3 11.318 331.002 11.318H331.38V14H328.536C327.492 14 327.006 13.262 326.862 12.614ZM336.068 14V6.674H332.198V4.01H343.448V6.674H339.578V14H336.068ZM351.167 6.08C349.349 6.08 348.665 6.818 348.485 7.862H353.777C353.777 7.124 353.417 6.08 351.167 6.08ZM353.849 10.886H357.503C357.503 11.714 356.855 14.234 351.689 14.234H351.023C346.091 14.234 344.867 11.534 344.867 9.14V8.888C344.867 6.638 345.983 3.794 350.717 3.794H351.509C356.621 3.794 357.539 6.638 357.539 9.428V9.752H348.449C348.593 10.904 349.331 11.84 351.473 11.84C353.507 11.84 353.759 11.048 353.849 10.886ZM367.957 14V6.674H363.997C363.997 9.356 363.907 10.85 363.565 11.768C363.187 12.776 362.683 14 360.037 14H358.939V11.39H359.155C359.785 11.39 360.253 11.174 360.451 10.256C360.595 9.482 360.649 8.636 360.649 4.01H371.467V14H367.957ZM374.374 14V4.01H377.884V6.872H380.62C384.04 6.872 385.372 8.384 385.372 10.292V10.508C385.372 12.596 384.04 14 380.62 14H374.374ZM377.884 11.624H380.188C380.908 11.624 381.772 11.408 381.772 10.436V10.382C381.772 9.482 380.908 9.248 380.188 9.248H377.884V11.624Z" fill="url(#paint2_radial_2018_949)"/>
<path d="M8.30925 14.198H7.55325C1.82925 14.198 0.785248 11.12 0.785248 9.608V9.446H4.74525C4.79925 9.95 5.10525 11.21 8.02125 11.21C10.9732 11.21 11.4412 10.436 11.4412 9.644C11.4412 8.852 11.1352 8.438 9.64125 8.438H5.21325V5.72H9.62325C11.0632 5.72 11.2612 5.288 11.2612 4.64C11.2612 3.92 10.8652 3.326 7.98525 3.326C5.12325 3.326 4.87125 4.28 4.81725 4.712H0.965248V4.514C0.965248 3.29 1.77525 0.446 7.30125 0.446H8.30925C13.8352 0.446 14.9512 2.3 14.9512 3.884V4.01C14.9512 5.522 14.0152 6.206 12.9532 6.494C14.1772 6.782 15.3652 7.664 15.3652 9.554V9.68C15.3652 11.822 14.0512 14.198 8.30925 14.198ZM21.8078 10.508V14H17.6138V10.508H21.8078ZM38.63 14.198H37.802C31.682 14.198 30.062 10.274 30.062 7.538V6.998C30.062 4.208 31.682 0.409999 37.802 0.409999H38.63C44.246 0.409999 46.118 3.164 46.118 5.702V5.738H42.302C42.248 5.36 41.744 3.47 38.216 3.47C34.94 3.47 33.914 5.306 33.914 7.106V7.358C33.914 9.014 34.976 11.12 38.234 11.12C41.798 11.12 42.248 9.194 42.302 8.762H46.118V8.816C46.118 11.264 44.318 14.198 38.63 14.198ZM51.443 14V6.674H47.573V4.01H58.823V6.674H54.953V14H51.443ZM69.9075 9.014V8.96C69.9075 7.88 69.4035 6.422 67.2075 6.422H67.0275C64.9215 6.422 64.2555 7.808 64.2555 8.96V9.014C64.2555 10.112 64.9215 11.552 67.0275 11.552H67.2075C69.4035 11.552 69.9075 10.04 69.9075 9.014ZM60.7635 17.438V4.01H64.2375V5.288C64.6695 4.82 65.9835 3.812 68.2515 3.812H68.4855C72.3015 3.812 73.5435 6.422 73.5435 8.798V9.104C73.5435 11.282 72.2655 14.198 68.4675 14.198H68.2155C65.9295 14.198 64.7055 13.154 64.2735 12.722V17.438H60.7635ZM80.6135 12.002C82.6655 12.002 83.3675 10.706 83.3675 9.95V9.176C83.0615 9.302 82.1795 9.482 81.1715 9.644C79.4795 9.932 78.9395 10.166 78.9395 10.868V10.904C78.9395 11.534 79.3895 12.002 80.6135 12.002ZM83.4755 12.614C83.0435 13.136 81.9635 14.198 79.6235 14.198H79.3355C76.5455 14.198 75.3935 12.686 75.3935 11.03V10.958C75.3935 9.23 76.4915 8.168 79.8755 7.88L82.6115 7.646C83.1695 7.592 83.3675 7.412 83.3675 6.998C83.3675 6.53 83.2235 6.026 81.2795 6.026C79.4435 6.026 79.2635 6.746 79.2635 7.124H75.6635V7.088C75.6635 6.098 76.0595 3.776 80.9735 3.776H81.5315C86.4815 3.776 86.7875 5.81 86.7875 7.142V10.436C86.7875 11.066 86.9135 11.318 87.6155 11.318H87.9935V14H85.1495C84.1055 14 83.6195 13.262 83.4755 12.614ZM92.6813 14V6.674H88.8113V4.01H100.061V6.674H96.1913V14H92.6813ZM107.78 6.08C105.962 6.08 105.278 6.818 105.098 7.862H110.39C110.39 7.124 110.03 6.08 107.78 6.08ZM110.462 10.886H114.116C114.116 11.714 113.468 14.234 108.302 14.234H107.636C102.704 14.234 101.48 11.534 101.48 9.14V8.888C101.48 6.638 102.596 3.794 107.33 3.794H108.122C113.234 3.794 114.152 6.638 114.152 9.428V9.752H105.062C105.206 10.904 105.944 11.84 108.086 11.84C110.12 11.84 110.372 11.048 110.462 10.886ZM116.556 14V4.01H125.268V6.674H120.066V14H116.556ZM135.597 7.952L130.773 14H127.173V4.01H130.683V10.058L135.507 4.01H139.107V14H135.597V7.952ZM149.442 4.01H152.952V14H149.442V10.562C148.668 10.652 147.768 10.742 146.832 10.742C142.872 10.742 141.378 9.626 141.378 6.458V4.01H144.888V5.81C144.888 7.682 145.518 8.006 147.372 8.006C148.074 8.006 148.884 7.952 149.442 7.88V4.01ZM161.674 6.08C159.856 6.08 159.172 6.818 158.992 7.862H164.284C164.284 7.124 163.924 6.08 161.674 6.08ZM164.356 10.886H168.01C168.01 11.714 167.362 14.234 162.196 14.234H161.53C156.598 14.234 155.374 11.534 155.374 9.14V8.888C155.374 6.638 156.49 3.794 161.224 3.794H162.016C167.128 3.794 168.046 6.638 168.046 9.428V9.752H158.956C159.1 10.904 159.838 11.84 161.98 11.84C164.014 11.84 164.266 11.048 164.356 10.886ZM178.802 10.076H182.474C182.474 11.588 181.574 14.27 176.768 14.27H175.886C170.9 14.27 169.964 11.03 169.964 9.14V8.888C169.964 6.998 170.846 3.74 175.868 3.74H176.696C181.52 3.74 182.474 6.368 182.474 7.808V7.826H178.802C178.748 7.538 178.406 6.296 176.336 6.296H176.156C174.086 6.296 173.6 7.718 173.6 8.924V8.942C173.6 10.184 174.194 11.66 176.228 11.66H176.408C178.496 11.66 178.802 10.31 178.802 10.076ZM192.298 14L188.41 9.374V14H184.9V4.01H188.41V8.006L191.974 4.01H196.024L191.848 8.492L196.474 14H192.298ZM206.349 7.952L201.525 14H197.925V4.01H201.435V10.058L206.259 4.01H209.859V14H206.349V7.952ZM221.202 7.952L216.378 14H212.778V4.01H216.288V10.058L221.112 4.01H224.712V14H221.202V7.952ZM218.97 2.984H218.43C215.568 2.984 215.064 1.04 215.064 0.104V0.0499994H217.71C217.71 0.284 217.818 1.004 218.718 1.004C219.564 1.004 219.69 0.284 219.69 0.0499994H222.3V0.104C222.3 1.04 221.58 2.984 218.97 2.984ZM242.015 9.014V8.96C242.015 7.88 241.511 6.422 239.315 6.422H239.135C237.029 6.422 236.363 7.808 236.363 8.96V9.014C236.363 10.112 237.029 11.552 239.135 11.552H239.315C241.511 11.552 242.015 10.04 242.015 9.014ZM232.871 17.438V4.01H236.345V5.288C236.777 4.82 238.091 3.812 240.359 3.812H240.593C244.409 3.812 245.651 6.422 245.651 8.798V9.104C245.651 11.282 244.373 14.198 240.575 14.198H240.323C238.037 14.198 236.813 13.154 236.381 12.722V17.438H232.871ZM252.721 12.002C254.773 12.002 255.475 10.706 255.475 9.95V9.176C255.169 9.302 254.287 9.482 253.279 9.644C251.587 9.932 251.047 10.166 251.047 10.868V10.904C251.047 11.534 251.497 12.002 252.721 12.002ZM255.583 12.614C255.151 13.136 254.071 14.198 251.731 14.198H251.443C248.653 14.198 247.501 12.686 247.501 11.03V10.958C247.501 9.23 248.599 8.168 251.983 7.88L254.719 7.646C255.277 7.592 255.475 7.412 255.475 6.998C255.475 6.53 255.331 6.026 253.387 6.026C251.551 6.026 251.371 6.746 251.371 7.124H247.771V7.088C247.771 6.098 248.167 3.776 253.081 3.776H253.639C258.589 3.776 258.895 5.81 258.895 7.142V10.436C258.895 11.066 259.021 11.318 259.723 11.318H260.101V14H257.257C256.213 14 255.727 13.262 255.583 12.614ZM273.317 11.048V11.156C273.317 13.154 271.643 14.27 267.809 14.27H267.485C263.381 14.27 261.599 12.74 261.599 10.67V10.526H265.361C265.415 11.642 266.441 12.056 267.665 12.056C268.979 12.056 269.699 11.66 269.699 10.868V10.814C269.699 10.076 269.123 9.896 268.115 9.896H265.739V7.754H268.115C268.889 7.754 269.375 7.448 269.375 6.872V6.818C269.375 6.224 268.781 5.918 267.575 5.918C266.225 5.918 265.505 6.242 265.451 6.944H261.689V6.89C261.689 4.748 264.191 3.74 267.449 3.74H267.737C271.103 3.74 272.993 4.55 272.993 6.422V6.494C272.993 8.006 271.841 8.582 271.013 8.78C272.021 8.978 273.317 9.464 273.317 11.048ZM284.005 14H275.761V4.01H283.645C285.931 4.01 287.371 4.82 287.371 6.404V6.494C287.371 7.736 286.579 8.474 285.373 8.672C286.597 8.816 287.695 9.68 287.695 11.12V11.192C287.695 13.01 286.507 14 284.005 14ZM279.271 7.988H282.493C283.339 7.988 283.771 7.664 283.771 7.034V6.944C283.771 6.368 283.375 6.026 282.493 6.026H279.271V7.988ZM279.271 11.984H282.637C283.573 11.984 284.095 11.678 284.095 10.976V10.832C284.095 10.202 283.663 9.806 282.637 9.806H279.271V11.984ZM298.564 7.952L293.74 14H290.14V4.01H293.65V10.058L298.474 4.01H302.074V14H298.564V7.952ZM313.237 14H304.993V4.01H312.877C315.163 4.01 316.603 4.82 316.603 6.404V6.494C316.603 7.736 315.811 8.474 314.605 8.672C315.829 8.816 316.927 9.68 316.927 11.12V11.192C316.927 13.01 315.739 14 313.237 14ZM308.503 7.988H311.725C312.571 7.988 313.003 7.664 313.003 7.034V6.944C313.003 6.368 312.607 6.026 311.725 6.026H308.503V7.988ZM308.503 11.984H311.869C312.805 11.984 313.327 11.678 313.327 10.976V10.832C313.327 10.202 312.895 9.806 311.869 9.806H308.503V11.984ZM324 12.002C326.052 12.002 326.754 10.706 326.754 9.95V9.176C326.448 9.302 325.566 9.482 324.558 9.644C322.866 9.932 322.326 10.166 322.326 10.868V10.904C322.326 11.534 322.776 12.002 324 12.002ZM326.862 12.614C326.43 13.136 325.35 14.198 323.01 14.198H322.722C319.932 14.198 318.78 12.686 318.78 11.03V10.958C318.78 9.23 319.878 8.168 323.262 7.88L325.998 7.646C326.556 7.592 326.754 7.412 326.754 6.998C326.754 6.53 326.61 6.026 324.666 6.026C322.83 6.026 322.65 6.746 322.65 7.124H319.05V7.088C319.05 6.098 319.446 3.776 324.36 3.776H324.918C329.868 3.776 330.174 5.81 330.174 7.142V10.436C330.174 11.066 330.3 11.318 331.002 11.318H331.38V14H328.536C327.492 14 327.006 13.262 326.862 12.614ZM336.068 14V6.674H332.198V4.01H343.448V6.674H339.578V14H336.068ZM351.167 6.08C349.349 6.08 348.665 6.818 348.485 7.862H353.777C353.777 7.124 353.417 6.08 351.167 6.08ZM353.849 10.886H357.503C357.503 11.714 356.855 14.234 351.689 14.234H351.023C346.091 14.234 344.867 11.534 344.867 9.14V8.888C344.867 6.638 345.983 3.794 350.717 3.794H351.509C356.621 3.794 357.539 6.638 357.539 9.428V9.752H348.449C348.593 10.904 349.331 11.84 351.473 11.84C353.507 11.84 353.759 11.048 353.849 10.886ZM367.957 14V6.674H363.997C363.997 9.356 363.907 10.85 363.565 11.768C363.187 12.776 362.683 14 360.037 14H358.939V11.39H359.155C359.785 11.39 360.253 11.174 360.451 10.256C360.595 9.482 360.649 8.636 360.649 4.01H371.467V14H367.957ZM374.374 14V4.01H377.884V6.872H380.62C384.04 6.872 385.372 8.384 385.372 10.292V10.508C385.372 12.596 384.04 14 380.62 14H374.374ZM377.884 11.624H380.188C380.908 11.624 381.772 11.408 381.772 10.436V10.382C381.772 9.482 380.908 9.248 380.188 9.248H377.884V11.624Z" fill="#C1A875" style="mix-blend-mode:color"/>
<defs>
<linearGradient id="paint0_linear_2018_949" x1="2" y1="6" x2="386" y2="6.00004" gradientUnits="userSpaceOnUse">
<stop stop-color="#576167"/>
<stop offset="0.191294" stop-color="#9EA1A2"/>
<stop offset="0.396166" stop-color="#848989"/>
<stop offset="0.62055" stop-color="#576167"/>
<stop offset="0.830299" stop-color="#757A7C"/>
<stop offset="1" stop-color="#576167"/>
</linearGradient>
<radialGradient id="paint1_radial_2018_949" cx="0" cy="0" r="1" gradientUnits="userSpaceOnUse" gradientTransform="translate(206.499 -3.20225) rotate(90) scale(17.8315 290.508)">
<stop stop-color="white"/>
<stop offset="1" stop-color="white" stop-opacity="0"/>
</radialGradient>
<radialGradient id="paint2_radial_2018_949" cx="0" cy="0" r="1" gradientUnits="userSpaceOnUse" gradientTransform="translate(228.22 23.6629) rotate(-88.6218) scale(25.558 415.3)">
<stop stop-color="white"/>
<stop offset="1" stop-color="white" stop-opacity="0"/>
</radialGradient>
</defs>
</svg>
