<svg width="317" height="18" viewBox="0 0 317 18" fill="none" xmlns="http://www.w3.org/2000/svg">
<path d="M0.821248 11.084V8.726L8.05725 0.518H12.9712V8.204H15.7432V11.084H12.9712V14H9.29925V11.084H0.821248ZM9.29925 8.204V3.056L4.74525 8.204H9.29925ZM21.8078 10.508V14H17.6138V10.508H21.8078ZM38.63 14.198H37.802C31.682 14.198 30.062 10.274 30.062 7.538V6.998C30.062 4.208 31.682 0.409999 37.802 0.409999H38.63C44.246 0.409999 46.118 3.164 46.118 5.702V5.738H42.302C42.248 5.36 41.744 3.47 38.216 3.47C34.94 3.47 33.914 5.306 33.914 7.106V7.358C33.914 9.014 34.976 11.12 38.234 11.12C41.798 11.12 42.248 9.194 42.302 8.762H46.118V8.816C46.118 11.264 44.318 14.198 38.63 14.198ZM54.845 14.27H54.287C48.905 14.27 48.077 10.994 48.077 9.176V8.924C48.077 7.124 48.905 3.74 54.269 3.74H54.863C60.407 3.74 61.055 7.142 61.055 8.906V9.194C61.055 10.994 60.407 14.27 54.845 14.27ZM54.467 11.642H54.665C56.879 11.642 57.437 10.058 57.437 8.96C57.437 7.826 56.879 6.314 54.665 6.314H54.467C52.163 6.314 51.695 7.826 51.695 8.96C51.695 10.058 52.163 11.642 54.467 11.642ZM76.8257 11.336V16.124H73.4957V14H63.4697V4.01H66.9797V11.336H71.5157V4.01H75.0257V11.336H76.8257ZM87.3449 7.952L82.5209 14H78.9209V4.01H82.4309V10.058L87.2549 4.01H90.8549V14H87.3449V7.952ZM98.4904 12.002C100.542 12.002 101.244 10.706 101.244 9.95V9.176C100.938 9.302 100.056 9.482 99.0484 9.644C97.3564 9.932 96.8164 10.166 96.8164 10.868V10.904C96.8164 11.534 97.2664 12.002 98.4904 12.002ZM101.352 12.614C100.92 13.136 99.8404 14.198 97.5004 14.198H97.2124C94.4224 14.198 93.2704 12.686 93.2704 11.03V10.958C93.2704 9.23 94.3684 8.168 97.7524 7.88L100.488 7.646C101.046 7.592 101.244 7.412 101.244 6.998C101.244 6.53 101.1 6.026 99.1564 6.026C97.3204 6.026 97.1404 6.746 97.1404 7.124H93.5404V7.088C93.5404 6.098 93.9364 3.776 98.8504 3.776H99.4084C104.358 3.776 104.664 5.81 104.664 7.142V10.436C104.664 11.066 104.79 11.318 105.492 11.318H105.87V14H103.026C101.982 14 101.496 13.262 101.352 12.614ZM116.15 14V6.674H112.19C112.19 9.356 112.1 10.85 111.758 11.768C111.38 12.776 110.876 14 108.23 14H107.132V11.39H107.348C107.978 11.39 108.446 11.174 108.644 10.256C108.788 9.482 108.842 8.636 108.842 4.01H119.66V14H116.15ZM122.567 14V4.01H126.077V6.872H128.813C132.233 6.872 133.565 8.384 133.565 10.292V10.508C133.565 12.596 132.233 14 128.813 14H122.567ZM126.077 11.624H128.381C129.101 11.624 129.965 11.408 129.965 10.436V10.382C129.965 9.482 129.101 9.248 128.381 9.248H126.077V11.624ZM139.156 14H135.646V4.01H139.156V7.646H144.052V4.01H147.562V14H144.052V10.31H139.156V14ZM150.481 14V4.01H153.991V6.872H156.727C160.147 6.872 161.479 8.384 161.479 10.292V10.508C161.479 12.596 160.147 14 156.727 14H150.481ZM153.991 11.624H156.295C157.015 11.624 157.879 11.408 157.879 10.436V10.382C157.879 9.482 157.015 9.248 156.295 9.248H153.991V11.624ZM166.267 4.01V14H162.757V4.01H166.267ZM177.609 7.952L172.785 14H169.185V4.01H172.695V10.058L177.519 4.01H181.119V14H177.609V7.952ZM175.377 2.984H174.837C171.975 2.984 171.471 1.04 171.471 0.104V0.0499994H174.117C174.117 0.284 174.225 1.004 175.125 1.004C175.971 1.004 176.097 0.284 176.097 0.0499994H178.707V0.104C178.707 1.04 177.987 2.984 175.377 2.984ZM197.665 7.952L192.841 14H189.241V4.01H192.751V10.058L197.575 4.01H201.175V14H197.665V7.952ZM207.605 14H204.095V4.01H207.605V7.646H212.501V4.01H216.011V14H212.501V10.31H207.605V14ZM222.441 14H218.931V4.01H222.441V7.646H227.337V4.01H230.847V14H227.337V10.31H222.441V14ZM240.031 14.27H239.473C234.091 14.27 233.263 10.994 233.263 9.176V8.924C233.263 7.124 234.091 3.74 239.455 3.74H240.049C245.593 3.74 246.241 7.142 246.241 8.906V9.194C246.241 10.994 245.593 14.27 240.031 14.27ZM239.653 11.642H239.851C242.065 11.642 242.623 10.058 242.623 8.96C242.623 7.826 242.065 6.314 239.851 6.314H239.653C237.349 6.314 236.881 7.826 236.881 8.96C236.881 10.058 237.349 11.642 239.653 11.642ZM256.899 14H248.655V4.01H256.539C258.825 4.01 260.265 4.82 260.265 6.404V6.494C260.265 7.736 259.473 8.474 258.267 8.672C259.491 8.816 260.589 9.68 260.589 11.12V11.192C260.589 13.01 259.401 14 256.899 14ZM252.165 7.988H255.387C256.233 7.988 256.665 7.664 256.665 7.034V6.944C256.665 6.368 256.269 6.026 255.387 6.026H252.165V7.988ZM252.165 11.984H255.531C256.467 11.984 256.989 11.678 256.989 10.976V10.832C256.989 10.202 256.557 9.806 255.531 9.806H252.165V11.984ZM267.662 12.002C269.714 12.002 270.416 10.706 270.416 9.95V9.176C270.11 9.302 269.228 9.482 268.22 9.644C266.528 9.932 265.988 10.166 265.988 10.868V10.904C265.988 11.534 266.438 12.002 267.662 12.002ZM270.524 12.614C270.092 13.136 269.012 14.198 266.672 14.198H266.384C263.594 14.198 262.442 12.686 262.442 11.03V10.958C262.442 9.23 263.54 8.168 266.924 7.88L269.66 7.646C270.218 7.592 270.416 7.412 270.416 6.998C270.416 6.53 270.272 6.026 268.328 6.026C266.492 6.026 266.312 6.746 266.312 7.124H262.712V7.088C262.712 6.098 263.108 3.776 268.022 3.776H268.58C273.53 3.776 273.836 5.81 273.836 7.142V10.436C273.836 11.066 273.962 11.318 274.664 11.318H275.042V14H272.198C271.154 14 270.668 13.262 270.524 12.614ZM279.73 14V6.674H275.86V4.01H287.11V6.674H283.24V14H279.73ZM295.279 14.27H294.721C289.339 14.27 288.511 10.994 288.511 9.176V8.924C288.511 7.124 289.339 3.74 294.703 3.74H295.297C300.841 3.74 301.489 7.142 301.489 8.906V9.194C301.489 10.994 300.841 14.27 295.279 14.27ZM294.901 11.642H295.099C297.313 11.642 297.871 10.058 297.871 8.96C297.871 7.826 297.313 6.314 295.099 6.314H294.901C292.597 6.314 292.129 7.826 292.129 8.96C292.129 10.058 292.597 11.642 294.901 11.642ZM313.083 9.014V8.96C313.083 7.88 312.579 6.422 310.383 6.422H310.203C308.097 6.422 307.431 7.808 307.431 8.96V9.014C307.431 10.112 308.097 11.552 310.203 11.552H310.383C312.579 11.552 313.083 10.04 313.083 9.014ZM303.939 17.438V4.01H307.413V5.288C307.845 4.82 309.159 3.812 311.427 3.812H311.661C315.477 3.812 316.719 6.422 316.719 8.798V9.104C316.719 11.282 315.441 14.198 311.643 14.198H311.391C309.105 14.198 307.881 13.154 307.449 12.722V17.438H303.939Z" fill="url(#paint0_linear_2018_956)"/>
<path d="M0.821248 11.084V8.726L8.05725 0.518H12.9712V8.204H15.7432V11.084H12.9712V14H9.29925V11.084H0.821248ZM9.29925 8.204V3.056L4.74525 8.204H9.29925ZM21.8078 10.508V14H17.6138V10.508H21.8078ZM38.63 14.198H37.802C31.682 14.198 30.062 10.274 30.062 7.538V6.998C30.062 4.208 31.682 0.409999 37.802 0.409999H38.63C44.246 0.409999 46.118 3.164 46.118 5.702V5.738H42.302C42.248 5.36 41.744 3.47 38.216 3.47C34.94 3.47 33.914 5.306 33.914 7.106V7.358C33.914 9.014 34.976 11.12 38.234 11.12C41.798 11.12 42.248 9.194 42.302 8.762H46.118V8.816C46.118 11.264 44.318 14.198 38.63 14.198ZM54.845 14.27H54.287C48.905 14.27 48.077 10.994 48.077 9.176V8.924C48.077 7.124 48.905 3.74 54.269 3.74H54.863C60.407 3.74 61.055 7.142 61.055 8.906V9.194C61.055 10.994 60.407 14.27 54.845 14.27ZM54.467 11.642H54.665C56.879 11.642 57.437 10.058 57.437 8.96C57.437 7.826 56.879 6.314 54.665 6.314H54.467C52.163 6.314 51.695 7.826 51.695 8.96C51.695 10.058 52.163 11.642 54.467 11.642ZM76.8257 11.336V16.124H73.4957V14H63.4697V4.01H66.9797V11.336H71.5157V4.01H75.0257V11.336H76.8257ZM87.3449 7.952L82.5209 14H78.9209V4.01H82.4309V10.058L87.2549 4.01H90.8549V14H87.3449V7.952ZM98.4904 12.002C100.542 12.002 101.244 10.706 101.244 9.95V9.176C100.938 9.302 100.056 9.482 99.0484 9.644C97.3564 9.932 96.8164 10.166 96.8164 10.868V10.904C96.8164 11.534 97.2664 12.002 98.4904 12.002ZM101.352 12.614C100.92 13.136 99.8404 14.198 97.5004 14.198H97.2124C94.4224 14.198 93.2704 12.686 93.2704 11.03V10.958C93.2704 9.23 94.3684 8.168 97.7524 7.88L100.488 7.646C101.046 7.592 101.244 7.412 101.244 6.998C101.244 6.53 101.1 6.026 99.1564 6.026C97.3204 6.026 97.1404 6.746 97.1404 7.124H93.5404V7.088C93.5404 6.098 93.9364 3.776 98.8504 3.776H99.4084C104.358 3.776 104.664 5.81 104.664 7.142V10.436C104.664 11.066 104.79 11.318 105.492 11.318H105.87V14H103.026C101.982 14 101.496 13.262 101.352 12.614ZM116.15 14V6.674H112.19C112.19 9.356 112.1 10.85 111.758 11.768C111.38 12.776 110.876 14 108.23 14H107.132V11.39H107.348C107.978 11.39 108.446 11.174 108.644 10.256C108.788 9.482 108.842 8.636 108.842 4.01H119.66V14H116.15ZM122.567 14V4.01H126.077V6.872H128.813C132.233 6.872 133.565 8.384 133.565 10.292V10.508C133.565 12.596 132.233 14 128.813 14H122.567ZM126.077 11.624H128.381C129.101 11.624 129.965 11.408 129.965 10.436V10.382C129.965 9.482 129.101 9.248 128.381 9.248H126.077V11.624ZM139.156 14H135.646V4.01H139.156V7.646H144.052V4.01H147.562V14H144.052V10.31H139.156V14ZM150.481 14V4.01H153.991V6.872H156.727C160.147 6.872 161.479 8.384 161.479 10.292V10.508C161.479 12.596 160.147 14 156.727 14H150.481ZM153.991 11.624H156.295C157.015 11.624 157.879 11.408 157.879 10.436V10.382C157.879 9.482 157.015 9.248 156.295 9.248H153.991V11.624ZM166.267 4.01V14H162.757V4.01H166.267ZM177.609 7.952L172.785 14H169.185V4.01H172.695V10.058L177.519 4.01H181.119V14H177.609V7.952ZM175.377 2.984H174.837C171.975 2.984 171.471 1.04 171.471 0.104V0.0499994H174.117C174.117 0.284 174.225 1.004 175.125 1.004C175.971 1.004 176.097 0.284 176.097 0.0499994H178.707V0.104C178.707 1.04 177.987 2.984 175.377 2.984ZM197.665 7.952L192.841 14H189.241V4.01H192.751V10.058L197.575 4.01H201.175V14H197.665V7.952ZM207.605 14H204.095V4.01H207.605V7.646H212.501V4.01H216.011V14H212.501V10.31H207.605V14ZM222.441 14H218.931V4.01H222.441V7.646H227.337V4.01H230.847V14H227.337V10.31H222.441V14ZM240.031 14.27H239.473C234.091 14.27 233.263 10.994 233.263 9.176V8.924C233.263 7.124 234.091 3.74 239.455 3.74H240.049C245.593 3.74 246.241 7.142 246.241 8.906V9.194C246.241 10.994 245.593 14.27 240.031 14.27ZM239.653 11.642H239.851C242.065 11.642 242.623 10.058 242.623 8.96C242.623 7.826 242.065 6.314 239.851 6.314H239.653C237.349 6.314 236.881 7.826 236.881 8.96C236.881 10.058 237.349 11.642 239.653 11.642ZM256.899 14H248.655V4.01H256.539C258.825 4.01 260.265 4.82 260.265 6.404V6.494C260.265 7.736 259.473 8.474 258.267 8.672C259.491 8.816 260.589 9.68 260.589 11.12V11.192C260.589 13.01 259.401 14 256.899 14ZM252.165 7.988H255.387C256.233 7.988 256.665 7.664 256.665 7.034V6.944C256.665 6.368 256.269 6.026 255.387 6.026H252.165V7.988ZM252.165 11.984H255.531C256.467 11.984 256.989 11.678 256.989 10.976V10.832C256.989 10.202 256.557 9.806 255.531 9.806H252.165V11.984ZM267.662 12.002C269.714 12.002 270.416 10.706 270.416 9.95V9.176C270.11 9.302 269.228 9.482 268.22 9.644C266.528 9.932 265.988 10.166 265.988 10.868V10.904C265.988 11.534 266.438 12.002 267.662 12.002ZM270.524 12.614C270.092 13.136 269.012 14.198 266.672 14.198H266.384C263.594 14.198 262.442 12.686 262.442 11.03V10.958C262.442 9.23 263.54 8.168 266.924 7.88L269.66 7.646C270.218 7.592 270.416 7.412 270.416 6.998C270.416 6.53 270.272 6.026 268.328 6.026C266.492 6.026 266.312 6.746 266.312 7.124H262.712V7.088C262.712 6.098 263.108 3.776 268.022 3.776H268.58C273.53 3.776 273.836 5.81 273.836 7.142V10.436C273.836 11.066 273.962 11.318 274.664 11.318H275.042V14H272.198C271.154 14 270.668 13.262 270.524 12.614ZM279.73 14V6.674H275.86V4.01H287.11V6.674H283.24V14H279.73ZM295.279 14.27H294.721C289.339 14.27 288.511 10.994 288.511 9.176V8.924C288.511 7.124 289.339 3.74 294.703 3.74H295.297C300.841 3.74 301.489 7.142 301.489 8.906V9.194C301.489 10.994 300.841 14.27 295.279 14.27ZM294.901 11.642H295.099C297.313 11.642 297.871 10.058 297.871 8.96C297.871 7.826 297.313 6.314 295.099 6.314H294.901C292.597 6.314 292.129 7.826 292.129 8.96C292.129 10.058 292.597 11.642 294.901 11.642ZM313.083 9.014V8.96C313.083 7.88 312.579 6.422 310.383 6.422H310.203C308.097 6.422 307.431 7.808 307.431 8.96V9.014C307.431 10.112 308.097 11.552 310.203 11.552H310.383C312.579 11.552 313.083 10.04 313.083 9.014ZM303.939 17.438V4.01H307.413V5.288C307.845 4.82 309.159 3.812 311.427 3.812H311.661C315.477 3.812 316.719 6.422 316.719 8.798V9.104C316.719 11.282 315.441 14.198 311.643 14.198H311.391C309.105 14.198 307.881 13.154 307.449 12.722V17.438H303.939Z" fill="url(#paint1_radial_2018_956)" style="mix-blend-mode:overlay"/>
<path d="M0.821248 11.084V8.726L8.05725 0.518H12.9712V8.204H15.7432V11.084H12.9712V14H9.29925V11.084H0.821248ZM9.29925 8.204V3.056L4.74525 8.204H9.29925ZM21.8078 10.508V14H17.6138V10.508H21.8078ZM38.63 14.198H37.802C31.682 14.198 30.062 10.274 30.062 7.538V6.998C30.062 4.208 31.682 0.409999 37.802 0.409999H38.63C44.246 0.409999 46.118 3.164 46.118 5.702V5.738H42.302C42.248 5.36 41.744 3.47 38.216 3.47C34.94 3.47 33.914 5.306 33.914 7.106V7.358C33.914 9.014 34.976 11.12 38.234 11.12C41.798 11.12 42.248 9.194 42.302 8.762H46.118V8.816C46.118 11.264 44.318 14.198 38.63 14.198ZM54.845 14.27H54.287C48.905 14.27 48.077 10.994 48.077 9.176V8.924C48.077 7.124 48.905 3.74 54.269 3.74H54.863C60.407 3.74 61.055 7.142 61.055 8.906V9.194C61.055 10.994 60.407 14.27 54.845 14.27ZM54.467 11.642H54.665C56.879 11.642 57.437 10.058 57.437 8.96C57.437 7.826 56.879 6.314 54.665 6.314H54.467C52.163 6.314 51.695 7.826 51.695 8.96C51.695 10.058 52.163 11.642 54.467 11.642ZM76.8257 11.336V16.124H73.4957V14H63.4697V4.01H66.9797V11.336H71.5157V4.01H75.0257V11.336H76.8257ZM87.3449 7.952L82.5209 14H78.9209V4.01H82.4309V10.058L87.2549 4.01H90.8549V14H87.3449V7.952ZM98.4904 12.002C100.542 12.002 101.244 10.706 101.244 9.95V9.176C100.938 9.302 100.056 9.482 99.0484 9.644C97.3564 9.932 96.8164 10.166 96.8164 10.868V10.904C96.8164 11.534 97.2664 12.002 98.4904 12.002ZM101.352 12.614C100.92 13.136 99.8404 14.198 97.5004 14.198H97.2124C94.4224 14.198 93.2704 12.686 93.2704 11.03V10.958C93.2704 9.23 94.3684 8.168 97.7524 7.88L100.488 7.646C101.046 7.592 101.244 7.412 101.244 6.998C101.244 6.53 101.1 6.026 99.1564 6.026C97.3204 6.026 97.1404 6.746 97.1404 7.124H93.5404V7.088C93.5404 6.098 93.9364 3.776 98.8504 3.776H99.4084C104.358 3.776 104.664 5.81 104.664 7.142V10.436C104.664 11.066 104.79 11.318 105.492 11.318H105.87V14H103.026C101.982 14 101.496 13.262 101.352 12.614ZM116.15 14V6.674H112.19C112.19 9.356 112.1 10.85 111.758 11.768C111.38 12.776 110.876 14 108.23 14H107.132V11.39H107.348C107.978 11.39 108.446 11.174 108.644 10.256C108.788 9.482 108.842 8.636 108.842 4.01H119.66V14H116.15ZM122.567 14V4.01H126.077V6.872H128.813C132.233 6.872 133.565 8.384 133.565 10.292V10.508C133.565 12.596 132.233 14 128.813 14H122.567ZM126.077 11.624H128.381C129.101 11.624 129.965 11.408 129.965 10.436V10.382C129.965 9.482 129.101 9.248 128.381 9.248H126.077V11.624ZM139.156 14H135.646V4.01H139.156V7.646H144.052V4.01H147.562V14H144.052V10.31H139.156V14ZM150.481 14V4.01H153.991V6.872H156.727C160.147 6.872 161.479 8.384 161.479 10.292V10.508C161.479 12.596 160.147 14 156.727 14H150.481ZM153.991 11.624H156.295C157.015 11.624 157.879 11.408 157.879 10.436V10.382C157.879 9.482 157.015 9.248 156.295 9.248H153.991V11.624ZM166.267 4.01V14H162.757V4.01H166.267ZM177.609 7.952L172.785 14H169.185V4.01H172.695V10.058L177.519 4.01H181.119V14H177.609V7.952ZM175.377 2.984H174.837C171.975 2.984 171.471 1.04 171.471 0.104V0.0499994H174.117C174.117 0.284 174.225 1.004 175.125 1.004C175.971 1.004 176.097 0.284 176.097 0.0499994H178.707V0.104C178.707 1.04 177.987 2.984 175.377 2.984ZM197.665 7.952L192.841 14H189.241V4.01H192.751V10.058L197.575 4.01H201.175V14H197.665V7.952ZM207.605 14H204.095V4.01H207.605V7.646H212.501V4.01H216.011V14H212.501V10.31H207.605V14ZM222.441 14H218.931V4.01H222.441V7.646H227.337V4.01H230.847V14H227.337V10.31H222.441V14ZM240.031 14.27H239.473C234.091 14.27 233.263 10.994 233.263 9.176V8.924C233.263 7.124 234.091 3.74 239.455 3.74H240.049C245.593 3.74 246.241 7.142 246.241 8.906V9.194C246.241 10.994 245.593 14.27 240.031 14.27ZM239.653 11.642H239.851C242.065 11.642 242.623 10.058 242.623 8.96C242.623 7.826 242.065 6.314 239.851 6.314H239.653C237.349 6.314 236.881 7.826 236.881 8.96C236.881 10.058 237.349 11.642 239.653 11.642ZM256.899 14H248.655V4.01H256.539C258.825 4.01 260.265 4.82 260.265 6.404V6.494C260.265 7.736 259.473 8.474 258.267 8.672C259.491 8.816 260.589 9.68 260.589 11.12V11.192C260.589 13.01 259.401 14 256.899 14ZM252.165 7.988H255.387C256.233 7.988 256.665 7.664 256.665 7.034V6.944C256.665 6.368 256.269 6.026 255.387 6.026H252.165V7.988ZM252.165 11.984H255.531C256.467 11.984 256.989 11.678 256.989 10.976V10.832C256.989 10.202 256.557 9.806 255.531 9.806H252.165V11.984ZM267.662 12.002C269.714 12.002 270.416 10.706 270.416 9.95V9.176C270.11 9.302 269.228 9.482 268.22 9.644C266.528 9.932 265.988 10.166 265.988 10.868V10.904C265.988 11.534 266.438 12.002 267.662 12.002ZM270.524 12.614C270.092 13.136 269.012 14.198 266.672 14.198H266.384C263.594 14.198 262.442 12.686 262.442 11.03V10.958C262.442 9.23 263.54 8.168 266.924 7.88L269.66 7.646C270.218 7.592 270.416 7.412 270.416 6.998C270.416 6.53 270.272 6.026 268.328 6.026C266.492 6.026 266.312 6.746 266.312 7.124H262.712V7.088C262.712 6.098 263.108 3.776 268.022 3.776H268.58C273.53 3.776 273.836 5.81 273.836 7.142V10.436C273.836 11.066 273.962 11.318 274.664 11.318H275.042V14H272.198C271.154 14 270.668 13.262 270.524 12.614ZM279.73 14V6.674H275.86V4.01H287.11V6.674H283.24V14H279.73ZM295.279 14.27H294.721C289.339 14.27 288.511 10.994 288.511 9.176V8.924C288.511 7.124 289.339 3.74 294.703 3.74H295.297C300.841 3.74 301.489 7.142 301.489 8.906V9.194C301.489 10.994 300.841 14.27 295.279 14.27ZM294.901 11.642H295.099C297.313 11.642 297.871 10.058 297.871 8.96C297.871 7.826 297.313 6.314 295.099 6.314H294.901C292.597 6.314 292.129 7.826 292.129 8.96C292.129 10.058 292.597 11.642 294.901 11.642ZM313.083 9.014V8.96C313.083 7.88 312.579 6.422 310.383 6.422H310.203C308.097 6.422 307.431 7.808 307.431 8.96V9.014C307.431 10.112 308.097 11.552 310.203 11.552H310.383C312.579 11.552 313.083 10.04 313.083 9.014ZM303.939 17.438V4.01H307.413V5.288C307.845 4.82 309.159 3.812 311.427 3.812H311.661C315.477 3.812 316.719 6.422 316.719 8.798V9.104C316.719 11.282 315.441 14.198 311.643 14.198H311.391C309.105 14.198 307.881 13.154 307.449 12.722V17.438H303.939Z" fill="url(#paint2_radial_2018_956)"/>
<path d="M0.821248 11.084V8.726L8.05725 0.518H12.9712V8.204H15.7432V11.084H12.9712V14H9.29925V11.084H0.821248ZM9.29925 8.204V3.056L4.74525 8.204H9.29925ZM21.8078 10.508V14H17.6138V10.508H21.8078ZM38.63 14.198H37.802C31.682 14.198 30.062 10.274 30.062 7.538V6.998C30.062 4.208 31.682 0.409999 37.802 0.409999H38.63C44.246 0.409999 46.118 3.164 46.118 5.702V5.738H42.302C42.248 5.36 41.744 3.47 38.216 3.47C34.94 3.47 33.914 5.306 33.914 7.106V7.358C33.914 9.014 34.976 11.12 38.234 11.12C41.798 11.12 42.248 9.194 42.302 8.762H46.118V8.816C46.118 11.264 44.318 14.198 38.63 14.198ZM54.845 14.27H54.287C48.905 14.27 48.077 10.994 48.077 9.176V8.924C48.077 7.124 48.905 3.74 54.269 3.74H54.863C60.407 3.74 61.055 7.142 61.055 8.906V9.194C61.055 10.994 60.407 14.27 54.845 14.27ZM54.467 11.642H54.665C56.879 11.642 57.437 10.058 57.437 8.96C57.437 7.826 56.879 6.314 54.665 6.314H54.467C52.163 6.314 51.695 7.826 51.695 8.96C51.695 10.058 52.163 11.642 54.467 11.642ZM76.8257 11.336V16.124H73.4957V14H63.4697V4.01H66.9797V11.336H71.5157V4.01H75.0257V11.336H76.8257ZM87.3449 7.952L82.5209 14H78.9209V4.01H82.4309V10.058L87.2549 4.01H90.8549V14H87.3449V7.952ZM98.4904 12.002C100.542 12.002 101.244 10.706 101.244 9.95V9.176C100.938 9.302 100.056 9.482 99.0484 9.644C97.3564 9.932 96.8164 10.166 96.8164 10.868V10.904C96.8164 11.534 97.2664 12.002 98.4904 12.002ZM101.352 12.614C100.92 13.136 99.8404 14.198 97.5004 14.198H97.2124C94.4224 14.198 93.2704 12.686 93.2704 11.03V10.958C93.2704 9.23 94.3684 8.168 97.7524 7.88L100.488 7.646C101.046 7.592 101.244 7.412 101.244 6.998C101.244 6.53 101.1 6.026 99.1564 6.026C97.3204 6.026 97.1404 6.746 97.1404 7.124H93.5404V7.088C93.5404 6.098 93.9364 3.776 98.8504 3.776H99.4084C104.358 3.776 104.664 5.81 104.664 7.142V10.436C104.664 11.066 104.79 11.318 105.492 11.318H105.87V14H103.026C101.982 14 101.496 13.262 101.352 12.614ZM116.15 14V6.674H112.19C112.19 9.356 112.1 10.85 111.758 11.768C111.38 12.776 110.876 14 108.23 14H107.132V11.39H107.348C107.978 11.39 108.446 11.174 108.644 10.256C108.788 9.482 108.842 8.636 108.842 4.01H119.66V14H116.15ZM122.567 14V4.01H126.077V6.872H128.813C132.233 6.872 133.565 8.384 133.565 10.292V10.508C133.565 12.596 132.233 14 128.813 14H122.567ZM126.077 11.624H128.381C129.101 11.624 129.965 11.408 129.965 10.436V10.382C129.965 9.482 129.101 9.248 128.381 9.248H126.077V11.624ZM139.156 14H135.646V4.01H139.156V7.646H144.052V4.01H147.562V14H144.052V10.31H139.156V14ZM150.481 14V4.01H153.991V6.872H156.727C160.147 6.872 161.479 8.384 161.479 10.292V10.508C161.479 12.596 160.147 14 156.727 14H150.481ZM153.991 11.624H156.295C157.015 11.624 157.879 11.408 157.879 10.436V10.382C157.879 9.482 157.015 9.248 156.295 9.248H153.991V11.624ZM166.267 4.01V14H162.757V4.01H166.267ZM177.609 7.952L172.785 14H169.185V4.01H172.695V10.058L177.519 4.01H181.119V14H177.609V7.952ZM175.377 2.984H174.837C171.975 2.984 171.471 1.04 171.471 0.104V0.0499994H174.117C174.117 0.284 174.225 1.004 175.125 1.004C175.971 1.004 176.097 0.284 176.097 0.0499994H178.707V0.104C178.707 1.04 177.987 2.984 175.377 2.984ZM197.665 7.952L192.841 14H189.241V4.01H192.751V10.058L197.575 4.01H201.175V14H197.665V7.952ZM207.605 14H204.095V4.01H207.605V7.646H212.501V4.01H216.011V14H212.501V10.31H207.605V14ZM222.441 14H218.931V4.01H222.441V7.646H227.337V4.01H230.847V14H227.337V10.31H222.441V14ZM240.031 14.27H239.473C234.091 14.27 233.263 10.994 233.263 9.176V8.924C233.263 7.124 234.091 3.74 239.455 3.74H240.049C245.593 3.74 246.241 7.142 246.241 8.906V9.194C246.241 10.994 245.593 14.27 240.031 14.27ZM239.653 11.642H239.851C242.065 11.642 242.623 10.058 242.623 8.96C242.623 7.826 242.065 6.314 239.851 6.314H239.653C237.349 6.314 236.881 7.826 236.881 8.96C236.881 10.058 237.349 11.642 239.653 11.642ZM256.899 14H248.655V4.01H256.539C258.825 4.01 260.265 4.82 260.265 6.404V6.494C260.265 7.736 259.473 8.474 258.267 8.672C259.491 8.816 260.589 9.68 260.589 11.12V11.192C260.589 13.01 259.401 14 256.899 14ZM252.165 7.988H255.387C256.233 7.988 256.665 7.664 256.665 7.034V6.944C256.665 6.368 256.269 6.026 255.387 6.026H252.165V7.988ZM252.165 11.984H255.531C256.467 11.984 256.989 11.678 256.989 10.976V10.832C256.989 10.202 256.557 9.806 255.531 9.806H252.165V11.984ZM267.662 12.002C269.714 12.002 270.416 10.706 270.416 9.95V9.176C270.11 9.302 269.228 9.482 268.22 9.644C266.528 9.932 265.988 10.166 265.988 10.868V10.904C265.988 11.534 266.438 12.002 267.662 12.002ZM270.524 12.614C270.092 13.136 269.012 14.198 266.672 14.198H266.384C263.594 14.198 262.442 12.686 262.442 11.03V10.958C262.442 9.23 263.54 8.168 266.924 7.88L269.66 7.646C270.218 7.592 270.416 7.412 270.416 6.998C270.416 6.53 270.272 6.026 268.328 6.026C266.492 6.026 266.312 6.746 266.312 7.124H262.712V7.088C262.712 6.098 263.108 3.776 268.022 3.776H268.58C273.53 3.776 273.836 5.81 273.836 7.142V10.436C273.836 11.066 273.962 11.318 274.664 11.318H275.042V14H272.198C271.154 14 270.668 13.262 270.524 12.614ZM279.73 14V6.674H275.86V4.01H287.11V6.674H283.24V14H279.73ZM295.279 14.27H294.721C289.339 14.27 288.511 10.994 288.511 9.176V8.924C288.511 7.124 289.339 3.74 294.703 3.74H295.297C300.841 3.74 301.489 7.142 301.489 8.906V9.194C301.489 10.994 300.841 14.27 295.279 14.27ZM294.901 11.642H295.099C297.313 11.642 297.871 10.058 297.871 8.96C297.871 7.826 297.313 6.314 295.099 6.314H294.901C292.597 6.314 292.129 7.826 292.129 8.96C292.129 10.058 292.597 11.642 294.901 11.642ZM313.083 9.014V8.96C313.083 7.88 312.579 6.422 310.383 6.422H310.203C308.097 6.422 307.431 7.808 307.431 8.96V9.014C307.431 10.112 308.097 11.552 310.203 11.552H310.383C312.579 11.552 313.083 10.04 313.083 9.014ZM303.939 17.438V4.01H307.413V5.288C307.845 4.82 309.159 3.812 311.427 3.812H311.661C315.477 3.812 316.719 6.422 316.719 8.798V9.104C316.719 11.282 315.441 14.198 311.643 14.198H311.391C309.105 14.198 307.881 13.154 307.449 12.722V17.438H303.939Z" fill="#C1A875" style="mix-blend-mode:color"/>
<defs>
<linearGradient id="paint0_linear_2018_956" x1="2" y1="6" x2="318" y2="6.00002" gradientUnits="userSpaceOnUse">
<stop stop-color="#576167"/>
<stop offset="0.191294" stop-color="#9EA1A2"/>
<stop offset="0.396166" stop-color="#848989"/>
<stop offset="0.62055" stop-color="#576167"/>
<stop offset="0.830299" stop-color="#757A7C"/>
<stop offset="1" stop-color="#576167"/>
</linearGradient>
<radialGradient id="paint1_radial_2018_956" cx="0" cy="0" r="1" gradientUnits="userSpaceOnUse" gradientTransform="translate(170.286 -3.20225) rotate(90) scale(17.8315 239.064)">
<stop stop-color="white"/>
<stop offset="1" stop-color="white" stop-opacity="0"/>
</radialGradient>
<radialGradient id="paint2_radial_2018_956" cx="0" cy="0" r="1" gradientUnits="userSpaceOnUse" gradientTransform="translate(188.16 23.6629) rotate(-88.8658) scale(25.5556 341.789)">
<stop stop-color="white"/>
<stop offset="1" stop-color="white" stop-opacity="0"/>
</radialGradient>
</defs>
</svg>
