<svg width="369" height="18" viewBox="0 0 369 18" fill="none" xmlns="http://www.w3.org/2000/svg">
<path d="M7.70525 14.198H6.98525C1.29725 14.198 0.271248 11.48 0.271248 10.256V10.004H4.17725C4.26725 10.382 4.80725 11.21 7.38125 11.21C9.81125 11.21 10.7112 10.562 10.7112 9.554V9.446C10.7112 8.384 9.84725 7.844 7.38125 7.844C4.84325 7.844 4.28525 8.474 4.14125 8.888H0.469248V0.608H13.4652V3.65H4.14125V6.134C4.28525 5.99 5.50925 5.09 8.19125 5.09H8.37125C13.1412 5.09 14.4012 7.142 14.4012 9.248V9.464C14.4012 11.642 12.9792 14.198 7.70525 14.198ZM20.8078 10.508V14H16.6138V10.508H20.8078ZM29.656 14V0.608H34.588L38.854 9.68L43.246 0.608H47.872V14H44.254V5.234L40.186 14H37.288L33.22 5.234V14H29.656ZM55.7072 12.002C57.7592 12.002 58.4612 10.706 58.4612 9.95V9.176C58.1552 9.302 57.2732 9.482 56.2652 9.644C54.5732 9.932 54.0332 10.166 54.0332 10.868V10.904C54.0332 11.534 54.4832 12.002 55.7072 12.002ZM58.5692 12.614C58.1372 13.136 57.0572 14.198 54.7172 14.198H54.4292C51.6392 14.198 50.4872 12.686 50.4872 11.03V10.958C50.4872 9.23 51.5852 8.168 54.9692 7.88L57.7052 7.646C58.2632 7.592 58.4612 7.412 58.4612 6.998C58.4612 6.53 58.3172 6.026 56.3732 6.026C54.5372 6.026 54.3572 6.746 54.3572 7.124H50.7572V7.088C50.7572 6.098 51.1532 3.776 56.0672 3.776H56.6252C61.5752 3.776 61.8812 5.81 61.8812 7.142V10.436C61.8812 11.066 62.0072 11.318 62.7092 11.318H63.0872V14H60.2432C59.1992 14 58.7132 13.262 58.5692 12.614ZM73.4409 10.076H77.1129C77.1129 11.588 76.2129 14.27 71.4069 14.27H70.5249C65.5389 14.27 64.6029 11.03 64.6029 9.14V8.888C64.6029 6.998 65.4849 3.74 70.5069 3.74H71.3349C76.1589 3.74 77.1129 6.368 77.1129 7.808V7.826H73.4409C73.3869 7.538 73.0449 6.296 70.9749 6.296H70.7949C68.7249 6.296 68.2389 7.718 68.2389 8.924V8.942C68.2389 10.184 68.8329 11.66 70.8669 11.66H71.0469C73.1349 11.66 73.4409 10.31 73.4409 10.076ZM82.3649 14V6.674H78.4949V4.01H89.7449V6.674H85.8749V14H82.3649ZM97.4634 6.08C95.6454 6.08 94.9614 6.818 94.7814 7.862H100.073C100.073 7.124 99.7134 6.08 97.4634 6.08ZM100.145 10.886H103.799C103.799 11.714 103.151 14.234 97.9854 14.234H97.3194C92.3874 14.234 91.1634 11.534 91.1634 9.14V8.888C91.1634 6.638 92.2794 3.794 97.0134 3.794H97.8054C102.917 3.794 103.835 6.638 103.835 9.428V9.752H94.7454C94.8894 10.904 95.6274 11.84 97.7694 11.84C99.8034 11.84 100.055 11.048 100.145 10.886ZM115.419 9.014V8.96C115.419 7.88 114.915 6.422 112.719 6.422H112.539C110.433 6.422 109.767 7.808 109.767 8.96V9.014C109.767 10.112 110.433 11.552 112.539 11.552H112.719C114.915 11.552 115.419 10.04 115.419 9.014ZM106.275 17.438V4.01H109.749V5.288C110.181 4.82 111.495 3.812 113.763 3.812H113.997C117.813 3.812 119.055 6.422 119.055 8.798V9.104C119.055 11.282 117.777 14.198 113.979 14.198H113.727C111.441 14.198 110.217 13.154 109.785 12.722V17.438H106.275ZM134.134 14L130.246 9.374V14H126.736V4.01H130.246V8.006L133.81 4.01H137.86L133.684 8.492L138.31 14H134.134ZM148.185 7.952L143.361 14H139.761V4.01H143.271V10.058L148.095 4.01H151.695V14H148.185V7.952ZM167.088 9.122V9.356C167.088 13.1 164.244 14.27 160.842 14.27H160.482C156.972 14.27 154.11 12.902 154.11 8.15V7.088C154.11 2.282 156.504 0.698 161.184 0.698H161.994C163.11 0.698 163.182 0.589999 163.218 0.373999H166.656C166.656 2.48 165.864 3.362 163.416 3.362H161.184C158.592 3.362 157.602 4.172 157.548 5.99C158.466 5.036 159.87 4.388 162.084 4.388H162.192C164.568 4.388 167.088 5.594 167.088 9.122ZM160.518 11.642H160.716C162.3 11.642 163.47 10.85 163.47 9.212C163.47 7.628 162.282 6.854 160.734 6.854H160.518C158.79 6.854 157.728 7.592 157.728 9.23C157.728 10.886 158.808 11.642 160.518 11.642ZM175.317 6.08C173.499 6.08 172.815 6.818 172.635 7.862H177.927C177.927 7.124 177.567 6.08 175.317 6.08ZM177.999 10.886H181.653C181.653 11.714 181.005 14.234 175.839 14.234H175.173C170.241 14.234 169.017 11.534 169.017 9.14V8.888C169.017 6.638 170.133 3.794 174.867 3.794H175.659C180.771 3.794 181.689 6.638 181.689 9.428V9.752H172.599C172.743 10.904 173.481 11.84 175.623 11.84C177.657 11.84 177.909 11.048 177.999 10.886ZM193.273 9.014V8.96C193.273 7.88 192.769 6.422 190.573 6.422H190.393C188.287 6.422 187.621 7.808 187.621 8.96V9.014C187.621 10.112 188.287 11.552 190.393 11.552H190.573C192.769 11.552 193.273 10.04 193.273 9.014ZM184.129 17.438V4.01H187.603V5.288C188.035 4.82 189.349 3.812 191.617 3.812H191.851C195.667 3.812 196.909 6.422 196.909 8.798V9.104C196.909 11.282 195.631 14.198 191.833 14.198H191.581C189.295 14.198 188.071 13.154 187.639 12.722V17.438H184.129ZM211.825 9.122V9.356C211.825 13.1 208.981 14.27 205.579 14.27H205.219C201.709 14.27 198.847 12.902 198.847 8.15V7.088C198.847 2.282 201.241 0.698 205.921 0.698H206.731C207.847 0.698 207.919 0.589999 207.955 0.373999H211.393C211.393 2.48 210.601 3.362 208.153 3.362H205.921C203.329 3.362 202.339 4.172 202.285 5.99C203.203 5.036 204.607 4.388 206.821 4.388H206.929C209.305 4.388 211.825 5.594 211.825 9.122ZM205.255 11.642H205.453C207.037 11.642 208.207 10.85 208.207 9.212C208.207 7.628 207.019 6.854 205.471 6.854H205.255C203.527 6.854 202.465 7.592 202.465 9.23C202.465 10.886 203.545 11.642 205.255 11.642ZM220.053 6.08C218.235 6.08 217.551 6.818 217.371 7.862H222.663C222.663 7.124 222.303 6.08 220.053 6.08ZM222.735 10.886H226.389C226.389 11.714 225.741 14.234 220.575 14.234H219.909C214.977 14.234 213.753 11.534 213.753 9.14V8.888C213.753 6.638 214.869 3.794 219.603 3.794H220.395C225.507 3.794 226.425 6.638 226.425 9.428V9.752H217.335C217.479 10.904 218.217 11.84 220.359 11.84C222.393 11.84 222.645 11.048 222.735 10.886ZM239.955 11.048V11.156C239.955 13.154 238.281 14.27 234.447 14.27H234.123C230.019 14.27 228.237 12.74 228.237 10.67V10.526H231.999C232.053 11.642 233.079 12.056 234.303 12.056C235.617 12.056 236.337 11.66 236.337 10.868V10.814C236.337 10.076 235.761 9.896 234.753 9.896H232.377V7.754H234.753C235.527 7.754 236.013 7.448 236.013 6.872V6.818C236.013 6.224 235.419 5.918 234.213 5.918C232.863 5.918 232.143 6.242 232.089 6.944H228.327V6.89C228.327 4.748 230.829 3.74 234.087 3.74H234.375C237.741 3.74 239.631 4.55 239.631 6.422V6.494C239.631 8.006 238.479 8.582 237.651 8.78C238.659 8.978 239.955 9.464 239.955 11.048ZM248.663 14.27H248.105C242.723 14.27 241.895 10.994 241.895 9.176V8.924C241.895 7.124 242.723 3.74 248.087 3.74H248.681C254.225 3.74 254.873 7.142 254.873 8.906V9.194C254.873 10.994 254.225 14.27 248.663 14.27ZM248.285 11.642H248.483C250.697 11.642 251.255 10.058 251.255 8.96C251.255 7.826 250.697 6.314 248.483 6.314H248.285C245.981 6.314 245.513 7.826 245.513 8.96C245.513 10.058 245.981 11.642 248.285 11.642ZM257.288 14V4.01H268.844V14H265.334V6.674H260.798V14H257.288ZM276.471 12.002C278.523 12.002 279.225 10.706 279.225 9.95V9.176C278.919 9.302 278.037 9.482 277.029 9.644C275.337 9.932 274.797 10.166 274.797 10.868V10.904C274.797 11.534 275.247 12.002 276.471 12.002ZM279.333 12.614C278.901 13.136 277.821 14.198 275.481 14.198H275.193C272.403 14.198 271.251 12.686 271.251 11.03V10.958C271.251 9.23 272.349 8.168 275.733 7.88L278.469 7.646C279.027 7.592 279.225 7.412 279.225 6.998C279.225 6.53 279.081 6.026 277.137 6.026C275.301 6.026 275.121 6.746 275.121 7.124H271.521V7.088C271.521 6.098 271.917 3.776 276.831 3.776H277.389C282.339 3.776 282.645 5.81 282.645 7.142V10.436C282.645 11.066 282.771 11.318 283.473 11.318H283.851V14H281.007C279.963 14 279.477 13.262 279.333 12.614ZM294.205 10.076H297.877C297.877 11.588 296.977 14.27 292.171 14.27H291.289C286.303 14.27 285.367 11.03 285.367 9.14V8.888C285.367 6.998 286.249 3.74 291.271 3.74H292.099C296.923 3.74 297.877 6.368 297.877 7.808V7.826H294.205C294.151 7.538 293.809 6.296 291.739 6.296H291.559C289.489 6.296 289.003 7.718 289.003 8.924V8.942C289.003 10.184 289.597 11.66 291.631 11.66H291.811C293.899 11.66 294.205 10.31 294.205 10.076ZM303.777 14H300.267V4.01H303.777V7.646H308.673V4.01H312.183V14H308.673V10.31H303.777V14ZM321.367 14.27H320.809C315.427 14.27 314.599 10.994 314.599 9.176V8.924C314.599 7.124 315.427 3.74 320.791 3.74H321.385C326.929 3.74 327.577 7.142 327.577 8.906V9.194C327.577 10.994 326.929 14.27 321.367 14.27ZM320.989 11.642H321.187C323.401 11.642 323.959 10.058 323.959 8.96C323.959 7.826 323.401 6.314 321.187 6.314H320.989C318.685 6.314 318.217 7.826 318.217 8.96C318.217 10.058 318.685 11.642 320.989 11.642ZM338.343 10.076H342.015C342.015 11.588 341.115 14.27 336.309 14.27H335.427C330.441 14.27 329.505 11.03 329.505 9.14V8.888C329.505 6.998 330.387 3.74 335.409 3.74H336.237C341.061 3.74 342.015 6.368 342.015 7.808V7.826H338.343C338.289 7.538 337.947 6.296 335.877 6.296H335.697C333.627 6.296 333.141 7.718 333.141 8.924V8.942C333.141 10.184 333.735 11.66 335.769 11.66H335.949C338.037 11.66 338.343 10.31 338.343 10.076ZM347.267 14V6.674H343.397V4.01H354.647V6.674H350.777V14H347.267ZM364.976 7.952L360.152 14H356.552V4.01H360.062V10.058L364.886 4.01H368.486V14H364.976V7.952Z" fill="url(#paint0_linear_2018_963)"/>
<path d="M7.70525 14.198H6.98525C1.29725 14.198 0.271248 11.48 0.271248 10.256V10.004H4.17725C4.26725 10.382 4.80725 11.21 7.38125 11.21C9.81125 11.21 10.7112 10.562 10.7112 9.554V9.446C10.7112 8.384 9.84725 7.844 7.38125 7.844C4.84325 7.844 4.28525 8.474 4.14125 8.888H0.469248V0.608H13.4652V3.65H4.14125V6.134C4.28525 5.99 5.50925 5.09 8.19125 5.09H8.37125C13.1412 5.09 14.4012 7.142 14.4012 9.248V9.464C14.4012 11.642 12.9792 14.198 7.70525 14.198ZM20.8078 10.508V14H16.6138V10.508H20.8078ZM29.656 14V0.608H34.588L38.854 9.68L43.246 0.608H47.872V14H44.254V5.234L40.186 14H37.288L33.22 5.234V14H29.656ZM55.7072 12.002C57.7592 12.002 58.4612 10.706 58.4612 9.95V9.176C58.1552 9.302 57.2732 9.482 56.2652 9.644C54.5732 9.932 54.0332 10.166 54.0332 10.868V10.904C54.0332 11.534 54.4832 12.002 55.7072 12.002ZM58.5692 12.614C58.1372 13.136 57.0572 14.198 54.7172 14.198H54.4292C51.6392 14.198 50.4872 12.686 50.4872 11.03V10.958C50.4872 9.23 51.5852 8.168 54.9692 7.88L57.7052 7.646C58.2632 7.592 58.4612 7.412 58.4612 6.998C58.4612 6.53 58.3172 6.026 56.3732 6.026C54.5372 6.026 54.3572 6.746 54.3572 7.124H50.7572V7.088C50.7572 6.098 51.1532 3.776 56.0672 3.776H56.6252C61.5752 3.776 61.8812 5.81 61.8812 7.142V10.436C61.8812 11.066 62.0072 11.318 62.7092 11.318H63.0872V14H60.2432C59.1992 14 58.7132 13.262 58.5692 12.614ZM73.4409 10.076H77.1129C77.1129 11.588 76.2129 14.27 71.4069 14.27H70.5249C65.5389 14.27 64.6029 11.03 64.6029 9.14V8.888C64.6029 6.998 65.4849 3.74 70.5069 3.74H71.3349C76.1589 3.74 77.1129 6.368 77.1129 7.808V7.826H73.4409C73.3869 7.538 73.0449 6.296 70.9749 6.296H70.7949C68.7249 6.296 68.2389 7.718 68.2389 8.924V8.942C68.2389 10.184 68.8329 11.66 70.8669 11.66H71.0469C73.1349 11.66 73.4409 10.31 73.4409 10.076ZM82.3649 14V6.674H78.4949V4.01H89.7449V6.674H85.8749V14H82.3649ZM97.4634 6.08C95.6454 6.08 94.9614 6.818 94.7814 7.862H100.073C100.073 7.124 99.7134 6.08 97.4634 6.08ZM100.145 10.886H103.799C103.799 11.714 103.151 14.234 97.9854 14.234H97.3194C92.3874 14.234 91.1634 11.534 91.1634 9.14V8.888C91.1634 6.638 92.2794 3.794 97.0134 3.794H97.8054C102.917 3.794 103.835 6.638 103.835 9.428V9.752H94.7454C94.8894 10.904 95.6274 11.84 97.7694 11.84C99.8034 11.84 100.055 11.048 100.145 10.886ZM115.419 9.014V8.96C115.419 7.88 114.915 6.422 112.719 6.422H112.539C110.433 6.422 109.767 7.808 109.767 8.96V9.014C109.767 10.112 110.433 11.552 112.539 11.552H112.719C114.915 11.552 115.419 10.04 115.419 9.014ZM106.275 17.438V4.01H109.749V5.288C110.181 4.82 111.495 3.812 113.763 3.812H113.997C117.813 3.812 119.055 6.422 119.055 8.798V9.104C119.055 11.282 117.777 14.198 113.979 14.198H113.727C111.441 14.198 110.217 13.154 109.785 12.722V17.438H106.275ZM134.134 14L130.246 9.374V14H126.736V4.01H130.246V8.006L133.81 4.01H137.86L133.684 8.492L138.31 14H134.134ZM148.185 7.952L143.361 14H139.761V4.01H143.271V10.058L148.095 4.01H151.695V14H148.185V7.952ZM167.088 9.122V9.356C167.088 13.1 164.244 14.27 160.842 14.27H160.482C156.972 14.27 154.11 12.902 154.11 8.15V7.088C154.11 2.282 156.504 0.698 161.184 0.698H161.994C163.11 0.698 163.182 0.589999 163.218 0.373999H166.656C166.656 2.48 165.864 3.362 163.416 3.362H161.184C158.592 3.362 157.602 4.172 157.548 5.99C158.466 5.036 159.87 4.388 162.084 4.388H162.192C164.568 4.388 167.088 5.594 167.088 9.122ZM160.518 11.642H160.716C162.3 11.642 163.47 10.85 163.47 9.212C163.47 7.628 162.282 6.854 160.734 6.854H160.518C158.79 6.854 157.728 7.592 157.728 9.23C157.728 10.886 158.808 11.642 160.518 11.642ZM175.317 6.08C173.499 6.08 172.815 6.818 172.635 7.862H177.927C177.927 7.124 177.567 6.08 175.317 6.08ZM177.999 10.886H181.653C181.653 11.714 181.005 14.234 175.839 14.234H175.173C170.241 14.234 169.017 11.534 169.017 9.14V8.888C169.017 6.638 170.133 3.794 174.867 3.794H175.659C180.771 3.794 181.689 6.638 181.689 9.428V9.752H172.599C172.743 10.904 173.481 11.84 175.623 11.84C177.657 11.84 177.909 11.048 177.999 10.886ZM193.273 9.014V8.96C193.273 7.88 192.769 6.422 190.573 6.422H190.393C188.287 6.422 187.621 7.808 187.621 8.96V9.014C187.621 10.112 188.287 11.552 190.393 11.552H190.573C192.769 11.552 193.273 10.04 193.273 9.014ZM184.129 17.438V4.01H187.603V5.288C188.035 4.82 189.349 3.812 191.617 3.812H191.851C195.667 3.812 196.909 6.422 196.909 8.798V9.104C196.909 11.282 195.631 14.198 191.833 14.198H191.581C189.295 14.198 188.071 13.154 187.639 12.722V17.438H184.129ZM211.825 9.122V9.356C211.825 13.1 208.981 14.27 205.579 14.27H205.219C201.709 14.27 198.847 12.902 198.847 8.15V7.088C198.847 2.282 201.241 0.698 205.921 0.698H206.731C207.847 0.698 207.919 0.589999 207.955 0.373999H211.393C211.393 2.48 210.601 3.362 208.153 3.362H205.921C203.329 3.362 202.339 4.172 202.285 5.99C203.203 5.036 204.607 4.388 206.821 4.388H206.929C209.305 4.388 211.825 5.594 211.825 9.122ZM205.255 11.642H205.453C207.037 11.642 208.207 10.85 208.207 9.212C208.207 7.628 207.019 6.854 205.471 6.854H205.255C203.527 6.854 202.465 7.592 202.465 9.23C202.465 10.886 203.545 11.642 205.255 11.642ZM220.053 6.08C218.235 6.08 217.551 6.818 217.371 7.862H222.663C222.663 7.124 222.303 6.08 220.053 6.08ZM222.735 10.886H226.389C226.389 11.714 225.741 14.234 220.575 14.234H219.909C214.977 14.234 213.753 11.534 213.753 9.14V8.888C213.753 6.638 214.869 3.794 219.603 3.794H220.395C225.507 3.794 226.425 6.638 226.425 9.428V9.752H217.335C217.479 10.904 218.217 11.84 220.359 11.84C222.393 11.84 222.645 11.048 222.735 10.886ZM239.955 11.048V11.156C239.955 13.154 238.281 14.27 234.447 14.27H234.123C230.019 14.27 228.237 12.74 228.237 10.67V10.526H231.999C232.053 11.642 233.079 12.056 234.303 12.056C235.617 12.056 236.337 11.66 236.337 10.868V10.814C236.337 10.076 235.761 9.896 234.753 9.896H232.377V7.754H234.753C235.527 7.754 236.013 7.448 236.013 6.872V6.818C236.013 6.224 235.419 5.918 234.213 5.918C232.863 5.918 232.143 6.242 232.089 6.944H228.327V6.89C228.327 4.748 230.829 3.74 234.087 3.74H234.375C237.741 3.74 239.631 4.55 239.631 6.422V6.494C239.631 8.006 238.479 8.582 237.651 8.78C238.659 8.978 239.955 9.464 239.955 11.048ZM248.663 14.27H248.105C242.723 14.27 241.895 10.994 241.895 9.176V8.924C241.895 7.124 242.723 3.74 248.087 3.74H248.681C254.225 3.74 254.873 7.142 254.873 8.906V9.194C254.873 10.994 254.225 14.27 248.663 14.27ZM248.285 11.642H248.483C250.697 11.642 251.255 10.058 251.255 8.96C251.255 7.826 250.697 6.314 248.483 6.314H248.285C245.981 6.314 245.513 7.826 245.513 8.96C245.513 10.058 245.981 11.642 248.285 11.642ZM257.288 14V4.01H268.844V14H265.334V6.674H260.798V14H257.288ZM276.471 12.002C278.523 12.002 279.225 10.706 279.225 9.95V9.176C278.919 9.302 278.037 9.482 277.029 9.644C275.337 9.932 274.797 10.166 274.797 10.868V10.904C274.797 11.534 275.247 12.002 276.471 12.002ZM279.333 12.614C278.901 13.136 277.821 14.198 275.481 14.198H275.193C272.403 14.198 271.251 12.686 271.251 11.03V10.958C271.251 9.23 272.349 8.168 275.733 7.88L278.469 7.646C279.027 7.592 279.225 7.412 279.225 6.998C279.225 6.53 279.081 6.026 277.137 6.026C275.301 6.026 275.121 6.746 275.121 7.124H271.521V7.088C271.521 6.098 271.917 3.776 276.831 3.776H277.389C282.339 3.776 282.645 5.81 282.645 7.142V10.436C282.645 11.066 282.771 11.318 283.473 11.318H283.851V14H281.007C279.963 14 279.477 13.262 279.333 12.614ZM294.205 10.076H297.877C297.877 11.588 296.977 14.27 292.171 14.27H291.289C286.303 14.27 285.367 11.03 285.367 9.14V8.888C285.367 6.998 286.249 3.74 291.271 3.74H292.099C296.923 3.74 297.877 6.368 297.877 7.808V7.826H294.205C294.151 7.538 293.809 6.296 291.739 6.296H291.559C289.489 6.296 289.003 7.718 289.003 8.924V8.942C289.003 10.184 289.597 11.66 291.631 11.66H291.811C293.899 11.66 294.205 10.31 294.205 10.076ZM303.777 14H300.267V4.01H303.777V7.646H308.673V4.01H312.183V14H308.673V10.31H303.777V14ZM321.367 14.27H320.809C315.427 14.27 314.599 10.994 314.599 9.176V8.924C314.599 7.124 315.427 3.74 320.791 3.74H321.385C326.929 3.74 327.577 7.142 327.577 8.906V9.194C327.577 10.994 326.929 14.27 321.367 14.27ZM320.989 11.642H321.187C323.401 11.642 323.959 10.058 323.959 8.96C323.959 7.826 323.401 6.314 321.187 6.314H320.989C318.685 6.314 318.217 7.826 318.217 8.96C318.217 10.058 318.685 11.642 320.989 11.642ZM338.343 10.076H342.015C342.015 11.588 341.115 14.27 336.309 14.27H335.427C330.441 14.27 329.505 11.03 329.505 9.14V8.888C329.505 6.998 330.387 3.74 335.409 3.74H336.237C341.061 3.74 342.015 6.368 342.015 7.808V7.826H338.343C338.289 7.538 337.947 6.296 335.877 6.296H335.697C333.627 6.296 333.141 7.718 333.141 8.924V8.942C333.141 10.184 333.735 11.66 335.769 11.66H335.949C338.037 11.66 338.343 10.31 338.343 10.076ZM347.267 14V6.674H343.397V4.01H354.647V6.674H350.777V14H347.267ZM364.976 7.952L360.152 14H356.552V4.01H360.062V10.058L364.886 4.01H368.486V14H364.976V7.952Z" fill="url(#paint1_radial_2018_963)" style="mix-blend-mode:overlay"/>
<path d="M7.70525 14.198H6.98525C1.29725 14.198 0.271248 11.48 0.271248 10.256V10.004H4.17725C4.26725 10.382 4.80725 11.21 7.38125 11.21C9.81125 11.21 10.7112 10.562 10.7112 9.554V9.446C10.7112 8.384 9.84725 7.844 7.38125 7.844C4.84325 7.844 4.28525 8.474 4.14125 8.888H0.469248V0.608H13.4652V3.65H4.14125V6.134C4.28525 5.99 5.50925 5.09 8.19125 5.09H8.37125C13.1412 5.09 14.4012 7.142 14.4012 9.248V9.464C14.4012 11.642 12.9792 14.198 7.70525 14.198ZM20.8078 10.508V14H16.6138V10.508H20.8078ZM29.656 14V0.608H34.588L38.854 9.68L43.246 0.608H47.872V14H44.254V5.234L40.186 14H37.288L33.22 5.234V14H29.656ZM55.7072 12.002C57.7592 12.002 58.4612 10.706 58.4612 9.95V9.176C58.1552 9.302 57.2732 9.482 56.2652 9.644C54.5732 9.932 54.0332 10.166 54.0332 10.868V10.904C54.0332 11.534 54.4832 12.002 55.7072 12.002ZM58.5692 12.614C58.1372 13.136 57.0572 14.198 54.7172 14.198H54.4292C51.6392 14.198 50.4872 12.686 50.4872 11.03V10.958C50.4872 9.23 51.5852 8.168 54.9692 7.88L57.7052 7.646C58.2632 7.592 58.4612 7.412 58.4612 6.998C58.4612 6.53 58.3172 6.026 56.3732 6.026C54.5372 6.026 54.3572 6.746 54.3572 7.124H50.7572V7.088C50.7572 6.098 51.1532 3.776 56.0672 3.776H56.6252C61.5752 3.776 61.8812 5.81 61.8812 7.142V10.436C61.8812 11.066 62.0072 11.318 62.7092 11.318H63.0872V14H60.2432C59.1992 14 58.7132 13.262 58.5692 12.614ZM73.4409 10.076H77.1129C77.1129 11.588 76.2129 14.27 71.4069 14.27H70.5249C65.5389 14.27 64.6029 11.03 64.6029 9.14V8.888C64.6029 6.998 65.4849 3.74 70.5069 3.74H71.3349C76.1589 3.74 77.1129 6.368 77.1129 7.808V7.826H73.4409C73.3869 7.538 73.0449 6.296 70.9749 6.296H70.7949C68.7249 6.296 68.2389 7.718 68.2389 8.924V8.942C68.2389 10.184 68.8329 11.66 70.8669 11.66H71.0469C73.1349 11.66 73.4409 10.31 73.4409 10.076ZM82.3649 14V6.674H78.4949V4.01H89.7449V6.674H85.8749V14H82.3649ZM97.4634 6.08C95.6454 6.08 94.9614 6.818 94.7814 7.862H100.073C100.073 7.124 99.7134 6.08 97.4634 6.08ZM100.145 10.886H103.799C103.799 11.714 103.151 14.234 97.9854 14.234H97.3194C92.3874 14.234 91.1634 11.534 91.1634 9.14V8.888C91.1634 6.638 92.2794 3.794 97.0134 3.794H97.8054C102.917 3.794 103.835 6.638 103.835 9.428V9.752H94.7454C94.8894 10.904 95.6274 11.84 97.7694 11.84C99.8034 11.84 100.055 11.048 100.145 10.886ZM115.419 9.014V8.96C115.419 7.88 114.915 6.422 112.719 6.422H112.539C110.433 6.422 109.767 7.808 109.767 8.96V9.014C109.767 10.112 110.433 11.552 112.539 11.552H112.719C114.915 11.552 115.419 10.04 115.419 9.014ZM106.275 17.438V4.01H109.749V5.288C110.181 4.82 111.495 3.812 113.763 3.812H113.997C117.813 3.812 119.055 6.422 119.055 8.798V9.104C119.055 11.282 117.777 14.198 113.979 14.198H113.727C111.441 14.198 110.217 13.154 109.785 12.722V17.438H106.275ZM134.134 14L130.246 9.374V14H126.736V4.01H130.246V8.006L133.81 4.01H137.86L133.684 8.492L138.31 14H134.134ZM148.185 7.952L143.361 14H139.761V4.01H143.271V10.058L148.095 4.01H151.695V14H148.185V7.952ZM167.088 9.122V9.356C167.088 13.1 164.244 14.27 160.842 14.27H160.482C156.972 14.27 154.11 12.902 154.11 8.15V7.088C154.11 2.282 156.504 0.698 161.184 0.698H161.994C163.11 0.698 163.182 0.589999 163.218 0.373999H166.656C166.656 2.48 165.864 3.362 163.416 3.362H161.184C158.592 3.362 157.602 4.172 157.548 5.99C158.466 5.036 159.87 4.388 162.084 4.388H162.192C164.568 4.388 167.088 5.594 167.088 9.122ZM160.518 11.642H160.716C162.3 11.642 163.47 10.85 163.47 9.212C163.47 7.628 162.282 6.854 160.734 6.854H160.518C158.79 6.854 157.728 7.592 157.728 9.23C157.728 10.886 158.808 11.642 160.518 11.642ZM175.317 6.08C173.499 6.08 172.815 6.818 172.635 7.862H177.927C177.927 7.124 177.567 6.08 175.317 6.08ZM177.999 10.886H181.653C181.653 11.714 181.005 14.234 175.839 14.234H175.173C170.241 14.234 169.017 11.534 169.017 9.14V8.888C169.017 6.638 170.133 3.794 174.867 3.794H175.659C180.771 3.794 181.689 6.638 181.689 9.428V9.752H172.599C172.743 10.904 173.481 11.84 175.623 11.84C177.657 11.84 177.909 11.048 177.999 10.886ZM193.273 9.014V8.96C193.273 7.88 192.769 6.422 190.573 6.422H190.393C188.287 6.422 187.621 7.808 187.621 8.96V9.014C187.621 10.112 188.287 11.552 190.393 11.552H190.573C192.769 11.552 193.273 10.04 193.273 9.014ZM184.129 17.438V4.01H187.603V5.288C188.035 4.82 189.349 3.812 191.617 3.812H191.851C195.667 3.812 196.909 6.422 196.909 8.798V9.104C196.909 11.282 195.631 14.198 191.833 14.198H191.581C189.295 14.198 188.071 13.154 187.639 12.722V17.438H184.129ZM211.825 9.122V9.356C211.825 13.1 208.981 14.27 205.579 14.27H205.219C201.709 14.27 198.847 12.902 198.847 8.15V7.088C198.847 2.282 201.241 0.698 205.921 0.698H206.731C207.847 0.698 207.919 0.589999 207.955 0.373999H211.393C211.393 2.48 210.601 3.362 208.153 3.362H205.921C203.329 3.362 202.339 4.172 202.285 5.99C203.203 5.036 204.607 4.388 206.821 4.388H206.929C209.305 4.388 211.825 5.594 211.825 9.122ZM205.255 11.642H205.453C207.037 11.642 208.207 10.85 208.207 9.212C208.207 7.628 207.019 6.854 205.471 6.854H205.255C203.527 6.854 202.465 7.592 202.465 9.23C202.465 10.886 203.545 11.642 205.255 11.642ZM220.053 6.08C218.235 6.08 217.551 6.818 217.371 7.862H222.663C222.663 7.124 222.303 6.08 220.053 6.08ZM222.735 10.886H226.389C226.389 11.714 225.741 14.234 220.575 14.234H219.909C214.977 14.234 213.753 11.534 213.753 9.14V8.888C213.753 6.638 214.869 3.794 219.603 3.794H220.395C225.507 3.794 226.425 6.638 226.425 9.428V9.752H217.335C217.479 10.904 218.217 11.84 220.359 11.84C222.393 11.84 222.645 11.048 222.735 10.886ZM239.955 11.048V11.156C239.955 13.154 238.281 14.27 234.447 14.27H234.123C230.019 14.27 228.237 12.74 228.237 10.67V10.526H231.999C232.053 11.642 233.079 12.056 234.303 12.056C235.617 12.056 236.337 11.66 236.337 10.868V10.814C236.337 10.076 235.761 9.896 234.753 9.896H232.377V7.754H234.753C235.527 7.754 236.013 7.448 236.013 6.872V6.818C236.013 6.224 235.419 5.918 234.213 5.918C232.863 5.918 232.143 6.242 232.089 6.944H228.327V6.89C228.327 4.748 230.829 3.74 234.087 3.74H234.375C237.741 3.74 239.631 4.55 239.631 6.422V6.494C239.631 8.006 238.479 8.582 237.651 8.78C238.659 8.978 239.955 9.464 239.955 11.048ZM248.663 14.27H248.105C242.723 14.27 241.895 10.994 241.895 9.176V8.924C241.895 7.124 242.723 3.74 248.087 3.74H248.681C254.225 3.74 254.873 7.142 254.873 8.906V9.194C254.873 10.994 254.225 14.27 248.663 14.27ZM248.285 11.642H248.483C250.697 11.642 251.255 10.058 251.255 8.96C251.255 7.826 250.697 6.314 248.483 6.314H248.285C245.981 6.314 245.513 7.826 245.513 8.96C245.513 10.058 245.981 11.642 248.285 11.642ZM257.288 14V4.01H268.844V14H265.334V6.674H260.798V14H257.288ZM276.471 12.002C278.523 12.002 279.225 10.706 279.225 9.95V9.176C278.919 9.302 278.037 9.482 277.029 9.644C275.337 9.932 274.797 10.166 274.797 10.868V10.904C274.797 11.534 275.247 12.002 276.471 12.002ZM279.333 12.614C278.901 13.136 277.821 14.198 275.481 14.198H275.193C272.403 14.198 271.251 12.686 271.251 11.03V10.958C271.251 9.23 272.349 8.168 275.733 7.88L278.469 7.646C279.027 7.592 279.225 7.412 279.225 6.998C279.225 6.53 279.081 6.026 277.137 6.026C275.301 6.026 275.121 6.746 275.121 7.124H271.521V7.088C271.521 6.098 271.917 3.776 276.831 3.776H277.389C282.339 3.776 282.645 5.81 282.645 7.142V10.436C282.645 11.066 282.771 11.318 283.473 11.318H283.851V14H281.007C279.963 14 279.477 13.262 279.333 12.614ZM294.205 10.076H297.877C297.877 11.588 296.977 14.27 292.171 14.27H291.289C286.303 14.27 285.367 11.03 285.367 9.14V8.888C285.367 6.998 286.249 3.74 291.271 3.74H292.099C296.923 3.74 297.877 6.368 297.877 7.808V7.826H294.205C294.151 7.538 293.809 6.296 291.739 6.296H291.559C289.489 6.296 289.003 7.718 289.003 8.924V8.942C289.003 10.184 289.597 11.66 291.631 11.66H291.811C293.899 11.66 294.205 10.31 294.205 10.076ZM303.777 14H300.267V4.01H303.777V7.646H308.673V4.01H312.183V14H308.673V10.31H303.777V14ZM321.367 14.27H320.809C315.427 14.27 314.599 10.994 314.599 9.176V8.924C314.599 7.124 315.427 3.74 320.791 3.74H321.385C326.929 3.74 327.577 7.142 327.577 8.906V9.194C327.577 10.994 326.929 14.27 321.367 14.27ZM320.989 11.642H321.187C323.401 11.642 323.959 10.058 323.959 8.96C323.959 7.826 323.401 6.314 321.187 6.314H320.989C318.685 6.314 318.217 7.826 318.217 8.96C318.217 10.058 318.685 11.642 320.989 11.642ZM338.343 10.076H342.015C342.015 11.588 341.115 14.27 336.309 14.27H335.427C330.441 14.27 329.505 11.03 329.505 9.14V8.888C329.505 6.998 330.387 3.74 335.409 3.74H336.237C341.061 3.74 342.015 6.368 342.015 7.808V7.826H338.343C338.289 7.538 337.947 6.296 335.877 6.296H335.697C333.627 6.296 333.141 7.718 333.141 8.924V8.942C333.141 10.184 333.735 11.66 335.769 11.66H335.949C338.037 11.66 338.343 10.31 338.343 10.076ZM347.267 14V6.674H343.397V4.01H354.647V6.674H350.777V14H347.267ZM364.976 7.952L360.152 14H356.552V4.01H360.062V10.058L364.886 4.01H368.486V14H364.976V7.952Z" fill="url(#paint2_radial_2018_963)"/>
<path d="M7.70525 14.198H6.98525C1.29725 14.198 0.271248 11.48 0.271248 10.256V10.004H4.17725C4.26725 10.382 4.80725 11.21 7.38125 11.21C9.81125 11.21 10.7112 10.562 10.7112 9.554V9.446C10.7112 8.384 9.84725 7.844 7.38125 7.844C4.84325 7.844 4.28525 8.474 4.14125 8.888H0.469248V0.608H13.4652V3.65H4.14125V6.134C4.28525 5.99 5.50925 5.09 8.19125 5.09H8.37125C13.1412 5.09 14.4012 7.142 14.4012 9.248V9.464C14.4012 11.642 12.9792 14.198 7.70525 14.198ZM20.8078 10.508V14H16.6138V10.508H20.8078ZM29.656 14V0.608H34.588L38.854 9.68L43.246 0.608H47.872V14H44.254V5.234L40.186 14H37.288L33.22 5.234V14H29.656ZM55.7072 12.002C57.7592 12.002 58.4612 10.706 58.4612 9.95V9.176C58.1552 9.302 57.2732 9.482 56.2652 9.644C54.5732 9.932 54.0332 10.166 54.0332 10.868V10.904C54.0332 11.534 54.4832 12.002 55.7072 12.002ZM58.5692 12.614C58.1372 13.136 57.0572 14.198 54.7172 14.198H54.4292C51.6392 14.198 50.4872 12.686 50.4872 11.03V10.958C50.4872 9.23 51.5852 8.168 54.9692 7.88L57.7052 7.646C58.2632 7.592 58.4612 7.412 58.4612 6.998C58.4612 6.53 58.3172 6.026 56.3732 6.026C54.5372 6.026 54.3572 6.746 54.3572 7.124H50.7572V7.088C50.7572 6.098 51.1532 3.776 56.0672 3.776H56.6252C61.5752 3.776 61.8812 5.81 61.8812 7.142V10.436C61.8812 11.066 62.0072 11.318 62.7092 11.318H63.0872V14H60.2432C59.1992 14 58.7132 13.262 58.5692 12.614ZM73.4409 10.076H77.1129C77.1129 11.588 76.2129 14.27 71.4069 14.27H70.5249C65.5389 14.27 64.6029 11.03 64.6029 9.14V8.888C64.6029 6.998 65.4849 3.74 70.5069 3.74H71.3349C76.1589 3.74 77.1129 6.368 77.1129 7.808V7.826H73.4409C73.3869 7.538 73.0449 6.296 70.9749 6.296H70.7949C68.7249 6.296 68.2389 7.718 68.2389 8.924V8.942C68.2389 10.184 68.8329 11.66 70.8669 11.66H71.0469C73.1349 11.66 73.4409 10.31 73.4409 10.076ZM82.3649 14V6.674H78.4949V4.01H89.7449V6.674H85.8749V14H82.3649ZM97.4634 6.08C95.6454 6.08 94.9614 6.818 94.7814 7.862H100.073C100.073 7.124 99.7134 6.08 97.4634 6.08ZM100.145 10.886H103.799C103.799 11.714 103.151 14.234 97.9854 14.234H97.3194C92.3874 14.234 91.1634 11.534 91.1634 9.14V8.888C91.1634 6.638 92.2794 3.794 97.0134 3.794H97.8054C102.917 3.794 103.835 6.638 103.835 9.428V9.752H94.7454C94.8894 10.904 95.6274 11.84 97.7694 11.84C99.8034 11.84 100.055 11.048 100.145 10.886ZM115.419 9.014V8.96C115.419 7.88 114.915 6.422 112.719 6.422H112.539C110.433 6.422 109.767 7.808 109.767 8.96V9.014C109.767 10.112 110.433 11.552 112.539 11.552H112.719C114.915 11.552 115.419 10.04 115.419 9.014ZM106.275 17.438V4.01H109.749V5.288C110.181 4.82 111.495 3.812 113.763 3.812H113.997C117.813 3.812 119.055 6.422 119.055 8.798V9.104C119.055 11.282 117.777 14.198 113.979 14.198H113.727C111.441 14.198 110.217 13.154 109.785 12.722V17.438H106.275ZM134.134 14L130.246 9.374V14H126.736V4.01H130.246V8.006L133.81 4.01H137.86L133.684 8.492L138.31 14H134.134ZM148.185 7.952L143.361 14H139.761V4.01H143.271V10.058L148.095 4.01H151.695V14H148.185V7.952ZM167.088 9.122V9.356C167.088 13.1 164.244 14.27 160.842 14.27H160.482C156.972 14.27 154.11 12.902 154.11 8.15V7.088C154.11 2.282 156.504 0.698 161.184 0.698H161.994C163.11 0.698 163.182 0.589999 163.218 0.373999H166.656C166.656 2.48 165.864 3.362 163.416 3.362H161.184C158.592 3.362 157.602 4.172 157.548 5.99C158.466 5.036 159.87 4.388 162.084 4.388H162.192C164.568 4.388 167.088 5.594 167.088 9.122ZM160.518 11.642H160.716C162.3 11.642 163.47 10.85 163.47 9.212C163.47 7.628 162.282 6.854 160.734 6.854H160.518C158.79 6.854 157.728 7.592 157.728 9.23C157.728 10.886 158.808 11.642 160.518 11.642ZM175.317 6.08C173.499 6.08 172.815 6.818 172.635 7.862H177.927C177.927 7.124 177.567 6.08 175.317 6.08ZM177.999 10.886H181.653C181.653 11.714 181.005 14.234 175.839 14.234H175.173C170.241 14.234 169.017 11.534 169.017 9.14V8.888C169.017 6.638 170.133 3.794 174.867 3.794H175.659C180.771 3.794 181.689 6.638 181.689 9.428V9.752H172.599C172.743 10.904 173.481 11.84 175.623 11.84C177.657 11.84 177.909 11.048 177.999 10.886ZM193.273 9.014V8.96C193.273 7.88 192.769 6.422 190.573 6.422H190.393C188.287 6.422 187.621 7.808 187.621 8.96V9.014C187.621 10.112 188.287 11.552 190.393 11.552H190.573C192.769 11.552 193.273 10.04 193.273 9.014ZM184.129 17.438V4.01H187.603V5.288C188.035 4.82 189.349 3.812 191.617 3.812H191.851C195.667 3.812 196.909 6.422 196.909 8.798V9.104C196.909 11.282 195.631 14.198 191.833 14.198H191.581C189.295 14.198 188.071 13.154 187.639 12.722V17.438H184.129ZM211.825 9.122V9.356C211.825 13.1 208.981 14.27 205.579 14.27H205.219C201.709 14.27 198.847 12.902 198.847 8.15V7.088C198.847 2.282 201.241 0.698 205.921 0.698H206.731C207.847 0.698 207.919 0.589999 207.955 0.373999H211.393C211.393 2.48 210.601 3.362 208.153 3.362H205.921C203.329 3.362 202.339 4.172 202.285 5.99C203.203 5.036 204.607 4.388 206.821 4.388H206.929C209.305 4.388 211.825 5.594 211.825 9.122ZM205.255 11.642H205.453C207.037 11.642 208.207 10.85 208.207 9.212C208.207 7.628 207.019 6.854 205.471 6.854H205.255C203.527 6.854 202.465 7.592 202.465 9.23C202.465 10.886 203.545 11.642 205.255 11.642ZM220.053 6.08C218.235 6.08 217.551 6.818 217.371 7.862H222.663C222.663 7.124 222.303 6.08 220.053 6.08ZM222.735 10.886H226.389C226.389 11.714 225.741 14.234 220.575 14.234H219.909C214.977 14.234 213.753 11.534 213.753 9.14V8.888C213.753 6.638 214.869 3.794 219.603 3.794H220.395C225.507 3.794 226.425 6.638 226.425 9.428V9.752H217.335C217.479 10.904 218.217 11.84 220.359 11.84C222.393 11.84 222.645 11.048 222.735 10.886ZM239.955 11.048V11.156C239.955 13.154 238.281 14.27 234.447 14.27H234.123C230.019 14.27 228.237 12.74 228.237 10.67V10.526H231.999C232.053 11.642 233.079 12.056 234.303 12.056C235.617 12.056 236.337 11.66 236.337 10.868V10.814C236.337 10.076 235.761 9.896 234.753 9.896H232.377V7.754H234.753C235.527 7.754 236.013 7.448 236.013 6.872V6.818C236.013 6.224 235.419 5.918 234.213 5.918C232.863 5.918 232.143 6.242 232.089 6.944H228.327V6.89C228.327 4.748 230.829 3.74 234.087 3.74H234.375C237.741 3.74 239.631 4.55 239.631 6.422V6.494C239.631 8.006 238.479 8.582 237.651 8.78C238.659 8.978 239.955 9.464 239.955 11.048ZM248.663 14.27H248.105C242.723 14.27 241.895 10.994 241.895 9.176V8.924C241.895 7.124 242.723 3.74 248.087 3.74H248.681C254.225 3.74 254.873 7.142 254.873 8.906V9.194C254.873 10.994 254.225 14.27 248.663 14.27ZM248.285 11.642H248.483C250.697 11.642 251.255 10.058 251.255 8.96C251.255 7.826 250.697 6.314 248.483 6.314H248.285C245.981 6.314 245.513 7.826 245.513 8.96C245.513 10.058 245.981 11.642 248.285 11.642ZM257.288 14V4.01H268.844V14H265.334V6.674H260.798V14H257.288ZM276.471 12.002C278.523 12.002 279.225 10.706 279.225 9.95V9.176C278.919 9.302 278.037 9.482 277.029 9.644C275.337 9.932 274.797 10.166 274.797 10.868V10.904C274.797 11.534 275.247 12.002 276.471 12.002ZM279.333 12.614C278.901 13.136 277.821 14.198 275.481 14.198H275.193C272.403 14.198 271.251 12.686 271.251 11.03V10.958C271.251 9.23 272.349 8.168 275.733 7.88L278.469 7.646C279.027 7.592 279.225 7.412 279.225 6.998C279.225 6.53 279.081 6.026 277.137 6.026C275.301 6.026 275.121 6.746 275.121 7.124H271.521V7.088C271.521 6.098 271.917 3.776 276.831 3.776H277.389C282.339 3.776 282.645 5.81 282.645 7.142V10.436C282.645 11.066 282.771 11.318 283.473 11.318H283.851V14H281.007C279.963 14 279.477 13.262 279.333 12.614ZM294.205 10.076H297.877C297.877 11.588 296.977 14.27 292.171 14.27H291.289C286.303 14.27 285.367 11.03 285.367 9.14V8.888C285.367 6.998 286.249 3.74 291.271 3.74H292.099C296.923 3.74 297.877 6.368 297.877 7.808V7.826H294.205C294.151 7.538 293.809 6.296 291.739 6.296H291.559C289.489 6.296 289.003 7.718 289.003 8.924V8.942C289.003 10.184 289.597 11.66 291.631 11.66H291.811C293.899 11.66 294.205 10.31 294.205 10.076ZM303.777 14H300.267V4.01H303.777V7.646H308.673V4.01H312.183V14H308.673V10.31H303.777V14ZM321.367 14.27H320.809C315.427 14.27 314.599 10.994 314.599 9.176V8.924C314.599 7.124 315.427 3.74 320.791 3.74H321.385C326.929 3.74 327.577 7.142 327.577 8.906V9.194C327.577 10.994 326.929 14.27 321.367 14.27ZM320.989 11.642H321.187C323.401 11.642 323.959 10.058 323.959 8.96C323.959 7.826 323.401 6.314 321.187 6.314H320.989C318.685 6.314 318.217 7.826 318.217 8.96C318.217 10.058 318.685 11.642 320.989 11.642ZM338.343 10.076H342.015C342.015 11.588 341.115 14.27 336.309 14.27H335.427C330.441 14.27 329.505 11.03 329.505 9.14V8.888C329.505 6.998 330.387 3.74 335.409 3.74H336.237C341.061 3.74 342.015 6.368 342.015 7.808V7.826H338.343C338.289 7.538 337.947 6.296 335.877 6.296H335.697C333.627 6.296 333.141 7.718 333.141 8.924V8.942C333.141 10.184 333.735 11.66 335.769 11.66H335.949C338.037 11.66 338.343 10.31 338.343 10.076ZM347.267 14V6.674H343.397V4.01H354.647V6.674H350.777V14H347.267ZM364.976 7.952L360.152 14H356.552V4.01H360.062V10.058L364.886 4.01H368.486V14H364.976V7.952Z" fill="#C1A875" style="mix-blend-mode:color"/>
<defs>
<linearGradient id="paint0_linear_2018_963" x1="1" y1="6" x2="540" y2="6.00007" gradientUnits="userSpaceOnUse">
<stop stop-color="#576167"/>
<stop offset="0.191294" stop-color="#9EA1A2"/>
<stop offset="0.396166" stop-color="#848989"/>
<stop offset="0.62055" stop-color="#576167"/>
<stop offset="0.830299" stop-color="#757A7C"/>
<stop offset="1" stop-color="#576167"/>
</linearGradient>
<radialGradient id="paint1_radial_2018_963" cx="0" cy="0" r="1" gradientUnits="userSpaceOnUse" gradientTransform="translate(288.045 -3.20225) rotate(89.9999) scale(17.8315 407.771)">
<stop stop-color="white"/>
<stop offset="1" stop-color="white" stop-opacity="0"/>
</radialGradient>
<radialGradient id="paint2_radial_2018_963" cx="0" cy="0" r="1" gradientUnits="userSpaceOnUse" gradientTransform="translate(318.533 23.6629) rotate(-88.0658) scale(25.5651 582.771)">
<stop stop-color="white"/>
<stop offset="1" stop-color="white" stop-opacity="0"/>
</radialGradient>
</defs>
</svg>
