<svg width="313" height="18" viewBox="0 0 313 18" fill="none" xmlns="http://www.w3.org/2000/svg">
<path d="M8.81325 14.198H7.93125C1.77525 14.198 0.893248 10.022 0.893248 7.646V7.232C0.893248 5.144 1.86525 0.446 7.93125 0.446H8.47125C13.8892 0.446 14.9872 2.768 14.9872 4.496V4.514H11.3152C11.3152 4.316 11.0632 3.308 8.27325 3.308C5.03325 3.308 4.67325 5.612 4.67325 6.71V6.836C5.01525 6.548 6.16725 5.54 9.22725 5.54H9.62325C13.9612 5.54 15.4732 7.322 15.4732 9.356V9.662C15.4732 11.444 14.5012 14.198 8.81325 14.198ZM5.17725 9.662V9.752C5.17725 10.4 5.71725 11.354 8.39925 11.354C11.3152 11.354 11.6572 10.364 11.6572 9.77V9.662C11.6572 9.014 11.2252 8.15 8.39925 8.15C5.66325 8.15 5.17725 9.014 5.17725 9.662ZM21.8078 10.508V14H17.6138V10.508H21.8078ZM30.656 14V0.608H35.588L39.854 9.68L44.246 0.608H48.872V14H45.254V5.234L41.186 14H38.288L34.22 5.234V14H30.656ZM58.2552 14.27H57.6972C52.3152 14.27 51.4872 10.994 51.4872 9.176V8.924C51.4872 7.124 52.3152 3.74 57.6792 3.74H58.2732C63.8172 3.74 64.4652 7.142 64.4652 8.906V9.194C64.4652 10.994 63.8172 14.27 58.2552 14.27ZM57.8772 11.642H58.0752C60.2892 11.642 60.8472 10.058 60.8472 8.96C60.8472 7.826 60.2892 6.314 58.0752 6.314H57.8772C55.5732 6.314 55.1052 7.826 55.1052 8.96C55.1052 10.058 55.5732 11.642 57.8772 11.642ZM74.8941 14V6.674H70.9341C70.9341 9.356 70.8441 10.85 70.5021 11.768C70.1241 12.776 69.6201 14 66.9741 14H65.8761V11.39H66.0921C66.7221 11.39 67.1901 11.174 67.3881 10.256C67.5321 9.482 67.5861 8.636 67.5861 4.01H78.4041V14H74.8941ZM87.5755 14.27H87.0175C81.6355 14.27 80.8075 10.994 80.8075 9.176V8.924C80.8075 7.124 81.6355 3.74 86.9995 3.74H87.5935C93.1375 3.74 93.7855 7.142 93.7855 8.906V9.194C93.7855 10.994 93.1375 14.27 87.5755 14.27ZM87.1975 11.642H87.3955C89.6095 11.642 90.1675 10.058 90.1675 8.96C90.1675 7.826 89.6095 6.314 87.3955 6.314H87.1975C84.8935 6.314 84.4255 7.826 84.4255 8.96C84.4255 10.058 84.8935 11.642 87.1975 11.642ZM95.1085 16.124V11.336H96.3145C96.9985 9.968 97.1065 6.998 97.1965 4.01H107.763V11.336H109.563V16.124H106.233V14H98.4385V16.124H95.1085ZM99.6265 11.336H104.253V6.674H100.347C100.293 7.97 100.113 9.95 99.6265 11.336ZM117.74 14.27H117.182C111.8 14.27 110.972 10.994 110.972 9.176V8.924C110.972 7.124 111.8 3.74 117.164 3.74H117.758C123.302 3.74 123.95 7.142 123.95 8.906V9.194C123.95 10.994 123.302 14.27 117.74 14.27ZM117.362 11.642H117.56C119.774 11.642 120.332 10.058 120.332 8.96C120.332 7.826 119.774 6.314 117.56 6.314H117.362C115.058 6.314 114.59 7.826 114.59 8.96C114.59 10.058 115.058 11.642 117.362 11.642ZM134.788 7.952L129.964 14H126.364V4.01H129.874V10.058L134.698 4.01H138.298V14H134.788V7.952ZM132.556 2.984H132.016C129.154 2.984 128.65 1.04 128.65 0.104V0.0499994H131.296C131.296 0.284 131.404 1.004 132.304 1.004C133.15 1.004 133.276 0.284 133.276 0.0499994H135.886V0.104C135.886 1.04 135.166 2.984 132.556 2.984ZM154.611 14V6.674H150.651C150.651 9.356 150.561 10.85 150.219 11.768C149.841 12.776 149.337 14 146.691 14H145.593V11.39H145.809C146.439 11.39 146.907 11.174 147.105 10.256C147.249 9.482 147.303 8.636 147.303 4.01H158.121V14H154.611ZM169.452 7.952L164.628 14H161.028V4.01H164.538V10.058L169.362 4.01H172.962V14H169.452V7.952ZM175.054 16.124V11.336H176.26C176.944 9.968 177.052 6.998 177.142 4.01H187.708V11.336H189.508V16.124H186.178V14H178.384V16.124H175.054ZM179.572 11.336H184.198V6.674H180.292C180.238 7.97 180.058 9.95 179.572 11.336ZM197.235 6.08C195.417 6.08 194.733 6.818 194.553 7.862H199.845C199.845 7.124 199.485 6.08 197.235 6.08ZM199.917 10.886H203.571C203.571 11.714 202.923 14.234 197.757 14.234H197.091C192.159 14.234 190.935 11.534 190.935 9.14V8.888C190.935 6.638 192.051 3.794 196.785 3.794H197.577C202.689 3.794 203.607 6.638 203.607 9.428V9.752H194.517C194.661 10.904 195.399 11.84 197.541 11.84C199.575 11.84 199.827 11.048 199.917 10.886ZM215.191 9.014V8.96C215.191 7.88 214.687 6.422 212.491 6.422H212.311C210.205 6.422 209.539 7.808 209.539 8.96V9.014C209.539 10.112 210.205 11.552 212.311 11.552H212.491C214.687 11.552 215.191 10.04 215.191 9.014ZM206.047 17.438V4.01H209.521V5.288C209.953 4.82 211.267 3.812 213.535 3.812H213.769C217.585 3.812 218.827 6.422 218.827 8.798V9.104C218.827 11.282 217.549 14.198 213.751 14.198H213.499C211.213 14.198 209.989 13.154 209.557 12.722V17.438H206.047ZM234.716 14H226.472V4.01H234.356C236.642 4.01 238.082 4.82 238.082 6.404V6.494C238.082 7.736 237.29 8.474 236.084 8.672C237.308 8.816 238.406 9.68 238.406 11.12V11.192C238.406 13.01 237.218 14 234.716 14ZM229.982 7.988H233.204C234.05 7.988 234.482 7.664 234.482 7.034V6.944C234.482 6.368 234.086 6.026 233.204 6.026H229.982V7.988ZM229.982 11.984H233.348C234.284 11.984 234.806 11.678 234.806 10.976V10.832C234.806 10.202 234.374 9.806 233.348 9.806H229.982V11.984ZM249.564 14H246.054V4.01H249.564V7.646H254.46V4.01H257.97V14H254.46V10.31H249.564V14ZM265.606 12.002C267.658 12.002 268.36 10.706 268.36 9.95V9.176C268.054 9.302 267.172 9.482 266.164 9.644C264.472 9.932 263.932 10.166 263.932 10.868V10.904C263.932 11.534 264.382 12.002 265.606 12.002ZM268.468 12.614C268.036 13.136 266.956 14.198 264.616 14.198H264.328C261.538 14.198 260.386 12.686 260.386 11.03V10.958C260.386 9.23 261.484 8.168 264.868 7.88L267.604 7.646C268.162 7.592 268.36 7.412 268.36 6.998C268.36 6.53 268.216 6.026 266.272 6.026C264.436 6.026 264.256 6.746 264.256 7.124H260.656V7.088C260.656 6.098 261.052 3.776 265.966 3.776H266.524C271.474 3.776 271.78 5.81 271.78 7.142V10.436C271.78 11.066 271.906 11.318 272.608 11.318H272.986V14H270.142C269.098 14 268.612 13.262 268.468 12.614ZM275.392 17.438V14.936H277.588C277.93 14.936 278.11 14.792 278.11 14.522V14.504C278.11 14.288 278.056 14.09 277.786 13.532L273.502 4.01H277.354L280.126 11.174L282.88 4.01H286.408L281.836 15.008C281.134 16.646 280.27 17.438 278.614 17.438H275.392ZM295.622 14L291.734 9.374V14H288.224V4.01H291.734V8.006L295.298 4.01H299.348L295.172 8.492L299.798 14H295.622ZM306.606 6.08C304.788 6.08 304.104 6.818 303.924 7.862H309.216C309.216 7.124 308.856 6.08 306.606 6.08ZM309.288 10.886H312.942C312.942 11.714 312.294 14.234 307.128 14.234H306.462C301.53 14.234 300.306 11.534 300.306 9.14V8.888C300.306 6.638 301.422 3.794 306.156 3.794H306.948C312.06 3.794 312.978 6.638 312.978 9.428V9.752H303.888C304.032 10.904 304.77 11.84 306.912 11.84C308.946 11.84 309.198 11.048 309.288 10.886Z" fill="url(#paint0_linear_2018_971)"/>
<path d="M8.81325 14.198H7.93125C1.77525 14.198 0.893248 10.022 0.893248 7.646V7.232C0.893248 5.144 1.86525 0.446 7.93125 0.446H8.47125C13.8892 0.446 14.9872 2.768 14.9872 4.496V4.514H11.3152C11.3152 4.316 11.0632 3.308 8.27325 3.308C5.03325 3.308 4.67325 5.612 4.67325 6.71V6.836C5.01525 6.548 6.16725 5.54 9.22725 5.54H9.62325C13.9612 5.54 15.4732 7.322 15.4732 9.356V9.662C15.4732 11.444 14.5012 14.198 8.81325 14.198ZM5.17725 9.662V9.752C5.17725 10.4 5.71725 11.354 8.39925 11.354C11.3152 11.354 11.6572 10.364 11.6572 9.77V9.662C11.6572 9.014 11.2252 8.15 8.39925 8.15C5.66325 8.15 5.17725 9.014 5.17725 9.662ZM21.8078 10.508V14H17.6138V10.508H21.8078ZM30.656 14V0.608H35.588L39.854 9.68L44.246 0.608H48.872V14H45.254V5.234L41.186 14H38.288L34.22 5.234V14H30.656ZM58.2552 14.27H57.6972C52.3152 14.27 51.4872 10.994 51.4872 9.176V8.924C51.4872 7.124 52.3152 3.74 57.6792 3.74H58.2732C63.8172 3.74 64.4652 7.142 64.4652 8.906V9.194C64.4652 10.994 63.8172 14.27 58.2552 14.27ZM57.8772 11.642H58.0752C60.2892 11.642 60.8472 10.058 60.8472 8.96C60.8472 7.826 60.2892 6.314 58.0752 6.314H57.8772C55.5732 6.314 55.1052 7.826 55.1052 8.96C55.1052 10.058 55.5732 11.642 57.8772 11.642ZM74.8941 14V6.674H70.9341C70.9341 9.356 70.8441 10.85 70.5021 11.768C70.1241 12.776 69.6201 14 66.9741 14H65.8761V11.39H66.0921C66.7221 11.39 67.1901 11.174 67.3881 10.256C67.5321 9.482 67.5861 8.636 67.5861 4.01H78.4041V14H74.8941ZM87.5755 14.27H87.0175C81.6355 14.27 80.8075 10.994 80.8075 9.176V8.924C80.8075 7.124 81.6355 3.74 86.9995 3.74H87.5935C93.1375 3.74 93.7855 7.142 93.7855 8.906V9.194C93.7855 10.994 93.1375 14.27 87.5755 14.27ZM87.1975 11.642H87.3955C89.6095 11.642 90.1675 10.058 90.1675 8.96C90.1675 7.826 89.6095 6.314 87.3955 6.314H87.1975C84.8935 6.314 84.4255 7.826 84.4255 8.96C84.4255 10.058 84.8935 11.642 87.1975 11.642ZM95.1085 16.124V11.336H96.3145C96.9985 9.968 97.1065 6.998 97.1965 4.01H107.763V11.336H109.563V16.124H106.233V14H98.4385V16.124H95.1085ZM99.6265 11.336H104.253V6.674H100.347C100.293 7.97 100.113 9.95 99.6265 11.336ZM117.74 14.27H117.182C111.8 14.27 110.972 10.994 110.972 9.176V8.924C110.972 7.124 111.8 3.74 117.164 3.74H117.758C123.302 3.74 123.95 7.142 123.95 8.906V9.194C123.95 10.994 123.302 14.27 117.74 14.27ZM117.362 11.642H117.56C119.774 11.642 120.332 10.058 120.332 8.96C120.332 7.826 119.774 6.314 117.56 6.314H117.362C115.058 6.314 114.59 7.826 114.59 8.96C114.59 10.058 115.058 11.642 117.362 11.642ZM134.788 7.952L129.964 14H126.364V4.01H129.874V10.058L134.698 4.01H138.298V14H134.788V7.952ZM132.556 2.984H132.016C129.154 2.984 128.65 1.04 128.65 0.104V0.0499994H131.296C131.296 0.284 131.404 1.004 132.304 1.004C133.15 1.004 133.276 0.284 133.276 0.0499994H135.886V0.104C135.886 1.04 135.166 2.984 132.556 2.984ZM154.611 14V6.674H150.651C150.651 9.356 150.561 10.85 150.219 11.768C149.841 12.776 149.337 14 146.691 14H145.593V11.39H145.809C146.439 11.39 146.907 11.174 147.105 10.256C147.249 9.482 147.303 8.636 147.303 4.01H158.121V14H154.611ZM169.452 7.952L164.628 14H161.028V4.01H164.538V10.058L169.362 4.01H172.962V14H169.452V7.952ZM175.054 16.124V11.336H176.26C176.944 9.968 177.052 6.998 177.142 4.01H187.708V11.336H189.508V16.124H186.178V14H178.384V16.124H175.054ZM179.572 11.336H184.198V6.674H180.292C180.238 7.97 180.058 9.95 179.572 11.336ZM197.235 6.08C195.417 6.08 194.733 6.818 194.553 7.862H199.845C199.845 7.124 199.485 6.08 197.235 6.08ZM199.917 10.886H203.571C203.571 11.714 202.923 14.234 197.757 14.234H197.091C192.159 14.234 190.935 11.534 190.935 9.14V8.888C190.935 6.638 192.051 3.794 196.785 3.794H197.577C202.689 3.794 203.607 6.638 203.607 9.428V9.752H194.517C194.661 10.904 195.399 11.84 197.541 11.84C199.575 11.84 199.827 11.048 199.917 10.886ZM215.191 9.014V8.96C215.191 7.88 214.687 6.422 212.491 6.422H212.311C210.205 6.422 209.539 7.808 209.539 8.96V9.014C209.539 10.112 210.205 11.552 212.311 11.552H212.491C214.687 11.552 215.191 10.04 215.191 9.014ZM206.047 17.438V4.01H209.521V5.288C209.953 4.82 211.267 3.812 213.535 3.812H213.769C217.585 3.812 218.827 6.422 218.827 8.798V9.104C218.827 11.282 217.549 14.198 213.751 14.198H213.499C211.213 14.198 209.989 13.154 209.557 12.722V17.438H206.047ZM234.716 14H226.472V4.01H234.356C236.642 4.01 238.082 4.82 238.082 6.404V6.494C238.082 7.736 237.29 8.474 236.084 8.672C237.308 8.816 238.406 9.68 238.406 11.12V11.192C238.406 13.01 237.218 14 234.716 14ZM229.982 7.988H233.204C234.05 7.988 234.482 7.664 234.482 7.034V6.944C234.482 6.368 234.086 6.026 233.204 6.026H229.982V7.988ZM229.982 11.984H233.348C234.284 11.984 234.806 11.678 234.806 10.976V10.832C234.806 10.202 234.374 9.806 233.348 9.806H229.982V11.984ZM249.564 14H246.054V4.01H249.564V7.646H254.46V4.01H257.97V14H254.46V10.31H249.564V14ZM265.606 12.002C267.658 12.002 268.36 10.706 268.36 9.95V9.176C268.054 9.302 267.172 9.482 266.164 9.644C264.472 9.932 263.932 10.166 263.932 10.868V10.904C263.932 11.534 264.382 12.002 265.606 12.002ZM268.468 12.614C268.036 13.136 266.956 14.198 264.616 14.198H264.328C261.538 14.198 260.386 12.686 260.386 11.03V10.958C260.386 9.23 261.484 8.168 264.868 7.88L267.604 7.646C268.162 7.592 268.36 7.412 268.36 6.998C268.36 6.53 268.216 6.026 266.272 6.026C264.436 6.026 264.256 6.746 264.256 7.124H260.656V7.088C260.656 6.098 261.052 3.776 265.966 3.776H266.524C271.474 3.776 271.78 5.81 271.78 7.142V10.436C271.78 11.066 271.906 11.318 272.608 11.318H272.986V14H270.142C269.098 14 268.612 13.262 268.468 12.614ZM275.392 17.438V14.936H277.588C277.93 14.936 278.11 14.792 278.11 14.522V14.504C278.11 14.288 278.056 14.09 277.786 13.532L273.502 4.01H277.354L280.126 11.174L282.88 4.01H286.408L281.836 15.008C281.134 16.646 280.27 17.438 278.614 17.438H275.392ZM295.622 14L291.734 9.374V14H288.224V4.01H291.734V8.006L295.298 4.01H299.348L295.172 8.492L299.798 14H295.622ZM306.606 6.08C304.788 6.08 304.104 6.818 303.924 7.862H309.216C309.216 7.124 308.856 6.08 306.606 6.08ZM309.288 10.886H312.942C312.942 11.714 312.294 14.234 307.128 14.234H306.462C301.53 14.234 300.306 11.534 300.306 9.14V8.888C300.306 6.638 301.422 3.794 306.156 3.794H306.948C312.06 3.794 312.978 6.638 312.978 9.428V9.752H303.888C304.032 10.904 304.77 11.84 306.912 11.84C308.946 11.84 309.198 11.048 309.288 10.886Z" fill="url(#paint1_radial_2018_971)" style="mix-blend-mode:overlay"/>
<path d="M8.81325 14.198H7.93125C1.77525 14.198 0.893248 10.022 0.893248 7.646V7.232C0.893248 5.144 1.86525 0.446 7.93125 0.446H8.47125C13.8892 0.446 14.9872 2.768 14.9872 4.496V4.514H11.3152C11.3152 4.316 11.0632 3.308 8.27325 3.308C5.03325 3.308 4.67325 5.612 4.67325 6.71V6.836C5.01525 6.548 6.16725 5.54 9.22725 5.54H9.62325C13.9612 5.54 15.4732 7.322 15.4732 9.356V9.662C15.4732 11.444 14.5012 14.198 8.81325 14.198ZM5.17725 9.662V9.752C5.17725 10.4 5.71725 11.354 8.39925 11.354C11.3152 11.354 11.6572 10.364 11.6572 9.77V9.662C11.6572 9.014 11.2252 8.15 8.39925 8.15C5.66325 8.15 5.17725 9.014 5.17725 9.662ZM21.8078 10.508V14H17.6138V10.508H21.8078ZM30.656 14V0.608H35.588L39.854 9.68L44.246 0.608H48.872V14H45.254V5.234L41.186 14H38.288L34.22 5.234V14H30.656ZM58.2552 14.27H57.6972C52.3152 14.27 51.4872 10.994 51.4872 9.176V8.924C51.4872 7.124 52.3152 3.74 57.6792 3.74H58.2732C63.8172 3.74 64.4652 7.142 64.4652 8.906V9.194C64.4652 10.994 63.8172 14.27 58.2552 14.27ZM57.8772 11.642H58.0752C60.2892 11.642 60.8472 10.058 60.8472 8.96C60.8472 7.826 60.2892 6.314 58.0752 6.314H57.8772C55.5732 6.314 55.1052 7.826 55.1052 8.96C55.1052 10.058 55.5732 11.642 57.8772 11.642ZM74.8941 14V6.674H70.9341C70.9341 9.356 70.8441 10.85 70.5021 11.768C70.1241 12.776 69.6201 14 66.9741 14H65.8761V11.39H66.0921C66.7221 11.39 67.1901 11.174 67.3881 10.256C67.5321 9.482 67.5861 8.636 67.5861 4.01H78.4041V14H74.8941ZM87.5755 14.27H87.0175C81.6355 14.27 80.8075 10.994 80.8075 9.176V8.924C80.8075 7.124 81.6355 3.74 86.9995 3.74H87.5935C93.1375 3.74 93.7855 7.142 93.7855 8.906V9.194C93.7855 10.994 93.1375 14.27 87.5755 14.27ZM87.1975 11.642H87.3955C89.6095 11.642 90.1675 10.058 90.1675 8.96C90.1675 7.826 89.6095 6.314 87.3955 6.314H87.1975C84.8935 6.314 84.4255 7.826 84.4255 8.96C84.4255 10.058 84.8935 11.642 87.1975 11.642ZM95.1085 16.124V11.336H96.3145C96.9985 9.968 97.1065 6.998 97.1965 4.01H107.763V11.336H109.563V16.124H106.233V14H98.4385V16.124H95.1085ZM99.6265 11.336H104.253V6.674H100.347C100.293 7.97 100.113 9.95 99.6265 11.336ZM117.74 14.27H117.182C111.8 14.27 110.972 10.994 110.972 9.176V8.924C110.972 7.124 111.8 3.74 117.164 3.74H117.758C123.302 3.74 123.95 7.142 123.95 8.906V9.194C123.95 10.994 123.302 14.27 117.74 14.27ZM117.362 11.642H117.56C119.774 11.642 120.332 10.058 120.332 8.96C120.332 7.826 119.774 6.314 117.56 6.314H117.362C115.058 6.314 114.59 7.826 114.59 8.96C114.59 10.058 115.058 11.642 117.362 11.642ZM134.788 7.952L129.964 14H126.364V4.01H129.874V10.058L134.698 4.01H138.298V14H134.788V7.952ZM132.556 2.984H132.016C129.154 2.984 128.65 1.04 128.65 0.104V0.0499994H131.296C131.296 0.284 131.404 1.004 132.304 1.004C133.15 1.004 133.276 0.284 133.276 0.0499994H135.886V0.104C135.886 1.04 135.166 2.984 132.556 2.984ZM154.611 14V6.674H150.651C150.651 9.356 150.561 10.85 150.219 11.768C149.841 12.776 149.337 14 146.691 14H145.593V11.39H145.809C146.439 11.39 146.907 11.174 147.105 10.256C147.249 9.482 147.303 8.636 147.303 4.01H158.121V14H154.611ZM169.452 7.952L164.628 14H161.028V4.01H164.538V10.058L169.362 4.01H172.962V14H169.452V7.952ZM175.054 16.124V11.336H176.26C176.944 9.968 177.052 6.998 177.142 4.01H187.708V11.336H189.508V16.124H186.178V14H178.384V16.124H175.054ZM179.572 11.336H184.198V6.674H180.292C180.238 7.97 180.058 9.95 179.572 11.336ZM197.235 6.08C195.417 6.08 194.733 6.818 194.553 7.862H199.845C199.845 7.124 199.485 6.08 197.235 6.08ZM199.917 10.886H203.571C203.571 11.714 202.923 14.234 197.757 14.234H197.091C192.159 14.234 190.935 11.534 190.935 9.14V8.888C190.935 6.638 192.051 3.794 196.785 3.794H197.577C202.689 3.794 203.607 6.638 203.607 9.428V9.752H194.517C194.661 10.904 195.399 11.84 197.541 11.84C199.575 11.84 199.827 11.048 199.917 10.886ZM215.191 9.014V8.96C215.191 7.88 214.687 6.422 212.491 6.422H212.311C210.205 6.422 209.539 7.808 209.539 8.96V9.014C209.539 10.112 210.205 11.552 212.311 11.552H212.491C214.687 11.552 215.191 10.04 215.191 9.014ZM206.047 17.438V4.01H209.521V5.288C209.953 4.82 211.267 3.812 213.535 3.812H213.769C217.585 3.812 218.827 6.422 218.827 8.798V9.104C218.827 11.282 217.549 14.198 213.751 14.198H213.499C211.213 14.198 209.989 13.154 209.557 12.722V17.438H206.047ZM234.716 14H226.472V4.01H234.356C236.642 4.01 238.082 4.82 238.082 6.404V6.494C238.082 7.736 237.29 8.474 236.084 8.672C237.308 8.816 238.406 9.68 238.406 11.12V11.192C238.406 13.01 237.218 14 234.716 14ZM229.982 7.988H233.204C234.05 7.988 234.482 7.664 234.482 7.034V6.944C234.482 6.368 234.086 6.026 233.204 6.026H229.982V7.988ZM229.982 11.984H233.348C234.284 11.984 234.806 11.678 234.806 10.976V10.832C234.806 10.202 234.374 9.806 233.348 9.806H229.982V11.984ZM249.564 14H246.054V4.01H249.564V7.646H254.46V4.01H257.97V14H254.46V10.31H249.564V14ZM265.606 12.002C267.658 12.002 268.36 10.706 268.36 9.95V9.176C268.054 9.302 267.172 9.482 266.164 9.644C264.472 9.932 263.932 10.166 263.932 10.868V10.904C263.932 11.534 264.382 12.002 265.606 12.002ZM268.468 12.614C268.036 13.136 266.956 14.198 264.616 14.198H264.328C261.538 14.198 260.386 12.686 260.386 11.03V10.958C260.386 9.23 261.484 8.168 264.868 7.88L267.604 7.646C268.162 7.592 268.36 7.412 268.36 6.998C268.36 6.53 268.216 6.026 266.272 6.026C264.436 6.026 264.256 6.746 264.256 7.124H260.656V7.088C260.656 6.098 261.052 3.776 265.966 3.776H266.524C271.474 3.776 271.78 5.81 271.78 7.142V10.436C271.78 11.066 271.906 11.318 272.608 11.318H272.986V14H270.142C269.098 14 268.612 13.262 268.468 12.614ZM275.392 17.438V14.936H277.588C277.93 14.936 278.11 14.792 278.11 14.522V14.504C278.11 14.288 278.056 14.09 277.786 13.532L273.502 4.01H277.354L280.126 11.174L282.88 4.01H286.408L281.836 15.008C281.134 16.646 280.27 17.438 278.614 17.438H275.392ZM295.622 14L291.734 9.374V14H288.224V4.01H291.734V8.006L295.298 4.01H299.348L295.172 8.492L299.798 14H295.622ZM306.606 6.08C304.788 6.08 304.104 6.818 303.924 7.862H309.216C309.216 7.124 308.856 6.08 306.606 6.08ZM309.288 10.886H312.942C312.942 11.714 312.294 14.234 307.128 14.234H306.462C301.53 14.234 300.306 11.534 300.306 9.14V8.888C300.306 6.638 301.422 3.794 306.156 3.794H306.948C312.06 3.794 312.978 6.638 312.978 9.428V9.752H303.888C304.032 10.904 304.77 11.84 306.912 11.84C308.946 11.84 309.198 11.048 309.288 10.886Z" fill="url(#paint2_radial_2018_971)"/>
<path d="M8.81325 14.198H7.93125C1.77525 14.198 0.893248 10.022 0.893248 7.646V7.232C0.893248 5.144 1.86525 0.446 7.93125 0.446H8.47125C13.8892 0.446 14.9872 2.768 14.9872 4.496V4.514H11.3152C11.3152 4.316 11.0632 3.308 8.27325 3.308C5.03325 3.308 4.67325 5.612 4.67325 6.71V6.836C5.01525 6.548 6.16725 5.54 9.22725 5.54H9.62325C13.9612 5.54 15.4732 7.322 15.4732 9.356V9.662C15.4732 11.444 14.5012 14.198 8.81325 14.198ZM5.17725 9.662V9.752C5.17725 10.4 5.71725 11.354 8.39925 11.354C11.3152 11.354 11.6572 10.364 11.6572 9.77V9.662C11.6572 9.014 11.2252 8.15 8.39925 8.15C5.66325 8.15 5.17725 9.014 5.17725 9.662ZM21.8078 10.508V14H17.6138V10.508H21.8078ZM30.656 14V0.608H35.588L39.854 9.68L44.246 0.608H48.872V14H45.254V5.234L41.186 14H38.288L34.22 5.234V14H30.656ZM58.2552 14.27H57.6972C52.3152 14.27 51.4872 10.994 51.4872 9.176V8.924C51.4872 7.124 52.3152 3.74 57.6792 3.74H58.2732C63.8172 3.74 64.4652 7.142 64.4652 8.906V9.194C64.4652 10.994 63.8172 14.27 58.2552 14.27ZM57.8772 11.642H58.0752C60.2892 11.642 60.8472 10.058 60.8472 8.96C60.8472 7.826 60.2892 6.314 58.0752 6.314H57.8772C55.5732 6.314 55.1052 7.826 55.1052 8.96C55.1052 10.058 55.5732 11.642 57.8772 11.642ZM74.8941 14V6.674H70.9341C70.9341 9.356 70.8441 10.85 70.5021 11.768C70.1241 12.776 69.6201 14 66.9741 14H65.8761V11.39H66.0921C66.7221 11.39 67.1901 11.174 67.3881 10.256C67.5321 9.482 67.5861 8.636 67.5861 4.01H78.4041V14H74.8941ZM87.5755 14.27H87.0175C81.6355 14.27 80.8075 10.994 80.8075 9.176V8.924C80.8075 7.124 81.6355 3.74 86.9995 3.74H87.5935C93.1375 3.74 93.7855 7.142 93.7855 8.906V9.194C93.7855 10.994 93.1375 14.27 87.5755 14.27ZM87.1975 11.642H87.3955C89.6095 11.642 90.1675 10.058 90.1675 8.96C90.1675 7.826 89.6095 6.314 87.3955 6.314H87.1975C84.8935 6.314 84.4255 7.826 84.4255 8.96C84.4255 10.058 84.8935 11.642 87.1975 11.642ZM95.1085 16.124V11.336H96.3145C96.9985 9.968 97.1065 6.998 97.1965 4.01H107.763V11.336H109.563V16.124H106.233V14H98.4385V16.124H95.1085ZM99.6265 11.336H104.253V6.674H100.347C100.293 7.97 100.113 9.95 99.6265 11.336ZM117.74 14.27H117.182C111.8 14.27 110.972 10.994 110.972 9.176V8.924C110.972 7.124 111.8 3.74 117.164 3.74H117.758C123.302 3.74 123.95 7.142 123.95 8.906V9.194C123.95 10.994 123.302 14.27 117.74 14.27ZM117.362 11.642H117.56C119.774 11.642 120.332 10.058 120.332 8.96C120.332 7.826 119.774 6.314 117.56 6.314H117.362C115.058 6.314 114.59 7.826 114.59 8.96C114.59 10.058 115.058 11.642 117.362 11.642ZM134.788 7.952L129.964 14H126.364V4.01H129.874V10.058L134.698 4.01H138.298V14H134.788V7.952ZM132.556 2.984H132.016C129.154 2.984 128.65 1.04 128.65 0.104V0.0499994H131.296C131.296 0.284 131.404 1.004 132.304 1.004C133.15 1.004 133.276 0.284 133.276 0.0499994H135.886V0.104C135.886 1.04 135.166 2.984 132.556 2.984ZM154.611 14V6.674H150.651C150.651 9.356 150.561 10.85 150.219 11.768C149.841 12.776 149.337 14 146.691 14H145.593V11.39H145.809C146.439 11.39 146.907 11.174 147.105 10.256C147.249 9.482 147.303 8.636 147.303 4.01H158.121V14H154.611ZM169.452 7.952L164.628 14H161.028V4.01H164.538V10.058L169.362 4.01H172.962V14H169.452V7.952ZM175.054 16.124V11.336H176.26C176.944 9.968 177.052 6.998 177.142 4.01H187.708V11.336H189.508V16.124H186.178V14H178.384V16.124H175.054ZM179.572 11.336H184.198V6.674H180.292C180.238 7.97 180.058 9.95 179.572 11.336ZM197.235 6.08C195.417 6.08 194.733 6.818 194.553 7.862H199.845C199.845 7.124 199.485 6.08 197.235 6.08ZM199.917 10.886H203.571C203.571 11.714 202.923 14.234 197.757 14.234H197.091C192.159 14.234 190.935 11.534 190.935 9.14V8.888C190.935 6.638 192.051 3.794 196.785 3.794H197.577C202.689 3.794 203.607 6.638 203.607 9.428V9.752H194.517C194.661 10.904 195.399 11.84 197.541 11.84C199.575 11.84 199.827 11.048 199.917 10.886ZM215.191 9.014V8.96C215.191 7.88 214.687 6.422 212.491 6.422H212.311C210.205 6.422 209.539 7.808 209.539 8.96V9.014C209.539 10.112 210.205 11.552 212.311 11.552H212.491C214.687 11.552 215.191 10.04 215.191 9.014ZM206.047 17.438V4.01H209.521V5.288C209.953 4.82 211.267 3.812 213.535 3.812H213.769C217.585 3.812 218.827 6.422 218.827 8.798V9.104C218.827 11.282 217.549 14.198 213.751 14.198H213.499C211.213 14.198 209.989 13.154 209.557 12.722V17.438H206.047ZM234.716 14H226.472V4.01H234.356C236.642 4.01 238.082 4.82 238.082 6.404V6.494C238.082 7.736 237.29 8.474 236.084 8.672C237.308 8.816 238.406 9.68 238.406 11.12V11.192C238.406 13.01 237.218 14 234.716 14ZM229.982 7.988H233.204C234.05 7.988 234.482 7.664 234.482 7.034V6.944C234.482 6.368 234.086 6.026 233.204 6.026H229.982V7.988ZM229.982 11.984H233.348C234.284 11.984 234.806 11.678 234.806 10.976V10.832C234.806 10.202 234.374 9.806 233.348 9.806H229.982V11.984ZM249.564 14H246.054V4.01H249.564V7.646H254.46V4.01H257.97V14H254.46V10.31H249.564V14ZM265.606 12.002C267.658 12.002 268.36 10.706 268.36 9.95V9.176C268.054 9.302 267.172 9.482 266.164 9.644C264.472 9.932 263.932 10.166 263.932 10.868V10.904C263.932 11.534 264.382 12.002 265.606 12.002ZM268.468 12.614C268.036 13.136 266.956 14.198 264.616 14.198H264.328C261.538 14.198 260.386 12.686 260.386 11.03V10.958C260.386 9.23 261.484 8.168 264.868 7.88L267.604 7.646C268.162 7.592 268.36 7.412 268.36 6.998C268.36 6.53 268.216 6.026 266.272 6.026C264.436 6.026 264.256 6.746 264.256 7.124H260.656V7.088C260.656 6.098 261.052 3.776 265.966 3.776H266.524C271.474 3.776 271.78 5.81 271.78 7.142V10.436C271.78 11.066 271.906 11.318 272.608 11.318H272.986V14H270.142C269.098 14 268.612 13.262 268.468 12.614ZM275.392 17.438V14.936H277.588C277.93 14.936 278.11 14.792 278.11 14.522V14.504C278.11 14.288 278.056 14.09 277.786 13.532L273.502 4.01H277.354L280.126 11.174L282.88 4.01H286.408L281.836 15.008C281.134 16.646 280.27 17.438 278.614 17.438H275.392ZM295.622 14L291.734 9.374V14H288.224V4.01H291.734V8.006L295.298 4.01H299.348L295.172 8.492L299.798 14H295.622ZM306.606 6.08C304.788 6.08 304.104 6.818 303.924 7.862H309.216C309.216 7.124 308.856 6.08 306.606 6.08ZM309.288 10.886H312.942C312.942 11.714 312.294 14.234 307.128 14.234H306.462C301.53 14.234 300.306 11.534 300.306 9.14V8.888C300.306 6.638 301.422 3.794 306.156 3.794H306.948C312.06 3.794 312.978 6.638 312.978 9.428V9.752H303.888C304.032 10.904 304.77 11.84 306.912 11.84C308.946 11.84 309.198 11.048 309.288 10.886Z" fill="#C1A875" style="mix-blend-mode:color"/>
<defs>
<linearGradient id="paint0_linear_2018_971" x1="2" y1="6" x2="314" y2="6.00002" gradientUnits="userSpaceOnUse">
<stop stop-color="#576167"/>
<stop offset="0.191294" stop-color="#9EA1A2"/>
<stop offset="0.396166" stop-color="#848989"/>
<stop offset="0.62055" stop-color="#576167"/>
<stop offset="0.830299" stop-color="#757A7C"/>
<stop offset="1" stop-color="#576167"/>
</linearGradient>
<radialGradient id="paint1_radial_2018_971" cx="0" cy="0" r="1" gradientUnits="userSpaceOnUse" gradientTransform="translate(168.156 -3.20225) rotate(90) scale(17.8315 236.038)">
<stop stop-color="white"/>
<stop offset="1" stop-color="white" stop-opacity="0"/>
</radialGradient>
<radialGradient id="paint2_radial_2018_971" cx="0" cy="0" r="1" gradientUnits="userSpaceOnUse" gradientTransform="translate(185.804 23.6629) rotate(-88.8801) scale(25.5554 337.465)">
<stop stop-color="white"/>
<stop offset="1" stop-color="white" stop-opacity="0"/>
</radialGradient>
</defs>
</svg>
