<svg width="195" height="15" viewBox="0 0 195 15" fill="none" xmlns="http://www.w3.org/2000/svg">
<path d="M0.0912476 0.608H14.7072V3.38C14.0952 4.28 12.9252 6.026 11.7192 7.862C9.82925 10.706 9.45125 11.894 9.45125 13.64V14H5.40125V13.136C5.40125 10.976 5.95925 9.788 8.31725 7.142C9.90125 5.378 11.4132 3.758 11.4132 3.524H3.74525V5.846H0.0912476V0.608ZM20.8078 10.508V14H16.6138V10.508H20.8078ZM45.064 6.998V7.538C45.064 10.274 43.444 14.198 37.324 14.198H36.496C30.808 14.198 29.008 11.264 29.008 8.816V8.762H32.824C32.878 9.194 33.328 11.21 36.892 11.21C39.412 11.21 40.672 9.968 41.104 8.636H35.002V5.792H41.104C40.672 4.442 39.43 3.38 36.91 3.38C33.382 3.38 32.878 5.36 32.824 5.738H29.008V5.702C29.008 3.164 30.88 0.409999 36.496 0.409999H37.324C43.444 0.409999 45.064 4.208 45.064 6.998ZM55.015 14L51.127 9.374V14H47.617V4.01H51.127V8.006L54.691 4.01H58.741L54.565 8.492L59.191 14H55.015ZM66.4486 14.27H65.8906C60.5086 14.27 59.6806 10.994 59.6806 9.176V8.924C59.6806 7.124 60.5086 3.74 65.8726 3.74H66.4666C72.0106 3.74 72.6586 7.142 72.6586 8.906V9.194C72.6586 10.994 72.0106 14.27 66.4486 14.27ZM66.0706 11.642H66.2686C68.4826 11.642 69.0406 10.058 69.0406 8.96C69.0406 7.826 68.4826 6.314 66.2686 6.314H66.0706C63.7666 6.314 63.2986 7.826 63.2986 8.96C63.2986 10.058 63.7666 11.642 66.0706 11.642ZM74.9472 7.142H80.8692V10.076H74.9472V7.142ZM92.6464 8.762L90.2164 3.308L87.8584 8.762H92.6464ZM94.9864 14L93.8884 11.516H86.6524L85.5724 14H81.8464L87.7864 0.608H92.7544L98.9644 14H94.9864ZM108.048 14L104.16 9.374V14H100.65V4.01H104.16V8.006L107.724 4.01H111.774L107.598 8.492L112.224 14H108.048ZM116.537 14V6.674H112.667V4.01H123.917V6.674H120.047V14H116.537ZM134.245 7.952L129.421 14H125.821V4.01H129.331V10.058L134.155 4.01H137.755V14H134.245V7.952ZM148.919 14H140.675V4.01H148.559C150.845 4.01 152.285 4.82 152.285 6.404V6.494C152.285 7.736 151.493 8.474 150.287 8.672C151.511 8.816 152.609 9.68 152.609 11.12V11.192C152.609 13.01 151.421 14 148.919 14ZM144.185 7.988H147.407C148.253 7.988 148.685 7.664 148.685 7.034V6.944C148.685 6.368 148.289 6.026 147.407 6.026H144.185V7.988ZM144.185 11.984H147.551C148.487 11.984 149.009 11.678 149.009 10.976V10.832C149.009 10.202 148.577 9.806 147.551 9.806H144.185V11.984ZM163.478 7.952L158.654 14H155.054V4.01H158.564V10.058L163.388 4.01H166.988V14H163.478V7.952ZM178.259 10.076H181.931C181.931 11.588 181.031 14.27 176.225 14.27H175.343C170.357 14.27 169.421 11.03 169.421 9.14V8.888C169.421 6.998 170.303 3.74 175.325 3.74H176.153C180.977 3.74 181.931 6.368 181.931 7.808V7.826H178.259C178.205 7.538 177.863 6.296 175.793 6.296H175.613C173.543 6.296 173.057 7.718 173.057 8.924V8.942C173.057 10.184 173.651 11.66 175.685 11.66H175.865C177.953 11.66 178.259 10.31 178.259 10.076ZM187.183 14V6.674H183.313V4.01H194.563V6.674H190.693V14H187.183Z" fill="url(#paint0_linear_2018_978)"/>
<path d="M0.0912476 0.608H14.7072V3.38C14.0952 4.28 12.9252 6.026 11.7192 7.862C9.82925 10.706 9.45125 11.894 9.45125 13.64V14H5.40125V13.136C5.40125 10.976 5.95925 9.788 8.31725 7.142C9.90125 5.378 11.4132 3.758 11.4132 3.524H3.74525V5.846H0.0912476V0.608ZM20.8078 10.508V14H16.6138V10.508H20.8078ZM45.064 6.998V7.538C45.064 10.274 43.444 14.198 37.324 14.198H36.496C30.808 14.198 29.008 11.264 29.008 8.816V8.762H32.824C32.878 9.194 33.328 11.21 36.892 11.21C39.412 11.21 40.672 9.968 41.104 8.636H35.002V5.792H41.104C40.672 4.442 39.43 3.38 36.91 3.38C33.382 3.38 32.878 5.36 32.824 5.738H29.008V5.702C29.008 3.164 30.88 0.409999 36.496 0.409999H37.324C43.444 0.409999 45.064 4.208 45.064 6.998ZM55.015 14L51.127 9.374V14H47.617V4.01H51.127V8.006L54.691 4.01H58.741L54.565 8.492L59.191 14H55.015ZM66.4486 14.27H65.8906C60.5086 14.27 59.6806 10.994 59.6806 9.176V8.924C59.6806 7.124 60.5086 3.74 65.8726 3.74H66.4666C72.0106 3.74 72.6586 7.142 72.6586 8.906V9.194C72.6586 10.994 72.0106 14.27 66.4486 14.27ZM66.0706 11.642H66.2686C68.4826 11.642 69.0406 10.058 69.0406 8.96C69.0406 7.826 68.4826 6.314 66.2686 6.314H66.0706C63.7666 6.314 63.2986 7.826 63.2986 8.96C63.2986 10.058 63.7666 11.642 66.0706 11.642ZM74.9472 7.142H80.8692V10.076H74.9472V7.142ZM92.6464 8.762L90.2164 3.308L87.8584 8.762H92.6464ZM94.9864 14L93.8884 11.516H86.6524L85.5724 14H81.8464L87.7864 0.608H92.7544L98.9644 14H94.9864ZM108.048 14L104.16 9.374V14H100.65V4.01H104.16V8.006L107.724 4.01H111.774L107.598 8.492L112.224 14H108.048ZM116.537 14V6.674H112.667V4.01H123.917V6.674H120.047V14H116.537ZM134.245 7.952L129.421 14H125.821V4.01H129.331V10.058L134.155 4.01H137.755V14H134.245V7.952ZM148.919 14H140.675V4.01H148.559C150.845 4.01 152.285 4.82 152.285 6.404V6.494C152.285 7.736 151.493 8.474 150.287 8.672C151.511 8.816 152.609 9.68 152.609 11.12V11.192C152.609 13.01 151.421 14 148.919 14ZM144.185 7.988H147.407C148.253 7.988 148.685 7.664 148.685 7.034V6.944C148.685 6.368 148.289 6.026 147.407 6.026H144.185V7.988ZM144.185 11.984H147.551C148.487 11.984 149.009 11.678 149.009 10.976V10.832C149.009 10.202 148.577 9.806 147.551 9.806H144.185V11.984ZM163.478 7.952L158.654 14H155.054V4.01H158.564V10.058L163.388 4.01H166.988V14H163.478V7.952ZM178.259 10.076H181.931C181.931 11.588 181.031 14.27 176.225 14.27H175.343C170.357 14.27 169.421 11.03 169.421 9.14V8.888C169.421 6.998 170.303 3.74 175.325 3.74H176.153C180.977 3.74 181.931 6.368 181.931 7.808V7.826H178.259C178.205 7.538 177.863 6.296 175.793 6.296H175.613C173.543 6.296 173.057 7.718 173.057 8.924V8.942C173.057 10.184 173.651 11.66 175.685 11.66H175.865C177.953 11.66 178.259 10.31 178.259 10.076ZM187.183 14V6.674H183.313V4.01H194.563V6.674H190.693V14H187.183Z" fill="url(#paint1_radial_2018_978)" style="mix-blend-mode:overlay"/>
<path d="M0.0912476 0.608H14.7072V3.38C14.0952 4.28 12.9252 6.026 11.7192 7.862C9.82925 10.706 9.45125 11.894 9.45125 13.64V14H5.40125V13.136C5.40125 10.976 5.95925 9.788 8.31725 7.142C9.90125 5.378 11.4132 3.758 11.4132 3.524H3.74525V5.846H0.0912476V0.608ZM20.8078 10.508V14H16.6138V10.508H20.8078ZM45.064 6.998V7.538C45.064 10.274 43.444 14.198 37.324 14.198H36.496C30.808 14.198 29.008 11.264 29.008 8.816V8.762H32.824C32.878 9.194 33.328 11.21 36.892 11.21C39.412 11.21 40.672 9.968 41.104 8.636H35.002V5.792H41.104C40.672 4.442 39.43 3.38 36.91 3.38C33.382 3.38 32.878 5.36 32.824 5.738H29.008V5.702C29.008 3.164 30.88 0.409999 36.496 0.409999H37.324C43.444 0.409999 45.064 4.208 45.064 6.998ZM55.015 14L51.127 9.374V14H47.617V4.01H51.127V8.006L54.691 4.01H58.741L54.565 8.492L59.191 14H55.015ZM66.4486 14.27H65.8906C60.5086 14.27 59.6806 10.994 59.6806 9.176V8.924C59.6806 7.124 60.5086 3.74 65.8726 3.74H66.4666C72.0106 3.74 72.6586 7.142 72.6586 8.906V9.194C72.6586 10.994 72.0106 14.27 66.4486 14.27ZM66.0706 11.642H66.2686C68.4826 11.642 69.0406 10.058 69.0406 8.96C69.0406 7.826 68.4826 6.314 66.2686 6.314H66.0706C63.7666 6.314 63.2986 7.826 63.2986 8.96C63.2986 10.058 63.7666 11.642 66.0706 11.642ZM74.9472 7.142H80.8692V10.076H74.9472V7.142ZM92.6464 8.762L90.2164 3.308L87.8584 8.762H92.6464ZM94.9864 14L93.8884 11.516H86.6524L85.5724 14H81.8464L87.7864 0.608H92.7544L98.9644 14H94.9864ZM108.048 14L104.16 9.374V14H100.65V4.01H104.16V8.006L107.724 4.01H111.774L107.598 8.492L112.224 14H108.048ZM116.537 14V6.674H112.667V4.01H123.917V6.674H120.047V14H116.537ZM134.245 7.952L129.421 14H125.821V4.01H129.331V10.058L134.155 4.01H137.755V14H134.245V7.952ZM148.919 14H140.675V4.01H148.559C150.845 4.01 152.285 4.82 152.285 6.404V6.494C152.285 7.736 151.493 8.474 150.287 8.672C151.511 8.816 152.609 9.68 152.609 11.12V11.192C152.609 13.01 151.421 14 148.919 14ZM144.185 7.988H147.407C148.253 7.988 148.685 7.664 148.685 7.034V6.944C148.685 6.368 148.289 6.026 147.407 6.026H144.185V7.988ZM144.185 11.984H147.551C148.487 11.984 149.009 11.678 149.009 10.976V10.832C149.009 10.202 148.577 9.806 147.551 9.806H144.185V11.984ZM163.478 7.952L158.654 14H155.054V4.01H158.564V10.058L163.388 4.01H166.988V14H163.478V7.952ZM178.259 10.076H181.931C181.931 11.588 181.031 14.27 176.225 14.27H175.343C170.357 14.27 169.421 11.03 169.421 9.14V8.888C169.421 6.998 170.303 3.74 175.325 3.74H176.153C180.977 3.74 181.931 6.368 181.931 7.808V7.826H178.259C178.205 7.538 177.863 6.296 175.793 6.296H175.613C173.543 6.296 173.057 7.718 173.057 8.924V8.942C173.057 10.184 173.651 11.66 175.685 11.66H175.865C177.953 11.66 178.259 10.31 178.259 10.076ZM187.183 14V6.674H183.313V4.01H194.563V6.674H190.693V14H187.183Z" fill="url(#paint2_radial_2018_978)"/>
<path d="M0.0912476 0.608H14.7072V3.38C14.0952 4.28 12.9252 6.026 11.7192 7.862C9.82925 10.706 9.45125 11.894 9.45125 13.64V14H5.40125V13.136C5.40125 10.976 5.95925 9.788 8.31725 7.142C9.90125 5.378 11.4132 3.758 11.4132 3.524H3.74525V5.846H0.0912476V0.608ZM20.8078 10.508V14H16.6138V10.508H20.8078ZM45.064 6.998V7.538C45.064 10.274 43.444 14.198 37.324 14.198H36.496C30.808 14.198 29.008 11.264 29.008 8.816V8.762H32.824C32.878 9.194 33.328 11.21 36.892 11.21C39.412 11.21 40.672 9.968 41.104 8.636H35.002V5.792H41.104C40.672 4.442 39.43 3.38 36.91 3.38C33.382 3.38 32.878 5.36 32.824 5.738H29.008V5.702C29.008 3.164 30.88 0.409999 36.496 0.409999H37.324C43.444 0.409999 45.064 4.208 45.064 6.998ZM55.015 14L51.127 9.374V14H47.617V4.01H51.127V8.006L54.691 4.01H58.741L54.565 8.492L59.191 14H55.015ZM66.4486 14.27H65.8906C60.5086 14.27 59.6806 10.994 59.6806 9.176V8.924C59.6806 7.124 60.5086 3.74 65.8726 3.74H66.4666C72.0106 3.74 72.6586 7.142 72.6586 8.906V9.194C72.6586 10.994 72.0106 14.27 66.4486 14.27ZM66.0706 11.642H66.2686C68.4826 11.642 69.0406 10.058 69.0406 8.96C69.0406 7.826 68.4826 6.314 66.2686 6.314H66.0706C63.7666 6.314 63.2986 7.826 63.2986 8.96C63.2986 10.058 63.7666 11.642 66.0706 11.642ZM74.9472 7.142H80.8692V10.076H74.9472V7.142ZM92.6464 8.762L90.2164 3.308L87.8584 8.762H92.6464ZM94.9864 14L93.8884 11.516H86.6524L85.5724 14H81.8464L87.7864 0.608H92.7544L98.9644 14H94.9864ZM108.048 14L104.16 9.374V14H100.65V4.01H104.16V8.006L107.724 4.01H111.774L107.598 8.492L112.224 14H108.048ZM116.537 14V6.674H112.667V4.01H123.917V6.674H120.047V14H116.537ZM134.245 7.952L129.421 14H125.821V4.01H129.331V10.058L134.155 4.01H137.755V14H134.245V7.952ZM148.919 14H140.675V4.01H148.559C150.845 4.01 152.285 4.82 152.285 6.404V6.494C152.285 7.736 151.493 8.474 150.287 8.672C151.511 8.816 152.609 9.68 152.609 11.12V11.192C152.609 13.01 151.421 14 148.919 14ZM144.185 7.988H147.407C148.253 7.988 148.685 7.664 148.685 7.034V6.944C148.685 6.368 148.289 6.026 147.407 6.026H144.185V7.988ZM144.185 11.984H147.551C148.487 11.984 149.009 11.678 149.009 10.976V10.832C149.009 10.202 148.577 9.806 147.551 9.806H144.185V11.984ZM163.478 7.952L158.654 14H155.054V4.01H158.564V10.058L163.388 4.01H166.988V14H163.478V7.952ZM178.259 10.076H181.931C181.931 11.588 181.031 14.27 176.225 14.27H175.343C170.357 14.27 169.421 11.03 169.421 9.14V8.888C169.421 6.998 170.303 3.74 175.325 3.74H176.153C180.977 3.74 181.931 6.368 181.931 7.808V7.826H178.259C178.205 7.538 177.863 6.296 175.793 6.296H175.613C173.543 6.296 173.057 7.718 173.057 8.924V8.942C173.057 10.184 173.651 11.66 175.685 11.66H175.865C177.953 11.66 178.259 10.31 178.259 10.076ZM187.183 14V6.674H183.313V4.01H194.563V6.674H190.693V14H187.183Z" fill="#C1A875" style="mix-blend-mode:color"/>
<defs>
<linearGradient id="paint0_linear_2018_978" x1="1" y1="6" x2="196" y2="6.00001" gradientUnits="userSpaceOnUse">
<stop stop-color="#576167"/>
<stop offset="0.191294" stop-color="#9EA1A2"/>
<stop offset="0.396166" stop-color="#848989"/>
<stop offset="0.62055" stop-color="#576167"/>
<stop offset="0.830299" stop-color="#757A7C"/>
<stop offset="1" stop-color="#576167"/>
</linearGradient>
<radialGradient id="paint1_radial_2018_978" cx="0" cy="0" r="1" gradientUnits="userSpaceOnUse" gradientTransform="translate(104.847 -3.20225) rotate(90) scale(17.8315 147.524)">
<stop stop-color="white"/>
<stop offset="1" stop-color="white" stop-opacity="0"/>
</radialGradient>
<radialGradient id="paint2_radial_2018_978" cx="0" cy="0" r="1" gradientUnits="userSpaceOnUse" gradientTransform="translate(115.877 23.6629) rotate(-89.3) scale(25.5525 210.94)">
<stop stop-color="white"/>
<stop offset="1" stop-color="white" stop-opacity="0"/>
</radialGradient>
</defs>
</svg>
