<svg width="279" height="18" viewBox="0 0 279 18" fill="none" xmlns="http://www.w3.org/2000/svg">
<path d="M7.76925 0.481999H8.52525C14.5192 0.481999 15.0772 2.714 15.0772 4.082V4.298C15.0772 5.756 13.7272 6.746 12.3952 6.98C14.0152 7.268 15.4012 8.33 15.4012 9.968V10.202C15.4012 11.66 14.6632 14.216 8.52525 14.216H7.76925C1.59525 14.216 0.893248 11.66 0.893248 10.202V9.968C0.893248 8.33 2.29725 7.268 3.88125 6.98C2.58525 6.746 1.21725 5.846 1.21725 4.298V4.082C1.21725 2.714 1.81125 0.481999 7.76925 0.481999ZM8.14725 3.2C5.48325 3.2 5.12325 3.938 5.12325 4.442V4.514C5.12325 5.036 5.50125 5.684 8.14725 5.684C10.8112 5.684 11.1532 5.036 11.1532 4.514V4.442C11.1532 3.938 10.8292 3.2 8.14725 3.2ZM8.14725 8.42C5.19525 8.42 4.79925 9.212 4.79925 9.77V9.824C4.79925 10.436 5.19525 11.336 8.14725 11.336C11.0992 11.336 11.4952 10.436 11.4952 9.824V9.77C11.4952 9.212 11.0992 8.42 8.14725 8.42ZM21.8078 10.508V14H17.6138V10.508H21.8078ZM40.808 14L34.364 7.7V14H30.656V0.608H34.364V6.116L40.628 0.608H45.344L38.288 6.746L45.65 14H40.808ZM46.6476 17.438V14.936H48.8436C49.1856 14.936 49.3656 14.792 49.3656 14.522V14.504C49.3656 14.288 49.3116 14.09 49.0416 13.532L44.7576 4.01H48.6096L51.3816 11.174L54.1356 4.01H57.6636L53.0916 15.008C52.3896 16.646 51.5256 17.438 49.8696 17.438H46.6476ZM67.2828 14V6.674H63.3228C63.3228 9.356 63.2328 10.85 62.8908 11.768C62.5128 12.776 62.0088 14 59.3628 14H58.2648V11.39H58.4808C59.1108 11.39 59.5788 11.174 59.7768 10.256C59.9208 9.482 59.9748 8.636 59.9748 4.01H70.7928V14H67.2828ZM73.7002 14V4.01H77.2102V6.872H79.9462C83.3662 6.872 84.6982 8.384 84.6982 10.292V10.508C84.6982 12.596 83.3662 14 79.9462 14H73.7002ZM77.2102 11.624H79.5142C80.2342 11.624 81.0982 11.408 81.0982 10.436V10.382C81.0982 9.482 80.2342 9.248 79.5142 9.248H77.2102V11.624ZM89.0954 14V6.674H85.2254V4.01H96.4754V6.674H92.6054V14H89.0954ZM99.1359 17.438V14.936H101.332C101.674 14.936 101.854 14.792 101.854 14.522V14.504C101.854 14.288 101.8 14.09 101.53 13.532L97.2459 4.01H101.098L103.87 11.174L106.624 4.01H110.152L105.58 15.008C104.878 16.646 104.014 17.438 102.358 17.438H99.1359ZM121.113 9.014V8.96C121.113 7.88 120.609 6.422 118.413 6.422H118.233C116.127 6.422 115.461 7.808 115.461 8.96V9.014C115.461 10.112 116.127 11.552 118.233 11.552H118.413C120.609 11.552 121.113 10.04 121.113 9.014ZM111.969 17.438V4.01H115.443V5.288C115.875 4.82 117.189 3.812 119.457 3.812H119.691C123.507 3.812 124.749 6.422 124.749 8.798V9.104C124.749 11.282 123.471 14.198 119.673 14.198H119.421C117.135 14.198 115.911 13.154 115.479 12.722V17.438H111.969ZM130.7 14H127.19V4.01H130.7V7.646H135.596V4.01H139.106V14H135.596V10.31H130.7V14ZM142.026 14V4.01H145.536V6.872H148.272C151.692 6.872 153.024 8.384 153.024 10.292V10.508C153.024 12.596 151.692 14 148.272 14H142.026ZM145.536 11.624H147.84C148.56 11.624 149.424 11.408 149.424 10.436V10.382C149.424 9.482 148.56 9.248 147.84 9.248H145.536V11.624ZM157.812 4.01V14H154.302V4.01H157.812ZM169.153 7.952L164.329 14H160.729V4.01H164.239V10.058L169.063 4.01H172.663V14H169.153V7.952ZM166.921 2.984H166.381C163.519 2.984 163.015 1.04 163.015 0.104V0.0499994H165.661C165.661 0.284 165.769 1.004 166.669 1.004C167.515 1.004 167.641 0.284 167.641 0.0499994H170.251V0.104C170.251 1.04 169.531 2.984 166.921 2.984ZM184.296 14H180.786V4.01H184.296V7.646H189.192V4.01H192.702V14H189.192V10.31H184.296V14ZM201.886 14.27H201.328C195.946 14.27 195.118 10.994 195.118 9.176V8.924C195.118 7.124 195.946 3.74 201.31 3.74H201.904C207.448 3.74 208.096 7.142 208.096 8.906V9.194C208.096 10.994 207.448 14.27 201.886 14.27ZM201.508 11.642H201.706C203.92 11.642 204.478 10.058 204.478 8.96C204.478 7.826 203.92 6.314 201.706 6.314H201.508C199.204 6.314 198.736 7.826 198.736 8.96C198.736 10.058 199.204 11.642 201.508 11.642ZM218.755 14H210.511V4.01H218.395C220.681 4.01 222.121 4.82 222.121 6.404V6.494C222.121 7.736 221.329 8.474 220.123 8.672C221.347 8.816 222.445 9.68 222.445 11.12V11.192C222.445 13.01 221.257 14 218.755 14ZM214.021 7.988H217.243C218.089 7.988 218.521 7.664 218.521 7.034V6.944C218.521 6.368 218.125 6.026 217.243 6.026H214.021V7.988ZM214.021 11.984H217.387C218.323 11.984 218.845 11.678 218.845 10.976V10.832C218.845 10.202 218.413 9.806 217.387 9.806H214.021V11.984ZM229.518 12.002C231.57 12.002 232.272 10.706 232.272 9.95V9.176C231.966 9.302 231.084 9.482 230.076 9.644C228.384 9.932 227.844 10.166 227.844 10.868V10.904C227.844 11.534 228.294 12.002 229.518 12.002ZM232.38 12.614C231.948 13.136 230.868 14.198 228.528 14.198H228.24C225.45 14.198 224.298 12.686 224.298 11.03V10.958C224.298 9.23 225.396 8.168 228.78 7.88L231.516 7.646C232.074 7.592 232.272 7.412 232.272 6.998C232.272 6.53 232.128 6.026 230.184 6.026C228.348 6.026 228.168 6.746 228.168 7.124H224.568V7.088C224.568 6.098 224.964 3.776 229.878 3.776H230.436C235.386 3.776 235.692 5.81 235.692 7.142V10.436C235.692 11.066 235.818 11.318 236.52 11.318H236.898V14H234.054C233.01 14 232.524 13.262 232.38 12.614ZM241.586 14V6.674H237.716V4.01H248.966V6.674H245.096V14H241.586ZM257.134 14.27H256.576C251.194 14.27 250.366 10.994 250.366 9.176V8.924C250.366 7.124 251.194 3.74 256.558 3.74H257.152C262.696 3.74 263.344 7.142 263.344 8.906V9.194C263.344 10.994 262.696 14.27 257.134 14.27ZM256.756 11.642H256.954C259.168 11.642 259.726 10.058 259.726 8.96C259.726 7.826 259.168 6.314 256.954 6.314H256.756C254.452 6.314 253.984 7.826 253.984 8.96C253.984 10.058 254.452 11.642 256.756 11.642ZM274.939 9.014V8.96C274.939 7.88 274.435 6.422 272.239 6.422H272.059C269.953 6.422 269.287 7.808 269.287 8.96V9.014C269.287 10.112 269.953 11.552 272.059 11.552H272.239C274.435 11.552 274.939 10.04 274.939 9.014ZM265.795 17.438V4.01H269.269V5.288C269.701 4.82 271.015 3.812 273.283 3.812H273.517C277.333 3.812 278.575 6.422 278.575 8.798V9.104C278.575 11.282 277.297 14.198 273.499 14.198H273.247C270.961 14.198 269.737 13.154 269.305 12.722V17.438H265.795Z" fill="url(#paint0_linear_2018_985)"/>
<path d="M7.76925 0.481999H8.52525C14.5192 0.481999 15.0772 2.714 15.0772 4.082V4.298C15.0772 5.756 13.7272 6.746 12.3952 6.98C14.0152 7.268 15.4012 8.33 15.4012 9.968V10.202C15.4012 11.66 14.6632 14.216 8.52525 14.216H7.76925C1.59525 14.216 0.893248 11.66 0.893248 10.202V9.968C0.893248 8.33 2.29725 7.268 3.88125 6.98C2.58525 6.746 1.21725 5.846 1.21725 4.298V4.082C1.21725 2.714 1.81125 0.481999 7.76925 0.481999ZM8.14725 3.2C5.48325 3.2 5.12325 3.938 5.12325 4.442V4.514C5.12325 5.036 5.50125 5.684 8.14725 5.684C10.8112 5.684 11.1532 5.036 11.1532 4.514V4.442C11.1532 3.938 10.8292 3.2 8.14725 3.2ZM8.14725 8.42C5.19525 8.42 4.79925 9.212 4.79925 9.77V9.824C4.79925 10.436 5.19525 11.336 8.14725 11.336C11.0992 11.336 11.4952 10.436 11.4952 9.824V9.77C11.4952 9.212 11.0992 8.42 8.14725 8.42ZM21.8078 10.508V14H17.6138V10.508H21.8078ZM40.808 14L34.364 7.7V14H30.656V0.608H34.364V6.116L40.628 0.608H45.344L38.288 6.746L45.65 14H40.808ZM46.6476 17.438V14.936H48.8436C49.1856 14.936 49.3656 14.792 49.3656 14.522V14.504C49.3656 14.288 49.3116 14.09 49.0416 13.532L44.7576 4.01H48.6096L51.3816 11.174L54.1356 4.01H57.6636L53.0916 15.008C52.3896 16.646 51.5256 17.438 49.8696 17.438H46.6476ZM67.2828 14V6.674H63.3228C63.3228 9.356 63.2328 10.85 62.8908 11.768C62.5128 12.776 62.0088 14 59.3628 14H58.2648V11.39H58.4808C59.1108 11.39 59.5788 11.174 59.7768 10.256C59.9208 9.482 59.9748 8.636 59.9748 4.01H70.7928V14H67.2828ZM73.7002 14V4.01H77.2102V6.872H79.9462C83.3662 6.872 84.6982 8.384 84.6982 10.292V10.508C84.6982 12.596 83.3662 14 79.9462 14H73.7002ZM77.2102 11.624H79.5142C80.2342 11.624 81.0982 11.408 81.0982 10.436V10.382C81.0982 9.482 80.2342 9.248 79.5142 9.248H77.2102V11.624ZM89.0954 14V6.674H85.2254V4.01H96.4754V6.674H92.6054V14H89.0954ZM99.1359 17.438V14.936H101.332C101.674 14.936 101.854 14.792 101.854 14.522V14.504C101.854 14.288 101.8 14.09 101.53 13.532L97.2459 4.01H101.098L103.87 11.174L106.624 4.01H110.152L105.58 15.008C104.878 16.646 104.014 17.438 102.358 17.438H99.1359ZM121.113 9.014V8.96C121.113 7.88 120.609 6.422 118.413 6.422H118.233C116.127 6.422 115.461 7.808 115.461 8.96V9.014C115.461 10.112 116.127 11.552 118.233 11.552H118.413C120.609 11.552 121.113 10.04 121.113 9.014ZM111.969 17.438V4.01H115.443V5.288C115.875 4.82 117.189 3.812 119.457 3.812H119.691C123.507 3.812 124.749 6.422 124.749 8.798V9.104C124.749 11.282 123.471 14.198 119.673 14.198H119.421C117.135 14.198 115.911 13.154 115.479 12.722V17.438H111.969ZM130.7 14H127.19V4.01H130.7V7.646H135.596V4.01H139.106V14H135.596V10.31H130.7V14ZM142.026 14V4.01H145.536V6.872H148.272C151.692 6.872 153.024 8.384 153.024 10.292V10.508C153.024 12.596 151.692 14 148.272 14H142.026ZM145.536 11.624H147.84C148.56 11.624 149.424 11.408 149.424 10.436V10.382C149.424 9.482 148.56 9.248 147.84 9.248H145.536V11.624ZM157.812 4.01V14H154.302V4.01H157.812ZM169.153 7.952L164.329 14H160.729V4.01H164.239V10.058L169.063 4.01H172.663V14H169.153V7.952ZM166.921 2.984H166.381C163.519 2.984 163.015 1.04 163.015 0.104V0.0499994H165.661C165.661 0.284 165.769 1.004 166.669 1.004C167.515 1.004 167.641 0.284 167.641 0.0499994H170.251V0.104C170.251 1.04 169.531 2.984 166.921 2.984ZM184.296 14H180.786V4.01H184.296V7.646H189.192V4.01H192.702V14H189.192V10.31H184.296V14ZM201.886 14.27H201.328C195.946 14.27 195.118 10.994 195.118 9.176V8.924C195.118 7.124 195.946 3.74 201.31 3.74H201.904C207.448 3.74 208.096 7.142 208.096 8.906V9.194C208.096 10.994 207.448 14.27 201.886 14.27ZM201.508 11.642H201.706C203.92 11.642 204.478 10.058 204.478 8.96C204.478 7.826 203.92 6.314 201.706 6.314H201.508C199.204 6.314 198.736 7.826 198.736 8.96C198.736 10.058 199.204 11.642 201.508 11.642ZM218.755 14H210.511V4.01H218.395C220.681 4.01 222.121 4.82 222.121 6.404V6.494C222.121 7.736 221.329 8.474 220.123 8.672C221.347 8.816 222.445 9.68 222.445 11.12V11.192C222.445 13.01 221.257 14 218.755 14ZM214.021 7.988H217.243C218.089 7.988 218.521 7.664 218.521 7.034V6.944C218.521 6.368 218.125 6.026 217.243 6.026H214.021V7.988ZM214.021 11.984H217.387C218.323 11.984 218.845 11.678 218.845 10.976V10.832C218.845 10.202 218.413 9.806 217.387 9.806H214.021V11.984ZM229.518 12.002C231.57 12.002 232.272 10.706 232.272 9.95V9.176C231.966 9.302 231.084 9.482 230.076 9.644C228.384 9.932 227.844 10.166 227.844 10.868V10.904C227.844 11.534 228.294 12.002 229.518 12.002ZM232.38 12.614C231.948 13.136 230.868 14.198 228.528 14.198H228.24C225.45 14.198 224.298 12.686 224.298 11.03V10.958C224.298 9.23 225.396 8.168 228.78 7.88L231.516 7.646C232.074 7.592 232.272 7.412 232.272 6.998C232.272 6.53 232.128 6.026 230.184 6.026C228.348 6.026 228.168 6.746 228.168 7.124H224.568V7.088C224.568 6.098 224.964 3.776 229.878 3.776H230.436C235.386 3.776 235.692 5.81 235.692 7.142V10.436C235.692 11.066 235.818 11.318 236.52 11.318H236.898V14H234.054C233.01 14 232.524 13.262 232.38 12.614ZM241.586 14V6.674H237.716V4.01H248.966V6.674H245.096V14H241.586ZM257.134 14.27H256.576C251.194 14.27 250.366 10.994 250.366 9.176V8.924C250.366 7.124 251.194 3.74 256.558 3.74H257.152C262.696 3.74 263.344 7.142 263.344 8.906V9.194C263.344 10.994 262.696 14.27 257.134 14.27ZM256.756 11.642H256.954C259.168 11.642 259.726 10.058 259.726 8.96C259.726 7.826 259.168 6.314 256.954 6.314H256.756C254.452 6.314 253.984 7.826 253.984 8.96C253.984 10.058 254.452 11.642 256.756 11.642ZM274.939 9.014V8.96C274.939 7.88 274.435 6.422 272.239 6.422H272.059C269.953 6.422 269.287 7.808 269.287 8.96V9.014C269.287 10.112 269.953 11.552 272.059 11.552H272.239C274.435 11.552 274.939 10.04 274.939 9.014ZM265.795 17.438V4.01H269.269V5.288C269.701 4.82 271.015 3.812 273.283 3.812H273.517C277.333 3.812 278.575 6.422 278.575 8.798V9.104C278.575 11.282 277.297 14.198 273.499 14.198H273.247C270.961 14.198 269.737 13.154 269.305 12.722V17.438H265.795Z" fill="url(#paint1_radial_2018_985)" style="mix-blend-mode:overlay"/>
<path d="M7.76925 0.481999H8.52525C14.5192 0.481999 15.0772 2.714 15.0772 4.082V4.298C15.0772 5.756 13.7272 6.746 12.3952 6.98C14.0152 7.268 15.4012 8.33 15.4012 9.968V10.202C15.4012 11.66 14.6632 14.216 8.52525 14.216H7.76925C1.59525 14.216 0.893248 11.66 0.893248 10.202V9.968C0.893248 8.33 2.29725 7.268 3.88125 6.98C2.58525 6.746 1.21725 5.846 1.21725 4.298V4.082C1.21725 2.714 1.81125 0.481999 7.76925 0.481999ZM8.14725 3.2C5.48325 3.2 5.12325 3.938 5.12325 4.442V4.514C5.12325 5.036 5.50125 5.684 8.14725 5.684C10.8112 5.684 11.1532 5.036 11.1532 4.514V4.442C11.1532 3.938 10.8292 3.2 8.14725 3.2ZM8.14725 8.42C5.19525 8.42 4.79925 9.212 4.79925 9.77V9.824C4.79925 10.436 5.19525 11.336 8.14725 11.336C11.0992 11.336 11.4952 10.436 11.4952 9.824V9.77C11.4952 9.212 11.0992 8.42 8.14725 8.42ZM21.8078 10.508V14H17.6138V10.508H21.8078ZM40.808 14L34.364 7.7V14H30.656V0.608H34.364V6.116L40.628 0.608H45.344L38.288 6.746L45.65 14H40.808ZM46.6476 17.438V14.936H48.8436C49.1856 14.936 49.3656 14.792 49.3656 14.522V14.504C49.3656 14.288 49.3116 14.09 49.0416 13.532L44.7576 4.01H48.6096L51.3816 11.174L54.1356 4.01H57.6636L53.0916 15.008C52.3896 16.646 51.5256 17.438 49.8696 17.438H46.6476ZM67.2828 14V6.674H63.3228C63.3228 9.356 63.2328 10.85 62.8908 11.768C62.5128 12.776 62.0088 14 59.3628 14H58.2648V11.39H58.4808C59.1108 11.39 59.5788 11.174 59.7768 10.256C59.9208 9.482 59.9748 8.636 59.9748 4.01H70.7928V14H67.2828ZM73.7002 14V4.01H77.2102V6.872H79.9462C83.3662 6.872 84.6982 8.384 84.6982 10.292V10.508C84.6982 12.596 83.3662 14 79.9462 14H73.7002ZM77.2102 11.624H79.5142C80.2342 11.624 81.0982 11.408 81.0982 10.436V10.382C81.0982 9.482 80.2342 9.248 79.5142 9.248H77.2102V11.624ZM89.0954 14V6.674H85.2254V4.01H96.4754V6.674H92.6054V14H89.0954ZM99.1359 17.438V14.936H101.332C101.674 14.936 101.854 14.792 101.854 14.522V14.504C101.854 14.288 101.8 14.09 101.53 13.532L97.2459 4.01H101.098L103.87 11.174L106.624 4.01H110.152L105.58 15.008C104.878 16.646 104.014 17.438 102.358 17.438H99.1359ZM121.113 9.014V8.96C121.113 7.88 120.609 6.422 118.413 6.422H118.233C116.127 6.422 115.461 7.808 115.461 8.96V9.014C115.461 10.112 116.127 11.552 118.233 11.552H118.413C120.609 11.552 121.113 10.04 121.113 9.014ZM111.969 17.438V4.01H115.443V5.288C115.875 4.82 117.189 3.812 119.457 3.812H119.691C123.507 3.812 124.749 6.422 124.749 8.798V9.104C124.749 11.282 123.471 14.198 119.673 14.198H119.421C117.135 14.198 115.911 13.154 115.479 12.722V17.438H111.969ZM130.7 14H127.19V4.01H130.7V7.646H135.596V4.01H139.106V14H135.596V10.31H130.7V14ZM142.026 14V4.01H145.536V6.872H148.272C151.692 6.872 153.024 8.384 153.024 10.292V10.508C153.024 12.596 151.692 14 148.272 14H142.026ZM145.536 11.624H147.84C148.56 11.624 149.424 11.408 149.424 10.436V10.382C149.424 9.482 148.56 9.248 147.84 9.248H145.536V11.624ZM157.812 4.01V14H154.302V4.01H157.812ZM169.153 7.952L164.329 14H160.729V4.01H164.239V10.058L169.063 4.01H172.663V14H169.153V7.952ZM166.921 2.984H166.381C163.519 2.984 163.015 1.04 163.015 0.104V0.0499994H165.661C165.661 0.284 165.769 1.004 166.669 1.004C167.515 1.004 167.641 0.284 167.641 0.0499994H170.251V0.104C170.251 1.04 169.531 2.984 166.921 2.984ZM184.296 14H180.786V4.01H184.296V7.646H189.192V4.01H192.702V14H189.192V10.31H184.296V14ZM201.886 14.27H201.328C195.946 14.27 195.118 10.994 195.118 9.176V8.924C195.118 7.124 195.946 3.74 201.31 3.74H201.904C207.448 3.74 208.096 7.142 208.096 8.906V9.194C208.096 10.994 207.448 14.27 201.886 14.27ZM201.508 11.642H201.706C203.92 11.642 204.478 10.058 204.478 8.96C204.478 7.826 203.92 6.314 201.706 6.314H201.508C199.204 6.314 198.736 7.826 198.736 8.96C198.736 10.058 199.204 11.642 201.508 11.642ZM218.755 14H210.511V4.01H218.395C220.681 4.01 222.121 4.82 222.121 6.404V6.494C222.121 7.736 221.329 8.474 220.123 8.672C221.347 8.816 222.445 9.68 222.445 11.12V11.192C222.445 13.01 221.257 14 218.755 14ZM214.021 7.988H217.243C218.089 7.988 218.521 7.664 218.521 7.034V6.944C218.521 6.368 218.125 6.026 217.243 6.026H214.021V7.988ZM214.021 11.984H217.387C218.323 11.984 218.845 11.678 218.845 10.976V10.832C218.845 10.202 218.413 9.806 217.387 9.806H214.021V11.984ZM229.518 12.002C231.57 12.002 232.272 10.706 232.272 9.95V9.176C231.966 9.302 231.084 9.482 230.076 9.644C228.384 9.932 227.844 10.166 227.844 10.868V10.904C227.844 11.534 228.294 12.002 229.518 12.002ZM232.38 12.614C231.948 13.136 230.868 14.198 228.528 14.198H228.24C225.45 14.198 224.298 12.686 224.298 11.03V10.958C224.298 9.23 225.396 8.168 228.78 7.88L231.516 7.646C232.074 7.592 232.272 7.412 232.272 6.998C232.272 6.53 232.128 6.026 230.184 6.026C228.348 6.026 228.168 6.746 228.168 7.124H224.568V7.088C224.568 6.098 224.964 3.776 229.878 3.776H230.436C235.386 3.776 235.692 5.81 235.692 7.142V10.436C235.692 11.066 235.818 11.318 236.52 11.318H236.898V14H234.054C233.01 14 232.524 13.262 232.38 12.614ZM241.586 14V6.674H237.716V4.01H248.966V6.674H245.096V14H241.586ZM257.134 14.27H256.576C251.194 14.27 250.366 10.994 250.366 9.176V8.924C250.366 7.124 251.194 3.74 256.558 3.74H257.152C262.696 3.74 263.344 7.142 263.344 8.906V9.194C263.344 10.994 262.696 14.27 257.134 14.27ZM256.756 11.642H256.954C259.168 11.642 259.726 10.058 259.726 8.96C259.726 7.826 259.168 6.314 256.954 6.314H256.756C254.452 6.314 253.984 7.826 253.984 8.96C253.984 10.058 254.452 11.642 256.756 11.642ZM274.939 9.014V8.96C274.939 7.88 274.435 6.422 272.239 6.422H272.059C269.953 6.422 269.287 7.808 269.287 8.96V9.014C269.287 10.112 269.953 11.552 272.059 11.552H272.239C274.435 11.552 274.939 10.04 274.939 9.014ZM265.795 17.438V4.01H269.269V5.288C269.701 4.82 271.015 3.812 273.283 3.812H273.517C277.333 3.812 278.575 6.422 278.575 8.798V9.104C278.575 11.282 277.297 14.198 273.499 14.198H273.247C270.961 14.198 269.737 13.154 269.305 12.722V17.438H265.795Z" fill="url(#paint2_radial_2018_985)"/>
<path d="M7.76925 0.481999H8.52525C14.5192 0.481999 15.0772 2.714 15.0772 4.082V4.298C15.0772 5.756 13.7272 6.746 12.3952 6.98C14.0152 7.268 15.4012 8.33 15.4012 9.968V10.202C15.4012 11.66 14.6632 14.216 8.52525 14.216H7.76925C1.59525 14.216 0.893248 11.66 0.893248 10.202V9.968C0.893248 8.33 2.29725 7.268 3.88125 6.98C2.58525 6.746 1.21725 5.846 1.21725 4.298V4.082C1.21725 2.714 1.81125 0.481999 7.76925 0.481999ZM8.14725 3.2C5.48325 3.2 5.12325 3.938 5.12325 4.442V4.514C5.12325 5.036 5.50125 5.684 8.14725 5.684C10.8112 5.684 11.1532 5.036 11.1532 4.514V4.442C11.1532 3.938 10.8292 3.2 8.14725 3.2ZM8.14725 8.42C5.19525 8.42 4.79925 9.212 4.79925 9.77V9.824C4.79925 10.436 5.19525 11.336 8.14725 11.336C11.0992 11.336 11.4952 10.436 11.4952 9.824V9.77C11.4952 9.212 11.0992 8.42 8.14725 8.42ZM21.8078 10.508V14H17.6138V10.508H21.8078ZM40.808 14L34.364 7.7V14H30.656V0.608H34.364V6.116L40.628 0.608H45.344L38.288 6.746L45.65 14H40.808ZM46.6476 17.438V14.936H48.8436C49.1856 14.936 49.3656 14.792 49.3656 14.522V14.504C49.3656 14.288 49.3116 14.09 49.0416 13.532L44.7576 4.01H48.6096L51.3816 11.174L54.1356 4.01H57.6636L53.0916 15.008C52.3896 16.646 51.5256 17.438 49.8696 17.438H46.6476ZM67.2828 14V6.674H63.3228C63.3228 9.356 63.2328 10.85 62.8908 11.768C62.5128 12.776 62.0088 14 59.3628 14H58.2648V11.39H58.4808C59.1108 11.39 59.5788 11.174 59.7768 10.256C59.9208 9.482 59.9748 8.636 59.9748 4.01H70.7928V14H67.2828ZM73.7002 14V4.01H77.2102V6.872H79.9462C83.3662 6.872 84.6982 8.384 84.6982 10.292V10.508C84.6982 12.596 83.3662 14 79.9462 14H73.7002ZM77.2102 11.624H79.5142C80.2342 11.624 81.0982 11.408 81.0982 10.436V10.382C81.0982 9.482 80.2342 9.248 79.5142 9.248H77.2102V11.624ZM89.0954 14V6.674H85.2254V4.01H96.4754V6.674H92.6054V14H89.0954ZM99.1359 17.438V14.936H101.332C101.674 14.936 101.854 14.792 101.854 14.522V14.504C101.854 14.288 101.8 14.09 101.53 13.532L97.2459 4.01H101.098L103.87 11.174L106.624 4.01H110.152L105.58 15.008C104.878 16.646 104.014 17.438 102.358 17.438H99.1359ZM121.113 9.014V8.96C121.113 7.88 120.609 6.422 118.413 6.422H118.233C116.127 6.422 115.461 7.808 115.461 8.96V9.014C115.461 10.112 116.127 11.552 118.233 11.552H118.413C120.609 11.552 121.113 10.04 121.113 9.014ZM111.969 17.438V4.01H115.443V5.288C115.875 4.82 117.189 3.812 119.457 3.812H119.691C123.507 3.812 124.749 6.422 124.749 8.798V9.104C124.749 11.282 123.471 14.198 119.673 14.198H119.421C117.135 14.198 115.911 13.154 115.479 12.722V17.438H111.969ZM130.7 14H127.19V4.01H130.7V7.646H135.596V4.01H139.106V14H135.596V10.31H130.7V14ZM142.026 14V4.01H145.536V6.872H148.272C151.692 6.872 153.024 8.384 153.024 10.292V10.508C153.024 12.596 151.692 14 148.272 14H142.026ZM145.536 11.624H147.84C148.56 11.624 149.424 11.408 149.424 10.436V10.382C149.424 9.482 148.56 9.248 147.84 9.248H145.536V11.624ZM157.812 4.01V14H154.302V4.01H157.812ZM169.153 7.952L164.329 14H160.729V4.01H164.239V10.058L169.063 4.01H172.663V14H169.153V7.952ZM166.921 2.984H166.381C163.519 2.984 163.015 1.04 163.015 0.104V0.0499994H165.661C165.661 0.284 165.769 1.004 166.669 1.004C167.515 1.004 167.641 0.284 167.641 0.0499994H170.251V0.104C170.251 1.04 169.531 2.984 166.921 2.984ZM184.296 14H180.786V4.01H184.296V7.646H189.192V4.01H192.702V14H189.192V10.31H184.296V14ZM201.886 14.27H201.328C195.946 14.27 195.118 10.994 195.118 9.176V8.924C195.118 7.124 195.946 3.74 201.31 3.74H201.904C207.448 3.74 208.096 7.142 208.096 8.906V9.194C208.096 10.994 207.448 14.27 201.886 14.27ZM201.508 11.642H201.706C203.92 11.642 204.478 10.058 204.478 8.96C204.478 7.826 203.92 6.314 201.706 6.314H201.508C199.204 6.314 198.736 7.826 198.736 8.96C198.736 10.058 199.204 11.642 201.508 11.642ZM218.755 14H210.511V4.01H218.395C220.681 4.01 222.121 4.82 222.121 6.404V6.494C222.121 7.736 221.329 8.474 220.123 8.672C221.347 8.816 222.445 9.68 222.445 11.12V11.192C222.445 13.01 221.257 14 218.755 14ZM214.021 7.988H217.243C218.089 7.988 218.521 7.664 218.521 7.034V6.944C218.521 6.368 218.125 6.026 217.243 6.026H214.021V7.988ZM214.021 11.984H217.387C218.323 11.984 218.845 11.678 218.845 10.976V10.832C218.845 10.202 218.413 9.806 217.387 9.806H214.021V11.984ZM229.518 12.002C231.57 12.002 232.272 10.706 232.272 9.95V9.176C231.966 9.302 231.084 9.482 230.076 9.644C228.384 9.932 227.844 10.166 227.844 10.868V10.904C227.844 11.534 228.294 12.002 229.518 12.002ZM232.38 12.614C231.948 13.136 230.868 14.198 228.528 14.198H228.24C225.45 14.198 224.298 12.686 224.298 11.03V10.958C224.298 9.23 225.396 8.168 228.78 7.88L231.516 7.646C232.074 7.592 232.272 7.412 232.272 6.998C232.272 6.53 232.128 6.026 230.184 6.026C228.348 6.026 228.168 6.746 228.168 7.124H224.568V7.088C224.568 6.098 224.964 3.776 229.878 3.776H230.436C235.386 3.776 235.692 5.81 235.692 7.142V10.436C235.692 11.066 235.818 11.318 236.52 11.318H236.898V14H234.054C233.01 14 232.524 13.262 232.38 12.614ZM241.586 14V6.674H237.716V4.01H248.966V6.674H245.096V14H241.586ZM257.134 14.27H256.576C251.194 14.27 250.366 10.994 250.366 9.176V8.924C250.366 7.124 251.194 3.74 256.558 3.74H257.152C262.696 3.74 263.344 7.142 263.344 8.906V9.194C263.344 10.994 262.696 14.27 257.134 14.27ZM256.756 11.642H256.954C259.168 11.642 259.726 10.058 259.726 8.96C259.726 7.826 259.168 6.314 256.954 6.314H256.756C254.452 6.314 253.984 7.826 253.984 8.96C253.984 10.058 254.452 11.642 256.756 11.642ZM274.939 9.014V8.96C274.939 7.88 274.435 6.422 272.239 6.422H272.059C269.953 6.422 269.287 7.808 269.287 8.96V9.014C269.287 10.112 269.953 11.552 272.059 11.552H272.239C274.435 11.552 274.939 10.04 274.939 9.014ZM265.795 17.438V4.01H269.269V5.288C269.701 4.82 271.015 3.812 273.283 3.812H273.517C277.333 3.812 278.575 6.422 278.575 8.798V9.104C278.575 11.282 277.297 14.198 273.499 14.198H273.247C270.961 14.198 269.737 13.154 269.305 12.722V17.438H265.795Z" fill="#C1A875" style="mix-blend-mode:color"/>
<defs>
<linearGradient id="paint0_linear_2018_985" x1="2" y1="6" x2="280" y2="6.00002" gradientUnits="userSpaceOnUse">
<stop stop-color="#576167"/>
<stop offset="0.191294" stop-color="#9EA1A2"/>
<stop offset="0.396166" stop-color="#848989"/>
<stop offset="0.62055" stop-color="#576167"/>
<stop offset="0.830299" stop-color="#757A7C"/>
<stop offset="1" stop-color="#576167"/>
</linearGradient>
<radialGradient id="paint1_radial_2018_985" cx="0" cy="0" r="1" gradientUnits="userSpaceOnUse" gradientTransform="translate(150.049 -3.20225) rotate(90) scale(17.8315 210.316)">
<stop stop-color="white"/>
<stop offset="1" stop-color="white" stop-opacity="0"/>
</radialGradient>
<radialGradient id="paint2_radial_2018_985" cx="0" cy="0" r="1" gradientUnits="userSpaceOnUse" gradientTransform="translate(165.774 23.6629) rotate(-89.0021) scale(25.5544 300.701)">
<stop stop-color="white"/>
<stop offset="1" stop-color="white" stop-opacity="0"/>
</radialGradient>
</defs>
</svg>
