<svg width="207" height="17" viewBox="0 0 207 17" fill="none" xmlns="http://www.w3.org/2000/svg">
<path d="M11.1172 4.982V4.892C11.1172 4.262 10.5772 3.29 7.89525 3.29C4.96125 3.29 4.63725 4.316 4.63725 4.874V4.982C4.63725 5.63 5.06925 6.494 7.89525 6.494C10.6312 6.494 11.1172 5.63 11.1172 4.982ZM8.43525 14.198H7.76925C2.45925 14.198 1.30725 11.75 1.30725 10.166V10.148H4.97925C4.97925 10.31 5.23125 11.336 8.02125 11.336C11.2432 11.336 11.6212 9.032 11.6212 7.934V7.808C11.2792 8.096 10.1272 9.104 7.06725 9.104H6.67125C2.35125 9.104 0.821248 7.214 0.821248 5.27V4.982C0.821248 3.128 1.75725 0.446 7.35525 0.446H8.45325C14.4652 0.446 15.4012 4.694 15.4012 6.998V7.412C15.4012 9.446 14.3752 14.198 8.43525 14.198ZM21.8078 10.508V14H17.6138V10.508H21.8078ZM30.656 14V0.608H41.816V3.56H34.364V14H30.656ZM51.257 7.952L46.433 14H42.833V4.01H46.343V10.058L51.167 4.01H54.767V14H51.257V7.952ZM56.8585 16.124V11.336H58.0645C58.7485 9.968 58.8565 6.998 58.9465 4.01H69.5125V11.336H71.3125V16.124H67.9825V14H60.1885V16.124H56.8585ZM61.3765 11.336H66.0025V6.674H62.0965C62.0425 7.97 61.8625 9.95 61.3765 11.336ZM78.6045 14V4.01H90.1605V14H86.6505V6.674H82.1145V14H78.6045ZM99.3353 14.27H98.7773C93.3953 14.27 92.5673 10.994 92.5673 9.176V8.924C92.5673 7.124 93.3953 3.74 98.7593 3.74H99.3533C104.897 3.74 105.545 7.142 105.545 8.906V9.194C105.545 10.994 104.897 14.27 99.3353 14.27ZM98.9573 11.642H99.1553C101.369 11.642 101.927 10.058 101.927 8.96C101.927 7.826 101.369 6.314 99.1553 6.314H98.9573C96.6533 6.314 96.1853 7.826 96.1853 8.96C96.1853 10.058 96.6533 11.642 98.9573 11.642ZM115.394 14L111.506 9.374V14H107.996V4.01H111.506V8.006L115.07 4.01H119.12L114.944 8.492L119.57 14H115.394ZM126.827 14.27H126.269C120.887 14.27 120.059 10.994 120.059 9.176V8.924C120.059 7.124 120.887 3.74 126.251 3.74H126.845C132.389 3.74 133.037 7.142 133.037 8.906V9.194C133.037 10.994 132.389 14.27 126.827 14.27ZM126.449 11.642H126.647C128.861 11.642 129.419 10.058 129.419 8.96C129.419 7.826 128.861 6.314 126.647 6.314H126.449C124.145 6.314 123.677 7.826 123.677 8.96C123.677 10.058 124.145 11.642 126.449 11.642ZM143.466 14V6.674H139.506C139.506 9.356 139.416 10.85 139.074 11.768C138.696 12.776 138.192 14 135.546 14H134.448V11.39H134.664C135.294 11.39 135.762 11.174 135.96 10.256C136.104 9.482 136.158 8.636 136.158 4.01H146.976V14H143.466ZM155.698 6.08C153.88 6.08 153.196 6.818 153.016 7.862H158.308C158.308 7.124 157.948 6.08 155.698 6.08ZM158.38 10.886H162.034C162.034 11.714 161.386 14.234 156.22 14.234H155.554C150.622 14.234 149.398 11.534 149.398 9.14V8.888C149.398 6.638 150.514 3.794 155.248 3.794H156.04C161.152 3.794 162.07 6.638 162.07 9.428V9.752H152.98C153.124 10.904 153.862 11.84 156.004 11.84C158.038 11.84 158.29 11.048 158.38 10.886ZM167.984 14H164.474V4.01H167.984V7.646H172.88V4.01H176.39V14H172.88V10.31H167.984V14ZM187.734 7.952L182.91 14H179.31V4.01H182.82V10.058L187.644 4.01H191.244V14H187.734V7.952ZM202.569 10.652H200.211L197.295 14H193.335L196.593 10.274C194.865 9.932 193.875 8.942 193.875 7.43V7.214C193.875 5.396 195.351 4.01 197.853 4.01H206.079V14H202.569V10.652ZM202.569 6.314H198.807C198.033 6.314 197.385 6.494 197.385 7.286V7.358C197.385 8.132 198.051 8.366 198.825 8.366H202.569V6.314Z" fill="url(#paint0_linear_2018_992)"/>
<path d="M11.1172 4.982V4.892C11.1172 4.262 10.5772 3.29 7.89525 3.29C4.96125 3.29 4.63725 4.316 4.63725 4.874V4.982C4.63725 5.63 5.06925 6.494 7.89525 6.494C10.6312 6.494 11.1172 5.63 11.1172 4.982ZM8.43525 14.198H7.76925C2.45925 14.198 1.30725 11.75 1.30725 10.166V10.148H4.97925C4.97925 10.31 5.23125 11.336 8.02125 11.336C11.2432 11.336 11.6212 9.032 11.6212 7.934V7.808C11.2792 8.096 10.1272 9.104 7.06725 9.104H6.67125C2.35125 9.104 0.821248 7.214 0.821248 5.27V4.982C0.821248 3.128 1.75725 0.446 7.35525 0.446H8.45325C14.4652 0.446 15.4012 4.694 15.4012 6.998V7.412C15.4012 9.446 14.3752 14.198 8.43525 14.198ZM21.8078 10.508V14H17.6138V10.508H21.8078ZM30.656 14V0.608H41.816V3.56H34.364V14H30.656ZM51.257 7.952L46.433 14H42.833V4.01H46.343V10.058L51.167 4.01H54.767V14H51.257V7.952ZM56.8585 16.124V11.336H58.0645C58.7485 9.968 58.8565 6.998 58.9465 4.01H69.5125V11.336H71.3125V16.124H67.9825V14H60.1885V16.124H56.8585ZM61.3765 11.336H66.0025V6.674H62.0965C62.0425 7.97 61.8625 9.95 61.3765 11.336ZM78.6045 14V4.01H90.1605V14H86.6505V6.674H82.1145V14H78.6045ZM99.3353 14.27H98.7773C93.3953 14.27 92.5673 10.994 92.5673 9.176V8.924C92.5673 7.124 93.3953 3.74 98.7593 3.74H99.3533C104.897 3.74 105.545 7.142 105.545 8.906V9.194C105.545 10.994 104.897 14.27 99.3353 14.27ZM98.9573 11.642H99.1553C101.369 11.642 101.927 10.058 101.927 8.96C101.927 7.826 101.369 6.314 99.1553 6.314H98.9573C96.6533 6.314 96.1853 7.826 96.1853 8.96C96.1853 10.058 96.6533 11.642 98.9573 11.642ZM115.394 14L111.506 9.374V14H107.996V4.01H111.506V8.006L115.07 4.01H119.12L114.944 8.492L119.57 14H115.394ZM126.827 14.27H126.269C120.887 14.27 120.059 10.994 120.059 9.176V8.924C120.059 7.124 120.887 3.74 126.251 3.74H126.845C132.389 3.74 133.037 7.142 133.037 8.906V9.194C133.037 10.994 132.389 14.27 126.827 14.27ZM126.449 11.642H126.647C128.861 11.642 129.419 10.058 129.419 8.96C129.419 7.826 128.861 6.314 126.647 6.314H126.449C124.145 6.314 123.677 7.826 123.677 8.96C123.677 10.058 124.145 11.642 126.449 11.642ZM143.466 14V6.674H139.506C139.506 9.356 139.416 10.85 139.074 11.768C138.696 12.776 138.192 14 135.546 14H134.448V11.39H134.664C135.294 11.39 135.762 11.174 135.96 10.256C136.104 9.482 136.158 8.636 136.158 4.01H146.976V14H143.466ZM155.698 6.08C153.88 6.08 153.196 6.818 153.016 7.862H158.308C158.308 7.124 157.948 6.08 155.698 6.08ZM158.38 10.886H162.034C162.034 11.714 161.386 14.234 156.22 14.234H155.554C150.622 14.234 149.398 11.534 149.398 9.14V8.888C149.398 6.638 150.514 3.794 155.248 3.794H156.04C161.152 3.794 162.07 6.638 162.07 9.428V9.752H152.98C153.124 10.904 153.862 11.84 156.004 11.84C158.038 11.84 158.29 11.048 158.38 10.886ZM167.984 14H164.474V4.01H167.984V7.646H172.88V4.01H176.39V14H172.88V10.31H167.984V14ZM187.734 7.952L182.91 14H179.31V4.01H182.82V10.058L187.644 4.01H191.244V14H187.734V7.952ZM202.569 10.652H200.211L197.295 14H193.335L196.593 10.274C194.865 9.932 193.875 8.942 193.875 7.43V7.214C193.875 5.396 195.351 4.01 197.853 4.01H206.079V14H202.569V10.652ZM202.569 6.314H198.807C198.033 6.314 197.385 6.494 197.385 7.286V7.358C197.385 8.132 198.051 8.366 198.825 8.366H202.569V6.314Z" fill="url(#paint1_radial_2018_992)" style="mix-blend-mode:overlay"/>
<path d="M11.1172 4.982V4.892C11.1172 4.262 10.5772 3.29 7.89525 3.29C4.96125 3.29 4.63725 4.316 4.63725 4.874V4.982C4.63725 5.63 5.06925 6.494 7.89525 6.494C10.6312 6.494 11.1172 5.63 11.1172 4.982ZM8.43525 14.198H7.76925C2.45925 14.198 1.30725 11.75 1.30725 10.166V10.148H4.97925C4.97925 10.31 5.23125 11.336 8.02125 11.336C11.2432 11.336 11.6212 9.032 11.6212 7.934V7.808C11.2792 8.096 10.1272 9.104 7.06725 9.104H6.67125C2.35125 9.104 0.821248 7.214 0.821248 5.27V4.982C0.821248 3.128 1.75725 0.446 7.35525 0.446H8.45325C14.4652 0.446 15.4012 4.694 15.4012 6.998V7.412C15.4012 9.446 14.3752 14.198 8.43525 14.198ZM21.8078 10.508V14H17.6138V10.508H21.8078ZM30.656 14V0.608H41.816V3.56H34.364V14H30.656ZM51.257 7.952L46.433 14H42.833V4.01H46.343V10.058L51.167 4.01H54.767V14H51.257V7.952ZM56.8585 16.124V11.336H58.0645C58.7485 9.968 58.8565 6.998 58.9465 4.01H69.5125V11.336H71.3125V16.124H67.9825V14H60.1885V16.124H56.8585ZM61.3765 11.336H66.0025V6.674H62.0965C62.0425 7.97 61.8625 9.95 61.3765 11.336ZM78.6045 14V4.01H90.1605V14H86.6505V6.674H82.1145V14H78.6045ZM99.3353 14.27H98.7773C93.3953 14.27 92.5673 10.994 92.5673 9.176V8.924C92.5673 7.124 93.3953 3.74 98.7593 3.74H99.3533C104.897 3.74 105.545 7.142 105.545 8.906V9.194C105.545 10.994 104.897 14.27 99.3353 14.27ZM98.9573 11.642H99.1553C101.369 11.642 101.927 10.058 101.927 8.96C101.927 7.826 101.369 6.314 99.1553 6.314H98.9573C96.6533 6.314 96.1853 7.826 96.1853 8.96C96.1853 10.058 96.6533 11.642 98.9573 11.642ZM115.394 14L111.506 9.374V14H107.996V4.01H111.506V8.006L115.07 4.01H119.12L114.944 8.492L119.57 14H115.394ZM126.827 14.27H126.269C120.887 14.27 120.059 10.994 120.059 9.176V8.924C120.059 7.124 120.887 3.74 126.251 3.74H126.845C132.389 3.74 133.037 7.142 133.037 8.906V9.194C133.037 10.994 132.389 14.27 126.827 14.27ZM126.449 11.642H126.647C128.861 11.642 129.419 10.058 129.419 8.96C129.419 7.826 128.861 6.314 126.647 6.314H126.449C124.145 6.314 123.677 7.826 123.677 8.96C123.677 10.058 124.145 11.642 126.449 11.642ZM143.466 14V6.674H139.506C139.506 9.356 139.416 10.85 139.074 11.768C138.696 12.776 138.192 14 135.546 14H134.448V11.39H134.664C135.294 11.39 135.762 11.174 135.96 10.256C136.104 9.482 136.158 8.636 136.158 4.01H146.976V14H143.466ZM155.698 6.08C153.88 6.08 153.196 6.818 153.016 7.862H158.308C158.308 7.124 157.948 6.08 155.698 6.08ZM158.38 10.886H162.034C162.034 11.714 161.386 14.234 156.22 14.234H155.554C150.622 14.234 149.398 11.534 149.398 9.14V8.888C149.398 6.638 150.514 3.794 155.248 3.794H156.04C161.152 3.794 162.07 6.638 162.07 9.428V9.752H152.98C153.124 10.904 153.862 11.84 156.004 11.84C158.038 11.84 158.29 11.048 158.38 10.886ZM167.984 14H164.474V4.01H167.984V7.646H172.88V4.01H176.39V14H172.88V10.31H167.984V14ZM187.734 7.952L182.91 14H179.31V4.01H182.82V10.058L187.644 4.01H191.244V14H187.734V7.952ZM202.569 10.652H200.211L197.295 14H193.335L196.593 10.274C194.865 9.932 193.875 8.942 193.875 7.43V7.214C193.875 5.396 195.351 4.01 197.853 4.01H206.079V14H202.569V10.652ZM202.569 6.314H198.807C198.033 6.314 197.385 6.494 197.385 7.286V7.358C197.385 8.132 198.051 8.366 198.825 8.366H202.569V6.314Z" fill="url(#paint2_radial_2018_992)"/>
<path d="M11.1172 4.982V4.892C11.1172 4.262 10.5772 3.29 7.89525 3.29C4.96125 3.29 4.63725 4.316 4.63725 4.874V4.982C4.63725 5.63 5.06925 6.494 7.89525 6.494C10.6312 6.494 11.1172 5.63 11.1172 4.982ZM8.43525 14.198H7.76925C2.45925 14.198 1.30725 11.75 1.30725 10.166V10.148H4.97925C4.97925 10.31 5.23125 11.336 8.02125 11.336C11.2432 11.336 11.6212 9.032 11.6212 7.934V7.808C11.2792 8.096 10.1272 9.104 7.06725 9.104H6.67125C2.35125 9.104 0.821248 7.214 0.821248 5.27V4.982C0.821248 3.128 1.75725 0.446 7.35525 0.446H8.45325C14.4652 0.446 15.4012 4.694 15.4012 6.998V7.412C15.4012 9.446 14.3752 14.198 8.43525 14.198ZM21.8078 10.508V14H17.6138V10.508H21.8078ZM30.656 14V0.608H41.816V3.56H34.364V14H30.656ZM51.257 7.952L46.433 14H42.833V4.01H46.343V10.058L51.167 4.01H54.767V14H51.257V7.952ZM56.8585 16.124V11.336H58.0645C58.7485 9.968 58.8565 6.998 58.9465 4.01H69.5125V11.336H71.3125V16.124H67.9825V14H60.1885V16.124H56.8585ZM61.3765 11.336H66.0025V6.674H62.0965C62.0425 7.97 61.8625 9.95 61.3765 11.336ZM78.6045 14V4.01H90.1605V14H86.6505V6.674H82.1145V14H78.6045ZM99.3353 14.27H98.7773C93.3953 14.27 92.5673 10.994 92.5673 9.176V8.924C92.5673 7.124 93.3953 3.74 98.7593 3.74H99.3533C104.897 3.74 105.545 7.142 105.545 8.906V9.194C105.545 10.994 104.897 14.27 99.3353 14.27ZM98.9573 11.642H99.1553C101.369 11.642 101.927 10.058 101.927 8.96C101.927 7.826 101.369 6.314 99.1553 6.314H98.9573C96.6533 6.314 96.1853 7.826 96.1853 8.96C96.1853 10.058 96.6533 11.642 98.9573 11.642ZM115.394 14L111.506 9.374V14H107.996V4.01H111.506V8.006L115.07 4.01H119.12L114.944 8.492L119.57 14H115.394ZM126.827 14.27H126.269C120.887 14.27 120.059 10.994 120.059 9.176V8.924C120.059 7.124 120.887 3.74 126.251 3.74H126.845C132.389 3.74 133.037 7.142 133.037 8.906V9.194C133.037 10.994 132.389 14.27 126.827 14.27ZM126.449 11.642H126.647C128.861 11.642 129.419 10.058 129.419 8.96C129.419 7.826 128.861 6.314 126.647 6.314H126.449C124.145 6.314 123.677 7.826 123.677 8.96C123.677 10.058 124.145 11.642 126.449 11.642ZM143.466 14V6.674H139.506C139.506 9.356 139.416 10.85 139.074 11.768C138.696 12.776 138.192 14 135.546 14H134.448V11.39H134.664C135.294 11.39 135.762 11.174 135.96 10.256C136.104 9.482 136.158 8.636 136.158 4.01H146.976V14H143.466ZM155.698 6.08C153.88 6.08 153.196 6.818 153.016 7.862H158.308C158.308 7.124 157.948 6.08 155.698 6.08ZM158.38 10.886H162.034C162.034 11.714 161.386 14.234 156.22 14.234H155.554C150.622 14.234 149.398 11.534 149.398 9.14V8.888C149.398 6.638 150.514 3.794 155.248 3.794H156.04C161.152 3.794 162.07 6.638 162.07 9.428V9.752H152.98C153.124 10.904 153.862 11.84 156.004 11.84C158.038 11.84 158.29 11.048 158.38 10.886ZM167.984 14H164.474V4.01H167.984V7.646H172.88V4.01H176.39V14H172.88V10.31H167.984V14ZM187.734 7.952L182.91 14H179.31V4.01H182.82V10.058L187.644 4.01H191.244V14H187.734V7.952ZM202.569 10.652H200.211L197.295 14H193.335L196.593 10.274C194.865 9.932 193.875 8.942 193.875 7.43V7.214C193.875 5.396 195.351 4.01 197.853 4.01H206.079V14H202.569V10.652ZM202.569 6.314H198.807C198.033 6.314 197.385 6.494 197.385 7.286V7.358C197.385 8.132 198.051 8.366 198.825 8.366H202.569V6.314Z" fill="#C1A875" style="mix-blend-mode:color"/>
<defs>
<linearGradient id="paint0_linear_2018_992" x1="2" y1="6" x2="208" y2="6.00001" gradientUnits="userSpaceOnUse">
<stop stop-color="#576167"/>
<stop offset="0.191294" stop-color="#9EA1A2"/>
<stop offset="0.396166" stop-color="#848989"/>
<stop offset="0.62055" stop-color="#576167"/>
<stop offset="0.830299" stop-color="#757A7C"/>
<stop offset="1" stop-color="#576167"/>
</linearGradient>
<radialGradient id="paint1_radial_2018_992" cx="0" cy="0" r="1" gradientUnits="userSpaceOnUse" gradientTransform="translate(111.705 -3.20225) rotate(90) scale(17.8315 155.846)">
<stop stop-color="white"/>
<stop offset="1" stop-color="white" stop-opacity="0"/>
</radialGradient>
<radialGradient id="paint2_radial_2018_992" cx="0" cy="0" r="1" gradientUnits="userSpaceOnUse" gradientTransform="translate(123.358 23.6629) rotate(-89.2605) scale(25.5527 222.837)">
<stop stop-color="white"/>
<stop offset="1" stop-color="white" stop-opacity="0"/>
</radialGradient>
</defs>
</svg>
