<svg width="407" height="18" viewBox="0 0 407 18" fill="none" xmlns="http://www.w3.org/2000/svg">
<path d="M13.4372 14H0.207248V11.156H5.06725V5.18H1.26925V2.606C4.36525 2.606 5.37325 2.138 5.94925 0.608H8.75725V11.156H13.4372V14ZM19.8078 10.508V14H15.6138V10.508H19.8078ZM39.24 14V3.56H33.48C33.48 7.214 33.318 10.004 32.832 11.462C32.4 12.74 31.626 14 28.962 14H27.63V10.85H27.756C28.854 10.85 29.304 10.346 29.52 9.788C29.88 8.852 29.97 7.574 29.97 0.608H42.948V14H39.24ZM54.4777 7.952L49.6537 14H46.0537V4.01H49.5637V10.058L54.3877 4.01H57.9877V14H54.4777V7.952ZM60.0792 16.124V11.336H61.2852C61.9692 9.968 62.0772 6.998 62.1672 4.01H72.7332V11.336H74.5332V16.124H71.2032V14H63.4092V16.124H60.0792ZM64.5972 11.336H69.2232V6.674H65.3172C65.2632 7.97 65.0832 9.95 64.5972 11.336ZM82.2603 6.08C80.4423 6.08 79.7583 6.818 79.5783 7.862H84.8703C84.8703 7.124 84.5103 6.08 82.2603 6.08ZM84.9423 10.886H88.5963C88.5963 11.714 87.9483 14.234 82.7823 14.234H82.1163C77.1843 14.234 75.9603 11.534 75.9603 9.14V8.888C75.9603 6.638 77.0763 3.794 81.8103 3.794H82.6023C87.7143 3.794 88.6323 6.638 88.6323 9.428V9.752H79.5423C79.6863 10.904 80.4243 11.84 82.5663 11.84C84.6003 11.84 84.8523 11.048 84.9423 10.886ZM100.216 9.014V8.96C100.216 7.88 99.7121 6.422 97.5161 6.422H97.3361C95.2301 6.422 94.5641 7.808 94.5641 8.96V9.014C94.5641 10.112 95.2301 11.552 97.3361 11.552H97.5161C99.7121 11.552 100.216 10.04 100.216 9.014ZM91.0721 17.438V4.01H94.5461V5.288C94.9781 4.82 96.2921 3.812 98.5601 3.812H98.7941C102.61 3.812 103.852 6.422 103.852 8.798V9.104C103.852 11.282 102.574 14.198 98.7761 14.198H98.5241C96.2381 14.198 95.0141 13.154 94.5821 12.722V17.438H91.0721ZM118.931 14L115.043 9.374V14H111.533V4.01H115.043V8.006L118.607 4.01H122.657L118.481 8.492L123.107 14H118.931ZM130.365 14.27H129.807C124.425 14.27 123.597 10.994 123.597 9.176V8.924C123.597 7.124 124.425 3.74 129.789 3.74H130.383C135.927 3.74 136.575 7.142 136.575 8.906V9.194C136.575 10.994 135.927 14.27 130.365 14.27ZM129.987 11.642H130.185C132.399 11.642 132.957 10.058 132.957 8.96C132.957 7.826 132.399 6.314 130.185 6.314H129.987C127.683 6.314 127.215 7.826 127.215 8.96C127.215 10.058 127.683 11.642 129.987 11.642ZM147.341 10.076H151.013C151.013 11.588 150.113 14.27 145.307 14.27H144.425C139.439 14.27 138.503 11.03 138.503 9.14V8.888C138.503 6.998 139.385 3.74 144.407 3.74H145.235C150.059 3.74 151.013 6.368 151.013 7.808V7.826H147.341C147.287 7.538 146.945 6.296 144.875 6.296H144.695C142.625 6.296 142.139 7.718 142.139 8.924V8.942C142.139 10.184 142.733 11.66 144.767 11.66H144.947C147.035 11.66 147.341 10.31 147.341 10.076ZM156.643 7.268V14H153.403V4.01H158.353L161.323 10.382L164.293 4.01H169.063V14H165.553V7.268L162.439 14H159.757L156.643 7.268ZM180.284 7.952L175.46 14H171.86V4.01H175.37V10.058L180.194 4.01H183.794V14H180.284V7.952ZM194.13 4.01H197.64V14H194.13V10.562C193.356 10.652 192.456 10.742 191.52 10.742C187.56 10.742 186.066 9.626 186.066 6.458V4.01H189.576V5.81C189.576 7.682 190.206 8.006 192.06 8.006C192.762 8.006 193.572 7.952 194.13 7.88V4.01ZM206.362 6.08C204.544 6.08 203.86 6.818 203.68 7.862H208.972C208.972 7.124 208.612 6.08 206.362 6.08ZM209.044 10.886H212.698C212.698 11.714 212.05 14.234 206.884 14.234H206.218C201.286 14.234 200.062 11.534 200.062 9.14V8.888C200.062 6.638 201.178 3.794 205.912 3.794H206.704C211.816 3.794 212.734 6.638 212.734 9.428V9.752H203.644C203.788 10.904 204.526 11.84 206.668 11.84C208.702 11.84 208.954 11.048 209.044 10.886ZM223.49 10.076H227.162C227.162 11.588 226.262 14.27 221.456 14.27H220.574C215.588 14.27 214.652 11.03 214.652 9.14V8.888C214.652 6.998 215.534 3.74 220.556 3.74H221.384C226.208 3.74 227.162 6.368 227.162 7.808V7.826H223.49C223.436 7.538 223.094 6.296 221.024 6.296H220.844C218.774 6.296 218.288 7.718 218.288 8.924V8.942C218.288 10.184 218.882 11.66 220.916 11.66H221.096C223.184 11.66 223.49 10.31 223.49 10.076ZM236.986 14L233.098 9.374V14H229.588V4.01H233.098V8.006L236.662 4.01H240.712L236.536 8.492L241.162 14H236.986ZM251.036 7.952L246.212 14H242.612V4.01H246.122V10.058L250.946 4.01H254.546V14H251.036V7.952ZM265.458 14L262.776 11.138L260.166 14H256.188L260.67 8.996L256.044 4.01H260.346L262.902 6.8L265.368 4.01H269.238L264.936 8.924L269.508 14H265.458ZM284.628 7.952L279.804 14H276.204V4.01H279.714V10.058L284.538 4.01H288.138V14H284.628V7.952ZM294.568 14H291.058V4.01H294.568V7.646H299.464V4.01H302.974V14H299.464V10.31H294.568V14ZM309.404 14H305.894V4.01H309.404V7.646H314.3V4.01H317.81V14H314.3V10.31H309.404V14ZM326.993 14.27H326.435C321.053 14.27 320.225 10.994 320.225 9.176V8.924C320.225 7.124 321.053 3.74 326.417 3.74H327.011C332.555 3.74 333.203 7.142 333.203 8.906V9.194C333.203 10.994 332.555 14.27 326.993 14.27ZM326.615 11.642H326.813C329.027 11.642 329.585 10.058 329.585 8.96C329.585 7.826 329.027 6.314 326.813 6.314H326.615C324.311 6.314 323.843 7.826 323.843 8.96C323.843 10.058 324.311 11.642 326.615 11.642ZM343.862 14H335.618V4.01H343.502C345.788 4.01 347.228 4.82 347.228 6.404V6.494C347.228 7.736 346.436 8.474 345.23 8.672C346.454 8.816 347.552 9.68 347.552 11.12V11.192C347.552 13.01 346.364 14 343.862 14ZM339.128 7.988H342.35C343.196 7.988 343.628 7.664 343.628 7.034V6.944C343.628 6.368 343.232 6.026 342.35 6.026H339.128V7.988ZM339.128 11.984H342.494C343.43 11.984 343.952 11.678 343.952 10.976V10.832C343.952 10.202 343.52 9.806 342.494 9.806H339.128V11.984ZM354.625 12.002C356.677 12.002 357.379 10.706 357.379 9.95V9.176C357.073 9.302 356.191 9.482 355.183 9.644C353.491 9.932 352.951 10.166 352.951 10.868V10.904C352.951 11.534 353.401 12.002 354.625 12.002ZM357.487 12.614C357.055 13.136 355.975 14.198 353.635 14.198H353.347C350.557 14.198 349.405 12.686 349.405 11.03V10.958C349.405 9.23 350.503 8.168 353.887 7.88L356.623 7.646C357.181 7.592 357.379 7.412 357.379 6.998C357.379 6.53 357.235 6.026 355.291 6.026C353.455 6.026 353.275 6.746 353.275 7.124H349.675V7.088C349.675 6.098 350.071 3.776 354.985 3.776H355.543C360.493 3.776 360.799 5.81 360.799 7.142V10.436C360.799 11.066 360.925 11.318 361.627 11.318H362.005V14H359.161C358.117 14 357.631 13.262 357.487 12.614ZM377.363 11.336V16.124H374.033V14H364.007V4.01H367.517V11.336H372.053V4.01H375.563V11.336H377.363ZM387.882 7.952L383.058 14H379.458V4.01H382.968V10.058L387.792 4.01H391.392V14H387.882V7.952ZM402.736 7.952L397.912 14H394.312V4.01H397.822V10.058L402.646 4.01H406.246V14H402.736V7.952ZM400.504 2.984H399.964C397.102 2.984 396.598 1.04 396.598 0.104V0.0499994H399.244C399.244 0.284 399.352 1.004 400.252 1.004C401.098 1.004 401.224 0.284 401.224 0.0499994H403.834V0.104C403.834 1.04 403.114 2.984 400.504 2.984Z" fill="url(#paint0_linear_10_598)"/>
<path d="M13.4372 14H0.207248V11.156H5.06725V5.18H1.26925V2.606C4.36525 2.606 5.37325 2.138 5.94925 0.608H8.75725V11.156H13.4372V14ZM19.8078 10.508V14H15.6138V10.508H19.8078ZM39.24 14V3.56H33.48C33.48 7.214 33.318 10.004 32.832 11.462C32.4 12.74 31.626 14 28.962 14H27.63V10.85H27.756C28.854 10.85 29.304 10.346 29.52 9.788C29.88 8.852 29.97 7.574 29.97 0.608H42.948V14H39.24ZM54.4777 7.952L49.6537 14H46.0537V4.01H49.5637V10.058L54.3877 4.01H57.9877V14H54.4777V7.952ZM60.0792 16.124V11.336H61.2852C61.9692 9.968 62.0772 6.998 62.1672 4.01H72.7332V11.336H74.5332V16.124H71.2032V14H63.4092V16.124H60.0792ZM64.5972 11.336H69.2232V6.674H65.3172C65.2632 7.97 65.0832 9.95 64.5972 11.336ZM82.2603 6.08C80.4423 6.08 79.7583 6.818 79.5783 7.862H84.8703C84.8703 7.124 84.5103 6.08 82.2603 6.08ZM84.9423 10.886H88.5963C88.5963 11.714 87.9483 14.234 82.7823 14.234H82.1163C77.1843 14.234 75.9603 11.534 75.9603 9.14V8.888C75.9603 6.638 77.0763 3.794 81.8103 3.794H82.6023C87.7143 3.794 88.6323 6.638 88.6323 9.428V9.752H79.5423C79.6863 10.904 80.4243 11.84 82.5663 11.84C84.6003 11.84 84.8523 11.048 84.9423 10.886ZM100.216 9.014V8.96C100.216 7.88 99.7121 6.422 97.5161 6.422H97.3361C95.2301 6.422 94.5641 7.808 94.5641 8.96V9.014C94.5641 10.112 95.2301 11.552 97.3361 11.552H97.5161C99.7121 11.552 100.216 10.04 100.216 9.014ZM91.0721 17.438V4.01H94.5461V5.288C94.9781 4.82 96.2921 3.812 98.5601 3.812H98.7941C102.61 3.812 103.852 6.422 103.852 8.798V9.104C103.852 11.282 102.574 14.198 98.7761 14.198H98.5241C96.2381 14.198 95.0141 13.154 94.5821 12.722V17.438H91.0721ZM118.931 14L115.043 9.374V14H111.533V4.01H115.043V8.006L118.607 4.01H122.657L118.481 8.492L123.107 14H118.931ZM130.365 14.27H129.807C124.425 14.27 123.597 10.994 123.597 9.176V8.924C123.597 7.124 124.425 3.74 129.789 3.74H130.383C135.927 3.74 136.575 7.142 136.575 8.906V9.194C136.575 10.994 135.927 14.27 130.365 14.27ZM129.987 11.642H130.185C132.399 11.642 132.957 10.058 132.957 8.96C132.957 7.826 132.399 6.314 130.185 6.314H129.987C127.683 6.314 127.215 7.826 127.215 8.96C127.215 10.058 127.683 11.642 129.987 11.642ZM147.341 10.076H151.013C151.013 11.588 150.113 14.27 145.307 14.27H144.425C139.439 14.27 138.503 11.03 138.503 9.14V8.888C138.503 6.998 139.385 3.74 144.407 3.74H145.235C150.059 3.74 151.013 6.368 151.013 7.808V7.826H147.341C147.287 7.538 146.945 6.296 144.875 6.296H144.695C142.625 6.296 142.139 7.718 142.139 8.924V8.942C142.139 10.184 142.733 11.66 144.767 11.66H144.947C147.035 11.66 147.341 10.31 147.341 10.076ZM156.643 7.268V14H153.403V4.01H158.353L161.323 10.382L164.293 4.01H169.063V14H165.553V7.268L162.439 14H159.757L156.643 7.268ZM180.284 7.952L175.46 14H171.86V4.01H175.37V10.058L180.194 4.01H183.794V14H180.284V7.952ZM194.13 4.01H197.64V14H194.13V10.562C193.356 10.652 192.456 10.742 191.52 10.742C187.56 10.742 186.066 9.626 186.066 6.458V4.01H189.576V5.81C189.576 7.682 190.206 8.006 192.06 8.006C192.762 8.006 193.572 7.952 194.13 7.88V4.01ZM206.362 6.08C204.544 6.08 203.86 6.818 203.68 7.862H208.972C208.972 7.124 208.612 6.08 206.362 6.08ZM209.044 10.886H212.698C212.698 11.714 212.05 14.234 206.884 14.234H206.218C201.286 14.234 200.062 11.534 200.062 9.14V8.888C200.062 6.638 201.178 3.794 205.912 3.794H206.704C211.816 3.794 212.734 6.638 212.734 9.428V9.752H203.644C203.788 10.904 204.526 11.84 206.668 11.84C208.702 11.84 208.954 11.048 209.044 10.886ZM223.49 10.076H227.162C227.162 11.588 226.262 14.27 221.456 14.27H220.574C215.588 14.27 214.652 11.03 214.652 9.14V8.888C214.652 6.998 215.534 3.74 220.556 3.74H221.384C226.208 3.74 227.162 6.368 227.162 7.808V7.826H223.49C223.436 7.538 223.094 6.296 221.024 6.296H220.844C218.774 6.296 218.288 7.718 218.288 8.924V8.942C218.288 10.184 218.882 11.66 220.916 11.66H221.096C223.184 11.66 223.49 10.31 223.49 10.076ZM236.986 14L233.098 9.374V14H229.588V4.01H233.098V8.006L236.662 4.01H240.712L236.536 8.492L241.162 14H236.986ZM251.036 7.952L246.212 14H242.612V4.01H246.122V10.058L250.946 4.01H254.546V14H251.036V7.952ZM265.458 14L262.776 11.138L260.166 14H256.188L260.67 8.996L256.044 4.01H260.346L262.902 6.8L265.368 4.01H269.238L264.936 8.924L269.508 14H265.458ZM284.628 7.952L279.804 14H276.204V4.01H279.714V10.058L284.538 4.01H288.138V14H284.628V7.952ZM294.568 14H291.058V4.01H294.568V7.646H299.464V4.01H302.974V14H299.464V10.31H294.568V14ZM309.404 14H305.894V4.01H309.404V7.646H314.3V4.01H317.81V14H314.3V10.31H309.404V14ZM326.993 14.27H326.435C321.053 14.27 320.225 10.994 320.225 9.176V8.924C320.225 7.124 321.053 3.74 326.417 3.74H327.011C332.555 3.74 333.203 7.142 333.203 8.906V9.194C333.203 10.994 332.555 14.27 326.993 14.27ZM326.615 11.642H326.813C329.027 11.642 329.585 10.058 329.585 8.96C329.585 7.826 329.027 6.314 326.813 6.314H326.615C324.311 6.314 323.843 7.826 323.843 8.96C323.843 10.058 324.311 11.642 326.615 11.642ZM343.862 14H335.618V4.01H343.502C345.788 4.01 347.228 4.82 347.228 6.404V6.494C347.228 7.736 346.436 8.474 345.23 8.672C346.454 8.816 347.552 9.68 347.552 11.12V11.192C347.552 13.01 346.364 14 343.862 14ZM339.128 7.988H342.35C343.196 7.988 343.628 7.664 343.628 7.034V6.944C343.628 6.368 343.232 6.026 342.35 6.026H339.128V7.988ZM339.128 11.984H342.494C343.43 11.984 343.952 11.678 343.952 10.976V10.832C343.952 10.202 343.52 9.806 342.494 9.806H339.128V11.984ZM354.625 12.002C356.677 12.002 357.379 10.706 357.379 9.95V9.176C357.073 9.302 356.191 9.482 355.183 9.644C353.491 9.932 352.951 10.166 352.951 10.868V10.904C352.951 11.534 353.401 12.002 354.625 12.002ZM357.487 12.614C357.055 13.136 355.975 14.198 353.635 14.198H353.347C350.557 14.198 349.405 12.686 349.405 11.03V10.958C349.405 9.23 350.503 8.168 353.887 7.88L356.623 7.646C357.181 7.592 357.379 7.412 357.379 6.998C357.379 6.53 357.235 6.026 355.291 6.026C353.455 6.026 353.275 6.746 353.275 7.124H349.675V7.088C349.675 6.098 350.071 3.776 354.985 3.776H355.543C360.493 3.776 360.799 5.81 360.799 7.142V10.436C360.799 11.066 360.925 11.318 361.627 11.318H362.005V14H359.161C358.117 14 357.631 13.262 357.487 12.614ZM377.363 11.336V16.124H374.033V14H364.007V4.01H367.517V11.336H372.053V4.01H375.563V11.336H377.363ZM387.882 7.952L383.058 14H379.458V4.01H382.968V10.058L387.792 4.01H391.392V14H387.882V7.952ZM402.736 7.952L397.912 14H394.312V4.01H397.822V10.058L402.646 4.01H406.246V14H402.736V7.952ZM400.504 2.984H399.964C397.102 2.984 396.598 1.04 396.598 0.104V0.0499994H399.244C399.244 0.284 399.352 1.004 400.252 1.004C401.098 1.004 401.224 0.284 401.224 0.0499994H403.834V0.104C403.834 1.04 403.114 2.984 400.504 2.984Z" fill="url(#paint1_radial_10_598)" style="mix-blend-mode:overlay"/>
<path d="M13.4372 14H0.207248V11.156H5.06725V5.18H1.26925V2.606C4.36525 2.606 5.37325 2.138 5.94925 0.608H8.75725V11.156H13.4372V14ZM19.8078 10.508V14H15.6138V10.508H19.8078ZM39.24 14V3.56H33.48C33.48 7.214 33.318 10.004 32.832 11.462C32.4 12.74 31.626 14 28.962 14H27.63V10.85H27.756C28.854 10.85 29.304 10.346 29.52 9.788C29.88 8.852 29.97 7.574 29.97 0.608H42.948V14H39.24ZM54.4777 7.952L49.6537 14H46.0537V4.01H49.5637V10.058L54.3877 4.01H57.9877V14H54.4777V7.952ZM60.0792 16.124V11.336H61.2852C61.9692 9.968 62.0772 6.998 62.1672 4.01H72.7332V11.336H74.5332V16.124H71.2032V14H63.4092V16.124H60.0792ZM64.5972 11.336H69.2232V6.674H65.3172C65.2632 7.97 65.0832 9.95 64.5972 11.336ZM82.2603 6.08C80.4423 6.08 79.7583 6.818 79.5783 7.862H84.8703C84.8703 7.124 84.5103 6.08 82.2603 6.08ZM84.9423 10.886H88.5963C88.5963 11.714 87.9483 14.234 82.7823 14.234H82.1163C77.1843 14.234 75.9603 11.534 75.9603 9.14V8.888C75.9603 6.638 77.0763 3.794 81.8103 3.794H82.6023C87.7143 3.794 88.6323 6.638 88.6323 9.428V9.752H79.5423C79.6863 10.904 80.4243 11.84 82.5663 11.84C84.6003 11.84 84.8523 11.048 84.9423 10.886ZM100.216 9.014V8.96C100.216 7.88 99.7121 6.422 97.5161 6.422H97.3361C95.2301 6.422 94.5641 7.808 94.5641 8.96V9.014C94.5641 10.112 95.2301 11.552 97.3361 11.552H97.5161C99.7121 11.552 100.216 10.04 100.216 9.014ZM91.0721 17.438V4.01H94.5461V5.288C94.9781 4.82 96.2921 3.812 98.5601 3.812H98.7941C102.61 3.812 103.852 6.422 103.852 8.798V9.104C103.852 11.282 102.574 14.198 98.7761 14.198H98.5241C96.2381 14.198 95.0141 13.154 94.5821 12.722V17.438H91.0721ZM118.931 14L115.043 9.374V14H111.533V4.01H115.043V8.006L118.607 4.01H122.657L118.481 8.492L123.107 14H118.931ZM130.365 14.27H129.807C124.425 14.27 123.597 10.994 123.597 9.176V8.924C123.597 7.124 124.425 3.74 129.789 3.74H130.383C135.927 3.74 136.575 7.142 136.575 8.906V9.194C136.575 10.994 135.927 14.27 130.365 14.27ZM129.987 11.642H130.185C132.399 11.642 132.957 10.058 132.957 8.96C132.957 7.826 132.399 6.314 130.185 6.314H129.987C127.683 6.314 127.215 7.826 127.215 8.96C127.215 10.058 127.683 11.642 129.987 11.642ZM147.341 10.076H151.013C151.013 11.588 150.113 14.27 145.307 14.27H144.425C139.439 14.27 138.503 11.03 138.503 9.14V8.888C138.503 6.998 139.385 3.74 144.407 3.74H145.235C150.059 3.74 151.013 6.368 151.013 7.808V7.826H147.341C147.287 7.538 146.945 6.296 144.875 6.296H144.695C142.625 6.296 142.139 7.718 142.139 8.924V8.942C142.139 10.184 142.733 11.66 144.767 11.66H144.947C147.035 11.66 147.341 10.31 147.341 10.076ZM156.643 7.268V14H153.403V4.01H158.353L161.323 10.382L164.293 4.01H169.063V14H165.553V7.268L162.439 14H159.757L156.643 7.268ZM180.284 7.952L175.46 14H171.86V4.01H175.37V10.058L180.194 4.01H183.794V14H180.284V7.952ZM194.13 4.01H197.64V14H194.13V10.562C193.356 10.652 192.456 10.742 191.52 10.742C187.56 10.742 186.066 9.626 186.066 6.458V4.01H189.576V5.81C189.576 7.682 190.206 8.006 192.06 8.006C192.762 8.006 193.572 7.952 194.13 7.88V4.01ZM206.362 6.08C204.544 6.08 203.86 6.818 203.68 7.862H208.972C208.972 7.124 208.612 6.08 206.362 6.08ZM209.044 10.886H212.698C212.698 11.714 212.05 14.234 206.884 14.234H206.218C201.286 14.234 200.062 11.534 200.062 9.14V8.888C200.062 6.638 201.178 3.794 205.912 3.794H206.704C211.816 3.794 212.734 6.638 212.734 9.428V9.752H203.644C203.788 10.904 204.526 11.84 206.668 11.84C208.702 11.84 208.954 11.048 209.044 10.886ZM223.49 10.076H227.162C227.162 11.588 226.262 14.27 221.456 14.27H220.574C215.588 14.27 214.652 11.03 214.652 9.14V8.888C214.652 6.998 215.534 3.74 220.556 3.74H221.384C226.208 3.74 227.162 6.368 227.162 7.808V7.826H223.49C223.436 7.538 223.094 6.296 221.024 6.296H220.844C218.774 6.296 218.288 7.718 218.288 8.924V8.942C218.288 10.184 218.882 11.66 220.916 11.66H221.096C223.184 11.66 223.49 10.31 223.49 10.076ZM236.986 14L233.098 9.374V14H229.588V4.01H233.098V8.006L236.662 4.01H240.712L236.536 8.492L241.162 14H236.986ZM251.036 7.952L246.212 14H242.612V4.01H246.122V10.058L250.946 4.01H254.546V14H251.036V7.952ZM265.458 14L262.776 11.138L260.166 14H256.188L260.67 8.996L256.044 4.01H260.346L262.902 6.8L265.368 4.01H269.238L264.936 8.924L269.508 14H265.458ZM284.628 7.952L279.804 14H276.204V4.01H279.714V10.058L284.538 4.01H288.138V14H284.628V7.952ZM294.568 14H291.058V4.01H294.568V7.646H299.464V4.01H302.974V14H299.464V10.31H294.568V14ZM309.404 14H305.894V4.01H309.404V7.646H314.3V4.01H317.81V14H314.3V10.31H309.404V14ZM326.993 14.27H326.435C321.053 14.27 320.225 10.994 320.225 9.176V8.924C320.225 7.124 321.053 3.74 326.417 3.74H327.011C332.555 3.74 333.203 7.142 333.203 8.906V9.194C333.203 10.994 332.555 14.27 326.993 14.27ZM326.615 11.642H326.813C329.027 11.642 329.585 10.058 329.585 8.96C329.585 7.826 329.027 6.314 326.813 6.314H326.615C324.311 6.314 323.843 7.826 323.843 8.96C323.843 10.058 324.311 11.642 326.615 11.642ZM343.862 14H335.618V4.01H343.502C345.788 4.01 347.228 4.82 347.228 6.404V6.494C347.228 7.736 346.436 8.474 345.23 8.672C346.454 8.816 347.552 9.68 347.552 11.12V11.192C347.552 13.01 346.364 14 343.862 14ZM339.128 7.988H342.35C343.196 7.988 343.628 7.664 343.628 7.034V6.944C343.628 6.368 343.232 6.026 342.35 6.026H339.128V7.988ZM339.128 11.984H342.494C343.43 11.984 343.952 11.678 343.952 10.976V10.832C343.952 10.202 343.52 9.806 342.494 9.806H339.128V11.984ZM354.625 12.002C356.677 12.002 357.379 10.706 357.379 9.95V9.176C357.073 9.302 356.191 9.482 355.183 9.644C353.491 9.932 352.951 10.166 352.951 10.868V10.904C352.951 11.534 353.401 12.002 354.625 12.002ZM357.487 12.614C357.055 13.136 355.975 14.198 353.635 14.198H353.347C350.557 14.198 349.405 12.686 349.405 11.03V10.958C349.405 9.23 350.503 8.168 353.887 7.88L356.623 7.646C357.181 7.592 357.379 7.412 357.379 6.998C357.379 6.53 357.235 6.026 355.291 6.026C353.455 6.026 353.275 6.746 353.275 7.124H349.675V7.088C349.675 6.098 350.071 3.776 354.985 3.776H355.543C360.493 3.776 360.799 5.81 360.799 7.142V10.436C360.799 11.066 360.925 11.318 361.627 11.318H362.005V14H359.161C358.117 14 357.631 13.262 357.487 12.614ZM377.363 11.336V16.124H374.033V14H364.007V4.01H367.517V11.336H372.053V4.01H375.563V11.336H377.363ZM387.882 7.952L383.058 14H379.458V4.01H382.968V10.058L387.792 4.01H391.392V14H387.882V7.952ZM402.736 7.952L397.912 14H394.312V4.01H397.822V10.058L402.646 4.01H406.246V14H402.736V7.952ZM400.504 2.984H399.964C397.102 2.984 396.598 1.04 396.598 0.104V0.0499994H399.244C399.244 0.284 399.352 1.004 400.252 1.004C401.098 1.004 401.224 0.284 401.224 0.0499994H403.834V0.104C403.834 1.04 403.114 2.984 400.504 2.984Z" fill="url(#paint2_radial_10_598)"/>
<path d="M13.4372 14H0.207248V11.156H5.06725V5.18H1.26925V2.606C4.36525 2.606 5.37325 2.138 5.94925 0.608H8.75725V11.156H13.4372V14ZM19.8078 10.508V14H15.6138V10.508H19.8078ZM39.24 14V3.56H33.48C33.48 7.214 33.318 10.004 32.832 11.462C32.4 12.74 31.626 14 28.962 14H27.63V10.85H27.756C28.854 10.85 29.304 10.346 29.52 9.788C29.88 8.852 29.97 7.574 29.97 0.608H42.948V14H39.24ZM54.4777 7.952L49.6537 14H46.0537V4.01H49.5637V10.058L54.3877 4.01H57.9877V14H54.4777V7.952ZM60.0792 16.124V11.336H61.2852C61.9692 9.968 62.0772 6.998 62.1672 4.01H72.7332V11.336H74.5332V16.124H71.2032V14H63.4092V16.124H60.0792ZM64.5972 11.336H69.2232V6.674H65.3172C65.2632 7.97 65.0832 9.95 64.5972 11.336ZM82.2603 6.08C80.4423 6.08 79.7583 6.818 79.5783 7.862H84.8703C84.8703 7.124 84.5103 6.08 82.2603 6.08ZM84.9423 10.886H88.5963C88.5963 11.714 87.9483 14.234 82.7823 14.234H82.1163C77.1843 14.234 75.9603 11.534 75.9603 9.14V8.888C75.9603 6.638 77.0763 3.794 81.8103 3.794H82.6023C87.7143 3.794 88.6323 6.638 88.6323 9.428V9.752H79.5423C79.6863 10.904 80.4243 11.84 82.5663 11.84C84.6003 11.84 84.8523 11.048 84.9423 10.886ZM100.216 9.014V8.96C100.216 7.88 99.7121 6.422 97.5161 6.422H97.3361C95.2301 6.422 94.5641 7.808 94.5641 8.96V9.014C94.5641 10.112 95.2301 11.552 97.3361 11.552H97.5161C99.7121 11.552 100.216 10.04 100.216 9.014ZM91.0721 17.438V4.01H94.5461V5.288C94.9781 4.82 96.2921 3.812 98.5601 3.812H98.7941C102.61 3.812 103.852 6.422 103.852 8.798V9.104C103.852 11.282 102.574 14.198 98.7761 14.198H98.5241C96.2381 14.198 95.0141 13.154 94.5821 12.722V17.438H91.0721ZM118.931 14L115.043 9.374V14H111.533V4.01H115.043V8.006L118.607 4.01H122.657L118.481 8.492L123.107 14H118.931ZM130.365 14.27H129.807C124.425 14.27 123.597 10.994 123.597 9.176V8.924C123.597 7.124 124.425 3.74 129.789 3.74H130.383C135.927 3.74 136.575 7.142 136.575 8.906V9.194C136.575 10.994 135.927 14.27 130.365 14.27ZM129.987 11.642H130.185C132.399 11.642 132.957 10.058 132.957 8.96C132.957 7.826 132.399 6.314 130.185 6.314H129.987C127.683 6.314 127.215 7.826 127.215 8.96C127.215 10.058 127.683 11.642 129.987 11.642ZM147.341 10.076H151.013C151.013 11.588 150.113 14.27 145.307 14.27H144.425C139.439 14.27 138.503 11.03 138.503 9.14V8.888C138.503 6.998 139.385 3.74 144.407 3.74H145.235C150.059 3.74 151.013 6.368 151.013 7.808V7.826H147.341C147.287 7.538 146.945 6.296 144.875 6.296H144.695C142.625 6.296 142.139 7.718 142.139 8.924V8.942C142.139 10.184 142.733 11.66 144.767 11.66H144.947C147.035 11.66 147.341 10.31 147.341 10.076ZM156.643 7.268V14H153.403V4.01H158.353L161.323 10.382L164.293 4.01H169.063V14H165.553V7.268L162.439 14H159.757L156.643 7.268ZM180.284 7.952L175.46 14H171.86V4.01H175.37V10.058L180.194 4.01H183.794V14H180.284V7.952ZM194.13 4.01H197.64V14H194.13V10.562C193.356 10.652 192.456 10.742 191.52 10.742C187.56 10.742 186.066 9.626 186.066 6.458V4.01H189.576V5.81C189.576 7.682 190.206 8.006 192.06 8.006C192.762 8.006 193.572 7.952 194.13 7.88V4.01ZM206.362 6.08C204.544 6.08 203.86 6.818 203.68 7.862H208.972C208.972 7.124 208.612 6.08 206.362 6.08ZM209.044 10.886H212.698C212.698 11.714 212.05 14.234 206.884 14.234H206.218C201.286 14.234 200.062 11.534 200.062 9.14V8.888C200.062 6.638 201.178 3.794 205.912 3.794H206.704C211.816 3.794 212.734 6.638 212.734 9.428V9.752H203.644C203.788 10.904 204.526 11.84 206.668 11.84C208.702 11.84 208.954 11.048 209.044 10.886ZM223.49 10.076H227.162C227.162 11.588 226.262 14.27 221.456 14.27H220.574C215.588 14.27 214.652 11.03 214.652 9.14V8.888C214.652 6.998 215.534 3.74 220.556 3.74H221.384C226.208 3.74 227.162 6.368 227.162 7.808V7.826H223.49C223.436 7.538 223.094 6.296 221.024 6.296H220.844C218.774 6.296 218.288 7.718 218.288 8.924V8.942C218.288 10.184 218.882 11.66 220.916 11.66H221.096C223.184 11.66 223.49 10.31 223.49 10.076ZM236.986 14L233.098 9.374V14H229.588V4.01H233.098V8.006L236.662 4.01H240.712L236.536 8.492L241.162 14H236.986ZM251.036 7.952L246.212 14H242.612V4.01H246.122V10.058L250.946 4.01H254.546V14H251.036V7.952ZM265.458 14L262.776 11.138L260.166 14H256.188L260.67 8.996L256.044 4.01H260.346L262.902 6.8L265.368 4.01H269.238L264.936 8.924L269.508 14H265.458ZM284.628 7.952L279.804 14H276.204V4.01H279.714V10.058L284.538 4.01H288.138V14H284.628V7.952ZM294.568 14H291.058V4.01H294.568V7.646H299.464V4.01H302.974V14H299.464V10.31H294.568V14ZM309.404 14H305.894V4.01H309.404V7.646H314.3V4.01H317.81V14H314.3V10.31H309.404V14ZM326.993 14.27H326.435C321.053 14.27 320.225 10.994 320.225 9.176V8.924C320.225 7.124 321.053 3.74 326.417 3.74H327.011C332.555 3.74 333.203 7.142 333.203 8.906V9.194C333.203 10.994 332.555 14.27 326.993 14.27ZM326.615 11.642H326.813C329.027 11.642 329.585 10.058 329.585 8.96C329.585 7.826 329.027 6.314 326.813 6.314H326.615C324.311 6.314 323.843 7.826 323.843 8.96C323.843 10.058 324.311 11.642 326.615 11.642ZM343.862 14H335.618V4.01H343.502C345.788 4.01 347.228 4.82 347.228 6.404V6.494C347.228 7.736 346.436 8.474 345.23 8.672C346.454 8.816 347.552 9.68 347.552 11.12V11.192C347.552 13.01 346.364 14 343.862 14ZM339.128 7.988H342.35C343.196 7.988 343.628 7.664 343.628 7.034V6.944C343.628 6.368 343.232 6.026 342.35 6.026H339.128V7.988ZM339.128 11.984H342.494C343.43 11.984 343.952 11.678 343.952 10.976V10.832C343.952 10.202 343.52 9.806 342.494 9.806H339.128V11.984ZM354.625 12.002C356.677 12.002 357.379 10.706 357.379 9.95V9.176C357.073 9.302 356.191 9.482 355.183 9.644C353.491 9.932 352.951 10.166 352.951 10.868V10.904C352.951 11.534 353.401 12.002 354.625 12.002ZM357.487 12.614C357.055 13.136 355.975 14.198 353.635 14.198H353.347C350.557 14.198 349.405 12.686 349.405 11.03V10.958C349.405 9.23 350.503 8.168 353.887 7.88L356.623 7.646C357.181 7.592 357.379 7.412 357.379 6.998C357.379 6.53 357.235 6.026 355.291 6.026C353.455 6.026 353.275 6.746 353.275 7.124H349.675V7.088C349.675 6.098 350.071 3.776 354.985 3.776H355.543C360.493 3.776 360.799 5.81 360.799 7.142V10.436C360.799 11.066 360.925 11.318 361.627 11.318H362.005V14H359.161C358.117 14 357.631 13.262 357.487 12.614ZM377.363 11.336V16.124H374.033V14H364.007V4.01H367.517V11.336H372.053V4.01H375.563V11.336H377.363ZM387.882 7.952L383.058 14H379.458V4.01H382.968V10.058L387.792 4.01H391.392V14H387.882V7.952ZM402.736 7.952L397.912 14H394.312V4.01H397.822V10.058L402.646 4.01H406.246V14H402.736V7.952ZM400.504 2.984H399.964C397.102 2.984 396.598 1.04 396.598 0.104V0.0499994H399.244C399.244 0.284 399.352 1.004 400.252 1.004C401.098 1.004 401.224 0.284 401.224 0.0499994H403.834V0.104C403.834 1.04 403.114 2.984 400.504 2.984Z" fill="#C1A875" style="mix-blend-mode:color"/>
<defs>
<linearGradient id="paint0_linear_10_598" x1="1.51992e-06" y1="6" x2="408" y2="6.00004" gradientUnits="userSpaceOnUse">
<stop stop-color="#576167"/>
<stop offset="0.191294" stop-color="#9EA1A2"/>
<stop offset="0.396166" stop-color="#848989"/>
<stop offset="0.62055" stop-color="#576167"/>
<stop offset="0.830299" stop-color="#757A7C"/>
<stop offset="1" stop-color="#576167"/>
</linearGradient>
<radialGradient id="paint1_radial_10_598" cx="0" cy="0" r="1" gradientUnits="userSpaceOnUse" gradientTransform="translate(217.281 -3.20225) rotate(90) scale(17.8315 308.665)">
<stop stop-color="white"/>
<stop offset="1" stop-color="white" stop-opacity="0"/>
</radialGradient>
<radialGradient id="paint2_radial_10_598" cx="0" cy="0" r="1" gradientUnits="userSpaceOnUse" gradientTransform="translate(240.359 23.6629) rotate(-88.5357) scale(25.5589 441.24)">
<stop stop-color="white"/>
<stop offset="1" stop-color="white" stop-opacity="0"/>
</radialGradient>
</defs>
</svg>
