<svg width="484" height="18" viewBox="0 0 484 18" fill="none" xmlns="http://www.w3.org/2000/svg">
<path d="M4.05 5.342H0.864V2.624C3.564 2.624 4.392 2.228 4.968 0.608H7.74V14H4.05V5.342ZM18.061 0.391999H18.817C25.099 0.391999 26.305 4.622 26.305 6.998V7.538C26.305 9.878 25.063 14.216 18.817 14.216H18.061C11.797 14.216 10.573 9.878 10.573 7.538V6.998C10.573 4.568 11.797 0.391999 18.061 0.391999ZM22.453 7.376V7.124C22.453 5.918 21.949 3.452 18.439 3.452C14.893 3.452 14.425 5.918 14.425 7.124V7.376C14.425 8.6 15.001 11.138 18.457 11.138C21.913 11.138 22.453 8.6 22.453 7.376ZM32.4523 10.508V14H28.2583V10.508H32.4523ZM40.5037 14V0.608H54.3817V14H50.6737V3.56H44.2117V14H40.5037ZM65.9211 7.952L61.0971 14H57.4971V4.01H61.0071V10.058L65.8311 4.01H69.4311V14H65.9211V7.952ZM78.6146 14.27H78.0566C72.6746 14.27 71.8466 10.994 71.8466 9.176V8.924C71.8466 7.124 72.6746 3.74 78.0386 3.74H78.6326C84.1766 3.74 84.8246 7.142 84.8246 8.906V9.194C84.8246 10.994 84.1766 14.27 78.6146 14.27ZM78.2366 11.642H78.4346C80.6486 11.642 81.2066 10.058 81.2066 8.96C81.2066 7.826 80.6486 6.314 78.4346 6.314H78.2366C75.9326 6.314 75.4646 7.826 75.4646 8.96C75.4646 10.058 75.9326 11.642 78.2366 11.642ZM90.7493 14H87.2393V4.01H90.7493V7.646H95.6453V4.01H99.1553V14H95.6453V10.31H90.7493V14ZM107.889 6.08C106.071 6.08 105.387 6.818 105.207 7.862H110.499C110.499 7.124 110.139 6.08 107.889 6.08ZM110.571 10.886H114.225C114.225 11.714 113.577 14.234 108.411 14.234H107.745C102.813 14.234 101.589 11.534 101.589 9.14V8.888C101.589 6.638 102.705 3.794 107.439 3.794H108.231C113.343 3.794 114.261 6.638 114.261 9.428V9.752H105.171C105.315 10.904 106.053 11.84 108.195 11.84C110.229 11.84 110.481 11.048 110.571 10.886ZM125.845 9.014V8.96C125.845 7.88 125.341 6.422 123.145 6.422H122.965C120.859 6.422 120.193 7.808 120.193 8.96V9.014C120.193 10.112 120.859 11.552 122.965 11.552H123.145C125.341 11.552 125.845 10.04 125.845 9.014ZM116.701 17.438V4.01H120.175V5.288C120.607 4.82 121.921 3.812 124.189 3.812H124.423C128.239 3.812 129.481 6.422 129.481 8.798V9.104C129.481 11.282 128.203 14.198 124.405 14.198H124.153C121.867 14.198 120.643 13.154 120.211 12.722V17.438H116.701ZM137.882 17.438V14.936H140.078C140.42 14.936 140.6 14.792 140.6 14.522V14.504C140.6 14.288 140.546 14.09 140.276 13.532L135.992 4.01H139.844L142.616 11.174L145.37 4.01H148.898L144.326 15.008C143.624 16.646 142.76 17.438 141.104 17.438H137.882ZM153.919 7.268V14H150.679V4.01H155.629L158.599 10.382L161.569 4.01H166.339V14H162.829V7.268L159.715 14H157.033L153.919 7.268ZM172.646 14H169.136V4.01H172.646V7.646H177.542V4.01H181.052V14H177.542V10.31H172.646V14ZM190.236 14.27H189.678C184.296 14.27 183.468 10.994 183.468 9.176V8.924C183.468 7.124 184.296 3.74 189.66 3.74H190.254C195.798 3.74 196.446 7.142 196.446 8.906V9.194C196.446 10.994 195.798 14.27 190.236 14.27ZM189.858 11.642H190.056C192.27 11.642 192.828 10.058 192.828 8.96C192.828 7.826 192.27 6.314 190.056 6.314H189.858C187.554 6.314 187.086 7.826 187.086 8.96C187.086 10.058 187.554 11.642 189.858 11.642ZM198.86 14V4.01H207.572V6.674H202.37V14H198.86ZM215.742 14.27H215.184C209.802 14.27 208.974 10.994 208.974 9.176V8.924C208.974 7.124 209.802 3.74 215.166 3.74H215.76C221.304 3.74 221.952 7.142 221.952 8.906V9.194C221.952 10.994 221.304 14.27 215.742 14.27ZM215.364 11.642H215.562C217.776 11.642 218.334 10.058 218.334 8.96C218.334 7.826 217.776 6.314 215.562 6.314H215.364C213.06 6.314 212.592 7.826 212.592 8.96C212.592 10.058 213.06 11.642 215.364 11.642ZM237.921 10.076H241.593C241.593 11.588 240.693 14.27 235.887 14.27H235.005C230.019 14.27 229.083 11.03 229.083 9.14V8.888C229.083 6.998 229.965 3.74 234.987 3.74H235.815C240.639 3.74 241.593 6.368 241.593 7.808V7.826H237.921C237.867 7.538 237.525 6.296 235.455 6.296H235.275C233.205 6.296 232.719 7.718 232.719 8.924V8.942C232.719 10.184 233.313 11.66 235.347 11.66H235.527C237.615 11.66 237.921 10.31 237.921 10.076ZM249.797 6.08C247.979 6.08 247.295 6.818 247.115 7.862H252.407C252.407 7.124 252.047 6.08 249.797 6.08ZM252.479 10.886H256.133C256.133 11.714 255.485 14.234 250.319 14.234H249.653C244.721 14.234 243.497 11.534 243.497 9.14V8.888C243.497 6.638 244.613 3.794 249.347 3.794H250.139C255.251 3.794 256.169 6.638 256.169 9.428V9.752H247.079C247.223 10.904 247.961 11.84 250.103 11.84C252.137 11.84 252.389 11.048 252.479 10.886ZM266.587 14V6.674H262.627C262.627 9.356 262.537 10.85 262.195 11.768C261.817 12.776 261.313 14 258.667 14H257.569V11.39H257.785C258.415 11.39 258.883 11.174 259.081 10.256C259.225 9.482 259.279 8.636 259.279 4.01H270.097V14H266.587ZM273.005 14V4.01H276.515V6.872H279.251C282.671 6.872 284.003 8.384 284.003 10.292V10.508C284.003 12.596 282.671 14 279.251 14H273.005ZM276.515 11.624H278.819C279.539 11.624 280.403 11.408 280.403 10.436V10.382C280.403 9.482 279.539 9.248 278.819 9.248H276.515V11.624ZM294.611 10.076H298.283C298.283 11.588 297.383 14.27 292.577 14.27H291.695C286.709 14.27 285.773 11.03 285.773 9.14V8.888C285.773 6.998 286.655 3.74 291.677 3.74H292.505C297.329 3.74 298.283 6.368 298.283 7.808V7.826H294.611C294.557 7.538 294.215 6.296 292.145 6.296H291.965C289.895 6.296 289.409 7.718 289.409 8.924V8.942C289.409 10.184 290.003 11.66 292.037 11.66H292.217C294.305 11.66 294.611 10.31 294.611 10.076ZM308.107 14L304.219 9.374V14H300.709V4.01H304.219V8.006L307.783 4.01H311.833L307.657 8.492L312.283 14H308.107ZM319.54 14.27H318.982C313.6 14.27 312.772 10.994 312.772 9.176V8.924C312.772 7.124 313.6 3.74 318.964 3.74H319.558C325.102 3.74 325.75 7.142 325.75 8.906V9.194C325.75 10.994 325.102 14.27 319.54 14.27ZM319.162 11.642H319.36C321.574 11.642 322.132 10.058 322.132 8.96C322.132 7.826 321.574 6.314 319.36 6.314H319.162C316.858 6.314 316.39 7.826 316.39 8.96C316.39 10.058 316.858 11.642 319.162 11.642ZM328.165 14V4.01H336.877V6.674H331.675V14H328.165ZM345.046 14.27H344.488C339.106 14.27 338.278 10.994 338.278 9.176V8.924C338.278 7.124 339.106 3.74 344.47 3.74H345.064C350.608 3.74 351.256 7.142 351.256 8.906V9.194C351.256 10.994 350.608 14.27 345.046 14.27ZM344.668 11.642H344.866C347.08 11.642 347.638 10.058 347.638 8.96C347.638 7.826 347.08 6.314 344.866 6.314H344.668C342.364 6.314 341.896 7.826 341.896 8.96C341.896 10.058 342.364 11.642 344.668 11.642ZM366.866 14L364.184 11.138L361.574 14H357.596L362.078 8.996L357.452 4.01H361.754L364.31 6.8L366.776 4.01H370.646L366.344 8.924L370.916 14H366.866ZM378.497 14.27H377.939C372.557 14.27 371.729 10.994 371.729 9.176V8.924C371.729 7.124 372.557 3.74 377.921 3.74H378.515C384.059 3.74 384.707 7.142 384.707 8.906V9.194C384.707 10.994 384.059 14.27 378.497 14.27ZM378.119 11.642H378.317C380.531 11.642 381.089 10.058 381.089 8.96C381.089 7.826 380.531 6.314 378.317 6.314H378.119C375.815 6.314 375.347 7.826 375.347 8.96C375.347 10.058 375.815 11.642 378.119 11.642ZM398.16 11.048V11.156C398.16 13.154 396.486 14.27 392.652 14.27H392.328C388.224 14.27 386.442 12.74 386.442 10.67V10.526H390.204C390.258 11.642 391.284 12.056 392.508 12.056C393.822 12.056 394.542 11.66 394.542 10.868V10.814C394.542 10.076 393.966 9.896 392.958 9.896H390.582V7.754H392.958C393.732 7.754 394.218 7.448 394.218 6.872V6.818C394.218 6.224 393.624 5.918 392.418 5.918C391.068 5.918 390.348 6.242 390.294 6.944H386.532V6.89C386.532 4.748 389.034 3.74 392.292 3.74H392.58C395.946 3.74 397.836 4.55 397.836 6.422V6.494C397.836 8.006 396.684 8.582 395.856 8.78C396.864 8.978 398.16 9.464 398.16 11.048ZM409.01 10.652H406.652L403.736 14H399.776L403.034 10.274C401.306 9.932 400.316 8.942 400.316 7.43V7.214C400.316 5.396 401.792 4.01 404.294 4.01H412.52V14H409.01V10.652ZM409.01 6.314H405.248C404.474 6.314 403.826 6.494 403.826 7.286V7.358C403.826 8.132 404.492 8.366 405.266 8.366H409.01V6.314ZM423.864 7.952L419.04 14H415.44V4.01H418.95V10.058L423.774 4.01H427.374V14H423.864V7.952ZM421.632 2.984H421.092C418.23 2.984 417.726 1.04 417.726 0.104V0.0499994H420.372C420.372 0.284 420.48 1.004 421.38 1.004C422.226 1.004 422.352 0.284 422.352 0.0499994H424.962V0.104C424.962 1.04 424.242 2.984 421.632 2.984ZM438.646 10.076H442.318C442.318 11.588 441.418 14.27 436.612 14.27H435.73C430.744 14.27 429.808 11.03 429.808 9.14V8.888C429.808 6.998 430.69 3.74 435.712 3.74H436.54C441.364 3.74 442.318 6.368 442.318 7.808V7.826H438.646C438.592 7.538 438.25 6.296 436.18 6.296H436C433.93 6.296 433.444 7.718 433.444 8.924V8.942C433.444 10.184 434.038 11.66 436.072 11.66H436.252C438.34 11.66 438.646 10.31 438.646 10.076ZM447.57 14V6.674H443.7V4.01H454.95V6.674H451.08V14H447.57ZM465.098 14H456.854V4.01H464.738C467.024 4.01 468.464 4.82 468.464 6.404V6.494C468.464 7.736 467.672 8.474 466.466 8.672C467.69 8.816 468.788 9.68 468.788 11.12V11.192C468.788 13.01 467.6 14 465.098 14ZM460.364 7.988H463.586C464.432 7.988 464.864 7.664 464.864 7.034V6.944C464.864 6.368 464.468 6.026 463.586 6.026H460.364V7.988ZM460.364 11.984H463.73C464.666 11.984 465.188 11.678 465.188 10.976V10.832C465.188 10.202 464.756 9.806 463.73 9.806H460.364V11.984ZM475.862 12.002C477.914 12.002 478.616 10.706 478.616 9.95V9.176C478.31 9.302 477.428 9.482 476.42 9.644C474.728 9.932 474.188 10.166 474.188 10.868V10.904C474.188 11.534 474.638 12.002 475.862 12.002ZM478.724 12.614C478.292 13.136 477.212 14.198 474.872 14.198H474.584C471.794 14.198 470.642 12.686 470.642 11.03V10.958C470.642 9.23 471.74 8.168 475.124 7.88L477.86 7.646C478.418 7.592 478.616 7.412 478.616 6.998C478.616 6.53 478.472 6.026 476.528 6.026C474.692 6.026 474.512 6.746 474.512 7.124H470.912V7.088C470.912 6.098 471.308 3.776 476.222 3.776H476.78C481.73 3.776 482.036 5.81 482.036 7.142V10.436C482.036 11.066 482.162 11.318 482.864 11.318H483.242V14H480.398C479.354 14 478.868 13.262 478.724 12.614Z" fill="url(#paint0_linear_2016_4)"/>
<path d="M4.05 5.342H0.864V2.624C3.564 2.624 4.392 2.228 4.968 0.608H7.74V14H4.05V5.342ZM18.061 0.391999H18.817C25.099 0.391999 26.305 4.622 26.305 6.998V7.538C26.305 9.878 25.063 14.216 18.817 14.216H18.061C11.797 14.216 10.573 9.878 10.573 7.538V6.998C10.573 4.568 11.797 0.391999 18.061 0.391999ZM22.453 7.376V7.124C22.453 5.918 21.949 3.452 18.439 3.452C14.893 3.452 14.425 5.918 14.425 7.124V7.376C14.425 8.6 15.001 11.138 18.457 11.138C21.913 11.138 22.453 8.6 22.453 7.376ZM32.4523 10.508V14H28.2583V10.508H32.4523ZM40.5037 14V0.608H54.3817V14H50.6737V3.56H44.2117V14H40.5037ZM65.9211 7.952L61.0971 14H57.4971V4.01H61.0071V10.058L65.8311 4.01H69.4311V14H65.9211V7.952ZM78.6146 14.27H78.0566C72.6746 14.27 71.8466 10.994 71.8466 9.176V8.924C71.8466 7.124 72.6746 3.74 78.0386 3.74H78.6326C84.1766 3.74 84.8246 7.142 84.8246 8.906V9.194C84.8246 10.994 84.1766 14.27 78.6146 14.27ZM78.2366 11.642H78.4346C80.6486 11.642 81.2066 10.058 81.2066 8.96C81.2066 7.826 80.6486 6.314 78.4346 6.314H78.2366C75.9326 6.314 75.4646 7.826 75.4646 8.96C75.4646 10.058 75.9326 11.642 78.2366 11.642ZM90.7493 14H87.2393V4.01H90.7493V7.646H95.6453V4.01H99.1553V14H95.6453V10.31H90.7493V14ZM107.889 6.08C106.071 6.08 105.387 6.818 105.207 7.862H110.499C110.499 7.124 110.139 6.08 107.889 6.08ZM110.571 10.886H114.225C114.225 11.714 113.577 14.234 108.411 14.234H107.745C102.813 14.234 101.589 11.534 101.589 9.14V8.888C101.589 6.638 102.705 3.794 107.439 3.794H108.231C113.343 3.794 114.261 6.638 114.261 9.428V9.752H105.171C105.315 10.904 106.053 11.84 108.195 11.84C110.229 11.84 110.481 11.048 110.571 10.886ZM125.845 9.014V8.96C125.845 7.88 125.341 6.422 123.145 6.422H122.965C120.859 6.422 120.193 7.808 120.193 8.96V9.014C120.193 10.112 120.859 11.552 122.965 11.552H123.145C125.341 11.552 125.845 10.04 125.845 9.014ZM116.701 17.438V4.01H120.175V5.288C120.607 4.82 121.921 3.812 124.189 3.812H124.423C128.239 3.812 129.481 6.422 129.481 8.798V9.104C129.481 11.282 128.203 14.198 124.405 14.198H124.153C121.867 14.198 120.643 13.154 120.211 12.722V17.438H116.701ZM137.882 17.438V14.936H140.078C140.42 14.936 140.6 14.792 140.6 14.522V14.504C140.6 14.288 140.546 14.09 140.276 13.532L135.992 4.01H139.844L142.616 11.174L145.37 4.01H148.898L144.326 15.008C143.624 16.646 142.76 17.438 141.104 17.438H137.882ZM153.919 7.268V14H150.679V4.01H155.629L158.599 10.382L161.569 4.01H166.339V14H162.829V7.268L159.715 14H157.033L153.919 7.268ZM172.646 14H169.136V4.01H172.646V7.646H177.542V4.01H181.052V14H177.542V10.31H172.646V14ZM190.236 14.27H189.678C184.296 14.27 183.468 10.994 183.468 9.176V8.924C183.468 7.124 184.296 3.74 189.66 3.74H190.254C195.798 3.74 196.446 7.142 196.446 8.906V9.194C196.446 10.994 195.798 14.27 190.236 14.27ZM189.858 11.642H190.056C192.27 11.642 192.828 10.058 192.828 8.96C192.828 7.826 192.27 6.314 190.056 6.314H189.858C187.554 6.314 187.086 7.826 187.086 8.96C187.086 10.058 187.554 11.642 189.858 11.642ZM198.86 14V4.01H207.572V6.674H202.37V14H198.86ZM215.742 14.27H215.184C209.802 14.27 208.974 10.994 208.974 9.176V8.924C208.974 7.124 209.802 3.74 215.166 3.74H215.76C221.304 3.74 221.952 7.142 221.952 8.906V9.194C221.952 10.994 221.304 14.27 215.742 14.27ZM215.364 11.642H215.562C217.776 11.642 218.334 10.058 218.334 8.96C218.334 7.826 217.776 6.314 215.562 6.314H215.364C213.06 6.314 212.592 7.826 212.592 8.96C212.592 10.058 213.06 11.642 215.364 11.642ZM237.921 10.076H241.593C241.593 11.588 240.693 14.27 235.887 14.27H235.005C230.019 14.27 229.083 11.03 229.083 9.14V8.888C229.083 6.998 229.965 3.74 234.987 3.74H235.815C240.639 3.74 241.593 6.368 241.593 7.808V7.826H237.921C237.867 7.538 237.525 6.296 235.455 6.296H235.275C233.205 6.296 232.719 7.718 232.719 8.924V8.942C232.719 10.184 233.313 11.66 235.347 11.66H235.527C237.615 11.66 237.921 10.31 237.921 10.076ZM249.797 6.08C247.979 6.08 247.295 6.818 247.115 7.862H252.407C252.407 7.124 252.047 6.08 249.797 6.08ZM252.479 10.886H256.133C256.133 11.714 255.485 14.234 250.319 14.234H249.653C244.721 14.234 243.497 11.534 243.497 9.14V8.888C243.497 6.638 244.613 3.794 249.347 3.794H250.139C255.251 3.794 256.169 6.638 256.169 9.428V9.752H247.079C247.223 10.904 247.961 11.84 250.103 11.84C252.137 11.84 252.389 11.048 252.479 10.886ZM266.587 14V6.674H262.627C262.627 9.356 262.537 10.85 262.195 11.768C261.817 12.776 261.313 14 258.667 14H257.569V11.39H257.785C258.415 11.39 258.883 11.174 259.081 10.256C259.225 9.482 259.279 8.636 259.279 4.01H270.097V14H266.587ZM273.005 14V4.01H276.515V6.872H279.251C282.671 6.872 284.003 8.384 284.003 10.292V10.508C284.003 12.596 282.671 14 279.251 14H273.005ZM276.515 11.624H278.819C279.539 11.624 280.403 11.408 280.403 10.436V10.382C280.403 9.482 279.539 9.248 278.819 9.248H276.515V11.624ZM294.611 10.076H298.283C298.283 11.588 297.383 14.27 292.577 14.27H291.695C286.709 14.27 285.773 11.03 285.773 9.14V8.888C285.773 6.998 286.655 3.74 291.677 3.74H292.505C297.329 3.74 298.283 6.368 298.283 7.808V7.826H294.611C294.557 7.538 294.215 6.296 292.145 6.296H291.965C289.895 6.296 289.409 7.718 289.409 8.924V8.942C289.409 10.184 290.003 11.66 292.037 11.66H292.217C294.305 11.66 294.611 10.31 294.611 10.076ZM308.107 14L304.219 9.374V14H300.709V4.01H304.219V8.006L307.783 4.01H311.833L307.657 8.492L312.283 14H308.107ZM319.54 14.27H318.982C313.6 14.27 312.772 10.994 312.772 9.176V8.924C312.772 7.124 313.6 3.74 318.964 3.74H319.558C325.102 3.74 325.75 7.142 325.75 8.906V9.194C325.75 10.994 325.102 14.27 319.54 14.27ZM319.162 11.642H319.36C321.574 11.642 322.132 10.058 322.132 8.96C322.132 7.826 321.574 6.314 319.36 6.314H319.162C316.858 6.314 316.39 7.826 316.39 8.96C316.39 10.058 316.858 11.642 319.162 11.642ZM328.165 14V4.01H336.877V6.674H331.675V14H328.165ZM345.046 14.27H344.488C339.106 14.27 338.278 10.994 338.278 9.176V8.924C338.278 7.124 339.106 3.74 344.47 3.74H345.064C350.608 3.74 351.256 7.142 351.256 8.906V9.194C351.256 10.994 350.608 14.27 345.046 14.27ZM344.668 11.642H344.866C347.08 11.642 347.638 10.058 347.638 8.96C347.638 7.826 347.08 6.314 344.866 6.314H344.668C342.364 6.314 341.896 7.826 341.896 8.96C341.896 10.058 342.364 11.642 344.668 11.642ZM366.866 14L364.184 11.138L361.574 14H357.596L362.078 8.996L357.452 4.01H361.754L364.31 6.8L366.776 4.01H370.646L366.344 8.924L370.916 14H366.866ZM378.497 14.27H377.939C372.557 14.27 371.729 10.994 371.729 9.176V8.924C371.729 7.124 372.557 3.74 377.921 3.74H378.515C384.059 3.74 384.707 7.142 384.707 8.906V9.194C384.707 10.994 384.059 14.27 378.497 14.27ZM378.119 11.642H378.317C380.531 11.642 381.089 10.058 381.089 8.96C381.089 7.826 380.531 6.314 378.317 6.314H378.119C375.815 6.314 375.347 7.826 375.347 8.96C375.347 10.058 375.815 11.642 378.119 11.642ZM398.16 11.048V11.156C398.16 13.154 396.486 14.27 392.652 14.27H392.328C388.224 14.27 386.442 12.74 386.442 10.67V10.526H390.204C390.258 11.642 391.284 12.056 392.508 12.056C393.822 12.056 394.542 11.66 394.542 10.868V10.814C394.542 10.076 393.966 9.896 392.958 9.896H390.582V7.754H392.958C393.732 7.754 394.218 7.448 394.218 6.872V6.818C394.218 6.224 393.624 5.918 392.418 5.918C391.068 5.918 390.348 6.242 390.294 6.944H386.532V6.89C386.532 4.748 389.034 3.74 392.292 3.74H392.58C395.946 3.74 397.836 4.55 397.836 6.422V6.494C397.836 8.006 396.684 8.582 395.856 8.78C396.864 8.978 398.16 9.464 398.16 11.048ZM409.01 10.652H406.652L403.736 14H399.776L403.034 10.274C401.306 9.932 400.316 8.942 400.316 7.43V7.214C400.316 5.396 401.792 4.01 404.294 4.01H412.52V14H409.01V10.652ZM409.01 6.314H405.248C404.474 6.314 403.826 6.494 403.826 7.286V7.358C403.826 8.132 404.492 8.366 405.266 8.366H409.01V6.314ZM423.864 7.952L419.04 14H415.44V4.01H418.95V10.058L423.774 4.01H427.374V14H423.864V7.952ZM421.632 2.984H421.092C418.23 2.984 417.726 1.04 417.726 0.104V0.0499994H420.372C420.372 0.284 420.48 1.004 421.38 1.004C422.226 1.004 422.352 0.284 422.352 0.0499994H424.962V0.104C424.962 1.04 424.242 2.984 421.632 2.984ZM438.646 10.076H442.318C442.318 11.588 441.418 14.27 436.612 14.27H435.73C430.744 14.27 429.808 11.03 429.808 9.14V8.888C429.808 6.998 430.69 3.74 435.712 3.74H436.54C441.364 3.74 442.318 6.368 442.318 7.808V7.826H438.646C438.592 7.538 438.25 6.296 436.18 6.296H436C433.93 6.296 433.444 7.718 433.444 8.924V8.942C433.444 10.184 434.038 11.66 436.072 11.66H436.252C438.34 11.66 438.646 10.31 438.646 10.076ZM447.57 14V6.674H443.7V4.01H454.95V6.674H451.08V14H447.57ZM465.098 14H456.854V4.01H464.738C467.024 4.01 468.464 4.82 468.464 6.404V6.494C468.464 7.736 467.672 8.474 466.466 8.672C467.69 8.816 468.788 9.68 468.788 11.12V11.192C468.788 13.01 467.6 14 465.098 14ZM460.364 7.988H463.586C464.432 7.988 464.864 7.664 464.864 7.034V6.944C464.864 6.368 464.468 6.026 463.586 6.026H460.364V7.988ZM460.364 11.984H463.73C464.666 11.984 465.188 11.678 465.188 10.976V10.832C465.188 10.202 464.756 9.806 463.73 9.806H460.364V11.984ZM475.862 12.002C477.914 12.002 478.616 10.706 478.616 9.95V9.176C478.31 9.302 477.428 9.482 476.42 9.644C474.728 9.932 474.188 10.166 474.188 10.868V10.904C474.188 11.534 474.638 12.002 475.862 12.002ZM478.724 12.614C478.292 13.136 477.212 14.198 474.872 14.198H474.584C471.794 14.198 470.642 12.686 470.642 11.03V10.958C470.642 9.23 471.74 8.168 475.124 7.88L477.86 7.646C478.418 7.592 478.616 7.412 478.616 6.998C478.616 6.53 478.472 6.026 476.528 6.026C474.692 6.026 474.512 6.746 474.512 7.124H470.912V7.088C470.912 6.098 471.308 3.776 476.222 3.776H476.78C481.73 3.776 482.036 5.81 482.036 7.142V10.436C482.036 11.066 482.162 11.318 482.864 11.318H483.242V14H480.398C479.354 14 478.868 13.262 478.724 12.614Z" fill="url(#paint1_radial_2016_4)" style="mix-blend-mode:overlay"/>
<path d="M4.05 5.342H0.864V2.624C3.564 2.624 4.392 2.228 4.968 0.608H7.74V14H4.05V5.342ZM18.061 0.391999H18.817C25.099 0.391999 26.305 4.622 26.305 6.998V7.538C26.305 9.878 25.063 14.216 18.817 14.216H18.061C11.797 14.216 10.573 9.878 10.573 7.538V6.998C10.573 4.568 11.797 0.391999 18.061 0.391999ZM22.453 7.376V7.124C22.453 5.918 21.949 3.452 18.439 3.452C14.893 3.452 14.425 5.918 14.425 7.124V7.376C14.425 8.6 15.001 11.138 18.457 11.138C21.913 11.138 22.453 8.6 22.453 7.376ZM32.4523 10.508V14H28.2583V10.508H32.4523ZM40.5037 14V0.608H54.3817V14H50.6737V3.56H44.2117V14H40.5037ZM65.9211 7.952L61.0971 14H57.4971V4.01H61.0071V10.058L65.8311 4.01H69.4311V14H65.9211V7.952ZM78.6146 14.27H78.0566C72.6746 14.27 71.8466 10.994 71.8466 9.176V8.924C71.8466 7.124 72.6746 3.74 78.0386 3.74H78.6326C84.1766 3.74 84.8246 7.142 84.8246 8.906V9.194C84.8246 10.994 84.1766 14.27 78.6146 14.27ZM78.2366 11.642H78.4346C80.6486 11.642 81.2066 10.058 81.2066 8.96C81.2066 7.826 80.6486 6.314 78.4346 6.314H78.2366C75.9326 6.314 75.4646 7.826 75.4646 8.96C75.4646 10.058 75.9326 11.642 78.2366 11.642ZM90.7493 14H87.2393V4.01H90.7493V7.646H95.6453V4.01H99.1553V14H95.6453V10.31H90.7493V14ZM107.889 6.08C106.071 6.08 105.387 6.818 105.207 7.862H110.499C110.499 7.124 110.139 6.08 107.889 6.08ZM110.571 10.886H114.225C114.225 11.714 113.577 14.234 108.411 14.234H107.745C102.813 14.234 101.589 11.534 101.589 9.14V8.888C101.589 6.638 102.705 3.794 107.439 3.794H108.231C113.343 3.794 114.261 6.638 114.261 9.428V9.752H105.171C105.315 10.904 106.053 11.84 108.195 11.84C110.229 11.84 110.481 11.048 110.571 10.886ZM125.845 9.014V8.96C125.845 7.88 125.341 6.422 123.145 6.422H122.965C120.859 6.422 120.193 7.808 120.193 8.96V9.014C120.193 10.112 120.859 11.552 122.965 11.552H123.145C125.341 11.552 125.845 10.04 125.845 9.014ZM116.701 17.438V4.01H120.175V5.288C120.607 4.82 121.921 3.812 124.189 3.812H124.423C128.239 3.812 129.481 6.422 129.481 8.798V9.104C129.481 11.282 128.203 14.198 124.405 14.198H124.153C121.867 14.198 120.643 13.154 120.211 12.722V17.438H116.701ZM137.882 17.438V14.936H140.078C140.42 14.936 140.6 14.792 140.6 14.522V14.504C140.6 14.288 140.546 14.09 140.276 13.532L135.992 4.01H139.844L142.616 11.174L145.37 4.01H148.898L144.326 15.008C143.624 16.646 142.76 17.438 141.104 17.438H137.882ZM153.919 7.268V14H150.679V4.01H155.629L158.599 10.382L161.569 4.01H166.339V14H162.829V7.268L159.715 14H157.033L153.919 7.268ZM172.646 14H169.136V4.01H172.646V7.646H177.542V4.01H181.052V14H177.542V10.31H172.646V14ZM190.236 14.27H189.678C184.296 14.27 183.468 10.994 183.468 9.176V8.924C183.468 7.124 184.296 3.74 189.66 3.74H190.254C195.798 3.74 196.446 7.142 196.446 8.906V9.194C196.446 10.994 195.798 14.27 190.236 14.27ZM189.858 11.642H190.056C192.27 11.642 192.828 10.058 192.828 8.96C192.828 7.826 192.27 6.314 190.056 6.314H189.858C187.554 6.314 187.086 7.826 187.086 8.96C187.086 10.058 187.554 11.642 189.858 11.642ZM198.86 14V4.01H207.572V6.674H202.37V14H198.86ZM215.742 14.27H215.184C209.802 14.27 208.974 10.994 208.974 9.176V8.924C208.974 7.124 209.802 3.74 215.166 3.74H215.76C221.304 3.74 221.952 7.142 221.952 8.906V9.194C221.952 10.994 221.304 14.27 215.742 14.27ZM215.364 11.642H215.562C217.776 11.642 218.334 10.058 218.334 8.96C218.334 7.826 217.776 6.314 215.562 6.314H215.364C213.06 6.314 212.592 7.826 212.592 8.96C212.592 10.058 213.06 11.642 215.364 11.642ZM237.921 10.076H241.593C241.593 11.588 240.693 14.27 235.887 14.27H235.005C230.019 14.27 229.083 11.03 229.083 9.14V8.888C229.083 6.998 229.965 3.74 234.987 3.74H235.815C240.639 3.74 241.593 6.368 241.593 7.808V7.826H237.921C237.867 7.538 237.525 6.296 235.455 6.296H235.275C233.205 6.296 232.719 7.718 232.719 8.924V8.942C232.719 10.184 233.313 11.66 235.347 11.66H235.527C237.615 11.66 237.921 10.31 237.921 10.076ZM249.797 6.08C247.979 6.08 247.295 6.818 247.115 7.862H252.407C252.407 7.124 252.047 6.08 249.797 6.08ZM252.479 10.886H256.133C256.133 11.714 255.485 14.234 250.319 14.234H249.653C244.721 14.234 243.497 11.534 243.497 9.14V8.888C243.497 6.638 244.613 3.794 249.347 3.794H250.139C255.251 3.794 256.169 6.638 256.169 9.428V9.752H247.079C247.223 10.904 247.961 11.84 250.103 11.84C252.137 11.84 252.389 11.048 252.479 10.886ZM266.587 14V6.674H262.627C262.627 9.356 262.537 10.85 262.195 11.768C261.817 12.776 261.313 14 258.667 14H257.569V11.39H257.785C258.415 11.39 258.883 11.174 259.081 10.256C259.225 9.482 259.279 8.636 259.279 4.01H270.097V14H266.587ZM273.005 14V4.01H276.515V6.872H279.251C282.671 6.872 284.003 8.384 284.003 10.292V10.508C284.003 12.596 282.671 14 279.251 14H273.005ZM276.515 11.624H278.819C279.539 11.624 280.403 11.408 280.403 10.436V10.382C280.403 9.482 279.539 9.248 278.819 9.248H276.515V11.624ZM294.611 10.076H298.283C298.283 11.588 297.383 14.27 292.577 14.27H291.695C286.709 14.27 285.773 11.03 285.773 9.14V8.888C285.773 6.998 286.655 3.74 291.677 3.74H292.505C297.329 3.74 298.283 6.368 298.283 7.808V7.826H294.611C294.557 7.538 294.215 6.296 292.145 6.296H291.965C289.895 6.296 289.409 7.718 289.409 8.924V8.942C289.409 10.184 290.003 11.66 292.037 11.66H292.217C294.305 11.66 294.611 10.31 294.611 10.076ZM308.107 14L304.219 9.374V14H300.709V4.01H304.219V8.006L307.783 4.01H311.833L307.657 8.492L312.283 14H308.107ZM319.54 14.27H318.982C313.6 14.27 312.772 10.994 312.772 9.176V8.924C312.772 7.124 313.6 3.74 318.964 3.74H319.558C325.102 3.74 325.75 7.142 325.75 8.906V9.194C325.75 10.994 325.102 14.27 319.54 14.27ZM319.162 11.642H319.36C321.574 11.642 322.132 10.058 322.132 8.96C322.132 7.826 321.574 6.314 319.36 6.314H319.162C316.858 6.314 316.39 7.826 316.39 8.96C316.39 10.058 316.858 11.642 319.162 11.642ZM328.165 14V4.01H336.877V6.674H331.675V14H328.165ZM345.046 14.27H344.488C339.106 14.27 338.278 10.994 338.278 9.176V8.924C338.278 7.124 339.106 3.74 344.47 3.74H345.064C350.608 3.74 351.256 7.142 351.256 8.906V9.194C351.256 10.994 350.608 14.27 345.046 14.27ZM344.668 11.642H344.866C347.08 11.642 347.638 10.058 347.638 8.96C347.638 7.826 347.08 6.314 344.866 6.314H344.668C342.364 6.314 341.896 7.826 341.896 8.96C341.896 10.058 342.364 11.642 344.668 11.642ZM366.866 14L364.184 11.138L361.574 14H357.596L362.078 8.996L357.452 4.01H361.754L364.31 6.8L366.776 4.01H370.646L366.344 8.924L370.916 14H366.866ZM378.497 14.27H377.939C372.557 14.27 371.729 10.994 371.729 9.176V8.924C371.729 7.124 372.557 3.74 377.921 3.74H378.515C384.059 3.74 384.707 7.142 384.707 8.906V9.194C384.707 10.994 384.059 14.27 378.497 14.27ZM378.119 11.642H378.317C380.531 11.642 381.089 10.058 381.089 8.96C381.089 7.826 380.531 6.314 378.317 6.314H378.119C375.815 6.314 375.347 7.826 375.347 8.96C375.347 10.058 375.815 11.642 378.119 11.642ZM398.16 11.048V11.156C398.16 13.154 396.486 14.27 392.652 14.27H392.328C388.224 14.27 386.442 12.74 386.442 10.67V10.526H390.204C390.258 11.642 391.284 12.056 392.508 12.056C393.822 12.056 394.542 11.66 394.542 10.868V10.814C394.542 10.076 393.966 9.896 392.958 9.896H390.582V7.754H392.958C393.732 7.754 394.218 7.448 394.218 6.872V6.818C394.218 6.224 393.624 5.918 392.418 5.918C391.068 5.918 390.348 6.242 390.294 6.944H386.532V6.89C386.532 4.748 389.034 3.74 392.292 3.74H392.58C395.946 3.74 397.836 4.55 397.836 6.422V6.494C397.836 8.006 396.684 8.582 395.856 8.78C396.864 8.978 398.16 9.464 398.16 11.048ZM409.01 10.652H406.652L403.736 14H399.776L403.034 10.274C401.306 9.932 400.316 8.942 400.316 7.43V7.214C400.316 5.396 401.792 4.01 404.294 4.01H412.52V14H409.01V10.652ZM409.01 6.314H405.248C404.474 6.314 403.826 6.494 403.826 7.286V7.358C403.826 8.132 404.492 8.366 405.266 8.366H409.01V6.314ZM423.864 7.952L419.04 14H415.44V4.01H418.95V10.058L423.774 4.01H427.374V14H423.864V7.952ZM421.632 2.984H421.092C418.23 2.984 417.726 1.04 417.726 0.104V0.0499994H420.372C420.372 0.284 420.48 1.004 421.38 1.004C422.226 1.004 422.352 0.284 422.352 0.0499994H424.962V0.104C424.962 1.04 424.242 2.984 421.632 2.984ZM438.646 10.076H442.318C442.318 11.588 441.418 14.27 436.612 14.27H435.73C430.744 14.27 429.808 11.03 429.808 9.14V8.888C429.808 6.998 430.69 3.74 435.712 3.74H436.54C441.364 3.74 442.318 6.368 442.318 7.808V7.826H438.646C438.592 7.538 438.25 6.296 436.18 6.296H436C433.93 6.296 433.444 7.718 433.444 8.924V8.942C433.444 10.184 434.038 11.66 436.072 11.66H436.252C438.34 11.66 438.646 10.31 438.646 10.076ZM447.57 14V6.674H443.7V4.01H454.95V6.674H451.08V14H447.57ZM465.098 14H456.854V4.01H464.738C467.024 4.01 468.464 4.82 468.464 6.404V6.494C468.464 7.736 467.672 8.474 466.466 8.672C467.69 8.816 468.788 9.68 468.788 11.12V11.192C468.788 13.01 467.6 14 465.098 14ZM460.364 7.988H463.586C464.432 7.988 464.864 7.664 464.864 7.034V6.944C464.864 6.368 464.468 6.026 463.586 6.026H460.364V7.988ZM460.364 11.984H463.73C464.666 11.984 465.188 11.678 465.188 10.976V10.832C465.188 10.202 464.756 9.806 463.73 9.806H460.364V11.984ZM475.862 12.002C477.914 12.002 478.616 10.706 478.616 9.95V9.176C478.31 9.302 477.428 9.482 476.42 9.644C474.728 9.932 474.188 10.166 474.188 10.868V10.904C474.188 11.534 474.638 12.002 475.862 12.002ZM478.724 12.614C478.292 13.136 477.212 14.198 474.872 14.198H474.584C471.794 14.198 470.642 12.686 470.642 11.03V10.958C470.642 9.23 471.74 8.168 475.124 7.88L477.86 7.646C478.418 7.592 478.616 7.412 478.616 6.998C478.616 6.53 478.472 6.026 476.528 6.026C474.692 6.026 474.512 6.746 474.512 7.124H470.912V7.088C470.912 6.098 471.308 3.776 476.222 3.776H476.78C481.73 3.776 482.036 5.81 482.036 7.142V10.436C482.036 11.066 482.162 11.318 482.864 11.318H483.242V14H480.398C479.354 14 478.868 13.262 478.724 12.614Z" fill="url(#paint2_radial_2016_4)"/>
<path d="M4.05 5.342H0.864V2.624C3.564 2.624 4.392 2.228 4.968 0.608H7.74V14H4.05V5.342ZM18.061 0.391999H18.817C25.099 0.391999 26.305 4.622 26.305 6.998V7.538C26.305 9.878 25.063 14.216 18.817 14.216H18.061C11.797 14.216 10.573 9.878 10.573 7.538V6.998C10.573 4.568 11.797 0.391999 18.061 0.391999ZM22.453 7.376V7.124C22.453 5.918 21.949 3.452 18.439 3.452C14.893 3.452 14.425 5.918 14.425 7.124V7.376C14.425 8.6 15.001 11.138 18.457 11.138C21.913 11.138 22.453 8.6 22.453 7.376ZM32.4523 10.508V14H28.2583V10.508H32.4523ZM40.5037 14V0.608H54.3817V14H50.6737V3.56H44.2117V14H40.5037ZM65.9211 7.952L61.0971 14H57.4971V4.01H61.0071V10.058L65.8311 4.01H69.4311V14H65.9211V7.952ZM78.6146 14.27H78.0566C72.6746 14.27 71.8466 10.994 71.8466 9.176V8.924C71.8466 7.124 72.6746 3.74 78.0386 3.74H78.6326C84.1766 3.74 84.8246 7.142 84.8246 8.906V9.194C84.8246 10.994 84.1766 14.27 78.6146 14.27ZM78.2366 11.642H78.4346C80.6486 11.642 81.2066 10.058 81.2066 8.96C81.2066 7.826 80.6486 6.314 78.4346 6.314H78.2366C75.9326 6.314 75.4646 7.826 75.4646 8.96C75.4646 10.058 75.9326 11.642 78.2366 11.642ZM90.7493 14H87.2393V4.01H90.7493V7.646H95.6453V4.01H99.1553V14H95.6453V10.31H90.7493V14ZM107.889 6.08C106.071 6.08 105.387 6.818 105.207 7.862H110.499C110.499 7.124 110.139 6.08 107.889 6.08ZM110.571 10.886H114.225C114.225 11.714 113.577 14.234 108.411 14.234H107.745C102.813 14.234 101.589 11.534 101.589 9.14V8.888C101.589 6.638 102.705 3.794 107.439 3.794H108.231C113.343 3.794 114.261 6.638 114.261 9.428V9.752H105.171C105.315 10.904 106.053 11.84 108.195 11.84C110.229 11.84 110.481 11.048 110.571 10.886ZM125.845 9.014V8.96C125.845 7.88 125.341 6.422 123.145 6.422H122.965C120.859 6.422 120.193 7.808 120.193 8.96V9.014C120.193 10.112 120.859 11.552 122.965 11.552H123.145C125.341 11.552 125.845 10.04 125.845 9.014ZM116.701 17.438V4.01H120.175V5.288C120.607 4.82 121.921 3.812 124.189 3.812H124.423C128.239 3.812 129.481 6.422 129.481 8.798V9.104C129.481 11.282 128.203 14.198 124.405 14.198H124.153C121.867 14.198 120.643 13.154 120.211 12.722V17.438H116.701ZM137.882 17.438V14.936H140.078C140.42 14.936 140.6 14.792 140.6 14.522V14.504C140.6 14.288 140.546 14.09 140.276 13.532L135.992 4.01H139.844L142.616 11.174L145.37 4.01H148.898L144.326 15.008C143.624 16.646 142.76 17.438 141.104 17.438H137.882ZM153.919 7.268V14H150.679V4.01H155.629L158.599 10.382L161.569 4.01H166.339V14H162.829V7.268L159.715 14H157.033L153.919 7.268ZM172.646 14H169.136V4.01H172.646V7.646H177.542V4.01H181.052V14H177.542V10.31H172.646V14ZM190.236 14.27H189.678C184.296 14.27 183.468 10.994 183.468 9.176V8.924C183.468 7.124 184.296 3.74 189.66 3.74H190.254C195.798 3.74 196.446 7.142 196.446 8.906V9.194C196.446 10.994 195.798 14.27 190.236 14.27ZM189.858 11.642H190.056C192.27 11.642 192.828 10.058 192.828 8.96C192.828 7.826 192.27 6.314 190.056 6.314H189.858C187.554 6.314 187.086 7.826 187.086 8.96C187.086 10.058 187.554 11.642 189.858 11.642ZM198.86 14V4.01H207.572V6.674H202.37V14H198.86ZM215.742 14.27H215.184C209.802 14.27 208.974 10.994 208.974 9.176V8.924C208.974 7.124 209.802 3.74 215.166 3.74H215.76C221.304 3.74 221.952 7.142 221.952 8.906V9.194C221.952 10.994 221.304 14.27 215.742 14.27ZM215.364 11.642H215.562C217.776 11.642 218.334 10.058 218.334 8.96C218.334 7.826 217.776 6.314 215.562 6.314H215.364C213.06 6.314 212.592 7.826 212.592 8.96C212.592 10.058 213.06 11.642 215.364 11.642ZM237.921 10.076H241.593C241.593 11.588 240.693 14.27 235.887 14.27H235.005C230.019 14.27 229.083 11.03 229.083 9.14V8.888C229.083 6.998 229.965 3.74 234.987 3.74H235.815C240.639 3.74 241.593 6.368 241.593 7.808V7.826H237.921C237.867 7.538 237.525 6.296 235.455 6.296H235.275C233.205 6.296 232.719 7.718 232.719 8.924V8.942C232.719 10.184 233.313 11.66 235.347 11.66H235.527C237.615 11.66 237.921 10.31 237.921 10.076ZM249.797 6.08C247.979 6.08 247.295 6.818 247.115 7.862H252.407C252.407 7.124 252.047 6.08 249.797 6.08ZM252.479 10.886H256.133C256.133 11.714 255.485 14.234 250.319 14.234H249.653C244.721 14.234 243.497 11.534 243.497 9.14V8.888C243.497 6.638 244.613 3.794 249.347 3.794H250.139C255.251 3.794 256.169 6.638 256.169 9.428V9.752H247.079C247.223 10.904 247.961 11.84 250.103 11.84C252.137 11.84 252.389 11.048 252.479 10.886ZM266.587 14V6.674H262.627C262.627 9.356 262.537 10.85 262.195 11.768C261.817 12.776 261.313 14 258.667 14H257.569V11.39H257.785C258.415 11.39 258.883 11.174 259.081 10.256C259.225 9.482 259.279 8.636 259.279 4.01H270.097V14H266.587ZM273.005 14V4.01H276.515V6.872H279.251C282.671 6.872 284.003 8.384 284.003 10.292V10.508C284.003 12.596 282.671 14 279.251 14H273.005ZM276.515 11.624H278.819C279.539 11.624 280.403 11.408 280.403 10.436V10.382C280.403 9.482 279.539 9.248 278.819 9.248H276.515V11.624ZM294.611 10.076H298.283C298.283 11.588 297.383 14.27 292.577 14.27H291.695C286.709 14.27 285.773 11.03 285.773 9.14V8.888C285.773 6.998 286.655 3.74 291.677 3.74H292.505C297.329 3.74 298.283 6.368 298.283 7.808V7.826H294.611C294.557 7.538 294.215 6.296 292.145 6.296H291.965C289.895 6.296 289.409 7.718 289.409 8.924V8.942C289.409 10.184 290.003 11.66 292.037 11.66H292.217C294.305 11.66 294.611 10.31 294.611 10.076ZM308.107 14L304.219 9.374V14H300.709V4.01H304.219V8.006L307.783 4.01H311.833L307.657 8.492L312.283 14H308.107ZM319.54 14.27H318.982C313.6 14.27 312.772 10.994 312.772 9.176V8.924C312.772 7.124 313.6 3.74 318.964 3.74H319.558C325.102 3.74 325.75 7.142 325.75 8.906V9.194C325.75 10.994 325.102 14.27 319.54 14.27ZM319.162 11.642H319.36C321.574 11.642 322.132 10.058 322.132 8.96C322.132 7.826 321.574 6.314 319.36 6.314H319.162C316.858 6.314 316.39 7.826 316.39 8.96C316.39 10.058 316.858 11.642 319.162 11.642ZM328.165 14V4.01H336.877V6.674H331.675V14H328.165ZM345.046 14.27H344.488C339.106 14.27 338.278 10.994 338.278 9.176V8.924C338.278 7.124 339.106 3.74 344.47 3.74H345.064C350.608 3.74 351.256 7.142 351.256 8.906V9.194C351.256 10.994 350.608 14.27 345.046 14.27ZM344.668 11.642H344.866C347.08 11.642 347.638 10.058 347.638 8.96C347.638 7.826 347.08 6.314 344.866 6.314H344.668C342.364 6.314 341.896 7.826 341.896 8.96C341.896 10.058 342.364 11.642 344.668 11.642ZM366.866 14L364.184 11.138L361.574 14H357.596L362.078 8.996L357.452 4.01H361.754L364.31 6.8L366.776 4.01H370.646L366.344 8.924L370.916 14H366.866ZM378.497 14.27H377.939C372.557 14.27 371.729 10.994 371.729 9.176V8.924C371.729 7.124 372.557 3.74 377.921 3.74H378.515C384.059 3.74 384.707 7.142 384.707 8.906V9.194C384.707 10.994 384.059 14.27 378.497 14.27ZM378.119 11.642H378.317C380.531 11.642 381.089 10.058 381.089 8.96C381.089 7.826 380.531 6.314 378.317 6.314H378.119C375.815 6.314 375.347 7.826 375.347 8.96C375.347 10.058 375.815 11.642 378.119 11.642ZM398.16 11.048V11.156C398.16 13.154 396.486 14.27 392.652 14.27H392.328C388.224 14.27 386.442 12.74 386.442 10.67V10.526H390.204C390.258 11.642 391.284 12.056 392.508 12.056C393.822 12.056 394.542 11.66 394.542 10.868V10.814C394.542 10.076 393.966 9.896 392.958 9.896H390.582V7.754H392.958C393.732 7.754 394.218 7.448 394.218 6.872V6.818C394.218 6.224 393.624 5.918 392.418 5.918C391.068 5.918 390.348 6.242 390.294 6.944H386.532V6.89C386.532 4.748 389.034 3.74 392.292 3.74H392.58C395.946 3.74 397.836 4.55 397.836 6.422V6.494C397.836 8.006 396.684 8.582 395.856 8.78C396.864 8.978 398.16 9.464 398.16 11.048ZM409.01 10.652H406.652L403.736 14H399.776L403.034 10.274C401.306 9.932 400.316 8.942 400.316 7.43V7.214C400.316 5.396 401.792 4.01 404.294 4.01H412.52V14H409.01V10.652ZM409.01 6.314H405.248C404.474 6.314 403.826 6.494 403.826 7.286V7.358C403.826 8.132 404.492 8.366 405.266 8.366H409.01V6.314ZM423.864 7.952L419.04 14H415.44V4.01H418.95V10.058L423.774 4.01H427.374V14H423.864V7.952ZM421.632 2.984H421.092C418.23 2.984 417.726 1.04 417.726 0.104V0.0499994H420.372C420.372 0.284 420.48 1.004 421.38 1.004C422.226 1.004 422.352 0.284 422.352 0.0499994H424.962V0.104C424.962 1.04 424.242 2.984 421.632 2.984ZM438.646 10.076H442.318C442.318 11.588 441.418 14.27 436.612 14.27H435.73C430.744 14.27 429.808 11.03 429.808 9.14V8.888C429.808 6.998 430.69 3.74 435.712 3.74H436.54C441.364 3.74 442.318 6.368 442.318 7.808V7.826H438.646C438.592 7.538 438.25 6.296 436.18 6.296H436C433.93 6.296 433.444 7.718 433.444 8.924V8.942C433.444 10.184 434.038 11.66 436.072 11.66H436.252C438.34 11.66 438.646 10.31 438.646 10.076ZM447.57 14V6.674H443.7V4.01H454.95V6.674H451.08V14H447.57ZM465.098 14H456.854V4.01H464.738C467.024 4.01 468.464 4.82 468.464 6.404V6.494C468.464 7.736 467.672 8.474 466.466 8.672C467.69 8.816 468.788 9.68 468.788 11.12V11.192C468.788 13.01 467.6 14 465.098 14ZM460.364 7.988H463.586C464.432 7.988 464.864 7.664 464.864 7.034V6.944C464.864 6.368 464.468 6.026 463.586 6.026H460.364V7.988ZM460.364 11.984H463.73C464.666 11.984 465.188 11.678 465.188 10.976V10.832C465.188 10.202 464.756 9.806 463.73 9.806H460.364V11.984ZM475.862 12.002C477.914 12.002 478.616 10.706 478.616 9.95V9.176C478.31 9.302 477.428 9.482 476.42 9.644C474.728 9.932 474.188 10.166 474.188 10.868V10.904C474.188 11.534 474.638 12.002 475.862 12.002ZM478.724 12.614C478.292 13.136 477.212 14.198 474.872 14.198H474.584C471.794 14.198 470.642 12.686 470.642 11.03V10.958C470.642 9.23 471.74 8.168 475.124 7.88L477.86 7.646C478.418 7.592 478.616 7.412 478.616 6.998C478.616 6.53 478.472 6.026 476.528 6.026C474.692 6.026 474.512 6.746 474.512 7.124H470.912V7.088C470.912 6.098 471.308 3.776 476.222 3.776H476.78C481.73 3.776 482.036 5.81 482.036 7.142V10.436C482.036 11.066 482.162 11.318 482.864 11.318H483.242V14H480.398C479.354 14 478.868 13.262 478.724 12.614Z" fill="#C1A875" style="mix-blend-mode:color"/>
<defs>
<linearGradient id="paint0_linear_2016_4" x1="1.80304e-06" y1="6" x2="484" y2="6.00006" gradientUnits="userSpaceOnUse">
<stop stop-color="#576167"/>
<stop offset="0.191294" stop-color="#9EA1A2"/>
<stop offset="0.396166" stop-color="#848989"/>
<stop offset="0.62055" stop-color="#576167"/>
<stop offset="0.830299" stop-color="#757A7C"/>
<stop offset="1" stop-color="#576167"/>
</linearGradient>
<radialGradient id="paint1_radial_2016_4" cx="0" cy="0" r="1" gradientUnits="userSpaceOnUse" gradientTransform="translate(257.755 -3.20225) rotate(89.9999) scale(17.8315 366.162)">
<stop stop-color="white"/>
<stop offset="1" stop-color="white" stop-opacity="0"/>
</radialGradient>
<radialGradient id="paint2_radial_2016_4" cx="0" cy="0" r="1" gradientUnits="userSpaceOnUse" gradientTransform="translate(285.131 23.6629) rotate(-88.2631) scale(25.5623 523.362)">
<stop stop-color="white"/>
<stop offset="1" stop-color="white" stop-opacity="0"/>
</radialGradient>
</defs>
</svg>
