<svg width="397" height="18" viewBox="0 0 397 18" fill="none" xmlns="http://www.w3.org/2000/svg">
<path d="M14.4372 14H0.109248V11.84C0.109248 10.022 0.379248 8.294 5.76125 6.656C6.33725 6.458 7.52525 6.17 8.06525 6.026C9.79325 5.594 10.1892 5.252 10.1892 4.622C10.1892 3.812 9.63125 3.308 7.39925 3.308C4.66325 3.308 4.32125 4.712 4.26725 5.432H0.325248V5.306C0.325248 3.416 1.38725 0.446 6.87725 0.446H7.68725C12.5832 0.446 14.1312 2.156 14.1312 4.586V4.73C14.1312 7.088 12.7452 8.078 9.03725 8.798L6.40925 9.356C3.78125 9.986 3.43925 10.418 3.43925 10.796H14.4372V14ZM20.8078 10.508V14H16.6138V10.508H20.8078ZM29.656 14V0.608H34.588L38.854 9.68L43.246 0.608H47.872V14H44.254V5.234L40.186 14H37.288L33.22 5.234V14H29.656ZM55.7072 12.002C57.7592 12.002 58.4612 10.706 58.4612 9.95V9.176C58.1552 9.302 57.2732 9.482 56.2652 9.644C54.5732 9.932 54.0332 10.166 54.0332 10.868V10.904C54.0332 11.534 54.4832 12.002 55.7072 12.002ZM58.5692 12.614C58.1372 13.136 57.0572 14.198 54.7172 14.198H54.4292C51.6392 14.198 50.4872 12.686 50.4872 11.03V10.958C50.4872 9.23 51.5852 8.168 54.9692 7.88L57.7052 7.646C58.2632 7.592 58.4612 7.412 58.4612 6.998C58.4612 6.53 58.3172 6.026 56.3732 6.026C54.5372 6.026 54.3572 6.746 54.3572 7.124H50.7572V7.088C50.7572 6.098 51.1532 3.776 56.0672 3.776H56.6252C61.5752 3.776 61.8812 5.81 61.8812 7.142V10.436C61.8812 11.066 62.0072 11.318 62.7092 11.318H63.0872V14H60.2432C59.1992 14 58.7132 13.262 58.5692 12.614ZM73.4409 10.076H77.1129C77.1129 11.588 76.2129 14.27 71.4069 14.27H70.5249C65.5389 14.27 64.6029 11.03 64.6029 9.14V8.888C64.6029 6.998 65.4849 3.74 70.5069 3.74H71.3349C76.1589 3.74 77.1129 6.368 77.1129 7.808V7.826H73.4409C73.3869 7.538 73.0449 6.296 70.9749 6.296H70.7949C68.7249 6.296 68.2389 7.718 68.2389 8.924V8.942C68.2389 10.184 68.8329 11.66 70.8669 11.66H71.0469C73.1349 11.66 73.4409 10.31 73.4409 10.076ZM82.3649 14V6.674H78.4949V4.01H89.7449V6.674H85.8749V14H82.3649ZM97.4634 6.08C95.6454 6.08 94.9614 6.818 94.7814 7.862H100.073C100.073 7.124 99.7134 6.08 97.4634 6.08ZM100.145 10.886H103.799C103.799 11.714 103.151 14.234 97.9854 14.234H97.3194C92.3874 14.234 91.1634 11.534 91.1634 9.14V8.888C91.1634 6.638 92.2794 3.794 97.0134 3.794H97.8054C102.917 3.794 103.835 6.638 103.835 9.428V9.752H94.7454C94.8894 10.904 95.6274 11.84 97.7694 11.84C99.8034 11.84 100.055 11.048 100.145 10.886ZM115.419 9.014V8.96C115.419 7.88 114.915 6.422 112.719 6.422H112.539C110.433 6.422 109.767 7.808 109.767 8.96V9.014C109.767 10.112 110.433 11.552 112.539 11.552H112.719C114.915 11.552 115.419 10.04 115.419 9.014ZM106.275 17.438V4.01H109.749V5.288C110.181 4.82 111.495 3.812 113.763 3.812H113.997C117.813 3.812 119.055 6.422 119.055 8.798V9.104C119.055 11.282 117.777 14.198 113.979 14.198H113.727C111.441 14.198 110.217 13.154 109.785 12.722V17.438H106.275ZM127.456 17.438V14.936H129.652C129.994 14.936 130.174 14.792 130.174 14.522V14.504C130.174 14.288 130.12 14.09 129.85 13.532L125.566 4.01H129.418L132.19 11.174L134.944 4.01H138.472L133.9 15.008C133.198 16.646 132.334 17.438 130.678 17.438H127.456ZM148.429 10.076H152.101C152.101 11.588 151.201 14.27 146.395 14.27H145.513C140.527 14.27 139.591 11.03 139.591 9.14V8.888C139.591 6.998 140.473 3.74 145.495 3.74H146.323C151.147 3.74 152.101 6.368 152.101 7.808V7.826H148.429C148.375 7.538 148.033 6.296 145.963 6.296H145.783C143.713 6.296 143.227 7.718 143.227 8.924V8.942C143.227 10.184 143.821 11.66 145.855 11.66H146.035C148.123 11.66 148.429 10.31 148.429 10.076ZM157.353 14V6.674H153.483V4.01H164.733V6.674H160.863V14H157.353ZM172.902 14.27H172.344C166.962 14.27 166.134 10.994 166.134 9.176V8.924C166.134 7.124 166.962 3.74 172.326 3.74H172.92C178.464 3.74 179.112 7.142 179.112 8.906V9.194C179.112 10.994 178.464 14.27 172.902 14.27ZM172.524 11.642H172.722C174.936 11.642 175.494 10.058 175.494 8.96C175.494 7.826 174.936 6.314 172.722 6.314H172.524C170.22 6.314 169.752 7.826 169.752 8.96C169.752 10.058 170.22 11.642 172.524 11.642ZM189.95 7.952L185.126 14H181.526V4.01H185.036V10.058L189.86 4.01H193.46V14H189.95V7.952ZM187.718 2.984H187.178C184.316 2.984 183.812 1.04 183.812 0.104V0.0499994H186.458C186.458 0.284 186.566 1.004 187.466 1.004C188.312 1.004 188.438 0.284 188.438 0.0499994H191.048V0.104C191.048 1.04 190.328 2.984 187.718 2.984ZM203.796 4.01H207.306V14H203.796V10.562C203.022 10.652 202.122 10.742 201.186 10.742C197.226 10.742 195.732 9.626 195.732 6.458V4.01H199.242V5.81C199.242 7.682 199.872 8.006 201.726 8.006C202.428 8.006 203.238 7.952 203.796 7.88V4.01ZM218.638 7.952L213.814 14H210.214V4.01H213.724V10.058L218.548 4.01H222.148V14H218.638V7.952ZM233.311 14H225.067V4.01H232.951C235.237 4.01 236.677 4.82 236.677 6.404V6.494C236.677 7.736 235.885 8.474 234.679 8.672C235.903 8.816 237.001 9.68 237.001 11.12V11.192C237.001 13.01 235.813 14 233.311 14ZM228.577 7.988H231.799C232.645 7.988 233.077 7.664 233.077 7.034V6.944C233.077 6.368 232.681 6.026 231.799 6.026H228.577V7.988ZM228.577 11.984H231.943C232.879 11.984 233.401 11.678 233.401 10.976V10.832C233.401 10.202 232.969 9.806 231.943 9.806H228.577V11.984ZM245.71 14.27H245.152C239.77 14.27 238.942 10.994 238.942 9.176V8.924C238.942 7.124 239.77 3.74 245.134 3.74H245.728C251.272 3.74 251.92 7.142 251.92 8.906V9.194C251.92 10.994 251.272 14.27 245.71 14.27ZM245.332 11.642H245.53C247.744 11.642 248.302 10.058 248.302 8.96C248.302 7.826 247.744 6.314 245.53 6.314H245.332C243.028 6.314 242.56 7.826 242.56 8.96C242.56 10.058 243.028 11.642 245.332 11.642ZM254.335 14V4.01H263.047V6.674H257.845V14H254.335ZM271.216 14.27H270.658C265.276 14.27 264.448 10.994 264.448 9.176V8.924C264.448 7.124 265.276 3.74 270.64 3.74H271.234C276.778 3.74 277.426 7.142 277.426 8.906V9.194C277.426 10.994 276.778 14.27 271.216 14.27ZM270.838 11.642H271.036C273.25 11.642 273.808 10.058 273.808 8.96C273.808 7.826 273.25 6.314 271.036 6.314H270.838C268.534 6.314 268.066 7.826 268.066 8.96C268.066 10.058 268.534 11.642 270.838 11.642ZM294.224 9.014V8.96C294.224 7.88 293.72 6.422 291.524 6.422H291.344C289.238 6.422 288.572 7.808 288.572 8.96V9.014C288.572 10.112 289.238 11.552 291.344 11.552H291.524C293.72 11.552 294.224 10.04 294.224 9.014ZM285.08 17.438V4.01H288.554V5.288C288.986 4.82 290.3 3.812 292.568 3.812H292.802C296.618 3.812 297.86 6.422 297.86 8.798V9.104C297.86 11.282 296.582 14.198 292.784 14.198H292.532C290.246 14.198 289.022 13.154 288.59 12.722V17.438H285.08ZM304.93 12.002C306.982 12.002 307.684 10.706 307.684 9.95V9.176C307.378 9.302 306.496 9.482 305.488 9.644C303.796 9.932 303.256 10.166 303.256 10.868V10.904C303.256 11.534 303.706 12.002 304.93 12.002ZM307.792 12.614C307.36 13.136 306.28 14.198 303.94 14.198H303.652C300.862 14.198 299.71 12.686 299.71 11.03V10.958C299.71 9.23 300.808 8.168 304.192 7.88L306.928 7.646C307.486 7.592 307.684 7.412 307.684 6.998C307.684 6.53 307.54 6.026 305.596 6.026C303.76 6.026 303.58 6.746 303.58 7.124H299.98V7.088C299.98 6.098 300.376 3.776 305.29 3.776H305.848C310.798 3.776 311.104 5.81 311.104 7.142V10.436C311.104 11.066 311.23 11.318 311.932 11.318H312.31V14H309.466C308.422 14 307.936 13.262 307.792 12.614ZM325.526 11.048V11.156C325.526 13.154 323.852 14.27 320.018 14.27H319.694C315.59 14.27 313.808 12.74 313.808 10.67V10.526H317.57C317.624 11.642 318.65 12.056 319.874 12.056C321.188 12.056 321.908 11.66 321.908 10.868V10.814C321.908 10.076 321.332 9.896 320.324 9.896H317.948V7.754H320.324C321.098 7.754 321.584 7.448 321.584 6.872V6.818C321.584 6.224 320.99 5.918 319.784 5.918C318.434 5.918 317.714 6.242 317.66 6.944H313.898V6.89C313.898 4.748 316.4 3.74 319.658 3.74H319.946C323.312 3.74 325.202 4.55 325.202 6.422V6.494C325.202 8.006 324.05 8.582 323.222 8.78C324.23 8.978 325.526 9.464 325.526 11.048ZM336.214 14H327.97V4.01H335.854C338.14 4.01 339.58 4.82 339.58 6.404V6.494C339.58 7.736 338.788 8.474 337.582 8.672C338.806 8.816 339.904 9.68 339.904 11.12V11.192C339.904 13.01 338.716 14 336.214 14ZM331.48 7.988H334.702C335.548 7.988 335.98 7.664 335.98 7.034V6.944C335.98 6.368 335.584 6.026 334.702 6.026H331.48V7.988ZM331.48 11.984H334.846C335.782 11.984 336.304 11.678 336.304 10.976V10.832C336.304 10.202 335.872 9.806 334.846 9.806H331.48V11.984ZM350.773 7.952L345.949 14H342.349V4.01H345.859V10.058L350.683 4.01H354.283V14H350.773V7.952ZM360.064 14V6.674H356.194V4.01H367.444V6.674H363.574V14H360.064ZM377.773 7.952L372.949 14H369.349V4.01H372.859V10.058L377.683 4.01H381.283V14H377.773V7.952ZM392.608 10.652H390.25L387.334 14H383.374L386.632 10.274C384.904 9.932 383.914 8.942 383.914 7.43V7.214C383.914 5.396 385.39 4.01 387.892 4.01H396.118V14H392.608V10.652ZM392.608 6.314H388.846C388.072 6.314 387.424 6.494 387.424 7.286V7.358C387.424 8.132 388.09 8.366 388.864 8.366H392.608V6.314Z" fill="url(#paint0_linear_10_601)"/>
<path d="M14.4372 14H0.109248V11.84C0.109248 10.022 0.379248 8.294 5.76125 6.656C6.33725 6.458 7.52525 6.17 8.06525 6.026C9.79325 5.594 10.1892 5.252 10.1892 4.622C10.1892 3.812 9.63125 3.308 7.39925 3.308C4.66325 3.308 4.32125 4.712 4.26725 5.432H0.325248V5.306C0.325248 3.416 1.38725 0.446 6.87725 0.446H7.68725C12.5832 0.446 14.1312 2.156 14.1312 4.586V4.73C14.1312 7.088 12.7452 8.078 9.03725 8.798L6.40925 9.356C3.78125 9.986 3.43925 10.418 3.43925 10.796H14.4372V14ZM20.8078 10.508V14H16.6138V10.508H20.8078ZM29.656 14V0.608H34.588L38.854 9.68L43.246 0.608H47.872V14H44.254V5.234L40.186 14H37.288L33.22 5.234V14H29.656ZM55.7072 12.002C57.7592 12.002 58.4612 10.706 58.4612 9.95V9.176C58.1552 9.302 57.2732 9.482 56.2652 9.644C54.5732 9.932 54.0332 10.166 54.0332 10.868V10.904C54.0332 11.534 54.4832 12.002 55.7072 12.002ZM58.5692 12.614C58.1372 13.136 57.0572 14.198 54.7172 14.198H54.4292C51.6392 14.198 50.4872 12.686 50.4872 11.03V10.958C50.4872 9.23 51.5852 8.168 54.9692 7.88L57.7052 7.646C58.2632 7.592 58.4612 7.412 58.4612 6.998C58.4612 6.53 58.3172 6.026 56.3732 6.026C54.5372 6.026 54.3572 6.746 54.3572 7.124H50.7572V7.088C50.7572 6.098 51.1532 3.776 56.0672 3.776H56.6252C61.5752 3.776 61.8812 5.81 61.8812 7.142V10.436C61.8812 11.066 62.0072 11.318 62.7092 11.318H63.0872V14H60.2432C59.1992 14 58.7132 13.262 58.5692 12.614ZM73.4409 10.076H77.1129C77.1129 11.588 76.2129 14.27 71.4069 14.27H70.5249C65.5389 14.27 64.6029 11.03 64.6029 9.14V8.888C64.6029 6.998 65.4849 3.74 70.5069 3.74H71.3349C76.1589 3.74 77.1129 6.368 77.1129 7.808V7.826H73.4409C73.3869 7.538 73.0449 6.296 70.9749 6.296H70.7949C68.7249 6.296 68.2389 7.718 68.2389 8.924V8.942C68.2389 10.184 68.8329 11.66 70.8669 11.66H71.0469C73.1349 11.66 73.4409 10.31 73.4409 10.076ZM82.3649 14V6.674H78.4949V4.01H89.7449V6.674H85.8749V14H82.3649ZM97.4634 6.08C95.6454 6.08 94.9614 6.818 94.7814 7.862H100.073C100.073 7.124 99.7134 6.08 97.4634 6.08ZM100.145 10.886H103.799C103.799 11.714 103.151 14.234 97.9854 14.234H97.3194C92.3874 14.234 91.1634 11.534 91.1634 9.14V8.888C91.1634 6.638 92.2794 3.794 97.0134 3.794H97.8054C102.917 3.794 103.835 6.638 103.835 9.428V9.752H94.7454C94.8894 10.904 95.6274 11.84 97.7694 11.84C99.8034 11.84 100.055 11.048 100.145 10.886ZM115.419 9.014V8.96C115.419 7.88 114.915 6.422 112.719 6.422H112.539C110.433 6.422 109.767 7.808 109.767 8.96V9.014C109.767 10.112 110.433 11.552 112.539 11.552H112.719C114.915 11.552 115.419 10.04 115.419 9.014ZM106.275 17.438V4.01H109.749V5.288C110.181 4.82 111.495 3.812 113.763 3.812H113.997C117.813 3.812 119.055 6.422 119.055 8.798V9.104C119.055 11.282 117.777 14.198 113.979 14.198H113.727C111.441 14.198 110.217 13.154 109.785 12.722V17.438H106.275ZM127.456 17.438V14.936H129.652C129.994 14.936 130.174 14.792 130.174 14.522V14.504C130.174 14.288 130.12 14.09 129.85 13.532L125.566 4.01H129.418L132.19 11.174L134.944 4.01H138.472L133.9 15.008C133.198 16.646 132.334 17.438 130.678 17.438H127.456ZM148.429 10.076H152.101C152.101 11.588 151.201 14.27 146.395 14.27H145.513C140.527 14.27 139.591 11.03 139.591 9.14V8.888C139.591 6.998 140.473 3.74 145.495 3.74H146.323C151.147 3.74 152.101 6.368 152.101 7.808V7.826H148.429C148.375 7.538 148.033 6.296 145.963 6.296H145.783C143.713 6.296 143.227 7.718 143.227 8.924V8.942C143.227 10.184 143.821 11.66 145.855 11.66H146.035C148.123 11.66 148.429 10.31 148.429 10.076ZM157.353 14V6.674H153.483V4.01H164.733V6.674H160.863V14H157.353ZM172.902 14.27H172.344C166.962 14.27 166.134 10.994 166.134 9.176V8.924C166.134 7.124 166.962 3.74 172.326 3.74H172.92C178.464 3.74 179.112 7.142 179.112 8.906V9.194C179.112 10.994 178.464 14.27 172.902 14.27ZM172.524 11.642H172.722C174.936 11.642 175.494 10.058 175.494 8.96C175.494 7.826 174.936 6.314 172.722 6.314H172.524C170.22 6.314 169.752 7.826 169.752 8.96C169.752 10.058 170.22 11.642 172.524 11.642ZM189.95 7.952L185.126 14H181.526V4.01H185.036V10.058L189.86 4.01H193.46V14H189.95V7.952ZM187.718 2.984H187.178C184.316 2.984 183.812 1.04 183.812 0.104V0.0499994H186.458C186.458 0.284 186.566 1.004 187.466 1.004C188.312 1.004 188.438 0.284 188.438 0.0499994H191.048V0.104C191.048 1.04 190.328 2.984 187.718 2.984ZM203.796 4.01H207.306V14H203.796V10.562C203.022 10.652 202.122 10.742 201.186 10.742C197.226 10.742 195.732 9.626 195.732 6.458V4.01H199.242V5.81C199.242 7.682 199.872 8.006 201.726 8.006C202.428 8.006 203.238 7.952 203.796 7.88V4.01ZM218.638 7.952L213.814 14H210.214V4.01H213.724V10.058L218.548 4.01H222.148V14H218.638V7.952ZM233.311 14H225.067V4.01H232.951C235.237 4.01 236.677 4.82 236.677 6.404V6.494C236.677 7.736 235.885 8.474 234.679 8.672C235.903 8.816 237.001 9.68 237.001 11.12V11.192C237.001 13.01 235.813 14 233.311 14ZM228.577 7.988H231.799C232.645 7.988 233.077 7.664 233.077 7.034V6.944C233.077 6.368 232.681 6.026 231.799 6.026H228.577V7.988ZM228.577 11.984H231.943C232.879 11.984 233.401 11.678 233.401 10.976V10.832C233.401 10.202 232.969 9.806 231.943 9.806H228.577V11.984ZM245.71 14.27H245.152C239.77 14.27 238.942 10.994 238.942 9.176V8.924C238.942 7.124 239.77 3.74 245.134 3.74H245.728C251.272 3.74 251.92 7.142 251.92 8.906V9.194C251.92 10.994 251.272 14.27 245.71 14.27ZM245.332 11.642H245.53C247.744 11.642 248.302 10.058 248.302 8.96C248.302 7.826 247.744 6.314 245.53 6.314H245.332C243.028 6.314 242.56 7.826 242.56 8.96C242.56 10.058 243.028 11.642 245.332 11.642ZM254.335 14V4.01H263.047V6.674H257.845V14H254.335ZM271.216 14.27H270.658C265.276 14.27 264.448 10.994 264.448 9.176V8.924C264.448 7.124 265.276 3.74 270.64 3.74H271.234C276.778 3.74 277.426 7.142 277.426 8.906V9.194C277.426 10.994 276.778 14.27 271.216 14.27ZM270.838 11.642H271.036C273.25 11.642 273.808 10.058 273.808 8.96C273.808 7.826 273.25 6.314 271.036 6.314H270.838C268.534 6.314 268.066 7.826 268.066 8.96C268.066 10.058 268.534 11.642 270.838 11.642ZM294.224 9.014V8.96C294.224 7.88 293.72 6.422 291.524 6.422H291.344C289.238 6.422 288.572 7.808 288.572 8.96V9.014C288.572 10.112 289.238 11.552 291.344 11.552H291.524C293.72 11.552 294.224 10.04 294.224 9.014ZM285.08 17.438V4.01H288.554V5.288C288.986 4.82 290.3 3.812 292.568 3.812H292.802C296.618 3.812 297.86 6.422 297.86 8.798V9.104C297.86 11.282 296.582 14.198 292.784 14.198H292.532C290.246 14.198 289.022 13.154 288.59 12.722V17.438H285.08ZM304.93 12.002C306.982 12.002 307.684 10.706 307.684 9.95V9.176C307.378 9.302 306.496 9.482 305.488 9.644C303.796 9.932 303.256 10.166 303.256 10.868V10.904C303.256 11.534 303.706 12.002 304.93 12.002ZM307.792 12.614C307.36 13.136 306.28 14.198 303.94 14.198H303.652C300.862 14.198 299.71 12.686 299.71 11.03V10.958C299.71 9.23 300.808 8.168 304.192 7.88L306.928 7.646C307.486 7.592 307.684 7.412 307.684 6.998C307.684 6.53 307.54 6.026 305.596 6.026C303.76 6.026 303.58 6.746 303.58 7.124H299.98V7.088C299.98 6.098 300.376 3.776 305.29 3.776H305.848C310.798 3.776 311.104 5.81 311.104 7.142V10.436C311.104 11.066 311.23 11.318 311.932 11.318H312.31V14H309.466C308.422 14 307.936 13.262 307.792 12.614ZM325.526 11.048V11.156C325.526 13.154 323.852 14.27 320.018 14.27H319.694C315.59 14.27 313.808 12.74 313.808 10.67V10.526H317.57C317.624 11.642 318.65 12.056 319.874 12.056C321.188 12.056 321.908 11.66 321.908 10.868V10.814C321.908 10.076 321.332 9.896 320.324 9.896H317.948V7.754H320.324C321.098 7.754 321.584 7.448 321.584 6.872V6.818C321.584 6.224 320.99 5.918 319.784 5.918C318.434 5.918 317.714 6.242 317.66 6.944H313.898V6.89C313.898 4.748 316.4 3.74 319.658 3.74H319.946C323.312 3.74 325.202 4.55 325.202 6.422V6.494C325.202 8.006 324.05 8.582 323.222 8.78C324.23 8.978 325.526 9.464 325.526 11.048ZM336.214 14H327.97V4.01H335.854C338.14 4.01 339.58 4.82 339.58 6.404V6.494C339.58 7.736 338.788 8.474 337.582 8.672C338.806 8.816 339.904 9.68 339.904 11.12V11.192C339.904 13.01 338.716 14 336.214 14ZM331.48 7.988H334.702C335.548 7.988 335.98 7.664 335.98 7.034V6.944C335.98 6.368 335.584 6.026 334.702 6.026H331.48V7.988ZM331.48 11.984H334.846C335.782 11.984 336.304 11.678 336.304 10.976V10.832C336.304 10.202 335.872 9.806 334.846 9.806H331.48V11.984ZM350.773 7.952L345.949 14H342.349V4.01H345.859V10.058L350.683 4.01H354.283V14H350.773V7.952ZM360.064 14V6.674H356.194V4.01H367.444V6.674H363.574V14H360.064ZM377.773 7.952L372.949 14H369.349V4.01H372.859V10.058L377.683 4.01H381.283V14H377.773V7.952ZM392.608 10.652H390.25L387.334 14H383.374L386.632 10.274C384.904 9.932 383.914 8.942 383.914 7.43V7.214C383.914 5.396 385.39 4.01 387.892 4.01H396.118V14H392.608V10.652ZM392.608 6.314H388.846C388.072 6.314 387.424 6.494 387.424 7.286V7.358C387.424 8.132 388.09 8.366 388.864 8.366H392.608V6.314Z" fill="url(#paint1_radial_10_601)" style="mix-blend-mode:overlay"/>
<path d="M14.4372 14H0.109248V11.84C0.109248 10.022 0.379248 8.294 5.76125 6.656C6.33725 6.458 7.52525 6.17 8.06525 6.026C9.79325 5.594 10.1892 5.252 10.1892 4.622C10.1892 3.812 9.63125 3.308 7.39925 3.308C4.66325 3.308 4.32125 4.712 4.26725 5.432H0.325248V5.306C0.325248 3.416 1.38725 0.446 6.87725 0.446H7.68725C12.5832 0.446 14.1312 2.156 14.1312 4.586V4.73C14.1312 7.088 12.7452 8.078 9.03725 8.798L6.40925 9.356C3.78125 9.986 3.43925 10.418 3.43925 10.796H14.4372V14ZM20.8078 10.508V14H16.6138V10.508H20.8078ZM29.656 14V0.608H34.588L38.854 9.68L43.246 0.608H47.872V14H44.254V5.234L40.186 14H37.288L33.22 5.234V14H29.656ZM55.7072 12.002C57.7592 12.002 58.4612 10.706 58.4612 9.95V9.176C58.1552 9.302 57.2732 9.482 56.2652 9.644C54.5732 9.932 54.0332 10.166 54.0332 10.868V10.904C54.0332 11.534 54.4832 12.002 55.7072 12.002ZM58.5692 12.614C58.1372 13.136 57.0572 14.198 54.7172 14.198H54.4292C51.6392 14.198 50.4872 12.686 50.4872 11.03V10.958C50.4872 9.23 51.5852 8.168 54.9692 7.88L57.7052 7.646C58.2632 7.592 58.4612 7.412 58.4612 6.998C58.4612 6.53 58.3172 6.026 56.3732 6.026C54.5372 6.026 54.3572 6.746 54.3572 7.124H50.7572V7.088C50.7572 6.098 51.1532 3.776 56.0672 3.776H56.6252C61.5752 3.776 61.8812 5.81 61.8812 7.142V10.436C61.8812 11.066 62.0072 11.318 62.7092 11.318H63.0872V14H60.2432C59.1992 14 58.7132 13.262 58.5692 12.614ZM73.4409 10.076H77.1129C77.1129 11.588 76.2129 14.27 71.4069 14.27H70.5249C65.5389 14.27 64.6029 11.03 64.6029 9.14V8.888C64.6029 6.998 65.4849 3.74 70.5069 3.74H71.3349C76.1589 3.74 77.1129 6.368 77.1129 7.808V7.826H73.4409C73.3869 7.538 73.0449 6.296 70.9749 6.296H70.7949C68.7249 6.296 68.2389 7.718 68.2389 8.924V8.942C68.2389 10.184 68.8329 11.66 70.8669 11.66H71.0469C73.1349 11.66 73.4409 10.31 73.4409 10.076ZM82.3649 14V6.674H78.4949V4.01H89.7449V6.674H85.8749V14H82.3649ZM97.4634 6.08C95.6454 6.08 94.9614 6.818 94.7814 7.862H100.073C100.073 7.124 99.7134 6.08 97.4634 6.08ZM100.145 10.886H103.799C103.799 11.714 103.151 14.234 97.9854 14.234H97.3194C92.3874 14.234 91.1634 11.534 91.1634 9.14V8.888C91.1634 6.638 92.2794 3.794 97.0134 3.794H97.8054C102.917 3.794 103.835 6.638 103.835 9.428V9.752H94.7454C94.8894 10.904 95.6274 11.84 97.7694 11.84C99.8034 11.84 100.055 11.048 100.145 10.886ZM115.419 9.014V8.96C115.419 7.88 114.915 6.422 112.719 6.422H112.539C110.433 6.422 109.767 7.808 109.767 8.96V9.014C109.767 10.112 110.433 11.552 112.539 11.552H112.719C114.915 11.552 115.419 10.04 115.419 9.014ZM106.275 17.438V4.01H109.749V5.288C110.181 4.82 111.495 3.812 113.763 3.812H113.997C117.813 3.812 119.055 6.422 119.055 8.798V9.104C119.055 11.282 117.777 14.198 113.979 14.198H113.727C111.441 14.198 110.217 13.154 109.785 12.722V17.438H106.275ZM127.456 17.438V14.936H129.652C129.994 14.936 130.174 14.792 130.174 14.522V14.504C130.174 14.288 130.12 14.09 129.85 13.532L125.566 4.01H129.418L132.19 11.174L134.944 4.01H138.472L133.9 15.008C133.198 16.646 132.334 17.438 130.678 17.438H127.456ZM148.429 10.076H152.101C152.101 11.588 151.201 14.27 146.395 14.27H145.513C140.527 14.27 139.591 11.03 139.591 9.14V8.888C139.591 6.998 140.473 3.74 145.495 3.74H146.323C151.147 3.74 152.101 6.368 152.101 7.808V7.826H148.429C148.375 7.538 148.033 6.296 145.963 6.296H145.783C143.713 6.296 143.227 7.718 143.227 8.924V8.942C143.227 10.184 143.821 11.66 145.855 11.66H146.035C148.123 11.66 148.429 10.31 148.429 10.076ZM157.353 14V6.674H153.483V4.01H164.733V6.674H160.863V14H157.353ZM172.902 14.27H172.344C166.962 14.27 166.134 10.994 166.134 9.176V8.924C166.134 7.124 166.962 3.74 172.326 3.74H172.92C178.464 3.74 179.112 7.142 179.112 8.906V9.194C179.112 10.994 178.464 14.27 172.902 14.27ZM172.524 11.642H172.722C174.936 11.642 175.494 10.058 175.494 8.96C175.494 7.826 174.936 6.314 172.722 6.314H172.524C170.22 6.314 169.752 7.826 169.752 8.96C169.752 10.058 170.22 11.642 172.524 11.642ZM189.95 7.952L185.126 14H181.526V4.01H185.036V10.058L189.86 4.01H193.46V14H189.95V7.952ZM187.718 2.984H187.178C184.316 2.984 183.812 1.04 183.812 0.104V0.0499994H186.458C186.458 0.284 186.566 1.004 187.466 1.004C188.312 1.004 188.438 0.284 188.438 0.0499994H191.048V0.104C191.048 1.04 190.328 2.984 187.718 2.984ZM203.796 4.01H207.306V14H203.796V10.562C203.022 10.652 202.122 10.742 201.186 10.742C197.226 10.742 195.732 9.626 195.732 6.458V4.01H199.242V5.81C199.242 7.682 199.872 8.006 201.726 8.006C202.428 8.006 203.238 7.952 203.796 7.88V4.01ZM218.638 7.952L213.814 14H210.214V4.01H213.724V10.058L218.548 4.01H222.148V14H218.638V7.952ZM233.311 14H225.067V4.01H232.951C235.237 4.01 236.677 4.82 236.677 6.404V6.494C236.677 7.736 235.885 8.474 234.679 8.672C235.903 8.816 237.001 9.68 237.001 11.12V11.192C237.001 13.01 235.813 14 233.311 14ZM228.577 7.988H231.799C232.645 7.988 233.077 7.664 233.077 7.034V6.944C233.077 6.368 232.681 6.026 231.799 6.026H228.577V7.988ZM228.577 11.984H231.943C232.879 11.984 233.401 11.678 233.401 10.976V10.832C233.401 10.202 232.969 9.806 231.943 9.806H228.577V11.984ZM245.71 14.27H245.152C239.77 14.27 238.942 10.994 238.942 9.176V8.924C238.942 7.124 239.77 3.74 245.134 3.74H245.728C251.272 3.74 251.92 7.142 251.92 8.906V9.194C251.92 10.994 251.272 14.27 245.71 14.27ZM245.332 11.642H245.53C247.744 11.642 248.302 10.058 248.302 8.96C248.302 7.826 247.744 6.314 245.53 6.314H245.332C243.028 6.314 242.56 7.826 242.56 8.96C242.56 10.058 243.028 11.642 245.332 11.642ZM254.335 14V4.01H263.047V6.674H257.845V14H254.335ZM271.216 14.27H270.658C265.276 14.27 264.448 10.994 264.448 9.176V8.924C264.448 7.124 265.276 3.74 270.64 3.74H271.234C276.778 3.74 277.426 7.142 277.426 8.906V9.194C277.426 10.994 276.778 14.27 271.216 14.27ZM270.838 11.642H271.036C273.25 11.642 273.808 10.058 273.808 8.96C273.808 7.826 273.25 6.314 271.036 6.314H270.838C268.534 6.314 268.066 7.826 268.066 8.96C268.066 10.058 268.534 11.642 270.838 11.642ZM294.224 9.014V8.96C294.224 7.88 293.72 6.422 291.524 6.422H291.344C289.238 6.422 288.572 7.808 288.572 8.96V9.014C288.572 10.112 289.238 11.552 291.344 11.552H291.524C293.72 11.552 294.224 10.04 294.224 9.014ZM285.08 17.438V4.01H288.554V5.288C288.986 4.82 290.3 3.812 292.568 3.812H292.802C296.618 3.812 297.86 6.422 297.86 8.798V9.104C297.86 11.282 296.582 14.198 292.784 14.198H292.532C290.246 14.198 289.022 13.154 288.59 12.722V17.438H285.08ZM304.93 12.002C306.982 12.002 307.684 10.706 307.684 9.95V9.176C307.378 9.302 306.496 9.482 305.488 9.644C303.796 9.932 303.256 10.166 303.256 10.868V10.904C303.256 11.534 303.706 12.002 304.93 12.002ZM307.792 12.614C307.36 13.136 306.28 14.198 303.94 14.198H303.652C300.862 14.198 299.71 12.686 299.71 11.03V10.958C299.71 9.23 300.808 8.168 304.192 7.88L306.928 7.646C307.486 7.592 307.684 7.412 307.684 6.998C307.684 6.53 307.54 6.026 305.596 6.026C303.76 6.026 303.58 6.746 303.58 7.124H299.98V7.088C299.98 6.098 300.376 3.776 305.29 3.776H305.848C310.798 3.776 311.104 5.81 311.104 7.142V10.436C311.104 11.066 311.23 11.318 311.932 11.318H312.31V14H309.466C308.422 14 307.936 13.262 307.792 12.614ZM325.526 11.048V11.156C325.526 13.154 323.852 14.27 320.018 14.27H319.694C315.59 14.27 313.808 12.74 313.808 10.67V10.526H317.57C317.624 11.642 318.65 12.056 319.874 12.056C321.188 12.056 321.908 11.66 321.908 10.868V10.814C321.908 10.076 321.332 9.896 320.324 9.896H317.948V7.754H320.324C321.098 7.754 321.584 7.448 321.584 6.872V6.818C321.584 6.224 320.99 5.918 319.784 5.918C318.434 5.918 317.714 6.242 317.66 6.944H313.898V6.89C313.898 4.748 316.4 3.74 319.658 3.74H319.946C323.312 3.74 325.202 4.55 325.202 6.422V6.494C325.202 8.006 324.05 8.582 323.222 8.78C324.23 8.978 325.526 9.464 325.526 11.048ZM336.214 14H327.97V4.01H335.854C338.14 4.01 339.58 4.82 339.58 6.404V6.494C339.58 7.736 338.788 8.474 337.582 8.672C338.806 8.816 339.904 9.68 339.904 11.12V11.192C339.904 13.01 338.716 14 336.214 14ZM331.48 7.988H334.702C335.548 7.988 335.98 7.664 335.98 7.034V6.944C335.98 6.368 335.584 6.026 334.702 6.026H331.48V7.988ZM331.48 11.984H334.846C335.782 11.984 336.304 11.678 336.304 10.976V10.832C336.304 10.202 335.872 9.806 334.846 9.806H331.48V11.984ZM350.773 7.952L345.949 14H342.349V4.01H345.859V10.058L350.683 4.01H354.283V14H350.773V7.952ZM360.064 14V6.674H356.194V4.01H367.444V6.674H363.574V14H360.064ZM377.773 7.952L372.949 14H369.349V4.01H372.859V10.058L377.683 4.01H381.283V14H377.773V7.952ZM392.608 10.652H390.25L387.334 14H383.374L386.632 10.274C384.904 9.932 383.914 8.942 383.914 7.43V7.214C383.914 5.396 385.39 4.01 387.892 4.01H396.118V14H392.608V10.652ZM392.608 6.314H388.846C388.072 6.314 387.424 6.494 387.424 7.286V7.358C387.424 8.132 388.09 8.366 388.864 8.366H392.608V6.314Z" fill="url(#paint2_radial_10_601)"/>
<path d="M14.4372 14H0.109248V11.84C0.109248 10.022 0.379248 8.294 5.76125 6.656C6.33725 6.458 7.52525 6.17 8.06525 6.026C9.79325 5.594 10.1892 5.252 10.1892 4.622C10.1892 3.812 9.63125 3.308 7.39925 3.308C4.66325 3.308 4.32125 4.712 4.26725 5.432H0.325248V5.306C0.325248 3.416 1.38725 0.446 6.87725 0.446H7.68725C12.5832 0.446 14.1312 2.156 14.1312 4.586V4.73C14.1312 7.088 12.7452 8.078 9.03725 8.798L6.40925 9.356C3.78125 9.986 3.43925 10.418 3.43925 10.796H14.4372V14ZM20.8078 10.508V14H16.6138V10.508H20.8078ZM29.656 14V0.608H34.588L38.854 9.68L43.246 0.608H47.872V14H44.254V5.234L40.186 14H37.288L33.22 5.234V14H29.656ZM55.7072 12.002C57.7592 12.002 58.4612 10.706 58.4612 9.95V9.176C58.1552 9.302 57.2732 9.482 56.2652 9.644C54.5732 9.932 54.0332 10.166 54.0332 10.868V10.904C54.0332 11.534 54.4832 12.002 55.7072 12.002ZM58.5692 12.614C58.1372 13.136 57.0572 14.198 54.7172 14.198H54.4292C51.6392 14.198 50.4872 12.686 50.4872 11.03V10.958C50.4872 9.23 51.5852 8.168 54.9692 7.88L57.7052 7.646C58.2632 7.592 58.4612 7.412 58.4612 6.998C58.4612 6.53 58.3172 6.026 56.3732 6.026C54.5372 6.026 54.3572 6.746 54.3572 7.124H50.7572V7.088C50.7572 6.098 51.1532 3.776 56.0672 3.776H56.6252C61.5752 3.776 61.8812 5.81 61.8812 7.142V10.436C61.8812 11.066 62.0072 11.318 62.7092 11.318H63.0872V14H60.2432C59.1992 14 58.7132 13.262 58.5692 12.614ZM73.4409 10.076H77.1129C77.1129 11.588 76.2129 14.27 71.4069 14.27H70.5249C65.5389 14.27 64.6029 11.03 64.6029 9.14V8.888C64.6029 6.998 65.4849 3.74 70.5069 3.74H71.3349C76.1589 3.74 77.1129 6.368 77.1129 7.808V7.826H73.4409C73.3869 7.538 73.0449 6.296 70.9749 6.296H70.7949C68.7249 6.296 68.2389 7.718 68.2389 8.924V8.942C68.2389 10.184 68.8329 11.66 70.8669 11.66H71.0469C73.1349 11.66 73.4409 10.31 73.4409 10.076ZM82.3649 14V6.674H78.4949V4.01H89.7449V6.674H85.8749V14H82.3649ZM97.4634 6.08C95.6454 6.08 94.9614 6.818 94.7814 7.862H100.073C100.073 7.124 99.7134 6.08 97.4634 6.08ZM100.145 10.886H103.799C103.799 11.714 103.151 14.234 97.9854 14.234H97.3194C92.3874 14.234 91.1634 11.534 91.1634 9.14V8.888C91.1634 6.638 92.2794 3.794 97.0134 3.794H97.8054C102.917 3.794 103.835 6.638 103.835 9.428V9.752H94.7454C94.8894 10.904 95.6274 11.84 97.7694 11.84C99.8034 11.84 100.055 11.048 100.145 10.886ZM115.419 9.014V8.96C115.419 7.88 114.915 6.422 112.719 6.422H112.539C110.433 6.422 109.767 7.808 109.767 8.96V9.014C109.767 10.112 110.433 11.552 112.539 11.552H112.719C114.915 11.552 115.419 10.04 115.419 9.014ZM106.275 17.438V4.01H109.749V5.288C110.181 4.82 111.495 3.812 113.763 3.812H113.997C117.813 3.812 119.055 6.422 119.055 8.798V9.104C119.055 11.282 117.777 14.198 113.979 14.198H113.727C111.441 14.198 110.217 13.154 109.785 12.722V17.438H106.275ZM127.456 17.438V14.936H129.652C129.994 14.936 130.174 14.792 130.174 14.522V14.504C130.174 14.288 130.12 14.09 129.85 13.532L125.566 4.01H129.418L132.19 11.174L134.944 4.01H138.472L133.9 15.008C133.198 16.646 132.334 17.438 130.678 17.438H127.456ZM148.429 10.076H152.101C152.101 11.588 151.201 14.27 146.395 14.27H145.513C140.527 14.27 139.591 11.03 139.591 9.14V8.888C139.591 6.998 140.473 3.74 145.495 3.74H146.323C151.147 3.74 152.101 6.368 152.101 7.808V7.826H148.429C148.375 7.538 148.033 6.296 145.963 6.296H145.783C143.713 6.296 143.227 7.718 143.227 8.924V8.942C143.227 10.184 143.821 11.66 145.855 11.66H146.035C148.123 11.66 148.429 10.31 148.429 10.076ZM157.353 14V6.674H153.483V4.01H164.733V6.674H160.863V14H157.353ZM172.902 14.27H172.344C166.962 14.27 166.134 10.994 166.134 9.176V8.924C166.134 7.124 166.962 3.74 172.326 3.74H172.92C178.464 3.74 179.112 7.142 179.112 8.906V9.194C179.112 10.994 178.464 14.27 172.902 14.27ZM172.524 11.642H172.722C174.936 11.642 175.494 10.058 175.494 8.96C175.494 7.826 174.936 6.314 172.722 6.314H172.524C170.22 6.314 169.752 7.826 169.752 8.96C169.752 10.058 170.22 11.642 172.524 11.642ZM189.95 7.952L185.126 14H181.526V4.01H185.036V10.058L189.86 4.01H193.46V14H189.95V7.952ZM187.718 2.984H187.178C184.316 2.984 183.812 1.04 183.812 0.104V0.0499994H186.458C186.458 0.284 186.566 1.004 187.466 1.004C188.312 1.004 188.438 0.284 188.438 0.0499994H191.048V0.104C191.048 1.04 190.328 2.984 187.718 2.984ZM203.796 4.01H207.306V14H203.796V10.562C203.022 10.652 202.122 10.742 201.186 10.742C197.226 10.742 195.732 9.626 195.732 6.458V4.01H199.242V5.81C199.242 7.682 199.872 8.006 201.726 8.006C202.428 8.006 203.238 7.952 203.796 7.88V4.01ZM218.638 7.952L213.814 14H210.214V4.01H213.724V10.058L218.548 4.01H222.148V14H218.638V7.952ZM233.311 14H225.067V4.01H232.951C235.237 4.01 236.677 4.82 236.677 6.404V6.494C236.677 7.736 235.885 8.474 234.679 8.672C235.903 8.816 237.001 9.68 237.001 11.12V11.192C237.001 13.01 235.813 14 233.311 14ZM228.577 7.988H231.799C232.645 7.988 233.077 7.664 233.077 7.034V6.944C233.077 6.368 232.681 6.026 231.799 6.026H228.577V7.988ZM228.577 11.984H231.943C232.879 11.984 233.401 11.678 233.401 10.976V10.832C233.401 10.202 232.969 9.806 231.943 9.806H228.577V11.984ZM245.71 14.27H245.152C239.77 14.27 238.942 10.994 238.942 9.176V8.924C238.942 7.124 239.77 3.74 245.134 3.74H245.728C251.272 3.74 251.92 7.142 251.92 8.906V9.194C251.92 10.994 251.272 14.27 245.71 14.27ZM245.332 11.642H245.53C247.744 11.642 248.302 10.058 248.302 8.96C248.302 7.826 247.744 6.314 245.53 6.314H245.332C243.028 6.314 242.56 7.826 242.56 8.96C242.56 10.058 243.028 11.642 245.332 11.642ZM254.335 14V4.01H263.047V6.674H257.845V14H254.335ZM271.216 14.27H270.658C265.276 14.27 264.448 10.994 264.448 9.176V8.924C264.448 7.124 265.276 3.74 270.64 3.74H271.234C276.778 3.74 277.426 7.142 277.426 8.906V9.194C277.426 10.994 276.778 14.27 271.216 14.27ZM270.838 11.642H271.036C273.25 11.642 273.808 10.058 273.808 8.96C273.808 7.826 273.25 6.314 271.036 6.314H270.838C268.534 6.314 268.066 7.826 268.066 8.96C268.066 10.058 268.534 11.642 270.838 11.642ZM294.224 9.014V8.96C294.224 7.88 293.72 6.422 291.524 6.422H291.344C289.238 6.422 288.572 7.808 288.572 8.96V9.014C288.572 10.112 289.238 11.552 291.344 11.552H291.524C293.72 11.552 294.224 10.04 294.224 9.014ZM285.08 17.438V4.01H288.554V5.288C288.986 4.82 290.3 3.812 292.568 3.812H292.802C296.618 3.812 297.86 6.422 297.86 8.798V9.104C297.86 11.282 296.582 14.198 292.784 14.198H292.532C290.246 14.198 289.022 13.154 288.59 12.722V17.438H285.08ZM304.93 12.002C306.982 12.002 307.684 10.706 307.684 9.95V9.176C307.378 9.302 306.496 9.482 305.488 9.644C303.796 9.932 303.256 10.166 303.256 10.868V10.904C303.256 11.534 303.706 12.002 304.93 12.002ZM307.792 12.614C307.36 13.136 306.28 14.198 303.94 14.198H303.652C300.862 14.198 299.71 12.686 299.71 11.03V10.958C299.71 9.23 300.808 8.168 304.192 7.88L306.928 7.646C307.486 7.592 307.684 7.412 307.684 6.998C307.684 6.53 307.54 6.026 305.596 6.026C303.76 6.026 303.58 6.746 303.58 7.124H299.98V7.088C299.98 6.098 300.376 3.776 305.29 3.776H305.848C310.798 3.776 311.104 5.81 311.104 7.142V10.436C311.104 11.066 311.23 11.318 311.932 11.318H312.31V14H309.466C308.422 14 307.936 13.262 307.792 12.614ZM325.526 11.048V11.156C325.526 13.154 323.852 14.27 320.018 14.27H319.694C315.59 14.27 313.808 12.74 313.808 10.67V10.526H317.57C317.624 11.642 318.65 12.056 319.874 12.056C321.188 12.056 321.908 11.66 321.908 10.868V10.814C321.908 10.076 321.332 9.896 320.324 9.896H317.948V7.754H320.324C321.098 7.754 321.584 7.448 321.584 6.872V6.818C321.584 6.224 320.99 5.918 319.784 5.918C318.434 5.918 317.714 6.242 317.66 6.944H313.898V6.89C313.898 4.748 316.4 3.74 319.658 3.74H319.946C323.312 3.74 325.202 4.55 325.202 6.422V6.494C325.202 8.006 324.05 8.582 323.222 8.78C324.23 8.978 325.526 9.464 325.526 11.048ZM336.214 14H327.97V4.01H335.854C338.14 4.01 339.58 4.82 339.58 6.404V6.494C339.58 7.736 338.788 8.474 337.582 8.672C338.806 8.816 339.904 9.68 339.904 11.12V11.192C339.904 13.01 338.716 14 336.214 14ZM331.48 7.988H334.702C335.548 7.988 335.98 7.664 335.98 7.034V6.944C335.98 6.368 335.584 6.026 334.702 6.026H331.48V7.988ZM331.48 11.984H334.846C335.782 11.984 336.304 11.678 336.304 10.976V10.832C336.304 10.202 335.872 9.806 334.846 9.806H331.48V11.984ZM350.773 7.952L345.949 14H342.349V4.01H345.859V10.058L350.683 4.01H354.283V14H350.773V7.952ZM360.064 14V6.674H356.194V4.01H367.444V6.674H363.574V14H360.064ZM377.773 7.952L372.949 14H369.349V4.01H372.859V10.058L377.683 4.01H381.283V14H377.773V7.952ZM392.608 10.652H390.25L387.334 14H383.374L386.632 10.274C384.904 9.932 383.914 8.942 383.914 7.43V7.214C383.914 5.396 385.39 4.01 387.892 4.01H396.118V14H392.608V10.652ZM392.608 6.314H388.846C388.072 6.314 387.424 6.494 387.424 7.286V7.358C387.424 8.132 388.09 8.366 388.864 8.366H392.608V6.314Z" fill="#C1A875" style="mix-blend-mode:color"/>
<defs>
<linearGradient id="paint0_linear_10_601" x1="1" y1="6" x2="398" y2="6.00004" gradientUnits="userSpaceOnUse">
<stop stop-color="#576167"/>
<stop offset="0.191294" stop-color="#9EA1A2"/>
<stop offset="0.396166" stop-color="#848989"/>
<stop offset="0.62055" stop-color="#576167"/>
<stop offset="0.830299" stop-color="#757A7C"/>
<stop offset="1" stop-color="#576167"/>
</linearGradient>
<radialGradient id="paint1_radial_10_601" cx="0" cy="0" r="1" gradientUnits="userSpaceOnUse" gradientTransform="translate(212.423 -3.20225) rotate(90) scale(17.8315 300.343)">
<stop stop-color="white"/>
<stop offset="1" stop-color="white" stop-opacity="0"/>
</radialGradient>
<radialGradient id="paint2_radial_10_601" cx="0" cy="0" r="1" gradientUnits="userSpaceOnUse" gradientTransform="translate(234.878 23.6629) rotate(-88.5752) scale(25.5585 429.351)">
<stop stop-color="white"/>
<stop offset="1" stop-color="white" stop-opacity="0"/>
</radialGradient>
</defs>
</svg>
