<svg width="423" height="18" viewBox="0 0 423 18" fill="none" xmlns="http://www.w3.org/2000/svg">
<path d="M8.30925 14.198H7.55325C1.82925 14.198 0.785248 11.12 0.785248 9.608V9.446H4.74525C4.79925 9.95 5.10525 11.21 8.02125 11.21C10.9732 11.21 11.4412 10.436 11.4412 9.644C11.4412 8.852 11.1352 8.438 9.64125 8.438H5.21325V5.72H9.62325C11.0632 5.72 11.2612 5.288 11.2612 4.64C11.2612 3.92 10.8652 3.326 7.98525 3.326C5.12325 3.326 4.87125 4.28 4.81725 4.712H0.965248V4.514C0.965248 3.29 1.77525 0.446 7.30125 0.446H8.30925C13.8352 0.446 14.9512 2.3 14.9512 3.884V4.01C14.9512 5.522 14.0152 6.206 12.9532 6.494C14.1772 6.782 15.3652 7.664 15.3652 9.554V9.68C15.3652 11.822 14.0512 14.198 8.30925 14.198ZM21.8078 10.508V14H17.6138V10.508H21.8078ZM30.656 14V0.608H44.534V14H40.826V3.56H34.364V14H30.656ZM53.4634 6.08C51.6454 6.08 50.9614 6.818 50.7814 7.862H56.0734C56.0734 7.124 55.7134 6.08 53.4634 6.08ZM56.1454 10.886H59.7994C59.7994 11.714 59.1514 14.234 53.9854 14.234H53.3194C48.3874 14.234 47.1634 11.534 47.1634 9.14V8.888C47.1634 6.638 48.2794 3.794 53.0134 3.794H53.8054C58.9174 3.794 59.8354 6.638 59.8354 9.428V9.752H50.7454C50.8894 10.904 51.6274 11.84 53.7694 11.84C55.8034 11.84 56.0554 11.048 56.1454 10.886ZM71.4193 9.014V8.96C71.4193 7.88 70.9153 6.422 68.7193 6.422H68.5393C66.4333 6.422 65.7673 7.808 65.7673 8.96V9.014C65.7673 10.112 66.4333 11.552 68.5393 11.552H68.7193C70.9153 11.552 71.4193 10.04 71.4193 9.014ZM62.2753 17.438V4.01H65.7493V5.288C66.1813 4.82 67.4953 3.812 69.7633 3.812H69.9973C73.8133 3.812 75.0553 6.422 75.0553 8.798V9.104C75.0553 11.282 73.7773 14.198 69.9793 14.198H69.7273C67.4413 14.198 66.2173 13.154 65.7853 12.722V17.438H62.2753ZM83.3111 6.08C81.4931 6.08 80.8091 6.818 80.6291 7.862H85.9211C85.9211 7.124 85.5611 6.08 83.3111 6.08ZM85.9931 10.886H89.6471C89.6471 11.714 88.9991 14.234 83.8331 14.234H83.1671C78.2351 14.234 77.0111 11.534 77.0111 9.14V8.888C77.0111 6.638 78.1271 3.794 82.8611 3.794H83.6531C88.7651 3.794 89.6831 6.638 89.6831 9.428V9.752H80.5931C80.7371 10.904 81.4751 11.84 83.6171 11.84C85.6511 11.84 85.9031 11.048 85.9931 10.886ZM91.0831 16.124V11.336H92.2891C92.9731 9.968 93.0811 6.998 93.1711 4.01H103.737V11.336H105.537V16.124H102.207V14H94.4131V16.124H91.0831ZM95.6011 11.336H100.227V6.674H96.3211C96.2671 7.97 96.0871 9.95 95.6011 11.336ZM113.714 14.27H113.156C107.774 14.27 106.946 10.994 106.946 9.176V8.924C106.946 7.124 107.774 3.74 113.138 3.74H113.732C119.276 3.74 119.924 7.142 119.924 8.906V9.194C119.924 10.994 119.276 14.27 113.714 14.27ZM113.336 11.642H113.534C115.748 11.642 116.306 10.058 116.306 8.96C116.306 7.826 115.748 6.314 113.534 6.314H113.336C111.032 6.314 110.564 7.826 110.564 8.96C110.564 10.058 111.032 11.642 113.336 11.642ZM130.583 14H122.339V4.01H130.223C132.509 4.01 133.949 4.82 133.949 6.404V6.494C133.949 7.736 133.157 8.474 131.951 8.672C133.175 8.816 134.273 9.68 134.273 11.12V11.192C134.273 13.01 133.085 14 130.583 14ZM125.849 7.988H129.071C129.917 7.988 130.349 7.664 130.349 7.034V6.944C130.349 6.368 129.953 6.026 129.071 6.026H125.849V7.988ZM125.849 11.984H129.215C130.151 11.984 130.673 11.678 130.673 10.976V10.832C130.673 10.202 130.241 9.806 129.215 9.806H125.849V11.984ZM145.142 7.952L140.318 14H136.718V4.01H140.228V10.058L145.052 4.01H148.652V14H145.142V7.952ZM159.005 14L155.117 9.374V14H151.607V4.01H155.117V8.006L158.681 4.01H162.731L158.555 8.492L163.181 14H159.005ZM183.191 11.336V16.124H179.861V14H169.835V4.01H173.345V11.336H177.881V4.01H181.391V11.336H183.191ZM193.71 7.952L188.886 14H185.286V4.01H188.796V10.058L193.62 4.01H197.22V14H193.71V7.952ZM210.4 14.27H209.878V17.384H206.368V14.27H205.846C200.284 14.27 199.636 10.994 199.636 9.194V8.906C199.636 7.142 200.284 3.74 205.828 3.74H206.368V0.608H209.878V3.74H210.418C215.962 3.74 216.61 7.142 216.61 8.906V9.194C216.61 10.994 215.962 14.27 210.4 14.27ZM206.026 11.732H206.368V6.224H206.026C203.812 6.224 203.254 7.646 203.254 8.96C203.254 10.238 203.812 11.732 206.026 11.732ZM210.22 6.224H209.878V11.732H210.22C212.434 11.732 212.992 10.238 212.992 8.96C212.992 7.664 212.434 6.224 210.22 6.224ZM228.199 9.014V8.96C228.199 7.88 227.695 6.422 225.499 6.422H225.319C223.213 6.422 222.547 7.808 222.547 8.96V9.014C222.547 10.112 223.213 11.552 225.319 11.552H225.499C227.695 11.552 228.199 10.04 228.199 9.014ZM219.055 17.438V4.01H222.529V5.288C222.961 4.82 224.275 3.812 226.543 3.812H226.777C230.593 3.812 231.835 6.422 231.835 8.798V9.104C231.835 11.282 230.557 14.198 226.759 14.198H226.507C224.221 14.198 222.997 13.154 222.565 12.722V17.438H219.055ZM240.54 14.27H239.982C234.6 14.27 233.772 10.994 233.772 9.176V8.924C233.772 7.124 234.6 3.74 239.964 3.74H240.558C246.102 3.74 246.75 7.142 246.75 8.906V9.194C246.75 10.994 246.102 14.27 240.54 14.27ZM240.162 11.642H240.36C242.574 11.642 243.132 10.058 243.132 8.96C243.132 7.826 242.574 6.314 240.36 6.314H240.162C237.858 6.314 237.39 7.826 237.39 8.96C237.39 10.058 237.858 11.642 240.162 11.642ZM257.409 14H249.165V4.01H257.049C259.335 4.01 260.775 4.82 260.775 6.404V6.494C260.775 7.736 259.983 8.474 258.777 8.672C260.001 8.816 261.099 9.68 261.099 11.12V11.192C261.099 13.01 259.911 14 257.409 14ZM252.675 7.988H255.897C256.743 7.988 257.175 7.664 257.175 7.034V6.944C257.175 6.368 256.779 6.026 255.897 6.026H252.675V7.988ZM252.675 11.984H256.041C256.977 11.984 257.499 11.678 257.499 10.976V10.832C257.499 10.202 257.067 9.806 256.041 9.806H252.675V11.984ZM269.808 14.27H269.25C263.868 14.27 263.04 10.994 263.04 9.176V8.924C263.04 7.124 263.868 3.74 269.232 3.74H269.826C275.37 3.74 276.018 7.142 276.018 8.906V9.194C276.018 10.994 275.37 14.27 269.808 14.27ZM269.43 11.642H269.628C271.842 11.642 272.4 10.058 272.4 8.96C272.4 7.826 271.842 6.314 269.628 6.314H269.43C267.126 6.314 266.658 7.826 266.658 8.96C266.658 10.058 267.126 11.642 269.43 11.642ZM286.857 7.952L282.033 14H278.433V4.01H281.943V10.058L286.767 4.01H290.367V14H286.857V7.952ZM284.625 2.984H284.085C281.223 2.984 280.719 1.04 280.719 0.104V0.0499994H283.365C283.365 0.284 283.473 1.004 284.373 1.004C285.219 1.004 285.345 0.284 285.345 0.0499994H287.955V0.104C287.955 1.04 287.235 2.984 284.625 2.984ZM301.729 7.268V14H298.489V4.01H303.439L306.409 10.382L309.379 4.01H314.149V14H310.639V7.268L307.525 14H304.843L301.729 7.268ZM322.76 6.08C320.942 6.08 320.258 6.818 320.078 7.862H325.37C325.37 7.124 325.01 6.08 322.76 6.08ZM325.442 10.886H329.096C329.096 11.714 328.448 14.234 323.282 14.234H322.616C317.684 14.234 316.46 11.534 316.46 9.14V8.888C316.46 6.638 317.576 3.794 322.31 3.794H323.102C328.214 3.794 329.132 6.638 329.132 9.428V9.752H320.042C320.186 10.904 320.924 11.84 323.066 11.84C325.1 11.84 325.352 11.048 325.442 10.886ZM330.532 16.124V11.336H331.738C332.422 9.968 332.53 6.998 332.62 4.01H343.186V11.336H344.986V16.124H341.656V14H333.862V16.124H330.532ZM335.05 11.336H339.676V6.674H335.77C335.716 7.97 335.536 9.95 335.05 11.336ZM355.499 7.952L350.675 14H347.075V4.01H350.585V10.058L355.409 4.01H359.009V14H355.499V7.952ZM375.285 11.336V16.124H371.955V14H361.929V4.01H365.439V11.336H369.975V4.01H373.485V11.336H375.285ZM385.804 7.952L380.98 14H377.38V4.01H380.89V10.058L385.714 4.01H389.314V14H385.804V7.952ZM395.743 14H392.233V4.01H395.743V7.646H400.639V4.01H404.149V14H400.639V10.31H395.743V14ZM407.069 14V4.01H410.579V6.872H413.315C416.735 6.872 418.067 8.384 418.067 10.292V10.508C418.067 12.596 416.735 14 413.315 14H407.069ZM410.579 11.624H412.883C413.603 11.624 414.467 11.408 414.467 10.436V10.382C414.467 9.482 413.603 9.248 412.883 9.248H410.579V11.624ZM422.855 4.01V14H419.345V4.01H422.855Z" fill="url(#paint0_linear_10_604)"/>
<path d="M8.30925 14.198H7.55325C1.82925 14.198 0.785248 11.12 0.785248 9.608V9.446H4.74525C4.79925 9.95 5.10525 11.21 8.02125 11.21C10.9732 11.21 11.4412 10.436 11.4412 9.644C11.4412 8.852 11.1352 8.438 9.64125 8.438H5.21325V5.72H9.62325C11.0632 5.72 11.2612 5.288 11.2612 4.64C11.2612 3.92 10.8652 3.326 7.98525 3.326C5.12325 3.326 4.87125 4.28 4.81725 4.712H0.965248V4.514C0.965248 3.29 1.77525 0.446 7.30125 0.446H8.30925C13.8352 0.446 14.9512 2.3 14.9512 3.884V4.01C14.9512 5.522 14.0152 6.206 12.9532 6.494C14.1772 6.782 15.3652 7.664 15.3652 9.554V9.68C15.3652 11.822 14.0512 14.198 8.30925 14.198ZM21.8078 10.508V14H17.6138V10.508H21.8078ZM30.656 14V0.608H44.534V14H40.826V3.56H34.364V14H30.656ZM53.4634 6.08C51.6454 6.08 50.9614 6.818 50.7814 7.862H56.0734C56.0734 7.124 55.7134 6.08 53.4634 6.08ZM56.1454 10.886H59.7994C59.7994 11.714 59.1514 14.234 53.9854 14.234H53.3194C48.3874 14.234 47.1634 11.534 47.1634 9.14V8.888C47.1634 6.638 48.2794 3.794 53.0134 3.794H53.8054C58.9174 3.794 59.8354 6.638 59.8354 9.428V9.752H50.7454C50.8894 10.904 51.6274 11.84 53.7694 11.84C55.8034 11.84 56.0554 11.048 56.1454 10.886ZM71.4193 9.014V8.96C71.4193 7.88 70.9153 6.422 68.7193 6.422H68.5393C66.4333 6.422 65.7673 7.808 65.7673 8.96V9.014C65.7673 10.112 66.4333 11.552 68.5393 11.552H68.7193C70.9153 11.552 71.4193 10.04 71.4193 9.014ZM62.2753 17.438V4.01H65.7493V5.288C66.1813 4.82 67.4953 3.812 69.7633 3.812H69.9973C73.8133 3.812 75.0553 6.422 75.0553 8.798V9.104C75.0553 11.282 73.7773 14.198 69.9793 14.198H69.7273C67.4413 14.198 66.2173 13.154 65.7853 12.722V17.438H62.2753ZM83.3111 6.08C81.4931 6.08 80.8091 6.818 80.6291 7.862H85.9211C85.9211 7.124 85.5611 6.08 83.3111 6.08ZM85.9931 10.886H89.6471C89.6471 11.714 88.9991 14.234 83.8331 14.234H83.1671C78.2351 14.234 77.0111 11.534 77.0111 9.14V8.888C77.0111 6.638 78.1271 3.794 82.8611 3.794H83.6531C88.7651 3.794 89.6831 6.638 89.6831 9.428V9.752H80.5931C80.7371 10.904 81.4751 11.84 83.6171 11.84C85.6511 11.84 85.9031 11.048 85.9931 10.886ZM91.0831 16.124V11.336H92.2891C92.9731 9.968 93.0811 6.998 93.1711 4.01H103.737V11.336H105.537V16.124H102.207V14H94.4131V16.124H91.0831ZM95.6011 11.336H100.227V6.674H96.3211C96.2671 7.97 96.0871 9.95 95.6011 11.336ZM113.714 14.27H113.156C107.774 14.27 106.946 10.994 106.946 9.176V8.924C106.946 7.124 107.774 3.74 113.138 3.74H113.732C119.276 3.74 119.924 7.142 119.924 8.906V9.194C119.924 10.994 119.276 14.27 113.714 14.27ZM113.336 11.642H113.534C115.748 11.642 116.306 10.058 116.306 8.96C116.306 7.826 115.748 6.314 113.534 6.314H113.336C111.032 6.314 110.564 7.826 110.564 8.96C110.564 10.058 111.032 11.642 113.336 11.642ZM130.583 14H122.339V4.01H130.223C132.509 4.01 133.949 4.82 133.949 6.404V6.494C133.949 7.736 133.157 8.474 131.951 8.672C133.175 8.816 134.273 9.68 134.273 11.12V11.192C134.273 13.01 133.085 14 130.583 14ZM125.849 7.988H129.071C129.917 7.988 130.349 7.664 130.349 7.034V6.944C130.349 6.368 129.953 6.026 129.071 6.026H125.849V7.988ZM125.849 11.984H129.215C130.151 11.984 130.673 11.678 130.673 10.976V10.832C130.673 10.202 130.241 9.806 129.215 9.806H125.849V11.984ZM145.142 7.952L140.318 14H136.718V4.01H140.228V10.058L145.052 4.01H148.652V14H145.142V7.952ZM159.005 14L155.117 9.374V14H151.607V4.01H155.117V8.006L158.681 4.01H162.731L158.555 8.492L163.181 14H159.005ZM183.191 11.336V16.124H179.861V14H169.835V4.01H173.345V11.336H177.881V4.01H181.391V11.336H183.191ZM193.71 7.952L188.886 14H185.286V4.01H188.796V10.058L193.62 4.01H197.22V14H193.71V7.952ZM210.4 14.27H209.878V17.384H206.368V14.27H205.846C200.284 14.27 199.636 10.994 199.636 9.194V8.906C199.636 7.142 200.284 3.74 205.828 3.74H206.368V0.608H209.878V3.74H210.418C215.962 3.74 216.61 7.142 216.61 8.906V9.194C216.61 10.994 215.962 14.27 210.4 14.27ZM206.026 11.732H206.368V6.224H206.026C203.812 6.224 203.254 7.646 203.254 8.96C203.254 10.238 203.812 11.732 206.026 11.732ZM210.22 6.224H209.878V11.732H210.22C212.434 11.732 212.992 10.238 212.992 8.96C212.992 7.664 212.434 6.224 210.22 6.224ZM228.199 9.014V8.96C228.199 7.88 227.695 6.422 225.499 6.422H225.319C223.213 6.422 222.547 7.808 222.547 8.96V9.014C222.547 10.112 223.213 11.552 225.319 11.552H225.499C227.695 11.552 228.199 10.04 228.199 9.014ZM219.055 17.438V4.01H222.529V5.288C222.961 4.82 224.275 3.812 226.543 3.812H226.777C230.593 3.812 231.835 6.422 231.835 8.798V9.104C231.835 11.282 230.557 14.198 226.759 14.198H226.507C224.221 14.198 222.997 13.154 222.565 12.722V17.438H219.055ZM240.54 14.27H239.982C234.6 14.27 233.772 10.994 233.772 9.176V8.924C233.772 7.124 234.6 3.74 239.964 3.74H240.558C246.102 3.74 246.75 7.142 246.75 8.906V9.194C246.75 10.994 246.102 14.27 240.54 14.27ZM240.162 11.642H240.36C242.574 11.642 243.132 10.058 243.132 8.96C243.132 7.826 242.574 6.314 240.36 6.314H240.162C237.858 6.314 237.39 7.826 237.39 8.96C237.39 10.058 237.858 11.642 240.162 11.642ZM257.409 14H249.165V4.01H257.049C259.335 4.01 260.775 4.82 260.775 6.404V6.494C260.775 7.736 259.983 8.474 258.777 8.672C260.001 8.816 261.099 9.68 261.099 11.12V11.192C261.099 13.01 259.911 14 257.409 14ZM252.675 7.988H255.897C256.743 7.988 257.175 7.664 257.175 7.034V6.944C257.175 6.368 256.779 6.026 255.897 6.026H252.675V7.988ZM252.675 11.984H256.041C256.977 11.984 257.499 11.678 257.499 10.976V10.832C257.499 10.202 257.067 9.806 256.041 9.806H252.675V11.984ZM269.808 14.27H269.25C263.868 14.27 263.04 10.994 263.04 9.176V8.924C263.04 7.124 263.868 3.74 269.232 3.74H269.826C275.37 3.74 276.018 7.142 276.018 8.906V9.194C276.018 10.994 275.37 14.27 269.808 14.27ZM269.43 11.642H269.628C271.842 11.642 272.4 10.058 272.4 8.96C272.4 7.826 271.842 6.314 269.628 6.314H269.43C267.126 6.314 266.658 7.826 266.658 8.96C266.658 10.058 267.126 11.642 269.43 11.642ZM286.857 7.952L282.033 14H278.433V4.01H281.943V10.058L286.767 4.01H290.367V14H286.857V7.952ZM284.625 2.984H284.085C281.223 2.984 280.719 1.04 280.719 0.104V0.0499994H283.365C283.365 0.284 283.473 1.004 284.373 1.004C285.219 1.004 285.345 0.284 285.345 0.0499994H287.955V0.104C287.955 1.04 287.235 2.984 284.625 2.984ZM301.729 7.268V14H298.489V4.01H303.439L306.409 10.382L309.379 4.01H314.149V14H310.639V7.268L307.525 14H304.843L301.729 7.268ZM322.76 6.08C320.942 6.08 320.258 6.818 320.078 7.862H325.37C325.37 7.124 325.01 6.08 322.76 6.08ZM325.442 10.886H329.096C329.096 11.714 328.448 14.234 323.282 14.234H322.616C317.684 14.234 316.46 11.534 316.46 9.14V8.888C316.46 6.638 317.576 3.794 322.31 3.794H323.102C328.214 3.794 329.132 6.638 329.132 9.428V9.752H320.042C320.186 10.904 320.924 11.84 323.066 11.84C325.1 11.84 325.352 11.048 325.442 10.886ZM330.532 16.124V11.336H331.738C332.422 9.968 332.53 6.998 332.62 4.01H343.186V11.336H344.986V16.124H341.656V14H333.862V16.124H330.532ZM335.05 11.336H339.676V6.674H335.77C335.716 7.97 335.536 9.95 335.05 11.336ZM355.499 7.952L350.675 14H347.075V4.01H350.585V10.058L355.409 4.01H359.009V14H355.499V7.952ZM375.285 11.336V16.124H371.955V14H361.929V4.01H365.439V11.336H369.975V4.01H373.485V11.336H375.285ZM385.804 7.952L380.98 14H377.38V4.01H380.89V10.058L385.714 4.01H389.314V14H385.804V7.952ZM395.743 14H392.233V4.01H395.743V7.646H400.639V4.01H404.149V14H400.639V10.31H395.743V14ZM407.069 14V4.01H410.579V6.872H413.315C416.735 6.872 418.067 8.384 418.067 10.292V10.508C418.067 12.596 416.735 14 413.315 14H407.069ZM410.579 11.624H412.883C413.603 11.624 414.467 11.408 414.467 10.436V10.382C414.467 9.482 413.603 9.248 412.883 9.248H410.579V11.624ZM422.855 4.01V14H419.345V4.01H422.855Z" fill="url(#paint1_radial_10_604)" style="mix-blend-mode:overlay"/>
<path d="M8.30925 14.198H7.55325C1.82925 14.198 0.785248 11.12 0.785248 9.608V9.446H4.74525C4.79925 9.95 5.10525 11.21 8.02125 11.21C10.9732 11.21 11.4412 10.436 11.4412 9.644C11.4412 8.852 11.1352 8.438 9.64125 8.438H5.21325V5.72H9.62325C11.0632 5.72 11.2612 5.288 11.2612 4.64C11.2612 3.92 10.8652 3.326 7.98525 3.326C5.12325 3.326 4.87125 4.28 4.81725 4.712H0.965248V4.514C0.965248 3.29 1.77525 0.446 7.30125 0.446H8.30925C13.8352 0.446 14.9512 2.3 14.9512 3.884V4.01C14.9512 5.522 14.0152 6.206 12.9532 6.494C14.1772 6.782 15.3652 7.664 15.3652 9.554V9.68C15.3652 11.822 14.0512 14.198 8.30925 14.198ZM21.8078 10.508V14H17.6138V10.508H21.8078ZM30.656 14V0.608H44.534V14H40.826V3.56H34.364V14H30.656ZM53.4634 6.08C51.6454 6.08 50.9614 6.818 50.7814 7.862H56.0734C56.0734 7.124 55.7134 6.08 53.4634 6.08ZM56.1454 10.886H59.7994C59.7994 11.714 59.1514 14.234 53.9854 14.234H53.3194C48.3874 14.234 47.1634 11.534 47.1634 9.14V8.888C47.1634 6.638 48.2794 3.794 53.0134 3.794H53.8054C58.9174 3.794 59.8354 6.638 59.8354 9.428V9.752H50.7454C50.8894 10.904 51.6274 11.84 53.7694 11.84C55.8034 11.84 56.0554 11.048 56.1454 10.886ZM71.4193 9.014V8.96C71.4193 7.88 70.9153 6.422 68.7193 6.422H68.5393C66.4333 6.422 65.7673 7.808 65.7673 8.96V9.014C65.7673 10.112 66.4333 11.552 68.5393 11.552H68.7193C70.9153 11.552 71.4193 10.04 71.4193 9.014ZM62.2753 17.438V4.01H65.7493V5.288C66.1813 4.82 67.4953 3.812 69.7633 3.812H69.9973C73.8133 3.812 75.0553 6.422 75.0553 8.798V9.104C75.0553 11.282 73.7773 14.198 69.9793 14.198H69.7273C67.4413 14.198 66.2173 13.154 65.7853 12.722V17.438H62.2753ZM83.3111 6.08C81.4931 6.08 80.8091 6.818 80.6291 7.862H85.9211C85.9211 7.124 85.5611 6.08 83.3111 6.08ZM85.9931 10.886H89.6471C89.6471 11.714 88.9991 14.234 83.8331 14.234H83.1671C78.2351 14.234 77.0111 11.534 77.0111 9.14V8.888C77.0111 6.638 78.1271 3.794 82.8611 3.794H83.6531C88.7651 3.794 89.6831 6.638 89.6831 9.428V9.752H80.5931C80.7371 10.904 81.4751 11.84 83.6171 11.84C85.6511 11.84 85.9031 11.048 85.9931 10.886ZM91.0831 16.124V11.336H92.2891C92.9731 9.968 93.0811 6.998 93.1711 4.01H103.737V11.336H105.537V16.124H102.207V14H94.4131V16.124H91.0831ZM95.6011 11.336H100.227V6.674H96.3211C96.2671 7.97 96.0871 9.95 95.6011 11.336ZM113.714 14.27H113.156C107.774 14.27 106.946 10.994 106.946 9.176V8.924C106.946 7.124 107.774 3.74 113.138 3.74H113.732C119.276 3.74 119.924 7.142 119.924 8.906V9.194C119.924 10.994 119.276 14.27 113.714 14.27ZM113.336 11.642H113.534C115.748 11.642 116.306 10.058 116.306 8.96C116.306 7.826 115.748 6.314 113.534 6.314H113.336C111.032 6.314 110.564 7.826 110.564 8.96C110.564 10.058 111.032 11.642 113.336 11.642ZM130.583 14H122.339V4.01H130.223C132.509 4.01 133.949 4.82 133.949 6.404V6.494C133.949 7.736 133.157 8.474 131.951 8.672C133.175 8.816 134.273 9.68 134.273 11.12V11.192C134.273 13.01 133.085 14 130.583 14ZM125.849 7.988H129.071C129.917 7.988 130.349 7.664 130.349 7.034V6.944C130.349 6.368 129.953 6.026 129.071 6.026H125.849V7.988ZM125.849 11.984H129.215C130.151 11.984 130.673 11.678 130.673 10.976V10.832C130.673 10.202 130.241 9.806 129.215 9.806H125.849V11.984ZM145.142 7.952L140.318 14H136.718V4.01H140.228V10.058L145.052 4.01H148.652V14H145.142V7.952ZM159.005 14L155.117 9.374V14H151.607V4.01H155.117V8.006L158.681 4.01H162.731L158.555 8.492L163.181 14H159.005ZM183.191 11.336V16.124H179.861V14H169.835V4.01H173.345V11.336H177.881V4.01H181.391V11.336H183.191ZM193.71 7.952L188.886 14H185.286V4.01H188.796V10.058L193.62 4.01H197.22V14H193.71V7.952ZM210.4 14.27H209.878V17.384H206.368V14.27H205.846C200.284 14.27 199.636 10.994 199.636 9.194V8.906C199.636 7.142 200.284 3.74 205.828 3.74H206.368V0.608H209.878V3.74H210.418C215.962 3.74 216.61 7.142 216.61 8.906V9.194C216.61 10.994 215.962 14.27 210.4 14.27ZM206.026 11.732H206.368V6.224H206.026C203.812 6.224 203.254 7.646 203.254 8.96C203.254 10.238 203.812 11.732 206.026 11.732ZM210.22 6.224H209.878V11.732H210.22C212.434 11.732 212.992 10.238 212.992 8.96C212.992 7.664 212.434 6.224 210.22 6.224ZM228.199 9.014V8.96C228.199 7.88 227.695 6.422 225.499 6.422H225.319C223.213 6.422 222.547 7.808 222.547 8.96V9.014C222.547 10.112 223.213 11.552 225.319 11.552H225.499C227.695 11.552 228.199 10.04 228.199 9.014ZM219.055 17.438V4.01H222.529V5.288C222.961 4.82 224.275 3.812 226.543 3.812H226.777C230.593 3.812 231.835 6.422 231.835 8.798V9.104C231.835 11.282 230.557 14.198 226.759 14.198H226.507C224.221 14.198 222.997 13.154 222.565 12.722V17.438H219.055ZM240.54 14.27H239.982C234.6 14.27 233.772 10.994 233.772 9.176V8.924C233.772 7.124 234.6 3.74 239.964 3.74H240.558C246.102 3.74 246.75 7.142 246.75 8.906V9.194C246.75 10.994 246.102 14.27 240.54 14.27ZM240.162 11.642H240.36C242.574 11.642 243.132 10.058 243.132 8.96C243.132 7.826 242.574 6.314 240.36 6.314H240.162C237.858 6.314 237.39 7.826 237.39 8.96C237.39 10.058 237.858 11.642 240.162 11.642ZM257.409 14H249.165V4.01H257.049C259.335 4.01 260.775 4.82 260.775 6.404V6.494C260.775 7.736 259.983 8.474 258.777 8.672C260.001 8.816 261.099 9.68 261.099 11.12V11.192C261.099 13.01 259.911 14 257.409 14ZM252.675 7.988H255.897C256.743 7.988 257.175 7.664 257.175 7.034V6.944C257.175 6.368 256.779 6.026 255.897 6.026H252.675V7.988ZM252.675 11.984H256.041C256.977 11.984 257.499 11.678 257.499 10.976V10.832C257.499 10.202 257.067 9.806 256.041 9.806H252.675V11.984ZM269.808 14.27H269.25C263.868 14.27 263.04 10.994 263.04 9.176V8.924C263.04 7.124 263.868 3.74 269.232 3.74H269.826C275.37 3.74 276.018 7.142 276.018 8.906V9.194C276.018 10.994 275.37 14.27 269.808 14.27ZM269.43 11.642H269.628C271.842 11.642 272.4 10.058 272.4 8.96C272.4 7.826 271.842 6.314 269.628 6.314H269.43C267.126 6.314 266.658 7.826 266.658 8.96C266.658 10.058 267.126 11.642 269.43 11.642ZM286.857 7.952L282.033 14H278.433V4.01H281.943V10.058L286.767 4.01H290.367V14H286.857V7.952ZM284.625 2.984H284.085C281.223 2.984 280.719 1.04 280.719 0.104V0.0499994H283.365C283.365 0.284 283.473 1.004 284.373 1.004C285.219 1.004 285.345 0.284 285.345 0.0499994H287.955V0.104C287.955 1.04 287.235 2.984 284.625 2.984ZM301.729 7.268V14H298.489V4.01H303.439L306.409 10.382L309.379 4.01H314.149V14H310.639V7.268L307.525 14H304.843L301.729 7.268ZM322.76 6.08C320.942 6.08 320.258 6.818 320.078 7.862H325.37C325.37 7.124 325.01 6.08 322.76 6.08ZM325.442 10.886H329.096C329.096 11.714 328.448 14.234 323.282 14.234H322.616C317.684 14.234 316.46 11.534 316.46 9.14V8.888C316.46 6.638 317.576 3.794 322.31 3.794H323.102C328.214 3.794 329.132 6.638 329.132 9.428V9.752H320.042C320.186 10.904 320.924 11.84 323.066 11.84C325.1 11.84 325.352 11.048 325.442 10.886ZM330.532 16.124V11.336H331.738C332.422 9.968 332.53 6.998 332.62 4.01H343.186V11.336H344.986V16.124H341.656V14H333.862V16.124H330.532ZM335.05 11.336H339.676V6.674H335.77C335.716 7.97 335.536 9.95 335.05 11.336ZM355.499 7.952L350.675 14H347.075V4.01H350.585V10.058L355.409 4.01H359.009V14H355.499V7.952ZM375.285 11.336V16.124H371.955V14H361.929V4.01H365.439V11.336H369.975V4.01H373.485V11.336H375.285ZM385.804 7.952L380.98 14H377.38V4.01H380.89V10.058L385.714 4.01H389.314V14H385.804V7.952ZM395.743 14H392.233V4.01H395.743V7.646H400.639V4.01H404.149V14H400.639V10.31H395.743V14ZM407.069 14V4.01H410.579V6.872H413.315C416.735 6.872 418.067 8.384 418.067 10.292V10.508C418.067 12.596 416.735 14 413.315 14H407.069ZM410.579 11.624H412.883C413.603 11.624 414.467 11.408 414.467 10.436V10.382C414.467 9.482 413.603 9.248 412.883 9.248H410.579V11.624ZM422.855 4.01V14H419.345V4.01H422.855Z" fill="url(#paint2_radial_10_604)"/>
<path d="M8.30925 14.198H7.55325C1.82925 14.198 0.785248 11.12 0.785248 9.608V9.446H4.74525C4.79925 9.95 5.10525 11.21 8.02125 11.21C10.9732 11.21 11.4412 10.436 11.4412 9.644C11.4412 8.852 11.1352 8.438 9.64125 8.438H5.21325V5.72H9.62325C11.0632 5.72 11.2612 5.288 11.2612 4.64C11.2612 3.92 10.8652 3.326 7.98525 3.326C5.12325 3.326 4.87125 4.28 4.81725 4.712H0.965248V4.514C0.965248 3.29 1.77525 0.446 7.30125 0.446H8.30925C13.8352 0.446 14.9512 2.3 14.9512 3.884V4.01C14.9512 5.522 14.0152 6.206 12.9532 6.494C14.1772 6.782 15.3652 7.664 15.3652 9.554V9.68C15.3652 11.822 14.0512 14.198 8.30925 14.198ZM21.8078 10.508V14H17.6138V10.508H21.8078ZM30.656 14V0.608H44.534V14H40.826V3.56H34.364V14H30.656ZM53.4634 6.08C51.6454 6.08 50.9614 6.818 50.7814 7.862H56.0734C56.0734 7.124 55.7134 6.08 53.4634 6.08ZM56.1454 10.886H59.7994C59.7994 11.714 59.1514 14.234 53.9854 14.234H53.3194C48.3874 14.234 47.1634 11.534 47.1634 9.14V8.888C47.1634 6.638 48.2794 3.794 53.0134 3.794H53.8054C58.9174 3.794 59.8354 6.638 59.8354 9.428V9.752H50.7454C50.8894 10.904 51.6274 11.84 53.7694 11.84C55.8034 11.84 56.0554 11.048 56.1454 10.886ZM71.4193 9.014V8.96C71.4193 7.88 70.9153 6.422 68.7193 6.422H68.5393C66.4333 6.422 65.7673 7.808 65.7673 8.96V9.014C65.7673 10.112 66.4333 11.552 68.5393 11.552H68.7193C70.9153 11.552 71.4193 10.04 71.4193 9.014ZM62.2753 17.438V4.01H65.7493V5.288C66.1813 4.82 67.4953 3.812 69.7633 3.812H69.9973C73.8133 3.812 75.0553 6.422 75.0553 8.798V9.104C75.0553 11.282 73.7773 14.198 69.9793 14.198H69.7273C67.4413 14.198 66.2173 13.154 65.7853 12.722V17.438H62.2753ZM83.3111 6.08C81.4931 6.08 80.8091 6.818 80.6291 7.862H85.9211C85.9211 7.124 85.5611 6.08 83.3111 6.08ZM85.9931 10.886H89.6471C89.6471 11.714 88.9991 14.234 83.8331 14.234H83.1671C78.2351 14.234 77.0111 11.534 77.0111 9.14V8.888C77.0111 6.638 78.1271 3.794 82.8611 3.794H83.6531C88.7651 3.794 89.6831 6.638 89.6831 9.428V9.752H80.5931C80.7371 10.904 81.4751 11.84 83.6171 11.84C85.6511 11.84 85.9031 11.048 85.9931 10.886ZM91.0831 16.124V11.336H92.2891C92.9731 9.968 93.0811 6.998 93.1711 4.01H103.737V11.336H105.537V16.124H102.207V14H94.4131V16.124H91.0831ZM95.6011 11.336H100.227V6.674H96.3211C96.2671 7.97 96.0871 9.95 95.6011 11.336ZM113.714 14.27H113.156C107.774 14.27 106.946 10.994 106.946 9.176V8.924C106.946 7.124 107.774 3.74 113.138 3.74H113.732C119.276 3.74 119.924 7.142 119.924 8.906V9.194C119.924 10.994 119.276 14.27 113.714 14.27ZM113.336 11.642H113.534C115.748 11.642 116.306 10.058 116.306 8.96C116.306 7.826 115.748 6.314 113.534 6.314H113.336C111.032 6.314 110.564 7.826 110.564 8.96C110.564 10.058 111.032 11.642 113.336 11.642ZM130.583 14H122.339V4.01H130.223C132.509 4.01 133.949 4.82 133.949 6.404V6.494C133.949 7.736 133.157 8.474 131.951 8.672C133.175 8.816 134.273 9.68 134.273 11.12V11.192C134.273 13.01 133.085 14 130.583 14ZM125.849 7.988H129.071C129.917 7.988 130.349 7.664 130.349 7.034V6.944C130.349 6.368 129.953 6.026 129.071 6.026H125.849V7.988ZM125.849 11.984H129.215C130.151 11.984 130.673 11.678 130.673 10.976V10.832C130.673 10.202 130.241 9.806 129.215 9.806H125.849V11.984ZM145.142 7.952L140.318 14H136.718V4.01H140.228V10.058L145.052 4.01H148.652V14H145.142V7.952ZM159.005 14L155.117 9.374V14H151.607V4.01H155.117V8.006L158.681 4.01H162.731L158.555 8.492L163.181 14H159.005ZM183.191 11.336V16.124H179.861V14H169.835V4.01H173.345V11.336H177.881V4.01H181.391V11.336H183.191ZM193.71 7.952L188.886 14H185.286V4.01H188.796V10.058L193.62 4.01H197.22V14H193.71V7.952ZM210.4 14.27H209.878V17.384H206.368V14.27H205.846C200.284 14.27 199.636 10.994 199.636 9.194V8.906C199.636 7.142 200.284 3.74 205.828 3.74H206.368V0.608H209.878V3.74H210.418C215.962 3.74 216.61 7.142 216.61 8.906V9.194C216.61 10.994 215.962 14.27 210.4 14.27ZM206.026 11.732H206.368V6.224H206.026C203.812 6.224 203.254 7.646 203.254 8.96C203.254 10.238 203.812 11.732 206.026 11.732ZM210.22 6.224H209.878V11.732H210.22C212.434 11.732 212.992 10.238 212.992 8.96C212.992 7.664 212.434 6.224 210.22 6.224ZM228.199 9.014V8.96C228.199 7.88 227.695 6.422 225.499 6.422H225.319C223.213 6.422 222.547 7.808 222.547 8.96V9.014C222.547 10.112 223.213 11.552 225.319 11.552H225.499C227.695 11.552 228.199 10.04 228.199 9.014ZM219.055 17.438V4.01H222.529V5.288C222.961 4.82 224.275 3.812 226.543 3.812H226.777C230.593 3.812 231.835 6.422 231.835 8.798V9.104C231.835 11.282 230.557 14.198 226.759 14.198H226.507C224.221 14.198 222.997 13.154 222.565 12.722V17.438H219.055ZM240.54 14.27H239.982C234.6 14.27 233.772 10.994 233.772 9.176V8.924C233.772 7.124 234.6 3.74 239.964 3.74H240.558C246.102 3.74 246.75 7.142 246.75 8.906V9.194C246.75 10.994 246.102 14.27 240.54 14.27ZM240.162 11.642H240.36C242.574 11.642 243.132 10.058 243.132 8.96C243.132 7.826 242.574 6.314 240.36 6.314H240.162C237.858 6.314 237.39 7.826 237.39 8.96C237.39 10.058 237.858 11.642 240.162 11.642ZM257.409 14H249.165V4.01H257.049C259.335 4.01 260.775 4.82 260.775 6.404V6.494C260.775 7.736 259.983 8.474 258.777 8.672C260.001 8.816 261.099 9.68 261.099 11.12V11.192C261.099 13.01 259.911 14 257.409 14ZM252.675 7.988H255.897C256.743 7.988 257.175 7.664 257.175 7.034V6.944C257.175 6.368 256.779 6.026 255.897 6.026H252.675V7.988ZM252.675 11.984H256.041C256.977 11.984 257.499 11.678 257.499 10.976V10.832C257.499 10.202 257.067 9.806 256.041 9.806H252.675V11.984ZM269.808 14.27H269.25C263.868 14.27 263.04 10.994 263.04 9.176V8.924C263.04 7.124 263.868 3.74 269.232 3.74H269.826C275.37 3.74 276.018 7.142 276.018 8.906V9.194C276.018 10.994 275.37 14.27 269.808 14.27ZM269.43 11.642H269.628C271.842 11.642 272.4 10.058 272.4 8.96C272.4 7.826 271.842 6.314 269.628 6.314H269.43C267.126 6.314 266.658 7.826 266.658 8.96C266.658 10.058 267.126 11.642 269.43 11.642ZM286.857 7.952L282.033 14H278.433V4.01H281.943V10.058L286.767 4.01H290.367V14H286.857V7.952ZM284.625 2.984H284.085C281.223 2.984 280.719 1.04 280.719 0.104V0.0499994H283.365C283.365 0.284 283.473 1.004 284.373 1.004C285.219 1.004 285.345 0.284 285.345 0.0499994H287.955V0.104C287.955 1.04 287.235 2.984 284.625 2.984ZM301.729 7.268V14H298.489V4.01H303.439L306.409 10.382L309.379 4.01H314.149V14H310.639V7.268L307.525 14H304.843L301.729 7.268ZM322.76 6.08C320.942 6.08 320.258 6.818 320.078 7.862H325.37C325.37 7.124 325.01 6.08 322.76 6.08ZM325.442 10.886H329.096C329.096 11.714 328.448 14.234 323.282 14.234H322.616C317.684 14.234 316.46 11.534 316.46 9.14V8.888C316.46 6.638 317.576 3.794 322.31 3.794H323.102C328.214 3.794 329.132 6.638 329.132 9.428V9.752H320.042C320.186 10.904 320.924 11.84 323.066 11.84C325.1 11.84 325.352 11.048 325.442 10.886ZM330.532 16.124V11.336H331.738C332.422 9.968 332.53 6.998 332.62 4.01H343.186V11.336H344.986V16.124H341.656V14H333.862V16.124H330.532ZM335.05 11.336H339.676V6.674H335.77C335.716 7.97 335.536 9.95 335.05 11.336ZM355.499 7.952L350.675 14H347.075V4.01H350.585V10.058L355.409 4.01H359.009V14H355.499V7.952ZM375.285 11.336V16.124H371.955V14H361.929V4.01H365.439V11.336H369.975V4.01H373.485V11.336H375.285ZM385.804 7.952L380.98 14H377.38V4.01H380.89V10.058L385.714 4.01H389.314V14H385.804V7.952ZM395.743 14H392.233V4.01H395.743V7.646H400.639V4.01H404.149V14H400.639V10.31H395.743V14ZM407.069 14V4.01H410.579V6.872H413.315C416.735 6.872 418.067 8.384 418.067 10.292V10.508C418.067 12.596 416.735 14 413.315 14H407.069ZM410.579 11.624H412.883C413.603 11.624 414.467 11.408 414.467 10.436V10.382C414.467 9.482 413.603 9.248 412.883 9.248H410.579V11.624ZM422.855 4.01V14H419.345V4.01H422.855Z" fill="#C1A875" style="mix-blend-mode:color"/>
<defs>
<linearGradient id="paint0_linear_10_604" x1="2" y1="6" x2="425" y2="6.00004" gradientUnits="userSpaceOnUse">
<stop stop-color="#576167"/>
<stop offset="0.191294" stop-color="#9EA1A2"/>
<stop offset="0.396166" stop-color="#848989"/>
<stop offset="0.62055" stop-color="#576167"/>
<stop offset="0.830299" stop-color="#757A7C"/>
<stop offset="1" stop-color="#576167"/>
</linearGradient>
<radialGradient id="paint1_radial_10_604" cx="0" cy="0" r="1" gradientUnits="userSpaceOnUse" gradientTransform="translate(227.269 -3.20225) rotate(89.9999) scale(17.8315 320.013)">
<stop stop-color="white"/>
<stop offset="1" stop-color="white" stop-opacity="0"/>
</radialGradient>
<radialGradient id="paint2_radial_10_604" cx="0" cy="0" r="1" gradientUnits="userSpaceOnUse" gradientTransform="translate(251.195 23.6629) rotate(-88.4819) scale(25.5595 457.451)">
<stop stop-color="white"/>
<stop offset="1" stop-color="white" stop-opacity="0"/>
</radialGradient>
</defs>
</svg>
