<svg width="423" height="18" viewBox="0 0 423 18" fill="none" xmlns="http://www.w3.org/2000/svg">
<path d="M0.821248 11.084V8.726L8.05725 0.518H12.9712V8.204H15.7432V11.084H12.9712V14H9.29925V11.084H0.821248ZM9.29925 8.204V3.056L4.74525 8.204H9.29925ZM21.8078 10.508V14H17.6138V10.508H21.8078ZM30.656 14V0.608H41.816V3.56H34.364V14H30.656ZM48.19 6.08C46.372 6.08 45.688 6.818 45.508 7.862H50.8C50.8 7.124 50.44 6.08 48.19 6.08ZM50.872 10.886H54.526C54.526 11.714 53.878 14.234 48.712 14.234H48.046C43.114 14.234 41.89 11.534 41.89 9.14V8.888C41.89 6.638 43.006 3.794 47.74 3.794H48.532C53.644 3.794 54.562 6.638 54.562 9.428V9.752H45.472C45.616 10.904 46.354 11.84 48.496 11.84C50.53 11.84 50.782 11.048 50.872 10.886ZM66.1458 9.014V8.96C66.1458 7.88 65.6418 6.422 63.4458 6.422H63.2658C61.1598 6.422 60.4938 7.808 60.4938 8.96V9.014C60.4938 10.112 61.1598 11.552 63.2658 11.552H63.4458C65.6418 11.552 66.1458 10.04 66.1458 9.014ZM57.0018 17.438V4.01H60.4758V5.288C60.9078 4.82 62.2218 3.812 64.4898 3.812H64.7238C68.5398 3.812 69.7818 6.422 69.7818 8.798V9.104C69.7818 11.282 68.5038 14.198 64.7058 14.198H64.4538C62.1678 14.198 60.9438 13.154 60.5118 12.722V17.438H57.0018ZM78.4876 14.27H77.9296C72.5476 14.27 71.7196 10.994 71.7196 9.176V8.924C71.7196 7.124 72.5476 3.74 77.9116 3.74H78.5056C84.0496 3.74 84.6976 7.142 84.6976 8.906V9.194C84.6976 10.994 84.0496 14.27 78.4876 14.27ZM78.1096 11.642H78.3076C80.5216 11.642 81.0796 10.058 81.0796 8.96C81.0796 7.826 80.5216 6.314 78.3076 6.314H78.1096C75.8056 6.314 75.3376 7.826 75.3376 8.96C75.3376 10.058 75.8056 11.642 78.1096 11.642ZM95.5363 7.952L90.7123 14H87.1123V4.01H90.6223V10.058L95.4463 4.01H99.0463V14H95.5363V7.952ZM93.3043 2.984H92.7643C89.9023 2.984 89.3983 1.04 89.3983 0.104V0.0499994H92.0443C92.0443 0.284 92.1523 1.004 93.0523 1.004C93.8983 1.004 94.0243 0.284 94.0243 0.0499994H96.6343V0.104C96.6343 1.04 95.9143 2.984 93.3043 2.984ZM114.603 14L110.715 9.374V14H107.205V4.01H110.715V8.006L114.279 4.01H118.329L114.153 8.492L118.779 14H114.603ZM128.244 14V6.674H124.284C124.284 9.356 124.194 10.85 123.852 11.768C123.474 12.776 122.97 14 120.324 14H119.226V11.39H119.442C120.072 11.39 120.54 11.174 120.738 10.256C120.882 9.482 120.936 8.636 120.936 4.01H131.754V14H128.244ZM143.085 7.952L138.261 14H134.661V4.01H138.171V10.058L142.995 4.01H146.595V14H143.085V7.952ZM152.755 7.268V14H149.515V4.01H154.465L157.435 10.382L160.405 4.01H165.175V14H161.665V7.268L158.551 14H155.869L152.755 7.268ZM172.688 12.002C174.74 12.002 175.442 10.706 175.442 9.95V9.176C175.136 9.302 174.254 9.482 173.246 9.644C171.554 9.932 171.014 10.166 171.014 10.868V10.904C171.014 11.534 171.464 12.002 172.688 12.002ZM175.55 12.614C175.118 13.136 174.038 14.198 171.698 14.198H171.41C168.62 14.198 167.468 12.686 167.468 11.03V10.958C167.468 9.23 168.566 8.168 171.95 7.88L174.686 7.646C175.244 7.592 175.442 7.412 175.442 6.998C175.442 6.53 175.298 6.026 173.354 6.026C171.518 6.026 171.338 6.746 171.338 7.124H167.738V7.088C167.738 6.098 168.134 3.776 173.048 3.776H173.606C178.556 3.776 178.862 5.81 178.862 7.142V10.436C178.862 11.066 178.988 11.318 179.69 11.318H180.068V14H177.224C176.18 14 175.694 13.262 175.55 12.614ZM184.756 14V6.674H180.886V4.01H192.136V6.674H188.266V14H184.756ZM202.464 7.952L197.64 14H194.04V4.01H197.55V10.058L202.374 4.01H205.974V14H202.464V7.952ZM216.31 4.01H219.82V14H216.31V10.562C215.536 10.652 214.636 10.742 213.7 10.742C209.74 10.742 208.246 9.626 208.246 6.458V4.01H211.756V5.81C211.756 7.682 212.386 8.006 214.24 8.006C214.942 8.006 215.752 7.952 216.31 7.88V4.01ZM228.542 6.08C226.724 6.08 226.04 6.818 225.86 7.862H231.152C231.152 7.124 230.792 6.08 228.542 6.08ZM231.224 10.886H234.878C234.878 11.714 234.23 14.234 229.064 14.234H228.398C223.466 14.234 222.242 11.534 222.242 9.14V8.888C222.242 6.638 223.358 3.794 228.092 3.794H228.884C233.996 3.794 234.914 6.638 234.914 9.428V9.752H225.824C225.968 10.904 226.706 11.84 228.848 11.84C230.882 11.84 231.134 11.048 231.224 10.886ZM245.669 10.076H249.341C249.341 11.588 248.441 14.27 243.635 14.27H242.753C237.767 14.27 236.831 11.03 236.831 9.14V8.888C236.831 6.998 237.713 3.74 242.735 3.74H243.563C248.387 3.74 249.341 6.368 249.341 7.808V7.826H245.669C245.615 7.538 245.273 6.296 243.203 6.296H243.023C240.953 6.296 240.467 7.718 240.467 8.924V8.942C240.467 10.184 241.061 11.66 243.095 11.66H243.275C245.363 11.66 245.669 10.31 245.669 10.076ZM259.165 14L255.277 9.374V14H251.767V4.01H255.277V8.006L258.841 4.01H262.891L258.715 8.492L263.341 14H259.165ZM270.599 14.27H270.041C264.659 14.27 263.831 10.994 263.831 9.176V8.924C263.831 7.124 264.659 3.74 270.023 3.74H270.617C276.161 3.74 276.809 7.142 276.809 8.906V9.194C276.809 10.994 276.161 14.27 270.599 14.27ZM270.221 11.642H270.419C272.633 11.642 273.191 10.058 273.191 8.96C273.191 7.826 272.633 6.314 270.419 6.314H270.221C267.917 6.314 267.449 7.826 267.449 8.96C267.449 10.058 267.917 11.642 270.221 11.642ZM279.224 14V4.01H287.936V6.674H282.734V14H279.224ZM296.105 14.27H295.547C290.165 14.27 289.337 10.994 289.337 9.176V8.924C289.337 7.124 290.165 3.74 295.529 3.74H296.123C301.667 3.74 302.315 7.142 302.315 8.906V9.194C302.315 10.994 301.667 14.27 296.105 14.27ZM295.727 11.642H295.925C298.139 11.642 298.697 10.058 298.697 8.96C298.697 7.826 298.139 6.314 295.925 6.314H295.727C293.423 6.314 292.955 7.826 292.955 8.96C292.955 10.058 293.423 11.642 295.727 11.642ZM309.105 16.124V11.336H310.311C310.995 9.968 311.103 6.998 311.193 4.01H321.759V11.336H323.559V16.124H320.229V14H312.435V16.124H309.105ZM313.623 11.336H318.249V6.674H314.343C314.289 7.97 314.109 9.95 313.623 11.336ZM331.286 6.08C329.468 6.08 328.784 6.818 328.604 7.862H333.896C333.896 7.124 333.536 6.08 331.286 6.08ZM333.968 10.886H337.622C337.622 11.714 336.974 14.234 331.808 14.234H331.142C326.21 14.234 324.986 11.534 324.986 9.14V8.888C324.986 6.638 326.102 3.794 330.836 3.794H331.628C336.74 3.794 337.658 6.638 337.658 9.428V9.752H328.568C328.712 10.904 329.45 11.84 331.592 11.84C333.626 11.84 333.878 11.048 333.968 10.886ZM348.486 7.952L343.662 14H340.062V4.01H343.572V10.058L348.396 4.01H351.996V14H348.486V7.952ZM346.254 2.984H345.714C342.852 2.984 342.348 1.04 342.348 0.104V0.0499994H344.994C344.994 0.284 345.102 1.004 346.002 1.004C346.848 1.004 346.974 0.284 346.974 0.0499994H349.584V0.104C349.584 1.04 348.864 2.984 346.254 2.984ZM363.267 10.076H366.939C366.939 11.588 366.039 14.27 361.233 14.27H360.351C355.365 14.27 354.429 11.03 354.429 9.14V8.888C354.429 6.998 355.311 3.74 360.333 3.74H361.161C365.985 3.74 366.939 6.368 366.939 7.808V7.826H363.267C363.213 7.538 362.871 6.296 360.801 6.296H360.621C358.551 6.296 358.065 7.718 358.065 8.924V8.942C358.065 10.184 358.659 11.66 360.693 11.66H360.873C362.961 11.66 363.267 10.31 363.267 10.076ZM372.191 14V6.674H368.321V4.01H379.571V6.674H375.701V14H372.191ZM389.72 14H381.476V4.01H389.36C391.646 4.01 393.086 4.82 393.086 6.404V6.494C393.086 7.736 392.294 8.474 391.088 8.672C392.312 8.816 393.41 9.68 393.41 11.12V11.192C393.41 13.01 392.222 14 389.72 14ZM384.986 7.988H388.208C389.054 7.988 389.486 7.664 389.486 7.034V6.944C389.486 6.368 389.09 6.026 388.208 6.026H384.986V7.988ZM384.986 11.984H388.352C389.288 11.984 389.81 11.678 389.81 10.976V10.832C389.81 10.202 389.378 9.806 388.352 9.806H384.986V11.984ZM404.278 7.952L399.454 14H395.854V4.01H399.364V10.058L404.188 4.01H407.788V14H404.278V7.952ZM419.114 10.652H416.756L413.84 14H409.88L413.138 10.274C411.41 9.932 410.42 8.942 410.42 7.43V7.214C410.42 5.396 411.896 4.01 414.398 4.01H422.624V14H419.114V10.652ZM419.114 6.314H415.352C414.578 6.314 413.93 6.494 413.93 7.286V7.358C413.93 8.132 414.596 8.366 415.37 8.366H419.114V6.314Z" fill="url(#paint0_linear_10_607)"/>
<path d="M0.821248 11.084V8.726L8.05725 0.518H12.9712V8.204H15.7432V11.084H12.9712V14H9.29925V11.084H0.821248ZM9.29925 8.204V3.056L4.74525 8.204H9.29925ZM21.8078 10.508V14H17.6138V10.508H21.8078ZM30.656 14V0.608H41.816V3.56H34.364V14H30.656ZM48.19 6.08C46.372 6.08 45.688 6.818 45.508 7.862H50.8C50.8 7.124 50.44 6.08 48.19 6.08ZM50.872 10.886H54.526C54.526 11.714 53.878 14.234 48.712 14.234H48.046C43.114 14.234 41.89 11.534 41.89 9.14V8.888C41.89 6.638 43.006 3.794 47.74 3.794H48.532C53.644 3.794 54.562 6.638 54.562 9.428V9.752H45.472C45.616 10.904 46.354 11.84 48.496 11.84C50.53 11.84 50.782 11.048 50.872 10.886ZM66.1458 9.014V8.96C66.1458 7.88 65.6418 6.422 63.4458 6.422H63.2658C61.1598 6.422 60.4938 7.808 60.4938 8.96V9.014C60.4938 10.112 61.1598 11.552 63.2658 11.552H63.4458C65.6418 11.552 66.1458 10.04 66.1458 9.014ZM57.0018 17.438V4.01H60.4758V5.288C60.9078 4.82 62.2218 3.812 64.4898 3.812H64.7238C68.5398 3.812 69.7818 6.422 69.7818 8.798V9.104C69.7818 11.282 68.5038 14.198 64.7058 14.198H64.4538C62.1678 14.198 60.9438 13.154 60.5118 12.722V17.438H57.0018ZM78.4876 14.27H77.9296C72.5476 14.27 71.7196 10.994 71.7196 9.176V8.924C71.7196 7.124 72.5476 3.74 77.9116 3.74H78.5056C84.0496 3.74 84.6976 7.142 84.6976 8.906V9.194C84.6976 10.994 84.0496 14.27 78.4876 14.27ZM78.1096 11.642H78.3076C80.5216 11.642 81.0796 10.058 81.0796 8.96C81.0796 7.826 80.5216 6.314 78.3076 6.314H78.1096C75.8056 6.314 75.3376 7.826 75.3376 8.96C75.3376 10.058 75.8056 11.642 78.1096 11.642ZM95.5363 7.952L90.7123 14H87.1123V4.01H90.6223V10.058L95.4463 4.01H99.0463V14H95.5363V7.952ZM93.3043 2.984H92.7643C89.9023 2.984 89.3983 1.04 89.3983 0.104V0.0499994H92.0443C92.0443 0.284 92.1523 1.004 93.0523 1.004C93.8983 1.004 94.0243 0.284 94.0243 0.0499994H96.6343V0.104C96.6343 1.04 95.9143 2.984 93.3043 2.984ZM114.603 14L110.715 9.374V14H107.205V4.01H110.715V8.006L114.279 4.01H118.329L114.153 8.492L118.779 14H114.603ZM128.244 14V6.674H124.284C124.284 9.356 124.194 10.85 123.852 11.768C123.474 12.776 122.97 14 120.324 14H119.226V11.39H119.442C120.072 11.39 120.54 11.174 120.738 10.256C120.882 9.482 120.936 8.636 120.936 4.01H131.754V14H128.244ZM143.085 7.952L138.261 14H134.661V4.01H138.171V10.058L142.995 4.01H146.595V14H143.085V7.952ZM152.755 7.268V14H149.515V4.01H154.465L157.435 10.382L160.405 4.01H165.175V14H161.665V7.268L158.551 14H155.869L152.755 7.268ZM172.688 12.002C174.74 12.002 175.442 10.706 175.442 9.95V9.176C175.136 9.302 174.254 9.482 173.246 9.644C171.554 9.932 171.014 10.166 171.014 10.868V10.904C171.014 11.534 171.464 12.002 172.688 12.002ZM175.55 12.614C175.118 13.136 174.038 14.198 171.698 14.198H171.41C168.62 14.198 167.468 12.686 167.468 11.03V10.958C167.468 9.23 168.566 8.168 171.95 7.88L174.686 7.646C175.244 7.592 175.442 7.412 175.442 6.998C175.442 6.53 175.298 6.026 173.354 6.026C171.518 6.026 171.338 6.746 171.338 7.124H167.738V7.088C167.738 6.098 168.134 3.776 173.048 3.776H173.606C178.556 3.776 178.862 5.81 178.862 7.142V10.436C178.862 11.066 178.988 11.318 179.69 11.318H180.068V14H177.224C176.18 14 175.694 13.262 175.55 12.614ZM184.756 14V6.674H180.886V4.01H192.136V6.674H188.266V14H184.756ZM202.464 7.952L197.64 14H194.04V4.01H197.55V10.058L202.374 4.01H205.974V14H202.464V7.952ZM216.31 4.01H219.82V14H216.31V10.562C215.536 10.652 214.636 10.742 213.7 10.742C209.74 10.742 208.246 9.626 208.246 6.458V4.01H211.756V5.81C211.756 7.682 212.386 8.006 214.24 8.006C214.942 8.006 215.752 7.952 216.31 7.88V4.01ZM228.542 6.08C226.724 6.08 226.04 6.818 225.86 7.862H231.152C231.152 7.124 230.792 6.08 228.542 6.08ZM231.224 10.886H234.878C234.878 11.714 234.23 14.234 229.064 14.234H228.398C223.466 14.234 222.242 11.534 222.242 9.14V8.888C222.242 6.638 223.358 3.794 228.092 3.794H228.884C233.996 3.794 234.914 6.638 234.914 9.428V9.752H225.824C225.968 10.904 226.706 11.84 228.848 11.84C230.882 11.84 231.134 11.048 231.224 10.886ZM245.669 10.076H249.341C249.341 11.588 248.441 14.27 243.635 14.27H242.753C237.767 14.27 236.831 11.03 236.831 9.14V8.888C236.831 6.998 237.713 3.74 242.735 3.74H243.563C248.387 3.74 249.341 6.368 249.341 7.808V7.826H245.669C245.615 7.538 245.273 6.296 243.203 6.296H243.023C240.953 6.296 240.467 7.718 240.467 8.924V8.942C240.467 10.184 241.061 11.66 243.095 11.66H243.275C245.363 11.66 245.669 10.31 245.669 10.076ZM259.165 14L255.277 9.374V14H251.767V4.01H255.277V8.006L258.841 4.01H262.891L258.715 8.492L263.341 14H259.165ZM270.599 14.27H270.041C264.659 14.27 263.831 10.994 263.831 9.176V8.924C263.831 7.124 264.659 3.74 270.023 3.74H270.617C276.161 3.74 276.809 7.142 276.809 8.906V9.194C276.809 10.994 276.161 14.27 270.599 14.27ZM270.221 11.642H270.419C272.633 11.642 273.191 10.058 273.191 8.96C273.191 7.826 272.633 6.314 270.419 6.314H270.221C267.917 6.314 267.449 7.826 267.449 8.96C267.449 10.058 267.917 11.642 270.221 11.642ZM279.224 14V4.01H287.936V6.674H282.734V14H279.224ZM296.105 14.27H295.547C290.165 14.27 289.337 10.994 289.337 9.176V8.924C289.337 7.124 290.165 3.74 295.529 3.74H296.123C301.667 3.74 302.315 7.142 302.315 8.906V9.194C302.315 10.994 301.667 14.27 296.105 14.27ZM295.727 11.642H295.925C298.139 11.642 298.697 10.058 298.697 8.96C298.697 7.826 298.139 6.314 295.925 6.314H295.727C293.423 6.314 292.955 7.826 292.955 8.96C292.955 10.058 293.423 11.642 295.727 11.642ZM309.105 16.124V11.336H310.311C310.995 9.968 311.103 6.998 311.193 4.01H321.759V11.336H323.559V16.124H320.229V14H312.435V16.124H309.105ZM313.623 11.336H318.249V6.674H314.343C314.289 7.97 314.109 9.95 313.623 11.336ZM331.286 6.08C329.468 6.08 328.784 6.818 328.604 7.862H333.896C333.896 7.124 333.536 6.08 331.286 6.08ZM333.968 10.886H337.622C337.622 11.714 336.974 14.234 331.808 14.234H331.142C326.21 14.234 324.986 11.534 324.986 9.14V8.888C324.986 6.638 326.102 3.794 330.836 3.794H331.628C336.74 3.794 337.658 6.638 337.658 9.428V9.752H328.568C328.712 10.904 329.45 11.84 331.592 11.84C333.626 11.84 333.878 11.048 333.968 10.886ZM348.486 7.952L343.662 14H340.062V4.01H343.572V10.058L348.396 4.01H351.996V14H348.486V7.952ZM346.254 2.984H345.714C342.852 2.984 342.348 1.04 342.348 0.104V0.0499994H344.994C344.994 0.284 345.102 1.004 346.002 1.004C346.848 1.004 346.974 0.284 346.974 0.0499994H349.584V0.104C349.584 1.04 348.864 2.984 346.254 2.984ZM363.267 10.076H366.939C366.939 11.588 366.039 14.27 361.233 14.27H360.351C355.365 14.27 354.429 11.03 354.429 9.14V8.888C354.429 6.998 355.311 3.74 360.333 3.74H361.161C365.985 3.74 366.939 6.368 366.939 7.808V7.826H363.267C363.213 7.538 362.871 6.296 360.801 6.296H360.621C358.551 6.296 358.065 7.718 358.065 8.924V8.942C358.065 10.184 358.659 11.66 360.693 11.66H360.873C362.961 11.66 363.267 10.31 363.267 10.076ZM372.191 14V6.674H368.321V4.01H379.571V6.674H375.701V14H372.191ZM389.72 14H381.476V4.01H389.36C391.646 4.01 393.086 4.82 393.086 6.404V6.494C393.086 7.736 392.294 8.474 391.088 8.672C392.312 8.816 393.41 9.68 393.41 11.12V11.192C393.41 13.01 392.222 14 389.72 14ZM384.986 7.988H388.208C389.054 7.988 389.486 7.664 389.486 7.034V6.944C389.486 6.368 389.09 6.026 388.208 6.026H384.986V7.988ZM384.986 11.984H388.352C389.288 11.984 389.81 11.678 389.81 10.976V10.832C389.81 10.202 389.378 9.806 388.352 9.806H384.986V11.984ZM404.278 7.952L399.454 14H395.854V4.01H399.364V10.058L404.188 4.01H407.788V14H404.278V7.952ZM419.114 10.652H416.756L413.84 14H409.88L413.138 10.274C411.41 9.932 410.42 8.942 410.42 7.43V7.214C410.42 5.396 411.896 4.01 414.398 4.01H422.624V14H419.114V10.652ZM419.114 6.314H415.352C414.578 6.314 413.93 6.494 413.93 7.286V7.358C413.93 8.132 414.596 8.366 415.37 8.366H419.114V6.314Z" fill="url(#paint1_radial_10_607)" style="mix-blend-mode:overlay"/>
<path d="M0.821248 11.084V8.726L8.05725 0.518H12.9712V8.204H15.7432V11.084H12.9712V14H9.29925V11.084H0.821248ZM9.29925 8.204V3.056L4.74525 8.204H9.29925ZM21.8078 10.508V14H17.6138V10.508H21.8078ZM30.656 14V0.608H41.816V3.56H34.364V14H30.656ZM48.19 6.08C46.372 6.08 45.688 6.818 45.508 7.862H50.8C50.8 7.124 50.44 6.08 48.19 6.08ZM50.872 10.886H54.526C54.526 11.714 53.878 14.234 48.712 14.234H48.046C43.114 14.234 41.89 11.534 41.89 9.14V8.888C41.89 6.638 43.006 3.794 47.74 3.794H48.532C53.644 3.794 54.562 6.638 54.562 9.428V9.752H45.472C45.616 10.904 46.354 11.84 48.496 11.84C50.53 11.84 50.782 11.048 50.872 10.886ZM66.1458 9.014V8.96C66.1458 7.88 65.6418 6.422 63.4458 6.422H63.2658C61.1598 6.422 60.4938 7.808 60.4938 8.96V9.014C60.4938 10.112 61.1598 11.552 63.2658 11.552H63.4458C65.6418 11.552 66.1458 10.04 66.1458 9.014ZM57.0018 17.438V4.01H60.4758V5.288C60.9078 4.82 62.2218 3.812 64.4898 3.812H64.7238C68.5398 3.812 69.7818 6.422 69.7818 8.798V9.104C69.7818 11.282 68.5038 14.198 64.7058 14.198H64.4538C62.1678 14.198 60.9438 13.154 60.5118 12.722V17.438H57.0018ZM78.4876 14.27H77.9296C72.5476 14.27 71.7196 10.994 71.7196 9.176V8.924C71.7196 7.124 72.5476 3.74 77.9116 3.74H78.5056C84.0496 3.74 84.6976 7.142 84.6976 8.906V9.194C84.6976 10.994 84.0496 14.27 78.4876 14.27ZM78.1096 11.642H78.3076C80.5216 11.642 81.0796 10.058 81.0796 8.96C81.0796 7.826 80.5216 6.314 78.3076 6.314H78.1096C75.8056 6.314 75.3376 7.826 75.3376 8.96C75.3376 10.058 75.8056 11.642 78.1096 11.642ZM95.5363 7.952L90.7123 14H87.1123V4.01H90.6223V10.058L95.4463 4.01H99.0463V14H95.5363V7.952ZM93.3043 2.984H92.7643C89.9023 2.984 89.3983 1.04 89.3983 0.104V0.0499994H92.0443C92.0443 0.284 92.1523 1.004 93.0523 1.004C93.8983 1.004 94.0243 0.284 94.0243 0.0499994H96.6343V0.104C96.6343 1.04 95.9143 2.984 93.3043 2.984ZM114.603 14L110.715 9.374V14H107.205V4.01H110.715V8.006L114.279 4.01H118.329L114.153 8.492L118.779 14H114.603ZM128.244 14V6.674H124.284C124.284 9.356 124.194 10.85 123.852 11.768C123.474 12.776 122.97 14 120.324 14H119.226V11.39H119.442C120.072 11.39 120.54 11.174 120.738 10.256C120.882 9.482 120.936 8.636 120.936 4.01H131.754V14H128.244ZM143.085 7.952L138.261 14H134.661V4.01H138.171V10.058L142.995 4.01H146.595V14H143.085V7.952ZM152.755 7.268V14H149.515V4.01H154.465L157.435 10.382L160.405 4.01H165.175V14H161.665V7.268L158.551 14H155.869L152.755 7.268ZM172.688 12.002C174.74 12.002 175.442 10.706 175.442 9.95V9.176C175.136 9.302 174.254 9.482 173.246 9.644C171.554 9.932 171.014 10.166 171.014 10.868V10.904C171.014 11.534 171.464 12.002 172.688 12.002ZM175.55 12.614C175.118 13.136 174.038 14.198 171.698 14.198H171.41C168.62 14.198 167.468 12.686 167.468 11.03V10.958C167.468 9.23 168.566 8.168 171.95 7.88L174.686 7.646C175.244 7.592 175.442 7.412 175.442 6.998C175.442 6.53 175.298 6.026 173.354 6.026C171.518 6.026 171.338 6.746 171.338 7.124H167.738V7.088C167.738 6.098 168.134 3.776 173.048 3.776H173.606C178.556 3.776 178.862 5.81 178.862 7.142V10.436C178.862 11.066 178.988 11.318 179.69 11.318H180.068V14H177.224C176.18 14 175.694 13.262 175.55 12.614ZM184.756 14V6.674H180.886V4.01H192.136V6.674H188.266V14H184.756ZM202.464 7.952L197.64 14H194.04V4.01H197.55V10.058L202.374 4.01H205.974V14H202.464V7.952ZM216.31 4.01H219.82V14H216.31V10.562C215.536 10.652 214.636 10.742 213.7 10.742C209.74 10.742 208.246 9.626 208.246 6.458V4.01H211.756V5.81C211.756 7.682 212.386 8.006 214.24 8.006C214.942 8.006 215.752 7.952 216.31 7.88V4.01ZM228.542 6.08C226.724 6.08 226.04 6.818 225.86 7.862H231.152C231.152 7.124 230.792 6.08 228.542 6.08ZM231.224 10.886H234.878C234.878 11.714 234.23 14.234 229.064 14.234H228.398C223.466 14.234 222.242 11.534 222.242 9.14V8.888C222.242 6.638 223.358 3.794 228.092 3.794H228.884C233.996 3.794 234.914 6.638 234.914 9.428V9.752H225.824C225.968 10.904 226.706 11.84 228.848 11.84C230.882 11.84 231.134 11.048 231.224 10.886ZM245.669 10.076H249.341C249.341 11.588 248.441 14.27 243.635 14.27H242.753C237.767 14.27 236.831 11.03 236.831 9.14V8.888C236.831 6.998 237.713 3.74 242.735 3.74H243.563C248.387 3.74 249.341 6.368 249.341 7.808V7.826H245.669C245.615 7.538 245.273 6.296 243.203 6.296H243.023C240.953 6.296 240.467 7.718 240.467 8.924V8.942C240.467 10.184 241.061 11.66 243.095 11.66H243.275C245.363 11.66 245.669 10.31 245.669 10.076ZM259.165 14L255.277 9.374V14H251.767V4.01H255.277V8.006L258.841 4.01H262.891L258.715 8.492L263.341 14H259.165ZM270.599 14.27H270.041C264.659 14.27 263.831 10.994 263.831 9.176V8.924C263.831 7.124 264.659 3.74 270.023 3.74H270.617C276.161 3.74 276.809 7.142 276.809 8.906V9.194C276.809 10.994 276.161 14.27 270.599 14.27ZM270.221 11.642H270.419C272.633 11.642 273.191 10.058 273.191 8.96C273.191 7.826 272.633 6.314 270.419 6.314H270.221C267.917 6.314 267.449 7.826 267.449 8.96C267.449 10.058 267.917 11.642 270.221 11.642ZM279.224 14V4.01H287.936V6.674H282.734V14H279.224ZM296.105 14.27H295.547C290.165 14.27 289.337 10.994 289.337 9.176V8.924C289.337 7.124 290.165 3.74 295.529 3.74H296.123C301.667 3.74 302.315 7.142 302.315 8.906V9.194C302.315 10.994 301.667 14.27 296.105 14.27ZM295.727 11.642H295.925C298.139 11.642 298.697 10.058 298.697 8.96C298.697 7.826 298.139 6.314 295.925 6.314H295.727C293.423 6.314 292.955 7.826 292.955 8.96C292.955 10.058 293.423 11.642 295.727 11.642ZM309.105 16.124V11.336H310.311C310.995 9.968 311.103 6.998 311.193 4.01H321.759V11.336H323.559V16.124H320.229V14H312.435V16.124H309.105ZM313.623 11.336H318.249V6.674H314.343C314.289 7.97 314.109 9.95 313.623 11.336ZM331.286 6.08C329.468 6.08 328.784 6.818 328.604 7.862H333.896C333.896 7.124 333.536 6.08 331.286 6.08ZM333.968 10.886H337.622C337.622 11.714 336.974 14.234 331.808 14.234H331.142C326.21 14.234 324.986 11.534 324.986 9.14V8.888C324.986 6.638 326.102 3.794 330.836 3.794H331.628C336.74 3.794 337.658 6.638 337.658 9.428V9.752H328.568C328.712 10.904 329.45 11.84 331.592 11.84C333.626 11.84 333.878 11.048 333.968 10.886ZM348.486 7.952L343.662 14H340.062V4.01H343.572V10.058L348.396 4.01H351.996V14H348.486V7.952ZM346.254 2.984H345.714C342.852 2.984 342.348 1.04 342.348 0.104V0.0499994H344.994C344.994 0.284 345.102 1.004 346.002 1.004C346.848 1.004 346.974 0.284 346.974 0.0499994H349.584V0.104C349.584 1.04 348.864 2.984 346.254 2.984ZM363.267 10.076H366.939C366.939 11.588 366.039 14.27 361.233 14.27H360.351C355.365 14.27 354.429 11.03 354.429 9.14V8.888C354.429 6.998 355.311 3.74 360.333 3.74H361.161C365.985 3.74 366.939 6.368 366.939 7.808V7.826H363.267C363.213 7.538 362.871 6.296 360.801 6.296H360.621C358.551 6.296 358.065 7.718 358.065 8.924V8.942C358.065 10.184 358.659 11.66 360.693 11.66H360.873C362.961 11.66 363.267 10.31 363.267 10.076ZM372.191 14V6.674H368.321V4.01H379.571V6.674H375.701V14H372.191ZM389.72 14H381.476V4.01H389.36C391.646 4.01 393.086 4.82 393.086 6.404V6.494C393.086 7.736 392.294 8.474 391.088 8.672C392.312 8.816 393.41 9.68 393.41 11.12V11.192C393.41 13.01 392.222 14 389.72 14ZM384.986 7.988H388.208C389.054 7.988 389.486 7.664 389.486 7.034V6.944C389.486 6.368 389.09 6.026 388.208 6.026H384.986V7.988ZM384.986 11.984H388.352C389.288 11.984 389.81 11.678 389.81 10.976V10.832C389.81 10.202 389.378 9.806 388.352 9.806H384.986V11.984ZM404.278 7.952L399.454 14H395.854V4.01H399.364V10.058L404.188 4.01H407.788V14H404.278V7.952ZM419.114 10.652H416.756L413.84 14H409.88L413.138 10.274C411.41 9.932 410.42 8.942 410.42 7.43V7.214C410.42 5.396 411.896 4.01 414.398 4.01H422.624V14H419.114V10.652ZM419.114 6.314H415.352C414.578 6.314 413.93 6.494 413.93 7.286V7.358C413.93 8.132 414.596 8.366 415.37 8.366H419.114V6.314Z" fill="url(#paint2_radial_10_607)"/>
<path d="M0.821248 11.084V8.726L8.05725 0.518H12.9712V8.204H15.7432V11.084H12.9712V14H9.29925V11.084H0.821248ZM9.29925 8.204V3.056L4.74525 8.204H9.29925ZM21.8078 10.508V14H17.6138V10.508H21.8078ZM30.656 14V0.608H41.816V3.56H34.364V14H30.656ZM48.19 6.08C46.372 6.08 45.688 6.818 45.508 7.862H50.8C50.8 7.124 50.44 6.08 48.19 6.08ZM50.872 10.886H54.526C54.526 11.714 53.878 14.234 48.712 14.234H48.046C43.114 14.234 41.89 11.534 41.89 9.14V8.888C41.89 6.638 43.006 3.794 47.74 3.794H48.532C53.644 3.794 54.562 6.638 54.562 9.428V9.752H45.472C45.616 10.904 46.354 11.84 48.496 11.84C50.53 11.84 50.782 11.048 50.872 10.886ZM66.1458 9.014V8.96C66.1458 7.88 65.6418 6.422 63.4458 6.422H63.2658C61.1598 6.422 60.4938 7.808 60.4938 8.96V9.014C60.4938 10.112 61.1598 11.552 63.2658 11.552H63.4458C65.6418 11.552 66.1458 10.04 66.1458 9.014ZM57.0018 17.438V4.01H60.4758V5.288C60.9078 4.82 62.2218 3.812 64.4898 3.812H64.7238C68.5398 3.812 69.7818 6.422 69.7818 8.798V9.104C69.7818 11.282 68.5038 14.198 64.7058 14.198H64.4538C62.1678 14.198 60.9438 13.154 60.5118 12.722V17.438H57.0018ZM78.4876 14.27H77.9296C72.5476 14.27 71.7196 10.994 71.7196 9.176V8.924C71.7196 7.124 72.5476 3.74 77.9116 3.74H78.5056C84.0496 3.74 84.6976 7.142 84.6976 8.906V9.194C84.6976 10.994 84.0496 14.27 78.4876 14.27ZM78.1096 11.642H78.3076C80.5216 11.642 81.0796 10.058 81.0796 8.96C81.0796 7.826 80.5216 6.314 78.3076 6.314H78.1096C75.8056 6.314 75.3376 7.826 75.3376 8.96C75.3376 10.058 75.8056 11.642 78.1096 11.642ZM95.5363 7.952L90.7123 14H87.1123V4.01H90.6223V10.058L95.4463 4.01H99.0463V14H95.5363V7.952ZM93.3043 2.984H92.7643C89.9023 2.984 89.3983 1.04 89.3983 0.104V0.0499994H92.0443C92.0443 0.284 92.1523 1.004 93.0523 1.004C93.8983 1.004 94.0243 0.284 94.0243 0.0499994H96.6343V0.104C96.6343 1.04 95.9143 2.984 93.3043 2.984ZM114.603 14L110.715 9.374V14H107.205V4.01H110.715V8.006L114.279 4.01H118.329L114.153 8.492L118.779 14H114.603ZM128.244 14V6.674H124.284C124.284 9.356 124.194 10.85 123.852 11.768C123.474 12.776 122.97 14 120.324 14H119.226V11.39H119.442C120.072 11.39 120.54 11.174 120.738 10.256C120.882 9.482 120.936 8.636 120.936 4.01H131.754V14H128.244ZM143.085 7.952L138.261 14H134.661V4.01H138.171V10.058L142.995 4.01H146.595V14H143.085V7.952ZM152.755 7.268V14H149.515V4.01H154.465L157.435 10.382L160.405 4.01H165.175V14H161.665V7.268L158.551 14H155.869L152.755 7.268ZM172.688 12.002C174.74 12.002 175.442 10.706 175.442 9.95V9.176C175.136 9.302 174.254 9.482 173.246 9.644C171.554 9.932 171.014 10.166 171.014 10.868V10.904C171.014 11.534 171.464 12.002 172.688 12.002ZM175.55 12.614C175.118 13.136 174.038 14.198 171.698 14.198H171.41C168.62 14.198 167.468 12.686 167.468 11.03V10.958C167.468 9.23 168.566 8.168 171.95 7.88L174.686 7.646C175.244 7.592 175.442 7.412 175.442 6.998C175.442 6.53 175.298 6.026 173.354 6.026C171.518 6.026 171.338 6.746 171.338 7.124H167.738V7.088C167.738 6.098 168.134 3.776 173.048 3.776H173.606C178.556 3.776 178.862 5.81 178.862 7.142V10.436C178.862 11.066 178.988 11.318 179.69 11.318H180.068V14H177.224C176.18 14 175.694 13.262 175.55 12.614ZM184.756 14V6.674H180.886V4.01H192.136V6.674H188.266V14H184.756ZM202.464 7.952L197.64 14H194.04V4.01H197.55V10.058L202.374 4.01H205.974V14H202.464V7.952ZM216.31 4.01H219.82V14H216.31V10.562C215.536 10.652 214.636 10.742 213.7 10.742C209.74 10.742 208.246 9.626 208.246 6.458V4.01H211.756V5.81C211.756 7.682 212.386 8.006 214.24 8.006C214.942 8.006 215.752 7.952 216.31 7.88V4.01ZM228.542 6.08C226.724 6.08 226.04 6.818 225.86 7.862H231.152C231.152 7.124 230.792 6.08 228.542 6.08ZM231.224 10.886H234.878C234.878 11.714 234.23 14.234 229.064 14.234H228.398C223.466 14.234 222.242 11.534 222.242 9.14V8.888C222.242 6.638 223.358 3.794 228.092 3.794H228.884C233.996 3.794 234.914 6.638 234.914 9.428V9.752H225.824C225.968 10.904 226.706 11.84 228.848 11.84C230.882 11.84 231.134 11.048 231.224 10.886ZM245.669 10.076H249.341C249.341 11.588 248.441 14.27 243.635 14.27H242.753C237.767 14.27 236.831 11.03 236.831 9.14V8.888C236.831 6.998 237.713 3.74 242.735 3.74H243.563C248.387 3.74 249.341 6.368 249.341 7.808V7.826H245.669C245.615 7.538 245.273 6.296 243.203 6.296H243.023C240.953 6.296 240.467 7.718 240.467 8.924V8.942C240.467 10.184 241.061 11.66 243.095 11.66H243.275C245.363 11.66 245.669 10.31 245.669 10.076ZM259.165 14L255.277 9.374V14H251.767V4.01H255.277V8.006L258.841 4.01H262.891L258.715 8.492L263.341 14H259.165ZM270.599 14.27H270.041C264.659 14.27 263.831 10.994 263.831 9.176V8.924C263.831 7.124 264.659 3.74 270.023 3.74H270.617C276.161 3.74 276.809 7.142 276.809 8.906V9.194C276.809 10.994 276.161 14.27 270.599 14.27ZM270.221 11.642H270.419C272.633 11.642 273.191 10.058 273.191 8.96C273.191 7.826 272.633 6.314 270.419 6.314H270.221C267.917 6.314 267.449 7.826 267.449 8.96C267.449 10.058 267.917 11.642 270.221 11.642ZM279.224 14V4.01H287.936V6.674H282.734V14H279.224ZM296.105 14.27H295.547C290.165 14.27 289.337 10.994 289.337 9.176V8.924C289.337 7.124 290.165 3.74 295.529 3.74H296.123C301.667 3.74 302.315 7.142 302.315 8.906V9.194C302.315 10.994 301.667 14.27 296.105 14.27ZM295.727 11.642H295.925C298.139 11.642 298.697 10.058 298.697 8.96C298.697 7.826 298.139 6.314 295.925 6.314H295.727C293.423 6.314 292.955 7.826 292.955 8.96C292.955 10.058 293.423 11.642 295.727 11.642ZM309.105 16.124V11.336H310.311C310.995 9.968 311.103 6.998 311.193 4.01H321.759V11.336H323.559V16.124H320.229V14H312.435V16.124H309.105ZM313.623 11.336H318.249V6.674H314.343C314.289 7.97 314.109 9.95 313.623 11.336ZM331.286 6.08C329.468 6.08 328.784 6.818 328.604 7.862H333.896C333.896 7.124 333.536 6.08 331.286 6.08ZM333.968 10.886H337.622C337.622 11.714 336.974 14.234 331.808 14.234H331.142C326.21 14.234 324.986 11.534 324.986 9.14V8.888C324.986 6.638 326.102 3.794 330.836 3.794H331.628C336.74 3.794 337.658 6.638 337.658 9.428V9.752H328.568C328.712 10.904 329.45 11.84 331.592 11.84C333.626 11.84 333.878 11.048 333.968 10.886ZM348.486 7.952L343.662 14H340.062V4.01H343.572V10.058L348.396 4.01H351.996V14H348.486V7.952ZM346.254 2.984H345.714C342.852 2.984 342.348 1.04 342.348 0.104V0.0499994H344.994C344.994 0.284 345.102 1.004 346.002 1.004C346.848 1.004 346.974 0.284 346.974 0.0499994H349.584V0.104C349.584 1.04 348.864 2.984 346.254 2.984ZM363.267 10.076H366.939C366.939 11.588 366.039 14.27 361.233 14.27H360.351C355.365 14.27 354.429 11.03 354.429 9.14V8.888C354.429 6.998 355.311 3.74 360.333 3.74H361.161C365.985 3.74 366.939 6.368 366.939 7.808V7.826H363.267C363.213 7.538 362.871 6.296 360.801 6.296H360.621C358.551 6.296 358.065 7.718 358.065 8.924V8.942C358.065 10.184 358.659 11.66 360.693 11.66H360.873C362.961 11.66 363.267 10.31 363.267 10.076ZM372.191 14V6.674H368.321V4.01H379.571V6.674H375.701V14H372.191ZM389.72 14H381.476V4.01H389.36C391.646 4.01 393.086 4.82 393.086 6.404V6.494C393.086 7.736 392.294 8.474 391.088 8.672C392.312 8.816 393.41 9.68 393.41 11.12V11.192C393.41 13.01 392.222 14 389.72 14ZM384.986 7.988H388.208C389.054 7.988 389.486 7.664 389.486 7.034V6.944C389.486 6.368 389.09 6.026 388.208 6.026H384.986V7.988ZM384.986 11.984H388.352C389.288 11.984 389.81 11.678 389.81 10.976V10.832C389.81 10.202 389.378 9.806 388.352 9.806H384.986V11.984ZM404.278 7.952L399.454 14H395.854V4.01H399.364V10.058L404.188 4.01H407.788V14H404.278V7.952ZM419.114 10.652H416.756L413.84 14H409.88L413.138 10.274C411.41 9.932 410.42 8.942 410.42 7.43V7.214C410.42 5.396 411.896 4.01 414.398 4.01H422.624V14H419.114V10.652ZM419.114 6.314H415.352C414.578 6.314 413.93 6.494 413.93 7.286V7.358C413.93 8.132 414.596 8.366 415.37 8.366H419.114V6.314Z" fill="#C1A875" style="mix-blend-mode:color"/>
<defs>
<linearGradient id="paint0_linear_10_607" x1="2" y1="6" x2="425" y2="6.00004" gradientUnits="userSpaceOnUse">
<stop stop-color="#576167"/>
<stop offset="0.191294" stop-color="#9EA1A2"/>
<stop offset="0.396166" stop-color="#848989"/>
<stop offset="0.62055" stop-color="#576167"/>
<stop offset="0.830299" stop-color="#757A7C"/>
<stop offset="1" stop-color="#576167"/>
</linearGradient>
<radialGradient id="paint1_radial_10_607" cx="0" cy="0" r="1" gradientUnits="userSpaceOnUse" gradientTransform="translate(227.269 -3.20225) rotate(89.9999) scale(17.8315 320.013)">
<stop stop-color="white"/>
<stop offset="1" stop-color="white" stop-opacity="0"/>
</radialGradient>
<radialGradient id="paint2_radial_10_607" cx="0" cy="0" r="1" gradientUnits="userSpaceOnUse" gradientTransform="translate(251.195 23.6629) rotate(-88.4819) scale(25.5595 457.451)">
<stop stop-color="white"/>
<stop offset="1" stop-color="white" stop-opacity="0"/>
</radialGradient>
</defs>
</svg>
