<svg width="486" height="39" viewBox="0 0 486 39" fill="none" xmlns="http://www.w3.org/2000/svg">
<path d="M7.70525 14.198H6.98525C1.29725 14.198 0.271248 11.48 0.271248 10.256V10.004H4.17725C4.26725 10.382 4.80725 11.21 7.38125 11.21C9.81125 11.21 10.7112 10.562 10.7112 9.554V9.446C10.7112 8.384 9.84725 7.844 7.38125 7.844C4.84325 7.844 4.28525 8.474 4.14125 8.888H0.469248V0.608H13.4652V3.65H4.14125V6.134C4.28525 5.99 5.50925 5.09 8.19125 5.09H8.37125C13.1412 5.09 14.4012 7.142 14.4012 9.248V9.464C14.4012 11.642 12.9792 14.198 7.70525 14.198ZM20.8078 10.508V14H16.6138V10.508H20.8078ZM41.194 14V5L33.364 14H29.656V0.608H33.364V9.608L41.194 0.608H44.902V14H41.194ZM51.5305 14H48.0205V4.01H51.5305V7.646H56.4265V4.01H59.9365V14H56.4265V10.31H51.5305V14ZM66.3664 14H62.8564V4.01H66.3664V7.646H71.2624V4.01H74.7724V14H71.2624V10.31H66.3664V14ZM83.9564 14.27H83.3984C78.0164 14.27 77.1884 10.994 77.1884 9.176V8.924C77.1884 7.124 78.0164 3.74 83.3804 3.74H83.9744C89.5184 3.74 90.1664 7.142 90.1664 8.906V9.194C90.1664 10.994 89.5184 14.27 83.9564 14.27ZM83.5784 11.642H83.7764C85.9904 11.642 86.5484 10.058 86.5484 8.96C86.5484 7.826 85.9904 6.314 83.7764 6.314H83.5784C81.2744 6.314 80.8064 7.826 80.8064 8.96C80.8064 10.058 81.2744 11.642 83.5784 11.642ZM100.825 14H92.581V4.01H100.465C102.751 4.01 104.191 4.82 104.191 6.404V6.494C104.191 7.736 103.399 8.474 102.193 8.672C103.417 8.816 104.515 9.68 104.515 11.12V11.192C104.515 13.01 103.327 14 100.825 14ZM96.091 7.988H99.313C100.159 7.988 100.591 7.664 100.591 7.034V6.944C100.591 6.368 100.195 6.026 99.313 6.026H96.091V7.988ZM96.091 11.984H99.457C100.393 11.984 100.915 11.678 100.915 10.976V10.832C100.915 10.202 100.483 9.806 99.457 9.806H96.091V11.984ZM111.588 12.002C113.64 12.002 114.342 10.706 114.342 9.95V9.176C114.036 9.302 113.154 9.482 112.146 9.644C110.454 9.932 109.914 10.166 109.914 10.868V10.904C109.914 11.534 110.364 12.002 111.588 12.002ZM114.45 12.614C114.018 13.136 112.938 14.198 110.598 14.198H110.31C107.52 14.198 106.368 12.686 106.368 11.03V10.958C106.368 9.23 107.466 8.168 110.85 7.88L113.586 7.646C114.144 7.592 114.342 7.412 114.342 6.998C114.342 6.53 114.198 6.026 112.254 6.026C110.418 6.026 110.238 6.746 110.238 7.124H106.638V7.088C106.638 6.098 107.034 3.776 111.948 3.776H112.506C117.456 3.776 117.762 5.81 117.762 7.142V10.436C117.762 11.066 117.888 11.318 118.59 11.318H118.968V14H116.124C115.08 14 114.594 13.262 114.45 12.614ZM123.656 14V6.674H119.786V4.01H131.036V6.674H127.166V14H123.656ZM139.204 14.27H138.646C133.264 14.27 132.436 10.994 132.436 9.176V8.924C132.436 7.124 133.264 3.74 138.628 3.74H139.222C144.766 3.74 145.414 7.142 145.414 8.906V9.194C145.414 10.994 144.766 14.27 139.204 14.27ZM138.826 11.642H139.024C141.238 11.642 141.796 10.058 141.796 8.96C141.796 7.826 141.238 6.314 139.024 6.314H138.826C136.522 6.314 136.054 7.826 136.054 8.96C136.054 10.058 136.522 11.642 138.826 11.642ZM157.009 9.014V8.96C157.009 7.88 156.505 6.422 154.309 6.422H154.129C152.023 6.422 151.357 7.808 151.357 8.96V9.014C151.357 10.112 152.023 11.552 154.129 11.552H154.309C156.505 11.552 157.009 10.04 157.009 9.014ZM147.865 17.438V4.01H151.339V5.288C151.771 4.82 153.085 3.812 155.353 3.812H155.587C159.403 3.812 160.645 6.422 160.645 8.798V9.104C160.645 11.282 159.367 14.198 155.569 14.198H155.317C153.031 14.198 151.807 13.154 151.375 12.722V17.438H147.865ZM176.534 14H168.29V4.01H176.174C178.46 4.01 179.9 4.82 179.9 6.404V6.494C179.9 7.736 179.108 8.474 177.902 8.672C179.126 8.816 180.224 9.68 180.224 11.12V11.192C180.224 13.01 179.036 14 176.534 14ZM171.8 7.988H175.022C175.868 7.988 176.3 7.664 176.3 7.034V6.944C176.3 6.368 175.904 6.026 175.022 6.026H171.8V7.988ZM171.8 11.984H175.166C176.102 11.984 176.624 11.678 176.624 10.976V10.832C176.624 10.202 176.192 9.806 175.166 9.806H171.8V11.984ZM194.136 14.27H193.578C188.196 14.27 187.368 10.994 187.368 9.176V8.924C187.368 7.124 188.196 3.74 193.56 3.74H194.154C199.698 3.74 200.346 7.142 200.346 8.906V9.194C200.346 10.994 199.698 14.27 194.136 14.27ZM193.758 11.642H193.956C196.17 11.642 196.728 10.058 196.728 8.96C196.728 7.826 196.17 6.314 193.956 6.314H193.758C191.454 6.314 190.986 7.826 190.986 8.96C190.986 10.058 191.454 11.642 193.758 11.642ZM215.235 9.122V9.356C215.235 13.1 212.391 14.27 208.989 14.27H208.629C205.119 14.27 202.257 12.902 202.257 8.15V7.088C202.257 2.282 204.651 0.698 209.331 0.698H210.141C211.257 0.698 211.329 0.589999 211.365 0.373999H214.803C214.803 2.48 214.011 3.362 211.563 3.362H209.331C206.739 3.362 205.749 4.172 205.695 5.99C206.613 5.036 208.017 4.388 210.231 4.388H210.339C212.715 4.388 215.235 5.594 215.235 9.122ZM208.665 11.642H208.863C210.447 11.642 211.617 10.85 211.617 9.212C211.617 7.628 210.429 6.854 208.881 6.854H208.665C206.937 6.854 205.875 7.592 205.875 9.23C205.875 10.886 206.955 11.642 208.665 11.642ZM225.664 14V6.674H221.704C221.704 9.356 221.614 10.85 221.272 11.768C220.894 12.776 220.39 14 217.744 14H216.646V11.39H216.862C217.492 11.39 217.96 11.174 218.158 10.256C218.302 9.482 218.356 8.636 218.356 4.01H229.174V14H225.664ZM236.797 12.002C238.849 12.002 239.551 10.706 239.551 9.95V9.176C239.245 9.302 238.363 9.482 237.355 9.644C235.663 9.932 235.123 10.166 235.123 10.868V10.904C235.123 11.534 235.573 12.002 236.797 12.002ZM239.659 12.614C239.227 13.136 238.147 14.198 235.807 14.198H235.519C232.729 14.198 231.577 12.686 231.577 11.03V10.958C231.577 9.23 232.675 8.168 236.059 7.88L238.795 7.646C239.353 7.592 239.551 7.412 239.551 6.998C239.551 6.53 239.407 6.026 237.463 6.026C235.627 6.026 235.447 6.746 235.447 7.124H231.847V7.088C231.847 6.098 232.243 3.776 237.157 3.776H237.715C242.665 3.776 242.971 5.81 242.971 7.142V10.436C242.971 11.066 243.097 11.318 243.799 11.318H244.177V14H241.333C240.289 14 239.803 13.262 239.659 12.614ZM254.531 10.076H258.203C258.203 11.588 257.303 14.27 252.497 14.27H251.615C246.629 14.27 245.693 11.03 245.693 9.14V8.888C245.693 6.998 246.575 3.74 251.597 3.74H252.425C257.249 3.74 258.203 6.368 258.203 7.808V7.826H254.531C254.477 7.538 254.135 6.296 252.065 6.296H251.885C249.815 6.296 249.329 7.718 249.329 8.924V8.942C249.329 10.184 249.923 11.66 251.957 11.66H252.137C254.225 11.66 254.531 10.31 254.531 10.076ZM263.455 14V6.674H259.585V4.01H270.835V6.674H266.965V14H263.455ZM281.163 7.952L276.339 14H272.739V4.01H276.249V10.058L281.073 4.01H284.673V14H281.163V7.952ZM301.22 7.952L296.396 14H292.796V4.01H296.306V10.058L301.13 4.01H304.73V14H301.22V7.952ZM316.001 10.076H319.673C319.673 11.588 318.773 14.27 313.967 14.27H313.085C308.099 14.27 307.163 11.03 307.163 9.14V8.888C307.163 6.998 308.045 3.74 313.067 3.74H313.895C318.719 3.74 319.673 6.368 319.673 7.808V7.826H316.001C315.947 7.538 315.605 6.296 313.535 6.296H313.355C311.285 6.296 310.799 7.718 310.799 8.924V8.942C310.799 10.184 311.393 11.66 313.427 11.66H313.607C315.695 11.66 316.001 10.31 316.001 10.076ZM329.497 14L325.609 9.374V14H322.099V4.01H325.609V8.006L329.173 4.01H333.223L329.047 8.492L333.673 14H329.497ZM335.616 17.438V14.936H337.812C338.154 14.936 338.334 14.792 338.334 14.522V14.504C338.334 14.288 338.28 14.09 338.01 13.532L333.726 4.01H337.578L340.35 11.174L343.104 4.01H346.632L342.06 15.008C341.358 16.646 340.494 17.438 338.838 17.438H335.616ZM356.589 10.076H360.261C360.261 11.588 359.361 14.27 354.555 14.27H353.673C348.687 14.27 347.751 11.03 347.751 9.14V8.888C347.751 6.998 348.633 3.74 353.655 3.74H354.483C359.307 3.74 360.261 6.368 360.261 7.808V7.826H356.589C356.535 7.538 356.193 6.296 354.123 6.296H353.943C351.873 6.296 351.387 7.718 351.387 8.924V8.942C351.387 10.184 351.981 11.66 354.015 11.66H354.195C356.283 11.66 356.589 10.31 356.589 10.076ZM371.003 10.076H374.675C374.675 11.588 373.775 14.27 368.969 14.27H368.087C363.101 14.27 362.165 11.03 362.165 9.14V8.888C362.165 6.998 363.047 3.74 368.069 3.74H368.897C373.721 3.74 374.675 6.368 374.675 7.808V7.826H371.003C370.949 7.538 370.607 6.296 368.537 6.296H368.357C366.287 6.296 365.801 7.718 365.801 8.924V8.942C365.801 10.184 366.395 11.66 368.429 11.66H368.609C370.697 11.66 371.003 10.31 371.003 10.076ZM379.927 14V6.674H376.057V4.01H387.307V6.674H383.437V14H379.927ZM397.456 14H389.212V4.01H397.096C399.382 4.01 400.822 4.82 400.822 6.404V6.494C400.822 7.736 400.03 8.474 398.824 8.672C400.048 8.816 401.146 9.68 401.146 11.12V11.192C401.146 13.01 399.958 14 397.456 14ZM392.722 7.988H395.944C396.79 7.988 397.222 7.664 397.222 7.034V6.944C397.222 6.368 396.826 6.026 395.944 6.026H392.722V7.988ZM392.722 11.984H396.088C397.024 11.984 397.546 11.678 397.546 10.976V10.832C397.546 10.202 397.114 9.806 396.088 9.806H392.722V11.984ZM409.405 6.08C407.587 6.08 406.903 6.818 406.723 7.862H412.015C412.015 7.124 411.655 6.08 409.405 6.08ZM412.087 10.886H415.741C415.741 11.714 415.093 14.234 409.927 14.234H409.261C404.329 14.234 403.105 11.534 403.105 9.14V8.888C403.105 6.638 404.221 3.794 408.955 3.794H409.747C414.859 3.794 415.777 6.638 415.777 9.428V9.752H406.687C406.831 10.904 407.569 11.84 409.711 11.84C411.745 11.84 411.997 11.048 412.087 10.886ZM421.691 14H418.181V4.01H421.691V7.646H426.587V4.01H430.097V14H426.587V10.31H421.691V14ZM436.527 14H433.017V4.01H436.527V7.646H441.423V4.01H444.933V14H441.423V10.31H436.527V14ZM454.117 14.27H453.559C448.177 14.27 447.349 10.994 447.349 9.176V8.924C447.349 7.124 448.177 3.74 453.541 3.74H454.135C459.679 3.74 460.327 7.142 460.327 8.906V9.194C460.327 10.994 459.679 14.27 454.117 14.27ZM453.739 11.642H453.937C456.151 11.642 456.709 10.058 456.709 8.96C456.709 7.826 456.151 6.314 453.937 6.314H453.739C451.435 6.314 450.967 7.826 450.967 8.96C450.967 10.058 451.435 11.642 453.739 11.642ZM462.741 14V4.01H471.453V6.674H466.251V14H462.741ZM479.622 14.27H479.064C473.682 14.27 472.854 10.994 472.854 9.176V8.924C472.854 7.124 473.682 3.74 479.046 3.74H479.64C485.184 3.74 485.832 7.142 485.832 8.906V9.194C485.832 10.994 485.184 14.27 479.622 14.27ZM479.244 11.642H479.442C481.656 11.642 482.214 10.058 482.214 8.96C482.214 7.826 481.656 6.314 479.442 6.314H479.244C476.94 6.314 476.472 7.826 476.472 8.96C476.472 10.058 476.94 11.642 479.244 11.642ZM37.882 31.952L33.058 38H29.458V28.01H32.968V34.058L37.792 28.01H41.392V38H37.882V31.952ZM47.8215 38H44.3115V28.01H47.8215V31.646H52.7175V28.01H56.2275V38H52.7175V34.31H47.8215V38ZM62.0095 38V30.674H58.1395V28.01H69.3895V30.674H65.5195V38H62.0095ZM77.1079 30.08C75.2899 30.08 74.6059 30.818 74.4259 31.862H79.7179C79.7179 31.124 79.3579 30.08 77.1079 30.08ZM79.7899 34.886H83.4439C83.4439 35.714 82.7959 38.234 77.6299 38.234H76.9639C72.0319 38.234 70.8079 35.534 70.8079 33.14V32.888C70.8079 30.638 71.9239 27.794 76.6579 27.794H77.4499C82.5619 27.794 83.4799 30.638 83.4799 33.428V33.752H74.3899C74.5339 34.904 75.2719 35.84 77.4139 35.84C79.4479 35.84 79.6999 35.048 79.7899 34.886ZM93.898 38V30.674H89.938C89.938 33.356 89.848 34.85 89.506 35.768C89.128 36.776 88.624 38 85.978 38H84.88V35.39H85.096C85.726 35.39 86.194 35.174 86.392 34.256C86.536 33.482 86.59 32.636 86.59 28.01H97.408V38H93.898ZM108.505 38V30.674H104.545C104.545 33.356 104.455 34.85 104.113 35.768C103.735 36.776 103.231 38 100.585 38H99.4874V35.39H99.7034C100.333 35.39 100.801 35.174 100.999 34.256C101.143 33.482 101.197 32.636 101.197 28.01H112.015V38H108.505ZM120.737 30.08C118.919 30.08 118.235 30.818 118.055 31.862H123.347C123.347 31.124 122.987 30.08 120.737 30.08ZM123.419 34.886H127.073C127.073 35.714 126.425 38.234 121.259 38.234H120.593C115.661 38.234 114.437 35.534 114.437 33.14V32.888C114.437 30.638 115.553 27.794 120.287 27.794H121.079C126.191 27.794 127.109 30.638 127.109 33.428V33.752H118.019C118.163 34.904 118.901 35.84 121.043 35.84C123.077 35.84 123.329 35.048 123.419 34.886ZM136.947 38L133.059 33.374V38H129.549V28.01H133.059V32.006L136.623 28.01H140.673L136.497 32.492L141.123 38H136.947ZM145.435 38V30.674H141.565V28.01H152.815V30.674H148.945V38H145.435ZM159.436 36.002C161.488 36.002 162.19 34.706 162.19 33.95V33.176C161.884 33.302 161.002 33.482 159.994 33.644C158.302 33.932 157.762 34.166 157.762 34.868V34.904C157.762 35.534 158.212 36.002 159.436 36.002ZM162.298 36.614C161.866 37.136 160.786 38.198 158.446 38.198H158.158C155.368 38.198 154.216 36.686 154.216 35.03V34.958C154.216 33.23 155.314 32.168 158.698 31.88L161.434 31.646C161.992 31.592 162.19 31.412 162.19 30.998C162.19 30.53 162.046 30.026 160.102 30.026C158.266 30.026 158.086 30.746 158.086 31.124H154.486V31.088C154.486 30.098 154.882 27.776 159.796 27.776H160.354C165.304 27.776 165.61 29.81 165.61 31.142V34.436C165.61 35.066 165.736 35.318 166.438 35.318H166.816V38H163.972C162.928 38 162.442 37.262 162.298 36.614Z" fill="url(#paint0_linear_10_610)"/>
<path d="M7.70525 14.198H6.98525C1.29725 14.198 0.271248 11.48 0.271248 10.256V10.004H4.17725C4.26725 10.382 4.80725 11.21 7.38125 11.21C9.81125 11.21 10.7112 10.562 10.7112 9.554V9.446C10.7112 8.384 9.84725 7.844 7.38125 7.844C4.84325 7.844 4.28525 8.474 4.14125 8.888H0.469248V0.608H13.4652V3.65H4.14125V6.134C4.28525 5.99 5.50925 5.09 8.19125 5.09H8.37125C13.1412 5.09 14.4012 7.142 14.4012 9.248V9.464C14.4012 11.642 12.9792 14.198 7.70525 14.198ZM20.8078 10.508V14H16.6138V10.508H20.8078ZM41.194 14V5L33.364 14H29.656V0.608H33.364V9.608L41.194 0.608H44.902V14H41.194ZM51.5305 14H48.0205V4.01H51.5305V7.646H56.4265V4.01H59.9365V14H56.4265V10.31H51.5305V14ZM66.3664 14H62.8564V4.01H66.3664V7.646H71.2624V4.01H74.7724V14H71.2624V10.31H66.3664V14ZM83.9564 14.27H83.3984C78.0164 14.27 77.1884 10.994 77.1884 9.176V8.924C77.1884 7.124 78.0164 3.74 83.3804 3.74H83.9744C89.5184 3.74 90.1664 7.142 90.1664 8.906V9.194C90.1664 10.994 89.5184 14.27 83.9564 14.27ZM83.5784 11.642H83.7764C85.9904 11.642 86.5484 10.058 86.5484 8.96C86.5484 7.826 85.9904 6.314 83.7764 6.314H83.5784C81.2744 6.314 80.8064 7.826 80.8064 8.96C80.8064 10.058 81.2744 11.642 83.5784 11.642ZM100.825 14H92.581V4.01H100.465C102.751 4.01 104.191 4.82 104.191 6.404V6.494C104.191 7.736 103.399 8.474 102.193 8.672C103.417 8.816 104.515 9.68 104.515 11.12V11.192C104.515 13.01 103.327 14 100.825 14ZM96.091 7.988H99.313C100.159 7.988 100.591 7.664 100.591 7.034V6.944C100.591 6.368 100.195 6.026 99.313 6.026H96.091V7.988ZM96.091 11.984H99.457C100.393 11.984 100.915 11.678 100.915 10.976V10.832C100.915 10.202 100.483 9.806 99.457 9.806H96.091V11.984ZM111.588 12.002C113.64 12.002 114.342 10.706 114.342 9.95V9.176C114.036 9.302 113.154 9.482 112.146 9.644C110.454 9.932 109.914 10.166 109.914 10.868V10.904C109.914 11.534 110.364 12.002 111.588 12.002ZM114.45 12.614C114.018 13.136 112.938 14.198 110.598 14.198H110.31C107.52 14.198 106.368 12.686 106.368 11.03V10.958C106.368 9.23 107.466 8.168 110.85 7.88L113.586 7.646C114.144 7.592 114.342 7.412 114.342 6.998C114.342 6.53 114.198 6.026 112.254 6.026C110.418 6.026 110.238 6.746 110.238 7.124H106.638V7.088C106.638 6.098 107.034 3.776 111.948 3.776H112.506C117.456 3.776 117.762 5.81 117.762 7.142V10.436C117.762 11.066 117.888 11.318 118.59 11.318H118.968V14H116.124C115.08 14 114.594 13.262 114.45 12.614ZM123.656 14V6.674H119.786V4.01H131.036V6.674H127.166V14H123.656ZM139.204 14.27H138.646C133.264 14.27 132.436 10.994 132.436 9.176V8.924C132.436 7.124 133.264 3.74 138.628 3.74H139.222C144.766 3.74 145.414 7.142 145.414 8.906V9.194C145.414 10.994 144.766 14.27 139.204 14.27ZM138.826 11.642H139.024C141.238 11.642 141.796 10.058 141.796 8.96C141.796 7.826 141.238 6.314 139.024 6.314H138.826C136.522 6.314 136.054 7.826 136.054 8.96C136.054 10.058 136.522 11.642 138.826 11.642ZM157.009 9.014V8.96C157.009 7.88 156.505 6.422 154.309 6.422H154.129C152.023 6.422 151.357 7.808 151.357 8.96V9.014C151.357 10.112 152.023 11.552 154.129 11.552H154.309C156.505 11.552 157.009 10.04 157.009 9.014ZM147.865 17.438V4.01H151.339V5.288C151.771 4.82 153.085 3.812 155.353 3.812H155.587C159.403 3.812 160.645 6.422 160.645 8.798V9.104C160.645 11.282 159.367 14.198 155.569 14.198H155.317C153.031 14.198 151.807 13.154 151.375 12.722V17.438H147.865ZM176.534 14H168.29V4.01H176.174C178.46 4.01 179.9 4.82 179.9 6.404V6.494C179.9 7.736 179.108 8.474 177.902 8.672C179.126 8.816 180.224 9.68 180.224 11.12V11.192C180.224 13.01 179.036 14 176.534 14ZM171.8 7.988H175.022C175.868 7.988 176.3 7.664 176.3 7.034V6.944C176.3 6.368 175.904 6.026 175.022 6.026H171.8V7.988ZM171.8 11.984H175.166C176.102 11.984 176.624 11.678 176.624 10.976V10.832C176.624 10.202 176.192 9.806 175.166 9.806H171.8V11.984ZM194.136 14.27H193.578C188.196 14.27 187.368 10.994 187.368 9.176V8.924C187.368 7.124 188.196 3.74 193.56 3.74H194.154C199.698 3.74 200.346 7.142 200.346 8.906V9.194C200.346 10.994 199.698 14.27 194.136 14.27ZM193.758 11.642H193.956C196.17 11.642 196.728 10.058 196.728 8.96C196.728 7.826 196.17 6.314 193.956 6.314H193.758C191.454 6.314 190.986 7.826 190.986 8.96C190.986 10.058 191.454 11.642 193.758 11.642ZM215.235 9.122V9.356C215.235 13.1 212.391 14.27 208.989 14.27H208.629C205.119 14.27 202.257 12.902 202.257 8.15V7.088C202.257 2.282 204.651 0.698 209.331 0.698H210.141C211.257 0.698 211.329 0.589999 211.365 0.373999H214.803C214.803 2.48 214.011 3.362 211.563 3.362H209.331C206.739 3.362 205.749 4.172 205.695 5.99C206.613 5.036 208.017 4.388 210.231 4.388H210.339C212.715 4.388 215.235 5.594 215.235 9.122ZM208.665 11.642H208.863C210.447 11.642 211.617 10.85 211.617 9.212C211.617 7.628 210.429 6.854 208.881 6.854H208.665C206.937 6.854 205.875 7.592 205.875 9.23C205.875 10.886 206.955 11.642 208.665 11.642ZM225.664 14V6.674H221.704C221.704 9.356 221.614 10.85 221.272 11.768C220.894 12.776 220.39 14 217.744 14H216.646V11.39H216.862C217.492 11.39 217.96 11.174 218.158 10.256C218.302 9.482 218.356 8.636 218.356 4.01H229.174V14H225.664ZM236.797 12.002C238.849 12.002 239.551 10.706 239.551 9.95V9.176C239.245 9.302 238.363 9.482 237.355 9.644C235.663 9.932 235.123 10.166 235.123 10.868V10.904C235.123 11.534 235.573 12.002 236.797 12.002ZM239.659 12.614C239.227 13.136 238.147 14.198 235.807 14.198H235.519C232.729 14.198 231.577 12.686 231.577 11.03V10.958C231.577 9.23 232.675 8.168 236.059 7.88L238.795 7.646C239.353 7.592 239.551 7.412 239.551 6.998C239.551 6.53 239.407 6.026 237.463 6.026C235.627 6.026 235.447 6.746 235.447 7.124H231.847V7.088C231.847 6.098 232.243 3.776 237.157 3.776H237.715C242.665 3.776 242.971 5.81 242.971 7.142V10.436C242.971 11.066 243.097 11.318 243.799 11.318H244.177V14H241.333C240.289 14 239.803 13.262 239.659 12.614ZM254.531 10.076H258.203C258.203 11.588 257.303 14.27 252.497 14.27H251.615C246.629 14.27 245.693 11.03 245.693 9.14V8.888C245.693 6.998 246.575 3.74 251.597 3.74H252.425C257.249 3.74 258.203 6.368 258.203 7.808V7.826H254.531C254.477 7.538 254.135 6.296 252.065 6.296H251.885C249.815 6.296 249.329 7.718 249.329 8.924V8.942C249.329 10.184 249.923 11.66 251.957 11.66H252.137C254.225 11.66 254.531 10.31 254.531 10.076ZM263.455 14V6.674H259.585V4.01H270.835V6.674H266.965V14H263.455ZM281.163 7.952L276.339 14H272.739V4.01H276.249V10.058L281.073 4.01H284.673V14H281.163V7.952ZM301.22 7.952L296.396 14H292.796V4.01H296.306V10.058L301.13 4.01H304.73V14H301.22V7.952ZM316.001 10.076H319.673C319.673 11.588 318.773 14.27 313.967 14.27H313.085C308.099 14.27 307.163 11.03 307.163 9.14V8.888C307.163 6.998 308.045 3.74 313.067 3.74H313.895C318.719 3.74 319.673 6.368 319.673 7.808V7.826H316.001C315.947 7.538 315.605 6.296 313.535 6.296H313.355C311.285 6.296 310.799 7.718 310.799 8.924V8.942C310.799 10.184 311.393 11.66 313.427 11.66H313.607C315.695 11.66 316.001 10.31 316.001 10.076ZM329.497 14L325.609 9.374V14H322.099V4.01H325.609V8.006L329.173 4.01H333.223L329.047 8.492L333.673 14H329.497ZM335.616 17.438V14.936H337.812C338.154 14.936 338.334 14.792 338.334 14.522V14.504C338.334 14.288 338.28 14.09 338.01 13.532L333.726 4.01H337.578L340.35 11.174L343.104 4.01H346.632L342.06 15.008C341.358 16.646 340.494 17.438 338.838 17.438H335.616ZM356.589 10.076H360.261C360.261 11.588 359.361 14.27 354.555 14.27H353.673C348.687 14.27 347.751 11.03 347.751 9.14V8.888C347.751 6.998 348.633 3.74 353.655 3.74H354.483C359.307 3.74 360.261 6.368 360.261 7.808V7.826H356.589C356.535 7.538 356.193 6.296 354.123 6.296H353.943C351.873 6.296 351.387 7.718 351.387 8.924V8.942C351.387 10.184 351.981 11.66 354.015 11.66H354.195C356.283 11.66 356.589 10.31 356.589 10.076ZM371.003 10.076H374.675C374.675 11.588 373.775 14.27 368.969 14.27H368.087C363.101 14.27 362.165 11.03 362.165 9.14V8.888C362.165 6.998 363.047 3.74 368.069 3.74H368.897C373.721 3.74 374.675 6.368 374.675 7.808V7.826H371.003C370.949 7.538 370.607 6.296 368.537 6.296H368.357C366.287 6.296 365.801 7.718 365.801 8.924V8.942C365.801 10.184 366.395 11.66 368.429 11.66H368.609C370.697 11.66 371.003 10.31 371.003 10.076ZM379.927 14V6.674H376.057V4.01H387.307V6.674H383.437V14H379.927ZM397.456 14H389.212V4.01H397.096C399.382 4.01 400.822 4.82 400.822 6.404V6.494C400.822 7.736 400.03 8.474 398.824 8.672C400.048 8.816 401.146 9.68 401.146 11.12V11.192C401.146 13.01 399.958 14 397.456 14ZM392.722 7.988H395.944C396.79 7.988 397.222 7.664 397.222 7.034V6.944C397.222 6.368 396.826 6.026 395.944 6.026H392.722V7.988ZM392.722 11.984H396.088C397.024 11.984 397.546 11.678 397.546 10.976V10.832C397.546 10.202 397.114 9.806 396.088 9.806H392.722V11.984ZM409.405 6.08C407.587 6.08 406.903 6.818 406.723 7.862H412.015C412.015 7.124 411.655 6.08 409.405 6.08ZM412.087 10.886H415.741C415.741 11.714 415.093 14.234 409.927 14.234H409.261C404.329 14.234 403.105 11.534 403.105 9.14V8.888C403.105 6.638 404.221 3.794 408.955 3.794H409.747C414.859 3.794 415.777 6.638 415.777 9.428V9.752H406.687C406.831 10.904 407.569 11.84 409.711 11.84C411.745 11.84 411.997 11.048 412.087 10.886ZM421.691 14H418.181V4.01H421.691V7.646H426.587V4.01H430.097V14H426.587V10.31H421.691V14ZM436.527 14H433.017V4.01H436.527V7.646H441.423V4.01H444.933V14H441.423V10.31H436.527V14ZM454.117 14.27H453.559C448.177 14.27 447.349 10.994 447.349 9.176V8.924C447.349 7.124 448.177 3.74 453.541 3.74H454.135C459.679 3.74 460.327 7.142 460.327 8.906V9.194C460.327 10.994 459.679 14.27 454.117 14.27ZM453.739 11.642H453.937C456.151 11.642 456.709 10.058 456.709 8.96C456.709 7.826 456.151 6.314 453.937 6.314H453.739C451.435 6.314 450.967 7.826 450.967 8.96C450.967 10.058 451.435 11.642 453.739 11.642ZM462.741 14V4.01H471.453V6.674H466.251V14H462.741ZM479.622 14.27H479.064C473.682 14.27 472.854 10.994 472.854 9.176V8.924C472.854 7.124 473.682 3.74 479.046 3.74H479.64C485.184 3.74 485.832 7.142 485.832 8.906V9.194C485.832 10.994 485.184 14.27 479.622 14.27ZM479.244 11.642H479.442C481.656 11.642 482.214 10.058 482.214 8.96C482.214 7.826 481.656 6.314 479.442 6.314H479.244C476.94 6.314 476.472 7.826 476.472 8.96C476.472 10.058 476.94 11.642 479.244 11.642ZM37.882 31.952L33.058 38H29.458V28.01H32.968V34.058L37.792 28.01H41.392V38H37.882V31.952ZM47.8215 38H44.3115V28.01H47.8215V31.646H52.7175V28.01H56.2275V38H52.7175V34.31H47.8215V38ZM62.0095 38V30.674H58.1395V28.01H69.3895V30.674H65.5195V38H62.0095ZM77.1079 30.08C75.2899 30.08 74.6059 30.818 74.4259 31.862H79.7179C79.7179 31.124 79.3579 30.08 77.1079 30.08ZM79.7899 34.886H83.4439C83.4439 35.714 82.7959 38.234 77.6299 38.234H76.9639C72.0319 38.234 70.8079 35.534 70.8079 33.14V32.888C70.8079 30.638 71.9239 27.794 76.6579 27.794H77.4499C82.5619 27.794 83.4799 30.638 83.4799 33.428V33.752H74.3899C74.5339 34.904 75.2719 35.84 77.4139 35.84C79.4479 35.84 79.6999 35.048 79.7899 34.886ZM93.898 38V30.674H89.938C89.938 33.356 89.848 34.85 89.506 35.768C89.128 36.776 88.624 38 85.978 38H84.88V35.39H85.096C85.726 35.39 86.194 35.174 86.392 34.256C86.536 33.482 86.59 32.636 86.59 28.01H97.408V38H93.898ZM108.505 38V30.674H104.545C104.545 33.356 104.455 34.85 104.113 35.768C103.735 36.776 103.231 38 100.585 38H99.4874V35.39H99.7034C100.333 35.39 100.801 35.174 100.999 34.256C101.143 33.482 101.197 32.636 101.197 28.01H112.015V38H108.505ZM120.737 30.08C118.919 30.08 118.235 30.818 118.055 31.862H123.347C123.347 31.124 122.987 30.08 120.737 30.08ZM123.419 34.886H127.073C127.073 35.714 126.425 38.234 121.259 38.234H120.593C115.661 38.234 114.437 35.534 114.437 33.14V32.888C114.437 30.638 115.553 27.794 120.287 27.794H121.079C126.191 27.794 127.109 30.638 127.109 33.428V33.752H118.019C118.163 34.904 118.901 35.84 121.043 35.84C123.077 35.84 123.329 35.048 123.419 34.886ZM136.947 38L133.059 33.374V38H129.549V28.01H133.059V32.006L136.623 28.01H140.673L136.497 32.492L141.123 38H136.947ZM145.435 38V30.674H141.565V28.01H152.815V30.674H148.945V38H145.435ZM159.436 36.002C161.488 36.002 162.19 34.706 162.19 33.95V33.176C161.884 33.302 161.002 33.482 159.994 33.644C158.302 33.932 157.762 34.166 157.762 34.868V34.904C157.762 35.534 158.212 36.002 159.436 36.002ZM162.298 36.614C161.866 37.136 160.786 38.198 158.446 38.198H158.158C155.368 38.198 154.216 36.686 154.216 35.03V34.958C154.216 33.23 155.314 32.168 158.698 31.88L161.434 31.646C161.992 31.592 162.19 31.412 162.19 30.998C162.19 30.53 162.046 30.026 160.102 30.026C158.266 30.026 158.086 30.746 158.086 31.124H154.486V31.088C154.486 30.098 154.882 27.776 159.796 27.776H160.354C165.304 27.776 165.61 29.81 165.61 31.142V34.436C165.61 35.066 165.736 35.318 166.438 35.318H166.816V38H163.972C162.928 38 162.442 37.262 162.298 36.614Z" fill="url(#paint1_radial_10_610)" style="mix-blend-mode:overlay"/>
<path d="M7.70525 14.198H6.98525C1.29725 14.198 0.271248 11.48 0.271248 10.256V10.004H4.17725C4.26725 10.382 4.80725 11.21 7.38125 11.21C9.81125 11.21 10.7112 10.562 10.7112 9.554V9.446C10.7112 8.384 9.84725 7.844 7.38125 7.844C4.84325 7.844 4.28525 8.474 4.14125 8.888H0.469248V0.608H13.4652V3.65H4.14125V6.134C4.28525 5.99 5.50925 5.09 8.19125 5.09H8.37125C13.1412 5.09 14.4012 7.142 14.4012 9.248V9.464C14.4012 11.642 12.9792 14.198 7.70525 14.198ZM20.8078 10.508V14H16.6138V10.508H20.8078ZM41.194 14V5L33.364 14H29.656V0.608H33.364V9.608L41.194 0.608H44.902V14H41.194ZM51.5305 14H48.0205V4.01H51.5305V7.646H56.4265V4.01H59.9365V14H56.4265V10.31H51.5305V14ZM66.3664 14H62.8564V4.01H66.3664V7.646H71.2624V4.01H74.7724V14H71.2624V10.31H66.3664V14ZM83.9564 14.27H83.3984C78.0164 14.27 77.1884 10.994 77.1884 9.176V8.924C77.1884 7.124 78.0164 3.74 83.3804 3.74H83.9744C89.5184 3.74 90.1664 7.142 90.1664 8.906V9.194C90.1664 10.994 89.5184 14.27 83.9564 14.27ZM83.5784 11.642H83.7764C85.9904 11.642 86.5484 10.058 86.5484 8.96C86.5484 7.826 85.9904 6.314 83.7764 6.314H83.5784C81.2744 6.314 80.8064 7.826 80.8064 8.96C80.8064 10.058 81.2744 11.642 83.5784 11.642ZM100.825 14H92.581V4.01H100.465C102.751 4.01 104.191 4.82 104.191 6.404V6.494C104.191 7.736 103.399 8.474 102.193 8.672C103.417 8.816 104.515 9.68 104.515 11.12V11.192C104.515 13.01 103.327 14 100.825 14ZM96.091 7.988H99.313C100.159 7.988 100.591 7.664 100.591 7.034V6.944C100.591 6.368 100.195 6.026 99.313 6.026H96.091V7.988ZM96.091 11.984H99.457C100.393 11.984 100.915 11.678 100.915 10.976V10.832C100.915 10.202 100.483 9.806 99.457 9.806H96.091V11.984ZM111.588 12.002C113.64 12.002 114.342 10.706 114.342 9.95V9.176C114.036 9.302 113.154 9.482 112.146 9.644C110.454 9.932 109.914 10.166 109.914 10.868V10.904C109.914 11.534 110.364 12.002 111.588 12.002ZM114.45 12.614C114.018 13.136 112.938 14.198 110.598 14.198H110.31C107.52 14.198 106.368 12.686 106.368 11.03V10.958C106.368 9.23 107.466 8.168 110.85 7.88L113.586 7.646C114.144 7.592 114.342 7.412 114.342 6.998C114.342 6.53 114.198 6.026 112.254 6.026C110.418 6.026 110.238 6.746 110.238 7.124H106.638V7.088C106.638 6.098 107.034 3.776 111.948 3.776H112.506C117.456 3.776 117.762 5.81 117.762 7.142V10.436C117.762 11.066 117.888 11.318 118.59 11.318H118.968V14H116.124C115.08 14 114.594 13.262 114.45 12.614ZM123.656 14V6.674H119.786V4.01H131.036V6.674H127.166V14H123.656ZM139.204 14.27H138.646C133.264 14.27 132.436 10.994 132.436 9.176V8.924C132.436 7.124 133.264 3.74 138.628 3.74H139.222C144.766 3.74 145.414 7.142 145.414 8.906V9.194C145.414 10.994 144.766 14.27 139.204 14.27ZM138.826 11.642H139.024C141.238 11.642 141.796 10.058 141.796 8.96C141.796 7.826 141.238 6.314 139.024 6.314H138.826C136.522 6.314 136.054 7.826 136.054 8.96C136.054 10.058 136.522 11.642 138.826 11.642ZM157.009 9.014V8.96C157.009 7.88 156.505 6.422 154.309 6.422H154.129C152.023 6.422 151.357 7.808 151.357 8.96V9.014C151.357 10.112 152.023 11.552 154.129 11.552H154.309C156.505 11.552 157.009 10.04 157.009 9.014ZM147.865 17.438V4.01H151.339V5.288C151.771 4.82 153.085 3.812 155.353 3.812H155.587C159.403 3.812 160.645 6.422 160.645 8.798V9.104C160.645 11.282 159.367 14.198 155.569 14.198H155.317C153.031 14.198 151.807 13.154 151.375 12.722V17.438H147.865ZM176.534 14H168.29V4.01H176.174C178.46 4.01 179.9 4.82 179.9 6.404V6.494C179.9 7.736 179.108 8.474 177.902 8.672C179.126 8.816 180.224 9.68 180.224 11.12V11.192C180.224 13.01 179.036 14 176.534 14ZM171.8 7.988H175.022C175.868 7.988 176.3 7.664 176.3 7.034V6.944C176.3 6.368 175.904 6.026 175.022 6.026H171.8V7.988ZM171.8 11.984H175.166C176.102 11.984 176.624 11.678 176.624 10.976V10.832C176.624 10.202 176.192 9.806 175.166 9.806H171.8V11.984ZM194.136 14.27H193.578C188.196 14.27 187.368 10.994 187.368 9.176V8.924C187.368 7.124 188.196 3.74 193.56 3.74H194.154C199.698 3.74 200.346 7.142 200.346 8.906V9.194C200.346 10.994 199.698 14.27 194.136 14.27ZM193.758 11.642H193.956C196.17 11.642 196.728 10.058 196.728 8.96C196.728 7.826 196.17 6.314 193.956 6.314H193.758C191.454 6.314 190.986 7.826 190.986 8.96C190.986 10.058 191.454 11.642 193.758 11.642ZM215.235 9.122V9.356C215.235 13.1 212.391 14.27 208.989 14.27H208.629C205.119 14.27 202.257 12.902 202.257 8.15V7.088C202.257 2.282 204.651 0.698 209.331 0.698H210.141C211.257 0.698 211.329 0.589999 211.365 0.373999H214.803C214.803 2.48 214.011 3.362 211.563 3.362H209.331C206.739 3.362 205.749 4.172 205.695 5.99C206.613 5.036 208.017 4.388 210.231 4.388H210.339C212.715 4.388 215.235 5.594 215.235 9.122ZM208.665 11.642H208.863C210.447 11.642 211.617 10.85 211.617 9.212C211.617 7.628 210.429 6.854 208.881 6.854H208.665C206.937 6.854 205.875 7.592 205.875 9.23C205.875 10.886 206.955 11.642 208.665 11.642ZM225.664 14V6.674H221.704C221.704 9.356 221.614 10.85 221.272 11.768C220.894 12.776 220.39 14 217.744 14H216.646V11.39H216.862C217.492 11.39 217.96 11.174 218.158 10.256C218.302 9.482 218.356 8.636 218.356 4.01H229.174V14H225.664ZM236.797 12.002C238.849 12.002 239.551 10.706 239.551 9.95V9.176C239.245 9.302 238.363 9.482 237.355 9.644C235.663 9.932 235.123 10.166 235.123 10.868V10.904C235.123 11.534 235.573 12.002 236.797 12.002ZM239.659 12.614C239.227 13.136 238.147 14.198 235.807 14.198H235.519C232.729 14.198 231.577 12.686 231.577 11.03V10.958C231.577 9.23 232.675 8.168 236.059 7.88L238.795 7.646C239.353 7.592 239.551 7.412 239.551 6.998C239.551 6.53 239.407 6.026 237.463 6.026C235.627 6.026 235.447 6.746 235.447 7.124H231.847V7.088C231.847 6.098 232.243 3.776 237.157 3.776H237.715C242.665 3.776 242.971 5.81 242.971 7.142V10.436C242.971 11.066 243.097 11.318 243.799 11.318H244.177V14H241.333C240.289 14 239.803 13.262 239.659 12.614ZM254.531 10.076H258.203C258.203 11.588 257.303 14.27 252.497 14.27H251.615C246.629 14.27 245.693 11.03 245.693 9.14V8.888C245.693 6.998 246.575 3.74 251.597 3.74H252.425C257.249 3.74 258.203 6.368 258.203 7.808V7.826H254.531C254.477 7.538 254.135 6.296 252.065 6.296H251.885C249.815 6.296 249.329 7.718 249.329 8.924V8.942C249.329 10.184 249.923 11.66 251.957 11.66H252.137C254.225 11.66 254.531 10.31 254.531 10.076ZM263.455 14V6.674H259.585V4.01H270.835V6.674H266.965V14H263.455ZM281.163 7.952L276.339 14H272.739V4.01H276.249V10.058L281.073 4.01H284.673V14H281.163V7.952ZM301.22 7.952L296.396 14H292.796V4.01H296.306V10.058L301.13 4.01H304.73V14H301.22V7.952ZM316.001 10.076H319.673C319.673 11.588 318.773 14.27 313.967 14.27H313.085C308.099 14.27 307.163 11.03 307.163 9.14V8.888C307.163 6.998 308.045 3.74 313.067 3.74H313.895C318.719 3.74 319.673 6.368 319.673 7.808V7.826H316.001C315.947 7.538 315.605 6.296 313.535 6.296H313.355C311.285 6.296 310.799 7.718 310.799 8.924V8.942C310.799 10.184 311.393 11.66 313.427 11.66H313.607C315.695 11.66 316.001 10.31 316.001 10.076ZM329.497 14L325.609 9.374V14H322.099V4.01H325.609V8.006L329.173 4.01H333.223L329.047 8.492L333.673 14H329.497ZM335.616 17.438V14.936H337.812C338.154 14.936 338.334 14.792 338.334 14.522V14.504C338.334 14.288 338.28 14.09 338.01 13.532L333.726 4.01H337.578L340.35 11.174L343.104 4.01H346.632L342.06 15.008C341.358 16.646 340.494 17.438 338.838 17.438H335.616ZM356.589 10.076H360.261C360.261 11.588 359.361 14.27 354.555 14.27H353.673C348.687 14.27 347.751 11.03 347.751 9.14V8.888C347.751 6.998 348.633 3.74 353.655 3.74H354.483C359.307 3.74 360.261 6.368 360.261 7.808V7.826H356.589C356.535 7.538 356.193 6.296 354.123 6.296H353.943C351.873 6.296 351.387 7.718 351.387 8.924V8.942C351.387 10.184 351.981 11.66 354.015 11.66H354.195C356.283 11.66 356.589 10.31 356.589 10.076ZM371.003 10.076H374.675C374.675 11.588 373.775 14.27 368.969 14.27H368.087C363.101 14.27 362.165 11.03 362.165 9.14V8.888C362.165 6.998 363.047 3.74 368.069 3.74H368.897C373.721 3.74 374.675 6.368 374.675 7.808V7.826H371.003C370.949 7.538 370.607 6.296 368.537 6.296H368.357C366.287 6.296 365.801 7.718 365.801 8.924V8.942C365.801 10.184 366.395 11.66 368.429 11.66H368.609C370.697 11.66 371.003 10.31 371.003 10.076ZM379.927 14V6.674H376.057V4.01H387.307V6.674H383.437V14H379.927ZM397.456 14H389.212V4.01H397.096C399.382 4.01 400.822 4.82 400.822 6.404V6.494C400.822 7.736 400.03 8.474 398.824 8.672C400.048 8.816 401.146 9.68 401.146 11.12V11.192C401.146 13.01 399.958 14 397.456 14ZM392.722 7.988H395.944C396.79 7.988 397.222 7.664 397.222 7.034V6.944C397.222 6.368 396.826 6.026 395.944 6.026H392.722V7.988ZM392.722 11.984H396.088C397.024 11.984 397.546 11.678 397.546 10.976V10.832C397.546 10.202 397.114 9.806 396.088 9.806H392.722V11.984ZM409.405 6.08C407.587 6.08 406.903 6.818 406.723 7.862H412.015C412.015 7.124 411.655 6.08 409.405 6.08ZM412.087 10.886H415.741C415.741 11.714 415.093 14.234 409.927 14.234H409.261C404.329 14.234 403.105 11.534 403.105 9.14V8.888C403.105 6.638 404.221 3.794 408.955 3.794H409.747C414.859 3.794 415.777 6.638 415.777 9.428V9.752H406.687C406.831 10.904 407.569 11.84 409.711 11.84C411.745 11.84 411.997 11.048 412.087 10.886ZM421.691 14H418.181V4.01H421.691V7.646H426.587V4.01H430.097V14H426.587V10.31H421.691V14ZM436.527 14H433.017V4.01H436.527V7.646H441.423V4.01H444.933V14H441.423V10.31H436.527V14ZM454.117 14.27H453.559C448.177 14.27 447.349 10.994 447.349 9.176V8.924C447.349 7.124 448.177 3.74 453.541 3.74H454.135C459.679 3.74 460.327 7.142 460.327 8.906V9.194C460.327 10.994 459.679 14.27 454.117 14.27ZM453.739 11.642H453.937C456.151 11.642 456.709 10.058 456.709 8.96C456.709 7.826 456.151 6.314 453.937 6.314H453.739C451.435 6.314 450.967 7.826 450.967 8.96C450.967 10.058 451.435 11.642 453.739 11.642ZM462.741 14V4.01H471.453V6.674H466.251V14H462.741ZM479.622 14.27H479.064C473.682 14.27 472.854 10.994 472.854 9.176V8.924C472.854 7.124 473.682 3.74 479.046 3.74H479.64C485.184 3.74 485.832 7.142 485.832 8.906V9.194C485.832 10.994 485.184 14.27 479.622 14.27ZM479.244 11.642H479.442C481.656 11.642 482.214 10.058 482.214 8.96C482.214 7.826 481.656 6.314 479.442 6.314H479.244C476.94 6.314 476.472 7.826 476.472 8.96C476.472 10.058 476.94 11.642 479.244 11.642ZM37.882 31.952L33.058 38H29.458V28.01H32.968V34.058L37.792 28.01H41.392V38H37.882V31.952ZM47.8215 38H44.3115V28.01H47.8215V31.646H52.7175V28.01H56.2275V38H52.7175V34.31H47.8215V38ZM62.0095 38V30.674H58.1395V28.01H69.3895V30.674H65.5195V38H62.0095ZM77.1079 30.08C75.2899 30.08 74.6059 30.818 74.4259 31.862H79.7179C79.7179 31.124 79.3579 30.08 77.1079 30.08ZM79.7899 34.886H83.4439C83.4439 35.714 82.7959 38.234 77.6299 38.234H76.9639C72.0319 38.234 70.8079 35.534 70.8079 33.14V32.888C70.8079 30.638 71.9239 27.794 76.6579 27.794H77.4499C82.5619 27.794 83.4799 30.638 83.4799 33.428V33.752H74.3899C74.5339 34.904 75.2719 35.84 77.4139 35.84C79.4479 35.84 79.6999 35.048 79.7899 34.886ZM93.898 38V30.674H89.938C89.938 33.356 89.848 34.85 89.506 35.768C89.128 36.776 88.624 38 85.978 38H84.88V35.39H85.096C85.726 35.39 86.194 35.174 86.392 34.256C86.536 33.482 86.59 32.636 86.59 28.01H97.408V38H93.898ZM108.505 38V30.674H104.545C104.545 33.356 104.455 34.85 104.113 35.768C103.735 36.776 103.231 38 100.585 38H99.4874V35.39H99.7034C100.333 35.39 100.801 35.174 100.999 34.256C101.143 33.482 101.197 32.636 101.197 28.01H112.015V38H108.505ZM120.737 30.08C118.919 30.08 118.235 30.818 118.055 31.862H123.347C123.347 31.124 122.987 30.08 120.737 30.08ZM123.419 34.886H127.073C127.073 35.714 126.425 38.234 121.259 38.234H120.593C115.661 38.234 114.437 35.534 114.437 33.14V32.888C114.437 30.638 115.553 27.794 120.287 27.794H121.079C126.191 27.794 127.109 30.638 127.109 33.428V33.752H118.019C118.163 34.904 118.901 35.84 121.043 35.84C123.077 35.84 123.329 35.048 123.419 34.886ZM136.947 38L133.059 33.374V38H129.549V28.01H133.059V32.006L136.623 28.01H140.673L136.497 32.492L141.123 38H136.947ZM145.435 38V30.674H141.565V28.01H152.815V30.674H148.945V38H145.435ZM159.436 36.002C161.488 36.002 162.19 34.706 162.19 33.95V33.176C161.884 33.302 161.002 33.482 159.994 33.644C158.302 33.932 157.762 34.166 157.762 34.868V34.904C157.762 35.534 158.212 36.002 159.436 36.002ZM162.298 36.614C161.866 37.136 160.786 38.198 158.446 38.198H158.158C155.368 38.198 154.216 36.686 154.216 35.03V34.958C154.216 33.23 155.314 32.168 158.698 31.88L161.434 31.646C161.992 31.592 162.19 31.412 162.19 30.998C162.19 30.53 162.046 30.026 160.102 30.026C158.266 30.026 158.086 30.746 158.086 31.124H154.486V31.088C154.486 30.098 154.882 27.776 159.796 27.776H160.354C165.304 27.776 165.61 29.81 165.61 31.142V34.436C165.61 35.066 165.736 35.318 166.438 35.318H166.816V38H163.972C162.928 38 162.442 37.262 162.298 36.614Z" fill="url(#paint2_radial_10_610)"/>
<path d="M7.70525 14.198H6.98525C1.29725 14.198 0.271248 11.48 0.271248 10.256V10.004H4.17725C4.26725 10.382 4.80725 11.21 7.38125 11.21C9.81125 11.21 10.7112 10.562 10.7112 9.554V9.446C10.7112 8.384 9.84725 7.844 7.38125 7.844C4.84325 7.844 4.28525 8.474 4.14125 8.888H0.469248V0.608H13.4652V3.65H4.14125V6.134C4.28525 5.99 5.50925 5.09 8.19125 5.09H8.37125C13.1412 5.09 14.4012 7.142 14.4012 9.248V9.464C14.4012 11.642 12.9792 14.198 7.70525 14.198ZM20.8078 10.508V14H16.6138V10.508H20.8078ZM41.194 14V5L33.364 14H29.656V0.608H33.364V9.608L41.194 0.608H44.902V14H41.194ZM51.5305 14H48.0205V4.01H51.5305V7.646H56.4265V4.01H59.9365V14H56.4265V10.31H51.5305V14ZM66.3664 14H62.8564V4.01H66.3664V7.646H71.2624V4.01H74.7724V14H71.2624V10.31H66.3664V14ZM83.9564 14.27H83.3984C78.0164 14.27 77.1884 10.994 77.1884 9.176V8.924C77.1884 7.124 78.0164 3.74 83.3804 3.74H83.9744C89.5184 3.74 90.1664 7.142 90.1664 8.906V9.194C90.1664 10.994 89.5184 14.27 83.9564 14.27ZM83.5784 11.642H83.7764C85.9904 11.642 86.5484 10.058 86.5484 8.96C86.5484 7.826 85.9904 6.314 83.7764 6.314H83.5784C81.2744 6.314 80.8064 7.826 80.8064 8.96C80.8064 10.058 81.2744 11.642 83.5784 11.642ZM100.825 14H92.581V4.01H100.465C102.751 4.01 104.191 4.82 104.191 6.404V6.494C104.191 7.736 103.399 8.474 102.193 8.672C103.417 8.816 104.515 9.68 104.515 11.12V11.192C104.515 13.01 103.327 14 100.825 14ZM96.091 7.988H99.313C100.159 7.988 100.591 7.664 100.591 7.034V6.944C100.591 6.368 100.195 6.026 99.313 6.026H96.091V7.988ZM96.091 11.984H99.457C100.393 11.984 100.915 11.678 100.915 10.976V10.832C100.915 10.202 100.483 9.806 99.457 9.806H96.091V11.984ZM111.588 12.002C113.64 12.002 114.342 10.706 114.342 9.95V9.176C114.036 9.302 113.154 9.482 112.146 9.644C110.454 9.932 109.914 10.166 109.914 10.868V10.904C109.914 11.534 110.364 12.002 111.588 12.002ZM114.45 12.614C114.018 13.136 112.938 14.198 110.598 14.198H110.31C107.52 14.198 106.368 12.686 106.368 11.03V10.958C106.368 9.23 107.466 8.168 110.85 7.88L113.586 7.646C114.144 7.592 114.342 7.412 114.342 6.998C114.342 6.53 114.198 6.026 112.254 6.026C110.418 6.026 110.238 6.746 110.238 7.124H106.638V7.088C106.638 6.098 107.034 3.776 111.948 3.776H112.506C117.456 3.776 117.762 5.81 117.762 7.142V10.436C117.762 11.066 117.888 11.318 118.59 11.318H118.968V14H116.124C115.08 14 114.594 13.262 114.45 12.614ZM123.656 14V6.674H119.786V4.01H131.036V6.674H127.166V14H123.656ZM139.204 14.27H138.646C133.264 14.27 132.436 10.994 132.436 9.176V8.924C132.436 7.124 133.264 3.74 138.628 3.74H139.222C144.766 3.74 145.414 7.142 145.414 8.906V9.194C145.414 10.994 144.766 14.27 139.204 14.27ZM138.826 11.642H139.024C141.238 11.642 141.796 10.058 141.796 8.96C141.796 7.826 141.238 6.314 139.024 6.314H138.826C136.522 6.314 136.054 7.826 136.054 8.96C136.054 10.058 136.522 11.642 138.826 11.642ZM157.009 9.014V8.96C157.009 7.88 156.505 6.422 154.309 6.422H154.129C152.023 6.422 151.357 7.808 151.357 8.96V9.014C151.357 10.112 152.023 11.552 154.129 11.552H154.309C156.505 11.552 157.009 10.04 157.009 9.014ZM147.865 17.438V4.01H151.339V5.288C151.771 4.82 153.085 3.812 155.353 3.812H155.587C159.403 3.812 160.645 6.422 160.645 8.798V9.104C160.645 11.282 159.367 14.198 155.569 14.198H155.317C153.031 14.198 151.807 13.154 151.375 12.722V17.438H147.865ZM176.534 14H168.29V4.01H176.174C178.46 4.01 179.9 4.82 179.9 6.404V6.494C179.9 7.736 179.108 8.474 177.902 8.672C179.126 8.816 180.224 9.68 180.224 11.12V11.192C180.224 13.01 179.036 14 176.534 14ZM171.8 7.988H175.022C175.868 7.988 176.3 7.664 176.3 7.034V6.944C176.3 6.368 175.904 6.026 175.022 6.026H171.8V7.988ZM171.8 11.984H175.166C176.102 11.984 176.624 11.678 176.624 10.976V10.832C176.624 10.202 176.192 9.806 175.166 9.806H171.8V11.984ZM194.136 14.27H193.578C188.196 14.27 187.368 10.994 187.368 9.176V8.924C187.368 7.124 188.196 3.74 193.56 3.74H194.154C199.698 3.74 200.346 7.142 200.346 8.906V9.194C200.346 10.994 199.698 14.27 194.136 14.27ZM193.758 11.642H193.956C196.17 11.642 196.728 10.058 196.728 8.96C196.728 7.826 196.17 6.314 193.956 6.314H193.758C191.454 6.314 190.986 7.826 190.986 8.96C190.986 10.058 191.454 11.642 193.758 11.642ZM215.235 9.122V9.356C215.235 13.1 212.391 14.27 208.989 14.27H208.629C205.119 14.27 202.257 12.902 202.257 8.15V7.088C202.257 2.282 204.651 0.698 209.331 0.698H210.141C211.257 0.698 211.329 0.589999 211.365 0.373999H214.803C214.803 2.48 214.011 3.362 211.563 3.362H209.331C206.739 3.362 205.749 4.172 205.695 5.99C206.613 5.036 208.017 4.388 210.231 4.388H210.339C212.715 4.388 215.235 5.594 215.235 9.122ZM208.665 11.642H208.863C210.447 11.642 211.617 10.85 211.617 9.212C211.617 7.628 210.429 6.854 208.881 6.854H208.665C206.937 6.854 205.875 7.592 205.875 9.23C205.875 10.886 206.955 11.642 208.665 11.642ZM225.664 14V6.674H221.704C221.704 9.356 221.614 10.85 221.272 11.768C220.894 12.776 220.39 14 217.744 14H216.646V11.39H216.862C217.492 11.39 217.96 11.174 218.158 10.256C218.302 9.482 218.356 8.636 218.356 4.01H229.174V14H225.664ZM236.797 12.002C238.849 12.002 239.551 10.706 239.551 9.95V9.176C239.245 9.302 238.363 9.482 237.355 9.644C235.663 9.932 235.123 10.166 235.123 10.868V10.904C235.123 11.534 235.573 12.002 236.797 12.002ZM239.659 12.614C239.227 13.136 238.147 14.198 235.807 14.198H235.519C232.729 14.198 231.577 12.686 231.577 11.03V10.958C231.577 9.23 232.675 8.168 236.059 7.88L238.795 7.646C239.353 7.592 239.551 7.412 239.551 6.998C239.551 6.53 239.407 6.026 237.463 6.026C235.627 6.026 235.447 6.746 235.447 7.124H231.847V7.088C231.847 6.098 232.243 3.776 237.157 3.776H237.715C242.665 3.776 242.971 5.81 242.971 7.142V10.436C242.971 11.066 243.097 11.318 243.799 11.318H244.177V14H241.333C240.289 14 239.803 13.262 239.659 12.614ZM254.531 10.076H258.203C258.203 11.588 257.303 14.27 252.497 14.27H251.615C246.629 14.27 245.693 11.03 245.693 9.14V8.888C245.693 6.998 246.575 3.74 251.597 3.74H252.425C257.249 3.74 258.203 6.368 258.203 7.808V7.826H254.531C254.477 7.538 254.135 6.296 252.065 6.296H251.885C249.815 6.296 249.329 7.718 249.329 8.924V8.942C249.329 10.184 249.923 11.66 251.957 11.66H252.137C254.225 11.66 254.531 10.31 254.531 10.076ZM263.455 14V6.674H259.585V4.01H270.835V6.674H266.965V14H263.455ZM281.163 7.952L276.339 14H272.739V4.01H276.249V10.058L281.073 4.01H284.673V14H281.163V7.952ZM301.22 7.952L296.396 14H292.796V4.01H296.306V10.058L301.13 4.01H304.73V14H301.22V7.952ZM316.001 10.076H319.673C319.673 11.588 318.773 14.27 313.967 14.27H313.085C308.099 14.27 307.163 11.03 307.163 9.14V8.888C307.163 6.998 308.045 3.74 313.067 3.74H313.895C318.719 3.74 319.673 6.368 319.673 7.808V7.826H316.001C315.947 7.538 315.605 6.296 313.535 6.296H313.355C311.285 6.296 310.799 7.718 310.799 8.924V8.942C310.799 10.184 311.393 11.66 313.427 11.66H313.607C315.695 11.66 316.001 10.31 316.001 10.076ZM329.497 14L325.609 9.374V14H322.099V4.01H325.609V8.006L329.173 4.01H333.223L329.047 8.492L333.673 14H329.497ZM335.616 17.438V14.936H337.812C338.154 14.936 338.334 14.792 338.334 14.522V14.504C338.334 14.288 338.28 14.09 338.01 13.532L333.726 4.01H337.578L340.35 11.174L343.104 4.01H346.632L342.06 15.008C341.358 16.646 340.494 17.438 338.838 17.438H335.616ZM356.589 10.076H360.261C360.261 11.588 359.361 14.27 354.555 14.27H353.673C348.687 14.27 347.751 11.03 347.751 9.14V8.888C347.751 6.998 348.633 3.74 353.655 3.74H354.483C359.307 3.74 360.261 6.368 360.261 7.808V7.826H356.589C356.535 7.538 356.193 6.296 354.123 6.296H353.943C351.873 6.296 351.387 7.718 351.387 8.924V8.942C351.387 10.184 351.981 11.66 354.015 11.66H354.195C356.283 11.66 356.589 10.31 356.589 10.076ZM371.003 10.076H374.675C374.675 11.588 373.775 14.27 368.969 14.27H368.087C363.101 14.27 362.165 11.03 362.165 9.14V8.888C362.165 6.998 363.047 3.74 368.069 3.74H368.897C373.721 3.74 374.675 6.368 374.675 7.808V7.826H371.003C370.949 7.538 370.607 6.296 368.537 6.296H368.357C366.287 6.296 365.801 7.718 365.801 8.924V8.942C365.801 10.184 366.395 11.66 368.429 11.66H368.609C370.697 11.66 371.003 10.31 371.003 10.076ZM379.927 14V6.674H376.057V4.01H387.307V6.674H383.437V14H379.927ZM397.456 14H389.212V4.01H397.096C399.382 4.01 400.822 4.82 400.822 6.404V6.494C400.822 7.736 400.03 8.474 398.824 8.672C400.048 8.816 401.146 9.68 401.146 11.12V11.192C401.146 13.01 399.958 14 397.456 14ZM392.722 7.988H395.944C396.79 7.988 397.222 7.664 397.222 7.034V6.944C397.222 6.368 396.826 6.026 395.944 6.026H392.722V7.988ZM392.722 11.984H396.088C397.024 11.984 397.546 11.678 397.546 10.976V10.832C397.546 10.202 397.114 9.806 396.088 9.806H392.722V11.984ZM409.405 6.08C407.587 6.08 406.903 6.818 406.723 7.862H412.015C412.015 7.124 411.655 6.08 409.405 6.08ZM412.087 10.886H415.741C415.741 11.714 415.093 14.234 409.927 14.234H409.261C404.329 14.234 403.105 11.534 403.105 9.14V8.888C403.105 6.638 404.221 3.794 408.955 3.794H409.747C414.859 3.794 415.777 6.638 415.777 9.428V9.752H406.687C406.831 10.904 407.569 11.84 409.711 11.84C411.745 11.84 411.997 11.048 412.087 10.886ZM421.691 14H418.181V4.01H421.691V7.646H426.587V4.01H430.097V14H426.587V10.31H421.691V14ZM436.527 14H433.017V4.01H436.527V7.646H441.423V4.01H444.933V14H441.423V10.31H436.527V14ZM454.117 14.27H453.559C448.177 14.27 447.349 10.994 447.349 9.176V8.924C447.349 7.124 448.177 3.74 453.541 3.74H454.135C459.679 3.74 460.327 7.142 460.327 8.906V9.194C460.327 10.994 459.679 14.27 454.117 14.27ZM453.739 11.642H453.937C456.151 11.642 456.709 10.058 456.709 8.96C456.709 7.826 456.151 6.314 453.937 6.314H453.739C451.435 6.314 450.967 7.826 450.967 8.96C450.967 10.058 451.435 11.642 453.739 11.642ZM462.741 14V4.01H471.453V6.674H466.251V14H462.741ZM479.622 14.27H479.064C473.682 14.27 472.854 10.994 472.854 9.176V8.924C472.854 7.124 473.682 3.74 479.046 3.74H479.64C485.184 3.74 485.832 7.142 485.832 8.906V9.194C485.832 10.994 485.184 14.27 479.622 14.27ZM479.244 11.642H479.442C481.656 11.642 482.214 10.058 482.214 8.96C482.214 7.826 481.656 6.314 479.442 6.314H479.244C476.94 6.314 476.472 7.826 476.472 8.96C476.472 10.058 476.94 11.642 479.244 11.642ZM37.882 31.952L33.058 38H29.458V28.01H32.968V34.058L37.792 28.01H41.392V38H37.882V31.952ZM47.8215 38H44.3115V28.01H47.8215V31.646H52.7175V28.01H56.2275V38H52.7175V34.31H47.8215V38ZM62.0095 38V30.674H58.1395V28.01H69.3895V30.674H65.5195V38H62.0095ZM77.1079 30.08C75.2899 30.08 74.6059 30.818 74.4259 31.862H79.7179C79.7179 31.124 79.3579 30.08 77.1079 30.08ZM79.7899 34.886H83.4439C83.4439 35.714 82.7959 38.234 77.6299 38.234H76.9639C72.0319 38.234 70.8079 35.534 70.8079 33.14V32.888C70.8079 30.638 71.9239 27.794 76.6579 27.794H77.4499C82.5619 27.794 83.4799 30.638 83.4799 33.428V33.752H74.3899C74.5339 34.904 75.2719 35.84 77.4139 35.84C79.4479 35.84 79.6999 35.048 79.7899 34.886ZM93.898 38V30.674H89.938C89.938 33.356 89.848 34.85 89.506 35.768C89.128 36.776 88.624 38 85.978 38H84.88V35.39H85.096C85.726 35.39 86.194 35.174 86.392 34.256C86.536 33.482 86.59 32.636 86.59 28.01H97.408V38H93.898ZM108.505 38V30.674H104.545C104.545 33.356 104.455 34.85 104.113 35.768C103.735 36.776 103.231 38 100.585 38H99.4874V35.39H99.7034C100.333 35.39 100.801 35.174 100.999 34.256C101.143 33.482 101.197 32.636 101.197 28.01H112.015V38H108.505ZM120.737 30.08C118.919 30.08 118.235 30.818 118.055 31.862H123.347C123.347 31.124 122.987 30.08 120.737 30.08ZM123.419 34.886H127.073C127.073 35.714 126.425 38.234 121.259 38.234H120.593C115.661 38.234 114.437 35.534 114.437 33.14V32.888C114.437 30.638 115.553 27.794 120.287 27.794H121.079C126.191 27.794 127.109 30.638 127.109 33.428V33.752H118.019C118.163 34.904 118.901 35.84 121.043 35.84C123.077 35.84 123.329 35.048 123.419 34.886ZM136.947 38L133.059 33.374V38H129.549V28.01H133.059V32.006L136.623 28.01H140.673L136.497 32.492L141.123 38H136.947ZM145.435 38V30.674H141.565V28.01H152.815V30.674H148.945V38H145.435ZM159.436 36.002C161.488 36.002 162.19 34.706 162.19 33.95V33.176C161.884 33.302 161.002 33.482 159.994 33.644C158.302 33.932 157.762 34.166 157.762 34.868V34.904C157.762 35.534 158.212 36.002 159.436 36.002ZM162.298 36.614C161.866 37.136 160.786 38.198 158.446 38.198H158.158C155.368 38.198 154.216 36.686 154.216 35.03V34.958C154.216 33.23 155.314 32.168 158.698 31.88L161.434 31.646C161.992 31.592 162.19 31.412 162.19 30.998C162.19 30.53 162.046 30.026 160.102 30.026C158.266 30.026 158.086 30.746 158.086 31.124H154.486V31.088C154.486 30.098 154.882 27.776 159.796 27.776H160.354C165.304 27.776 165.61 29.81 165.61 31.142V34.436C165.61 35.066 165.736 35.318 166.438 35.318H166.816V38H163.972C162.928 38 162.442 37.262 162.298 36.614Z" fill="#C1A875" style="mix-blend-mode:color"/>
<defs>
<linearGradient id="paint0_linear_10_610" x1="1" y1="18" x2="601" y2="18" gradientUnits="userSpaceOnUse">
<stop stop-color="#576167"/>
<stop offset="0.191294" stop-color="#9EA1A2"/>
<stop offset="0.396166" stop-color="#848989"/>
<stop offset="0.62055" stop-color="#576167"/>
<stop offset="0.830299" stop-color="#757A7C"/>
<stop offset="1" stop-color="#576167"/>
</linearGradient>
<radialGradient id="paint1_radial_10_610" cx="0" cy="0" r="1" gradientUnits="userSpaceOnUse" gradientTransform="translate(320.53 -0.404494) rotate(90) scale(35.6629 453.919)">
<stop stop-color="white"/>
<stop offset="1" stop-color="white" stop-opacity="0"/>
</radialGradient>
<radialGradient id="paint2_radial_10_610" cx="0" cy="0" r="1" gradientUnits="userSpaceOnUse" gradientTransform="translate(354.469 53.3258) rotate(-88.9232) scale(51.1102 648.98)">
<stop stop-color="white"/>
<stop offset="1" stop-color="white" stop-opacity="0"/>
</radialGradient>
</defs>
</svg>
