<svg width="222" height="18" viewBox="0 0 222 18" fill="none" xmlns="http://www.w3.org/2000/svg">
<path d="M8.81325 14.198H7.93125C1.77525 14.198 0.893248 10.022 0.893248 7.646V7.232C0.893248 5.144 1.86525 0.446 7.93125 0.446H8.47125C13.8892 0.446 14.9872 2.768 14.9872 4.496V4.514H11.3152C11.3152 4.316 11.0632 3.308 8.27325 3.308C5.03325 3.308 4.67325 5.612 4.67325 6.71V6.836C5.01525 6.548 6.16725 5.54 9.22725 5.54H9.62325C13.9612 5.54 15.4732 7.322 15.4732 9.356V9.662C15.4732 11.444 14.5012 14.198 8.81325 14.198ZM5.17725 9.662V9.752C5.17725 10.4 5.71725 11.354 8.39925 11.354C11.3152 11.354 11.6572 10.364 11.6572 9.77V9.662C11.6572 9.014 11.2252 8.15 8.39925 8.15C5.66325 8.15 5.17725 9.014 5.17725 9.662ZM21.8078 10.508V14H17.6138V10.508H21.8078ZM30.656 14V0.608H35.588L39.854 9.68L44.246 0.608H48.872V14H45.254V5.234L41.186 14H38.288L34.22 5.234V14H30.656ZM58.2552 14.27H57.6972C52.3152 14.27 51.4872 10.994 51.4872 9.176V8.924C51.4872 7.124 52.3152 3.74 57.6792 3.74H58.2732C63.8172 3.74 64.4652 7.142 64.4652 8.906V9.194C64.4652 10.994 63.8172 14.27 58.2552 14.27ZM57.8772 11.642H58.0752C60.2892 11.642 60.8472 10.058 60.8472 8.96C60.8472 7.826 60.2892 6.314 58.0752 6.314H57.8772C55.5732 6.314 55.1052 7.826 55.1052 8.96C55.1052 10.058 55.5732 11.642 57.8772 11.642ZM74.8941 14V6.674H70.9341C70.9341 9.356 70.8441 10.85 70.5021 11.768C70.1241 12.776 69.6201 14 66.9741 14H65.8761V11.39H66.0921C66.7221 11.39 67.1901 11.174 67.3881 10.256C67.5321 9.482 67.5861 8.636 67.5861 4.01H78.4041V14H74.8941ZM87.5755 14.27H87.0175C81.6355 14.27 80.8075 10.994 80.8075 9.176V8.924C80.8075 7.124 81.6355 3.74 86.9995 3.74H87.5935C93.1375 3.74 93.7855 7.142 93.7855 8.906V9.194C93.7855 10.994 93.1375 14.27 87.5755 14.27ZM87.1975 11.642H87.3955C89.6095 11.642 90.1675 10.058 90.1675 8.96C90.1675 7.826 89.6095 6.314 87.3955 6.314H87.1975C84.8935 6.314 84.4255 7.826 84.4255 8.96C84.4255 10.058 84.8935 11.642 87.1975 11.642ZM95.1085 16.124V11.336H96.3145C96.9985 9.968 97.1065 6.998 97.1965 4.01H107.763V11.336H109.563V16.124H106.233V14H98.4385V16.124H95.1085ZM99.6265 11.336H104.253V6.674H100.347C100.293 7.97 100.113 9.95 99.6265 11.336ZM117.74 14.27H117.182C111.8 14.27 110.972 10.994 110.972 9.176V8.924C110.972 7.124 111.8 3.74 117.164 3.74H117.758C123.302 3.74 123.95 7.142 123.95 8.906V9.194C123.95 10.994 123.302 14.27 117.74 14.27ZM117.362 11.642H117.56C119.774 11.642 120.332 10.058 120.332 8.96C120.332 7.826 119.774 6.314 117.56 6.314H117.362C115.058 6.314 114.59 7.826 114.59 8.96C114.59 10.058 115.058 11.642 117.362 11.642ZM134.788 7.952L129.964 14H126.364V4.01H129.874V10.058L134.698 4.01H138.298V14H134.788V7.952ZM132.556 2.984H132.016C129.154 2.984 128.65 1.04 128.65 0.104V0.0499994H131.296C131.296 0.284 131.404 1.004 132.304 1.004C133.15 1.004 133.276 0.284 133.276 0.0499994H135.886V0.104C135.886 1.04 135.166 2.984 132.556 2.984ZM157.203 14V3.56H151.443C151.443 7.214 151.281 10.004 150.795 11.462C150.363 12.74 149.589 14 146.925 14H145.593V10.85H145.719C146.817 10.85 147.267 10.346 147.483 9.788C147.843 8.852 147.933 7.574 147.933 0.608H160.911V14H157.203ZM172.441 7.952L167.617 14H164.017V4.01H167.527V10.058L172.351 4.01H175.951V14H172.441V7.952ZM178.042 16.124V11.336H179.248C179.932 9.968 180.04 6.998 180.13 4.01H190.696V11.336H192.496V16.124H189.166V14H181.372V16.124H178.042ZM182.56 11.336H187.186V6.674H183.28C183.226 7.97 183.046 9.95 182.56 11.336ZM200.223 6.08C198.405 6.08 197.721 6.818 197.541 7.862H202.833C202.833 7.124 202.473 6.08 200.223 6.08ZM202.905 10.886H206.559C206.559 11.714 205.911 14.234 200.745 14.234H200.079C195.147 14.234 193.923 11.534 193.923 9.14V8.888C193.923 6.638 195.039 3.794 199.773 3.794H200.565C205.677 3.794 206.595 6.638 206.595 9.428V9.752H197.505C197.649 10.904 198.387 11.84 200.529 11.84C202.563 11.84 202.815 11.048 202.905 10.886ZM218.179 9.014V8.96C218.179 7.88 217.675 6.422 215.479 6.422H215.299C213.193 6.422 212.527 7.808 212.527 8.96V9.014C212.527 10.112 213.193 11.552 215.299 11.552H215.479C217.675 11.552 218.179 10.04 218.179 9.014ZM209.035 17.438V4.01H212.509V5.288C212.941 4.82 214.255 3.812 216.523 3.812H216.757C220.573 3.812 221.815 6.422 221.815 8.798V9.104C221.815 11.282 220.537 14.198 216.739 14.198H216.487C214.201 14.198 212.977 13.154 212.545 12.722V17.438H209.035Z" fill="url(#paint0_linear_10_614)"/>
<path d="M8.81325 14.198H7.93125C1.77525 14.198 0.893248 10.022 0.893248 7.646V7.232C0.893248 5.144 1.86525 0.446 7.93125 0.446H8.47125C13.8892 0.446 14.9872 2.768 14.9872 4.496V4.514H11.3152C11.3152 4.316 11.0632 3.308 8.27325 3.308C5.03325 3.308 4.67325 5.612 4.67325 6.71V6.836C5.01525 6.548 6.16725 5.54 9.22725 5.54H9.62325C13.9612 5.54 15.4732 7.322 15.4732 9.356V9.662C15.4732 11.444 14.5012 14.198 8.81325 14.198ZM5.17725 9.662V9.752C5.17725 10.4 5.71725 11.354 8.39925 11.354C11.3152 11.354 11.6572 10.364 11.6572 9.77V9.662C11.6572 9.014 11.2252 8.15 8.39925 8.15C5.66325 8.15 5.17725 9.014 5.17725 9.662ZM21.8078 10.508V14H17.6138V10.508H21.8078ZM30.656 14V0.608H35.588L39.854 9.68L44.246 0.608H48.872V14H45.254V5.234L41.186 14H38.288L34.22 5.234V14H30.656ZM58.2552 14.27H57.6972C52.3152 14.27 51.4872 10.994 51.4872 9.176V8.924C51.4872 7.124 52.3152 3.74 57.6792 3.74H58.2732C63.8172 3.74 64.4652 7.142 64.4652 8.906V9.194C64.4652 10.994 63.8172 14.27 58.2552 14.27ZM57.8772 11.642H58.0752C60.2892 11.642 60.8472 10.058 60.8472 8.96C60.8472 7.826 60.2892 6.314 58.0752 6.314H57.8772C55.5732 6.314 55.1052 7.826 55.1052 8.96C55.1052 10.058 55.5732 11.642 57.8772 11.642ZM74.8941 14V6.674H70.9341C70.9341 9.356 70.8441 10.85 70.5021 11.768C70.1241 12.776 69.6201 14 66.9741 14H65.8761V11.39H66.0921C66.7221 11.39 67.1901 11.174 67.3881 10.256C67.5321 9.482 67.5861 8.636 67.5861 4.01H78.4041V14H74.8941ZM87.5755 14.27H87.0175C81.6355 14.27 80.8075 10.994 80.8075 9.176V8.924C80.8075 7.124 81.6355 3.74 86.9995 3.74H87.5935C93.1375 3.74 93.7855 7.142 93.7855 8.906V9.194C93.7855 10.994 93.1375 14.27 87.5755 14.27ZM87.1975 11.642H87.3955C89.6095 11.642 90.1675 10.058 90.1675 8.96C90.1675 7.826 89.6095 6.314 87.3955 6.314H87.1975C84.8935 6.314 84.4255 7.826 84.4255 8.96C84.4255 10.058 84.8935 11.642 87.1975 11.642ZM95.1085 16.124V11.336H96.3145C96.9985 9.968 97.1065 6.998 97.1965 4.01H107.763V11.336H109.563V16.124H106.233V14H98.4385V16.124H95.1085ZM99.6265 11.336H104.253V6.674H100.347C100.293 7.97 100.113 9.95 99.6265 11.336ZM117.74 14.27H117.182C111.8 14.27 110.972 10.994 110.972 9.176V8.924C110.972 7.124 111.8 3.74 117.164 3.74H117.758C123.302 3.74 123.95 7.142 123.95 8.906V9.194C123.95 10.994 123.302 14.27 117.74 14.27ZM117.362 11.642H117.56C119.774 11.642 120.332 10.058 120.332 8.96C120.332 7.826 119.774 6.314 117.56 6.314H117.362C115.058 6.314 114.59 7.826 114.59 8.96C114.59 10.058 115.058 11.642 117.362 11.642ZM134.788 7.952L129.964 14H126.364V4.01H129.874V10.058L134.698 4.01H138.298V14H134.788V7.952ZM132.556 2.984H132.016C129.154 2.984 128.65 1.04 128.65 0.104V0.0499994H131.296C131.296 0.284 131.404 1.004 132.304 1.004C133.15 1.004 133.276 0.284 133.276 0.0499994H135.886V0.104C135.886 1.04 135.166 2.984 132.556 2.984ZM157.203 14V3.56H151.443C151.443 7.214 151.281 10.004 150.795 11.462C150.363 12.74 149.589 14 146.925 14H145.593V10.85H145.719C146.817 10.85 147.267 10.346 147.483 9.788C147.843 8.852 147.933 7.574 147.933 0.608H160.911V14H157.203ZM172.441 7.952L167.617 14H164.017V4.01H167.527V10.058L172.351 4.01H175.951V14H172.441V7.952ZM178.042 16.124V11.336H179.248C179.932 9.968 180.04 6.998 180.13 4.01H190.696V11.336H192.496V16.124H189.166V14H181.372V16.124H178.042ZM182.56 11.336H187.186V6.674H183.28C183.226 7.97 183.046 9.95 182.56 11.336ZM200.223 6.08C198.405 6.08 197.721 6.818 197.541 7.862H202.833C202.833 7.124 202.473 6.08 200.223 6.08ZM202.905 10.886H206.559C206.559 11.714 205.911 14.234 200.745 14.234H200.079C195.147 14.234 193.923 11.534 193.923 9.14V8.888C193.923 6.638 195.039 3.794 199.773 3.794H200.565C205.677 3.794 206.595 6.638 206.595 9.428V9.752H197.505C197.649 10.904 198.387 11.84 200.529 11.84C202.563 11.84 202.815 11.048 202.905 10.886ZM218.179 9.014V8.96C218.179 7.88 217.675 6.422 215.479 6.422H215.299C213.193 6.422 212.527 7.808 212.527 8.96V9.014C212.527 10.112 213.193 11.552 215.299 11.552H215.479C217.675 11.552 218.179 10.04 218.179 9.014ZM209.035 17.438V4.01H212.509V5.288C212.941 4.82 214.255 3.812 216.523 3.812H216.757C220.573 3.812 221.815 6.422 221.815 8.798V9.104C221.815 11.282 220.537 14.198 216.739 14.198H216.487C214.201 14.198 212.977 13.154 212.545 12.722V17.438H209.035Z" fill="url(#paint1_radial_10_614)" style="mix-blend-mode:overlay"/>
<path d="M8.81325 14.198H7.93125C1.77525 14.198 0.893248 10.022 0.893248 7.646V7.232C0.893248 5.144 1.86525 0.446 7.93125 0.446H8.47125C13.8892 0.446 14.9872 2.768 14.9872 4.496V4.514H11.3152C11.3152 4.316 11.0632 3.308 8.27325 3.308C5.03325 3.308 4.67325 5.612 4.67325 6.71V6.836C5.01525 6.548 6.16725 5.54 9.22725 5.54H9.62325C13.9612 5.54 15.4732 7.322 15.4732 9.356V9.662C15.4732 11.444 14.5012 14.198 8.81325 14.198ZM5.17725 9.662V9.752C5.17725 10.4 5.71725 11.354 8.39925 11.354C11.3152 11.354 11.6572 10.364 11.6572 9.77V9.662C11.6572 9.014 11.2252 8.15 8.39925 8.15C5.66325 8.15 5.17725 9.014 5.17725 9.662ZM21.8078 10.508V14H17.6138V10.508H21.8078ZM30.656 14V0.608H35.588L39.854 9.68L44.246 0.608H48.872V14H45.254V5.234L41.186 14H38.288L34.22 5.234V14H30.656ZM58.2552 14.27H57.6972C52.3152 14.27 51.4872 10.994 51.4872 9.176V8.924C51.4872 7.124 52.3152 3.74 57.6792 3.74H58.2732C63.8172 3.74 64.4652 7.142 64.4652 8.906V9.194C64.4652 10.994 63.8172 14.27 58.2552 14.27ZM57.8772 11.642H58.0752C60.2892 11.642 60.8472 10.058 60.8472 8.96C60.8472 7.826 60.2892 6.314 58.0752 6.314H57.8772C55.5732 6.314 55.1052 7.826 55.1052 8.96C55.1052 10.058 55.5732 11.642 57.8772 11.642ZM74.8941 14V6.674H70.9341C70.9341 9.356 70.8441 10.85 70.5021 11.768C70.1241 12.776 69.6201 14 66.9741 14H65.8761V11.39H66.0921C66.7221 11.39 67.1901 11.174 67.3881 10.256C67.5321 9.482 67.5861 8.636 67.5861 4.01H78.4041V14H74.8941ZM87.5755 14.27H87.0175C81.6355 14.27 80.8075 10.994 80.8075 9.176V8.924C80.8075 7.124 81.6355 3.74 86.9995 3.74H87.5935C93.1375 3.74 93.7855 7.142 93.7855 8.906V9.194C93.7855 10.994 93.1375 14.27 87.5755 14.27ZM87.1975 11.642H87.3955C89.6095 11.642 90.1675 10.058 90.1675 8.96C90.1675 7.826 89.6095 6.314 87.3955 6.314H87.1975C84.8935 6.314 84.4255 7.826 84.4255 8.96C84.4255 10.058 84.8935 11.642 87.1975 11.642ZM95.1085 16.124V11.336H96.3145C96.9985 9.968 97.1065 6.998 97.1965 4.01H107.763V11.336H109.563V16.124H106.233V14H98.4385V16.124H95.1085ZM99.6265 11.336H104.253V6.674H100.347C100.293 7.97 100.113 9.95 99.6265 11.336ZM117.74 14.27H117.182C111.8 14.27 110.972 10.994 110.972 9.176V8.924C110.972 7.124 111.8 3.74 117.164 3.74H117.758C123.302 3.74 123.95 7.142 123.95 8.906V9.194C123.95 10.994 123.302 14.27 117.74 14.27ZM117.362 11.642H117.56C119.774 11.642 120.332 10.058 120.332 8.96C120.332 7.826 119.774 6.314 117.56 6.314H117.362C115.058 6.314 114.59 7.826 114.59 8.96C114.59 10.058 115.058 11.642 117.362 11.642ZM134.788 7.952L129.964 14H126.364V4.01H129.874V10.058L134.698 4.01H138.298V14H134.788V7.952ZM132.556 2.984H132.016C129.154 2.984 128.65 1.04 128.65 0.104V0.0499994H131.296C131.296 0.284 131.404 1.004 132.304 1.004C133.15 1.004 133.276 0.284 133.276 0.0499994H135.886V0.104C135.886 1.04 135.166 2.984 132.556 2.984ZM157.203 14V3.56H151.443C151.443 7.214 151.281 10.004 150.795 11.462C150.363 12.74 149.589 14 146.925 14H145.593V10.85H145.719C146.817 10.85 147.267 10.346 147.483 9.788C147.843 8.852 147.933 7.574 147.933 0.608H160.911V14H157.203ZM172.441 7.952L167.617 14H164.017V4.01H167.527V10.058L172.351 4.01H175.951V14H172.441V7.952ZM178.042 16.124V11.336H179.248C179.932 9.968 180.04 6.998 180.13 4.01H190.696V11.336H192.496V16.124H189.166V14H181.372V16.124H178.042ZM182.56 11.336H187.186V6.674H183.28C183.226 7.97 183.046 9.95 182.56 11.336ZM200.223 6.08C198.405 6.08 197.721 6.818 197.541 7.862H202.833C202.833 7.124 202.473 6.08 200.223 6.08ZM202.905 10.886H206.559C206.559 11.714 205.911 14.234 200.745 14.234H200.079C195.147 14.234 193.923 11.534 193.923 9.14V8.888C193.923 6.638 195.039 3.794 199.773 3.794H200.565C205.677 3.794 206.595 6.638 206.595 9.428V9.752H197.505C197.649 10.904 198.387 11.84 200.529 11.84C202.563 11.84 202.815 11.048 202.905 10.886ZM218.179 9.014V8.96C218.179 7.88 217.675 6.422 215.479 6.422H215.299C213.193 6.422 212.527 7.808 212.527 8.96V9.014C212.527 10.112 213.193 11.552 215.299 11.552H215.479C217.675 11.552 218.179 10.04 218.179 9.014ZM209.035 17.438V4.01H212.509V5.288C212.941 4.82 214.255 3.812 216.523 3.812H216.757C220.573 3.812 221.815 6.422 221.815 8.798V9.104C221.815 11.282 220.537 14.198 216.739 14.198H216.487C214.201 14.198 212.977 13.154 212.545 12.722V17.438H209.035Z" fill="url(#paint2_radial_10_614)"/>
<path d="M8.81325 14.198H7.93125C1.77525 14.198 0.893248 10.022 0.893248 7.646V7.232C0.893248 5.144 1.86525 0.446 7.93125 0.446H8.47125C13.8892 0.446 14.9872 2.768 14.9872 4.496V4.514H11.3152C11.3152 4.316 11.0632 3.308 8.27325 3.308C5.03325 3.308 4.67325 5.612 4.67325 6.71V6.836C5.01525 6.548 6.16725 5.54 9.22725 5.54H9.62325C13.9612 5.54 15.4732 7.322 15.4732 9.356V9.662C15.4732 11.444 14.5012 14.198 8.81325 14.198ZM5.17725 9.662V9.752C5.17725 10.4 5.71725 11.354 8.39925 11.354C11.3152 11.354 11.6572 10.364 11.6572 9.77V9.662C11.6572 9.014 11.2252 8.15 8.39925 8.15C5.66325 8.15 5.17725 9.014 5.17725 9.662ZM21.8078 10.508V14H17.6138V10.508H21.8078ZM30.656 14V0.608H35.588L39.854 9.68L44.246 0.608H48.872V14H45.254V5.234L41.186 14H38.288L34.22 5.234V14H30.656ZM58.2552 14.27H57.6972C52.3152 14.27 51.4872 10.994 51.4872 9.176V8.924C51.4872 7.124 52.3152 3.74 57.6792 3.74H58.2732C63.8172 3.74 64.4652 7.142 64.4652 8.906V9.194C64.4652 10.994 63.8172 14.27 58.2552 14.27ZM57.8772 11.642H58.0752C60.2892 11.642 60.8472 10.058 60.8472 8.96C60.8472 7.826 60.2892 6.314 58.0752 6.314H57.8772C55.5732 6.314 55.1052 7.826 55.1052 8.96C55.1052 10.058 55.5732 11.642 57.8772 11.642ZM74.8941 14V6.674H70.9341C70.9341 9.356 70.8441 10.85 70.5021 11.768C70.1241 12.776 69.6201 14 66.9741 14H65.8761V11.39H66.0921C66.7221 11.39 67.1901 11.174 67.3881 10.256C67.5321 9.482 67.5861 8.636 67.5861 4.01H78.4041V14H74.8941ZM87.5755 14.27H87.0175C81.6355 14.27 80.8075 10.994 80.8075 9.176V8.924C80.8075 7.124 81.6355 3.74 86.9995 3.74H87.5935C93.1375 3.74 93.7855 7.142 93.7855 8.906V9.194C93.7855 10.994 93.1375 14.27 87.5755 14.27ZM87.1975 11.642H87.3955C89.6095 11.642 90.1675 10.058 90.1675 8.96C90.1675 7.826 89.6095 6.314 87.3955 6.314H87.1975C84.8935 6.314 84.4255 7.826 84.4255 8.96C84.4255 10.058 84.8935 11.642 87.1975 11.642ZM95.1085 16.124V11.336H96.3145C96.9985 9.968 97.1065 6.998 97.1965 4.01H107.763V11.336H109.563V16.124H106.233V14H98.4385V16.124H95.1085ZM99.6265 11.336H104.253V6.674H100.347C100.293 7.97 100.113 9.95 99.6265 11.336ZM117.74 14.27H117.182C111.8 14.27 110.972 10.994 110.972 9.176V8.924C110.972 7.124 111.8 3.74 117.164 3.74H117.758C123.302 3.74 123.95 7.142 123.95 8.906V9.194C123.95 10.994 123.302 14.27 117.74 14.27ZM117.362 11.642H117.56C119.774 11.642 120.332 10.058 120.332 8.96C120.332 7.826 119.774 6.314 117.56 6.314H117.362C115.058 6.314 114.59 7.826 114.59 8.96C114.59 10.058 115.058 11.642 117.362 11.642ZM134.788 7.952L129.964 14H126.364V4.01H129.874V10.058L134.698 4.01H138.298V14H134.788V7.952ZM132.556 2.984H132.016C129.154 2.984 128.65 1.04 128.65 0.104V0.0499994H131.296C131.296 0.284 131.404 1.004 132.304 1.004C133.15 1.004 133.276 0.284 133.276 0.0499994H135.886V0.104C135.886 1.04 135.166 2.984 132.556 2.984ZM157.203 14V3.56H151.443C151.443 7.214 151.281 10.004 150.795 11.462C150.363 12.74 149.589 14 146.925 14H145.593V10.85H145.719C146.817 10.85 147.267 10.346 147.483 9.788C147.843 8.852 147.933 7.574 147.933 0.608H160.911V14H157.203ZM172.441 7.952L167.617 14H164.017V4.01H167.527V10.058L172.351 4.01H175.951V14H172.441V7.952ZM178.042 16.124V11.336H179.248C179.932 9.968 180.04 6.998 180.13 4.01H190.696V11.336H192.496V16.124H189.166V14H181.372V16.124H178.042ZM182.56 11.336H187.186V6.674H183.28C183.226 7.97 183.046 9.95 182.56 11.336ZM200.223 6.08C198.405 6.08 197.721 6.818 197.541 7.862H202.833C202.833 7.124 202.473 6.08 200.223 6.08ZM202.905 10.886H206.559C206.559 11.714 205.911 14.234 200.745 14.234H200.079C195.147 14.234 193.923 11.534 193.923 9.14V8.888C193.923 6.638 195.039 3.794 199.773 3.794H200.565C205.677 3.794 206.595 6.638 206.595 9.428V9.752H197.505C197.649 10.904 198.387 11.84 200.529 11.84C202.563 11.84 202.815 11.048 202.905 10.886ZM218.179 9.014V8.96C218.179 7.88 217.675 6.422 215.479 6.422H215.299C213.193 6.422 212.527 7.808 212.527 8.96V9.014C212.527 10.112 213.193 11.552 215.299 11.552H215.479C217.675 11.552 218.179 10.04 218.179 9.014ZM209.035 17.438V4.01H212.509V5.288C212.941 4.82 214.255 3.812 216.523 3.812H216.757C220.573 3.812 221.815 6.422 221.815 8.798V9.104C221.815 11.282 220.537 14.198 216.739 14.198H216.487C214.201 14.198 212.977 13.154 212.545 12.722V17.438H209.035Z" fill="#C1A875" style="mix-blend-mode:color"/>
<defs>
<linearGradient id="paint0_linear_10_614" x1="2" y1="6" x2="223" y2="6.00001" gradientUnits="userSpaceOnUse">
<stop stop-color="#576167"/>
<stop offset="0.191294" stop-color="#9EA1A2"/>
<stop offset="0.396166" stop-color="#848989"/>
<stop offset="0.62055" stop-color="#576167"/>
<stop offset="0.830299" stop-color="#757A7C"/>
<stop offset="1" stop-color="#576167"/>
</linearGradient>
<radialGradient id="paint1_radial_10_614" cx="0" cy="0" r="1" gradientUnits="userSpaceOnUse" gradientTransform="translate(119.694 -3.20225) rotate(90) scale(17.8315 167.194)">
<stop stop-color="white"/>
<stop offset="1" stop-color="white" stop-opacity="0"/>
</radialGradient>
<radialGradient id="paint2_radial_10_614" cx="0" cy="0" r="1" gradientUnits="userSpaceOnUse" gradientTransform="translate(132.194 23.6629) rotate(-89.2067) scale(25.553 239.06)">
<stop stop-color="white"/>
<stop offset="1" stop-color="white" stop-opacity="0"/>
</radialGradient>
</defs>
</svg>
