<svg width="277" height="18" viewBox="0 0 277 18" fill="none" xmlns="http://www.w3.org/2000/svg">
<path d="M0.0912476 0.608H14.7072V3.38C14.0952 4.28 12.9252 6.026 11.7192 7.862C9.82925 10.706 9.45125 11.894 9.45125 13.64V14H5.40125V13.136C5.40125 10.976 5.95925 9.788 8.31725 7.142C9.90125 5.378 11.4132 3.758 11.4132 3.524H3.74525V5.846H0.0912476V0.608ZM20.8078 10.508V14H16.6138V10.508H20.8078ZM45.064 6.998V7.538C45.064 10.274 43.444 14.198 37.324 14.198H36.496C30.808 14.198 29.008 11.264 29.008 8.816V8.762H32.824C32.878 9.194 33.328 11.21 36.892 11.21C39.412 11.21 40.672 9.968 41.104 8.636H35.002V5.792H41.104C40.672 4.442 39.43 3.38 36.91 3.38C33.382 3.38 32.878 5.36 32.824 5.738H29.008V5.702C29.008 3.164 30.88 0.409999 36.496 0.409999H37.324C43.444 0.409999 45.064 4.208 45.064 6.998ZM55.015 14L51.127 9.374V14H47.617V4.01H51.127V8.006L54.691 4.01H58.741L54.565 8.492L59.191 14H55.015ZM66.4486 14.27H65.8906C60.5086 14.27 59.6806 10.994 59.6806 9.176V8.924C59.6806 7.124 60.5086 3.74 65.8726 3.74H66.4666C72.0106 3.74 72.6586 7.142 72.6586 8.906V9.194C72.6586 10.994 72.0106 14.27 66.4486 14.27ZM66.0706 11.642H66.2686C68.4826 11.642 69.0406 10.058 69.0406 8.96C69.0406 7.826 68.4826 6.314 66.2686 6.314H66.0706C63.7666 6.314 63.2986 7.826 63.2986 8.96C63.2986 10.058 63.7666 11.642 66.0706 11.642ZM74.9472 7.142H80.8692V10.076H74.9472V7.142ZM95.3874 14V5L87.5574 14H83.8494V0.608H87.5574V9.608L95.3874 0.608H99.0954V14H95.3874ZM105.724 14H102.214V4.01H105.724V7.646H110.62V4.01H114.13V14H110.62V10.31H105.724V14ZM120.56 14H117.05V4.01H120.56V7.646H125.456V4.01H128.966V14H125.456V10.31H120.56V14ZM138.15 14.27H137.592C132.21 14.27 131.382 10.994 131.382 9.176V8.924C131.382 7.124 132.21 3.74 137.574 3.74H138.168C143.712 3.74 144.36 7.142 144.36 8.906V9.194C144.36 10.994 143.712 14.27 138.15 14.27ZM137.772 11.642H137.97C140.184 11.642 140.742 10.058 140.742 8.96C140.742 7.826 140.184 6.314 137.97 6.314H137.772C135.468 6.314 135 7.826 135 8.96C135 10.058 135.468 11.642 137.772 11.642ZM155.018 14H146.774V4.01H154.658C156.944 4.01 158.384 4.82 158.384 6.404V6.494C158.384 7.736 157.592 8.474 156.386 8.672C157.61 8.816 158.708 9.68 158.708 11.12V11.192C158.708 13.01 157.52 14 155.018 14ZM150.284 7.988H153.506C154.352 7.988 154.784 7.664 154.784 7.034V6.944C154.784 6.368 154.388 6.026 153.506 6.026H150.284V7.988ZM150.284 11.984H153.65C154.586 11.984 155.108 11.678 155.108 10.976V10.832C155.108 10.202 154.676 9.806 153.65 9.806H150.284V11.984ZM165.781 12.002C167.833 12.002 168.535 10.706 168.535 9.95V9.176C168.229 9.302 167.347 9.482 166.339 9.644C164.647 9.932 164.107 10.166 164.107 10.868V10.904C164.107 11.534 164.557 12.002 165.781 12.002ZM168.643 12.614C168.211 13.136 167.131 14.198 164.791 14.198H164.503C161.713 14.198 160.561 12.686 160.561 11.03V10.958C160.561 9.23 161.659 8.168 165.043 7.88L167.779 7.646C168.337 7.592 168.535 7.412 168.535 6.998C168.535 6.53 168.391 6.026 166.447 6.026C164.611 6.026 164.431 6.746 164.431 7.124H160.831V7.088C160.831 6.098 161.227 3.776 166.141 3.776H166.699C171.649 3.776 171.955 5.81 171.955 7.142V10.436C171.955 11.066 172.081 11.318 172.783 11.318H173.161V14H170.317C169.273 14 168.787 13.262 168.643 12.614ZM177.849 14V6.674H173.979V4.01H185.229V6.674H181.359V14H177.849ZM193.398 14.27H192.84C187.458 14.27 186.63 10.994 186.63 9.176V8.924C186.63 7.124 187.458 3.74 192.822 3.74H193.416C198.96 3.74 199.608 7.142 199.608 8.906V9.194C199.608 10.994 198.96 14.27 193.398 14.27ZM193.02 11.642H193.218C195.432 11.642 195.99 10.058 195.99 8.96C195.99 7.826 195.432 6.314 193.218 6.314H193.02C190.716 6.314 190.248 7.826 190.248 8.96C190.248 10.058 190.716 11.642 193.02 11.642ZM211.202 9.014V8.96C211.202 7.88 210.698 6.422 208.502 6.422H208.322C206.216 6.422 205.55 7.808 205.55 8.96V9.014C205.55 10.112 206.216 11.552 208.322 11.552H208.502C210.698 11.552 211.202 10.04 211.202 9.014ZM202.058 17.438V4.01H205.532V5.288C205.964 4.82 207.278 3.812 209.546 3.812H209.78C213.596 3.812 214.838 6.422 214.838 8.798V9.104C214.838 11.282 213.56 14.198 209.762 14.198H209.51C207.224 14.198 206 13.154 205.568 12.722V17.438H202.058ZM222.681 14V0.608H233.841V3.56H226.389V14H222.681ZM240.665 14.27H240.107C234.725 14.27 233.897 10.994 233.897 9.176V8.924C233.897 7.124 234.725 3.74 240.089 3.74H240.683C246.227 3.74 246.875 7.142 246.875 8.906V9.194C246.875 10.994 246.227 14.27 240.665 14.27ZM240.287 11.642H240.485C242.699 11.642 243.257 10.058 243.257 8.96C243.257 7.826 242.699 6.314 240.485 6.314H240.287C237.983 6.314 237.515 7.826 237.515 8.96C237.515 10.058 237.983 11.642 240.287 11.642ZM248.198 16.124V11.336H249.404C250.088 9.968 250.196 6.998 250.286 4.01H260.852V11.336H262.652V16.124H259.322V14H251.528V16.124H248.198ZM252.716 11.336H257.342V6.674H253.436C253.382 7.97 253.202 9.95 252.716 11.336ZM269.457 12.002C271.509 12.002 272.211 10.706 272.211 9.95V9.176C271.905 9.302 271.023 9.482 270.015 9.644C268.323 9.932 267.783 10.166 267.783 10.868V10.904C267.783 11.534 268.233 12.002 269.457 12.002ZM272.319 12.614C271.887 13.136 270.807 14.198 268.467 14.198H268.179C265.389 14.198 264.237 12.686 264.237 11.03V10.958C264.237 9.23 265.335 8.168 268.719 7.88L271.455 7.646C272.013 7.592 272.211 7.412 272.211 6.998C272.211 6.53 272.067 6.026 270.123 6.026C268.287 6.026 268.107 6.746 268.107 7.124H264.507V7.088C264.507 6.098 264.903 3.776 269.817 3.776H270.375C275.325 3.776 275.631 5.81 275.631 7.142V10.436C275.631 11.066 275.757 11.318 276.459 11.318H276.837V14H273.993C272.949 14 272.463 13.262 272.319 12.614Z" fill="url(#paint0_linear_10_617)"/>
<path d="M0.0912476 0.608H14.7072V3.38C14.0952 4.28 12.9252 6.026 11.7192 7.862C9.82925 10.706 9.45125 11.894 9.45125 13.64V14H5.40125V13.136C5.40125 10.976 5.95925 9.788 8.31725 7.142C9.90125 5.378 11.4132 3.758 11.4132 3.524H3.74525V5.846H0.0912476V0.608ZM20.8078 10.508V14H16.6138V10.508H20.8078ZM45.064 6.998V7.538C45.064 10.274 43.444 14.198 37.324 14.198H36.496C30.808 14.198 29.008 11.264 29.008 8.816V8.762H32.824C32.878 9.194 33.328 11.21 36.892 11.21C39.412 11.21 40.672 9.968 41.104 8.636H35.002V5.792H41.104C40.672 4.442 39.43 3.38 36.91 3.38C33.382 3.38 32.878 5.36 32.824 5.738H29.008V5.702C29.008 3.164 30.88 0.409999 36.496 0.409999H37.324C43.444 0.409999 45.064 4.208 45.064 6.998ZM55.015 14L51.127 9.374V14H47.617V4.01H51.127V8.006L54.691 4.01H58.741L54.565 8.492L59.191 14H55.015ZM66.4486 14.27H65.8906C60.5086 14.27 59.6806 10.994 59.6806 9.176V8.924C59.6806 7.124 60.5086 3.74 65.8726 3.74H66.4666C72.0106 3.74 72.6586 7.142 72.6586 8.906V9.194C72.6586 10.994 72.0106 14.27 66.4486 14.27ZM66.0706 11.642H66.2686C68.4826 11.642 69.0406 10.058 69.0406 8.96C69.0406 7.826 68.4826 6.314 66.2686 6.314H66.0706C63.7666 6.314 63.2986 7.826 63.2986 8.96C63.2986 10.058 63.7666 11.642 66.0706 11.642ZM74.9472 7.142H80.8692V10.076H74.9472V7.142ZM95.3874 14V5L87.5574 14H83.8494V0.608H87.5574V9.608L95.3874 0.608H99.0954V14H95.3874ZM105.724 14H102.214V4.01H105.724V7.646H110.62V4.01H114.13V14H110.62V10.31H105.724V14ZM120.56 14H117.05V4.01H120.56V7.646H125.456V4.01H128.966V14H125.456V10.31H120.56V14ZM138.15 14.27H137.592C132.21 14.27 131.382 10.994 131.382 9.176V8.924C131.382 7.124 132.21 3.74 137.574 3.74H138.168C143.712 3.74 144.36 7.142 144.36 8.906V9.194C144.36 10.994 143.712 14.27 138.15 14.27ZM137.772 11.642H137.97C140.184 11.642 140.742 10.058 140.742 8.96C140.742 7.826 140.184 6.314 137.97 6.314H137.772C135.468 6.314 135 7.826 135 8.96C135 10.058 135.468 11.642 137.772 11.642ZM155.018 14H146.774V4.01H154.658C156.944 4.01 158.384 4.82 158.384 6.404V6.494C158.384 7.736 157.592 8.474 156.386 8.672C157.61 8.816 158.708 9.68 158.708 11.12V11.192C158.708 13.01 157.52 14 155.018 14ZM150.284 7.988H153.506C154.352 7.988 154.784 7.664 154.784 7.034V6.944C154.784 6.368 154.388 6.026 153.506 6.026H150.284V7.988ZM150.284 11.984H153.65C154.586 11.984 155.108 11.678 155.108 10.976V10.832C155.108 10.202 154.676 9.806 153.65 9.806H150.284V11.984ZM165.781 12.002C167.833 12.002 168.535 10.706 168.535 9.95V9.176C168.229 9.302 167.347 9.482 166.339 9.644C164.647 9.932 164.107 10.166 164.107 10.868V10.904C164.107 11.534 164.557 12.002 165.781 12.002ZM168.643 12.614C168.211 13.136 167.131 14.198 164.791 14.198H164.503C161.713 14.198 160.561 12.686 160.561 11.03V10.958C160.561 9.23 161.659 8.168 165.043 7.88L167.779 7.646C168.337 7.592 168.535 7.412 168.535 6.998C168.535 6.53 168.391 6.026 166.447 6.026C164.611 6.026 164.431 6.746 164.431 7.124H160.831V7.088C160.831 6.098 161.227 3.776 166.141 3.776H166.699C171.649 3.776 171.955 5.81 171.955 7.142V10.436C171.955 11.066 172.081 11.318 172.783 11.318H173.161V14H170.317C169.273 14 168.787 13.262 168.643 12.614ZM177.849 14V6.674H173.979V4.01H185.229V6.674H181.359V14H177.849ZM193.398 14.27H192.84C187.458 14.27 186.63 10.994 186.63 9.176V8.924C186.63 7.124 187.458 3.74 192.822 3.74H193.416C198.96 3.74 199.608 7.142 199.608 8.906V9.194C199.608 10.994 198.96 14.27 193.398 14.27ZM193.02 11.642H193.218C195.432 11.642 195.99 10.058 195.99 8.96C195.99 7.826 195.432 6.314 193.218 6.314H193.02C190.716 6.314 190.248 7.826 190.248 8.96C190.248 10.058 190.716 11.642 193.02 11.642ZM211.202 9.014V8.96C211.202 7.88 210.698 6.422 208.502 6.422H208.322C206.216 6.422 205.55 7.808 205.55 8.96V9.014C205.55 10.112 206.216 11.552 208.322 11.552H208.502C210.698 11.552 211.202 10.04 211.202 9.014ZM202.058 17.438V4.01H205.532V5.288C205.964 4.82 207.278 3.812 209.546 3.812H209.78C213.596 3.812 214.838 6.422 214.838 8.798V9.104C214.838 11.282 213.56 14.198 209.762 14.198H209.51C207.224 14.198 206 13.154 205.568 12.722V17.438H202.058ZM222.681 14V0.608H233.841V3.56H226.389V14H222.681ZM240.665 14.27H240.107C234.725 14.27 233.897 10.994 233.897 9.176V8.924C233.897 7.124 234.725 3.74 240.089 3.74H240.683C246.227 3.74 246.875 7.142 246.875 8.906V9.194C246.875 10.994 246.227 14.27 240.665 14.27ZM240.287 11.642H240.485C242.699 11.642 243.257 10.058 243.257 8.96C243.257 7.826 242.699 6.314 240.485 6.314H240.287C237.983 6.314 237.515 7.826 237.515 8.96C237.515 10.058 237.983 11.642 240.287 11.642ZM248.198 16.124V11.336H249.404C250.088 9.968 250.196 6.998 250.286 4.01H260.852V11.336H262.652V16.124H259.322V14H251.528V16.124H248.198ZM252.716 11.336H257.342V6.674H253.436C253.382 7.97 253.202 9.95 252.716 11.336ZM269.457 12.002C271.509 12.002 272.211 10.706 272.211 9.95V9.176C271.905 9.302 271.023 9.482 270.015 9.644C268.323 9.932 267.783 10.166 267.783 10.868V10.904C267.783 11.534 268.233 12.002 269.457 12.002ZM272.319 12.614C271.887 13.136 270.807 14.198 268.467 14.198H268.179C265.389 14.198 264.237 12.686 264.237 11.03V10.958C264.237 9.23 265.335 8.168 268.719 7.88L271.455 7.646C272.013 7.592 272.211 7.412 272.211 6.998C272.211 6.53 272.067 6.026 270.123 6.026C268.287 6.026 268.107 6.746 268.107 7.124H264.507V7.088C264.507 6.098 264.903 3.776 269.817 3.776H270.375C275.325 3.776 275.631 5.81 275.631 7.142V10.436C275.631 11.066 275.757 11.318 276.459 11.318H276.837V14H273.993C272.949 14 272.463 13.262 272.319 12.614Z" fill="url(#paint1_radial_10_617)" style="mix-blend-mode:overlay"/>
<path d="M0.0912476 0.608H14.7072V3.38C14.0952 4.28 12.9252 6.026 11.7192 7.862C9.82925 10.706 9.45125 11.894 9.45125 13.64V14H5.40125V13.136C5.40125 10.976 5.95925 9.788 8.31725 7.142C9.90125 5.378 11.4132 3.758 11.4132 3.524H3.74525V5.846H0.0912476V0.608ZM20.8078 10.508V14H16.6138V10.508H20.8078ZM45.064 6.998V7.538C45.064 10.274 43.444 14.198 37.324 14.198H36.496C30.808 14.198 29.008 11.264 29.008 8.816V8.762H32.824C32.878 9.194 33.328 11.21 36.892 11.21C39.412 11.21 40.672 9.968 41.104 8.636H35.002V5.792H41.104C40.672 4.442 39.43 3.38 36.91 3.38C33.382 3.38 32.878 5.36 32.824 5.738H29.008V5.702C29.008 3.164 30.88 0.409999 36.496 0.409999H37.324C43.444 0.409999 45.064 4.208 45.064 6.998ZM55.015 14L51.127 9.374V14H47.617V4.01H51.127V8.006L54.691 4.01H58.741L54.565 8.492L59.191 14H55.015ZM66.4486 14.27H65.8906C60.5086 14.27 59.6806 10.994 59.6806 9.176V8.924C59.6806 7.124 60.5086 3.74 65.8726 3.74H66.4666C72.0106 3.74 72.6586 7.142 72.6586 8.906V9.194C72.6586 10.994 72.0106 14.27 66.4486 14.27ZM66.0706 11.642H66.2686C68.4826 11.642 69.0406 10.058 69.0406 8.96C69.0406 7.826 68.4826 6.314 66.2686 6.314H66.0706C63.7666 6.314 63.2986 7.826 63.2986 8.96C63.2986 10.058 63.7666 11.642 66.0706 11.642ZM74.9472 7.142H80.8692V10.076H74.9472V7.142ZM95.3874 14V5L87.5574 14H83.8494V0.608H87.5574V9.608L95.3874 0.608H99.0954V14H95.3874ZM105.724 14H102.214V4.01H105.724V7.646H110.62V4.01H114.13V14H110.62V10.31H105.724V14ZM120.56 14H117.05V4.01H120.56V7.646H125.456V4.01H128.966V14H125.456V10.31H120.56V14ZM138.15 14.27H137.592C132.21 14.27 131.382 10.994 131.382 9.176V8.924C131.382 7.124 132.21 3.74 137.574 3.74H138.168C143.712 3.74 144.36 7.142 144.36 8.906V9.194C144.36 10.994 143.712 14.27 138.15 14.27ZM137.772 11.642H137.97C140.184 11.642 140.742 10.058 140.742 8.96C140.742 7.826 140.184 6.314 137.97 6.314H137.772C135.468 6.314 135 7.826 135 8.96C135 10.058 135.468 11.642 137.772 11.642ZM155.018 14H146.774V4.01H154.658C156.944 4.01 158.384 4.82 158.384 6.404V6.494C158.384 7.736 157.592 8.474 156.386 8.672C157.61 8.816 158.708 9.68 158.708 11.12V11.192C158.708 13.01 157.52 14 155.018 14ZM150.284 7.988H153.506C154.352 7.988 154.784 7.664 154.784 7.034V6.944C154.784 6.368 154.388 6.026 153.506 6.026H150.284V7.988ZM150.284 11.984H153.65C154.586 11.984 155.108 11.678 155.108 10.976V10.832C155.108 10.202 154.676 9.806 153.65 9.806H150.284V11.984ZM165.781 12.002C167.833 12.002 168.535 10.706 168.535 9.95V9.176C168.229 9.302 167.347 9.482 166.339 9.644C164.647 9.932 164.107 10.166 164.107 10.868V10.904C164.107 11.534 164.557 12.002 165.781 12.002ZM168.643 12.614C168.211 13.136 167.131 14.198 164.791 14.198H164.503C161.713 14.198 160.561 12.686 160.561 11.03V10.958C160.561 9.23 161.659 8.168 165.043 7.88L167.779 7.646C168.337 7.592 168.535 7.412 168.535 6.998C168.535 6.53 168.391 6.026 166.447 6.026C164.611 6.026 164.431 6.746 164.431 7.124H160.831V7.088C160.831 6.098 161.227 3.776 166.141 3.776H166.699C171.649 3.776 171.955 5.81 171.955 7.142V10.436C171.955 11.066 172.081 11.318 172.783 11.318H173.161V14H170.317C169.273 14 168.787 13.262 168.643 12.614ZM177.849 14V6.674H173.979V4.01H185.229V6.674H181.359V14H177.849ZM193.398 14.27H192.84C187.458 14.27 186.63 10.994 186.63 9.176V8.924C186.63 7.124 187.458 3.74 192.822 3.74H193.416C198.96 3.74 199.608 7.142 199.608 8.906V9.194C199.608 10.994 198.96 14.27 193.398 14.27ZM193.02 11.642H193.218C195.432 11.642 195.99 10.058 195.99 8.96C195.99 7.826 195.432 6.314 193.218 6.314H193.02C190.716 6.314 190.248 7.826 190.248 8.96C190.248 10.058 190.716 11.642 193.02 11.642ZM211.202 9.014V8.96C211.202 7.88 210.698 6.422 208.502 6.422H208.322C206.216 6.422 205.55 7.808 205.55 8.96V9.014C205.55 10.112 206.216 11.552 208.322 11.552H208.502C210.698 11.552 211.202 10.04 211.202 9.014ZM202.058 17.438V4.01H205.532V5.288C205.964 4.82 207.278 3.812 209.546 3.812H209.78C213.596 3.812 214.838 6.422 214.838 8.798V9.104C214.838 11.282 213.56 14.198 209.762 14.198H209.51C207.224 14.198 206 13.154 205.568 12.722V17.438H202.058ZM222.681 14V0.608H233.841V3.56H226.389V14H222.681ZM240.665 14.27H240.107C234.725 14.27 233.897 10.994 233.897 9.176V8.924C233.897 7.124 234.725 3.74 240.089 3.74H240.683C246.227 3.74 246.875 7.142 246.875 8.906V9.194C246.875 10.994 246.227 14.27 240.665 14.27ZM240.287 11.642H240.485C242.699 11.642 243.257 10.058 243.257 8.96C243.257 7.826 242.699 6.314 240.485 6.314H240.287C237.983 6.314 237.515 7.826 237.515 8.96C237.515 10.058 237.983 11.642 240.287 11.642ZM248.198 16.124V11.336H249.404C250.088 9.968 250.196 6.998 250.286 4.01H260.852V11.336H262.652V16.124H259.322V14H251.528V16.124H248.198ZM252.716 11.336H257.342V6.674H253.436C253.382 7.97 253.202 9.95 252.716 11.336ZM269.457 12.002C271.509 12.002 272.211 10.706 272.211 9.95V9.176C271.905 9.302 271.023 9.482 270.015 9.644C268.323 9.932 267.783 10.166 267.783 10.868V10.904C267.783 11.534 268.233 12.002 269.457 12.002ZM272.319 12.614C271.887 13.136 270.807 14.198 268.467 14.198H268.179C265.389 14.198 264.237 12.686 264.237 11.03V10.958C264.237 9.23 265.335 8.168 268.719 7.88L271.455 7.646C272.013 7.592 272.211 7.412 272.211 6.998C272.211 6.53 272.067 6.026 270.123 6.026C268.287 6.026 268.107 6.746 268.107 7.124H264.507V7.088C264.507 6.098 264.903 3.776 269.817 3.776H270.375C275.325 3.776 275.631 5.81 275.631 7.142V10.436C275.631 11.066 275.757 11.318 276.459 11.318H276.837V14H273.993C272.949 14 272.463 13.262 272.319 12.614Z" fill="url(#paint2_radial_10_617)"/>
<path d="M0.0912476 0.608H14.7072V3.38C14.0952 4.28 12.9252 6.026 11.7192 7.862C9.82925 10.706 9.45125 11.894 9.45125 13.64V14H5.40125V13.136C5.40125 10.976 5.95925 9.788 8.31725 7.142C9.90125 5.378 11.4132 3.758 11.4132 3.524H3.74525V5.846H0.0912476V0.608ZM20.8078 10.508V14H16.6138V10.508H20.8078ZM45.064 6.998V7.538C45.064 10.274 43.444 14.198 37.324 14.198H36.496C30.808 14.198 29.008 11.264 29.008 8.816V8.762H32.824C32.878 9.194 33.328 11.21 36.892 11.21C39.412 11.21 40.672 9.968 41.104 8.636H35.002V5.792H41.104C40.672 4.442 39.43 3.38 36.91 3.38C33.382 3.38 32.878 5.36 32.824 5.738H29.008V5.702C29.008 3.164 30.88 0.409999 36.496 0.409999H37.324C43.444 0.409999 45.064 4.208 45.064 6.998ZM55.015 14L51.127 9.374V14H47.617V4.01H51.127V8.006L54.691 4.01H58.741L54.565 8.492L59.191 14H55.015ZM66.4486 14.27H65.8906C60.5086 14.27 59.6806 10.994 59.6806 9.176V8.924C59.6806 7.124 60.5086 3.74 65.8726 3.74H66.4666C72.0106 3.74 72.6586 7.142 72.6586 8.906V9.194C72.6586 10.994 72.0106 14.27 66.4486 14.27ZM66.0706 11.642H66.2686C68.4826 11.642 69.0406 10.058 69.0406 8.96C69.0406 7.826 68.4826 6.314 66.2686 6.314H66.0706C63.7666 6.314 63.2986 7.826 63.2986 8.96C63.2986 10.058 63.7666 11.642 66.0706 11.642ZM74.9472 7.142H80.8692V10.076H74.9472V7.142ZM95.3874 14V5L87.5574 14H83.8494V0.608H87.5574V9.608L95.3874 0.608H99.0954V14H95.3874ZM105.724 14H102.214V4.01H105.724V7.646H110.62V4.01H114.13V14H110.62V10.31H105.724V14ZM120.56 14H117.05V4.01H120.56V7.646H125.456V4.01H128.966V14H125.456V10.31H120.56V14ZM138.15 14.27H137.592C132.21 14.27 131.382 10.994 131.382 9.176V8.924C131.382 7.124 132.21 3.74 137.574 3.74H138.168C143.712 3.74 144.36 7.142 144.36 8.906V9.194C144.36 10.994 143.712 14.27 138.15 14.27ZM137.772 11.642H137.97C140.184 11.642 140.742 10.058 140.742 8.96C140.742 7.826 140.184 6.314 137.97 6.314H137.772C135.468 6.314 135 7.826 135 8.96C135 10.058 135.468 11.642 137.772 11.642ZM155.018 14H146.774V4.01H154.658C156.944 4.01 158.384 4.82 158.384 6.404V6.494C158.384 7.736 157.592 8.474 156.386 8.672C157.61 8.816 158.708 9.68 158.708 11.12V11.192C158.708 13.01 157.52 14 155.018 14ZM150.284 7.988H153.506C154.352 7.988 154.784 7.664 154.784 7.034V6.944C154.784 6.368 154.388 6.026 153.506 6.026H150.284V7.988ZM150.284 11.984H153.65C154.586 11.984 155.108 11.678 155.108 10.976V10.832C155.108 10.202 154.676 9.806 153.65 9.806H150.284V11.984ZM165.781 12.002C167.833 12.002 168.535 10.706 168.535 9.95V9.176C168.229 9.302 167.347 9.482 166.339 9.644C164.647 9.932 164.107 10.166 164.107 10.868V10.904C164.107 11.534 164.557 12.002 165.781 12.002ZM168.643 12.614C168.211 13.136 167.131 14.198 164.791 14.198H164.503C161.713 14.198 160.561 12.686 160.561 11.03V10.958C160.561 9.23 161.659 8.168 165.043 7.88L167.779 7.646C168.337 7.592 168.535 7.412 168.535 6.998C168.535 6.53 168.391 6.026 166.447 6.026C164.611 6.026 164.431 6.746 164.431 7.124H160.831V7.088C160.831 6.098 161.227 3.776 166.141 3.776H166.699C171.649 3.776 171.955 5.81 171.955 7.142V10.436C171.955 11.066 172.081 11.318 172.783 11.318H173.161V14H170.317C169.273 14 168.787 13.262 168.643 12.614ZM177.849 14V6.674H173.979V4.01H185.229V6.674H181.359V14H177.849ZM193.398 14.27H192.84C187.458 14.27 186.63 10.994 186.63 9.176V8.924C186.63 7.124 187.458 3.74 192.822 3.74H193.416C198.96 3.74 199.608 7.142 199.608 8.906V9.194C199.608 10.994 198.96 14.27 193.398 14.27ZM193.02 11.642H193.218C195.432 11.642 195.99 10.058 195.99 8.96C195.99 7.826 195.432 6.314 193.218 6.314H193.02C190.716 6.314 190.248 7.826 190.248 8.96C190.248 10.058 190.716 11.642 193.02 11.642ZM211.202 9.014V8.96C211.202 7.88 210.698 6.422 208.502 6.422H208.322C206.216 6.422 205.55 7.808 205.55 8.96V9.014C205.55 10.112 206.216 11.552 208.322 11.552H208.502C210.698 11.552 211.202 10.04 211.202 9.014ZM202.058 17.438V4.01H205.532V5.288C205.964 4.82 207.278 3.812 209.546 3.812H209.78C213.596 3.812 214.838 6.422 214.838 8.798V9.104C214.838 11.282 213.56 14.198 209.762 14.198H209.51C207.224 14.198 206 13.154 205.568 12.722V17.438H202.058ZM222.681 14V0.608H233.841V3.56H226.389V14H222.681ZM240.665 14.27H240.107C234.725 14.27 233.897 10.994 233.897 9.176V8.924C233.897 7.124 234.725 3.74 240.089 3.74H240.683C246.227 3.74 246.875 7.142 246.875 8.906V9.194C246.875 10.994 246.227 14.27 240.665 14.27ZM240.287 11.642H240.485C242.699 11.642 243.257 10.058 243.257 8.96C243.257 7.826 242.699 6.314 240.485 6.314H240.287C237.983 6.314 237.515 7.826 237.515 8.96C237.515 10.058 237.983 11.642 240.287 11.642ZM248.198 16.124V11.336H249.404C250.088 9.968 250.196 6.998 250.286 4.01H260.852V11.336H262.652V16.124H259.322V14H251.528V16.124H248.198ZM252.716 11.336H257.342V6.674H253.436C253.382 7.97 253.202 9.95 252.716 11.336ZM269.457 12.002C271.509 12.002 272.211 10.706 272.211 9.95V9.176C271.905 9.302 271.023 9.482 270.015 9.644C268.323 9.932 267.783 10.166 267.783 10.868V10.904C267.783 11.534 268.233 12.002 269.457 12.002ZM272.319 12.614C271.887 13.136 270.807 14.198 268.467 14.198H268.179C265.389 14.198 264.237 12.686 264.237 11.03V10.958C264.237 9.23 265.335 8.168 268.719 7.88L271.455 7.646C272.013 7.592 272.211 7.412 272.211 6.998C272.211 6.53 272.067 6.026 270.123 6.026C268.287 6.026 268.107 6.746 268.107 7.124H264.507V7.088C264.507 6.098 264.903 3.776 269.817 3.776H270.375C275.325 3.776 275.631 5.81 275.631 7.142V10.436C275.631 11.066 275.757 11.318 276.459 11.318H276.837V14H273.993C272.949 14 272.463 13.262 272.319 12.614Z" fill="#C1A875" style="mix-blend-mode:color"/>
<defs>
<linearGradient id="paint0_linear_10_617" x1="1" y1="6" x2="278" y2="6.00002" gradientUnits="userSpaceOnUse">
<stop stop-color="#576167"/>
<stop offset="0.191294" stop-color="#9EA1A2"/>
<stop offset="0.396166" stop-color="#848989"/>
<stop offset="0.62055" stop-color="#576167"/>
<stop offset="0.830299" stop-color="#757A7C"/>
<stop offset="1" stop-color="#576167"/>
</linearGradient>
<radialGradient id="paint1_radial_10_617" cx="0" cy="0" r="1" gradientUnits="userSpaceOnUse" gradientTransform="translate(148.517 -3.20225) rotate(90) scale(17.8315 209.559)">
<stop stop-color="white"/>
<stop offset="1" stop-color="white" stop-opacity="0"/>
</radialGradient>
<radialGradient id="paint2_radial_10_617" cx="0" cy="0" r="1" gradientUnits="userSpaceOnUse" gradientTransform="translate(164.185 23.6629) rotate(-89.0057) scale(25.5544 299.62)">
<stop stop-color="white"/>
<stop offset="1" stop-color="white" stop-opacity="0"/>
</radialGradient>
</defs>
</svg>
