<svg width="351" height="18" viewBox="0 0 351 18" fill="none" xmlns="http://www.w3.org/2000/svg">
<path d="M7.76925 0.481999H8.52525C14.5192 0.481999 15.0772 2.714 15.0772 4.082V4.298C15.0772 5.756 13.7272 6.746 12.3952 6.98C14.0152 7.268 15.4012 8.33 15.4012 9.968V10.202C15.4012 11.66 14.6632 14.216 8.52525 14.216H7.76925C1.59525 14.216 0.893248 11.66 0.893248 10.202V9.968C0.893248 8.33 2.29725 7.268 3.88125 6.98C2.58525 6.746 1.21725 5.846 1.21725 4.298V4.082C1.21725 2.714 1.81125 0.481999 7.76925 0.481999ZM8.14725 3.2C5.48325 3.2 5.12325 3.938 5.12325 4.442V4.514C5.12325 5.036 5.50125 5.684 8.14725 5.684C10.8112 5.684 11.1532 5.036 11.1532 4.514V4.442C11.1532 3.938 10.8292 3.2 8.14725 3.2ZM8.14725 8.42C5.19525 8.42 4.79925 9.212 4.79925 9.77V9.824C4.79925 10.436 5.19525 11.336 8.14725 11.336C11.0992 11.336 11.4952 10.436 11.4952 9.824V9.77C11.4952 9.212 11.0992 8.42 8.14725 8.42ZM21.8078 10.508V14H17.6138V10.508H21.8078ZM41.24 14V3.56H35.48C35.48 7.214 35.318 10.004 34.832 11.462C34.4 12.74 33.626 14 30.962 14H29.63V10.85H29.756C30.854 10.85 31.304 10.346 31.52 9.788C31.88 8.852 31.97 7.574 31.97 0.608H44.948V14H41.24ZM56.4777 7.952L51.6537 14H48.0537V4.01H51.5637V10.058L56.3877 4.01H59.9877V14H56.4777V7.952ZM62.0792 16.124V11.336H63.2852C63.9692 9.968 64.0772 6.998 64.1672 4.01H74.7332V11.336H76.5332V16.124H73.2032V14H65.4092V16.124H62.0792ZM66.5972 11.336H71.2232V6.674H67.3172C67.2632 7.97 67.0832 9.95 66.5972 11.336ZM84.2603 6.08C82.4423 6.08 81.7583 6.818 81.5783 7.862H86.8703C86.8703 7.124 86.5103 6.08 84.2603 6.08ZM86.9423 10.886H90.5963C90.5963 11.714 89.9483 14.234 84.7823 14.234H84.1163C79.1843 14.234 77.9603 11.534 77.9603 9.14V8.888C77.9603 6.638 79.0763 3.794 83.8103 3.794H84.6023C89.7143 3.794 90.6323 6.638 90.6323 9.428V9.752H81.5423C81.6863 10.904 82.4243 11.84 84.5663 11.84C86.6003 11.84 86.8523 11.048 86.9423 10.886ZM102.216 9.014V8.96C102.216 7.88 101.712 6.422 99.5161 6.422H99.3361C97.2301 6.422 96.5641 7.808 96.5641 8.96V9.014C96.5641 10.112 97.2301 11.552 99.3361 11.552H99.5161C101.712 11.552 102.216 10.04 102.216 9.014ZM93.0721 17.438V4.01H96.5461V5.288C96.9781 4.82 98.2921 3.812 100.56 3.812H100.794C104.61 3.812 105.852 6.422 105.852 8.798V9.104C105.852 11.282 104.574 14.198 100.776 14.198H100.524C98.2381 14.198 97.0141 13.154 96.5821 12.722V17.438H93.0721ZM121.741 14H113.497V4.01H121.381C123.667 4.01 125.107 4.82 125.107 6.404V6.494C125.107 7.736 124.315 8.474 123.109 8.672C124.333 8.816 125.431 9.68 125.431 11.12V11.192C125.431 13.01 124.243 14 121.741 14ZM117.007 7.988H120.229C121.075 7.988 121.507 7.664 121.507 7.034V6.944C121.507 6.368 121.111 6.026 120.229 6.026H117.007V7.988ZM117.007 11.984H120.373C121.309 11.984 121.831 11.678 121.831 10.976V10.832C121.831 10.202 121.399 9.806 120.373 9.806H117.007V11.984ZM139.343 14.27H138.785C133.403 14.27 132.575 10.994 132.575 9.176V8.924C132.575 7.124 133.403 3.74 138.767 3.74H139.361C144.905 3.74 145.553 7.142 145.553 8.906V9.194C145.553 10.994 144.905 14.27 139.343 14.27ZM138.965 11.642H139.163C141.377 11.642 141.935 10.058 141.935 8.96C141.935 7.826 141.377 6.314 139.163 6.314H138.965C136.661 6.314 136.193 7.826 136.193 8.96C136.193 10.058 136.661 11.642 138.965 11.642ZM160.442 9.122V9.356C160.442 13.1 157.598 14.27 154.196 14.27H153.836C150.326 14.27 147.464 12.902 147.464 8.15V7.088C147.464 2.282 149.858 0.698 154.538 0.698H155.348C156.464 0.698 156.536 0.589999 156.572 0.373999H160.01C160.01 2.48 159.218 3.362 156.77 3.362H154.538C151.946 3.362 150.956 4.172 150.902 5.99C151.82 5.036 153.224 4.388 155.438 4.388H155.546C157.922 4.388 160.442 5.594 160.442 9.122ZM153.872 11.642H154.07C155.654 11.642 156.824 10.85 156.824 9.212C156.824 7.628 155.636 6.854 154.088 6.854H153.872C152.144 6.854 151.082 7.592 151.082 9.23C151.082 10.886 152.162 11.642 153.872 11.642ZM170.871 14V6.674H166.911C166.911 9.356 166.821 10.85 166.479 11.768C166.101 12.776 165.597 14 162.951 14H161.853V11.39H162.069C162.699 11.39 163.167 11.174 163.365 10.256C163.509 9.482 163.563 8.636 163.563 4.01H174.381V14H170.871ZM182.004 12.002C184.056 12.002 184.758 10.706 184.758 9.95V9.176C184.452 9.302 183.57 9.482 182.562 9.644C180.87 9.932 180.33 10.166 180.33 10.868V10.904C180.33 11.534 180.78 12.002 182.004 12.002ZM184.866 12.614C184.434 13.136 183.354 14.198 181.014 14.198H180.726C177.936 14.198 176.784 12.686 176.784 11.03V10.958C176.784 9.23 177.882 8.168 181.266 7.88L184.002 7.646C184.56 7.592 184.758 7.412 184.758 6.998C184.758 6.53 184.614 6.026 182.67 6.026C180.834 6.026 180.654 6.746 180.654 7.124H177.054V7.088C177.054 6.098 177.45 3.776 182.364 3.776H182.922C187.872 3.776 188.178 5.81 188.178 7.142V10.436C188.178 11.066 188.304 11.318 189.006 11.318H189.384V14H186.54C185.496 14 185.01 13.262 184.866 12.614ZM199.738 10.076H203.41C203.41 11.588 202.51 14.27 197.704 14.27H196.822C191.836 14.27 190.9 11.03 190.9 9.14V8.888C190.9 6.998 191.782 3.74 196.804 3.74H197.632C202.456 3.74 203.41 6.368 203.41 7.808V7.826H199.738C199.684 7.538 199.342 6.296 197.272 6.296H197.092C195.022 6.296 194.536 7.718 194.536 8.924V8.942C194.536 10.184 195.13 11.66 197.164 11.66H197.344C199.432 11.66 199.738 10.31 199.738 10.076ZM208.662 14V6.674H204.792V4.01H216.042V6.674H212.172V14H208.662ZM226.37 7.952L221.546 14H217.946V4.01H221.456V10.058L226.28 4.01H229.88V14H226.37V7.952ZM250.477 9.122V9.356C250.477 13.1 247.633 14.27 244.231 14.27H243.871C240.361 14.27 237.499 12.902 237.499 8.15V7.088C237.499 2.282 239.893 0.698 244.573 0.698H245.383C246.499 0.698 246.571 0.589999 246.607 0.373999H250.045C250.045 2.48 249.253 3.362 246.805 3.362H244.573C241.981 3.362 240.991 4.172 240.937 5.99C241.855 5.036 243.259 4.388 245.473 4.388H245.581C247.957 4.388 250.477 5.594 250.477 9.122ZM243.907 11.642H244.105C245.689 11.642 246.859 10.85 246.859 9.212C246.859 7.628 245.671 6.854 244.123 6.854H243.907C242.179 6.854 241.117 7.592 241.117 9.23C241.117 10.886 242.197 11.642 243.907 11.642ZM260.906 14V6.674H256.946C256.946 9.356 256.856 10.85 256.514 11.768C256.136 12.776 255.632 14 252.986 14H251.888V11.39H252.104C252.734 11.39 253.202 11.174 253.4 10.256C253.544 9.482 253.598 8.636 253.598 4.01H264.416V14H260.906ZM273.587 14.27H273.029C267.647 14.27 266.819 10.994 266.819 9.176V8.924C266.819 7.124 267.647 3.74 273.011 3.74H273.605C279.149 3.74 279.797 7.142 279.797 8.906V9.194C279.797 10.994 279.149 14.27 273.587 14.27ZM273.209 11.642H273.407C275.621 11.642 276.179 10.058 276.179 8.96C276.179 7.826 275.621 6.314 273.407 6.314H273.209C270.905 6.314 270.437 7.826 270.437 8.96C270.437 10.058 270.905 11.642 273.209 11.642ZM289.646 14L285.758 9.374V14H282.248V4.01H285.758V8.006L289.322 4.01H293.372L289.196 8.492L293.822 14H289.646ZM302.688 4.01H306.198V14H302.688V10.562C301.914 10.652 301.014 10.742 300.078 10.742C296.118 10.742 294.624 9.626 294.624 6.458V4.01H298.134V5.81C298.134 7.682 298.764 8.006 300.618 8.006C301.32 8.006 302.13 7.952 302.688 7.88V4.01ZM314.92 6.08C313.102 6.08 312.418 6.818 312.238 7.862H317.53C317.53 7.124 317.17 6.08 314.92 6.08ZM317.602 10.886H321.256C321.256 11.714 320.608 14.234 315.442 14.234H314.776C309.844 14.234 308.62 11.534 308.62 9.14V8.888C308.62 6.638 309.736 3.794 314.47 3.794H315.262C320.374 3.794 321.292 6.638 321.292 9.428V9.752H312.202C312.346 10.904 313.084 11.84 315.226 11.84C317.26 11.84 317.512 11.048 317.602 10.886ZM332.12 7.952L327.296 14H323.696V4.01H327.206V10.058L332.03 4.01H335.63V14H332.12V7.952ZM329.888 2.984H329.348C326.486 2.984 325.982 1.04 325.982 0.104V0.0499994H328.628C328.628 0.284 328.736 1.004 329.636 1.004C330.482 1.004 330.608 0.284 330.608 0.0499994H333.218V0.104C333.218 1.04 332.498 2.984 329.888 2.984ZM342.06 14H338.55V4.01H342.06V7.646H346.956V4.01H350.466V14H346.956V10.31H342.06V14Z" fill="url(#paint0_linear_10_620)"/>
<path d="M7.76925 0.481999H8.52525C14.5192 0.481999 15.0772 2.714 15.0772 4.082V4.298C15.0772 5.756 13.7272 6.746 12.3952 6.98C14.0152 7.268 15.4012 8.33 15.4012 9.968V10.202C15.4012 11.66 14.6632 14.216 8.52525 14.216H7.76925C1.59525 14.216 0.893248 11.66 0.893248 10.202V9.968C0.893248 8.33 2.29725 7.268 3.88125 6.98C2.58525 6.746 1.21725 5.846 1.21725 4.298V4.082C1.21725 2.714 1.81125 0.481999 7.76925 0.481999ZM8.14725 3.2C5.48325 3.2 5.12325 3.938 5.12325 4.442V4.514C5.12325 5.036 5.50125 5.684 8.14725 5.684C10.8112 5.684 11.1532 5.036 11.1532 4.514V4.442C11.1532 3.938 10.8292 3.2 8.14725 3.2ZM8.14725 8.42C5.19525 8.42 4.79925 9.212 4.79925 9.77V9.824C4.79925 10.436 5.19525 11.336 8.14725 11.336C11.0992 11.336 11.4952 10.436 11.4952 9.824V9.77C11.4952 9.212 11.0992 8.42 8.14725 8.42ZM21.8078 10.508V14H17.6138V10.508H21.8078ZM41.24 14V3.56H35.48C35.48 7.214 35.318 10.004 34.832 11.462C34.4 12.74 33.626 14 30.962 14H29.63V10.85H29.756C30.854 10.85 31.304 10.346 31.52 9.788C31.88 8.852 31.97 7.574 31.97 0.608H44.948V14H41.24ZM56.4777 7.952L51.6537 14H48.0537V4.01H51.5637V10.058L56.3877 4.01H59.9877V14H56.4777V7.952ZM62.0792 16.124V11.336H63.2852C63.9692 9.968 64.0772 6.998 64.1672 4.01H74.7332V11.336H76.5332V16.124H73.2032V14H65.4092V16.124H62.0792ZM66.5972 11.336H71.2232V6.674H67.3172C67.2632 7.97 67.0832 9.95 66.5972 11.336ZM84.2603 6.08C82.4423 6.08 81.7583 6.818 81.5783 7.862H86.8703C86.8703 7.124 86.5103 6.08 84.2603 6.08ZM86.9423 10.886H90.5963C90.5963 11.714 89.9483 14.234 84.7823 14.234H84.1163C79.1843 14.234 77.9603 11.534 77.9603 9.14V8.888C77.9603 6.638 79.0763 3.794 83.8103 3.794H84.6023C89.7143 3.794 90.6323 6.638 90.6323 9.428V9.752H81.5423C81.6863 10.904 82.4243 11.84 84.5663 11.84C86.6003 11.84 86.8523 11.048 86.9423 10.886ZM102.216 9.014V8.96C102.216 7.88 101.712 6.422 99.5161 6.422H99.3361C97.2301 6.422 96.5641 7.808 96.5641 8.96V9.014C96.5641 10.112 97.2301 11.552 99.3361 11.552H99.5161C101.712 11.552 102.216 10.04 102.216 9.014ZM93.0721 17.438V4.01H96.5461V5.288C96.9781 4.82 98.2921 3.812 100.56 3.812H100.794C104.61 3.812 105.852 6.422 105.852 8.798V9.104C105.852 11.282 104.574 14.198 100.776 14.198H100.524C98.2381 14.198 97.0141 13.154 96.5821 12.722V17.438H93.0721ZM121.741 14H113.497V4.01H121.381C123.667 4.01 125.107 4.82 125.107 6.404V6.494C125.107 7.736 124.315 8.474 123.109 8.672C124.333 8.816 125.431 9.68 125.431 11.12V11.192C125.431 13.01 124.243 14 121.741 14ZM117.007 7.988H120.229C121.075 7.988 121.507 7.664 121.507 7.034V6.944C121.507 6.368 121.111 6.026 120.229 6.026H117.007V7.988ZM117.007 11.984H120.373C121.309 11.984 121.831 11.678 121.831 10.976V10.832C121.831 10.202 121.399 9.806 120.373 9.806H117.007V11.984ZM139.343 14.27H138.785C133.403 14.27 132.575 10.994 132.575 9.176V8.924C132.575 7.124 133.403 3.74 138.767 3.74H139.361C144.905 3.74 145.553 7.142 145.553 8.906V9.194C145.553 10.994 144.905 14.27 139.343 14.27ZM138.965 11.642H139.163C141.377 11.642 141.935 10.058 141.935 8.96C141.935 7.826 141.377 6.314 139.163 6.314H138.965C136.661 6.314 136.193 7.826 136.193 8.96C136.193 10.058 136.661 11.642 138.965 11.642ZM160.442 9.122V9.356C160.442 13.1 157.598 14.27 154.196 14.27H153.836C150.326 14.27 147.464 12.902 147.464 8.15V7.088C147.464 2.282 149.858 0.698 154.538 0.698H155.348C156.464 0.698 156.536 0.589999 156.572 0.373999H160.01C160.01 2.48 159.218 3.362 156.77 3.362H154.538C151.946 3.362 150.956 4.172 150.902 5.99C151.82 5.036 153.224 4.388 155.438 4.388H155.546C157.922 4.388 160.442 5.594 160.442 9.122ZM153.872 11.642H154.07C155.654 11.642 156.824 10.85 156.824 9.212C156.824 7.628 155.636 6.854 154.088 6.854H153.872C152.144 6.854 151.082 7.592 151.082 9.23C151.082 10.886 152.162 11.642 153.872 11.642ZM170.871 14V6.674H166.911C166.911 9.356 166.821 10.85 166.479 11.768C166.101 12.776 165.597 14 162.951 14H161.853V11.39H162.069C162.699 11.39 163.167 11.174 163.365 10.256C163.509 9.482 163.563 8.636 163.563 4.01H174.381V14H170.871ZM182.004 12.002C184.056 12.002 184.758 10.706 184.758 9.95V9.176C184.452 9.302 183.57 9.482 182.562 9.644C180.87 9.932 180.33 10.166 180.33 10.868V10.904C180.33 11.534 180.78 12.002 182.004 12.002ZM184.866 12.614C184.434 13.136 183.354 14.198 181.014 14.198H180.726C177.936 14.198 176.784 12.686 176.784 11.03V10.958C176.784 9.23 177.882 8.168 181.266 7.88L184.002 7.646C184.56 7.592 184.758 7.412 184.758 6.998C184.758 6.53 184.614 6.026 182.67 6.026C180.834 6.026 180.654 6.746 180.654 7.124H177.054V7.088C177.054 6.098 177.45 3.776 182.364 3.776H182.922C187.872 3.776 188.178 5.81 188.178 7.142V10.436C188.178 11.066 188.304 11.318 189.006 11.318H189.384V14H186.54C185.496 14 185.01 13.262 184.866 12.614ZM199.738 10.076H203.41C203.41 11.588 202.51 14.27 197.704 14.27H196.822C191.836 14.27 190.9 11.03 190.9 9.14V8.888C190.9 6.998 191.782 3.74 196.804 3.74H197.632C202.456 3.74 203.41 6.368 203.41 7.808V7.826H199.738C199.684 7.538 199.342 6.296 197.272 6.296H197.092C195.022 6.296 194.536 7.718 194.536 8.924V8.942C194.536 10.184 195.13 11.66 197.164 11.66H197.344C199.432 11.66 199.738 10.31 199.738 10.076ZM208.662 14V6.674H204.792V4.01H216.042V6.674H212.172V14H208.662ZM226.37 7.952L221.546 14H217.946V4.01H221.456V10.058L226.28 4.01H229.88V14H226.37V7.952ZM250.477 9.122V9.356C250.477 13.1 247.633 14.27 244.231 14.27H243.871C240.361 14.27 237.499 12.902 237.499 8.15V7.088C237.499 2.282 239.893 0.698 244.573 0.698H245.383C246.499 0.698 246.571 0.589999 246.607 0.373999H250.045C250.045 2.48 249.253 3.362 246.805 3.362H244.573C241.981 3.362 240.991 4.172 240.937 5.99C241.855 5.036 243.259 4.388 245.473 4.388H245.581C247.957 4.388 250.477 5.594 250.477 9.122ZM243.907 11.642H244.105C245.689 11.642 246.859 10.85 246.859 9.212C246.859 7.628 245.671 6.854 244.123 6.854H243.907C242.179 6.854 241.117 7.592 241.117 9.23C241.117 10.886 242.197 11.642 243.907 11.642ZM260.906 14V6.674H256.946C256.946 9.356 256.856 10.85 256.514 11.768C256.136 12.776 255.632 14 252.986 14H251.888V11.39H252.104C252.734 11.39 253.202 11.174 253.4 10.256C253.544 9.482 253.598 8.636 253.598 4.01H264.416V14H260.906ZM273.587 14.27H273.029C267.647 14.27 266.819 10.994 266.819 9.176V8.924C266.819 7.124 267.647 3.74 273.011 3.74H273.605C279.149 3.74 279.797 7.142 279.797 8.906V9.194C279.797 10.994 279.149 14.27 273.587 14.27ZM273.209 11.642H273.407C275.621 11.642 276.179 10.058 276.179 8.96C276.179 7.826 275.621 6.314 273.407 6.314H273.209C270.905 6.314 270.437 7.826 270.437 8.96C270.437 10.058 270.905 11.642 273.209 11.642ZM289.646 14L285.758 9.374V14H282.248V4.01H285.758V8.006L289.322 4.01H293.372L289.196 8.492L293.822 14H289.646ZM302.688 4.01H306.198V14H302.688V10.562C301.914 10.652 301.014 10.742 300.078 10.742C296.118 10.742 294.624 9.626 294.624 6.458V4.01H298.134V5.81C298.134 7.682 298.764 8.006 300.618 8.006C301.32 8.006 302.13 7.952 302.688 7.88V4.01ZM314.92 6.08C313.102 6.08 312.418 6.818 312.238 7.862H317.53C317.53 7.124 317.17 6.08 314.92 6.08ZM317.602 10.886H321.256C321.256 11.714 320.608 14.234 315.442 14.234H314.776C309.844 14.234 308.62 11.534 308.62 9.14V8.888C308.62 6.638 309.736 3.794 314.47 3.794H315.262C320.374 3.794 321.292 6.638 321.292 9.428V9.752H312.202C312.346 10.904 313.084 11.84 315.226 11.84C317.26 11.84 317.512 11.048 317.602 10.886ZM332.12 7.952L327.296 14H323.696V4.01H327.206V10.058L332.03 4.01H335.63V14H332.12V7.952ZM329.888 2.984H329.348C326.486 2.984 325.982 1.04 325.982 0.104V0.0499994H328.628C328.628 0.284 328.736 1.004 329.636 1.004C330.482 1.004 330.608 0.284 330.608 0.0499994H333.218V0.104C333.218 1.04 332.498 2.984 329.888 2.984ZM342.06 14H338.55V4.01H342.06V7.646H346.956V4.01H350.466V14H346.956V10.31H342.06V14Z" fill="url(#paint1_radial_10_620)" style="mix-blend-mode:overlay"/>
<path d="M7.76925 0.481999H8.52525C14.5192 0.481999 15.0772 2.714 15.0772 4.082V4.298C15.0772 5.756 13.7272 6.746 12.3952 6.98C14.0152 7.268 15.4012 8.33 15.4012 9.968V10.202C15.4012 11.66 14.6632 14.216 8.52525 14.216H7.76925C1.59525 14.216 0.893248 11.66 0.893248 10.202V9.968C0.893248 8.33 2.29725 7.268 3.88125 6.98C2.58525 6.746 1.21725 5.846 1.21725 4.298V4.082C1.21725 2.714 1.81125 0.481999 7.76925 0.481999ZM8.14725 3.2C5.48325 3.2 5.12325 3.938 5.12325 4.442V4.514C5.12325 5.036 5.50125 5.684 8.14725 5.684C10.8112 5.684 11.1532 5.036 11.1532 4.514V4.442C11.1532 3.938 10.8292 3.2 8.14725 3.2ZM8.14725 8.42C5.19525 8.42 4.79925 9.212 4.79925 9.77V9.824C4.79925 10.436 5.19525 11.336 8.14725 11.336C11.0992 11.336 11.4952 10.436 11.4952 9.824V9.77C11.4952 9.212 11.0992 8.42 8.14725 8.42ZM21.8078 10.508V14H17.6138V10.508H21.8078ZM41.24 14V3.56H35.48C35.48 7.214 35.318 10.004 34.832 11.462C34.4 12.74 33.626 14 30.962 14H29.63V10.85H29.756C30.854 10.85 31.304 10.346 31.52 9.788C31.88 8.852 31.97 7.574 31.97 0.608H44.948V14H41.24ZM56.4777 7.952L51.6537 14H48.0537V4.01H51.5637V10.058L56.3877 4.01H59.9877V14H56.4777V7.952ZM62.0792 16.124V11.336H63.2852C63.9692 9.968 64.0772 6.998 64.1672 4.01H74.7332V11.336H76.5332V16.124H73.2032V14H65.4092V16.124H62.0792ZM66.5972 11.336H71.2232V6.674H67.3172C67.2632 7.97 67.0832 9.95 66.5972 11.336ZM84.2603 6.08C82.4423 6.08 81.7583 6.818 81.5783 7.862H86.8703C86.8703 7.124 86.5103 6.08 84.2603 6.08ZM86.9423 10.886H90.5963C90.5963 11.714 89.9483 14.234 84.7823 14.234H84.1163C79.1843 14.234 77.9603 11.534 77.9603 9.14V8.888C77.9603 6.638 79.0763 3.794 83.8103 3.794H84.6023C89.7143 3.794 90.6323 6.638 90.6323 9.428V9.752H81.5423C81.6863 10.904 82.4243 11.84 84.5663 11.84C86.6003 11.84 86.8523 11.048 86.9423 10.886ZM102.216 9.014V8.96C102.216 7.88 101.712 6.422 99.5161 6.422H99.3361C97.2301 6.422 96.5641 7.808 96.5641 8.96V9.014C96.5641 10.112 97.2301 11.552 99.3361 11.552H99.5161C101.712 11.552 102.216 10.04 102.216 9.014ZM93.0721 17.438V4.01H96.5461V5.288C96.9781 4.82 98.2921 3.812 100.56 3.812H100.794C104.61 3.812 105.852 6.422 105.852 8.798V9.104C105.852 11.282 104.574 14.198 100.776 14.198H100.524C98.2381 14.198 97.0141 13.154 96.5821 12.722V17.438H93.0721ZM121.741 14H113.497V4.01H121.381C123.667 4.01 125.107 4.82 125.107 6.404V6.494C125.107 7.736 124.315 8.474 123.109 8.672C124.333 8.816 125.431 9.68 125.431 11.12V11.192C125.431 13.01 124.243 14 121.741 14ZM117.007 7.988H120.229C121.075 7.988 121.507 7.664 121.507 7.034V6.944C121.507 6.368 121.111 6.026 120.229 6.026H117.007V7.988ZM117.007 11.984H120.373C121.309 11.984 121.831 11.678 121.831 10.976V10.832C121.831 10.202 121.399 9.806 120.373 9.806H117.007V11.984ZM139.343 14.27H138.785C133.403 14.27 132.575 10.994 132.575 9.176V8.924C132.575 7.124 133.403 3.74 138.767 3.74H139.361C144.905 3.74 145.553 7.142 145.553 8.906V9.194C145.553 10.994 144.905 14.27 139.343 14.27ZM138.965 11.642H139.163C141.377 11.642 141.935 10.058 141.935 8.96C141.935 7.826 141.377 6.314 139.163 6.314H138.965C136.661 6.314 136.193 7.826 136.193 8.96C136.193 10.058 136.661 11.642 138.965 11.642ZM160.442 9.122V9.356C160.442 13.1 157.598 14.27 154.196 14.27H153.836C150.326 14.27 147.464 12.902 147.464 8.15V7.088C147.464 2.282 149.858 0.698 154.538 0.698H155.348C156.464 0.698 156.536 0.589999 156.572 0.373999H160.01C160.01 2.48 159.218 3.362 156.77 3.362H154.538C151.946 3.362 150.956 4.172 150.902 5.99C151.82 5.036 153.224 4.388 155.438 4.388H155.546C157.922 4.388 160.442 5.594 160.442 9.122ZM153.872 11.642H154.07C155.654 11.642 156.824 10.85 156.824 9.212C156.824 7.628 155.636 6.854 154.088 6.854H153.872C152.144 6.854 151.082 7.592 151.082 9.23C151.082 10.886 152.162 11.642 153.872 11.642ZM170.871 14V6.674H166.911C166.911 9.356 166.821 10.85 166.479 11.768C166.101 12.776 165.597 14 162.951 14H161.853V11.39H162.069C162.699 11.39 163.167 11.174 163.365 10.256C163.509 9.482 163.563 8.636 163.563 4.01H174.381V14H170.871ZM182.004 12.002C184.056 12.002 184.758 10.706 184.758 9.95V9.176C184.452 9.302 183.57 9.482 182.562 9.644C180.87 9.932 180.33 10.166 180.33 10.868V10.904C180.33 11.534 180.78 12.002 182.004 12.002ZM184.866 12.614C184.434 13.136 183.354 14.198 181.014 14.198H180.726C177.936 14.198 176.784 12.686 176.784 11.03V10.958C176.784 9.23 177.882 8.168 181.266 7.88L184.002 7.646C184.56 7.592 184.758 7.412 184.758 6.998C184.758 6.53 184.614 6.026 182.67 6.026C180.834 6.026 180.654 6.746 180.654 7.124H177.054V7.088C177.054 6.098 177.45 3.776 182.364 3.776H182.922C187.872 3.776 188.178 5.81 188.178 7.142V10.436C188.178 11.066 188.304 11.318 189.006 11.318H189.384V14H186.54C185.496 14 185.01 13.262 184.866 12.614ZM199.738 10.076H203.41C203.41 11.588 202.51 14.27 197.704 14.27H196.822C191.836 14.27 190.9 11.03 190.9 9.14V8.888C190.9 6.998 191.782 3.74 196.804 3.74H197.632C202.456 3.74 203.41 6.368 203.41 7.808V7.826H199.738C199.684 7.538 199.342 6.296 197.272 6.296H197.092C195.022 6.296 194.536 7.718 194.536 8.924V8.942C194.536 10.184 195.13 11.66 197.164 11.66H197.344C199.432 11.66 199.738 10.31 199.738 10.076ZM208.662 14V6.674H204.792V4.01H216.042V6.674H212.172V14H208.662ZM226.37 7.952L221.546 14H217.946V4.01H221.456V10.058L226.28 4.01H229.88V14H226.37V7.952ZM250.477 9.122V9.356C250.477 13.1 247.633 14.27 244.231 14.27H243.871C240.361 14.27 237.499 12.902 237.499 8.15V7.088C237.499 2.282 239.893 0.698 244.573 0.698H245.383C246.499 0.698 246.571 0.589999 246.607 0.373999H250.045C250.045 2.48 249.253 3.362 246.805 3.362H244.573C241.981 3.362 240.991 4.172 240.937 5.99C241.855 5.036 243.259 4.388 245.473 4.388H245.581C247.957 4.388 250.477 5.594 250.477 9.122ZM243.907 11.642H244.105C245.689 11.642 246.859 10.85 246.859 9.212C246.859 7.628 245.671 6.854 244.123 6.854H243.907C242.179 6.854 241.117 7.592 241.117 9.23C241.117 10.886 242.197 11.642 243.907 11.642ZM260.906 14V6.674H256.946C256.946 9.356 256.856 10.85 256.514 11.768C256.136 12.776 255.632 14 252.986 14H251.888V11.39H252.104C252.734 11.39 253.202 11.174 253.4 10.256C253.544 9.482 253.598 8.636 253.598 4.01H264.416V14H260.906ZM273.587 14.27H273.029C267.647 14.27 266.819 10.994 266.819 9.176V8.924C266.819 7.124 267.647 3.74 273.011 3.74H273.605C279.149 3.74 279.797 7.142 279.797 8.906V9.194C279.797 10.994 279.149 14.27 273.587 14.27ZM273.209 11.642H273.407C275.621 11.642 276.179 10.058 276.179 8.96C276.179 7.826 275.621 6.314 273.407 6.314H273.209C270.905 6.314 270.437 7.826 270.437 8.96C270.437 10.058 270.905 11.642 273.209 11.642ZM289.646 14L285.758 9.374V14H282.248V4.01H285.758V8.006L289.322 4.01H293.372L289.196 8.492L293.822 14H289.646ZM302.688 4.01H306.198V14H302.688V10.562C301.914 10.652 301.014 10.742 300.078 10.742C296.118 10.742 294.624 9.626 294.624 6.458V4.01H298.134V5.81C298.134 7.682 298.764 8.006 300.618 8.006C301.32 8.006 302.13 7.952 302.688 7.88V4.01ZM314.92 6.08C313.102 6.08 312.418 6.818 312.238 7.862H317.53C317.53 7.124 317.17 6.08 314.92 6.08ZM317.602 10.886H321.256C321.256 11.714 320.608 14.234 315.442 14.234H314.776C309.844 14.234 308.62 11.534 308.62 9.14V8.888C308.62 6.638 309.736 3.794 314.47 3.794H315.262C320.374 3.794 321.292 6.638 321.292 9.428V9.752H312.202C312.346 10.904 313.084 11.84 315.226 11.84C317.26 11.84 317.512 11.048 317.602 10.886ZM332.12 7.952L327.296 14H323.696V4.01H327.206V10.058L332.03 4.01H335.63V14H332.12V7.952ZM329.888 2.984H329.348C326.486 2.984 325.982 1.04 325.982 0.104V0.0499994H328.628C328.628 0.284 328.736 1.004 329.636 1.004C330.482 1.004 330.608 0.284 330.608 0.0499994H333.218V0.104C333.218 1.04 332.498 2.984 329.888 2.984ZM342.06 14H338.55V4.01H342.06V7.646H346.956V4.01H350.466V14H346.956V10.31H342.06V14Z" fill="url(#paint2_radial_10_620)"/>
<path d="M7.76925 0.481999H8.52525C14.5192 0.481999 15.0772 2.714 15.0772 4.082V4.298C15.0772 5.756 13.7272 6.746 12.3952 6.98C14.0152 7.268 15.4012 8.33 15.4012 9.968V10.202C15.4012 11.66 14.6632 14.216 8.52525 14.216H7.76925C1.59525 14.216 0.893248 11.66 0.893248 10.202V9.968C0.893248 8.33 2.29725 7.268 3.88125 6.98C2.58525 6.746 1.21725 5.846 1.21725 4.298V4.082C1.21725 2.714 1.81125 0.481999 7.76925 0.481999ZM8.14725 3.2C5.48325 3.2 5.12325 3.938 5.12325 4.442V4.514C5.12325 5.036 5.50125 5.684 8.14725 5.684C10.8112 5.684 11.1532 5.036 11.1532 4.514V4.442C11.1532 3.938 10.8292 3.2 8.14725 3.2ZM8.14725 8.42C5.19525 8.42 4.79925 9.212 4.79925 9.77V9.824C4.79925 10.436 5.19525 11.336 8.14725 11.336C11.0992 11.336 11.4952 10.436 11.4952 9.824V9.77C11.4952 9.212 11.0992 8.42 8.14725 8.42ZM21.8078 10.508V14H17.6138V10.508H21.8078ZM41.24 14V3.56H35.48C35.48 7.214 35.318 10.004 34.832 11.462C34.4 12.74 33.626 14 30.962 14H29.63V10.85H29.756C30.854 10.85 31.304 10.346 31.52 9.788C31.88 8.852 31.97 7.574 31.97 0.608H44.948V14H41.24ZM56.4777 7.952L51.6537 14H48.0537V4.01H51.5637V10.058L56.3877 4.01H59.9877V14H56.4777V7.952ZM62.0792 16.124V11.336H63.2852C63.9692 9.968 64.0772 6.998 64.1672 4.01H74.7332V11.336H76.5332V16.124H73.2032V14H65.4092V16.124H62.0792ZM66.5972 11.336H71.2232V6.674H67.3172C67.2632 7.97 67.0832 9.95 66.5972 11.336ZM84.2603 6.08C82.4423 6.08 81.7583 6.818 81.5783 7.862H86.8703C86.8703 7.124 86.5103 6.08 84.2603 6.08ZM86.9423 10.886H90.5963C90.5963 11.714 89.9483 14.234 84.7823 14.234H84.1163C79.1843 14.234 77.9603 11.534 77.9603 9.14V8.888C77.9603 6.638 79.0763 3.794 83.8103 3.794H84.6023C89.7143 3.794 90.6323 6.638 90.6323 9.428V9.752H81.5423C81.6863 10.904 82.4243 11.84 84.5663 11.84C86.6003 11.84 86.8523 11.048 86.9423 10.886ZM102.216 9.014V8.96C102.216 7.88 101.712 6.422 99.5161 6.422H99.3361C97.2301 6.422 96.5641 7.808 96.5641 8.96V9.014C96.5641 10.112 97.2301 11.552 99.3361 11.552H99.5161C101.712 11.552 102.216 10.04 102.216 9.014ZM93.0721 17.438V4.01H96.5461V5.288C96.9781 4.82 98.2921 3.812 100.56 3.812H100.794C104.61 3.812 105.852 6.422 105.852 8.798V9.104C105.852 11.282 104.574 14.198 100.776 14.198H100.524C98.2381 14.198 97.0141 13.154 96.5821 12.722V17.438H93.0721ZM121.741 14H113.497V4.01H121.381C123.667 4.01 125.107 4.82 125.107 6.404V6.494C125.107 7.736 124.315 8.474 123.109 8.672C124.333 8.816 125.431 9.68 125.431 11.12V11.192C125.431 13.01 124.243 14 121.741 14ZM117.007 7.988H120.229C121.075 7.988 121.507 7.664 121.507 7.034V6.944C121.507 6.368 121.111 6.026 120.229 6.026H117.007V7.988ZM117.007 11.984H120.373C121.309 11.984 121.831 11.678 121.831 10.976V10.832C121.831 10.202 121.399 9.806 120.373 9.806H117.007V11.984ZM139.343 14.27H138.785C133.403 14.27 132.575 10.994 132.575 9.176V8.924C132.575 7.124 133.403 3.74 138.767 3.74H139.361C144.905 3.74 145.553 7.142 145.553 8.906V9.194C145.553 10.994 144.905 14.27 139.343 14.27ZM138.965 11.642H139.163C141.377 11.642 141.935 10.058 141.935 8.96C141.935 7.826 141.377 6.314 139.163 6.314H138.965C136.661 6.314 136.193 7.826 136.193 8.96C136.193 10.058 136.661 11.642 138.965 11.642ZM160.442 9.122V9.356C160.442 13.1 157.598 14.27 154.196 14.27H153.836C150.326 14.27 147.464 12.902 147.464 8.15V7.088C147.464 2.282 149.858 0.698 154.538 0.698H155.348C156.464 0.698 156.536 0.589999 156.572 0.373999H160.01C160.01 2.48 159.218 3.362 156.77 3.362H154.538C151.946 3.362 150.956 4.172 150.902 5.99C151.82 5.036 153.224 4.388 155.438 4.388H155.546C157.922 4.388 160.442 5.594 160.442 9.122ZM153.872 11.642H154.07C155.654 11.642 156.824 10.85 156.824 9.212C156.824 7.628 155.636 6.854 154.088 6.854H153.872C152.144 6.854 151.082 7.592 151.082 9.23C151.082 10.886 152.162 11.642 153.872 11.642ZM170.871 14V6.674H166.911C166.911 9.356 166.821 10.85 166.479 11.768C166.101 12.776 165.597 14 162.951 14H161.853V11.39H162.069C162.699 11.39 163.167 11.174 163.365 10.256C163.509 9.482 163.563 8.636 163.563 4.01H174.381V14H170.871ZM182.004 12.002C184.056 12.002 184.758 10.706 184.758 9.95V9.176C184.452 9.302 183.57 9.482 182.562 9.644C180.87 9.932 180.33 10.166 180.33 10.868V10.904C180.33 11.534 180.78 12.002 182.004 12.002ZM184.866 12.614C184.434 13.136 183.354 14.198 181.014 14.198H180.726C177.936 14.198 176.784 12.686 176.784 11.03V10.958C176.784 9.23 177.882 8.168 181.266 7.88L184.002 7.646C184.56 7.592 184.758 7.412 184.758 6.998C184.758 6.53 184.614 6.026 182.67 6.026C180.834 6.026 180.654 6.746 180.654 7.124H177.054V7.088C177.054 6.098 177.45 3.776 182.364 3.776H182.922C187.872 3.776 188.178 5.81 188.178 7.142V10.436C188.178 11.066 188.304 11.318 189.006 11.318H189.384V14H186.54C185.496 14 185.01 13.262 184.866 12.614ZM199.738 10.076H203.41C203.41 11.588 202.51 14.27 197.704 14.27H196.822C191.836 14.27 190.9 11.03 190.9 9.14V8.888C190.9 6.998 191.782 3.74 196.804 3.74H197.632C202.456 3.74 203.41 6.368 203.41 7.808V7.826H199.738C199.684 7.538 199.342 6.296 197.272 6.296H197.092C195.022 6.296 194.536 7.718 194.536 8.924V8.942C194.536 10.184 195.13 11.66 197.164 11.66H197.344C199.432 11.66 199.738 10.31 199.738 10.076ZM208.662 14V6.674H204.792V4.01H216.042V6.674H212.172V14H208.662ZM226.37 7.952L221.546 14H217.946V4.01H221.456V10.058L226.28 4.01H229.88V14H226.37V7.952ZM250.477 9.122V9.356C250.477 13.1 247.633 14.27 244.231 14.27H243.871C240.361 14.27 237.499 12.902 237.499 8.15V7.088C237.499 2.282 239.893 0.698 244.573 0.698H245.383C246.499 0.698 246.571 0.589999 246.607 0.373999H250.045C250.045 2.48 249.253 3.362 246.805 3.362H244.573C241.981 3.362 240.991 4.172 240.937 5.99C241.855 5.036 243.259 4.388 245.473 4.388H245.581C247.957 4.388 250.477 5.594 250.477 9.122ZM243.907 11.642H244.105C245.689 11.642 246.859 10.85 246.859 9.212C246.859 7.628 245.671 6.854 244.123 6.854H243.907C242.179 6.854 241.117 7.592 241.117 9.23C241.117 10.886 242.197 11.642 243.907 11.642ZM260.906 14V6.674H256.946C256.946 9.356 256.856 10.85 256.514 11.768C256.136 12.776 255.632 14 252.986 14H251.888V11.39H252.104C252.734 11.39 253.202 11.174 253.4 10.256C253.544 9.482 253.598 8.636 253.598 4.01H264.416V14H260.906ZM273.587 14.27H273.029C267.647 14.27 266.819 10.994 266.819 9.176V8.924C266.819 7.124 267.647 3.74 273.011 3.74H273.605C279.149 3.74 279.797 7.142 279.797 8.906V9.194C279.797 10.994 279.149 14.27 273.587 14.27ZM273.209 11.642H273.407C275.621 11.642 276.179 10.058 276.179 8.96C276.179 7.826 275.621 6.314 273.407 6.314H273.209C270.905 6.314 270.437 7.826 270.437 8.96C270.437 10.058 270.905 11.642 273.209 11.642ZM289.646 14L285.758 9.374V14H282.248V4.01H285.758V8.006L289.322 4.01H293.372L289.196 8.492L293.822 14H289.646ZM302.688 4.01H306.198V14H302.688V10.562C301.914 10.652 301.014 10.742 300.078 10.742C296.118 10.742 294.624 9.626 294.624 6.458V4.01H298.134V5.81C298.134 7.682 298.764 8.006 300.618 8.006C301.32 8.006 302.13 7.952 302.688 7.88V4.01ZM314.92 6.08C313.102 6.08 312.418 6.818 312.238 7.862H317.53C317.53 7.124 317.17 6.08 314.92 6.08ZM317.602 10.886H321.256C321.256 11.714 320.608 14.234 315.442 14.234H314.776C309.844 14.234 308.62 11.534 308.62 9.14V8.888C308.62 6.638 309.736 3.794 314.47 3.794H315.262C320.374 3.794 321.292 6.638 321.292 9.428V9.752H312.202C312.346 10.904 313.084 11.84 315.226 11.84C317.26 11.84 317.512 11.048 317.602 10.886ZM332.12 7.952L327.296 14H323.696V4.01H327.206V10.058L332.03 4.01H335.63V14H332.12V7.952ZM329.888 2.984H329.348C326.486 2.984 325.982 1.04 325.982 0.104V0.0499994H328.628C328.628 0.284 328.736 1.004 329.636 1.004C330.482 1.004 330.608 0.284 330.608 0.0499994H333.218V0.104C333.218 1.04 332.498 2.984 329.888 2.984ZM342.06 14H338.55V4.01H342.06V7.646H346.956V4.01H350.466V14H346.956V10.31H342.06V14Z" fill="#C1A875" style="mix-blend-mode:color"/>
<defs>
<linearGradient id="paint0_linear_10_620" x1="2" y1="6" x2="352" y2="6.00003" gradientUnits="userSpaceOnUse">
<stop stop-color="#576167"/>
<stop offset="0.191294" stop-color="#9EA1A2"/>
<stop offset="0.396166" stop-color="#848989"/>
<stop offset="0.62055" stop-color="#576167"/>
<stop offset="0.830299" stop-color="#757A7C"/>
<stop offset="1" stop-color="#576167"/>
</linearGradient>
<radialGradient id="paint1_radial_10_620" cx="0" cy="0" r="1" gradientUnits="userSpaceOnUse" gradientTransform="translate(188.393 -3.20225) rotate(90) scale(17.8315 264.786)">
<stop stop-color="white"/>
<stop offset="1" stop-color="white" stop-opacity="0"/>
</radialGradient>
<radialGradient id="paint2_radial_10_620" cx="0" cy="0" r="1" gradientUnits="userSpaceOnUse" gradientTransform="translate(208.19 23.6629) rotate(-88.7438) scale(25.5567 378.547)">
<stop stop-color="white"/>
<stop offset="1" stop-color="white" stop-opacity="0"/>
</radialGradient>
</defs>
</svg>
