<svg width="347" height="18" viewBox="0 0 347 18" fill="none" xmlns="http://www.w3.org/2000/svg">
<path d="M11.1172 4.982V4.892C11.1172 4.262 10.5772 3.29 7.89525 3.29C4.96125 3.29 4.63725 4.316 4.63725 4.874V4.982C4.63725 5.63 5.06925 6.494 7.89525 6.494C10.6312 6.494 11.1172 5.63 11.1172 4.982ZM8.43525 14.198H7.76925C2.45925 14.198 1.30725 11.75 1.30725 10.166V10.148H4.97925C4.97925 10.31 5.23125 11.336 8.02125 11.336C11.2432 11.336 11.6212 9.032 11.6212 7.934V7.808C11.2792 8.096 10.1272 9.104 7.06725 9.104H6.67125C2.35125 9.104 0.821248 7.214 0.821248 5.27V4.982C0.821248 3.128 1.75725 0.446 7.35525 0.446H8.45325C14.4652 0.446 15.4012 4.694 15.4012 6.998V7.412C15.4012 9.446 14.3752 14.198 8.43525 14.198ZM21.8078 10.508V14H17.6138V10.508H21.8078ZM42.194 14V5L34.364 14H30.656V0.608H34.364V9.608L42.194 0.608H45.902V14H42.194ZM52.5305 14H49.0205V4.01H52.5305V7.646H57.4265V4.01H60.9365V14H57.4265V10.31H52.5305V14ZM67.3664 14H63.8564V4.01H67.3664V7.646H72.2624V4.01H75.7724V14H72.2624V10.31H67.3664V14ZM84.9564 14.27H84.3984C79.0164 14.27 78.1884 10.994 78.1884 9.176V8.924C78.1884 7.124 79.0164 3.74 84.3804 3.74H84.9744C90.5184 3.74 91.1664 7.142 91.1664 8.906V9.194C91.1664 10.994 90.5184 14.27 84.9564 14.27ZM84.5784 11.642H84.7764C86.9904 11.642 87.5484 10.058 87.5484 8.96C87.5484 7.826 86.9904 6.314 84.7764 6.314H84.5784C82.2744 6.314 81.8064 7.826 81.8064 8.96C81.8064 10.058 82.2744 11.642 84.5784 11.642ZM101.825 14H93.581V4.01H101.465C103.751 4.01 105.191 4.82 105.191 6.404V6.494C105.191 7.736 104.399 8.474 103.193 8.672C104.417 8.816 105.515 9.68 105.515 11.12V11.192C105.515 13.01 104.327 14 101.825 14ZM97.091 7.988H100.313C101.159 7.988 101.591 7.664 101.591 7.034V6.944C101.591 6.368 101.195 6.026 100.313 6.026H97.091V7.988ZM97.091 11.984H100.457C101.393 11.984 101.915 11.678 101.915 10.976V10.832C101.915 10.202 101.483 9.806 100.457 9.806H97.091V11.984ZM112.588 12.002C114.64 12.002 115.342 10.706 115.342 9.95V9.176C115.036 9.302 114.154 9.482 113.146 9.644C111.454 9.932 110.914 10.166 110.914 10.868V10.904C110.914 11.534 111.364 12.002 112.588 12.002ZM115.45 12.614C115.018 13.136 113.938 14.198 111.598 14.198H111.31C108.52 14.198 107.368 12.686 107.368 11.03V10.958C107.368 9.23 108.466 8.168 111.85 7.88L114.586 7.646C115.144 7.592 115.342 7.412 115.342 6.998C115.342 6.53 115.198 6.026 113.254 6.026C111.418 6.026 111.238 6.746 111.238 7.124H107.638V7.088C107.638 6.098 108.034 3.776 112.948 3.776H113.506C118.456 3.776 118.762 5.81 118.762 7.142V10.436C118.762 11.066 118.888 11.318 119.59 11.318H119.968V14H117.124C116.08 14 115.594 13.262 115.45 12.614ZM124.656 14V6.674H120.786V4.01H132.036V6.674H128.166V14H124.656ZM140.204 14.27H139.646C134.264 14.27 133.436 10.994 133.436 9.176V8.924C133.436 7.124 134.264 3.74 139.628 3.74H140.222C145.766 3.74 146.414 7.142 146.414 8.906V9.194C146.414 10.994 145.766 14.27 140.204 14.27ZM139.826 11.642H140.024C142.238 11.642 142.796 10.058 142.796 8.96C142.796 7.826 142.238 6.314 140.024 6.314H139.826C137.522 6.314 137.054 7.826 137.054 8.96C137.054 10.058 137.522 11.642 139.826 11.642ZM158.009 9.014V8.96C158.009 7.88 157.505 6.422 155.309 6.422H155.129C153.023 6.422 152.357 7.808 152.357 8.96V9.014C152.357 10.112 153.023 11.552 155.129 11.552H155.309C157.505 11.552 158.009 10.04 158.009 9.014ZM148.865 17.438V4.01H152.339V5.288C152.771 4.82 154.085 3.812 156.353 3.812H156.587C160.403 3.812 161.645 6.422 161.645 8.798V9.104C161.645 11.282 160.367 14.198 156.569 14.198H156.317C154.031 14.198 152.807 13.154 152.375 12.722V17.438H148.865ZM177.534 14H169.29V4.01H177.174C179.46 4.01 180.9 4.82 180.9 6.404V6.494C180.9 7.736 180.108 8.474 178.902 8.672C180.126 8.816 181.224 9.68 181.224 11.12V11.192C181.224 13.01 180.036 14 177.534 14ZM172.8 7.988H176.022C176.868 7.988 177.3 7.664 177.3 7.034V6.944C177.3 6.368 176.904 6.026 176.022 6.026H172.8V7.988ZM172.8 11.984H176.166C177.102 11.984 177.624 11.678 177.624 10.976V10.832C177.624 10.202 177.192 9.806 176.166 9.806H172.8V11.984ZM195.136 14.27H194.578C189.196 14.27 188.368 10.994 188.368 9.176V8.924C188.368 7.124 189.196 3.74 194.56 3.74H195.154C200.698 3.74 201.346 7.142 201.346 8.906V9.194C201.346 10.994 200.698 14.27 195.136 14.27ZM194.758 11.642H194.956C197.17 11.642 197.728 10.058 197.728 8.96C197.728 7.826 197.17 6.314 194.956 6.314H194.758C192.454 6.314 191.986 7.826 191.986 8.96C191.986 10.058 192.454 11.642 194.758 11.642ZM216.235 9.122V9.356C216.235 13.1 213.391 14.27 209.989 14.27H209.629C206.119 14.27 203.257 12.902 203.257 8.15V7.088C203.257 2.282 205.651 0.698 210.331 0.698H211.141C212.257 0.698 212.329 0.589999 212.365 0.373999H215.803C215.803 2.48 215.011 3.362 212.563 3.362H210.331C207.739 3.362 206.749 4.172 206.695 5.99C207.613 5.036 209.017 4.388 211.231 4.388H211.339C213.715 4.388 216.235 5.594 216.235 9.122ZM209.665 11.642H209.863C211.447 11.642 212.617 10.85 212.617 9.212C212.617 7.628 211.429 6.854 209.881 6.854H209.665C207.937 6.854 206.875 7.592 206.875 9.23C206.875 10.886 207.955 11.642 209.665 11.642ZM227.829 9.014V8.96C227.829 7.88 227.325 6.422 225.129 6.422H224.949C222.843 6.422 222.177 7.808 222.177 8.96V9.014C222.177 10.112 222.843 11.552 224.949 11.552H225.129C227.325 11.552 227.829 10.04 227.829 9.014ZM218.685 17.438V4.01H222.159V5.288C222.591 4.82 223.905 3.812 226.173 3.812H226.407C230.223 3.812 231.465 6.422 231.465 8.798V9.104C231.465 11.282 230.187 14.198 226.389 14.198H226.137C223.851 14.198 222.627 13.154 222.195 12.722V17.438H218.685ZM238.535 12.002C240.587 12.002 241.289 10.706 241.289 9.95V9.176C240.983 9.302 240.101 9.482 239.093 9.644C237.401 9.932 236.861 10.166 236.861 10.868V10.904C236.861 11.534 237.311 12.002 238.535 12.002ZM241.397 12.614C240.965 13.136 239.885 14.198 237.545 14.198H237.257C234.467 14.198 233.315 12.686 233.315 11.03V10.958C233.315 9.23 234.413 8.168 237.797 7.88L240.533 7.646C241.091 7.592 241.289 7.412 241.289 6.998C241.289 6.53 241.145 6.026 239.201 6.026C237.365 6.026 237.185 6.746 237.185 7.124H233.585V7.088C233.585 6.098 233.981 3.776 238.895 3.776H239.453C244.403 3.776 244.709 5.81 244.709 7.142V10.436C244.709 11.066 244.835 11.318 245.537 11.318H245.915V14H243.071C242.027 14 241.541 13.262 241.397 12.614ZM259.131 11.048V11.156C259.131 13.154 257.457 14.27 253.623 14.27H253.299C249.195 14.27 247.413 12.74 247.413 10.67V10.526H251.175C251.229 11.642 252.255 12.056 253.479 12.056C254.793 12.056 255.513 11.66 255.513 10.868V10.814C255.513 10.076 254.937 9.896 253.929 9.896H251.553V7.754H253.929C254.703 7.754 255.189 7.448 255.189 6.872V6.818C255.189 6.224 254.595 5.918 253.389 5.918C252.039 5.918 251.319 6.242 251.265 6.944H247.503V6.89C247.503 4.748 250.005 3.74 253.263 3.74H253.551C256.917 3.74 258.807 4.55 258.807 6.422V6.494C258.807 8.006 257.655 8.582 256.827 8.78C257.835 8.978 259.131 9.464 259.131 11.048ZM267.839 14.27H267.281C261.899 14.27 261.071 10.994 261.071 9.176V8.924C261.071 7.124 261.899 3.74 267.263 3.74H267.857C273.401 3.74 274.049 7.142 274.049 8.906V9.194C274.049 10.994 273.401 14.27 267.839 14.27ZM267.461 11.642H267.659C269.873 11.642 270.431 10.058 270.431 8.96C270.431 7.826 269.873 6.314 267.659 6.314H267.461C265.157 6.314 264.689 7.826 264.689 8.96C264.689 10.058 265.157 11.642 267.461 11.642ZM284.708 14H276.464V4.01H284.348C286.634 4.01 288.074 4.82 288.074 6.404V6.494C288.074 7.736 287.282 8.474 286.076 8.672C287.3 8.816 288.398 9.68 288.398 11.12V11.192C288.398 13.01 287.21 14 284.708 14ZM279.974 7.988H283.196C284.042 7.988 284.474 7.664 284.474 7.034V6.944C284.474 6.368 284.078 6.026 283.196 6.026H279.974V7.988ZM279.974 11.984H283.34C284.276 11.984 284.798 11.678 284.798 10.976V10.832C284.798 10.202 284.366 9.806 283.34 9.806H279.974V11.984ZM295.471 12.002C297.523 12.002 298.225 10.706 298.225 9.95V9.176C297.919 9.302 297.037 9.482 296.029 9.644C294.337 9.932 293.797 10.166 293.797 10.868V10.904C293.797 11.534 294.247 12.002 295.471 12.002ZM298.333 12.614C297.901 13.136 296.821 14.198 294.481 14.198H294.193C291.403 14.198 290.251 12.686 290.251 11.03V10.958C290.251 9.23 291.349 8.168 294.733 7.88L297.469 7.646C298.027 7.592 298.225 7.412 298.225 6.998C298.225 6.53 298.081 6.026 296.137 6.026C294.301 6.026 294.121 6.746 294.121 7.124H290.521V7.088C290.521 6.098 290.917 3.776 295.831 3.776H296.389C301.339 3.776 301.645 5.81 301.645 7.142V10.436C301.645 11.066 301.771 11.318 302.473 11.318H302.851V14H300.007C298.963 14 298.477 13.262 298.333 12.614ZM308.363 14H304.853V4.01H308.363V7.646H313.259V4.01H316.769V14H313.259V10.31H308.363V14ZM328.112 7.952L323.288 14H319.688V4.01H323.198V10.058L328.022 4.01H331.622V14H328.112V7.952ZM342.966 7.952L338.142 14H334.542V4.01H338.052V10.058L342.876 4.01H346.476V14H342.966V7.952Z" fill="url(#paint0_linear_10_623)"/>
<path d="M11.1172 4.982V4.892C11.1172 4.262 10.5772 3.29 7.89525 3.29C4.96125 3.29 4.63725 4.316 4.63725 4.874V4.982C4.63725 5.63 5.06925 6.494 7.89525 6.494C10.6312 6.494 11.1172 5.63 11.1172 4.982ZM8.43525 14.198H7.76925C2.45925 14.198 1.30725 11.75 1.30725 10.166V10.148H4.97925C4.97925 10.31 5.23125 11.336 8.02125 11.336C11.2432 11.336 11.6212 9.032 11.6212 7.934V7.808C11.2792 8.096 10.1272 9.104 7.06725 9.104H6.67125C2.35125 9.104 0.821248 7.214 0.821248 5.27V4.982C0.821248 3.128 1.75725 0.446 7.35525 0.446H8.45325C14.4652 0.446 15.4012 4.694 15.4012 6.998V7.412C15.4012 9.446 14.3752 14.198 8.43525 14.198ZM21.8078 10.508V14H17.6138V10.508H21.8078ZM42.194 14V5L34.364 14H30.656V0.608H34.364V9.608L42.194 0.608H45.902V14H42.194ZM52.5305 14H49.0205V4.01H52.5305V7.646H57.4265V4.01H60.9365V14H57.4265V10.31H52.5305V14ZM67.3664 14H63.8564V4.01H67.3664V7.646H72.2624V4.01H75.7724V14H72.2624V10.31H67.3664V14ZM84.9564 14.27H84.3984C79.0164 14.27 78.1884 10.994 78.1884 9.176V8.924C78.1884 7.124 79.0164 3.74 84.3804 3.74H84.9744C90.5184 3.74 91.1664 7.142 91.1664 8.906V9.194C91.1664 10.994 90.5184 14.27 84.9564 14.27ZM84.5784 11.642H84.7764C86.9904 11.642 87.5484 10.058 87.5484 8.96C87.5484 7.826 86.9904 6.314 84.7764 6.314H84.5784C82.2744 6.314 81.8064 7.826 81.8064 8.96C81.8064 10.058 82.2744 11.642 84.5784 11.642ZM101.825 14H93.581V4.01H101.465C103.751 4.01 105.191 4.82 105.191 6.404V6.494C105.191 7.736 104.399 8.474 103.193 8.672C104.417 8.816 105.515 9.68 105.515 11.12V11.192C105.515 13.01 104.327 14 101.825 14ZM97.091 7.988H100.313C101.159 7.988 101.591 7.664 101.591 7.034V6.944C101.591 6.368 101.195 6.026 100.313 6.026H97.091V7.988ZM97.091 11.984H100.457C101.393 11.984 101.915 11.678 101.915 10.976V10.832C101.915 10.202 101.483 9.806 100.457 9.806H97.091V11.984ZM112.588 12.002C114.64 12.002 115.342 10.706 115.342 9.95V9.176C115.036 9.302 114.154 9.482 113.146 9.644C111.454 9.932 110.914 10.166 110.914 10.868V10.904C110.914 11.534 111.364 12.002 112.588 12.002ZM115.45 12.614C115.018 13.136 113.938 14.198 111.598 14.198H111.31C108.52 14.198 107.368 12.686 107.368 11.03V10.958C107.368 9.23 108.466 8.168 111.85 7.88L114.586 7.646C115.144 7.592 115.342 7.412 115.342 6.998C115.342 6.53 115.198 6.026 113.254 6.026C111.418 6.026 111.238 6.746 111.238 7.124H107.638V7.088C107.638 6.098 108.034 3.776 112.948 3.776H113.506C118.456 3.776 118.762 5.81 118.762 7.142V10.436C118.762 11.066 118.888 11.318 119.59 11.318H119.968V14H117.124C116.08 14 115.594 13.262 115.45 12.614ZM124.656 14V6.674H120.786V4.01H132.036V6.674H128.166V14H124.656ZM140.204 14.27H139.646C134.264 14.27 133.436 10.994 133.436 9.176V8.924C133.436 7.124 134.264 3.74 139.628 3.74H140.222C145.766 3.74 146.414 7.142 146.414 8.906V9.194C146.414 10.994 145.766 14.27 140.204 14.27ZM139.826 11.642H140.024C142.238 11.642 142.796 10.058 142.796 8.96C142.796 7.826 142.238 6.314 140.024 6.314H139.826C137.522 6.314 137.054 7.826 137.054 8.96C137.054 10.058 137.522 11.642 139.826 11.642ZM158.009 9.014V8.96C158.009 7.88 157.505 6.422 155.309 6.422H155.129C153.023 6.422 152.357 7.808 152.357 8.96V9.014C152.357 10.112 153.023 11.552 155.129 11.552H155.309C157.505 11.552 158.009 10.04 158.009 9.014ZM148.865 17.438V4.01H152.339V5.288C152.771 4.82 154.085 3.812 156.353 3.812H156.587C160.403 3.812 161.645 6.422 161.645 8.798V9.104C161.645 11.282 160.367 14.198 156.569 14.198H156.317C154.031 14.198 152.807 13.154 152.375 12.722V17.438H148.865ZM177.534 14H169.29V4.01H177.174C179.46 4.01 180.9 4.82 180.9 6.404V6.494C180.9 7.736 180.108 8.474 178.902 8.672C180.126 8.816 181.224 9.68 181.224 11.12V11.192C181.224 13.01 180.036 14 177.534 14ZM172.8 7.988H176.022C176.868 7.988 177.3 7.664 177.3 7.034V6.944C177.3 6.368 176.904 6.026 176.022 6.026H172.8V7.988ZM172.8 11.984H176.166C177.102 11.984 177.624 11.678 177.624 10.976V10.832C177.624 10.202 177.192 9.806 176.166 9.806H172.8V11.984ZM195.136 14.27H194.578C189.196 14.27 188.368 10.994 188.368 9.176V8.924C188.368 7.124 189.196 3.74 194.56 3.74H195.154C200.698 3.74 201.346 7.142 201.346 8.906V9.194C201.346 10.994 200.698 14.27 195.136 14.27ZM194.758 11.642H194.956C197.17 11.642 197.728 10.058 197.728 8.96C197.728 7.826 197.17 6.314 194.956 6.314H194.758C192.454 6.314 191.986 7.826 191.986 8.96C191.986 10.058 192.454 11.642 194.758 11.642ZM216.235 9.122V9.356C216.235 13.1 213.391 14.27 209.989 14.27H209.629C206.119 14.27 203.257 12.902 203.257 8.15V7.088C203.257 2.282 205.651 0.698 210.331 0.698H211.141C212.257 0.698 212.329 0.589999 212.365 0.373999H215.803C215.803 2.48 215.011 3.362 212.563 3.362H210.331C207.739 3.362 206.749 4.172 206.695 5.99C207.613 5.036 209.017 4.388 211.231 4.388H211.339C213.715 4.388 216.235 5.594 216.235 9.122ZM209.665 11.642H209.863C211.447 11.642 212.617 10.85 212.617 9.212C212.617 7.628 211.429 6.854 209.881 6.854H209.665C207.937 6.854 206.875 7.592 206.875 9.23C206.875 10.886 207.955 11.642 209.665 11.642ZM227.829 9.014V8.96C227.829 7.88 227.325 6.422 225.129 6.422H224.949C222.843 6.422 222.177 7.808 222.177 8.96V9.014C222.177 10.112 222.843 11.552 224.949 11.552H225.129C227.325 11.552 227.829 10.04 227.829 9.014ZM218.685 17.438V4.01H222.159V5.288C222.591 4.82 223.905 3.812 226.173 3.812H226.407C230.223 3.812 231.465 6.422 231.465 8.798V9.104C231.465 11.282 230.187 14.198 226.389 14.198H226.137C223.851 14.198 222.627 13.154 222.195 12.722V17.438H218.685ZM238.535 12.002C240.587 12.002 241.289 10.706 241.289 9.95V9.176C240.983 9.302 240.101 9.482 239.093 9.644C237.401 9.932 236.861 10.166 236.861 10.868V10.904C236.861 11.534 237.311 12.002 238.535 12.002ZM241.397 12.614C240.965 13.136 239.885 14.198 237.545 14.198H237.257C234.467 14.198 233.315 12.686 233.315 11.03V10.958C233.315 9.23 234.413 8.168 237.797 7.88L240.533 7.646C241.091 7.592 241.289 7.412 241.289 6.998C241.289 6.53 241.145 6.026 239.201 6.026C237.365 6.026 237.185 6.746 237.185 7.124H233.585V7.088C233.585 6.098 233.981 3.776 238.895 3.776H239.453C244.403 3.776 244.709 5.81 244.709 7.142V10.436C244.709 11.066 244.835 11.318 245.537 11.318H245.915V14H243.071C242.027 14 241.541 13.262 241.397 12.614ZM259.131 11.048V11.156C259.131 13.154 257.457 14.27 253.623 14.27H253.299C249.195 14.27 247.413 12.74 247.413 10.67V10.526H251.175C251.229 11.642 252.255 12.056 253.479 12.056C254.793 12.056 255.513 11.66 255.513 10.868V10.814C255.513 10.076 254.937 9.896 253.929 9.896H251.553V7.754H253.929C254.703 7.754 255.189 7.448 255.189 6.872V6.818C255.189 6.224 254.595 5.918 253.389 5.918C252.039 5.918 251.319 6.242 251.265 6.944H247.503V6.89C247.503 4.748 250.005 3.74 253.263 3.74H253.551C256.917 3.74 258.807 4.55 258.807 6.422V6.494C258.807 8.006 257.655 8.582 256.827 8.78C257.835 8.978 259.131 9.464 259.131 11.048ZM267.839 14.27H267.281C261.899 14.27 261.071 10.994 261.071 9.176V8.924C261.071 7.124 261.899 3.74 267.263 3.74H267.857C273.401 3.74 274.049 7.142 274.049 8.906V9.194C274.049 10.994 273.401 14.27 267.839 14.27ZM267.461 11.642H267.659C269.873 11.642 270.431 10.058 270.431 8.96C270.431 7.826 269.873 6.314 267.659 6.314H267.461C265.157 6.314 264.689 7.826 264.689 8.96C264.689 10.058 265.157 11.642 267.461 11.642ZM284.708 14H276.464V4.01H284.348C286.634 4.01 288.074 4.82 288.074 6.404V6.494C288.074 7.736 287.282 8.474 286.076 8.672C287.3 8.816 288.398 9.68 288.398 11.12V11.192C288.398 13.01 287.21 14 284.708 14ZM279.974 7.988H283.196C284.042 7.988 284.474 7.664 284.474 7.034V6.944C284.474 6.368 284.078 6.026 283.196 6.026H279.974V7.988ZM279.974 11.984H283.34C284.276 11.984 284.798 11.678 284.798 10.976V10.832C284.798 10.202 284.366 9.806 283.34 9.806H279.974V11.984ZM295.471 12.002C297.523 12.002 298.225 10.706 298.225 9.95V9.176C297.919 9.302 297.037 9.482 296.029 9.644C294.337 9.932 293.797 10.166 293.797 10.868V10.904C293.797 11.534 294.247 12.002 295.471 12.002ZM298.333 12.614C297.901 13.136 296.821 14.198 294.481 14.198H294.193C291.403 14.198 290.251 12.686 290.251 11.03V10.958C290.251 9.23 291.349 8.168 294.733 7.88L297.469 7.646C298.027 7.592 298.225 7.412 298.225 6.998C298.225 6.53 298.081 6.026 296.137 6.026C294.301 6.026 294.121 6.746 294.121 7.124H290.521V7.088C290.521 6.098 290.917 3.776 295.831 3.776H296.389C301.339 3.776 301.645 5.81 301.645 7.142V10.436C301.645 11.066 301.771 11.318 302.473 11.318H302.851V14H300.007C298.963 14 298.477 13.262 298.333 12.614ZM308.363 14H304.853V4.01H308.363V7.646H313.259V4.01H316.769V14H313.259V10.31H308.363V14ZM328.112 7.952L323.288 14H319.688V4.01H323.198V10.058L328.022 4.01H331.622V14H328.112V7.952ZM342.966 7.952L338.142 14H334.542V4.01H338.052V10.058L342.876 4.01H346.476V14H342.966V7.952Z" fill="url(#paint1_radial_10_623)" style="mix-blend-mode:overlay"/>
<path d="M11.1172 4.982V4.892C11.1172 4.262 10.5772 3.29 7.89525 3.29C4.96125 3.29 4.63725 4.316 4.63725 4.874V4.982C4.63725 5.63 5.06925 6.494 7.89525 6.494C10.6312 6.494 11.1172 5.63 11.1172 4.982ZM8.43525 14.198H7.76925C2.45925 14.198 1.30725 11.75 1.30725 10.166V10.148H4.97925C4.97925 10.31 5.23125 11.336 8.02125 11.336C11.2432 11.336 11.6212 9.032 11.6212 7.934V7.808C11.2792 8.096 10.1272 9.104 7.06725 9.104H6.67125C2.35125 9.104 0.821248 7.214 0.821248 5.27V4.982C0.821248 3.128 1.75725 0.446 7.35525 0.446H8.45325C14.4652 0.446 15.4012 4.694 15.4012 6.998V7.412C15.4012 9.446 14.3752 14.198 8.43525 14.198ZM21.8078 10.508V14H17.6138V10.508H21.8078ZM42.194 14V5L34.364 14H30.656V0.608H34.364V9.608L42.194 0.608H45.902V14H42.194ZM52.5305 14H49.0205V4.01H52.5305V7.646H57.4265V4.01H60.9365V14H57.4265V10.31H52.5305V14ZM67.3664 14H63.8564V4.01H67.3664V7.646H72.2624V4.01H75.7724V14H72.2624V10.31H67.3664V14ZM84.9564 14.27H84.3984C79.0164 14.27 78.1884 10.994 78.1884 9.176V8.924C78.1884 7.124 79.0164 3.74 84.3804 3.74H84.9744C90.5184 3.74 91.1664 7.142 91.1664 8.906V9.194C91.1664 10.994 90.5184 14.27 84.9564 14.27ZM84.5784 11.642H84.7764C86.9904 11.642 87.5484 10.058 87.5484 8.96C87.5484 7.826 86.9904 6.314 84.7764 6.314H84.5784C82.2744 6.314 81.8064 7.826 81.8064 8.96C81.8064 10.058 82.2744 11.642 84.5784 11.642ZM101.825 14H93.581V4.01H101.465C103.751 4.01 105.191 4.82 105.191 6.404V6.494C105.191 7.736 104.399 8.474 103.193 8.672C104.417 8.816 105.515 9.68 105.515 11.12V11.192C105.515 13.01 104.327 14 101.825 14ZM97.091 7.988H100.313C101.159 7.988 101.591 7.664 101.591 7.034V6.944C101.591 6.368 101.195 6.026 100.313 6.026H97.091V7.988ZM97.091 11.984H100.457C101.393 11.984 101.915 11.678 101.915 10.976V10.832C101.915 10.202 101.483 9.806 100.457 9.806H97.091V11.984ZM112.588 12.002C114.64 12.002 115.342 10.706 115.342 9.95V9.176C115.036 9.302 114.154 9.482 113.146 9.644C111.454 9.932 110.914 10.166 110.914 10.868V10.904C110.914 11.534 111.364 12.002 112.588 12.002ZM115.45 12.614C115.018 13.136 113.938 14.198 111.598 14.198H111.31C108.52 14.198 107.368 12.686 107.368 11.03V10.958C107.368 9.23 108.466 8.168 111.85 7.88L114.586 7.646C115.144 7.592 115.342 7.412 115.342 6.998C115.342 6.53 115.198 6.026 113.254 6.026C111.418 6.026 111.238 6.746 111.238 7.124H107.638V7.088C107.638 6.098 108.034 3.776 112.948 3.776H113.506C118.456 3.776 118.762 5.81 118.762 7.142V10.436C118.762 11.066 118.888 11.318 119.59 11.318H119.968V14H117.124C116.08 14 115.594 13.262 115.45 12.614ZM124.656 14V6.674H120.786V4.01H132.036V6.674H128.166V14H124.656ZM140.204 14.27H139.646C134.264 14.27 133.436 10.994 133.436 9.176V8.924C133.436 7.124 134.264 3.74 139.628 3.74H140.222C145.766 3.74 146.414 7.142 146.414 8.906V9.194C146.414 10.994 145.766 14.27 140.204 14.27ZM139.826 11.642H140.024C142.238 11.642 142.796 10.058 142.796 8.96C142.796 7.826 142.238 6.314 140.024 6.314H139.826C137.522 6.314 137.054 7.826 137.054 8.96C137.054 10.058 137.522 11.642 139.826 11.642ZM158.009 9.014V8.96C158.009 7.88 157.505 6.422 155.309 6.422H155.129C153.023 6.422 152.357 7.808 152.357 8.96V9.014C152.357 10.112 153.023 11.552 155.129 11.552H155.309C157.505 11.552 158.009 10.04 158.009 9.014ZM148.865 17.438V4.01H152.339V5.288C152.771 4.82 154.085 3.812 156.353 3.812H156.587C160.403 3.812 161.645 6.422 161.645 8.798V9.104C161.645 11.282 160.367 14.198 156.569 14.198H156.317C154.031 14.198 152.807 13.154 152.375 12.722V17.438H148.865ZM177.534 14H169.29V4.01H177.174C179.46 4.01 180.9 4.82 180.9 6.404V6.494C180.9 7.736 180.108 8.474 178.902 8.672C180.126 8.816 181.224 9.68 181.224 11.12V11.192C181.224 13.01 180.036 14 177.534 14ZM172.8 7.988H176.022C176.868 7.988 177.3 7.664 177.3 7.034V6.944C177.3 6.368 176.904 6.026 176.022 6.026H172.8V7.988ZM172.8 11.984H176.166C177.102 11.984 177.624 11.678 177.624 10.976V10.832C177.624 10.202 177.192 9.806 176.166 9.806H172.8V11.984ZM195.136 14.27H194.578C189.196 14.27 188.368 10.994 188.368 9.176V8.924C188.368 7.124 189.196 3.74 194.56 3.74H195.154C200.698 3.74 201.346 7.142 201.346 8.906V9.194C201.346 10.994 200.698 14.27 195.136 14.27ZM194.758 11.642H194.956C197.17 11.642 197.728 10.058 197.728 8.96C197.728 7.826 197.17 6.314 194.956 6.314H194.758C192.454 6.314 191.986 7.826 191.986 8.96C191.986 10.058 192.454 11.642 194.758 11.642ZM216.235 9.122V9.356C216.235 13.1 213.391 14.27 209.989 14.27H209.629C206.119 14.27 203.257 12.902 203.257 8.15V7.088C203.257 2.282 205.651 0.698 210.331 0.698H211.141C212.257 0.698 212.329 0.589999 212.365 0.373999H215.803C215.803 2.48 215.011 3.362 212.563 3.362H210.331C207.739 3.362 206.749 4.172 206.695 5.99C207.613 5.036 209.017 4.388 211.231 4.388H211.339C213.715 4.388 216.235 5.594 216.235 9.122ZM209.665 11.642H209.863C211.447 11.642 212.617 10.85 212.617 9.212C212.617 7.628 211.429 6.854 209.881 6.854H209.665C207.937 6.854 206.875 7.592 206.875 9.23C206.875 10.886 207.955 11.642 209.665 11.642ZM227.829 9.014V8.96C227.829 7.88 227.325 6.422 225.129 6.422H224.949C222.843 6.422 222.177 7.808 222.177 8.96V9.014C222.177 10.112 222.843 11.552 224.949 11.552H225.129C227.325 11.552 227.829 10.04 227.829 9.014ZM218.685 17.438V4.01H222.159V5.288C222.591 4.82 223.905 3.812 226.173 3.812H226.407C230.223 3.812 231.465 6.422 231.465 8.798V9.104C231.465 11.282 230.187 14.198 226.389 14.198H226.137C223.851 14.198 222.627 13.154 222.195 12.722V17.438H218.685ZM238.535 12.002C240.587 12.002 241.289 10.706 241.289 9.95V9.176C240.983 9.302 240.101 9.482 239.093 9.644C237.401 9.932 236.861 10.166 236.861 10.868V10.904C236.861 11.534 237.311 12.002 238.535 12.002ZM241.397 12.614C240.965 13.136 239.885 14.198 237.545 14.198H237.257C234.467 14.198 233.315 12.686 233.315 11.03V10.958C233.315 9.23 234.413 8.168 237.797 7.88L240.533 7.646C241.091 7.592 241.289 7.412 241.289 6.998C241.289 6.53 241.145 6.026 239.201 6.026C237.365 6.026 237.185 6.746 237.185 7.124H233.585V7.088C233.585 6.098 233.981 3.776 238.895 3.776H239.453C244.403 3.776 244.709 5.81 244.709 7.142V10.436C244.709 11.066 244.835 11.318 245.537 11.318H245.915V14H243.071C242.027 14 241.541 13.262 241.397 12.614ZM259.131 11.048V11.156C259.131 13.154 257.457 14.27 253.623 14.27H253.299C249.195 14.27 247.413 12.74 247.413 10.67V10.526H251.175C251.229 11.642 252.255 12.056 253.479 12.056C254.793 12.056 255.513 11.66 255.513 10.868V10.814C255.513 10.076 254.937 9.896 253.929 9.896H251.553V7.754H253.929C254.703 7.754 255.189 7.448 255.189 6.872V6.818C255.189 6.224 254.595 5.918 253.389 5.918C252.039 5.918 251.319 6.242 251.265 6.944H247.503V6.89C247.503 4.748 250.005 3.74 253.263 3.74H253.551C256.917 3.74 258.807 4.55 258.807 6.422V6.494C258.807 8.006 257.655 8.582 256.827 8.78C257.835 8.978 259.131 9.464 259.131 11.048ZM267.839 14.27H267.281C261.899 14.27 261.071 10.994 261.071 9.176V8.924C261.071 7.124 261.899 3.74 267.263 3.74H267.857C273.401 3.74 274.049 7.142 274.049 8.906V9.194C274.049 10.994 273.401 14.27 267.839 14.27ZM267.461 11.642H267.659C269.873 11.642 270.431 10.058 270.431 8.96C270.431 7.826 269.873 6.314 267.659 6.314H267.461C265.157 6.314 264.689 7.826 264.689 8.96C264.689 10.058 265.157 11.642 267.461 11.642ZM284.708 14H276.464V4.01H284.348C286.634 4.01 288.074 4.82 288.074 6.404V6.494C288.074 7.736 287.282 8.474 286.076 8.672C287.3 8.816 288.398 9.68 288.398 11.12V11.192C288.398 13.01 287.21 14 284.708 14ZM279.974 7.988H283.196C284.042 7.988 284.474 7.664 284.474 7.034V6.944C284.474 6.368 284.078 6.026 283.196 6.026H279.974V7.988ZM279.974 11.984H283.34C284.276 11.984 284.798 11.678 284.798 10.976V10.832C284.798 10.202 284.366 9.806 283.34 9.806H279.974V11.984ZM295.471 12.002C297.523 12.002 298.225 10.706 298.225 9.95V9.176C297.919 9.302 297.037 9.482 296.029 9.644C294.337 9.932 293.797 10.166 293.797 10.868V10.904C293.797 11.534 294.247 12.002 295.471 12.002ZM298.333 12.614C297.901 13.136 296.821 14.198 294.481 14.198H294.193C291.403 14.198 290.251 12.686 290.251 11.03V10.958C290.251 9.23 291.349 8.168 294.733 7.88L297.469 7.646C298.027 7.592 298.225 7.412 298.225 6.998C298.225 6.53 298.081 6.026 296.137 6.026C294.301 6.026 294.121 6.746 294.121 7.124H290.521V7.088C290.521 6.098 290.917 3.776 295.831 3.776H296.389C301.339 3.776 301.645 5.81 301.645 7.142V10.436C301.645 11.066 301.771 11.318 302.473 11.318H302.851V14H300.007C298.963 14 298.477 13.262 298.333 12.614ZM308.363 14H304.853V4.01H308.363V7.646H313.259V4.01H316.769V14H313.259V10.31H308.363V14ZM328.112 7.952L323.288 14H319.688V4.01H323.198V10.058L328.022 4.01H331.622V14H328.112V7.952ZM342.966 7.952L338.142 14H334.542V4.01H338.052V10.058L342.876 4.01H346.476V14H342.966V7.952Z" fill="url(#paint2_radial_10_623)"/>
<path d="M11.1172 4.982V4.892C11.1172 4.262 10.5772 3.29 7.89525 3.29C4.96125 3.29 4.63725 4.316 4.63725 4.874V4.982C4.63725 5.63 5.06925 6.494 7.89525 6.494C10.6312 6.494 11.1172 5.63 11.1172 4.982ZM8.43525 14.198H7.76925C2.45925 14.198 1.30725 11.75 1.30725 10.166V10.148H4.97925C4.97925 10.31 5.23125 11.336 8.02125 11.336C11.2432 11.336 11.6212 9.032 11.6212 7.934V7.808C11.2792 8.096 10.1272 9.104 7.06725 9.104H6.67125C2.35125 9.104 0.821248 7.214 0.821248 5.27V4.982C0.821248 3.128 1.75725 0.446 7.35525 0.446H8.45325C14.4652 0.446 15.4012 4.694 15.4012 6.998V7.412C15.4012 9.446 14.3752 14.198 8.43525 14.198ZM21.8078 10.508V14H17.6138V10.508H21.8078ZM42.194 14V5L34.364 14H30.656V0.608H34.364V9.608L42.194 0.608H45.902V14H42.194ZM52.5305 14H49.0205V4.01H52.5305V7.646H57.4265V4.01H60.9365V14H57.4265V10.31H52.5305V14ZM67.3664 14H63.8564V4.01H67.3664V7.646H72.2624V4.01H75.7724V14H72.2624V10.31H67.3664V14ZM84.9564 14.27H84.3984C79.0164 14.27 78.1884 10.994 78.1884 9.176V8.924C78.1884 7.124 79.0164 3.74 84.3804 3.74H84.9744C90.5184 3.74 91.1664 7.142 91.1664 8.906V9.194C91.1664 10.994 90.5184 14.27 84.9564 14.27ZM84.5784 11.642H84.7764C86.9904 11.642 87.5484 10.058 87.5484 8.96C87.5484 7.826 86.9904 6.314 84.7764 6.314H84.5784C82.2744 6.314 81.8064 7.826 81.8064 8.96C81.8064 10.058 82.2744 11.642 84.5784 11.642ZM101.825 14H93.581V4.01H101.465C103.751 4.01 105.191 4.82 105.191 6.404V6.494C105.191 7.736 104.399 8.474 103.193 8.672C104.417 8.816 105.515 9.68 105.515 11.12V11.192C105.515 13.01 104.327 14 101.825 14ZM97.091 7.988H100.313C101.159 7.988 101.591 7.664 101.591 7.034V6.944C101.591 6.368 101.195 6.026 100.313 6.026H97.091V7.988ZM97.091 11.984H100.457C101.393 11.984 101.915 11.678 101.915 10.976V10.832C101.915 10.202 101.483 9.806 100.457 9.806H97.091V11.984ZM112.588 12.002C114.64 12.002 115.342 10.706 115.342 9.95V9.176C115.036 9.302 114.154 9.482 113.146 9.644C111.454 9.932 110.914 10.166 110.914 10.868V10.904C110.914 11.534 111.364 12.002 112.588 12.002ZM115.45 12.614C115.018 13.136 113.938 14.198 111.598 14.198H111.31C108.52 14.198 107.368 12.686 107.368 11.03V10.958C107.368 9.23 108.466 8.168 111.85 7.88L114.586 7.646C115.144 7.592 115.342 7.412 115.342 6.998C115.342 6.53 115.198 6.026 113.254 6.026C111.418 6.026 111.238 6.746 111.238 7.124H107.638V7.088C107.638 6.098 108.034 3.776 112.948 3.776H113.506C118.456 3.776 118.762 5.81 118.762 7.142V10.436C118.762 11.066 118.888 11.318 119.59 11.318H119.968V14H117.124C116.08 14 115.594 13.262 115.45 12.614ZM124.656 14V6.674H120.786V4.01H132.036V6.674H128.166V14H124.656ZM140.204 14.27H139.646C134.264 14.27 133.436 10.994 133.436 9.176V8.924C133.436 7.124 134.264 3.74 139.628 3.74H140.222C145.766 3.74 146.414 7.142 146.414 8.906V9.194C146.414 10.994 145.766 14.27 140.204 14.27ZM139.826 11.642H140.024C142.238 11.642 142.796 10.058 142.796 8.96C142.796 7.826 142.238 6.314 140.024 6.314H139.826C137.522 6.314 137.054 7.826 137.054 8.96C137.054 10.058 137.522 11.642 139.826 11.642ZM158.009 9.014V8.96C158.009 7.88 157.505 6.422 155.309 6.422H155.129C153.023 6.422 152.357 7.808 152.357 8.96V9.014C152.357 10.112 153.023 11.552 155.129 11.552H155.309C157.505 11.552 158.009 10.04 158.009 9.014ZM148.865 17.438V4.01H152.339V5.288C152.771 4.82 154.085 3.812 156.353 3.812H156.587C160.403 3.812 161.645 6.422 161.645 8.798V9.104C161.645 11.282 160.367 14.198 156.569 14.198H156.317C154.031 14.198 152.807 13.154 152.375 12.722V17.438H148.865ZM177.534 14H169.29V4.01H177.174C179.46 4.01 180.9 4.82 180.9 6.404V6.494C180.9 7.736 180.108 8.474 178.902 8.672C180.126 8.816 181.224 9.68 181.224 11.12V11.192C181.224 13.01 180.036 14 177.534 14ZM172.8 7.988H176.022C176.868 7.988 177.3 7.664 177.3 7.034V6.944C177.3 6.368 176.904 6.026 176.022 6.026H172.8V7.988ZM172.8 11.984H176.166C177.102 11.984 177.624 11.678 177.624 10.976V10.832C177.624 10.202 177.192 9.806 176.166 9.806H172.8V11.984ZM195.136 14.27H194.578C189.196 14.27 188.368 10.994 188.368 9.176V8.924C188.368 7.124 189.196 3.74 194.56 3.74H195.154C200.698 3.74 201.346 7.142 201.346 8.906V9.194C201.346 10.994 200.698 14.27 195.136 14.27ZM194.758 11.642H194.956C197.17 11.642 197.728 10.058 197.728 8.96C197.728 7.826 197.17 6.314 194.956 6.314H194.758C192.454 6.314 191.986 7.826 191.986 8.96C191.986 10.058 192.454 11.642 194.758 11.642ZM216.235 9.122V9.356C216.235 13.1 213.391 14.27 209.989 14.27H209.629C206.119 14.27 203.257 12.902 203.257 8.15V7.088C203.257 2.282 205.651 0.698 210.331 0.698H211.141C212.257 0.698 212.329 0.589999 212.365 0.373999H215.803C215.803 2.48 215.011 3.362 212.563 3.362H210.331C207.739 3.362 206.749 4.172 206.695 5.99C207.613 5.036 209.017 4.388 211.231 4.388H211.339C213.715 4.388 216.235 5.594 216.235 9.122ZM209.665 11.642H209.863C211.447 11.642 212.617 10.85 212.617 9.212C212.617 7.628 211.429 6.854 209.881 6.854H209.665C207.937 6.854 206.875 7.592 206.875 9.23C206.875 10.886 207.955 11.642 209.665 11.642ZM227.829 9.014V8.96C227.829 7.88 227.325 6.422 225.129 6.422H224.949C222.843 6.422 222.177 7.808 222.177 8.96V9.014C222.177 10.112 222.843 11.552 224.949 11.552H225.129C227.325 11.552 227.829 10.04 227.829 9.014ZM218.685 17.438V4.01H222.159V5.288C222.591 4.82 223.905 3.812 226.173 3.812H226.407C230.223 3.812 231.465 6.422 231.465 8.798V9.104C231.465 11.282 230.187 14.198 226.389 14.198H226.137C223.851 14.198 222.627 13.154 222.195 12.722V17.438H218.685ZM238.535 12.002C240.587 12.002 241.289 10.706 241.289 9.95V9.176C240.983 9.302 240.101 9.482 239.093 9.644C237.401 9.932 236.861 10.166 236.861 10.868V10.904C236.861 11.534 237.311 12.002 238.535 12.002ZM241.397 12.614C240.965 13.136 239.885 14.198 237.545 14.198H237.257C234.467 14.198 233.315 12.686 233.315 11.03V10.958C233.315 9.23 234.413 8.168 237.797 7.88L240.533 7.646C241.091 7.592 241.289 7.412 241.289 6.998C241.289 6.53 241.145 6.026 239.201 6.026C237.365 6.026 237.185 6.746 237.185 7.124H233.585V7.088C233.585 6.098 233.981 3.776 238.895 3.776H239.453C244.403 3.776 244.709 5.81 244.709 7.142V10.436C244.709 11.066 244.835 11.318 245.537 11.318H245.915V14H243.071C242.027 14 241.541 13.262 241.397 12.614ZM259.131 11.048V11.156C259.131 13.154 257.457 14.27 253.623 14.27H253.299C249.195 14.27 247.413 12.74 247.413 10.67V10.526H251.175C251.229 11.642 252.255 12.056 253.479 12.056C254.793 12.056 255.513 11.66 255.513 10.868V10.814C255.513 10.076 254.937 9.896 253.929 9.896H251.553V7.754H253.929C254.703 7.754 255.189 7.448 255.189 6.872V6.818C255.189 6.224 254.595 5.918 253.389 5.918C252.039 5.918 251.319 6.242 251.265 6.944H247.503V6.89C247.503 4.748 250.005 3.74 253.263 3.74H253.551C256.917 3.74 258.807 4.55 258.807 6.422V6.494C258.807 8.006 257.655 8.582 256.827 8.78C257.835 8.978 259.131 9.464 259.131 11.048ZM267.839 14.27H267.281C261.899 14.27 261.071 10.994 261.071 9.176V8.924C261.071 7.124 261.899 3.74 267.263 3.74H267.857C273.401 3.74 274.049 7.142 274.049 8.906V9.194C274.049 10.994 273.401 14.27 267.839 14.27ZM267.461 11.642H267.659C269.873 11.642 270.431 10.058 270.431 8.96C270.431 7.826 269.873 6.314 267.659 6.314H267.461C265.157 6.314 264.689 7.826 264.689 8.96C264.689 10.058 265.157 11.642 267.461 11.642ZM284.708 14H276.464V4.01H284.348C286.634 4.01 288.074 4.82 288.074 6.404V6.494C288.074 7.736 287.282 8.474 286.076 8.672C287.3 8.816 288.398 9.68 288.398 11.12V11.192C288.398 13.01 287.21 14 284.708 14ZM279.974 7.988H283.196C284.042 7.988 284.474 7.664 284.474 7.034V6.944C284.474 6.368 284.078 6.026 283.196 6.026H279.974V7.988ZM279.974 11.984H283.34C284.276 11.984 284.798 11.678 284.798 10.976V10.832C284.798 10.202 284.366 9.806 283.34 9.806H279.974V11.984ZM295.471 12.002C297.523 12.002 298.225 10.706 298.225 9.95V9.176C297.919 9.302 297.037 9.482 296.029 9.644C294.337 9.932 293.797 10.166 293.797 10.868V10.904C293.797 11.534 294.247 12.002 295.471 12.002ZM298.333 12.614C297.901 13.136 296.821 14.198 294.481 14.198H294.193C291.403 14.198 290.251 12.686 290.251 11.03V10.958C290.251 9.23 291.349 8.168 294.733 7.88L297.469 7.646C298.027 7.592 298.225 7.412 298.225 6.998C298.225 6.53 298.081 6.026 296.137 6.026C294.301 6.026 294.121 6.746 294.121 7.124H290.521V7.088C290.521 6.098 290.917 3.776 295.831 3.776H296.389C301.339 3.776 301.645 5.81 301.645 7.142V10.436C301.645 11.066 301.771 11.318 302.473 11.318H302.851V14H300.007C298.963 14 298.477 13.262 298.333 12.614ZM308.363 14H304.853V4.01H308.363V7.646H313.259V4.01H316.769V14H313.259V10.31H308.363V14ZM328.112 7.952L323.288 14H319.688V4.01H323.198V10.058L328.022 4.01H331.622V14H328.112V7.952ZM342.966 7.952L338.142 14H334.542V4.01H338.052V10.058L342.876 4.01H346.476V14H342.966V7.952Z" fill="#C1A875" style="mix-blend-mode:color"/>
<defs>
<linearGradient id="paint0_linear_10_623" x1="2" y1="6" x2="348" y2="6.00003" gradientUnits="userSpaceOnUse">
<stop stop-color="#576167"/>
<stop offset="0.191294" stop-color="#9EA1A2"/>
<stop offset="0.396166" stop-color="#848989"/>
<stop offset="0.62055" stop-color="#576167"/>
<stop offset="0.830299" stop-color="#757A7C"/>
<stop offset="1" stop-color="#576167"/>
</linearGradient>
<radialGradient id="paint1_radial_10_623" cx="0" cy="0" r="1" gradientUnits="userSpaceOnUse" gradientTransform="translate(186.263 -3.20225) rotate(90) scale(17.8315 261.76)">
<stop stop-color="white"/>
<stop offset="1" stop-color="white" stop-opacity="0"/>
</radialGradient>
<radialGradient id="paint2_radial_10_623" cx="0" cy="0" r="1" gradientUnits="userSpaceOnUse" gradientTransform="translate(205.834 23.6629) rotate(-88.7581) scale(25.5566 374.223)">
<stop stop-color="white"/>
<stop offset="1" stop-color="white" stop-opacity="0"/>
</radialGradient>
</defs>
</svg>
