<svg width="178" height="42" viewBox="0 0 178 42" fill="none" xmlns="http://www.w3.org/2000/svg">
<path d="M1.656 14V0.608H6.588L10.854 9.68L15.246 0.608H19.872V14H16.254V5.234L12.186 14H9.288L5.22 5.234V14H1.656ZM31.4152 7.952L26.5912 14H22.9912V4.01H26.5012V10.058L31.3252 4.01H34.9252V14H31.4152V7.952ZM37.8447 14V4.01H41.3547V11.336H44.4507V4.01H47.9607V11.336H51.0567V4.01H54.5667V14H37.8447ZM65.9035 7.952L61.0795 14H57.4795V4.01H60.9895V10.058L65.8135 4.01H69.4135V14H65.9035V7.952ZM75.843 14H72.333V4.01H75.843V7.646H80.739V4.01H84.249V14H80.739V10.31H75.843V14ZM91.8849 12.002C93.9369 12.002 94.6389 10.706 94.6389 9.95V9.176C94.3329 9.302 93.4509 9.482 92.4429 9.644C90.7509 9.932 90.2109 10.166 90.2109 10.868V10.904C90.2109 11.534 90.6609 12.002 91.8849 12.002ZM94.7469 12.614C94.3149 13.136 93.2349 14.198 90.8949 14.198H90.6069C87.8169 14.198 86.6649 12.686 86.6649 11.03V10.958C86.6649 9.23 87.7629 8.168 91.1469 7.88L93.8829 7.646C94.4409 7.592 94.6389 7.412 94.6389 6.998C94.6389 6.53 94.4949 6.026 92.5509 6.026C90.7149 6.026 90.5349 6.746 90.5349 7.124H86.9349V7.088C86.9349 6.098 87.3309 3.776 92.2449 3.776H92.8029C97.7529 3.776 98.0589 5.81 98.0589 7.142V10.436C98.0589 11.066 98.1849 11.318 98.8869 11.318H99.2649V14H96.4209C95.3769 14 94.8909 13.262 94.7469 12.614ZM106.668 0.608H118.926V3.524H110.322V5.702H118.656V8.726H110.322V11.048H119.034V14H106.668V0.608ZM129.988 14V6.674H126.028C126.028 9.356 125.938 10.85 125.596 11.768C125.218 12.776 124.714 14 122.068 14H120.97V11.39H121.186C121.816 11.39 122.284 11.174 122.482 10.256C122.626 9.482 122.68 8.636 122.68 4.01H133.498V14H129.988ZM142.219 6.08C140.401 6.08 139.717 6.818 139.537 7.862H144.829C144.829 7.124 144.469 6.08 142.219 6.08ZM144.901 10.886H148.555C148.555 11.714 147.907 14.234 142.741 14.234H142.075C137.143 14.234 135.919 11.534 135.919 9.14V8.888C135.919 6.638 137.035 3.794 141.769 3.794H142.561C147.673 3.794 148.591 6.638 148.591 9.428V9.752H139.501C139.645 10.904 140.383 11.84 142.525 11.84C144.559 11.84 144.811 11.048 144.901 10.886ZM154.505 14H150.995V4.01H154.505V7.646H159.401V4.01H162.911V14H159.401V10.31H154.505V14ZM170.547 12.002C172.599 12.002 173.301 10.706 173.301 9.95V9.176C172.995 9.302 172.113 9.482 171.105 9.644C169.413 9.932 168.873 10.166 168.873 10.868V10.904C168.873 11.534 169.323 12.002 170.547 12.002ZM173.409 12.614C172.977 13.136 171.897 14.198 169.557 14.198H169.269C166.479 14.198 165.327 12.686 165.327 11.03V10.958C165.327 9.23 166.425 8.168 169.809 7.88L172.545 7.646C173.103 7.592 173.301 7.412 173.301 6.998C173.301 6.53 173.157 6.026 171.213 6.026C169.377 6.026 169.197 6.746 169.197 7.124H165.597V7.088C165.597 6.098 165.993 3.776 170.907 3.776H171.465C176.415 3.776 176.721 5.81 176.721 7.142V10.436C176.721 11.066 176.847 11.318 177.549 11.318H177.927V14H175.083C174.039 14 173.553 13.262 173.409 12.614ZM10.998 32.762L8.568 27.308L6.21 32.762H10.998ZM13.338 38L12.24 35.516H5.004L3.924 38H0.198L6.138 24.608H11.106L17.316 38H13.338ZM28.1458 33.014V32.96C28.1458 31.88 27.6418 30.422 25.4458 30.422H25.2658C23.1598 30.422 22.4938 31.808 22.4938 32.96V33.014C22.4938 34.112 23.1598 35.552 25.2658 35.552H25.4458C27.6418 35.552 28.1458 34.04 28.1458 33.014ZM19.0018 41.438V28.01H22.4758V29.288C22.9078 28.82 24.2218 27.812 26.4898 27.812H26.7238C30.5398 27.812 31.7818 30.422 31.7818 32.798V33.104C31.7818 35.282 30.5038 38.198 26.7058 38.198H26.4538C24.1678 38.198 22.9438 37.154 22.5118 36.722V41.438H19.0018ZM41.6576 38L37.7696 33.374V38H34.2596V28.01H37.7696V32.006L41.3336 28.01H45.3836L41.2076 32.492L45.8336 38H41.6576ZM51.6486 36.002C53.7006 36.002 54.4026 34.706 54.4026 33.95V33.176C54.0966 33.302 53.2146 33.482 52.2066 33.644C50.5146 33.932 49.9746 34.166 49.9746 34.868V34.904C49.9746 35.534 50.4246 36.002 51.6486 36.002ZM54.5106 36.614C54.0786 37.136 52.9986 38.198 50.6586 38.198H50.3706C47.5806 38.198 46.4286 36.686 46.4286 35.03V34.958C46.4286 33.23 47.5266 32.168 50.9106 31.88L53.6466 31.646C54.2046 31.592 54.4026 31.412 54.4026 30.998C54.4026 30.53 54.2586 30.026 52.3146 30.026C50.4786 30.026 50.2986 30.746 50.2986 31.124H46.6986V31.088C46.6986 30.098 47.0946 27.776 52.0086 27.776H52.5666C57.5166 27.776 57.8226 29.81 57.8226 31.142V34.436C57.8226 35.066 57.9486 35.318 58.6506 35.318H59.0286V38H56.1846C55.1406 38 54.6546 37.262 54.5106 36.614ZM60.5538 40.124V35.336H61.7598C62.4438 33.968 62.5518 30.998 62.6418 28.01H73.2078V35.336H75.0078V40.124H71.6778V38H63.8838V40.124H60.5538ZM65.0718 35.336H69.6978V30.674H65.7918C65.7378 31.97 65.5578 33.95 65.0718 35.336ZM77.0967 38V28.01H80.6067V30.872H83.3427C86.7627 30.872 88.0947 32.384 88.0947 34.292V34.508C88.0947 36.596 86.7627 38 83.3427 38H77.0967ZM80.6067 35.624H82.9107C83.6307 35.624 84.4947 35.408 84.4947 34.436V34.382C84.4947 33.482 83.6307 33.248 82.9107 33.248H80.6067V35.624ZM96.1646 30.08C94.3466 30.08 93.6626 30.818 93.4826 31.862H98.7746C98.7746 31.124 98.4146 30.08 96.1646 30.08ZM98.8466 34.886H102.501C102.501 35.714 101.853 38.234 96.6866 38.234H96.0206C91.0886 38.234 89.8646 35.534 89.8646 33.14V32.888C89.8646 30.638 90.9806 27.794 95.7146 27.794H96.5066C101.619 27.794 102.537 30.638 102.537 33.428V33.752H93.4466C93.5906 34.904 94.3286 35.84 96.4706 35.84C98.5046 35.84 98.7566 35.048 98.8466 34.886ZM113.184 38H104.94V28.01H112.824C115.11 28.01 116.55 28.82 116.55 30.404V30.494C116.55 31.736 115.758 32.474 114.552 32.672C115.776 32.816 116.874 33.68 116.874 35.12V35.192C116.874 37.01 115.686 38 113.184 38ZM108.45 31.988H111.672C112.518 31.988 112.95 31.664 112.95 31.034V30.944C112.95 30.368 112.554 30.026 111.672 30.026H108.45V31.988ZM108.45 35.984H111.816C112.752 35.984 113.274 35.678 113.274 34.976V34.832C113.274 34.202 112.842 33.806 111.816 33.806H108.45V35.984ZM122.829 38H119.319V28.01H122.829V31.646H127.725V28.01H131.235V38H127.725V34.31H122.829V38ZM138.871 36.002C140.923 36.002 141.625 34.706 141.625 33.95V33.176C141.319 33.302 140.437 33.482 139.429 33.644C137.737 33.932 137.197 34.166 137.197 34.868V34.904C137.197 35.534 137.647 36.002 138.871 36.002ZM141.733 36.614C141.301 37.136 140.221 38.198 137.881 38.198H137.593C134.803 38.198 133.651 36.686 133.651 35.03V34.958C133.651 33.23 134.749 32.168 138.133 31.88L140.869 31.646C141.427 31.592 141.625 31.412 141.625 30.998C141.625 30.53 141.481 30.026 139.537 30.026C137.701 30.026 137.521 30.746 137.521 31.124H133.921V31.088C133.921 30.098 134.317 27.776 139.231 27.776H139.789C144.739 27.776 145.045 29.81 145.045 31.142V34.436C145.045 35.066 145.171 35.318 145.873 35.318H146.251V38H143.407C142.363 38 141.877 37.262 141.733 36.614Z" fill="url(#paint0_linear_41_56)"/>
<path d="M1.656 14V0.608H6.588L10.854 9.68L15.246 0.608H19.872V14H16.254V5.234L12.186 14H9.288L5.22 5.234V14H1.656ZM31.4152 7.952L26.5912 14H22.9912V4.01H26.5012V10.058L31.3252 4.01H34.9252V14H31.4152V7.952ZM37.8447 14V4.01H41.3547V11.336H44.4507V4.01H47.9607V11.336H51.0567V4.01H54.5667V14H37.8447ZM65.9035 7.952L61.0795 14H57.4795V4.01H60.9895V10.058L65.8135 4.01H69.4135V14H65.9035V7.952ZM75.843 14H72.333V4.01H75.843V7.646H80.739V4.01H84.249V14H80.739V10.31H75.843V14ZM91.8849 12.002C93.9369 12.002 94.6389 10.706 94.6389 9.95V9.176C94.3329 9.302 93.4509 9.482 92.4429 9.644C90.7509 9.932 90.2109 10.166 90.2109 10.868V10.904C90.2109 11.534 90.6609 12.002 91.8849 12.002ZM94.7469 12.614C94.3149 13.136 93.2349 14.198 90.8949 14.198H90.6069C87.8169 14.198 86.6649 12.686 86.6649 11.03V10.958C86.6649 9.23 87.7629 8.168 91.1469 7.88L93.8829 7.646C94.4409 7.592 94.6389 7.412 94.6389 6.998C94.6389 6.53 94.4949 6.026 92.5509 6.026C90.7149 6.026 90.5349 6.746 90.5349 7.124H86.9349V7.088C86.9349 6.098 87.3309 3.776 92.2449 3.776H92.8029C97.7529 3.776 98.0589 5.81 98.0589 7.142V10.436C98.0589 11.066 98.1849 11.318 98.8869 11.318H99.2649V14H96.4209C95.3769 14 94.8909 13.262 94.7469 12.614ZM106.668 0.608H118.926V3.524H110.322V5.702H118.656V8.726H110.322V11.048H119.034V14H106.668V0.608ZM129.988 14V6.674H126.028C126.028 9.356 125.938 10.85 125.596 11.768C125.218 12.776 124.714 14 122.068 14H120.97V11.39H121.186C121.816 11.39 122.284 11.174 122.482 10.256C122.626 9.482 122.68 8.636 122.68 4.01H133.498V14H129.988ZM142.219 6.08C140.401 6.08 139.717 6.818 139.537 7.862H144.829C144.829 7.124 144.469 6.08 142.219 6.08ZM144.901 10.886H148.555C148.555 11.714 147.907 14.234 142.741 14.234H142.075C137.143 14.234 135.919 11.534 135.919 9.14V8.888C135.919 6.638 137.035 3.794 141.769 3.794H142.561C147.673 3.794 148.591 6.638 148.591 9.428V9.752H139.501C139.645 10.904 140.383 11.84 142.525 11.84C144.559 11.84 144.811 11.048 144.901 10.886ZM154.505 14H150.995V4.01H154.505V7.646H159.401V4.01H162.911V14H159.401V10.31H154.505V14ZM170.547 12.002C172.599 12.002 173.301 10.706 173.301 9.95V9.176C172.995 9.302 172.113 9.482 171.105 9.644C169.413 9.932 168.873 10.166 168.873 10.868V10.904C168.873 11.534 169.323 12.002 170.547 12.002ZM173.409 12.614C172.977 13.136 171.897 14.198 169.557 14.198H169.269C166.479 14.198 165.327 12.686 165.327 11.03V10.958C165.327 9.23 166.425 8.168 169.809 7.88L172.545 7.646C173.103 7.592 173.301 7.412 173.301 6.998C173.301 6.53 173.157 6.026 171.213 6.026C169.377 6.026 169.197 6.746 169.197 7.124H165.597V7.088C165.597 6.098 165.993 3.776 170.907 3.776H171.465C176.415 3.776 176.721 5.81 176.721 7.142V10.436C176.721 11.066 176.847 11.318 177.549 11.318H177.927V14H175.083C174.039 14 173.553 13.262 173.409 12.614ZM10.998 32.762L8.568 27.308L6.21 32.762H10.998ZM13.338 38L12.24 35.516H5.004L3.924 38H0.198L6.138 24.608H11.106L17.316 38H13.338ZM28.1458 33.014V32.96C28.1458 31.88 27.6418 30.422 25.4458 30.422H25.2658C23.1598 30.422 22.4938 31.808 22.4938 32.96V33.014C22.4938 34.112 23.1598 35.552 25.2658 35.552H25.4458C27.6418 35.552 28.1458 34.04 28.1458 33.014ZM19.0018 41.438V28.01H22.4758V29.288C22.9078 28.82 24.2218 27.812 26.4898 27.812H26.7238C30.5398 27.812 31.7818 30.422 31.7818 32.798V33.104C31.7818 35.282 30.5038 38.198 26.7058 38.198H26.4538C24.1678 38.198 22.9438 37.154 22.5118 36.722V41.438H19.0018ZM41.6576 38L37.7696 33.374V38H34.2596V28.01H37.7696V32.006L41.3336 28.01H45.3836L41.2076 32.492L45.8336 38H41.6576ZM51.6486 36.002C53.7006 36.002 54.4026 34.706 54.4026 33.95V33.176C54.0966 33.302 53.2146 33.482 52.2066 33.644C50.5146 33.932 49.9746 34.166 49.9746 34.868V34.904C49.9746 35.534 50.4246 36.002 51.6486 36.002ZM54.5106 36.614C54.0786 37.136 52.9986 38.198 50.6586 38.198H50.3706C47.5806 38.198 46.4286 36.686 46.4286 35.03V34.958C46.4286 33.23 47.5266 32.168 50.9106 31.88L53.6466 31.646C54.2046 31.592 54.4026 31.412 54.4026 30.998C54.4026 30.53 54.2586 30.026 52.3146 30.026C50.4786 30.026 50.2986 30.746 50.2986 31.124H46.6986V31.088C46.6986 30.098 47.0946 27.776 52.0086 27.776H52.5666C57.5166 27.776 57.8226 29.81 57.8226 31.142V34.436C57.8226 35.066 57.9486 35.318 58.6506 35.318H59.0286V38H56.1846C55.1406 38 54.6546 37.262 54.5106 36.614ZM60.5538 40.124V35.336H61.7598C62.4438 33.968 62.5518 30.998 62.6418 28.01H73.2078V35.336H75.0078V40.124H71.6778V38H63.8838V40.124H60.5538ZM65.0718 35.336H69.6978V30.674H65.7918C65.7378 31.97 65.5578 33.95 65.0718 35.336ZM77.0967 38V28.01H80.6067V30.872H83.3427C86.7627 30.872 88.0947 32.384 88.0947 34.292V34.508C88.0947 36.596 86.7627 38 83.3427 38H77.0967ZM80.6067 35.624H82.9107C83.6307 35.624 84.4947 35.408 84.4947 34.436V34.382C84.4947 33.482 83.6307 33.248 82.9107 33.248H80.6067V35.624ZM96.1646 30.08C94.3466 30.08 93.6626 30.818 93.4826 31.862H98.7746C98.7746 31.124 98.4146 30.08 96.1646 30.08ZM98.8466 34.886H102.501C102.501 35.714 101.853 38.234 96.6866 38.234H96.0206C91.0886 38.234 89.8646 35.534 89.8646 33.14V32.888C89.8646 30.638 90.9806 27.794 95.7146 27.794H96.5066C101.619 27.794 102.537 30.638 102.537 33.428V33.752H93.4466C93.5906 34.904 94.3286 35.84 96.4706 35.84C98.5046 35.84 98.7566 35.048 98.8466 34.886ZM113.184 38H104.94V28.01H112.824C115.11 28.01 116.55 28.82 116.55 30.404V30.494C116.55 31.736 115.758 32.474 114.552 32.672C115.776 32.816 116.874 33.68 116.874 35.12V35.192C116.874 37.01 115.686 38 113.184 38ZM108.45 31.988H111.672C112.518 31.988 112.95 31.664 112.95 31.034V30.944C112.95 30.368 112.554 30.026 111.672 30.026H108.45V31.988ZM108.45 35.984H111.816C112.752 35.984 113.274 35.678 113.274 34.976V34.832C113.274 34.202 112.842 33.806 111.816 33.806H108.45V35.984ZM122.829 38H119.319V28.01H122.829V31.646H127.725V28.01H131.235V38H127.725V34.31H122.829V38ZM138.871 36.002C140.923 36.002 141.625 34.706 141.625 33.95V33.176C141.319 33.302 140.437 33.482 139.429 33.644C137.737 33.932 137.197 34.166 137.197 34.868V34.904C137.197 35.534 137.647 36.002 138.871 36.002ZM141.733 36.614C141.301 37.136 140.221 38.198 137.881 38.198H137.593C134.803 38.198 133.651 36.686 133.651 35.03V34.958C133.651 33.23 134.749 32.168 138.133 31.88L140.869 31.646C141.427 31.592 141.625 31.412 141.625 30.998C141.625 30.53 141.481 30.026 139.537 30.026C137.701 30.026 137.521 30.746 137.521 31.124H133.921V31.088C133.921 30.098 134.317 27.776 139.231 27.776H139.789C144.739 27.776 145.045 29.81 145.045 31.142V34.436C145.045 35.066 145.171 35.318 145.873 35.318H146.251V38H143.407C142.363 38 141.877 37.262 141.733 36.614Z" fill="url(#paint1_radial_41_56)" style="mix-blend-mode:overlay"/>
<path d="M1.656 14V0.608H6.588L10.854 9.68L15.246 0.608H19.872V14H16.254V5.234L12.186 14H9.288L5.22 5.234V14H1.656ZM31.4152 7.952L26.5912 14H22.9912V4.01H26.5012V10.058L31.3252 4.01H34.9252V14H31.4152V7.952ZM37.8447 14V4.01H41.3547V11.336H44.4507V4.01H47.9607V11.336H51.0567V4.01H54.5667V14H37.8447ZM65.9035 7.952L61.0795 14H57.4795V4.01H60.9895V10.058L65.8135 4.01H69.4135V14H65.9035V7.952ZM75.843 14H72.333V4.01H75.843V7.646H80.739V4.01H84.249V14H80.739V10.31H75.843V14ZM91.8849 12.002C93.9369 12.002 94.6389 10.706 94.6389 9.95V9.176C94.3329 9.302 93.4509 9.482 92.4429 9.644C90.7509 9.932 90.2109 10.166 90.2109 10.868V10.904C90.2109 11.534 90.6609 12.002 91.8849 12.002ZM94.7469 12.614C94.3149 13.136 93.2349 14.198 90.8949 14.198H90.6069C87.8169 14.198 86.6649 12.686 86.6649 11.03V10.958C86.6649 9.23 87.7629 8.168 91.1469 7.88L93.8829 7.646C94.4409 7.592 94.6389 7.412 94.6389 6.998C94.6389 6.53 94.4949 6.026 92.5509 6.026C90.7149 6.026 90.5349 6.746 90.5349 7.124H86.9349V7.088C86.9349 6.098 87.3309 3.776 92.2449 3.776H92.8029C97.7529 3.776 98.0589 5.81 98.0589 7.142V10.436C98.0589 11.066 98.1849 11.318 98.8869 11.318H99.2649V14H96.4209C95.3769 14 94.8909 13.262 94.7469 12.614ZM106.668 0.608H118.926V3.524H110.322V5.702H118.656V8.726H110.322V11.048H119.034V14H106.668V0.608ZM129.988 14V6.674H126.028C126.028 9.356 125.938 10.85 125.596 11.768C125.218 12.776 124.714 14 122.068 14H120.97V11.39H121.186C121.816 11.39 122.284 11.174 122.482 10.256C122.626 9.482 122.68 8.636 122.68 4.01H133.498V14H129.988ZM142.219 6.08C140.401 6.08 139.717 6.818 139.537 7.862H144.829C144.829 7.124 144.469 6.08 142.219 6.08ZM144.901 10.886H148.555C148.555 11.714 147.907 14.234 142.741 14.234H142.075C137.143 14.234 135.919 11.534 135.919 9.14V8.888C135.919 6.638 137.035 3.794 141.769 3.794H142.561C147.673 3.794 148.591 6.638 148.591 9.428V9.752H139.501C139.645 10.904 140.383 11.84 142.525 11.84C144.559 11.84 144.811 11.048 144.901 10.886ZM154.505 14H150.995V4.01H154.505V7.646H159.401V4.01H162.911V14H159.401V10.31H154.505V14ZM170.547 12.002C172.599 12.002 173.301 10.706 173.301 9.95V9.176C172.995 9.302 172.113 9.482 171.105 9.644C169.413 9.932 168.873 10.166 168.873 10.868V10.904C168.873 11.534 169.323 12.002 170.547 12.002ZM173.409 12.614C172.977 13.136 171.897 14.198 169.557 14.198H169.269C166.479 14.198 165.327 12.686 165.327 11.03V10.958C165.327 9.23 166.425 8.168 169.809 7.88L172.545 7.646C173.103 7.592 173.301 7.412 173.301 6.998C173.301 6.53 173.157 6.026 171.213 6.026C169.377 6.026 169.197 6.746 169.197 7.124H165.597V7.088C165.597 6.098 165.993 3.776 170.907 3.776H171.465C176.415 3.776 176.721 5.81 176.721 7.142V10.436C176.721 11.066 176.847 11.318 177.549 11.318H177.927V14H175.083C174.039 14 173.553 13.262 173.409 12.614ZM10.998 32.762L8.568 27.308L6.21 32.762H10.998ZM13.338 38L12.24 35.516H5.004L3.924 38H0.198L6.138 24.608H11.106L17.316 38H13.338ZM28.1458 33.014V32.96C28.1458 31.88 27.6418 30.422 25.4458 30.422H25.2658C23.1598 30.422 22.4938 31.808 22.4938 32.96V33.014C22.4938 34.112 23.1598 35.552 25.2658 35.552H25.4458C27.6418 35.552 28.1458 34.04 28.1458 33.014ZM19.0018 41.438V28.01H22.4758V29.288C22.9078 28.82 24.2218 27.812 26.4898 27.812H26.7238C30.5398 27.812 31.7818 30.422 31.7818 32.798V33.104C31.7818 35.282 30.5038 38.198 26.7058 38.198H26.4538C24.1678 38.198 22.9438 37.154 22.5118 36.722V41.438H19.0018ZM41.6576 38L37.7696 33.374V38H34.2596V28.01H37.7696V32.006L41.3336 28.01H45.3836L41.2076 32.492L45.8336 38H41.6576ZM51.6486 36.002C53.7006 36.002 54.4026 34.706 54.4026 33.95V33.176C54.0966 33.302 53.2146 33.482 52.2066 33.644C50.5146 33.932 49.9746 34.166 49.9746 34.868V34.904C49.9746 35.534 50.4246 36.002 51.6486 36.002ZM54.5106 36.614C54.0786 37.136 52.9986 38.198 50.6586 38.198H50.3706C47.5806 38.198 46.4286 36.686 46.4286 35.03V34.958C46.4286 33.23 47.5266 32.168 50.9106 31.88L53.6466 31.646C54.2046 31.592 54.4026 31.412 54.4026 30.998C54.4026 30.53 54.2586 30.026 52.3146 30.026C50.4786 30.026 50.2986 30.746 50.2986 31.124H46.6986V31.088C46.6986 30.098 47.0946 27.776 52.0086 27.776H52.5666C57.5166 27.776 57.8226 29.81 57.8226 31.142V34.436C57.8226 35.066 57.9486 35.318 58.6506 35.318H59.0286V38H56.1846C55.1406 38 54.6546 37.262 54.5106 36.614ZM60.5538 40.124V35.336H61.7598C62.4438 33.968 62.5518 30.998 62.6418 28.01H73.2078V35.336H75.0078V40.124H71.6778V38H63.8838V40.124H60.5538ZM65.0718 35.336H69.6978V30.674H65.7918C65.7378 31.97 65.5578 33.95 65.0718 35.336ZM77.0967 38V28.01H80.6067V30.872H83.3427C86.7627 30.872 88.0947 32.384 88.0947 34.292V34.508C88.0947 36.596 86.7627 38 83.3427 38H77.0967ZM80.6067 35.624H82.9107C83.6307 35.624 84.4947 35.408 84.4947 34.436V34.382C84.4947 33.482 83.6307 33.248 82.9107 33.248H80.6067V35.624ZM96.1646 30.08C94.3466 30.08 93.6626 30.818 93.4826 31.862H98.7746C98.7746 31.124 98.4146 30.08 96.1646 30.08ZM98.8466 34.886H102.501C102.501 35.714 101.853 38.234 96.6866 38.234H96.0206C91.0886 38.234 89.8646 35.534 89.8646 33.14V32.888C89.8646 30.638 90.9806 27.794 95.7146 27.794H96.5066C101.619 27.794 102.537 30.638 102.537 33.428V33.752H93.4466C93.5906 34.904 94.3286 35.84 96.4706 35.84C98.5046 35.84 98.7566 35.048 98.8466 34.886ZM113.184 38H104.94V28.01H112.824C115.11 28.01 116.55 28.82 116.55 30.404V30.494C116.55 31.736 115.758 32.474 114.552 32.672C115.776 32.816 116.874 33.68 116.874 35.12V35.192C116.874 37.01 115.686 38 113.184 38ZM108.45 31.988H111.672C112.518 31.988 112.95 31.664 112.95 31.034V30.944C112.95 30.368 112.554 30.026 111.672 30.026H108.45V31.988ZM108.45 35.984H111.816C112.752 35.984 113.274 35.678 113.274 34.976V34.832C113.274 34.202 112.842 33.806 111.816 33.806H108.45V35.984ZM122.829 38H119.319V28.01H122.829V31.646H127.725V28.01H131.235V38H127.725V34.31H122.829V38ZM138.871 36.002C140.923 36.002 141.625 34.706 141.625 33.95V33.176C141.319 33.302 140.437 33.482 139.429 33.644C137.737 33.932 137.197 34.166 137.197 34.868V34.904C137.197 35.534 137.647 36.002 138.871 36.002ZM141.733 36.614C141.301 37.136 140.221 38.198 137.881 38.198H137.593C134.803 38.198 133.651 36.686 133.651 35.03V34.958C133.651 33.23 134.749 32.168 138.133 31.88L140.869 31.646C141.427 31.592 141.625 31.412 141.625 30.998C141.625 30.53 141.481 30.026 139.537 30.026C137.701 30.026 137.521 30.746 137.521 31.124H133.921V31.088C133.921 30.098 134.317 27.776 139.231 27.776H139.789C144.739 27.776 145.045 29.81 145.045 31.142V34.436C145.045 35.066 145.171 35.318 145.873 35.318H146.251V38H143.407C142.363 38 141.877 37.262 141.733 36.614Z" fill="url(#paint2_radial_41_56)"/>
<path d="M1.656 14V0.608H6.588L10.854 9.68L15.246 0.608H19.872V14H16.254V5.234L12.186 14H9.288L5.22 5.234V14H1.656ZM31.4152 7.952L26.5912 14H22.9912V4.01H26.5012V10.058L31.3252 4.01H34.9252V14H31.4152V7.952ZM37.8447 14V4.01H41.3547V11.336H44.4507V4.01H47.9607V11.336H51.0567V4.01H54.5667V14H37.8447ZM65.9035 7.952L61.0795 14H57.4795V4.01H60.9895V10.058L65.8135 4.01H69.4135V14H65.9035V7.952ZM75.843 14H72.333V4.01H75.843V7.646H80.739V4.01H84.249V14H80.739V10.31H75.843V14ZM91.8849 12.002C93.9369 12.002 94.6389 10.706 94.6389 9.95V9.176C94.3329 9.302 93.4509 9.482 92.4429 9.644C90.7509 9.932 90.2109 10.166 90.2109 10.868V10.904C90.2109 11.534 90.6609 12.002 91.8849 12.002ZM94.7469 12.614C94.3149 13.136 93.2349 14.198 90.8949 14.198H90.6069C87.8169 14.198 86.6649 12.686 86.6649 11.03V10.958C86.6649 9.23 87.7629 8.168 91.1469 7.88L93.8829 7.646C94.4409 7.592 94.6389 7.412 94.6389 6.998C94.6389 6.53 94.4949 6.026 92.5509 6.026C90.7149 6.026 90.5349 6.746 90.5349 7.124H86.9349V7.088C86.9349 6.098 87.3309 3.776 92.2449 3.776H92.8029C97.7529 3.776 98.0589 5.81 98.0589 7.142V10.436C98.0589 11.066 98.1849 11.318 98.8869 11.318H99.2649V14H96.4209C95.3769 14 94.8909 13.262 94.7469 12.614ZM106.668 0.608H118.926V3.524H110.322V5.702H118.656V8.726H110.322V11.048H119.034V14H106.668V0.608ZM129.988 14V6.674H126.028C126.028 9.356 125.938 10.85 125.596 11.768C125.218 12.776 124.714 14 122.068 14H120.97V11.39H121.186C121.816 11.39 122.284 11.174 122.482 10.256C122.626 9.482 122.68 8.636 122.68 4.01H133.498V14H129.988ZM142.219 6.08C140.401 6.08 139.717 6.818 139.537 7.862H144.829C144.829 7.124 144.469 6.08 142.219 6.08ZM144.901 10.886H148.555C148.555 11.714 147.907 14.234 142.741 14.234H142.075C137.143 14.234 135.919 11.534 135.919 9.14V8.888C135.919 6.638 137.035 3.794 141.769 3.794H142.561C147.673 3.794 148.591 6.638 148.591 9.428V9.752H139.501C139.645 10.904 140.383 11.84 142.525 11.84C144.559 11.84 144.811 11.048 144.901 10.886ZM154.505 14H150.995V4.01H154.505V7.646H159.401V4.01H162.911V14H159.401V10.31H154.505V14ZM170.547 12.002C172.599 12.002 173.301 10.706 173.301 9.95V9.176C172.995 9.302 172.113 9.482 171.105 9.644C169.413 9.932 168.873 10.166 168.873 10.868V10.904C168.873 11.534 169.323 12.002 170.547 12.002ZM173.409 12.614C172.977 13.136 171.897 14.198 169.557 14.198H169.269C166.479 14.198 165.327 12.686 165.327 11.03V10.958C165.327 9.23 166.425 8.168 169.809 7.88L172.545 7.646C173.103 7.592 173.301 7.412 173.301 6.998C173.301 6.53 173.157 6.026 171.213 6.026C169.377 6.026 169.197 6.746 169.197 7.124H165.597V7.088C165.597 6.098 165.993 3.776 170.907 3.776H171.465C176.415 3.776 176.721 5.81 176.721 7.142V10.436C176.721 11.066 176.847 11.318 177.549 11.318H177.927V14H175.083C174.039 14 173.553 13.262 173.409 12.614ZM10.998 32.762L8.568 27.308L6.21 32.762H10.998ZM13.338 38L12.24 35.516H5.004L3.924 38H0.198L6.138 24.608H11.106L17.316 38H13.338ZM28.1458 33.014V32.96C28.1458 31.88 27.6418 30.422 25.4458 30.422H25.2658C23.1598 30.422 22.4938 31.808 22.4938 32.96V33.014C22.4938 34.112 23.1598 35.552 25.2658 35.552H25.4458C27.6418 35.552 28.1458 34.04 28.1458 33.014ZM19.0018 41.438V28.01H22.4758V29.288C22.9078 28.82 24.2218 27.812 26.4898 27.812H26.7238C30.5398 27.812 31.7818 30.422 31.7818 32.798V33.104C31.7818 35.282 30.5038 38.198 26.7058 38.198H26.4538C24.1678 38.198 22.9438 37.154 22.5118 36.722V41.438H19.0018ZM41.6576 38L37.7696 33.374V38H34.2596V28.01H37.7696V32.006L41.3336 28.01H45.3836L41.2076 32.492L45.8336 38H41.6576ZM51.6486 36.002C53.7006 36.002 54.4026 34.706 54.4026 33.95V33.176C54.0966 33.302 53.2146 33.482 52.2066 33.644C50.5146 33.932 49.9746 34.166 49.9746 34.868V34.904C49.9746 35.534 50.4246 36.002 51.6486 36.002ZM54.5106 36.614C54.0786 37.136 52.9986 38.198 50.6586 38.198H50.3706C47.5806 38.198 46.4286 36.686 46.4286 35.03V34.958C46.4286 33.23 47.5266 32.168 50.9106 31.88L53.6466 31.646C54.2046 31.592 54.4026 31.412 54.4026 30.998C54.4026 30.53 54.2586 30.026 52.3146 30.026C50.4786 30.026 50.2986 30.746 50.2986 31.124H46.6986V31.088C46.6986 30.098 47.0946 27.776 52.0086 27.776H52.5666C57.5166 27.776 57.8226 29.81 57.8226 31.142V34.436C57.8226 35.066 57.9486 35.318 58.6506 35.318H59.0286V38H56.1846C55.1406 38 54.6546 37.262 54.5106 36.614ZM60.5538 40.124V35.336H61.7598C62.4438 33.968 62.5518 30.998 62.6418 28.01H73.2078V35.336H75.0078V40.124H71.6778V38H63.8838V40.124H60.5538ZM65.0718 35.336H69.6978V30.674H65.7918C65.7378 31.97 65.5578 33.95 65.0718 35.336ZM77.0967 38V28.01H80.6067V30.872H83.3427C86.7627 30.872 88.0947 32.384 88.0947 34.292V34.508C88.0947 36.596 86.7627 38 83.3427 38H77.0967ZM80.6067 35.624H82.9107C83.6307 35.624 84.4947 35.408 84.4947 34.436V34.382C84.4947 33.482 83.6307 33.248 82.9107 33.248H80.6067V35.624ZM96.1646 30.08C94.3466 30.08 93.6626 30.818 93.4826 31.862H98.7746C98.7746 31.124 98.4146 30.08 96.1646 30.08ZM98.8466 34.886H102.501C102.501 35.714 101.853 38.234 96.6866 38.234H96.0206C91.0886 38.234 89.8646 35.534 89.8646 33.14V32.888C89.8646 30.638 90.9806 27.794 95.7146 27.794H96.5066C101.619 27.794 102.537 30.638 102.537 33.428V33.752H93.4466C93.5906 34.904 94.3286 35.84 96.4706 35.84C98.5046 35.84 98.7566 35.048 98.8466 34.886ZM113.184 38H104.94V28.01H112.824C115.11 28.01 116.55 28.82 116.55 30.404V30.494C116.55 31.736 115.758 32.474 114.552 32.672C115.776 32.816 116.874 33.68 116.874 35.12V35.192C116.874 37.01 115.686 38 113.184 38ZM108.45 31.988H111.672C112.518 31.988 112.95 31.664 112.95 31.034V30.944C112.95 30.368 112.554 30.026 111.672 30.026H108.45V31.988ZM108.45 35.984H111.816C112.752 35.984 113.274 35.678 113.274 34.976V34.832C113.274 34.202 112.842 33.806 111.816 33.806H108.45V35.984ZM122.829 38H119.319V28.01H122.829V31.646H127.725V28.01H131.235V38H127.725V34.31H122.829V38ZM138.871 36.002C140.923 36.002 141.625 34.706 141.625 33.95V33.176C141.319 33.302 140.437 33.482 139.429 33.644C137.737 33.932 137.197 34.166 137.197 34.868V34.904C137.197 35.534 137.647 36.002 138.871 36.002ZM141.733 36.614C141.301 37.136 140.221 38.198 137.881 38.198H137.593C134.803 38.198 133.651 36.686 133.651 35.03V34.958C133.651 33.23 134.749 32.168 138.133 31.88L140.869 31.646C141.427 31.592 141.625 31.412 141.625 30.998C141.625 30.53 141.481 30.026 139.537 30.026C137.701 30.026 137.521 30.746 137.521 31.124H133.921V31.088C133.921 30.098 134.317 27.776 139.231 27.776H139.789C144.739 27.776 145.045 29.81 145.045 31.142V34.436C145.045 35.066 145.171 35.318 145.873 35.318H146.251V38H143.407C142.363 38 141.877 37.262 141.733 36.614Z" fill="#C1A875" style="mix-blend-mode:color"/>
<defs>
<linearGradient id="paint0_linear_41_56" x1="8.27014e-07" y1="30" x2="222" y2="30" gradientUnits="userSpaceOnUse">
<stop stop-color="#576167"/>
<stop offset="0.191294" stop-color="#9EA1A2"/>
<stop offset="0.396166" stop-color="#848989"/>
<stop offset="0.62055" stop-color="#576167"/>
<stop offset="0.830299" stop-color="#757A7C"/>
<stop offset="1" stop-color="#576167"/>
</linearGradient>
<radialGradient id="paint1_radial_41_56" cx="0" cy="0" r="1" gradientUnits="userSpaceOnUse" gradientTransform="translate(118.226 2.39326) rotate(90) scale(53.4944 167.95)">
<stop stop-color="white"/>
<stop offset="1" stop-color="white" stop-opacity="0"/>
</radialGradient>
<radialGradient id="paint2_radial_41_56" cx="0" cy="0" r="1" gradientUnits="userSpaceOnUse" gradientTransform="translate(130.783 82.9888) rotate(-89.7344) scale(76.6525 240.162)">
<stop stop-color="white"/>
<stop offset="1" stop-color="white" stop-opacity="0"/>
</radialGradient>
</defs>
</svg>
