<svg width="191" height="42" viewBox="0 0 191 42" fill="none" xmlns="http://www.w3.org/2000/svg">
<path d="M13.194 14V5L5.364 14H1.656V0.608H5.364V9.608L13.194 0.608H16.902V14H13.194ZM28.2645 14H20.0205V4.01H27.9045C30.1905 4.01 31.6305 4.82 31.6305 6.404V6.494C31.6305 7.736 30.8385 8.474 29.6325 8.672C30.8565 8.816 31.9545 9.68 31.9545 11.12V11.192C31.9545 13.01 30.7665 14 28.2645 14ZM23.5305 7.988H26.7525C27.5985 7.988 28.0305 7.664 28.0305 7.034V6.944C28.0305 6.368 27.6345 6.026 26.7525 6.026H23.5305V7.988ZM23.5305 11.984H26.8965C27.8325 11.984 28.3545 11.678 28.3545 10.976V10.832C28.3545 10.202 27.9225 9.806 26.8965 9.806H23.5305V11.984ZM39.0275 12.002C41.0795 12.002 41.7815 10.706 41.7815 9.95V9.176C41.4755 9.302 40.5935 9.482 39.5855 9.644C37.8935 9.932 37.3535 10.166 37.3535 10.868V10.904C37.3535 11.534 37.8035 12.002 39.0275 12.002ZM41.8895 12.614C41.4575 13.136 40.3775 14.198 38.0375 14.198H37.7495C34.9595 14.198 33.8075 12.686 33.8075 11.03V10.958C33.8075 9.23 34.9055 8.168 38.2895 7.88L41.0255 7.646C41.5835 7.592 41.7815 7.412 41.7815 6.998C41.7815 6.53 41.6375 6.026 39.6935 6.026C37.8575 6.026 37.6775 6.746 37.6775 7.124H34.0775V7.088C34.0775 6.098 34.4735 3.776 39.3875 3.776H39.9455C44.8955 3.776 45.2015 5.81 45.2015 7.142V10.436C45.2015 11.066 45.3275 11.318 46.0295 11.318H46.4075V14H43.5635C42.5195 14 42.0335 13.262 41.8895 12.614ZM51.9192 14H48.4092V4.01H51.9192V7.646H56.8152V4.01H60.3252V14H56.8152V10.31H51.9192V14ZM69.5091 14.27H68.9511C63.5691 14.27 62.7411 10.994 62.7411 9.176V8.924C62.7411 7.124 63.5691 3.74 68.9331 3.74H69.5271C75.0711 3.74 75.7191 7.142 75.7191 8.906V9.194C75.7191 10.994 75.0711 14.27 69.5091 14.27ZM69.1311 11.642H69.3291C71.5431 11.642 72.1011 10.058 72.1011 8.96C72.1011 7.826 71.5431 6.314 69.3291 6.314H69.1311C66.8271 6.314 66.3591 7.826 66.3591 8.96C66.3591 10.058 66.8271 11.642 69.1311 11.642ZM86.3778 14H78.1338V4.01H86.0178C88.3038 4.01 89.7438 4.82 89.7438 6.404V6.494C89.7438 7.736 88.9518 8.474 87.7458 8.672C88.9698 8.816 90.0678 9.68 90.0678 11.12V11.192C90.0678 13.01 88.8798 14 86.3778 14ZM81.6438 7.988H84.8658C85.7118 7.988 86.1438 7.664 86.1438 7.034V6.944C86.1438 6.368 85.7478 6.026 84.8658 6.026H81.6438V7.988ZM81.6438 11.984H85.0098C85.9458 11.984 86.4678 11.678 86.4678 10.976V10.832C86.4678 10.202 86.0358 9.806 85.0098 9.806H81.6438V11.984ZM97.9138 14V0.608H111.792V14H108.084V3.56H101.622V14H97.9138ZM120.721 6.08C118.903 6.08 118.219 6.818 118.039 7.862H123.331C123.331 7.124 122.971 6.08 120.721 6.08ZM123.403 10.886H127.057C127.057 11.714 126.409 14.234 121.243 14.234H120.577C115.645 14.234 114.421 11.534 114.421 9.14V8.888C114.421 6.638 115.537 3.794 120.271 3.794H121.063C126.175 3.794 127.093 6.638 127.093 9.428V9.752H118.003C118.147 10.904 118.885 11.84 121.027 11.84C123.061 11.84 123.313 11.048 123.403 10.886ZM132.183 14V6.674H128.313V4.01H139.563V6.674H135.693V14H132.183ZM150.648 9.014V8.96C150.648 7.88 150.144 6.422 147.948 6.422H147.768C145.662 6.422 144.996 7.808 144.996 8.96V9.014C144.996 10.112 145.662 11.552 147.768 11.552H147.948C150.144 11.552 150.648 10.04 150.648 9.014ZM141.504 17.438V4.01H144.978V5.288C145.41 4.82 146.724 3.812 148.992 3.812H149.226C153.042 3.812 154.284 6.422 154.284 8.798V9.104C154.284 11.282 153.006 14.198 149.208 14.198H148.956C146.67 14.198 145.446 13.154 145.014 12.722V17.438H141.504ZM10.998 32.762L8.568 27.308L6.21 32.762H10.998ZM13.338 38L12.24 35.516H5.004L3.924 38H0.198L6.138 24.608H11.106L17.316 38H13.338ZM27.1558 38V30.674H23.1958C23.1958 33.356 23.1058 34.85 22.7638 35.768C22.3858 36.776 21.8818 38 19.2358 38H18.1378V35.39H18.3538C18.9838 35.39 19.4518 35.174 19.6498 34.256C19.7938 33.482 19.8478 32.636 19.8478 28.01H30.6658V38H27.1558ZM39.3872 30.08C37.5692 30.08 36.8852 30.818 36.7052 31.862H41.9972C41.9972 31.124 41.6372 30.08 39.3872 30.08ZM42.0692 34.886H45.7232C45.7232 35.714 45.0752 38.234 39.9092 38.234H39.2432C34.3112 38.234 33.0872 35.534 33.0872 33.14V32.888C33.0872 30.638 34.2032 27.794 38.9372 27.794H39.7292C44.8412 27.794 45.7592 30.638 45.7592 33.428V33.752H36.6692C36.8132 34.904 37.5512 35.84 39.6932 35.84C41.7272 35.84 41.9792 35.048 42.0692 34.886ZM55.5971 38L51.7091 33.374V38H48.1991V28.01H51.7091V32.006L55.2731 28.01H59.3231L55.1471 32.492L59.7731 38H55.5971ZM69.1186 34.076H72.7906C72.7906 35.588 71.8906 38.27 67.0846 38.27H66.2026C61.2166 38.27 60.2806 35.03 60.2806 33.14V32.888C60.2806 30.998 61.1626 27.74 66.1846 27.74H67.0126C71.8366 27.74 72.7906 30.368 72.7906 31.808V31.826H69.1186C69.0646 31.538 68.7226 30.296 66.6526 30.296H66.4726C64.4026 30.296 63.9166 31.718 63.9166 32.924V32.942C63.9166 34.184 64.5106 35.66 66.5446 35.66H66.7246C68.8126 35.66 69.1186 34.31 69.1186 34.076ZM79.8967 36.002C81.9487 36.002 82.6507 34.706 82.6507 33.95V33.176C82.3447 33.302 81.4627 33.482 80.4547 33.644C78.7627 33.932 78.2227 34.166 78.2227 34.868V34.904C78.2227 35.534 78.6727 36.002 79.8967 36.002ZM82.7587 36.614C82.3267 37.136 81.2467 38.198 78.9067 38.198H78.6187C75.8287 38.198 74.6767 36.686 74.6767 35.03V34.958C74.6767 33.23 75.7747 32.168 79.1587 31.88L81.8947 31.646C82.4527 31.592 82.6507 31.412 82.6507 30.998C82.6507 30.53 82.5067 30.026 80.5627 30.026C78.7267 30.026 78.5467 30.746 78.5467 31.124H74.9467V31.088C74.9467 30.098 75.3427 27.776 80.2567 27.776H80.8147C85.7647 27.776 86.0707 29.81 86.0707 31.142V34.436C86.0707 35.066 86.1967 35.318 86.8987 35.318H87.2767V38H84.4327C83.3887 38 82.9027 37.262 82.7587 36.614ZM92.7883 38H89.2783V28.01H92.7883V31.646H97.6843V28.01H101.194V38H97.6843V34.31H92.7883V38ZM103.286 40.124V35.336H104.492C105.176 33.968 105.284 30.998 105.374 28.01H115.94V35.336H117.74V40.124H114.41V38H106.616V40.124H103.286ZM107.804 35.336H112.43V30.674H108.524C108.47 31.97 108.29 33.95 107.804 35.336ZM129.009 33.014V32.96C129.009 31.88 128.505 30.422 126.309 30.422H126.129C124.023 30.422 123.357 31.808 123.357 32.96V33.014C123.357 34.112 124.023 35.552 126.129 35.552H126.309C128.505 35.552 129.009 34.04 129.009 33.014ZM119.865 41.438V28.01H123.339V29.288C123.771 28.82 125.085 27.812 127.353 27.812H127.587C131.403 27.812 132.645 30.422 132.645 32.798V33.104C132.645 35.282 131.367 38.198 127.569 38.198H127.317C125.031 38.198 123.807 37.154 123.375 36.722V41.438H119.865ZM141.351 38.27H140.793C135.411 38.27 134.583 34.994 134.583 33.176V32.924C134.583 31.124 135.411 27.74 140.775 27.74H141.369C146.913 27.74 147.561 31.142 147.561 32.906V33.194C147.561 34.994 146.913 38.27 141.351 38.27ZM140.973 35.642H141.171C143.385 35.642 143.943 34.058 143.943 32.96C143.943 31.826 143.385 30.314 141.171 30.314H140.973C138.669 30.314 138.201 31.826 138.201 32.96C138.201 34.058 138.669 35.642 140.973 35.642ZM158.22 38H149.976V28.01H157.86C160.146 28.01 161.586 28.82 161.586 30.404V30.494C161.586 31.736 160.794 32.474 159.588 32.672C160.812 32.816 161.91 33.68 161.91 35.12V35.192C161.91 37.01 160.722 38 158.22 38ZM153.486 31.988H156.708C157.554 31.988 157.986 31.664 157.986 31.034V30.944C157.986 30.368 157.59 30.026 156.708 30.026H153.486V31.988ZM153.486 35.984H156.852C157.788 35.984 158.31 35.678 158.31 34.976V34.832C158.31 34.202 157.878 33.806 156.852 33.806H153.486V35.984ZM172.778 31.952L167.954 38H164.354V28.01H167.864V34.058L172.688 28.01H176.288V38H172.778V31.952ZM186.624 28.01H190.134V38H186.624V34.562C185.85 34.652 184.95 34.742 184.014 34.742C180.054 34.742 178.56 33.626 178.56 30.458V28.01H182.07V29.81C182.07 31.682 182.7 32.006 184.554 32.006C185.256 32.006 186.066 31.952 186.624 31.88V28.01Z" fill="url(#paint0_linear_41_65)"/>
<path d="M13.194 14V5L5.364 14H1.656V0.608H5.364V9.608L13.194 0.608H16.902V14H13.194ZM28.2645 14H20.0205V4.01H27.9045C30.1905 4.01 31.6305 4.82 31.6305 6.404V6.494C31.6305 7.736 30.8385 8.474 29.6325 8.672C30.8565 8.816 31.9545 9.68 31.9545 11.12V11.192C31.9545 13.01 30.7665 14 28.2645 14ZM23.5305 7.988H26.7525C27.5985 7.988 28.0305 7.664 28.0305 7.034V6.944C28.0305 6.368 27.6345 6.026 26.7525 6.026H23.5305V7.988ZM23.5305 11.984H26.8965C27.8325 11.984 28.3545 11.678 28.3545 10.976V10.832C28.3545 10.202 27.9225 9.806 26.8965 9.806H23.5305V11.984ZM39.0275 12.002C41.0795 12.002 41.7815 10.706 41.7815 9.95V9.176C41.4755 9.302 40.5935 9.482 39.5855 9.644C37.8935 9.932 37.3535 10.166 37.3535 10.868V10.904C37.3535 11.534 37.8035 12.002 39.0275 12.002ZM41.8895 12.614C41.4575 13.136 40.3775 14.198 38.0375 14.198H37.7495C34.9595 14.198 33.8075 12.686 33.8075 11.03V10.958C33.8075 9.23 34.9055 8.168 38.2895 7.88L41.0255 7.646C41.5835 7.592 41.7815 7.412 41.7815 6.998C41.7815 6.53 41.6375 6.026 39.6935 6.026C37.8575 6.026 37.6775 6.746 37.6775 7.124H34.0775V7.088C34.0775 6.098 34.4735 3.776 39.3875 3.776H39.9455C44.8955 3.776 45.2015 5.81 45.2015 7.142V10.436C45.2015 11.066 45.3275 11.318 46.0295 11.318H46.4075V14H43.5635C42.5195 14 42.0335 13.262 41.8895 12.614ZM51.9192 14H48.4092V4.01H51.9192V7.646H56.8152V4.01H60.3252V14H56.8152V10.31H51.9192V14ZM69.5091 14.27H68.9511C63.5691 14.27 62.7411 10.994 62.7411 9.176V8.924C62.7411 7.124 63.5691 3.74 68.9331 3.74H69.5271C75.0711 3.74 75.7191 7.142 75.7191 8.906V9.194C75.7191 10.994 75.0711 14.27 69.5091 14.27ZM69.1311 11.642H69.3291C71.5431 11.642 72.1011 10.058 72.1011 8.96C72.1011 7.826 71.5431 6.314 69.3291 6.314H69.1311C66.8271 6.314 66.3591 7.826 66.3591 8.96C66.3591 10.058 66.8271 11.642 69.1311 11.642ZM86.3778 14H78.1338V4.01H86.0178C88.3038 4.01 89.7438 4.82 89.7438 6.404V6.494C89.7438 7.736 88.9518 8.474 87.7458 8.672C88.9698 8.816 90.0678 9.68 90.0678 11.12V11.192C90.0678 13.01 88.8798 14 86.3778 14ZM81.6438 7.988H84.8658C85.7118 7.988 86.1438 7.664 86.1438 7.034V6.944C86.1438 6.368 85.7478 6.026 84.8658 6.026H81.6438V7.988ZM81.6438 11.984H85.0098C85.9458 11.984 86.4678 11.678 86.4678 10.976V10.832C86.4678 10.202 86.0358 9.806 85.0098 9.806H81.6438V11.984ZM97.9138 14V0.608H111.792V14H108.084V3.56H101.622V14H97.9138ZM120.721 6.08C118.903 6.08 118.219 6.818 118.039 7.862H123.331C123.331 7.124 122.971 6.08 120.721 6.08ZM123.403 10.886H127.057C127.057 11.714 126.409 14.234 121.243 14.234H120.577C115.645 14.234 114.421 11.534 114.421 9.14V8.888C114.421 6.638 115.537 3.794 120.271 3.794H121.063C126.175 3.794 127.093 6.638 127.093 9.428V9.752H118.003C118.147 10.904 118.885 11.84 121.027 11.84C123.061 11.84 123.313 11.048 123.403 10.886ZM132.183 14V6.674H128.313V4.01H139.563V6.674H135.693V14H132.183ZM150.648 9.014V8.96C150.648 7.88 150.144 6.422 147.948 6.422H147.768C145.662 6.422 144.996 7.808 144.996 8.96V9.014C144.996 10.112 145.662 11.552 147.768 11.552H147.948C150.144 11.552 150.648 10.04 150.648 9.014ZM141.504 17.438V4.01H144.978V5.288C145.41 4.82 146.724 3.812 148.992 3.812H149.226C153.042 3.812 154.284 6.422 154.284 8.798V9.104C154.284 11.282 153.006 14.198 149.208 14.198H148.956C146.67 14.198 145.446 13.154 145.014 12.722V17.438H141.504ZM10.998 32.762L8.568 27.308L6.21 32.762H10.998ZM13.338 38L12.24 35.516H5.004L3.924 38H0.198L6.138 24.608H11.106L17.316 38H13.338ZM27.1558 38V30.674H23.1958C23.1958 33.356 23.1058 34.85 22.7638 35.768C22.3858 36.776 21.8818 38 19.2358 38H18.1378V35.39H18.3538C18.9838 35.39 19.4518 35.174 19.6498 34.256C19.7938 33.482 19.8478 32.636 19.8478 28.01H30.6658V38H27.1558ZM39.3872 30.08C37.5692 30.08 36.8852 30.818 36.7052 31.862H41.9972C41.9972 31.124 41.6372 30.08 39.3872 30.08ZM42.0692 34.886H45.7232C45.7232 35.714 45.0752 38.234 39.9092 38.234H39.2432C34.3112 38.234 33.0872 35.534 33.0872 33.14V32.888C33.0872 30.638 34.2032 27.794 38.9372 27.794H39.7292C44.8412 27.794 45.7592 30.638 45.7592 33.428V33.752H36.6692C36.8132 34.904 37.5512 35.84 39.6932 35.84C41.7272 35.84 41.9792 35.048 42.0692 34.886ZM55.5971 38L51.7091 33.374V38H48.1991V28.01H51.7091V32.006L55.2731 28.01H59.3231L55.1471 32.492L59.7731 38H55.5971ZM69.1186 34.076H72.7906C72.7906 35.588 71.8906 38.27 67.0846 38.27H66.2026C61.2166 38.27 60.2806 35.03 60.2806 33.14V32.888C60.2806 30.998 61.1626 27.74 66.1846 27.74H67.0126C71.8366 27.74 72.7906 30.368 72.7906 31.808V31.826H69.1186C69.0646 31.538 68.7226 30.296 66.6526 30.296H66.4726C64.4026 30.296 63.9166 31.718 63.9166 32.924V32.942C63.9166 34.184 64.5106 35.66 66.5446 35.66H66.7246C68.8126 35.66 69.1186 34.31 69.1186 34.076ZM79.8967 36.002C81.9487 36.002 82.6507 34.706 82.6507 33.95V33.176C82.3447 33.302 81.4627 33.482 80.4547 33.644C78.7627 33.932 78.2227 34.166 78.2227 34.868V34.904C78.2227 35.534 78.6727 36.002 79.8967 36.002ZM82.7587 36.614C82.3267 37.136 81.2467 38.198 78.9067 38.198H78.6187C75.8287 38.198 74.6767 36.686 74.6767 35.03V34.958C74.6767 33.23 75.7747 32.168 79.1587 31.88L81.8947 31.646C82.4527 31.592 82.6507 31.412 82.6507 30.998C82.6507 30.53 82.5067 30.026 80.5627 30.026C78.7267 30.026 78.5467 30.746 78.5467 31.124H74.9467V31.088C74.9467 30.098 75.3427 27.776 80.2567 27.776H80.8147C85.7647 27.776 86.0707 29.81 86.0707 31.142V34.436C86.0707 35.066 86.1967 35.318 86.8987 35.318H87.2767V38H84.4327C83.3887 38 82.9027 37.262 82.7587 36.614ZM92.7883 38H89.2783V28.01H92.7883V31.646H97.6843V28.01H101.194V38H97.6843V34.31H92.7883V38ZM103.286 40.124V35.336H104.492C105.176 33.968 105.284 30.998 105.374 28.01H115.94V35.336H117.74V40.124H114.41V38H106.616V40.124H103.286ZM107.804 35.336H112.43V30.674H108.524C108.47 31.97 108.29 33.95 107.804 35.336ZM129.009 33.014V32.96C129.009 31.88 128.505 30.422 126.309 30.422H126.129C124.023 30.422 123.357 31.808 123.357 32.96V33.014C123.357 34.112 124.023 35.552 126.129 35.552H126.309C128.505 35.552 129.009 34.04 129.009 33.014ZM119.865 41.438V28.01H123.339V29.288C123.771 28.82 125.085 27.812 127.353 27.812H127.587C131.403 27.812 132.645 30.422 132.645 32.798V33.104C132.645 35.282 131.367 38.198 127.569 38.198H127.317C125.031 38.198 123.807 37.154 123.375 36.722V41.438H119.865ZM141.351 38.27H140.793C135.411 38.27 134.583 34.994 134.583 33.176V32.924C134.583 31.124 135.411 27.74 140.775 27.74H141.369C146.913 27.74 147.561 31.142 147.561 32.906V33.194C147.561 34.994 146.913 38.27 141.351 38.27ZM140.973 35.642H141.171C143.385 35.642 143.943 34.058 143.943 32.96C143.943 31.826 143.385 30.314 141.171 30.314H140.973C138.669 30.314 138.201 31.826 138.201 32.96C138.201 34.058 138.669 35.642 140.973 35.642ZM158.22 38H149.976V28.01H157.86C160.146 28.01 161.586 28.82 161.586 30.404V30.494C161.586 31.736 160.794 32.474 159.588 32.672C160.812 32.816 161.91 33.68 161.91 35.12V35.192C161.91 37.01 160.722 38 158.22 38ZM153.486 31.988H156.708C157.554 31.988 157.986 31.664 157.986 31.034V30.944C157.986 30.368 157.59 30.026 156.708 30.026H153.486V31.988ZM153.486 35.984H156.852C157.788 35.984 158.31 35.678 158.31 34.976V34.832C158.31 34.202 157.878 33.806 156.852 33.806H153.486V35.984ZM172.778 31.952L167.954 38H164.354V28.01H167.864V34.058L172.688 28.01H176.288V38H172.778V31.952ZM186.624 28.01H190.134V38H186.624V34.562C185.85 34.652 184.95 34.742 184.014 34.742C180.054 34.742 178.56 33.626 178.56 30.458V28.01H182.07V29.81C182.07 31.682 182.7 32.006 184.554 32.006C185.256 32.006 186.066 31.952 186.624 31.88V28.01Z" fill="url(#paint1_radial_41_65)" style="mix-blend-mode:overlay"/>
<path d="M13.194 14V5L5.364 14H1.656V0.608H5.364V9.608L13.194 0.608H16.902V14H13.194ZM28.2645 14H20.0205V4.01H27.9045C30.1905 4.01 31.6305 4.82 31.6305 6.404V6.494C31.6305 7.736 30.8385 8.474 29.6325 8.672C30.8565 8.816 31.9545 9.68 31.9545 11.12V11.192C31.9545 13.01 30.7665 14 28.2645 14ZM23.5305 7.988H26.7525C27.5985 7.988 28.0305 7.664 28.0305 7.034V6.944C28.0305 6.368 27.6345 6.026 26.7525 6.026H23.5305V7.988ZM23.5305 11.984H26.8965C27.8325 11.984 28.3545 11.678 28.3545 10.976V10.832C28.3545 10.202 27.9225 9.806 26.8965 9.806H23.5305V11.984ZM39.0275 12.002C41.0795 12.002 41.7815 10.706 41.7815 9.95V9.176C41.4755 9.302 40.5935 9.482 39.5855 9.644C37.8935 9.932 37.3535 10.166 37.3535 10.868V10.904C37.3535 11.534 37.8035 12.002 39.0275 12.002ZM41.8895 12.614C41.4575 13.136 40.3775 14.198 38.0375 14.198H37.7495C34.9595 14.198 33.8075 12.686 33.8075 11.03V10.958C33.8075 9.23 34.9055 8.168 38.2895 7.88L41.0255 7.646C41.5835 7.592 41.7815 7.412 41.7815 6.998C41.7815 6.53 41.6375 6.026 39.6935 6.026C37.8575 6.026 37.6775 6.746 37.6775 7.124H34.0775V7.088C34.0775 6.098 34.4735 3.776 39.3875 3.776H39.9455C44.8955 3.776 45.2015 5.81 45.2015 7.142V10.436C45.2015 11.066 45.3275 11.318 46.0295 11.318H46.4075V14H43.5635C42.5195 14 42.0335 13.262 41.8895 12.614ZM51.9192 14H48.4092V4.01H51.9192V7.646H56.8152V4.01H60.3252V14H56.8152V10.31H51.9192V14ZM69.5091 14.27H68.9511C63.5691 14.27 62.7411 10.994 62.7411 9.176V8.924C62.7411 7.124 63.5691 3.74 68.9331 3.74H69.5271C75.0711 3.74 75.7191 7.142 75.7191 8.906V9.194C75.7191 10.994 75.0711 14.27 69.5091 14.27ZM69.1311 11.642H69.3291C71.5431 11.642 72.1011 10.058 72.1011 8.96C72.1011 7.826 71.5431 6.314 69.3291 6.314H69.1311C66.8271 6.314 66.3591 7.826 66.3591 8.96C66.3591 10.058 66.8271 11.642 69.1311 11.642ZM86.3778 14H78.1338V4.01H86.0178C88.3038 4.01 89.7438 4.82 89.7438 6.404V6.494C89.7438 7.736 88.9518 8.474 87.7458 8.672C88.9698 8.816 90.0678 9.68 90.0678 11.12V11.192C90.0678 13.01 88.8798 14 86.3778 14ZM81.6438 7.988H84.8658C85.7118 7.988 86.1438 7.664 86.1438 7.034V6.944C86.1438 6.368 85.7478 6.026 84.8658 6.026H81.6438V7.988ZM81.6438 11.984H85.0098C85.9458 11.984 86.4678 11.678 86.4678 10.976V10.832C86.4678 10.202 86.0358 9.806 85.0098 9.806H81.6438V11.984ZM97.9138 14V0.608H111.792V14H108.084V3.56H101.622V14H97.9138ZM120.721 6.08C118.903 6.08 118.219 6.818 118.039 7.862H123.331C123.331 7.124 122.971 6.08 120.721 6.08ZM123.403 10.886H127.057C127.057 11.714 126.409 14.234 121.243 14.234H120.577C115.645 14.234 114.421 11.534 114.421 9.14V8.888C114.421 6.638 115.537 3.794 120.271 3.794H121.063C126.175 3.794 127.093 6.638 127.093 9.428V9.752H118.003C118.147 10.904 118.885 11.84 121.027 11.84C123.061 11.84 123.313 11.048 123.403 10.886ZM132.183 14V6.674H128.313V4.01H139.563V6.674H135.693V14H132.183ZM150.648 9.014V8.96C150.648 7.88 150.144 6.422 147.948 6.422H147.768C145.662 6.422 144.996 7.808 144.996 8.96V9.014C144.996 10.112 145.662 11.552 147.768 11.552H147.948C150.144 11.552 150.648 10.04 150.648 9.014ZM141.504 17.438V4.01H144.978V5.288C145.41 4.82 146.724 3.812 148.992 3.812H149.226C153.042 3.812 154.284 6.422 154.284 8.798V9.104C154.284 11.282 153.006 14.198 149.208 14.198H148.956C146.67 14.198 145.446 13.154 145.014 12.722V17.438H141.504ZM10.998 32.762L8.568 27.308L6.21 32.762H10.998ZM13.338 38L12.24 35.516H5.004L3.924 38H0.198L6.138 24.608H11.106L17.316 38H13.338ZM27.1558 38V30.674H23.1958C23.1958 33.356 23.1058 34.85 22.7638 35.768C22.3858 36.776 21.8818 38 19.2358 38H18.1378V35.39H18.3538C18.9838 35.39 19.4518 35.174 19.6498 34.256C19.7938 33.482 19.8478 32.636 19.8478 28.01H30.6658V38H27.1558ZM39.3872 30.08C37.5692 30.08 36.8852 30.818 36.7052 31.862H41.9972C41.9972 31.124 41.6372 30.08 39.3872 30.08ZM42.0692 34.886H45.7232C45.7232 35.714 45.0752 38.234 39.9092 38.234H39.2432C34.3112 38.234 33.0872 35.534 33.0872 33.14V32.888C33.0872 30.638 34.2032 27.794 38.9372 27.794H39.7292C44.8412 27.794 45.7592 30.638 45.7592 33.428V33.752H36.6692C36.8132 34.904 37.5512 35.84 39.6932 35.84C41.7272 35.84 41.9792 35.048 42.0692 34.886ZM55.5971 38L51.7091 33.374V38H48.1991V28.01H51.7091V32.006L55.2731 28.01H59.3231L55.1471 32.492L59.7731 38H55.5971ZM69.1186 34.076H72.7906C72.7906 35.588 71.8906 38.27 67.0846 38.27H66.2026C61.2166 38.27 60.2806 35.03 60.2806 33.14V32.888C60.2806 30.998 61.1626 27.74 66.1846 27.74H67.0126C71.8366 27.74 72.7906 30.368 72.7906 31.808V31.826H69.1186C69.0646 31.538 68.7226 30.296 66.6526 30.296H66.4726C64.4026 30.296 63.9166 31.718 63.9166 32.924V32.942C63.9166 34.184 64.5106 35.66 66.5446 35.66H66.7246C68.8126 35.66 69.1186 34.31 69.1186 34.076ZM79.8967 36.002C81.9487 36.002 82.6507 34.706 82.6507 33.95V33.176C82.3447 33.302 81.4627 33.482 80.4547 33.644C78.7627 33.932 78.2227 34.166 78.2227 34.868V34.904C78.2227 35.534 78.6727 36.002 79.8967 36.002ZM82.7587 36.614C82.3267 37.136 81.2467 38.198 78.9067 38.198H78.6187C75.8287 38.198 74.6767 36.686 74.6767 35.03V34.958C74.6767 33.23 75.7747 32.168 79.1587 31.88L81.8947 31.646C82.4527 31.592 82.6507 31.412 82.6507 30.998C82.6507 30.53 82.5067 30.026 80.5627 30.026C78.7267 30.026 78.5467 30.746 78.5467 31.124H74.9467V31.088C74.9467 30.098 75.3427 27.776 80.2567 27.776H80.8147C85.7647 27.776 86.0707 29.81 86.0707 31.142V34.436C86.0707 35.066 86.1967 35.318 86.8987 35.318H87.2767V38H84.4327C83.3887 38 82.9027 37.262 82.7587 36.614ZM92.7883 38H89.2783V28.01H92.7883V31.646H97.6843V28.01H101.194V38H97.6843V34.31H92.7883V38ZM103.286 40.124V35.336H104.492C105.176 33.968 105.284 30.998 105.374 28.01H115.94V35.336H117.74V40.124H114.41V38H106.616V40.124H103.286ZM107.804 35.336H112.43V30.674H108.524C108.47 31.97 108.29 33.95 107.804 35.336ZM129.009 33.014V32.96C129.009 31.88 128.505 30.422 126.309 30.422H126.129C124.023 30.422 123.357 31.808 123.357 32.96V33.014C123.357 34.112 124.023 35.552 126.129 35.552H126.309C128.505 35.552 129.009 34.04 129.009 33.014ZM119.865 41.438V28.01H123.339V29.288C123.771 28.82 125.085 27.812 127.353 27.812H127.587C131.403 27.812 132.645 30.422 132.645 32.798V33.104C132.645 35.282 131.367 38.198 127.569 38.198H127.317C125.031 38.198 123.807 37.154 123.375 36.722V41.438H119.865ZM141.351 38.27H140.793C135.411 38.27 134.583 34.994 134.583 33.176V32.924C134.583 31.124 135.411 27.74 140.775 27.74H141.369C146.913 27.74 147.561 31.142 147.561 32.906V33.194C147.561 34.994 146.913 38.27 141.351 38.27ZM140.973 35.642H141.171C143.385 35.642 143.943 34.058 143.943 32.96C143.943 31.826 143.385 30.314 141.171 30.314H140.973C138.669 30.314 138.201 31.826 138.201 32.96C138.201 34.058 138.669 35.642 140.973 35.642ZM158.22 38H149.976V28.01H157.86C160.146 28.01 161.586 28.82 161.586 30.404V30.494C161.586 31.736 160.794 32.474 159.588 32.672C160.812 32.816 161.91 33.68 161.91 35.12V35.192C161.91 37.01 160.722 38 158.22 38ZM153.486 31.988H156.708C157.554 31.988 157.986 31.664 157.986 31.034V30.944C157.986 30.368 157.59 30.026 156.708 30.026H153.486V31.988ZM153.486 35.984H156.852C157.788 35.984 158.31 35.678 158.31 34.976V34.832C158.31 34.202 157.878 33.806 156.852 33.806H153.486V35.984ZM172.778 31.952L167.954 38H164.354V28.01H167.864V34.058L172.688 28.01H176.288V38H172.778V31.952ZM186.624 28.01H190.134V38H186.624V34.562C185.85 34.652 184.95 34.742 184.014 34.742C180.054 34.742 178.56 33.626 178.56 30.458V28.01H182.07V29.81C182.07 31.682 182.7 32.006 184.554 32.006C185.256 32.006 186.066 31.952 186.624 31.88V28.01Z" fill="url(#paint2_radial_41_65)"/>
<path d="M13.194 14V5L5.364 14H1.656V0.608H5.364V9.608L13.194 0.608H16.902V14H13.194ZM28.2645 14H20.0205V4.01H27.9045C30.1905 4.01 31.6305 4.82 31.6305 6.404V6.494C31.6305 7.736 30.8385 8.474 29.6325 8.672C30.8565 8.816 31.9545 9.68 31.9545 11.12V11.192C31.9545 13.01 30.7665 14 28.2645 14ZM23.5305 7.988H26.7525C27.5985 7.988 28.0305 7.664 28.0305 7.034V6.944C28.0305 6.368 27.6345 6.026 26.7525 6.026H23.5305V7.988ZM23.5305 11.984H26.8965C27.8325 11.984 28.3545 11.678 28.3545 10.976V10.832C28.3545 10.202 27.9225 9.806 26.8965 9.806H23.5305V11.984ZM39.0275 12.002C41.0795 12.002 41.7815 10.706 41.7815 9.95V9.176C41.4755 9.302 40.5935 9.482 39.5855 9.644C37.8935 9.932 37.3535 10.166 37.3535 10.868V10.904C37.3535 11.534 37.8035 12.002 39.0275 12.002ZM41.8895 12.614C41.4575 13.136 40.3775 14.198 38.0375 14.198H37.7495C34.9595 14.198 33.8075 12.686 33.8075 11.03V10.958C33.8075 9.23 34.9055 8.168 38.2895 7.88L41.0255 7.646C41.5835 7.592 41.7815 7.412 41.7815 6.998C41.7815 6.53 41.6375 6.026 39.6935 6.026C37.8575 6.026 37.6775 6.746 37.6775 7.124H34.0775V7.088C34.0775 6.098 34.4735 3.776 39.3875 3.776H39.9455C44.8955 3.776 45.2015 5.81 45.2015 7.142V10.436C45.2015 11.066 45.3275 11.318 46.0295 11.318H46.4075V14H43.5635C42.5195 14 42.0335 13.262 41.8895 12.614ZM51.9192 14H48.4092V4.01H51.9192V7.646H56.8152V4.01H60.3252V14H56.8152V10.31H51.9192V14ZM69.5091 14.27H68.9511C63.5691 14.27 62.7411 10.994 62.7411 9.176V8.924C62.7411 7.124 63.5691 3.74 68.9331 3.74H69.5271C75.0711 3.74 75.7191 7.142 75.7191 8.906V9.194C75.7191 10.994 75.0711 14.27 69.5091 14.27ZM69.1311 11.642H69.3291C71.5431 11.642 72.1011 10.058 72.1011 8.96C72.1011 7.826 71.5431 6.314 69.3291 6.314H69.1311C66.8271 6.314 66.3591 7.826 66.3591 8.96C66.3591 10.058 66.8271 11.642 69.1311 11.642ZM86.3778 14H78.1338V4.01H86.0178C88.3038 4.01 89.7438 4.82 89.7438 6.404V6.494C89.7438 7.736 88.9518 8.474 87.7458 8.672C88.9698 8.816 90.0678 9.68 90.0678 11.12V11.192C90.0678 13.01 88.8798 14 86.3778 14ZM81.6438 7.988H84.8658C85.7118 7.988 86.1438 7.664 86.1438 7.034V6.944C86.1438 6.368 85.7478 6.026 84.8658 6.026H81.6438V7.988ZM81.6438 11.984H85.0098C85.9458 11.984 86.4678 11.678 86.4678 10.976V10.832C86.4678 10.202 86.0358 9.806 85.0098 9.806H81.6438V11.984ZM97.9138 14V0.608H111.792V14H108.084V3.56H101.622V14H97.9138ZM120.721 6.08C118.903 6.08 118.219 6.818 118.039 7.862H123.331C123.331 7.124 122.971 6.08 120.721 6.08ZM123.403 10.886H127.057C127.057 11.714 126.409 14.234 121.243 14.234H120.577C115.645 14.234 114.421 11.534 114.421 9.14V8.888C114.421 6.638 115.537 3.794 120.271 3.794H121.063C126.175 3.794 127.093 6.638 127.093 9.428V9.752H118.003C118.147 10.904 118.885 11.84 121.027 11.84C123.061 11.84 123.313 11.048 123.403 10.886ZM132.183 14V6.674H128.313V4.01H139.563V6.674H135.693V14H132.183ZM150.648 9.014V8.96C150.648 7.88 150.144 6.422 147.948 6.422H147.768C145.662 6.422 144.996 7.808 144.996 8.96V9.014C144.996 10.112 145.662 11.552 147.768 11.552H147.948C150.144 11.552 150.648 10.04 150.648 9.014ZM141.504 17.438V4.01H144.978V5.288C145.41 4.82 146.724 3.812 148.992 3.812H149.226C153.042 3.812 154.284 6.422 154.284 8.798V9.104C154.284 11.282 153.006 14.198 149.208 14.198H148.956C146.67 14.198 145.446 13.154 145.014 12.722V17.438H141.504ZM10.998 32.762L8.568 27.308L6.21 32.762H10.998ZM13.338 38L12.24 35.516H5.004L3.924 38H0.198L6.138 24.608H11.106L17.316 38H13.338ZM27.1558 38V30.674H23.1958C23.1958 33.356 23.1058 34.85 22.7638 35.768C22.3858 36.776 21.8818 38 19.2358 38H18.1378V35.39H18.3538C18.9838 35.39 19.4518 35.174 19.6498 34.256C19.7938 33.482 19.8478 32.636 19.8478 28.01H30.6658V38H27.1558ZM39.3872 30.08C37.5692 30.08 36.8852 30.818 36.7052 31.862H41.9972C41.9972 31.124 41.6372 30.08 39.3872 30.08ZM42.0692 34.886H45.7232C45.7232 35.714 45.0752 38.234 39.9092 38.234H39.2432C34.3112 38.234 33.0872 35.534 33.0872 33.14V32.888C33.0872 30.638 34.2032 27.794 38.9372 27.794H39.7292C44.8412 27.794 45.7592 30.638 45.7592 33.428V33.752H36.6692C36.8132 34.904 37.5512 35.84 39.6932 35.84C41.7272 35.84 41.9792 35.048 42.0692 34.886ZM55.5971 38L51.7091 33.374V38H48.1991V28.01H51.7091V32.006L55.2731 28.01H59.3231L55.1471 32.492L59.7731 38H55.5971ZM69.1186 34.076H72.7906C72.7906 35.588 71.8906 38.27 67.0846 38.27H66.2026C61.2166 38.27 60.2806 35.03 60.2806 33.14V32.888C60.2806 30.998 61.1626 27.74 66.1846 27.74H67.0126C71.8366 27.74 72.7906 30.368 72.7906 31.808V31.826H69.1186C69.0646 31.538 68.7226 30.296 66.6526 30.296H66.4726C64.4026 30.296 63.9166 31.718 63.9166 32.924V32.942C63.9166 34.184 64.5106 35.66 66.5446 35.66H66.7246C68.8126 35.66 69.1186 34.31 69.1186 34.076ZM79.8967 36.002C81.9487 36.002 82.6507 34.706 82.6507 33.95V33.176C82.3447 33.302 81.4627 33.482 80.4547 33.644C78.7627 33.932 78.2227 34.166 78.2227 34.868V34.904C78.2227 35.534 78.6727 36.002 79.8967 36.002ZM82.7587 36.614C82.3267 37.136 81.2467 38.198 78.9067 38.198H78.6187C75.8287 38.198 74.6767 36.686 74.6767 35.03V34.958C74.6767 33.23 75.7747 32.168 79.1587 31.88L81.8947 31.646C82.4527 31.592 82.6507 31.412 82.6507 30.998C82.6507 30.53 82.5067 30.026 80.5627 30.026C78.7267 30.026 78.5467 30.746 78.5467 31.124H74.9467V31.088C74.9467 30.098 75.3427 27.776 80.2567 27.776H80.8147C85.7647 27.776 86.0707 29.81 86.0707 31.142V34.436C86.0707 35.066 86.1967 35.318 86.8987 35.318H87.2767V38H84.4327C83.3887 38 82.9027 37.262 82.7587 36.614ZM92.7883 38H89.2783V28.01H92.7883V31.646H97.6843V28.01H101.194V38H97.6843V34.31H92.7883V38ZM103.286 40.124V35.336H104.492C105.176 33.968 105.284 30.998 105.374 28.01H115.94V35.336H117.74V40.124H114.41V38H106.616V40.124H103.286ZM107.804 35.336H112.43V30.674H108.524C108.47 31.97 108.29 33.95 107.804 35.336ZM129.009 33.014V32.96C129.009 31.88 128.505 30.422 126.309 30.422H126.129C124.023 30.422 123.357 31.808 123.357 32.96V33.014C123.357 34.112 124.023 35.552 126.129 35.552H126.309C128.505 35.552 129.009 34.04 129.009 33.014ZM119.865 41.438V28.01H123.339V29.288C123.771 28.82 125.085 27.812 127.353 27.812H127.587C131.403 27.812 132.645 30.422 132.645 32.798V33.104C132.645 35.282 131.367 38.198 127.569 38.198H127.317C125.031 38.198 123.807 37.154 123.375 36.722V41.438H119.865ZM141.351 38.27H140.793C135.411 38.27 134.583 34.994 134.583 33.176V32.924C134.583 31.124 135.411 27.74 140.775 27.74H141.369C146.913 27.74 147.561 31.142 147.561 32.906V33.194C147.561 34.994 146.913 38.27 141.351 38.27ZM140.973 35.642H141.171C143.385 35.642 143.943 34.058 143.943 32.96C143.943 31.826 143.385 30.314 141.171 30.314H140.973C138.669 30.314 138.201 31.826 138.201 32.96C138.201 34.058 138.669 35.642 140.973 35.642ZM158.22 38H149.976V28.01H157.86C160.146 28.01 161.586 28.82 161.586 30.404V30.494C161.586 31.736 160.794 32.474 159.588 32.672C160.812 32.816 161.91 33.68 161.91 35.12V35.192C161.91 37.01 160.722 38 158.22 38ZM153.486 31.988H156.708C157.554 31.988 157.986 31.664 157.986 31.034V30.944C157.986 30.368 157.59 30.026 156.708 30.026H153.486V31.988ZM153.486 35.984H156.852C157.788 35.984 158.31 35.678 158.31 34.976V34.832C158.31 34.202 157.878 33.806 156.852 33.806H153.486V35.984ZM172.778 31.952L167.954 38H164.354V28.01H167.864V34.058L172.688 28.01H176.288V38H172.778V31.952ZM186.624 28.01H190.134V38H186.624V34.562C185.85 34.652 184.95 34.742 184.014 34.742C180.054 34.742 178.56 33.626 178.56 30.458V28.01H182.07V29.81C182.07 31.682 182.7 32.006 184.554 32.006C185.256 32.006 186.066 31.952 186.624 31.88V28.01Z" fill="#C1A875" style="mix-blend-mode:color"/>
<defs>
<linearGradient id="paint0_linear_41_65" x1="8.27014e-07" y1="30" x2="222" y2="30" gradientUnits="userSpaceOnUse">
<stop stop-color="#576167"/>
<stop offset="0.191294" stop-color="#9EA1A2"/>
<stop offset="0.396166" stop-color="#848989"/>
<stop offset="0.62055" stop-color="#576167"/>
<stop offset="0.830299" stop-color="#757A7C"/>
<stop offset="1" stop-color="#576167"/>
</linearGradient>
<radialGradient id="paint1_radial_41_65" cx="0" cy="0" r="1" gradientUnits="userSpaceOnUse" gradientTransform="translate(118.226 2.39326) rotate(90) scale(53.4944 167.95)">
<stop stop-color="white"/>
<stop offset="1" stop-color="white" stop-opacity="0"/>
</radialGradient>
<radialGradient id="paint2_radial_41_65" cx="0" cy="0" r="1" gradientUnits="userSpaceOnUse" gradientTransform="translate(130.783 82.9888) rotate(-89.7344) scale(76.6525 240.162)">
<stop stop-color="white"/>
<stop offset="1" stop-color="white" stop-opacity="0"/>
</radialGradient>
</defs>
</svg>
