<svg width="202" height="39" viewBox="0 0 202 39" fill="none" xmlns="http://www.w3.org/2000/svg">
<path d="M8.63 14.198H7.802C1.682 14.198 0.0620001 10.274 0.0620001 7.538V6.998C0.0620001 4.208 1.682 0.409999 7.802 0.409999H8.63C14.246 0.409999 16.118 3.164 16.118 5.702V5.738H12.302C12.248 5.36 11.744 3.47 8.216 3.47C4.94 3.47 3.914 5.306 3.914 7.106V7.358C3.914 9.014 4.976 11.12 8.234 11.12C11.798 11.12 12.248 9.194 12.302 8.762H16.118V8.816C16.118 11.264 14.318 14.198 8.63 14.198ZM21.821 7.268V14H18.581V4.01H23.531L26.501 10.382L29.471 4.01H34.241V14H30.731V7.268L27.617 14H24.935L21.821 7.268ZM45.4621 7.952L40.6381 14H37.0381V4.01H40.5481V10.058L45.3721 4.01H48.9721V14H45.4621V7.952ZM61.0716 9.014V8.96C61.0716 7.88 60.5676 6.422 58.3716 6.422H58.1916C56.0856 6.422 55.4196 7.808 55.4196 8.96V9.014C55.4196 10.112 56.0856 11.552 58.1916 11.552H58.3716C60.5676 11.552 61.0716 10.04 61.0716 9.014ZM51.9276 17.438V4.01H55.4016V5.288C55.8336 4.82 57.1476 3.812 59.4156 3.812H59.6496C63.4656 3.812 64.7076 6.422 64.7076 8.798V9.104C64.7076 11.282 63.4296 14.198 59.6316 14.198H59.3796C57.0936 14.198 55.8696 13.154 55.4376 12.722V17.438H51.9276ZM70.6594 14H67.1494V4.01H70.6594V7.646H75.5554V4.01H79.0654V14H75.5554V10.31H70.6594V14ZM88.2493 14.27H87.6913C82.3093 14.27 81.4813 10.994 81.4813 9.176V8.924C81.4813 7.124 82.3093 3.74 87.6733 3.74H88.2673C93.8113 3.74 94.4593 7.142 94.4593 8.906V9.194C94.4593 10.994 93.8113 14.27 88.2493 14.27ZM87.8713 11.642H88.0693C90.2833 11.642 90.8413 10.058 90.8413 8.96C90.8413 7.826 90.2833 6.314 88.0693 6.314H87.8713C85.5673 6.314 85.0993 7.826 85.0993 8.96C85.0993 10.058 85.5673 11.642 87.8713 11.642ZM105.118 14H96.874V4.01H104.758C107.044 4.01 108.484 4.82 108.484 6.404V6.494C108.484 7.736 107.692 8.474 106.486 8.672C107.71 8.816 108.808 9.68 108.808 11.12V11.192C108.808 13.01 107.62 14 105.118 14ZM100.384 7.988H103.606C104.452 7.988 104.884 7.664 104.884 7.034V6.944C104.884 6.368 104.488 6.026 103.606 6.026H100.384V7.988ZM100.384 11.984H103.75C104.686 11.984 105.208 11.678 105.208 10.976V10.832C105.208 10.202 104.776 9.806 103.75 9.806H100.384V11.984ZM127.832 14V8.618H120.362V14H116.654V0.608H120.362V5.576H127.832V0.608H131.54V14H127.832ZM143.073 7.952L138.249 14H134.649V4.01H138.159V10.058L142.983 4.01H146.583V14H143.073V7.952ZM156.937 14L153.049 9.374V14H149.539V4.01H153.049V8.006L156.613 4.01H160.663L156.487 8.492L161.113 14H156.937ZM170.987 7.952L166.163 14H162.563V4.01H166.073V10.058L170.897 4.01H174.497V14H170.987V7.952ZM180.279 14V6.674H176.409V4.01H187.659V6.674H183.789V14H180.279ZM194.279 12.002C196.331 12.002 197.033 10.706 197.033 9.95V9.176C196.727 9.302 195.845 9.482 194.837 9.644C193.145 9.932 192.605 10.166 192.605 10.868V10.904C192.605 11.534 193.055 12.002 194.279 12.002ZM197.141 12.614C196.709 13.136 195.629 14.198 193.289 14.198H193.001C190.211 14.198 189.059 12.686 189.059 11.03V10.958C189.059 9.23 190.157 8.168 193.541 7.88L196.277 7.646C196.835 7.592 197.033 7.412 197.033 6.998C197.033 6.53 196.889 6.026 194.945 6.026C193.109 6.026 192.929 6.746 192.929 7.124H189.329V7.088C189.329 6.098 189.725 3.776 194.639 3.776H195.197C200.147 3.776 200.453 5.81 200.453 7.142V10.436C200.453 11.066 200.579 11.318 201.281 11.318H201.659V14H198.815C197.771 14 197.285 13.262 197.141 12.614ZM0.656 24.608H12.914V27.524H4.31V29.702H12.644V32.726H4.31V35.048H13.022V38H0.656V24.608ZM24.0301 38H15.7861V28.01H23.6701C25.9561 28.01 27.3961 28.82 27.3961 30.404V30.494C27.3961 31.736 26.6041 32.474 25.3981 32.672C26.6221 32.816 27.7201 33.68 27.7201 35.12V35.192C27.7201 37.01 26.5321 38 24.0301 38ZM19.2961 31.988H22.5181C23.3641 31.988 23.7961 31.664 23.7961 31.034V30.944C23.7961 30.368 23.4001 30.026 22.5181 30.026H19.2961V31.988ZM19.2961 35.984H22.6621C23.5981 35.984 24.1201 35.678 24.1201 34.976V34.832C24.1201 34.202 23.6881 33.806 22.6621 33.806H19.2961V35.984ZM30.165 38V28.01H38.877V30.674H33.675V38H30.165ZM46.5962 30.08C44.7782 30.08 44.0942 30.818 43.9142 31.862H49.2062C49.2062 31.124 48.8462 30.08 46.5962 30.08ZM49.2782 34.886H52.9322C52.9322 35.714 52.2842 38.234 47.1182 38.234H46.4522C41.5202 38.234 40.2962 35.534 40.2962 33.14V32.888C40.2962 30.638 41.4122 27.794 46.1462 27.794H46.9382C52.0502 27.794 52.9682 30.638 52.9682 33.428V33.752H43.8782C44.0222 34.904 44.7602 35.84 46.9022 35.84C48.9362 35.84 49.1882 35.048 49.2782 34.886ZM58.8821 38H55.3721V28.01H58.8821V31.646H63.7781V28.01H67.2881V38H63.7781V34.31H58.8821V38ZM70.208 38V28.01H73.718V30.872H76.454C79.874 30.872 81.206 32.384 81.206 34.292V34.508C81.206 36.596 79.874 38 76.454 38H70.208ZM73.718 35.624H76.022C76.742 35.624 77.606 35.408 77.606 34.436V34.382C77.606 33.482 76.742 33.248 76.022 33.248H73.718V35.624ZM89.2759 30.08C87.4579 30.08 86.7739 30.818 86.5939 31.862H91.8859C91.8859 31.124 91.5259 30.08 89.2759 30.08ZM91.9579 34.886H95.6119C95.6119 35.714 94.9639 38.234 89.7979 38.234H89.1319C84.1999 38.234 82.9759 35.534 82.9759 33.14V32.888C82.9759 30.638 84.0919 27.794 88.8259 27.794H89.6179C94.7299 27.794 95.6479 30.638 95.6479 33.428V33.752H86.5579C86.7019 34.904 87.4399 35.84 89.5819 35.84C91.6159 35.84 91.8679 35.048 91.9579 34.886ZM106.296 38H98.0518V28.01H105.936C108.222 28.01 109.662 28.82 109.662 30.404V30.494C109.662 31.736 108.87 32.474 107.664 32.672C108.888 32.816 109.986 33.68 109.986 35.12V35.192C109.986 37.01 108.798 38 106.296 38ZM101.562 31.988H104.784C105.63 31.988 106.062 31.664 106.062 31.034V30.944C106.062 30.368 105.666 30.026 104.784 30.026H101.562V31.988ZM101.562 35.984H104.928C105.864 35.984 106.386 35.678 106.386 34.976V34.832C106.386 34.202 105.954 33.806 104.928 33.806H101.562V35.984ZM120.855 31.952L116.031 38H112.431V28.01H115.941V34.058L120.765 28.01H124.365V38H120.855V31.952ZM134.7 28.01H138.21V38H134.7V34.562C133.926 34.652 133.026 34.742 132.09 34.742C128.13 34.742 126.636 33.626 126.636 30.458V28.01H130.146V29.81C130.146 31.682 130.776 32.006 132.63 32.006C133.332 32.006 134.142 31.952 134.7 31.88V28.01Z" fill="url(#paint0_linear_41_110)"/>
<path d="M8.63 14.198H7.802C1.682 14.198 0.0620001 10.274 0.0620001 7.538V6.998C0.0620001 4.208 1.682 0.409999 7.802 0.409999H8.63C14.246 0.409999 16.118 3.164 16.118 5.702V5.738H12.302C12.248 5.36 11.744 3.47 8.216 3.47C4.94 3.47 3.914 5.306 3.914 7.106V7.358C3.914 9.014 4.976 11.12 8.234 11.12C11.798 11.12 12.248 9.194 12.302 8.762H16.118V8.816C16.118 11.264 14.318 14.198 8.63 14.198ZM21.821 7.268V14H18.581V4.01H23.531L26.501 10.382L29.471 4.01H34.241V14H30.731V7.268L27.617 14H24.935L21.821 7.268ZM45.4621 7.952L40.6381 14H37.0381V4.01H40.5481V10.058L45.3721 4.01H48.9721V14H45.4621V7.952ZM61.0716 9.014V8.96C61.0716 7.88 60.5676 6.422 58.3716 6.422H58.1916C56.0856 6.422 55.4196 7.808 55.4196 8.96V9.014C55.4196 10.112 56.0856 11.552 58.1916 11.552H58.3716C60.5676 11.552 61.0716 10.04 61.0716 9.014ZM51.9276 17.438V4.01H55.4016V5.288C55.8336 4.82 57.1476 3.812 59.4156 3.812H59.6496C63.4656 3.812 64.7076 6.422 64.7076 8.798V9.104C64.7076 11.282 63.4296 14.198 59.6316 14.198H59.3796C57.0936 14.198 55.8696 13.154 55.4376 12.722V17.438H51.9276ZM70.6594 14H67.1494V4.01H70.6594V7.646H75.5554V4.01H79.0654V14H75.5554V10.31H70.6594V14ZM88.2493 14.27H87.6913C82.3093 14.27 81.4813 10.994 81.4813 9.176V8.924C81.4813 7.124 82.3093 3.74 87.6733 3.74H88.2673C93.8113 3.74 94.4593 7.142 94.4593 8.906V9.194C94.4593 10.994 93.8113 14.27 88.2493 14.27ZM87.8713 11.642H88.0693C90.2833 11.642 90.8413 10.058 90.8413 8.96C90.8413 7.826 90.2833 6.314 88.0693 6.314H87.8713C85.5673 6.314 85.0993 7.826 85.0993 8.96C85.0993 10.058 85.5673 11.642 87.8713 11.642ZM105.118 14H96.874V4.01H104.758C107.044 4.01 108.484 4.82 108.484 6.404V6.494C108.484 7.736 107.692 8.474 106.486 8.672C107.71 8.816 108.808 9.68 108.808 11.12V11.192C108.808 13.01 107.62 14 105.118 14ZM100.384 7.988H103.606C104.452 7.988 104.884 7.664 104.884 7.034V6.944C104.884 6.368 104.488 6.026 103.606 6.026H100.384V7.988ZM100.384 11.984H103.75C104.686 11.984 105.208 11.678 105.208 10.976V10.832C105.208 10.202 104.776 9.806 103.75 9.806H100.384V11.984ZM127.832 14V8.618H120.362V14H116.654V0.608H120.362V5.576H127.832V0.608H131.54V14H127.832ZM143.073 7.952L138.249 14H134.649V4.01H138.159V10.058L142.983 4.01H146.583V14H143.073V7.952ZM156.937 14L153.049 9.374V14H149.539V4.01H153.049V8.006L156.613 4.01H160.663L156.487 8.492L161.113 14H156.937ZM170.987 7.952L166.163 14H162.563V4.01H166.073V10.058L170.897 4.01H174.497V14H170.987V7.952ZM180.279 14V6.674H176.409V4.01H187.659V6.674H183.789V14H180.279ZM194.279 12.002C196.331 12.002 197.033 10.706 197.033 9.95V9.176C196.727 9.302 195.845 9.482 194.837 9.644C193.145 9.932 192.605 10.166 192.605 10.868V10.904C192.605 11.534 193.055 12.002 194.279 12.002ZM197.141 12.614C196.709 13.136 195.629 14.198 193.289 14.198H193.001C190.211 14.198 189.059 12.686 189.059 11.03V10.958C189.059 9.23 190.157 8.168 193.541 7.88L196.277 7.646C196.835 7.592 197.033 7.412 197.033 6.998C197.033 6.53 196.889 6.026 194.945 6.026C193.109 6.026 192.929 6.746 192.929 7.124H189.329V7.088C189.329 6.098 189.725 3.776 194.639 3.776H195.197C200.147 3.776 200.453 5.81 200.453 7.142V10.436C200.453 11.066 200.579 11.318 201.281 11.318H201.659V14H198.815C197.771 14 197.285 13.262 197.141 12.614ZM0.656 24.608H12.914V27.524H4.31V29.702H12.644V32.726H4.31V35.048H13.022V38H0.656V24.608ZM24.0301 38H15.7861V28.01H23.6701C25.9561 28.01 27.3961 28.82 27.3961 30.404V30.494C27.3961 31.736 26.6041 32.474 25.3981 32.672C26.6221 32.816 27.7201 33.68 27.7201 35.12V35.192C27.7201 37.01 26.5321 38 24.0301 38ZM19.2961 31.988H22.5181C23.3641 31.988 23.7961 31.664 23.7961 31.034V30.944C23.7961 30.368 23.4001 30.026 22.5181 30.026H19.2961V31.988ZM19.2961 35.984H22.6621C23.5981 35.984 24.1201 35.678 24.1201 34.976V34.832C24.1201 34.202 23.6881 33.806 22.6621 33.806H19.2961V35.984ZM30.165 38V28.01H38.877V30.674H33.675V38H30.165ZM46.5962 30.08C44.7782 30.08 44.0942 30.818 43.9142 31.862H49.2062C49.2062 31.124 48.8462 30.08 46.5962 30.08ZM49.2782 34.886H52.9322C52.9322 35.714 52.2842 38.234 47.1182 38.234H46.4522C41.5202 38.234 40.2962 35.534 40.2962 33.14V32.888C40.2962 30.638 41.4122 27.794 46.1462 27.794H46.9382C52.0502 27.794 52.9682 30.638 52.9682 33.428V33.752H43.8782C44.0222 34.904 44.7602 35.84 46.9022 35.84C48.9362 35.84 49.1882 35.048 49.2782 34.886ZM58.8821 38H55.3721V28.01H58.8821V31.646H63.7781V28.01H67.2881V38H63.7781V34.31H58.8821V38ZM70.208 38V28.01H73.718V30.872H76.454C79.874 30.872 81.206 32.384 81.206 34.292V34.508C81.206 36.596 79.874 38 76.454 38H70.208ZM73.718 35.624H76.022C76.742 35.624 77.606 35.408 77.606 34.436V34.382C77.606 33.482 76.742 33.248 76.022 33.248H73.718V35.624ZM89.2759 30.08C87.4579 30.08 86.7739 30.818 86.5939 31.862H91.8859C91.8859 31.124 91.5259 30.08 89.2759 30.08ZM91.9579 34.886H95.6119C95.6119 35.714 94.9639 38.234 89.7979 38.234H89.1319C84.1999 38.234 82.9759 35.534 82.9759 33.14V32.888C82.9759 30.638 84.0919 27.794 88.8259 27.794H89.6179C94.7299 27.794 95.6479 30.638 95.6479 33.428V33.752H86.5579C86.7019 34.904 87.4399 35.84 89.5819 35.84C91.6159 35.84 91.8679 35.048 91.9579 34.886ZM106.296 38H98.0518V28.01H105.936C108.222 28.01 109.662 28.82 109.662 30.404V30.494C109.662 31.736 108.87 32.474 107.664 32.672C108.888 32.816 109.986 33.68 109.986 35.12V35.192C109.986 37.01 108.798 38 106.296 38ZM101.562 31.988H104.784C105.63 31.988 106.062 31.664 106.062 31.034V30.944C106.062 30.368 105.666 30.026 104.784 30.026H101.562V31.988ZM101.562 35.984H104.928C105.864 35.984 106.386 35.678 106.386 34.976V34.832C106.386 34.202 105.954 33.806 104.928 33.806H101.562V35.984ZM120.855 31.952L116.031 38H112.431V28.01H115.941V34.058L120.765 28.01H124.365V38H120.855V31.952ZM134.7 28.01H138.21V38H134.7V34.562C133.926 34.652 133.026 34.742 132.09 34.742C128.13 34.742 126.636 33.626 126.636 30.458V28.01H130.146V29.81C130.146 31.682 130.776 32.006 132.63 32.006C133.332 32.006 134.142 31.952 134.7 31.88V28.01Z" fill="url(#paint1_radial_41_110)" style="mix-blend-mode:overlay"/>
<path d="M8.63 14.198H7.802C1.682 14.198 0.0620001 10.274 0.0620001 7.538V6.998C0.0620001 4.208 1.682 0.409999 7.802 0.409999H8.63C14.246 0.409999 16.118 3.164 16.118 5.702V5.738H12.302C12.248 5.36 11.744 3.47 8.216 3.47C4.94 3.47 3.914 5.306 3.914 7.106V7.358C3.914 9.014 4.976 11.12 8.234 11.12C11.798 11.12 12.248 9.194 12.302 8.762H16.118V8.816C16.118 11.264 14.318 14.198 8.63 14.198ZM21.821 7.268V14H18.581V4.01H23.531L26.501 10.382L29.471 4.01H34.241V14H30.731V7.268L27.617 14H24.935L21.821 7.268ZM45.4621 7.952L40.6381 14H37.0381V4.01H40.5481V10.058L45.3721 4.01H48.9721V14H45.4621V7.952ZM61.0716 9.014V8.96C61.0716 7.88 60.5676 6.422 58.3716 6.422H58.1916C56.0856 6.422 55.4196 7.808 55.4196 8.96V9.014C55.4196 10.112 56.0856 11.552 58.1916 11.552H58.3716C60.5676 11.552 61.0716 10.04 61.0716 9.014ZM51.9276 17.438V4.01H55.4016V5.288C55.8336 4.82 57.1476 3.812 59.4156 3.812H59.6496C63.4656 3.812 64.7076 6.422 64.7076 8.798V9.104C64.7076 11.282 63.4296 14.198 59.6316 14.198H59.3796C57.0936 14.198 55.8696 13.154 55.4376 12.722V17.438H51.9276ZM70.6594 14H67.1494V4.01H70.6594V7.646H75.5554V4.01H79.0654V14H75.5554V10.31H70.6594V14ZM88.2493 14.27H87.6913C82.3093 14.27 81.4813 10.994 81.4813 9.176V8.924C81.4813 7.124 82.3093 3.74 87.6733 3.74H88.2673C93.8113 3.74 94.4593 7.142 94.4593 8.906V9.194C94.4593 10.994 93.8113 14.27 88.2493 14.27ZM87.8713 11.642H88.0693C90.2833 11.642 90.8413 10.058 90.8413 8.96C90.8413 7.826 90.2833 6.314 88.0693 6.314H87.8713C85.5673 6.314 85.0993 7.826 85.0993 8.96C85.0993 10.058 85.5673 11.642 87.8713 11.642ZM105.118 14H96.874V4.01H104.758C107.044 4.01 108.484 4.82 108.484 6.404V6.494C108.484 7.736 107.692 8.474 106.486 8.672C107.71 8.816 108.808 9.68 108.808 11.12V11.192C108.808 13.01 107.62 14 105.118 14ZM100.384 7.988H103.606C104.452 7.988 104.884 7.664 104.884 7.034V6.944C104.884 6.368 104.488 6.026 103.606 6.026H100.384V7.988ZM100.384 11.984H103.75C104.686 11.984 105.208 11.678 105.208 10.976V10.832C105.208 10.202 104.776 9.806 103.75 9.806H100.384V11.984ZM127.832 14V8.618H120.362V14H116.654V0.608H120.362V5.576H127.832V0.608H131.54V14H127.832ZM143.073 7.952L138.249 14H134.649V4.01H138.159V10.058L142.983 4.01H146.583V14H143.073V7.952ZM156.937 14L153.049 9.374V14H149.539V4.01H153.049V8.006L156.613 4.01H160.663L156.487 8.492L161.113 14H156.937ZM170.987 7.952L166.163 14H162.563V4.01H166.073V10.058L170.897 4.01H174.497V14H170.987V7.952ZM180.279 14V6.674H176.409V4.01H187.659V6.674H183.789V14H180.279ZM194.279 12.002C196.331 12.002 197.033 10.706 197.033 9.95V9.176C196.727 9.302 195.845 9.482 194.837 9.644C193.145 9.932 192.605 10.166 192.605 10.868V10.904C192.605 11.534 193.055 12.002 194.279 12.002ZM197.141 12.614C196.709 13.136 195.629 14.198 193.289 14.198H193.001C190.211 14.198 189.059 12.686 189.059 11.03V10.958C189.059 9.23 190.157 8.168 193.541 7.88L196.277 7.646C196.835 7.592 197.033 7.412 197.033 6.998C197.033 6.53 196.889 6.026 194.945 6.026C193.109 6.026 192.929 6.746 192.929 7.124H189.329V7.088C189.329 6.098 189.725 3.776 194.639 3.776H195.197C200.147 3.776 200.453 5.81 200.453 7.142V10.436C200.453 11.066 200.579 11.318 201.281 11.318H201.659V14H198.815C197.771 14 197.285 13.262 197.141 12.614ZM0.656 24.608H12.914V27.524H4.31V29.702H12.644V32.726H4.31V35.048H13.022V38H0.656V24.608ZM24.0301 38H15.7861V28.01H23.6701C25.9561 28.01 27.3961 28.82 27.3961 30.404V30.494C27.3961 31.736 26.6041 32.474 25.3981 32.672C26.6221 32.816 27.7201 33.68 27.7201 35.12V35.192C27.7201 37.01 26.5321 38 24.0301 38ZM19.2961 31.988H22.5181C23.3641 31.988 23.7961 31.664 23.7961 31.034V30.944C23.7961 30.368 23.4001 30.026 22.5181 30.026H19.2961V31.988ZM19.2961 35.984H22.6621C23.5981 35.984 24.1201 35.678 24.1201 34.976V34.832C24.1201 34.202 23.6881 33.806 22.6621 33.806H19.2961V35.984ZM30.165 38V28.01H38.877V30.674H33.675V38H30.165ZM46.5962 30.08C44.7782 30.08 44.0942 30.818 43.9142 31.862H49.2062C49.2062 31.124 48.8462 30.08 46.5962 30.08ZM49.2782 34.886H52.9322C52.9322 35.714 52.2842 38.234 47.1182 38.234H46.4522C41.5202 38.234 40.2962 35.534 40.2962 33.14V32.888C40.2962 30.638 41.4122 27.794 46.1462 27.794H46.9382C52.0502 27.794 52.9682 30.638 52.9682 33.428V33.752H43.8782C44.0222 34.904 44.7602 35.84 46.9022 35.84C48.9362 35.84 49.1882 35.048 49.2782 34.886ZM58.8821 38H55.3721V28.01H58.8821V31.646H63.7781V28.01H67.2881V38H63.7781V34.31H58.8821V38ZM70.208 38V28.01H73.718V30.872H76.454C79.874 30.872 81.206 32.384 81.206 34.292V34.508C81.206 36.596 79.874 38 76.454 38H70.208ZM73.718 35.624H76.022C76.742 35.624 77.606 35.408 77.606 34.436V34.382C77.606 33.482 76.742 33.248 76.022 33.248H73.718V35.624ZM89.2759 30.08C87.4579 30.08 86.7739 30.818 86.5939 31.862H91.8859C91.8859 31.124 91.5259 30.08 89.2759 30.08ZM91.9579 34.886H95.6119C95.6119 35.714 94.9639 38.234 89.7979 38.234H89.1319C84.1999 38.234 82.9759 35.534 82.9759 33.14V32.888C82.9759 30.638 84.0919 27.794 88.8259 27.794H89.6179C94.7299 27.794 95.6479 30.638 95.6479 33.428V33.752H86.5579C86.7019 34.904 87.4399 35.84 89.5819 35.84C91.6159 35.84 91.8679 35.048 91.9579 34.886ZM106.296 38H98.0518V28.01H105.936C108.222 28.01 109.662 28.82 109.662 30.404V30.494C109.662 31.736 108.87 32.474 107.664 32.672C108.888 32.816 109.986 33.68 109.986 35.12V35.192C109.986 37.01 108.798 38 106.296 38ZM101.562 31.988H104.784C105.63 31.988 106.062 31.664 106.062 31.034V30.944C106.062 30.368 105.666 30.026 104.784 30.026H101.562V31.988ZM101.562 35.984H104.928C105.864 35.984 106.386 35.678 106.386 34.976V34.832C106.386 34.202 105.954 33.806 104.928 33.806H101.562V35.984ZM120.855 31.952L116.031 38H112.431V28.01H115.941V34.058L120.765 28.01H124.365V38H120.855V31.952ZM134.7 28.01H138.21V38H134.7V34.562C133.926 34.652 133.026 34.742 132.09 34.742C128.13 34.742 126.636 33.626 126.636 30.458V28.01H130.146V29.81C130.146 31.682 130.776 32.006 132.63 32.006C133.332 32.006 134.142 31.952 134.7 31.88V28.01Z" fill="url(#paint2_radial_41_110)"/>
<path d="M8.63 14.198H7.802C1.682 14.198 0.0620001 10.274 0.0620001 7.538V6.998C0.0620001 4.208 1.682 0.409999 7.802 0.409999H8.63C14.246 0.409999 16.118 3.164 16.118 5.702V5.738H12.302C12.248 5.36 11.744 3.47 8.216 3.47C4.94 3.47 3.914 5.306 3.914 7.106V7.358C3.914 9.014 4.976 11.12 8.234 11.12C11.798 11.12 12.248 9.194 12.302 8.762H16.118V8.816C16.118 11.264 14.318 14.198 8.63 14.198ZM21.821 7.268V14H18.581V4.01H23.531L26.501 10.382L29.471 4.01H34.241V14H30.731V7.268L27.617 14H24.935L21.821 7.268ZM45.4621 7.952L40.6381 14H37.0381V4.01H40.5481V10.058L45.3721 4.01H48.9721V14H45.4621V7.952ZM61.0716 9.014V8.96C61.0716 7.88 60.5676 6.422 58.3716 6.422H58.1916C56.0856 6.422 55.4196 7.808 55.4196 8.96V9.014C55.4196 10.112 56.0856 11.552 58.1916 11.552H58.3716C60.5676 11.552 61.0716 10.04 61.0716 9.014ZM51.9276 17.438V4.01H55.4016V5.288C55.8336 4.82 57.1476 3.812 59.4156 3.812H59.6496C63.4656 3.812 64.7076 6.422 64.7076 8.798V9.104C64.7076 11.282 63.4296 14.198 59.6316 14.198H59.3796C57.0936 14.198 55.8696 13.154 55.4376 12.722V17.438H51.9276ZM70.6594 14H67.1494V4.01H70.6594V7.646H75.5554V4.01H79.0654V14H75.5554V10.31H70.6594V14ZM88.2493 14.27H87.6913C82.3093 14.27 81.4813 10.994 81.4813 9.176V8.924C81.4813 7.124 82.3093 3.74 87.6733 3.74H88.2673C93.8113 3.74 94.4593 7.142 94.4593 8.906V9.194C94.4593 10.994 93.8113 14.27 88.2493 14.27ZM87.8713 11.642H88.0693C90.2833 11.642 90.8413 10.058 90.8413 8.96C90.8413 7.826 90.2833 6.314 88.0693 6.314H87.8713C85.5673 6.314 85.0993 7.826 85.0993 8.96C85.0993 10.058 85.5673 11.642 87.8713 11.642ZM105.118 14H96.874V4.01H104.758C107.044 4.01 108.484 4.82 108.484 6.404V6.494C108.484 7.736 107.692 8.474 106.486 8.672C107.71 8.816 108.808 9.68 108.808 11.12V11.192C108.808 13.01 107.62 14 105.118 14ZM100.384 7.988H103.606C104.452 7.988 104.884 7.664 104.884 7.034V6.944C104.884 6.368 104.488 6.026 103.606 6.026H100.384V7.988ZM100.384 11.984H103.75C104.686 11.984 105.208 11.678 105.208 10.976V10.832C105.208 10.202 104.776 9.806 103.75 9.806H100.384V11.984ZM127.832 14V8.618H120.362V14H116.654V0.608H120.362V5.576H127.832V0.608H131.54V14H127.832ZM143.073 7.952L138.249 14H134.649V4.01H138.159V10.058L142.983 4.01H146.583V14H143.073V7.952ZM156.937 14L153.049 9.374V14H149.539V4.01H153.049V8.006L156.613 4.01H160.663L156.487 8.492L161.113 14H156.937ZM170.987 7.952L166.163 14H162.563V4.01H166.073V10.058L170.897 4.01H174.497V14H170.987V7.952ZM180.279 14V6.674H176.409V4.01H187.659V6.674H183.789V14H180.279ZM194.279 12.002C196.331 12.002 197.033 10.706 197.033 9.95V9.176C196.727 9.302 195.845 9.482 194.837 9.644C193.145 9.932 192.605 10.166 192.605 10.868V10.904C192.605 11.534 193.055 12.002 194.279 12.002ZM197.141 12.614C196.709 13.136 195.629 14.198 193.289 14.198H193.001C190.211 14.198 189.059 12.686 189.059 11.03V10.958C189.059 9.23 190.157 8.168 193.541 7.88L196.277 7.646C196.835 7.592 197.033 7.412 197.033 6.998C197.033 6.53 196.889 6.026 194.945 6.026C193.109 6.026 192.929 6.746 192.929 7.124H189.329V7.088C189.329 6.098 189.725 3.776 194.639 3.776H195.197C200.147 3.776 200.453 5.81 200.453 7.142V10.436C200.453 11.066 200.579 11.318 201.281 11.318H201.659V14H198.815C197.771 14 197.285 13.262 197.141 12.614ZM0.656 24.608H12.914V27.524H4.31V29.702H12.644V32.726H4.31V35.048H13.022V38H0.656V24.608ZM24.0301 38H15.7861V28.01H23.6701C25.9561 28.01 27.3961 28.82 27.3961 30.404V30.494C27.3961 31.736 26.6041 32.474 25.3981 32.672C26.6221 32.816 27.7201 33.68 27.7201 35.12V35.192C27.7201 37.01 26.5321 38 24.0301 38ZM19.2961 31.988H22.5181C23.3641 31.988 23.7961 31.664 23.7961 31.034V30.944C23.7961 30.368 23.4001 30.026 22.5181 30.026H19.2961V31.988ZM19.2961 35.984H22.6621C23.5981 35.984 24.1201 35.678 24.1201 34.976V34.832C24.1201 34.202 23.6881 33.806 22.6621 33.806H19.2961V35.984ZM30.165 38V28.01H38.877V30.674H33.675V38H30.165ZM46.5962 30.08C44.7782 30.08 44.0942 30.818 43.9142 31.862H49.2062C49.2062 31.124 48.8462 30.08 46.5962 30.08ZM49.2782 34.886H52.9322C52.9322 35.714 52.2842 38.234 47.1182 38.234H46.4522C41.5202 38.234 40.2962 35.534 40.2962 33.14V32.888C40.2962 30.638 41.4122 27.794 46.1462 27.794H46.9382C52.0502 27.794 52.9682 30.638 52.9682 33.428V33.752H43.8782C44.0222 34.904 44.7602 35.84 46.9022 35.84C48.9362 35.84 49.1882 35.048 49.2782 34.886ZM58.8821 38H55.3721V28.01H58.8821V31.646H63.7781V28.01H67.2881V38H63.7781V34.31H58.8821V38ZM70.208 38V28.01H73.718V30.872H76.454C79.874 30.872 81.206 32.384 81.206 34.292V34.508C81.206 36.596 79.874 38 76.454 38H70.208ZM73.718 35.624H76.022C76.742 35.624 77.606 35.408 77.606 34.436V34.382C77.606 33.482 76.742 33.248 76.022 33.248H73.718V35.624ZM89.2759 30.08C87.4579 30.08 86.7739 30.818 86.5939 31.862H91.8859C91.8859 31.124 91.5259 30.08 89.2759 30.08ZM91.9579 34.886H95.6119C95.6119 35.714 94.9639 38.234 89.7979 38.234H89.1319C84.1999 38.234 82.9759 35.534 82.9759 33.14V32.888C82.9759 30.638 84.0919 27.794 88.8259 27.794H89.6179C94.7299 27.794 95.6479 30.638 95.6479 33.428V33.752H86.5579C86.7019 34.904 87.4399 35.84 89.5819 35.84C91.6159 35.84 91.8679 35.048 91.9579 34.886ZM106.296 38H98.0518V28.01H105.936C108.222 28.01 109.662 28.82 109.662 30.404V30.494C109.662 31.736 108.87 32.474 107.664 32.672C108.888 32.816 109.986 33.68 109.986 35.12V35.192C109.986 37.01 108.798 38 106.296 38ZM101.562 31.988H104.784C105.63 31.988 106.062 31.664 106.062 31.034V30.944C106.062 30.368 105.666 30.026 104.784 30.026H101.562V31.988ZM101.562 35.984H104.928C105.864 35.984 106.386 35.678 106.386 34.976V34.832C106.386 34.202 105.954 33.806 104.928 33.806H101.562V35.984ZM120.855 31.952L116.031 38H112.431V28.01H115.941V34.058L120.765 28.01H124.365V38H120.855V31.952ZM134.7 28.01H138.21V38H134.7V34.562C133.926 34.652 133.026 34.742 132.09 34.742C128.13 34.742 126.636 33.626 126.636 30.458V28.01H130.146V29.81C130.146 31.682 130.776 32.006 132.63 32.006C133.332 32.006 134.142 31.952 134.7 31.88V28.01Z" fill="#C1A875" style="mix-blend-mode:color"/>
<defs>
<linearGradient id="paint0_linear_41_110" x1="-0.999999" y1="30" x2="221" y2="30" gradientUnits="userSpaceOnUse">
<stop stop-color="#576167"/>
<stop offset="0.191294" stop-color="#9EA1A2"/>
<stop offset="0.396166" stop-color="#848989"/>
<stop offset="0.62055" stop-color="#576167"/>
<stop offset="0.830299" stop-color="#757A7C"/>
<stop offset="1" stop-color="#576167"/>
</linearGradient>
<radialGradient id="paint1_radial_41_110" cx="0" cy="0" r="1" gradientUnits="userSpaceOnUse" gradientTransform="translate(117.226 2.39326) rotate(90) scale(53.4944 167.95)">
<stop stop-color="white"/>
<stop offset="1" stop-color="white" stop-opacity="0"/>
</radialGradient>
<radialGradient id="paint2_radial_41_110" cx="0" cy="0" r="1" gradientUnits="userSpaceOnUse" gradientTransform="translate(129.783 82.9888) rotate(-89.7344) scale(76.6525 240.162)">
<stop stop-color="white"/>
<stop offset="1" stop-color="white" stop-opacity="0"/>
</radialGradient>
</defs>
</svg>
