<svg width="197" height="39" viewBox="0 0 197 39" fill="none" xmlns="http://www.w3.org/2000/svg">
<path d="M1.656 14V0.608H15.48V3.56H5.364V5.288H10.998C15.156 5.288 16.452 7.07 16.452 9.518V9.716C16.452 12.164 15.102 14 10.998 14H1.656ZM5.364 11.048H10.71C11.988 11.048 12.6 10.49 12.6 9.68V9.554C12.6 8.762 11.988 8.24 10.71 8.24H5.364V11.048ZM25.0716 14.27H24.5136C19.1316 14.27 18.3036 10.994 18.3036 9.176V8.924C18.3036 7.124 19.1316 3.74 24.4956 3.74H25.0896C30.6336 3.74 31.2816 7.142 31.2816 8.906V9.194C31.2816 10.994 30.6336 14.27 25.0716 14.27ZM24.6936 11.642H24.8916C27.1056 11.642 27.6636 10.058 27.6636 8.96C27.6636 7.826 27.1056 6.314 24.8916 6.314H24.6936C22.3896 6.314 21.9216 7.826 21.9216 8.96C21.9216 10.058 22.3896 11.642 24.6936 11.642ZM46.1703 9.122V9.356C46.1703 13.1 43.3263 14.27 39.9243 14.27H39.5643C36.0543 14.27 33.1923 12.902 33.1923 8.15V7.088C33.1923 2.282 35.5863 0.698 40.2663 0.698H41.0763C42.1923 0.698 42.2643 0.589999 42.3003 0.373999H45.7383C45.7383 2.48 44.9463 3.362 42.4983 3.362H40.2663C37.6743 3.362 36.6843 4.172 36.6303 5.99C37.5483 5.036 38.9523 4.388 41.1663 4.388H41.2743C43.6503 4.388 46.1703 5.594 46.1703 9.122ZM39.6003 11.642H39.7983C41.3823 11.642 42.5523 10.85 42.5523 9.212C42.5523 7.628 41.3643 6.854 39.8163 6.854H39.6003C37.8723 6.854 36.8103 7.592 36.8103 9.23C36.8103 10.886 37.8903 11.642 39.6003 11.642ZM54.849 14.27H54.291C48.909 14.27 48.081 10.994 48.081 9.176V8.924C48.081 7.124 48.909 3.74 54.273 3.74H54.867C60.411 3.74 61.059 7.142 61.059 8.906V9.194C61.059 10.994 60.411 14.27 54.849 14.27ZM54.471 11.642H54.669C56.883 11.642 57.441 10.058 57.441 8.96C57.441 7.826 56.883 6.314 54.669 6.314H54.471C52.167 6.314 51.699 7.826 51.699 8.96C51.699 10.058 52.167 11.642 54.471 11.642ZM71.7176 14H63.4736V4.01H71.3576C73.6436 4.01 75.0836 4.82 75.0836 6.404V6.494C75.0836 7.736 74.2916 8.474 73.0856 8.672C74.3096 8.816 75.4076 9.68 75.4076 11.12V11.192C75.4076 13.01 74.2196 14 71.7176 14ZM66.9836 7.988H70.2056C71.0516 7.988 71.4836 7.664 71.4836 7.034V6.944C71.4836 6.368 71.0876 6.026 70.2056 6.026H66.9836V7.988ZM66.9836 11.984H70.3496C71.2856 11.984 71.8076 11.678 71.8076 10.976V10.832C71.8076 10.202 71.3756 9.806 70.3496 9.806H66.9836V11.984ZM81.3625 14H77.8525V4.01H81.3625V7.646H86.2585V4.01H89.7685V14H86.2585V10.31H81.3625V14ZM101.112 7.952L96.2885 14H92.6885V4.01H96.1985V10.058L101.022 4.01H104.622V14H101.112V7.952ZM114.976 14L111.088 9.374V14H107.578V4.01H111.088V8.006L114.652 4.01H118.702L114.526 8.492L119.152 14H114.976ZM126.41 14.27H125.852C120.47 14.27 119.642 10.994 119.642 9.176V8.924C119.642 7.124 120.47 3.74 125.834 3.74H126.428C131.972 3.74 132.62 7.142 132.62 8.906V9.194C132.62 10.994 131.972 14.27 126.41 14.27ZM126.032 11.642H126.23C128.444 11.642 129.002 10.058 129.002 8.96C129.002 7.826 128.444 6.314 126.23 6.314H126.032C123.728 6.314 123.26 7.826 123.26 8.96C123.26 10.058 123.728 11.642 126.032 11.642ZM143.278 14H135.034V4.01H142.918C145.204 4.01 146.644 4.82 146.644 6.404V6.494C146.644 7.736 145.852 8.474 144.646 8.672C145.87 8.816 146.968 9.68 146.968 11.12V11.192C146.968 13.01 145.78 14 143.278 14ZM138.544 7.988H141.766C142.612 7.988 143.044 7.664 143.044 7.034V6.944C143.044 6.368 142.648 6.026 141.766 6.026H138.544V7.988ZM138.544 11.984H141.91C142.846 11.984 143.368 11.678 143.368 10.976V10.832C143.368 10.202 142.936 9.806 141.91 9.806H138.544V11.984ZM154.041 12.002C156.093 12.002 156.795 10.706 156.795 9.95V9.176C156.489 9.302 155.607 9.482 154.599 9.644C152.907 9.932 152.367 10.166 152.367 10.868V10.904C152.367 11.534 152.817 12.002 154.041 12.002ZM156.903 12.614C156.471 13.136 155.391 14.198 153.051 14.198H152.763C149.973 14.198 148.821 12.686 148.821 11.03V10.958C148.821 9.23 149.919 8.168 153.303 7.88L156.039 7.646C156.597 7.592 156.795 7.412 156.795 6.998C156.795 6.53 156.651 6.026 154.707 6.026C152.871 6.026 152.691 6.746 152.691 7.124H149.091V7.088C149.091 6.098 149.487 3.776 154.401 3.776H154.959C159.909 3.776 160.215 5.81 160.215 7.142V10.436C160.215 11.066 160.341 11.318 161.043 11.318H161.421V14H158.577C157.533 14 157.047 13.262 156.903 12.614ZM10.998 32.762L8.568 27.308L6.21 32.762H10.998ZM13.338 38L12.24 35.516H5.004L3.924 38H0.198L6.138 24.608H11.106L17.316 38H13.338ZM27.1558 38V30.674H23.1958C23.1958 33.356 23.1058 34.85 22.7638 35.768C22.3858 36.776 21.8818 38 19.2358 38H18.1378V35.39H18.3538C18.9838 35.39 19.4518 35.174 19.6498 34.256C19.7938 33.482 19.8478 32.636 19.8478 28.01H30.6658V38H27.1558ZM41.9972 31.952L37.1732 38H33.5732V28.01H37.0832V34.058L41.9072 28.01H45.5072V38H41.9972V31.952ZM56.7788 34.076H60.4508C60.4508 35.588 59.5508 38.27 54.7448 38.27H53.8628C48.8768 38.27 47.9408 35.03 47.9408 33.14V32.888C47.9408 30.998 48.8228 27.74 53.8448 27.74H54.6728C59.4968 27.74 60.4508 30.368 60.4508 31.808V31.826H56.7788C56.7248 31.538 56.3828 30.296 54.3128 30.296H54.1328C52.0628 30.296 51.5768 31.718 51.5768 32.924V32.942C51.5768 34.184 52.1708 35.66 54.2048 35.66H54.3848C56.4727 35.66 56.7788 34.31 56.7788 34.076ZM67.5568 36.002C69.6088 36.002 70.3108 34.706 70.3108 33.95V33.176C70.0048 33.302 69.1228 33.482 68.1148 33.644C66.4228 33.932 65.8828 34.166 65.8828 34.868V34.904C65.8828 35.534 66.3328 36.002 67.5568 36.002ZM70.4188 36.614C69.9868 37.136 68.9068 38.198 66.5668 38.198H66.2788C63.4888 38.198 62.3368 36.686 62.3368 35.03V34.958C62.3368 33.23 63.4348 32.168 66.8188 31.88L69.5548 31.646C70.1128 31.592 70.3108 31.412 70.3108 30.998C70.3108 30.53 70.1668 30.026 68.2228 30.026C66.3868 30.026 66.2068 30.746 66.2068 31.124H62.6068V31.088C62.6068 30.098 63.0028 27.776 67.9168 27.776H68.4748C73.4248 27.776 73.7308 29.81 73.7308 31.142V34.436C73.7308 35.066 73.8568 35.318 74.5588 35.318H74.9368V38H72.0928C71.0488 38 70.5628 37.262 70.4188 36.614ZM89.7916 24.392H90.5836C96.8476 24.392 98.6296 28.064 98.6296 30.998V31.538C98.6296 34.418 96.8476 38.216 90.5836 38.216H89.7916C83.5276 38.216 81.7456 34.418 81.7456 31.538V30.998C81.7456 28.082 83.5276 24.392 89.7916 24.392ZM94.7776 31.394V31.142C94.7776 29.486 93.9676 27.452 90.1876 27.452C86.4436 27.452 85.5976 29.486 85.5976 31.142V31.394C85.5976 33.014 86.4976 35.138 90.1876 35.138C93.9496 35.138 94.7776 33.014 94.7776 31.394ZM108.789 38V30.674H104.829C104.829 33.356 104.739 34.85 104.397 35.768C104.019 36.776 103.515 38 100.869 38H99.7706V35.39H99.9866C100.617 35.39 101.085 35.174 101.283 34.256C101.427 33.482 101.481 32.636 101.481 28.01H112.299V38H108.789ZM121.02 30.08C119.202 30.08 118.518 30.818 118.338 31.862H123.63C123.63 31.124 123.27 30.08 121.02 30.08ZM123.702 34.886H127.356C127.356 35.714 126.708 38.234 121.542 38.234H120.876C115.944 38.234 114.72 35.534 114.72 33.14V32.888C114.72 30.638 115.836 27.794 120.57 27.794H121.362C126.474 27.794 127.392 30.638 127.392 33.428V33.752H118.302C118.446 34.904 119.184 35.84 121.326 35.84C123.36 35.84 123.612 35.048 123.702 34.886ZM129.796 38V28.01H138.508V30.674H133.306V38H129.796ZM146.677 38.27H146.119C140.737 38.27 139.909 34.994 139.909 33.176V32.924C139.909 31.124 140.737 27.74 146.101 27.74H146.695C152.239 27.74 152.887 31.142 152.887 32.906V33.194C152.887 34.994 152.239 38.27 146.677 38.27ZM146.299 35.642H146.497C148.711 35.642 149.269 34.058 149.269 32.96C149.269 31.826 148.711 30.314 146.497 30.314H146.299C143.995 30.314 143.527 31.826 143.527 32.96C143.527 34.058 143.995 35.642 146.299 35.642ZM163.546 38H155.302V28.01H163.186C165.472 28.01 166.912 28.82 166.912 30.404V30.494C166.912 31.736 166.12 32.474 164.914 32.672C166.138 32.816 167.236 33.68 167.236 35.12V35.192C167.236 37.01 166.048 38 163.546 38ZM158.812 31.988H162.034C162.88 31.988 163.312 31.664 163.312 31.034V30.944C163.312 30.368 162.916 30.026 162.034 30.026H158.812V31.988ZM158.812 35.984H162.178C163.114 35.984 163.636 35.678 163.636 34.976V34.832C163.636 34.202 163.204 33.806 162.178 33.806H158.812V35.984ZM173.191 38H169.681V28.01H173.191V31.646H178.087V28.01H181.597V38H178.087V34.31H173.191V38ZM189.233 36.002C191.285 36.002 191.987 34.706 191.987 33.95V33.176C191.681 33.302 190.799 33.482 189.791 33.644C188.099 33.932 187.559 34.166 187.559 34.868V34.904C187.559 35.534 188.009 36.002 189.233 36.002ZM192.095 36.614C191.663 37.136 190.583 38.198 188.243 38.198H187.955C185.165 38.198 184.013 36.686 184.013 35.03V34.958C184.013 33.23 185.111 32.168 188.495 31.88L191.231 31.646C191.789 31.592 191.987 31.412 191.987 30.998C191.987 30.53 191.843 30.026 189.899 30.026C188.063 30.026 187.883 30.746 187.883 31.124H184.283V31.088C184.283 30.098 184.679 27.776 189.593 27.776H190.151C195.101 27.776 195.407 29.81 195.407 31.142V34.436C195.407 35.066 195.533 35.318 196.235 35.318H196.613V38H193.769C192.725 38 192.239 37.262 192.095 36.614Z" fill="url(#paint0_linear_41_74)"/>
<path d="M1.656 14V0.608H15.48V3.56H5.364V5.288H10.998C15.156 5.288 16.452 7.07 16.452 9.518V9.716C16.452 12.164 15.102 14 10.998 14H1.656ZM5.364 11.048H10.71C11.988 11.048 12.6 10.49 12.6 9.68V9.554C12.6 8.762 11.988 8.24 10.71 8.24H5.364V11.048ZM25.0716 14.27H24.5136C19.1316 14.27 18.3036 10.994 18.3036 9.176V8.924C18.3036 7.124 19.1316 3.74 24.4956 3.74H25.0896C30.6336 3.74 31.2816 7.142 31.2816 8.906V9.194C31.2816 10.994 30.6336 14.27 25.0716 14.27ZM24.6936 11.642H24.8916C27.1056 11.642 27.6636 10.058 27.6636 8.96C27.6636 7.826 27.1056 6.314 24.8916 6.314H24.6936C22.3896 6.314 21.9216 7.826 21.9216 8.96C21.9216 10.058 22.3896 11.642 24.6936 11.642ZM46.1703 9.122V9.356C46.1703 13.1 43.3263 14.27 39.9243 14.27H39.5643C36.0543 14.27 33.1923 12.902 33.1923 8.15V7.088C33.1923 2.282 35.5863 0.698 40.2663 0.698H41.0763C42.1923 0.698 42.2643 0.589999 42.3003 0.373999H45.7383C45.7383 2.48 44.9463 3.362 42.4983 3.362H40.2663C37.6743 3.362 36.6843 4.172 36.6303 5.99C37.5483 5.036 38.9523 4.388 41.1663 4.388H41.2743C43.6503 4.388 46.1703 5.594 46.1703 9.122ZM39.6003 11.642H39.7983C41.3823 11.642 42.5523 10.85 42.5523 9.212C42.5523 7.628 41.3643 6.854 39.8163 6.854H39.6003C37.8723 6.854 36.8103 7.592 36.8103 9.23C36.8103 10.886 37.8903 11.642 39.6003 11.642ZM54.849 14.27H54.291C48.909 14.27 48.081 10.994 48.081 9.176V8.924C48.081 7.124 48.909 3.74 54.273 3.74H54.867C60.411 3.74 61.059 7.142 61.059 8.906V9.194C61.059 10.994 60.411 14.27 54.849 14.27ZM54.471 11.642H54.669C56.883 11.642 57.441 10.058 57.441 8.96C57.441 7.826 56.883 6.314 54.669 6.314H54.471C52.167 6.314 51.699 7.826 51.699 8.96C51.699 10.058 52.167 11.642 54.471 11.642ZM71.7176 14H63.4736V4.01H71.3576C73.6436 4.01 75.0836 4.82 75.0836 6.404V6.494C75.0836 7.736 74.2916 8.474 73.0856 8.672C74.3096 8.816 75.4076 9.68 75.4076 11.12V11.192C75.4076 13.01 74.2196 14 71.7176 14ZM66.9836 7.988H70.2056C71.0516 7.988 71.4836 7.664 71.4836 7.034V6.944C71.4836 6.368 71.0876 6.026 70.2056 6.026H66.9836V7.988ZM66.9836 11.984H70.3496C71.2856 11.984 71.8076 11.678 71.8076 10.976V10.832C71.8076 10.202 71.3756 9.806 70.3496 9.806H66.9836V11.984ZM81.3625 14H77.8525V4.01H81.3625V7.646H86.2585V4.01H89.7685V14H86.2585V10.31H81.3625V14ZM101.112 7.952L96.2885 14H92.6885V4.01H96.1985V10.058L101.022 4.01H104.622V14H101.112V7.952ZM114.976 14L111.088 9.374V14H107.578V4.01H111.088V8.006L114.652 4.01H118.702L114.526 8.492L119.152 14H114.976ZM126.41 14.27H125.852C120.47 14.27 119.642 10.994 119.642 9.176V8.924C119.642 7.124 120.47 3.74 125.834 3.74H126.428C131.972 3.74 132.62 7.142 132.62 8.906V9.194C132.62 10.994 131.972 14.27 126.41 14.27ZM126.032 11.642H126.23C128.444 11.642 129.002 10.058 129.002 8.96C129.002 7.826 128.444 6.314 126.23 6.314H126.032C123.728 6.314 123.26 7.826 123.26 8.96C123.26 10.058 123.728 11.642 126.032 11.642ZM143.278 14H135.034V4.01H142.918C145.204 4.01 146.644 4.82 146.644 6.404V6.494C146.644 7.736 145.852 8.474 144.646 8.672C145.87 8.816 146.968 9.68 146.968 11.12V11.192C146.968 13.01 145.78 14 143.278 14ZM138.544 7.988H141.766C142.612 7.988 143.044 7.664 143.044 7.034V6.944C143.044 6.368 142.648 6.026 141.766 6.026H138.544V7.988ZM138.544 11.984H141.91C142.846 11.984 143.368 11.678 143.368 10.976V10.832C143.368 10.202 142.936 9.806 141.91 9.806H138.544V11.984ZM154.041 12.002C156.093 12.002 156.795 10.706 156.795 9.95V9.176C156.489 9.302 155.607 9.482 154.599 9.644C152.907 9.932 152.367 10.166 152.367 10.868V10.904C152.367 11.534 152.817 12.002 154.041 12.002ZM156.903 12.614C156.471 13.136 155.391 14.198 153.051 14.198H152.763C149.973 14.198 148.821 12.686 148.821 11.03V10.958C148.821 9.23 149.919 8.168 153.303 7.88L156.039 7.646C156.597 7.592 156.795 7.412 156.795 6.998C156.795 6.53 156.651 6.026 154.707 6.026C152.871 6.026 152.691 6.746 152.691 7.124H149.091V7.088C149.091 6.098 149.487 3.776 154.401 3.776H154.959C159.909 3.776 160.215 5.81 160.215 7.142V10.436C160.215 11.066 160.341 11.318 161.043 11.318H161.421V14H158.577C157.533 14 157.047 13.262 156.903 12.614ZM10.998 32.762L8.568 27.308L6.21 32.762H10.998ZM13.338 38L12.24 35.516H5.004L3.924 38H0.198L6.138 24.608H11.106L17.316 38H13.338ZM27.1558 38V30.674H23.1958C23.1958 33.356 23.1058 34.85 22.7638 35.768C22.3858 36.776 21.8818 38 19.2358 38H18.1378V35.39H18.3538C18.9838 35.39 19.4518 35.174 19.6498 34.256C19.7938 33.482 19.8478 32.636 19.8478 28.01H30.6658V38H27.1558ZM41.9972 31.952L37.1732 38H33.5732V28.01H37.0832V34.058L41.9072 28.01H45.5072V38H41.9972V31.952ZM56.7788 34.076H60.4508C60.4508 35.588 59.5508 38.27 54.7448 38.27H53.8628C48.8768 38.27 47.9408 35.03 47.9408 33.14V32.888C47.9408 30.998 48.8228 27.74 53.8448 27.74H54.6728C59.4968 27.74 60.4508 30.368 60.4508 31.808V31.826H56.7788C56.7248 31.538 56.3828 30.296 54.3128 30.296H54.1328C52.0628 30.296 51.5768 31.718 51.5768 32.924V32.942C51.5768 34.184 52.1708 35.66 54.2048 35.66H54.3848C56.4727 35.66 56.7788 34.31 56.7788 34.076ZM67.5568 36.002C69.6088 36.002 70.3108 34.706 70.3108 33.95V33.176C70.0048 33.302 69.1228 33.482 68.1148 33.644C66.4228 33.932 65.8828 34.166 65.8828 34.868V34.904C65.8828 35.534 66.3328 36.002 67.5568 36.002ZM70.4188 36.614C69.9868 37.136 68.9068 38.198 66.5668 38.198H66.2788C63.4888 38.198 62.3368 36.686 62.3368 35.03V34.958C62.3368 33.23 63.4348 32.168 66.8188 31.88L69.5548 31.646C70.1128 31.592 70.3108 31.412 70.3108 30.998C70.3108 30.53 70.1668 30.026 68.2228 30.026C66.3868 30.026 66.2068 30.746 66.2068 31.124H62.6068V31.088C62.6068 30.098 63.0028 27.776 67.9168 27.776H68.4748C73.4248 27.776 73.7308 29.81 73.7308 31.142V34.436C73.7308 35.066 73.8568 35.318 74.5588 35.318H74.9368V38H72.0928C71.0488 38 70.5628 37.262 70.4188 36.614ZM89.7916 24.392H90.5836C96.8476 24.392 98.6296 28.064 98.6296 30.998V31.538C98.6296 34.418 96.8476 38.216 90.5836 38.216H89.7916C83.5276 38.216 81.7456 34.418 81.7456 31.538V30.998C81.7456 28.082 83.5276 24.392 89.7916 24.392ZM94.7776 31.394V31.142C94.7776 29.486 93.9676 27.452 90.1876 27.452C86.4436 27.452 85.5976 29.486 85.5976 31.142V31.394C85.5976 33.014 86.4976 35.138 90.1876 35.138C93.9496 35.138 94.7776 33.014 94.7776 31.394ZM108.789 38V30.674H104.829C104.829 33.356 104.739 34.85 104.397 35.768C104.019 36.776 103.515 38 100.869 38H99.7706V35.39H99.9866C100.617 35.39 101.085 35.174 101.283 34.256C101.427 33.482 101.481 32.636 101.481 28.01H112.299V38H108.789ZM121.02 30.08C119.202 30.08 118.518 30.818 118.338 31.862H123.63C123.63 31.124 123.27 30.08 121.02 30.08ZM123.702 34.886H127.356C127.356 35.714 126.708 38.234 121.542 38.234H120.876C115.944 38.234 114.72 35.534 114.72 33.14V32.888C114.72 30.638 115.836 27.794 120.57 27.794H121.362C126.474 27.794 127.392 30.638 127.392 33.428V33.752H118.302C118.446 34.904 119.184 35.84 121.326 35.84C123.36 35.84 123.612 35.048 123.702 34.886ZM129.796 38V28.01H138.508V30.674H133.306V38H129.796ZM146.677 38.27H146.119C140.737 38.27 139.909 34.994 139.909 33.176V32.924C139.909 31.124 140.737 27.74 146.101 27.74H146.695C152.239 27.74 152.887 31.142 152.887 32.906V33.194C152.887 34.994 152.239 38.27 146.677 38.27ZM146.299 35.642H146.497C148.711 35.642 149.269 34.058 149.269 32.96C149.269 31.826 148.711 30.314 146.497 30.314H146.299C143.995 30.314 143.527 31.826 143.527 32.96C143.527 34.058 143.995 35.642 146.299 35.642ZM163.546 38H155.302V28.01H163.186C165.472 28.01 166.912 28.82 166.912 30.404V30.494C166.912 31.736 166.12 32.474 164.914 32.672C166.138 32.816 167.236 33.68 167.236 35.12V35.192C167.236 37.01 166.048 38 163.546 38ZM158.812 31.988H162.034C162.88 31.988 163.312 31.664 163.312 31.034V30.944C163.312 30.368 162.916 30.026 162.034 30.026H158.812V31.988ZM158.812 35.984H162.178C163.114 35.984 163.636 35.678 163.636 34.976V34.832C163.636 34.202 163.204 33.806 162.178 33.806H158.812V35.984ZM173.191 38H169.681V28.01H173.191V31.646H178.087V28.01H181.597V38H178.087V34.31H173.191V38ZM189.233 36.002C191.285 36.002 191.987 34.706 191.987 33.95V33.176C191.681 33.302 190.799 33.482 189.791 33.644C188.099 33.932 187.559 34.166 187.559 34.868V34.904C187.559 35.534 188.009 36.002 189.233 36.002ZM192.095 36.614C191.663 37.136 190.583 38.198 188.243 38.198H187.955C185.165 38.198 184.013 36.686 184.013 35.03V34.958C184.013 33.23 185.111 32.168 188.495 31.88L191.231 31.646C191.789 31.592 191.987 31.412 191.987 30.998C191.987 30.53 191.843 30.026 189.899 30.026C188.063 30.026 187.883 30.746 187.883 31.124H184.283V31.088C184.283 30.098 184.679 27.776 189.593 27.776H190.151C195.101 27.776 195.407 29.81 195.407 31.142V34.436C195.407 35.066 195.533 35.318 196.235 35.318H196.613V38H193.769C192.725 38 192.239 37.262 192.095 36.614Z" fill="url(#paint1_radial_41_74)" style="mix-blend-mode:overlay"/>
<path d="M1.656 14V0.608H15.48V3.56H5.364V5.288H10.998C15.156 5.288 16.452 7.07 16.452 9.518V9.716C16.452 12.164 15.102 14 10.998 14H1.656ZM5.364 11.048H10.71C11.988 11.048 12.6 10.49 12.6 9.68V9.554C12.6 8.762 11.988 8.24 10.71 8.24H5.364V11.048ZM25.0716 14.27H24.5136C19.1316 14.27 18.3036 10.994 18.3036 9.176V8.924C18.3036 7.124 19.1316 3.74 24.4956 3.74H25.0896C30.6336 3.74 31.2816 7.142 31.2816 8.906V9.194C31.2816 10.994 30.6336 14.27 25.0716 14.27ZM24.6936 11.642H24.8916C27.1056 11.642 27.6636 10.058 27.6636 8.96C27.6636 7.826 27.1056 6.314 24.8916 6.314H24.6936C22.3896 6.314 21.9216 7.826 21.9216 8.96C21.9216 10.058 22.3896 11.642 24.6936 11.642ZM46.1703 9.122V9.356C46.1703 13.1 43.3263 14.27 39.9243 14.27H39.5643C36.0543 14.27 33.1923 12.902 33.1923 8.15V7.088C33.1923 2.282 35.5863 0.698 40.2663 0.698H41.0763C42.1923 0.698 42.2643 0.589999 42.3003 0.373999H45.7383C45.7383 2.48 44.9463 3.362 42.4983 3.362H40.2663C37.6743 3.362 36.6843 4.172 36.6303 5.99C37.5483 5.036 38.9523 4.388 41.1663 4.388H41.2743C43.6503 4.388 46.1703 5.594 46.1703 9.122ZM39.6003 11.642H39.7983C41.3823 11.642 42.5523 10.85 42.5523 9.212C42.5523 7.628 41.3643 6.854 39.8163 6.854H39.6003C37.8723 6.854 36.8103 7.592 36.8103 9.23C36.8103 10.886 37.8903 11.642 39.6003 11.642ZM54.849 14.27H54.291C48.909 14.27 48.081 10.994 48.081 9.176V8.924C48.081 7.124 48.909 3.74 54.273 3.74H54.867C60.411 3.74 61.059 7.142 61.059 8.906V9.194C61.059 10.994 60.411 14.27 54.849 14.27ZM54.471 11.642H54.669C56.883 11.642 57.441 10.058 57.441 8.96C57.441 7.826 56.883 6.314 54.669 6.314H54.471C52.167 6.314 51.699 7.826 51.699 8.96C51.699 10.058 52.167 11.642 54.471 11.642ZM71.7176 14H63.4736V4.01H71.3576C73.6436 4.01 75.0836 4.82 75.0836 6.404V6.494C75.0836 7.736 74.2916 8.474 73.0856 8.672C74.3096 8.816 75.4076 9.68 75.4076 11.12V11.192C75.4076 13.01 74.2196 14 71.7176 14ZM66.9836 7.988H70.2056C71.0516 7.988 71.4836 7.664 71.4836 7.034V6.944C71.4836 6.368 71.0876 6.026 70.2056 6.026H66.9836V7.988ZM66.9836 11.984H70.3496C71.2856 11.984 71.8076 11.678 71.8076 10.976V10.832C71.8076 10.202 71.3756 9.806 70.3496 9.806H66.9836V11.984ZM81.3625 14H77.8525V4.01H81.3625V7.646H86.2585V4.01H89.7685V14H86.2585V10.31H81.3625V14ZM101.112 7.952L96.2885 14H92.6885V4.01H96.1985V10.058L101.022 4.01H104.622V14H101.112V7.952ZM114.976 14L111.088 9.374V14H107.578V4.01H111.088V8.006L114.652 4.01H118.702L114.526 8.492L119.152 14H114.976ZM126.41 14.27H125.852C120.47 14.27 119.642 10.994 119.642 9.176V8.924C119.642 7.124 120.47 3.74 125.834 3.74H126.428C131.972 3.74 132.62 7.142 132.62 8.906V9.194C132.62 10.994 131.972 14.27 126.41 14.27ZM126.032 11.642H126.23C128.444 11.642 129.002 10.058 129.002 8.96C129.002 7.826 128.444 6.314 126.23 6.314H126.032C123.728 6.314 123.26 7.826 123.26 8.96C123.26 10.058 123.728 11.642 126.032 11.642ZM143.278 14H135.034V4.01H142.918C145.204 4.01 146.644 4.82 146.644 6.404V6.494C146.644 7.736 145.852 8.474 144.646 8.672C145.87 8.816 146.968 9.68 146.968 11.12V11.192C146.968 13.01 145.78 14 143.278 14ZM138.544 7.988H141.766C142.612 7.988 143.044 7.664 143.044 7.034V6.944C143.044 6.368 142.648 6.026 141.766 6.026H138.544V7.988ZM138.544 11.984H141.91C142.846 11.984 143.368 11.678 143.368 10.976V10.832C143.368 10.202 142.936 9.806 141.91 9.806H138.544V11.984ZM154.041 12.002C156.093 12.002 156.795 10.706 156.795 9.95V9.176C156.489 9.302 155.607 9.482 154.599 9.644C152.907 9.932 152.367 10.166 152.367 10.868V10.904C152.367 11.534 152.817 12.002 154.041 12.002ZM156.903 12.614C156.471 13.136 155.391 14.198 153.051 14.198H152.763C149.973 14.198 148.821 12.686 148.821 11.03V10.958C148.821 9.23 149.919 8.168 153.303 7.88L156.039 7.646C156.597 7.592 156.795 7.412 156.795 6.998C156.795 6.53 156.651 6.026 154.707 6.026C152.871 6.026 152.691 6.746 152.691 7.124H149.091V7.088C149.091 6.098 149.487 3.776 154.401 3.776H154.959C159.909 3.776 160.215 5.81 160.215 7.142V10.436C160.215 11.066 160.341 11.318 161.043 11.318H161.421V14H158.577C157.533 14 157.047 13.262 156.903 12.614ZM10.998 32.762L8.568 27.308L6.21 32.762H10.998ZM13.338 38L12.24 35.516H5.004L3.924 38H0.198L6.138 24.608H11.106L17.316 38H13.338ZM27.1558 38V30.674H23.1958C23.1958 33.356 23.1058 34.85 22.7638 35.768C22.3858 36.776 21.8818 38 19.2358 38H18.1378V35.39H18.3538C18.9838 35.39 19.4518 35.174 19.6498 34.256C19.7938 33.482 19.8478 32.636 19.8478 28.01H30.6658V38H27.1558ZM41.9972 31.952L37.1732 38H33.5732V28.01H37.0832V34.058L41.9072 28.01H45.5072V38H41.9972V31.952ZM56.7788 34.076H60.4508C60.4508 35.588 59.5508 38.27 54.7448 38.27H53.8628C48.8768 38.27 47.9408 35.03 47.9408 33.14V32.888C47.9408 30.998 48.8228 27.74 53.8448 27.74H54.6728C59.4968 27.74 60.4508 30.368 60.4508 31.808V31.826H56.7788C56.7248 31.538 56.3828 30.296 54.3128 30.296H54.1328C52.0628 30.296 51.5768 31.718 51.5768 32.924V32.942C51.5768 34.184 52.1708 35.66 54.2048 35.66H54.3848C56.4727 35.66 56.7788 34.31 56.7788 34.076ZM67.5568 36.002C69.6088 36.002 70.3108 34.706 70.3108 33.95V33.176C70.0048 33.302 69.1228 33.482 68.1148 33.644C66.4228 33.932 65.8828 34.166 65.8828 34.868V34.904C65.8828 35.534 66.3328 36.002 67.5568 36.002ZM70.4188 36.614C69.9868 37.136 68.9068 38.198 66.5668 38.198H66.2788C63.4888 38.198 62.3368 36.686 62.3368 35.03V34.958C62.3368 33.23 63.4348 32.168 66.8188 31.88L69.5548 31.646C70.1128 31.592 70.3108 31.412 70.3108 30.998C70.3108 30.53 70.1668 30.026 68.2228 30.026C66.3868 30.026 66.2068 30.746 66.2068 31.124H62.6068V31.088C62.6068 30.098 63.0028 27.776 67.9168 27.776H68.4748C73.4248 27.776 73.7308 29.81 73.7308 31.142V34.436C73.7308 35.066 73.8568 35.318 74.5588 35.318H74.9368V38H72.0928C71.0488 38 70.5628 37.262 70.4188 36.614ZM89.7916 24.392H90.5836C96.8476 24.392 98.6296 28.064 98.6296 30.998V31.538C98.6296 34.418 96.8476 38.216 90.5836 38.216H89.7916C83.5276 38.216 81.7456 34.418 81.7456 31.538V30.998C81.7456 28.082 83.5276 24.392 89.7916 24.392ZM94.7776 31.394V31.142C94.7776 29.486 93.9676 27.452 90.1876 27.452C86.4436 27.452 85.5976 29.486 85.5976 31.142V31.394C85.5976 33.014 86.4976 35.138 90.1876 35.138C93.9496 35.138 94.7776 33.014 94.7776 31.394ZM108.789 38V30.674H104.829C104.829 33.356 104.739 34.85 104.397 35.768C104.019 36.776 103.515 38 100.869 38H99.7706V35.39H99.9866C100.617 35.39 101.085 35.174 101.283 34.256C101.427 33.482 101.481 32.636 101.481 28.01H112.299V38H108.789ZM121.02 30.08C119.202 30.08 118.518 30.818 118.338 31.862H123.63C123.63 31.124 123.27 30.08 121.02 30.08ZM123.702 34.886H127.356C127.356 35.714 126.708 38.234 121.542 38.234H120.876C115.944 38.234 114.72 35.534 114.72 33.14V32.888C114.72 30.638 115.836 27.794 120.57 27.794H121.362C126.474 27.794 127.392 30.638 127.392 33.428V33.752H118.302C118.446 34.904 119.184 35.84 121.326 35.84C123.36 35.84 123.612 35.048 123.702 34.886ZM129.796 38V28.01H138.508V30.674H133.306V38H129.796ZM146.677 38.27H146.119C140.737 38.27 139.909 34.994 139.909 33.176V32.924C139.909 31.124 140.737 27.74 146.101 27.74H146.695C152.239 27.74 152.887 31.142 152.887 32.906V33.194C152.887 34.994 152.239 38.27 146.677 38.27ZM146.299 35.642H146.497C148.711 35.642 149.269 34.058 149.269 32.96C149.269 31.826 148.711 30.314 146.497 30.314H146.299C143.995 30.314 143.527 31.826 143.527 32.96C143.527 34.058 143.995 35.642 146.299 35.642ZM163.546 38H155.302V28.01H163.186C165.472 28.01 166.912 28.82 166.912 30.404V30.494C166.912 31.736 166.12 32.474 164.914 32.672C166.138 32.816 167.236 33.68 167.236 35.12V35.192C167.236 37.01 166.048 38 163.546 38ZM158.812 31.988H162.034C162.88 31.988 163.312 31.664 163.312 31.034V30.944C163.312 30.368 162.916 30.026 162.034 30.026H158.812V31.988ZM158.812 35.984H162.178C163.114 35.984 163.636 35.678 163.636 34.976V34.832C163.636 34.202 163.204 33.806 162.178 33.806H158.812V35.984ZM173.191 38H169.681V28.01H173.191V31.646H178.087V28.01H181.597V38H178.087V34.31H173.191V38ZM189.233 36.002C191.285 36.002 191.987 34.706 191.987 33.95V33.176C191.681 33.302 190.799 33.482 189.791 33.644C188.099 33.932 187.559 34.166 187.559 34.868V34.904C187.559 35.534 188.009 36.002 189.233 36.002ZM192.095 36.614C191.663 37.136 190.583 38.198 188.243 38.198H187.955C185.165 38.198 184.013 36.686 184.013 35.03V34.958C184.013 33.23 185.111 32.168 188.495 31.88L191.231 31.646C191.789 31.592 191.987 31.412 191.987 30.998C191.987 30.53 191.843 30.026 189.899 30.026C188.063 30.026 187.883 30.746 187.883 31.124H184.283V31.088C184.283 30.098 184.679 27.776 189.593 27.776H190.151C195.101 27.776 195.407 29.81 195.407 31.142V34.436C195.407 35.066 195.533 35.318 196.235 35.318H196.613V38H193.769C192.725 38 192.239 37.262 192.095 36.614Z" fill="url(#paint2_radial_41_74)"/>
<path d="M1.656 14V0.608H15.48V3.56H5.364V5.288H10.998C15.156 5.288 16.452 7.07 16.452 9.518V9.716C16.452 12.164 15.102 14 10.998 14H1.656ZM5.364 11.048H10.71C11.988 11.048 12.6 10.49 12.6 9.68V9.554C12.6 8.762 11.988 8.24 10.71 8.24H5.364V11.048ZM25.0716 14.27H24.5136C19.1316 14.27 18.3036 10.994 18.3036 9.176V8.924C18.3036 7.124 19.1316 3.74 24.4956 3.74H25.0896C30.6336 3.74 31.2816 7.142 31.2816 8.906V9.194C31.2816 10.994 30.6336 14.27 25.0716 14.27ZM24.6936 11.642H24.8916C27.1056 11.642 27.6636 10.058 27.6636 8.96C27.6636 7.826 27.1056 6.314 24.8916 6.314H24.6936C22.3896 6.314 21.9216 7.826 21.9216 8.96C21.9216 10.058 22.3896 11.642 24.6936 11.642ZM46.1703 9.122V9.356C46.1703 13.1 43.3263 14.27 39.9243 14.27H39.5643C36.0543 14.27 33.1923 12.902 33.1923 8.15V7.088C33.1923 2.282 35.5863 0.698 40.2663 0.698H41.0763C42.1923 0.698 42.2643 0.589999 42.3003 0.373999H45.7383C45.7383 2.48 44.9463 3.362 42.4983 3.362H40.2663C37.6743 3.362 36.6843 4.172 36.6303 5.99C37.5483 5.036 38.9523 4.388 41.1663 4.388H41.2743C43.6503 4.388 46.1703 5.594 46.1703 9.122ZM39.6003 11.642H39.7983C41.3823 11.642 42.5523 10.85 42.5523 9.212C42.5523 7.628 41.3643 6.854 39.8163 6.854H39.6003C37.8723 6.854 36.8103 7.592 36.8103 9.23C36.8103 10.886 37.8903 11.642 39.6003 11.642ZM54.849 14.27H54.291C48.909 14.27 48.081 10.994 48.081 9.176V8.924C48.081 7.124 48.909 3.74 54.273 3.74H54.867C60.411 3.74 61.059 7.142 61.059 8.906V9.194C61.059 10.994 60.411 14.27 54.849 14.27ZM54.471 11.642H54.669C56.883 11.642 57.441 10.058 57.441 8.96C57.441 7.826 56.883 6.314 54.669 6.314H54.471C52.167 6.314 51.699 7.826 51.699 8.96C51.699 10.058 52.167 11.642 54.471 11.642ZM71.7176 14H63.4736V4.01H71.3576C73.6436 4.01 75.0836 4.82 75.0836 6.404V6.494C75.0836 7.736 74.2916 8.474 73.0856 8.672C74.3096 8.816 75.4076 9.68 75.4076 11.12V11.192C75.4076 13.01 74.2196 14 71.7176 14ZM66.9836 7.988H70.2056C71.0516 7.988 71.4836 7.664 71.4836 7.034V6.944C71.4836 6.368 71.0876 6.026 70.2056 6.026H66.9836V7.988ZM66.9836 11.984H70.3496C71.2856 11.984 71.8076 11.678 71.8076 10.976V10.832C71.8076 10.202 71.3756 9.806 70.3496 9.806H66.9836V11.984ZM81.3625 14H77.8525V4.01H81.3625V7.646H86.2585V4.01H89.7685V14H86.2585V10.31H81.3625V14ZM101.112 7.952L96.2885 14H92.6885V4.01H96.1985V10.058L101.022 4.01H104.622V14H101.112V7.952ZM114.976 14L111.088 9.374V14H107.578V4.01H111.088V8.006L114.652 4.01H118.702L114.526 8.492L119.152 14H114.976ZM126.41 14.27H125.852C120.47 14.27 119.642 10.994 119.642 9.176V8.924C119.642 7.124 120.47 3.74 125.834 3.74H126.428C131.972 3.74 132.62 7.142 132.62 8.906V9.194C132.62 10.994 131.972 14.27 126.41 14.27ZM126.032 11.642H126.23C128.444 11.642 129.002 10.058 129.002 8.96C129.002 7.826 128.444 6.314 126.23 6.314H126.032C123.728 6.314 123.26 7.826 123.26 8.96C123.26 10.058 123.728 11.642 126.032 11.642ZM143.278 14H135.034V4.01H142.918C145.204 4.01 146.644 4.82 146.644 6.404V6.494C146.644 7.736 145.852 8.474 144.646 8.672C145.87 8.816 146.968 9.68 146.968 11.12V11.192C146.968 13.01 145.78 14 143.278 14ZM138.544 7.988H141.766C142.612 7.988 143.044 7.664 143.044 7.034V6.944C143.044 6.368 142.648 6.026 141.766 6.026H138.544V7.988ZM138.544 11.984H141.91C142.846 11.984 143.368 11.678 143.368 10.976V10.832C143.368 10.202 142.936 9.806 141.91 9.806H138.544V11.984ZM154.041 12.002C156.093 12.002 156.795 10.706 156.795 9.95V9.176C156.489 9.302 155.607 9.482 154.599 9.644C152.907 9.932 152.367 10.166 152.367 10.868V10.904C152.367 11.534 152.817 12.002 154.041 12.002ZM156.903 12.614C156.471 13.136 155.391 14.198 153.051 14.198H152.763C149.973 14.198 148.821 12.686 148.821 11.03V10.958C148.821 9.23 149.919 8.168 153.303 7.88L156.039 7.646C156.597 7.592 156.795 7.412 156.795 6.998C156.795 6.53 156.651 6.026 154.707 6.026C152.871 6.026 152.691 6.746 152.691 7.124H149.091V7.088C149.091 6.098 149.487 3.776 154.401 3.776H154.959C159.909 3.776 160.215 5.81 160.215 7.142V10.436C160.215 11.066 160.341 11.318 161.043 11.318H161.421V14H158.577C157.533 14 157.047 13.262 156.903 12.614ZM10.998 32.762L8.568 27.308L6.21 32.762H10.998ZM13.338 38L12.24 35.516H5.004L3.924 38H0.198L6.138 24.608H11.106L17.316 38H13.338ZM27.1558 38V30.674H23.1958C23.1958 33.356 23.1058 34.85 22.7638 35.768C22.3858 36.776 21.8818 38 19.2358 38H18.1378V35.39H18.3538C18.9838 35.39 19.4518 35.174 19.6498 34.256C19.7938 33.482 19.8478 32.636 19.8478 28.01H30.6658V38H27.1558ZM41.9972 31.952L37.1732 38H33.5732V28.01H37.0832V34.058L41.9072 28.01H45.5072V38H41.9972V31.952ZM56.7788 34.076H60.4508C60.4508 35.588 59.5508 38.27 54.7448 38.27H53.8628C48.8768 38.27 47.9408 35.03 47.9408 33.14V32.888C47.9408 30.998 48.8228 27.74 53.8448 27.74H54.6728C59.4968 27.74 60.4508 30.368 60.4508 31.808V31.826H56.7788C56.7248 31.538 56.3828 30.296 54.3128 30.296H54.1328C52.0628 30.296 51.5768 31.718 51.5768 32.924V32.942C51.5768 34.184 52.1708 35.66 54.2048 35.66H54.3848C56.4727 35.66 56.7788 34.31 56.7788 34.076ZM67.5568 36.002C69.6088 36.002 70.3108 34.706 70.3108 33.95V33.176C70.0048 33.302 69.1228 33.482 68.1148 33.644C66.4228 33.932 65.8828 34.166 65.8828 34.868V34.904C65.8828 35.534 66.3328 36.002 67.5568 36.002ZM70.4188 36.614C69.9868 37.136 68.9068 38.198 66.5668 38.198H66.2788C63.4888 38.198 62.3368 36.686 62.3368 35.03V34.958C62.3368 33.23 63.4348 32.168 66.8188 31.88L69.5548 31.646C70.1128 31.592 70.3108 31.412 70.3108 30.998C70.3108 30.53 70.1668 30.026 68.2228 30.026C66.3868 30.026 66.2068 30.746 66.2068 31.124H62.6068V31.088C62.6068 30.098 63.0028 27.776 67.9168 27.776H68.4748C73.4248 27.776 73.7308 29.81 73.7308 31.142V34.436C73.7308 35.066 73.8568 35.318 74.5588 35.318H74.9368V38H72.0928C71.0488 38 70.5628 37.262 70.4188 36.614ZM89.7916 24.392H90.5836C96.8476 24.392 98.6296 28.064 98.6296 30.998V31.538C98.6296 34.418 96.8476 38.216 90.5836 38.216H89.7916C83.5276 38.216 81.7456 34.418 81.7456 31.538V30.998C81.7456 28.082 83.5276 24.392 89.7916 24.392ZM94.7776 31.394V31.142C94.7776 29.486 93.9676 27.452 90.1876 27.452C86.4436 27.452 85.5976 29.486 85.5976 31.142V31.394C85.5976 33.014 86.4976 35.138 90.1876 35.138C93.9496 35.138 94.7776 33.014 94.7776 31.394ZM108.789 38V30.674H104.829C104.829 33.356 104.739 34.85 104.397 35.768C104.019 36.776 103.515 38 100.869 38H99.7706V35.39H99.9866C100.617 35.39 101.085 35.174 101.283 34.256C101.427 33.482 101.481 32.636 101.481 28.01H112.299V38H108.789ZM121.02 30.08C119.202 30.08 118.518 30.818 118.338 31.862H123.63C123.63 31.124 123.27 30.08 121.02 30.08ZM123.702 34.886H127.356C127.356 35.714 126.708 38.234 121.542 38.234H120.876C115.944 38.234 114.72 35.534 114.72 33.14V32.888C114.72 30.638 115.836 27.794 120.57 27.794H121.362C126.474 27.794 127.392 30.638 127.392 33.428V33.752H118.302C118.446 34.904 119.184 35.84 121.326 35.84C123.36 35.84 123.612 35.048 123.702 34.886ZM129.796 38V28.01H138.508V30.674H133.306V38H129.796ZM146.677 38.27H146.119C140.737 38.27 139.909 34.994 139.909 33.176V32.924C139.909 31.124 140.737 27.74 146.101 27.74H146.695C152.239 27.74 152.887 31.142 152.887 32.906V33.194C152.887 34.994 152.239 38.27 146.677 38.27ZM146.299 35.642H146.497C148.711 35.642 149.269 34.058 149.269 32.96C149.269 31.826 148.711 30.314 146.497 30.314H146.299C143.995 30.314 143.527 31.826 143.527 32.96C143.527 34.058 143.995 35.642 146.299 35.642ZM163.546 38H155.302V28.01H163.186C165.472 28.01 166.912 28.82 166.912 30.404V30.494C166.912 31.736 166.12 32.474 164.914 32.672C166.138 32.816 167.236 33.68 167.236 35.12V35.192C167.236 37.01 166.048 38 163.546 38ZM158.812 31.988H162.034C162.88 31.988 163.312 31.664 163.312 31.034V30.944C163.312 30.368 162.916 30.026 162.034 30.026H158.812V31.988ZM158.812 35.984H162.178C163.114 35.984 163.636 35.678 163.636 34.976V34.832C163.636 34.202 163.204 33.806 162.178 33.806H158.812V35.984ZM173.191 38H169.681V28.01H173.191V31.646H178.087V28.01H181.597V38H178.087V34.31H173.191V38ZM189.233 36.002C191.285 36.002 191.987 34.706 191.987 33.95V33.176C191.681 33.302 190.799 33.482 189.791 33.644C188.099 33.932 187.559 34.166 187.559 34.868V34.904C187.559 35.534 188.009 36.002 189.233 36.002ZM192.095 36.614C191.663 37.136 190.583 38.198 188.243 38.198H187.955C185.165 38.198 184.013 36.686 184.013 35.03V34.958C184.013 33.23 185.111 32.168 188.495 31.88L191.231 31.646C191.789 31.592 191.987 31.412 191.987 30.998C191.987 30.53 191.843 30.026 189.899 30.026C188.063 30.026 187.883 30.746 187.883 31.124H184.283V31.088C184.283 30.098 184.679 27.776 189.593 27.776H190.151C195.101 27.776 195.407 29.81 195.407 31.142V34.436C195.407 35.066 195.533 35.318 196.235 35.318H196.613V38H193.769C192.725 38 192.239 37.262 192.095 36.614Z" fill="#C1A875" style="mix-blend-mode:color"/>
<defs>
<linearGradient id="paint0_linear_41_74" x1="8.27014e-07" y1="30" x2="222" y2="30" gradientUnits="userSpaceOnUse">
<stop stop-color="#576167"/>
<stop offset="0.191294" stop-color="#9EA1A2"/>
<stop offset="0.396166" stop-color="#848989"/>
<stop offset="0.62055" stop-color="#576167"/>
<stop offset="0.830299" stop-color="#757A7C"/>
<stop offset="1" stop-color="#576167"/>
</linearGradient>
<radialGradient id="paint1_radial_41_74" cx="0" cy="0" r="1" gradientUnits="userSpaceOnUse" gradientTransform="translate(118.226 2.39326) rotate(90) scale(53.4944 167.95)">
<stop stop-color="white"/>
<stop offset="1" stop-color="white" stop-opacity="0"/>
</radialGradient>
<radialGradient id="paint2_radial_41_74" cx="0" cy="0" r="1" gradientUnits="userSpaceOnUse" gradientTransform="translate(130.783 82.9888) rotate(-89.7344) scale(76.6525 240.162)">
<stop stop-color="white"/>
<stop offset="1" stop-color="white" stop-opacity="0"/>
</radialGradient>
</defs>
</svg>
