<svg width="205" height="39" viewBox="0 0 205 39" fill="none" xmlns="http://www.w3.org/2000/svg">
<path d="M12.24 14V3.56H6.48C6.48 7.214 6.318 10.004 5.832 11.462C5.4 12.74 4.626 14 1.962 14H0.63V10.85H0.756C1.854 10.85 2.304 10.346 2.52 9.788C2.88 8.852 2.97 7.574 2.97 0.608H15.948V14H12.24ZM24.8677 6.08C23.0497 6.08 22.3657 6.818 22.1857 7.862H27.4777C27.4777 7.124 27.1177 6.08 24.8677 6.08ZM27.5497 10.886H31.2037C31.2037 11.714 30.5557 14.234 25.3897 14.234H24.7237C19.7917 14.234 18.5677 11.534 18.5677 9.14V8.888C18.5677 6.638 19.6837 3.794 24.4177 3.794H25.2097C30.3217 3.794 31.2397 6.638 31.2397 9.428V9.752H22.1497C22.2937 10.904 23.0317 11.84 25.1737 11.84C27.2077 11.84 27.4597 11.048 27.5497 10.886ZM46.1175 9.122V9.356C46.1175 13.1 43.2735 14.27 39.8715 14.27H39.5115C36.0015 14.27 33.1395 12.902 33.1395 8.15V7.088C33.1395 2.282 35.5335 0.698 40.2135 0.698H41.0235C42.1395 0.698 42.2115 0.589999 42.2475 0.373999H45.6855C45.6855 2.48 44.8935 3.362 42.4455 3.362H40.2135C37.6215 3.362 36.6315 4.172 36.5775 5.99C37.4955 5.036 38.8995 4.388 41.1135 4.388H41.2215C43.5975 4.388 46.1175 5.594 46.1175 9.122ZM39.5475 11.642H39.7455C41.3295 11.642 42.4995 10.85 42.4995 9.212C42.4995 7.628 41.3115 6.854 39.7635 6.854H39.5475C37.8195 6.854 36.7575 7.592 36.7575 9.23C36.7575 10.886 37.8375 11.642 39.5475 11.642ZM54.3462 6.08C52.5282 6.08 51.8442 6.818 51.6642 7.862H56.9562C56.9562 7.124 56.5962 6.08 54.3462 6.08ZM57.0282 10.886H60.6822C60.6822 11.714 60.0342 14.234 54.8682 14.234H54.2022C49.2702 14.234 48.0462 11.534 48.0462 9.14V8.888C48.0462 6.638 49.1622 3.794 53.8962 3.794H54.6882C59.8002 3.794 60.7182 6.638 60.7182 9.428V9.752H51.6282C51.7722 10.904 52.5102 11.84 54.6522 11.84C56.6862 11.84 56.9382 11.048 57.0282 10.886ZM62.1183 16.124V11.336H63.3243C64.0083 9.968 64.1163 6.998 64.2063 4.01H74.7723V11.336H76.5723V16.124H73.2423V14H65.4483V16.124H62.1183ZM66.6363 11.336H71.2623V6.674H67.3563C67.3023 7.97 67.1223 9.95 66.6363 11.336ZM84.2993 6.08C82.4813 6.08 81.7973 6.818 81.6173 7.862H86.9093C86.9093 7.124 86.5493 6.08 84.2993 6.08ZM86.9813 10.886H90.6353C90.6353 11.714 89.9873 14.234 84.8213 14.234H84.1553C79.2233 14.234 77.9993 11.534 77.9993 9.14V8.888C77.9993 6.638 79.1153 3.794 83.8493 3.794H84.6413C89.7533 3.794 90.6713 6.638 90.6713 9.428V9.752H81.5813C81.7253 10.904 82.4633 11.84 84.6053 11.84C86.6393 11.84 86.8913 11.048 86.9813 10.886ZM101.319 14H93.0752V4.01H100.959C103.245 4.01 104.685 4.82 104.685 6.404V6.494C104.685 7.736 103.893 8.474 102.687 8.672C103.911 8.816 105.009 9.68 105.009 11.12V11.192C105.009 13.01 103.821 14 101.319 14ZM96.5852 7.988H99.8072C100.653 7.988 101.085 7.664 101.085 7.034V6.944C101.085 6.368 100.689 6.026 99.8072 6.026H96.5852V7.988ZM96.5852 11.984H99.9512C100.887 11.984 101.409 11.678 101.409 10.976V10.832C101.409 10.202 100.977 9.806 99.9512 9.806H96.5852V11.984ZM112.082 12.002C114.134 12.002 114.836 10.706 114.836 9.95V9.176C114.53 9.302 113.648 9.482 112.64 9.644C110.948 9.932 110.408 10.166 110.408 10.868V10.904C110.408 11.534 110.858 12.002 112.082 12.002ZM114.944 12.614C114.512 13.136 113.432 14.198 111.092 14.198H110.804C108.014 14.198 106.862 12.686 106.862 11.03V10.958C106.862 9.23 107.96 8.168 111.344 7.88L114.08 7.646C114.638 7.592 114.836 7.412 114.836 6.998C114.836 6.53 114.692 6.026 112.748 6.026C110.912 6.026 110.732 6.746 110.732 7.124H107.132V7.088C107.132 6.098 107.528 3.776 112.442 3.776H113C117.95 3.776 118.256 5.81 118.256 7.142V10.436C118.256 11.066 118.382 11.318 119.084 11.318H119.462V14H116.618C115.574 14 115.088 13.262 114.944 12.614ZM126.865 14V0.608H131.797L136.063 9.68L140.455 0.608H145.081V14H141.463V5.234L137.395 14H134.497L130.429 5.234V14H126.865ZM152.916 12.002C154.968 12.002 155.67 10.706 155.67 9.95V9.176C155.364 9.302 154.482 9.482 153.474 9.644C151.782 9.932 151.242 10.166 151.242 10.868V10.904C151.242 11.534 151.692 12.002 152.916 12.002ZM155.778 12.614C155.346 13.136 154.266 14.198 151.926 14.198H151.638C148.848 14.198 147.696 12.686 147.696 11.03V10.958C147.696 9.23 148.794 8.168 152.178 7.88L154.914 7.646C155.472 7.592 155.67 7.412 155.67 6.998C155.67 6.53 155.526 6.026 153.582 6.026C151.746 6.026 151.566 6.746 151.566 7.124H147.966V7.088C147.966 6.098 148.362 3.776 153.276 3.776H153.834C158.784 3.776 159.09 5.81 159.09 7.142V10.436C159.09 11.066 159.216 11.318 159.918 11.318H160.296V14H157.452C156.408 14 155.922 13.262 155.778 12.614ZM171.478 9.014V8.96C171.478 7.88 170.974 6.422 168.778 6.422H168.598C166.492 6.422 165.826 7.808 165.826 8.96V9.014C165.826 10.112 166.492 11.552 168.598 11.552H168.778C170.974 11.552 171.478 10.04 171.478 9.014ZM162.334 17.438V4.01H165.808V5.288C166.24 4.82 167.554 3.812 169.822 3.812H170.056C173.872 3.812 175.114 6.422 175.114 8.798V9.104C175.114 11.282 173.836 14.198 170.038 14.198H169.786C167.5 14.198 166.276 13.154 165.844 12.722V17.438H162.334ZM185.98 7.952L181.156 14H177.556V4.01H181.066V10.058L185.89 4.01H189.49V14H185.98V7.952ZM200.815 10.652H198.457L195.541 14H191.581L194.839 10.274C193.111 9.932 192.121 8.942 192.121 7.43V7.214C192.121 5.396 193.597 4.01 196.099 4.01H204.325V14H200.815V10.652ZM200.815 6.314H197.053C196.279 6.314 195.631 6.494 195.631 7.286V7.358C195.631 8.132 196.297 8.366 197.071 8.366H200.815V6.314ZM1.656 38V24.608H11.43C15.264 24.608 16.218 26.282 16.218 27.776V27.974C16.218 29.666 14.76 30.476 13.752 30.62C15.264 30.872 16.884 31.772 16.884 33.932V34.13C16.884 35.948 15.786 38 11.484 38H1.656ZM10.89 27.398H5.364V29.792H10.89C12.024 29.792 12.348 29.252 12.348 28.622V28.586C12.348 27.938 11.988 27.398 10.89 27.398ZM11.178 32.42H5.364V35.066H11.178C12.474 35.066 12.852 34.382 12.852 33.716V33.644C12.852 32.978 12.474 32.42 11.178 32.42ZM23.9982 36.002C26.0502 36.002 26.7522 34.706 26.7522 33.95V33.176C26.4462 33.302 25.5642 33.482 24.5562 33.644C22.8642 33.932 22.3242 34.166 22.3242 34.868V34.904C22.3242 35.534 22.7742 36.002 23.9982 36.002ZM26.8602 36.614C26.4282 37.136 25.3482 38.198 23.0082 38.198H22.7202C19.9302 38.198 18.7782 36.686 18.7782 35.03V34.958C18.7782 33.23 19.8762 32.168 23.2602 31.88L25.9962 31.646C26.5542 31.592 26.7522 31.412 26.7522 30.998C26.7522 30.53 26.6082 30.026 24.6642 30.026C22.8282 30.026 22.6482 30.746 22.6482 31.124H19.0482V31.088C19.0482 30.098 19.4442 27.776 24.3582 27.776H24.9162C29.8662 27.776 30.1722 29.81 30.1722 31.142V34.436C30.1722 35.066 30.2982 35.318 31.0002 35.318H31.3782V38H28.5342C27.4902 38 27.0042 37.262 26.8602 36.614ZM41.7319 34.076H45.4039C45.4039 35.588 44.5039 38.27 39.6979 38.27H38.8159C33.8299 38.27 32.8939 35.03 32.8939 33.14V32.888C32.8939 30.998 33.7759 27.74 38.7979 27.74H39.6259C44.4499 27.74 45.4039 30.368 45.4039 31.808V31.826H41.7319C41.6779 31.538 41.3359 30.296 39.2659 30.296H39.0859C37.0159 30.296 36.5299 31.718 36.5299 32.924V32.942C36.5299 34.184 37.1239 35.66 39.1579 35.66H39.3379C41.4259 35.66 41.7319 34.31 41.7319 34.076ZM56.2179 31.952L51.3939 38H47.7939V28.01H51.3039V34.058L56.1279 28.01H59.7279V38H56.2179V31.952ZM70.8375 38V30.674H66.8775C66.8775 33.356 66.7875 34.85 66.4455 35.768C66.0675 36.776 65.5635 38 62.9175 38H61.8195V35.39H62.0355C62.6655 35.39 63.1335 35.174 63.3315 34.256C63.4755 33.482 63.5295 32.636 63.5295 28.01H74.3475V38H70.8375ZM77.2549 38V28.01H80.7649V30.872H83.5009C86.9209 30.872 88.2529 32.384 88.2529 34.292V34.508C88.2529 36.596 86.9209 38 83.5009 38H77.2549ZM80.7649 35.624H83.0689C83.7889 35.624 84.6529 35.408 84.6529 34.436V34.382C84.6529 33.482 83.7889 33.248 83.0689 33.248H80.7649V35.624ZM96.3228 30.08C94.5048 30.08 93.8208 30.818 93.6408 31.862H98.9328C98.9328 31.124 98.5728 30.08 96.3228 30.08ZM99.0048 34.886H102.659C102.659 35.714 102.011 38.234 96.8448 38.234H96.1788C91.2468 38.234 90.0228 35.534 90.0228 33.14V32.888C90.0228 30.638 91.1388 27.794 95.8728 27.794H96.6648C101.777 27.794 102.695 30.638 102.695 33.428V33.752H93.6048C93.7488 34.904 94.4868 35.84 96.6288 35.84C98.6628 35.84 98.9148 35.048 99.0048 34.886ZM113.343 38H105.099V28.01H112.983C115.269 28.01 116.709 28.82 116.709 30.404V30.494C116.709 31.736 115.917 32.474 114.711 32.672C115.935 32.816 117.033 33.68 117.033 35.12V35.192C117.033 37.01 115.845 38 113.343 38ZM108.609 31.988H111.831C112.677 31.988 113.109 31.664 113.109 31.034V30.944C113.109 30.368 112.713 30.026 111.831 30.026H108.609V31.988ZM108.609 35.984H111.975C112.911 35.984 113.433 35.678 113.433 34.976V34.832C113.433 34.202 113.001 33.806 111.975 33.806H108.609V35.984ZM122.988 38H119.478V28.01H122.988V31.646H127.884V28.01H131.394V38H127.884V34.31H122.988V38ZM139.029 36.002C141.081 36.002 141.783 34.706 141.783 33.95V33.176C141.477 33.302 140.595 33.482 139.587 33.644C137.895 33.932 137.355 34.166 137.355 34.868V34.904C137.355 35.534 137.805 36.002 139.029 36.002ZM141.891 36.614C141.459 37.136 140.379 38.198 138.039 38.198H137.751C134.961 38.198 133.809 36.686 133.809 35.03V34.958C133.809 33.23 134.907 32.168 138.291 31.88L141.027 31.646C141.585 31.592 141.783 31.412 141.783 30.998C141.783 30.53 141.639 30.026 139.695 30.026C137.859 30.026 137.679 30.746 137.679 31.124H134.079V31.088C134.079 30.098 134.475 27.776 139.389 27.776H139.947C144.897 27.776 145.203 29.81 145.203 31.142V34.436C145.203 35.066 145.329 35.318 146.031 35.318H146.409V38H143.565C142.521 38 142.035 37.262 141.891 36.614Z" fill="url(#paint0_linear_41_38)"/>
<path d="M12.24 14V3.56H6.48C6.48 7.214 6.318 10.004 5.832 11.462C5.4 12.74 4.626 14 1.962 14H0.63V10.85H0.756C1.854 10.85 2.304 10.346 2.52 9.788C2.88 8.852 2.97 7.574 2.97 0.608H15.948V14H12.24ZM24.8677 6.08C23.0497 6.08 22.3657 6.818 22.1857 7.862H27.4777C27.4777 7.124 27.1177 6.08 24.8677 6.08ZM27.5497 10.886H31.2037C31.2037 11.714 30.5557 14.234 25.3897 14.234H24.7237C19.7917 14.234 18.5677 11.534 18.5677 9.14V8.888C18.5677 6.638 19.6837 3.794 24.4177 3.794H25.2097C30.3217 3.794 31.2397 6.638 31.2397 9.428V9.752H22.1497C22.2937 10.904 23.0317 11.84 25.1737 11.84C27.2077 11.84 27.4597 11.048 27.5497 10.886ZM46.1175 9.122V9.356C46.1175 13.1 43.2735 14.27 39.8715 14.27H39.5115C36.0015 14.27 33.1395 12.902 33.1395 8.15V7.088C33.1395 2.282 35.5335 0.698 40.2135 0.698H41.0235C42.1395 0.698 42.2115 0.589999 42.2475 0.373999H45.6855C45.6855 2.48 44.8935 3.362 42.4455 3.362H40.2135C37.6215 3.362 36.6315 4.172 36.5775 5.99C37.4955 5.036 38.8995 4.388 41.1135 4.388H41.2215C43.5975 4.388 46.1175 5.594 46.1175 9.122ZM39.5475 11.642H39.7455C41.3295 11.642 42.4995 10.85 42.4995 9.212C42.4995 7.628 41.3115 6.854 39.7635 6.854H39.5475C37.8195 6.854 36.7575 7.592 36.7575 9.23C36.7575 10.886 37.8375 11.642 39.5475 11.642ZM54.3462 6.08C52.5282 6.08 51.8442 6.818 51.6642 7.862H56.9562C56.9562 7.124 56.5962 6.08 54.3462 6.08ZM57.0282 10.886H60.6822C60.6822 11.714 60.0342 14.234 54.8682 14.234H54.2022C49.2702 14.234 48.0462 11.534 48.0462 9.14V8.888C48.0462 6.638 49.1622 3.794 53.8962 3.794H54.6882C59.8002 3.794 60.7182 6.638 60.7182 9.428V9.752H51.6282C51.7722 10.904 52.5102 11.84 54.6522 11.84C56.6862 11.84 56.9382 11.048 57.0282 10.886ZM62.1183 16.124V11.336H63.3243C64.0083 9.968 64.1163 6.998 64.2063 4.01H74.7723V11.336H76.5723V16.124H73.2423V14H65.4483V16.124H62.1183ZM66.6363 11.336H71.2623V6.674H67.3563C67.3023 7.97 67.1223 9.95 66.6363 11.336ZM84.2993 6.08C82.4813 6.08 81.7973 6.818 81.6173 7.862H86.9093C86.9093 7.124 86.5493 6.08 84.2993 6.08ZM86.9813 10.886H90.6353C90.6353 11.714 89.9873 14.234 84.8213 14.234H84.1553C79.2233 14.234 77.9993 11.534 77.9993 9.14V8.888C77.9993 6.638 79.1153 3.794 83.8493 3.794H84.6413C89.7533 3.794 90.6713 6.638 90.6713 9.428V9.752H81.5813C81.7253 10.904 82.4633 11.84 84.6053 11.84C86.6393 11.84 86.8913 11.048 86.9813 10.886ZM101.319 14H93.0752V4.01H100.959C103.245 4.01 104.685 4.82 104.685 6.404V6.494C104.685 7.736 103.893 8.474 102.687 8.672C103.911 8.816 105.009 9.68 105.009 11.12V11.192C105.009 13.01 103.821 14 101.319 14ZM96.5852 7.988H99.8072C100.653 7.988 101.085 7.664 101.085 7.034V6.944C101.085 6.368 100.689 6.026 99.8072 6.026H96.5852V7.988ZM96.5852 11.984H99.9512C100.887 11.984 101.409 11.678 101.409 10.976V10.832C101.409 10.202 100.977 9.806 99.9512 9.806H96.5852V11.984ZM112.082 12.002C114.134 12.002 114.836 10.706 114.836 9.95V9.176C114.53 9.302 113.648 9.482 112.64 9.644C110.948 9.932 110.408 10.166 110.408 10.868V10.904C110.408 11.534 110.858 12.002 112.082 12.002ZM114.944 12.614C114.512 13.136 113.432 14.198 111.092 14.198H110.804C108.014 14.198 106.862 12.686 106.862 11.03V10.958C106.862 9.23 107.96 8.168 111.344 7.88L114.08 7.646C114.638 7.592 114.836 7.412 114.836 6.998C114.836 6.53 114.692 6.026 112.748 6.026C110.912 6.026 110.732 6.746 110.732 7.124H107.132V7.088C107.132 6.098 107.528 3.776 112.442 3.776H113C117.95 3.776 118.256 5.81 118.256 7.142V10.436C118.256 11.066 118.382 11.318 119.084 11.318H119.462V14H116.618C115.574 14 115.088 13.262 114.944 12.614ZM126.865 14V0.608H131.797L136.063 9.68L140.455 0.608H145.081V14H141.463V5.234L137.395 14H134.497L130.429 5.234V14H126.865ZM152.916 12.002C154.968 12.002 155.67 10.706 155.67 9.95V9.176C155.364 9.302 154.482 9.482 153.474 9.644C151.782 9.932 151.242 10.166 151.242 10.868V10.904C151.242 11.534 151.692 12.002 152.916 12.002ZM155.778 12.614C155.346 13.136 154.266 14.198 151.926 14.198H151.638C148.848 14.198 147.696 12.686 147.696 11.03V10.958C147.696 9.23 148.794 8.168 152.178 7.88L154.914 7.646C155.472 7.592 155.67 7.412 155.67 6.998C155.67 6.53 155.526 6.026 153.582 6.026C151.746 6.026 151.566 6.746 151.566 7.124H147.966V7.088C147.966 6.098 148.362 3.776 153.276 3.776H153.834C158.784 3.776 159.09 5.81 159.09 7.142V10.436C159.09 11.066 159.216 11.318 159.918 11.318H160.296V14H157.452C156.408 14 155.922 13.262 155.778 12.614ZM171.478 9.014V8.96C171.478 7.88 170.974 6.422 168.778 6.422H168.598C166.492 6.422 165.826 7.808 165.826 8.96V9.014C165.826 10.112 166.492 11.552 168.598 11.552H168.778C170.974 11.552 171.478 10.04 171.478 9.014ZM162.334 17.438V4.01H165.808V5.288C166.24 4.82 167.554 3.812 169.822 3.812H170.056C173.872 3.812 175.114 6.422 175.114 8.798V9.104C175.114 11.282 173.836 14.198 170.038 14.198H169.786C167.5 14.198 166.276 13.154 165.844 12.722V17.438H162.334ZM185.98 7.952L181.156 14H177.556V4.01H181.066V10.058L185.89 4.01H189.49V14H185.98V7.952ZM200.815 10.652H198.457L195.541 14H191.581L194.839 10.274C193.111 9.932 192.121 8.942 192.121 7.43V7.214C192.121 5.396 193.597 4.01 196.099 4.01H204.325V14H200.815V10.652ZM200.815 6.314H197.053C196.279 6.314 195.631 6.494 195.631 7.286V7.358C195.631 8.132 196.297 8.366 197.071 8.366H200.815V6.314ZM1.656 38V24.608H11.43C15.264 24.608 16.218 26.282 16.218 27.776V27.974C16.218 29.666 14.76 30.476 13.752 30.62C15.264 30.872 16.884 31.772 16.884 33.932V34.13C16.884 35.948 15.786 38 11.484 38H1.656ZM10.89 27.398H5.364V29.792H10.89C12.024 29.792 12.348 29.252 12.348 28.622V28.586C12.348 27.938 11.988 27.398 10.89 27.398ZM11.178 32.42H5.364V35.066H11.178C12.474 35.066 12.852 34.382 12.852 33.716V33.644C12.852 32.978 12.474 32.42 11.178 32.42ZM23.9982 36.002C26.0502 36.002 26.7522 34.706 26.7522 33.95V33.176C26.4462 33.302 25.5642 33.482 24.5562 33.644C22.8642 33.932 22.3242 34.166 22.3242 34.868V34.904C22.3242 35.534 22.7742 36.002 23.9982 36.002ZM26.8602 36.614C26.4282 37.136 25.3482 38.198 23.0082 38.198H22.7202C19.9302 38.198 18.7782 36.686 18.7782 35.03V34.958C18.7782 33.23 19.8762 32.168 23.2602 31.88L25.9962 31.646C26.5542 31.592 26.7522 31.412 26.7522 30.998C26.7522 30.53 26.6082 30.026 24.6642 30.026C22.8282 30.026 22.6482 30.746 22.6482 31.124H19.0482V31.088C19.0482 30.098 19.4442 27.776 24.3582 27.776H24.9162C29.8662 27.776 30.1722 29.81 30.1722 31.142V34.436C30.1722 35.066 30.2982 35.318 31.0002 35.318H31.3782V38H28.5342C27.4902 38 27.0042 37.262 26.8602 36.614ZM41.7319 34.076H45.4039C45.4039 35.588 44.5039 38.27 39.6979 38.27H38.8159C33.8299 38.27 32.8939 35.03 32.8939 33.14V32.888C32.8939 30.998 33.7759 27.74 38.7979 27.74H39.6259C44.4499 27.74 45.4039 30.368 45.4039 31.808V31.826H41.7319C41.6779 31.538 41.3359 30.296 39.2659 30.296H39.0859C37.0159 30.296 36.5299 31.718 36.5299 32.924V32.942C36.5299 34.184 37.1239 35.66 39.1579 35.66H39.3379C41.4259 35.66 41.7319 34.31 41.7319 34.076ZM56.2179 31.952L51.3939 38H47.7939V28.01H51.3039V34.058L56.1279 28.01H59.7279V38H56.2179V31.952ZM70.8375 38V30.674H66.8775C66.8775 33.356 66.7875 34.85 66.4455 35.768C66.0675 36.776 65.5635 38 62.9175 38H61.8195V35.39H62.0355C62.6655 35.39 63.1335 35.174 63.3315 34.256C63.4755 33.482 63.5295 32.636 63.5295 28.01H74.3475V38H70.8375ZM77.2549 38V28.01H80.7649V30.872H83.5009C86.9209 30.872 88.2529 32.384 88.2529 34.292V34.508C88.2529 36.596 86.9209 38 83.5009 38H77.2549ZM80.7649 35.624H83.0689C83.7889 35.624 84.6529 35.408 84.6529 34.436V34.382C84.6529 33.482 83.7889 33.248 83.0689 33.248H80.7649V35.624ZM96.3228 30.08C94.5048 30.08 93.8208 30.818 93.6408 31.862H98.9328C98.9328 31.124 98.5728 30.08 96.3228 30.08ZM99.0048 34.886H102.659C102.659 35.714 102.011 38.234 96.8448 38.234H96.1788C91.2468 38.234 90.0228 35.534 90.0228 33.14V32.888C90.0228 30.638 91.1388 27.794 95.8728 27.794H96.6648C101.777 27.794 102.695 30.638 102.695 33.428V33.752H93.6048C93.7488 34.904 94.4868 35.84 96.6288 35.84C98.6628 35.84 98.9148 35.048 99.0048 34.886ZM113.343 38H105.099V28.01H112.983C115.269 28.01 116.709 28.82 116.709 30.404V30.494C116.709 31.736 115.917 32.474 114.711 32.672C115.935 32.816 117.033 33.68 117.033 35.12V35.192C117.033 37.01 115.845 38 113.343 38ZM108.609 31.988H111.831C112.677 31.988 113.109 31.664 113.109 31.034V30.944C113.109 30.368 112.713 30.026 111.831 30.026H108.609V31.988ZM108.609 35.984H111.975C112.911 35.984 113.433 35.678 113.433 34.976V34.832C113.433 34.202 113.001 33.806 111.975 33.806H108.609V35.984ZM122.988 38H119.478V28.01H122.988V31.646H127.884V28.01H131.394V38H127.884V34.31H122.988V38ZM139.029 36.002C141.081 36.002 141.783 34.706 141.783 33.95V33.176C141.477 33.302 140.595 33.482 139.587 33.644C137.895 33.932 137.355 34.166 137.355 34.868V34.904C137.355 35.534 137.805 36.002 139.029 36.002ZM141.891 36.614C141.459 37.136 140.379 38.198 138.039 38.198H137.751C134.961 38.198 133.809 36.686 133.809 35.03V34.958C133.809 33.23 134.907 32.168 138.291 31.88L141.027 31.646C141.585 31.592 141.783 31.412 141.783 30.998C141.783 30.53 141.639 30.026 139.695 30.026C137.859 30.026 137.679 30.746 137.679 31.124H134.079V31.088C134.079 30.098 134.475 27.776 139.389 27.776H139.947C144.897 27.776 145.203 29.81 145.203 31.142V34.436C145.203 35.066 145.329 35.318 146.031 35.318H146.409V38H143.565C142.521 38 142.035 37.262 141.891 36.614Z" fill="url(#paint1_radial_41_38)" style="mix-blend-mode:overlay"/>
<path d="M12.24 14V3.56H6.48C6.48 7.214 6.318 10.004 5.832 11.462C5.4 12.74 4.626 14 1.962 14H0.63V10.85H0.756C1.854 10.85 2.304 10.346 2.52 9.788C2.88 8.852 2.97 7.574 2.97 0.608H15.948V14H12.24ZM24.8677 6.08C23.0497 6.08 22.3657 6.818 22.1857 7.862H27.4777C27.4777 7.124 27.1177 6.08 24.8677 6.08ZM27.5497 10.886H31.2037C31.2037 11.714 30.5557 14.234 25.3897 14.234H24.7237C19.7917 14.234 18.5677 11.534 18.5677 9.14V8.888C18.5677 6.638 19.6837 3.794 24.4177 3.794H25.2097C30.3217 3.794 31.2397 6.638 31.2397 9.428V9.752H22.1497C22.2937 10.904 23.0317 11.84 25.1737 11.84C27.2077 11.84 27.4597 11.048 27.5497 10.886ZM46.1175 9.122V9.356C46.1175 13.1 43.2735 14.27 39.8715 14.27H39.5115C36.0015 14.27 33.1395 12.902 33.1395 8.15V7.088C33.1395 2.282 35.5335 0.698 40.2135 0.698H41.0235C42.1395 0.698 42.2115 0.589999 42.2475 0.373999H45.6855C45.6855 2.48 44.8935 3.362 42.4455 3.362H40.2135C37.6215 3.362 36.6315 4.172 36.5775 5.99C37.4955 5.036 38.8995 4.388 41.1135 4.388H41.2215C43.5975 4.388 46.1175 5.594 46.1175 9.122ZM39.5475 11.642H39.7455C41.3295 11.642 42.4995 10.85 42.4995 9.212C42.4995 7.628 41.3115 6.854 39.7635 6.854H39.5475C37.8195 6.854 36.7575 7.592 36.7575 9.23C36.7575 10.886 37.8375 11.642 39.5475 11.642ZM54.3462 6.08C52.5282 6.08 51.8442 6.818 51.6642 7.862H56.9562C56.9562 7.124 56.5962 6.08 54.3462 6.08ZM57.0282 10.886H60.6822C60.6822 11.714 60.0342 14.234 54.8682 14.234H54.2022C49.2702 14.234 48.0462 11.534 48.0462 9.14V8.888C48.0462 6.638 49.1622 3.794 53.8962 3.794H54.6882C59.8002 3.794 60.7182 6.638 60.7182 9.428V9.752H51.6282C51.7722 10.904 52.5102 11.84 54.6522 11.84C56.6862 11.84 56.9382 11.048 57.0282 10.886ZM62.1183 16.124V11.336H63.3243C64.0083 9.968 64.1163 6.998 64.2063 4.01H74.7723V11.336H76.5723V16.124H73.2423V14H65.4483V16.124H62.1183ZM66.6363 11.336H71.2623V6.674H67.3563C67.3023 7.97 67.1223 9.95 66.6363 11.336ZM84.2993 6.08C82.4813 6.08 81.7973 6.818 81.6173 7.862H86.9093C86.9093 7.124 86.5493 6.08 84.2993 6.08ZM86.9813 10.886H90.6353C90.6353 11.714 89.9873 14.234 84.8213 14.234H84.1553C79.2233 14.234 77.9993 11.534 77.9993 9.14V8.888C77.9993 6.638 79.1153 3.794 83.8493 3.794H84.6413C89.7533 3.794 90.6713 6.638 90.6713 9.428V9.752H81.5813C81.7253 10.904 82.4633 11.84 84.6053 11.84C86.6393 11.84 86.8913 11.048 86.9813 10.886ZM101.319 14H93.0752V4.01H100.959C103.245 4.01 104.685 4.82 104.685 6.404V6.494C104.685 7.736 103.893 8.474 102.687 8.672C103.911 8.816 105.009 9.68 105.009 11.12V11.192C105.009 13.01 103.821 14 101.319 14ZM96.5852 7.988H99.8072C100.653 7.988 101.085 7.664 101.085 7.034V6.944C101.085 6.368 100.689 6.026 99.8072 6.026H96.5852V7.988ZM96.5852 11.984H99.9512C100.887 11.984 101.409 11.678 101.409 10.976V10.832C101.409 10.202 100.977 9.806 99.9512 9.806H96.5852V11.984ZM112.082 12.002C114.134 12.002 114.836 10.706 114.836 9.95V9.176C114.53 9.302 113.648 9.482 112.64 9.644C110.948 9.932 110.408 10.166 110.408 10.868V10.904C110.408 11.534 110.858 12.002 112.082 12.002ZM114.944 12.614C114.512 13.136 113.432 14.198 111.092 14.198H110.804C108.014 14.198 106.862 12.686 106.862 11.03V10.958C106.862 9.23 107.96 8.168 111.344 7.88L114.08 7.646C114.638 7.592 114.836 7.412 114.836 6.998C114.836 6.53 114.692 6.026 112.748 6.026C110.912 6.026 110.732 6.746 110.732 7.124H107.132V7.088C107.132 6.098 107.528 3.776 112.442 3.776H113C117.95 3.776 118.256 5.81 118.256 7.142V10.436C118.256 11.066 118.382 11.318 119.084 11.318H119.462V14H116.618C115.574 14 115.088 13.262 114.944 12.614ZM126.865 14V0.608H131.797L136.063 9.68L140.455 0.608H145.081V14H141.463V5.234L137.395 14H134.497L130.429 5.234V14H126.865ZM152.916 12.002C154.968 12.002 155.67 10.706 155.67 9.95V9.176C155.364 9.302 154.482 9.482 153.474 9.644C151.782 9.932 151.242 10.166 151.242 10.868V10.904C151.242 11.534 151.692 12.002 152.916 12.002ZM155.778 12.614C155.346 13.136 154.266 14.198 151.926 14.198H151.638C148.848 14.198 147.696 12.686 147.696 11.03V10.958C147.696 9.23 148.794 8.168 152.178 7.88L154.914 7.646C155.472 7.592 155.67 7.412 155.67 6.998C155.67 6.53 155.526 6.026 153.582 6.026C151.746 6.026 151.566 6.746 151.566 7.124H147.966V7.088C147.966 6.098 148.362 3.776 153.276 3.776H153.834C158.784 3.776 159.09 5.81 159.09 7.142V10.436C159.09 11.066 159.216 11.318 159.918 11.318H160.296V14H157.452C156.408 14 155.922 13.262 155.778 12.614ZM171.478 9.014V8.96C171.478 7.88 170.974 6.422 168.778 6.422H168.598C166.492 6.422 165.826 7.808 165.826 8.96V9.014C165.826 10.112 166.492 11.552 168.598 11.552H168.778C170.974 11.552 171.478 10.04 171.478 9.014ZM162.334 17.438V4.01H165.808V5.288C166.24 4.82 167.554 3.812 169.822 3.812H170.056C173.872 3.812 175.114 6.422 175.114 8.798V9.104C175.114 11.282 173.836 14.198 170.038 14.198H169.786C167.5 14.198 166.276 13.154 165.844 12.722V17.438H162.334ZM185.98 7.952L181.156 14H177.556V4.01H181.066V10.058L185.89 4.01H189.49V14H185.98V7.952ZM200.815 10.652H198.457L195.541 14H191.581L194.839 10.274C193.111 9.932 192.121 8.942 192.121 7.43V7.214C192.121 5.396 193.597 4.01 196.099 4.01H204.325V14H200.815V10.652ZM200.815 6.314H197.053C196.279 6.314 195.631 6.494 195.631 7.286V7.358C195.631 8.132 196.297 8.366 197.071 8.366H200.815V6.314ZM1.656 38V24.608H11.43C15.264 24.608 16.218 26.282 16.218 27.776V27.974C16.218 29.666 14.76 30.476 13.752 30.62C15.264 30.872 16.884 31.772 16.884 33.932V34.13C16.884 35.948 15.786 38 11.484 38H1.656ZM10.89 27.398H5.364V29.792H10.89C12.024 29.792 12.348 29.252 12.348 28.622V28.586C12.348 27.938 11.988 27.398 10.89 27.398ZM11.178 32.42H5.364V35.066H11.178C12.474 35.066 12.852 34.382 12.852 33.716V33.644C12.852 32.978 12.474 32.42 11.178 32.42ZM23.9982 36.002C26.0502 36.002 26.7522 34.706 26.7522 33.95V33.176C26.4462 33.302 25.5642 33.482 24.5562 33.644C22.8642 33.932 22.3242 34.166 22.3242 34.868V34.904C22.3242 35.534 22.7742 36.002 23.9982 36.002ZM26.8602 36.614C26.4282 37.136 25.3482 38.198 23.0082 38.198H22.7202C19.9302 38.198 18.7782 36.686 18.7782 35.03V34.958C18.7782 33.23 19.8762 32.168 23.2602 31.88L25.9962 31.646C26.5542 31.592 26.7522 31.412 26.7522 30.998C26.7522 30.53 26.6082 30.026 24.6642 30.026C22.8282 30.026 22.6482 30.746 22.6482 31.124H19.0482V31.088C19.0482 30.098 19.4442 27.776 24.3582 27.776H24.9162C29.8662 27.776 30.1722 29.81 30.1722 31.142V34.436C30.1722 35.066 30.2982 35.318 31.0002 35.318H31.3782V38H28.5342C27.4902 38 27.0042 37.262 26.8602 36.614ZM41.7319 34.076H45.4039C45.4039 35.588 44.5039 38.27 39.6979 38.27H38.8159C33.8299 38.27 32.8939 35.03 32.8939 33.14V32.888C32.8939 30.998 33.7759 27.74 38.7979 27.74H39.6259C44.4499 27.74 45.4039 30.368 45.4039 31.808V31.826H41.7319C41.6779 31.538 41.3359 30.296 39.2659 30.296H39.0859C37.0159 30.296 36.5299 31.718 36.5299 32.924V32.942C36.5299 34.184 37.1239 35.66 39.1579 35.66H39.3379C41.4259 35.66 41.7319 34.31 41.7319 34.076ZM56.2179 31.952L51.3939 38H47.7939V28.01H51.3039V34.058L56.1279 28.01H59.7279V38H56.2179V31.952ZM70.8375 38V30.674H66.8775C66.8775 33.356 66.7875 34.85 66.4455 35.768C66.0675 36.776 65.5635 38 62.9175 38H61.8195V35.39H62.0355C62.6655 35.39 63.1335 35.174 63.3315 34.256C63.4755 33.482 63.5295 32.636 63.5295 28.01H74.3475V38H70.8375ZM77.2549 38V28.01H80.7649V30.872H83.5009C86.9209 30.872 88.2529 32.384 88.2529 34.292V34.508C88.2529 36.596 86.9209 38 83.5009 38H77.2549ZM80.7649 35.624H83.0689C83.7889 35.624 84.6529 35.408 84.6529 34.436V34.382C84.6529 33.482 83.7889 33.248 83.0689 33.248H80.7649V35.624ZM96.3228 30.08C94.5048 30.08 93.8208 30.818 93.6408 31.862H98.9328C98.9328 31.124 98.5728 30.08 96.3228 30.08ZM99.0048 34.886H102.659C102.659 35.714 102.011 38.234 96.8448 38.234H96.1788C91.2468 38.234 90.0228 35.534 90.0228 33.14V32.888C90.0228 30.638 91.1388 27.794 95.8728 27.794H96.6648C101.777 27.794 102.695 30.638 102.695 33.428V33.752H93.6048C93.7488 34.904 94.4868 35.84 96.6288 35.84C98.6628 35.84 98.9148 35.048 99.0048 34.886ZM113.343 38H105.099V28.01H112.983C115.269 28.01 116.709 28.82 116.709 30.404V30.494C116.709 31.736 115.917 32.474 114.711 32.672C115.935 32.816 117.033 33.68 117.033 35.12V35.192C117.033 37.01 115.845 38 113.343 38ZM108.609 31.988H111.831C112.677 31.988 113.109 31.664 113.109 31.034V30.944C113.109 30.368 112.713 30.026 111.831 30.026H108.609V31.988ZM108.609 35.984H111.975C112.911 35.984 113.433 35.678 113.433 34.976V34.832C113.433 34.202 113.001 33.806 111.975 33.806H108.609V35.984ZM122.988 38H119.478V28.01H122.988V31.646H127.884V28.01H131.394V38H127.884V34.31H122.988V38ZM139.029 36.002C141.081 36.002 141.783 34.706 141.783 33.95V33.176C141.477 33.302 140.595 33.482 139.587 33.644C137.895 33.932 137.355 34.166 137.355 34.868V34.904C137.355 35.534 137.805 36.002 139.029 36.002ZM141.891 36.614C141.459 37.136 140.379 38.198 138.039 38.198H137.751C134.961 38.198 133.809 36.686 133.809 35.03V34.958C133.809 33.23 134.907 32.168 138.291 31.88L141.027 31.646C141.585 31.592 141.783 31.412 141.783 30.998C141.783 30.53 141.639 30.026 139.695 30.026C137.859 30.026 137.679 30.746 137.679 31.124H134.079V31.088C134.079 30.098 134.475 27.776 139.389 27.776H139.947C144.897 27.776 145.203 29.81 145.203 31.142V34.436C145.203 35.066 145.329 35.318 146.031 35.318H146.409V38H143.565C142.521 38 142.035 37.262 141.891 36.614Z" fill="url(#paint2_radial_41_38)"/>
<path d="M12.24 14V3.56H6.48C6.48 7.214 6.318 10.004 5.832 11.462C5.4 12.74 4.626 14 1.962 14H0.63V10.85H0.756C1.854 10.85 2.304 10.346 2.52 9.788C2.88 8.852 2.97 7.574 2.97 0.608H15.948V14H12.24ZM24.8677 6.08C23.0497 6.08 22.3657 6.818 22.1857 7.862H27.4777C27.4777 7.124 27.1177 6.08 24.8677 6.08ZM27.5497 10.886H31.2037C31.2037 11.714 30.5557 14.234 25.3897 14.234H24.7237C19.7917 14.234 18.5677 11.534 18.5677 9.14V8.888C18.5677 6.638 19.6837 3.794 24.4177 3.794H25.2097C30.3217 3.794 31.2397 6.638 31.2397 9.428V9.752H22.1497C22.2937 10.904 23.0317 11.84 25.1737 11.84C27.2077 11.84 27.4597 11.048 27.5497 10.886ZM46.1175 9.122V9.356C46.1175 13.1 43.2735 14.27 39.8715 14.27H39.5115C36.0015 14.27 33.1395 12.902 33.1395 8.15V7.088C33.1395 2.282 35.5335 0.698 40.2135 0.698H41.0235C42.1395 0.698 42.2115 0.589999 42.2475 0.373999H45.6855C45.6855 2.48 44.8935 3.362 42.4455 3.362H40.2135C37.6215 3.362 36.6315 4.172 36.5775 5.99C37.4955 5.036 38.8995 4.388 41.1135 4.388H41.2215C43.5975 4.388 46.1175 5.594 46.1175 9.122ZM39.5475 11.642H39.7455C41.3295 11.642 42.4995 10.85 42.4995 9.212C42.4995 7.628 41.3115 6.854 39.7635 6.854H39.5475C37.8195 6.854 36.7575 7.592 36.7575 9.23C36.7575 10.886 37.8375 11.642 39.5475 11.642ZM54.3462 6.08C52.5282 6.08 51.8442 6.818 51.6642 7.862H56.9562C56.9562 7.124 56.5962 6.08 54.3462 6.08ZM57.0282 10.886H60.6822C60.6822 11.714 60.0342 14.234 54.8682 14.234H54.2022C49.2702 14.234 48.0462 11.534 48.0462 9.14V8.888C48.0462 6.638 49.1622 3.794 53.8962 3.794H54.6882C59.8002 3.794 60.7182 6.638 60.7182 9.428V9.752H51.6282C51.7722 10.904 52.5102 11.84 54.6522 11.84C56.6862 11.84 56.9382 11.048 57.0282 10.886ZM62.1183 16.124V11.336H63.3243C64.0083 9.968 64.1163 6.998 64.2063 4.01H74.7723V11.336H76.5723V16.124H73.2423V14H65.4483V16.124H62.1183ZM66.6363 11.336H71.2623V6.674H67.3563C67.3023 7.97 67.1223 9.95 66.6363 11.336ZM84.2993 6.08C82.4813 6.08 81.7973 6.818 81.6173 7.862H86.9093C86.9093 7.124 86.5493 6.08 84.2993 6.08ZM86.9813 10.886H90.6353C90.6353 11.714 89.9873 14.234 84.8213 14.234H84.1553C79.2233 14.234 77.9993 11.534 77.9993 9.14V8.888C77.9993 6.638 79.1153 3.794 83.8493 3.794H84.6413C89.7533 3.794 90.6713 6.638 90.6713 9.428V9.752H81.5813C81.7253 10.904 82.4633 11.84 84.6053 11.84C86.6393 11.84 86.8913 11.048 86.9813 10.886ZM101.319 14H93.0752V4.01H100.959C103.245 4.01 104.685 4.82 104.685 6.404V6.494C104.685 7.736 103.893 8.474 102.687 8.672C103.911 8.816 105.009 9.68 105.009 11.12V11.192C105.009 13.01 103.821 14 101.319 14ZM96.5852 7.988H99.8072C100.653 7.988 101.085 7.664 101.085 7.034V6.944C101.085 6.368 100.689 6.026 99.8072 6.026H96.5852V7.988ZM96.5852 11.984H99.9512C100.887 11.984 101.409 11.678 101.409 10.976V10.832C101.409 10.202 100.977 9.806 99.9512 9.806H96.5852V11.984ZM112.082 12.002C114.134 12.002 114.836 10.706 114.836 9.95V9.176C114.53 9.302 113.648 9.482 112.64 9.644C110.948 9.932 110.408 10.166 110.408 10.868V10.904C110.408 11.534 110.858 12.002 112.082 12.002ZM114.944 12.614C114.512 13.136 113.432 14.198 111.092 14.198H110.804C108.014 14.198 106.862 12.686 106.862 11.03V10.958C106.862 9.23 107.96 8.168 111.344 7.88L114.08 7.646C114.638 7.592 114.836 7.412 114.836 6.998C114.836 6.53 114.692 6.026 112.748 6.026C110.912 6.026 110.732 6.746 110.732 7.124H107.132V7.088C107.132 6.098 107.528 3.776 112.442 3.776H113C117.95 3.776 118.256 5.81 118.256 7.142V10.436C118.256 11.066 118.382 11.318 119.084 11.318H119.462V14H116.618C115.574 14 115.088 13.262 114.944 12.614ZM126.865 14V0.608H131.797L136.063 9.68L140.455 0.608H145.081V14H141.463V5.234L137.395 14H134.497L130.429 5.234V14H126.865ZM152.916 12.002C154.968 12.002 155.67 10.706 155.67 9.95V9.176C155.364 9.302 154.482 9.482 153.474 9.644C151.782 9.932 151.242 10.166 151.242 10.868V10.904C151.242 11.534 151.692 12.002 152.916 12.002ZM155.778 12.614C155.346 13.136 154.266 14.198 151.926 14.198H151.638C148.848 14.198 147.696 12.686 147.696 11.03V10.958C147.696 9.23 148.794 8.168 152.178 7.88L154.914 7.646C155.472 7.592 155.67 7.412 155.67 6.998C155.67 6.53 155.526 6.026 153.582 6.026C151.746 6.026 151.566 6.746 151.566 7.124H147.966V7.088C147.966 6.098 148.362 3.776 153.276 3.776H153.834C158.784 3.776 159.09 5.81 159.09 7.142V10.436C159.09 11.066 159.216 11.318 159.918 11.318H160.296V14H157.452C156.408 14 155.922 13.262 155.778 12.614ZM171.478 9.014V8.96C171.478 7.88 170.974 6.422 168.778 6.422H168.598C166.492 6.422 165.826 7.808 165.826 8.96V9.014C165.826 10.112 166.492 11.552 168.598 11.552H168.778C170.974 11.552 171.478 10.04 171.478 9.014ZM162.334 17.438V4.01H165.808V5.288C166.24 4.82 167.554 3.812 169.822 3.812H170.056C173.872 3.812 175.114 6.422 175.114 8.798V9.104C175.114 11.282 173.836 14.198 170.038 14.198H169.786C167.5 14.198 166.276 13.154 165.844 12.722V17.438H162.334ZM185.98 7.952L181.156 14H177.556V4.01H181.066V10.058L185.89 4.01H189.49V14H185.98V7.952ZM200.815 10.652H198.457L195.541 14H191.581L194.839 10.274C193.111 9.932 192.121 8.942 192.121 7.43V7.214C192.121 5.396 193.597 4.01 196.099 4.01H204.325V14H200.815V10.652ZM200.815 6.314H197.053C196.279 6.314 195.631 6.494 195.631 7.286V7.358C195.631 8.132 196.297 8.366 197.071 8.366H200.815V6.314ZM1.656 38V24.608H11.43C15.264 24.608 16.218 26.282 16.218 27.776V27.974C16.218 29.666 14.76 30.476 13.752 30.62C15.264 30.872 16.884 31.772 16.884 33.932V34.13C16.884 35.948 15.786 38 11.484 38H1.656ZM10.89 27.398H5.364V29.792H10.89C12.024 29.792 12.348 29.252 12.348 28.622V28.586C12.348 27.938 11.988 27.398 10.89 27.398ZM11.178 32.42H5.364V35.066H11.178C12.474 35.066 12.852 34.382 12.852 33.716V33.644C12.852 32.978 12.474 32.42 11.178 32.42ZM23.9982 36.002C26.0502 36.002 26.7522 34.706 26.7522 33.95V33.176C26.4462 33.302 25.5642 33.482 24.5562 33.644C22.8642 33.932 22.3242 34.166 22.3242 34.868V34.904C22.3242 35.534 22.7742 36.002 23.9982 36.002ZM26.8602 36.614C26.4282 37.136 25.3482 38.198 23.0082 38.198H22.7202C19.9302 38.198 18.7782 36.686 18.7782 35.03V34.958C18.7782 33.23 19.8762 32.168 23.2602 31.88L25.9962 31.646C26.5542 31.592 26.7522 31.412 26.7522 30.998C26.7522 30.53 26.6082 30.026 24.6642 30.026C22.8282 30.026 22.6482 30.746 22.6482 31.124H19.0482V31.088C19.0482 30.098 19.4442 27.776 24.3582 27.776H24.9162C29.8662 27.776 30.1722 29.81 30.1722 31.142V34.436C30.1722 35.066 30.2982 35.318 31.0002 35.318H31.3782V38H28.5342C27.4902 38 27.0042 37.262 26.8602 36.614ZM41.7319 34.076H45.4039C45.4039 35.588 44.5039 38.27 39.6979 38.27H38.8159C33.8299 38.27 32.8939 35.03 32.8939 33.14V32.888C32.8939 30.998 33.7759 27.74 38.7979 27.74H39.6259C44.4499 27.74 45.4039 30.368 45.4039 31.808V31.826H41.7319C41.6779 31.538 41.3359 30.296 39.2659 30.296H39.0859C37.0159 30.296 36.5299 31.718 36.5299 32.924V32.942C36.5299 34.184 37.1239 35.66 39.1579 35.66H39.3379C41.4259 35.66 41.7319 34.31 41.7319 34.076ZM56.2179 31.952L51.3939 38H47.7939V28.01H51.3039V34.058L56.1279 28.01H59.7279V38H56.2179V31.952ZM70.8375 38V30.674H66.8775C66.8775 33.356 66.7875 34.85 66.4455 35.768C66.0675 36.776 65.5635 38 62.9175 38H61.8195V35.39H62.0355C62.6655 35.39 63.1335 35.174 63.3315 34.256C63.4755 33.482 63.5295 32.636 63.5295 28.01H74.3475V38H70.8375ZM77.2549 38V28.01H80.7649V30.872H83.5009C86.9209 30.872 88.2529 32.384 88.2529 34.292V34.508C88.2529 36.596 86.9209 38 83.5009 38H77.2549ZM80.7649 35.624H83.0689C83.7889 35.624 84.6529 35.408 84.6529 34.436V34.382C84.6529 33.482 83.7889 33.248 83.0689 33.248H80.7649V35.624ZM96.3228 30.08C94.5048 30.08 93.8208 30.818 93.6408 31.862H98.9328C98.9328 31.124 98.5728 30.08 96.3228 30.08ZM99.0048 34.886H102.659C102.659 35.714 102.011 38.234 96.8448 38.234H96.1788C91.2468 38.234 90.0228 35.534 90.0228 33.14V32.888C90.0228 30.638 91.1388 27.794 95.8728 27.794H96.6648C101.777 27.794 102.695 30.638 102.695 33.428V33.752H93.6048C93.7488 34.904 94.4868 35.84 96.6288 35.84C98.6628 35.84 98.9148 35.048 99.0048 34.886ZM113.343 38H105.099V28.01H112.983C115.269 28.01 116.709 28.82 116.709 30.404V30.494C116.709 31.736 115.917 32.474 114.711 32.672C115.935 32.816 117.033 33.68 117.033 35.12V35.192C117.033 37.01 115.845 38 113.343 38ZM108.609 31.988H111.831C112.677 31.988 113.109 31.664 113.109 31.034V30.944C113.109 30.368 112.713 30.026 111.831 30.026H108.609V31.988ZM108.609 35.984H111.975C112.911 35.984 113.433 35.678 113.433 34.976V34.832C113.433 34.202 113.001 33.806 111.975 33.806H108.609V35.984ZM122.988 38H119.478V28.01H122.988V31.646H127.884V28.01H131.394V38H127.884V34.31H122.988V38ZM139.029 36.002C141.081 36.002 141.783 34.706 141.783 33.95V33.176C141.477 33.302 140.595 33.482 139.587 33.644C137.895 33.932 137.355 34.166 137.355 34.868V34.904C137.355 35.534 137.805 36.002 139.029 36.002ZM141.891 36.614C141.459 37.136 140.379 38.198 138.039 38.198H137.751C134.961 38.198 133.809 36.686 133.809 35.03V34.958C133.809 33.23 134.907 32.168 138.291 31.88L141.027 31.646C141.585 31.592 141.783 31.412 141.783 30.998C141.783 30.53 141.639 30.026 139.695 30.026C137.859 30.026 137.679 30.746 137.679 31.124H134.079V31.088C134.079 30.098 134.475 27.776 139.389 27.776H139.947C144.897 27.776 145.203 29.81 145.203 31.142V34.436C145.203 35.066 145.329 35.318 146.031 35.318H146.409V38H143.565C142.521 38 142.035 37.262 141.891 36.614Z" fill="#C1A875" style="mix-blend-mode:color"/>
<defs>
<linearGradient id="paint0_linear_41_38" x1="8.27014e-07" y1="30" x2="222" y2="30" gradientUnits="userSpaceOnUse">
<stop stop-color="#576167"/>
<stop offset="0.191294" stop-color="#9EA1A2"/>
<stop offset="0.396166" stop-color="#848989"/>
<stop offset="0.62055" stop-color="#576167"/>
<stop offset="0.830299" stop-color="#757A7C"/>
<stop offset="1" stop-color="#576167"/>
</linearGradient>
<radialGradient id="paint1_radial_41_38" cx="0" cy="0" r="1" gradientUnits="userSpaceOnUse" gradientTransform="translate(118.226 2.39326) rotate(90) scale(53.4944 167.95)">
<stop stop-color="white"/>
<stop offset="1" stop-color="white" stop-opacity="0"/>
</radialGradient>
<radialGradient id="paint2_radial_41_38" cx="0" cy="0" r="1" gradientUnits="userSpaceOnUse" gradientTransform="translate(130.783 82.9888) rotate(-89.7344) scale(76.6525 240.162)">
<stop stop-color="white"/>
<stop offset="1" stop-color="white" stop-opacity="0"/>
</radialGradient>
</defs>
</svg>
