<svg width="131" height="63" viewBox="0 0 131 63" fill="none" xmlns="http://www.w3.org/2000/svg">
<path d="M11.808 14L5.364 7.7V14H1.656V0.608H5.364V6.116L11.628 0.608H16.344L9.288 6.746L16.65 14H11.808ZM23.5247 14.27H22.9667C17.5847 14.27 16.7567 10.994 16.7567 9.176V8.924C16.7567 7.124 17.5847 3.74 22.9487 3.74H23.5427C29.0867 3.74 29.7347 7.142 29.7347 8.906V9.194C29.7347 10.994 29.0867 14.27 23.5247 14.27ZM23.1467 11.642H23.3447C25.5587 11.642 26.1167 10.058 26.1167 8.96C26.1167 7.826 25.5587 6.314 23.3447 6.314H23.1467C20.8427 6.314 20.3747 7.826 20.3747 8.96C20.3747 10.058 20.8427 11.642 23.1467 11.642ZM43.1876 11.048V11.156C43.1876 13.154 41.5136 14.27 37.6796 14.27H37.3556C33.2516 14.27 31.4696 12.74 31.4696 10.67V10.526H35.2316C35.2856 11.642 36.3116 12.056 37.5356 12.056C38.8496 12.056 39.5696 11.66 39.5696 10.868V10.814C39.5696 10.076 38.9936 9.896 37.9856 9.896H35.6096V7.754H37.9856C38.7596 7.754 39.2456 7.448 39.2456 6.872V6.818C39.2456 6.224 38.6516 5.918 37.4456 5.918C36.0956 5.918 35.3756 6.242 35.3216 6.944H31.5596V6.89C31.5596 4.748 34.0616 3.74 37.3196 3.74H37.6076C40.9736 3.74 42.8636 4.55 42.8636 6.422V6.494C42.8636 8.006 41.7116 8.582 40.8836 8.78C41.8916 8.978 43.1876 9.464 43.1876 11.048ZM53.7339 14V6.674H49.7739C49.7739 9.356 49.6839 10.85 49.3419 11.768C48.9639 12.776 48.4599 14 45.8139 14H44.7159V11.39H44.9319C45.5619 11.39 46.0299 11.174 46.2279 10.256C46.3719 9.482 46.4259 8.636 46.4259 4.01H57.2439V14H53.7339ZM66.4154 14.27H65.8574C60.4754 14.27 59.6474 10.994 59.6474 9.176V8.924C59.6474 7.124 60.4754 3.74 65.8394 3.74H66.4334C71.9774 3.74 72.6254 7.142 72.6254 8.906V9.194C72.6254 10.994 71.9774 14.27 66.4154 14.27ZM66.0374 11.642H66.2354C68.4494 11.642 69.0074 10.058 69.0074 8.96C69.0074 7.826 68.4494 6.314 66.2354 6.314H66.0374C63.7334 6.314 63.2654 7.826 63.2654 8.96C63.2654 10.058 63.7334 11.642 66.0374 11.642ZM83.284 14H75.04V4.01H82.924C85.21 4.01 86.65 4.82 86.65 6.404V6.494C86.65 7.736 85.858 8.474 84.652 8.672C85.876 8.816 86.974 9.68 86.974 11.12V11.192C86.974 13.01 85.786 14 83.284 14ZM78.55 7.988H81.772C82.618 7.988 83.05 7.664 83.05 7.034V6.944C83.05 6.368 82.654 6.026 81.772 6.026H78.55V7.988ZM78.55 11.984H81.916C82.852 11.984 83.374 11.678 83.374 10.976V10.832C83.374 10.202 82.942 9.806 81.916 9.806H78.55V11.984ZM9.63 38.198H8.802C2.682 38.198 1.062 34.274 1.062 31.538V30.998C1.062 28.208 2.682 24.41 8.802 24.41H9.63C15.246 24.41 17.118 27.164 17.118 29.702V29.738H13.302C13.248 29.36 12.744 27.47 9.216 27.47C5.94 27.47 4.914 29.306 4.914 31.106V31.358C4.914 33.014 5.976 35.12 9.234 35.12C12.798 35.12 13.248 33.194 13.302 32.762H17.118V32.816C17.118 35.264 15.318 38.198 9.63 38.198ZM22.443 38V30.674H18.573V28.01H29.823V30.674H25.953V38H22.443ZM36.4435 36.002C38.4955 36.002 39.1975 34.706 39.1975 33.95V33.176C38.8915 33.302 38.0095 33.482 37.0015 33.644C35.3095 33.932 34.7695 34.166 34.7695 34.868V34.904C34.7695 35.534 35.2195 36.002 36.4435 36.002ZM39.3055 36.614C38.8735 37.136 37.7935 38.198 35.4535 38.198H35.1655C32.3755 38.198 31.2235 36.686 31.2235 35.03V34.958C31.2235 33.23 32.3215 32.168 35.7055 31.88L38.4415 31.646C38.9995 31.592 39.1975 31.412 39.1975 30.998C39.1975 30.53 39.0535 30.026 37.1095 30.026C35.2735 30.026 35.0935 30.746 35.0935 31.124H31.4935V31.088C31.4935 30.098 31.8895 27.776 36.8035 27.776H37.3615C42.3115 27.776 42.6175 29.81 42.6175 31.142V34.436C42.6175 35.066 42.7435 35.318 43.4455 35.318H43.8235V38H40.9795C39.9355 38 39.4495 37.262 39.3055 36.614ZM49.3352 38H45.8252V28.01H49.3352V31.646H54.2312V28.01H57.7412V38H54.2312V34.31H49.3352V38ZM69.0851 31.952L64.2611 38H60.6611V28.01H64.1711V34.058L68.9951 28.01H72.5951V38H69.0851V31.952ZM83.8666 34.076H87.5386C87.5386 35.588 86.6386 38.27 81.8326 38.27H80.9506C75.9646 38.27 75.0286 35.03 75.0286 33.14V32.888C75.0286 30.998 75.9106 27.74 80.9326 27.74H81.7606C86.5846 27.74 87.5386 30.368 87.5386 31.808V31.826H83.8666C83.8126 31.538 83.4706 30.296 81.4006 30.296H81.2206C79.1506 30.296 78.6646 31.718 78.6646 32.924V32.942C78.6646 34.184 79.2586 35.66 81.2926 35.66H81.4726C83.5606 35.66 83.8666 34.31 83.8666 34.076ZM97.9429 38V30.674H93.9829C93.9829 33.356 93.8929 34.85 93.5509 35.768C93.1729 36.776 92.6689 38 90.0229 38H88.9249V35.39H89.1409C89.7709 35.39 90.2389 35.174 90.4369 34.256C90.5809 33.482 90.6349 32.636 90.6349 28.01H101.453V38H97.9429ZM109.076 36.002C111.128 36.002 111.83 34.706 111.83 33.95V33.176C111.524 33.302 110.642 33.482 109.634 33.644C107.942 33.932 107.402 34.166 107.402 34.868V34.904C107.402 35.534 107.852 36.002 109.076 36.002ZM111.938 36.614C111.506 37.136 110.426 38.198 108.086 38.198H107.798C105.008 38.198 103.856 36.686 103.856 35.03V34.958C103.856 33.23 104.954 32.168 108.338 31.88L111.074 31.646C111.632 31.592 111.83 31.412 111.83 30.998C111.83 30.53 111.686 30.026 109.742 30.026C107.906 30.026 107.726 30.746 107.726 31.124H104.126V31.088C104.126 30.098 104.522 27.776 109.436 27.776H109.994C114.944 27.776 115.25 29.81 115.25 31.142V34.436C115.25 35.066 115.376 35.318 116.078 35.318H116.456V38H113.612C112.568 38 112.082 37.262 111.938 36.614ZM126.702 38H118.458V28.01H126.342C128.628 28.01 130.068 28.82 130.068 30.404V30.494C130.068 31.736 129.276 32.474 128.07 32.672C129.294 32.816 130.392 33.68 130.392 35.12V35.192C130.392 37.01 129.204 38 126.702 38ZM121.968 31.988H125.19C126.036 31.988 126.468 31.664 126.468 31.034V30.944C126.468 30.368 126.072 30.026 125.19 30.026H121.968V31.988ZM121.968 35.984H125.334C126.27 35.984 126.792 35.678 126.792 34.976V34.832C126.792 34.202 126.36 33.806 125.334 33.806H121.968V35.984ZM10.998 56.762L8.568 51.308L6.21 56.762H10.998ZM13.338 62L12.24 59.516H5.004L3.924 62H0.198L6.138 48.608H11.106L17.316 62H13.338ZM22.4758 62H18.9658V52.01H22.4758V55.646H27.3718V52.01H30.8818V62H27.3718V58.31H22.4758V62ZM36.6638 62V54.674H32.7938V52.01H44.0438V54.674H40.1738V62H36.6638ZM52.2122 62.27H51.6542C46.2722 62.27 45.4442 58.994 45.4442 57.176V56.924C45.4442 55.124 46.2722 51.74 51.6362 51.74H52.2302C57.7742 51.74 58.4222 55.142 58.4222 56.906V57.194C58.4222 58.994 57.7742 62.27 52.2122 62.27ZM51.8342 59.642H52.0322C54.2462 59.642 54.8042 58.058 54.8042 56.96C54.8042 55.826 54.2462 54.314 52.0322 54.314H51.8342C49.5302 54.314 49.0622 55.826 49.0622 56.96C49.0622 58.058 49.5302 59.642 51.8342 59.642ZM64.3469 62H60.8369V52.01H64.3469V55.646H69.2429V52.01H72.7529V62H69.2429V58.31H64.3469V62ZM81.9368 62.27H81.3788C75.9968 62.27 75.1688 58.994 75.1688 57.176V56.924C75.1688 55.124 75.9968 51.74 81.3608 51.74H81.9548C87.4988 51.74 88.1468 55.142 88.1468 56.906V57.194C88.1468 58.994 87.4988 62.27 81.9368 62.27ZM81.5588 59.642H81.7568C83.9708 59.642 84.5288 58.058 84.5288 56.96C84.5288 55.826 83.9708 54.314 81.7568 54.314H81.5588C79.2548 54.314 78.7868 55.826 78.7868 56.96C78.7868 58.058 79.2548 59.642 81.5588 59.642ZM98.8055 62H90.5615V52.01H98.4455C100.732 52.01 102.172 52.82 102.172 54.404V54.494C102.172 55.736 101.38 56.474 100.174 56.672C101.398 56.816 102.496 57.68 102.496 59.12V59.192C102.496 61.01 101.308 62 98.8055 62ZM94.0715 55.988H97.2935C98.1395 55.988 98.5715 55.664 98.5715 55.034V54.944C98.5715 54.368 98.1755 54.026 97.2935 54.026H94.0715V55.988ZM94.0715 59.984H97.4375C98.3735 59.984 98.8955 59.678 98.8955 58.976V58.832C98.8955 58.202 98.4635 57.806 97.4375 57.806H94.0715V59.984ZM113.364 55.952L108.54 62H104.94V52.01H108.45V58.058L113.274 52.01H116.874V62H113.364V55.952ZM127.21 52.01H130.72V62H127.21V58.562C126.436 58.652 125.536 58.742 124.6 58.742C120.64 58.742 119.146 57.626 119.146 54.458V52.01H122.656V53.81C122.656 55.682 123.286 56.006 125.14 56.006C125.842 56.006 126.652 55.952 127.21 55.88V52.01Z" fill="url(#paint0_linear_41_92)"/>
<path d="M11.808 14L5.364 7.7V14H1.656V0.608H5.364V6.116L11.628 0.608H16.344L9.288 6.746L16.65 14H11.808ZM23.5247 14.27H22.9667C17.5847 14.27 16.7567 10.994 16.7567 9.176V8.924C16.7567 7.124 17.5847 3.74 22.9487 3.74H23.5427C29.0867 3.74 29.7347 7.142 29.7347 8.906V9.194C29.7347 10.994 29.0867 14.27 23.5247 14.27ZM23.1467 11.642H23.3447C25.5587 11.642 26.1167 10.058 26.1167 8.96C26.1167 7.826 25.5587 6.314 23.3447 6.314H23.1467C20.8427 6.314 20.3747 7.826 20.3747 8.96C20.3747 10.058 20.8427 11.642 23.1467 11.642ZM43.1876 11.048V11.156C43.1876 13.154 41.5136 14.27 37.6796 14.27H37.3556C33.2516 14.27 31.4696 12.74 31.4696 10.67V10.526H35.2316C35.2856 11.642 36.3116 12.056 37.5356 12.056C38.8496 12.056 39.5696 11.66 39.5696 10.868V10.814C39.5696 10.076 38.9936 9.896 37.9856 9.896H35.6096V7.754H37.9856C38.7596 7.754 39.2456 7.448 39.2456 6.872V6.818C39.2456 6.224 38.6516 5.918 37.4456 5.918C36.0956 5.918 35.3756 6.242 35.3216 6.944H31.5596V6.89C31.5596 4.748 34.0616 3.74 37.3196 3.74H37.6076C40.9736 3.74 42.8636 4.55 42.8636 6.422V6.494C42.8636 8.006 41.7116 8.582 40.8836 8.78C41.8916 8.978 43.1876 9.464 43.1876 11.048ZM53.7339 14V6.674H49.7739C49.7739 9.356 49.6839 10.85 49.3419 11.768C48.9639 12.776 48.4599 14 45.8139 14H44.7159V11.39H44.9319C45.5619 11.39 46.0299 11.174 46.2279 10.256C46.3719 9.482 46.4259 8.636 46.4259 4.01H57.2439V14H53.7339ZM66.4154 14.27H65.8574C60.4754 14.27 59.6474 10.994 59.6474 9.176V8.924C59.6474 7.124 60.4754 3.74 65.8394 3.74H66.4334C71.9774 3.74 72.6254 7.142 72.6254 8.906V9.194C72.6254 10.994 71.9774 14.27 66.4154 14.27ZM66.0374 11.642H66.2354C68.4494 11.642 69.0074 10.058 69.0074 8.96C69.0074 7.826 68.4494 6.314 66.2354 6.314H66.0374C63.7334 6.314 63.2654 7.826 63.2654 8.96C63.2654 10.058 63.7334 11.642 66.0374 11.642ZM83.284 14H75.04V4.01H82.924C85.21 4.01 86.65 4.82 86.65 6.404V6.494C86.65 7.736 85.858 8.474 84.652 8.672C85.876 8.816 86.974 9.68 86.974 11.12V11.192C86.974 13.01 85.786 14 83.284 14ZM78.55 7.988H81.772C82.618 7.988 83.05 7.664 83.05 7.034V6.944C83.05 6.368 82.654 6.026 81.772 6.026H78.55V7.988ZM78.55 11.984H81.916C82.852 11.984 83.374 11.678 83.374 10.976V10.832C83.374 10.202 82.942 9.806 81.916 9.806H78.55V11.984ZM9.63 38.198H8.802C2.682 38.198 1.062 34.274 1.062 31.538V30.998C1.062 28.208 2.682 24.41 8.802 24.41H9.63C15.246 24.41 17.118 27.164 17.118 29.702V29.738H13.302C13.248 29.36 12.744 27.47 9.216 27.47C5.94 27.47 4.914 29.306 4.914 31.106V31.358C4.914 33.014 5.976 35.12 9.234 35.12C12.798 35.12 13.248 33.194 13.302 32.762H17.118V32.816C17.118 35.264 15.318 38.198 9.63 38.198ZM22.443 38V30.674H18.573V28.01H29.823V30.674H25.953V38H22.443ZM36.4435 36.002C38.4955 36.002 39.1975 34.706 39.1975 33.95V33.176C38.8915 33.302 38.0095 33.482 37.0015 33.644C35.3095 33.932 34.7695 34.166 34.7695 34.868V34.904C34.7695 35.534 35.2195 36.002 36.4435 36.002ZM39.3055 36.614C38.8735 37.136 37.7935 38.198 35.4535 38.198H35.1655C32.3755 38.198 31.2235 36.686 31.2235 35.03V34.958C31.2235 33.23 32.3215 32.168 35.7055 31.88L38.4415 31.646C38.9995 31.592 39.1975 31.412 39.1975 30.998C39.1975 30.53 39.0535 30.026 37.1095 30.026C35.2735 30.026 35.0935 30.746 35.0935 31.124H31.4935V31.088C31.4935 30.098 31.8895 27.776 36.8035 27.776H37.3615C42.3115 27.776 42.6175 29.81 42.6175 31.142V34.436C42.6175 35.066 42.7435 35.318 43.4455 35.318H43.8235V38H40.9795C39.9355 38 39.4495 37.262 39.3055 36.614ZM49.3352 38H45.8252V28.01H49.3352V31.646H54.2312V28.01H57.7412V38H54.2312V34.31H49.3352V38ZM69.0851 31.952L64.2611 38H60.6611V28.01H64.1711V34.058L68.9951 28.01H72.5951V38H69.0851V31.952ZM83.8666 34.076H87.5386C87.5386 35.588 86.6386 38.27 81.8326 38.27H80.9506C75.9646 38.27 75.0286 35.03 75.0286 33.14V32.888C75.0286 30.998 75.9106 27.74 80.9326 27.74H81.7606C86.5846 27.74 87.5386 30.368 87.5386 31.808V31.826H83.8666C83.8126 31.538 83.4706 30.296 81.4006 30.296H81.2206C79.1506 30.296 78.6646 31.718 78.6646 32.924V32.942C78.6646 34.184 79.2586 35.66 81.2926 35.66H81.4726C83.5606 35.66 83.8666 34.31 83.8666 34.076ZM97.9429 38V30.674H93.9829C93.9829 33.356 93.8929 34.85 93.5509 35.768C93.1729 36.776 92.6689 38 90.0229 38H88.9249V35.39H89.1409C89.7709 35.39 90.2389 35.174 90.4369 34.256C90.5809 33.482 90.6349 32.636 90.6349 28.01H101.453V38H97.9429ZM109.076 36.002C111.128 36.002 111.83 34.706 111.83 33.95V33.176C111.524 33.302 110.642 33.482 109.634 33.644C107.942 33.932 107.402 34.166 107.402 34.868V34.904C107.402 35.534 107.852 36.002 109.076 36.002ZM111.938 36.614C111.506 37.136 110.426 38.198 108.086 38.198H107.798C105.008 38.198 103.856 36.686 103.856 35.03V34.958C103.856 33.23 104.954 32.168 108.338 31.88L111.074 31.646C111.632 31.592 111.83 31.412 111.83 30.998C111.83 30.53 111.686 30.026 109.742 30.026C107.906 30.026 107.726 30.746 107.726 31.124H104.126V31.088C104.126 30.098 104.522 27.776 109.436 27.776H109.994C114.944 27.776 115.25 29.81 115.25 31.142V34.436C115.25 35.066 115.376 35.318 116.078 35.318H116.456V38H113.612C112.568 38 112.082 37.262 111.938 36.614ZM126.702 38H118.458V28.01H126.342C128.628 28.01 130.068 28.82 130.068 30.404V30.494C130.068 31.736 129.276 32.474 128.07 32.672C129.294 32.816 130.392 33.68 130.392 35.12V35.192C130.392 37.01 129.204 38 126.702 38ZM121.968 31.988H125.19C126.036 31.988 126.468 31.664 126.468 31.034V30.944C126.468 30.368 126.072 30.026 125.19 30.026H121.968V31.988ZM121.968 35.984H125.334C126.27 35.984 126.792 35.678 126.792 34.976V34.832C126.792 34.202 126.36 33.806 125.334 33.806H121.968V35.984ZM10.998 56.762L8.568 51.308L6.21 56.762H10.998ZM13.338 62L12.24 59.516H5.004L3.924 62H0.198L6.138 48.608H11.106L17.316 62H13.338ZM22.4758 62H18.9658V52.01H22.4758V55.646H27.3718V52.01H30.8818V62H27.3718V58.31H22.4758V62ZM36.6638 62V54.674H32.7938V52.01H44.0438V54.674H40.1738V62H36.6638ZM52.2122 62.27H51.6542C46.2722 62.27 45.4442 58.994 45.4442 57.176V56.924C45.4442 55.124 46.2722 51.74 51.6362 51.74H52.2302C57.7742 51.74 58.4222 55.142 58.4222 56.906V57.194C58.4222 58.994 57.7742 62.27 52.2122 62.27ZM51.8342 59.642H52.0322C54.2462 59.642 54.8042 58.058 54.8042 56.96C54.8042 55.826 54.2462 54.314 52.0322 54.314H51.8342C49.5302 54.314 49.0622 55.826 49.0622 56.96C49.0622 58.058 49.5302 59.642 51.8342 59.642ZM64.3469 62H60.8369V52.01H64.3469V55.646H69.2429V52.01H72.7529V62H69.2429V58.31H64.3469V62ZM81.9368 62.27H81.3788C75.9968 62.27 75.1688 58.994 75.1688 57.176V56.924C75.1688 55.124 75.9968 51.74 81.3608 51.74H81.9548C87.4988 51.74 88.1468 55.142 88.1468 56.906V57.194C88.1468 58.994 87.4988 62.27 81.9368 62.27ZM81.5588 59.642H81.7568C83.9708 59.642 84.5288 58.058 84.5288 56.96C84.5288 55.826 83.9708 54.314 81.7568 54.314H81.5588C79.2548 54.314 78.7868 55.826 78.7868 56.96C78.7868 58.058 79.2548 59.642 81.5588 59.642ZM98.8055 62H90.5615V52.01H98.4455C100.732 52.01 102.172 52.82 102.172 54.404V54.494C102.172 55.736 101.38 56.474 100.174 56.672C101.398 56.816 102.496 57.68 102.496 59.12V59.192C102.496 61.01 101.308 62 98.8055 62ZM94.0715 55.988H97.2935C98.1395 55.988 98.5715 55.664 98.5715 55.034V54.944C98.5715 54.368 98.1755 54.026 97.2935 54.026H94.0715V55.988ZM94.0715 59.984H97.4375C98.3735 59.984 98.8955 59.678 98.8955 58.976V58.832C98.8955 58.202 98.4635 57.806 97.4375 57.806H94.0715V59.984ZM113.364 55.952L108.54 62H104.94V52.01H108.45V58.058L113.274 52.01H116.874V62H113.364V55.952ZM127.21 52.01H130.72V62H127.21V58.562C126.436 58.652 125.536 58.742 124.6 58.742C120.64 58.742 119.146 57.626 119.146 54.458V52.01H122.656V53.81C122.656 55.682 123.286 56.006 125.14 56.006C125.842 56.006 126.652 55.952 127.21 55.88V52.01Z" fill="url(#paint1_radial_41_92)" style="mix-blend-mode:overlay"/>
<path d="M11.808 14L5.364 7.7V14H1.656V0.608H5.364V6.116L11.628 0.608H16.344L9.288 6.746L16.65 14H11.808ZM23.5247 14.27H22.9667C17.5847 14.27 16.7567 10.994 16.7567 9.176V8.924C16.7567 7.124 17.5847 3.74 22.9487 3.74H23.5427C29.0867 3.74 29.7347 7.142 29.7347 8.906V9.194C29.7347 10.994 29.0867 14.27 23.5247 14.27ZM23.1467 11.642H23.3447C25.5587 11.642 26.1167 10.058 26.1167 8.96C26.1167 7.826 25.5587 6.314 23.3447 6.314H23.1467C20.8427 6.314 20.3747 7.826 20.3747 8.96C20.3747 10.058 20.8427 11.642 23.1467 11.642ZM43.1876 11.048V11.156C43.1876 13.154 41.5136 14.27 37.6796 14.27H37.3556C33.2516 14.27 31.4696 12.74 31.4696 10.67V10.526H35.2316C35.2856 11.642 36.3116 12.056 37.5356 12.056C38.8496 12.056 39.5696 11.66 39.5696 10.868V10.814C39.5696 10.076 38.9936 9.896 37.9856 9.896H35.6096V7.754H37.9856C38.7596 7.754 39.2456 7.448 39.2456 6.872V6.818C39.2456 6.224 38.6516 5.918 37.4456 5.918C36.0956 5.918 35.3756 6.242 35.3216 6.944H31.5596V6.89C31.5596 4.748 34.0616 3.74 37.3196 3.74H37.6076C40.9736 3.74 42.8636 4.55 42.8636 6.422V6.494C42.8636 8.006 41.7116 8.582 40.8836 8.78C41.8916 8.978 43.1876 9.464 43.1876 11.048ZM53.7339 14V6.674H49.7739C49.7739 9.356 49.6839 10.85 49.3419 11.768C48.9639 12.776 48.4599 14 45.8139 14H44.7159V11.39H44.9319C45.5619 11.39 46.0299 11.174 46.2279 10.256C46.3719 9.482 46.4259 8.636 46.4259 4.01H57.2439V14H53.7339ZM66.4154 14.27H65.8574C60.4754 14.27 59.6474 10.994 59.6474 9.176V8.924C59.6474 7.124 60.4754 3.74 65.8394 3.74H66.4334C71.9774 3.74 72.6254 7.142 72.6254 8.906V9.194C72.6254 10.994 71.9774 14.27 66.4154 14.27ZM66.0374 11.642H66.2354C68.4494 11.642 69.0074 10.058 69.0074 8.96C69.0074 7.826 68.4494 6.314 66.2354 6.314H66.0374C63.7334 6.314 63.2654 7.826 63.2654 8.96C63.2654 10.058 63.7334 11.642 66.0374 11.642ZM83.284 14H75.04V4.01H82.924C85.21 4.01 86.65 4.82 86.65 6.404V6.494C86.65 7.736 85.858 8.474 84.652 8.672C85.876 8.816 86.974 9.68 86.974 11.12V11.192C86.974 13.01 85.786 14 83.284 14ZM78.55 7.988H81.772C82.618 7.988 83.05 7.664 83.05 7.034V6.944C83.05 6.368 82.654 6.026 81.772 6.026H78.55V7.988ZM78.55 11.984H81.916C82.852 11.984 83.374 11.678 83.374 10.976V10.832C83.374 10.202 82.942 9.806 81.916 9.806H78.55V11.984ZM9.63 38.198H8.802C2.682 38.198 1.062 34.274 1.062 31.538V30.998C1.062 28.208 2.682 24.41 8.802 24.41H9.63C15.246 24.41 17.118 27.164 17.118 29.702V29.738H13.302C13.248 29.36 12.744 27.47 9.216 27.47C5.94 27.47 4.914 29.306 4.914 31.106V31.358C4.914 33.014 5.976 35.12 9.234 35.12C12.798 35.12 13.248 33.194 13.302 32.762H17.118V32.816C17.118 35.264 15.318 38.198 9.63 38.198ZM22.443 38V30.674H18.573V28.01H29.823V30.674H25.953V38H22.443ZM36.4435 36.002C38.4955 36.002 39.1975 34.706 39.1975 33.95V33.176C38.8915 33.302 38.0095 33.482 37.0015 33.644C35.3095 33.932 34.7695 34.166 34.7695 34.868V34.904C34.7695 35.534 35.2195 36.002 36.4435 36.002ZM39.3055 36.614C38.8735 37.136 37.7935 38.198 35.4535 38.198H35.1655C32.3755 38.198 31.2235 36.686 31.2235 35.03V34.958C31.2235 33.23 32.3215 32.168 35.7055 31.88L38.4415 31.646C38.9995 31.592 39.1975 31.412 39.1975 30.998C39.1975 30.53 39.0535 30.026 37.1095 30.026C35.2735 30.026 35.0935 30.746 35.0935 31.124H31.4935V31.088C31.4935 30.098 31.8895 27.776 36.8035 27.776H37.3615C42.3115 27.776 42.6175 29.81 42.6175 31.142V34.436C42.6175 35.066 42.7435 35.318 43.4455 35.318H43.8235V38H40.9795C39.9355 38 39.4495 37.262 39.3055 36.614ZM49.3352 38H45.8252V28.01H49.3352V31.646H54.2312V28.01H57.7412V38H54.2312V34.31H49.3352V38ZM69.0851 31.952L64.2611 38H60.6611V28.01H64.1711V34.058L68.9951 28.01H72.5951V38H69.0851V31.952ZM83.8666 34.076H87.5386C87.5386 35.588 86.6386 38.27 81.8326 38.27H80.9506C75.9646 38.27 75.0286 35.03 75.0286 33.14V32.888C75.0286 30.998 75.9106 27.74 80.9326 27.74H81.7606C86.5846 27.74 87.5386 30.368 87.5386 31.808V31.826H83.8666C83.8126 31.538 83.4706 30.296 81.4006 30.296H81.2206C79.1506 30.296 78.6646 31.718 78.6646 32.924V32.942C78.6646 34.184 79.2586 35.66 81.2926 35.66H81.4726C83.5606 35.66 83.8666 34.31 83.8666 34.076ZM97.9429 38V30.674H93.9829C93.9829 33.356 93.8929 34.85 93.5509 35.768C93.1729 36.776 92.6689 38 90.0229 38H88.9249V35.39H89.1409C89.7709 35.39 90.2389 35.174 90.4369 34.256C90.5809 33.482 90.6349 32.636 90.6349 28.01H101.453V38H97.9429ZM109.076 36.002C111.128 36.002 111.83 34.706 111.83 33.95V33.176C111.524 33.302 110.642 33.482 109.634 33.644C107.942 33.932 107.402 34.166 107.402 34.868V34.904C107.402 35.534 107.852 36.002 109.076 36.002ZM111.938 36.614C111.506 37.136 110.426 38.198 108.086 38.198H107.798C105.008 38.198 103.856 36.686 103.856 35.03V34.958C103.856 33.23 104.954 32.168 108.338 31.88L111.074 31.646C111.632 31.592 111.83 31.412 111.83 30.998C111.83 30.53 111.686 30.026 109.742 30.026C107.906 30.026 107.726 30.746 107.726 31.124H104.126V31.088C104.126 30.098 104.522 27.776 109.436 27.776H109.994C114.944 27.776 115.25 29.81 115.25 31.142V34.436C115.25 35.066 115.376 35.318 116.078 35.318H116.456V38H113.612C112.568 38 112.082 37.262 111.938 36.614ZM126.702 38H118.458V28.01H126.342C128.628 28.01 130.068 28.82 130.068 30.404V30.494C130.068 31.736 129.276 32.474 128.07 32.672C129.294 32.816 130.392 33.68 130.392 35.12V35.192C130.392 37.01 129.204 38 126.702 38ZM121.968 31.988H125.19C126.036 31.988 126.468 31.664 126.468 31.034V30.944C126.468 30.368 126.072 30.026 125.19 30.026H121.968V31.988ZM121.968 35.984H125.334C126.27 35.984 126.792 35.678 126.792 34.976V34.832C126.792 34.202 126.36 33.806 125.334 33.806H121.968V35.984ZM10.998 56.762L8.568 51.308L6.21 56.762H10.998ZM13.338 62L12.24 59.516H5.004L3.924 62H0.198L6.138 48.608H11.106L17.316 62H13.338ZM22.4758 62H18.9658V52.01H22.4758V55.646H27.3718V52.01H30.8818V62H27.3718V58.31H22.4758V62ZM36.6638 62V54.674H32.7938V52.01H44.0438V54.674H40.1738V62H36.6638ZM52.2122 62.27H51.6542C46.2722 62.27 45.4442 58.994 45.4442 57.176V56.924C45.4442 55.124 46.2722 51.74 51.6362 51.74H52.2302C57.7742 51.74 58.4222 55.142 58.4222 56.906V57.194C58.4222 58.994 57.7742 62.27 52.2122 62.27ZM51.8342 59.642H52.0322C54.2462 59.642 54.8042 58.058 54.8042 56.96C54.8042 55.826 54.2462 54.314 52.0322 54.314H51.8342C49.5302 54.314 49.0622 55.826 49.0622 56.96C49.0622 58.058 49.5302 59.642 51.8342 59.642ZM64.3469 62H60.8369V52.01H64.3469V55.646H69.2429V52.01H72.7529V62H69.2429V58.31H64.3469V62ZM81.9368 62.27H81.3788C75.9968 62.27 75.1688 58.994 75.1688 57.176V56.924C75.1688 55.124 75.9968 51.74 81.3608 51.74H81.9548C87.4988 51.74 88.1468 55.142 88.1468 56.906V57.194C88.1468 58.994 87.4988 62.27 81.9368 62.27ZM81.5588 59.642H81.7568C83.9708 59.642 84.5288 58.058 84.5288 56.96C84.5288 55.826 83.9708 54.314 81.7568 54.314H81.5588C79.2548 54.314 78.7868 55.826 78.7868 56.96C78.7868 58.058 79.2548 59.642 81.5588 59.642ZM98.8055 62H90.5615V52.01H98.4455C100.732 52.01 102.172 52.82 102.172 54.404V54.494C102.172 55.736 101.38 56.474 100.174 56.672C101.398 56.816 102.496 57.68 102.496 59.12V59.192C102.496 61.01 101.308 62 98.8055 62ZM94.0715 55.988H97.2935C98.1395 55.988 98.5715 55.664 98.5715 55.034V54.944C98.5715 54.368 98.1755 54.026 97.2935 54.026H94.0715V55.988ZM94.0715 59.984H97.4375C98.3735 59.984 98.8955 59.678 98.8955 58.976V58.832C98.8955 58.202 98.4635 57.806 97.4375 57.806H94.0715V59.984ZM113.364 55.952L108.54 62H104.94V52.01H108.45V58.058L113.274 52.01H116.874V62H113.364V55.952ZM127.21 52.01H130.72V62H127.21V58.562C126.436 58.652 125.536 58.742 124.6 58.742C120.64 58.742 119.146 57.626 119.146 54.458V52.01H122.656V53.81C122.656 55.682 123.286 56.006 125.14 56.006C125.842 56.006 126.652 55.952 127.21 55.88V52.01Z" fill="url(#paint2_radial_41_92)"/>
<path d="M11.808 14L5.364 7.7V14H1.656V0.608H5.364V6.116L11.628 0.608H16.344L9.288 6.746L16.65 14H11.808ZM23.5247 14.27H22.9667C17.5847 14.27 16.7567 10.994 16.7567 9.176V8.924C16.7567 7.124 17.5847 3.74 22.9487 3.74H23.5427C29.0867 3.74 29.7347 7.142 29.7347 8.906V9.194C29.7347 10.994 29.0867 14.27 23.5247 14.27ZM23.1467 11.642H23.3447C25.5587 11.642 26.1167 10.058 26.1167 8.96C26.1167 7.826 25.5587 6.314 23.3447 6.314H23.1467C20.8427 6.314 20.3747 7.826 20.3747 8.96C20.3747 10.058 20.8427 11.642 23.1467 11.642ZM43.1876 11.048V11.156C43.1876 13.154 41.5136 14.27 37.6796 14.27H37.3556C33.2516 14.27 31.4696 12.74 31.4696 10.67V10.526H35.2316C35.2856 11.642 36.3116 12.056 37.5356 12.056C38.8496 12.056 39.5696 11.66 39.5696 10.868V10.814C39.5696 10.076 38.9936 9.896 37.9856 9.896H35.6096V7.754H37.9856C38.7596 7.754 39.2456 7.448 39.2456 6.872V6.818C39.2456 6.224 38.6516 5.918 37.4456 5.918C36.0956 5.918 35.3756 6.242 35.3216 6.944H31.5596V6.89C31.5596 4.748 34.0616 3.74 37.3196 3.74H37.6076C40.9736 3.74 42.8636 4.55 42.8636 6.422V6.494C42.8636 8.006 41.7116 8.582 40.8836 8.78C41.8916 8.978 43.1876 9.464 43.1876 11.048ZM53.7339 14V6.674H49.7739C49.7739 9.356 49.6839 10.85 49.3419 11.768C48.9639 12.776 48.4599 14 45.8139 14H44.7159V11.39H44.9319C45.5619 11.39 46.0299 11.174 46.2279 10.256C46.3719 9.482 46.4259 8.636 46.4259 4.01H57.2439V14H53.7339ZM66.4154 14.27H65.8574C60.4754 14.27 59.6474 10.994 59.6474 9.176V8.924C59.6474 7.124 60.4754 3.74 65.8394 3.74H66.4334C71.9774 3.74 72.6254 7.142 72.6254 8.906V9.194C72.6254 10.994 71.9774 14.27 66.4154 14.27ZM66.0374 11.642H66.2354C68.4494 11.642 69.0074 10.058 69.0074 8.96C69.0074 7.826 68.4494 6.314 66.2354 6.314H66.0374C63.7334 6.314 63.2654 7.826 63.2654 8.96C63.2654 10.058 63.7334 11.642 66.0374 11.642ZM83.284 14H75.04V4.01H82.924C85.21 4.01 86.65 4.82 86.65 6.404V6.494C86.65 7.736 85.858 8.474 84.652 8.672C85.876 8.816 86.974 9.68 86.974 11.12V11.192C86.974 13.01 85.786 14 83.284 14ZM78.55 7.988H81.772C82.618 7.988 83.05 7.664 83.05 7.034V6.944C83.05 6.368 82.654 6.026 81.772 6.026H78.55V7.988ZM78.55 11.984H81.916C82.852 11.984 83.374 11.678 83.374 10.976V10.832C83.374 10.202 82.942 9.806 81.916 9.806H78.55V11.984ZM9.63 38.198H8.802C2.682 38.198 1.062 34.274 1.062 31.538V30.998C1.062 28.208 2.682 24.41 8.802 24.41H9.63C15.246 24.41 17.118 27.164 17.118 29.702V29.738H13.302C13.248 29.36 12.744 27.47 9.216 27.47C5.94 27.47 4.914 29.306 4.914 31.106V31.358C4.914 33.014 5.976 35.12 9.234 35.12C12.798 35.12 13.248 33.194 13.302 32.762H17.118V32.816C17.118 35.264 15.318 38.198 9.63 38.198ZM22.443 38V30.674H18.573V28.01H29.823V30.674H25.953V38H22.443ZM36.4435 36.002C38.4955 36.002 39.1975 34.706 39.1975 33.95V33.176C38.8915 33.302 38.0095 33.482 37.0015 33.644C35.3095 33.932 34.7695 34.166 34.7695 34.868V34.904C34.7695 35.534 35.2195 36.002 36.4435 36.002ZM39.3055 36.614C38.8735 37.136 37.7935 38.198 35.4535 38.198H35.1655C32.3755 38.198 31.2235 36.686 31.2235 35.03V34.958C31.2235 33.23 32.3215 32.168 35.7055 31.88L38.4415 31.646C38.9995 31.592 39.1975 31.412 39.1975 30.998C39.1975 30.53 39.0535 30.026 37.1095 30.026C35.2735 30.026 35.0935 30.746 35.0935 31.124H31.4935V31.088C31.4935 30.098 31.8895 27.776 36.8035 27.776H37.3615C42.3115 27.776 42.6175 29.81 42.6175 31.142V34.436C42.6175 35.066 42.7435 35.318 43.4455 35.318H43.8235V38H40.9795C39.9355 38 39.4495 37.262 39.3055 36.614ZM49.3352 38H45.8252V28.01H49.3352V31.646H54.2312V28.01H57.7412V38H54.2312V34.31H49.3352V38ZM69.0851 31.952L64.2611 38H60.6611V28.01H64.1711V34.058L68.9951 28.01H72.5951V38H69.0851V31.952ZM83.8666 34.076H87.5386C87.5386 35.588 86.6386 38.27 81.8326 38.27H80.9506C75.9646 38.27 75.0286 35.03 75.0286 33.14V32.888C75.0286 30.998 75.9106 27.74 80.9326 27.74H81.7606C86.5846 27.74 87.5386 30.368 87.5386 31.808V31.826H83.8666C83.8126 31.538 83.4706 30.296 81.4006 30.296H81.2206C79.1506 30.296 78.6646 31.718 78.6646 32.924V32.942C78.6646 34.184 79.2586 35.66 81.2926 35.66H81.4726C83.5606 35.66 83.8666 34.31 83.8666 34.076ZM97.9429 38V30.674H93.9829C93.9829 33.356 93.8929 34.85 93.5509 35.768C93.1729 36.776 92.6689 38 90.0229 38H88.9249V35.39H89.1409C89.7709 35.39 90.2389 35.174 90.4369 34.256C90.5809 33.482 90.6349 32.636 90.6349 28.01H101.453V38H97.9429ZM109.076 36.002C111.128 36.002 111.83 34.706 111.83 33.95V33.176C111.524 33.302 110.642 33.482 109.634 33.644C107.942 33.932 107.402 34.166 107.402 34.868V34.904C107.402 35.534 107.852 36.002 109.076 36.002ZM111.938 36.614C111.506 37.136 110.426 38.198 108.086 38.198H107.798C105.008 38.198 103.856 36.686 103.856 35.03V34.958C103.856 33.23 104.954 32.168 108.338 31.88L111.074 31.646C111.632 31.592 111.83 31.412 111.83 30.998C111.83 30.53 111.686 30.026 109.742 30.026C107.906 30.026 107.726 30.746 107.726 31.124H104.126V31.088C104.126 30.098 104.522 27.776 109.436 27.776H109.994C114.944 27.776 115.25 29.81 115.25 31.142V34.436C115.25 35.066 115.376 35.318 116.078 35.318H116.456V38H113.612C112.568 38 112.082 37.262 111.938 36.614ZM126.702 38H118.458V28.01H126.342C128.628 28.01 130.068 28.82 130.068 30.404V30.494C130.068 31.736 129.276 32.474 128.07 32.672C129.294 32.816 130.392 33.68 130.392 35.12V35.192C130.392 37.01 129.204 38 126.702 38ZM121.968 31.988H125.19C126.036 31.988 126.468 31.664 126.468 31.034V30.944C126.468 30.368 126.072 30.026 125.19 30.026H121.968V31.988ZM121.968 35.984H125.334C126.27 35.984 126.792 35.678 126.792 34.976V34.832C126.792 34.202 126.36 33.806 125.334 33.806H121.968V35.984ZM10.998 56.762L8.568 51.308L6.21 56.762H10.998ZM13.338 62L12.24 59.516H5.004L3.924 62H0.198L6.138 48.608H11.106L17.316 62H13.338ZM22.4758 62H18.9658V52.01H22.4758V55.646H27.3718V52.01H30.8818V62H27.3718V58.31H22.4758V62ZM36.6638 62V54.674H32.7938V52.01H44.0438V54.674H40.1738V62H36.6638ZM52.2122 62.27H51.6542C46.2722 62.27 45.4442 58.994 45.4442 57.176V56.924C45.4442 55.124 46.2722 51.74 51.6362 51.74H52.2302C57.7742 51.74 58.4222 55.142 58.4222 56.906V57.194C58.4222 58.994 57.7742 62.27 52.2122 62.27ZM51.8342 59.642H52.0322C54.2462 59.642 54.8042 58.058 54.8042 56.96C54.8042 55.826 54.2462 54.314 52.0322 54.314H51.8342C49.5302 54.314 49.0622 55.826 49.0622 56.96C49.0622 58.058 49.5302 59.642 51.8342 59.642ZM64.3469 62H60.8369V52.01H64.3469V55.646H69.2429V52.01H72.7529V62H69.2429V58.31H64.3469V62ZM81.9368 62.27H81.3788C75.9968 62.27 75.1688 58.994 75.1688 57.176V56.924C75.1688 55.124 75.9968 51.74 81.3608 51.74H81.9548C87.4988 51.74 88.1468 55.142 88.1468 56.906V57.194C88.1468 58.994 87.4988 62.27 81.9368 62.27ZM81.5588 59.642H81.7568C83.9708 59.642 84.5288 58.058 84.5288 56.96C84.5288 55.826 83.9708 54.314 81.7568 54.314H81.5588C79.2548 54.314 78.7868 55.826 78.7868 56.96C78.7868 58.058 79.2548 59.642 81.5588 59.642ZM98.8055 62H90.5615V52.01H98.4455C100.732 52.01 102.172 52.82 102.172 54.404V54.494C102.172 55.736 101.38 56.474 100.174 56.672C101.398 56.816 102.496 57.68 102.496 59.12V59.192C102.496 61.01 101.308 62 98.8055 62ZM94.0715 55.988H97.2935C98.1395 55.988 98.5715 55.664 98.5715 55.034V54.944C98.5715 54.368 98.1755 54.026 97.2935 54.026H94.0715V55.988ZM94.0715 59.984H97.4375C98.3735 59.984 98.8955 59.678 98.8955 58.976V58.832C98.8955 58.202 98.4635 57.806 97.4375 57.806H94.0715V59.984ZM113.364 55.952L108.54 62H104.94V52.01H108.45V58.058L113.274 52.01H116.874V62H113.364V55.952ZM127.21 52.01H130.72V62H127.21V58.562C126.436 58.652 125.536 58.742 124.6 58.742C120.64 58.742 119.146 57.626 119.146 54.458V52.01H122.656V53.81C122.656 55.682 123.286 56.006 125.14 56.006C125.842 56.006 126.652 55.952 127.21 55.88V52.01Z" fill="#C1A875" style="mix-blend-mode:color"/>
<defs>
<linearGradient id="paint0_linear_41_92" x1="8.27014e-07" y1="30" x2="222" y2="30" gradientUnits="userSpaceOnUse">
<stop stop-color="#576167"/>
<stop offset="0.191294" stop-color="#9EA1A2"/>
<stop offset="0.396166" stop-color="#848989"/>
<stop offset="0.62055" stop-color="#576167"/>
<stop offset="0.830299" stop-color="#757A7C"/>
<stop offset="1" stop-color="#576167"/>
</linearGradient>
<radialGradient id="paint1_radial_41_92" cx="0" cy="0" r="1" gradientUnits="userSpaceOnUse" gradientTransform="translate(118.226 2.39326) rotate(90) scale(53.4944 167.95)">
<stop stop-color="white"/>
<stop offset="1" stop-color="white" stop-opacity="0"/>
</radialGradient>
<radialGradient id="paint2_radial_41_92" cx="0" cy="0" r="1" gradientUnits="userSpaceOnUse" gradientTransform="translate(130.783 82.9888) rotate(-89.7344) scale(76.6525 240.162)">
<stop stop-color="white"/>
<stop offset="1" stop-color="white" stop-opacity="0"/>
</radialGradient>
</defs>
</svg>
