<svg width="149" height="66" viewBox="0 0 149 66" fill="none" xmlns="http://www.w3.org/2000/svg">
<path d="M9.396 1.814V0.428H13.104V1.814H15.57C19.116 1.814 21.87 3.254 21.87 7.034V7.178C21.87 10.958 19.098 12.632 15.534 12.632H13.104V14.18H9.396V12.632H6.966C3.402 12.632 0.63 10.958 0.63 7.178V7.034C0.63 3.254 3.384 1.814 6.93 1.814H9.396ZM9.396 4.748H7.704C5.67 4.748 4.482 5.45 4.482 7.034V7.178C4.482 8.996 5.634 9.698 7.704 9.698H9.396V4.748ZM13.104 4.748V9.698H14.796C16.866 9.698 18.018 8.996 18.018 7.178V7.034C18.018 5.45 16.83 4.748 14.796 4.748H13.104ZM30.0357 6.08C28.2177 6.08 27.5337 6.818 27.3537 7.862H32.6457C32.6457 7.124 32.2857 6.08 30.0357 6.08ZM32.7177 10.886H36.3717C36.3717 11.714 35.7237 14.234 30.5577 14.234H29.8917C24.9597 14.234 23.7357 11.534 23.7357 9.14V8.888C23.7357 6.638 24.8517 3.794 29.5857 3.794H30.3777C35.4897 3.794 36.4077 6.638 36.4077 9.428V9.752H27.3177C27.4617 10.904 28.1997 11.84 30.3417 11.84C32.3757 11.84 32.6277 11.048 32.7177 10.886ZM37.8077 16.124V11.336H39.0137C39.6977 9.968 39.8057 6.998 39.8957 4.01H50.4617V11.336H52.2617V16.124H48.9317V14H41.1377V16.124H37.8077ZM42.3257 11.336H46.9517V6.674H43.0457C42.9917 7.97 42.8117 9.95 42.3257 11.336ZM60.4388 14.27H59.8808C54.4988 14.27 53.6708 10.994 53.6708 9.176V8.924C53.6708 7.124 54.4988 3.74 59.8628 3.74H60.4568C66.0008 3.74 66.6488 7.142 66.6488 8.906V9.194C66.6488 10.994 66.0008 14.27 60.4388 14.27ZM60.0608 11.642H60.2588C62.4728 11.642 63.0308 10.058 63.0308 8.96C63.0308 7.826 62.4728 6.314 60.2588 6.314H60.0608C57.7568 6.314 57.2888 7.826 57.2888 8.96C57.2888 10.058 57.7568 11.642 60.0608 11.642ZM71.8376 14V6.674H67.9676V4.01H79.2176V6.674H75.3476V14H71.8376ZM87.3861 14.27H86.8281C81.4461 14.27 80.6181 10.994 80.6181 9.176V8.924C80.6181 7.124 81.4461 3.74 86.8101 3.74H87.4041C92.9481 3.74 93.5961 7.142 93.5961 8.906V9.194C93.5961 10.994 92.9481 14.27 87.3861 14.27ZM87.0081 11.642H87.2061C89.4201 11.642 89.9781 10.058 89.9781 8.96C89.9781 7.826 89.4201 6.314 87.2061 6.314H87.0081C84.7041 6.314 84.2361 7.826 84.2361 8.96C84.2361 10.058 84.7041 11.642 87.0081 11.642ZM104.255 14H96.0107V4.01H103.895C106.181 4.01 107.621 4.82 107.621 6.404V6.494C107.621 7.736 106.829 8.474 105.623 8.672C106.847 8.816 107.945 9.68 107.945 11.12V11.192C107.945 13.01 106.757 14 104.255 14ZM99.5207 7.988H102.743C103.589 7.988 104.021 7.664 104.021 7.034V6.944C104.021 6.368 103.625 6.026 102.743 6.026H99.5207V7.988ZM99.5207 11.984H102.887C103.823 11.984 104.345 11.678 104.345 10.976V10.832C104.345 10.202 103.913 9.806 102.887 9.806H99.5207V11.984ZM115.018 12.002C117.07 12.002 117.772 10.706 117.772 9.95V9.176C117.466 9.302 116.584 9.482 115.576 9.644C113.884 9.932 113.344 10.166 113.344 10.868V10.904C113.344 11.534 113.794 12.002 115.018 12.002ZM117.88 12.614C117.448 13.136 116.368 14.198 114.028 14.198H113.74C110.95 14.198 109.798 12.686 109.798 11.03V10.958C109.798 9.23 110.896 8.168 114.28 7.88L117.016 7.646C117.574 7.592 117.772 7.412 117.772 6.998C117.772 6.53 117.628 6.026 115.684 6.026C113.848 6.026 113.668 6.746 113.668 7.124H110.068V7.088C110.068 6.098 110.464 3.776 115.378 3.776H115.936C120.886 3.776 121.192 5.81 121.192 7.142V10.436C121.192 11.066 121.318 11.318 122.02 11.318H122.398V14H119.554C118.51 14 118.024 13.262 117.88 12.614ZM10.998 32.762L8.568 27.308L6.21 32.762H10.998ZM13.338 38L12.24 35.516H5.004L3.924 38H0.198L6.138 24.608H11.106L17.316 38H13.338ZM22.4758 38H18.9658V28.01H22.4758V31.646H27.3718V28.01H30.8818V38H27.3718V34.31H22.4758V38ZM38.5178 36.002C40.5698 36.002 41.2718 34.706 41.2718 33.95V33.176C40.9658 33.302 40.0838 33.482 39.0758 33.644C37.3838 33.932 36.8438 34.166 36.8438 34.868V34.904C36.8438 35.534 37.2938 36.002 38.5178 36.002ZM41.3798 36.614C40.9478 37.136 39.8678 38.198 37.5278 38.198H37.2398C34.4498 38.198 33.2978 36.686 33.2978 35.03V34.958C33.2978 33.23 34.3958 32.168 37.7798 31.88L40.5158 31.646C41.0738 31.592 41.2718 31.412 41.2718 30.998C41.2718 30.53 41.1278 30.026 39.1838 30.026C37.3478 30.026 37.1678 30.746 37.1678 31.124H33.5678V31.088C33.5678 30.098 33.9638 27.776 38.8778 27.776H39.4358C44.3858 27.776 44.6918 29.81 44.6918 31.142V34.436C44.6918 35.066 44.8178 35.318 45.5198 35.318H45.8978V38H43.0538C42.0098 38 41.5238 37.262 41.3798 36.614ZM56.2514 34.076H59.9234C59.9234 35.588 59.0234 38.27 54.2174 38.27H53.3354C48.3494 38.27 47.4134 35.03 47.4134 33.14V32.888C47.4134 30.998 48.2954 27.74 53.3174 27.74H54.1454C58.9694 27.74 59.9234 30.368 59.9234 31.808V31.826H56.2514C56.1974 31.538 55.8554 30.296 53.7854 30.296H53.6054C51.5354 30.296 51.0494 31.718 51.0494 32.924V32.942C51.0494 34.184 51.6434 35.66 53.6774 35.66H53.8574C55.9454 35.66 56.2514 34.31 56.2514 34.076ZM65.1755 38V30.674H61.3055V28.01H72.5555V30.674H68.6855V38H65.1755ZM79.176 36.002C81.228 36.002 81.93 34.706 81.93 33.95V33.176C81.624 33.302 80.742 33.482 79.734 33.644C78.042 33.932 77.502 34.166 77.502 34.868V34.904C77.502 35.534 77.952 36.002 79.176 36.002ZM82.038 36.614C81.606 37.136 80.526 38.198 78.186 38.198H77.898C75.108 38.198 73.956 36.686 73.956 35.03V34.958C73.956 33.23 75.054 32.168 78.438 31.88L81.174 31.646C81.732 31.592 81.93 31.412 81.93 30.998C81.93 30.53 81.786 30.026 79.842 30.026C78.006 30.026 77.826 30.746 77.826 31.124H74.226V31.088C74.226 30.098 74.622 27.776 79.536 27.776H80.094C85.044 27.776 85.35 29.81 85.35 31.142V34.436C85.35 35.066 85.476 35.318 86.178 35.318H86.556V38H83.712C82.668 38 82.182 37.262 82.038 36.614ZM96.9096 34.076H100.582C100.582 35.588 99.6816 38.27 94.8756 38.27H93.9936C89.0076 38.27 88.0716 35.03 88.0716 33.14V32.888C88.0716 30.998 88.9536 27.74 93.9756 27.74H94.8036C99.6276 27.74 100.582 30.368 100.582 31.808V31.826H96.9096C96.8556 31.538 96.5136 30.296 94.4436 30.296H94.2636C92.1936 30.296 91.7076 31.718 91.7076 32.924V32.942C91.7076 34.184 92.3016 35.66 94.3356 35.66H94.5156C96.6036 35.66 96.9096 34.31 96.9096 34.076ZM111.396 31.952L106.572 38H102.972V28.01H106.482V34.058L111.306 28.01H114.906V38H111.396V31.952ZM126.231 34.652H123.873L120.957 38H116.997L120.255 34.274C118.527 33.932 117.537 32.942 117.537 31.43V31.214C117.537 29.396 119.013 28.01 121.515 28.01H129.741V38H126.231V34.652ZM126.231 30.314H122.469C121.695 30.314 121.047 30.494 121.047 31.286V31.358C121.047 32.132 121.713 32.366 122.487 32.366H126.231V30.314ZM11.808 62L5.364 55.7V62H1.656V48.608H5.364V54.116L11.628 48.608H16.344L9.288 54.746L16.65 62H11.808ZM26.4933 55.952L21.6693 62H18.0693V52.01H21.5793V58.058L26.4033 52.01H30.0033V62H26.4933V55.952ZM42.1028 57.014V56.96C42.1028 55.88 41.5988 54.422 39.4028 54.422H39.2228C37.1168 54.422 36.4508 55.808 36.4508 56.96V57.014C36.4508 58.112 37.1168 59.552 39.2228 59.552H39.4028C41.5988 59.552 42.1028 58.04 42.1028 57.014ZM32.9588 65.438V52.01H36.4328V53.288C36.8648 52.82 38.1788 51.812 40.4468 51.812H40.6808C44.4968 51.812 45.7388 54.422 45.7388 56.798V57.104C45.7388 59.282 44.4608 62.198 40.6628 62.198H40.4108C38.1248 62.198 36.9008 61.154 36.4688 60.722V65.438H32.9588ZM56.6047 55.952L51.7807 62H48.1807V52.01H51.6907V58.058L56.5147 52.01H60.1147V62H56.6047V55.952ZM71.2242 62V54.674H67.2642C67.2642 57.356 67.1742 58.85 66.8322 59.768C66.4542 60.776 65.9502 62 63.3042 62H62.2062V59.39H62.4222C63.0522 59.39 63.5202 59.174 63.7182 58.256C63.8622 57.482 63.9162 56.636 63.9162 52.01H74.7342V62H71.2242ZM85.8316 62V54.674H81.8716C81.8716 57.356 81.7816 58.85 81.4396 59.768C81.0616 60.776 80.5576 62 77.9116 62H76.8136V59.39H77.0296C77.6596 59.39 78.1276 59.174 78.3256 58.256C78.4696 57.482 78.5236 56.636 78.5236 52.01H89.3416V62H85.8316ZM98.513 62.27H97.955C92.573 62.27 91.745 58.994 91.745 57.176V56.924C91.745 55.124 92.573 51.74 97.937 51.74H98.531C104.075 51.74 104.723 55.142 104.723 56.906V57.194C104.723 58.994 104.075 62.27 98.513 62.27ZM98.135 59.642H98.333C100.547 59.642 101.105 58.058 101.105 56.96C101.105 55.826 100.547 54.314 98.333 54.314H98.135C95.831 54.314 95.363 55.826 95.363 56.96C95.363 58.058 95.831 59.642 98.135 59.642ZM115.382 62H107.138V52.01H115.022C117.308 52.01 118.748 52.82 118.748 54.404V54.494C118.748 55.736 117.956 56.474 116.75 56.672C117.974 56.816 119.072 57.68 119.072 59.12V59.192C119.072 61.01 117.884 62 115.382 62ZM110.648 55.988H113.87C114.716 55.988 115.148 55.664 115.148 55.034V54.944C115.148 54.368 114.752 54.026 113.87 54.026H110.648V55.988ZM110.648 59.984H114.014C114.95 59.984 115.472 59.678 115.472 58.976V58.832C115.472 58.202 115.04 57.806 114.014 57.806H110.648V59.984ZM125.027 62H121.517V52.01H125.027V55.646H129.923V52.01H133.433V62H129.923V58.31H125.027V62ZM141.069 60.002C143.121 60.002 143.823 58.706 143.823 57.95V57.176C143.517 57.302 142.635 57.482 141.627 57.644C139.935 57.932 139.395 58.166 139.395 58.868V58.904C139.395 59.534 139.845 60.002 141.069 60.002ZM143.931 60.614C143.499 61.136 142.419 62.198 140.079 62.198H139.791C137.001 62.198 135.849 60.686 135.849 59.03V58.958C135.849 57.23 136.947 56.168 140.331 55.88L143.067 55.646C143.625 55.592 143.823 55.412 143.823 54.998C143.823 54.53 143.679 54.026 141.735 54.026C139.899 54.026 139.719 54.746 139.719 55.124H136.119V55.088C136.119 54.098 136.515 51.776 141.429 51.776H141.987C146.937 51.776 147.243 53.81 147.243 55.142V58.436C147.243 59.066 147.369 59.318 148.071 59.318H148.449V62H145.605C144.561 62 144.075 61.262 143.931 60.614Z" fill="url(#paint0_linear_41_47)"/>
<path d="M9.396 1.814V0.428H13.104V1.814H15.57C19.116 1.814 21.87 3.254 21.87 7.034V7.178C21.87 10.958 19.098 12.632 15.534 12.632H13.104V14.18H9.396V12.632H6.966C3.402 12.632 0.63 10.958 0.63 7.178V7.034C0.63 3.254 3.384 1.814 6.93 1.814H9.396ZM9.396 4.748H7.704C5.67 4.748 4.482 5.45 4.482 7.034V7.178C4.482 8.996 5.634 9.698 7.704 9.698H9.396V4.748ZM13.104 4.748V9.698H14.796C16.866 9.698 18.018 8.996 18.018 7.178V7.034C18.018 5.45 16.83 4.748 14.796 4.748H13.104ZM30.0357 6.08C28.2177 6.08 27.5337 6.818 27.3537 7.862H32.6457C32.6457 7.124 32.2857 6.08 30.0357 6.08ZM32.7177 10.886H36.3717C36.3717 11.714 35.7237 14.234 30.5577 14.234H29.8917C24.9597 14.234 23.7357 11.534 23.7357 9.14V8.888C23.7357 6.638 24.8517 3.794 29.5857 3.794H30.3777C35.4897 3.794 36.4077 6.638 36.4077 9.428V9.752H27.3177C27.4617 10.904 28.1997 11.84 30.3417 11.84C32.3757 11.84 32.6277 11.048 32.7177 10.886ZM37.8077 16.124V11.336H39.0137C39.6977 9.968 39.8057 6.998 39.8957 4.01H50.4617V11.336H52.2617V16.124H48.9317V14H41.1377V16.124H37.8077ZM42.3257 11.336H46.9517V6.674H43.0457C42.9917 7.97 42.8117 9.95 42.3257 11.336ZM60.4388 14.27H59.8808C54.4988 14.27 53.6708 10.994 53.6708 9.176V8.924C53.6708 7.124 54.4988 3.74 59.8628 3.74H60.4568C66.0008 3.74 66.6488 7.142 66.6488 8.906V9.194C66.6488 10.994 66.0008 14.27 60.4388 14.27ZM60.0608 11.642H60.2588C62.4728 11.642 63.0308 10.058 63.0308 8.96C63.0308 7.826 62.4728 6.314 60.2588 6.314H60.0608C57.7568 6.314 57.2888 7.826 57.2888 8.96C57.2888 10.058 57.7568 11.642 60.0608 11.642ZM71.8376 14V6.674H67.9676V4.01H79.2176V6.674H75.3476V14H71.8376ZM87.3861 14.27H86.8281C81.4461 14.27 80.6181 10.994 80.6181 9.176V8.924C80.6181 7.124 81.4461 3.74 86.8101 3.74H87.4041C92.9481 3.74 93.5961 7.142 93.5961 8.906V9.194C93.5961 10.994 92.9481 14.27 87.3861 14.27ZM87.0081 11.642H87.2061C89.4201 11.642 89.9781 10.058 89.9781 8.96C89.9781 7.826 89.4201 6.314 87.2061 6.314H87.0081C84.7041 6.314 84.2361 7.826 84.2361 8.96C84.2361 10.058 84.7041 11.642 87.0081 11.642ZM104.255 14H96.0107V4.01H103.895C106.181 4.01 107.621 4.82 107.621 6.404V6.494C107.621 7.736 106.829 8.474 105.623 8.672C106.847 8.816 107.945 9.68 107.945 11.12V11.192C107.945 13.01 106.757 14 104.255 14ZM99.5207 7.988H102.743C103.589 7.988 104.021 7.664 104.021 7.034V6.944C104.021 6.368 103.625 6.026 102.743 6.026H99.5207V7.988ZM99.5207 11.984H102.887C103.823 11.984 104.345 11.678 104.345 10.976V10.832C104.345 10.202 103.913 9.806 102.887 9.806H99.5207V11.984ZM115.018 12.002C117.07 12.002 117.772 10.706 117.772 9.95V9.176C117.466 9.302 116.584 9.482 115.576 9.644C113.884 9.932 113.344 10.166 113.344 10.868V10.904C113.344 11.534 113.794 12.002 115.018 12.002ZM117.88 12.614C117.448 13.136 116.368 14.198 114.028 14.198H113.74C110.95 14.198 109.798 12.686 109.798 11.03V10.958C109.798 9.23 110.896 8.168 114.28 7.88L117.016 7.646C117.574 7.592 117.772 7.412 117.772 6.998C117.772 6.53 117.628 6.026 115.684 6.026C113.848 6.026 113.668 6.746 113.668 7.124H110.068V7.088C110.068 6.098 110.464 3.776 115.378 3.776H115.936C120.886 3.776 121.192 5.81 121.192 7.142V10.436C121.192 11.066 121.318 11.318 122.02 11.318H122.398V14H119.554C118.51 14 118.024 13.262 117.88 12.614ZM10.998 32.762L8.568 27.308L6.21 32.762H10.998ZM13.338 38L12.24 35.516H5.004L3.924 38H0.198L6.138 24.608H11.106L17.316 38H13.338ZM22.4758 38H18.9658V28.01H22.4758V31.646H27.3718V28.01H30.8818V38H27.3718V34.31H22.4758V38ZM38.5178 36.002C40.5698 36.002 41.2718 34.706 41.2718 33.95V33.176C40.9658 33.302 40.0838 33.482 39.0758 33.644C37.3838 33.932 36.8438 34.166 36.8438 34.868V34.904C36.8438 35.534 37.2938 36.002 38.5178 36.002ZM41.3798 36.614C40.9478 37.136 39.8678 38.198 37.5278 38.198H37.2398C34.4498 38.198 33.2978 36.686 33.2978 35.03V34.958C33.2978 33.23 34.3958 32.168 37.7798 31.88L40.5158 31.646C41.0738 31.592 41.2718 31.412 41.2718 30.998C41.2718 30.53 41.1278 30.026 39.1838 30.026C37.3478 30.026 37.1678 30.746 37.1678 31.124H33.5678V31.088C33.5678 30.098 33.9638 27.776 38.8778 27.776H39.4358C44.3858 27.776 44.6918 29.81 44.6918 31.142V34.436C44.6918 35.066 44.8178 35.318 45.5198 35.318H45.8978V38H43.0538C42.0098 38 41.5238 37.262 41.3798 36.614ZM56.2514 34.076H59.9234C59.9234 35.588 59.0234 38.27 54.2174 38.27H53.3354C48.3494 38.27 47.4134 35.03 47.4134 33.14V32.888C47.4134 30.998 48.2954 27.74 53.3174 27.74H54.1454C58.9694 27.74 59.9234 30.368 59.9234 31.808V31.826H56.2514C56.1974 31.538 55.8554 30.296 53.7854 30.296H53.6054C51.5354 30.296 51.0494 31.718 51.0494 32.924V32.942C51.0494 34.184 51.6434 35.66 53.6774 35.66H53.8574C55.9454 35.66 56.2514 34.31 56.2514 34.076ZM65.1755 38V30.674H61.3055V28.01H72.5555V30.674H68.6855V38H65.1755ZM79.176 36.002C81.228 36.002 81.93 34.706 81.93 33.95V33.176C81.624 33.302 80.742 33.482 79.734 33.644C78.042 33.932 77.502 34.166 77.502 34.868V34.904C77.502 35.534 77.952 36.002 79.176 36.002ZM82.038 36.614C81.606 37.136 80.526 38.198 78.186 38.198H77.898C75.108 38.198 73.956 36.686 73.956 35.03V34.958C73.956 33.23 75.054 32.168 78.438 31.88L81.174 31.646C81.732 31.592 81.93 31.412 81.93 30.998C81.93 30.53 81.786 30.026 79.842 30.026C78.006 30.026 77.826 30.746 77.826 31.124H74.226V31.088C74.226 30.098 74.622 27.776 79.536 27.776H80.094C85.044 27.776 85.35 29.81 85.35 31.142V34.436C85.35 35.066 85.476 35.318 86.178 35.318H86.556V38H83.712C82.668 38 82.182 37.262 82.038 36.614ZM96.9096 34.076H100.582C100.582 35.588 99.6816 38.27 94.8756 38.27H93.9936C89.0076 38.27 88.0716 35.03 88.0716 33.14V32.888C88.0716 30.998 88.9536 27.74 93.9756 27.74H94.8036C99.6276 27.74 100.582 30.368 100.582 31.808V31.826H96.9096C96.8556 31.538 96.5136 30.296 94.4436 30.296H94.2636C92.1936 30.296 91.7076 31.718 91.7076 32.924V32.942C91.7076 34.184 92.3016 35.66 94.3356 35.66H94.5156C96.6036 35.66 96.9096 34.31 96.9096 34.076ZM111.396 31.952L106.572 38H102.972V28.01H106.482V34.058L111.306 28.01H114.906V38H111.396V31.952ZM126.231 34.652H123.873L120.957 38H116.997L120.255 34.274C118.527 33.932 117.537 32.942 117.537 31.43V31.214C117.537 29.396 119.013 28.01 121.515 28.01H129.741V38H126.231V34.652ZM126.231 30.314H122.469C121.695 30.314 121.047 30.494 121.047 31.286V31.358C121.047 32.132 121.713 32.366 122.487 32.366H126.231V30.314ZM11.808 62L5.364 55.7V62H1.656V48.608H5.364V54.116L11.628 48.608H16.344L9.288 54.746L16.65 62H11.808ZM26.4933 55.952L21.6693 62H18.0693V52.01H21.5793V58.058L26.4033 52.01H30.0033V62H26.4933V55.952ZM42.1028 57.014V56.96C42.1028 55.88 41.5988 54.422 39.4028 54.422H39.2228C37.1168 54.422 36.4508 55.808 36.4508 56.96V57.014C36.4508 58.112 37.1168 59.552 39.2228 59.552H39.4028C41.5988 59.552 42.1028 58.04 42.1028 57.014ZM32.9588 65.438V52.01H36.4328V53.288C36.8648 52.82 38.1788 51.812 40.4468 51.812H40.6808C44.4968 51.812 45.7388 54.422 45.7388 56.798V57.104C45.7388 59.282 44.4608 62.198 40.6628 62.198H40.4108C38.1248 62.198 36.9008 61.154 36.4688 60.722V65.438H32.9588ZM56.6047 55.952L51.7807 62H48.1807V52.01H51.6907V58.058L56.5147 52.01H60.1147V62H56.6047V55.952ZM71.2242 62V54.674H67.2642C67.2642 57.356 67.1742 58.85 66.8322 59.768C66.4542 60.776 65.9502 62 63.3042 62H62.2062V59.39H62.4222C63.0522 59.39 63.5202 59.174 63.7182 58.256C63.8622 57.482 63.9162 56.636 63.9162 52.01H74.7342V62H71.2242ZM85.8316 62V54.674H81.8716C81.8716 57.356 81.7816 58.85 81.4396 59.768C81.0616 60.776 80.5576 62 77.9116 62H76.8136V59.39H77.0296C77.6596 59.39 78.1276 59.174 78.3256 58.256C78.4696 57.482 78.5236 56.636 78.5236 52.01H89.3416V62H85.8316ZM98.513 62.27H97.955C92.573 62.27 91.745 58.994 91.745 57.176V56.924C91.745 55.124 92.573 51.74 97.937 51.74H98.531C104.075 51.74 104.723 55.142 104.723 56.906V57.194C104.723 58.994 104.075 62.27 98.513 62.27ZM98.135 59.642H98.333C100.547 59.642 101.105 58.058 101.105 56.96C101.105 55.826 100.547 54.314 98.333 54.314H98.135C95.831 54.314 95.363 55.826 95.363 56.96C95.363 58.058 95.831 59.642 98.135 59.642ZM115.382 62H107.138V52.01H115.022C117.308 52.01 118.748 52.82 118.748 54.404V54.494C118.748 55.736 117.956 56.474 116.75 56.672C117.974 56.816 119.072 57.68 119.072 59.12V59.192C119.072 61.01 117.884 62 115.382 62ZM110.648 55.988H113.87C114.716 55.988 115.148 55.664 115.148 55.034V54.944C115.148 54.368 114.752 54.026 113.87 54.026H110.648V55.988ZM110.648 59.984H114.014C114.95 59.984 115.472 59.678 115.472 58.976V58.832C115.472 58.202 115.04 57.806 114.014 57.806H110.648V59.984ZM125.027 62H121.517V52.01H125.027V55.646H129.923V52.01H133.433V62H129.923V58.31H125.027V62ZM141.069 60.002C143.121 60.002 143.823 58.706 143.823 57.95V57.176C143.517 57.302 142.635 57.482 141.627 57.644C139.935 57.932 139.395 58.166 139.395 58.868V58.904C139.395 59.534 139.845 60.002 141.069 60.002ZM143.931 60.614C143.499 61.136 142.419 62.198 140.079 62.198H139.791C137.001 62.198 135.849 60.686 135.849 59.03V58.958C135.849 57.23 136.947 56.168 140.331 55.88L143.067 55.646C143.625 55.592 143.823 55.412 143.823 54.998C143.823 54.53 143.679 54.026 141.735 54.026C139.899 54.026 139.719 54.746 139.719 55.124H136.119V55.088C136.119 54.098 136.515 51.776 141.429 51.776H141.987C146.937 51.776 147.243 53.81 147.243 55.142V58.436C147.243 59.066 147.369 59.318 148.071 59.318H148.449V62H145.605C144.561 62 144.075 61.262 143.931 60.614Z" fill="url(#paint1_radial_41_47)" style="mix-blend-mode:overlay"/>
<path d="M9.396 1.814V0.428H13.104V1.814H15.57C19.116 1.814 21.87 3.254 21.87 7.034V7.178C21.87 10.958 19.098 12.632 15.534 12.632H13.104V14.18H9.396V12.632H6.966C3.402 12.632 0.63 10.958 0.63 7.178V7.034C0.63 3.254 3.384 1.814 6.93 1.814H9.396ZM9.396 4.748H7.704C5.67 4.748 4.482 5.45 4.482 7.034V7.178C4.482 8.996 5.634 9.698 7.704 9.698H9.396V4.748ZM13.104 4.748V9.698H14.796C16.866 9.698 18.018 8.996 18.018 7.178V7.034C18.018 5.45 16.83 4.748 14.796 4.748H13.104ZM30.0357 6.08C28.2177 6.08 27.5337 6.818 27.3537 7.862H32.6457C32.6457 7.124 32.2857 6.08 30.0357 6.08ZM32.7177 10.886H36.3717C36.3717 11.714 35.7237 14.234 30.5577 14.234H29.8917C24.9597 14.234 23.7357 11.534 23.7357 9.14V8.888C23.7357 6.638 24.8517 3.794 29.5857 3.794H30.3777C35.4897 3.794 36.4077 6.638 36.4077 9.428V9.752H27.3177C27.4617 10.904 28.1997 11.84 30.3417 11.84C32.3757 11.84 32.6277 11.048 32.7177 10.886ZM37.8077 16.124V11.336H39.0137C39.6977 9.968 39.8057 6.998 39.8957 4.01H50.4617V11.336H52.2617V16.124H48.9317V14H41.1377V16.124H37.8077ZM42.3257 11.336H46.9517V6.674H43.0457C42.9917 7.97 42.8117 9.95 42.3257 11.336ZM60.4388 14.27H59.8808C54.4988 14.27 53.6708 10.994 53.6708 9.176V8.924C53.6708 7.124 54.4988 3.74 59.8628 3.74H60.4568C66.0008 3.74 66.6488 7.142 66.6488 8.906V9.194C66.6488 10.994 66.0008 14.27 60.4388 14.27ZM60.0608 11.642H60.2588C62.4728 11.642 63.0308 10.058 63.0308 8.96C63.0308 7.826 62.4728 6.314 60.2588 6.314H60.0608C57.7568 6.314 57.2888 7.826 57.2888 8.96C57.2888 10.058 57.7568 11.642 60.0608 11.642ZM71.8376 14V6.674H67.9676V4.01H79.2176V6.674H75.3476V14H71.8376ZM87.3861 14.27H86.8281C81.4461 14.27 80.6181 10.994 80.6181 9.176V8.924C80.6181 7.124 81.4461 3.74 86.8101 3.74H87.4041C92.9481 3.74 93.5961 7.142 93.5961 8.906V9.194C93.5961 10.994 92.9481 14.27 87.3861 14.27ZM87.0081 11.642H87.2061C89.4201 11.642 89.9781 10.058 89.9781 8.96C89.9781 7.826 89.4201 6.314 87.2061 6.314H87.0081C84.7041 6.314 84.2361 7.826 84.2361 8.96C84.2361 10.058 84.7041 11.642 87.0081 11.642ZM104.255 14H96.0107V4.01H103.895C106.181 4.01 107.621 4.82 107.621 6.404V6.494C107.621 7.736 106.829 8.474 105.623 8.672C106.847 8.816 107.945 9.68 107.945 11.12V11.192C107.945 13.01 106.757 14 104.255 14ZM99.5207 7.988H102.743C103.589 7.988 104.021 7.664 104.021 7.034V6.944C104.021 6.368 103.625 6.026 102.743 6.026H99.5207V7.988ZM99.5207 11.984H102.887C103.823 11.984 104.345 11.678 104.345 10.976V10.832C104.345 10.202 103.913 9.806 102.887 9.806H99.5207V11.984ZM115.018 12.002C117.07 12.002 117.772 10.706 117.772 9.95V9.176C117.466 9.302 116.584 9.482 115.576 9.644C113.884 9.932 113.344 10.166 113.344 10.868V10.904C113.344 11.534 113.794 12.002 115.018 12.002ZM117.88 12.614C117.448 13.136 116.368 14.198 114.028 14.198H113.74C110.95 14.198 109.798 12.686 109.798 11.03V10.958C109.798 9.23 110.896 8.168 114.28 7.88L117.016 7.646C117.574 7.592 117.772 7.412 117.772 6.998C117.772 6.53 117.628 6.026 115.684 6.026C113.848 6.026 113.668 6.746 113.668 7.124H110.068V7.088C110.068 6.098 110.464 3.776 115.378 3.776H115.936C120.886 3.776 121.192 5.81 121.192 7.142V10.436C121.192 11.066 121.318 11.318 122.02 11.318H122.398V14H119.554C118.51 14 118.024 13.262 117.88 12.614ZM10.998 32.762L8.568 27.308L6.21 32.762H10.998ZM13.338 38L12.24 35.516H5.004L3.924 38H0.198L6.138 24.608H11.106L17.316 38H13.338ZM22.4758 38H18.9658V28.01H22.4758V31.646H27.3718V28.01H30.8818V38H27.3718V34.31H22.4758V38ZM38.5178 36.002C40.5698 36.002 41.2718 34.706 41.2718 33.95V33.176C40.9658 33.302 40.0838 33.482 39.0758 33.644C37.3838 33.932 36.8438 34.166 36.8438 34.868V34.904C36.8438 35.534 37.2938 36.002 38.5178 36.002ZM41.3798 36.614C40.9478 37.136 39.8678 38.198 37.5278 38.198H37.2398C34.4498 38.198 33.2978 36.686 33.2978 35.03V34.958C33.2978 33.23 34.3958 32.168 37.7798 31.88L40.5158 31.646C41.0738 31.592 41.2718 31.412 41.2718 30.998C41.2718 30.53 41.1278 30.026 39.1838 30.026C37.3478 30.026 37.1678 30.746 37.1678 31.124H33.5678V31.088C33.5678 30.098 33.9638 27.776 38.8778 27.776H39.4358C44.3858 27.776 44.6918 29.81 44.6918 31.142V34.436C44.6918 35.066 44.8178 35.318 45.5198 35.318H45.8978V38H43.0538C42.0098 38 41.5238 37.262 41.3798 36.614ZM56.2514 34.076H59.9234C59.9234 35.588 59.0234 38.27 54.2174 38.27H53.3354C48.3494 38.27 47.4134 35.03 47.4134 33.14V32.888C47.4134 30.998 48.2954 27.74 53.3174 27.74H54.1454C58.9694 27.74 59.9234 30.368 59.9234 31.808V31.826H56.2514C56.1974 31.538 55.8554 30.296 53.7854 30.296H53.6054C51.5354 30.296 51.0494 31.718 51.0494 32.924V32.942C51.0494 34.184 51.6434 35.66 53.6774 35.66H53.8574C55.9454 35.66 56.2514 34.31 56.2514 34.076ZM65.1755 38V30.674H61.3055V28.01H72.5555V30.674H68.6855V38H65.1755ZM79.176 36.002C81.228 36.002 81.93 34.706 81.93 33.95V33.176C81.624 33.302 80.742 33.482 79.734 33.644C78.042 33.932 77.502 34.166 77.502 34.868V34.904C77.502 35.534 77.952 36.002 79.176 36.002ZM82.038 36.614C81.606 37.136 80.526 38.198 78.186 38.198H77.898C75.108 38.198 73.956 36.686 73.956 35.03V34.958C73.956 33.23 75.054 32.168 78.438 31.88L81.174 31.646C81.732 31.592 81.93 31.412 81.93 30.998C81.93 30.53 81.786 30.026 79.842 30.026C78.006 30.026 77.826 30.746 77.826 31.124H74.226V31.088C74.226 30.098 74.622 27.776 79.536 27.776H80.094C85.044 27.776 85.35 29.81 85.35 31.142V34.436C85.35 35.066 85.476 35.318 86.178 35.318H86.556V38H83.712C82.668 38 82.182 37.262 82.038 36.614ZM96.9096 34.076H100.582C100.582 35.588 99.6816 38.27 94.8756 38.27H93.9936C89.0076 38.27 88.0716 35.03 88.0716 33.14V32.888C88.0716 30.998 88.9536 27.74 93.9756 27.74H94.8036C99.6276 27.74 100.582 30.368 100.582 31.808V31.826H96.9096C96.8556 31.538 96.5136 30.296 94.4436 30.296H94.2636C92.1936 30.296 91.7076 31.718 91.7076 32.924V32.942C91.7076 34.184 92.3016 35.66 94.3356 35.66H94.5156C96.6036 35.66 96.9096 34.31 96.9096 34.076ZM111.396 31.952L106.572 38H102.972V28.01H106.482V34.058L111.306 28.01H114.906V38H111.396V31.952ZM126.231 34.652H123.873L120.957 38H116.997L120.255 34.274C118.527 33.932 117.537 32.942 117.537 31.43V31.214C117.537 29.396 119.013 28.01 121.515 28.01H129.741V38H126.231V34.652ZM126.231 30.314H122.469C121.695 30.314 121.047 30.494 121.047 31.286V31.358C121.047 32.132 121.713 32.366 122.487 32.366H126.231V30.314ZM11.808 62L5.364 55.7V62H1.656V48.608H5.364V54.116L11.628 48.608H16.344L9.288 54.746L16.65 62H11.808ZM26.4933 55.952L21.6693 62H18.0693V52.01H21.5793V58.058L26.4033 52.01H30.0033V62H26.4933V55.952ZM42.1028 57.014V56.96C42.1028 55.88 41.5988 54.422 39.4028 54.422H39.2228C37.1168 54.422 36.4508 55.808 36.4508 56.96V57.014C36.4508 58.112 37.1168 59.552 39.2228 59.552H39.4028C41.5988 59.552 42.1028 58.04 42.1028 57.014ZM32.9588 65.438V52.01H36.4328V53.288C36.8648 52.82 38.1788 51.812 40.4468 51.812H40.6808C44.4968 51.812 45.7388 54.422 45.7388 56.798V57.104C45.7388 59.282 44.4608 62.198 40.6628 62.198H40.4108C38.1248 62.198 36.9008 61.154 36.4688 60.722V65.438H32.9588ZM56.6047 55.952L51.7807 62H48.1807V52.01H51.6907V58.058L56.5147 52.01H60.1147V62H56.6047V55.952ZM71.2242 62V54.674H67.2642C67.2642 57.356 67.1742 58.85 66.8322 59.768C66.4542 60.776 65.9502 62 63.3042 62H62.2062V59.39H62.4222C63.0522 59.39 63.5202 59.174 63.7182 58.256C63.8622 57.482 63.9162 56.636 63.9162 52.01H74.7342V62H71.2242ZM85.8316 62V54.674H81.8716C81.8716 57.356 81.7816 58.85 81.4396 59.768C81.0616 60.776 80.5576 62 77.9116 62H76.8136V59.39H77.0296C77.6596 59.39 78.1276 59.174 78.3256 58.256C78.4696 57.482 78.5236 56.636 78.5236 52.01H89.3416V62H85.8316ZM98.513 62.27H97.955C92.573 62.27 91.745 58.994 91.745 57.176V56.924C91.745 55.124 92.573 51.74 97.937 51.74H98.531C104.075 51.74 104.723 55.142 104.723 56.906V57.194C104.723 58.994 104.075 62.27 98.513 62.27ZM98.135 59.642H98.333C100.547 59.642 101.105 58.058 101.105 56.96C101.105 55.826 100.547 54.314 98.333 54.314H98.135C95.831 54.314 95.363 55.826 95.363 56.96C95.363 58.058 95.831 59.642 98.135 59.642ZM115.382 62H107.138V52.01H115.022C117.308 52.01 118.748 52.82 118.748 54.404V54.494C118.748 55.736 117.956 56.474 116.75 56.672C117.974 56.816 119.072 57.68 119.072 59.12V59.192C119.072 61.01 117.884 62 115.382 62ZM110.648 55.988H113.87C114.716 55.988 115.148 55.664 115.148 55.034V54.944C115.148 54.368 114.752 54.026 113.87 54.026H110.648V55.988ZM110.648 59.984H114.014C114.95 59.984 115.472 59.678 115.472 58.976V58.832C115.472 58.202 115.04 57.806 114.014 57.806H110.648V59.984ZM125.027 62H121.517V52.01H125.027V55.646H129.923V52.01H133.433V62H129.923V58.31H125.027V62ZM141.069 60.002C143.121 60.002 143.823 58.706 143.823 57.95V57.176C143.517 57.302 142.635 57.482 141.627 57.644C139.935 57.932 139.395 58.166 139.395 58.868V58.904C139.395 59.534 139.845 60.002 141.069 60.002ZM143.931 60.614C143.499 61.136 142.419 62.198 140.079 62.198H139.791C137.001 62.198 135.849 60.686 135.849 59.03V58.958C135.849 57.23 136.947 56.168 140.331 55.88L143.067 55.646C143.625 55.592 143.823 55.412 143.823 54.998C143.823 54.53 143.679 54.026 141.735 54.026C139.899 54.026 139.719 54.746 139.719 55.124H136.119V55.088C136.119 54.098 136.515 51.776 141.429 51.776H141.987C146.937 51.776 147.243 53.81 147.243 55.142V58.436C147.243 59.066 147.369 59.318 148.071 59.318H148.449V62H145.605C144.561 62 144.075 61.262 143.931 60.614Z" fill="url(#paint2_radial_41_47)"/>
<path d="M9.396 1.814V0.428H13.104V1.814H15.57C19.116 1.814 21.87 3.254 21.87 7.034V7.178C21.87 10.958 19.098 12.632 15.534 12.632H13.104V14.18H9.396V12.632H6.966C3.402 12.632 0.63 10.958 0.63 7.178V7.034C0.63 3.254 3.384 1.814 6.93 1.814H9.396ZM9.396 4.748H7.704C5.67 4.748 4.482 5.45 4.482 7.034V7.178C4.482 8.996 5.634 9.698 7.704 9.698H9.396V4.748ZM13.104 4.748V9.698H14.796C16.866 9.698 18.018 8.996 18.018 7.178V7.034C18.018 5.45 16.83 4.748 14.796 4.748H13.104ZM30.0357 6.08C28.2177 6.08 27.5337 6.818 27.3537 7.862H32.6457C32.6457 7.124 32.2857 6.08 30.0357 6.08ZM32.7177 10.886H36.3717C36.3717 11.714 35.7237 14.234 30.5577 14.234H29.8917C24.9597 14.234 23.7357 11.534 23.7357 9.14V8.888C23.7357 6.638 24.8517 3.794 29.5857 3.794H30.3777C35.4897 3.794 36.4077 6.638 36.4077 9.428V9.752H27.3177C27.4617 10.904 28.1997 11.84 30.3417 11.84C32.3757 11.84 32.6277 11.048 32.7177 10.886ZM37.8077 16.124V11.336H39.0137C39.6977 9.968 39.8057 6.998 39.8957 4.01H50.4617V11.336H52.2617V16.124H48.9317V14H41.1377V16.124H37.8077ZM42.3257 11.336H46.9517V6.674H43.0457C42.9917 7.97 42.8117 9.95 42.3257 11.336ZM60.4388 14.27H59.8808C54.4988 14.27 53.6708 10.994 53.6708 9.176V8.924C53.6708 7.124 54.4988 3.74 59.8628 3.74H60.4568C66.0008 3.74 66.6488 7.142 66.6488 8.906V9.194C66.6488 10.994 66.0008 14.27 60.4388 14.27ZM60.0608 11.642H60.2588C62.4728 11.642 63.0308 10.058 63.0308 8.96C63.0308 7.826 62.4728 6.314 60.2588 6.314H60.0608C57.7568 6.314 57.2888 7.826 57.2888 8.96C57.2888 10.058 57.7568 11.642 60.0608 11.642ZM71.8376 14V6.674H67.9676V4.01H79.2176V6.674H75.3476V14H71.8376ZM87.3861 14.27H86.8281C81.4461 14.27 80.6181 10.994 80.6181 9.176V8.924C80.6181 7.124 81.4461 3.74 86.8101 3.74H87.4041C92.9481 3.74 93.5961 7.142 93.5961 8.906V9.194C93.5961 10.994 92.9481 14.27 87.3861 14.27ZM87.0081 11.642H87.2061C89.4201 11.642 89.9781 10.058 89.9781 8.96C89.9781 7.826 89.4201 6.314 87.2061 6.314H87.0081C84.7041 6.314 84.2361 7.826 84.2361 8.96C84.2361 10.058 84.7041 11.642 87.0081 11.642ZM104.255 14H96.0107V4.01H103.895C106.181 4.01 107.621 4.82 107.621 6.404V6.494C107.621 7.736 106.829 8.474 105.623 8.672C106.847 8.816 107.945 9.68 107.945 11.12V11.192C107.945 13.01 106.757 14 104.255 14ZM99.5207 7.988H102.743C103.589 7.988 104.021 7.664 104.021 7.034V6.944C104.021 6.368 103.625 6.026 102.743 6.026H99.5207V7.988ZM99.5207 11.984H102.887C103.823 11.984 104.345 11.678 104.345 10.976V10.832C104.345 10.202 103.913 9.806 102.887 9.806H99.5207V11.984ZM115.018 12.002C117.07 12.002 117.772 10.706 117.772 9.95V9.176C117.466 9.302 116.584 9.482 115.576 9.644C113.884 9.932 113.344 10.166 113.344 10.868V10.904C113.344 11.534 113.794 12.002 115.018 12.002ZM117.88 12.614C117.448 13.136 116.368 14.198 114.028 14.198H113.74C110.95 14.198 109.798 12.686 109.798 11.03V10.958C109.798 9.23 110.896 8.168 114.28 7.88L117.016 7.646C117.574 7.592 117.772 7.412 117.772 6.998C117.772 6.53 117.628 6.026 115.684 6.026C113.848 6.026 113.668 6.746 113.668 7.124H110.068V7.088C110.068 6.098 110.464 3.776 115.378 3.776H115.936C120.886 3.776 121.192 5.81 121.192 7.142V10.436C121.192 11.066 121.318 11.318 122.02 11.318H122.398V14H119.554C118.51 14 118.024 13.262 117.88 12.614ZM10.998 32.762L8.568 27.308L6.21 32.762H10.998ZM13.338 38L12.24 35.516H5.004L3.924 38H0.198L6.138 24.608H11.106L17.316 38H13.338ZM22.4758 38H18.9658V28.01H22.4758V31.646H27.3718V28.01H30.8818V38H27.3718V34.31H22.4758V38ZM38.5178 36.002C40.5698 36.002 41.2718 34.706 41.2718 33.95V33.176C40.9658 33.302 40.0838 33.482 39.0758 33.644C37.3838 33.932 36.8438 34.166 36.8438 34.868V34.904C36.8438 35.534 37.2938 36.002 38.5178 36.002ZM41.3798 36.614C40.9478 37.136 39.8678 38.198 37.5278 38.198H37.2398C34.4498 38.198 33.2978 36.686 33.2978 35.03V34.958C33.2978 33.23 34.3958 32.168 37.7798 31.88L40.5158 31.646C41.0738 31.592 41.2718 31.412 41.2718 30.998C41.2718 30.53 41.1278 30.026 39.1838 30.026C37.3478 30.026 37.1678 30.746 37.1678 31.124H33.5678V31.088C33.5678 30.098 33.9638 27.776 38.8778 27.776H39.4358C44.3858 27.776 44.6918 29.81 44.6918 31.142V34.436C44.6918 35.066 44.8178 35.318 45.5198 35.318H45.8978V38H43.0538C42.0098 38 41.5238 37.262 41.3798 36.614ZM56.2514 34.076H59.9234C59.9234 35.588 59.0234 38.27 54.2174 38.27H53.3354C48.3494 38.27 47.4134 35.03 47.4134 33.14V32.888C47.4134 30.998 48.2954 27.74 53.3174 27.74H54.1454C58.9694 27.74 59.9234 30.368 59.9234 31.808V31.826H56.2514C56.1974 31.538 55.8554 30.296 53.7854 30.296H53.6054C51.5354 30.296 51.0494 31.718 51.0494 32.924V32.942C51.0494 34.184 51.6434 35.66 53.6774 35.66H53.8574C55.9454 35.66 56.2514 34.31 56.2514 34.076ZM65.1755 38V30.674H61.3055V28.01H72.5555V30.674H68.6855V38H65.1755ZM79.176 36.002C81.228 36.002 81.93 34.706 81.93 33.95V33.176C81.624 33.302 80.742 33.482 79.734 33.644C78.042 33.932 77.502 34.166 77.502 34.868V34.904C77.502 35.534 77.952 36.002 79.176 36.002ZM82.038 36.614C81.606 37.136 80.526 38.198 78.186 38.198H77.898C75.108 38.198 73.956 36.686 73.956 35.03V34.958C73.956 33.23 75.054 32.168 78.438 31.88L81.174 31.646C81.732 31.592 81.93 31.412 81.93 30.998C81.93 30.53 81.786 30.026 79.842 30.026C78.006 30.026 77.826 30.746 77.826 31.124H74.226V31.088C74.226 30.098 74.622 27.776 79.536 27.776H80.094C85.044 27.776 85.35 29.81 85.35 31.142V34.436C85.35 35.066 85.476 35.318 86.178 35.318H86.556V38H83.712C82.668 38 82.182 37.262 82.038 36.614ZM96.9096 34.076H100.582C100.582 35.588 99.6816 38.27 94.8756 38.27H93.9936C89.0076 38.27 88.0716 35.03 88.0716 33.14V32.888C88.0716 30.998 88.9536 27.74 93.9756 27.74H94.8036C99.6276 27.74 100.582 30.368 100.582 31.808V31.826H96.9096C96.8556 31.538 96.5136 30.296 94.4436 30.296H94.2636C92.1936 30.296 91.7076 31.718 91.7076 32.924V32.942C91.7076 34.184 92.3016 35.66 94.3356 35.66H94.5156C96.6036 35.66 96.9096 34.31 96.9096 34.076ZM111.396 31.952L106.572 38H102.972V28.01H106.482V34.058L111.306 28.01H114.906V38H111.396V31.952ZM126.231 34.652H123.873L120.957 38H116.997L120.255 34.274C118.527 33.932 117.537 32.942 117.537 31.43V31.214C117.537 29.396 119.013 28.01 121.515 28.01H129.741V38H126.231V34.652ZM126.231 30.314H122.469C121.695 30.314 121.047 30.494 121.047 31.286V31.358C121.047 32.132 121.713 32.366 122.487 32.366H126.231V30.314ZM11.808 62L5.364 55.7V62H1.656V48.608H5.364V54.116L11.628 48.608H16.344L9.288 54.746L16.65 62H11.808ZM26.4933 55.952L21.6693 62H18.0693V52.01H21.5793V58.058L26.4033 52.01H30.0033V62H26.4933V55.952ZM42.1028 57.014V56.96C42.1028 55.88 41.5988 54.422 39.4028 54.422H39.2228C37.1168 54.422 36.4508 55.808 36.4508 56.96V57.014C36.4508 58.112 37.1168 59.552 39.2228 59.552H39.4028C41.5988 59.552 42.1028 58.04 42.1028 57.014ZM32.9588 65.438V52.01H36.4328V53.288C36.8648 52.82 38.1788 51.812 40.4468 51.812H40.6808C44.4968 51.812 45.7388 54.422 45.7388 56.798V57.104C45.7388 59.282 44.4608 62.198 40.6628 62.198H40.4108C38.1248 62.198 36.9008 61.154 36.4688 60.722V65.438H32.9588ZM56.6047 55.952L51.7807 62H48.1807V52.01H51.6907V58.058L56.5147 52.01H60.1147V62H56.6047V55.952ZM71.2242 62V54.674H67.2642C67.2642 57.356 67.1742 58.85 66.8322 59.768C66.4542 60.776 65.9502 62 63.3042 62H62.2062V59.39H62.4222C63.0522 59.39 63.5202 59.174 63.7182 58.256C63.8622 57.482 63.9162 56.636 63.9162 52.01H74.7342V62H71.2242ZM85.8316 62V54.674H81.8716C81.8716 57.356 81.7816 58.85 81.4396 59.768C81.0616 60.776 80.5576 62 77.9116 62H76.8136V59.39H77.0296C77.6596 59.39 78.1276 59.174 78.3256 58.256C78.4696 57.482 78.5236 56.636 78.5236 52.01H89.3416V62H85.8316ZM98.513 62.27H97.955C92.573 62.27 91.745 58.994 91.745 57.176V56.924C91.745 55.124 92.573 51.74 97.937 51.74H98.531C104.075 51.74 104.723 55.142 104.723 56.906V57.194C104.723 58.994 104.075 62.27 98.513 62.27ZM98.135 59.642H98.333C100.547 59.642 101.105 58.058 101.105 56.96C101.105 55.826 100.547 54.314 98.333 54.314H98.135C95.831 54.314 95.363 55.826 95.363 56.96C95.363 58.058 95.831 59.642 98.135 59.642ZM115.382 62H107.138V52.01H115.022C117.308 52.01 118.748 52.82 118.748 54.404V54.494C118.748 55.736 117.956 56.474 116.75 56.672C117.974 56.816 119.072 57.68 119.072 59.12V59.192C119.072 61.01 117.884 62 115.382 62ZM110.648 55.988H113.87C114.716 55.988 115.148 55.664 115.148 55.034V54.944C115.148 54.368 114.752 54.026 113.87 54.026H110.648V55.988ZM110.648 59.984H114.014C114.95 59.984 115.472 59.678 115.472 58.976V58.832C115.472 58.202 115.04 57.806 114.014 57.806H110.648V59.984ZM125.027 62H121.517V52.01H125.027V55.646H129.923V52.01H133.433V62H129.923V58.31H125.027V62ZM141.069 60.002C143.121 60.002 143.823 58.706 143.823 57.95V57.176C143.517 57.302 142.635 57.482 141.627 57.644C139.935 57.932 139.395 58.166 139.395 58.868V58.904C139.395 59.534 139.845 60.002 141.069 60.002ZM143.931 60.614C143.499 61.136 142.419 62.198 140.079 62.198H139.791C137.001 62.198 135.849 60.686 135.849 59.03V58.958C135.849 57.23 136.947 56.168 140.331 55.88L143.067 55.646C143.625 55.592 143.823 55.412 143.823 54.998C143.823 54.53 143.679 54.026 141.735 54.026C139.899 54.026 139.719 54.746 139.719 55.124H136.119V55.088C136.119 54.098 136.515 51.776 141.429 51.776H141.987C146.937 51.776 147.243 53.81 147.243 55.142V58.436C147.243 59.066 147.369 59.318 148.071 59.318H148.449V62H145.605C144.561 62 144.075 61.262 143.931 60.614Z" fill="#C1A875" style="mix-blend-mode:color"/>
<defs>
<linearGradient id="paint0_linear_41_47" x1="8.27014e-07" y1="30" x2="222" y2="30" gradientUnits="userSpaceOnUse">
<stop stop-color="#576167"/>
<stop offset="0.191294" stop-color="#9EA1A2"/>
<stop offset="0.396166" stop-color="#848989"/>
<stop offset="0.62055" stop-color="#576167"/>
<stop offset="0.830299" stop-color="#757A7C"/>
<stop offset="1" stop-color="#576167"/>
</linearGradient>
<radialGradient id="paint1_radial_41_47" cx="0" cy="0" r="1" gradientUnits="userSpaceOnUse" gradientTransform="translate(118.226 2.39326) rotate(90) scale(53.4944 167.95)">
<stop stop-color="white"/>
<stop offset="1" stop-color="white" stop-opacity="0"/>
</radialGradient>
<radialGradient id="paint2_radial_41_47" cx="0" cy="0" r="1" gradientUnits="userSpaceOnUse" gradientTransform="translate(130.783 82.9888) rotate(-89.7344) scale(76.6525 240.162)">
<stop stop-color="white"/>
<stop offset="1" stop-color="white" stop-opacity="0"/>
</radialGradient>
</defs>
</svg>
