<svg width="216" height="42" viewBox="0 0 216 42" fill="none" xmlns="http://www.w3.org/2000/svg">
<path d="M11.484 14V9.032C10.332 9.176 9.27 9.266 8.19 9.266C3.852 9.266 0.99 8.528 0.99 4.262V0.608H4.698V3.65C4.698 5.81 5.796 6.332 8.694 6.332C9.756 6.332 10.962 6.224 11.484 6.134V0.608H15.192V14H11.484ZM24.1118 6.08C22.2938 6.08 21.6098 6.818 21.4298 7.862H26.7218C26.7218 7.124 26.3618 6.08 24.1118 6.08ZM26.7938 10.886H30.4478C30.4478 11.714 29.7998 14.234 24.6338 14.234H23.9678C19.0358 14.234 17.8118 11.534 17.8118 9.14V8.888C17.8118 6.638 18.9278 3.794 23.6618 3.794H24.4538C29.5658 3.794 30.4838 6.638 30.4838 9.428V9.752H21.3938C21.5378 10.904 22.2758 11.84 24.4178 11.84C26.4518 11.84 26.7038 11.048 26.7938 10.886ZM42.0677 9.014V8.96C42.0677 7.88 41.5637 6.422 39.3677 6.422H39.1877C37.0817 6.422 36.4157 7.808 36.4157 8.96V9.014C36.4157 10.112 37.0817 11.552 39.1877 11.552H39.3677C41.5637 11.552 42.0677 10.04 42.0677 9.014ZM32.9237 17.438V4.01H36.3977V5.288C36.8297 4.82 38.1437 3.812 40.4117 3.812H40.6457C44.4617 3.812 45.7037 6.422 45.7037 8.798V9.104C45.7037 11.282 44.4257 14.198 40.6277 14.198H40.3757C38.0897 14.198 36.8657 13.154 36.4337 12.722V17.438H32.9237ZM51.6555 14H48.1455V4.01H51.6555V7.646H56.5515V4.01H60.0615V14H56.5515V10.31H51.6555V14ZM62.9814 14V4.01H66.4914V6.872H69.2274C72.6474 6.872 73.9794 8.384 73.9794 10.292V10.508C73.9794 12.596 72.6474 14 69.2274 14H62.9814ZM66.4914 11.624H68.7954C69.5154 11.624 70.3794 11.408 70.3794 10.436V10.382C70.3794 9.482 69.5154 9.248 68.7954 9.248H66.4914V11.624ZM78.7674 4.01V14H75.2574V4.01H78.7674ZM81.6846 14V4.01H85.1946V11.336H88.2906V4.01H91.8006V11.336H94.8966V4.01H98.4066V14H81.6846ZM107.583 14.27H107.025C101.643 14.27 100.815 10.994 100.815 9.176V8.924C100.815 7.124 101.643 3.74 107.007 3.74H107.601C113.145 3.74 113.793 7.142 113.793 8.906V9.194C113.793 10.994 113.145 14.27 107.583 14.27ZM107.205 11.642H107.403C109.617 11.642 110.175 10.058 110.175 8.96C110.175 7.826 109.617 6.314 107.403 6.314H107.205C104.901 6.314 104.433 7.826 104.433 8.96C104.433 10.058 104.901 11.642 107.205 11.642ZM124.452 14H116.208V4.01H124.092C126.378 4.01 127.818 4.82 127.818 6.404V6.494C127.818 7.736 127.026 8.474 125.82 8.672C127.044 8.816 128.142 9.68 128.142 11.12V11.192C128.142 13.01 126.954 14 124.452 14ZM119.718 7.988H122.94C123.786 7.988 124.218 7.664 124.218 7.034V6.944C124.218 6.368 123.822 6.026 122.94 6.026H119.718V7.988ZM119.718 11.984H123.084C124.02 11.984 124.542 11.678 124.542 10.976V10.832C124.542 10.202 124.11 9.806 123.084 9.806H119.718V11.984ZM135.215 12.002C137.267 12.002 137.969 10.706 137.969 9.95V9.176C137.663 9.302 136.781 9.482 135.773 9.644C134.081 9.932 133.541 10.166 133.541 10.868V10.904C133.541 11.534 133.991 12.002 135.215 12.002ZM138.077 12.614C137.645 13.136 136.565 14.198 134.225 14.198H133.937C131.147 14.198 129.995 12.686 129.995 11.03V10.958C129.995 9.23 131.093 8.168 134.477 7.88L137.213 7.646C137.771 7.592 137.969 7.412 137.969 6.998C137.969 6.53 137.825 6.026 135.881 6.026C134.045 6.026 133.865 6.746 133.865 7.124H130.265V7.088C130.265 6.098 130.661 3.776 135.575 3.776H136.133C141.083 3.776 141.389 5.81 141.389 7.142V10.436C141.389 11.066 141.515 11.318 142.217 11.318H142.595V14H139.751C138.707 14 138.221 13.262 138.077 12.614ZM172.228 6.998V7.538C172.228 10.418 170.482 14.216 164.362 14.216H163.57C158.188 14.216 156.172 11.3 155.794 8.618H153.706V14H149.998V0.608H153.706V5.576H155.848C156.37 3.002 158.422 0.391999 163.57 0.391999H164.362C170.482 0.391999 172.228 4.064 172.228 6.998ZM168.376 7.394V7.142C168.376 5.486 167.602 3.452 163.966 3.452C160.366 3.452 159.556 5.486 159.556 7.142V7.394C159.556 9.014 160.42 11.138 163.966 11.138C167.584 11.138 168.376 9.014 168.376 7.394ZM182.388 14V6.674H178.428C178.428 9.356 178.338 10.85 177.996 11.768C177.618 12.776 177.114 14 174.468 14H173.37V11.39H173.586C174.216 11.39 174.684 11.174 174.882 10.256C175.026 9.482 175.08 8.636 175.08 4.01H185.898V14H182.388ZM197.23 7.952L192.406 14H188.806V4.01H192.316V10.058L197.14 4.01H200.74V14H197.23V7.952ZM212.065 10.652H209.707L206.791 14H202.831L206.089 10.274C204.361 9.932 203.371 8.942 203.371 7.43V7.214C203.371 5.396 204.847 4.01 207.349 4.01H215.575V14H212.065V10.652ZM212.065 6.314H208.303C207.529 6.314 206.881 6.494 206.881 7.286V7.358C206.881 8.132 207.547 8.366 208.321 8.366H212.065V6.314ZM10.998 32.762L8.568 27.308L6.21 32.762H10.998ZM13.338 38L12.24 35.516H5.004L3.924 38H0.198L6.138 24.608H11.106L17.316 38H13.338ZM27.1558 38V30.674H23.1958C23.1958 33.356 23.1058 34.85 22.7638 35.768C22.3858 36.776 21.8818 38 19.2358 38H18.1378V35.39H18.3538C18.9838 35.39 19.4518 35.174 19.6498 34.256C19.7938 33.482 19.8478 32.636 19.8478 28.01H30.6658V38H27.1558ZM39.3872 30.08C37.5692 30.08 36.8852 30.818 36.7052 31.862H41.9972C41.9972 31.124 41.6372 30.08 39.3872 30.08ZM42.0692 34.886H45.7232C45.7232 35.714 45.0752 38.234 39.9092 38.234H39.2432C34.3112 38.234 33.0872 35.534 33.0872 33.14V32.888C33.0872 30.638 34.2032 27.794 38.9372 27.794H39.7292C44.8412 27.794 45.7592 30.638 45.7592 33.428V33.752H36.6692C36.8132 34.904 37.5512 35.84 39.6932 35.84C41.7272 35.84 41.9792 35.048 42.0692 34.886ZM55.5971 38L51.7091 33.374V38H48.1991V28.01H51.7091V32.006L55.2731 28.01H59.3231L55.1471 32.492L59.7731 38H55.5971ZM69.1186 34.076H72.7906C72.7906 35.588 71.8906 38.27 67.0846 38.27H66.2026C61.2166 38.27 60.2806 35.03 60.2806 33.14V32.888C60.2806 30.998 61.1626 27.74 66.1846 27.74H67.0126C71.8366 27.74 72.7906 30.368 72.7906 31.808V31.826H69.1186C69.0646 31.538 68.7226 30.296 66.6526 30.296H66.4726C64.4026 30.296 63.9166 31.718 63.9166 32.924V32.942C63.9166 34.184 64.5106 35.66 66.5446 35.66H66.7246C68.8126 35.66 69.1186 34.31 69.1186 34.076ZM79.8967 36.002C81.9487 36.002 82.6507 34.706 82.6507 33.95V33.176C82.3447 33.302 81.4627 33.482 80.4547 33.644C78.7627 33.932 78.2227 34.166 78.2227 34.868V34.904C78.2227 35.534 78.6727 36.002 79.8967 36.002ZM82.7587 36.614C82.3267 37.136 81.2467 38.198 78.9067 38.198H78.6187C75.8287 38.198 74.6767 36.686 74.6767 35.03V34.958C74.6767 33.23 75.7747 32.168 79.1587 31.88L81.8947 31.646C82.4527 31.592 82.6507 31.412 82.6507 30.998C82.6507 30.53 82.5067 30.026 80.5627 30.026C78.7267 30.026 78.5467 30.746 78.5467 31.124H74.9467V31.088C74.9467 30.098 75.3427 27.776 80.2567 27.776H80.8147C85.7647 27.776 86.0707 29.81 86.0707 31.142V34.436C86.0707 35.066 86.1967 35.318 86.8987 35.318H87.2767V38H84.4327C83.3887 38 82.9027 37.262 82.7587 36.614ZM92.7883 38H89.2783V28.01H92.7883V31.646H97.6843V28.01H101.194V38H97.6843V34.31H92.7883V38ZM103.286 40.124V35.336H104.492C105.176 33.968 105.284 30.998 105.374 28.01H115.94V35.336H117.74V40.124H114.41V38H106.616V40.124H103.286ZM107.804 35.336H112.43V30.674H108.524C108.47 31.97 108.29 33.95 107.804 35.336ZM129.009 33.014V32.96C129.009 31.88 128.505 30.422 126.309 30.422H126.129C124.023 30.422 123.357 31.808 123.357 32.96V33.014C123.357 34.112 124.023 35.552 126.129 35.552H126.309C128.505 35.552 129.009 34.04 129.009 33.014ZM119.865 41.438V28.01H123.339V29.288C123.771 28.82 125.085 27.812 127.353 27.812H127.587C131.403 27.812 132.645 30.422 132.645 32.798V33.104C132.645 35.282 131.367 38.198 127.569 38.198H127.317C125.031 38.198 123.807 37.154 123.375 36.722V41.438H119.865ZM141.351 38.27H140.793C135.411 38.27 134.583 34.994 134.583 33.176V32.924C134.583 31.124 135.411 27.74 140.775 27.74H141.369C146.913 27.74 147.561 31.142 147.561 32.906V33.194C147.561 34.994 146.913 38.27 141.351 38.27ZM140.973 35.642H141.171C143.385 35.642 143.943 34.058 143.943 32.96C143.943 31.826 143.385 30.314 141.171 30.314H140.973C138.669 30.314 138.201 31.826 138.201 32.96C138.201 34.058 138.669 35.642 140.973 35.642ZM158.22 38H149.976V28.01H157.86C160.146 28.01 161.586 28.82 161.586 30.404V30.494C161.586 31.736 160.794 32.474 159.588 32.672C160.812 32.816 161.91 33.68 161.91 35.12V35.192C161.91 37.01 160.722 38 158.22 38ZM153.486 31.988H156.708C157.554 31.988 157.986 31.664 157.986 31.034V30.944C157.986 30.368 157.59 30.026 156.708 30.026H153.486V31.988ZM153.486 35.984H156.852C157.788 35.984 158.31 35.678 158.31 34.976V34.832C158.31 34.202 157.878 33.806 156.852 33.806H153.486V35.984ZM167.864 38H164.354V28.01H167.864V31.646H172.76V28.01H176.27V38H172.76V34.31H167.864V38ZM183.906 36.002C185.958 36.002 186.66 34.706 186.66 33.95V33.176C186.354 33.302 185.472 33.482 184.464 33.644C182.772 33.932 182.232 34.166 182.232 34.868V34.904C182.232 35.534 182.682 36.002 183.906 36.002ZM186.768 36.614C186.336 37.136 185.256 38.198 182.916 38.198H182.628C179.838 38.198 178.686 36.686 178.686 35.03V34.958C178.686 33.23 179.784 32.168 183.168 31.88L185.904 31.646C186.462 31.592 186.66 31.412 186.66 30.998C186.66 30.53 186.516 30.026 184.572 30.026C182.736 30.026 182.556 30.746 182.556 31.124H178.956V31.088C178.956 30.098 179.352 27.776 184.266 27.776H184.824C189.774 27.776 190.08 29.81 190.08 31.142V34.436C190.08 35.066 190.206 35.318 190.908 35.318H191.286V38H188.442C187.398 38 186.912 37.262 186.768 36.614Z" fill="url(#paint0_linear_41_29)"/>
<path d="M11.484 14V9.032C10.332 9.176 9.27 9.266 8.19 9.266C3.852 9.266 0.99 8.528 0.99 4.262V0.608H4.698V3.65C4.698 5.81 5.796 6.332 8.694 6.332C9.756 6.332 10.962 6.224 11.484 6.134V0.608H15.192V14H11.484ZM24.1118 6.08C22.2938 6.08 21.6098 6.818 21.4298 7.862H26.7218C26.7218 7.124 26.3618 6.08 24.1118 6.08ZM26.7938 10.886H30.4478C30.4478 11.714 29.7998 14.234 24.6338 14.234H23.9678C19.0358 14.234 17.8118 11.534 17.8118 9.14V8.888C17.8118 6.638 18.9278 3.794 23.6618 3.794H24.4538C29.5658 3.794 30.4838 6.638 30.4838 9.428V9.752H21.3938C21.5378 10.904 22.2758 11.84 24.4178 11.84C26.4518 11.84 26.7038 11.048 26.7938 10.886ZM42.0677 9.014V8.96C42.0677 7.88 41.5637 6.422 39.3677 6.422H39.1877C37.0817 6.422 36.4157 7.808 36.4157 8.96V9.014C36.4157 10.112 37.0817 11.552 39.1877 11.552H39.3677C41.5637 11.552 42.0677 10.04 42.0677 9.014ZM32.9237 17.438V4.01H36.3977V5.288C36.8297 4.82 38.1437 3.812 40.4117 3.812H40.6457C44.4617 3.812 45.7037 6.422 45.7037 8.798V9.104C45.7037 11.282 44.4257 14.198 40.6277 14.198H40.3757C38.0897 14.198 36.8657 13.154 36.4337 12.722V17.438H32.9237ZM51.6555 14H48.1455V4.01H51.6555V7.646H56.5515V4.01H60.0615V14H56.5515V10.31H51.6555V14ZM62.9814 14V4.01H66.4914V6.872H69.2274C72.6474 6.872 73.9794 8.384 73.9794 10.292V10.508C73.9794 12.596 72.6474 14 69.2274 14H62.9814ZM66.4914 11.624H68.7954C69.5154 11.624 70.3794 11.408 70.3794 10.436V10.382C70.3794 9.482 69.5154 9.248 68.7954 9.248H66.4914V11.624ZM78.7674 4.01V14H75.2574V4.01H78.7674ZM81.6846 14V4.01H85.1946V11.336H88.2906V4.01H91.8006V11.336H94.8966V4.01H98.4066V14H81.6846ZM107.583 14.27H107.025C101.643 14.27 100.815 10.994 100.815 9.176V8.924C100.815 7.124 101.643 3.74 107.007 3.74H107.601C113.145 3.74 113.793 7.142 113.793 8.906V9.194C113.793 10.994 113.145 14.27 107.583 14.27ZM107.205 11.642H107.403C109.617 11.642 110.175 10.058 110.175 8.96C110.175 7.826 109.617 6.314 107.403 6.314H107.205C104.901 6.314 104.433 7.826 104.433 8.96C104.433 10.058 104.901 11.642 107.205 11.642ZM124.452 14H116.208V4.01H124.092C126.378 4.01 127.818 4.82 127.818 6.404V6.494C127.818 7.736 127.026 8.474 125.82 8.672C127.044 8.816 128.142 9.68 128.142 11.12V11.192C128.142 13.01 126.954 14 124.452 14ZM119.718 7.988H122.94C123.786 7.988 124.218 7.664 124.218 7.034V6.944C124.218 6.368 123.822 6.026 122.94 6.026H119.718V7.988ZM119.718 11.984H123.084C124.02 11.984 124.542 11.678 124.542 10.976V10.832C124.542 10.202 124.11 9.806 123.084 9.806H119.718V11.984ZM135.215 12.002C137.267 12.002 137.969 10.706 137.969 9.95V9.176C137.663 9.302 136.781 9.482 135.773 9.644C134.081 9.932 133.541 10.166 133.541 10.868V10.904C133.541 11.534 133.991 12.002 135.215 12.002ZM138.077 12.614C137.645 13.136 136.565 14.198 134.225 14.198H133.937C131.147 14.198 129.995 12.686 129.995 11.03V10.958C129.995 9.23 131.093 8.168 134.477 7.88L137.213 7.646C137.771 7.592 137.969 7.412 137.969 6.998C137.969 6.53 137.825 6.026 135.881 6.026C134.045 6.026 133.865 6.746 133.865 7.124H130.265V7.088C130.265 6.098 130.661 3.776 135.575 3.776H136.133C141.083 3.776 141.389 5.81 141.389 7.142V10.436C141.389 11.066 141.515 11.318 142.217 11.318H142.595V14H139.751C138.707 14 138.221 13.262 138.077 12.614ZM172.228 6.998V7.538C172.228 10.418 170.482 14.216 164.362 14.216H163.57C158.188 14.216 156.172 11.3 155.794 8.618H153.706V14H149.998V0.608H153.706V5.576H155.848C156.37 3.002 158.422 0.391999 163.57 0.391999H164.362C170.482 0.391999 172.228 4.064 172.228 6.998ZM168.376 7.394V7.142C168.376 5.486 167.602 3.452 163.966 3.452C160.366 3.452 159.556 5.486 159.556 7.142V7.394C159.556 9.014 160.42 11.138 163.966 11.138C167.584 11.138 168.376 9.014 168.376 7.394ZM182.388 14V6.674H178.428C178.428 9.356 178.338 10.85 177.996 11.768C177.618 12.776 177.114 14 174.468 14H173.37V11.39H173.586C174.216 11.39 174.684 11.174 174.882 10.256C175.026 9.482 175.08 8.636 175.08 4.01H185.898V14H182.388ZM197.23 7.952L192.406 14H188.806V4.01H192.316V10.058L197.14 4.01H200.74V14H197.23V7.952ZM212.065 10.652H209.707L206.791 14H202.831L206.089 10.274C204.361 9.932 203.371 8.942 203.371 7.43V7.214C203.371 5.396 204.847 4.01 207.349 4.01H215.575V14H212.065V10.652ZM212.065 6.314H208.303C207.529 6.314 206.881 6.494 206.881 7.286V7.358C206.881 8.132 207.547 8.366 208.321 8.366H212.065V6.314ZM10.998 32.762L8.568 27.308L6.21 32.762H10.998ZM13.338 38L12.24 35.516H5.004L3.924 38H0.198L6.138 24.608H11.106L17.316 38H13.338ZM27.1558 38V30.674H23.1958C23.1958 33.356 23.1058 34.85 22.7638 35.768C22.3858 36.776 21.8818 38 19.2358 38H18.1378V35.39H18.3538C18.9838 35.39 19.4518 35.174 19.6498 34.256C19.7938 33.482 19.8478 32.636 19.8478 28.01H30.6658V38H27.1558ZM39.3872 30.08C37.5692 30.08 36.8852 30.818 36.7052 31.862H41.9972C41.9972 31.124 41.6372 30.08 39.3872 30.08ZM42.0692 34.886H45.7232C45.7232 35.714 45.0752 38.234 39.9092 38.234H39.2432C34.3112 38.234 33.0872 35.534 33.0872 33.14V32.888C33.0872 30.638 34.2032 27.794 38.9372 27.794H39.7292C44.8412 27.794 45.7592 30.638 45.7592 33.428V33.752H36.6692C36.8132 34.904 37.5512 35.84 39.6932 35.84C41.7272 35.84 41.9792 35.048 42.0692 34.886ZM55.5971 38L51.7091 33.374V38H48.1991V28.01H51.7091V32.006L55.2731 28.01H59.3231L55.1471 32.492L59.7731 38H55.5971ZM69.1186 34.076H72.7906C72.7906 35.588 71.8906 38.27 67.0846 38.27H66.2026C61.2166 38.27 60.2806 35.03 60.2806 33.14V32.888C60.2806 30.998 61.1626 27.74 66.1846 27.74H67.0126C71.8366 27.74 72.7906 30.368 72.7906 31.808V31.826H69.1186C69.0646 31.538 68.7226 30.296 66.6526 30.296H66.4726C64.4026 30.296 63.9166 31.718 63.9166 32.924V32.942C63.9166 34.184 64.5106 35.66 66.5446 35.66H66.7246C68.8126 35.66 69.1186 34.31 69.1186 34.076ZM79.8967 36.002C81.9487 36.002 82.6507 34.706 82.6507 33.95V33.176C82.3447 33.302 81.4627 33.482 80.4547 33.644C78.7627 33.932 78.2227 34.166 78.2227 34.868V34.904C78.2227 35.534 78.6727 36.002 79.8967 36.002ZM82.7587 36.614C82.3267 37.136 81.2467 38.198 78.9067 38.198H78.6187C75.8287 38.198 74.6767 36.686 74.6767 35.03V34.958C74.6767 33.23 75.7747 32.168 79.1587 31.88L81.8947 31.646C82.4527 31.592 82.6507 31.412 82.6507 30.998C82.6507 30.53 82.5067 30.026 80.5627 30.026C78.7267 30.026 78.5467 30.746 78.5467 31.124H74.9467V31.088C74.9467 30.098 75.3427 27.776 80.2567 27.776H80.8147C85.7647 27.776 86.0707 29.81 86.0707 31.142V34.436C86.0707 35.066 86.1967 35.318 86.8987 35.318H87.2767V38H84.4327C83.3887 38 82.9027 37.262 82.7587 36.614ZM92.7883 38H89.2783V28.01H92.7883V31.646H97.6843V28.01H101.194V38H97.6843V34.31H92.7883V38ZM103.286 40.124V35.336H104.492C105.176 33.968 105.284 30.998 105.374 28.01H115.94V35.336H117.74V40.124H114.41V38H106.616V40.124H103.286ZM107.804 35.336H112.43V30.674H108.524C108.47 31.97 108.29 33.95 107.804 35.336ZM129.009 33.014V32.96C129.009 31.88 128.505 30.422 126.309 30.422H126.129C124.023 30.422 123.357 31.808 123.357 32.96V33.014C123.357 34.112 124.023 35.552 126.129 35.552H126.309C128.505 35.552 129.009 34.04 129.009 33.014ZM119.865 41.438V28.01H123.339V29.288C123.771 28.82 125.085 27.812 127.353 27.812H127.587C131.403 27.812 132.645 30.422 132.645 32.798V33.104C132.645 35.282 131.367 38.198 127.569 38.198H127.317C125.031 38.198 123.807 37.154 123.375 36.722V41.438H119.865ZM141.351 38.27H140.793C135.411 38.27 134.583 34.994 134.583 33.176V32.924C134.583 31.124 135.411 27.74 140.775 27.74H141.369C146.913 27.74 147.561 31.142 147.561 32.906V33.194C147.561 34.994 146.913 38.27 141.351 38.27ZM140.973 35.642H141.171C143.385 35.642 143.943 34.058 143.943 32.96C143.943 31.826 143.385 30.314 141.171 30.314H140.973C138.669 30.314 138.201 31.826 138.201 32.96C138.201 34.058 138.669 35.642 140.973 35.642ZM158.22 38H149.976V28.01H157.86C160.146 28.01 161.586 28.82 161.586 30.404V30.494C161.586 31.736 160.794 32.474 159.588 32.672C160.812 32.816 161.91 33.68 161.91 35.12V35.192C161.91 37.01 160.722 38 158.22 38ZM153.486 31.988H156.708C157.554 31.988 157.986 31.664 157.986 31.034V30.944C157.986 30.368 157.59 30.026 156.708 30.026H153.486V31.988ZM153.486 35.984H156.852C157.788 35.984 158.31 35.678 158.31 34.976V34.832C158.31 34.202 157.878 33.806 156.852 33.806H153.486V35.984ZM167.864 38H164.354V28.01H167.864V31.646H172.76V28.01H176.27V38H172.76V34.31H167.864V38ZM183.906 36.002C185.958 36.002 186.66 34.706 186.66 33.95V33.176C186.354 33.302 185.472 33.482 184.464 33.644C182.772 33.932 182.232 34.166 182.232 34.868V34.904C182.232 35.534 182.682 36.002 183.906 36.002ZM186.768 36.614C186.336 37.136 185.256 38.198 182.916 38.198H182.628C179.838 38.198 178.686 36.686 178.686 35.03V34.958C178.686 33.23 179.784 32.168 183.168 31.88L185.904 31.646C186.462 31.592 186.66 31.412 186.66 30.998C186.66 30.53 186.516 30.026 184.572 30.026C182.736 30.026 182.556 30.746 182.556 31.124H178.956V31.088C178.956 30.098 179.352 27.776 184.266 27.776H184.824C189.774 27.776 190.08 29.81 190.08 31.142V34.436C190.08 35.066 190.206 35.318 190.908 35.318H191.286V38H188.442C187.398 38 186.912 37.262 186.768 36.614Z" fill="url(#paint1_radial_41_29)" style="mix-blend-mode:overlay"/>
<path d="M11.484 14V9.032C10.332 9.176 9.27 9.266 8.19 9.266C3.852 9.266 0.99 8.528 0.99 4.262V0.608H4.698V3.65C4.698 5.81 5.796 6.332 8.694 6.332C9.756 6.332 10.962 6.224 11.484 6.134V0.608H15.192V14H11.484ZM24.1118 6.08C22.2938 6.08 21.6098 6.818 21.4298 7.862H26.7218C26.7218 7.124 26.3618 6.08 24.1118 6.08ZM26.7938 10.886H30.4478C30.4478 11.714 29.7998 14.234 24.6338 14.234H23.9678C19.0358 14.234 17.8118 11.534 17.8118 9.14V8.888C17.8118 6.638 18.9278 3.794 23.6618 3.794H24.4538C29.5658 3.794 30.4838 6.638 30.4838 9.428V9.752H21.3938C21.5378 10.904 22.2758 11.84 24.4178 11.84C26.4518 11.84 26.7038 11.048 26.7938 10.886ZM42.0677 9.014V8.96C42.0677 7.88 41.5637 6.422 39.3677 6.422H39.1877C37.0817 6.422 36.4157 7.808 36.4157 8.96V9.014C36.4157 10.112 37.0817 11.552 39.1877 11.552H39.3677C41.5637 11.552 42.0677 10.04 42.0677 9.014ZM32.9237 17.438V4.01H36.3977V5.288C36.8297 4.82 38.1437 3.812 40.4117 3.812H40.6457C44.4617 3.812 45.7037 6.422 45.7037 8.798V9.104C45.7037 11.282 44.4257 14.198 40.6277 14.198H40.3757C38.0897 14.198 36.8657 13.154 36.4337 12.722V17.438H32.9237ZM51.6555 14H48.1455V4.01H51.6555V7.646H56.5515V4.01H60.0615V14H56.5515V10.31H51.6555V14ZM62.9814 14V4.01H66.4914V6.872H69.2274C72.6474 6.872 73.9794 8.384 73.9794 10.292V10.508C73.9794 12.596 72.6474 14 69.2274 14H62.9814ZM66.4914 11.624H68.7954C69.5154 11.624 70.3794 11.408 70.3794 10.436V10.382C70.3794 9.482 69.5154 9.248 68.7954 9.248H66.4914V11.624ZM78.7674 4.01V14H75.2574V4.01H78.7674ZM81.6846 14V4.01H85.1946V11.336H88.2906V4.01H91.8006V11.336H94.8966V4.01H98.4066V14H81.6846ZM107.583 14.27H107.025C101.643 14.27 100.815 10.994 100.815 9.176V8.924C100.815 7.124 101.643 3.74 107.007 3.74H107.601C113.145 3.74 113.793 7.142 113.793 8.906V9.194C113.793 10.994 113.145 14.27 107.583 14.27ZM107.205 11.642H107.403C109.617 11.642 110.175 10.058 110.175 8.96C110.175 7.826 109.617 6.314 107.403 6.314H107.205C104.901 6.314 104.433 7.826 104.433 8.96C104.433 10.058 104.901 11.642 107.205 11.642ZM124.452 14H116.208V4.01H124.092C126.378 4.01 127.818 4.82 127.818 6.404V6.494C127.818 7.736 127.026 8.474 125.82 8.672C127.044 8.816 128.142 9.68 128.142 11.12V11.192C128.142 13.01 126.954 14 124.452 14ZM119.718 7.988H122.94C123.786 7.988 124.218 7.664 124.218 7.034V6.944C124.218 6.368 123.822 6.026 122.94 6.026H119.718V7.988ZM119.718 11.984H123.084C124.02 11.984 124.542 11.678 124.542 10.976V10.832C124.542 10.202 124.11 9.806 123.084 9.806H119.718V11.984ZM135.215 12.002C137.267 12.002 137.969 10.706 137.969 9.95V9.176C137.663 9.302 136.781 9.482 135.773 9.644C134.081 9.932 133.541 10.166 133.541 10.868V10.904C133.541 11.534 133.991 12.002 135.215 12.002ZM138.077 12.614C137.645 13.136 136.565 14.198 134.225 14.198H133.937C131.147 14.198 129.995 12.686 129.995 11.03V10.958C129.995 9.23 131.093 8.168 134.477 7.88L137.213 7.646C137.771 7.592 137.969 7.412 137.969 6.998C137.969 6.53 137.825 6.026 135.881 6.026C134.045 6.026 133.865 6.746 133.865 7.124H130.265V7.088C130.265 6.098 130.661 3.776 135.575 3.776H136.133C141.083 3.776 141.389 5.81 141.389 7.142V10.436C141.389 11.066 141.515 11.318 142.217 11.318H142.595V14H139.751C138.707 14 138.221 13.262 138.077 12.614ZM172.228 6.998V7.538C172.228 10.418 170.482 14.216 164.362 14.216H163.57C158.188 14.216 156.172 11.3 155.794 8.618H153.706V14H149.998V0.608H153.706V5.576H155.848C156.37 3.002 158.422 0.391999 163.57 0.391999H164.362C170.482 0.391999 172.228 4.064 172.228 6.998ZM168.376 7.394V7.142C168.376 5.486 167.602 3.452 163.966 3.452C160.366 3.452 159.556 5.486 159.556 7.142V7.394C159.556 9.014 160.42 11.138 163.966 11.138C167.584 11.138 168.376 9.014 168.376 7.394ZM182.388 14V6.674H178.428C178.428 9.356 178.338 10.85 177.996 11.768C177.618 12.776 177.114 14 174.468 14H173.37V11.39H173.586C174.216 11.39 174.684 11.174 174.882 10.256C175.026 9.482 175.08 8.636 175.08 4.01H185.898V14H182.388ZM197.23 7.952L192.406 14H188.806V4.01H192.316V10.058L197.14 4.01H200.74V14H197.23V7.952ZM212.065 10.652H209.707L206.791 14H202.831L206.089 10.274C204.361 9.932 203.371 8.942 203.371 7.43V7.214C203.371 5.396 204.847 4.01 207.349 4.01H215.575V14H212.065V10.652ZM212.065 6.314H208.303C207.529 6.314 206.881 6.494 206.881 7.286V7.358C206.881 8.132 207.547 8.366 208.321 8.366H212.065V6.314ZM10.998 32.762L8.568 27.308L6.21 32.762H10.998ZM13.338 38L12.24 35.516H5.004L3.924 38H0.198L6.138 24.608H11.106L17.316 38H13.338ZM27.1558 38V30.674H23.1958C23.1958 33.356 23.1058 34.85 22.7638 35.768C22.3858 36.776 21.8818 38 19.2358 38H18.1378V35.39H18.3538C18.9838 35.39 19.4518 35.174 19.6498 34.256C19.7938 33.482 19.8478 32.636 19.8478 28.01H30.6658V38H27.1558ZM39.3872 30.08C37.5692 30.08 36.8852 30.818 36.7052 31.862H41.9972C41.9972 31.124 41.6372 30.08 39.3872 30.08ZM42.0692 34.886H45.7232C45.7232 35.714 45.0752 38.234 39.9092 38.234H39.2432C34.3112 38.234 33.0872 35.534 33.0872 33.14V32.888C33.0872 30.638 34.2032 27.794 38.9372 27.794H39.7292C44.8412 27.794 45.7592 30.638 45.7592 33.428V33.752H36.6692C36.8132 34.904 37.5512 35.84 39.6932 35.84C41.7272 35.84 41.9792 35.048 42.0692 34.886ZM55.5971 38L51.7091 33.374V38H48.1991V28.01H51.7091V32.006L55.2731 28.01H59.3231L55.1471 32.492L59.7731 38H55.5971ZM69.1186 34.076H72.7906C72.7906 35.588 71.8906 38.27 67.0846 38.27H66.2026C61.2166 38.27 60.2806 35.03 60.2806 33.14V32.888C60.2806 30.998 61.1626 27.74 66.1846 27.74H67.0126C71.8366 27.74 72.7906 30.368 72.7906 31.808V31.826H69.1186C69.0646 31.538 68.7226 30.296 66.6526 30.296H66.4726C64.4026 30.296 63.9166 31.718 63.9166 32.924V32.942C63.9166 34.184 64.5106 35.66 66.5446 35.66H66.7246C68.8126 35.66 69.1186 34.31 69.1186 34.076ZM79.8967 36.002C81.9487 36.002 82.6507 34.706 82.6507 33.95V33.176C82.3447 33.302 81.4627 33.482 80.4547 33.644C78.7627 33.932 78.2227 34.166 78.2227 34.868V34.904C78.2227 35.534 78.6727 36.002 79.8967 36.002ZM82.7587 36.614C82.3267 37.136 81.2467 38.198 78.9067 38.198H78.6187C75.8287 38.198 74.6767 36.686 74.6767 35.03V34.958C74.6767 33.23 75.7747 32.168 79.1587 31.88L81.8947 31.646C82.4527 31.592 82.6507 31.412 82.6507 30.998C82.6507 30.53 82.5067 30.026 80.5627 30.026C78.7267 30.026 78.5467 30.746 78.5467 31.124H74.9467V31.088C74.9467 30.098 75.3427 27.776 80.2567 27.776H80.8147C85.7647 27.776 86.0707 29.81 86.0707 31.142V34.436C86.0707 35.066 86.1967 35.318 86.8987 35.318H87.2767V38H84.4327C83.3887 38 82.9027 37.262 82.7587 36.614ZM92.7883 38H89.2783V28.01H92.7883V31.646H97.6843V28.01H101.194V38H97.6843V34.31H92.7883V38ZM103.286 40.124V35.336H104.492C105.176 33.968 105.284 30.998 105.374 28.01H115.94V35.336H117.74V40.124H114.41V38H106.616V40.124H103.286ZM107.804 35.336H112.43V30.674H108.524C108.47 31.97 108.29 33.95 107.804 35.336ZM129.009 33.014V32.96C129.009 31.88 128.505 30.422 126.309 30.422H126.129C124.023 30.422 123.357 31.808 123.357 32.96V33.014C123.357 34.112 124.023 35.552 126.129 35.552H126.309C128.505 35.552 129.009 34.04 129.009 33.014ZM119.865 41.438V28.01H123.339V29.288C123.771 28.82 125.085 27.812 127.353 27.812H127.587C131.403 27.812 132.645 30.422 132.645 32.798V33.104C132.645 35.282 131.367 38.198 127.569 38.198H127.317C125.031 38.198 123.807 37.154 123.375 36.722V41.438H119.865ZM141.351 38.27H140.793C135.411 38.27 134.583 34.994 134.583 33.176V32.924C134.583 31.124 135.411 27.74 140.775 27.74H141.369C146.913 27.74 147.561 31.142 147.561 32.906V33.194C147.561 34.994 146.913 38.27 141.351 38.27ZM140.973 35.642H141.171C143.385 35.642 143.943 34.058 143.943 32.96C143.943 31.826 143.385 30.314 141.171 30.314H140.973C138.669 30.314 138.201 31.826 138.201 32.96C138.201 34.058 138.669 35.642 140.973 35.642ZM158.22 38H149.976V28.01H157.86C160.146 28.01 161.586 28.82 161.586 30.404V30.494C161.586 31.736 160.794 32.474 159.588 32.672C160.812 32.816 161.91 33.68 161.91 35.12V35.192C161.91 37.01 160.722 38 158.22 38ZM153.486 31.988H156.708C157.554 31.988 157.986 31.664 157.986 31.034V30.944C157.986 30.368 157.59 30.026 156.708 30.026H153.486V31.988ZM153.486 35.984H156.852C157.788 35.984 158.31 35.678 158.31 34.976V34.832C158.31 34.202 157.878 33.806 156.852 33.806H153.486V35.984ZM167.864 38H164.354V28.01H167.864V31.646H172.76V28.01H176.27V38H172.76V34.31H167.864V38ZM183.906 36.002C185.958 36.002 186.66 34.706 186.66 33.95V33.176C186.354 33.302 185.472 33.482 184.464 33.644C182.772 33.932 182.232 34.166 182.232 34.868V34.904C182.232 35.534 182.682 36.002 183.906 36.002ZM186.768 36.614C186.336 37.136 185.256 38.198 182.916 38.198H182.628C179.838 38.198 178.686 36.686 178.686 35.03V34.958C178.686 33.23 179.784 32.168 183.168 31.88L185.904 31.646C186.462 31.592 186.66 31.412 186.66 30.998C186.66 30.53 186.516 30.026 184.572 30.026C182.736 30.026 182.556 30.746 182.556 31.124H178.956V31.088C178.956 30.098 179.352 27.776 184.266 27.776H184.824C189.774 27.776 190.08 29.81 190.08 31.142V34.436C190.08 35.066 190.206 35.318 190.908 35.318H191.286V38H188.442C187.398 38 186.912 37.262 186.768 36.614Z" fill="url(#paint2_radial_41_29)"/>
<path d="M11.484 14V9.032C10.332 9.176 9.27 9.266 8.19 9.266C3.852 9.266 0.99 8.528 0.99 4.262V0.608H4.698V3.65C4.698 5.81 5.796 6.332 8.694 6.332C9.756 6.332 10.962 6.224 11.484 6.134V0.608H15.192V14H11.484ZM24.1118 6.08C22.2938 6.08 21.6098 6.818 21.4298 7.862H26.7218C26.7218 7.124 26.3618 6.08 24.1118 6.08ZM26.7938 10.886H30.4478C30.4478 11.714 29.7998 14.234 24.6338 14.234H23.9678C19.0358 14.234 17.8118 11.534 17.8118 9.14V8.888C17.8118 6.638 18.9278 3.794 23.6618 3.794H24.4538C29.5658 3.794 30.4838 6.638 30.4838 9.428V9.752H21.3938C21.5378 10.904 22.2758 11.84 24.4178 11.84C26.4518 11.84 26.7038 11.048 26.7938 10.886ZM42.0677 9.014V8.96C42.0677 7.88 41.5637 6.422 39.3677 6.422H39.1877C37.0817 6.422 36.4157 7.808 36.4157 8.96V9.014C36.4157 10.112 37.0817 11.552 39.1877 11.552H39.3677C41.5637 11.552 42.0677 10.04 42.0677 9.014ZM32.9237 17.438V4.01H36.3977V5.288C36.8297 4.82 38.1437 3.812 40.4117 3.812H40.6457C44.4617 3.812 45.7037 6.422 45.7037 8.798V9.104C45.7037 11.282 44.4257 14.198 40.6277 14.198H40.3757C38.0897 14.198 36.8657 13.154 36.4337 12.722V17.438H32.9237ZM51.6555 14H48.1455V4.01H51.6555V7.646H56.5515V4.01H60.0615V14H56.5515V10.31H51.6555V14ZM62.9814 14V4.01H66.4914V6.872H69.2274C72.6474 6.872 73.9794 8.384 73.9794 10.292V10.508C73.9794 12.596 72.6474 14 69.2274 14H62.9814ZM66.4914 11.624H68.7954C69.5154 11.624 70.3794 11.408 70.3794 10.436V10.382C70.3794 9.482 69.5154 9.248 68.7954 9.248H66.4914V11.624ZM78.7674 4.01V14H75.2574V4.01H78.7674ZM81.6846 14V4.01H85.1946V11.336H88.2906V4.01H91.8006V11.336H94.8966V4.01H98.4066V14H81.6846ZM107.583 14.27H107.025C101.643 14.27 100.815 10.994 100.815 9.176V8.924C100.815 7.124 101.643 3.74 107.007 3.74H107.601C113.145 3.74 113.793 7.142 113.793 8.906V9.194C113.793 10.994 113.145 14.27 107.583 14.27ZM107.205 11.642H107.403C109.617 11.642 110.175 10.058 110.175 8.96C110.175 7.826 109.617 6.314 107.403 6.314H107.205C104.901 6.314 104.433 7.826 104.433 8.96C104.433 10.058 104.901 11.642 107.205 11.642ZM124.452 14H116.208V4.01H124.092C126.378 4.01 127.818 4.82 127.818 6.404V6.494C127.818 7.736 127.026 8.474 125.82 8.672C127.044 8.816 128.142 9.68 128.142 11.12V11.192C128.142 13.01 126.954 14 124.452 14ZM119.718 7.988H122.94C123.786 7.988 124.218 7.664 124.218 7.034V6.944C124.218 6.368 123.822 6.026 122.94 6.026H119.718V7.988ZM119.718 11.984H123.084C124.02 11.984 124.542 11.678 124.542 10.976V10.832C124.542 10.202 124.11 9.806 123.084 9.806H119.718V11.984ZM135.215 12.002C137.267 12.002 137.969 10.706 137.969 9.95V9.176C137.663 9.302 136.781 9.482 135.773 9.644C134.081 9.932 133.541 10.166 133.541 10.868V10.904C133.541 11.534 133.991 12.002 135.215 12.002ZM138.077 12.614C137.645 13.136 136.565 14.198 134.225 14.198H133.937C131.147 14.198 129.995 12.686 129.995 11.03V10.958C129.995 9.23 131.093 8.168 134.477 7.88L137.213 7.646C137.771 7.592 137.969 7.412 137.969 6.998C137.969 6.53 137.825 6.026 135.881 6.026C134.045 6.026 133.865 6.746 133.865 7.124H130.265V7.088C130.265 6.098 130.661 3.776 135.575 3.776H136.133C141.083 3.776 141.389 5.81 141.389 7.142V10.436C141.389 11.066 141.515 11.318 142.217 11.318H142.595V14H139.751C138.707 14 138.221 13.262 138.077 12.614ZM172.228 6.998V7.538C172.228 10.418 170.482 14.216 164.362 14.216H163.57C158.188 14.216 156.172 11.3 155.794 8.618H153.706V14H149.998V0.608H153.706V5.576H155.848C156.37 3.002 158.422 0.391999 163.57 0.391999H164.362C170.482 0.391999 172.228 4.064 172.228 6.998ZM168.376 7.394V7.142C168.376 5.486 167.602 3.452 163.966 3.452C160.366 3.452 159.556 5.486 159.556 7.142V7.394C159.556 9.014 160.42 11.138 163.966 11.138C167.584 11.138 168.376 9.014 168.376 7.394ZM182.388 14V6.674H178.428C178.428 9.356 178.338 10.85 177.996 11.768C177.618 12.776 177.114 14 174.468 14H173.37V11.39H173.586C174.216 11.39 174.684 11.174 174.882 10.256C175.026 9.482 175.08 8.636 175.08 4.01H185.898V14H182.388ZM197.23 7.952L192.406 14H188.806V4.01H192.316V10.058L197.14 4.01H200.74V14H197.23V7.952ZM212.065 10.652H209.707L206.791 14H202.831L206.089 10.274C204.361 9.932 203.371 8.942 203.371 7.43V7.214C203.371 5.396 204.847 4.01 207.349 4.01H215.575V14H212.065V10.652ZM212.065 6.314H208.303C207.529 6.314 206.881 6.494 206.881 7.286V7.358C206.881 8.132 207.547 8.366 208.321 8.366H212.065V6.314ZM10.998 32.762L8.568 27.308L6.21 32.762H10.998ZM13.338 38L12.24 35.516H5.004L3.924 38H0.198L6.138 24.608H11.106L17.316 38H13.338ZM27.1558 38V30.674H23.1958C23.1958 33.356 23.1058 34.85 22.7638 35.768C22.3858 36.776 21.8818 38 19.2358 38H18.1378V35.39H18.3538C18.9838 35.39 19.4518 35.174 19.6498 34.256C19.7938 33.482 19.8478 32.636 19.8478 28.01H30.6658V38H27.1558ZM39.3872 30.08C37.5692 30.08 36.8852 30.818 36.7052 31.862H41.9972C41.9972 31.124 41.6372 30.08 39.3872 30.08ZM42.0692 34.886H45.7232C45.7232 35.714 45.0752 38.234 39.9092 38.234H39.2432C34.3112 38.234 33.0872 35.534 33.0872 33.14V32.888C33.0872 30.638 34.2032 27.794 38.9372 27.794H39.7292C44.8412 27.794 45.7592 30.638 45.7592 33.428V33.752H36.6692C36.8132 34.904 37.5512 35.84 39.6932 35.84C41.7272 35.84 41.9792 35.048 42.0692 34.886ZM55.5971 38L51.7091 33.374V38H48.1991V28.01H51.7091V32.006L55.2731 28.01H59.3231L55.1471 32.492L59.7731 38H55.5971ZM69.1186 34.076H72.7906C72.7906 35.588 71.8906 38.27 67.0846 38.27H66.2026C61.2166 38.27 60.2806 35.03 60.2806 33.14V32.888C60.2806 30.998 61.1626 27.74 66.1846 27.74H67.0126C71.8366 27.74 72.7906 30.368 72.7906 31.808V31.826H69.1186C69.0646 31.538 68.7226 30.296 66.6526 30.296H66.4726C64.4026 30.296 63.9166 31.718 63.9166 32.924V32.942C63.9166 34.184 64.5106 35.66 66.5446 35.66H66.7246C68.8126 35.66 69.1186 34.31 69.1186 34.076ZM79.8967 36.002C81.9487 36.002 82.6507 34.706 82.6507 33.95V33.176C82.3447 33.302 81.4627 33.482 80.4547 33.644C78.7627 33.932 78.2227 34.166 78.2227 34.868V34.904C78.2227 35.534 78.6727 36.002 79.8967 36.002ZM82.7587 36.614C82.3267 37.136 81.2467 38.198 78.9067 38.198H78.6187C75.8287 38.198 74.6767 36.686 74.6767 35.03V34.958C74.6767 33.23 75.7747 32.168 79.1587 31.88L81.8947 31.646C82.4527 31.592 82.6507 31.412 82.6507 30.998C82.6507 30.53 82.5067 30.026 80.5627 30.026C78.7267 30.026 78.5467 30.746 78.5467 31.124H74.9467V31.088C74.9467 30.098 75.3427 27.776 80.2567 27.776H80.8147C85.7647 27.776 86.0707 29.81 86.0707 31.142V34.436C86.0707 35.066 86.1967 35.318 86.8987 35.318H87.2767V38H84.4327C83.3887 38 82.9027 37.262 82.7587 36.614ZM92.7883 38H89.2783V28.01H92.7883V31.646H97.6843V28.01H101.194V38H97.6843V34.31H92.7883V38ZM103.286 40.124V35.336H104.492C105.176 33.968 105.284 30.998 105.374 28.01H115.94V35.336H117.74V40.124H114.41V38H106.616V40.124H103.286ZM107.804 35.336H112.43V30.674H108.524C108.47 31.97 108.29 33.95 107.804 35.336ZM129.009 33.014V32.96C129.009 31.88 128.505 30.422 126.309 30.422H126.129C124.023 30.422 123.357 31.808 123.357 32.96V33.014C123.357 34.112 124.023 35.552 126.129 35.552H126.309C128.505 35.552 129.009 34.04 129.009 33.014ZM119.865 41.438V28.01H123.339V29.288C123.771 28.82 125.085 27.812 127.353 27.812H127.587C131.403 27.812 132.645 30.422 132.645 32.798V33.104C132.645 35.282 131.367 38.198 127.569 38.198H127.317C125.031 38.198 123.807 37.154 123.375 36.722V41.438H119.865ZM141.351 38.27H140.793C135.411 38.27 134.583 34.994 134.583 33.176V32.924C134.583 31.124 135.411 27.74 140.775 27.74H141.369C146.913 27.74 147.561 31.142 147.561 32.906V33.194C147.561 34.994 146.913 38.27 141.351 38.27ZM140.973 35.642H141.171C143.385 35.642 143.943 34.058 143.943 32.96C143.943 31.826 143.385 30.314 141.171 30.314H140.973C138.669 30.314 138.201 31.826 138.201 32.96C138.201 34.058 138.669 35.642 140.973 35.642ZM158.22 38H149.976V28.01H157.86C160.146 28.01 161.586 28.82 161.586 30.404V30.494C161.586 31.736 160.794 32.474 159.588 32.672C160.812 32.816 161.91 33.68 161.91 35.12V35.192C161.91 37.01 160.722 38 158.22 38ZM153.486 31.988H156.708C157.554 31.988 157.986 31.664 157.986 31.034V30.944C157.986 30.368 157.59 30.026 156.708 30.026H153.486V31.988ZM153.486 35.984H156.852C157.788 35.984 158.31 35.678 158.31 34.976V34.832C158.31 34.202 157.878 33.806 156.852 33.806H153.486V35.984ZM167.864 38H164.354V28.01H167.864V31.646H172.76V28.01H176.27V38H172.76V34.31H167.864V38ZM183.906 36.002C185.958 36.002 186.66 34.706 186.66 33.95V33.176C186.354 33.302 185.472 33.482 184.464 33.644C182.772 33.932 182.232 34.166 182.232 34.868V34.904C182.232 35.534 182.682 36.002 183.906 36.002ZM186.768 36.614C186.336 37.136 185.256 38.198 182.916 38.198H182.628C179.838 38.198 178.686 36.686 178.686 35.03V34.958C178.686 33.23 179.784 32.168 183.168 31.88L185.904 31.646C186.462 31.592 186.66 31.412 186.66 30.998C186.66 30.53 186.516 30.026 184.572 30.026C182.736 30.026 182.556 30.746 182.556 31.124H178.956V31.088C178.956 30.098 179.352 27.776 184.266 27.776H184.824C189.774 27.776 190.08 29.81 190.08 31.142V34.436C190.08 35.066 190.206 35.318 190.908 35.318H191.286V38H188.442C187.398 38 186.912 37.262 186.768 36.614Z" fill="#C1A875" style="mix-blend-mode:color"/>
<defs>
<linearGradient id="paint0_linear_41_29" x1="8.27014e-07" y1="30" x2="222" y2="30" gradientUnits="userSpaceOnUse">
<stop stop-color="#576167"/>
<stop offset="0.191294" stop-color="#9EA1A2"/>
<stop offset="0.396166" stop-color="#848989"/>
<stop offset="0.62055" stop-color="#576167"/>
<stop offset="0.830299" stop-color="#757A7C"/>
<stop offset="1" stop-color="#576167"/>
</linearGradient>
<radialGradient id="paint1_radial_41_29" cx="0" cy="0" r="1" gradientUnits="userSpaceOnUse" gradientTransform="translate(118.226 2.39326) rotate(90) scale(53.4944 167.95)">
<stop stop-color="white"/>
<stop offset="1" stop-color="white" stop-opacity="0"/>
</radialGradient>
<radialGradient id="paint2_radial_41_29" cx="0" cy="0" r="1" gradientUnits="userSpaceOnUse" gradientTransform="translate(130.783 82.9888) rotate(-89.7344) scale(76.6525 240.162)">
<stop stop-color="white"/>
<stop offset="1" stop-color="white" stop-opacity="0"/>
</radialGradient>
</defs>
</svg>
