<svg width="151" height="39" viewBox="0 0 151 39" fill="none" xmlns="http://www.w3.org/2000/svg">
<path d="M9.728 9.716H4.364V14H0.656V0.608H9.728C13.958 0.608 15.272 2.462 15.272 5.054V5.252C15.272 7.79 13.904 9.716 9.728 9.716ZM4.364 3.596V6.728H9.458C10.826 6.728 11.42 6.152 11.42 5.198V5.126C11.42 4.19 10.826 3.596 9.458 3.596H4.364ZM23.474 14.27H22.916C17.534 14.27 16.706 10.994 16.706 9.176V8.924C16.706 7.124 17.534 3.74 22.898 3.74H23.492C29.036 3.74 29.684 7.142 29.684 8.906V9.194C29.684 10.994 29.036 14.27 23.474 14.27ZM23.096 11.642H23.294C25.508 11.642 26.066 10.058 26.066 8.96C26.066 7.826 25.508 6.314 23.294 6.314H23.096C20.792 6.314 20.324 7.826 20.324 8.96C20.324 10.058 20.792 11.642 23.096 11.642ZM32.0986 14V4.01H40.8106V6.674H35.6086V14H32.0986ZM48.9798 14.27H48.4218C43.0398 14.27 42.2118 10.994 42.2118 9.176V8.924C42.2118 7.124 43.0398 3.74 48.4038 3.74H48.9978C54.5418 3.74 55.1898 7.142 55.1898 8.906V9.194C55.1898 10.994 54.5418 14.27 48.9798 14.27ZM48.6018 11.642H48.7998C51.0138 11.642 51.5718 10.058 51.5718 8.96C51.5718 7.826 51.0138 6.314 48.7998 6.314H48.6018C46.2978 6.314 45.8298 7.826 45.8298 8.96C45.8298 10.058 46.2978 11.642 48.6018 11.642ZM65.8485 14H57.6045V4.01H65.4885C67.7745 4.01 69.2145 4.82 69.2145 6.404V6.494C69.2145 7.736 68.4225 8.474 67.2165 8.672C68.4405 8.816 69.5385 9.68 69.5385 11.12V11.192C69.5385 13.01 68.3505 14 65.8485 14ZM61.1145 7.988H64.3365C65.1825 7.988 65.6145 7.664 65.6145 7.034V6.944C65.6145 6.368 65.2185 6.026 64.3365 6.026H61.1145V7.988ZM61.1145 11.984H64.4805C65.4165 11.984 65.9385 11.678 65.9385 10.976V10.832C65.9385 10.202 65.5065 9.806 64.4805 9.806H61.1145V11.984ZM76.6115 12.002C78.6635 12.002 79.3655 10.706 79.3655 9.95V9.176C79.0595 9.302 78.1775 9.482 77.1695 9.644C75.4775 9.932 74.9375 10.166 74.9375 10.868V10.904C74.9375 11.534 75.3875 12.002 76.6115 12.002ZM79.4735 12.614C79.0415 13.136 77.9615 14.198 75.6215 14.198H75.3335C72.5435 14.198 71.3915 12.686 71.3915 11.03V10.958C71.3915 9.23 72.4895 8.168 75.8735 7.88L78.6095 7.646C79.1675 7.592 79.3655 7.412 79.3655 6.998C79.3655 6.53 79.2215 6.026 77.2775 6.026C75.4415 6.026 75.2615 6.746 75.2615 7.124H71.6615V7.088C71.6615 6.098 72.0575 3.776 76.9715 3.776H77.5295C82.4795 3.776 82.7855 5.81 82.7855 7.142V10.436C82.7855 11.066 82.9115 11.318 83.6135 11.318H83.9915V14H81.1475C80.1035 14 79.6175 13.262 79.4735 12.614ZM100.736 8.762L98.3063 3.308L95.9483 8.762H100.736ZM103.076 14L101.978 11.516H94.7423L93.6623 14H89.9363L95.8763 0.608H100.844L107.054 14H103.076ZM112.214 14H108.704V4.01H112.214V7.646H117.11V4.01H120.62V14H117.11V10.31H112.214V14ZM127.05 14H123.54V4.01H127.05V7.646H131.946V4.01H135.456V14H131.946V10.31H127.05V14ZM143.092 12.002C145.144 12.002 145.846 10.706 145.846 9.95V9.176C145.54 9.302 144.658 9.482 143.65 9.644C141.958 9.932 141.418 10.166 141.418 10.868V10.904C141.418 11.534 141.868 12.002 143.092 12.002ZM145.954 12.614C145.522 13.136 144.442 14.198 142.102 14.198H141.814C139.024 14.198 137.872 12.686 137.872 11.03V10.958C137.872 9.23 138.97 8.168 142.354 7.88L145.09 7.646C145.648 7.592 145.846 7.412 145.846 6.998C145.846 6.53 145.702 6.026 143.758 6.026C141.922 6.026 141.742 6.746 141.742 7.124H138.142V7.088C138.142 6.098 138.538 3.776 143.452 3.776H144.01C148.96 3.776 149.266 5.81 149.266 7.142V10.436C149.266 11.066 149.392 11.318 150.094 11.318H150.472V14H147.628C146.584 14 146.098 13.262 145.954 12.614ZM0.656 38V24.608H5.588L9.854 33.68L14.246 24.608H18.872V38H15.254V29.234L11.186 38H8.288L4.22 29.234V38H0.656ZM30.4152 31.952L25.5912 38H21.9912V28.01H25.5012V34.058L30.3252 28.01H33.9252V38H30.4152V31.952ZM44.8367 38L42.1547 35.138L39.5447 38H35.5667L40.0487 32.996L35.4227 28.01H39.7247L42.2807 30.8L44.7467 28.01H48.6167L44.3147 32.924L48.8867 38H44.8367ZM55.008 36.002C57.06 36.002 57.762 34.706 57.762 33.95V33.176C57.456 33.302 56.574 33.482 55.566 33.644C53.874 33.932 53.334 34.166 53.334 34.868V34.904C53.334 35.534 53.784 36.002 55.008 36.002ZM57.87 36.614C57.438 37.136 56.358 38.198 54.018 38.198H53.73C50.94 38.198 49.788 36.686 49.788 35.03V34.958C49.788 33.23 50.886 32.168 54.27 31.88L57.006 31.646C57.564 31.592 57.762 31.412 57.762 30.998C57.762 30.53 57.618 30.026 55.674 30.026C53.838 30.026 53.658 30.746 53.658 31.124H50.058V31.088C50.058 30.098 50.454 27.776 55.368 27.776H55.926C60.876 27.776 61.182 29.81 61.182 31.142V34.436C61.182 35.066 61.308 35.318 62.01 35.318H62.388V38H59.544C58.5 38 58.014 37.262 57.87 36.614ZM72.8136 31.952L67.9896 38H64.3896V28.01H67.8996V34.058L72.7236 28.01H76.3236V38H72.8136V31.952ZM70.5816 26.984H70.0416C67.1796 26.984 66.6756 25.04 66.6756 24.104V24.05H69.3216C69.3216 24.284 69.4296 25.004 70.3296 25.004C71.1756 25.004 71.3016 24.284 71.3016 24.05H73.9116V24.104C73.9116 25.04 73.1916 26.984 70.5816 26.984ZM87.4332 38V30.674H83.4732C83.4732 33.356 83.3832 34.85 83.0412 35.768C82.6632 36.776 82.1592 38 79.5132 38H78.4152V35.39H78.6312C79.2612 35.39 79.7292 35.174 79.9272 34.256C80.0712 33.482 80.1252 32.636 80.1252 28.01H90.9432V38H87.4332ZM100.115 38.27H99.5566C94.1746 38.27 93.3466 34.994 93.3466 33.176V32.924C93.3466 31.124 94.1746 27.74 99.5386 27.74H100.133C105.677 27.74 106.325 31.142 106.325 32.906V33.194C106.325 34.994 105.677 38.27 100.115 38.27ZM99.7366 35.642H99.9346C102.149 35.642 102.707 34.058 102.707 32.96C102.707 31.826 102.149 30.314 99.9346 30.314H99.7366C97.4326 30.314 96.9646 31.826 96.9646 32.96C96.9646 34.058 97.4326 35.642 99.7366 35.642ZM116.983 38H108.739V28.01H116.623C118.909 28.01 120.349 28.82 120.349 30.404V30.494C120.349 31.736 119.557 32.474 118.351 32.672C119.575 32.816 120.673 33.68 120.673 35.12V35.192C120.673 37.01 119.485 38 116.983 38ZM112.249 31.988H115.471C116.317 31.988 116.749 31.664 116.749 31.034V30.944C116.749 30.368 116.353 30.026 115.471 30.026H112.249V31.988ZM112.249 35.984H115.615C116.551 35.984 117.073 35.678 117.073 34.976V34.832C117.073 34.202 116.641 33.806 115.615 33.806H112.249V35.984ZM126.628 38H123.118V28.01H126.628V31.646H131.524V28.01H135.034V38H131.524V34.31H126.628V38ZM142.67 36.002C144.722 36.002 145.424 34.706 145.424 33.95V33.176C145.118 33.302 144.236 33.482 143.228 33.644C141.536 33.932 140.996 34.166 140.996 34.868V34.904C140.996 35.534 141.446 36.002 142.67 36.002ZM145.532 36.614C145.1 37.136 144.02 38.198 141.68 38.198H141.392C138.602 38.198 137.45 36.686 137.45 35.03V34.958C137.45 33.23 138.548 32.168 141.932 31.88L144.668 31.646C145.226 31.592 145.424 31.412 145.424 30.998C145.424 30.53 145.28 30.026 143.336 30.026C141.5 30.026 141.32 30.746 141.32 31.124H137.72V31.088C137.72 30.098 138.116 27.776 143.03 27.776H143.588C148.538 27.776 148.844 29.81 148.844 31.142V34.436C148.844 35.066 148.97 35.318 149.672 35.318H150.05V38H147.206C146.162 38 145.676 37.262 145.532 36.614Z" fill="url(#paint0_linear_41_101)"/>
<path d="M9.728 9.716H4.364V14H0.656V0.608H9.728C13.958 0.608 15.272 2.462 15.272 5.054V5.252C15.272 7.79 13.904 9.716 9.728 9.716ZM4.364 3.596V6.728H9.458C10.826 6.728 11.42 6.152 11.42 5.198V5.126C11.42 4.19 10.826 3.596 9.458 3.596H4.364ZM23.474 14.27H22.916C17.534 14.27 16.706 10.994 16.706 9.176V8.924C16.706 7.124 17.534 3.74 22.898 3.74H23.492C29.036 3.74 29.684 7.142 29.684 8.906V9.194C29.684 10.994 29.036 14.27 23.474 14.27ZM23.096 11.642H23.294C25.508 11.642 26.066 10.058 26.066 8.96C26.066 7.826 25.508 6.314 23.294 6.314H23.096C20.792 6.314 20.324 7.826 20.324 8.96C20.324 10.058 20.792 11.642 23.096 11.642ZM32.0986 14V4.01H40.8106V6.674H35.6086V14H32.0986ZM48.9798 14.27H48.4218C43.0398 14.27 42.2118 10.994 42.2118 9.176V8.924C42.2118 7.124 43.0398 3.74 48.4038 3.74H48.9978C54.5418 3.74 55.1898 7.142 55.1898 8.906V9.194C55.1898 10.994 54.5418 14.27 48.9798 14.27ZM48.6018 11.642H48.7998C51.0138 11.642 51.5718 10.058 51.5718 8.96C51.5718 7.826 51.0138 6.314 48.7998 6.314H48.6018C46.2978 6.314 45.8298 7.826 45.8298 8.96C45.8298 10.058 46.2978 11.642 48.6018 11.642ZM65.8485 14H57.6045V4.01H65.4885C67.7745 4.01 69.2145 4.82 69.2145 6.404V6.494C69.2145 7.736 68.4225 8.474 67.2165 8.672C68.4405 8.816 69.5385 9.68 69.5385 11.12V11.192C69.5385 13.01 68.3505 14 65.8485 14ZM61.1145 7.988H64.3365C65.1825 7.988 65.6145 7.664 65.6145 7.034V6.944C65.6145 6.368 65.2185 6.026 64.3365 6.026H61.1145V7.988ZM61.1145 11.984H64.4805C65.4165 11.984 65.9385 11.678 65.9385 10.976V10.832C65.9385 10.202 65.5065 9.806 64.4805 9.806H61.1145V11.984ZM76.6115 12.002C78.6635 12.002 79.3655 10.706 79.3655 9.95V9.176C79.0595 9.302 78.1775 9.482 77.1695 9.644C75.4775 9.932 74.9375 10.166 74.9375 10.868V10.904C74.9375 11.534 75.3875 12.002 76.6115 12.002ZM79.4735 12.614C79.0415 13.136 77.9615 14.198 75.6215 14.198H75.3335C72.5435 14.198 71.3915 12.686 71.3915 11.03V10.958C71.3915 9.23 72.4895 8.168 75.8735 7.88L78.6095 7.646C79.1675 7.592 79.3655 7.412 79.3655 6.998C79.3655 6.53 79.2215 6.026 77.2775 6.026C75.4415 6.026 75.2615 6.746 75.2615 7.124H71.6615V7.088C71.6615 6.098 72.0575 3.776 76.9715 3.776H77.5295C82.4795 3.776 82.7855 5.81 82.7855 7.142V10.436C82.7855 11.066 82.9115 11.318 83.6135 11.318H83.9915V14H81.1475C80.1035 14 79.6175 13.262 79.4735 12.614ZM100.736 8.762L98.3063 3.308L95.9483 8.762H100.736ZM103.076 14L101.978 11.516H94.7423L93.6623 14H89.9363L95.8763 0.608H100.844L107.054 14H103.076ZM112.214 14H108.704V4.01H112.214V7.646H117.11V4.01H120.62V14H117.11V10.31H112.214V14ZM127.05 14H123.54V4.01H127.05V7.646H131.946V4.01H135.456V14H131.946V10.31H127.05V14ZM143.092 12.002C145.144 12.002 145.846 10.706 145.846 9.95V9.176C145.54 9.302 144.658 9.482 143.65 9.644C141.958 9.932 141.418 10.166 141.418 10.868V10.904C141.418 11.534 141.868 12.002 143.092 12.002ZM145.954 12.614C145.522 13.136 144.442 14.198 142.102 14.198H141.814C139.024 14.198 137.872 12.686 137.872 11.03V10.958C137.872 9.23 138.97 8.168 142.354 7.88L145.09 7.646C145.648 7.592 145.846 7.412 145.846 6.998C145.846 6.53 145.702 6.026 143.758 6.026C141.922 6.026 141.742 6.746 141.742 7.124H138.142V7.088C138.142 6.098 138.538 3.776 143.452 3.776H144.01C148.96 3.776 149.266 5.81 149.266 7.142V10.436C149.266 11.066 149.392 11.318 150.094 11.318H150.472V14H147.628C146.584 14 146.098 13.262 145.954 12.614ZM0.656 38V24.608H5.588L9.854 33.68L14.246 24.608H18.872V38H15.254V29.234L11.186 38H8.288L4.22 29.234V38H0.656ZM30.4152 31.952L25.5912 38H21.9912V28.01H25.5012V34.058L30.3252 28.01H33.9252V38H30.4152V31.952ZM44.8367 38L42.1547 35.138L39.5447 38H35.5667L40.0487 32.996L35.4227 28.01H39.7247L42.2807 30.8L44.7467 28.01H48.6167L44.3147 32.924L48.8867 38H44.8367ZM55.008 36.002C57.06 36.002 57.762 34.706 57.762 33.95V33.176C57.456 33.302 56.574 33.482 55.566 33.644C53.874 33.932 53.334 34.166 53.334 34.868V34.904C53.334 35.534 53.784 36.002 55.008 36.002ZM57.87 36.614C57.438 37.136 56.358 38.198 54.018 38.198H53.73C50.94 38.198 49.788 36.686 49.788 35.03V34.958C49.788 33.23 50.886 32.168 54.27 31.88L57.006 31.646C57.564 31.592 57.762 31.412 57.762 30.998C57.762 30.53 57.618 30.026 55.674 30.026C53.838 30.026 53.658 30.746 53.658 31.124H50.058V31.088C50.058 30.098 50.454 27.776 55.368 27.776H55.926C60.876 27.776 61.182 29.81 61.182 31.142V34.436C61.182 35.066 61.308 35.318 62.01 35.318H62.388V38H59.544C58.5 38 58.014 37.262 57.87 36.614ZM72.8136 31.952L67.9896 38H64.3896V28.01H67.8996V34.058L72.7236 28.01H76.3236V38H72.8136V31.952ZM70.5816 26.984H70.0416C67.1796 26.984 66.6756 25.04 66.6756 24.104V24.05H69.3216C69.3216 24.284 69.4296 25.004 70.3296 25.004C71.1756 25.004 71.3016 24.284 71.3016 24.05H73.9116V24.104C73.9116 25.04 73.1916 26.984 70.5816 26.984ZM87.4332 38V30.674H83.4732C83.4732 33.356 83.3832 34.85 83.0412 35.768C82.6632 36.776 82.1592 38 79.5132 38H78.4152V35.39H78.6312C79.2612 35.39 79.7292 35.174 79.9272 34.256C80.0712 33.482 80.1252 32.636 80.1252 28.01H90.9432V38H87.4332ZM100.115 38.27H99.5566C94.1746 38.27 93.3466 34.994 93.3466 33.176V32.924C93.3466 31.124 94.1746 27.74 99.5386 27.74H100.133C105.677 27.74 106.325 31.142 106.325 32.906V33.194C106.325 34.994 105.677 38.27 100.115 38.27ZM99.7366 35.642H99.9346C102.149 35.642 102.707 34.058 102.707 32.96C102.707 31.826 102.149 30.314 99.9346 30.314H99.7366C97.4326 30.314 96.9646 31.826 96.9646 32.96C96.9646 34.058 97.4326 35.642 99.7366 35.642ZM116.983 38H108.739V28.01H116.623C118.909 28.01 120.349 28.82 120.349 30.404V30.494C120.349 31.736 119.557 32.474 118.351 32.672C119.575 32.816 120.673 33.68 120.673 35.12V35.192C120.673 37.01 119.485 38 116.983 38ZM112.249 31.988H115.471C116.317 31.988 116.749 31.664 116.749 31.034V30.944C116.749 30.368 116.353 30.026 115.471 30.026H112.249V31.988ZM112.249 35.984H115.615C116.551 35.984 117.073 35.678 117.073 34.976V34.832C117.073 34.202 116.641 33.806 115.615 33.806H112.249V35.984ZM126.628 38H123.118V28.01H126.628V31.646H131.524V28.01H135.034V38H131.524V34.31H126.628V38ZM142.67 36.002C144.722 36.002 145.424 34.706 145.424 33.95V33.176C145.118 33.302 144.236 33.482 143.228 33.644C141.536 33.932 140.996 34.166 140.996 34.868V34.904C140.996 35.534 141.446 36.002 142.67 36.002ZM145.532 36.614C145.1 37.136 144.02 38.198 141.68 38.198H141.392C138.602 38.198 137.45 36.686 137.45 35.03V34.958C137.45 33.23 138.548 32.168 141.932 31.88L144.668 31.646C145.226 31.592 145.424 31.412 145.424 30.998C145.424 30.53 145.28 30.026 143.336 30.026C141.5 30.026 141.32 30.746 141.32 31.124H137.72V31.088C137.72 30.098 138.116 27.776 143.03 27.776H143.588C148.538 27.776 148.844 29.81 148.844 31.142V34.436C148.844 35.066 148.97 35.318 149.672 35.318H150.05V38H147.206C146.162 38 145.676 37.262 145.532 36.614Z" fill="url(#paint1_radial_41_101)" style="mix-blend-mode:overlay"/>
<path d="M9.728 9.716H4.364V14H0.656V0.608H9.728C13.958 0.608 15.272 2.462 15.272 5.054V5.252C15.272 7.79 13.904 9.716 9.728 9.716ZM4.364 3.596V6.728H9.458C10.826 6.728 11.42 6.152 11.42 5.198V5.126C11.42 4.19 10.826 3.596 9.458 3.596H4.364ZM23.474 14.27H22.916C17.534 14.27 16.706 10.994 16.706 9.176V8.924C16.706 7.124 17.534 3.74 22.898 3.74H23.492C29.036 3.74 29.684 7.142 29.684 8.906V9.194C29.684 10.994 29.036 14.27 23.474 14.27ZM23.096 11.642H23.294C25.508 11.642 26.066 10.058 26.066 8.96C26.066 7.826 25.508 6.314 23.294 6.314H23.096C20.792 6.314 20.324 7.826 20.324 8.96C20.324 10.058 20.792 11.642 23.096 11.642ZM32.0986 14V4.01H40.8106V6.674H35.6086V14H32.0986ZM48.9798 14.27H48.4218C43.0398 14.27 42.2118 10.994 42.2118 9.176V8.924C42.2118 7.124 43.0398 3.74 48.4038 3.74H48.9978C54.5418 3.74 55.1898 7.142 55.1898 8.906V9.194C55.1898 10.994 54.5418 14.27 48.9798 14.27ZM48.6018 11.642H48.7998C51.0138 11.642 51.5718 10.058 51.5718 8.96C51.5718 7.826 51.0138 6.314 48.7998 6.314H48.6018C46.2978 6.314 45.8298 7.826 45.8298 8.96C45.8298 10.058 46.2978 11.642 48.6018 11.642ZM65.8485 14H57.6045V4.01H65.4885C67.7745 4.01 69.2145 4.82 69.2145 6.404V6.494C69.2145 7.736 68.4225 8.474 67.2165 8.672C68.4405 8.816 69.5385 9.68 69.5385 11.12V11.192C69.5385 13.01 68.3505 14 65.8485 14ZM61.1145 7.988H64.3365C65.1825 7.988 65.6145 7.664 65.6145 7.034V6.944C65.6145 6.368 65.2185 6.026 64.3365 6.026H61.1145V7.988ZM61.1145 11.984H64.4805C65.4165 11.984 65.9385 11.678 65.9385 10.976V10.832C65.9385 10.202 65.5065 9.806 64.4805 9.806H61.1145V11.984ZM76.6115 12.002C78.6635 12.002 79.3655 10.706 79.3655 9.95V9.176C79.0595 9.302 78.1775 9.482 77.1695 9.644C75.4775 9.932 74.9375 10.166 74.9375 10.868V10.904C74.9375 11.534 75.3875 12.002 76.6115 12.002ZM79.4735 12.614C79.0415 13.136 77.9615 14.198 75.6215 14.198H75.3335C72.5435 14.198 71.3915 12.686 71.3915 11.03V10.958C71.3915 9.23 72.4895 8.168 75.8735 7.88L78.6095 7.646C79.1675 7.592 79.3655 7.412 79.3655 6.998C79.3655 6.53 79.2215 6.026 77.2775 6.026C75.4415 6.026 75.2615 6.746 75.2615 7.124H71.6615V7.088C71.6615 6.098 72.0575 3.776 76.9715 3.776H77.5295C82.4795 3.776 82.7855 5.81 82.7855 7.142V10.436C82.7855 11.066 82.9115 11.318 83.6135 11.318H83.9915V14H81.1475C80.1035 14 79.6175 13.262 79.4735 12.614ZM100.736 8.762L98.3063 3.308L95.9483 8.762H100.736ZM103.076 14L101.978 11.516H94.7423L93.6623 14H89.9363L95.8763 0.608H100.844L107.054 14H103.076ZM112.214 14H108.704V4.01H112.214V7.646H117.11V4.01H120.62V14H117.11V10.31H112.214V14ZM127.05 14H123.54V4.01H127.05V7.646H131.946V4.01H135.456V14H131.946V10.31H127.05V14ZM143.092 12.002C145.144 12.002 145.846 10.706 145.846 9.95V9.176C145.54 9.302 144.658 9.482 143.65 9.644C141.958 9.932 141.418 10.166 141.418 10.868V10.904C141.418 11.534 141.868 12.002 143.092 12.002ZM145.954 12.614C145.522 13.136 144.442 14.198 142.102 14.198H141.814C139.024 14.198 137.872 12.686 137.872 11.03V10.958C137.872 9.23 138.97 8.168 142.354 7.88L145.09 7.646C145.648 7.592 145.846 7.412 145.846 6.998C145.846 6.53 145.702 6.026 143.758 6.026C141.922 6.026 141.742 6.746 141.742 7.124H138.142V7.088C138.142 6.098 138.538 3.776 143.452 3.776H144.01C148.96 3.776 149.266 5.81 149.266 7.142V10.436C149.266 11.066 149.392 11.318 150.094 11.318H150.472V14H147.628C146.584 14 146.098 13.262 145.954 12.614ZM0.656 38V24.608H5.588L9.854 33.68L14.246 24.608H18.872V38H15.254V29.234L11.186 38H8.288L4.22 29.234V38H0.656ZM30.4152 31.952L25.5912 38H21.9912V28.01H25.5012V34.058L30.3252 28.01H33.9252V38H30.4152V31.952ZM44.8367 38L42.1547 35.138L39.5447 38H35.5667L40.0487 32.996L35.4227 28.01H39.7247L42.2807 30.8L44.7467 28.01H48.6167L44.3147 32.924L48.8867 38H44.8367ZM55.008 36.002C57.06 36.002 57.762 34.706 57.762 33.95V33.176C57.456 33.302 56.574 33.482 55.566 33.644C53.874 33.932 53.334 34.166 53.334 34.868V34.904C53.334 35.534 53.784 36.002 55.008 36.002ZM57.87 36.614C57.438 37.136 56.358 38.198 54.018 38.198H53.73C50.94 38.198 49.788 36.686 49.788 35.03V34.958C49.788 33.23 50.886 32.168 54.27 31.88L57.006 31.646C57.564 31.592 57.762 31.412 57.762 30.998C57.762 30.53 57.618 30.026 55.674 30.026C53.838 30.026 53.658 30.746 53.658 31.124H50.058V31.088C50.058 30.098 50.454 27.776 55.368 27.776H55.926C60.876 27.776 61.182 29.81 61.182 31.142V34.436C61.182 35.066 61.308 35.318 62.01 35.318H62.388V38H59.544C58.5 38 58.014 37.262 57.87 36.614ZM72.8136 31.952L67.9896 38H64.3896V28.01H67.8996V34.058L72.7236 28.01H76.3236V38H72.8136V31.952ZM70.5816 26.984H70.0416C67.1796 26.984 66.6756 25.04 66.6756 24.104V24.05H69.3216C69.3216 24.284 69.4296 25.004 70.3296 25.004C71.1756 25.004 71.3016 24.284 71.3016 24.05H73.9116V24.104C73.9116 25.04 73.1916 26.984 70.5816 26.984ZM87.4332 38V30.674H83.4732C83.4732 33.356 83.3832 34.85 83.0412 35.768C82.6632 36.776 82.1592 38 79.5132 38H78.4152V35.39H78.6312C79.2612 35.39 79.7292 35.174 79.9272 34.256C80.0712 33.482 80.1252 32.636 80.1252 28.01H90.9432V38H87.4332ZM100.115 38.27H99.5566C94.1746 38.27 93.3466 34.994 93.3466 33.176V32.924C93.3466 31.124 94.1746 27.74 99.5386 27.74H100.133C105.677 27.74 106.325 31.142 106.325 32.906V33.194C106.325 34.994 105.677 38.27 100.115 38.27ZM99.7366 35.642H99.9346C102.149 35.642 102.707 34.058 102.707 32.96C102.707 31.826 102.149 30.314 99.9346 30.314H99.7366C97.4326 30.314 96.9646 31.826 96.9646 32.96C96.9646 34.058 97.4326 35.642 99.7366 35.642ZM116.983 38H108.739V28.01H116.623C118.909 28.01 120.349 28.82 120.349 30.404V30.494C120.349 31.736 119.557 32.474 118.351 32.672C119.575 32.816 120.673 33.68 120.673 35.12V35.192C120.673 37.01 119.485 38 116.983 38ZM112.249 31.988H115.471C116.317 31.988 116.749 31.664 116.749 31.034V30.944C116.749 30.368 116.353 30.026 115.471 30.026H112.249V31.988ZM112.249 35.984H115.615C116.551 35.984 117.073 35.678 117.073 34.976V34.832C117.073 34.202 116.641 33.806 115.615 33.806H112.249V35.984ZM126.628 38H123.118V28.01H126.628V31.646H131.524V28.01H135.034V38H131.524V34.31H126.628V38ZM142.67 36.002C144.722 36.002 145.424 34.706 145.424 33.95V33.176C145.118 33.302 144.236 33.482 143.228 33.644C141.536 33.932 140.996 34.166 140.996 34.868V34.904C140.996 35.534 141.446 36.002 142.67 36.002ZM145.532 36.614C145.1 37.136 144.02 38.198 141.68 38.198H141.392C138.602 38.198 137.45 36.686 137.45 35.03V34.958C137.45 33.23 138.548 32.168 141.932 31.88L144.668 31.646C145.226 31.592 145.424 31.412 145.424 30.998C145.424 30.53 145.28 30.026 143.336 30.026C141.5 30.026 141.32 30.746 141.32 31.124H137.72V31.088C137.72 30.098 138.116 27.776 143.03 27.776H143.588C148.538 27.776 148.844 29.81 148.844 31.142V34.436C148.844 35.066 148.97 35.318 149.672 35.318H150.05V38H147.206C146.162 38 145.676 37.262 145.532 36.614Z" fill="url(#paint2_radial_41_101)"/>
<path d="M9.728 9.716H4.364V14H0.656V0.608H9.728C13.958 0.608 15.272 2.462 15.272 5.054V5.252C15.272 7.79 13.904 9.716 9.728 9.716ZM4.364 3.596V6.728H9.458C10.826 6.728 11.42 6.152 11.42 5.198V5.126C11.42 4.19 10.826 3.596 9.458 3.596H4.364ZM23.474 14.27H22.916C17.534 14.27 16.706 10.994 16.706 9.176V8.924C16.706 7.124 17.534 3.74 22.898 3.74H23.492C29.036 3.74 29.684 7.142 29.684 8.906V9.194C29.684 10.994 29.036 14.27 23.474 14.27ZM23.096 11.642H23.294C25.508 11.642 26.066 10.058 26.066 8.96C26.066 7.826 25.508 6.314 23.294 6.314H23.096C20.792 6.314 20.324 7.826 20.324 8.96C20.324 10.058 20.792 11.642 23.096 11.642ZM32.0986 14V4.01H40.8106V6.674H35.6086V14H32.0986ZM48.9798 14.27H48.4218C43.0398 14.27 42.2118 10.994 42.2118 9.176V8.924C42.2118 7.124 43.0398 3.74 48.4038 3.74H48.9978C54.5418 3.74 55.1898 7.142 55.1898 8.906V9.194C55.1898 10.994 54.5418 14.27 48.9798 14.27ZM48.6018 11.642H48.7998C51.0138 11.642 51.5718 10.058 51.5718 8.96C51.5718 7.826 51.0138 6.314 48.7998 6.314H48.6018C46.2978 6.314 45.8298 7.826 45.8298 8.96C45.8298 10.058 46.2978 11.642 48.6018 11.642ZM65.8485 14H57.6045V4.01H65.4885C67.7745 4.01 69.2145 4.82 69.2145 6.404V6.494C69.2145 7.736 68.4225 8.474 67.2165 8.672C68.4405 8.816 69.5385 9.68 69.5385 11.12V11.192C69.5385 13.01 68.3505 14 65.8485 14ZM61.1145 7.988H64.3365C65.1825 7.988 65.6145 7.664 65.6145 7.034V6.944C65.6145 6.368 65.2185 6.026 64.3365 6.026H61.1145V7.988ZM61.1145 11.984H64.4805C65.4165 11.984 65.9385 11.678 65.9385 10.976V10.832C65.9385 10.202 65.5065 9.806 64.4805 9.806H61.1145V11.984ZM76.6115 12.002C78.6635 12.002 79.3655 10.706 79.3655 9.95V9.176C79.0595 9.302 78.1775 9.482 77.1695 9.644C75.4775 9.932 74.9375 10.166 74.9375 10.868V10.904C74.9375 11.534 75.3875 12.002 76.6115 12.002ZM79.4735 12.614C79.0415 13.136 77.9615 14.198 75.6215 14.198H75.3335C72.5435 14.198 71.3915 12.686 71.3915 11.03V10.958C71.3915 9.23 72.4895 8.168 75.8735 7.88L78.6095 7.646C79.1675 7.592 79.3655 7.412 79.3655 6.998C79.3655 6.53 79.2215 6.026 77.2775 6.026C75.4415 6.026 75.2615 6.746 75.2615 7.124H71.6615V7.088C71.6615 6.098 72.0575 3.776 76.9715 3.776H77.5295C82.4795 3.776 82.7855 5.81 82.7855 7.142V10.436C82.7855 11.066 82.9115 11.318 83.6135 11.318H83.9915V14H81.1475C80.1035 14 79.6175 13.262 79.4735 12.614ZM100.736 8.762L98.3063 3.308L95.9483 8.762H100.736ZM103.076 14L101.978 11.516H94.7423L93.6623 14H89.9363L95.8763 0.608H100.844L107.054 14H103.076ZM112.214 14H108.704V4.01H112.214V7.646H117.11V4.01H120.62V14H117.11V10.31H112.214V14ZM127.05 14H123.54V4.01H127.05V7.646H131.946V4.01H135.456V14H131.946V10.31H127.05V14ZM143.092 12.002C145.144 12.002 145.846 10.706 145.846 9.95V9.176C145.54 9.302 144.658 9.482 143.65 9.644C141.958 9.932 141.418 10.166 141.418 10.868V10.904C141.418 11.534 141.868 12.002 143.092 12.002ZM145.954 12.614C145.522 13.136 144.442 14.198 142.102 14.198H141.814C139.024 14.198 137.872 12.686 137.872 11.03V10.958C137.872 9.23 138.97 8.168 142.354 7.88L145.09 7.646C145.648 7.592 145.846 7.412 145.846 6.998C145.846 6.53 145.702 6.026 143.758 6.026C141.922 6.026 141.742 6.746 141.742 7.124H138.142V7.088C138.142 6.098 138.538 3.776 143.452 3.776H144.01C148.96 3.776 149.266 5.81 149.266 7.142V10.436C149.266 11.066 149.392 11.318 150.094 11.318H150.472V14H147.628C146.584 14 146.098 13.262 145.954 12.614ZM0.656 38V24.608H5.588L9.854 33.68L14.246 24.608H18.872V38H15.254V29.234L11.186 38H8.288L4.22 29.234V38H0.656ZM30.4152 31.952L25.5912 38H21.9912V28.01H25.5012V34.058L30.3252 28.01H33.9252V38H30.4152V31.952ZM44.8367 38L42.1547 35.138L39.5447 38H35.5667L40.0487 32.996L35.4227 28.01H39.7247L42.2807 30.8L44.7467 28.01H48.6167L44.3147 32.924L48.8867 38H44.8367ZM55.008 36.002C57.06 36.002 57.762 34.706 57.762 33.95V33.176C57.456 33.302 56.574 33.482 55.566 33.644C53.874 33.932 53.334 34.166 53.334 34.868V34.904C53.334 35.534 53.784 36.002 55.008 36.002ZM57.87 36.614C57.438 37.136 56.358 38.198 54.018 38.198H53.73C50.94 38.198 49.788 36.686 49.788 35.03V34.958C49.788 33.23 50.886 32.168 54.27 31.88L57.006 31.646C57.564 31.592 57.762 31.412 57.762 30.998C57.762 30.53 57.618 30.026 55.674 30.026C53.838 30.026 53.658 30.746 53.658 31.124H50.058V31.088C50.058 30.098 50.454 27.776 55.368 27.776H55.926C60.876 27.776 61.182 29.81 61.182 31.142V34.436C61.182 35.066 61.308 35.318 62.01 35.318H62.388V38H59.544C58.5 38 58.014 37.262 57.87 36.614ZM72.8136 31.952L67.9896 38H64.3896V28.01H67.8996V34.058L72.7236 28.01H76.3236V38H72.8136V31.952ZM70.5816 26.984H70.0416C67.1796 26.984 66.6756 25.04 66.6756 24.104V24.05H69.3216C69.3216 24.284 69.4296 25.004 70.3296 25.004C71.1756 25.004 71.3016 24.284 71.3016 24.05H73.9116V24.104C73.9116 25.04 73.1916 26.984 70.5816 26.984ZM87.4332 38V30.674H83.4732C83.4732 33.356 83.3832 34.85 83.0412 35.768C82.6632 36.776 82.1592 38 79.5132 38H78.4152V35.39H78.6312C79.2612 35.39 79.7292 35.174 79.9272 34.256C80.0712 33.482 80.1252 32.636 80.1252 28.01H90.9432V38H87.4332ZM100.115 38.27H99.5566C94.1746 38.27 93.3466 34.994 93.3466 33.176V32.924C93.3466 31.124 94.1746 27.74 99.5386 27.74H100.133C105.677 27.74 106.325 31.142 106.325 32.906V33.194C106.325 34.994 105.677 38.27 100.115 38.27ZM99.7366 35.642H99.9346C102.149 35.642 102.707 34.058 102.707 32.96C102.707 31.826 102.149 30.314 99.9346 30.314H99.7366C97.4326 30.314 96.9646 31.826 96.9646 32.96C96.9646 34.058 97.4326 35.642 99.7366 35.642ZM116.983 38H108.739V28.01H116.623C118.909 28.01 120.349 28.82 120.349 30.404V30.494C120.349 31.736 119.557 32.474 118.351 32.672C119.575 32.816 120.673 33.68 120.673 35.12V35.192C120.673 37.01 119.485 38 116.983 38ZM112.249 31.988H115.471C116.317 31.988 116.749 31.664 116.749 31.034V30.944C116.749 30.368 116.353 30.026 115.471 30.026H112.249V31.988ZM112.249 35.984H115.615C116.551 35.984 117.073 35.678 117.073 34.976V34.832C117.073 34.202 116.641 33.806 115.615 33.806H112.249V35.984ZM126.628 38H123.118V28.01H126.628V31.646H131.524V28.01H135.034V38H131.524V34.31H126.628V38ZM142.67 36.002C144.722 36.002 145.424 34.706 145.424 33.95V33.176C145.118 33.302 144.236 33.482 143.228 33.644C141.536 33.932 140.996 34.166 140.996 34.868V34.904C140.996 35.534 141.446 36.002 142.67 36.002ZM145.532 36.614C145.1 37.136 144.02 38.198 141.68 38.198H141.392C138.602 38.198 137.45 36.686 137.45 35.03V34.958C137.45 33.23 138.548 32.168 141.932 31.88L144.668 31.646C145.226 31.592 145.424 31.412 145.424 30.998C145.424 30.53 145.28 30.026 143.336 30.026C141.5 30.026 141.32 30.746 141.32 31.124H137.72V31.088C137.72 30.098 138.116 27.776 143.03 27.776H143.588C148.538 27.776 148.844 29.81 148.844 31.142V34.436C148.844 35.066 148.97 35.318 149.672 35.318H150.05V38H147.206C146.162 38 145.676 37.262 145.532 36.614Z" fill="#C1A875" style="mix-blend-mode:color"/>
<defs>
<linearGradient id="paint0_linear_41_101" x1="-0.999999" y1="30" x2="221" y2="30" gradientUnits="userSpaceOnUse">
<stop stop-color="#576167"/>
<stop offset="0.191294" stop-color="#9EA1A2"/>
<stop offset="0.396166" stop-color="#848989"/>
<stop offset="0.62055" stop-color="#576167"/>
<stop offset="0.830299" stop-color="#757A7C"/>
<stop offset="1" stop-color="#576167"/>
</linearGradient>
<radialGradient id="paint1_radial_41_101" cx="0" cy="0" r="1" gradientUnits="userSpaceOnUse" gradientTransform="translate(117.226 2.39326) rotate(90) scale(53.4944 167.95)">
<stop stop-color="white"/>
<stop offset="1" stop-color="white" stop-opacity="0"/>
</radialGradient>
<radialGradient id="paint2_radial_41_101" cx="0" cy="0" r="1" gradientUnits="userSpaceOnUse" gradientTransform="translate(129.783 82.9888) rotate(-89.7344) scale(76.6525 240.162)">
<stop stop-color="white"/>
<stop offset="1" stop-color="white" stop-opacity="0"/>
</radialGradient>
</defs>
</svg>
