<svg width="393" height="46" viewBox="0 0 393 46" fill="none" xmlns="http://www.w3.org/2000/svg">
<path d="M11.5 16.14H0.88V7.08C9.88 7.08 12.64 5.76 14.56 0.359999H23.8V45H11.5V16.14ZM57.7234 45.66H55.3234C36.6634 45.66 33.9034 36.24 33.9034 32.52V31.68H46.9234C47.1034 32.7 48.4234 35.7 56.6434 35.7C64.3834 35.7 66.8434 33.18 66.8434 30.18V29.82C66.8434 26.64 64.5634 24.48 56.6434 24.48C48.6634 24.48 46.9834 26.82 46.8034 27.96H34.5634V0.359999H76.0234V10.5H46.8034V18.78C47.2834 18.3 51.3034 15.3 59.3434 15.3H59.9434C75.4834 15.3 79.1434 22.56 79.1434 29.16V29.88C79.1434 36.66 74.8834 45.66 57.7234 45.66ZM105.415 45V0.359999H121.855L136.075 30.6L150.715 0.359999H166.135V45H154.075V15.78L140.515 45H130.855L117.295 15.78V45H105.415ZM208.332 27.54L200.232 9.36L192.372 27.54H208.332ZM216.132 45L212.472 36.72H188.352L184.752 45H172.332L192.132 0.359999H208.692L229.392 45H216.132ZM265.791 30.72H247.911V45H235.551V0.359999H265.791C279.891 0.359999 284.271 6.54 284.271 15.18V15.84C284.271 24.3 279.711 30.72 265.791 30.72ZM247.911 10.32V20.76H264.891C269.451 20.76 271.431 18.84 271.431 15.66V15.42C271.431 12.3 269.451 10.32 264.891 10.32H247.911ZM307.142 45V10.56H289.862V0.359999H336.722V10.56H319.442V45H307.142ZM371.047 27.54L362.947 9.36L355.087 27.54H371.047ZM378.847 45L375.187 36.72H351.067L347.467 45H335.047L354.847 0.359999H371.407L392.107 45H378.847Z" fill="url(#paint0_linear_2018_1033)"/>
<path d="M11.5 16.14H0.88V7.08C9.88 7.08 12.64 5.76 14.56 0.359999H23.8V45H11.5V16.14ZM57.7234 45.66H55.3234C36.6634 45.66 33.9034 36.24 33.9034 32.52V31.68H46.9234C47.1034 32.7 48.4234 35.7 56.6434 35.7C64.3834 35.7 66.8434 33.18 66.8434 30.18V29.82C66.8434 26.64 64.5634 24.48 56.6434 24.48C48.6634 24.48 46.9834 26.82 46.8034 27.96H34.5634V0.359999H76.0234V10.5H46.8034V18.78C47.2834 18.3 51.3034 15.3 59.3434 15.3H59.9434C75.4834 15.3 79.1434 22.56 79.1434 29.16V29.88C79.1434 36.66 74.8834 45.66 57.7234 45.66ZM105.415 45V0.359999H121.855L136.075 30.6L150.715 0.359999H166.135V45H154.075V15.78L140.515 45H130.855L117.295 15.78V45H105.415ZM208.332 27.54L200.232 9.36L192.372 27.54H208.332ZM216.132 45L212.472 36.72H188.352L184.752 45H172.332L192.132 0.359999H208.692L229.392 45H216.132ZM265.791 30.72H247.911V45H235.551V0.359999H265.791C279.891 0.359999 284.271 6.54 284.271 15.18V15.84C284.271 24.3 279.711 30.72 265.791 30.72ZM247.911 10.32V20.76H264.891C269.451 20.76 271.431 18.84 271.431 15.66V15.42C271.431 12.3 269.451 10.32 264.891 10.32H247.911ZM307.142 45V10.56H289.862V0.359999H336.722V10.56H319.442V45H307.142ZM371.047 27.54L362.947 9.36L355.087 27.54H371.047ZM378.847 45L375.187 36.72H351.067L347.467 45H335.047L354.847 0.359999H371.407L392.107 45H378.847Z" fill="url(#paint1_radial_2018_1033)" style="mix-blend-mode:overlay"/>
<path d="M11.5 16.14H0.88V7.08C9.88 7.08 12.64 5.76 14.56 0.359999H23.8V45H11.5V16.14ZM57.7234 45.66H55.3234C36.6634 45.66 33.9034 36.24 33.9034 32.52V31.68H46.9234C47.1034 32.7 48.4234 35.7 56.6434 35.7C64.3834 35.7 66.8434 33.18 66.8434 30.18V29.82C66.8434 26.64 64.5634 24.48 56.6434 24.48C48.6634 24.48 46.9834 26.82 46.8034 27.96H34.5634V0.359999H76.0234V10.5H46.8034V18.78C47.2834 18.3 51.3034 15.3 59.3434 15.3H59.9434C75.4834 15.3 79.1434 22.56 79.1434 29.16V29.88C79.1434 36.66 74.8834 45.66 57.7234 45.66ZM105.415 45V0.359999H121.855L136.075 30.6L150.715 0.359999H166.135V45H154.075V15.78L140.515 45H130.855L117.295 15.78V45H105.415ZM208.332 27.54L200.232 9.36L192.372 27.54H208.332ZM216.132 45L212.472 36.72H188.352L184.752 45H172.332L192.132 0.359999H208.692L229.392 45H216.132ZM265.791 30.72H247.911V45H235.551V0.359999H265.791C279.891 0.359999 284.271 6.54 284.271 15.18V15.84C284.271 24.3 279.711 30.72 265.791 30.72ZM247.911 10.32V20.76H264.891C269.451 20.76 271.431 18.84 271.431 15.66V15.42C271.431 12.3 269.451 10.32 264.891 10.32H247.911ZM307.142 45V10.56H289.862V0.359999H336.722V10.56H319.442V45H307.142ZM371.047 27.54L362.947 9.36L355.087 27.54H371.047ZM378.847 45L375.187 36.72H351.067L347.467 45H335.047L354.847 0.359999H371.407L392.107 45H378.847Z" fill="url(#paint2_radial_2018_1033)"/>
<path d="M11.5 16.14H0.88V7.08C9.88 7.08 12.64 5.76 14.56 0.359999H23.8V45H11.5V16.14ZM57.7234 45.66H55.3234C36.6634 45.66 33.9034 36.24 33.9034 32.52V31.68H46.9234C47.1034 32.7 48.4234 35.7 56.6434 35.7C64.3834 35.7 66.8434 33.18 66.8434 30.18V29.82C66.8434 26.64 64.5634 24.48 56.6434 24.48C48.6634 24.48 46.9834 26.82 46.8034 27.96H34.5634V0.359999H76.0234V10.5H46.8034V18.78C47.2834 18.3 51.3034 15.3 59.3434 15.3H59.9434C75.4834 15.3 79.1434 22.56 79.1434 29.16V29.88C79.1434 36.66 74.8834 45.66 57.7234 45.66ZM105.415 45V0.359999H121.855L136.075 30.6L150.715 0.359999H166.135V45H154.075V15.78L140.515 45H130.855L117.295 15.78V45H105.415ZM208.332 27.54L200.232 9.36L192.372 27.54H208.332ZM216.132 45L212.472 36.72H188.352L184.752 45H172.332L192.132 0.359999H208.692L229.392 45H216.132ZM265.791 30.72H247.911V45H235.551V0.359999H265.791C279.891 0.359999 284.271 6.54 284.271 15.18V15.84C284.271 24.3 279.711 30.72 265.791 30.72ZM247.911 10.32V20.76H264.891C269.451 20.76 271.431 18.84 271.431 15.66V15.42C271.431 12.3 269.451 10.32 264.891 10.32H247.911ZM307.142 45V10.56H289.862V0.359999H336.722V10.56H319.442V45H307.142ZM371.047 27.54L362.947 9.36L355.087 27.54H371.047ZM378.847 45L375.187 36.72H351.067L347.467 45H335.047L354.847 0.359999H371.407L392.107 45H378.847Z" fill="#C1A875" style="mix-blend-mode:color"/>
<defs>
<linearGradient id="paint0_linear_2018_1033" x1="-2" y1="19.5" x2="393" y2="19.5" gradientUnits="userSpaceOnUse">
<stop stop-color="#576167"/>
<stop offset="0.191294" stop-color="#9EA1A2"/>
<stop offset="0.396166" stop-color="#848989"/>
<stop offset="0.62055" stop-color="#576167"/>
<stop offset="0.830299" stop-color="#757A7C"/>
<stop offset="1" stop-color="#576167"/>
</linearGradient>
<radialGradient id="paint1_radial_2018_1033" cx="0" cy="0" r="1" gradientUnits="userSpaceOnUse" gradientTransform="translate(208.358 -11.5576) rotate(90) scale(60.1812 298.83)">
<stop stop-color="white"/>
<stop offset="1" stop-color="white" stop-opacity="0"/>
</radialGradient>
<radialGradient id="paint2_radial_2018_1033" cx="0" cy="0" r="1" gradientUnits="userSpaceOnUse" gradientTransform="translate(230.7 79.1124) rotate(-89.5799) scale(86.2355 427.309)">
<stop stop-color="white"/>
<stop offset="1" stop-color="white" stop-opacity="0"/>
</radialGradient>
</defs>
</svg>
