<svg width="182" height="18" viewBox="0 0 182 18" fill="none" xmlns="http://www.w3.org/2000/svg">
<path d="M11.1172 4.982V4.892C11.1172 4.262 10.5772 3.29 7.89525 3.29C4.96125 3.29 4.63725 4.316 4.63725 4.874V4.982C4.63725 5.63 5.06925 6.494 7.89525 6.494C10.6312 6.494 11.1172 5.63 11.1172 4.982ZM8.43525 14.198H7.76925C2.45925 14.198 1.30725 11.75 1.30725 10.166V10.148H4.97925C4.97925 10.31 5.23125 11.336 8.02125 11.336C11.2432 11.336 11.6212 9.032 11.6212 7.934V7.808C11.2792 8.096 10.1272 9.104 7.06725 9.104H6.67125C2.35125 9.104 0.821248 7.214 0.821248 5.27V4.982C0.821248 3.128 1.75725 0.446 7.35525 0.446H8.45325C14.4652 0.446 15.4012 4.694 15.4012 6.998V7.412C15.4012 9.446 14.3752 14.198 8.43525 14.198ZM21.8078 10.508V14H17.6138V10.508H21.8078ZM30.656 14V0.608H35.588L39.854 9.68L44.246 0.608H48.872V14H45.254V5.234L41.186 14H38.288L34.22 5.234V14H30.656ZM57.8052 6.08C55.9872 6.08 55.3032 6.818 55.1232 7.862H60.4152C60.4152 7.124 60.0552 6.08 57.8052 6.08ZM60.4872 10.886H64.1412C64.1412 11.714 63.4932 14.234 58.3272 14.234H57.6612C52.7292 14.234 51.5052 11.534 51.5052 9.14V8.888C51.5052 6.638 52.6212 3.794 57.3552 3.794H58.1472C63.2592 3.794 64.1772 6.638 64.1772 9.428V9.752H55.0872C55.2312 10.904 55.9692 11.84 58.1112 11.84C60.1452 11.84 60.3972 11.048 60.4872 10.886ZM70.091 14H66.581V4.01H70.091V7.646H74.987V4.01H78.497V14H74.987V10.31H70.091V14ZM84.279 14V6.674H80.409V4.01H91.659V6.674H87.789V14H84.279ZM99.8275 14.27H99.2695C93.8875 14.27 93.0595 10.994 93.0595 9.176V8.924C93.0595 7.124 93.8875 3.74 99.2515 3.74H99.8455C105.389 3.74 106.037 7.142 106.037 8.906V9.194C106.037 10.994 105.389 14.27 99.8275 14.27ZM99.4495 11.642H99.6475C101.861 11.642 102.419 10.058 102.419 8.96C102.419 7.826 101.861 6.314 99.6475 6.314H99.4495C97.1455 6.314 96.6775 7.826 96.6775 8.96C96.6775 10.058 97.1455 11.642 99.4495 11.642ZM117.632 9.014V8.96C117.632 7.88 117.128 6.422 114.932 6.422H114.752C112.646 6.422 111.98 7.808 111.98 8.96V9.014C111.98 10.112 112.646 11.552 114.752 11.552H114.932C117.128 11.552 117.632 10.04 117.632 9.014ZM108.488 17.438V4.01H111.962V5.288C112.394 4.82 113.708 3.812 115.976 3.812H116.21C120.026 3.812 121.268 6.422 121.268 8.798V9.104C121.268 11.282 119.99 14.198 116.192 14.198H115.94C113.654 14.198 112.43 13.154 111.998 12.722V17.438H108.488ZM128.913 14V4.01H137.625V6.674H132.423V14H128.913ZM145.794 14.27H145.236C139.854 14.27 139.026 10.994 139.026 9.176V8.924C139.026 7.124 139.854 3.74 145.218 3.74H145.812C151.356 3.74 152.004 7.142 152.004 8.906V9.194C152.004 10.994 151.356 14.27 145.794 14.27ZM145.416 11.642H145.614C147.828 11.642 148.386 10.058 148.386 8.96C148.386 7.826 147.828 6.314 145.614 6.314H145.416C143.112 6.314 142.644 7.826 142.644 8.96C142.644 10.058 143.112 11.642 145.416 11.642ZM153.327 16.124V11.336H154.533C155.217 9.968 155.325 6.998 155.415 4.01H165.981V11.336H167.781V16.124H164.451V14H156.657V16.124H153.327ZM157.845 11.336H162.471V6.674H158.565C158.511 7.97 158.331 9.95 157.845 11.336ZM174.586 12.002C176.638 12.002 177.34 10.706 177.34 9.95V9.176C177.034 9.302 176.152 9.482 175.144 9.644C173.452 9.932 172.912 10.166 172.912 10.868V10.904C172.912 11.534 173.362 12.002 174.586 12.002ZM177.448 12.614C177.016 13.136 175.936 14.198 173.596 14.198H173.308C170.518 14.198 169.366 12.686 169.366 11.03V10.958C169.366 9.23 170.464 8.168 173.848 7.88L176.584 7.646C177.142 7.592 177.34 7.412 177.34 6.998C177.34 6.53 177.196 6.026 175.252 6.026C173.416 6.026 173.236 6.746 173.236 7.124H169.636V7.088C169.636 6.098 170.032 3.776 174.946 3.776H175.504C180.454 3.776 180.76 5.81 180.76 7.142V10.436C180.76 11.066 180.886 11.318 181.588 11.318H181.966V14H179.122C178.078 14 177.592 13.262 177.448 12.614Z" fill="url(#paint0_linear_41_185)"/>
<path d="M11.1172 4.982V4.892C11.1172 4.262 10.5772 3.29 7.89525 3.29C4.96125 3.29 4.63725 4.316 4.63725 4.874V4.982C4.63725 5.63 5.06925 6.494 7.89525 6.494C10.6312 6.494 11.1172 5.63 11.1172 4.982ZM8.43525 14.198H7.76925C2.45925 14.198 1.30725 11.75 1.30725 10.166V10.148H4.97925C4.97925 10.31 5.23125 11.336 8.02125 11.336C11.2432 11.336 11.6212 9.032 11.6212 7.934V7.808C11.2792 8.096 10.1272 9.104 7.06725 9.104H6.67125C2.35125 9.104 0.821248 7.214 0.821248 5.27V4.982C0.821248 3.128 1.75725 0.446 7.35525 0.446H8.45325C14.4652 0.446 15.4012 4.694 15.4012 6.998V7.412C15.4012 9.446 14.3752 14.198 8.43525 14.198ZM21.8078 10.508V14H17.6138V10.508H21.8078ZM30.656 14V0.608H35.588L39.854 9.68L44.246 0.608H48.872V14H45.254V5.234L41.186 14H38.288L34.22 5.234V14H30.656ZM57.8052 6.08C55.9872 6.08 55.3032 6.818 55.1232 7.862H60.4152C60.4152 7.124 60.0552 6.08 57.8052 6.08ZM60.4872 10.886H64.1412C64.1412 11.714 63.4932 14.234 58.3272 14.234H57.6612C52.7292 14.234 51.5052 11.534 51.5052 9.14V8.888C51.5052 6.638 52.6212 3.794 57.3552 3.794H58.1472C63.2592 3.794 64.1772 6.638 64.1772 9.428V9.752H55.0872C55.2312 10.904 55.9692 11.84 58.1112 11.84C60.1452 11.84 60.3972 11.048 60.4872 10.886ZM70.091 14H66.581V4.01H70.091V7.646H74.987V4.01H78.497V14H74.987V10.31H70.091V14ZM84.279 14V6.674H80.409V4.01H91.659V6.674H87.789V14H84.279ZM99.8275 14.27H99.2695C93.8875 14.27 93.0595 10.994 93.0595 9.176V8.924C93.0595 7.124 93.8875 3.74 99.2515 3.74H99.8455C105.389 3.74 106.037 7.142 106.037 8.906V9.194C106.037 10.994 105.389 14.27 99.8275 14.27ZM99.4495 11.642H99.6475C101.861 11.642 102.419 10.058 102.419 8.96C102.419 7.826 101.861 6.314 99.6475 6.314H99.4495C97.1455 6.314 96.6775 7.826 96.6775 8.96C96.6775 10.058 97.1455 11.642 99.4495 11.642ZM117.632 9.014V8.96C117.632 7.88 117.128 6.422 114.932 6.422H114.752C112.646 6.422 111.98 7.808 111.98 8.96V9.014C111.98 10.112 112.646 11.552 114.752 11.552H114.932C117.128 11.552 117.632 10.04 117.632 9.014ZM108.488 17.438V4.01H111.962V5.288C112.394 4.82 113.708 3.812 115.976 3.812H116.21C120.026 3.812 121.268 6.422 121.268 8.798V9.104C121.268 11.282 119.99 14.198 116.192 14.198H115.94C113.654 14.198 112.43 13.154 111.998 12.722V17.438H108.488ZM128.913 14V4.01H137.625V6.674H132.423V14H128.913ZM145.794 14.27H145.236C139.854 14.27 139.026 10.994 139.026 9.176V8.924C139.026 7.124 139.854 3.74 145.218 3.74H145.812C151.356 3.74 152.004 7.142 152.004 8.906V9.194C152.004 10.994 151.356 14.27 145.794 14.27ZM145.416 11.642H145.614C147.828 11.642 148.386 10.058 148.386 8.96C148.386 7.826 147.828 6.314 145.614 6.314H145.416C143.112 6.314 142.644 7.826 142.644 8.96C142.644 10.058 143.112 11.642 145.416 11.642ZM153.327 16.124V11.336H154.533C155.217 9.968 155.325 6.998 155.415 4.01H165.981V11.336H167.781V16.124H164.451V14H156.657V16.124H153.327ZM157.845 11.336H162.471V6.674H158.565C158.511 7.97 158.331 9.95 157.845 11.336ZM174.586 12.002C176.638 12.002 177.34 10.706 177.34 9.95V9.176C177.034 9.302 176.152 9.482 175.144 9.644C173.452 9.932 172.912 10.166 172.912 10.868V10.904C172.912 11.534 173.362 12.002 174.586 12.002ZM177.448 12.614C177.016 13.136 175.936 14.198 173.596 14.198H173.308C170.518 14.198 169.366 12.686 169.366 11.03V10.958C169.366 9.23 170.464 8.168 173.848 7.88L176.584 7.646C177.142 7.592 177.34 7.412 177.34 6.998C177.34 6.53 177.196 6.026 175.252 6.026C173.416 6.026 173.236 6.746 173.236 7.124H169.636V7.088C169.636 6.098 170.032 3.776 174.946 3.776H175.504C180.454 3.776 180.76 5.81 180.76 7.142V10.436C180.76 11.066 180.886 11.318 181.588 11.318H181.966V14H179.122C178.078 14 177.592 13.262 177.448 12.614Z" fill="url(#paint1_radial_41_185)" style="mix-blend-mode:overlay"/>
<path d="M11.1172 4.982V4.892C11.1172 4.262 10.5772 3.29 7.89525 3.29C4.96125 3.29 4.63725 4.316 4.63725 4.874V4.982C4.63725 5.63 5.06925 6.494 7.89525 6.494C10.6312 6.494 11.1172 5.63 11.1172 4.982ZM8.43525 14.198H7.76925C2.45925 14.198 1.30725 11.75 1.30725 10.166V10.148H4.97925C4.97925 10.31 5.23125 11.336 8.02125 11.336C11.2432 11.336 11.6212 9.032 11.6212 7.934V7.808C11.2792 8.096 10.1272 9.104 7.06725 9.104H6.67125C2.35125 9.104 0.821248 7.214 0.821248 5.27V4.982C0.821248 3.128 1.75725 0.446 7.35525 0.446H8.45325C14.4652 0.446 15.4012 4.694 15.4012 6.998V7.412C15.4012 9.446 14.3752 14.198 8.43525 14.198ZM21.8078 10.508V14H17.6138V10.508H21.8078ZM30.656 14V0.608H35.588L39.854 9.68L44.246 0.608H48.872V14H45.254V5.234L41.186 14H38.288L34.22 5.234V14H30.656ZM57.8052 6.08C55.9872 6.08 55.3032 6.818 55.1232 7.862H60.4152C60.4152 7.124 60.0552 6.08 57.8052 6.08ZM60.4872 10.886H64.1412C64.1412 11.714 63.4932 14.234 58.3272 14.234H57.6612C52.7292 14.234 51.5052 11.534 51.5052 9.14V8.888C51.5052 6.638 52.6212 3.794 57.3552 3.794H58.1472C63.2592 3.794 64.1772 6.638 64.1772 9.428V9.752H55.0872C55.2312 10.904 55.9692 11.84 58.1112 11.84C60.1452 11.84 60.3972 11.048 60.4872 10.886ZM70.091 14H66.581V4.01H70.091V7.646H74.987V4.01H78.497V14H74.987V10.31H70.091V14ZM84.279 14V6.674H80.409V4.01H91.659V6.674H87.789V14H84.279ZM99.8275 14.27H99.2695C93.8875 14.27 93.0595 10.994 93.0595 9.176V8.924C93.0595 7.124 93.8875 3.74 99.2515 3.74H99.8455C105.389 3.74 106.037 7.142 106.037 8.906V9.194C106.037 10.994 105.389 14.27 99.8275 14.27ZM99.4495 11.642H99.6475C101.861 11.642 102.419 10.058 102.419 8.96C102.419 7.826 101.861 6.314 99.6475 6.314H99.4495C97.1455 6.314 96.6775 7.826 96.6775 8.96C96.6775 10.058 97.1455 11.642 99.4495 11.642ZM117.632 9.014V8.96C117.632 7.88 117.128 6.422 114.932 6.422H114.752C112.646 6.422 111.98 7.808 111.98 8.96V9.014C111.98 10.112 112.646 11.552 114.752 11.552H114.932C117.128 11.552 117.632 10.04 117.632 9.014ZM108.488 17.438V4.01H111.962V5.288C112.394 4.82 113.708 3.812 115.976 3.812H116.21C120.026 3.812 121.268 6.422 121.268 8.798V9.104C121.268 11.282 119.99 14.198 116.192 14.198H115.94C113.654 14.198 112.43 13.154 111.998 12.722V17.438H108.488ZM128.913 14V4.01H137.625V6.674H132.423V14H128.913ZM145.794 14.27H145.236C139.854 14.27 139.026 10.994 139.026 9.176V8.924C139.026 7.124 139.854 3.74 145.218 3.74H145.812C151.356 3.74 152.004 7.142 152.004 8.906V9.194C152.004 10.994 151.356 14.27 145.794 14.27ZM145.416 11.642H145.614C147.828 11.642 148.386 10.058 148.386 8.96C148.386 7.826 147.828 6.314 145.614 6.314H145.416C143.112 6.314 142.644 7.826 142.644 8.96C142.644 10.058 143.112 11.642 145.416 11.642ZM153.327 16.124V11.336H154.533C155.217 9.968 155.325 6.998 155.415 4.01H165.981V11.336H167.781V16.124H164.451V14H156.657V16.124H153.327ZM157.845 11.336H162.471V6.674H158.565C158.511 7.97 158.331 9.95 157.845 11.336ZM174.586 12.002C176.638 12.002 177.34 10.706 177.34 9.95V9.176C177.034 9.302 176.152 9.482 175.144 9.644C173.452 9.932 172.912 10.166 172.912 10.868V10.904C172.912 11.534 173.362 12.002 174.586 12.002ZM177.448 12.614C177.016 13.136 175.936 14.198 173.596 14.198H173.308C170.518 14.198 169.366 12.686 169.366 11.03V10.958C169.366 9.23 170.464 8.168 173.848 7.88L176.584 7.646C177.142 7.592 177.34 7.412 177.34 6.998C177.34 6.53 177.196 6.026 175.252 6.026C173.416 6.026 173.236 6.746 173.236 7.124H169.636V7.088C169.636 6.098 170.032 3.776 174.946 3.776H175.504C180.454 3.776 180.76 5.81 180.76 7.142V10.436C180.76 11.066 180.886 11.318 181.588 11.318H181.966V14H179.122C178.078 14 177.592 13.262 177.448 12.614Z" fill="url(#paint2_radial_41_185)"/>
<path d="M11.1172 4.982V4.892C11.1172 4.262 10.5772 3.29 7.89525 3.29C4.96125 3.29 4.63725 4.316 4.63725 4.874V4.982C4.63725 5.63 5.06925 6.494 7.89525 6.494C10.6312 6.494 11.1172 5.63 11.1172 4.982ZM8.43525 14.198H7.76925C2.45925 14.198 1.30725 11.75 1.30725 10.166V10.148H4.97925C4.97925 10.31 5.23125 11.336 8.02125 11.336C11.2432 11.336 11.6212 9.032 11.6212 7.934V7.808C11.2792 8.096 10.1272 9.104 7.06725 9.104H6.67125C2.35125 9.104 0.821248 7.214 0.821248 5.27V4.982C0.821248 3.128 1.75725 0.446 7.35525 0.446H8.45325C14.4652 0.446 15.4012 4.694 15.4012 6.998V7.412C15.4012 9.446 14.3752 14.198 8.43525 14.198ZM21.8078 10.508V14H17.6138V10.508H21.8078ZM30.656 14V0.608H35.588L39.854 9.68L44.246 0.608H48.872V14H45.254V5.234L41.186 14H38.288L34.22 5.234V14H30.656ZM57.8052 6.08C55.9872 6.08 55.3032 6.818 55.1232 7.862H60.4152C60.4152 7.124 60.0552 6.08 57.8052 6.08ZM60.4872 10.886H64.1412C64.1412 11.714 63.4932 14.234 58.3272 14.234H57.6612C52.7292 14.234 51.5052 11.534 51.5052 9.14V8.888C51.5052 6.638 52.6212 3.794 57.3552 3.794H58.1472C63.2592 3.794 64.1772 6.638 64.1772 9.428V9.752H55.0872C55.2312 10.904 55.9692 11.84 58.1112 11.84C60.1452 11.84 60.3972 11.048 60.4872 10.886ZM70.091 14H66.581V4.01H70.091V7.646H74.987V4.01H78.497V14H74.987V10.31H70.091V14ZM84.279 14V6.674H80.409V4.01H91.659V6.674H87.789V14H84.279ZM99.8275 14.27H99.2695C93.8875 14.27 93.0595 10.994 93.0595 9.176V8.924C93.0595 7.124 93.8875 3.74 99.2515 3.74H99.8455C105.389 3.74 106.037 7.142 106.037 8.906V9.194C106.037 10.994 105.389 14.27 99.8275 14.27ZM99.4495 11.642H99.6475C101.861 11.642 102.419 10.058 102.419 8.96C102.419 7.826 101.861 6.314 99.6475 6.314H99.4495C97.1455 6.314 96.6775 7.826 96.6775 8.96C96.6775 10.058 97.1455 11.642 99.4495 11.642ZM117.632 9.014V8.96C117.632 7.88 117.128 6.422 114.932 6.422H114.752C112.646 6.422 111.98 7.808 111.98 8.96V9.014C111.98 10.112 112.646 11.552 114.752 11.552H114.932C117.128 11.552 117.632 10.04 117.632 9.014ZM108.488 17.438V4.01H111.962V5.288C112.394 4.82 113.708 3.812 115.976 3.812H116.21C120.026 3.812 121.268 6.422 121.268 8.798V9.104C121.268 11.282 119.99 14.198 116.192 14.198H115.94C113.654 14.198 112.43 13.154 111.998 12.722V17.438H108.488ZM128.913 14V4.01H137.625V6.674H132.423V14H128.913ZM145.794 14.27H145.236C139.854 14.27 139.026 10.994 139.026 9.176V8.924C139.026 7.124 139.854 3.74 145.218 3.74H145.812C151.356 3.74 152.004 7.142 152.004 8.906V9.194C152.004 10.994 151.356 14.27 145.794 14.27ZM145.416 11.642H145.614C147.828 11.642 148.386 10.058 148.386 8.96C148.386 7.826 147.828 6.314 145.614 6.314H145.416C143.112 6.314 142.644 7.826 142.644 8.96C142.644 10.058 143.112 11.642 145.416 11.642ZM153.327 16.124V11.336H154.533C155.217 9.968 155.325 6.998 155.415 4.01H165.981V11.336H167.781V16.124H164.451V14H156.657V16.124H153.327ZM157.845 11.336H162.471V6.674H158.565C158.511 7.97 158.331 9.95 157.845 11.336ZM174.586 12.002C176.638 12.002 177.34 10.706 177.34 9.95V9.176C177.034 9.302 176.152 9.482 175.144 9.644C173.452 9.932 172.912 10.166 172.912 10.868V10.904C172.912 11.534 173.362 12.002 174.586 12.002ZM177.448 12.614C177.016 13.136 175.936 14.198 173.596 14.198H173.308C170.518 14.198 169.366 12.686 169.366 11.03V10.958C169.366 9.23 170.464 8.168 173.848 7.88L176.584 7.646C177.142 7.592 177.34 7.412 177.34 6.998C177.34 6.53 177.196 6.026 175.252 6.026C173.416 6.026 173.236 6.746 173.236 7.124H169.636V7.088C169.636 6.098 170.032 3.776 174.946 3.776H175.504C180.454 3.776 180.76 5.81 180.76 7.142V10.436C180.76 11.066 180.886 11.318 181.588 11.318H181.966V14H179.122C178.078 14 177.592 13.262 177.448 12.614Z" fill="#C1A875" style="mix-blend-mode:color"/>
<defs>
<linearGradient id="paint0_linear_41_185" x1="2" y1="6" x2="183" y2="6.00001" gradientUnits="userSpaceOnUse">
<stop stop-color="#576167"/>
<stop offset="0.191294" stop-color="#9EA1A2"/>
<stop offset="0.396166" stop-color="#848989"/>
<stop offset="0.62055" stop-color="#576167"/>
<stop offset="0.830299" stop-color="#757A7C"/>
<stop offset="1" stop-color="#576167"/>
</linearGradient>
<radialGradient id="paint1_radial_41_185" cx="0" cy="0" r="1" gradientUnits="userSpaceOnUse" gradientTransform="translate(98.3917 -3.20225) rotate(90) scale(17.8315 136.932)">
<stop stop-color="white"/>
<stop offset="1" stop-color="white" stop-opacity="0"/>
</radialGradient>
<radialGradient id="paint2_radial_41_185" cx="0" cy="0" r="1" gradientUnits="userSpaceOnUse" gradientTransform="translate(108.63 23.6629) rotate(-89.3503) scale(25.5522 195.798)">
<stop stop-color="white"/>
<stop offset="1" stop-color="white" stop-opacity="0"/>
</radialGradient>
</defs>
</svg>
