<svg width="231" height="18" viewBox="0 0 231 18" fill="none" xmlns="http://www.w3.org/2000/svg">
<path d="M0.0912476 0.608H14.7072V3.38C14.0952 4.28 12.9252 6.026 11.7192 7.862C9.82925 10.706 9.45125 11.894 9.45125 13.64V14H5.40125V13.136C5.40125 10.976 5.95925 9.788 8.31725 7.142C9.90125 5.378 11.4132 3.758 11.4132 3.524H3.74525V5.846H0.0912476V0.608ZM20.8078 10.508V14H16.6138V10.508H20.8078ZM44.272 9.968V10.148C44.272 13.01 41.608 14.234 36.928 14.234H36.496C32.68 14.234 29.008 13.1 29.008 9.5V9.284H32.968C32.968 10.94 34.444 11.516 37.126 11.516C39.358 11.516 40.42 10.922 40.42 9.842C40.42 8.834 39.718 8.402 37.972 8.402H34.102V5.756H37.774C38.854 5.756 40.006 5.594 40.006 4.586C40.006 3.452 39.034 3.092 36.676 3.092C34.75 3.092 33.13 3.452 33.076 4.964H29.116V4.694C29.116 1.508 32.59 0.446 36.316 0.446H36.892C41.41 0.446 43.858 1.58 43.858 3.83V3.956C43.858 5.666 42.724 6.494 41.284 6.872C42.724 7.16 44.272 8.096 44.272 9.968ZM52.3931 6.08C50.5751 6.08 49.8911 6.818 49.7111 7.862H55.0031C55.0031 7.124 54.6431 6.08 52.3931 6.08ZM55.0751 10.886H58.7291C58.7291 11.714 58.0811 14.234 52.9151 14.234H52.2491C47.3171 14.234 46.0931 11.534 46.0931 9.14V8.888C46.0931 6.638 47.2091 3.794 51.9431 3.794H52.7351C57.8471 3.794 58.7651 6.638 58.7651 9.428V9.752H49.6751C49.8191 10.904 50.5571 11.84 52.6991 11.84C54.7331 11.84 54.9851 11.048 55.0751 10.886ZM69.1832 14V6.674H65.2232C65.2232 9.356 65.1332 10.85 64.7912 11.768C64.4132 12.776 63.9092 14 61.2632 14H60.1652V11.39H60.3812C61.0112 11.39 61.4792 11.174 61.6772 10.256C61.8212 9.482 61.8752 8.636 61.8752 4.01H72.6932V14H69.1832ZM81.4146 6.08C79.5966 6.08 78.9126 6.818 78.7326 7.862H84.0246C84.0246 7.124 83.6646 6.08 81.4146 6.08ZM84.0966 10.886H87.7506C87.7506 11.714 87.1026 14.234 81.9366 14.234H81.2706C76.3386 14.234 75.1146 11.534 75.1146 9.14V8.888C75.1146 6.638 76.2306 3.794 80.9646 3.794H81.7566C86.8686 3.794 87.7866 6.638 87.7866 9.428V9.752H78.6966C78.8406 10.904 79.5786 11.84 81.7206 11.84C83.7546 11.84 84.0066 11.048 84.0966 10.886ZM93.7004 14H90.1904V4.01H93.7004V7.646H98.5964V4.01H102.106V14H98.5964V10.31H93.7004V14ZM105.026 14V4.01H108.536V6.872H111.272C114.692 6.872 116.024 8.384 116.024 10.292V10.508C116.024 12.596 114.692 14 111.272 14H105.026ZM108.536 11.624H110.84C111.56 11.624 112.424 11.408 112.424 10.436V10.382C112.424 9.482 111.56 9.248 110.84 9.248H108.536V11.624ZM120.812 4.01V14H117.302V4.01H120.812ZM132.153 7.952L127.329 14H123.729V4.01H127.239V10.058L132.063 4.01H135.663V14H132.153V7.952ZM129.921 2.984H129.381C126.519 2.984 126.015 1.04 126.015 0.104V0.0499994H128.661C128.661 0.284 128.769 1.004 129.669 1.004C130.515 1.004 130.641 0.284 130.641 0.0499994H133.251V0.104C133.251 1.04 132.531 2.984 129.921 2.984ZM143.786 14V4.01H155.342V14H151.832V6.674H147.296V14H143.786ZM166.677 7.952L161.853 14H158.253V4.01H161.763V10.058L166.587 4.01H170.187V14H166.677V7.952ZM179.37 14.27H178.812C173.43 14.27 172.602 10.994 172.602 9.176V8.924C172.602 7.124 173.43 3.74 178.794 3.74H179.388C184.932 3.74 185.58 7.142 185.58 8.906V9.194C185.58 10.994 184.932 14.27 179.37 14.27ZM178.992 11.642H179.19C181.404 11.642 181.962 10.058 181.962 8.96C181.962 7.826 181.404 6.314 179.19 6.314H178.992C176.688 6.314 176.22 7.826 176.22 8.96C176.22 10.058 176.688 11.642 178.992 11.642ZM191.505 14H187.995V4.01H191.505V7.646H196.401V4.01H199.911V14H196.401V10.31H191.505V14ZM208.645 6.08C206.827 6.08 206.143 6.818 205.963 7.862H211.255C211.255 7.124 210.895 6.08 208.645 6.08ZM211.327 10.886H214.981C214.981 11.714 214.333 14.234 209.167 14.234H208.501C203.569 14.234 202.345 11.534 202.345 9.14V8.888C202.345 6.638 203.461 3.794 208.195 3.794H208.987C214.099 3.794 215.017 6.638 215.017 9.428V9.752H205.927C206.071 10.904 206.809 11.84 208.951 11.84C210.985 11.84 211.237 11.048 211.327 10.886ZM226.601 9.014V8.96C226.601 7.88 226.097 6.422 223.901 6.422H223.721C221.615 6.422 220.949 7.808 220.949 8.96V9.014C220.949 10.112 221.615 11.552 223.721 11.552H223.901C226.097 11.552 226.601 10.04 226.601 9.014ZM217.457 17.438V4.01H220.931V5.288C221.363 4.82 222.677 3.812 224.945 3.812H225.179C228.995 3.812 230.237 6.422 230.237 8.798V9.104C230.237 11.282 228.959 14.198 225.161 14.198H224.909C222.623 14.198 221.399 13.154 220.967 12.722V17.438H217.457Z" fill="url(#paint0_linear_41_179)"/>
<path d="M0.0912476 0.608H14.7072V3.38C14.0952 4.28 12.9252 6.026 11.7192 7.862C9.82925 10.706 9.45125 11.894 9.45125 13.64V14H5.40125V13.136C5.40125 10.976 5.95925 9.788 8.31725 7.142C9.90125 5.378 11.4132 3.758 11.4132 3.524H3.74525V5.846H0.0912476V0.608ZM20.8078 10.508V14H16.6138V10.508H20.8078ZM44.272 9.968V10.148C44.272 13.01 41.608 14.234 36.928 14.234H36.496C32.68 14.234 29.008 13.1 29.008 9.5V9.284H32.968C32.968 10.94 34.444 11.516 37.126 11.516C39.358 11.516 40.42 10.922 40.42 9.842C40.42 8.834 39.718 8.402 37.972 8.402H34.102V5.756H37.774C38.854 5.756 40.006 5.594 40.006 4.586C40.006 3.452 39.034 3.092 36.676 3.092C34.75 3.092 33.13 3.452 33.076 4.964H29.116V4.694C29.116 1.508 32.59 0.446 36.316 0.446H36.892C41.41 0.446 43.858 1.58 43.858 3.83V3.956C43.858 5.666 42.724 6.494 41.284 6.872C42.724 7.16 44.272 8.096 44.272 9.968ZM52.3931 6.08C50.5751 6.08 49.8911 6.818 49.7111 7.862H55.0031C55.0031 7.124 54.6431 6.08 52.3931 6.08ZM55.0751 10.886H58.7291C58.7291 11.714 58.0811 14.234 52.9151 14.234H52.2491C47.3171 14.234 46.0931 11.534 46.0931 9.14V8.888C46.0931 6.638 47.2091 3.794 51.9431 3.794H52.7351C57.8471 3.794 58.7651 6.638 58.7651 9.428V9.752H49.6751C49.8191 10.904 50.5571 11.84 52.6991 11.84C54.7331 11.84 54.9851 11.048 55.0751 10.886ZM69.1832 14V6.674H65.2232C65.2232 9.356 65.1332 10.85 64.7912 11.768C64.4132 12.776 63.9092 14 61.2632 14H60.1652V11.39H60.3812C61.0112 11.39 61.4792 11.174 61.6772 10.256C61.8212 9.482 61.8752 8.636 61.8752 4.01H72.6932V14H69.1832ZM81.4146 6.08C79.5966 6.08 78.9126 6.818 78.7326 7.862H84.0246C84.0246 7.124 83.6646 6.08 81.4146 6.08ZM84.0966 10.886H87.7506C87.7506 11.714 87.1026 14.234 81.9366 14.234H81.2706C76.3386 14.234 75.1146 11.534 75.1146 9.14V8.888C75.1146 6.638 76.2306 3.794 80.9646 3.794H81.7566C86.8686 3.794 87.7866 6.638 87.7866 9.428V9.752H78.6966C78.8406 10.904 79.5786 11.84 81.7206 11.84C83.7546 11.84 84.0066 11.048 84.0966 10.886ZM93.7004 14H90.1904V4.01H93.7004V7.646H98.5964V4.01H102.106V14H98.5964V10.31H93.7004V14ZM105.026 14V4.01H108.536V6.872H111.272C114.692 6.872 116.024 8.384 116.024 10.292V10.508C116.024 12.596 114.692 14 111.272 14H105.026ZM108.536 11.624H110.84C111.56 11.624 112.424 11.408 112.424 10.436V10.382C112.424 9.482 111.56 9.248 110.84 9.248H108.536V11.624ZM120.812 4.01V14H117.302V4.01H120.812ZM132.153 7.952L127.329 14H123.729V4.01H127.239V10.058L132.063 4.01H135.663V14H132.153V7.952ZM129.921 2.984H129.381C126.519 2.984 126.015 1.04 126.015 0.104V0.0499994H128.661C128.661 0.284 128.769 1.004 129.669 1.004C130.515 1.004 130.641 0.284 130.641 0.0499994H133.251V0.104C133.251 1.04 132.531 2.984 129.921 2.984ZM143.786 14V4.01H155.342V14H151.832V6.674H147.296V14H143.786ZM166.677 7.952L161.853 14H158.253V4.01H161.763V10.058L166.587 4.01H170.187V14H166.677V7.952ZM179.37 14.27H178.812C173.43 14.27 172.602 10.994 172.602 9.176V8.924C172.602 7.124 173.43 3.74 178.794 3.74H179.388C184.932 3.74 185.58 7.142 185.58 8.906V9.194C185.58 10.994 184.932 14.27 179.37 14.27ZM178.992 11.642H179.19C181.404 11.642 181.962 10.058 181.962 8.96C181.962 7.826 181.404 6.314 179.19 6.314H178.992C176.688 6.314 176.22 7.826 176.22 8.96C176.22 10.058 176.688 11.642 178.992 11.642ZM191.505 14H187.995V4.01H191.505V7.646H196.401V4.01H199.911V14H196.401V10.31H191.505V14ZM208.645 6.08C206.827 6.08 206.143 6.818 205.963 7.862H211.255C211.255 7.124 210.895 6.08 208.645 6.08ZM211.327 10.886H214.981C214.981 11.714 214.333 14.234 209.167 14.234H208.501C203.569 14.234 202.345 11.534 202.345 9.14V8.888C202.345 6.638 203.461 3.794 208.195 3.794H208.987C214.099 3.794 215.017 6.638 215.017 9.428V9.752H205.927C206.071 10.904 206.809 11.84 208.951 11.84C210.985 11.84 211.237 11.048 211.327 10.886ZM226.601 9.014V8.96C226.601 7.88 226.097 6.422 223.901 6.422H223.721C221.615 6.422 220.949 7.808 220.949 8.96V9.014C220.949 10.112 221.615 11.552 223.721 11.552H223.901C226.097 11.552 226.601 10.04 226.601 9.014ZM217.457 17.438V4.01H220.931V5.288C221.363 4.82 222.677 3.812 224.945 3.812H225.179C228.995 3.812 230.237 6.422 230.237 8.798V9.104C230.237 11.282 228.959 14.198 225.161 14.198H224.909C222.623 14.198 221.399 13.154 220.967 12.722V17.438H217.457Z" fill="url(#paint1_radial_41_179)" style="mix-blend-mode:overlay"/>
<path d="M0.0912476 0.608H14.7072V3.38C14.0952 4.28 12.9252 6.026 11.7192 7.862C9.82925 10.706 9.45125 11.894 9.45125 13.64V14H5.40125V13.136C5.40125 10.976 5.95925 9.788 8.31725 7.142C9.90125 5.378 11.4132 3.758 11.4132 3.524H3.74525V5.846H0.0912476V0.608ZM20.8078 10.508V14H16.6138V10.508H20.8078ZM44.272 9.968V10.148C44.272 13.01 41.608 14.234 36.928 14.234H36.496C32.68 14.234 29.008 13.1 29.008 9.5V9.284H32.968C32.968 10.94 34.444 11.516 37.126 11.516C39.358 11.516 40.42 10.922 40.42 9.842C40.42 8.834 39.718 8.402 37.972 8.402H34.102V5.756H37.774C38.854 5.756 40.006 5.594 40.006 4.586C40.006 3.452 39.034 3.092 36.676 3.092C34.75 3.092 33.13 3.452 33.076 4.964H29.116V4.694C29.116 1.508 32.59 0.446 36.316 0.446H36.892C41.41 0.446 43.858 1.58 43.858 3.83V3.956C43.858 5.666 42.724 6.494 41.284 6.872C42.724 7.16 44.272 8.096 44.272 9.968ZM52.3931 6.08C50.5751 6.08 49.8911 6.818 49.7111 7.862H55.0031C55.0031 7.124 54.6431 6.08 52.3931 6.08ZM55.0751 10.886H58.7291C58.7291 11.714 58.0811 14.234 52.9151 14.234H52.2491C47.3171 14.234 46.0931 11.534 46.0931 9.14V8.888C46.0931 6.638 47.2091 3.794 51.9431 3.794H52.7351C57.8471 3.794 58.7651 6.638 58.7651 9.428V9.752H49.6751C49.8191 10.904 50.5571 11.84 52.6991 11.84C54.7331 11.84 54.9851 11.048 55.0751 10.886ZM69.1832 14V6.674H65.2232C65.2232 9.356 65.1332 10.85 64.7912 11.768C64.4132 12.776 63.9092 14 61.2632 14H60.1652V11.39H60.3812C61.0112 11.39 61.4792 11.174 61.6772 10.256C61.8212 9.482 61.8752 8.636 61.8752 4.01H72.6932V14H69.1832ZM81.4146 6.08C79.5966 6.08 78.9126 6.818 78.7326 7.862H84.0246C84.0246 7.124 83.6646 6.08 81.4146 6.08ZM84.0966 10.886H87.7506C87.7506 11.714 87.1026 14.234 81.9366 14.234H81.2706C76.3386 14.234 75.1146 11.534 75.1146 9.14V8.888C75.1146 6.638 76.2306 3.794 80.9646 3.794H81.7566C86.8686 3.794 87.7866 6.638 87.7866 9.428V9.752H78.6966C78.8406 10.904 79.5786 11.84 81.7206 11.84C83.7546 11.84 84.0066 11.048 84.0966 10.886ZM93.7004 14H90.1904V4.01H93.7004V7.646H98.5964V4.01H102.106V14H98.5964V10.31H93.7004V14ZM105.026 14V4.01H108.536V6.872H111.272C114.692 6.872 116.024 8.384 116.024 10.292V10.508C116.024 12.596 114.692 14 111.272 14H105.026ZM108.536 11.624H110.84C111.56 11.624 112.424 11.408 112.424 10.436V10.382C112.424 9.482 111.56 9.248 110.84 9.248H108.536V11.624ZM120.812 4.01V14H117.302V4.01H120.812ZM132.153 7.952L127.329 14H123.729V4.01H127.239V10.058L132.063 4.01H135.663V14H132.153V7.952ZM129.921 2.984H129.381C126.519 2.984 126.015 1.04 126.015 0.104V0.0499994H128.661C128.661 0.284 128.769 1.004 129.669 1.004C130.515 1.004 130.641 0.284 130.641 0.0499994H133.251V0.104C133.251 1.04 132.531 2.984 129.921 2.984ZM143.786 14V4.01H155.342V14H151.832V6.674H147.296V14H143.786ZM166.677 7.952L161.853 14H158.253V4.01H161.763V10.058L166.587 4.01H170.187V14H166.677V7.952ZM179.37 14.27H178.812C173.43 14.27 172.602 10.994 172.602 9.176V8.924C172.602 7.124 173.43 3.74 178.794 3.74H179.388C184.932 3.74 185.58 7.142 185.58 8.906V9.194C185.58 10.994 184.932 14.27 179.37 14.27ZM178.992 11.642H179.19C181.404 11.642 181.962 10.058 181.962 8.96C181.962 7.826 181.404 6.314 179.19 6.314H178.992C176.688 6.314 176.22 7.826 176.22 8.96C176.22 10.058 176.688 11.642 178.992 11.642ZM191.505 14H187.995V4.01H191.505V7.646H196.401V4.01H199.911V14H196.401V10.31H191.505V14ZM208.645 6.08C206.827 6.08 206.143 6.818 205.963 7.862H211.255C211.255 7.124 210.895 6.08 208.645 6.08ZM211.327 10.886H214.981C214.981 11.714 214.333 14.234 209.167 14.234H208.501C203.569 14.234 202.345 11.534 202.345 9.14V8.888C202.345 6.638 203.461 3.794 208.195 3.794H208.987C214.099 3.794 215.017 6.638 215.017 9.428V9.752H205.927C206.071 10.904 206.809 11.84 208.951 11.84C210.985 11.84 211.237 11.048 211.327 10.886ZM226.601 9.014V8.96C226.601 7.88 226.097 6.422 223.901 6.422H223.721C221.615 6.422 220.949 7.808 220.949 8.96V9.014C220.949 10.112 221.615 11.552 223.721 11.552H223.901C226.097 11.552 226.601 10.04 226.601 9.014ZM217.457 17.438V4.01H220.931V5.288C221.363 4.82 222.677 3.812 224.945 3.812H225.179C228.995 3.812 230.237 6.422 230.237 8.798V9.104C230.237 11.282 228.959 14.198 225.161 14.198H224.909C222.623 14.198 221.399 13.154 220.967 12.722V17.438H217.457Z" fill="url(#paint2_radial_41_179)"/>
<path d="M0.0912476 0.608H14.7072V3.38C14.0952 4.28 12.9252 6.026 11.7192 7.862C9.82925 10.706 9.45125 11.894 9.45125 13.64V14H5.40125V13.136C5.40125 10.976 5.95925 9.788 8.31725 7.142C9.90125 5.378 11.4132 3.758 11.4132 3.524H3.74525V5.846H0.0912476V0.608ZM20.8078 10.508V14H16.6138V10.508H20.8078ZM44.272 9.968V10.148C44.272 13.01 41.608 14.234 36.928 14.234H36.496C32.68 14.234 29.008 13.1 29.008 9.5V9.284H32.968C32.968 10.94 34.444 11.516 37.126 11.516C39.358 11.516 40.42 10.922 40.42 9.842C40.42 8.834 39.718 8.402 37.972 8.402H34.102V5.756H37.774C38.854 5.756 40.006 5.594 40.006 4.586C40.006 3.452 39.034 3.092 36.676 3.092C34.75 3.092 33.13 3.452 33.076 4.964H29.116V4.694C29.116 1.508 32.59 0.446 36.316 0.446H36.892C41.41 0.446 43.858 1.58 43.858 3.83V3.956C43.858 5.666 42.724 6.494 41.284 6.872C42.724 7.16 44.272 8.096 44.272 9.968ZM52.3931 6.08C50.5751 6.08 49.8911 6.818 49.7111 7.862H55.0031C55.0031 7.124 54.6431 6.08 52.3931 6.08ZM55.0751 10.886H58.7291C58.7291 11.714 58.0811 14.234 52.9151 14.234H52.2491C47.3171 14.234 46.0931 11.534 46.0931 9.14V8.888C46.0931 6.638 47.2091 3.794 51.9431 3.794H52.7351C57.8471 3.794 58.7651 6.638 58.7651 9.428V9.752H49.6751C49.8191 10.904 50.5571 11.84 52.6991 11.84C54.7331 11.84 54.9851 11.048 55.0751 10.886ZM69.1832 14V6.674H65.2232C65.2232 9.356 65.1332 10.85 64.7912 11.768C64.4132 12.776 63.9092 14 61.2632 14H60.1652V11.39H60.3812C61.0112 11.39 61.4792 11.174 61.6772 10.256C61.8212 9.482 61.8752 8.636 61.8752 4.01H72.6932V14H69.1832ZM81.4146 6.08C79.5966 6.08 78.9126 6.818 78.7326 7.862H84.0246C84.0246 7.124 83.6646 6.08 81.4146 6.08ZM84.0966 10.886H87.7506C87.7506 11.714 87.1026 14.234 81.9366 14.234H81.2706C76.3386 14.234 75.1146 11.534 75.1146 9.14V8.888C75.1146 6.638 76.2306 3.794 80.9646 3.794H81.7566C86.8686 3.794 87.7866 6.638 87.7866 9.428V9.752H78.6966C78.8406 10.904 79.5786 11.84 81.7206 11.84C83.7546 11.84 84.0066 11.048 84.0966 10.886ZM93.7004 14H90.1904V4.01H93.7004V7.646H98.5964V4.01H102.106V14H98.5964V10.31H93.7004V14ZM105.026 14V4.01H108.536V6.872H111.272C114.692 6.872 116.024 8.384 116.024 10.292V10.508C116.024 12.596 114.692 14 111.272 14H105.026ZM108.536 11.624H110.84C111.56 11.624 112.424 11.408 112.424 10.436V10.382C112.424 9.482 111.56 9.248 110.84 9.248H108.536V11.624ZM120.812 4.01V14H117.302V4.01H120.812ZM132.153 7.952L127.329 14H123.729V4.01H127.239V10.058L132.063 4.01H135.663V14H132.153V7.952ZM129.921 2.984H129.381C126.519 2.984 126.015 1.04 126.015 0.104V0.0499994H128.661C128.661 0.284 128.769 1.004 129.669 1.004C130.515 1.004 130.641 0.284 130.641 0.0499994H133.251V0.104C133.251 1.04 132.531 2.984 129.921 2.984ZM143.786 14V4.01H155.342V14H151.832V6.674H147.296V14H143.786ZM166.677 7.952L161.853 14H158.253V4.01H161.763V10.058L166.587 4.01H170.187V14H166.677V7.952ZM179.37 14.27H178.812C173.43 14.27 172.602 10.994 172.602 9.176V8.924C172.602 7.124 173.43 3.74 178.794 3.74H179.388C184.932 3.74 185.58 7.142 185.58 8.906V9.194C185.58 10.994 184.932 14.27 179.37 14.27ZM178.992 11.642H179.19C181.404 11.642 181.962 10.058 181.962 8.96C181.962 7.826 181.404 6.314 179.19 6.314H178.992C176.688 6.314 176.22 7.826 176.22 8.96C176.22 10.058 176.688 11.642 178.992 11.642ZM191.505 14H187.995V4.01H191.505V7.646H196.401V4.01H199.911V14H196.401V10.31H191.505V14ZM208.645 6.08C206.827 6.08 206.143 6.818 205.963 7.862H211.255C211.255 7.124 210.895 6.08 208.645 6.08ZM211.327 10.886H214.981C214.981 11.714 214.333 14.234 209.167 14.234H208.501C203.569 14.234 202.345 11.534 202.345 9.14V8.888C202.345 6.638 203.461 3.794 208.195 3.794H208.987C214.099 3.794 215.017 6.638 215.017 9.428V9.752H205.927C206.071 10.904 206.809 11.84 208.951 11.84C210.985 11.84 211.237 11.048 211.327 10.886ZM226.601 9.014V8.96C226.601 7.88 226.097 6.422 223.901 6.422H223.721C221.615 6.422 220.949 7.808 220.949 8.96V9.014C220.949 10.112 221.615 11.552 223.721 11.552H223.901C226.097 11.552 226.601 10.04 226.601 9.014ZM217.457 17.438V4.01H220.931V5.288C221.363 4.82 222.677 3.812 224.945 3.812H225.179C228.995 3.812 230.237 6.422 230.237 8.798V9.104C230.237 11.282 228.959 14.198 225.161 14.198H224.909C222.623 14.198 221.399 13.154 220.967 12.722V17.438H217.457Z" fill="#C1A875" style="mix-blend-mode:color"/>
<defs>
<linearGradient id="paint0_linear_41_179" x1="1" y1="6" x2="232" y2="6.00001" gradientUnits="userSpaceOnUse">
<stop stop-color="#576167"/>
<stop offset="0.191294" stop-color="#9EA1A2"/>
<stop offset="0.396166" stop-color="#848989"/>
<stop offset="0.62055" stop-color="#576167"/>
<stop offset="0.830299" stop-color="#757A7C"/>
<stop offset="1" stop-color="#576167"/>
</linearGradient>
<radialGradient id="paint1_radial_41_179" cx="0" cy="0" r="1" gradientUnits="userSpaceOnUse" gradientTransform="translate(124.019 -3.20225) rotate(90) scale(17.8315 174.759)">
<stop stop-color="white"/>
<stop offset="1" stop-color="white" stop-opacity="0"/>
</radialGradient>
<radialGradient id="paint2_radial_41_179" cx="0" cy="0" r="1" gradientUnits="userSpaceOnUse" gradientTransform="translate(137.085 23.6629) rotate(-89.1708) scale(25.5532 249.875)">
<stop stop-color="white"/>
<stop offset="1" stop-color="white" stop-opacity="0"/>
</radialGradient>
</defs>
</svg>
