<svg width="359" height="17" viewBox="0 0 359 17" fill="none" xmlns="http://www.w3.org/2000/svg">
<path d="M0.821248 11.084V8.726L8.05725 0.518H12.9712V8.204H15.7432V11.084H12.9712V14H9.29925V11.084H0.821248ZM9.29925 8.204V3.056L4.74525 8.204H9.29925ZM21.8078 10.508V14H17.6138V10.508H21.8078ZM38.63 14.198H37.802C31.682 14.198 30.062 10.274 30.062 7.538V6.998C30.062 4.208 31.682 0.409999 37.802 0.409999H38.63C44.246 0.409999 46.118 3.164 46.118 5.702V5.738H42.302C42.248 5.36 41.744 3.47 38.216 3.47C34.94 3.47 33.914 5.306 33.914 7.106V7.358C33.914 9.014 34.976 11.12 38.234 11.12C41.798 11.12 42.248 9.194 42.302 8.762H46.118V8.816C46.118 11.264 44.318 14.198 38.63 14.198ZM54.845 14.27H54.287C48.905 14.27 48.077 10.994 48.077 9.176V8.924C48.077 7.124 48.905 3.74 54.269 3.74H54.863C60.407 3.74 61.055 7.142 61.055 8.906V9.194C61.055 10.994 60.407 14.27 54.845 14.27ZM54.467 11.642H54.665C56.879 11.642 57.437 10.058 57.437 8.96C57.437 7.826 56.879 6.314 54.665 6.314H54.467C52.163 6.314 51.695 7.826 51.695 8.96C51.695 10.058 52.163 11.642 54.467 11.642ZM76.8257 11.336V16.124H73.4957V14H63.4697V4.01H66.9797V11.336H71.5157V4.01H75.0257V11.336H76.8257ZM87.3449 7.952L82.5209 14H78.9209V4.01H82.4309V10.058L87.2549 4.01H90.8549V14H87.3449V7.952ZM98.4904 12.002C100.542 12.002 101.244 10.706 101.244 9.95V9.176C100.938 9.302 100.056 9.482 99.0484 9.644C97.3564 9.932 96.8164 10.166 96.8164 10.868V10.904C96.8164 11.534 97.2664 12.002 98.4904 12.002ZM101.352 12.614C100.92 13.136 99.8404 14.198 97.5004 14.198H97.2124C94.4224 14.198 93.2704 12.686 93.2704 11.03V10.958C93.2704 9.23 94.3684 8.168 97.7524 7.88L100.488 7.646C101.046 7.592 101.244 7.412 101.244 6.998C101.244 6.53 101.1 6.026 99.1564 6.026C97.3204 6.026 97.1404 6.746 97.1404 7.124H93.5404V7.088C93.5404 6.098 93.9364 3.776 98.8504 3.776H99.4084C104.358 3.776 104.664 5.81 104.664 7.142V10.436C104.664 11.066 104.79 11.318 105.492 11.318H105.87V14H103.026C101.982 14 101.496 13.262 101.352 12.614ZM116.15 14V6.674H112.19C112.19 9.356 112.1 10.85 111.758 11.768C111.38 12.776 110.876 14 108.23 14H107.132V11.39H107.348C107.978 11.39 108.446 11.174 108.644 10.256C108.788 9.482 108.842 8.636 108.842 4.01H119.66V14H116.15ZM122.567 14V4.01H126.077V6.872H128.813C132.233 6.872 133.565 8.384 133.565 10.292V10.508C133.565 12.596 132.233 14 128.813 14H122.567ZM126.077 11.624H128.381C129.101 11.624 129.965 11.408 129.965 10.436V10.382C129.965 9.482 129.101 9.248 128.381 9.248H126.077V11.624ZM139.156 14H135.646V4.01H139.156V7.646H144.052V4.01H147.562V14H144.052V10.31H139.156V14ZM150.481 14V4.01H153.991V6.872H156.727C160.147 6.872 161.479 8.384 161.479 10.292V10.508C161.479 12.596 160.147 14 156.727 14H150.481ZM153.991 11.624H156.295C157.015 11.624 157.879 11.408 157.879 10.436V10.382C157.879 9.482 157.015 9.248 156.295 9.248H153.991V11.624ZM166.267 4.01V14H162.757V4.01H166.267ZM177.609 7.952L172.785 14H169.185V4.01H172.695V10.058L177.519 4.01H181.119V14H177.609V7.952ZM175.377 2.984H174.837C171.975 2.984 171.471 1.04 171.471 0.104V0.0499994H174.117C174.117 0.284 174.225 1.004 175.125 1.004C175.971 1.004 176.097 0.284 176.097 0.0499994H178.707V0.104C178.707 1.04 177.987 2.984 175.377 2.984ZM197.485 14H189.241V4.01H197.125C199.411 4.01 200.851 4.82 200.851 6.404V6.494C200.851 7.736 200.059 8.474 198.853 8.672C200.077 8.816 201.175 9.68 201.175 11.12V11.192C201.175 13.01 199.987 14 197.485 14ZM192.751 7.988H195.973C196.819 7.988 197.251 7.664 197.251 7.034V6.944C197.251 6.368 196.855 6.026 195.973 6.026H192.751V7.988ZM192.751 11.984H196.117C197.053 11.984 197.575 11.678 197.575 10.976V10.832C197.575 10.202 197.143 9.806 196.117 9.806H192.751V11.984ZM202.616 16.124V11.336H203.822C204.506 9.968 204.614 6.998 204.704 4.01H215.27V11.336H217.07V16.124H213.74V14H205.946V16.124H202.616ZM207.134 11.336H211.76V6.674H207.854C207.8 7.97 207.62 9.95 207.134 11.336ZM225.247 14.27H224.689C219.307 14.27 218.479 10.994 218.479 9.176V8.924C218.479 7.124 219.307 3.74 224.671 3.74H225.265C230.809 3.74 231.457 7.142 231.457 8.906V9.194C231.457 10.994 230.809 14.27 225.247 14.27ZM224.869 11.642H225.067C227.281 11.642 227.839 10.058 227.839 8.96C227.839 7.826 227.281 6.314 225.067 6.314H224.869C222.565 6.314 222.097 7.826 222.097 8.96C222.097 10.058 222.565 11.642 224.869 11.642ZM241.688 14L239.006 11.138L236.396 14H232.418L236.9 8.996L232.274 4.01H236.576L239.132 6.8L241.598 4.01H245.468L241.166 8.924L245.738 14H241.688ZM250.741 14H247.231V4.01H250.741V7.646H255.637V4.01H259.147V14H255.637V10.31H250.741V14ZM268.331 14.27H267.773C262.391 14.27 261.563 10.994 261.563 9.176V8.924C261.563 7.124 262.391 3.74 267.755 3.74H268.349C273.893 3.74 274.541 7.142 274.541 8.906V9.194C274.541 10.994 273.893 14.27 268.331 14.27ZM267.953 11.642H268.151C270.365 11.642 270.923 10.058 270.923 8.96C270.923 7.826 270.365 6.314 268.151 6.314H267.953C265.649 6.314 265.181 7.826 265.181 8.96C265.181 10.058 265.649 11.642 267.953 11.642ZM285.2 14H276.956V4.01H284.84C287.126 4.01 288.566 4.82 288.566 6.404V6.494C288.566 7.736 287.774 8.474 286.568 8.672C287.792 8.816 288.89 9.68 288.89 11.12V11.192C288.89 13.01 287.702 14 285.2 14ZM280.466 7.988H283.688C284.534 7.988 284.966 7.664 284.966 7.034V6.944C284.966 6.368 284.57 6.026 283.688 6.026H280.466V7.988ZM280.466 11.984H283.832C284.768 11.984 285.29 11.678 285.29 10.976V10.832C285.29 10.202 284.858 9.806 283.832 9.806H280.466V11.984ZM299.759 7.952L294.935 14H291.335V4.01H294.845V10.058L299.669 4.01H303.269V14H299.759V7.952ZM309.05 14V6.674H305.18V4.01H316.43V6.674H312.56V14H309.05ZM324.149 6.08C322.331 6.08 321.647 6.818 321.467 7.862H326.759C326.759 7.124 326.399 6.08 324.149 6.08ZM326.831 10.886H330.485C330.485 11.714 329.837 14.234 324.671 14.234H324.005C319.073 14.234 317.849 11.534 317.849 9.14V8.888C317.849 6.638 318.965 3.794 323.699 3.794H324.491C329.603 3.794 330.521 6.638 330.521 9.428V9.752H321.431C321.575 10.904 322.313 11.84 324.455 11.84C326.489 11.84 326.741 11.048 326.831 10.886ZM340.939 14V6.674H336.979C336.979 9.356 336.889 10.85 336.547 11.768C336.169 12.776 335.665 14 333.019 14H331.921V11.39H332.137C332.767 11.39 333.235 11.174 333.433 10.256C333.577 9.482 333.631 8.636 333.631 4.01H344.449V14H340.939ZM347.356 14V4.01H350.866V6.872H353.602C357.022 6.872 358.354 8.384 358.354 10.292V10.508C358.354 12.596 357.022 14 353.602 14H347.356ZM350.866 11.624H353.17C353.89 11.624 354.754 11.408 354.754 10.436V10.382C354.754 9.482 353.89 9.248 353.17 9.248H350.866V11.624Z" fill="url(#paint0_linear_41_169)"/>
<path d="M0.821248 11.084V8.726L8.05725 0.518H12.9712V8.204H15.7432V11.084H12.9712V14H9.29925V11.084H0.821248ZM9.29925 8.204V3.056L4.74525 8.204H9.29925ZM21.8078 10.508V14H17.6138V10.508H21.8078ZM38.63 14.198H37.802C31.682 14.198 30.062 10.274 30.062 7.538V6.998C30.062 4.208 31.682 0.409999 37.802 0.409999H38.63C44.246 0.409999 46.118 3.164 46.118 5.702V5.738H42.302C42.248 5.36 41.744 3.47 38.216 3.47C34.94 3.47 33.914 5.306 33.914 7.106V7.358C33.914 9.014 34.976 11.12 38.234 11.12C41.798 11.12 42.248 9.194 42.302 8.762H46.118V8.816C46.118 11.264 44.318 14.198 38.63 14.198ZM54.845 14.27H54.287C48.905 14.27 48.077 10.994 48.077 9.176V8.924C48.077 7.124 48.905 3.74 54.269 3.74H54.863C60.407 3.74 61.055 7.142 61.055 8.906V9.194C61.055 10.994 60.407 14.27 54.845 14.27ZM54.467 11.642H54.665C56.879 11.642 57.437 10.058 57.437 8.96C57.437 7.826 56.879 6.314 54.665 6.314H54.467C52.163 6.314 51.695 7.826 51.695 8.96C51.695 10.058 52.163 11.642 54.467 11.642ZM76.8257 11.336V16.124H73.4957V14H63.4697V4.01H66.9797V11.336H71.5157V4.01H75.0257V11.336H76.8257ZM87.3449 7.952L82.5209 14H78.9209V4.01H82.4309V10.058L87.2549 4.01H90.8549V14H87.3449V7.952ZM98.4904 12.002C100.542 12.002 101.244 10.706 101.244 9.95V9.176C100.938 9.302 100.056 9.482 99.0484 9.644C97.3564 9.932 96.8164 10.166 96.8164 10.868V10.904C96.8164 11.534 97.2664 12.002 98.4904 12.002ZM101.352 12.614C100.92 13.136 99.8404 14.198 97.5004 14.198H97.2124C94.4224 14.198 93.2704 12.686 93.2704 11.03V10.958C93.2704 9.23 94.3684 8.168 97.7524 7.88L100.488 7.646C101.046 7.592 101.244 7.412 101.244 6.998C101.244 6.53 101.1 6.026 99.1564 6.026C97.3204 6.026 97.1404 6.746 97.1404 7.124H93.5404V7.088C93.5404 6.098 93.9364 3.776 98.8504 3.776H99.4084C104.358 3.776 104.664 5.81 104.664 7.142V10.436C104.664 11.066 104.79 11.318 105.492 11.318H105.87V14H103.026C101.982 14 101.496 13.262 101.352 12.614ZM116.15 14V6.674H112.19C112.19 9.356 112.1 10.85 111.758 11.768C111.38 12.776 110.876 14 108.23 14H107.132V11.39H107.348C107.978 11.39 108.446 11.174 108.644 10.256C108.788 9.482 108.842 8.636 108.842 4.01H119.66V14H116.15ZM122.567 14V4.01H126.077V6.872H128.813C132.233 6.872 133.565 8.384 133.565 10.292V10.508C133.565 12.596 132.233 14 128.813 14H122.567ZM126.077 11.624H128.381C129.101 11.624 129.965 11.408 129.965 10.436V10.382C129.965 9.482 129.101 9.248 128.381 9.248H126.077V11.624ZM139.156 14H135.646V4.01H139.156V7.646H144.052V4.01H147.562V14H144.052V10.31H139.156V14ZM150.481 14V4.01H153.991V6.872H156.727C160.147 6.872 161.479 8.384 161.479 10.292V10.508C161.479 12.596 160.147 14 156.727 14H150.481ZM153.991 11.624H156.295C157.015 11.624 157.879 11.408 157.879 10.436V10.382C157.879 9.482 157.015 9.248 156.295 9.248H153.991V11.624ZM166.267 4.01V14H162.757V4.01H166.267ZM177.609 7.952L172.785 14H169.185V4.01H172.695V10.058L177.519 4.01H181.119V14H177.609V7.952ZM175.377 2.984H174.837C171.975 2.984 171.471 1.04 171.471 0.104V0.0499994H174.117C174.117 0.284 174.225 1.004 175.125 1.004C175.971 1.004 176.097 0.284 176.097 0.0499994H178.707V0.104C178.707 1.04 177.987 2.984 175.377 2.984ZM197.485 14H189.241V4.01H197.125C199.411 4.01 200.851 4.82 200.851 6.404V6.494C200.851 7.736 200.059 8.474 198.853 8.672C200.077 8.816 201.175 9.68 201.175 11.12V11.192C201.175 13.01 199.987 14 197.485 14ZM192.751 7.988H195.973C196.819 7.988 197.251 7.664 197.251 7.034V6.944C197.251 6.368 196.855 6.026 195.973 6.026H192.751V7.988ZM192.751 11.984H196.117C197.053 11.984 197.575 11.678 197.575 10.976V10.832C197.575 10.202 197.143 9.806 196.117 9.806H192.751V11.984ZM202.616 16.124V11.336H203.822C204.506 9.968 204.614 6.998 204.704 4.01H215.27V11.336H217.07V16.124H213.74V14H205.946V16.124H202.616ZM207.134 11.336H211.76V6.674H207.854C207.8 7.97 207.62 9.95 207.134 11.336ZM225.247 14.27H224.689C219.307 14.27 218.479 10.994 218.479 9.176V8.924C218.479 7.124 219.307 3.74 224.671 3.74H225.265C230.809 3.74 231.457 7.142 231.457 8.906V9.194C231.457 10.994 230.809 14.27 225.247 14.27ZM224.869 11.642H225.067C227.281 11.642 227.839 10.058 227.839 8.96C227.839 7.826 227.281 6.314 225.067 6.314H224.869C222.565 6.314 222.097 7.826 222.097 8.96C222.097 10.058 222.565 11.642 224.869 11.642ZM241.688 14L239.006 11.138L236.396 14H232.418L236.9 8.996L232.274 4.01H236.576L239.132 6.8L241.598 4.01H245.468L241.166 8.924L245.738 14H241.688ZM250.741 14H247.231V4.01H250.741V7.646H255.637V4.01H259.147V14H255.637V10.31H250.741V14ZM268.331 14.27H267.773C262.391 14.27 261.563 10.994 261.563 9.176V8.924C261.563 7.124 262.391 3.74 267.755 3.74H268.349C273.893 3.74 274.541 7.142 274.541 8.906V9.194C274.541 10.994 273.893 14.27 268.331 14.27ZM267.953 11.642H268.151C270.365 11.642 270.923 10.058 270.923 8.96C270.923 7.826 270.365 6.314 268.151 6.314H267.953C265.649 6.314 265.181 7.826 265.181 8.96C265.181 10.058 265.649 11.642 267.953 11.642ZM285.2 14H276.956V4.01H284.84C287.126 4.01 288.566 4.82 288.566 6.404V6.494C288.566 7.736 287.774 8.474 286.568 8.672C287.792 8.816 288.89 9.68 288.89 11.12V11.192C288.89 13.01 287.702 14 285.2 14ZM280.466 7.988H283.688C284.534 7.988 284.966 7.664 284.966 7.034V6.944C284.966 6.368 284.57 6.026 283.688 6.026H280.466V7.988ZM280.466 11.984H283.832C284.768 11.984 285.29 11.678 285.29 10.976V10.832C285.29 10.202 284.858 9.806 283.832 9.806H280.466V11.984ZM299.759 7.952L294.935 14H291.335V4.01H294.845V10.058L299.669 4.01H303.269V14H299.759V7.952ZM309.05 14V6.674H305.18V4.01H316.43V6.674H312.56V14H309.05ZM324.149 6.08C322.331 6.08 321.647 6.818 321.467 7.862H326.759C326.759 7.124 326.399 6.08 324.149 6.08ZM326.831 10.886H330.485C330.485 11.714 329.837 14.234 324.671 14.234H324.005C319.073 14.234 317.849 11.534 317.849 9.14V8.888C317.849 6.638 318.965 3.794 323.699 3.794H324.491C329.603 3.794 330.521 6.638 330.521 9.428V9.752H321.431C321.575 10.904 322.313 11.84 324.455 11.84C326.489 11.84 326.741 11.048 326.831 10.886ZM340.939 14V6.674H336.979C336.979 9.356 336.889 10.85 336.547 11.768C336.169 12.776 335.665 14 333.019 14H331.921V11.39H332.137C332.767 11.39 333.235 11.174 333.433 10.256C333.577 9.482 333.631 8.636 333.631 4.01H344.449V14H340.939ZM347.356 14V4.01H350.866V6.872H353.602C357.022 6.872 358.354 8.384 358.354 10.292V10.508C358.354 12.596 357.022 14 353.602 14H347.356ZM350.866 11.624H353.17C353.89 11.624 354.754 11.408 354.754 10.436V10.382C354.754 9.482 353.89 9.248 353.17 9.248H350.866V11.624Z" fill="url(#paint1_radial_41_169)" style="mix-blend-mode:overlay"/>
<path d="M0.821248 11.084V8.726L8.05725 0.518H12.9712V8.204H15.7432V11.084H12.9712V14H9.29925V11.084H0.821248ZM9.29925 8.204V3.056L4.74525 8.204H9.29925ZM21.8078 10.508V14H17.6138V10.508H21.8078ZM38.63 14.198H37.802C31.682 14.198 30.062 10.274 30.062 7.538V6.998C30.062 4.208 31.682 0.409999 37.802 0.409999H38.63C44.246 0.409999 46.118 3.164 46.118 5.702V5.738H42.302C42.248 5.36 41.744 3.47 38.216 3.47C34.94 3.47 33.914 5.306 33.914 7.106V7.358C33.914 9.014 34.976 11.12 38.234 11.12C41.798 11.12 42.248 9.194 42.302 8.762H46.118V8.816C46.118 11.264 44.318 14.198 38.63 14.198ZM54.845 14.27H54.287C48.905 14.27 48.077 10.994 48.077 9.176V8.924C48.077 7.124 48.905 3.74 54.269 3.74H54.863C60.407 3.74 61.055 7.142 61.055 8.906V9.194C61.055 10.994 60.407 14.27 54.845 14.27ZM54.467 11.642H54.665C56.879 11.642 57.437 10.058 57.437 8.96C57.437 7.826 56.879 6.314 54.665 6.314H54.467C52.163 6.314 51.695 7.826 51.695 8.96C51.695 10.058 52.163 11.642 54.467 11.642ZM76.8257 11.336V16.124H73.4957V14H63.4697V4.01H66.9797V11.336H71.5157V4.01H75.0257V11.336H76.8257ZM87.3449 7.952L82.5209 14H78.9209V4.01H82.4309V10.058L87.2549 4.01H90.8549V14H87.3449V7.952ZM98.4904 12.002C100.542 12.002 101.244 10.706 101.244 9.95V9.176C100.938 9.302 100.056 9.482 99.0484 9.644C97.3564 9.932 96.8164 10.166 96.8164 10.868V10.904C96.8164 11.534 97.2664 12.002 98.4904 12.002ZM101.352 12.614C100.92 13.136 99.8404 14.198 97.5004 14.198H97.2124C94.4224 14.198 93.2704 12.686 93.2704 11.03V10.958C93.2704 9.23 94.3684 8.168 97.7524 7.88L100.488 7.646C101.046 7.592 101.244 7.412 101.244 6.998C101.244 6.53 101.1 6.026 99.1564 6.026C97.3204 6.026 97.1404 6.746 97.1404 7.124H93.5404V7.088C93.5404 6.098 93.9364 3.776 98.8504 3.776H99.4084C104.358 3.776 104.664 5.81 104.664 7.142V10.436C104.664 11.066 104.79 11.318 105.492 11.318H105.87V14H103.026C101.982 14 101.496 13.262 101.352 12.614ZM116.15 14V6.674H112.19C112.19 9.356 112.1 10.85 111.758 11.768C111.38 12.776 110.876 14 108.23 14H107.132V11.39H107.348C107.978 11.39 108.446 11.174 108.644 10.256C108.788 9.482 108.842 8.636 108.842 4.01H119.66V14H116.15ZM122.567 14V4.01H126.077V6.872H128.813C132.233 6.872 133.565 8.384 133.565 10.292V10.508C133.565 12.596 132.233 14 128.813 14H122.567ZM126.077 11.624H128.381C129.101 11.624 129.965 11.408 129.965 10.436V10.382C129.965 9.482 129.101 9.248 128.381 9.248H126.077V11.624ZM139.156 14H135.646V4.01H139.156V7.646H144.052V4.01H147.562V14H144.052V10.31H139.156V14ZM150.481 14V4.01H153.991V6.872H156.727C160.147 6.872 161.479 8.384 161.479 10.292V10.508C161.479 12.596 160.147 14 156.727 14H150.481ZM153.991 11.624H156.295C157.015 11.624 157.879 11.408 157.879 10.436V10.382C157.879 9.482 157.015 9.248 156.295 9.248H153.991V11.624ZM166.267 4.01V14H162.757V4.01H166.267ZM177.609 7.952L172.785 14H169.185V4.01H172.695V10.058L177.519 4.01H181.119V14H177.609V7.952ZM175.377 2.984H174.837C171.975 2.984 171.471 1.04 171.471 0.104V0.0499994H174.117C174.117 0.284 174.225 1.004 175.125 1.004C175.971 1.004 176.097 0.284 176.097 0.0499994H178.707V0.104C178.707 1.04 177.987 2.984 175.377 2.984ZM197.485 14H189.241V4.01H197.125C199.411 4.01 200.851 4.82 200.851 6.404V6.494C200.851 7.736 200.059 8.474 198.853 8.672C200.077 8.816 201.175 9.68 201.175 11.12V11.192C201.175 13.01 199.987 14 197.485 14ZM192.751 7.988H195.973C196.819 7.988 197.251 7.664 197.251 7.034V6.944C197.251 6.368 196.855 6.026 195.973 6.026H192.751V7.988ZM192.751 11.984H196.117C197.053 11.984 197.575 11.678 197.575 10.976V10.832C197.575 10.202 197.143 9.806 196.117 9.806H192.751V11.984ZM202.616 16.124V11.336H203.822C204.506 9.968 204.614 6.998 204.704 4.01H215.27V11.336H217.07V16.124H213.74V14H205.946V16.124H202.616ZM207.134 11.336H211.76V6.674H207.854C207.8 7.97 207.62 9.95 207.134 11.336ZM225.247 14.27H224.689C219.307 14.27 218.479 10.994 218.479 9.176V8.924C218.479 7.124 219.307 3.74 224.671 3.74H225.265C230.809 3.74 231.457 7.142 231.457 8.906V9.194C231.457 10.994 230.809 14.27 225.247 14.27ZM224.869 11.642H225.067C227.281 11.642 227.839 10.058 227.839 8.96C227.839 7.826 227.281 6.314 225.067 6.314H224.869C222.565 6.314 222.097 7.826 222.097 8.96C222.097 10.058 222.565 11.642 224.869 11.642ZM241.688 14L239.006 11.138L236.396 14H232.418L236.9 8.996L232.274 4.01H236.576L239.132 6.8L241.598 4.01H245.468L241.166 8.924L245.738 14H241.688ZM250.741 14H247.231V4.01H250.741V7.646H255.637V4.01H259.147V14H255.637V10.31H250.741V14ZM268.331 14.27H267.773C262.391 14.27 261.563 10.994 261.563 9.176V8.924C261.563 7.124 262.391 3.74 267.755 3.74H268.349C273.893 3.74 274.541 7.142 274.541 8.906V9.194C274.541 10.994 273.893 14.27 268.331 14.27ZM267.953 11.642H268.151C270.365 11.642 270.923 10.058 270.923 8.96C270.923 7.826 270.365 6.314 268.151 6.314H267.953C265.649 6.314 265.181 7.826 265.181 8.96C265.181 10.058 265.649 11.642 267.953 11.642ZM285.2 14H276.956V4.01H284.84C287.126 4.01 288.566 4.82 288.566 6.404V6.494C288.566 7.736 287.774 8.474 286.568 8.672C287.792 8.816 288.89 9.68 288.89 11.12V11.192C288.89 13.01 287.702 14 285.2 14ZM280.466 7.988H283.688C284.534 7.988 284.966 7.664 284.966 7.034V6.944C284.966 6.368 284.57 6.026 283.688 6.026H280.466V7.988ZM280.466 11.984H283.832C284.768 11.984 285.29 11.678 285.29 10.976V10.832C285.29 10.202 284.858 9.806 283.832 9.806H280.466V11.984ZM299.759 7.952L294.935 14H291.335V4.01H294.845V10.058L299.669 4.01H303.269V14H299.759V7.952ZM309.05 14V6.674H305.18V4.01H316.43V6.674H312.56V14H309.05ZM324.149 6.08C322.331 6.08 321.647 6.818 321.467 7.862H326.759C326.759 7.124 326.399 6.08 324.149 6.08ZM326.831 10.886H330.485C330.485 11.714 329.837 14.234 324.671 14.234H324.005C319.073 14.234 317.849 11.534 317.849 9.14V8.888C317.849 6.638 318.965 3.794 323.699 3.794H324.491C329.603 3.794 330.521 6.638 330.521 9.428V9.752H321.431C321.575 10.904 322.313 11.84 324.455 11.84C326.489 11.84 326.741 11.048 326.831 10.886ZM340.939 14V6.674H336.979C336.979 9.356 336.889 10.85 336.547 11.768C336.169 12.776 335.665 14 333.019 14H331.921V11.39H332.137C332.767 11.39 333.235 11.174 333.433 10.256C333.577 9.482 333.631 8.636 333.631 4.01H344.449V14H340.939ZM347.356 14V4.01H350.866V6.872H353.602C357.022 6.872 358.354 8.384 358.354 10.292V10.508C358.354 12.596 357.022 14 353.602 14H347.356ZM350.866 11.624H353.17C353.89 11.624 354.754 11.408 354.754 10.436V10.382C354.754 9.482 353.89 9.248 353.17 9.248H350.866V11.624Z" fill="url(#paint2_radial_41_169)"/>
<path d="M0.821248 11.084V8.726L8.05725 0.518H12.9712V8.204H15.7432V11.084H12.9712V14H9.29925V11.084H0.821248ZM9.29925 8.204V3.056L4.74525 8.204H9.29925ZM21.8078 10.508V14H17.6138V10.508H21.8078ZM38.63 14.198H37.802C31.682 14.198 30.062 10.274 30.062 7.538V6.998C30.062 4.208 31.682 0.409999 37.802 0.409999H38.63C44.246 0.409999 46.118 3.164 46.118 5.702V5.738H42.302C42.248 5.36 41.744 3.47 38.216 3.47C34.94 3.47 33.914 5.306 33.914 7.106V7.358C33.914 9.014 34.976 11.12 38.234 11.12C41.798 11.12 42.248 9.194 42.302 8.762H46.118V8.816C46.118 11.264 44.318 14.198 38.63 14.198ZM54.845 14.27H54.287C48.905 14.27 48.077 10.994 48.077 9.176V8.924C48.077 7.124 48.905 3.74 54.269 3.74H54.863C60.407 3.74 61.055 7.142 61.055 8.906V9.194C61.055 10.994 60.407 14.27 54.845 14.27ZM54.467 11.642H54.665C56.879 11.642 57.437 10.058 57.437 8.96C57.437 7.826 56.879 6.314 54.665 6.314H54.467C52.163 6.314 51.695 7.826 51.695 8.96C51.695 10.058 52.163 11.642 54.467 11.642ZM76.8257 11.336V16.124H73.4957V14H63.4697V4.01H66.9797V11.336H71.5157V4.01H75.0257V11.336H76.8257ZM87.3449 7.952L82.5209 14H78.9209V4.01H82.4309V10.058L87.2549 4.01H90.8549V14H87.3449V7.952ZM98.4904 12.002C100.542 12.002 101.244 10.706 101.244 9.95V9.176C100.938 9.302 100.056 9.482 99.0484 9.644C97.3564 9.932 96.8164 10.166 96.8164 10.868V10.904C96.8164 11.534 97.2664 12.002 98.4904 12.002ZM101.352 12.614C100.92 13.136 99.8404 14.198 97.5004 14.198H97.2124C94.4224 14.198 93.2704 12.686 93.2704 11.03V10.958C93.2704 9.23 94.3684 8.168 97.7524 7.88L100.488 7.646C101.046 7.592 101.244 7.412 101.244 6.998C101.244 6.53 101.1 6.026 99.1564 6.026C97.3204 6.026 97.1404 6.746 97.1404 7.124H93.5404V7.088C93.5404 6.098 93.9364 3.776 98.8504 3.776H99.4084C104.358 3.776 104.664 5.81 104.664 7.142V10.436C104.664 11.066 104.79 11.318 105.492 11.318H105.87V14H103.026C101.982 14 101.496 13.262 101.352 12.614ZM116.15 14V6.674H112.19C112.19 9.356 112.1 10.85 111.758 11.768C111.38 12.776 110.876 14 108.23 14H107.132V11.39H107.348C107.978 11.39 108.446 11.174 108.644 10.256C108.788 9.482 108.842 8.636 108.842 4.01H119.66V14H116.15ZM122.567 14V4.01H126.077V6.872H128.813C132.233 6.872 133.565 8.384 133.565 10.292V10.508C133.565 12.596 132.233 14 128.813 14H122.567ZM126.077 11.624H128.381C129.101 11.624 129.965 11.408 129.965 10.436V10.382C129.965 9.482 129.101 9.248 128.381 9.248H126.077V11.624ZM139.156 14H135.646V4.01H139.156V7.646H144.052V4.01H147.562V14H144.052V10.31H139.156V14ZM150.481 14V4.01H153.991V6.872H156.727C160.147 6.872 161.479 8.384 161.479 10.292V10.508C161.479 12.596 160.147 14 156.727 14H150.481ZM153.991 11.624H156.295C157.015 11.624 157.879 11.408 157.879 10.436V10.382C157.879 9.482 157.015 9.248 156.295 9.248H153.991V11.624ZM166.267 4.01V14H162.757V4.01H166.267ZM177.609 7.952L172.785 14H169.185V4.01H172.695V10.058L177.519 4.01H181.119V14H177.609V7.952ZM175.377 2.984H174.837C171.975 2.984 171.471 1.04 171.471 0.104V0.0499994H174.117C174.117 0.284 174.225 1.004 175.125 1.004C175.971 1.004 176.097 0.284 176.097 0.0499994H178.707V0.104C178.707 1.04 177.987 2.984 175.377 2.984ZM197.485 14H189.241V4.01H197.125C199.411 4.01 200.851 4.82 200.851 6.404V6.494C200.851 7.736 200.059 8.474 198.853 8.672C200.077 8.816 201.175 9.68 201.175 11.12V11.192C201.175 13.01 199.987 14 197.485 14ZM192.751 7.988H195.973C196.819 7.988 197.251 7.664 197.251 7.034V6.944C197.251 6.368 196.855 6.026 195.973 6.026H192.751V7.988ZM192.751 11.984H196.117C197.053 11.984 197.575 11.678 197.575 10.976V10.832C197.575 10.202 197.143 9.806 196.117 9.806H192.751V11.984ZM202.616 16.124V11.336H203.822C204.506 9.968 204.614 6.998 204.704 4.01H215.27V11.336H217.07V16.124H213.74V14H205.946V16.124H202.616ZM207.134 11.336H211.76V6.674H207.854C207.8 7.97 207.62 9.95 207.134 11.336ZM225.247 14.27H224.689C219.307 14.27 218.479 10.994 218.479 9.176V8.924C218.479 7.124 219.307 3.74 224.671 3.74H225.265C230.809 3.74 231.457 7.142 231.457 8.906V9.194C231.457 10.994 230.809 14.27 225.247 14.27ZM224.869 11.642H225.067C227.281 11.642 227.839 10.058 227.839 8.96C227.839 7.826 227.281 6.314 225.067 6.314H224.869C222.565 6.314 222.097 7.826 222.097 8.96C222.097 10.058 222.565 11.642 224.869 11.642ZM241.688 14L239.006 11.138L236.396 14H232.418L236.9 8.996L232.274 4.01H236.576L239.132 6.8L241.598 4.01H245.468L241.166 8.924L245.738 14H241.688ZM250.741 14H247.231V4.01H250.741V7.646H255.637V4.01H259.147V14H255.637V10.31H250.741V14ZM268.331 14.27H267.773C262.391 14.27 261.563 10.994 261.563 9.176V8.924C261.563 7.124 262.391 3.74 267.755 3.74H268.349C273.893 3.74 274.541 7.142 274.541 8.906V9.194C274.541 10.994 273.893 14.27 268.331 14.27ZM267.953 11.642H268.151C270.365 11.642 270.923 10.058 270.923 8.96C270.923 7.826 270.365 6.314 268.151 6.314H267.953C265.649 6.314 265.181 7.826 265.181 8.96C265.181 10.058 265.649 11.642 267.953 11.642ZM285.2 14H276.956V4.01H284.84C287.126 4.01 288.566 4.82 288.566 6.404V6.494C288.566 7.736 287.774 8.474 286.568 8.672C287.792 8.816 288.89 9.68 288.89 11.12V11.192C288.89 13.01 287.702 14 285.2 14ZM280.466 7.988H283.688C284.534 7.988 284.966 7.664 284.966 7.034V6.944C284.966 6.368 284.57 6.026 283.688 6.026H280.466V7.988ZM280.466 11.984H283.832C284.768 11.984 285.29 11.678 285.29 10.976V10.832C285.29 10.202 284.858 9.806 283.832 9.806H280.466V11.984ZM299.759 7.952L294.935 14H291.335V4.01H294.845V10.058L299.669 4.01H303.269V14H299.759V7.952ZM309.05 14V6.674H305.18V4.01H316.43V6.674H312.56V14H309.05ZM324.149 6.08C322.331 6.08 321.647 6.818 321.467 7.862H326.759C326.759 7.124 326.399 6.08 324.149 6.08ZM326.831 10.886H330.485C330.485 11.714 329.837 14.234 324.671 14.234H324.005C319.073 14.234 317.849 11.534 317.849 9.14V8.888C317.849 6.638 318.965 3.794 323.699 3.794H324.491C329.603 3.794 330.521 6.638 330.521 9.428V9.752H321.431C321.575 10.904 322.313 11.84 324.455 11.84C326.489 11.84 326.741 11.048 326.831 10.886ZM340.939 14V6.674H336.979C336.979 9.356 336.889 10.85 336.547 11.768C336.169 12.776 335.665 14 333.019 14H331.921V11.39H332.137C332.767 11.39 333.235 11.174 333.433 10.256C333.577 9.482 333.631 8.636 333.631 4.01H344.449V14H340.939ZM347.356 14V4.01H350.866V6.872H353.602C357.022 6.872 358.354 8.384 358.354 10.292V10.508C358.354 12.596 357.022 14 353.602 14H347.356ZM350.866 11.624H353.17C353.89 11.624 354.754 11.408 354.754 10.436V10.382C354.754 9.482 353.89 9.248 353.17 9.248H350.866V11.624Z" fill="#C1A875" style="mix-blend-mode:color"/>
<defs>
<linearGradient id="paint0_linear_41_169" x1="2" y1="6" x2="359" y2="6.00003" gradientUnits="userSpaceOnUse">
<stop stop-color="#576167"/>
<stop offset="0.191294" stop-color="#9EA1A2"/>
<stop offset="0.396166" stop-color="#848989"/>
<stop offset="0.62055" stop-color="#576167"/>
<stop offset="0.830299" stop-color="#757A7C"/>
<stop offset="1" stop-color="#576167"/>
</linearGradient>
<radialGradient id="paint1_radial_41_169" cx="0" cy="0" r="1" gradientUnits="userSpaceOnUse" gradientTransform="translate(192.121 -3.20225) rotate(90) scale(17.8315 270.082)">
<stop stop-color="white"/>
<stop offset="1" stop-color="white" stop-opacity="0"/>
</radialGradient>
<radialGradient id="paint2_radial_41_169" cx="0" cy="0" r="1" gradientUnits="userSpaceOnUse" gradientTransform="translate(212.314 23.6629) rotate(-88.7187) scale(25.557 386.115)">
<stop stop-color="white"/>
<stop offset="1" stop-color="white" stop-opacity="0"/>
</radialGradient>
</defs>
</svg>
