<svg width="80" height="80" viewBox="0 0 80 80" fill="none" xmlns="http://www.w3.org/2000/svg">
<path d="M40 0C32.0888 0 24.3552 2.34596 17.7772 6.74121C11.1992 11.1365 6.07234 17.3836 3.04484 24.6927C0.0173314 32.0017 -0.774802 40.0444 0.768607 47.8036C2.31202 55.5628 6.12165 62.6902 11.7157 68.2842C17.3098 73.8783 24.4372 77.688 32.1964 79.2314C39.9556 80.7748 47.9983 79.9827 55.3073 76.9552C62.6164 73.9277 68.8635 68.8008 73.2588 62.2228C77.654 55.6448 80 47.9112 80 40C80 34.7471 78.9654 29.5457 76.9552 24.6927C74.945 19.8396 71.9986 15.4301 68.2843 11.7157C64.5699 8.00138 60.1604 5.05501 55.3073 3.04482C50.4543 1.03463 45.2529 0 40 0ZM32 58V22L56 40L32 58Z" fill="url(#paint0_linear_41_137)"/>
<path d="M40 0C32.0888 0 24.3552 2.34596 17.7772 6.74121C11.1992 11.1365 6.07234 17.3836 3.04484 24.6927C0.0173314 32.0017 -0.774802 40.0444 0.768607 47.8036C2.31202 55.5628 6.12165 62.6902 11.7157 68.2842C17.3098 73.8783 24.4372 77.688 32.1964 79.2314C39.9556 80.7748 47.9983 79.9827 55.3073 76.9552C62.6164 73.9277 68.8635 68.8008 73.2588 62.2228C77.654 55.6448 80 47.9112 80 40C80 34.7471 78.9654 29.5457 76.9552 24.6927C74.945 19.8396 71.9986 15.4301 68.2843 11.7157C64.5699 8.00138 60.1604 5.05501 55.3073 3.04482C50.4543 1.03463 45.2529 0 40 0ZM32 58V22L56 40L32 58Z" fill="url(#paint1_radial_41_137)" style="mix-blend-mode:overlay"/>
<path d="M40 0C32.0888 0 24.3552 2.34596 17.7772 6.74121C11.1992 11.1365 6.07234 17.3836 3.04484 24.6927C0.0173314 32.0017 -0.774802 40.0444 0.768607 47.8036C2.31202 55.5628 6.12165 62.6902 11.7157 68.2842C17.3098 73.8783 24.4372 77.688 32.1964 79.2314C39.9556 80.7748 47.9983 79.9827 55.3073 76.9552C62.6164 73.9277 68.8635 68.8008 73.2588 62.2228C77.654 55.6448 80 47.9112 80 40C80 34.7471 78.9654 29.5457 76.9552 24.6927C74.945 19.8396 71.9986 15.4301 68.2843 11.7157C64.5699 8.00138 60.1604 5.05501 55.3073 3.04482C50.4543 1.03463 45.2529 0 40 0ZM32 58V22L56 40L32 58Z" fill="url(#paint2_radial_41_137)"/>
<path d="M40 0C32.0888 0 24.3552 2.34596 17.7772 6.74121C11.1992 11.1365 6.07234 17.3836 3.04484 24.6927C0.0173314 32.0017 -0.774802 40.0444 0.768607 47.8036C2.31202 55.5628 6.12165 62.6902 11.7157 68.2842C17.3098 73.8783 24.4372 77.688 32.1964 79.2314C39.9556 80.7748 47.9983 79.9827 55.3073 76.9552C62.6164 73.9277 68.8635 68.8008 73.2588 62.2228C77.654 55.6448 80 47.9112 80 40C80 34.7471 78.9654 29.5457 76.9552 24.6927C74.945 19.8396 71.9986 15.4301 68.2843 11.7157C64.5699 8.00138 60.1604 5.05501 55.3073 3.04482C50.4543 1.03463 45.2529 0 40 0ZM32 58V22L56 40L32 58Z" fill="#C1A875" style="mix-blend-mode:color"/>
<defs>
<linearGradient id="paint0_linear_41_137" x1="2.98023e-07" y1="40" x2="80" y2="40" gradientUnits="userSpaceOnUse">
<stop stop-color="#576167"/>
<stop offset="0.191294" stop-color="#9EA1A2"/>
<stop offset="0.396166" stop-color="#848989"/>
<stop offset="0.62055" stop-color="#576167"/>
<stop offset="0.830299" stop-color="#757A7C"/>
<stop offset="1" stop-color="#576167"/>
</linearGradient>
<radialGradient id="paint1_radial_41_137" cx="0" cy="0" r="1" gradientUnits="userSpaceOnUse" gradientTransform="translate(42.6041 9.32584) rotate(90) scale(59.4382 60.5226)">
<stop stop-color="white"/>
<stop offset="1" stop-color="white" stop-opacity="0"/>
</radialGradient>
<radialGradient id="paint2_radial_41_137" cx="0" cy="0" r="1" gradientUnits="userSpaceOnUse" gradientTransform="translate(47.1291 98.8764) rotate(-89.9138) scale(85.1686 86.5458)">
<stop stop-color="white"/>
<stop offset="1" stop-color="white" stop-opacity="0"/>
</radialGradient>
</defs>
</svg>
