<svg width="196" height="42" viewBox="0 0 196 42" fill="none" xmlns="http://www.w3.org/2000/svg">
<path d="M8.63 14.198H7.802C1.682 14.198 0.0620001 10.274 0.0620001 7.538V6.998C0.0620001 4.208 1.682 0.409999 7.802 0.409999H8.63C14.246 0.409999 16.118 3.164 16.118 5.702V5.738H12.302C12.248 5.36 11.744 3.47 8.216 3.47C4.94 3.47 3.914 5.306 3.914 7.106V7.358C3.914 9.014 4.976 11.12 8.234 11.12C11.798 11.12 12.248 9.194 12.302 8.762H16.118V8.816C16.118 11.264 14.318 14.198 8.63 14.198ZM24.845 14.27H24.287C18.905 14.27 18.077 10.994 18.077 9.176V8.924C18.077 7.124 18.905 3.74 24.269 3.74H24.863C30.407 3.74 31.055 7.142 31.055 8.906V9.194C31.055 10.994 30.407 14.27 24.845 14.27ZM24.467 11.642H24.665C26.879 11.642 27.437 10.058 27.437 8.96C27.437 7.826 26.879 6.314 24.665 6.314H24.467C22.163 6.314 21.695 7.826 21.695 8.96C21.695 10.058 22.163 11.642 24.467 11.642ZM40.9037 14L37.0157 9.374V14H33.5057V4.01H37.0157V8.006L40.5797 4.01H44.6297L40.4537 8.492L45.0797 14H40.9037ZM52.3372 14.27H51.7792C46.3972 14.27 45.5692 10.994 45.5692 9.176V8.924C45.5692 7.124 46.3972 3.74 51.7612 3.74H52.3552C57.8992 3.74 58.5472 7.142 58.5472 8.906V9.194C58.5472 10.994 57.8992 14.27 52.3372 14.27ZM51.9592 11.642H52.1572C54.3712 11.642 54.9292 10.058 54.9292 8.96C54.9292 7.826 54.3712 6.314 52.1572 6.314H51.9592C49.6552 6.314 49.1872 7.826 49.1872 8.96C49.1872 10.058 49.6552 11.642 51.9592 11.642ZM68.9761 14V6.674H65.0161C65.0161 9.356 64.9261 10.85 64.5841 11.768C64.2061 12.776 63.7021 14 61.0561 14H59.9581V11.39H60.1741C60.8041 11.39 61.2721 11.174 61.4701 10.256C61.6141 9.482 61.6681 8.636 61.6681 4.01H72.4861V14H68.9761ZM81.6575 14.27H81.0995C75.7175 14.27 74.8895 10.994 74.8895 9.176V8.924C74.8895 7.124 75.7175 3.74 81.0815 3.74H81.6755C87.2195 3.74 87.8675 7.142 87.8675 8.906V9.194C87.8675 10.994 87.2195 14.27 81.6575 14.27ZM81.2795 11.642H81.4775C83.6915 11.642 84.2495 10.058 84.2495 8.96C84.2495 7.826 83.6915 6.314 81.4775 6.314H81.2795C78.9755 6.314 78.5075 7.826 78.5075 8.96C78.5075 10.058 78.9755 11.642 81.2795 11.642ZM98.5262 14H90.2822V4.01H98.1662C100.452 4.01 101.892 4.82 101.892 6.404V6.494C101.892 7.736 101.1 8.474 99.8942 8.672C101.118 8.816 102.216 9.68 102.216 11.12V11.192C102.216 13.01 101.028 14 98.5262 14ZM93.7922 7.988H97.0142C97.8602 7.988 98.2922 7.664 98.2922 7.034V6.944C98.2922 6.368 97.8962 6.026 97.0142 6.026H93.7922V7.988ZM93.7922 11.984H97.1582C98.0942 11.984 98.6162 11.678 98.6162 10.976V10.832C98.6162 10.202 98.1842 9.806 97.1582 9.806H93.7922V11.984ZM109.289 12.002C111.341 12.002 112.043 10.706 112.043 9.95V9.176C111.737 9.302 110.855 9.482 109.847 9.644C108.155 9.932 107.615 10.166 107.615 10.868V10.904C107.615 11.534 108.065 12.002 109.289 12.002ZM112.151 12.614C111.719 13.136 110.639 14.198 108.299 14.198H108.011C105.221 14.198 104.069 12.686 104.069 11.03V10.958C104.069 9.23 105.167 8.168 108.551 7.88L111.287 7.646C111.845 7.592 112.043 7.412 112.043 6.998C112.043 6.53 111.899 6.026 109.955 6.026C108.119 6.026 107.939 6.746 107.939 7.124H104.339V7.088C104.339 6.098 104.735 3.776 109.649 3.776H110.207C115.157 3.776 115.463 5.81 115.463 7.142V10.436C115.463 11.066 115.589 11.318 116.291 11.318H116.669V14H113.825C112.781 14 112.295 13.262 112.151 12.614ZM124.072 0.608H136.33V3.524H127.726V5.702H136.06V8.726H127.726V11.048H136.438V14H124.072V0.608ZM147.392 14V6.674H143.432C143.432 9.356 143.342 10.85 143 11.768C142.622 12.776 142.118 14 139.472 14H138.374V11.39H138.59C139.22 11.39 139.688 11.174 139.886 10.256C140.03 9.482 140.084 8.636 140.084 4.01H150.902V14H147.392ZM159.624 6.08C157.806 6.08 157.122 6.818 156.942 7.862H162.234C162.234 7.124 161.874 6.08 159.624 6.08ZM162.306 10.886H165.96C165.96 11.714 165.312 14.234 160.146 14.234H159.48C154.548 14.234 153.324 11.534 153.324 9.14V8.888C153.324 6.638 154.44 3.794 159.174 3.794H159.966C165.078 3.794 165.996 6.638 165.996 9.428V9.752H156.906C157.05 10.904 157.788 11.84 159.93 11.84C161.964 11.84 162.216 11.048 162.306 10.886ZM171.909 14H168.399V4.01H171.909V7.646H176.805V4.01H180.315V14H176.805V10.31H171.909V14ZM187.951 12.002C190.003 12.002 190.705 10.706 190.705 9.95V9.176C190.399 9.302 189.517 9.482 188.509 9.644C186.817 9.932 186.277 10.166 186.277 10.868V10.904C186.277 11.534 186.727 12.002 187.951 12.002ZM190.813 12.614C190.381 13.136 189.301 14.198 186.961 14.198H186.673C183.883 14.198 182.731 12.686 182.731 11.03V10.958C182.731 9.23 183.829 8.168 187.213 7.88L189.949 7.646C190.507 7.592 190.705 7.412 190.705 6.998C190.705 6.53 190.561 6.026 188.617 6.026C186.781 6.026 186.601 6.746 186.601 7.124H183.001V7.088C183.001 6.098 183.397 3.776 188.311 3.776H188.869C193.819 3.776 194.125 5.81 194.125 7.142V10.436C194.125 11.066 194.251 11.318 194.953 11.318H195.331V14H192.487C191.443 14 190.957 13.262 190.813 12.614ZM0.656 38V24.608H14.534V38H10.826V27.56H4.364V38H0.656ZM23.4634 30.08C21.6454 30.08 20.9614 30.818 20.7814 31.862H26.0734C26.0734 31.124 25.7134 30.08 23.4634 30.08ZM26.1454 34.886H29.7994C29.7994 35.714 29.1514 38.234 23.9854 38.234H23.3194C18.3874 38.234 17.1634 35.534 17.1634 33.14V32.888C17.1634 30.638 18.2794 27.794 23.0134 27.794H23.8054C28.9174 27.794 29.8354 30.638 29.8354 33.428V33.752H20.7454C20.8894 34.904 21.6274 35.84 23.7694 35.84C25.8034 35.84 26.0554 35.048 26.1454 34.886ZM34.9255 38V30.674H31.0555V28.01H42.3055V30.674H38.4355V38H34.9255ZM53.39 33.014V32.96C53.39 31.88 52.886 30.422 50.69 30.422H50.51C48.404 30.422 47.738 31.808 47.738 32.96V33.014C47.738 34.112 48.404 35.552 50.51 35.552H50.69C52.886 35.552 53.39 34.04 53.39 33.014ZM44.246 41.438V28.01H47.72V29.288C48.152 28.82 49.466 27.812 51.734 27.812H51.968C55.784 27.812 57.026 30.422 57.026 32.798V33.104C57.026 35.282 55.748 38.198 51.95 38.198H51.698C49.412 38.198 48.188 37.154 47.756 36.722V41.438H44.246ZM65.7318 38.27H65.1738C59.7918 38.27 58.9638 34.994 58.9638 33.176V32.924C58.9638 31.124 59.7918 27.74 65.1558 27.74H65.7498C71.2938 27.74 71.9418 31.142 71.9418 32.906V33.194C71.9418 34.994 71.2938 38.27 65.7318 38.27ZM65.3538 35.642H65.5518C67.7658 35.642 68.3238 34.058 68.3238 32.96C68.3238 31.826 67.7658 30.314 65.5518 30.314H65.3538C63.0498 30.314 62.5818 31.826 62.5818 32.96C62.5818 34.058 63.0498 35.642 65.3538 35.642ZM82.6004 38H74.3564V28.01H82.2404C84.5264 28.01 85.9664 28.82 85.9664 30.404V30.494C85.9664 31.736 85.1744 32.474 83.9684 32.672C85.1924 32.816 86.2904 33.68 86.2904 35.12V35.192C86.2904 37.01 85.1024 38 82.6004 38ZM77.8664 31.988H81.0884C81.9344 31.988 82.3664 31.664 82.3664 31.034V30.944C82.3664 30.368 81.9704 30.026 81.0884 30.026H77.8664V31.988ZM77.8664 35.984H81.2324C82.1684 35.984 82.6904 35.678 82.6904 34.976V34.832C82.6904 34.202 82.2584 33.806 81.2324 33.806H77.8664V35.984ZM92.2453 38H88.7353V28.01H92.2453V31.646H97.1413V28.01H100.651V38H97.1413V34.31H92.2453V38ZM108.287 36.002C110.339 36.002 111.041 34.706 111.041 33.95V33.176C110.735 33.302 109.853 33.482 108.845 33.644C107.153 33.932 106.613 34.166 106.613 34.868V34.904C106.613 35.534 107.063 36.002 108.287 36.002ZM111.149 36.614C110.717 37.136 109.637 38.198 107.297 38.198H107.009C104.219 38.198 103.067 36.686 103.067 35.03V34.958C103.067 33.23 104.165 32.168 107.549 31.88L110.285 31.646C110.843 31.592 111.041 31.412 111.041 30.998C111.041 30.53 110.897 30.026 108.953 30.026C107.117 30.026 106.937 30.746 106.937 31.124H103.337V31.088C103.337 30.098 103.733 27.776 108.647 27.776H109.205C114.155 27.776 114.461 29.81 114.461 31.142V34.436C114.461 35.066 114.587 35.318 115.289 35.318H115.667V38H112.823C111.779 38 111.293 37.262 111.149 36.614Z" fill="url(#paint0_linear_2016_517)"/>
<path d="M8.63 14.198H7.802C1.682 14.198 0.0620001 10.274 0.0620001 7.538V6.998C0.0620001 4.208 1.682 0.409999 7.802 0.409999H8.63C14.246 0.409999 16.118 3.164 16.118 5.702V5.738H12.302C12.248 5.36 11.744 3.47 8.216 3.47C4.94 3.47 3.914 5.306 3.914 7.106V7.358C3.914 9.014 4.976 11.12 8.234 11.12C11.798 11.12 12.248 9.194 12.302 8.762H16.118V8.816C16.118 11.264 14.318 14.198 8.63 14.198ZM24.845 14.27H24.287C18.905 14.27 18.077 10.994 18.077 9.176V8.924C18.077 7.124 18.905 3.74 24.269 3.74H24.863C30.407 3.74 31.055 7.142 31.055 8.906V9.194C31.055 10.994 30.407 14.27 24.845 14.27ZM24.467 11.642H24.665C26.879 11.642 27.437 10.058 27.437 8.96C27.437 7.826 26.879 6.314 24.665 6.314H24.467C22.163 6.314 21.695 7.826 21.695 8.96C21.695 10.058 22.163 11.642 24.467 11.642ZM40.9037 14L37.0157 9.374V14H33.5057V4.01H37.0157V8.006L40.5797 4.01H44.6297L40.4537 8.492L45.0797 14H40.9037ZM52.3372 14.27H51.7792C46.3972 14.27 45.5692 10.994 45.5692 9.176V8.924C45.5692 7.124 46.3972 3.74 51.7612 3.74H52.3552C57.8992 3.74 58.5472 7.142 58.5472 8.906V9.194C58.5472 10.994 57.8992 14.27 52.3372 14.27ZM51.9592 11.642H52.1572C54.3712 11.642 54.9292 10.058 54.9292 8.96C54.9292 7.826 54.3712 6.314 52.1572 6.314H51.9592C49.6552 6.314 49.1872 7.826 49.1872 8.96C49.1872 10.058 49.6552 11.642 51.9592 11.642ZM68.9761 14V6.674H65.0161C65.0161 9.356 64.9261 10.85 64.5841 11.768C64.2061 12.776 63.7021 14 61.0561 14H59.9581V11.39H60.1741C60.8041 11.39 61.2721 11.174 61.4701 10.256C61.6141 9.482 61.6681 8.636 61.6681 4.01H72.4861V14H68.9761ZM81.6575 14.27H81.0995C75.7175 14.27 74.8895 10.994 74.8895 9.176V8.924C74.8895 7.124 75.7175 3.74 81.0815 3.74H81.6755C87.2195 3.74 87.8675 7.142 87.8675 8.906V9.194C87.8675 10.994 87.2195 14.27 81.6575 14.27ZM81.2795 11.642H81.4775C83.6915 11.642 84.2495 10.058 84.2495 8.96C84.2495 7.826 83.6915 6.314 81.4775 6.314H81.2795C78.9755 6.314 78.5075 7.826 78.5075 8.96C78.5075 10.058 78.9755 11.642 81.2795 11.642ZM98.5262 14H90.2822V4.01H98.1662C100.452 4.01 101.892 4.82 101.892 6.404V6.494C101.892 7.736 101.1 8.474 99.8942 8.672C101.118 8.816 102.216 9.68 102.216 11.12V11.192C102.216 13.01 101.028 14 98.5262 14ZM93.7922 7.988H97.0142C97.8602 7.988 98.2922 7.664 98.2922 7.034V6.944C98.2922 6.368 97.8962 6.026 97.0142 6.026H93.7922V7.988ZM93.7922 11.984H97.1582C98.0942 11.984 98.6162 11.678 98.6162 10.976V10.832C98.6162 10.202 98.1842 9.806 97.1582 9.806H93.7922V11.984ZM109.289 12.002C111.341 12.002 112.043 10.706 112.043 9.95V9.176C111.737 9.302 110.855 9.482 109.847 9.644C108.155 9.932 107.615 10.166 107.615 10.868V10.904C107.615 11.534 108.065 12.002 109.289 12.002ZM112.151 12.614C111.719 13.136 110.639 14.198 108.299 14.198H108.011C105.221 14.198 104.069 12.686 104.069 11.03V10.958C104.069 9.23 105.167 8.168 108.551 7.88L111.287 7.646C111.845 7.592 112.043 7.412 112.043 6.998C112.043 6.53 111.899 6.026 109.955 6.026C108.119 6.026 107.939 6.746 107.939 7.124H104.339V7.088C104.339 6.098 104.735 3.776 109.649 3.776H110.207C115.157 3.776 115.463 5.81 115.463 7.142V10.436C115.463 11.066 115.589 11.318 116.291 11.318H116.669V14H113.825C112.781 14 112.295 13.262 112.151 12.614ZM124.072 0.608H136.33V3.524H127.726V5.702H136.06V8.726H127.726V11.048H136.438V14H124.072V0.608ZM147.392 14V6.674H143.432C143.432 9.356 143.342 10.85 143 11.768C142.622 12.776 142.118 14 139.472 14H138.374V11.39H138.59C139.22 11.39 139.688 11.174 139.886 10.256C140.03 9.482 140.084 8.636 140.084 4.01H150.902V14H147.392ZM159.624 6.08C157.806 6.08 157.122 6.818 156.942 7.862H162.234C162.234 7.124 161.874 6.08 159.624 6.08ZM162.306 10.886H165.96C165.96 11.714 165.312 14.234 160.146 14.234H159.48C154.548 14.234 153.324 11.534 153.324 9.14V8.888C153.324 6.638 154.44 3.794 159.174 3.794H159.966C165.078 3.794 165.996 6.638 165.996 9.428V9.752H156.906C157.05 10.904 157.788 11.84 159.93 11.84C161.964 11.84 162.216 11.048 162.306 10.886ZM171.909 14H168.399V4.01H171.909V7.646H176.805V4.01H180.315V14H176.805V10.31H171.909V14ZM187.951 12.002C190.003 12.002 190.705 10.706 190.705 9.95V9.176C190.399 9.302 189.517 9.482 188.509 9.644C186.817 9.932 186.277 10.166 186.277 10.868V10.904C186.277 11.534 186.727 12.002 187.951 12.002ZM190.813 12.614C190.381 13.136 189.301 14.198 186.961 14.198H186.673C183.883 14.198 182.731 12.686 182.731 11.03V10.958C182.731 9.23 183.829 8.168 187.213 7.88L189.949 7.646C190.507 7.592 190.705 7.412 190.705 6.998C190.705 6.53 190.561 6.026 188.617 6.026C186.781 6.026 186.601 6.746 186.601 7.124H183.001V7.088C183.001 6.098 183.397 3.776 188.311 3.776H188.869C193.819 3.776 194.125 5.81 194.125 7.142V10.436C194.125 11.066 194.251 11.318 194.953 11.318H195.331V14H192.487C191.443 14 190.957 13.262 190.813 12.614ZM0.656 38V24.608H14.534V38H10.826V27.56H4.364V38H0.656ZM23.4634 30.08C21.6454 30.08 20.9614 30.818 20.7814 31.862H26.0734C26.0734 31.124 25.7134 30.08 23.4634 30.08ZM26.1454 34.886H29.7994C29.7994 35.714 29.1514 38.234 23.9854 38.234H23.3194C18.3874 38.234 17.1634 35.534 17.1634 33.14V32.888C17.1634 30.638 18.2794 27.794 23.0134 27.794H23.8054C28.9174 27.794 29.8354 30.638 29.8354 33.428V33.752H20.7454C20.8894 34.904 21.6274 35.84 23.7694 35.84C25.8034 35.84 26.0554 35.048 26.1454 34.886ZM34.9255 38V30.674H31.0555V28.01H42.3055V30.674H38.4355V38H34.9255ZM53.39 33.014V32.96C53.39 31.88 52.886 30.422 50.69 30.422H50.51C48.404 30.422 47.738 31.808 47.738 32.96V33.014C47.738 34.112 48.404 35.552 50.51 35.552H50.69C52.886 35.552 53.39 34.04 53.39 33.014ZM44.246 41.438V28.01H47.72V29.288C48.152 28.82 49.466 27.812 51.734 27.812H51.968C55.784 27.812 57.026 30.422 57.026 32.798V33.104C57.026 35.282 55.748 38.198 51.95 38.198H51.698C49.412 38.198 48.188 37.154 47.756 36.722V41.438H44.246ZM65.7318 38.27H65.1738C59.7918 38.27 58.9638 34.994 58.9638 33.176V32.924C58.9638 31.124 59.7918 27.74 65.1558 27.74H65.7498C71.2938 27.74 71.9418 31.142 71.9418 32.906V33.194C71.9418 34.994 71.2938 38.27 65.7318 38.27ZM65.3538 35.642H65.5518C67.7658 35.642 68.3238 34.058 68.3238 32.96C68.3238 31.826 67.7658 30.314 65.5518 30.314H65.3538C63.0498 30.314 62.5818 31.826 62.5818 32.96C62.5818 34.058 63.0498 35.642 65.3538 35.642ZM82.6004 38H74.3564V28.01H82.2404C84.5264 28.01 85.9664 28.82 85.9664 30.404V30.494C85.9664 31.736 85.1744 32.474 83.9684 32.672C85.1924 32.816 86.2904 33.68 86.2904 35.12V35.192C86.2904 37.01 85.1024 38 82.6004 38ZM77.8664 31.988H81.0884C81.9344 31.988 82.3664 31.664 82.3664 31.034V30.944C82.3664 30.368 81.9704 30.026 81.0884 30.026H77.8664V31.988ZM77.8664 35.984H81.2324C82.1684 35.984 82.6904 35.678 82.6904 34.976V34.832C82.6904 34.202 82.2584 33.806 81.2324 33.806H77.8664V35.984ZM92.2453 38H88.7353V28.01H92.2453V31.646H97.1413V28.01H100.651V38H97.1413V34.31H92.2453V38ZM108.287 36.002C110.339 36.002 111.041 34.706 111.041 33.95V33.176C110.735 33.302 109.853 33.482 108.845 33.644C107.153 33.932 106.613 34.166 106.613 34.868V34.904C106.613 35.534 107.063 36.002 108.287 36.002ZM111.149 36.614C110.717 37.136 109.637 38.198 107.297 38.198H107.009C104.219 38.198 103.067 36.686 103.067 35.03V34.958C103.067 33.23 104.165 32.168 107.549 31.88L110.285 31.646C110.843 31.592 111.041 31.412 111.041 30.998C111.041 30.53 110.897 30.026 108.953 30.026C107.117 30.026 106.937 30.746 106.937 31.124H103.337V31.088C103.337 30.098 103.733 27.776 108.647 27.776H109.205C114.155 27.776 114.461 29.81 114.461 31.142V34.436C114.461 35.066 114.587 35.318 115.289 35.318H115.667V38H112.823C111.779 38 111.293 37.262 111.149 36.614Z" fill="url(#paint1_radial_2016_517)" style="mix-blend-mode:overlay"/>
<path d="M8.63 14.198H7.802C1.682 14.198 0.0620001 10.274 0.0620001 7.538V6.998C0.0620001 4.208 1.682 0.409999 7.802 0.409999H8.63C14.246 0.409999 16.118 3.164 16.118 5.702V5.738H12.302C12.248 5.36 11.744 3.47 8.216 3.47C4.94 3.47 3.914 5.306 3.914 7.106V7.358C3.914 9.014 4.976 11.12 8.234 11.12C11.798 11.12 12.248 9.194 12.302 8.762H16.118V8.816C16.118 11.264 14.318 14.198 8.63 14.198ZM24.845 14.27H24.287C18.905 14.27 18.077 10.994 18.077 9.176V8.924C18.077 7.124 18.905 3.74 24.269 3.74H24.863C30.407 3.74 31.055 7.142 31.055 8.906V9.194C31.055 10.994 30.407 14.27 24.845 14.27ZM24.467 11.642H24.665C26.879 11.642 27.437 10.058 27.437 8.96C27.437 7.826 26.879 6.314 24.665 6.314H24.467C22.163 6.314 21.695 7.826 21.695 8.96C21.695 10.058 22.163 11.642 24.467 11.642ZM40.9037 14L37.0157 9.374V14H33.5057V4.01H37.0157V8.006L40.5797 4.01H44.6297L40.4537 8.492L45.0797 14H40.9037ZM52.3372 14.27H51.7792C46.3972 14.27 45.5692 10.994 45.5692 9.176V8.924C45.5692 7.124 46.3972 3.74 51.7612 3.74H52.3552C57.8992 3.74 58.5472 7.142 58.5472 8.906V9.194C58.5472 10.994 57.8992 14.27 52.3372 14.27ZM51.9592 11.642H52.1572C54.3712 11.642 54.9292 10.058 54.9292 8.96C54.9292 7.826 54.3712 6.314 52.1572 6.314H51.9592C49.6552 6.314 49.1872 7.826 49.1872 8.96C49.1872 10.058 49.6552 11.642 51.9592 11.642ZM68.9761 14V6.674H65.0161C65.0161 9.356 64.9261 10.85 64.5841 11.768C64.2061 12.776 63.7021 14 61.0561 14H59.9581V11.39H60.1741C60.8041 11.39 61.2721 11.174 61.4701 10.256C61.6141 9.482 61.6681 8.636 61.6681 4.01H72.4861V14H68.9761ZM81.6575 14.27H81.0995C75.7175 14.27 74.8895 10.994 74.8895 9.176V8.924C74.8895 7.124 75.7175 3.74 81.0815 3.74H81.6755C87.2195 3.74 87.8675 7.142 87.8675 8.906V9.194C87.8675 10.994 87.2195 14.27 81.6575 14.27ZM81.2795 11.642H81.4775C83.6915 11.642 84.2495 10.058 84.2495 8.96C84.2495 7.826 83.6915 6.314 81.4775 6.314H81.2795C78.9755 6.314 78.5075 7.826 78.5075 8.96C78.5075 10.058 78.9755 11.642 81.2795 11.642ZM98.5262 14H90.2822V4.01H98.1662C100.452 4.01 101.892 4.82 101.892 6.404V6.494C101.892 7.736 101.1 8.474 99.8942 8.672C101.118 8.816 102.216 9.68 102.216 11.12V11.192C102.216 13.01 101.028 14 98.5262 14ZM93.7922 7.988H97.0142C97.8602 7.988 98.2922 7.664 98.2922 7.034V6.944C98.2922 6.368 97.8962 6.026 97.0142 6.026H93.7922V7.988ZM93.7922 11.984H97.1582C98.0942 11.984 98.6162 11.678 98.6162 10.976V10.832C98.6162 10.202 98.1842 9.806 97.1582 9.806H93.7922V11.984ZM109.289 12.002C111.341 12.002 112.043 10.706 112.043 9.95V9.176C111.737 9.302 110.855 9.482 109.847 9.644C108.155 9.932 107.615 10.166 107.615 10.868V10.904C107.615 11.534 108.065 12.002 109.289 12.002ZM112.151 12.614C111.719 13.136 110.639 14.198 108.299 14.198H108.011C105.221 14.198 104.069 12.686 104.069 11.03V10.958C104.069 9.23 105.167 8.168 108.551 7.88L111.287 7.646C111.845 7.592 112.043 7.412 112.043 6.998C112.043 6.53 111.899 6.026 109.955 6.026C108.119 6.026 107.939 6.746 107.939 7.124H104.339V7.088C104.339 6.098 104.735 3.776 109.649 3.776H110.207C115.157 3.776 115.463 5.81 115.463 7.142V10.436C115.463 11.066 115.589 11.318 116.291 11.318H116.669V14H113.825C112.781 14 112.295 13.262 112.151 12.614ZM124.072 0.608H136.33V3.524H127.726V5.702H136.06V8.726H127.726V11.048H136.438V14H124.072V0.608ZM147.392 14V6.674H143.432C143.432 9.356 143.342 10.85 143 11.768C142.622 12.776 142.118 14 139.472 14H138.374V11.39H138.59C139.22 11.39 139.688 11.174 139.886 10.256C140.03 9.482 140.084 8.636 140.084 4.01H150.902V14H147.392ZM159.624 6.08C157.806 6.08 157.122 6.818 156.942 7.862H162.234C162.234 7.124 161.874 6.08 159.624 6.08ZM162.306 10.886H165.96C165.96 11.714 165.312 14.234 160.146 14.234H159.48C154.548 14.234 153.324 11.534 153.324 9.14V8.888C153.324 6.638 154.44 3.794 159.174 3.794H159.966C165.078 3.794 165.996 6.638 165.996 9.428V9.752H156.906C157.05 10.904 157.788 11.84 159.93 11.84C161.964 11.84 162.216 11.048 162.306 10.886ZM171.909 14H168.399V4.01H171.909V7.646H176.805V4.01H180.315V14H176.805V10.31H171.909V14ZM187.951 12.002C190.003 12.002 190.705 10.706 190.705 9.95V9.176C190.399 9.302 189.517 9.482 188.509 9.644C186.817 9.932 186.277 10.166 186.277 10.868V10.904C186.277 11.534 186.727 12.002 187.951 12.002ZM190.813 12.614C190.381 13.136 189.301 14.198 186.961 14.198H186.673C183.883 14.198 182.731 12.686 182.731 11.03V10.958C182.731 9.23 183.829 8.168 187.213 7.88L189.949 7.646C190.507 7.592 190.705 7.412 190.705 6.998C190.705 6.53 190.561 6.026 188.617 6.026C186.781 6.026 186.601 6.746 186.601 7.124H183.001V7.088C183.001 6.098 183.397 3.776 188.311 3.776H188.869C193.819 3.776 194.125 5.81 194.125 7.142V10.436C194.125 11.066 194.251 11.318 194.953 11.318H195.331V14H192.487C191.443 14 190.957 13.262 190.813 12.614ZM0.656 38V24.608H14.534V38H10.826V27.56H4.364V38H0.656ZM23.4634 30.08C21.6454 30.08 20.9614 30.818 20.7814 31.862H26.0734C26.0734 31.124 25.7134 30.08 23.4634 30.08ZM26.1454 34.886H29.7994C29.7994 35.714 29.1514 38.234 23.9854 38.234H23.3194C18.3874 38.234 17.1634 35.534 17.1634 33.14V32.888C17.1634 30.638 18.2794 27.794 23.0134 27.794H23.8054C28.9174 27.794 29.8354 30.638 29.8354 33.428V33.752H20.7454C20.8894 34.904 21.6274 35.84 23.7694 35.84C25.8034 35.84 26.0554 35.048 26.1454 34.886ZM34.9255 38V30.674H31.0555V28.01H42.3055V30.674H38.4355V38H34.9255ZM53.39 33.014V32.96C53.39 31.88 52.886 30.422 50.69 30.422H50.51C48.404 30.422 47.738 31.808 47.738 32.96V33.014C47.738 34.112 48.404 35.552 50.51 35.552H50.69C52.886 35.552 53.39 34.04 53.39 33.014ZM44.246 41.438V28.01H47.72V29.288C48.152 28.82 49.466 27.812 51.734 27.812H51.968C55.784 27.812 57.026 30.422 57.026 32.798V33.104C57.026 35.282 55.748 38.198 51.95 38.198H51.698C49.412 38.198 48.188 37.154 47.756 36.722V41.438H44.246ZM65.7318 38.27H65.1738C59.7918 38.27 58.9638 34.994 58.9638 33.176V32.924C58.9638 31.124 59.7918 27.74 65.1558 27.74H65.7498C71.2938 27.74 71.9418 31.142 71.9418 32.906V33.194C71.9418 34.994 71.2938 38.27 65.7318 38.27ZM65.3538 35.642H65.5518C67.7658 35.642 68.3238 34.058 68.3238 32.96C68.3238 31.826 67.7658 30.314 65.5518 30.314H65.3538C63.0498 30.314 62.5818 31.826 62.5818 32.96C62.5818 34.058 63.0498 35.642 65.3538 35.642ZM82.6004 38H74.3564V28.01H82.2404C84.5264 28.01 85.9664 28.82 85.9664 30.404V30.494C85.9664 31.736 85.1744 32.474 83.9684 32.672C85.1924 32.816 86.2904 33.68 86.2904 35.12V35.192C86.2904 37.01 85.1024 38 82.6004 38ZM77.8664 31.988H81.0884C81.9344 31.988 82.3664 31.664 82.3664 31.034V30.944C82.3664 30.368 81.9704 30.026 81.0884 30.026H77.8664V31.988ZM77.8664 35.984H81.2324C82.1684 35.984 82.6904 35.678 82.6904 34.976V34.832C82.6904 34.202 82.2584 33.806 81.2324 33.806H77.8664V35.984ZM92.2453 38H88.7353V28.01H92.2453V31.646H97.1413V28.01H100.651V38H97.1413V34.31H92.2453V38ZM108.287 36.002C110.339 36.002 111.041 34.706 111.041 33.95V33.176C110.735 33.302 109.853 33.482 108.845 33.644C107.153 33.932 106.613 34.166 106.613 34.868V34.904C106.613 35.534 107.063 36.002 108.287 36.002ZM111.149 36.614C110.717 37.136 109.637 38.198 107.297 38.198H107.009C104.219 38.198 103.067 36.686 103.067 35.03V34.958C103.067 33.23 104.165 32.168 107.549 31.88L110.285 31.646C110.843 31.592 111.041 31.412 111.041 30.998C111.041 30.53 110.897 30.026 108.953 30.026C107.117 30.026 106.937 30.746 106.937 31.124H103.337V31.088C103.337 30.098 103.733 27.776 108.647 27.776H109.205C114.155 27.776 114.461 29.81 114.461 31.142V34.436C114.461 35.066 114.587 35.318 115.289 35.318H115.667V38H112.823C111.779 38 111.293 37.262 111.149 36.614Z" fill="url(#paint2_radial_2016_517)"/>
<path d="M8.63 14.198H7.802C1.682 14.198 0.0620001 10.274 0.0620001 7.538V6.998C0.0620001 4.208 1.682 0.409999 7.802 0.409999H8.63C14.246 0.409999 16.118 3.164 16.118 5.702V5.738H12.302C12.248 5.36 11.744 3.47 8.216 3.47C4.94 3.47 3.914 5.306 3.914 7.106V7.358C3.914 9.014 4.976 11.12 8.234 11.12C11.798 11.12 12.248 9.194 12.302 8.762H16.118V8.816C16.118 11.264 14.318 14.198 8.63 14.198ZM24.845 14.27H24.287C18.905 14.27 18.077 10.994 18.077 9.176V8.924C18.077 7.124 18.905 3.74 24.269 3.74H24.863C30.407 3.74 31.055 7.142 31.055 8.906V9.194C31.055 10.994 30.407 14.27 24.845 14.27ZM24.467 11.642H24.665C26.879 11.642 27.437 10.058 27.437 8.96C27.437 7.826 26.879 6.314 24.665 6.314H24.467C22.163 6.314 21.695 7.826 21.695 8.96C21.695 10.058 22.163 11.642 24.467 11.642ZM40.9037 14L37.0157 9.374V14H33.5057V4.01H37.0157V8.006L40.5797 4.01H44.6297L40.4537 8.492L45.0797 14H40.9037ZM52.3372 14.27H51.7792C46.3972 14.27 45.5692 10.994 45.5692 9.176V8.924C45.5692 7.124 46.3972 3.74 51.7612 3.74H52.3552C57.8992 3.74 58.5472 7.142 58.5472 8.906V9.194C58.5472 10.994 57.8992 14.27 52.3372 14.27ZM51.9592 11.642H52.1572C54.3712 11.642 54.9292 10.058 54.9292 8.96C54.9292 7.826 54.3712 6.314 52.1572 6.314H51.9592C49.6552 6.314 49.1872 7.826 49.1872 8.96C49.1872 10.058 49.6552 11.642 51.9592 11.642ZM68.9761 14V6.674H65.0161C65.0161 9.356 64.9261 10.85 64.5841 11.768C64.2061 12.776 63.7021 14 61.0561 14H59.9581V11.39H60.1741C60.8041 11.39 61.2721 11.174 61.4701 10.256C61.6141 9.482 61.6681 8.636 61.6681 4.01H72.4861V14H68.9761ZM81.6575 14.27H81.0995C75.7175 14.27 74.8895 10.994 74.8895 9.176V8.924C74.8895 7.124 75.7175 3.74 81.0815 3.74H81.6755C87.2195 3.74 87.8675 7.142 87.8675 8.906V9.194C87.8675 10.994 87.2195 14.27 81.6575 14.27ZM81.2795 11.642H81.4775C83.6915 11.642 84.2495 10.058 84.2495 8.96C84.2495 7.826 83.6915 6.314 81.4775 6.314H81.2795C78.9755 6.314 78.5075 7.826 78.5075 8.96C78.5075 10.058 78.9755 11.642 81.2795 11.642ZM98.5262 14H90.2822V4.01H98.1662C100.452 4.01 101.892 4.82 101.892 6.404V6.494C101.892 7.736 101.1 8.474 99.8942 8.672C101.118 8.816 102.216 9.68 102.216 11.12V11.192C102.216 13.01 101.028 14 98.5262 14ZM93.7922 7.988H97.0142C97.8602 7.988 98.2922 7.664 98.2922 7.034V6.944C98.2922 6.368 97.8962 6.026 97.0142 6.026H93.7922V7.988ZM93.7922 11.984H97.1582C98.0942 11.984 98.6162 11.678 98.6162 10.976V10.832C98.6162 10.202 98.1842 9.806 97.1582 9.806H93.7922V11.984ZM109.289 12.002C111.341 12.002 112.043 10.706 112.043 9.95V9.176C111.737 9.302 110.855 9.482 109.847 9.644C108.155 9.932 107.615 10.166 107.615 10.868V10.904C107.615 11.534 108.065 12.002 109.289 12.002ZM112.151 12.614C111.719 13.136 110.639 14.198 108.299 14.198H108.011C105.221 14.198 104.069 12.686 104.069 11.03V10.958C104.069 9.23 105.167 8.168 108.551 7.88L111.287 7.646C111.845 7.592 112.043 7.412 112.043 6.998C112.043 6.53 111.899 6.026 109.955 6.026C108.119 6.026 107.939 6.746 107.939 7.124H104.339V7.088C104.339 6.098 104.735 3.776 109.649 3.776H110.207C115.157 3.776 115.463 5.81 115.463 7.142V10.436C115.463 11.066 115.589 11.318 116.291 11.318H116.669V14H113.825C112.781 14 112.295 13.262 112.151 12.614ZM124.072 0.608H136.33V3.524H127.726V5.702H136.06V8.726H127.726V11.048H136.438V14H124.072V0.608ZM147.392 14V6.674H143.432C143.432 9.356 143.342 10.85 143 11.768C142.622 12.776 142.118 14 139.472 14H138.374V11.39H138.59C139.22 11.39 139.688 11.174 139.886 10.256C140.03 9.482 140.084 8.636 140.084 4.01H150.902V14H147.392ZM159.624 6.08C157.806 6.08 157.122 6.818 156.942 7.862H162.234C162.234 7.124 161.874 6.08 159.624 6.08ZM162.306 10.886H165.96C165.96 11.714 165.312 14.234 160.146 14.234H159.48C154.548 14.234 153.324 11.534 153.324 9.14V8.888C153.324 6.638 154.44 3.794 159.174 3.794H159.966C165.078 3.794 165.996 6.638 165.996 9.428V9.752H156.906C157.05 10.904 157.788 11.84 159.93 11.84C161.964 11.84 162.216 11.048 162.306 10.886ZM171.909 14H168.399V4.01H171.909V7.646H176.805V4.01H180.315V14H176.805V10.31H171.909V14ZM187.951 12.002C190.003 12.002 190.705 10.706 190.705 9.95V9.176C190.399 9.302 189.517 9.482 188.509 9.644C186.817 9.932 186.277 10.166 186.277 10.868V10.904C186.277 11.534 186.727 12.002 187.951 12.002ZM190.813 12.614C190.381 13.136 189.301 14.198 186.961 14.198H186.673C183.883 14.198 182.731 12.686 182.731 11.03V10.958C182.731 9.23 183.829 8.168 187.213 7.88L189.949 7.646C190.507 7.592 190.705 7.412 190.705 6.998C190.705 6.53 190.561 6.026 188.617 6.026C186.781 6.026 186.601 6.746 186.601 7.124H183.001V7.088C183.001 6.098 183.397 3.776 188.311 3.776H188.869C193.819 3.776 194.125 5.81 194.125 7.142V10.436C194.125 11.066 194.251 11.318 194.953 11.318H195.331V14H192.487C191.443 14 190.957 13.262 190.813 12.614ZM0.656 38V24.608H14.534V38H10.826V27.56H4.364V38H0.656ZM23.4634 30.08C21.6454 30.08 20.9614 30.818 20.7814 31.862H26.0734C26.0734 31.124 25.7134 30.08 23.4634 30.08ZM26.1454 34.886H29.7994C29.7994 35.714 29.1514 38.234 23.9854 38.234H23.3194C18.3874 38.234 17.1634 35.534 17.1634 33.14V32.888C17.1634 30.638 18.2794 27.794 23.0134 27.794H23.8054C28.9174 27.794 29.8354 30.638 29.8354 33.428V33.752H20.7454C20.8894 34.904 21.6274 35.84 23.7694 35.84C25.8034 35.84 26.0554 35.048 26.1454 34.886ZM34.9255 38V30.674H31.0555V28.01H42.3055V30.674H38.4355V38H34.9255ZM53.39 33.014V32.96C53.39 31.88 52.886 30.422 50.69 30.422H50.51C48.404 30.422 47.738 31.808 47.738 32.96V33.014C47.738 34.112 48.404 35.552 50.51 35.552H50.69C52.886 35.552 53.39 34.04 53.39 33.014ZM44.246 41.438V28.01H47.72V29.288C48.152 28.82 49.466 27.812 51.734 27.812H51.968C55.784 27.812 57.026 30.422 57.026 32.798V33.104C57.026 35.282 55.748 38.198 51.95 38.198H51.698C49.412 38.198 48.188 37.154 47.756 36.722V41.438H44.246ZM65.7318 38.27H65.1738C59.7918 38.27 58.9638 34.994 58.9638 33.176V32.924C58.9638 31.124 59.7918 27.74 65.1558 27.74H65.7498C71.2938 27.74 71.9418 31.142 71.9418 32.906V33.194C71.9418 34.994 71.2938 38.27 65.7318 38.27ZM65.3538 35.642H65.5518C67.7658 35.642 68.3238 34.058 68.3238 32.96C68.3238 31.826 67.7658 30.314 65.5518 30.314H65.3538C63.0498 30.314 62.5818 31.826 62.5818 32.96C62.5818 34.058 63.0498 35.642 65.3538 35.642ZM82.6004 38H74.3564V28.01H82.2404C84.5264 28.01 85.9664 28.82 85.9664 30.404V30.494C85.9664 31.736 85.1744 32.474 83.9684 32.672C85.1924 32.816 86.2904 33.68 86.2904 35.12V35.192C86.2904 37.01 85.1024 38 82.6004 38ZM77.8664 31.988H81.0884C81.9344 31.988 82.3664 31.664 82.3664 31.034V30.944C82.3664 30.368 81.9704 30.026 81.0884 30.026H77.8664V31.988ZM77.8664 35.984H81.2324C82.1684 35.984 82.6904 35.678 82.6904 34.976V34.832C82.6904 34.202 82.2584 33.806 81.2324 33.806H77.8664V35.984ZM92.2453 38H88.7353V28.01H92.2453V31.646H97.1413V28.01H100.651V38H97.1413V34.31H92.2453V38ZM108.287 36.002C110.339 36.002 111.041 34.706 111.041 33.95V33.176C110.735 33.302 109.853 33.482 108.845 33.644C107.153 33.932 106.613 34.166 106.613 34.868V34.904C106.613 35.534 107.063 36.002 108.287 36.002ZM111.149 36.614C110.717 37.136 109.637 38.198 107.297 38.198H107.009C104.219 38.198 103.067 36.686 103.067 35.03V34.958C103.067 33.23 104.165 32.168 107.549 31.88L110.285 31.646C110.843 31.592 111.041 31.412 111.041 30.998C111.041 30.53 110.897 30.026 108.953 30.026C107.117 30.026 106.937 30.746 106.937 31.124H103.337V31.088C103.337 30.098 103.733 27.776 108.647 27.776H109.205C114.155 27.776 114.461 29.81 114.461 31.142V34.436C114.461 35.066 114.587 35.318 115.289 35.318H115.667V38H112.823C111.779 38 111.293 37.262 111.149 36.614Z" fill="#C1A875" style="mix-blend-mode:color"/>
<defs>
<linearGradient id="paint0_linear_2016_517" x1="-0.999999" y1="30" x2="221" y2="30" gradientUnits="userSpaceOnUse">
<stop stop-color="#576167"/>
<stop offset="0.191294" stop-color="#9EA1A2"/>
<stop offset="0.396166" stop-color="#848989"/>
<stop offset="0.62055" stop-color="#576167"/>
<stop offset="0.830299" stop-color="#757A7C"/>
<stop offset="1" stop-color="#576167"/>
</linearGradient>
<radialGradient id="paint1_radial_2016_517" cx="0" cy="0" r="1" gradientUnits="userSpaceOnUse" gradientTransform="translate(117.226 2.39326) rotate(90) scale(53.4944 167.95)">
<stop stop-color="white"/>
<stop offset="1" stop-color="white" stop-opacity="0"/>
</radialGradient>
<radialGradient id="paint2_radial_2016_517" cx="0" cy="0" r="1" gradientUnits="userSpaceOnUse" gradientTransform="translate(129.783 82.9888) rotate(-89.7344) scale(76.6525 240.162)">
<stop stop-color="white"/>
<stop offset="1" stop-color="white" stop-opacity="0"/>
</radialGradient>
</defs>
</svg>
