<svg width="178" height="42" viewBox="0 0 178 42" fill="none" xmlns="http://www.w3.org/2000/svg">
<path d="M0.656 14V0.608H10.43C14.264 0.608 15.218 2.282 15.218 3.776V3.974C15.218 5.666 13.76 6.476 12.752 6.62C14.264 6.872 15.884 7.772 15.884 9.932V10.13C15.884 11.948 14.786 14 10.484 14H0.656ZM9.89 3.398H4.364V5.792H9.89C11.024 5.792 11.348 5.252 11.348 4.622V4.586C11.348 3.938 10.988 3.398 9.89 3.398ZM10.178 8.42H4.364V11.066H10.178C11.474 11.066 11.852 10.382 11.852 9.716V9.644C11.852 8.978 11.474 8.42 10.178 8.42ZM24.5462 14.27H23.9882C18.6062 14.27 17.7782 10.994 17.7782 9.176V8.924C17.7782 7.124 18.6062 3.74 23.9702 3.74H24.5642C30.1082 3.74 30.7562 7.142 30.7562 8.906V9.194C30.7562 10.994 30.1082 14.27 24.5462 14.27ZM24.1682 11.642H24.3662C26.5802 11.642 27.1382 10.058 27.1382 8.96C27.1382 7.826 26.5802 6.314 24.3662 6.314H24.1682C21.8642 6.314 21.3962 7.826 21.3962 8.96C21.3962 10.058 21.8642 11.642 24.1682 11.642ZM41.1851 14V6.674H37.2251C37.2251 9.356 37.1351 10.85 36.7931 11.768C36.4151 12.776 35.9111 14 33.2651 14H32.1671V11.39H32.3831C33.0131 11.39 33.4811 11.174 33.6791 10.256C33.8231 9.482 33.8771 8.636 33.8771 4.01H44.6951V14H41.1851ZM55.0365 14L51.1485 9.374V14H47.6385V4.01H51.1485V8.006L54.7125 4.01H58.7625L54.5865 8.492L59.2125 14H55.0365ZM66.47 14.27H65.912C60.53 14.27 59.702 10.994 59.702 9.176V8.924C59.702 7.124 60.53 3.74 65.894 3.74H66.488C72.032 3.74 72.68 7.142 72.68 8.906V9.194C72.68 10.994 72.032 14.27 66.47 14.27ZM66.092 11.642H66.29C68.504 11.642 69.062 10.058 69.062 8.96C69.062 7.826 68.504 6.314 66.29 6.314H66.092C63.788 6.314 63.32 7.826 63.32 8.96C63.32 10.058 63.788 11.642 66.092 11.642ZM83.3387 14H75.0947V4.01H82.9787C85.2647 4.01 86.7047 4.82 86.7047 6.404V6.494C86.7047 7.736 85.9127 8.474 84.7067 8.672C85.9307 8.816 87.0287 9.68 87.0287 11.12V11.192C87.0287 13.01 85.8407 14 83.3387 14ZM78.6047 7.988H81.8267C82.6727 7.988 83.1047 7.664 83.1047 7.034V6.944C83.1047 6.368 82.7087 6.026 81.8267 6.026H78.6047V7.988ZM78.6047 11.984H81.9707C82.9067 11.984 83.4287 11.678 83.4287 10.976V10.832C83.4287 10.202 82.9967 9.806 81.9707 9.806H78.6047V11.984ZM94.1017 12.002C96.1537 12.002 96.8557 10.706 96.8557 9.95V9.176C96.5497 9.302 95.6677 9.482 94.6597 9.644C92.9677 9.932 92.4277 10.166 92.4277 10.868V10.904C92.4277 11.534 92.8777 12.002 94.1017 12.002ZM96.9637 12.614C96.5317 13.136 95.4517 14.198 93.1117 14.198H92.8237C90.0337 14.198 88.8817 12.686 88.8817 11.03V10.958C88.8817 9.23 89.9797 8.168 93.3637 7.88L96.0997 7.646C96.6577 7.592 96.8557 7.412 96.8557 6.998C96.8557 6.53 96.7117 6.026 94.7677 6.026C92.9317 6.026 92.7517 6.746 92.7517 7.124H89.1517V7.088C89.1517 6.098 89.5477 3.776 94.4617 3.776H95.0197C99.9697 3.776 100.276 5.81 100.276 7.142V10.436C100.276 11.066 100.402 11.318 101.104 11.318H101.482V14H98.6377C97.5937 14 97.1077 13.262 96.9637 12.614ZM116.337 0.391999H117.129C123.393 0.391999 125.175 4.064 125.175 6.998V7.538C125.175 10.418 123.393 14.216 117.129 14.216H116.337C110.073 14.216 108.291 10.418 108.291 7.538V6.998C108.291 4.082 110.073 0.391999 116.337 0.391999ZM121.323 7.394V7.142C121.323 5.486 120.513 3.452 116.733 3.452C112.989 3.452 112.143 5.486 112.143 7.142V7.394C112.143 9.014 113.043 11.138 116.733 11.138C120.495 11.138 121.323 9.014 121.323 7.394ZM135.334 14V6.674H131.374C131.374 9.356 131.284 10.85 130.942 11.768C130.564 12.776 130.06 14 127.414 14H126.316V11.39H126.532C127.162 11.39 127.63 11.174 127.828 10.256C127.972 9.482 128.026 8.636 128.026 4.01H138.844V14H135.334ZM141.751 14V4.01H145.261V6.872H147.997C151.417 6.872 152.749 8.384 152.749 10.292V10.508C152.749 12.596 151.417 14 147.997 14H141.751ZM145.261 11.624H147.565C148.285 11.624 149.149 11.408 149.149 10.436V10.382C149.149 9.482 148.285 9.248 147.565 9.248H145.261V11.624ZM154.829 14V4.01H163.541V6.674H158.339V14H154.829ZM170.162 12.002C172.214 12.002 172.916 10.706 172.916 9.95V9.176C172.61 9.302 171.728 9.482 170.72 9.644C169.028 9.932 168.488 10.166 168.488 10.868V10.904C168.488 11.534 168.938 12.002 170.162 12.002ZM173.024 12.614C172.592 13.136 171.512 14.198 169.172 14.198H168.884C166.094 14.198 164.942 12.686 164.942 11.03V10.958C164.942 9.23 166.04 8.168 169.424 7.88L172.16 7.646C172.718 7.592 172.916 7.412 172.916 6.998C172.916 6.53 172.772 6.026 170.828 6.026C168.992 6.026 168.812 6.746 168.812 7.124H165.212V7.088C165.212 6.098 165.608 3.776 170.522 3.776H171.08C176.03 3.776 176.336 5.81 176.336 7.142V10.436C176.336 11.066 176.462 11.318 177.164 11.318H177.542V14H174.698C173.654 14 173.168 13.262 173.024 12.614ZM8.63 38.198H7.802C1.682 38.198 0.0620001 34.274 0.0620001 31.538V30.998C0.0620001 28.208 1.682 24.41 7.802 24.41H8.63C14.246 24.41 16.118 27.164 16.118 29.702V29.738H12.302C12.248 29.36 11.744 27.47 8.216 27.47C4.94 27.47 3.914 29.306 3.914 31.106V31.358C3.914 33.014 4.976 35.12 8.234 35.12C11.798 35.12 12.248 33.194 12.302 32.762H16.118V32.816C16.118 35.264 14.318 38.198 8.63 38.198ZM24.395 30.08C22.577 30.08 21.893 30.818 21.713 31.862H27.005C27.005 31.124 26.645 30.08 24.395 30.08ZM27.077 34.886H30.731C30.731 35.714 30.083 38.234 24.917 38.234H24.251C19.319 38.234 18.095 35.534 18.095 33.14V32.888C18.095 30.638 19.211 27.794 23.945 27.794H24.737C29.849 27.794 30.767 30.638 30.767 33.428V33.752H21.677C21.821 34.904 22.559 35.84 24.701 35.84C26.735 35.84 26.987 35.048 27.077 34.886ZM42.3509 33.014V32.96C42.3509 31.88 41.8469 30.422 39.6509 30.422H39.4709C37.3649 30.422 36.6989 31.808 36.6989 32.96V33.014C36.6989 34.112 37.3649 35.552 39.4709 35.552H39.6509C41.8469 35.552 42.3509 34.04 42.3509 33.014ZM33.2069 41.438V28.01H36.6809V29.288C37.1129 28.82 38.4269 27.812 40.6949 27.812H40.9289C44.7449 27.812 45.9869 30.422 45.9869 32.798V33.104C45.9869 35.282 44.7089 38.198 40.9109 38.198H40.6589C38.3729 38.198 37.1489 37.154 36.7169 36.722V41.438H33.2069ZM48.4287 38V28.01H57.1407V30.674H51.9387V38H48.4287ZM64.8599 30.08C63.0419 30.08 62.3579 30.818 62.1779 31.862H67.4699C67.4699 31.124 67.1099 30.08 64.8599 30.08ZM67.5419 34.886H71.1959C71.1959 35.714 70.5479 38.234 65.3819 38.234H64.7159C59.7839 38.234 58.5599 35.534 58.5599 33.14V32.888C58.5599 30.638 59.6759 27.794 64.4099 27.794H65.2019C70.3139 27.794 71.2319 30.638 71.2319 33.428V33.752H62.1419C62.2859 34.904 63.0239 35.84 65.1659 35.84C67.1999 35.84 67.4519 35.048 67.5419 34.886ZM79.4497 30.08C77.6317 30.08 76.9477 30.818 76.7677 31.862H82.0597C82.0597 31.124 81.6997 30.08 79.4497 30.08ZM82.1317 34.886H85.7857C85.7857 35.714 85.1377 38.234 79.9717 38.234H79.3057C74.3737 38.234 73.1497 35.534 73.1497 33.14V32.888C73.1497 30.638 74.2657 27.794 78.9997 27.794H79.7917C84.9037 27.794 85.8217 30.638 85.8217 33.428V33.752H76.7317C76.8757 34.904 77.6137 35.84 79.7557 35.84C81.7897 35.84 82.0417 35.048 82.1317 34.886ZM96.4696 38H88.2256V28.01H96.1096C98.3956 28.01 99.8356 28.82 99.8356 30.404V30.494C99.8356 31.736 99.0436 32.474 97.8376 32.672C99.0616 32.816 100.16 33.68 100.16 35.12V35.192C100.16 37.01 98.9716 38 96.4696 38ZM91.7356 31.988H94.9576C95.8036 31.988 96.2356 31.664 96.2356 31.034V30.944C96.2356 30.368 95.8396 30.026 94.9576 30.026H91.7356V31.988ZM91.7356 35.984H95.1016C96.0376 35.984 96.5596 35.678 96.5596 34.976V34.832C96.5596 34.202 96.1276 33.806 95.1016 33.806H91.7356V35.984ZM106.114 38H102.604V28.01H106.114V31.646H111.01V28.01H114.52V38H111.01V34.31H106.114V38ZM122.156 36.002C124.208 36.002 124.91 34.706 124.91 33.95V33.176C124.604 33.302 123.722 33.482 122.714 33.644C121.022 33.932 120.482 34.166 120.482 34.868V34.904C120.482 35.534 120.932 36.002 122.156 36.002ZM125.018 36.614C124.586 37.136 123.506 38.198 121.166 38.198H120.878C118.088 38.198 116.936 36.686 116.936 35.03V34.958C116.936 33.23 118.034 32.168 121.418 31.88L124.154 31.646C124.712 31.592 124.91 31.412 124.91 30.998C124.91 30.53 124.766 30.026 122.822 30.026C120.986 30.026 120.806 30.746 120.806 31.124H117.206V31.088C117.206 30.098 117.602 27.776 122.516 27.776H123.074C128.024 27.776 128.33 29.81 128.33 31.142V34.436C128.33 35.066 128.456 35.318 129.158 35.318H129.536V38H126.692C125.648 38 125.162 37.262 125.018 36.614Z" fill="url(#paint0_linear_2016_556)"/>
<path d="M0.656 14V0.608H10.43C14.264 0.608 15.218 2.282 15.218 3.776V3.974C15.218 5.666 13.76 6.476 12.752 6.62C14.264 6.872 15.884 7.772 15.884 9.932V10.13C15.884 11.948 14.786 14 10.484 14H0.656ZM9.89 3.398H4.364V5.792H9.89C11.024 5.792 11.348 5.252 11.348 4.622V4.586C11.348 3.938 10.988 3.398 9.89 3.398ZM10.178 8.42H4.364V11.066H10.178C11.474 11.066 11.852 10.382 11.852 9.716V9.644C11.852 8.978 11.474 8.42 10.178 8.42ZM24.5462 14.27H23.9882C18.6062 14.27 17.7782 10.994 17.7782 9.176V8.924C17.7782 7.124 18.6062 3.74 23.9702 3.74H24.5642C30.1082 3.74 30.7562 7.142 30.7562 8.906V9.194C30.7562 10.994 30.1082 14.27 24.5462 14.27ZM24.1682 11.642H24.3662C26.5802 11.642 27.1382 10.058 27.1382 8.96C27.1382 7.826 26.5802 6.314 24.3662 6.314H24.1682C21.8642 6.314 21.3962 7.826 21.3962 8.96C21.3962 10.058 21.8642 11.642 24.1682 11.642ZM41.1851 14V6.674H37.2251C37.2251 9.356 37.1351 10.85 36.7931 11.768C36.4151 12.776 35.9111 14 33.2651 14H32.1671V11.39H32.3831C33.0131 11.39 33.4811 11.174 33.6791 10.256C33.8231 9.482 33.8771 8.636 33.8771 4.01H44.6951V14H41.1851ZM55.0365 14L51.1485 9.374V14H47.6385V4.01H51.1485V8.006L54.7125 4.01H58.7625L54.5865 8.492L59.2125 14H55.0365ZM66.47 14.27H65.912C60.53 14.27 59.702 10.994 59.702 9.176V8.924C59.702 7.124 60.53 3.74 65.894 3.74H66.488C72.032 3.74 72.68 7.142 72.68 8.906V9.194C72.68 10.994 72.032 14.27 66.47 14.27ZM66.092 11.642H66.29C68.504 11.642 69.062 10.058 69.062 8.96C69.062 7.826 68.504 6.314 66.29 6.314H66.092C63.788 6.314 63.32 7.826 63.32 8.96C63.32 10.058 63.788 11.642 66.092 11.642ZM83.3387 14H75.0947V4.01H82.9787C85.2647 4.01 86.7047 4.82 86.7047 6.404V6.494C86.7047 7.736 85.9127 8.474 84.7067 8.672C85.9307 8.816 87.0287 9.68 87.0287 11.12V11.192C87.0287 13.01 85.8407 14 83.3387 14ZM78.6047 7.988H81.8267C82.6727 7.988 83.1047 7.664 83.1047 7.034V6.944C83.1047 6.368 82.7087 6.026 81.8267 6.026H78.6047V7.988ZM78.6047 11.984H81.9707C82.9067 11.984 83.4287 11.678 83.4287 10.976V10.832C83.4287 10.202 82.9967 9.806 81.9707 9.806H78.6047V11.984ZM94.1017 12.002C96.1537 12.002 96.8557 10.706 96.8557 9.95V9.176C96.5497 9.302 95.6677 9.482 94.6597 9.644C92.9677 9.932 92.4277 10.166 92.4277 10.868V10.904C92.4277 11.534 92.8777 12.002 94.1017 12.002ZM96.9637 12.614C96.5317 13.136 95.4517 14.198 93.1117 14.198H92.8237C90.0337 14.198 88.8817 12.686 88.8817 11.03V10.958C88.8817 9.23 89.9797 8.168 93.3637 7.88L96.0997 7.646C96.6577 7.592 96.8557 7.412 96.8557 6.998C96.8557 6.53 96.7117 6.026 94.7677 6.026C92.9317 6.026 92.7517 6.746 92.7517 7.124H89.1517V7.088C89.1517 6.098 89.5477 3.776 94.4617 3.776H95.0197C99.9697 3.776 100.276 5.81 100.276 7.142V10.436C100.276 11.066 100.402 11.318 101.104 11.318H101.482V14H98.6377C97.5937 14 97.1077 13.262 96.9637 12.614ZM116.337 0.391999H117.129C123.393 0.391999 125.175 4.064 125.175 6.998V7.538C125.175 10.418 123.393 14.216 117.129 14.216H116.337C110.073 14.216 108.291 10.418 108.291 7.538V6.998C108.291 4.082 110.073 0.391999 116.337 0.391999ZM121.323 7.394V7.142C121.323 5.486 120.513 3.452 116.733 3.452C112.989 3.452 112.143 5.486 112.143 7.142V7.394C112.143 9.014 113.043 11.138 116.733 11.138C120.495 11.138 121.323 9.014 121.323 7.394ZM135.334 14V6.674H131.374C131.374 9.356 131.284 10.85 130.942 11.768C130.564 12.776 130.06 14 127.414 14H126.316V11.39H126.532C127.162 11.39 127.63 11.174 127.828 10.256C127.972 9.482 128.026 8.636 128.026 4.01H138.844V14H135.334ZM141.751 14V4.01H145.261V6.872H147.997C151.417 6.872 152.749 8.384 152.749 10.292V10.508C152.749 12.596 151.417 14 147.997 14H141.751ZM145.261 11.624H147.565C148.285 11.624 149.149 11.408 149.149 10.436V10.382C149.149 9.482 148.285 9.248 147.565 9.248H145.261V11.624ZM154.829 14V4.01H163.541V6.674H158.339V14H154.829ZM170.162 12.002C172.214 12.002 172.916 10.706 172.916 9.95V9.176C172.61 9.302 171.728 9.482 170.72 9.644C169.028 9.932 168.488 10.166 168.488 10.868V10.904C168.488 11.534 168.938 12.002 170.162 12.002ZM173.024 12.614C172.592 13.136 171.512 14.198 169.172 14.198H168.884C166.094 14.198 164.942 12.686 164.942 11.03V10.958C164.942 9.23 166.04 8.168 169.424 7.88L172.16 7.646C172.718 7.592 172.916 7.412 172.916 6.998C172.916 6.53 172.772 6.026 170.828 6.026C168.992 6.026 168.812 6.746 168.812 7.124H165.212V7.088C165.212 6.098 165.608 3.776 170.522 3.776H171.08C176.03 3.776 176.336 5.81 176.336 7.142V10.436C176.336 11.066 176.462 11.318 177.164 11.318H177.542V14H174.698C173.654 14 173.168 13.262 173.024 12.614ZM8.63 38.198H7.802C1.682 38.198 0.0620001 34.274 0.0620001 31.538V30.998C0.0620001 28.208 1.682 24.41 7.802 24.41H8.63C14.246 24.41 16.118 27.164 16.118 29.702V29.738H12.302C12.248 29.36 11.744 27.47 8.216 27.47C4.94 27.47 3.914 29.306 3.914 31.106V31.358C3.914 33.014 4.976 35.12 8.234 35.12C11.798 35.12 12.248 33.194 12.302 32.762H16.118V32.816C16.118 35.264 14.318 38.198 8.63 38.198ZM24.395 30.08C22.577 30.08 21.893 30.818 21.713 31.862H27.005C27.005 31.124 26.645 30.08 24.395 30.08ZM27.077 34.886H30.731C30.731 35.714 30.083 38.234 24.917 38.234H24.251C19.319 38.234 18.095 35.534 18.095 33.14V32.888C18.095 30.638 19.211 27.794 23.945 27.794H24.737C29.849 27.794 30.767 30.638 30.767 33.428V33.752H21.677C21.821 34.904 22.559 35.84 24.701 35.84C26.735 35.84 26.987 35.048 27.077 34.886ZM42.3509 33.014V32.96C42.3509 31.88 41.8469 30.422 39.6509 30.422H39.4709C37.3649 30.422 36.6989 31.808 36.6989 32.96V33.014C36.6989 34.112 37.3649 35.552 39.4709 35.552H39.6509C41.8469 35.552 42.3509 34.04 42.3509 33.014ZM33.2069 41.438V28.01H36.6809V29.288C37.1129 28.82 38.4269 27.812 40.6949 27.812H40.9289C44.7449 27.812 45.9869 30.422 45.9869 32.798V33.104C45.9869 35.282 44.7089 38.198 40.9109 38.198H40.6589C38.3729 38.198 37.1489 37.154 36.7169 36.722V41.438H33.2069ZM48.4287 38V28.01H57.1407V30.674H51.9387V38H48.4287ZM64.8599 30.08C63.0419 30.08 62.3579 30.818 62.1779 31.862H67.4699C67.4699 31.124 67.1099 30.08 64.8599 30.08ZM67.5419 34.886H71.1959C71.1959 35.714 70.5479 38.234 65.3819 38.234H64.7159C59.7839 38.234 58.5599 35.534 58.5599 33.14V32.888C58.5599 30.638 59.6759 27.794 64.4099 27.794H65.2019C70.3139 27.794 71.2319 30.638 71.2319 33.428V33.752H62.1419C62.2859 34.904 63.0239 35.84 65.1659 35.84C67.1999 35.84 67.4519 35.048 67.5419 34.886ZM79.4497 30.08C77.6317 30.08 76.9477 30.818 76.7677 31.862H82.0597C82.0597 31.124 81.6997 30.08 79.4497 30.08ZM82.1317 34.886H85.7857C85.7857 35.714 85.1377 38.234 79.9717 38.234H79.3057C74.3737 38.234 73.1497 35.534 73.1497 33.14V32.888C73.1497 30.638 74.2657 27.794 78.9997 27.794H79.7917C84.9037 27.794 85.8217 30.638 85.8217 33.428V33.752H76.7317C76.8757 34.904 77.6137 35.84 79.7557 35.84C81.7897 35.84 82.0417 35.048 82.1317 34.886ZM96.4696 38H88.2256V28.01H96.1096C98.3956 28.01 99.8356 28.82 99.8356 30.404V30.494C99.8356 31.736 99.0436 32.474 97.8376 32.672C99.0616 32.816 100.16 33.68 100.16 35.12V35.192C100.16 37.01 98.9716 38 96.4696 38ZM91.7356 31.988H94.9576C95.8036 31.988 96.2356 31.664 96.2356 31.034V30.944C96.2356 30.368 95.8396 30.026 94.9576 30.026H91.7356V31.988ZM91.7356 35.984H95.1016C96.0376 35.984 96.5596 35.678 96.5596 34.976V34.832C96.5596 34.202 96.1276 33.806 95.1016 33.806H91.7356V35.984ZM106.114 38H102.604V28.01H106.114V31.646H111.01V28.01H114.52V38H111.01V34.31H106.114V38ZM122.156 36.002C124.208 36.002 124.91 34.706 124.91 33.95V33.176C124.604 33.302 123.722 33.482 122.714 33.644C121.022 33.932 120.482 34.166 120.482 34.868V34.904C120.482 35.534 120.932 36.002 122.156 36.002ZM125.018 36.614C124.586 37.136 123.506 38.198 121.166 38.198H120.878C118.088 38.198 116.936 36.686 116.936 35.03V34.958C116.936 33.23 118.034 32.168 121.418 31.88L124.154 31.646C124.712 31.592 124.91 31.412 124.91 30.998C124.91 30.53 124.766 30.026 122.822 30.026C120.986 30.026 120.806 30.746 120.806 31.124H117.206V31.088C117.206 30.098 117.602 27.776 122.516 27.776H123.074C128.024 27.776 128.33 29.81 128.33 31.142V34.436C128.33 35.066 128.456 35.318 129.158 35.318H129.536V38H126.692C125.648 38 125.162 37.262 125.018 36.614Z" fill="url(#paint1_radial_2016_556)" style="mix-blend-mode:overlay"/>
<path d="M0.656 14V0.608H10.43C14.264 0.608 15.218 2.282 15.218 3.776V3.974C15.218 5.666 13.76 6.476 12.752 6.62C14.264 6.872 15.884 7.772 15.884 9.932V10.13C15.884 11.948 14.786 14 10.484 14H0.656ZM9.89 3.398H4.364V5.792H9.89C11.024 5.792 11.348 5.252 11.348 4.622V4.586C11.348 3.938 10.988 3.398 9.89 3.398ZM10.178 8.42H4.364V11.066H10.178C11.474 11.066 11.852 10.382 11.852 9.716V9.644C11.852 8.978 11.474 8.42 10.178 8.42ZM24.5462 14.27H23.9882C18.6062 14.27 17.7782 10.994 17.7782 9.176V8.924C17.7782 7.124 18.6062 3.74 23.9702 3.74H24.5642C30.1082 3.74 30.7562 7.142 30.7562 8.906V9.194C30.7562 10.994 30.1082 14.27 24.5462 14.27ZM24.1682 11.642H24.3662C26.5802 11.642 27.1382 10.058 27.1382 8.96C27.1382 7.826 26.5802 6.314 24.3662 6.314H24.1682C21.8642 6.314 21.3962 7.826 21.3962 8.96C21.3962 10.058 21.8642 11.642 24.1682 11.642ZM41.1851 14V6.674H37.2251C37.2251 9.356 37.1351 10.85 36.7931 11.768C36.4151 12.776 35.9111 14 33.2651 14H32.1671V11.39H32.3831C33.0131 11.39 33.4811 11.174 33.6791 10.256C33.8231 9.482 33.8771 8.636 33.8771 4.01H44.6951V14H41.1851ZM55.0365 14L51.1485 9.374V14H47.6385V4.01H51.1485V8.006L54.7125 4.01H58.7625L54.5865 8.492L59.2125 14H55.0365ZM66.47 14.27H65.912C60.53 14.27 59.702 10.994 59.702 9.176V8.924C59.702 7.124 60.53 3.74 65.894 3.74H66.488C72.032 3.74 72.68 7.142 72.68 8.906V9.194C72.68 10.994 72.032 14.27 66.47 14.27ZM66.092 11.642H66.29C68.504 11.642 69.062 10.058 69.062 8.96C69.062 7.826 68.504 6.314 66.29 6.314H66.092C63.788 6.314 63.32 7.826 63.32 8.96C63.32 10.058 63.788 11.642 66.092 11.642ZM83.3387 14H75.0947V4.01H82.9787C85.2647 4.01 86.7047 4.82 86.7047 6.404V6.494C86.7047 7.736 85.9127 8.474 84.7067 8.672C85.9307 8.816 87.0287 9.68 87.0287 11.12V11.192C87.0287 13.01 85.8407 14 83.3387 14ZM78.6047 7.988H81.8267C82.6727 7.988 83.1047 7.664 83.1047 7.034V6.944C83.1047 6.368 82.7087 6.026 81.8267 6.026H78.6047V7.988ZM78.6047 11.984H81.9707C82.9067 11.984 83.4287 11.678 83.4287 10.976V10.832C83.4287 10.202 82.9967 9.806 81.9707 9.806H78.6047V11.984ZM94.1017 12.002C96.1537 12.002 96.8557 10.706 96.8557 9.95V9.176C96.5497 9.302 95.6677 9.482 94.6597 9.644C92.9677 9.932 92.4277 10.166 92.4277 10.868V10.904C92.4277 11.534 92.8777 12.002 94.1017 12.002ZM96.9637 12.614C96.5317 13.136 95.4517 14.198 93.1117 14.198H92.8237C90.0337 14.198 88.8817 12.686 88.8817 11.03V10.958C88.8817 9.23 89.9797 8.168 93.3637 7.88L96.0997 7.646C96.6577 7.592 96.8557 7.412 96.8557 6.998C96.8557 6.53 96.7117 6.026 94.7677 6.026C92.9317 6.026 92.7517 6.746 92.7517 7.124H89.1517V7.088C89.1517 6.098 89.5477 3.776 94.4617 3.776H95.0197C99.9697 3.776 100.276 5.81 100.276 7.142V10.436C100.276 11.066 100.402 11.318 101.104 11.318H101.482V14H98.6377C97.5937 14 97.1077 13.262 96.9637 12.614ZM116.337 0.391999H117.129C123.393 0.391999 125.175 4.064 125.175 6.998V7.538C125.175 10.418 123.393 14.216 117.129 14.216H116.337C110.073 14.216 108.291 10.418 108.291 7.538V6.998C108.291 4.082 110.073 0.391999 116.337 0.391999ZM121.323 7.394V7.142C121.323 5.486 120.513 3.452 116.733 3.452C112.989 3.452 112.143 5.486 112.143 7.142V7.394C112.143 9.014 113.043 11.138 116.733 11.138C120.495 11.138 121.323 9.014 121.323 7.394ZM135.334 14V6.674H131.374C131.374 9.356 131.284 10.85 130.942 11.768C130.564 12.776 130.06 14 127.414 14H126.316V11.39H126.532C127.162 11.39 127.63 11.174 127.828 10.256C127.972 9.482 128.026 8.636 128.026 4.01H138.844V14H135.334ZM141.751 14V4.01H145.261V6.872H147.997C151.417 6.872 152.749 8.384 152.749 10.292V10.508C152.749 12.596 151.417 14 147.997 14H141.751ZM145.261 11.624H147.565C148.285 11.624 149.149 11.408 149.149 10.436V10.382C149.149 9.482 148.285 9.248 147.565 9.248H145.261V11.624ZM154.829 14V4.01H163.541V6.674H158.339V14H154.829ZM170.162 12.002C172.214 12.002 172.916 10.706 172.916 9.95V9.176C172.61 9.302 171.728 9.482 170.72 9.644C169.028 9.932 168.488 10.166 168.488 10.868V10.904C168.488 11.534 168.938 12.002 170.162 12.002ZM173.024 12.614C172.592 13.136 171.512 14.198 169.172 14.198H168.884C166.094 14.198 164.942 12.686 164.942 11.03V10.958C164.942 9.23 166.04 8.168 169.424 7.88L172.16 7.646C172.718 7.592 172.916 7.412 172.916 6.998C172.916 6.53 172.772 6.026 170.828 6.026C168.992 6.026 168.812 6.746 168.812 7.124H165.212V7.088C165.212 6.098 165.608 3.776 170.522 3.776H171.08C176.03 3.776 176.336 5.81 176.336 7.142V10.436C176.336 11.066 176.462 11.318 177.164 11.318H177.542V14H174.698C173.654 14 173.168 13.262 173.024 12.614ZM8.63 38.198H7.802C1.682 38.198 0.0620001 34.274 0.0620001 31.538V30.998C0.0620001 28.208 1.682 24.41 7.802 24.41H8.63C14.246 24.41 16.118 27.164 16.118 29.702V29.738H12.302C12.248 29.36 11.744 27.47 8.216 27.47C4.94 27.47 3.914 29.306 3.914 31.106V31.358C3.914 33.014 4.976 35.12 8.234 35.12C11.798 35.12 12.248 33.194 12.302 32.762H16.118V32.816C16.118 35.264 14.318 38.198 8.63 38.198ZM24.395 30.08C22.577 30.08 21.893 30.818 21.713 31.862H27.005C27.005 31.124 26.645 30.08 24.395 30.08ZM27.077 34.886H30.731C30.731 35.714 30.083 38.234 24.917 38.234H24.251C19.319 38.234 18.095 35.534 18.095 33.14V32.888C18.095 30.638 19.211 27.794 23.945 27.794H24.737C29.849 27.794 30.767 30.638 30.767 33.428V33.752H21.677C21.821 34.904 22.559 35.84 24.701 35.84C26.735 35.84 26.987 35.048 27.077 34.886ZM42.3509 33.014V32.96C42.3509 31.88 41.8469 30.422 39.6509 30.422H39.4709C37.3649 30.422 36.6989 31.808 36.6989 32.96V33.014C36.6989 34.112 37.3649 35.552 39.4709 35.552H39.6509C41.8469 35.552 42.3509 34.04 42.3509 33.014ZM33.2069 41.438V28.01H36.6809V29.288C37.1129 28.82 38.4269 27.812 40.6949 27.812H40.9289C44.7449 27.812 45.9869 30.422 45.9869 32.798V33.104C45.9869 35.282 44.7089 38.198 40.9109 38.198H40.6589C38.3729 38.198 37.1489 37.154 36.7169 36.722V41.438H33.2069ZM48.4287 38V28.01H57.1407V30.674H51.9387V38H48.4287ZM64.8599 30.08C63.0419 30.08 62.3579 30.818 62.1779 31.862H67.4699C67.4699 31.124 67.1099 30.08 64.8599 30.08ZM67.5419 34.886H71.1959C71.1959 35.714 70.5479 38.234 65.3819 38.234H64.7159C59.7839 38.234 58.5599 35.534 58.5599 33.14V32.888C58.5599 30.638 59.6759 27.794 64.4099 27.794H65.2019C70.3139 27.794 71.2319 30.638 71.2319 33.428V33.752H62.1419C62.2859 34.904 63.0239 35.84 65.1659 35.84C67.1999 35.84 67.4519 35.048 67.5419 34.886ZM79.4497 30.08C77.6317 30.08 76.9477 30.818 76.7677 31.862H82.0597C82.0597 31.124 81.6997 30.08 79.4497 30.08ZM82.1317 34.886H85.7857C85.7857 35.714 85.1377 38.234 79.9717 38.234H79.3057C74.3737 38.234 73.1497 35.534 73.1497 33.14V32.888C73.1497 30.638 74.2657 27.794 78.9997 27.794H79.7917C84.9037 27.794 85.8217 30.638 85.8217 33.428V33.752H76.7317C76.8757 34.904 77.6137 35.84 79.7557 35.84C81.7897 35.84 82.0417 35.048 82.1317 34.886ZM96.4696 38H88.2256V28.01H96.1096C98.3956 28.01 99.8356 28.82 99.8356 30.404V30.494C99.8356 31.736 99.0436 32.474 97.8376 32.672C99.0616 32.816 100.16 33.68 100.16 35.12V35.192C100.16 37.01 98.9716 38 96.4696 38ZM91.7356 31.988H94.9576C95.8036 31.988 96.2356 31.664 96.2356 31.034V30.944C96.2356 30.368 95.8396 30.026 94.9576 30.026H91.7356V31.988ZM91.7356 35.984H95.1016C96.0376 35.984 96.5596 35.678 96.5596 34.976V34.832C96.5596 34.202 96.1276 33.806 95.1016 33.806H91.7356V35.984ZM106.114 38H102.604V28.01H106.114V31.646H111.01V28.01H114.52V38H111.01V34.31H106.114V38ZM122.156 36.002C124.208 36.002 124.91 34.706 124.91 33.95V33.176C124.604 33.302 123.722 33.482 122.714 33.644C121.022 33.932 120.482 34.166 120.482 34.868V34.904C120.482 35.534 120.932 36.002 122.156 36.002ZM125.018 36.614C124.586 37.136 123.506 38.198 121.166 38.198H120.878C118.088 38.198 116.936 36.686 116.936 35.03V34.958C116.936 33.23 118.034 32.168 121.418 31.88L124.154 31.646C124.712 31.592 124.91 31.412 124.91 30.998C124.91 30.53 124.766 30.026 122.822 30.026C120.986 30.026 120.806 30.746 120.806 31.124H117.206V31.088C117.206 30.098 117.602 27.776 122.516 27.776H123.074C128.024 27.776 128.33 29.81 128.33 31.142V34.436C128.33 35.066 128.456 35.318 129.158 35.318H129.536V38H126.692C125.648 38 125.162 37.262 125.018 36.614Z" fill="url(#paint2_radial_2016_556)"/>
<path d="M0.656 14V0.608H10.43C14.264 0.608 15.218 2.282 15.218 3.776V3.974C15.218 5.666 13.76 6.476 12.752 6.62C14.264 6.872 15.884 7.772 15.884 9.932V10.13C15.884 11.948 14.786 14 10.484 14H0.656ZM9.89 3.398H4.364V5.792H9.89C11.024 5.792 11.348 5.252 11.348 4.622V4.586C11.348 3.938 10.988 3.398 9.89 3.398ZM10.178 8.42H4.364V11.066H10.178C11.474 11.066 11.852 10.382 11.852 9.716V9.644C11.852 8.978 11.474 8.42 10.178 8.42ZM24.5462 14.27H23.9882C18.6062 14.27 17.7782 10.994 17.7782 9.176V8.924C17.7782 7.124 18.6062 3.74 23.9702 3.74H24.5642C30.1082 3.74 30.7562 7.142 30.7562 8.906V9.194C30.7562 10.994 30.1082 14.27 24.5462 14.27ZM24.1682 11.642H24.3662C26.5802 11.642 27.1382 10.058 27.1382 8.96C27.1382 7.826 26.5802 6.314 24.3662 6.314H24.1682C21.8642 6.314 21.3962 7.826 21.3962 8.96C21.3962 10.058 21.8642 11.642 24.1682 11.642ZM41.1851 14V6.674H37.2251C37.2251 9.356 37.1351 10.85 36.7931 11.768C36.4151 12.776 35.9111 14 33.2651 14H32.1671V11.39H32.3831C33.0131 11.39 33.4811 11.174 33.6791 10.256C33.8231 9.482 33.8771 8.636 33.8771 4.01H44.6951V14H41.1851ZM55.0365 14L51.1485 9.374V14H47.6385V4.01H51.1485V8.006L54.7125 4.01H58.7625L54.5865 8.492L59.2125 14H55.0365ZM66.47 14.27H65.912C60.53 14.27 59.702 10.994 59.702 9.176V8.924C59.702 7.124 60.53 3.74 65.894 3.74H66.488C72.032 3.74 72.68 7.142 72.68 8.906V9.194C72.68 10.994 72.032 14.27 66.47 14.27ZM66.092 11.642H66.29C68.504 11.642 69.062 10.058 69.062 8.96C69.062 7.826 68.504 6.314 66.29 6.314H66.092C63.788 6.314 63.32 7.826 63.32 8.96C63.32 10.058 63.788 11.642 66.092 11.642ZM83.3387 14H75.0947V4.01H82.9787C85.2647 4.01 86.7047 4.82 86.7047 6.404V6.494C86.7047 7.736 85.9127 8.474 84.7067 8.672C85.9307 8.816 87.0287 9.68 87.0287 11.12V11.192C87.0287 13.01 85.8407 14 83.3387 14ZM78.6047 7.988H81.8267C82.6727 7.988 83.1047 7.664 83.1047 7.034V6.944C83.1047 6.368 82.7087 6.026 81.8267 6.026H78.6047V7.988ZM78.6047 11.984H81.9707C82.9067 11.984 83.4287 11.678 83.4287 10.976V10.832C83.4287 10.202 82.9967 9.806 81.9707 9.806H78.6047V11.984ZM94.1017 12.002C96.1537 12.002 96.8557 10.706 96.8557 9.95V9.176C96.5497 9.302 95.6677 9.482 94.6597 9.644C92.9677 9.932 92.4277 10.166 92.4277 10.868V10.904C92.4277 11.534 92.8777 12.002 94.1017 12.002ZM96.9637 12.614C96.5317 13.136 95.4517 14.198 93.1117 14.198H92.8237C90.0337 14.198 88.8817 12.686 88.8817 11.03V10.958C88.8817 9.23 89.9797 8.168 93.3637 7.88L96.0997 7.646C96.6577 7.592 96.8557 7.412 96.8557 6.998C96.8557 6.53 96.7117 6.026 94.7677 6.026C92.9317 6.026 92.7517 6.746 92.7517 7.124H89.1517V7.088C89.1517 6.098 89.5477 3.776 94.4617 3.776H95.0197C99.9697 3.776 100.276 5.81 100.276 7.142V10.436C100.276 11.066 100.402 11.318 101.104 11.318H101.482V14H98.6377C97.5937 14 97.1077 13.262 96.9637 12.614ZM116.337 0.391999H117.129C123.393 0.391999 125.175 4.064 125.175 6.998V7.538C125.175 10.418 123.393 14.216 117.129 14.216H116.337C110.073 14.216 108.291 10.418 108.291 7.538V6.998C108.291 4.082 110.073 0.391999 116.337 0.391999ZM121.323 7.394V7.142C121.323 5.486 120.513 3.452 116.733 3.452C112.989 3.452 112.143 5.486 112.143 7.142V7.394C112.143 9.014 113.043 11.138 116.733 11.138C120.495 11.138 121.323 9.014 121.323 7.394ZM135.334 14V6.674H131.374C131.374 9.356 131.284 10.85 130.942 11.768C130.564 12.776 130.06 14 127.414 14H126.316V11.39H126.532C127.162 11.39 127.63 11.174 127.828 10.256C127.972 9.482 128.026 8.636 128.026 4.01H138.844V14H135.334ZM141.751 14V4.01H145.261V6.872H147.997C151.417 6.872 152.749 8.384 152.749 10.292V10.508C152.749 12.596 151.417 14 147.997 14H141.751ZM145.261 11.624H147.565C148.285 11.624 149.149 11.408 149.149 10.436V10.382C149.149 9.482 148.285 9.248 147.565 9.248H145.261V11.624ZM154.829 14V4.01H163.541V6.674H158.339V14H154.829ZM170.162 12.002C172.214 12.002 172.916 10.706 172.916 9.95V9.176C172.61 9.302 171.728 9.482 170.72 9.644C169.028 9.932 168.488 10.166 168.488 10.868V10.904C168.488 11.534 168.938 12.002 170.162 12.002ZM173.024 12.614C172.592 13.136 171.512 14.198 169.172 14.198H168.884C166.094 14.198 164.942 12.686 164.942 11.03V10.958C164.942 9.23 166.04 8.168 169.424 7.88L172.16 7.646C172.718 7.592 172.916 7.412 172.916 6.998C172.916 6.53 172.772 6.026 170.828 6.026C168.992 6.026 168.812 6.746 168.812 7.124H165.212V7.088C165.212 6.098 165.608 3.776 170.522 3.776H171.08C176.03 3.776 176.336 5.81 176.336 7.142V10.436C176.336 11.066 176.462 11.318 177.164 11.318H177.542V14H174.698C173.654 14 173.168 13.262 173.024 12.614ZM8.63 38.198H7.802C1.682 38.198 0.0620001 34.274 0.0620001 31.538V30.998C0.0620001 28.208 1.682 24.41 7.802 24.41H8.63C14.246 24.41 16.118 27.164 16.118 29.702V29.738H12.302C12.248 29.36 11.744 27.47 8.216 27.47C4.94 27.47 3.914 29.306 3.914 31.106V31.358C3.914 33.014 4.976 35.12 8.234 35.12C11.798 35.12 12.248 33.194 12.302 32.762H16.118V32.816C16.118 35.264 14.318 38.198 8.63 38.198ZM24.395 30.08C22.577 30.08 21.893 30.818 21.713 31.862H27.005C27.005 31.124 26.645 30.08 24.395 30.08ZM27.077 34.886H30.731C30.731 35.714 30.083 38.234 24.917 38.234H24.251C19.319 38.234 18.095 35.534 18.095 33.14V32.888C18.095 30.638 19.211 27.794 23.945 27.794H24.737C29.849 27.794 30.767 30.638 30.767 33.428V33.752H21.677C21.821 34.904 22.559 35.84 24.701 35.84C26.735 35.84 26.987 35.048 27.077 34.886ZM42.3509 33.014V32.96C42.3509 31.88 41.8469 30.422 39.6509 30.422H39.4709C37.3649 30.422 36.6989 31.808 36.6989 32.96V33.014C36.6989 34.112 37.3649 35.552 39.4709 35.552H39.6509C41.8469 35.552 42.3509 34.04 42.3509 33.014ZM33.2069 41.438V28.01H36.6809V29.288C37.1129 28.82 38.4269 27.812 40.6949 27.812H40.9289C44.7449 27.812 45.9869 30.422 45.9869 32.798V33.104C45.9869 35.282 44.7089 38.198 40.9109 38.198H40.6589C38.3729 38.198 37.1489 37.154 36.7169 36.722V41.438H33.2069ZM48.4287 38V28.01H57.1407V30.674H51.9387V38H48.4287ZM64.8599 30.08C63.0419 30.08 62.3579 30.818 62.1779 31.862H67.4699C67.4699 31.124 67.1099 30.08 64.8599 30.08ZM67.5419 34.886H71.1959C71.1959 35.714 70.5479 38.234 65.3819 38.234H64.7159C59.7839 38.234 58.5599 35.534 58.5599 33.14V32.888C58.5599 30.638 59.6759 27.794 64.4099 27.794H65.2019C70.3139 27.794 71.2319 30.638 71.2319 33.428V33.752H62.1419C62.2859 34.904 63.0239 35.84 65.1659 35.84C67.1999 35.84 67.4519 35.048 67.5419 34.886ZM79.4497 30.08C77.6317 30.08 76.9477 30.818 76.7677 31.862H82.0597C82.0597 31.124 81.6997 30.08 79.4497 30.08ZM82.1317 34.886H85.7857C85.7857 35.714 85.1377 38.234 79.9717 38.234H79.3057C74.3737 38.234 73.1497 35.534 73.1497 33.14V32.888C73.1497 30.638 74.2657 27.794 78.9997 27.794H79.7917C84.9037 27.794 85.8217 30.638 85.8217 33.428V33.752H76.7317C76.8757 34.904 77.6137 35.84 79.7557 35.84C81.7897 35.84 82.0417 35.048 82.1317 34.886ZM96.4696 38H88.2256V28.01H96.1096C98.3956 28.01 99.8356 28.82 99.8356 30.404V30.494C99.8356 31.736 99.0436 32.474 97.8376 32.672C99.0616 32.816 100.16 33.68 100.16 35.12V35.192C100.16 37.01 98.9716 38 96.4696 38ZM91.7356 31.988H94.9576C95.8036 31.988 96.2356 31.664 96.2356 31.034V30.944C96.2356 30.368 95.8396 30.026 94.9576 30.026H91.7356V31.988ZM91.7356 35.984H95.1016C96.0376 35.984 96.5596 35.678 96.5596 34.976V34.832C96.5596 34.202 96.1276 33.806 95.1016 33.806H91.7356V35.984ZM106.114 38H102.604V28.01H106.114V31.646H111.01V28.01H114.52V38H111.01V34.31H106.114V38ZM122.156 36.002C124.208 36.002 124.91 34.706 124.91 33.95V33.176C124.604 33.302 123.722 33.482 122.714 33.644C121.022 33.932 120.482 34.166 120.482 34.868V34.904C120.482 35.534 120.932 36.002 122.156 36.002ZM125.018 36.614C124.586 37.136 123.506 38.198 121.166 38.198H120.878C118.088 38.198 116.936 36.686 116.936 35.03V34.958C116.936 33.23 118.034 32.168 121.418 31.88L124.154 31.646C124.712 31.592 124.91 31.412 124.91 30.998C124.91 30.53 124.766 30.026 122.822 30.026C120.986 30.026 120.806 30.746 120.806 31.124H117.206V31.088C117.206 30.098 117.602 27.776 122.516 27.776H123.074C128.024 27.776 128.33 29.81 128.33 31.142V34.436C128.33 35.066 128.456 35.318 129.158 35.318H129.536V38H126.692C125.648 38 125.162 37.262 125.018 36.614Z" fill="#C1A875" style="mix-blend-mode:color"/>
<defs>
<linearGradient id="paint0_linear_2016_556" x1="-0.999999" y1="30" x2="221" y2="30" gradientUnits="userSpaceOnUse">
<stop stop-color="#576167"/>
<stop offset="0.191294" stop-color="#9EA1A2"/>
<stop offset="0.396166" stop-color="#848989"/>
<stop offset="0.62055" stop-color="#576167"/>
<stop offset="0.830299" stop-color="#757A7C"/>
<stop offset="1" stop-color="#576167"/>
</linearGradient>
<radialGradient id="paint1_radial_2016_556" cx="0" cy="0" r="1" gradientUnits="userSpaceOnUse" gradientTransform="translate(117.226 2.39326) rotate(90) scale(53.4944 167.95)">
<stop stop-color="white"/>
<stop offset="1" stop-color="white" stop-opacity="0"/>
</radialGradient>
<radialGradient id="paint2_radial_2016_556" cx="0" cy="0" r="1" gradientUnits="userSpaceOnUse" gradientTransform="translate(129.783 82.9888) rotate(-89.7344) scale(76.6525 240.162)">
<stop stop-color="white"/>
<stop offset="1" stop-color="white" stop-opacity="0"/>
</radialGradient>
</defs>
</svg>
