<svg width="136" height="63" viewBox="0 0 136 63" fill="none" xmlns="http://www.w3.org/2000/svg">
<path d="M0.656 14V0.608H5.588L9.854 9.68L14.246 0.608H18.872V14H15.254V5.234L11.186 14H8.288L4.22 5.234V14H0.656ZM30.4152 7.952L25.5912 14H21.9912V4.01H25.5012V10.058L30.3252 4.01H33.9252V14H30.4152V7.952ZM44.8367 14L42.1547 11.138L39.5447 14H35.5667L40.0487 8.996L35.4227 4.01H39.7247L42.2807 6.8L44.7467 4.01H48.6167L44.3147 8.924L48.8867 14H44.8367ZM55.008 12.002C57.06 12.002 57.762 10.706 57.762 9.95V9.176C57.456 9.302 56.574 9.482 55.566 9.644C53.874 9.932 53.334 10.166 53.334 10.868V10.904C53.334 11.534 53.784 12.002 55.008 12.002ZM57.87 12.614C57.438 13.136 56.358 14.198 54.018 14.198H53.73C50.94 14.198 49.788 12.686 49.788 11.03V10.958C49.788 9.23 50.886 8.168 54.27 7.88L57.006 7.646C57.564 7.592 57.762 7.412 57.762 6.998C57.762 6.53 57.618 6.026 55.674 6.026C53.838 6.026 53.658 6.746 53.658 7.124H50.058V7.088C50.058 6.098 50.454 3.776 55.368 3.776H55.926C60.876 3.776 61.182 5.81 61.182 7.142V10.436C61.182 11.066 61.308 11.318 62.01 11.318H62.388V14H59.544C58.5 14 58.014 13.262 57.87 12.614ZM72.8136 7.952L67.9896 14H64.3896V4.01H67.8996V10.058L72.7236 4.01H76.3236V14H72.8136V7.952ZM70.5816 2.984H70.0416C67.1796 2.984 66.6756 1.04 66.6756 0.104V0.0499994H69.3216C69.3216 0.284 69.4296 1.004 70.3296 1.004C71.1756 1.004 71.3016 0.284 71.3016 0.0499994H73.9116V0.104C73.9116 1.04 73.1916 2.984 70.5816 2.984ZM87.4332 14V6.674H83.4732C83.4732 9.356 83.3832 10.85 83.0412 11.768C82.6632 12.776 82.1592 14 79.5132 14H78.4152V11.39H78.6312C79.2612 11.39 79.7292 11.174 79.9272 10.256C80.0712 9.482 80.1252 8.636 80.1252 4.01H90.9432V14H87.4332ZM100.115 14.27H99.5566C94.1746 14.27 93.3466 10.994 93.3466 9.176V8.924C93.3466 7.124 94.1746 3.74 99.5386 3.74H100.133C105.677 3.74 106.325 7.142 106.325 8.906V9.194C106.325 10.994 105.677 14.27 100.115 14.27ZM99.7366 11.642H99.9346C102.149 11.642 102.707 10.058 102.707 8.96C102.707 7.826 102.149 6.314 99.9346 6.314H99.7366C97.4326 6.314 96.9646 7.826 96.9646 8.96C96.9646 10.058 97.4326 11.642 99.7366 11.642ZM116.983 14H108.739V4.01H116.623C118.909 4.01 120.349 4.82 120.349 6.404V6.494C120.349 7.736 119.557 8.474 118.351 8.672C119.575 8.816 120.673 9.68 120.673 11.12V11.192C120.673 13.01 119.485 14 116.983 14ZM112.249 7.988H115.471C116.317 7.988 116.749 7.664 116.749 7.034V6.944C116.749 6.368 116.353 6.026 115.471 6.026H112.249V7.988ZM112.249 11.984H115.615C116.551 11.984 117.073 11.678 117.073 10.976V10.832C117.073 10.202 116.641 9.806 115.615 9.806H112.249V11.984ZM127.746 12.002C129.798 12.002 130.5 10.706 130.5 9.95V9.176C130.194 9.302 129.312 9.482 128.304 9.644C126.612 9.932 126.072 10.166 126.072 10.868V10.904C126.072 11.534 126.522 12.002 127.746 12.002ZM130.608 12.614C130.176 13.136 129.096 14.198 126.756 14.198H126.468C123.678 14.198 122.526 12.686 122.526 11.03V10.958C122.526 9.23 123.624 8.168 127.008 7.88L129.744 7.646C130.302 7.592 130.5 7.412 130.5 6.998C130.5 6.53 130.356 6.026 128.412 6.026C126.576 6.026 126.396 6.746 126.396 7.124H122.796V7.088C122.796 6.098 123.192 3.776 128.106 3.776H128.664C133.614 3.776 133.92 5.81 133.92 7.142V10.436C133.92 11.066 134.046 11.318 134.748 11.318H135.126V14H132.282C131.238 14 130.752 13.262 130.608 12.614ZM11.834 38V32.618H4.364V38H0.656V24.608H4.364V29.576H11.834V24.608H15.542V38H11.834ZM23.3674 36.002C25.4194 36.002 26.1214 34.706 26.1214 33.95V33.176C25.8154 33.302 24.9334 33.482 23.9254 33.644C22.2334 33.932 21.6934 34.166 21.6934 34.868V34.904C21.6934 35.534 22.1434 36.002 23.3674 36.002ZM26.2294 36.614C25.7974 37.136 24.7174 38.198 22.3774 38.198H22.0894C19.2994 38.198 18.1474 36.686 18.1474 35.03V34.958C18.1474 33.23 19.2454 32.168 22.6294 31.88L25.3654 31.646C25.9234 31.592 26.1214 31.412 26.1214 30.998C26.1214 30.53 25.9774 30.026 24.0334 30.026C22.1974 30.026 22.0174 30.746 22.0174 31.124H18.4174V31.088C18.4174 30.098 18.8134 27.776 23.7274 27.776H24.2854C29.2354 27.776 29.5414 29.81 29.5414 31.142V34.436C29.5414 35.066 29.6674 35.318 30.3694 35.318H30.7474V38H27.9034C26.8594 38 26.3734 37.262 26.2294 36.614ZM35.4352 38V30.674H31.5652V28.01H42.8152V30.674H38.9452V38H35.4352ZM49.4357 36.002C51.4877 36.002 52.1897 34.706 52.1897 33.95V33.176C51.8837 33.302 51.0017 33.482 49.9937 33.644C48.3017 33.932 47.7617 34.166 47.7617 34.868V34.904C47.7617 35.534 48.2117 36.002 49.4357 36.002ZM52.2977 36.614C51.8657 37.136 50.7857 38.198 48.4457 38.198H48.1577C45.3677 38.198 44.2157 36.686 44.2157 35.03V34.958C44.2157 33.23 45.3137 32.168 48.6977 31.88L51.4337 31.646C51.9917 31.592 52.1897 31.412 52.1897 30.998C52.1897 30.53 52.0457 30.026 50.1017 30.026C48.2657 30.026 48.0857 30.746 48.0857 31.124H44.4857V31.088C44.4857 30.098 44.8817 27.776 49.7957 27.776H50.3537C55.3037 27.776 55.6097 29.81 55.6097 31.142V34.436C55.6097 35.066 55.7357 35.318 56.4377 35.318H56.8157V38H53.9717C52.9277 38 52.4417 37.262 52.2977 36.614ZM67.0953 38V30.674H63.1353C63.1353 33.356 63.0453 34.85 62.7033 35.768C62.3253 36.776 61.8213 38 59.1753 38H58.0773V35.39H58.2933C58.9233 35.39 59.3913 35.174 59.5893 34.256C59.7333 33.482 59.7873 32.636 59.7873 28.01H70.6053V38H67.0953ZM73.5127 38V28.01H77.0227V30.872H79.7587C83.1787 30.872 84.5107 32.384 84.5107 34.292V34.508C84.5107 36.596 83.1787 38 79.7587 38H73.5127ZM77.0227 35.624H79.3267C80.0467 35.624 80.9107 35.408 80.9107 34.436V34.382C80.9107 33.482 80.0467 33.248 79.3267 33.248H77.0227V35.624ZM94.9968 34.652H92.6388L89.7228 38H85.7628L89.0208 34.274C87.2928 33.932 86.3028 32.942 86.3028 31.43V31.214C86.3028 29.396 87.7788 28.01 90.2808 28.01H98.5068V38H94.9968V34.652ZM94.9968 30.314H91.2348C90.4608 30.314 89.8128 30.494 89.8128 31.286V31.358C89.8128 32.132 90.4788 32.366 91.2528 32.366H94.9968V30.314ZM12.194 62V53L4.364 62H0.656V48.608H4.364V57.608L12.194 48.608H15.902V62H12.194ZM27.2645 62H19.0205V52.01H26.9045C29.1905 52.01 30.6305 52.82 30.6305 54.404V54.494C30.6305 55.736 29.8385 56.474 28.6325 56.672C29.8565 56.816 30.9545 57.68 30.9545 59.12V59.192C30.9545 61.01 29.7665 62 27.2645 62ZM22.5305 55.988H25.7525C26.5985 55.988 27.0305 55.664 27.0305 55.034V54.944C27.0305 54.368 26.6345 54.026 25.7525 54.026H22.5305V55.988ZM22.5305 59.984H25.8965C26.8325 59.984 27.3545 59.678 27.3545 58.976V58.832C27.3545 58.202 26.9225 57.806 25.8965 57.806H22.5305V59.984ZM38.0275 60.002C40.0795 60.002 40.7815 58.706 40.7815 57.95V57.176C40.4755 57.302 39.5935 57.482 38.5855 57.644C36.8935 57.932 36.3535 58.166 36.3535 58.868V58.904C36.3535 59.534 36.8035 60.002 38.0275 60.002ZM40.8895 60.614C40.4575 61.136 39.3775 62.198 37.0375 62.198H36.7495C33.9595 62.198 32.8075 60.686 32.8075 59.03V58.958C32.8075 57.23 33.9055 56.168 37.2895 55.88L40.0255 55.646C40.5835 55.592 40.7815 55.412 40.7815 54.998C40.7815 54.53 40.6375 54.026 38.6935 54.026C36.8575 54.026 36.6775 54.746 36.6775 55.124H33.0775V55.088C33.0775 54.098 33.4735 51.776 38.3875 51.776H38.9455C43.8955 51.776 44.2015 53.81 44.2015 55.142V58.436C44.2015 59.066 44.3275 59.318 45.0295 59.318H45.4075V62H42.5635C41.5195 62 41.0335 61.262 40.8895 60.614ZM50.9192 62H47.4092V52.01H50.9192V55.646H55.8152V52.01H59.3252V62H55.8152V58.31H50.9192V62ZM68.5091 62.27H67.9511C62.5691 62.27 61.7411 58.994 61.7411 57.176V56.924C61.7411 55.124 62.5691 51.74 67.9331 51.74H68.5271C74.0711 51.74 74.7191 55.142 74.7191 56.906V57.194C74.7191 58.994 74.0711 62.27 68.5091 62.27ZM68.1311 59.642H68.3291C70.5431 59.642 71.1011 58.058 71.1011 56.96C71.1011 55.826 70.5431 54.314 68.3291 54.314H68.1311C65.8271 54.314 65.3591 55.826 65.3591 56.96C65.3591 58.058 65.8271 59.642 68.1311 59.642ZM85.3778 62H77.1338V52.01H85.0178C87.3038 52.01 88.7438 52.82 88.7438 54.404V54.494C88.7438 55.736 87.9518 56.474 86.7458 56.672C87.9698 56.816 89.0678 57.68 89.0678 59.12V59.192C89.0678 61.01 87.8798 62 85.3778 62ZM80.6438 55.988H83.8658C84.7118 55.988 85.1438 55.664 85.1438 55.034V54.944C85.1438 54.368 84.7478 54.026 83.8658 54.026H80.6438V55.988ZM80.6438 59.984H84.0098C84.9458 59.984 85.4678 59.678 85.4678 58.976V58.832C85.4678 58.202 85.0358 57.806 84.0098 57.806H80.6438V59.984ZM95.0227 62H91.5127V52.01H95.0227V55.646H99.9187V52.01H103.429V62H99.9187V58.31H95.0227V62ZM111.065 60.002C113.117 60.002 113.819 58.706 113.819 57.95V57.176C113.513 57.302 112.631 57.482 111.623 57.644C109.931 57.932 109.391 58.166 109.391 58.868V58.904C109.391 59.534 109.841 60.002 111.065 60.002ZM113.927 60.614C113.495 61.136 112.415 62.198 110.075 62.198H109.787C106.997 62.198 105.845 60.686 105.845 59.03V58.958C105.845 57.23 106.943 56.168 110.327 55.88L113.063 55.646C113.621 55.592 113.819 55.412 113.819 54.998C113.819 54.53 113.675 54.026 111.731 54.026C109.895 54.026 109.715 54.746 109.715 55.124H106.115V55.088C106.115 54.098 106.511 51.776 111.425 51.776H111.983C116.933 51.776 117.239 53.81 117.239 55.142V58.436C117.239 59.066 117.365 59.318 118.067 59.318H118.445V62H115.601C114.557 62 114.071 61.262 113.927 60.614Z" fill="url(#paint0_linear_2016_508)"/>
<path d="M0.656 14V0.608H5.588L9.854 9.68L14.246 0.608H18.872V14H15.254V5.234L11.186 14H8.288L4.22 5.234V14H0.656ZM30.4152 7.952L25.5912 14H21.9912V4.01H25.5012V10.058L30.3252 4.01H33.9252V14H30.4152V7.952ZM44.8367 14L42.1547 11.138L39.5447 14H35.5667L40.0487 8.996L35.4227 4.01H39.7247L42.2807 6.8L44.7467 4.01H48.6167L44.3147 8.924L48.8867 14H44.8367ZM55.008 12.002C57.06 12.002 57.762 10.706 57.762 9.95V9.176C57.456 9.302 56.574 9.482 55.566 9.644C53.874 9.932 53.334 10.166 53.334 10.868V10.904C53.334 11.534 53.784 12.002 55.008 12.002ZM57.87 12.614C57.438 13.136 56.358 14.198 54.018 14.198H53.73C50.94 14.198 49.788 12.686 49.788 11.03V10.958C49.788 9.23 50.886 8.168 54.27 7.88L57.006 7.646C57.564 7.592 57.762 7.412 57.762 6.998C57.762 6.53 57.618 6.026 55.674 6.026C53.838 6.026 53.658 6.746 53.658 7.124H50.058V7.088C50.058 6.098 50.454 3.776 55.368 3.776H55.926C60.876 3.776 61.182 5.81 61.182 7.142V10.436C61.182 11.066 61.308 11.318 62.01 11.318H62.388V14H59.544C58.5 14 58.014 13.262 57.87 12.614ZM72.8136 7.952L67.9896 14H64.3896V4.01H67.8996V10.058L72.7236 4.01H76.3236V14H72.8136V7.952ZM70.5816 2.984H70.0416C67.1796 2.984 66.6756 1.04 66.6756 0.104V0.0499994H69.3216C69.3216 0.284 69.4296 1.004 70.3296 1.004C71.1756 1.004 71.3016 0.284 71.3016 0.0499994H73.9116V0.104C73.9116 1.04 73.1916 2.984 70.5816 2.984ZM87.4332 14V6.674H83.4732C83.4732 9.356 83.3832 10.85 83.0412 11.768C82.6632 12.776 82.1592 14 79.5132 14H78.4152V11.39H78.6312C79.2612 11.39 79.7292 11.174 79.9272 10.256C80.0712 9.482 80.1252 8.636 80.1252 4.01H90.9432V14H87.4332ZM100.115 14.27H99.5566C94.1746 14.27 93.3466 10.994 93.3466 9.176V8.924C93.3466 7.124 94.1746 3.74 99.5386 3.74H100.133C105.677 3.74 106.325 7.142 106.325 8.906V9.194C106.325 10.994 105.677 14.27 100.115 14.27ZM99.7366 11.642H99.9346C102.149 11.642 102.707 10.058 102.707 8.96C102.707 7.826 102.149 6.314 99.9346 6.314H99.7366C97.4326 6.314 96.9646 7.826 96.9646 8.96C96.9646 10.058 97.4326 11.642 99.7366 11.642ZM116.983 14H108.739V4.01H116.623C118.909 4.01 120.349 4.82 120.349 6.404V6.494C120.349 7.736 119.557 8.474 118.351 8.672C119.575 8.816 120.673 9.68 120.673 11.12V11.192C120.673 13.01 119.485 14 116.983 14ZM112.249 7.988H115.471C116.317 7.988 116.749 7.664 116.749 7.034V6.944C116.749 6.368 116.353 6.026 115.471 6.026H112.249V7.988ZM112.249 11.984H115.615C116.551 11.984 117.073 11.678 117.073 10.976V10.832C117.073 10.202 116.641 9.806 115.615 9.806H112.249V11.984ZM127.746 12.002C129.798 12.002 130.5 10.706 130.5 9.95V9.176C130.194 9.302 129.312 9.482 128.304 9.644C126.612 9.932 126.072 10.166 126.072 10.868V10.904C126.072 11.534 126.522 12.002 127.746 12.002ZM130.608 12.614C130.176 13.136 129.096 14.198 126.756 14.198H126.468C123.678 14.198 122.526 12.686 122.526 11.03V10.958C122.526 9.23 123.624 8.168 127.008 7.88L129.744 7.646C130.302 7.592 130.5 7.412 130.5 6.998C130.5 6.53 130.356 6.026 128.412 6.026C126.576 6.026 126.396 6.746 126.396 7.124H122.796V7.088C122.796 6.098 123.192 3.776 128.106 3.776H128.664C133.614 3.776 133.92 5.81 133.92 7.142V10.436C133.92 11.066 134.046 11.318 134.748 11.318H135.126V14H132.282C131.238 14 130.752 13.262 130.608 12.614ZM11.834 38V32.618H4.364V38H0.656V24.608H4.364V29.576H11.834V24.608H15.542V38H11.834ZM23.3674 36.002C25.4194 36.002 26.1214 34.706 26.1214 33.95V33.176C25.8154 33.302 24.9334 33.482 23.9254 33.644C22.2334 33.932 21.6934 34.166 21.6934 34.868V34.904C21.6934 35.534 22.1434 36.002 23.3674 36.002ZM26.2294 36.614C25.7974 37.136 24.7174 38.198 22.3774 38.198H22.0894C19.2994 38.198 18.1474 36.686 18.1474 35.03V34.958C18.1474 33.23 19.2454 32.168 22.6294 31.88L25.3654 31.646C25.9234 31.592 26.1214 31.412 26.1214 30.998C26.1214 30.53 25.9774 30.026 24.0334 30.026C22.1974 30.026 22.0174 30.746 22.0174 31.124H18.4174V31.088C18.4174 30.098 18.8134 27.776 23.7274 27.776H24.2854C29.2354 27.776 29.5414 29.81 29.5414 31.142V34.436C29.5414 35.066 29.6674 35.318 30.3694 35.318H30.7474V38H27.9034C26.8594 38 26.3734 37.262 26.2294 36.614ZM35.4352 38V30.674H31.5652V28.01H42.8152V30.674H38.9452V38H35.4352ZM49.4357 36.002C51.4877 36.002 52.1897 34.706 52.1897 33.95V33.176C51.8837 33.302 51.0017 33.482 49.9937 33.644C48.3017 33.932 47.7617 34.166 47.7617 34.868V34.904C47.7617 35.534 48.2117 36.002 49.4357 36.002ZM52.2977 36.614C51.8657 37.136 50.7857 38.198 48.4457 38.198H48.1577C45.3677 38.198 44.2157 36.686 44.2157 35.03V34.958C44.2157 33.23 45.3137 32.168 48.6977 31.88L51.4337 31.646C51.9917 31.592 52.1897 31.412 52.1897 30.998C52.1897 30.53 52.0457 30.026 50.1017 30.026C48.2657 30.026 48.0857 30.746 48.0857 31.124H44.4857V31.088C44.4857 30.098 44.8817 27.776 49.7957 27.776H50.3537C55.3037 27.776 55.6097 29.81 55.6097 31.142V34.436C55.6097 35.066 55.7357 35.318 56.4377 35.318H56.8157V38H53.9717C52.9277 38 52.4417 37.262 52.2977 36.614ZM67.0953 38V30.674H63.1353C63.1353 33.356 63.0453 34.85 62.7033 35.768C62.3253 36.776 61.8213 38 59.1753 38H58.0773V35.39H58.2933C58.9233 35.39 59.3913 35.174 59.5893 34.256C59.7333 33.482 59.7873 32.636 59.7873 28.01H70.6053V38H67.0953ZM73.5127 38V28.01H77.0227V30.872H79.7587C83.1787 30.872 84.5107 32.384 84.5107 34.292V34.508C84.5107 36.596 83.1787 38 79.7587 38H73.5127ZM77.0227 35.624H79.3267C80.0467 35.624 80.9107 35.408 80.9107 34.436V34.382C80.9107 33.482 80.0467 33.248 79.3267 33.248H77.0227V35.624ZM94.9968 34.652H92.6388L89.7228 38H85.7628L89.0208 34.274C87.2928 33.932 86.3028 32.942 86.3028 31.43V31.214C86.3028 29.396 87.7788 28.01 90.2808 28.01H98.5068V38H94.9968V34.652ZM94.9968 30.314H91.2348C90.4608 30.314 89.8128 30.494 89.8128 31.286V31.358C89.8128 32.132 90.4788 32.366 91.2528 32.366H94.9968V30.314ZM12.194 62V53L4.364 62H0.656V48.608H4.364V57.608L12.194 48.608H15.902V62H12.194ZM27.2645 62H19.0205V52.01H26.9045C29.1905 52.01 30.6305 52.82 30.6305 54.404V54.494C30.6305 55.736 29.8385 56.474 28.6325 56.672C29.8565 56.816 30.9545 57.68 30.9545 59.12V59.192C30.9545 61.01 29.7665 62 27.2645 62ZM22.5305 55.988H25.7525C26.5985 55.988 27.0305 55.664 27.0305 55.034V54.944C27.0305 54.368 26.6345 54.026 25.7525 54.026H22.5305V55.988ZM22.5305 59.984H25.8965C26.8325 59.984 27.3545 59.678 27.3545 58.976V58.832C27.3545 58.202 26.9225 57.806 25.8965 57.806H22.5305V59.984ZM38.0275 60.002C40.0795 60.002 40.7815 58.706 40.7815 57.95V57.176C40.4755 57.302 39.5935 57.482 38.5855 57.644C36.8935 57.932 36.3535 58.166 36.3535 58.868V58.904C36.3535 59.534 36.8035 60.002 38.0275 60.002ZM40.8895 60.614C40.4575 61.136 39.3775 62.198 37.0375 62.198H36.7495C33.9595 62.198 32.8075 60.686 32.8075 59.03V58.958C32.8075 57.23 33.9055 56.168 37.2895 55.88L40.0255 55.646C40.5835 55.592 40.7815 55.412 40.7815 54.998C40.7815 54.53 40.6375 54.026 38.6935 54.026C36.8575 54.026 36.6775 54.746 36.6775 55.124H33.0775V55.088C33.0775 54.098 33.4735 51.776 38.3875 51.776H38.9455C43.8955 51.776 44.2015 53.81 44.2015 55.142V58.436C44.2015 59.066 44.3275 59.318 45.0295 59.318H45.4075V62H42.5635C41.5195 62 41.0335 61.262 40.8895 60.614ZM50.9192 62H47.4092V52.01H50.9192V55.646H55.8152V52.01H59.3252V62H55.8152V58.31H50.9192V62ZM68.5091 62.27H67.9511C62.5691 62.27 61.7411 58.994 61.7411 57.176V56.924C61.7411 55.124 62.5691 51.74 67.9331 51.74H68.5271C74.0711 51.74 74.7191 55.142 74.7191 56.906V57.194C74.7191 58.994 74.0711 62.27 68.5091 62.27ZM68.1311 59.642H68.3291C70.5431 59.642 71.1011 58.058 71.1011 56.96C71.1011 55.826 70.5431 54.314 68.3291 54.314H68.1311C65.8271 54.314 65.3591 55.826 65.3591 56.96C65.3591 58.058 65.8271 59.642 68.1311 59.642ZM85.3778 62H77.1338V52.01H85.0178C87.3038 52.01 88.7438 52.82 88.7438 54.404V54.494C88.7438 55.736 87.9518 56.474 86.7458 56.672C87.9698 56.816 89.0678 57.68 89.0678 59.12V59.192C89.0678 61.01 87.8798 62 85.3778 62ZM80.6438 55.988H83.8658C84.7118 55.988 85.1438 55.664 85.1438 55.034V54.944C85.1438 54.368 84.7478 54.026 83.8658 54.026H80.6438V55.988ZM80.6438 59.984H84.0098C84.9458 59.984 85.4678 59.678 85.4678 58.976V58.832C85.4678 58.202 85.0358 57.806 84.0098 57.806H80.6438V59.984ZM95.0227 62H91.5127V52.01H95.0227V55.646H99.9187V52.01H103.429V62H99.9187V58.31H95.0227V62ZM111.065 60.002C113.117 60.002 113.819 58.706 113.819 57.95V57.176C113.513 57.302 112.631 57.482 111.623 57.644C109.931 57.932 109.391 58.166 109.391 58.868V58.904C109.391 59.534 109.841 60.002 111.065 60.002ZM113.927 60.614C113.495 61.136 112.415 62.198 110.075 62.198H109.787C106.997 62.198 105.845 60.686 105.845 59.03V58.958C105.845 57.23 106.943 56.168 110.327 55.88L113.063 55.646C113.621 55.592 113.819 55.412 113.819 54.998C113.819 54.53 113.675 54.026 111.731 54.026C109.895 54.026 109.715 54.746 109.715 55.124H106.115V55.088C106.115 54.098 106.511 51.776 111.425 51.776H111.983C116.933 51.776 117.239 53.81 117.239 55.142V58.436C117.239 59.066 117.365 59.318 118.067 59.318H118.445V62H115.601C114.557 62 114.071 61.262 113.927 60.614Z" fill="url(#paint1_radial_2016_508)" style="mix-blend-mode:overlay"/>
<path d="M0.656 14V0.608H5.588L9.854 9.68L14.246 0.608H18.872V14H15.254V5.234L11.186 14H8.288L4.22 5.234V14H0.656ZM30.4152 7.952L25.5912 14H21.9912V4.01H25.5012V10.058L30.3252 4.01H33.9252V14H30.4152V7.952ZM44.8367 14L42.1547 11.138L39.5447 14H35.5667L40.0487 8.996L35.4227 4.01H39.7247L42.2807 6.8L44.7467 4.01H48.6167L44.3147 8.924L48.8867 14H44.8367ZM55.008 12.002C57.06 12.002 57.762 10.706 57.762 9.95V9.176C57.456 9.302 56.574 9.482 55.566 9.644C53.874 9.932 53.334 10.166 53.334 10.868V10.904C53.334 11.534 53.784 12.002 55.008 12.002ZM57.87 12.614C57.438 13.136 56.358 14.198 54.018 14.198H53.73C50.94 14.198 49.788 12.686 49.788 11.03V10.958C49.788 9.23 50.886 8.168 54.27 7.88L57.006 7.646C57.564 7.592 57.762 7.412 57.762 6.998C57.762 6.53 57.618 6.026 55.674 6.026C53.838 6.026 53.658 6.746 53.658 7.124H50.058V7.088C50.058 6.098 50.454 3.776 55.368 3.776H55.926C60.876 3.776 61.182 5.81 61.182 7.142V10.436C61.182 11.066 61.308 11.318 62.01 11.318H62.388V14H59.544C58.5 14 58.014 13.262 57.87 12.614ZM72.8136 7.952L67.9896 14H64.3896V4.01H67.8996V10.058L72.7236 4.01H76.3236V14H72.8136V7.952ZM70.5816 2.984H70.0416C67.1796 2.984 66.6756 1.04 66.6756 0.104V0.0499994H69.3216C69.3216 0.284 69.4296 1.004 70.3296 1.004C71.1756 1.004 71.3016 0.284 71.3016 0.0499994H73.9116V0.104C73.9116 1.04 73.1916 2.984 70.5816 2.984ZM87.4332 14V6.674H83.4732C83.4732 9.356 83.3832 10.85 83.0412 11.768C82.6632 12.776 82.1592 14 79.5132 14H78.4152V11.39H78.6312C79.2612 11.39 79.7292 11.174 79.9272 10.256C80.0712 9.482 80.1252 8.636 80.1252 4.01H90.9432V14H87.4332ZM100.115 14.27H99.5566C94.1746 14.27 93.3466 10.994 93.3466 9.176V8.924C93.3466 7.124 94.1746 3.74 99.5386 3.74H100.133C105.677 3.74 106.325 7.142 106.325 8.906V9.194C106.325 10.994 105.677 14.27 100.115 14.27ZM99.7366 11.642H99.9346C102.149 11.642 102.707 10.058 102.707 8.96C102.707 7.826 102.149 6.314 99.9346 6.314H99.7366C97.4326 6.314 96.9646 7.826 96.9646 8.96C96.9646 10.058 97.4326 11.642 99.7366 11.642ZM116.983 14H108.739V4.01H116.623C118.909 4.01 120.349 4.82 120.349 6.404V6.494C120.349 7.736 119.557 8.474 118.351 8.672C119.575 8.816 120.673 9.68 120.673 11.12V11.192C120.673 13.01 119.485 14 116.983 14ZM112.249 7.988H115.471C116.317 7.988 116.749 7.664 116.749 7.034V6.944C116.749 6.368 116.353 6.026 115.471 6.026H112.249V7.988ZM112.249 11.984H115.615C116.551 11.984 117.073 11.678 117.073 10.976V10.832C117.073 10.202 116.641 9.806 115.615 9.806H112.249V11.984ZM127.746 12.002C129.798 12.002 130.5 10.706 130.5 9.95V9.176C130.194 9.302 129.312 9.482 128.304 9.644C126.612 9.932 126.072 10.166 126.072 10.868V10.904C126.072 11.534 126.522 12.002 127.746 12.002ZM130.608 12.614C130.176 13.136 129.096 14.198 126.756 14.198H126.468C123.678 14.198 122.526 12.686 122.526 11.03V10.958C122.526 9.23 123.624 8.168 127.008 7.88L129.744 7.646C130.302 7.592 130.5 7.412 130.5 6.998C130.5 6.53 130.356 6.026 128.412 6.026C126.576 6.026 126.396 6.746 126.396 7.124H122.796V7.088C122.796 6.098 123.192 3.776 128.106 3.776H128.664C133.614 3.776 133.92 5.81 133.92 7.142V10.436C133.92 11.066 134.046 11.318 134.748 11.318H135.126V14H132.282C131.238 14 130.752 13.262 130.608 12.614ZM11.834 38V32.618H4.364V38H0.656V24.608H4.364V29.576H11.834V24.608H15.542V38H11.834ZM23.3674 36.002C25.4194 36.002 26.1214 34.706 26.1214 33.95V33.176C25.8154 33.302 24.9334 33.482 23.9254 33.644C22.2334 33.932 21.6934 34.166 21.6934 34.868V34.904C21.6934 35.534 22.1434 36.002 23.3674 36.002ZM26.2294 36.614C25.7974 37.136 24.7174 38.198 22.3774 38.198H22.0894C19.2994 38.198 18.1474 36.686 18.1474 35.03V34.958C18.1474 33.23 19.2454 32.168 22.6294 31.88L25.3654 31.646C25.9234 31.592 26.1214 31.412 26.1214 30.998C26.1214 30.53 25.9774 30.026 24.0334 30.026C22.1974 30.026 22.0174 30.746 22.0174 31.124H18.4174V31.088C18.4174 30.098 18.8134 27.776 23.7274 27.776H24.2854C29.2354 27.776 29.5414 29.81 29.5414 31.142V34.436C29.5414 35.066 29.6674 35.318 30.3694 35.318H30.7474V38H27.9034C26.8594 38 26.3734 37.262 26.2294 36.614ZM35.4352 38V30.674H31.5652V28.01H42.8152V30.674H38.9452V38H35.4352ZM49.4357 36.002C51.4877 36.002 52.1897 34.706 52.1897 33.95V33.176C51.8837 33.302 51.0017 33.482 49.9937 33.644C48.3017 33.932 47.7617 34.166 47.7617 34.868V34.904C47.7617 35.534 48.2117 36.002 49.4357 36.002ZM52.2977 36.614C51.8657 37.136 50.7857 38.198 48.4457 38.198H48.1577C45.3677 38.198 44.2157 36.686 44.2157 35.03V34.958C44.2157 33.23 45.3137 32.168 48.6977 31.88L51.4337 31.646C51.9917 31.592 52.1897 31.412 52.1897 30.998C52.1897 30.53 52.0457 30.026 50.1017 30.026C48.2657 30.026 48.0857 30.746 48.0857 31.124H44.4857V31.088C44.4857 30.098 44.8817 27.776 49.7957 27.776H50.3537C55.3037 27.776 55.6097 29.81 55.6097 31.142V34.436C55.6097 35.066 55.7357 35.318 56.4377 35.318H56.8157V38H53.9717C52.9277 38 52.4417 37.262 52.2977 36.614ZM67.0953 38V30.674H63.1353C63.1353 33.356 63.0453 34.85 62.7033 35.768C62.3253 36.776 61.8213 38 59.1753 38H58.0773V35.39H58.2933C58.9233 35.39 59.3913 35.174 59.5893 34.256C59.7333 33.482 59.7873 32.636 59.7873 28.01H70.6053V38H67.0953ZM73.5127 38V28.01H77.0227V30.872H79.7587C83.1787 30.872 84.5107 32.384 84.5107 34.292V34.508C84.5107 36.596 83.1787 38 79.7587 38H73.5127ZM77.0227 35.624H79.3267C80.0467 35.624 80.9107 35.408 80.9107 34.436V34.382C80.9107 33.482 80.0467 33.248 79.3267 33.248H77.0227V35.624ZM94.9968 34.652H92.6388L89.7228 38H85.7628L89.0208 34.274C87.2928 33.932 86.3028 32.942 86.3028 31.43V31.214C86.3028 29.396 87.7788 28.01 90.2808 28.01H98.5068V38H94.9968V34.652ZM94.9968 30.314H91.2348C90.4608 30.314 89.8128 30.494 89.8128 31.286V31.358C89.8128 32.132 90.4788 32.366 91.2528 32.366H94.9968V30.314ZM12.194 62V53L4.364 62H0.656V48.608H4.364V57.608L12.194 48.608H15.902V62H12.194ZM27.2645 62H19.0205V52.01H26.9045C29.1905 52.01 30.6305 52.82 30.6305 54.404V54.494C30.6305 55.736 29.8385 56.474 28.6325 56.672C29.8565 56.816 30.9545 57.68 30.9545 59.12V59.192C30.9545 61.01 29.7665 62 27.2645 62ZM22.5305 55.988H25.7525C26.5985 55.988 27.0305 55.664 27.0305 55.034V54.944C27.0305 54.368 26.6345 54.026 25.7525 54.026H22.5305V55.988ZM22.5305 59.984H25.8965C26.8325 59.984 27.3545 59.678 27.3545 58.976V58.832C27.3545 58.202 26.9225 57.806 25.8965 57.806H22.5305V59.984ZM38.0275 60.002C40.0795 60.002 40.7815 58.706 40.7815 57.95V57.176C40.4755 57.302 39.5935 57.482 38.5855 57.644C36.8935 57.932 36.3535 58.166 36.3535 58.868V58.904C36.3535 59.534 36.8035 60.002 38.0275 60.002ZM40.8895 60.614C40.4575 61.136 39.3775 62.198 37.0375 62.198H36.7495C33.9595 62.198 32.8075 60.686 32.8075 59.03V58.958C32.8075 57.23 33.9055 56.168 37.2895 55.88L40.0255 55.646C40.5835 55.592 40.7815 55.412 40.7815 54.998C40.7815 54.53 40.6375 54.026 38.6935 54.026C36.8575 54.026 36.6775 54.746 36.6775 55.124H33.0775V55.088C33.0775 54.098 33.4735 51.776 38.3875 51.776H38.9455C43.8955 51.776 44.2015 53.81 44.2015 55.142V58.436C44.2015 59.066 44.3275 59.318 45.0295 59.318H45.4075V62H42.5635C41.5195 62 41.0335 61.262 40.8895 60.614ZM50.9192 62H47.4092V52.01H50.9192V55.646H55.8152V52.01H59.3252V62H55.8152V58.31H50.9192V62ZM68.5091 62.27H67.9511C62.5691 62.27 61.7411 58.994 61.7411 57.176V56.924C61.7411 55.124 62.5691 51.74 67.9331 51.74H68.5271C74.0711 51.74 74.7191 55.142 74.7191 56.906V57.194C74.7191 58.994 74.0711 62.27 68.5091 62.27ZM68.1311 59.642H68.3291C70.5431 59.642 71.1011 58.058 71.1011 56.96C71.1011 55.826 70.5431 54.314 68.3291 54.314H68.1311C65.8271 54.314 65.3591 55.826 65.3591 56.96C65.3591 58.058 65.8271 59.642 68.1311 59.642ZM85.3778 62H77.1338V52.01H85.0178C87.3038 52.01 88.7438 52.82 88.7438 54.404V54.494C88.7438 55.736 87.9518 56.474 86.7458 56.672C87.9698 56.816 89.0678 57.68 89.0678 59.12V59.192C89.0678 61.01 87.8798 62 85.3778 62ZM80.6438 55.988H83.8658C84.7118 55.988 85.1438 55.664 85.1438 55.034V54.944C85.1438 54.368 84.7478 54.026 83.8658 54.026H80.6438V55.988ZM80.6438 59.984H84.0098C84.9458 59.984 85.4678 59.678 85.4678 58.976V58.832C85.4678 58.202 85.0358 57.806 84.0098 57.806H80.6438V59.984ZM95.0227 62H91.5127V52.01H95.0227V55.646H99.9187V52.01H103.429V62H99.9187V58.31H95.0227V62ZM111.065 60.002C113.117 60.002 113.819 58.706 113.819 57.95V57.176C113.513 57.302 112.631 57.482 111.623 57.644C109.931 57.932 109.391 58.166 109.391 58.868V58.904C109.391 59.534 109.841 60.002 111.065 60.002ZM113.927 60.614C113.495 61.136 112.415 62.198 110.075 62.198H109.787C106.997 62.198 105.845 60.686 105.845 59.03V58.958C105.845 57.23 106.943 56.168 110.327 55.88L113.063 55.646C113.621 55.592 113.819 55.412 113.819 54.998C113.819 54.53 113.675 54.026 111.731 54.026C109.895 54.026 109.715 54.746 109.715 55.124H106.115V55.088C106.115 54.098 106.511 51.776 111.425 51.776H111.983C116.933 51.776 117.239 53.81 117.239 55.142V58.436C117.239 59.066 117.365 59.318 118.067 59.318H118.445V62H115.601C114.557 62 114.071 61.262 113.927 60.614Z" fill="url(#paint2_radial_2016_508)"/>
<path d="M0.656 14V0.608H5.588L9.854 9.68L14.246 0.608H18.872V14H15.254V5.234L11.186 14H8.288L4.22 5.234V14H0.656ZM30.4152 7.952L25.5912 14H21.9912V4.01H25.5012V10.058L30.3252 4.01H33.9252V14H30.4152V7.952ZM44.8367 14L42.1547 11.138L39.5447 14H35.5667L40.0487 8.996L35.4227 4.01H39.7247L42.2807 6.8L44.7467 4.01H48.6167L44.3147 8.924L48.8867 14H44.8367ZM55.008 12.002C57.06 12.002 57.762 10.706 57.762 9.95V9.176C57.456 9.302 56.574 9.482 55.566 9.644C53.874 9.932 53.334 10.166 53.334 10.868V10.904C53.334 11.534 53.784 12.002 55.008 12.002ZM57.87 12.614C57.438 13.136 56.358 14.198 54.018 14.198H53.73C50.94 14.198 49.788 12.686 49.788 11.03V10.958C49.788 9.23 50.886 8.168 54.27 7.88L57.006 7.646C57.564 7.592 57.762 7.412 57.762 6.998C57.762 6.53 57.618 6.026 55.674 6.026C53.838 6.026 53.658 6.746 53.658 7.124H50.058V7.088C50.058 6.098 50.454 3.776 55.368 3.776H55.926C60.876 3.776 61.182 5.81 61.182 7.142V10.436C61.182 11.066 61.308 11.318 62.01 11.318H62.388V14H59.544C58.5 14 58.014 13.262 57.87 12.614ZM72.8136 7.952L67.9896 14H64.3896V4.01H67.8996V10.058L72.7236 4.01H76.3236V14H72.8136V7.952ZM70.5816 2.984H70.0416C67.1796 2.984 66.6756 1.04 66.6756 0.104V0.0499994H69.3216C69.3216 0.284 69.4296 1.004 70.3296 1.004C71.1756 1.004 71.3016 0.284 71.3016 0.0499994H73.9116V0.104C73.9116 1.04 73.1916 2.984 70.5816 2.984ZM87.4332 14V6.674H83.4732C83.4732 9.356 83.3832 10.85 83.0412 11.768C82.6632 12.776 82.1592 14 79.5132 14H78.4152V11.39H78.6312C79.2612 11.39 79.7292 11.174 79.9272 10.256C80.0712 9.482 80.1252 8.636 80.1252 4.01H90.9432V14H87.4332ZM100.115 14.27H99.5566C94.1746 14.27 93.3466 10.994 93.3466 9.176V8.924C93.3466 7.124 94.1746 3.74 99.5386 3.74H100.133C105.677 3.74 106.325 7.142 106.325 8.906V9.194C106.325 10.994 105.677 14.27 100.115 14.27ZM99.7366 11.642H99.9346C102.149 11.642 102.707 10.058 102.707 8.96C102.707 7.826 102.149 6.314 99.9346 6.314H99.7366C97.4326 6.314 96.9646 7.826 96.9646 8.96C96.9646 10.058 97.4326 11.642 99.7366 11.642ZM116.983 14H108.739V4.01H116.623C118.909 4.01 120.349 4.82 120.349 6.404V6.494C120.349 7.736 119.557 8.474 118.351 8.672C119.575 8.816 120.673 9.68 120.673 11.12V11.192C120.673 13.01 119.485 14 116.983 14ZM112.249 7.988H115.471C116.317 7.988 116.749 7.664 116.749 7.034V6.944C116.749 6.368 116.353 6.026 115.471 6.026H112.249V7.988ZM112.249 11.984H115.615C116.551 11.984 117.073 11.678 117.073 10.976V10.832C117.073 10.202 116.641 9.806 115.615 9.806H112.249V11.984ZM127.746 12.002C129.798 12.002 130.5 10.706 130.5 9.95V9.176C130.194 9.302 129.312 9.482 128.304 9.644C126.612 9.932 126.072 10.166 126.072 10.868V10.904C126.072 11.534 126.522 12.002 127.746 12.002ZM130.608 12.614C130.176 13.136 129.096 14.198 126.756 14.198H126.468C123.678 14.198 122.526 12.686 122.526 11.03V10.958C122.526 9.23 123.624 8.168 127.008 7.88L129.744 7.646C130.302 7.592 130.5 7.412 130.5 6.998C130.5 6.53 130.356 6.026 128.412 6.026C126.576 6.026 126.396 6.746 126.396 7.124H122.796V7.088C122.796 6.098 123.192 3.776 128.106 3.776H128.664C133.614 3.776 133.92 5.81 133.92 7.142V10.436C133.92 11.066 134.046 11.318 134.748 11.318H135.126V14H132.282C131.238 14 130.752 13.262 130.608 12.614ZM11.834 38V32.618H4.364V38H0.656V24.608H4.364V29.576H11.834V24.608H15.542V38H11.834ZM23.3674 36.002C25.4194 36.002 26.1214 34.706 26.1214 33.95V33.176C25.8154 33.302 24.9334 33.482 23.9254 33.644C22.2334 33.932 21.6934 34.166 21.6934 34.868V34.904C21.6934 35.534 22.1434 36.002 23.3674 36.002ZM26.2294 36.614C25.7974 37.136 24.7174 38.198 22.3774 38.198H22.0894C19.2994 38.198 18.1474 36.686 18.1474 35.03V34.958C18.1474 33.23 19.2454 32.168 22.6294 31.88L25.3654 31.646C25.9234 31.592 26.1214 31.412 26.1214 30.998C26.1214 30.53 25.9774 30.026 24.0334 30.026C22.1974 30.026 22.0174 30.746 22.0174 31.124H18.4174V31.088C18.4174 30.098 18.8134 27.776 23.7274 27.776H24.2854C29.2354 27.776 29.5414 29.81 29.5414 31.142V34.436C29.5414 35.066 29.6674 35.318 30.3694 35.318H30.7474V38H27.9034C26.8594 38 26.3734 37.262 26.2294 36.614ZM35.4352 38V30.674H31.5652V28.01H42.8152V30.674H38.9452V38H35.4352ZM49.4357 36.002C51.4877 36.002 52.1897 34.706 52.1897 33.95V33.176C51.8837 33.302 51.0017 33.482 49.9937 33.644C48.3017 33.932 47.7617 34.166 47.7617 34.868V34.904C47.7617 35.534 48.2117 36.002 49.4357 36.002ZM52.2977 36.614C51.8657 37.136 50.7857 38.198 48.4457 38.198H48.1577C45.3677 38.198 44.2157 36.686 44.2157 35.03V34.958C44.2157 33.23 45.3137 32.168 48.6977 31.88L51.4337 31.646C51.9917 31.592 52.1897 31.412 52.1897 30.998C52.1897 30.53 52.0457 30.026 50.1017 30.026C48.2657 30.026 48.0857 30.746 48.0857 31.124H44.4857V31.088C44.4857 30.098 44.8817 27.776 49.7957 27.776H50.3537C55.3037 27.776 55.6097 29.81 55.6097 31.142V34.436C55.6097 35.066 55.7357 35.318 56.4377 35.318H56.8157V38H53.9717C52.9277 38 52.4417 37.262 52.2977 36.614ZM67.0953 38V30.674H63.1353C63.1353 33.356 63.0453 34.85 62.7033 35.768C62.3253 36.776 61.8213 38 59.1753 38H58.0773V35.39H58.2933C58.9233 35.39 59.3913 35.174 59.5893 34.256C59.7333 33.482 59.7873 32.636 59.7873 28.01H70.6053V38H67.0953ZM73.5127 38V28.01H77.0227V30.872H79.7587C83.1787 30.872 84.5107 32.384 84.5107 34.292V34.508C84.5107 36.596 83.1787 38 79.7587 38H73.5127ZM77.0227 35.624H79.3267C80.0467 35.624 80.9107 35.408 80.9107 34.436V34.382C80.9107 33.482 80.0467 33.248 79.3267 33.248H77.0227V35.624ZM94.9968 34.652H92.6388L89.7228 38H85.7628L89.0208 34.274C87.2928 33.932 86.3028 32.942 86.3028 31.43V31.214C86.3028 29.396 87.7788 28.01 90.2808 28.01H98.5068V38H94.9968V34.652ZM94.9968 30.314H91.2348C90.4608 30.314 89.8128 30.494 89.8128 31.286V31.358C89.8128 32.132 90.4788 32.366 91.2528 32.366H94.9968V30.314ZM12.194 62V53L4.364 62H0.656V48.608H4.364V57.608L12.194 48.608H15.902V62H12.194ZM27.2645 62H19.0205V52.01H26.9045C29.1905 52.01 30.6305 52.82 30.6305 54.404V54.494C30.6305 55.736 29.8385 56.474 28.6325 56.672C29.8565 56.816 30.9545 57.68 30.9545 59.12V59.192C30.9545 61.01 29.7665 62 27.2645 62ZM22.5305 55.988H25.7525C26.5985 55.988 27.0305 55.664 27.0305 55.034V54.944C27.0305 54.368 26.6345 54.026 25.7525 54.026H22.5305V55.988ZM22.5305 59.984H25.8965C26.8325 59.984 27.3545 59.678 27.3545 58.976V58.832C27.3545 58.202 26.9225 57.806 25.8965 57.806H22.5305V59.984ZM38.0275 60.002C40.0795 60.002 40.7815 58.706 40.7815 57.95V57.176C40.4755 57.302 39.5935 57.482 38.5855 57.644C36.8935 57.932 36.3535 58.166 36.3535 58.868V58.904C36.3535 59.534 36.8035 60.002 38.0275 60.002ZM40.8895 60.614C40.4575 61.136 39.3775 62.198 37.0375 62.198H36.7495C33.9595 62.198 32.8075 60.686 32.8075 59.03V58.958C32.8075 57.23 33.9055 56.168 37.2895 55.88L40.0255 55.646C40.5835 55.592 40.7815 55.412 40.7815 54.998C40.7815 54.53 40.6375 54.026 38.6935 54.026C36.8575 54.026 36.6775 54.746 36.6775 55.124H33.0775V55.088C33.0775 54.098 33.4735 51.776 38.3875 51.776H38.9455C43.8955 51.776 44.2015 53.81 44.2015 55.142V58.436C44.2015 59.066 44.3275 59.318 45.0295 59.318H45.4075V62H42.5635C41.5195 62 41.0335 61.262 40.8895 60.614ZM50.9192 62H47.4092V52.01H50.9192V55.646H55.8152V52.01H59.3252V62H55.8152V58.31H50.9192V62ZM68.5091 62.27H67.9511C62.5691 62.27 61.7411 58.994 61.7411 57.176V56.924C61.7411 55.124 62.5691 51.74 67.9331 51.74H68.5271C74.0711 51.74 74.7191 55.142 74.7191 56.906V57.194C74.7191 58.994 74.0711 62.27 68.5091 62.27ZM68.1311 59.642H68.3291C70.5431 59.642 71.1011 58.058 71.1011 56.96C71.1011 55.826 70.5431 54.314 68.3291 54.314H68.1311C65.8271 54.314 65.3591 55.826 65.3591 56.96C65.3591 58.058 65.8271 59.642 68.1311 59.642ZM85.3778 62H77.1338V52.01H85.0178C87.3038 52.01 88.7438 52.82 88.7438 54.404V54.494C88.7438 55.736 87.9518 56.474 86.7458 56.672C87.9698 56.816 89.0678 57.68 89.0678 59.12V59.192C89.0678 61.01 87.8798 62 85.3778 62ZM80.6438 55.988H83.8658C84.7118 55.988 85.1438 55.664 85.1438 55.034V54.944C85.1438 54.368 84.7478 54.026 83.8658 54.026H80.6438V55.988ZM80.6438 59.984H84.0098C84.9458 59.984 85.4678 59.678 85.4678 58.976V58.832C85.4678 58.202 85.0358 57.806 84.0098 57.806H80.6438V59.984ZM95.0227 62H91.5127V52.01H95.0227V55.646H99.9187V52.01H103.429V62H99.9187V58.31H95.0227V62ZM111.065 60.002C113.117 60.002 113.819 58.706 113.819 57.95V57.176C113.513 57.302 112.631 57.482 111.623 57.644C109.931 57.932 109.391 58.166 109.391 58.868V58.904C109.391 59.534 109.841 60.002 111.065 60.002ZM113.927 60.614C113.495 61.136 112.415 62.198 110.075 62.198H109.787C106.997 62.198 105.845 60.686 105.845 59.03V58.958C105.845 57.23 106.943 56.168 110.327 55.88L113.063 55.646C113.621 55.592 113.819 55.412 113.819 54.998C113.819 54.53 113.675 54.026 111.731 54.026C109.895 54.026 109.715 54.746 109.715 55.124H106.115V55.088C106.115 54.098 106.511 51.776 111.425 51.776H111.983C116.933 51.776 117.239 53.81 117.239 55.142V58.436C117.239 59.066 117.365 59.318 118.067 59.318H118.445V62H115.601C114.557 62 114.071 61.262 113.927 60.614Z" fill="#C1A875" style="mix-blend-mode:color"/>
<defs>
<linearGradient id="paint0_linear_2016_508" x1="-0.999999" y1="30" x2="221" y2="30" gradientUnits="userSpaceOnUse">
<stop stop-color="#576167"/>
<stop offset="0.191294" stop-color="#9EA1A2"/>
<stop offset="0.396166" stop-color="#848989"/>
<stop offset="0.62055" stop-color="#576167"/>
<stop offset="0.830299" stop-color="#757A7C"/>
<stop offset="1" stop-color="#576167"/>
</linearGradient>
<radialGradient id="paint1_radial_2016_508" cx="0" cy="0" r="1" gradientUnits="userSpaceOnUse" gradientTransform="translate(117.226 2.39326) rotate(90) scale(53.4944 167.95)">
<stop stop-color="white"/>
<stop offset="1" stop-color="white" stop-opacity="0"/>
</radialGradient>
<radialGradient id="paint2_radial_2016_508" cx="0" cy="0" r="1" gradientUnits="userSpaceOnUse" gradientTransform="translate(129.783 82.9888) rotate(-89.7344) scale(76.6525 240.162)">
<stop stop-color="white"/>
<stop offset="1" stop-color="white" stop-opacity="0"/>
</radialGradient>
</defs>
</svg>
