<svg width="149" height="63" viewBox="0 0 149 63" fill="none" xmlns="http://www.w3.org/2000/svg">
<path d="M11.808 14L5.364 7.7V14H1.656V0.608H5.364V6.116L11.628 0.608H16.344L9.288 6.746L16.65 14H11.808ZM22.3283 12.002C24.3803 12.002 25.0823 10.706 25.0823 9.95V9.176C24.7763 9.302 23.8943 9.482 22.8863 9.644C21.1943 9.932 20.6543 10.166 20.6543 10.868V10.904C20.6543 11.534 21.1043 12.002 22.3283 12.002ZM25.1903 12.614C24.7583 13.136 23.6783 14.198 21.3383 14.198H21.0503C18.2603 14.198 17.1083 12.686 17.1083 11.03V10.958C17.1083 9.23 18.2063 8.168 21.5903 7.88L24.3263 7.646C24.8843 7.592 25.0823 7.412 25.0823 6.998C25.0823 6.53 24.9383 6.026 22.9943 6.026C21.1583 6.026 20.9783 6.746 20.9783 7.124H17.3783V7.088C17.3783 6.098 17.7743 3.776 22.6883 3.776H23.2463C28.1963 3.776 28.5023 5.81 28.5023 7.142V10.436C28.5023 11.066 28.6283 11.318 29.3303 11.318H29.7083V14H26.8643C25.8203 14 25.3343 13.262 25.1903 12.614ZM40.89 9.014V8.96C40.89 7.88 40.386 6.422 38.19 6.422H38.01C35.904 6.422 35.238 7.808 35.238 8.96V9.014C35.238 10.112 35.904 11.552 38.01 11.552H38.19C40.386 11.552 40.89 10.04 40.89 9.014ZM31.746 17.438V4.01H35.22V5.288C35.652 4.82 36.966 3.812 39.234 3.812H39.468C43.284 3.812 44.526 6.422 44.526 8.798V9.104C44.526 11.282 43.248 14.198 39.45 14.198H39.198C36.912 14.198 35.688 13.154 35.256 12.722V17.438H31.746ZM46.9678 14V4.01H58.5238V14H55.0138V6.674H50.4778V14H46.9678ZM67.6986 14.27H67.1406C61.7586 14.27 60.9306 10.994 60.9306 9.176V8.924C60.9306 7.124 61.7586 3.74 67.1226 3.74H67.7166C73.2606 3.74 73.9086 7.142 73.9086 8.906V9.194C73.9086 10.994 73.2606 14.27 67.6986 14.27ZM67.3206 11.642H67.5186C69.7326 11.642 70.2906 10.058 70.2906 8.96C70.2906 7.826 69.7326 6.314 67.5186 6.314H67.3206C65.0166 6.314 64.5486 7.826 64.5486 8.96C64.5486 10.058 65.0166 11.642 67.3206 11.642ZM84.5672 14H76.3232V4.01H84.2072C86.4932 4.01 87.9332 4.82 87.9332 6.404V6.494C87.9332 7.736 87.1412 8.474 85.9352 8.672C87.1592 8.816 88.2572 9.68 88.2572 11.12V11.192C88.2572 13.01 87.0692 14 84.5672 14ZM79.8332 7.988H83.0552C83.9012 7.988 84.3332 7.664 84.3332 7.034V6.944C84.3332 6.368 83.9372 6.026 83.0552 6.026H79.8332V7.988ZM79.8332 11.984H83.1992C84.1352 11.984 84.6572 11.678 84.6572 10.976V10.832C84.6572 10.202 84.2252 9.806 83.1992 9.806H79.8332V11.984ZM95.3303 12.002C97.3823 12.002 98.0843 10.706 98.0843 9.95V9.176C97.7783 9.302 96.8963 9.482 95.8883 9.644C94.1963 9.932 93.6562 10.166 93.6562 10.868V10.904C93.6562 11.534 94.1063 12.002 95.3303 12.002ZM98.1923 12.614C97.7603 13.136 96.6803 14.198 94.3403 14.198H94.0523C91.2623 14.198 90.1103 12.686 90.1103 11.03V10.958C90.1103 9.23 91.2083 8.168 94.5923 7.88L97.3283 7.646C97.8863 7.592 98.0843 7.412 98.0843 6.998C98.0843 6.53 97.9403 6.026 95.9963 6.026C94.1603 6.026 93.9803 6.746 93.9803 7.124H90.3803V7.088C90.3803 6.098 90.7763 3.776 95.6903 3.776H96.2483C101.198 3.776 101.504 5.81 101.504 7.142V10.436C101.504 11.066 101.63 11.318 102.332 11.318H102.71V14H99.8663C98.8223 14 98.3363 13.262 98.1923 12.614ZM1.656 38V24.608H11.43C15.264 24.608 16.218 26.282 16.218 27.776V27.974C16.218 29.666 14.76 30.476 13.752 30.62C15.264 30.872 16.884 31.772 16.884 33.932V34.13C16.884 35.948 15.786 38 11.484 38H1.656ZM10.89 27.398H5.364V29.792H10.89C12.024 29.792 12.348 29.252 12.348 28.622V28.586C12.348 27.938 11.988 27.398 10.89 27.398ZM11.178 32.42H5.364V35.066H11.178C12.474 35.066 12.852 34.382 12.852 33.716V33.644C12.852 32.978 12.474 32.42 11.178 32.42ZM27.4722 38V30.674H23.5122C23.5122 33.356 23.4222 34.85 23.0802 35.768C22.7022 36.776 22.1982 38 19.5522 38H18.4542V35.39H18.6702C19.3002 35.39 19.7682 35.174 19.9662 34.256C20.1102 33.482 20.1642 32.636 20.1642 28.01H30.9822V38H27.4722ZM38.6056 36.002C40.6576 36.002 41.3596 34.706 41.3596 33.95V33.176C41.0536 33.302 40.1716 33.482 39.1636 33.644C37.4716 33.932 36.9316 34.166 36.9316 34.868V34.904C36.9316 35.534 37.3816 36.002 38.6056 36.002ZM41.4676 36.614C41.0356 37.136 39.9556 38.198 37.6156 38.198H37.3276C34.5376 38.198 33.3856 36.686 33.3856 35.03V34.958C33.3856 33.23 34.4836 32.168 37.8676 31.88L40.6036 31.646C41.1616 31.592 41.3596 31.412 41.3596 30.998C41.3596 30.53 41.2156 30.026 39.2716 30.026C37.4356 30.026 37.2556 30.746 37.2556 31.124H33.6556V31.088C33.6556 30.098 34.0516 27.776 38.9656 27.776H39.5236C44.4736 27.776 44.7796 29.81 44.7796 31.142V34.436C44.7796 35.066 44.9056 35.318 45.6076 35.318H45.9856V38H43.1416C42.0976 38 41.6116 37.262 41.4676 36.614ZM47.5109 40.124V35.336H48.7169C49.4009 33.968 49.5089 30.998 49.5989 28.01H60.1649V35.336H61.9649V40.124H58.6349V38H50.8409V40.124H47.5109ZM52.0289 35.336H56.6549V30.674H52.7489C52.6949 31.97 52.5149 33.95 52.0289 35.336ZM72.4777 31.952L67.6537 38H64.0537V28.01H67.5637V34.058L72.3877 28.01H75.9877V38H72.4777V31.952ZM87.2592 34.076H90.9312C90.9312 35.588 90.0312 38.27 85.2252 38.27H84.3432C79.3572 38.27 78.4212 35.03 78.4212 33.14V32.888C78.4212 30.998 79.3032 27.74 84.3252 27.74H85.1532C89.9772 27.74 90.9312 30.368 90.9312 31.808V31.826H87.2592C87.2052 31.538 86.8632 30.296 84.7932 30.296H84.6132C82.5432 30.296 82.0572 31.718 82.0572 32.924V32.942C82.0572 34.184 82.6512 35.66 84.6852 35.66H84.8652C86.9532 35.66 87.2592 34.31 87.2592 34.076ZM101.336 38V30.674H97.3755C97.3755 33.356 97.2855 34.85 96.9435 35.768C96.5655 36.776 96.0615 38 93.4155 38H92.3175V35.39H92.5335C93.1635 35.39 93.6315 35.174 93.8295 34.256C93.9735 33.482 94.0275 32.636 94.0275 28.01H104.846V38H101.336ZM112.469 36.002C114.521 36.002 115.223 34.706 115.223 33.95V33.176C114.917 33.302 114.035 33.482 113.027 33.644C111.335 33.932 110.795 34.166 110.795 34.868V34.904C110.795 35.534 111.245 36.002 112.469 36.002ZM115.331 36.614C114.899 37.136 113.819 38.198 111.479 38.198H111.191C108.401 38.198 107.249 36.686 107.249 35.03V34.958C107.249 33.23 108.347 32.168 111.731 31.88L114.467 31.646C115.025 31.592 115.223 31.412 115.223 30.998C115.223 30.53 115.079 30.026 113.135 30.026C111.299 30.026 111.119 30.746 111.119 31.124H107.519V31.088C107.519 30.098 107.915 27.776 112.829 27.776H113.387C118.337 27.776 118.643 29.81 118.643 31.142V34.436C118.643 35.066 118.769 35.318 119.471 35.318H119.849V38H117.005C115.961 38 115.475 37.262 115.331 36.614ZM130.095 38H121.851V28.01H129.735C132.021 28.01 133.461 28.82 133.461 30.404V30.494C133.461 31.736 132.669 32.474 131.463 32.672C132.687 32.816 133.785 33.68 133.785 35.12V35.192C133.785 37.01 132.597 38 130.095 38ZM125.361 31.988H128.583C129.429 31.988 129.861 31.664 129.861 31.034V30.944C129.861 30.368 129.465 30.026 128.583 30.026H125.361V31.988ZM125.361 35.984H128.727C129.663 35.984 130.185 35.678 130.185 34.976V34.832C130.185 34.202 129.753 33.806 128.727 33.806H125.361V35.984ZM140.858 36.002C142.91 36.002 143.612 34.706 143.612 33.95V33.176C143.306 33.302 142.424 33.482 141.416 33.644C139.724 33.932 139.184 34.166 139.184 34.868V34.904C139.184 35.534 139.634 36.002 140.858 36.002ZM143.72 36.614C143.288 37.136 142.208 38.198 139.868 38.198H139.58C136.79 38.198 135.638 36.686 135.638 35.03V34.958C135.638 33.23 136.736 32.168 140.12 31.88L142.856 31.646C143.414 31.592 143.612 31.412 143.612 30.998C143.612 30.53 143.468 30.026 141.524 30.026C139.688 30.026 139.508 30.746 139.508 31.124H135.908V31.088C135.908 30.098 136.304 27.776 141.218 27.776H141.776C146.726 27.776 147.032 29.81 147.032 31.142V34.436C147.032 35.066 147.158 35.318 147.86 35.318H148.238V38H145.394C144.35 38 143.864 37.262 143.72 36.614ZM10.998 56.762L8.568 51.308L6.21 56.762H10.998ZM13.338 62L12.24 59.516H5.004L3.924 62H0.198L6.138 48.608H11.106L17.316 62H13.338ZM27.1558 62V54.674H23.1958C23.1958 57.356 23.1058 58.85 22.7638 59.768C22.3858 60.776 21.8818 62 19.2358 62H18.1378V59.39H18.3538C18.9838 59.39 19.4518 59.174 19.6498 58.256C19.7938 57.482 19.8478 56.636 19.8478 52.01H30.6658V62H27.1558ZM39.3872 54.08C37.5692 54.08 36.8852 54.818 36.7052 55.862H41.9972C41.9972 55.124 41.6372 54.08 39.3872 54.08ZM42.0692 58.886H45.7232C45.7232 59.714 45.0752 62.234 39.9092 62.234H39.2432C34.3112 62.234 33.0872 59.534 33.0872 57.14V56.888C33.0872 54.638 34.2032 51.794 38.9372 51.794H39.7292C44.8412 51.794 45.7592 54.638 45.7592 57.428V57.752H36.6692C36.8132 58.904 37.5512 59.84 39.6932 59.84C41.7272 59.84 41.9792 59.048 42.0692 58.886ZM55.5971 62L51.7091 57.374V62H48.1991V52.01H51.7091V56.006L55.2731 52.01H59.3231L55.1471 56.492L59.7731 62H55.5971ZM69.1186 58.076H72.7906C72.7906 59.588 71.8906 62.27 67.0846 62.27H66.2026C61.2166 62.27 60.2806 59.03 60.2806 57.14V56.888C60.2806 54.998 61.1626 51.74 66.1846 51.74H67.0126C71.8366 51.74 72.7906 54.368 72.7906 55.808V55.826H69.1186C69.0646 55.538 68.7226 54.296 66.6526 54.296H66.4726C64.4026 54.296 63.9166 55.718 63.9166 56.924V56.942C63.9166 58.184 64.5106 59.66 66.5446 59.66H66.7246C68.8126 59.66 69.1186 58.31 69.1186 58.076ZM80.9947 54.08C79.1767 54.08 78.4927 54.818 78.3127 55.862H83.6047C83.6047 55.124 83.2447 54.08 80.9947 54.08ZM83.6767 58.886H87.3307C87.3307 59.714 86.6827 62.234 81.5167 62.234H80.8507C75.9187 62.234 74.6947 59.534 74.6947 57.14V56.888C74.6947 54.638 75.8107 51.794 80.5447 51.794H81.3367C86.4487 51.794 87.3667 54.638 87.3667 57.428V57.752H78.2767C78.4207 58.904 79.1587 59.84 81.3007 59.84C83.3347 59.84 83.5867 59.048 83.6767 58.886ZM95.5845 54.08C93.7665 54.08 93.0825 54.818 92.9025 55.862H98.1945C98.1945 55.124 97.8345 54.08 95.5845 54.08ZM98.2665 58.886H101.921C101.921 59.714 101.273 62.234 96.1065 62.234H95.4405C90.5085 62.234 89.2845 59.534 89.2845 57.14V56.888C89.2845 54.638 90.4005 51.794 95.1345 51.794H95.9265C101.039 51.794 101.957 54.638 101.957 57.428V57.752H92.8665C93.0105 58.904 93.7485 59.84 95.8905 59.84C97.9245 59.84 98.1765 59.048 98.2665 58.886ZM112.604 62H104.36V52.01H112.244C114.53 52.01 115.97 52.82 115.97 54.404V54.494C115.97 55.736 115.178 56.474 113.972 56.672C115.196 56.816 116.294 57.68 116.294 59.12V59.192C116.294 61.01 115.106 62 112.604 62ZM107.87 55.988H111.092C111.938 55.988 112.37 55.664 112.37 55.034V54.944C112.37 54.368 111.974 54.026 111.092 54.026H107.87V55.988ZM107.87 59.984H111.236C112.172 59.984 112.694 59.678 112.694 58.976V58.832C112.694 58.202 112.262 57.806 111.236 57.806H107.87V59.984ZM122.249 62H118.739V52.01H122.249V55.646H127.145V52.01H130.655V62H127.145V58.31H122.249V62ZM138.291 60.002C140.343 60.002 141.045 58.706 141.045 57.95V57.176C140.739 57.302 139.857 57.482 138.849 57.644C137.157 57.932 136.617 58.166 136.617 58.868V58.904C136.617 59.534 137.067 60.002 138.291 60.002ZM141.153 60.614C140.721 61.136 139.641 62.198 137.301 62.198H137.013C134.223 62.198 133.071 60.686 133.071 59.03V58.958C133.071 57.23 134.169 56.168 137.553 55.88L140.289 55.646C140.847 55.592 141.045 55.412 141.045 54.998C141.045 54.53 140.901 54.026 138.957 54.026C137.121 54.026 136.941 54.746 136.941 55.124H133.341V55.088C133.341 54.098 133.737 51.776 138.651 51.776H139.209C144.159 51.776 144.465 53.81 144.465 55.142V58.436C144.465 59.066 144.591 59.318 145.293 59.318H145.671V62H142.827C141.783 62 141.297 61.262 141.153 60.614Z" fill="url(#paint0_linear_2016_574)"/>
<path d="M11.808 14L5.364 7.7V14H1.656V0.608H5.364V6.116L11.628 0.608H16.344L9.288 6.746L16.65 14H11.808ZM22.3283 12.002C24.3803 12.002 25.0823 10.706 25.0823 9.95V9.176C24.7763 9.302 23.8943 9.482 22.8863 9.644C21.1943 9.932 20.6543 10.166 20.6543 10.868V10.904C20.6543 11.534 21.1043 12.002 22.3283 12.002ZM25.1903 12.614C24.7583 13.136 23.6783 14.198 21.3383 14.198H21.0503C18.2603 14.198 17.1083 12.686 17.1083 11.03V10.958C17.1083 9.23 18.2063 8.168 21.5903 7.88L24.3263 7.646C24.8843 7.592 25.0823 7.412 25.0823 6.998C25.0823 6.53 24.9383 6.026 22.9943 6.026C21.1583 6.026 20.9783 6.746 20.9783 7.124H17.3783V7.088C17.3783 6.098 17.7743 3.776 22.6883 3.776H23.2463C28.1963 3.776 28.5023 5.81 28.5023 7.142V10.436C28.5023 11.066 28.6283 11.318 29.3303 11.318H29.7083V14H26.8643C25.8203 14 25.3343 13.262 25.1903 12.614ZM40.89 9.014V8.96C40.89 7.88 40.386 6.422 38.19 6.422H38.01C35.904 6.422 35.238 7.808 35.238 8.96V9.014C35.238 10.112 35.904 11.552 38.01 11.552H38.19C40.386 11.552 40.89 10.04 40.89 9.014ZM31.746 17.438V4.01H35.22V5.288C35.652 4.82 36.966 3.812 39.234 3.812H39.468C43.284 3.812 44.526 6.422 44.526 8.798V9.104C44.526 11.282 43.248 14.198 39.45 14.198H39.198C36.912 14.198 35.688 13.154 35.256 12.722V17.438H31.746ZM46.9678 14V4.01H58.5238V14H55.0138V6.674H50.4778V14H46.9678ZM67.6986 14.27H67.1406C61.7586 14.27 60.9306 10.994 60.9306 9.176V8.924C60.9306 7.124 61.7586 3.74 67.1226 3.74H67.7166C73.2606 3.74 73.9086 7.142 73.9086 8.906V9.194C73.9086 10.994 73.2606 14.27 67.6986 14.27ZM67.3206 11.642H67.5186C69.7326 11.642 70.2906 10.058 70.2906 8.96C70.2906 7.826 69.7326 6.314 67.5186 6.314H67.3206C65.0166 6.314 64.5486 7.826 64.5486 8.96C64.5486 10.058 65.0166 11.642 67.3206 11.642ZM84.5672 14H76.3232V4.01H84.2072C86.4932 4.01 87.9332 4.82 87.9332 6.404V6.494C87.9332 7.736 87.1412 8.474 85.9352 8.672C87.1592 8.816 88.2572 9.68 88.2572 11.12V11.192C88.2572 13.01 87.0692 14 84.5672 14ZM79.8332 7.988H83.0552C83.9012 7.988 84.3332 7.664 84.3332 7.034V6.944C84.3332 6.368 83.9372 6.026 83.0552 6.026H79.8332V7.988ZM79.8332 11.984H83.1992C84.1352 11.984 84.6572 11.678 84.6572 10.976V10.832C84.6572 10.202 84.2252 9.806 83.1992 9.806H79.8332V11.984ZM95.3303 12.002C97.3823 12.002 98.0843 10.706 98.0843 9.95V9.176C97.7783 9.302 96.8963 9.482 95.8883 9.644C94.1963 9.932 93.6562 10.166 93.6562 10.868V10.904C93.6562 11.534 94.1063 12.002 95.3303 12.002ZM98.1923 12.614C97.7603 13.136 96.6803 14.198 94.3403 14.198H94.0523C91.2623 14.198 90.1103 12.686 90.1103 11.03V10.958C90.1103 9.23 91.2083 8.168 94.5923 7.88L97.3283 7.646C97.8863 7.592 98.0843 7.412 98.0843 6.998C98.0843 6.53 97.9403 6.026 95.9963 6.026C94.1603 6.026 93.9803 6.746 93.9803 7.124H90.3803V7.088C90.3803 6.098 90.7763 3.776 95.6903 3.776H96.2483C101.198 3.776 101.504 5.81 101.504 7.142V10.436C101.504 11.066 101.63 11.318 102.332 11.318H102.71V14H99.8663C98.8223 14 98.3363 13.262 98.1923 12.614ZM1.656 38V24.608H11.43C15.264 24.608 16.218 26.282 16.218 27.776V27.974C16.218 29.666 14.76 30.476 13.752 30.62C15.264 30.872 16.884 31.772 16.884 33.932V34.13C16.884 35.948 15.786 38 11.484 38H1.656ZM10.89 27.398H5.364V29.792H10.89C12.024 29.792 12.348 29.252 12.348 28.622V28.586C12.348 27.938 11.988 27.398 10.89 27.398ZM11.178 32.42H5.364V35.066H11.178C12.474 35.066 12.852 34.382 12.852 33.716V33.644C12.852 32.978 12.474 32.42 11.178 32.42ZM27.4722 38V30.674H23.5122C23.5122 33.356 23.4222 34.85 23.0802 35.768C22.7022 36.776 22.1982 38 19.5522 38H18.4542V35.39H18.6702C19.3002 35.39 19.7682 35.174 19.9662 34.256C20.1102 33.482 20.1642 32.636 20.1642 28.01H30.9822V38H27.4722ZM38.6056 36.002C40.6576 36.002 41.3596 34.706 41.3596 33.95V33.176C41.0536 33.302 40.1716 33.482 39.1636 33.644C37.4716 33.932 36.9316 34.166 36.9316 34.868V34.904C36.9316 35.534 37.3816 36.002 38.6056 36.002ZM41.4676 36.614C41.0356 37.136 39.9556 38.198 37.6156 38.198H37.3276C34.5376 38.198 33.3856 36.686 33.3856 35.03V34.958C33.3856 33.23 34.4836 32.168 37.8676 31.88L40.6036 31.646C41.1616 31.592 41.3596 31.412 41.3596 30.998C41.3596 30.53 41.2156 30.026 39.2716 30.026C37.4356 30.026 37.2556 30.746 37.2556 31.124H33.6556V31.088C33.6556 30.098 34.0516 27.776 38.9656 27.776H39.5236C44.4736 27.776 44.7796 29.81 44.7796 31.142V34.436C44.7796 35.066 44.9056 35.318 45.6076 35.318H45.9856V38H43.1416C42.0976 38 41.6116 37.262 41.4676 36.614ZM47.5109 40.124V35.336H48.7169C49.4009 33.968 49.5089 30.998 49.5989 28.01H60.1649V35.336H61.9649V40.124H58.6349V38H50.8409V40.124H47.5109ZM52.0289 35.336H56.6549V30.674H52.7489C52.6949 31.97 52.5149 33.95 52.0289 35.336ZM72.4777 31.952L67.6537 38H64.0537V28.01H67.5637V34.058L72.3877 28.01H75.9877V38H72.4777V31.952ZM87.2592 34.076H90.9312C90.9312 35.588 90.0312 38.27 85.2252 38.27H84.3432C79.3572 38.27 78.4212 35.03 78.4212 33.14V32.888C78.4212 30.998 79.3032 27.74 84.3252 27.74H85.1532C89.9772 27.74 90.9312 30.368 90.9312 31.808V31.826H87.2592C87.2052 31.538 86.8632 30.296 84.7932 30.296H84.6132C82.5432 30.296 82.0572 31.718 82.0572 32.924V32.942C82.0572 34.184 82.6512 35.66 84.6852 35.66H84.8652C86.9532 35.66 87.2592 34.31 87.2592 34.076ZM101.336 38V30.674H97.3755C97.3755 33.356 97.2855 34.85 96.9435 35.768C96.5655 36.776 96.0615 38 93.4155 38H92.3175V35.39H92.5335C93.1635 35.39 93.6315 35.174 93.8295 34.256C93.9735 33.482 94.0275 32.636 94.0275 28.01H104.846V38H101.336ZM112.469 36.002C114.521 36.002 115.223 34.706 115.223 33.95V33.176C114.917 33.302 114.035 33.482 113.027 33.644C111.335 33.932 110.795 34.166 110.795 34.868V34.904C110.795 35.534 111.245 36.002 112.469 36.002ZM115.331 36.614C114.899 37.136 113.819 38.198 111.479 38.198H111.191C108.401 38.198 107.249 36.686 107.249 35.03V34.958C107.249 33.23 108.347 32.168 111.731 31.88L114.467 31.646C115.025 31.592 115.223 31.412 115.223 30.998C115.223 30.53 115.079 30.026 113.135 30.026C111.299 30.026 111.119 30.746 111.119 31.124H107.519V31.088C107.519 30.098 107.915 27.776 112.829 27.776H113.387C118.337 27.776 118.643 29.81 118.643 31.142V34.436C118.643 35.066 118.769 35.318 119.471 35.318H119.849V38H117.005C115.961 38 115.475 37.262 115.331 36.614ZM130.095 38H121.851V28.01H129.735C132.021 28.01 133.461 28.82 133.461 30.404V30.494C133.461 31.736 132.669 32.474 131.463 32.672C132.687 32.816 133.785 33.68 133.785 35.12V35.192C133.785 37.01 132.597 38 130.095 38ZM125.361 31.988H128.583C129.429 31.988 129.861 31.664 129.861 31.034V30.944C129.861 30.368 129.465 30.026 128.583 30.026H125.361V31.988ZM125.361 35.984H128.727C129.663 35.984 130.185 35.678 130.185 34.976V34.832C130.185 34.202 129.753 33.806 128.727 33.806H125.361V35.984ZM140.858 36.002C142.91 36.002 143.612 34.706 143.612 33.95V33.176C143.306 33.302 142.424 33.482 141.416 33.644C139.724 33.932 139.184 34.166 139.184 34.868V34.904C139.184 35.534 139.634 36.002 140.858 36.002ZM143.72 36.614C143.288 37.136 142.208 38.198 139.868 38.198H139.58C136.79 38.198 135.638 36.686 135.638 35.03V34.958C135.638 33.23 136.736 32.168 140.12 31.88L142.856 31.646C143.414 31.592 143.612 31.412 143.612 30.998C143.612 30.53 143.468 30.026 141.524 30.026C139.688 30.026 139.508 30.746 139.508 31.124H135.908V31.088C135.908 30.098 136.304 27.776 141.218 27.776H141.776C146.726 27.776 147.032 29.81 147.032 31.142V34.436C147.032 35.066 147.158 35.318 147.86 35.318H148.238V38H145.394C144.35 38 143.864 37.262 143.72 36.614ZM10.998 56.762L8.568 51.308L6.21 56.762H10.998ZM13.338 62L12.24 59.516H5.004L3.924 62H0.198L6.138 48.608H11.106L17.316 62H13.338ZM27.1558 62V54.674H23.1958C23.1958 57.356 23.1058 58.85 22.7638 59.768C22.3858 60.776 21.8818 62 19.2358 62H18.1378V59.39H18.3538C18.9838 59.39 19.4518 59.174 19.6498 58.256C19.7938 57.482 19.8478 56.636 19.8478 52.01H30.6658V62H27.1558ZM39.3872 54.08C37.5692 54.08 36.8852 54.818 36.7052 55.862H41.9972C41.9972 55.124 41.6372 54.08 39.3872 54.08ZM42.0692 58.886H45.7232C45.7232 59.714 45.0752 62.234 39.9092 62.234H39.2432C34.3112 62.234 33.0872 59.534 33.0872 57.14V56.888C33.0872 54.638 34.2032 51.794 38.9372 51.794H39.7292C44.8412 51.794 45.7592 54.638 45.7592 57.428V57.752H36.6692C36.8132 58.904 37.5512 59.84 39.6932 59.84C41.7272 59.84 41.9792 59.048 42.0692 58.886ZM55.5971 62L51.7091 57.374V62H48.1991V52.01H51.7091V56.006L55.2731 52.01H59.3231L55.1471 56.492L59.7731 62H55.5971ZM69.1186 58.076H72.7906C72.7906 59.588 71.8906 62.27 67.0846 62.27H66.2026C61.2166 62.27 60.2806 59.03 60.2806 57.14V56.888C60.2806 54.998 61.1626 51.74 66.1846 51.74H67.0126C71.8366 51.74 72.7906 54.368 72.7906 55.808V55.826H69.1186C69.0646 55.538 68.7226 54.296 66.6526 54.296H66.4726C64.4026 54.296 63.9166 55.718 63.9166 56.924V56.942C63.9166 58.184 64.5106 59.66 66.5446 59.66H66.7246C68.8126 59.66 69.1186 58.31 69.1186 58.076ZM80.9947 54.08C79.1767 54.08 78.4927 54.818 78.3127 55.862H83.6047C83.6047 55.124 83.2447 54.08 80.9947 54.08ZM83.6767 58.886H87.3307C87.3307 59.714 86.6827 62.234 81.5167 62.234H80.8507C75.9187 62.234 74.6947 59.534 74.6947 57.14V56.888C74.6947 54.638 75.8107 51.794 80.5447 51.794H81.3367C86.4487 51.794 87.3667 54.638 87.3667 57.428V57.752H78.2767C78.4207 58.904 79.1587 59.84 81.3007 59.84C83.3347 59.84 83.5867 59.048 83.6767 58.886ZM95.5845 54.08C93.7665 54.08 93.0825 54.818 92.9025 55.862H98.1945C98.1945 55.124 97.8345 54.08 95.5845 54.08ZM98.2665 58.886H101.921C101.921 59.714 101.273 62.234 96.1065 62.234H95.4405C90.5085 62.234 89.2845 59.534 89.2845 57.14V56.888C89.2845 54.638 90.4005 51.794 95.1345 51.794H95.9265C101.039 51.794 101.957 54.638 101.957 57.428V57.752H92.8665C93.0105 58.904 93.7485 59.84 95.8905 59.84C97.9245 59.84 98.1765 59.048 98.2665 58.886ZM112.604 62H104.36V52.01H112.244C114.53 52.01 115.97 52.82 115.97 54.404V54.494C115.97 55.736 115.178 56.474 113.972 56.672C115.196 56.816 116.294 57.68 116.294 59.12V59.192C116.294 61.01 115.106 62 112.604 62ZM107.87 55.988H111.092C111.938 55.988 112.37 55.664 112.37 55.034V54.944C112.37 54.368 111.974 54.026 111.092 54.026H107.87V55.988ZM107.87 59.984H111.236C112.172 59.984 112.694 59.678 112.694 58.976V58.832C112.694 58.202 112.262 57.806 111.236 57.806H107.87V59.984ZM122.249 62H118.739V52.01H122.249V55.646H127.145V52.01H130.655V62H127.145V58.31H122.249V62ZM138.291 60.002C140.343 60.002 141.045 58.706 141.045 57.95V57.176C140.739 57.302 139.857 57.482 138.849 57.644C137.157 57.932 136.617 58.166 136.617 58.868V58.904C136.617 59.534 137.067 60.002 138.291 60.002ZM141.153 60.614C140.721 61.136 139.641 62.198 137.301 62.198H137.013C134.223 62.198 133.071 60.686 133.071 59.03V58.958C133.071 57.23 134.169 56.168 137.553 55.88L140.289 55.646C140.847 55.592 141.045 55.412 141.045 54.998C141.045 54.53 140.901 54.026 138.957 54.026C137.121 54.026 136.941 54.746 136.941 55.124H133.341V55.088C133.341 54.098 133.737 51.776 138.651 51.776H139.209C144.159 51.776 144.465 53.81 144.465 55.142V58.436C144.465 59.066 144.591 59.318 145.293 59.318H145.671V62H142.827C141.783 62 141.297 61.262 141.153 60.614Z" fill="url(#paint1_radial_2016_574)" style="mix-blend-mode:overlay"/>
<path d="M11.808 14L5.364 7.7V14H1.656V0.608H5.364V6.116L11.628 0.608H16.344L9.288 6.746L16.65 14H11.808ZM22.3283 12.002C24.3803 12.002 25.0823 10.706 25.0823 9.95V9.176C24.7763 9.302 23.8943 9.482 22.8863 9.644C21.1943 9.932 20.6543 10.166 20.6543 10.868V10.904C20.6543 11.534 21.1043 12.002 22.3283 12.002ZM25.1903 12.614C24.7583 13.136 23.6783 14.198 21.3383 14.198H21.0503C18.2603 14.198 17.1083 12.686 17.1083 11.03V10.958C17.1083 9.23 18.2063 8.168 21.5903 7.88L24.3263 7.646C24.8843 7.592 25.0823 7.412 25.0823 6.998C25.0823 6.53 24.9383 6.026 22.9943 6.026C21.1583 6.026 20.9783 6.746 20.9783 7.124H17.3783V7.088C17.3783 6.098 17.7743 3.776 22.6883 3.776H23.2463C28.1963 3.776 28.5023 5.81 28.5023 7.142V10.436C28.5023 11.066 28.6283 11.318 29.3303 11.318H29.7083V14H26.8643C25.8203 14 25.3343 13.262 25.1903 12.614ZM40.89 9.014V8.96C40.89 7.88 40.386 6.422 38.19 6.422H38.01C35.904 6.422 35.238 7.808 35.238 8.96V9.014C35.238 10.112 35.904 11.552 38.01 11.552H38.19C40.386 11.552 40.89 10.04 40.89 9.014ZM31.746 17.438V4.01H35.22V5.288C35.652 4.82 36.966 3.812 39.234 3.812H39.468C43.284 3.812 44.526 6.422 44.526 8.798V9.104C44.526 11.282 43.248 14.198 39.45 14.198H39.198C36.912 14.198 35.688 13.154 35.256 12.722V17.438H31.746ZM46.9678 14V4.01H58.5238V14H55.0138V6.674H50.4778V14H46.9678ZM67.6986 14.27H67.1406C61.7586 14.27 60.9306 10.994 60.9306 9.176V8.924C60.9306 7.124 61.7586 3.74 67.1226 3.74H67.7166C73.2606 3.74 73.9086 7.142 73.9086 8.906V9.194C73.9086 10.994 73.2606 14.27 67.6986 14.27ZM67.3206 11.642H67.5186C69.7326 11.642 70.2906 10.058 70.2906 8.96C70.2906 7.826 69.7326 6.314 67.5186 6.314H67.3206C65.0166 6.314 64.5486 7.826 64.5486 8.96C64.5486 10.058 65.0166 11.642 67.3206 11.642ZM84.5672 14H76.3232V4.01H84.2072C86.4932 4.01 87.9332 4.82 87.9332 6.404V6.494C87.9332 7.736 87.1412 8.474 85.9352 8.672C87.1592 8.816 88.2572 9.68 88.2572 11.12V11.192C88.2572 13.01 87.0692 14 84.5672 14ZM79.8332 7.988H83.0552C83.9012 7.988 84.3332 7.664 84.3332 7.034V6.944C84.3332 6.368 83.9372 6.026 83.0552 6.026H79.8332V7.988ZM79.8332 11.984H83.1992C84.1352 11.984 84.6572 11.678 84.6572 10.976V10.832C84.6572 10.202 84.2252 9.806 83.1992 9.806H79.8332V11.984ZM95.3303 12.002C97.3823 12.002 98.0843 10.706 98.0843 9.95V9.176C97.7783 9.302 96.8963 9.482 95.8883 9.644C94.1963 9.932 93.6562 10.166 93.6562 10.868V10.904C93.6562 11.534 94.1063 12.002 95.3303 12.002ZM98.1923 12.614C97.7603 13.136 96.6803 14.198 94.3403 14.198H94.0523C91.2623 14.198 90.1103 12.686 90.1103 11.03V10.958C90.1103 9.23 91.2083 8.168 94.5923 7.88L97.3283 7.646C97.8863 7.592 98.0843 7.412 98.0843 6.998C98.0843 6.53 97.9403 6.026 95.9963 6.026C94.1603 6.026 93.9803 6.746 93.9803 7.124H90.3803V7.088C90.3803 6.098 90.7763 3.776 95.6903 3.776H96.2483C101.198 3.776 101.504 5.81 101.504 7.142V10.436C101.504 11.066 101.63 11.318 102.332 11.318H102.71V14H99.8663C98.8223 14 98.3363 13.262 98.1923 12.614ZM1.656 38V24.608H11.43C15.264 24.608 16.218 26.282 16.218 27.776V27.974C16.218 29.666 14.76 30.476 13.752 30.62C15.264 30.872 16.884 31.772 16.884 33.932V34.13C16.884 35.948 15.786 38 11.484 38H1.656ZM10.89 27.398H5.364V29.792H10.89C12.024 29.792 12.348 29.252 12.348 28.622V28.586C12.348 27.938 11.988 27.398 10.89 27.398ZM11.178 32.42H5.364V35.066H11.178C12.474 35.066 12.852 34.382 12.852 33.716V33.644C12.852 32.978 12.474 32.42 11.178 32.42ZM27.4722 38V30.674H23.5122C23.5122 33.356 23.4222 34.85 23.0802 35.768C22.7022 36.776 22.1982 38 19.5522 38H18.4542V35.39H18.6702C19.3002 35.39 19.7682 35.174 19.9662 34.256C20.1102 33.482 20.1642 32.636 20.1642 28.01H30.9822V38H27.4722ZM38.6056 36.002C40.6576 36.002 41.3596 34.706 41.3596 33.95V33.176C41.0536 33.302 40.1716 33.482 39.1636 33.644C37.4716 33.932 36.9316 34.166 36.9316 34.868V34.904C36.9316 35.534 37.3816 36.002 38.6056 36.002ZM41.4676 36.614C41.0356 37.136 39.9556 38.198 37.6156 38.198H37.3276C34.5376 38.198 33.3856 36.686 33.3856 35.03V34.958C33.3856 33.23 34.4836 32.168 37.8676 31.88L40.6036 31.646C41.1616 31.592 41.3596 31.412 41.3596 30.998C41.3596 30.53 41.2156 30.026 39.2716 30.026C37.4356 30.026 37.2556 30.746 37.2556 31.124H33.6556V31.088C33.6556 30.098 34.0516 27.776 38.9656 27.776H39.5236C44.4736 27.776 44.7796 29.81 44.7796 31.142V34.436C44.7796 35.066 44.9056 35.318 45.6076 35.318H45.9856V38H43.1416C42.0976 38 41.6116 37.262 41.4676 36.614ZM47.5109 40.124V35.336H48.7169C49.4009 33.968 49.5089 30.998 49.5989 28.01H60.1649V35.336H61.9649V40.124H58.6349V38H50.8409V40.124H47.5109ZM52.0289 35.336H56.6549V30.674H52.7489C52.6949 31.97 52.5149 33.95 52.0289 35.336ZM72.4777 31.952L67.6537 38H64.0537V28.01H67.5637V34.058L72.3877 28.01H75.9877V38H72.4777V31.952ZM87.2592 34.076H90.9312C90.9312 35.588 90.0312 38.27 85.2252 38.27H84.3432C79.3572 38.27 78.4212 35.03 78.4212 33.14V32.888C78.4212 30.998 79.3032 27.74 84.3252 27.74H85.1532C89.9772 27.74 90.9312 30.368 90.9312 31.808V31.826H87.2592C87.2052 31.538 86.8632 30.296 84.7932 30.296H84.6132C82.5432 30.296 82.0572 31.718 82.0572 32.924V32.942C82.0572 34.184 82.6512 35.66 84.6852 35.66H84.8652C86.9532 35.66 87.2592 34.31 87.2592 34.076ZM101.336 38V30.674H97.3755C97.3755 33.356 97.2855 34.85 96.9435 35.768C96.5655 36.776 96.0615 38 93.4155 38H92.3175V35.39H92.5335C93.1635 35.39 93.6315 35.174 93.8295 34.256C93.9735 33.482 94.0275 32.636 94.0275 28.01H104.846V38H101.336ZM112.469 36.002C114.521 36.002 115.223 34.706 115.223 33.95V33.176C114.917 33.302 114.035 33.482 113.027 33.644C111.335 33.932 110.795 34.166 110.795 34.868V34.904C110.795 35.534 111.245 36.002 112.469 36.002ZM115.331 36.614C114.899 37.136 113.819 38.198 111.479 38.198H111.191C108.401 38.198 107.249 36.686 107.249 35.03V34.958C107.249 33.23 108.347 32.168 111.731 31.88L114.467 31.646C115.025 31.592 115.223 31.412 115.223 30.998C115.223 30.53 115.079 30.026 113.135 30.026C111.299 30.026 111.119 30.746 111.119 31.124H107.519V31.088C107.519 30.098 107.915 27.776 112.829 27.776H113.387C118.337 27.776 118.643 29.81 118.643 31.142V34.436C118.643 35.066 118.769 35.318 119.471 35.318H119.849V38H117.005C115.961 38 115.475 37.262 115.331 36.614ZM130.095 38H121.851V28.01H129.735C132.021 28.01 133.461 28.82 133.461 30.404V30.494C133.461 31.736 132.669 32.474 131.463 32.672C132.687 32.816 133.785 33.68 133.785 35.12V35.192C133.785 37.01 132.597 38 130.095 38ZM125.361 31.988H128.583C129.429 31.988 129.861 31.664 129.861 31.034V30.944C129.861 30.368 129.465 30.026 128.583 30.026H125.361V31.988ZM125.361 35.984H128.727C129.663 35.984 130.185 35.678 130.185 34.976V34.832C130.185 34.202 129.753 33.806 128.727 33.806H125.361V35.984ZM140.858 36.002C142.91 36.002 143.612 34.706 143.612 33.95V33.176C143.306 33.302 142.424 33.482 141.416 33.644C139.724 33.932 139.184 34.166 139.184 34.868V34.904C139.184 35.534 139.634 36.002 140.858 36.002ZM143.72 36.614C143.288 37.136 142.208 38.198 139.868 38.198H139.58C136.79 38.198 135.638 36.686 135.638 35.03V34.958C135.638 33.23 136.736 32.168 140.12 31.88L142.856 31.646C143.414 31.592 143.612 31.412 143.612 30.998C143.612 30.53 143.468 30.026 141.524 30.026C139.688 30.026 139.508 30.746 139.508 31.124H135.908V31.088C135.908 30.098 136.304 27.776 141.218 27.776H141.776C146.726 27.776 147.032 29.81 147.032 31.142V34.436C147.032 35.066 147.158 35.318 147.86 35.318H148.238V38H145.394C144.35 38 143.864 37.262 143.72 36.614ZM10.998 56.762L8.568 51.308L6.21 56.762H10.998ZM13.338 62L12.24 59.516H5.004L3.924 62H0.198L6.138 48.608H11.106L17.316 62H13.338ZM27.1558 62V54.674H23.1958C23.1958 57.356 23.1058 58.85 22.7638 59.768C22.3858 60.776 21.8818 62 19.2358 62H18.1378V59.39H18.3538C18.9838 59.39 19.4518 59.174 19.6498 58.256C19.7938 57.482 19.8478 56.636 19.8478 52.01H30.6658V62H27.1558ZM39.3872 54.08C37.5692 54.08 36.8852 54.818 36.7052 55.862H41.9972C41.9972 55.124 41.6372 54.08 39.3872 54.08ZM42.0692 58.886H45.7232C45.7232 59.714 45.0752 62.234 39.9092 62.234H39.2432C34.3112 62.234 33.0872 59.534 33.0872 57.14V56.888C33.0872 54.638 34.2032 51.794 38.9372 51.794H39.7292C44.8412 51.794 45.7592 54.638 45.7592 57.428V57.752H36.6692C36.8132 58.904 37.5512 59.84 39.6932 59.84C41.7272 59.84 41.9792 59.048 42.0692 58.886ZM55.5971 62L51.7091 57.374V62H48.1991V52.01H51.7091V56.006L55.2731 52.01H59.3231L55.1471 56.492L59.7731 62H55.5971ZM69.1186 58.076H72.7906C72.7906 59.588 71.8906 62.27 67.0846 62.27H66.2026C61.2166 62.27 60.2806 59.03 60.2806 57.14V56.888C60.2806 54.998 61.1626 51.74 66.1846 51.74H67.0126C71.8366 51.74 72.7906 54.368 72.7906 55.808V55.826H69.1186C69.0646 55.538 68.7226 54.296 66.6526 54.296H66.4726C64.4026 54.296 63.9166 55.718 63.9166 56.924V56.942C63.9166 58.184 64.5106 59.66 66.5446 59.66H66.7246C68.8126 59.66 69.1186 58.31 69.1186 58.076ZM80.9947 54.08C79.1767 54.08 78.4927 54.818 78.3127 55.862H83.6047C83.6047 55.124 83.2447 54.08 80.9947 54.08ZM83.6767 58.886H87.3307C87.3307 59.714 86.6827 62.234 81.5167 62.234H80.8507C75.9187 62.234 74.6947 59.534 74.6947 57.14V56.888C74.6947 54.638 75.8107 51.794 80.5447 51.794H81.3367C86.4487 51.794 87.3667 54.638 87.3667 57.428V57.752H78.2767C78.4207 58.904 79.1587 59.84 81.3007 59.84C83.3347 59.84 83.5867 59.048 83.6767 58.886ZM95.5845 54.08C93.7665 54.08 93.0825 54.818 92.9025 55.862H98.1945C98.1945 55.124 97.8345 54.08 95.5845 54.08ZM98.2665 58.886H101.921C101.921 59.714 101.273 62.234 96.1065 62.234H95.4405C90.5085 62.234 89.2845 59.534 89.2845 57.14V56.888C89.2845 54.638 90.4005 51.794 95.1345 51.794H95.9265C101.039 51.794 101.957 54.638 101.957 57.428V57.752H92.8665C93.0105 58.904 93.7485 59.84 95.8905 59.84C97.9245 59.84 98.1765 59.048 98.2665 58.886ZM112.604 62H104.36V52.01H112.244C114.53 52.01 115.97 52.82 115.97 54.404V54.494C115.97 55.736 115.178 56.474 113.972 56.672C115.196 56.816 116.294 57.68 116.294 59.12V59.192C116.294 61.01 115.106 62 112.604 62ZM107.87 55.988H111.092C111.938 55.988 112.37 55.664 112.37 55.034V54.944C112.37 54.368 111.974 54.026 111.092 54.026H107.87V55.988ZM107.87 59.984H111.236C112.172 59.984 112.694 59.678 112.694 58.976V58.832C112.694 58.202 112.262 57.806 111.236 57.806H107.87V59.984ZM122.249 62H118.739V52.01H122.249V55.646H127.145V52.01H130.655V62H127.145V58.31H122.249V62ZM138.291 60.002C140.343 60.002 141.045 58.706 141.045 57.95V57.176C140.739 57.302 139.857 57.482 138.849 57.644C137.157 57.932 136.617 58.166 136.617 58.868V58.904C136.617 59.534 137.067 60.002 138.291 60.002ZM141.153 60.614C140.721 61.136 139.641 62.198 137.301 62.198H137.013C134.223 62.198 133.071 60.686 133.071 59.03V58.958C133.071 57.23 134.169 56.168 137.553 55.88L140.289 55.646C140.847 55.592 141.045 55.412 141.045 54.998C141.045 54.53 140.901 54.026 138.957 54.026C137.121 54.026 136.941 54.746 136.941 55.124H133.341V55.088C133.341 54.098 133.737 51.776 138.651 51.776H139.209C144.159 51.776 144.465 53.81 144.465 55.142V58.436C144.465 59.066 144.591 59.318 145.293 59.318H145.671V62H142.827C141.783 62 141.297 61.262 141.153 60.614Z" fill="url(#paint2_radial_2016_574)"/>
<path d="M11.808 14L5.364 7.7V14H1.656V0.608H5.364V6.116L11.628 0.608H16.344L9.288 6.746L16.65 14H11.808ZM22.3283 12.002C24.3803 12.002 25.0823 10.706 25.0823 9.95V9.176C24.7763 9.302 23.8943 9.482 22.8863 9.644C21.1943 9.932 20.6543 10.166 20.6543 10.868V10.904C20.6543 11.534 21.1043 12.002 22.3283 12.002ZM25.1903 12.614C24.7583 13.136 23.6783 14.198 21.3383 14.198H21.0503C18.2603 14.198 17.1083 12.686 17.1083 11.03V10.958C17.1083 9.23 18.2063 8.168 21.5903 7.88L24.3263 7.646C24.8843 7.592 25.0823 7.412 25.0823 6.998C25.0823 6.53 24.9383 6.026 22.9943 6.026C21.1583 6.026 20.9783 6.746 20.9783 7.124H17.3783V7.088C17.3783 6.098 17.7743 3.776 22.6883 3.776H23.2463C28.1963 3.776 28.5023 5.81 28.5023 7.142V10.436C28.5023 11.066 28.6283 11.318 29.3303 11.318H29.7083V14H26.8643C25.8203 14 25.3343 13.262 25.1903 12.614ZM40.89 9.014V8.96C40.89 7.88 40.386 6.422 38.19 6.422H38.01C35.904 6.422 35.238 7.808 35.238 8.96V9.014C35.238 10.112 35.904 11.552 38.01 11.552H38.19C40.386 11.552 40.89 10.04 40.89 9.014ZM31.746 17.438V4.01H35.22V5.288C35.652 4.82 36.966 3.812 39.234 3.812H39.468C43.284 3.812 44.526 6.422 44.526 8.798V9.104C44.526 11.282 43.248 14.198 39.45 14.198H39.198C36.912 14.198 35.688 13.154 35.256 12.722V17.438H31.746ZM46.9678 14V4.01H58.5238V14H55.0138V6.674H50.4778V14H46.9678ZM67.6986 14.27H67.1406C61.7586 14.27 60.9306 10.994 60.9306 9.176V8.924C60.9306 7.124 61.7586 3.74 67.1226 3.74H67.7166C73.2606 3.74 73.9086 7.142 73.9086 8.906V9.194C73.9086 10.994 73.2606 14.27 67.6986 14.27ZM67.3206 11.642H67.5186C69.7326 11.642 70.2906 10.058 70.2906 8.96C70.2906 7.826 69.7326 6.314 67.5186 6.314H67.3206C65.0166 6.314 64.5486 7.826 64.5486 8.96C64.5486 10.058 65.0166 11.642 67.3206 11.642ZM84.5672 14H76.3232V4.01H84.2072C86.4932 4.01 87.9332 4.82 87.9332 6.404V6.494C87.9332 7.736 87.1412 8.474 85.9352 8.672C87.1592 8.816 88.2572 9.68 88.2572 11.12V11.192C88.2572 13.01 87.0692 14 84.5672 14ZM79.8332 7.988H83.0552C83.9012 7.988 84.3332 7.664 84.3332 7.034V6.944C84.3332 6.368 83.9372 6.026 83.0552 6.026H79.8332V7.988ZM79.8332 11.984H83.1992C84.1352 11.984 84.6572 11.678 84.6572 10.976V10.832C84.6572 10.202 84.2252 9.806 83.1992 9.806H79.8332V11.984ZM95.3303 12.002C97.3823 12.002 98.0843 10.706 98.0843 9.95V9.176C97.7783 9.302 96.8963 9.482 95.8883 9.644C94.1963 9.932 93.6562 10.166 93.6562 10.868V10.904C93.6562 11.534 94.1063 12.002 95.3303 12.002ZM98.1923 12.614C97.7603 13.136 96.6803 14.198 94.3403 14.198H94.0523C91.2623 14.198 90.1103 12.686 90.1103 11.03V10.958C90.1103 9.23 91.2083 8.168 94.5923 7.88L97.3283 7.646C97.8863 7.592 98.0843 7.412 98.0843 6.998C98.0843 6.53 97.9403 6.026 95.9963 6.026C94.1603 6.026 93.9803 6.746 93.9803 7.124H90.3803V7.088C90.3803 6.098 90.7763 3.776 95.6903 3.776H96.2483C101.198 3.776 101.504 5.81 101.504 7.142V10.436C101.504 11.066 101.63 11.318 102.332 11.318H102.71V14H99.8663C98.8223 14 98.3363 13.262 98.1923 12.614ZM1.656 38V24.608H11.43C15.264 24.608 16.218 26.282 16.218 27.776V27.974C16.218 29.666 14.76 30.476 13.752 30.62C15.264 30.872 16.884 31.772 16.884 33.932V34.13C16.884 35.948 15.786 38 11.484 38H1.656ZM10.89 27.398H5.364V29.792H10.89C12.024 29.792 12.348 29.252 12.348 28.622V28.586C12.348 27.938 11.988 27.398 10.89 27.398ZM11.178 32.42H5.364V35.066H11.178C12.474 35.066 12.852 34.382 12.852 33.716V33.644C12.852 32.978 12.474 32.42 11.178 32.42ZM27.4722 38V30.674H23.5122C23.5122 33.356 23.4222 34.85 23.0802 35.768C22.7022 36.776 22.1982 38 19.5522 38H18.4542V35.39H18.6702C19.3002 35.39 19.7682 35.174 19.9662 34.256C20.1102 33.482 20.1642 32.636 20.1642 28.01H30.9822V38H27.4722ZM38.6056 36.002C40.6576 36.002 41.3596 34.706 41.3596 33.95V33.176C41.0536 33.302 40.1716 33.482 39.1636 33.644C37.4716 33.932 36.9316 34.166 36.9316 34.868V34.904C36.9316 35.534 37.3816 36.002 38.6056 36.002ZM41.4676 36.614C41.0356 37.136 39.9556 38.198 37.6156 38.198H37.3276C34.5376 38.198 33.3856 36.686 33.3856 35.03V34.958C33.3856 33.23 34.4836 32.168 37.8676 31.88L40.6036 31.646C41.1616 31.592 41.3596 31.412 41.3596 30.998C41.3596 30.53 41.2156 30.026 39.2716 30.026C37.4356 30.026 37.2556 30.746 37.2556 31.124H33.6556V31.088C33.6556 30.098 34.0516 27.776 38.9656 27.776H39.5236C44.4736 27.776 44.7796 29.81 44.7796 31.142V34.436C44.7796 35.066 44.9056 35.318 45.6076 35.318H45.9856V38H43.1416C42.0976 38 41.6116 37.262 41.4676 36.614ZM47.5109 40.124V35.336H48.7169C49.4009 33.968 49.5089 30.998 49.5989 28.01H60.1649V35.336H61.9649V40.124H58.6349V38H50.8409V40.124H47.5109ZM52.0289 35.336H56.6549V30.674H52.7489C52.6949 31.97 52.5149 33.95 52.0289 35.336ZM72.4777 31.952L67.6537 38H64.0537V28.01H67.5637V34.058L72.3877 28.01H75.9877V38H72.4777V31.952ZM87.2592 34.076H90.9312C90.9312 35.588 90.0312 38.27 85.2252 38.27H84.3432C79.3572 38.27 78.4212 35.03 78.4212 33.14V32.888C78.4212 30.998 79.3032 27.74 84.3252 27.74H85.1532C89.9772 27.74 90.9312 30.368 90.9312 31.808V31.826H87.2592C87.2052 31.538 86.8632 30.296 84.7932 30.296H84.6132C82.5432 30.296 82.0572 31.718 82.0572 32.924V32.942C82.0572 34.184 82.6512 35.66 84.6852 35.66H84.8652C86.9532 35.66 87.2592 34.31 87.2592 34.076ZM101.336 38V30.674H97.3755C97.3755 33.356 97.2855 34.85 96.9435 35.768C96.5655 36.776 96.0615 38 93.4155 38H92.3175V35.39H92.5335C93.1635 35.39 93.6315 35.174 93.8295 34.256C93.9735 33.482 94.0275 32.636 94.0275 28.01H104.846V38H101.336ZM112.469 36.002C114.521 36.002 115.223 34.706 115.223 33.95V33.176C114.917 33.302 114.035 33.482 113.027 33.644C111.335 33.932 110.795 34.166 110.795 34.868V34.904C110.795 35.534 111.245 36.002 112.469 36.002ZM115.331 36.614C114.899 37.136 113.819 38.198 111.479 38.198H111.191C108.401 38.198 107.249 36.686 107.249 35.03V34.958C107.249 33.23 108.347 32.168 111.731 31.88L114.467 31.646C115.025 31.592 115.223 31.412 115.223 30.998C115.223 30.53 115.079 30.026 113.135 30.026C111.299 30.026 111.119 30.746 111.119 31.124H107.519V31.088C107.519 30.098 107.915 27.776 112.829 27.776H113.387C118.337 27.776 118.643 29.81 118.643 31.142V34.436C118.643 35.066 118.769 35.318 119.471 35.318H119.849V38H117.005C115.961 38 115.475 37.262 115.331 36.614ZM130.095 38H121.851V28.01H129.735C132.021 28.01 133.461 28.82 133.461 30.404V30.494C133.461 31.736 132.669 32.474 131.463 32.672C132.687 32.816 133.785 33.68 133.785 35.12V35.192C133.785 37.01 132.597 38 130.095 38ZM125.361 31.988H128.583C129.429 31.988 129.861 31.664 129.861 31.034V30.944C129.861 30.368 129.465 30.026 128.583 30.026H125.361V31.988ZM125.361 35.984H128.727C129.663 35.984 130.185 35.678 130.185 34.976V34.832C130.185 34.202 129.753 33.806 128.727 33.806H125.361V35.984ZM140.858 36.002C142.91 36.002 143.612 34.706 143.612 33.95V33.176C143.306 33.302 142.424 33.482 141.416 33.644C139.724 33.932 139.184 34.166 139.184 34.868V34.904C139.184 35.534 139.634 36.002 140.858 36.002ZM143.72 36.614C143.288 37.136 142.208 38.198 139.868 38.198H139.58C136.79 38.198 135.638 36.686 135.638 35.03V34.958C135.638 33.23 136.736 32.168 140.12 31.88L142.856 31.646C143.414 31.592 143.612 31.412 143.612 30.998C143.612 30.53 143.468 30.026 141.524 30.026C139.688 30.026 139.508 30.746 139.508 31.124H135.908V31.088C135.908 30.098 136.304 27.776 141.218 27.776H141.776C146.726 27.776 147.032 29.81 147.032 31.142V34.436C147.032 35.066 147.158 35.318 147.86 35.318H148.238V38H145.394C144.35 38 143.864 37.262 143.72 36.614ZM10.998 56.762L8.568 51.308L6.21 56.762H10.998ZM13.338 62L12.24 59.516H5.004L3.924 62H0.198L6.138 48.608H11.106L17.316 62H13.338ZM27.1558 62V54.674H23.1958C23.1958 57.356 23.1058 58.85 22.7638 59.768C22.3858 60.776 21.8818 62 19.2358 62H18.1378V59.39H18.3538C18.9838 59.39 19.4518 59.174 19.6498 58.256C19.7938 57.482 19.8478 56.636 19.8478 52.01H30.6658V62H27.1558ZM39.3872 54.08C37.5692 54.08 36.8852 54.818 36.7052 55.862H41.9972C41.9972 55.124 41.6372 54.08 39.3872 54.08ZM42.0692 58.886H45.7232C45.7232 59.714 45.0752 62.234 39.9092 62.234H39.2432C34.3112 62.234 33.0872 59.534 33.0872 57.14V56.888C33.0872 54.638 34.2032 51.794 38.9372 51.794H39.7292C44.8412 51.794 45.7592 54.638 45.7592 57.428V57.752H36.6692C36.8132 58.904 37.5512 59.84 39.6932 59.84C41.7272 59.84 41.9792 59.048 42.0692 58.886ZM55.5971 62L51.7091 57.374V62H48.1991V52.01H51.7091V56.006L55.2731 52.01H59.3231L55.1471 56.492L59.7731 62H55.5971ZM69.1186 58.076H72.7906C72.7906 59.588 71.8906 62.27 67.0846 62.27H66.2026C61.2166 62.27 60.2806 59.03 60.2806 57.14V56.888C60.2806 54.998 61.1626 51.74 66.1846 51.74H67.0126C71.8366 51.74 72.7906 54.368 72.7906 55.808V55.826H69.1186C69.0646 55.538 68.7226 54.296 66.6526 54.296H66.4726C64.4026 54.296 63.9166 55.718 63.9166 56.924V56.942C63.9166 58.184 64.5106 59.66 66.5446 59.66H66.7246C68.8126 59.66 69.1186 58.31 69.1186 58.076ZM80.9947 54.08C79.1767 54.08 78.4927 54.818 78.3127 55.862H83.6047C83.6047 55.124 83.2447 54.08 80.9947 54.08ZM83.6767 58.886H87.3307C87.3307 59.714 86.6827 62.234 81.5167 62.234H80.8507C75.9187 62.234 74.6947 59.534 74.6947 57.14V56.888C74.6947 54.638 75.8107 51.794 80.5447 51.794H81.3367C86.4487 51.794 87.3667 54.638 87.3667 57.428V57.752H78.2767C78.4207 58.904 79.1587 59.84 81.3007 59.84C83.3347 59.84 83.5867 59.048 83.6767 58.886ZM95.5845 54.08C93.7665 54.08 93.0825 54.818 92.9025 55.862H98.1945C98.1945 55.124 97.8345 54.08 95.5845 54.08ZM98.2665 58.886H101.921C101.921 59.714 101.273 62.234 96.1065 62.234H95.4405C90.5085 62.234 89.2845 59.534 89.2845 57.14V56.888C89.2845 54.638 90.4005 51.794 95.1345 51.794H95.9265C101.039 51.794 101.957 54.638 101.957 57.428V57.752H92.8665C93.0105 58.904 93.7485 59.84 95.8905 59.84C97.9245 59.84 98.1765 59.048 98.2665 58.886ZM112.604 62H104.36V52.01H112.244C114.53 52.01 115.97 52.82 115.97 54.404V54.494C115.97 55.736 115.178 56.474 113.972 56.672C115.196 56.816 116.294 57.68 116.294 59.12V59.192C116.294 61.01 115.106 62 112.604 62ZM107.87 55.988H111.092C111.938 55.988 112.37 55.664 112.37 55.034V54.944C112.37 54.368 111.974 54.026 111.092 54.026H107.87V55.988ZM107.87 59.984H111.236C112.172 59.984 112.694 59.678 112.694 58.976V58.832C112.694 58.202 112.262 57.806 111.236 57.806H107.87V59.984ZM122.249 62H118.739V52.01H122.249V55.646H127.145V52.01H130.655V62H127.145V58.31H122.249V62ZM138.291 60.002C140.343 60.002 141.045 58.706 141.045 57.95V57.176C140.739 57.302 139.857 57.482 138.849 57.644C137.157 57.932 136.617 58.166 136.617 58.868V58.904C136.617 59.534 137.067 60.002 138.291 60.002ZM141.153 60.614C140.721 61.136 139.641 62.198 137.301 62.198H137.013C134.223 62.198 133.071 60.686 133.071 59.03V58.958C133.071 57.23 134.169 56.168 137.553 55.88L140.289 55.646C140.847 55.592 141.045 55.412 141.045 54.998C141.045 54.53 140.901 54.026 138.957 54.026C137.121 54.026 136.941 54.746 136.941 55.124H133.341V55.088C133.341 54.098 133.737 51.776 138.651 51.776H139.209C144.159 51.776 144.465 53.81 144.465 55.142V58.436C144.465 59.066 144.591 59.318 145.293 59.318H145.671V62H142.827C141.783 62 141.297 61.262 141.153 60.614Z" fill="#C1A875" style="mix-blend-mode:color"/>
<defs>
<linearGradient id="paint0_linear_2016_574" x1="8.27014e-07" y1="30" x2="222" y2="30" gradientUnits="userSpaceOnUse">
<stop stop-color="#576167"/>
<stop offset="0.191294" stop-color="#9EA1A2"/>
<stop offset="0.396166" stop-color="#848989"/>
<stop offset="0.62055" stop-color="#576167"/>
<stop offset="0.830299" stop-color="#757A7C"/>
<stop offset="1" stop-color="#576167"/>
</linearGradient>
<radialGradient id="paint1_radial_2016_574" cx="0" cy="0" r="1" gradientUnits="userSpaceOnUse" gradientTransform="translate(118.226 2.39326) rotate(90) scale(53.4944 167.95)">
<stop stop-color="white"/>
<stop offset="1" stop-color="white" stop-opacity="0"/>
</radialGradient>
<radialGradient id="paint2_radial_2016_574" cx="0" cy="0" r="1" gradientUnits="userSpaceOnUse" gradientTransform="translate(130.783 82.9888) rotate(-89.7344) scale(76.6525 240.162)">
<stop stop-color="white"/>
<stop offset="1" stop-color="white" stop-opacity="0"/>
</radialGradient>
</defs>
</svg>
