<svg width="193" height="42" viewBox="0 0 193 42" fill="none" xmlns="http://www.w3.org/2000/svg">
<path d="M0.656 14V0.608H11.816V3.56H4.364V14H0.656ZM14.0285 17.438V14.936H16.2245C16.5665 14.936 16.7465 14.792 16.7465 14.522V14.504C16.7465 14.288 16.6925 14.09 16.4225 13.532L12.1385 4.01H15.9905L18.7625 11.174L21.5165 4.01H25.0445L20.4725 15.008C19.7705 16.646 18.9065 17.438 17.2505 17.438H14.0285ZM35.0014 10.076H38.6734C38.6734 11.588 37.7734 14.27 32.9674 14.27H32.0854C27.0994 14.27 26.1634 11.03 26.1634 9.14V8.888C26.1634 6.998 27.0454 3.74 32.0674 3.74H32.8954C37.7194 3.74 38.6734 6.368 38.6734 7.808V7.826H35.0014C34.9474 7.538 34.6054 6.296 32.5354 6.296H32.3554C30.2854 6.296 29.7994 7.718 29.7994 8.924V8.942C29.7994 10.184 30.3934 11.66 32.4274 11.66H32.6074C34.6954 11.66 35.0014 10.31 35.0014 10.076ZM46.8775 6.08C45.0595 6.08 44.3755 6.818 44.1955 7.862H49.4875C49.4875 7.124 49.1275 6.08 46.8775 6.08ZM49.5595 10.886H53.2135C53.2135 11.714 52.5655 14.234 47.3995 14.234H46.7335C41.8015 14.234 40.5775 11.534 40.5775 9.14V8.888C40.5775 6.638 41.6935 3.794 46.4275 3.794H47.2195C52.3315 3.794 53.2495 6.638 53.2495 9.428V9.752H44.1595C44.3035 10.904 45.0415 11.84 47.1835 11.84C49.2175 11.84 49.4695 11.048 49.5595 10.886ZM63.8973 14H55.6533V4.01H63.5373C65.8233 4.01 67.2633 4.82 67.2633 6.404V6.494C67.2633 7.736 66.4713 8.474 65.2653 8.672C66.4893 8.816 67.5873 9.68 67.5873 11.12V11.192C67.5873 13.01 66.3993 14 63.8973 14ZM59.1633 7.988H62.3853C63.2313 7.988 63.6633 7.664 63.6633 7.034V6.944C63.6633 6.368 63.2673 6.026 62.3853 6.026H59.1633V7.988ZM59.1633 11.984H62.5293C63.4653 11.984 63.9873 11.678 63.9873 10.976V10.832C63.9873 10.202 63.5553 9.806 62.5293 9.806H59.1633V11.984ZM74.6603 12.002C76.7123 12.002 77.4143 10.706 77.4143 9.95V9.176C77.1083 9.302 76.2263 9.482 75.2183 9.644C73.5263 9.932 72.9863 10.166 72.9863 10.868V10.904C72.9863 11.534 73.4363 12.002 74.6603 12.002ZM77.5223 12.614C77.0903 13.136 76.0103 14.198 73.6703 14.198H73.3823C70.5923 14.198 69.4403 12.686 69.4403 11.03V10.958C69.4403 9.23 70.5383 8.168 73.9223 7.88L76.6583 7.646C77.2163 7.592 77.4143 7.412 77.4143 6.998C77.4143 6.53 77.2703 6.026 75.3263 6.026C73.4903 6.026 73.3103 6.746 73.3103 7.124H69.7103V7.088C69.7103 6.098 70.1063 3.776 75.0203 3.776H75.5783C80.5283 3.776 80.8343 5.81 80.8343 7.142V10.436C80.8343 11.066 80.9603 11.318 81.6623 11.318H82.0403V14H79.1963C78.1523 14 77.6663 13.262 77.5223 12.614ZM89.4431 14V0.608H99.2171C103.051 0.608 104.005 2.282 104.005 3.776V3.974C104.005 5.666 102.547 6.476 101.539 6.62C103.051 6.872 104.671 7.772 104.671 9.932V10.13C104.671 11.948 103.573 14 99.2711 14H89.4431ZM98.6771 3.398H93.1511V5.792H98.6771C99.8111 5.792 100.135 5.252 100.135 4.622V4.586C100.135 3.938 99.7751 3.398 98.6771 3.398ZM98.9651 8.42H93.1511V11.066H98.9651C100.261 11.066 100.639 10.382 100.639 9.716V9.644C100.639 8.978 100.261 8.42 98.9651 8.42ZM111.785 12.002C113.837 12.002 114.539 10.706 114.539 9.95V9.176C114.233 9.302 113.351 9.482 112.343 9.644C110.651 9.932 110.111 10.166 110.111 10.868V10.904C110.111 11.534 110.561 12.002 111.785 12.002ZM114.647 12.614C114.215 13.136 113.135 14.198 110.795 14.198H110.507C107.717 14.198 106.565 12.686 106.565 11.03V10.958C106.565 9.23 107.663 8.168 111.047 7.88L113.783 7.646C114.341 7.592 114.539 7.412 114.539 6.998C114.539 6.53 114.395 6.026 112.451 6.026C110.615 6.026 110.435 6.746 110.435 7.124H106.835V7.088C106.835 6.098 107.231 3.776 112.145 3.776H112.703C117.653 3.776 117.959 5.81 117.959 7.142V10.436C117.959 11.066 118.085 11.318 118.787 11.318H119.165V14H116.321C115.277 14 114.791 13.262 114.647 12.614ZM129.445 14V6.674H125.485C125.485 9.356 125.395 10.85 125.053 11.768C124.675 12.776 124.171 14 121.525 14H120.427V11.39H120.643C121.273 11.39 121.741 11.174 121.939 10.256C122.083 9.482 122.137 8.636 122.137 4.01H132.955V14H129.445ZM141.676 6.08C139.858 6.08 139.174 6.818 138.994 7.862H144.286C144.286 7.124 143.926 6.08 141.676 6.08ZM144.358 10.886H148.012C148.012 11.714 147.364 14.234 142.198 14.234H141.532C136.6 14.234 135.376 11.534 135.376 9.14V8.888C135.376 6.638 136.492 3.794 141.226 3.794H142.018C147.13 3.794 148.048 6.638 148.048 9.428V9.752H138.958C139.102 10.904 139.84 11.84 141.982 11.84C144.016 11.84 144.268 11.048 144.358 10.886ZM159.632 9.014V8.96C159.632 7.88 159.128 6.422 156.932 6.422H156.752C154.646 6.422 153.98 7.808 153.98 8.96V9.014C153.98 10.112 154.646 11.552 156.752 11.552H156.932C159.128 11.552 159.632 10.04 159.632 9.014ZM150.488 17.438V4.01H153.962V5.288C154.394 4.82 155.708 3.812 157.976 3.812H158.21C162.026 3.812 163.268 6.422 163.268 8.798V9.104C163.268 11.282 161.99 14.198 158.192 14.198H157.94C155.654 14.198 154.43 13.154 153.998 12.722V17.438H150.488ZM174.134 7.952L169.31 14H165.71V4.01H169.22V10.058L174.044 4.01H177.644V14H174.134V7.952ZM188.969 10.652H186.611L183.695 14H179.735L182.993 10.274C181.265 9.932 180.275 8.942 180.275 7.43V7.214C180.275 5.396 181.751 4.01 184.253 4.01H192.479V14H188.969V10.652ZM188.969 6.314H185.207C184.433 6.314 183.785 6.494 183.785 7.286V7.358C183.785 8.132 184.451 8.366 185.225 8.366H188.969V6.314ZM8.63 38.198H7.802C1.682 38.198 0.0620001 34.274 0.0620001 31.538V30.998C0.0620001 28.208 1.682 24.41 7.802 24.41H8.63C14.246 24.41 16.118 27.164 16.118 29.702V29.738H12.302C12.248 29.36 11.744 27.47 8.216 27.47C4.94 27.47 3.914 29.306 3.914 31.106V31.358C3.914 33.014 4.976 35.12 8.234 35.12C11.798 35.12 12.248 33.194 12.302 32.762H16.118V32.816C16.118 35.264 14.318 38.198 8.63 38.198ZM24.395 30.08C22.577 30.08 21.893 30.818 21.713 31.862H27.005C27.005 31.124 26.645 30.08 24.395 30.08ZM27.077 34.886H30.731C30.731 35.714 30.083 38.234 24.917 38.234H24.251C19.319 38.234 18.095 35.534 18.095 33.14V32.888C18.095 30.638 19.211 27.794 23.945 27.794H24.737C29.849 27.794 30.767 30.638 30.767 33.428V33.752H21.677C21.821 34.904 22.559 35.84 24.701 35.84C26.735 35.84 26.987 35.048 27.077 34.886ZM42.3509 33.014V32.96C42.3509 31.88 41.8469 30.422 39.6509 30.422H39.4709C37.3649 30.422 36.6989 31.808 36.6989 32.96V33.014C36.6989 34.112 37.3649 35.552 39.4709 35.552H39.6509C41.8469 35.552 42.3509 34.04 42.3509 33.014ZM33.2069 41.438V28.01H36.6809V29.288C37.1129 28.82 38.4269 27.812 40.6949 27.812H40.9289C44.7449 27.812 45.9869 30.422 45.9869 32.798V33.104C45.9869 35.282 44.7089 38.198 40.9109 38.198H40.6589C38.3729 38.198 37.1489 37.154 36.7169 36.722V41.438H33.2069ZM48.4287 38V28.01H57.1407V30.674H51.9387V38H48.4287ZM64.8599 30.08C63.0419 30.08 62.3579 30.818 62.1779 31.862H67.4699C67.4699 31.124 67.1099 30.08 64.8599 30.08ZM67.5419 34.886H71.1959C71.1959 35.714 70.5479 38.234 65.3819 38.234H64.7159C59.7839 38.234 58.5599 35.534 58.5599 33.14V32.888C58.5599 30.638 59.6759 27.794 64.4099 27.794H65.2019C70.3139 27.794 71.2319 30.638 71.2319 33.428V33.752H62.1419C62.2859 34.904 63.0239 35.84 65.1659 35.84C67.1999 35.84 67.4519 35.048 67.5419 34.886ZM79.4497 30.08C77.6317 30.08 76.9477 30.818 76.7677 31.862H82.0597C82.0597 31.124 81.6997 30.08 79.4497 30.08ZM82.1317 34.886H85.7857C85.7857 35.714 85.1377 38.234 79.9717 38.234H79.3057C74.3737 38.234 73.1497 35.534 73.1497 33.14V32.888C73.1497 30.638 74.2657 27.794 78.9997 27.794H79.7917C84.9037 27.794 85.8217 30.638 85.8217 33.428V33.752H76.7317C76.8757 34.904 77.6137 35.84 79.7557 35.84C81.7897 35.84 82.0417 35.048 82.1317 34.886ZM96.4696 38H88.2256V28.01H96.1096C98.3956 28.01 99.8356 28.82 99.8356 30.404V30.494C99.8356 31.736 99.0436 32.474 97.8376 32.672C99.0616 32.816 100.16 33.68 100.16 35.12V35.192C100.16 37.01 98.9716 38 96.4696 38ZM91.7356 31.988H94.9576C95.8036 31.988 96.2356 31.664 96.2356 31.034V30.944C96.2356 30.368 95.8396 30.026 94.9576 30.026H91.7356V31.988ZM91.7356 35.984H95.1016C96.0376 35.984 96.5596 35.678 96.5596 34.976V34.832C96.5596 34.202 96.1276 33.806 95.1016 33.806H91.7356V35.984ZM106.114 38H102.604V28.01H106.114V31.646H111.01V28.01H114.52V38H111.01V34.31H106.114V38ZM122.156 36.002C124.208 36.002 124.91 34.706 124.91 33.95V33.176C124.604 33.302 123.722 33.482 122.714 33.644C121.022 33.932 120.482 34.166 120.482 34.868V34.904C120.482 35.534 120.932 36.002 122.156 36.002ZM125.018 36.614C124.586 37.136 123.506 38.198 121.166 38.198H120.878C118.088 38.198 116.936 36.686 116.936 35.03V34.958C116.936 33.23 118.034 32.168 121.418 31.88L124.154 31.646C124.712 31.592 124.91 31.412 124.91 30.998C124.91 30.53 124.766 30.026 122.822 30.026C120.986 30.026 120.806 30.746 120.806 31.124H117.206V31.088C117.206 30.098 117.602 27.776 122.516 27.776H123.074C128.024 27.776 128.33 29.81 128.33 31.142V34.436C128.33 35.066 128.456 35.318 129.158 35.318H129.536V38H126.692C125.648 38 125.162 37.262 125.018 36.614Z" fill="url(#paint0_linear_2016_583)"/>
<path d="M0.656 14V0.608H11.816V3.56H4.364V14H0.656ZM14.0285 17.438V14.936H16.2245C16.5665 14.936 16.7465 14.792 16.7465 14.522V14.504C16.7465 14.288 16.6925 14.09 16.4225 13.532L12.1385 4.01H15.9905L18.7625 11.174L21.5165 4.01H25.0445L20.4725 15.008C19.7705 16.646 18.9065 17.438 17.2505 17.438H14.0285ZM35.0014 10.076H38.6734C38.6734 11.588 37.7734 14.27 32.9674 14.27H32.0854C27.0994 14.27 26.1634 11.03 26.1634 9.14V8.888C26.1634 6.998 27.0454 3.74 32.0674 3.74H32.8954C37.7194 3.74 38.6734 6.368 38.6734 7.808V7.826H35.0014C34.9474 7.538 34.6054 6.296 32.5354 6.296H32.3554C30.2854 6.296 29.7994 7.718 29.7994 8.924V8.942C29.7994 10.184 30.3934 11.66 32.4274 11.66H32.6074C34.6954 11.66 35.0014 10.31 35.0014 10.076ZM46.8775 6.08C45.0595 6.08 44.3755 6.818 44.1955 7.862H49.4875C49.4875 7.124 49.1275 6.08 46.8775 6.08ZM49.5595 10.886H53.2135C53.2135 11.714 52.5655 14.234 47.3995 14.234H46.7335C41.8015 14.234 40.5775 11.534 40.5775 9.14V8.888C40.5775 6.638 41.6935 3.794 46.4275 3.794H47.2195C52.3315 3.794 53.2495 6.638 53.2495 9.428V9.752H44.1595C44.3035 10.904 45.0415 11.84 47.1835 11.84C49.2175 11.84 49.4695 11.048 49.5595 10.886ZM63.8973 14H55.6533V4.01H63.5373C65.8233 4.01 67.2633 4.82 67.2633 6.404V6.494C67.2633 7.736 66.4713 8.474 65.2653 8.672C66.4893 8.816 67.5873 9.68 67.5873 11.12V11.192C67.5873 13.01 66.3993 14 63.8973 14ZM59.1633 7.988H62.3853C63.2313 7.988 63.6633 7.664 63.6633 7.034V6.944C63.6633 6.368 63.2673 6.026 62.3853 6.026H59.1633V7.988ZM59.1633 11.984H62.5293C63.4653 11.984 63.9873 11.678 63.9873 10.976V10.832C63.9873 10.202 63.5553 9.806 62.5293 9.806H59.1633V11.984ZM74.6603 12.002C76.7123 12.002 77.4143 10.706 77.4143 9.95V9.176C77.1083 9.302 76.2263 9.482 75.2183 9.644C73.5263 9.932 72.9863 10.166 72.9863 10.868V10.904C72.9863 11.534 73.4363 12.002 74.6603 12.002ZM77.5223 12.614C77.0903 13.136 76.0103 14.198 73.6703 14.198H73.3823C70.5923 14.198 69.4403 12.686 69.4403 11.03V10.958C69.4403 9.23 70.5383 8.168 73.9223 7.88L76.6583 7.646C77.2163 7.592 77.4143 7.412 77.4143 6.998C77.4143 6.53 77.2703 6.026 75.3263 6.026C73.4903 6.026 73.3103 6.746 73.3103 7.124H69.7103V7.088C69.7103 6.098 70.1063 3.776 75.0203 3.776H75.5783C80.5283 3.776 80.8343 5.81 80.8343 7.142V10.436C80.8343 11.066 80.9603 11.318 81.6623 11.318H82.0403V14H79.1963C78.1523 14 77.6663 13.262 77.5223 12.614ZM89.4431 14V0.608H99.2171C103.051 0.608 104.005 2.282 104.005 3.776V3.974C104.005 5.666 102.547 6.476 101.539 6.62C103.051 6.872 104.671 7.772 104.671 9.932V10.13C104.671 11.948 103.573 14 99.2711 14H89.4431ZM98.6771 3.398H93.1511V5.792H98.6771C99.8111 5.792 100.135 5.252 100.135 4.622V4.586C100.135 3.938 99.7751 3.398 98.6771 3.398ZM98.9651 8.42H93.1511V11.066H98.9651C100.261 11.066 100.639 10.382 100.639 9.716V9.644C100.639 8.978 100.261 8.42 98.9651 8.42ZM111.785 12.002C113.837 12.002 114.539 10.706 114.539 9.95V9.176C114.233 9.302 113.351 9.482 112.343 9.644C110.651 9.932 110.111 10.166 110.111 10.868V10.904C110.111 11.534 110.561 12.002 111.785 12.002ZM114.647 12.614C114.215 13.136 113.135 14.198 110.795 14.198H110.507C107.717 14.198 106.565 12.686 106.565 11.03V10.958C106.565 9.23 107.663 8.168 111.047 7.88L113.783 7.646C114.341 7.592 114.539 7.412 114.539 6.998C114.539 6.53 114.395 6.026 112.451 6.026C110.615 6.026 110.435 6.746 110.435 7.124H106.835V7.088C106.835 6.098 107.231 3.776 112.145 3.776H112.703C117.653 3.776 117.959 5.81 117.959 7.142V10.436C117.959 11.066 118.085 11.318 118.787 11.318H119.165V14H116.321C115.277 14 114.791 13.262 114.647 12.614ZM129.445 14V6.674H125.485C125.485 9.356 125.395 10.85 125.053 11.768C124.675 12.776 124.171 14 121.525 14H120.427V11.39H120.643C121.273 11.39 121.741 11.174 121.939 10.256C122.083 9.482 122.137 8.636 122.137 4.01H132.955V14H129.445ZM141.676 6.08C139.858 6.08 139.174 6.818 138.994 7.862H144.286C144.286 7.124 143.926 6.08 141.676 6.08ZM144.358 10.886H148.012C148.012 11.714 147.364 14.234 142.198 14.234H141.532C136.6 14.234 135.376 11.534 135.376 9.14V8.888C135.376 6.638 136.492 3.794 141.226 3.794H142.018C147.13 3.794 148.048 6.638 148.048 9.428V9.752H138.958C139.102 10.904 139.84 11.84 141.982 11.84C144.016 11.84 144.268 11.048 144.358 10.886ZM159.632 9.014V8.96C159.632 7.88 159.128 6.422 156.932 6.422H156.752C154.646 6.422 153.98 7.808 153.98 8.96V9.014C153.98 10.112 154.646 11.552 156.752 11.552H156.932C159.128 11.552 159.632 10.04 159.632 9.014ZM150.488 17.438V4.01H153.962V5.288C154.394 4.82 155.708 3.812 157.976 3.812H158.21C162.026 3.812 163.268 6.422 163.268 8.798V9.104C163.268 11.282 161.99 14.198 158.192 14.198H157.94C155.654 14.198 154.43 13.154 153.998 12.722V17.438H150.488ZM174.134 7.952L169.31 14H165.71V4.01H169.22V10.058L174.044 4.01H177.644V14H174.134V7.952ZM188.969 10.652H186.611L183.695 14H179.735L182.993 10.274C181.265 9.932 180.275 8.942 180.275 7.43V7.214C180.275 5.396 181.751 4.01 184.253 4.01H192.479V14H188.969V10.652ZM188.969 6.314H185.207C184.433 6.314 183.785 6.494 183.785 7.286V7.358C183.785 8.132 184.451 8.366 185.225 8.366H188.969V6.314ZM8.63 38.198H7.802C1.682 38.198 0.0620001 34.274 0.0620001 31.538V30.998C0.0620001 28.208 1.682 24.41 7.802 24.41H8.63C14.246 24.41 16.118 27.164 16.118 29.702V29.738H12.302C12.248 29.36 11.744 27.47 8.216 27.47C4.94 27.47 3.914 29.306 3.914 31.106V31.358C3.914 33.014 4.976 35.12 8.234 35.12C11.798 35.12 12.248 33.194 12.302 32.762H16.118V32.816C16.118 35.264 14.318 38.198 8.63 38.198ZM24.395 30.08C22.577 30.08 21.893 30.818 21.713 31.862H27.005C27.005 31.124 26.645 30.08 24.395 30.08ZM27.077 34.886H30.731C30.731 35.714 30.083 38.234 24.917 38.234H24.251C19.319 38.234 18.095 35.534 18.095 33.14V32.888C18.095 30.638 19.211 27.794 23.945 27.794H24.737C29.849 27.794 30.767 30.638 30.767 33.428V33.752H21.677C21.821 34.904 22.559 35.84 24.701 35.84C26.735 35.84 26.987 35.048 27.077 34.886ZM42.3509 33.014V32.96C42.3509 31.88 41.8469 30.422 39.6509 30.422H39.4709C37.3649 30.422 36.6989 31.808 36.6989 32.96V33.014C36.6989 34.112 37.3649 35.552 39.4709 35.552H39.6509C41.8469 35.552 42.3509 34.04 42.3509 33.014ZM33.2069 41.438V28.01H36.6809V29.288C37.1129 28.82 38.4269 27.812 40.6949 27.812H40.9289C44.7449 27.812 45.9869 30.422 45.9869 32.798V33.104C45.9869 35.282 44.7089 38.198 40.9109 38.198H40.6589C38.3729 38.198 37.1489 37.154 36.7169 36.722V41.438H33.2069ZM48.4287 38V28.01H57.1407V30.674H51.9387V38H48.4287ZM64.8599 30.08C63.0419 30.08 62.3579 30.818 62.1779 31.862H67.4699C67.4699 31.124 67.1099 30.08 64.8599 30.08ZM67.5419 34.886H71.1959C71.1959 35.714 70.5479 38.234 65.3819 38.234H64.7159C59.7839 38.234 58.5599 35.534 58.5599 33.14V32.888C58.5599 30.638 59.6759 27.794 64.4099 27.794H65.2019C70.3139 27.794 71.2319 30.638 71.2319 33.428V33.752H62.1419C62.2859 34.904 63.0239 35.84 65.1659 35.84C67.1999 35.84 67.4519 35.048 67.5419 34.886ZM79.4497 30.08C77.6317 30.08 76.9477 30.818 76.7677 31.862H82.0597C82.0597 31.124 81.6997 30.08 79.4497 30.08ZM82.1317 34.886H85.7857C85.7857 35.714 85.1377 38.234 79.9717 38.234H79.3057C74.3737 38.234 73.1497 35.534 73.1497 33.14V32.888C73.1497 30.638 74.2657 27.794 78.9997 27.794H79.7917C84.9037 27.794 85.8217 30.638 85.8217 33.428V33.752H76.7317C76.8757 34.904 77.6137 35.84 79.7557 35.84C81.7897 35.84 82.0417 35.048 82.1317 34.886ZM96.4696 38H88.2256V28.01H96.1096C98.3956 28.01 99.8356 28.82 99.8356 30.404V30.494C99.8356 31.736 99.0436 32.474 97.8376 32.672C99.0616 32.816 100.16 33.68 100.16 35.12V35.192C100.16 37.01 98.9716 38 96.4696 38ZM91.7356 31.988H94.9576C95.8036 31.988 96.2356 31.664 96.2356 31.034V30.944C96.2356 30.368 95.8396 30.026 94.9576 30.026H91.7356V31.988ZM91.7356 35.984H95.1016C96.0376 35.984 96.5596 35.678 96.5596 34.976V34.832C96.5596 34.202 96.1276 33.806 95.1016 33.806H91.7356V35.984ZM106.114 38H102.604V28.01H106.114V31.646H111.01V28.01H114.52V38H111.01V34.31H106.114V38ZM122.156 36.002C124.208 36.002 124.91 34.706 124.91 33.95V33.176C124.604 33.302 123.722 33.482 122.714 33.644C121.022 33.932 120.482 34.166 120.482 34.868V34.904C120.482 35.534 120.932 36.002 122.156 36.002ZM125.018 36.614C124.586 37.136 123.506 38.198 121.166 38.198H120.878C118.088 38.198 116.936 36.686 116.936 35.03V34.958C116.936 33.23 118.034 32.168 121.418 31.88L124.154 31.646C124.712 31.592 124.91 31.412 124.91 30.998C124.91 30.53 124.766 30.026 122.822 30.026C120.986 30.026 120.806 30.746 120.806 31.124H117.206V31.088C117.206 30.098 117.602 27.776 122.516 27.776H123.074C128.024 27.776 128.33 29.81 128.33 31.142V34.436C128.33 35.066 128.456 35.318 129.158 35.318H129.536V38H126.692C125.648 38 125.162 37.262 125.018 36.614Z" fill="url(#paint1_radial_2016_583)" style="mix-blend-mode:overlay"/>
<path d="M0.656 14V0.608H11.816V3.56H4.364V14H0.656ZM14.0285 17.438V14.936H16.2245C16.5665 14.936 16.7465 14.792 16.7465 14.522V14.504C16.7465 14.288 16.6925 14.09 16.4225 13.532L12.1385 4.01H15.9905L18.7625 11.174L21.5165 4.01H25.0445L20.4725 15.008C19.7705 16.646 18.9065 17.438 17.2505 17.438H14.0285ZM35.0014 10.076H38.6734C38.6734 11.588 37.7734 14.27 32.9674 14.27H32.0854C27.0994 14.27 26.1634 11.03 26.1634 9.14V8.888C26.1634 6.998 27.0454 3.74 32.0674 3.74H32.8954C37.7194 3.74 38.6734 6.368 38.6734 7.808V7.826H35.0014C34.9474 7.538 34.6054 6.296 32.5354 6.296H32.3554C30.2854 6.296 29.7994 7.718 29.7994 8.924V8.942C29.7994 10.184 30.3934 11.66 32.4274 11.66H32.6074C34.6954 11.66 35.0014 10.31 35.0014 10.076ZM46.8775 6.08C45.0595 6.08 44.3755 6.818 44.1955 7.862H49.4875C49.4875 7.124 49.1275 6.08 46.8775 6.08ZM49.5595 10.886H53.2135C53.2135 11.714 52.5655 14.234 47.3995 14.234H46.7335C41.8015 14.234 40.5775 11.534 40.5775 9.14V8.888C40.5775 6.638 41.6935 3.794 46.4275 3.794H47.2195C52.3315 3.794 53.2495 6.638 53.2495 9.428V9.752H44.1595C44.3035 10.904 45.0415 11.84 47.1835 11.84C49.2175 11.84 49.4695 11.048 49.5595 10.886ZM63.8973 14H55.6533V4.01H63.5373C65.8233 4.01 67.2633 4.82 67.2633 6.404V6.494C67.2633 7.736 66.4713 8.474 65.2653 8.672C66.4893 8.816 67.5873 9.68 67.5873 11.12V11.192C67.5873 13.01 66.3993 14 63.8973 14ZM59.1633 7.988H62.3853C63.2313 7.988 63.6633 7.664 63.6633 7.034V6.944C63.6633 6.368 63.2673 6.026 62.3853 6.026H59.1633V7.988ZM59.1633 11.984H62.5293C63.4653 11.984 63.9873 11.678 63.9873 10.976V10.832C63.9873 10.202 63.5553 9.806 62.5293 9.806H59.1633V11.984ZM74.6603 12.002C76.7123 12.002 77.4143 10.706 77.4143 9.95V9.176C77.1083 9.302 76.2263 9.482 75.2183 9.644C73.5263 9.932 72.9863 10.166 72.9863 10.868V10.904C72.9863 11.534 73.4363 12.002 74.6603 12.002ZM77.5223 12.614C77.0903 13.136 76.0103 14.198 73.6703 14.198H73.3823C70.5923 14.198 69.4403 12.686 69.4403 11.03V10.958C69.4403 9.23 70.5383 8.168 73.9223 7.88L76.6583 7.646C77.2163 7.592 77.4143 7.412 77.4143 6.998C77.4143 6.53 77.2703 6.026 75.3263 6.026C73.4903 6.026 73.3103 6.746 73.3103 7.124H69.7103V7.088C69.7103 6.098 70.1063 3.776 75.0203 3.776H75.5783C80.5283 3.776 80.8343 5.81 80.8343 7.142V10.436C80.8343 11.066 80.9603 11.318 81.6623 11.318H82.0403V14H79.1963C78.1523 14 77.6663 13.262 77.5223 12.614ZM89.4431 14V0.608H99.2171C103.051 0.608 104.005 2.282 104.005 3.776V3.974C104.005 5.666 102.547 6.476 101.539 6.62C103.051 6.872 104.671 7.772 104.671 9.932V10.13C104.671 11.948 103.573 14 99.2711 14H89.4431ZM98.6771 3.398H93.1511V5.792H98.6771C99.8111 5.792 100.135 5.252 100.135 4.622V4.586C100.135 3.938 99.7751 3.398 98.6771 3.398ZM98.9651 8.42H93.1511V11.066H98.9651C100.261 11.066 100.639 10.382 100.639 9.716V9.644C100.639 8.978 100.261 8.42 98.9651 8.42ZM111.785 12.002C113.837 12.002 114.539 10.706 114.539 9.95V9.176C114.233 9.302 113.351 9.482 112.343 9.644C110.651 9.932 110.111 10.166 110.111 10.868V10.904C110.111 11.534 110.561 12.002 111.785 12.002ZM114.647 12.614C114.215 13.136 113.135 14.198 110.795 14.198H110.507C107.717 14.198 106.565 12.686 106.565 11.03V10.958C106.565 9.23 107.663 8.168 111.047 7.88L113.783 7.646C114.341 7.592 114.539 7.412 114.539 6.998C114.539 6.53 114.395 6.026 112.451 6.026C110.615 6.026 110.435 6.746 110.435 7.124H106.835V7.088C106.835 6.098 107.231 3.776 112.145 3.776H112.703C117.653 3.776 117.959 5.81 117.959 7.142V10.436C117.959 11.066 118.085 11.318 118.787 11.318H119.165V14H116.321C115.277 14 114.791 13.262 114.647 12.614ZM129.445 14V6.674H125.485C125.485 9.356 125.395 10.85 125.053 11.768C124.675 12.776 124.171 14 121.525 14H120.427V11.39H120.643C121.273 11.39 121.741 11.174 121.939 10.256C122.083 9.482 122.137 8.636 122.137 4.01H132.955V14H129.445ZM141.676 6.08C139.858 6.08 139.174 6.818 138.994 7.862H144.286C144.286 7.124 143.926 6.08 141.676 6.08ZM144.358 10.886H148.012C148.012 11.714 147.364 14.234 142.198 14.234H141.532C136.6 14.234 135.376 11.534 135.376 9.14V8.888C135.376 6.638 136.492 3.794 141.226 3.794H142.018C147.13 3.794 148.048 6.638 148.048 9.428V9.752H138.958C139.102 10.904 139.84 11.84 141.982 11.84C144.016 11.84 144.268 11.048 144.358 10.886ZM159.632 9.014V8.96C159.632 7.88 159.128 6.422 156.932 6.422H156.752C154.646 6.422 153.98 7.808 153.98 8.96V9.014C153.98 10.112 154.646 11.552 156.752 11.552H156.932C159.128 11.552 159.632 10.04 159.632 9.014ZM150.488 17.438V4.01H153.962V5.288C154.394 4.82 155.708 3.812 157.976 3.812H158.21C162.026 3.812 163.268 6.422 163.268 8.798V9.104C163.268 11.282 161.99 14.198 158.192 14.198H157.94C155.654 14.198 154.43 13.154 153.998 12.722V17.438H150.488ZM174.134 7.952L169.31 14H165.71V4.01H169.22V10.058L174.044 4.01H177.644V14H174.134V7.952ZM188.969 10.652H186.611L183.695 14H179.735L182.993 10.274C181.265 9.932 180.275 8.942 180.275 7.43V7.214C180.275 5.396 181.751 4.01 184.253 4.01H192.479V14H188.969V10.652ZM188.969 6.314H185.207C184.433 6.314 183.785 6.494 183.785 7.286V7.358C183.785 8.132 184.451 8.366 185.225 8.366H188.969V6.314ZM8.63 38.198H7.802C1.682 38.198 0.0620001 34.274 0.0620001 31.538V30.998C0.0620001 28.208 1.682 24.41 7.802 24.41H8.63C14.246 24.41 16.118 27.164 16.118 29.702V29.738H12.302C12.248 29.36 11.744 27.47 8.216 27.47C4.94 27.47 3.914 29.306 3.914 31.106V31.358C3.914 33.014 4.976 35.12 8.234 35.12C11.798 35.12 12.248 33.194 12.302 32.762H16.118V32.816C16.118 35.264 14.318 38.198 8.63 38.198ZM24.395 30.08C22.577 30.08 21.893 30.818 21.713 31.862H27.005C27.005 31.124 26.645 30.08 24.395 30.08ZM27.077 34.886H30.731C30.731 35.714 30.083 38.234 24.917 38.234H24.251C19.319 38.234 18.095 35.534 18.095 33.14V32.888C18.095 30.638 19.211 27.794 23.945 27.794H24.737C29.849 27.794 30.767 30.638 30.767 33.428V33.752H21.677C21.821 34.904 22.559 35.84 24.701 35.84C26.735 35.84 26.987 35.048 27.077 34.886ZM42.3509 33.014V32.96C42.3509 31.88 41.8469 30.422 39.6509 30.422H39.4709C37.3649 30.422 36.6989 31.808 36.6989 32.96V33.014C36.6989 34.112 37.3649 35.552 39.4709 35.552H39.6509C41.8469 35.552 42.3509 34.04 42.3509 33.014ZM33.2069 41.438V28.01H36.6809V29.288C37.1129 28.82 38.4269 27.812 40.6949 27.812H40.9289C44.7449 27.812 45.9869 30.422 45.9869 32.798V33.104C45.9869 35.282 44.7089 38.198 40.9109 38.198H40.6589C38.3729 38.198 37.1489 37.154 36.7169 36.722V41.438H33.2069ZM48.4287 38V28.01H57.1407V30.674H51.9387V38H48.4287ZM64.8599 30.08C63.0419 30.08 62.3579 30.818 62.1779 31.862H67.4699C67.4699 31.124 67.1099 30.08 64.8599 30.08ZM67.5419 34.886H71.1959C71.1959 35.714 70.5479 38.234 65.3819 38.234H64.7159C59.7839 38.234 58.5599 35.534 58.5599 33.14V32.888C58.5599 30.638 59.6759 27.794 64.4099 27.794H65.2019C70.3139 27.794 71.2319 30.638 71.2319 33.428V33.752H62.1419C62.2859 34.904 63.0239 35.84 65.1659 35.84C67.1999 35.84 67.4519 35.048 67.5419 34.886ZM79.4497 30.08C77.6317 30.08 76.9477 30.818 76.7677 31.862H82.0597C82.0597 31.124 81.6997 30.08 79.4497 30.08ZM82.1317 34.886H85.7857C85.7857 35.714 85.1377 38.234 79.9717 38.234H79.3057C74.3737 38.234 73.1497 35.534 73.1497 33.14V32.888C73.1497 30.638 74.2657 27.794 78.9997 27.794H79.7917C84.9037 27.794 85.8217 30.638 85.8217 33.428V33.752H76.7317C76.8757 34.904 77.6137 35.84 79.7557 35.84C81.7897 35.84 82.0417 35.048 82.1317 34.886ZM96.4696 38H88.2256V28.01H96.1096C98.3956 28.01 99.8356 28.82 99.8356 30.404V30.494C99.8356 31.736 99.0436 32.474 97.8376 32.672C99.0616 32.816 100.16 33.68 100.16 35.12V35.192C100.16 37.01 98.9716 38 96.4696 38ZM91.7356 31.988H94.9576C95.8036 31.988 96.2356 31.664 96.2356 31.034V30.944C96.2356 30.368 95.8396 30.026 94.9576 30.026H91.7356V31.988ZM91.7356 35.984H95.1016C96.0376 35.984 96.5596 35.678 96.5596 34.976V34.832C96.5596 34.202 96.1276 33.806 95.1016 33.806H91.7356V35.984ZM106.114 38H102.604V28.01H106.114V31.646H111.01V28.01H114.52V38H111.01V34.31H106.114V38ZM122.156 36.002C124.208 36.002 124.91 34.706 124.91 33.95V33.176C124.604 33.302 123.722 33.482 122.714 33.644C121.022 33.932 120.482 34.166 120.482 34.868V34.904C120.482 35.534 120.932 36.002 122.156 36.002ZM125.018 36.614C124.586 37.136 123.506 38.198 121.166 38.198H120.878C118.088 38.198 116.936 36.686 116.936 35.03V34.958C116.936 33.23 118.034 32.168 121.418 31.88L124.154 31.646C124.712 31.592 124.91 31.412 124.91 30.998C124.91 30.53 124.766 30.026 122.822 30.026C120.986 30.026 120.806 30.746 120.806 31.124H117.206V31.088C117.206 30.098 117.602 27.776 122.516 27.776H123.074C128.024 27.776 128.33 29.81 128.33 31.142V34.436C128.33 35.066 128.456 35.318 129.158 35.318H129.536V38H126.692C125.648 38 125.162 37.262 125.018 36.614Z" fill="url(#paint2_radial_2016_583)"/>
<path d="M0.656 14V0.608H11.816V3.56H4.364V14H0.656ZM14.0285 17.438V14.936H16.2245C16.5665 14.936 16.7465 14.792 16.7465 14.522V14.504C16.7465 14.288 16.6925 14.09 16.4225 13.532L12.1385 4.01H15.9905L18.7625 11.174L21.5165 4.01H25.0445L20.4725 15.008C19.7705 16.646 18.9065 17.438 17.2505 17.438H14.0285ZM35.0014 10.076H38.6734C38.6734 11.588 37.7734 14.27 32.9674 14.27H32.0854C27.0994 14.27 26.1634 11.03 26.1634 9.14V8.888C26.1634 6.998 27.0454 3.74 32.0674 3.74H32.8954C37.7194 3.74 38.6734 6.368 38.6734 7.808V7.826H35.0014C34.9474 7.538 34.6054 6.296 32.5354 6.296H32.3554C30.2854 6.296 29.7994 7.718 29.7994 8.924V8.942C29.7994 10.184 30.3934 11.66 32.4274 11.66H32.6074C34.6954 11.66 35.0014 10.31 35.0014 10.076ZM46.8775 6.08C45.0595 6.08 44.3755 6.818 44.1955 7.862H49.4875C49.4875 7.124 49.1275 6.08 46.8775 6.08ZM49.5595 10.886H53.2135C53.2135 11.714 52.5655 14.234 47.3995 14.234H46.7335C41.8015 14.234 40.5775 11.534 40.5775 9.14V8.888C40.5775 6.638 41.6935 3.794 46.4275 3.794H47.2195C52.3315 3.794 53.2495 6.638 53.2495 9.428V9.752H44.1595C44.3035 10.904 45.0415 11.84 47.1835 11.84C49.2175 11.84 49.4695 11.048 49.5595 10.886ZM63.8973 14H55.6533V4.01H63.5373C65.8233 4.01 67.2633 4.82 67.2633 6.404V6.494C67.2633 7.736 66.4713 8.474 65.2653 8.672C66.4893 8.816 67.5873 9.68 67.5873 11.12V11.192C67.5873 13.01 66.3993 14 63.8973 14ZM59.1633 7.988H62.3853C63.2313 7.988 63.6633 7.664 63.6633 7.034V6.944C63.6633 6.368 63.2673 6.026 62.3853 6.026H59.1633V7.988ZM59.1633 11.984H62.5293C63.4653 11.984 63.9873 11.678 63.9873 10.976V10.832C63.9873 10.202 63.5553 9.806 62.5293 9.806H59.1633V11.984ZM74.6603 12.002C76.7123 12.002 77.4143 10.706 77.4143 9.95V9.176C77.1083 9.302 76.2263 9.482 75.2183 9.644C73.5263 9.932 72.9863 10.166 72.9863 10.868V10.904C72.9863 11.534 73.4363 12.002 74.6603 12.002ZM77.5223 12.614C77.0903 13.136 76.0103 14.198 73.6703 14.198H73.3823C70.5923 14.198 69.4403 12.686 69.4403 11.03V10.958C69.4403 9.23 70.5383 8.168 73.9223 7.88L76.6583 7.646C77.2163 7.592 77.4143 7.412 77.4143 6.998C77.4143 6.53 77.2703 6.026 75.3263 6.026C73.4903 6.026 73.3103 6.746 73.3103 7.124H69.7103V7.088C69.7103 6.098 70.1063 3.776 75.0203 3.776H75.5783C80.5283 3.776 80.8343 5.81 80.8343 7.142V10.436C80.8343 11.066 80.9603 11.318 81.6623 11.318H82.0403V14H79.1963C78.1523 14 77.6663 13.262 77.5223 12.614ZM89.4431 14V0.608H99.2171C103.051 0.608 104.005 2.282 104.005 3.776V3.974C104.005 5.666 102.547 6.476 101.539 6.62C103.051 6.872 104.671 7.772 104.671 9.932V10.13C104.671 11.948 103.573 14 99.2711 14H89.4431ZM98.6771 3.398H93.1511V5.792H98.6771C99.8111 5.792 100.135 5.252 100.135 4.622V4.586C100.135 3.938 99.7751 3.398 98.6771 3.398ZM98.9651 8.42H93.1511V11.066H98.9651C100.261 11.066 100.639 10.382 100.639 9.716V9.644C100.639 8.978 100.261 8.42 98.9651 8.42ZM111.785 12.002C113.837 12.002 114.539 10.706 114.539 9.95V9.176C114.233 9.302 113.351 9.482 112.343 9.644C110.651 9.932 110.111 10.166 110.111 10.868V10.904C110.111 11.534 110.561 12.002 111.785 12.002ZM114.647 12.614C114.215 13.136 113.135 14.198 110.795 14.198H110.507C107.717 14.198 106.565 12.686 106.565 11.03V10.958C106.565 9.23 107.663 8.168 111.047 7.88L113.783 7.646C114.341 7.592 114.539 7.412 114.539 6.998C114.539 6.53 114.395 6.026 112.451 6.026C110.615 6.026 110.435 6.746 110.435 7.124H106.835V7.088C106.835 6.098 107.231 3.776 112.145 3.776H112.703C117.653 3.776 117.959 5.81 117.959 7.142V10.436C117.959 11.066 118.085 11.318 118.787 11.318H119.165V14H116.321C115.277 14 114.791 13.262 114.647 12.614ZM129.445 14V6.674H125.485C125.485 9.356 125.395 10.85 125.053 11.768C124.675 12.776 124.171 14 121.525 14H120.427V11.39H120.643C121.273 11.39 121.741 11.174 121.939 10.256C122.083 9.482 122.137 8.636 122.137 4.01H132.955V14H129.445ZM141.676 6.08C139.858 6.08 139.174 6.818 138.994 7.862H144.286C144.286 7.124 143.926 6.08 141.676 6.08ZM144.358 10.886H148.012C148.012 11.714 147.364 14.234 142.198 14.234H141.532C136.6 14.234 135.376 11.534 135.376 9.14V8.888C135.376 6.638 136.492 3.794 141.226 3.794H142.018C147.13 3.794 148.048 6.638 148.048 9.428V9.752H138.958C139.102 10.904 139.84 11.84 141.982 11.84C144.016 11.84 144.268 11.048 144.358 10.886ZM159.632 9.014V8.96C159.632 7.88 159.128 6.422 156.932 6.422H156.752C154.646 6.422 153.98 7.808 153.98 8.96V9.014C153.98 10.112 154.646 11.552 156.752 11.552H156.932C159.128 11.552 159.632 10.04 159.632 9.014ZM150.488 17.438V4.01H153.962V5.288C154.394 4.82 155.708 3.812 157.976 3.812H158.21C162.026 3.812 163.268 6.422 163.268 8.798V9.104C163.268 11.282 161.99 14.198 158.192 14.198H157.94C155.654 14.198 154.43 13.154 153.998 12.722V17.438H150.488ZM174.134 7.952L169.31 14H165.71V4.01H169.22V10.058L174.044 4.01H177.644V14H174.134V7.952ZM188.969 10.652H186.611L183.695 14H179.735L182.993 10.274C181.265 9.932 180.275 8.942 180.275 7.43V7.214C180.275 5.396 181.751 4.01 184.253 4.01H192.479V14H188.969V10.652ZM188.969 6.314H185.207C184.433 6.314 183.785 6.494 183.785 7.286V7.358C183.785 8.132 184.451 8.366 185.225 8.366H188.969V6.314ZM8.63 38.198H7.802C1.682 38.198 0.0620001 34.274 0.0620001 31.538V30.998C0.0620001 28.208 1.682 24.41 7.802 24.41H8.63C14.246 24.41 16.118 27.164 16.118 29.702V29.738H12.302C12.248 29.36 11.744 27.47 8.216 27.47C4.94 27.47 3.914 29.306 3.914 31.106V31.358C3.914 33.014 4.976 35.12 8.234 35.12C11.798 35.12 12.248 33.194 12.302 32.762H16.118V32.816C16.118 35.264 14.318 38.198 8.63 38.198ZM24.395 30.08C22.577 30.08 21.893 30.818 21.713 31.862H27.005C27.005 31.124 26.645 30.08 24.395 30.08ZM27.077 34.886H30.731C30.731 35.714 30.083 38.234 24.917 38.234H24.251C19.319 38.234 18.095 35.534 18.095 33.14V32.888C18.095 30.638 19.211 27.794 23.945 27.794H24.737C29.849 27.794 30.767 30.638 30.767 33.428V33.752H21.677C21.821 34.904 22.559 35.84 24.701 35.84C26.735 35.84 26.987 35.048 27.077 34.886ZM42.3509 33.014V32.96C42.3509 31.88 41.8469 30.422 39.6509 30.422H39.4709C37.3649 30.422 36.6989 31.808 36.6989 32.96V33.014C36.6989 34.112 37.3649 35.552 39.4709 35.552H39.6509C41.8469 35.552 42.3509 34.04 42.3509 33.014ZM33.2069 41.438V28.01H36.6809V29.288C37.1129 28.82 38.4269 27.812 40.6949 27.812H40.9289C44.7449 27.812 45.9869 30.422 45.9869 32.798V33.104C45.9869 35.282 44.7089 38.198 40.9109 38.198H40.6589C38.3729 38.198 37.1489 37.154 36.7169 36.722V41.438H33.2069ZM48.4287 38V28.01H57.1407V30.674H51.9387V38H48.4287ZM64.8599 30.08C63.0419 30.08 62.3579 30.818 62.1779 31.862H67.4699C67.4699 31.124 67.1099 30.08 64.8599 30.08ZM67.5419 34.886H71.1959C71.1959 35.714 70.5479 38.234 65.3819 38.234H64.7159C59.7839 38.234 58.5599 35.534 58.5599 33.14V32.888C58.5599 30.638 59.6759 27.794 64.4099 27.794H65.2019C70.3139 27.794 71.2319 30.638 71.2319 33.428V33.752H62.1419C62.2859 34.904 63.0239 35.84 65.1659 35.84C67.1999 35.84 67.4519 35.048 67.5419 34.886ZM79.4497 30.08C77.6317 30.08 76.9477 30.818 76.7677 31.862H82.0597C82.0597 31.124 81.6997 30.08 79.4497 30.08ZM82.1317 34.886H85.7857C85.7857 35.714 85.1377 38.234 79.9717 38.234H79.3057C74.3737 38.234 73.1497 35.534 73.1497 33.14V32.888C73.1497 30.638 74.2657 27.794 78.9997 27.794H79.7917C84.9037 27.794 85.8217 30.638 85.8217 33.428V33.752H76.7317C76.8757 34.904 77.6137 35.84 79.7557 35.84C81.7897 35.84 82.0417 35.048 82.1317 34.886ZM96.4696 38H88.2256V28.01H96.1096C98.3956 28.01 99.8356 28.82 99.8356 30.404V30.494C99.8356 31.736 99.0436 32.474 97.8376 32.672C99.0616 32.816 100.16 33.68 100.16 35.12V35.192C100.16 37.01 98.9716 38 96.4696 38ZM91.7356 31.988H94.9576C95.8036 31.988 96.2356 31.664 96.2356 31.034V30.944C96.2356 30.368 95.8396 30.026 94.9576 30.026H91.7356V31.988ZM91.7356 35.984H95.1016C96.0376 35.984 96.5596 35.678 96.5596 34.976V34.832C96.5596 34.202 96.1276 33.806 95.1016 33.806H91.7356V35.984ZM106.114 38H102.604V28.01H106.114V31.646H111.01V28.01H114.52V38H111.01V34.31H106.114V38ZM122.156 36.002C124.208 36.002 124.91 34.706 124.91 33.95V33.176C124.604 33.302 123.722 33.482 122.714 33.644C121.022 33.932 120.482 34.166 120.482 34.868V34.904C120.482 35.534 120.932 36.002 122.156 36.002ZM125.018 36.614C124.586 37.136 123.506 38.198 121.166 38.198H120.878C118.088 38.198 116.936 36.686 116.936 35.03V34.958C116.936 33.23 118.034 32.168 121.418 31.88L124.154 31.646C124.712 31.592 124.91 31.412 124.91 30.998C124.91 30.53 124.766 30.026 122.822 30.026C120.986 30.026 120.806 30.746 120.806 31.124H117.206V31.088C117.206 30.098 117.602 27.776 122.516 27.776H123.074C128.024 27.776 128.33 29.81 128.33 31.142V34.436C128.33 35.066 128.456 35.318 129.158 35.318H129.536V38H126.692C125.648 38 125.162 37.262 125.018 36.614Z" fill="#C1A875" style="mix-blend-mode:color"/>
<defs>
<linearGradient id="paint0_linear_2016_583" x1="-0.999999" y1="30" x2="221" y2="30" gradientUnits="userSpaceOnUse">
<stop stop-color="#576167"/>
<stop offset="0.191294" stop-color="#9EA1A2"/>
<stop offset="0.396166" stop-color="#848989"/>
<stop offset="0.62055" stop-color="#576167"/>
<stop offset="0.830299" stop-color="#757A7C"/>
<stop offset="1" stop-color="#576167"/>
</linearGradient>
<radialGradient id="paint1_radial_2016_583" cx="0" cy="0" r="1" gradientUnits="userSpaceOnUse" gradientTransform="translate(117.226 2.39326) rotate(90) scale(53.4944 167.95)">
<stop stop-color="white"/>
<stop offset="1" stop-color="white" stop-opacity="0"/>
</radialGradient>
<radialGradient id="paint2_radial_2016_583" cx="0" cy="0" r="1" gradientUnits="userSpaceOnUse" gradientTransform="translate(129.783 82.9888) rotate(-89.7344) scale(76.6525 240.162)">
<stop stop-color="white"/>
<stop offset="1" stop-color="white" stop-opacity="0"/>
</radialGradient>
</defs>
</svg>
