<svg width="187" height="42" viewBox="0 0 187 42" fill="none" xmlns="http://www.w3.org/2000/svg">
<path d="M1.656 14V0.608H11.43C15.264 0.608 16.218 2.282 16.218 3.776V3.974C16.218 5.666 14.76 6.476 13.752 6.62C15.264 6.872 16.884 7.772 16.884 9.932V10.13C16.884 11.948 15.786 14 11.484 14H1.656ZM10.89 3.398H5.364V5.792H10.89C12.024 5.792 12.348 5.252 12.348 4.622V4.586C12.348 3.938 11.988 3.398 10.89 3.398ZM11.178 8.42H5.364V11.066H11.178C12.474 11.066 12.852 10.382 12.852 9.716V9.644C12.852 8.978 12.474 8.42 11.178 8.42ZM25.5462 14.27H24.9882C19.6062 14.27 18.7782 10.994 18.7782 9.176V8.924C18.7782 7.124 19.6062 3.74 24.9702 3.74H25.5642C31.1082 3.74 31.7562 7.142 31.7562 8.906V9.194C31.7562 10.994 31.1082 14.27 25.5462 14.27ZM25.1682 11.642H25.3662C27.5802 11.642 28.1382 10.058 28.1382 8.96C28.1382 7.826 27.5802 6.314 25.3662 6.314H25.1682C22.8642 6.314 22.3962 7.826 22.3962 8.96C22.3962 10.058 22.8642 11.642 25.1682 11.642ZM42.1851 14V6.674H38.2251C38.2251 9.356 38.1351 10.85 37.7931 11.768C37.4151 12.776 36.9111 14 34.2651 14H33.1671V11.39H33.3831C34.0131 11.39 34.4811 11.174 34.6791 10.256C34.8231 9.482 34.8771 8.636 34.8771 4.01H45.6951V14H42.1851ZM56.0365 14L52.1485 9.374V14H48.6385V4.01H52.1485V8.006L55.7125 4.01H59.7625L55.5865 8.492L60.2125 14H56.0365ZM67.47 14.27H66.912C61.53 14.27 60.702 10.994 60.702 9.176V8.924C60.702 7.124 61.53 3.74 66.894 3.74H67.488C73.032 3.74 73.68 7.142 73.68 8.906V9.194C73.68 10.994 73.032 14.27 67.47 14.27ZM67.092 11.642H67.29C69.504 11.642 70.062 10.058 70.062 8.96C70.062 7.826 69.504 6.314 67.29 6.314H67.092C64.788 6.314 64.32 7.826 64.32 8.96C64.32 10.058 64.788 11.642 67.092 11.642ZM84.3387 14H76.0947V4.01H83.9787C86.2647 4.01 87.7047 4.82 87.7047 6.404V6.494C87.7047 7.736 86.9127 8.474 85.7067 8.672C86.9307 8.816 88.0287 9.68 88.0287 11.12V11.192C88.0287 13.01 86.8407 14 84.3387 14ZM79.6047 7.988H82.8267C83.6727 7.988 84.1047 7.664 84.1047 7.034V6.944C84.1047 6.368 83.7087 6.026 82.8267 6.026H79.6047V7.988ZM79.6047 11.984H82.9707C83.9067 11.984 84.4287 11.678 84.4287 10.976V10.832C84.4287 10.202 83.9967 9.806 82.9707 9.806H79.6047V11.984ZM106.459 14V3.56H100.699C100.699 7.214 100.537 10.004 100.051 11.462C99.6188 12.74 98.8447 14 96.1808 14H94.8488V10.85H94.9748C96.0728 10.85 96.5228 10.346 96.7388 9.788C97.0988 8.852 97.1888 7.574 97.1888 0.608H110.167V14H106.459ZM119.086 6.08C117.268 6.08 116.584 6.818 116.404 7.862H121.696C121.696 7.124 121.336 6.08 119.086 6.08ZM121.768 10.886H125.422C125.422 11.714 124.774 14.234 119.608 14.234H118.942C114.01 14.234 112.786 11.534 112.786 9.14V8.888C112.786 6.638 113.902 3.794 118.636 3.794H119.428C124.54 3.794 125.458 6.638 125.458 9.428V9.752H116.368C116.512 10.904 117.25 11.84 119.392 11.84C121.426 11.84 121.678 11.048 121.768 10.886ZM134.126 14.27H133.568C128.186 14.27 127.358 10.994 127.358 9.176V8.924C127.358 7.124 128.186 3.74 133.55 3.74H134.144C139.688 3.74 140.336 7.142 140.336 8.906V9.194C140.336 10.994 139.688 14.27 134.126 14.27ZM133.748 11.642H133.946C136.16 11.642 136.718 10.058 136.718 8.96C136.718 7.826 136.16 6.314 133.946 6.314H133.748C131.444 6.314 130.976 7.826 130.976 8.96C130.976 10.058 131.444 11.642 133.748 11.642ZM146.261 14H142.751V4.01H146.261V7.646H151.157V4.01H154.667V14H151.157V10.31H146.261V14ZM166.011 7.952L161.187 14H157.587V4.01H161.097V10.058L165.921 4.01H169.521V14H166.011V7.952ZM171.612 16.124V11.336H172.818C173.502 9.968 173.61 6.998 173.7 4.01H184.266V11.336H186.066V16.124H182.736V14H174.942V16.124H171.612ZM176.13 11.336H180.756V6.674H176.85C176.796 7.97 176.616 9.95 176.13 11.336ZM10.998 32.762L8.568 27.308L6.21 32.762H10.998ZM13.338 38L12.24 35.516H5.004L3.924 38H0.198L6.138 24.608H11.106L17.316 38H13.338ZM28.1458 33.014V32.96C28.1458 31.88 27.6418 30.422 25.4458 30.422H25.2658C23.1598 30.422 22.4938 31.808 22.4938 32.96V33.014C22.4938 34.112 23.1598 35.552 25.2658 35.552H25.4458C27.6418 35.552 28.1458 34.04 28.1458 33.014ZM19.0018 41.438V28.01H22.4758V29.288C22.9078 28.82 24.2218 27.812 26.4898 27.812H26.7238C30.5398 27.812 31.7818 30.422 31.7818 32.798V33.104C31.7818 35.282 30.5038 38.198 26.7058 38.198H26.4538C24.1678 38.198 22.9438 37.154 22.5118 36.722V41.438H19.0018ZM37.0856 38V30.674H33.2156V28.01H44.4656V30.674H40.5956V38H37.0856ZM52.1841 30.08C50.3661 30.08 49.6821 30.818 49.5021 31.862H54.7941C54.7941 31.124 54.4341 30.08 52.1841 30.08ZM54.8661 34.886H58.5201C58.5201 35.714 57.8721 38.234 52.7061 38.234H52.0401C47.1081 38.234 45.8841 35.534 45.8841 33.14V32.888C45.8841 30.638 47.0001 27.794 51.7341 27.794H52.5261C57.6381 27.794 58.5561 30.638 58.5561 33.428V33.752H49.4661C49.6101 34.904 50.3481 35.84 52.4901 35.84C54.5241 35.84 54.7761 35.048 54.8661 34.886ZM64.2 31.268V38H60.96V28.01H65.91L68.88 34.382L71.85 28.01H76.62V38H73.11V31.268L69.996 38H67.314L64.2 31.268ZM85.681 38.27H85.123C79.741 38.27 78.913 34.994 78.913 33.176V32.924C78.913 31.124 79.741 27.74 85.105 27.74H85.699C91.243 27.74 91.891 31.142 91.891 32.906V33.194C91.891 34.994 91.243 38.27 85.681 38.27ZM85.303 35.642H85.501C87.715 35.642 88.273 34.058 88.273 32.96C88.273 31.826 87.715 30.314 85.501 30.314H85.303C82.999 30.314 82.531 31.826 82.531 32.96C82.531 34.058 82.999 35.642 85.303 35.642ZM102.55 38H94.3057V28.01H102.19C104.476 28.01 105.916 28.82 105.916 30.404V30.494C105.916 31.736 105.124 32.474 103.918 32.672C105.142 32.816 106.24 33.68 106.24 35.12V35.192C106.24 37.01 105.052 38 102.55 38ZM97.8157 31.988H101.038C101.884 31.988 102.316 31.664 102.316 31.034V30.944C102.316 30.368 101.92 30.026 101.038 30.026H97.8157V31.988ZM97.8157 35.984H101.182C102.118 35.984 102.64 35.678 102.64 34.976V34.832C102.64 34.202 102.208 33.806 101.182 33.806H97.8157V35.984ZM117.109 31.952L112.285 38H108.685V28.01H112.195V34.058L117.019 28.01H120.619V38H117.109V31.952ZM130.954 28.01H134.464V38H130.954V34.562C130.18 34.652 129.28 34.742 128.344 34.742C124.384 34.742 122.89 33.626 122.89 30.458V28.01H126.4V29.81C126.4 31.682 127.03 32.006 128.884 32.006C129.586 32.006 130.396 31.952 130.954 31.88V28.01Z" fill="url(#paint0_linear_2016_537)"/>
<path d="M1.656 14V0.608H11.43C15.264 0.608 16.218 2.282 16.218 3.776V3.974C16.218 5.666 14.76 6.476 13.752 6.62C15.264 6.872 16.884 7.772 16.884 9.932V10.13C16.884 11.948 15.786 14 11.484 14H1.656ZM10.89 3.398H5.364V5.792H10.89C12.024 5.792 12.348 5.252 12.348 4.622V4.586C12.348 3.938 11.988 3.398 10.89 3.398ZM11.178 8.42H5.364V11.066H11.178C12.474 11.066 12.852 10.382 12.852 9.716V9.644C12.852 8.978 12.474 8.42 11.178 8.42ZM25.5462 14.27H24.9882C19.6062 14.27 18.7782 10.994 18.7782 9.176V8.924C18.7782 7.124 19.6062 3.74 24.9702 3.74H25.5642C31.1082 3.74 31.7562 7.142 31.7562 8.906V9.194C31.7562 10.994 31.1082 14.27 25.5462 14.27ZM25.1682 11.642H25.3662C27.5802 11.642 28.1382 10.058 28.1382 8.96C28.1382 7.826 27.5802 6.314 25.3662 6.314H25.1682C22.8642 6.314 22.3962 7.826 22.3962 8.96C22.3962 10.058 22.8642 11.642 25.1682 11.642ZM42.1851 14V6.674H38.2251C38.2251 9.356 38.1351 10.85 37.7931 11.768C37.4151 12.776 36.9111 14 34.2651 14H33.1671V11.39H33.3831C34.0131 11.39 34.4811 11.174 34.6791 10.256C34.8231 9.482 34.8771 8.636 34.8771 4.01H45.6951V14H42.1851ZM56.0365 14L52.1485 9.374V14H48.6385V4.01H52.1485V8.006L55.7125 4.01H59.7625L55.5865 8.492L60.2125 14H56.0365ZM67.47 14.27H66.912C61.53 14.27 60.702 10.994 60.702 9.176V8.924C60.702 7.124 61.53 3.74 66.894 3.74H67.488C73.032 3.74 73.68 7.142 73.68 8.906V9.194C73.68 10.994 73.032 14.27 67.47 14.27ZM67.092 11.642H67.29C69.504 11.642 70.062 10.058 70.062 8.96C70.062 7.826 69.504 6.314 67.29 6.314H67.092C64.788 6.314 64.32 7.826 64.32 8.96C64.32 10.058 64.788 11.642 67.092 11.642ZM84.3387 14H76.0947V4.01H83.9787C86.2647 4.01 87.7047 4.82 87.7047 6.404V6.494C87.7047 7.736 86.9127 8.474 85.7067 8.672C86.9307 8.816 88.0287 9.68 88.0287 11.12V11.192C88.0287 13.01 86.8407 14 84.3387 14ZM79.6047 7.988H82.8267C83.6727 7.988 84.1047 7.664 84.1047 7.034V6.944C84.1047 6.368 83.7087 6.026 82.8267 6.026H79.6047V7.988ZM79.6047 11.984H82.9707C83.9067 11.984 84.4287 11.678 84.4287 10.976V10.832C84.4287 10.202 83.9967 9.806 82.9707 9.806H79.6047V11.984ZM106.459 14V3.56H100.699C100.699 7.214 100.537 10.004 100.051 11.462C99.6188 12.74 98.8447 14 96.1808 14H94.8488V10.85H94.9748C96.0728 10.85 96.5228 10.346 96.7388 9.788C97.0988 8.852 97.1888 7.574 97.1888 0.608H110.167V14H106.459ZM119.086 6.08C117.268 6.08 116.584 6.818 116.404 7.862H121.696C121.696 7.124 121.336 6.08 119.086 6.08ZM121.768 10.886H125.422C125.422 11.714 124.774 14.234 119.608 14.234H118.942C114.01 14.234 112.786 11.534 112.786 9.14V8.888C112.786 6.638 113.902 3.794 118.636 3.794H119.428C124.54 3.794 125.458 6.638 125.458 9.428V9.752H116.368C116.512 10.904 117.25 11.84 119.392 11.84C121.426 11.84 121.678 11.048 121.768 10.886ZM134.126 14.27H133.568C128.186 14.27 127.358 10.994 127.358 9.176V8.924C127.358 7.124 128.186 3.74 133.55 3.74H134.144C139.688 3.74 140.336 7.142 140.336 8.906V9.194C140.336 10.994 139.688 14.27 134.126 14.27ZM133.748 11.642H133.946C136.16 11.642 136.718 10.058 136.718 8.96C136.718 7.826 136.16 6.314 133.946 6.314H133.748C131.444 6.314 130.976 7.826 130.976 8.96C130.976 10.058 131.444 11.642 133.748 11.642ZM146.261 14H142.751V4.01H146.261V7.646H151.157V4.01H154.667V14H151.157V10.31H146.261V14ZM166.011 7.952L161.187 14H157.587V4.01H161.097V10.058L165.921 4.01H169.521V14H166.011V7.952ZM171.612 16.124V11.336H172.818C173.502 9.968 173.61 6.998 173.7 4.01H184.266V11.336H186.066V16.124H182.736V14H174.942V16.124H171.612ZM176.13 11.336H180.756V6.674H176.85C176.796 7.97 176.616 9.95 176.13 11.336ZM10.998 32.762L8.568 27.308L6.21 32.762H10.998ZM13.338 38L12.24 35.516H5.004L3.924 38H0.198L6.138 24.608H11.106L17.316 38H13.338ZM28.1458 33.014V32.96C28.1458 31.88 27.6418 30.422 25.4458 30.422H25.2658C23.1598 30.422 22.4938 31.808 22.4938 32.96V33.014C22.4938 34.112 23.1598 35.552 25.2658 35.552H25.4458C27.6418 35.552 28.1458 34.04 28.1458 33.014ZM19.0018 41.438V28.01H22.4758V29.288C22.9078 28.82 24.2218 27.812 26.4898 27.812H26.7238C30.5398 27.812 31.7818 30.422 31.7818 32.798V33.104C31.7818 35.282 30.5038 38.198 26.7058 38.198H26.4538C24.1678 38.198 22.9438 37.154 22.5118 36.722V41.438H19.0018ZM37.0856 38V30.674H33.2156V28.01H44.4656V30.674H40.5956V38H37.0856ZM52.1841 30.08C50.3661 30.08 49.6821 30.818 49.5021 31.862H54.7941C54.7941 31.124 54.4341 30.08 52.1841 30.08ZM54.8661 34.886H58.5201C58.5201 35.714 57.8721 38.234 52.7061 38.234H52.0401C47.1081 38.234 45.8841 35.534 45.8841 33.14V32.888C45.8841 30.638 47.0001 27.794 51.7341 27.794H52.5261C57.6381 27.794 58.5561 30.638 58.5561 33.428V33.752H49.4661C49.6101 34.904 50.3481 35.84 52.4901 35.84C54.5241 35.84 54.7761 35.048 54.8661 34.886ZM64.2 31.268V38H60.96V28.01H65.91L68.88 34.382L71.85 28.01H76.62V38H73.11V31.268L69.996 38H67.314L64.2 31.268ZM85.681 38.27H85.123C79.741 38.27 78.913 34.994 78.913 33.176V32.924C78.913 31.124 79.741 27.74 85.105 27.74H85.699C91.243 27.74 91.891 31.142 91.891 32.906V33.194C91.891 34.994 91.243 38.27 85.681 38.27ZM85.303 35.642H85.501C87.715 35.642 88.273 34.058 88.273 32.96C88.273 31.826 87.715 30.314 85.501 30.314H85.303C82.999 30.314 82.531 31.826 82.531 32.96C82.531 34.058 82.999 35.642 85.303 35.642ZM102.55 38H94.3057V28.01H102.19C104.476 28.01 105.916 28.82 105.916 30.404V30.494C105.916 31.736 105.124 32.474 103.918 32.672C105.142 32.816 106.24 33.68 106.24 35.12V35.192C106.24 37.01 105.052 38 102.55 38ZM97.8157 31.988H101.038C101.884 31.988 102.316 31.664 102.316 31.034V30.944C102.316 30.368 101.92 30.026 101.038 30.026H97.8157V31.988ZM97.8157 35.984H101.182C102.118 35.984 102.64 35.678 102.64 34.976V34.832C102.64 34.202 102.208 33.806 101.182 33.806H97.8157V35.984ZM117.109 31.952L112.285 38H108.685V28.01H112.195V34.058L117.019 28.01H120.619V38H117.109V31.952ZM130.954 28.01H134.464V38H130.954V34.562C130.18 34.652 129.28 34.742 128.344 34.742C124.384 34.742 122.89 33.626 122.89 30.458V28.01H126.4V29.81C126.4 31.682 127.03 32.006 128.884 32.006C129.586 32.006 130.396 31.952 130.954 31.88V28.01Z" fill="url(#paint1_radial_2016_537)" style="mix-blend-mode:overlay"/>
<path d="M1.656 14V0.608H11.43C15.264 0.608 16.218 2.282 16.218 3.776V3.974C16.218 5.666 14.76 6.476 13.752 6.62C15.264 6.872 16.884 7.772 16.884 9.932V10.13C16.884 11.948 15.786 14 11.484 14H1.656ZM10.89 3.398H5.364V5.792H10.89C12.024 5.792 12.348 5.252 12.348 4.622V4.586C12.348 3.938 11.988 3.398 10.89 3.398ZM11.178 8.42H5.364V11.066H11.178C12.474 11.066 12.852 10.382 12.852 9.716V9.644C12.852 8.978 12.474 8.42 11.178 8.42ZM25.5462 14.27H24.9882C19.6062 14.27 18.7782 10.994 18.7782 9.176V8.924C18.7782 7.124 19.6062 3.74 24.9702 3.74H25.5642C31.1082 3.74 31.7562 7.142 31.7562 8.906V9.194C31.7562 10.994 31.1082 14.27 25.5462 14.27ZM25.1682 11.642H25.3662C27.5802 11.642 28.1382 10.058 28.1382 8.96C28.1382 7.826 27.5802 6.314 25.3662 6.314H25.1682C22.8642 6.314 22.3962 7.826 22.3962 8.96C22.3962 10.058 22.8642 11.642 25.1682 11.642ZM42.1851 14V6.674H38.2251C38.2251 9.356 38.1351 10.85 37.7931 11.768C37.4151 12.776 36.9111 14 34.2651 14H33.1671V11.39H33.3831C34.0131 11.39 34.4811 11.174 34.6791 10.256C34.8231 9.482 34.8771 8.636 34.8771 4.01H45.6951V14H42.1851ZM56.0365 14L52.1485 9.374V14H48.6385V4.01H52.1485V8.006L55.7125 4.01H59.7625L55.5865 8.492L60.2125 14H56.0365ZM67.47 14.27H66.912C61.53 14.27 60.702 10.994 60.702 9.176V8.924C60.702 7.124 61.53 3.74 66.894 3.74H67.488C73.032 3.74 73.68 7.142 73.68 8.906V9.194C73.68 10.994 73.032 14.27 67.47 14.27ZM67.092 11.642H67.29C69.504 11.642 70.062 10.058 70.062 8.96C70.062 7.826 69.504 6.314 67.29 6.314H67.092C64.788 6.314 64.32 7.826 64.32 8.96C64.32 10.058 64.788 11.642 67.092 11.642ZM84.3387 14H76.0947V4.01H83.9787C86.2647 4.01 87.7047 4.82 87.7047 6.404V6.494C87.7047 7.736 86.9127 8.474 85.7067 8.672C86.9307 8.816 88.0287 9.68 88.0287 11.12V11.192C88.0287 13.01 86.8407 14 84.3387 14ZM79.6047 7.988H82.8267C83.6727 7.988 84.1047 7.664 84.1047 7.034V6.944C84.1047 6.368 83.7087 6.026 82.8267 6.026H79.6047V7.988ZM79.6047 11.984H82.9707C83.9067 11.984 84.4287 11.678 84.4287 10.976V10.832C84.4287 10.202 83.9967 9.806 82.9707 9.806H79.6047V11.984ZM106.459 14V3.56H100.699C100.699 7.214 100.537 10.004 100.051 11.462C99.6188 12.74 98.8447 14 96.1808 14H94.8488V10.85H94.9748C96.0728 10.85 96.5228 10.346 96.7388 9.788C97.0988 8.852 97.1888 7.574 97.1888 0.608H110.167V14H106.459ZM119.086 6.08C117.268 6.08 116.584 6.818 116.404 7.862H121.696C121.696 7.124 121.336 6.08 119.086 6.08ZM121.768 10.886H125.422C125.422 11.714 124.774 14.234 119.608 14.234H118.942C114.01 14.234 112.786 11.534 112.786 9.14V8.888C112.786 6.638 113.902 3.794 118.636 3.794H119.428C124.54 3.794 125.458 6.638 125.458 9.428V9.752H116.368C116.512 10.904 117.25 11.84 119.392 11.84C121.426 11.84 121.678 11.048 121.768 10.886ZM134.126 14.27H133.568C128.186 14.27 127.358 10.994 127.358 9.176V8.924C127.358 7.124 128.186 3.74 133.55 3.74H134.144C139.688 3.74 140.336 7.142 140.336 8.906V9.194C140.336 10.994 139.688 14.27 134.126 14.27ZM133.748 11.642H133.946C136.16 11.642 136.718 10.058 136.718 8.96C136.718 7.826 136.16 6.314 133.946 6.314H133.748C131.444 6.314 130.976 7.826 130.976 8.96C130.976 10.058 131.444 11.642 133.748 11.642ZM146.261 14H142.751V4.01H146.261V7.646H151.157V4.01H154.667V14H151.157V10.31H146.261V14ZM166.011 7.952L161.187 14H157.587V4.01H161.097V10.058L165.921 4.01H169.521V14H166.011V7.952ZM171.612 16.124V11.336H172.818C173.502 9.968 173.61 6.998 173.7 4.01H184.266V11.336H186.066V16.124H182.736V14H174.942V16.124H171.612ZM176.13 11.336H180.756V6.674H176.85C176.796 7.97 176.616 9.95 176.13 11.336ZM10.998 32.762L8.568 27.308L6.21 32.762H10.998ZM13.338 38L12.24 35.516H5.004L3.924 38H0.198L6.138 24.608H11.106L17.316 38H13.338ZM28.1458 33.014V32.96C28.1458 31.88 27.6418 30.422 25.4458 30.422H25.2658C23.1598 30.422 22.4938 31.808 22.4938 32.96V33.014C22.4938 34.112 23.1598 35.552 25.2658 35.552H25.4458C27.6418 35.552 28.1458 34.04 28.1458 33.014ZM19.0018 41.438V28.01H22.4758V29.288C22.9078 28.82 24.2218 27.812 26.4898 27.812H26.7238C30.5398 27.812 31.7818 30.422 31.7818 32.798V33.104C31.7818 35.282 30.5038 38.198 26.7058 38.198H26.4538C24.1678 38.198 22.9438 37.154 22.5118 36.722V41.438H19.0018ZM37.0856 38V30.674H33.2156V28.01H44.4656V30.674H40.5956V38H37.0856ZM52.1841 30.08C50.3661 30.08 49.6821 30.818 49.5021 31.862H54.7941C54.7941 31.124 54.4341 30.08 52.1841 30.08ZM54.8661 34.886H58.5201C58.5201 35.714 57.8721 38.234 52.7061 38.234H52.0401C47.1081 38.234 45.8841 35.534 45.8841 33.14V32.888C45.8841 30.638 47.0001 27.794 51.7341 27.794H52.5261C57.6381 27.794 58.5561 30.638 58.5561 33.428V33.752H49.4661C49.6101 34.904 50.3481 35.84 52.4901 35.84C54.5241 35.84 54.7761 35.048 54.8661 34.886ZM64.2 31.268V38H60.96V28.01H65.91L68.88 34.382L71.85 28.01H76.62V38H73.11V31.268L69.996 38H67.314L64.2 31.268ZM85.681 38.27H85.123C79.741 38.27 78.913 34.994 78.913 33.176V32.924C78.913 31.124 79.741 27.74 85.105 27.74H85.699C91.243 27.74 91.891 31.142 91.891 32.906V33.194C91.891 34.994 91.243 38.27 85.681 38.27ZM85.303 35.642H85.501C87.715 35.642 88.273 34.058 88.273 32.96C88.273 31.826 87.715 30.314 85.501 30.314H85.303C82.999 30.314 82.531 31.826 82.531 32.96C82.531 34.058 82.999 35.642 85.303 35.642ZM102.55 38H94.3057V28.01H102.19C104.476 28.01 105.916 28.82 105.916 30.404V30.494C105.916 31.736 105.124 32.474 103.918 32.672C105.142 32.816 106.24 33.68 106.24 35.12V35.192C106.24 37.01 105.052 38 102.55 38ZM97.8157 31.988H101.038C101.884 31.988 102.316 31.664 102.316 31.034V30.944C102.316 30.368 101.92 30.026 101.038 30.026H97.8157V31.988ZM97.8157 35.984H101.182C102.118 35.984 102.64 35.678 102.64 34.976V34.832C102.64 34.202 102.208 33.806 101.182 33.806H97.8157V35.984ZM117.109 31.952L112.285 38H108.685V28.01H112.195V34.058L117.019 28.01H120.619V38H117.109V31.952ZM130.954 28.01H134.464V38H130.954V34.562C130.18 34.652 129.28 34.742 128.344 34.742C124.384 34.742 122.89 33.626 122.89 30.458V28.01H126.4V29.81C126.4 31.682 127.03 32.006 128.884 32.006C129.586 32.006 130.396 31.952 130.954 31.88V28.01Z" fill="url(#paint2_radial_2016_537)"/>
<path d="M1.656 14V0.608H11.43C15.264 0.608 16.218 2.282 16.218 3.776V3.974C16.218 5.666 14.76 6.476 13.752 6.62C15.264 6.872 16.884 7.772 16.884 9.932V10.13C16.884 11.948 15.786 14 11.484 14H1.656ZM10.89 3.398H5.364V5.792H10.89C12.024 5.792 12.348 5.252 12.348 4.622V4.586C12.348 3.938 11.988 3.398 10.89 3.398ZM11.178 8.42H5.364V11.066H11.178C12.474 11.066 12.852 10.382 12.852 9.716V9.644C12.852 8.978 12.474 8.42 11.178 8.42ZM25.5462 14.27H24.9882C19.6062 14.27 18.7782 10.994 18.7782 9.176V8.924C18.7782 7.124 19.6062 3.74 24.9702 3.74H25.5642C31.1082 3.74 31.7562 7.142 31.7562 8.906V9.194C31.7562 10.994 31.1082 14.27 25.5462 14.27ZM25.1682 11.642H25.3662C27.5802 11.642 28.1382 10.058 28.1382 8.96C28.1382 7.826 27.5802 6.314 25.3662 6.314H25.1682C22.8642 6.314 22.3962 7.826 22.3962 8.96C22.3962 10.058 22.8642 11.642 25.1682 11.642ZM42.1851 14V6.674H38.2251C38.2251 9.356 38.1351 10.85 37.7931 11.768C37.4151 12.776 36.9111 14 34.2651 14H33.1671V11.39H33.3831C34.0131 11.39 34.4811 11.174 34.6791 10.256C34.8231 9.482 34.8771 8.636 34.8771 4.01H45.6951V14H42.1851ZM56.0365 14L52.1485 9.374V14H48.6385V4.01H52.1485V8.006L55.7125 4.01H59.7625L55.5865 8.492L60.2125 14H56.0365ZM67.47 14.27H66.912C61.53 14.27 60.702 10.994 60.702 9.176V8.924C60.702 7.124 61.53 3.74 66.894 3.74H67.488C73.032 3.74 73.68 7.142 73.68 8.906V9.194C73.68 10.994 73.032 14.27 67.47 14.27ZM67.092 11.642H67.29C69.504 11.642 70.062 10.058 70.062 8.96C70.062 7.826 69.504 6.314 67.29 6.314H67.092C64.788 6.314 64.32 7.826 64.32 8.96C64.32 10.058 64.788 11.642 67.092 11.642ZM84.3387 14H76.0947V4.01H83.9787C86.2647 4.01 87.7047 4.82 87.7047 6.404V6.494C87.7047 7.736 86.9127 8.474 85.7067 8.672C86.9307 8.816 88.0287 9.68 88.0287 11.12V11.192C88.0287 13.01 86.8407 14 84.3387 14ZM79.6047 7.988H82.8267C83.6727 7.988 84.1047 7.664 84.1047 7.034V6.944C84.1047 6.368 83.7087 6.026 82.8267 6.026H79.6047V7.988ZM79.6047 11.984H82.9707C83.9067 11.984 84.4287 11.678 84.4287 10.976V10.832C84.4287 10.202 83.9967 9.806 82.9707 9.806H79.6047V11.984ZM106.459 14V3.56H100.699C100.699 7.214 100.537 10.004 100.051 11.462C99.6188 12.74 98.8447 14 96.1808 14H94.8488V10.85H94.9748C96.0728 10.85 96.5228 10.346 96.7388 9.788C97.0988 8.852 97.1888 7.574 97.1888 0.608H110.167V14H106.459ZM119.086 6.08C117.268 6.08 116.584 6.818 116.404 7.862H121.696C121.696 7.124 121.336 6.08 119.086 6.08ZM121.768 10.886H125.422C125.422 11.714 124.774 14.234 119.608 14.234H118.942C114.01 14.234 112.786 11.534 112.786 9.14V8.888C112.786 6.638 113.902 3.794 118.636 3.794H119.428C124.54 3.794 125.458 6.638 125.458 9.428V9.752H116.368C116.512 10.904 117.25 11.84 119.392 11.84C121.426 11.84 121.678 11.048 121.768 10.886ZM134.126 14.27H133.568C128.186 14.27 127.358 10.994 127.358 9.176V8.924C127.358 7.124 128.186 3.74 133.55 3.74H134.144C139.688 3.74 140.336 7.142 140.336 8.906V9.194C140.336 10.994 139.688 14.27 134.126 14.27ZM133.748 11.642H133.946C136.16 11.642 136.718 10.058 136.718 8.96C136.718 7.826 136.16 6.314 133.946 6.314H133.748C131.444 6.314 130.976 7.826 130.976 8.96C130.976 10.058 131.444 11.642 133.748 11.642ZM146.261 14H142.751V4.01H146.261V7.646H151.157V4.01H154.667V14H151.157V10.31H146.261V14ZM166.011 7.952L161.187 14H157.587V4.01H161.097V10.058L165.921 4.01H169.521V14H166.011V7.952ZM171.612 16.124V11.336H172.818C173.502 9.968 173.61 6.998 173.7 4.01H184.266V11.336H186.066V16.124H182.736V14H174.942V16.124H171.612ZM176.13 11.336H180.756V6.674H176.85C176.796 7.97 176.616 9.95 176.13 11.336ZM10.998 32.762L8.568 27.308L6.21 32.762H10.998ZM13.338 38L12.24 35.516H5.004L3.924 38H0.198L6.138 24.608H11.106L17.316 38H13.338ZM28.1458 33.014V32.96C28.1458 31.88 27.6418 30.422 25.4458 30.422H25.2658C23.1598 30.422 22.4938 31.808 22.4938 32.96V33.014C22.4938 34.112 23.1598 35.552 25.2658 35.552H25.4458C27.6418 35.552 28.1458 34.04 28.1458 33.014ZM19.0018 41.438V28.01H22.4758V29.288C22.9078 28.82 24.2218 27.812 26.4898 27.812H26.7238C30.5398 27.812 31.7818 30.422 31.7818 32.798V33.104C31.7818 35.282 30.5038 38.198 26.7058 38.198H26.4538C24.1678 38.198 22.9438 37.154 22.5118 36.722V41.438H19.0018ZM37.0856 38V30.674H33.2156V28.01H44.4656V30.674H40.5956V38H37.0856ZM52.1841 30.08C50.3661 30.08 49.6821 30.818 49.5021 31.862H54.7941C54.7941 31.124 54.4341 30.08 52.1841 30.08ZM54.8661 34.886H58.5201C58.5201 35.714 57.8721 38.234 52.7061 38.234H52.0401C47.1081 38.234 45.8841 35.534 45.8841 33.14V32.888C45.8841 30.638 47.0001 27.794 51.7341 27.794H52.5261C57.6381 27.794 58.5561 30.638 58.5561 33.428V33.752H49.4661C49.6101 34.904 50.3481 35.84 52.4901 35.84C54.5241 35.84 54.7761 35.048 54.8661 34.886ZM64.2 31.268V38H60.96V28.01H65.91L68.88 34.382L71.85 28.01H76.62V38H73.11V31.268L69.996 38H67.314L64.2 31.268ZM85.681 38.27H85.123C79.741 38.27 78.913 34.994 78.913 33.176V32.924C78.913 31.124 79.741 27.74 85.105 27.74H85.699C91.243 27.74 91.891 31.142 91.891 32.906V33.194C91.891 34.994 91.243 38.27 85.681 38.27ZM85.303 35.642H85.501C87.715 35.642 88.273 34.058 88.273 32.96C88.273 31.826 87.715 30.314 85.501 30.314H85.303C82.999 30.314 82.531 31.826 82.531 32.96C82.531 34.058 82.999 35.642 85.303 35.642ZM102.55 38H94.3057V28.01H102.19C104.476 28.01 105.916 28.82 105.916 30.404V30.494C105.916 31.736 105.124 32.474 103.918 32.672C105.142 32.816 106.24 33.68 106.24 35.12V35.192C106.24 37.01 105.052 38 102.55 38ZM97.8157 31.988H101.038C101.884 31.988 102.316 31.664 102.316 31.034V30.944C102.316 30.368 101.92 30.026 101.038 30.026H97.8157V31.988ZM97.8157 35.984H101.182C102.118 35.984 102.64 35.678 102.64 34.976V34.832C102.64 34.202 102.208 33.806 101.182 33.806H97.8157V35.984ZM117.109 31.952L112.285 38H108.685V28.01H112.195V34.058L117.019 28.01H120.619V38H117.109V31.952ZM130.954 28.01H134.464V38H130.954V34.562C130.18 34.652 129.28 34.742 128.344 34.742C124.384 34.742 122.89 33.626 122.89 30.458V28.01H126.4V29.81C126.4 31.682 127.03 32.006 128.884 32.006C129.586 32.006 130.396 31.952 130.954 31.88V28.01Z" fill="#C1A875" style="mix-blend-mode:color"/>
<defs>
<linearGradient id="paint0_linear_2016_537" x1="8.27014e-07" y1="30" x2="222" y2="30" gradientUnits="userSpaceOnUse">
<stop stop-color="#576167"/>
<stop offset="0.191294" stop-color="#9EA1A2"/>
<stop offset="0.396166" stop-color="#848989"/>
<stop offset="0.62055" stop-color="#576167"/>
<stop offset="0.830299" stop-color="#757A7C"/>
<stop offset="1" stop-color="#576167"/>
</linearGradient>
<radialGradient id="paint1_radial_2016_537" cx="0" cy="0" r="1" gradientUnits="userSpaceOnUse" gradientTransform="translate(118.226 2.39326) rotate(90) scale(53.4944 167.95)">
<stop stop-color="white"/>
<stop offset="1" stop-color="white" stop-opacity="0"/>
</radialGradient>
<radialGradient id="paint2_radial_2016_537" cx="0" cy="0" r="1" gradientUnits="userSpaceOnUse" gradientTransform="translate(130.783 82.9888) rotate(-89.7344) scale(76.6525 240.162)">
<stop stop-color="white"/>
<stop offset="1" stop-color="white" stop-opacity="0"/>
</radialGradient>
</defs>
</svg>
