<svg width="186" height="39" viewBox="0 0 186 39" fill="none" xmlns="http://www.w3.org/2000/svg">
<path d="M15.272 9.968V10.148C15.272 13.01 12.608 14.234 7.928 14.234H7.496C3.68 14.234 0.00800003 13.1 0.00800003 9.5V9.284H3.968C3.968 10.94 5.444 11.516 8.126 11.516C10.358 11.516 11.42 10.922 11.42 9.842C11.42 8.834 10.718 8.402 8.972 8.402H5.102V5.756H8.774C9.854 5.756 11.006 5.594 11.006 4.586C11.006 3.452 10.034 3.092 7.676 3.092C5.75 3.092 4.13 3.452 4.076 4.964H0.116V4.694C0.116 1.508 3.59 0.446 7.316 0.446H7.892C12.41 0.446 14.858 1.58 14.858 3.83V3.956C14.858 5.666 13.724 6.494 12.284 6.872C13.724 7.16 15.272 8.096 15.272 9.968ZM22.2951 12.002C24.3471 12.002 25.0491 10.706 25.0491 9.95V9.176C24.7431 9.302 23.8611 9.482 22.8531 9.644C21.1611 9.932 20.6211 10.166 20.6211 10.868V10.904C20.6211 11.534 21.0711 12.002 22.2951 12.002ZM25.1571 12.614C24.7251 13.136 23.6451 14.198 21.3051 14.198H21.0171C18.2271 14.198 17.0751 12.686 17.0751 11.03V10.958C17.0751 9.23 18.1731 8.168 21.5571 7.88L24.2931 7.646C24.8511 7.592 25.0491 7.412 25.0491 6.998C25.0491 6.53 24.9051 6.026 22.9611 6.026C21.1251 6.026 20.9451 6.746 20.9451 7.124H17.3451V7.088C17.3451 6.098 17.7411 3.776 22.6551 3.776H23.2131C28.1631 3.776 28.4691 5.81 28.4691 7.142V10.436C28.4691 11.066 28.5951 11.318 29.2971 11.318H29.6751V14H26.8311C25.7871 14 25.3011 13.262 25.1571 12.614ZM40.1008 7.952L35.2768 14H31.6768V4.01H35.1868V10.058L40.0108 4.01H43.6108V14H40.1008V7.952ZM37.8688 2.984H37.3288C34.4668 2.984 33.9628 1.04 33.9628 0.104V0.0499994H36.6088C36.6088 0.284 36.7168 1.004 37.6168 1.004C38.4628 1.004 38.5888 0.284 38.5888 0.0499994H41.1988V0.104C41.1988 1.04 40.4788 2.984 37.8688 2.984ZM59.8863 11.336V16.124H56.5563V14H46.5303V4.01H50.0403V11.336H54.5763V4.01H58.0863V11.336H59.8863ZM67.6197 6.08C65.8017 6.08 65.1177 6.818 64.9377 7.862H70.2297C70.2297 7.124 69.8697 6.08 67.6197 6.08ZM70.3017 10.886H73.9557C73.9557 11.714 73.3077 14.234 68.1417 14.234H67.4757C62.5437 14.234 61.3197 11.534 61.3197 9.14V8.888C61.3197 6.638 62.4357 3.794 67.1697 3.794H67.9617C73.0737 3.794 73.9917 6.638 73.9917 9.428V9.752H64.9017C65.0457 10.904 65.7837 11.84 67.9257 11.84C69.9597 11.84 70.2117 11.048 70.3017 10.886ZM84.6395 14H76.3955V4.01H84.2795C86.5655 4.01 88.0055 4.82 88.0055 6.404V6.494C88.0055 7.736 87.2135 8.474 86.0075 8.672C87.2315 8.816 88.3295 9.68 88.3295 11.12V11.192C88.3295 13.01 87.1415 14 84.6395 14ZM79.9055 7.988H83.1275C83.9735 7.988 84.4055 7.664 84.4055 7.034V6.944C84.4055 6.368 84.0095 6.026 83.1275 6.026H79.9055V7.988ZM79.9055 11.984H83.2715C84.2075 11.984 84.7295 11.678 84.7295 10.976V10.832C84.7295 10.202 84.2975 9.806 83.2715 9.806H79.9055V11.984ZM95.4025 12.002C97.4545 12.002 98.1565 10.706 98.1565 9.95V9.176C97.8505 9.302 96.9685 9.482 95.9605 9.644C94.2685 9.932 93.7285 10.166 93.7285 10.868V10.904C93.7285 11.534 94.1785 12.002 95.4025 12.002ZM98.2645 12.614C97.8325 13.136 96.7525 14.198 94.4125 14.198H94.1245C91.3345 14.198 90.1825 12.686 90.1825 11.03V10.958C90.1825 9.23 91.2805 8.168 94.6645 7.88L97.4005 7.646C97.9585 7.592 98.1565 7.412 98.1565 6.998C98.1565 6.53 98.0125 6.026 96.0685 6.026C94.2325 6.026 94.0525 6.746 94.0525 7.124H90.4525V7.088C90.4525 6.098 90.8485 3.776 95.7625 3.776H96.3205C101.271 3.776 101.577 5.81 101.577 7.142V10.436C101.577 11.066 101.703 11.318 102.405 11.318H102.783V14H99.9385C98.8945 14 98.4085 13.262 98.2645 12.614ZM121.723 14V5L113.893 14H110.185V0.608H113.893V9.608L121.723 0.608H125.431V14H121.723ZM137.73 9.014V8.96C137.73 7.88 137.226 6.422 135.03 6.422H134.85C132.744 6.422 132.078 7.808 132.078 8.96V9.014C132.078 10.112 132.744 11.552 134.85 11.552H135.03C137.226 11.552 137.73 10.04 137.73 9.014ZM128.586 17.438V4.01H132.06V5.288C132.492 4.82 133.806 3.812 136.074 3.812H136.308C140.124 3.812 141.366 6.422 141.366 8.798V9.104C141.366 11.282 140.088 14.198 136.29 14.198H136.038C133.752 14.198 132.528 13.154 132.096 12.722V17.438H128.586ZM152.232 7.952L147.408 14H143.808V4.01H147.318V10.058L152.142 4.01H155.742V14H152.232V7.952ZM162.171 14H158.661V4.01H162.171V7.646H167.067V4.01H170.577V14H167.067V10.31H162.171V14ZM178.213 12.002C180.265 12.002 180.967 10.706 180.967 9.95V9.176C180.661 9.302 179.779 9.482 178.771 9.644C177.079 9.932 176.539 10.166 176.539 10.868V10.904C176.539 11.534 176.989 12.002 178.213 12.002ZM181.075 12.614C180.643 13.136 179.563 14.198 177.223 14.198H176.935C174.145 14.198 172.993 12.686 172.993 11.03V10.958C172.993 9.23 174.091 8.168 177.475 7.88L180.211 7.646C180.769 7.592 180.967 7.412 180.967 6.998C180.967 6.53 180.823 6.026 178.879 6.026C177.043 6.026 176.863 6.746 176.863 7.124H173.263V7.088C173.263 6.098 173.659 3.776 178.573 3.776H179.131C184.081 3.776 184.387 5.81 184.387 7.142V10.436C184.387 11.066 184.513 11.318 185.215 11.318H185.593V14H182.749C181.705 14 181.219 13.262 181.075 12.614ZM0.656 38V24.608H5.588L9.854 33.68L14.246 24.608H18.872V38H15.254V29.234L11.186 38H8.288L4.22 29.234V38H0.656ZM26.7072 36.002C28.7592 36.002 29.4612 34.706 29.4612 33.95V33.176C29.1552 33.302 28.2732 33.482 27.2652 33.644C25.5732 33.932 25.0332 34.166 25.0332 34.868V34.904C25.0332 35.534 25.4832 36.002 26.7072 36.002ZM29.5692 36.614C29.1372 37.136 28.0572 38.198 25.7172 38.198H25.4292C22.6392 38.198 21.4872 36.686 21.4872 35.03V34.958C21.4872 33.23 22.5852 32.168 25.9692 31.88L28.7052 31.646C29.2632 31.592 29.4612 31.412 29.4612 30.998C29.4612 30.53 29.3172 30.026 27.3732 30.026C25.5372 30.026 25.3572 30.746 25.3572 31.124H21.7572V31.088C21.7572 30.098 22.1532 27.776 27.0672 27.776H27.6252C32.5752 27.776 32.8812 29.81 32.8812 31.142V34.436C32.8812 35.066 33.0072 35.318 33.7092 35.318H34.0872V38H31.2432C30.1992 38 29.7132 37.262 29.5692 36.614ZM43.5229 38L39.6349 33.374V38H36.1249V28.01H39.6349V32.006L43.1989 28.01H47.2489L43.0729 32.492L47.6989 38H43.5229ZM57.0444 34.076H60.7164C60.7164 35.588 59.8164 38.27 55.0104 38.27H54.1284C49.1424 38.27 48.2064 35.03 48.2064 33.14V32.888C48.2064 30.998 49.0884 27.74 54.1104 27.74H54.9384C59.7624 27.74 60.7164 30.368 60.7164 31.808V31.826H57.0444C56.9904 31.538 56.6484 30.296 54.5784 30.296H54.3984C52.3284 30.296 51.8424 31.718 51.8424 32.924V32.942C51.8424 34.184 52.4364 35.66 54.4704 35.66H54.6504C56.7384 35.66 57.0444 34.31 57.0444 34.076ZM71.5304 31.952L66.7064 38H63.1064V28.01H66.6164V34.058L71.4404 28.01H75.0404V38H71.5304V31.952ZM81.2 31.268V38H77.96V28.01H82.91L85.88 34.382L88.85 28.01H93.62V38H90.11V31.268L86.996 38H84.314L81.2 31.268ZM102.681 38.27H102.123C96.741 38.27 95.913 34.994 95.913 33.176V32.924C95.913 31.124 96.741 27.74 102.105 27.74H102.699C108.243 27.74 108.891 31.142 108.891 32.906V33.194C108.891 34.994 108.243 38.27 102.681 38.27ZM102.303 35.642H102.501C104.715 35.642 105.273 34.058 105.273 32.96C105.273 31.826 104.715 30.314 102.501 30.314H102.303C99.999 30.314 99.531 31.826 99.531 32.96C99.531 34.058 99.999 35.642 102.303 35.642ZM119.55 38H111.306V28.01H119.19C121.476 28.01 122.916 28.82 122.916 30.404V30.494C122.916 31.736 122.124 32.474 120.918 32.672C122.142 32.816 123.24 33.68 123.24 35.12V35.192C123.24 37.01 122.052 38 119.55 38ZM114.816 31.988H118.038C118.884 31.988 119.316 31.664 119.316 31.034V30.944C119.316 30.368 118.92 30.026 118.038 30.026H114.816V31.988ZM114.816 35.984H118.182C119.118 35.984 119.64 35.678 119.64 34.976V34.832C119.64 34.202 119.208 33.806 118.182 33.806H114.816V35.984ZM129.195 38H125.685V28.01H129.195V31.646H134.091V28.01H137.601V38H134.091V34.31H129.195V38ZM145.237 36.002C147.289 36.002 147.991 34.706 147.991 33.95V33.176C147.685 33.302 146.803 33.482 145.795 33.644C144.103 33.932 143.562 34.166 143.562 34.868V34.904C143.562 35.534 144.013 36.002 145.237 36.002ZM148.099 36.614C147.667 37.136 146.587 38.198 144.247 38.198H143.959C141.169 38.198 140.017 36.686 140.017 35.03V34.958C140.017 33.23 141.115 32.168 144.499 31.88L147.235 31.646C147.793 31.592 147.991 31.412 147.991 30.998C147.991 30.53 147.847 30.026 145.903 30.026C144.067 30.026 143.887 30.746 143.887 31.124H140.287V31.088C140.287 30.098 140.683 27.776 145.597 27.776H146.155C151.105 27.776 151.411 29.81 151.411 31.142V34.436C151.411 35.066 151.537 35.318 152.239 35.318H152.617V38H149.773C148.729 38 148.243 37.262 148.099 36.614Z" fill="url(#paint0_linear_2016_565)"/>
<path d="M15.272 9.968V10.148C15.272 13.01 12.608 14.234 7.928 14.234H7.496C3.68 14.234 0.00800003 13.1 0.00800003 9.5V9.284H3.968C3.968 10.94 5.444 11.516 8.126 11.516C10.358 11.516 11.42 10.922 11.42 9.842C11.42 8.834 10.718 8.402 8.972 8.402H5.102V5.756H8.774C9.854 5.756 11.006 5.594 11.006 4.586C11.006 3.452 10.034 3.092 7.676 3.092C5.75 3.092 4.13 3.452 4.076 4.964H0.116V4.694C0.116 1.508 3.59 0.446 7.316 0.446H7.892C12.41 0.446 14.858 1.58 14.858 3.83V3.956C14.858 5.666 13.724 6.494 12.284 6.872C13.724 7.16 15.272 8.096 15.272 9.968ZM22.2951 12.002C24.3471 12.002 25.0491 10.706 25.0491 9.95V9.176C24.7431 9.302 23.8611 9.482 22.8531 9.644C21.1611 9.932 20.6211 10.166 20.6211 10.868V10.904C20.6211 11.534 21.0711 12.002 22.2951 12.002ZM25.1571 12.614C24.7251 13.136 23.6451 14.198 21.3051 14.198H21.0171C18.2271 14.198 17.0751 12.686 17.0751 11.03V10.958C17.0751 9.23 18.1731 8.168 21.5571 7.88L24.2931 7.646C24.8511 7.592 25.0491 7.412 25.0491 6.998C25.0491 6.53 24.9051 6.026 22.9611 6.026C21.1251 6.026 20.9451 6.746 20.9451 7.124H17.3451V7.088C17.3451 6.098 17.7411 3.776 22.6551 3.776H23.2131C28.1631 3.776 28.4691 5.81 28.4691 7.142V10.436C28.4691 11.066 28.5951 11.318 29.2971 11.318H29.6751V14H26.8311C25.7871 14 25.3011 13.262 25.1571 12.614ZM40.1008 7.952L35.2768 14H31.6768V4.01H35.1868V10.058L40.0108 4.01H43.6108V14H40.1008V7.952ZM37.8688 2.984H37.3288C34.4668 2.984 33.9628 1.04 33.9628 0.104V0.0499994H36.6088C36.6088 0.284 36.7168 1.004 37.6168 1.004C38.4628 1.004 38.5888 0.284 38.5888 0.0499994H41.1988V0.104C41.1988 1.04 40.4788 2.984 37.8688 2.984ZM59.8863 11.336V16.124H56.5563V14H46.5303V4.01H50.0403V11.336H54.5763V4.01H58.0863V11.336H59.8863ZM67.6197 6.08C65.8017 6.08 65.1177 6.818 64.9377 7.862H70.2297C70.2297 7.124 69.8697 6.08 67.6197 6.08ZM70.3017 10.886H73.9557C73.9557 11.714 73.3077 14.234 68.1417 14.234H67.4757C62.5437 14.234 61.3197 11.534 61.3197 9.14V8.888C61.3197 6.638 62.4357 3.794 67.1697 3.794H67.9617C73.0737 3.794 73.9917 6.638 73.9917 9.428V9.752H64.9017C65.0457 10.904 65.7837 11.84 67.9257 11.84C69.9597 11.84 70.2117 11.048 70.3017 10.886ZM84.6395 14H76.3955V4.01H84.2795C86.5655 4.01 88.0055 4.82 88.0055 6.404V6.494C88.0055 7.736 87.2135 8.474 86.0075 8.672C87.2315 8.816 88.3295 9.68 88.3295 11.12V11.192C88.3295 13.01 87.1415 14 84.6395 14ZM79.9055 7.988H83.1275C83.9735 7.988 84.4055 7.664 84.4055 7.034V6.944C84.4055 6.368 84.0095 6.026 83.1275 6.026H79.9055V7.988ZM79.9055 11.984H83.2715C84.2075 11.984 84.7295 11.678 84.7295 10.976V10.832C84.7295 10.202 84.2975 9.806 83.2715 9.806H79.9055V11.984ZM95.4025 12.002C97.4545 12.002 98.1565 10.706 98.1565 9.95V9.176C97.8505 9.302 96.9685 9.482 95.9605 9.644C94.2685 9.932 93.7285 10.166 93.7285 10.868V10.904C93.7285 11.534 94.1785 12.002 95.4025 12.002ZM98.2645 12.614C97.8325 13.136 96.7525 14.198 94.4125 14.198H94.1245C91.3345 14.198 90.1825 12.686 90.1825 11.03V10.958C90.1825 9.23 91.2805 8.168 94.6645 7.88L97.4005 7.646C97.9585 7.592 98.1565 7.412 98.1565 6.998C98.1565 6.53 98.0125 6.026 96.0685 6.026C94.2325 6.026 94.0525 6.746 94.0525 7.124H90.4525V7.088C90.4525 6.098 90.8485 3.776 95.7625 3.776H96.3205C101.271 3.776 101.577 5.81 101.577 7.142V10.436C101.577 11.066 101.703 11.318 102.405 11.318H102.783V14H99.9385C98.8945 14 98.4085 13.262 98.2645 12.614ZM121.723 14V5L113.893 14H110.185V0.608H113.893V9.608L121.723 0.608H125.431V14H121.723ZM137.73 9.014V8.96C137.73 7.88 137.226 6.422 135.03 6.422H134.85C132.744 6.422 132.078 7.808 132.078 8.96V9.014C132.078 10.112 132.744 11.552 134.85 11.552H135.03C137.226 11.552 137.73 10.04 137.73 9.014ZM128.586 17.438V4.01H132.06V5.288C132.492 4.82 133.806 3.812 136.074 3.812H136.308C140.124 3.812 141.366 6.422 141.366 8.798V9.104C141.366 11.282 140.088 14.198 136.29 14.198H136.038C133.752 14.198 132.528 13.154 132.096 12.722V17.438H128.586ZM152.232 7.952L147.408 14H143.808V4.01H147.318V10.058L152.142 4.01H155.742V14H152.232V7.952ZM162.171 14H158.661V4.01H162.171V7.646H167.067V4.01H170.577V14H167.067V10.31H162.171V14ZM178.213 12.002C180.265 12.002 180.967 10.706 180.967 9.95V9.176C180.661 9.302 179.779 9.482 178.771 9.644C177.079 9.932 176.539 10.166 176.539 10.868V10.904C176.539 11.534 176.989 12.002 178.213 12.002ZM181.075 12.614C180.643 13.136 179.563 14.198 177.223 14.198H176.935C174.145 14.198 172.993 12.686 172.993 11.03V10.958C172.993 9.23 174.091 8.168 177.475 7.88L180.211 7.646C180.769 7.592 180.967 7.412 180.967 6.998C180.967 6.53 180.823 6.026 178.879 6.026C177.043 6.026 176.863 6.746 176.863 7.124H173.263V7.088C173.263 6.098 173.659 3.776 178.573 3.776H179.131C184.081 3.776 184.387 5.81 184.387 7.142V10.436C184.387 11.066 184.513 11.318 185.215 11.318H185.593V14H182.749C181.705 14 181.219 13.262 181.075 12.614ZM0.656 38V24.608H5.588L9.854 33.68L14.246 24.608H18.872V38H15.254V29.234L11.186 38H8.288L4.22 29.234V38H0.656ZM26.7072 36.002C28.7592 36.002 29.4612 34.706 29.4612 33.95V33.176C29.1552 33.302 28.2732 33.482 27.2652 33.644C25.5732 33.932 25.0332 34.166 25.0332 34.868V34.904C25.0332 35.534 25.4832 36.002 26.7072 36.002ZM29.5692 36.614C29.1372 37.136 28.0572 38.198 25.7172 38.198H25.4292C22.6392 38.198 21.4872 36.686 21.4872 35.03V34.958C21.4872 33.23 22.5852 32.168 25.9692 31.88L28.7052 31.646C29.2632 31.592 29.4612 31.412 29.4612 30.998C29.4612 30.53 29.3172 30.026 27.3732 30.026C25.5372 30.026 25.3572 30.746 25.3572 31.124H21.7572V31.088C21.7572 30.098 22.1532 27.776 27.0672 27.776H27.6252C32.5752 27.776 32.8812 29.81 32.8812 31.142V34.436C32.8812 35.066 33.0072 35.318 33.7092 35.318H34.0872V38H31.2432C30.1992 38 29.7132 37.262 29.5692 36.614ZM43.5229 38L39.6349 33.374V38H36.1249V28.01H39.6349V32.006L43.1989 28.01H47.2489L43.0729 32.492L47.6989 38H43.5229ZM57.0444 34.076H60.7164C60.7164 35.588 59.8164 38.27 55.0104 38.27H54.1284C49.1424 38.27 48.2064 35.03 48.2064 33.14V32.888C48.2064 30.998 49.0884 27.74 54.1104 27.74H54.9384C59.7624 27.74 60.7164 30.368 60.7164 31.808V31.826H57.0444C56.9904 31.538 56.6484 30.296 54.5784 30.296H54.3984C52.3284 30.296 51.8424 31.718 51.8424 32.924V32.942C51.8424 34.184 52.4364 35.66 54.4704 35.66H54.6504C56.7384 35.66 57.0444 34.31 57.0444 34.076ZM71.5304 31.952L66.7064 38H63.1064V28.01H66.6164V34.058L71.4404 28.01H75.0404V38H71.5304V31.952ZM81.2 31.268V38H77.96V28.01H82.91L85.88 34.382L88.85 28.01H93.62V38H90.11V31.268L86.996 38H84.314L81.2 31.268ZM102.681 38.27H102.123C96.741 38.27 95.913 34.994 95.913 33.176V32.924C95.913 31.124 96.741 27.74 102.105 27.74H102.699C108.243 27.74 108.891 31.142 108.891 32.906V33.194C108.891 34.994 108.243 38.27 102.681 38.27ZM102.303 35.642H102.501C104.715 35.642 105.273 34.058 105.273 32.96C105.273 31.826 104.715 30.314 102.501 30.314H102.303C99.999 30.314 99.531 31.826 99.531 32.96C99.531 34.058 99.999 35.642 102.303 35.642ZM119.55 38H111.306V28.01H119.19C121.476 28.01 122.916 28.82 122.916 30.404V30.494C122.916 31.736 122.124 32.474 120.918 32.672C122.142 32.816 123.24 33.68 123.24 35.12V35.192C123.24 37.01 122.052 38 119.55 38ZM114.816 31.988H118.038C118.884 31.988 119.316 31.664 119.316 31.034V30.944C119.316 30.368 118.92 30.026 118.038 30.026H114.816V31.988ZM114.816 35.984H118.182C119.118 35.984 119.64 35.678 119.64 34.976V34.832C119.64 34.202 119.208 33.806 118.182 33.806H114.816V35.984ZM129.195 38H125.685V28.01H129.195V31.646H134.091V28.01H137.601V38H134.091V34.31H129.195V38ZM145.237 36.002C147.289 36.002 147.991 34.706 147.991 33.95V33.176C147.685 33.302 146.803 33.482 145.795 33.644C144.103 33.932 143.562 34.166 143.562 34.868V34.904C143.562 35.534 144.013 36.002 145.237 36.002ZM148.099 36.614C147.667 37.136 146.587 38.198 144.247 38.198H143.959C141.169 38.198 140.017 36.686 140.017 35.03V34.958C140.017 33.23 141.115 32.168 144.499 31.88L147.235 31.646C147.793 31.592 147.991 31.412 147.991 30.998C147.991 30.53 147.847 30.026 145.903 30.026C144.067 30.026 143.887 30.746 143.887 31.124H140.287V31.088C140.287 30.098 140.683 27.776 145.597 27.776H146.155C151.105 27.776 151.411 29.81 151.411 31.142V34.436C151.411 35.066 151.537 35.318 152.239 35.318H152.617V38H149.773C148.729 38 148.243 37.262 148.099 36.614Z" fill="url(#paint1_radial_2016_565)" style="mix-blend-mode:overlay"/>
<path d="M15.272 9.968V10.148C15.272 13.01 12.608 14.234 7.928 14.234H7.496C3.68 14.234 0.00800003 13.1 0.00800003 9.5V9.284H3.968C3.968 10.94 5.444 11.516 8.126 11.516C10.358 11.516 11.42 10.922 11.42 9.842C11.42 8.834 10.718 8.402 8.972 8.402H5.102V5.756H8.774C9.854 5.756 11.006 5.594 11.006 4.586C11.006 3.452 10.034 3.092 7.676 3.092C5.75 3.092 4.13 3.452 4.076 4.964H0.116V4.694C0.116 1.508 3.59 0.446 7.316 0.446H7.892C12.41 0.446 14.858 1.58 14.858 3.83V3.956C14.858 5.666 13.724 6.494 12.284 6.872C13.724 7.16 15.272 8.096 15.272 9.968ZM22.2951 12.002C24.3471 12.002 25.0491 10.706 25.0491 9.95V9.176C24.7431 9.302 23.8611 9.482 22.8531 9.644C21.1611 9.932 20.6211 10.166 20.6211 10.868V10.904C20.6211 11.534 21.0711 12.002 22.2951 12.002ZM25.1571 12.614C24.7251 13.136 23.6451 14.198 21.3051 14.198H21.0171C18.2271 14.198 17.0751 12.686 17.0751 11.03V10.958C17.0751 9.23 18.1731 8.168 21.5571 7.88L24.2931 7.646C24.8511 7.592 25.0491 7.412 25.0491 6.998C25.0491 6.53 24.9051 6.026 22.9611 6.026C21.1251 6.026 20.9451 6.746 20.9451 7.124H17.3451V7.088C17.3451 6.098 17.7411 3.776 22.6551 3.776H23.2131C28.1631 3.776 28.4691 5.81 28.4691 7.142V10.436C28.4691 11.066 28.5951 11.318 29.2971 11.318H29.6751V14H26.8311C25.7871 14 25.3011 13.262 25.1571 12.614ZM40.1008 7.952L35.2768 14H31.6768V4.01H35.1868V10.058L40.0108 4.01H43.6108V14H40.1008V7.952ZM37.8688 2.984H37.3288C34.4668 2.984 33.9628 1.04 33.9628 0.104V0.0499994H36.6088C36.6088 0.284 36.7168 1.004 37.6168 1.004C38.4628 1.004 38.5888 0.284 38.5888 0.0499994H41.1988V0.104C41.1988 1.04 40.4788 2.984 37.8688 2.984ZM59.8863 11.336V16.124H56.5563V14H46.5303V4.01H50.0403V11.336H54.5763V4.01H58.0863V11.336H59.8863ZM67.6197 6.08C65.8017 6.08 65.1177 6.818 64.9377 7.862H70.2297C70.2297 7.124 69.8697 6.08 67.6197 6.08ZM70.3017 10.886H73.9557C73.9557 11.714 73.3077 14.234 68.1417 14.234H67.4757C62.5437 14.234 61.3197 11.534 61.3197 9.14V8.888C61.3197 6.638 62.4357 3.794 67.1697 3.794H67.9617C73.0737 3.794 73.9917 6.638 73.9917 9.428V9.752H64.9017C65.0457 10.904 65.7837 11.84 67.9257 11.84C69.9597 11.84 70.2117 11.048 70.3017 10.886ZM84.6395 14H76.3955V4.01H84.2795C86.5655 4.01 88.0055 4.82 88.0055 6.404V6.494C88.0055 7.736 87.2135 8.474 86.0075 8.672C87.2315 8.816 88.3295 9.68 88.3295 11.12V11.192C88.3295 13.01 87.1415 14 84.6395 14ZM79.9055 7.988H83.1275C83.9735 7.988 84.4055 7.664 84.4055 7.034V6.944C84.4055 6.368 84.0095 6.026 83.1275 6.026H79.9055V7.988ZM79.9055 11.984H83.2715C84.2075 11.984 84.7295 11.678 84.7295 10.976V10.832C84.7295 10.202 84.2975 9.806 83.2715 9.806H79.9055V11.984ZM95.4025 12.002C97.4545 12.002 98.1565 10.706 98.1565 9.95V9.176C97.8505 9.302 96.9685 9.482 95.9605 9.644C94.2685 9.932 93.7285 10.166 93.7285 10.868V10.904C93.7285 11.534 94.1785 12.002 95.4025 12.002ZM98.2645 12.614C97.8325 13.136 96.7525 14.198 94.4125 14.198H94.1245C91.3345 14.198 90.1825 12.686 90.1825 11.03V10.958C90.1825 9.23 91.2805 8.168 94.6645 7.88L97.4005 7.646C97.9585 7.592 98.1565 7.412 98.1565 6.998C98.1565 6.53 98.0125 6.026 96.0685 6.026C94.2325 6.026 94.0525 6.746 94.0525 7.124H90.4525V7.088C90.4525 6.098 90.8485 3.776 95.7625 3.776H96.3205C101.271 3.776 101.577 5.81 101.577 7.142V10.436C101.577 11.066 101.703 11.318 102.405 11.318H102.783V14H99.9385C98.8945 14 98.4085 13.262 98.2645 12.614ZM121.723 14V5L113.893 14H110.185V0.608H113.893V9.608L121.723 0.608H125.431V14H121.723ZM137.73 9.014V8.96C137.73 7.88 137.226 6.422 135.03 6.422H134.85C132.744 6.422 132.078 7.808 132.078 8.96V9.014C132.078 10.112 132.744 11.552 134.85 11.552H135.03C137.226 11.552 137.73 10.04 137.73 9.014ZM128.586 17.438V4.01H132.06V5.288C132.492 4.82 133.806 3.812 136.074 3.812H136.308C140.124 3.812 141.366 6.422 141.366 8.798V9.104C141.366 11.282 140.088 14.198 136.29 14.198H136.038C133.752 14.198 132.528 13.154 132.096 12.722V17.438H128.586ZM152.232 7.952L147.408 14H143.808V4.01H147.318V10.058L152.142 4.01H155.742V14H152.232V7.952ZM162.171 14H158.661V4.01H162.171V7.646H167.067V4.01H170.577V14H167.067V10.31H162.171V14ZM178.213 12.002C180.265 12.002 180.967 10.706 180.967 9.95V9.176C180.661 9.302 179.779 9.482 178.771 9.644C177.079 9.932 176.539 10.166 176.539 10.868V10.904C176.539 11.534 176.989 12.002 178.213 12.002ZM181.075 12.614C180.643 13.136 179.563 14.198 177.223 14.198H176.935C174.145 14.198 172.993 12.686 172.993 11.03V10.958C172.993 9.23 174.091 8.168 177.475 7.88L180.211 7.646C180.769 7.592 180.967 7.412 180.967 6.998C180.967 6.53 180.823 6.026 178.879 6.026C177.043 6.026 176.863 6.746 176.863 7.124H173.263V7.088C173.263 6.098 173.659 3.776 178.573 3.776H179.131C184.081 3.776 184.387 5.81 184.387 7.142V10.436C184.387 11.066 184.513 11.318 185.215 11.318H185.593V14H182.749C181.705 14 181.219 13.262 181.075 12.614ZM0.656 38V24.608H5.588L9.854 33.68L14.246 24.608H18.872V38H15.254V29.234L11.186 38H8.288L4.22 29.234V38H0.656ZM26.7072 36.002C28.7592 36.002 29.4612 34.706 29.4612 33.95V33.176C29.1552 33.302 28.2732 33.482 27.2652 33.644C25.5732 33.932 25.0332 34.166 25.0332 34.868V34.904C25.0332 35.534 25.4832 36.002 26.7072 36.002ZM29.5692 36.614C29.1372 37.136 28.0572 38.198 25.7172 38.198H25.4292C22.6392 38.198 21.4872 36.686 21.4872 35.03V34.958C21.4872 33.23 22.5852 32.168 25.9692 31.88L28.7052 31.646C29.2632 31.592 29.4612 31.412 29.4612 30.998C29.4612 30.53 29.3172 30.026 27.3732 30.026C25.5372 30.026 25.3572 30.746 25.3572 31.124H21.7572V31.088C21.7572 30.098 22.1532 27.776 27.0672 27.776H27.6252C32.5752 27.776 32.8812 29.81 32.8812 31.142V34.436C32.8812 35.066 33.0072 35.318 33.7092 35.318H34.0872V38H31.2432C30.1992 38 29.7132 37.262 29.5692 36.614ZM43.5229 38L39.6349 33.374V38H36.1249V28.01H39.6349V32.006L43.1989 28.01H47.2489L43.0729 32.492L47.6989 38H43.5229ZM57.0444 34.076H60.7164C60.7164 35.588 59.8164 38.27 55.0104 38.27H54.1284C49.1424 38.27 48.2064 35.03 48.2064 33.14V32.888C48.2064 30.998 49.0884 27.74 54.1104 27.74H54.9384C59.7624 27.74 60.7164 30.368 60.7164 31.808V31.826H57.0444C56.9904 31.538 56.6484 30.296 54.5784 30.296H54.3984C52.3284 30.296 51.8424 31.718 51.8424 32.924V32.942C51.8424 34.184 52.4364 35.66 54.4704 35.66H54.6504C56.7384 35.66 57.0444 34.31 57.0444 34.076ZM71.5304 31.952L66.7064 38H63.1064V28.01H66.6164V34.058L71.4404 28.01H75.0404V38H71.5304V31.952ZM81.2 31.268V38H77.96V28.01H82.91L85.88 34.382L88.85 28.01H93.62V38H90.11V31.268L86.996 38H84.314L81.2 31.268ZM102.681 38.27H102.123C96.741 38.27 95.913 34.994 95.913 33.176V32.924C95.913 31.124 96.741 27.74 102.105 27.74H102.699C108.243 27.74 108.891 31.142 108.891 32.906V33.194C108.891 34.994 108.243 38.27 102.681 38.27ZM102.303 35.642H102.501C104.715 35.642 105.273 34.058 105.273 32.96C105.273 31.826 104.715 30.314 102.501 30.314H102.303C99.999 30.314 99.531 31.826 99.531 32.96C99.531 34.058 99.999 35.642 102.303 35.642ZM119.55 38H111.306V28.01H119.19C121.476 28.01 122.916 28.82 122.916 30.404V30.494C122.916 31.736 122.124 32.474 120.918 32.672C122.142 32.816 123.24 33.68 123.24 35.12V35.192C123.24 37.01 122.052 38 119.55 38ZM114.816 31.988H118.038C118.884 31.988 119.316 31.664 119.316 31.034V30.944C119.316 30.368 118.92 30.026 118.038 30.026H114.816V31.988ZM114.816 35.984H118.182C119.118 35.984 119.64 35.678 119.64 34.976V34.832C119.64 34.202 119.208 33.806 118.182 33.806H114.816V35.984ZM129.195 38H125.685V28.01H129.195V31.646H134.091V28.01H137.601V38H134.091V34.31H129.195V38ZM145.237 36.002C147.289 36.002 147.991 34.706 147.991 33.95V33.176C147.685 33.302 146.803 33.482 145.795 33.644C144.103 33.932 143.562 34.166 143.562 34.868V34.904C143.562 35.534 144.013 36.002 145.237 36.002ZM148.099 36.614C147.667 37.136 146.587 38.198 144.247 38.198H143.959C141.169 38.198 140.017 36.686 140.017 35.03V34.958C140.017 33.23 141.115 32.168 144.499 31.88L147.235 31.646C147.793 31.592 147.991 31.412 147.991 30.998C147.991 30.53 147.847 30.026 145.903 30.026C144.067 30.026 143.887 30.746 143.887 31.124H140.287V31.088C140.287 30.098 140.683 27.776 145.597 27.776H146.155C151.105 27.776 151.411 29.81 151.411 31.142V34.436C151.411 35.066 151.537 35.318 152.239 35.318H152.617V38H149.773C148.729 38 148.243 37.262 148.099 36.614Z" fill="url(#paint2_radial_2016_565)"/>
<path d="M15.272 9.968V10.148C15.272 13.01 12.608 14.234 7.928 14.234H7.496C3.68 14.234 0.00800003 13.1 0.00800003 9.5V9.284H3.968C3.968 10.94 5.444 11.516 8.126 11.516C10.358 11.516 11.42 10.922 11.42 9.842C11.42 8.834 10.718 8.402 8.972 8.402H5.102V5.756H8.774C9.854 5.756 11.006 5.594 11.006 4.586C11.006 3.452 10.034 3.092 7.676 3.092C5.75 3.092 4.13 3.452 4.076 4.964H0.116V4.694C0.116 1.508 3.59 0.446 7.316 0.446H7.892C12.41 0.446 14.858 1.58 14.858 3.83V3.956C14.858 5.666 13.724 6.494 12.284 6.872C13.724 7.16 15.272 8.096 15.272 9.968ZM22.2951 12.002C24.3471 12.002 25.0491 10.706 25.0491 9.95V9.176C24.7431 9.302 23.8611 9.482 22.8531 9.644C21.1611 9.932 20.6211 10.166 20.6211 10.868V10.904C20.6211 11.534 21.0711 12.002 22.2951 12.002ZM25.1571 12.614C24.7251 13.136 23.6451 14.198 21.3051 14.198H21.0171C18.2271 14.198 17.0751 12.686 17.0751 11.03V10.958C17.0751 9.23 18.1731 8.168 21.5571 7.88L24.2931 7.646C24.8511 7.592 25.0491 7.412 25.0491 6.998C25.0491 6.53 24.9051 6.026 22.9611 6.026C21.1251 6.026 20.9451 6.746 20.9451 7.124H17.3451V7.088C17.3451 6.098 17.7411 3.776 22.6551 3.776H23.2131C28.1631 3.776 28.4691 5.81 28.4691 7.142V10.436C28.4691 11.066 28.5951 11.318 29.2971 11.318H29.6751V14H26.8311C25.7871 14 25.3011 13.262 25.1571 12.614ZM40.1008 7.952L35.2768 14H31.6768V4.01H35.1868V10.058L40.0108 4.01H43.6108V14H40.1008V7.952ZM37.8688 2.984H37.3288C34.4668 2.984 33.9628 1.04 33.9628 0.104V0.0499994H36.6088C36.6088 0.284 36.7168 1.004 37.6168 1.004C38.4628 1.004 38.5888 0.284 38.5888 0.0499994H41.1988V0.104C41.1988 1.04 40.4788 2.984 37.8688 2.984ZM59.8863 11.336V16.124H56.5563V14H46.5303V4.01H50.0403V11.336H54.5763V4.01H58.0863V11.336H59.8863ZM67.6197 6.08C65.8017 6.08 65.1177 6.818 64.9377 7.862H70.2297C70.2297 7.124 69.8697 6.08 67.6197 6.08ZM70.3017 10.886H73.9557C73.9557 11.714 73.3077 14.234 68.1417 14.234H67.4757C62.5437 14.234 61.3197 11.534 61.3197 9.14V8.888C61.3197 6.638 62.4357 3.794 67.1697 3.794H67.9617C73.0737 3.794 73.9917 6.638 73.9917 9.428V9.752H64.9017C65.0457 10.904 65.7837 11.84 67.9257 11.84C69.9597 11.84 70.2117 11.048 70.3017 10.886ZM84.6395 14H76.3955V4.01H84.2795C86.5655 4.01 88.0055 4.82 88.0055 6.404V6.494C88.0055 7.736 87.2135 8.474 86.0075 8.672C87.2315 8.816 88.3295 9.68 88.3295 11.12V11.192C88.3295 13.01 87.1415 14 84.6395 14ZM79.9055 7.988H83.1275C83.9735 7.988 84.4055 7.664 84.4055 7.034V6.944C84.4055 6.368 84.0095 6.026 83.1275 6.026H79.9055V7.988ZM79.9055 11.984H83.2715C84.2075 11.984 84.7295 11.678 84.7295 10.976V10.832C84.7295 10.202 84.2975 9.806 83.2715 9.806H79.9055V11.984ZM95.4025 12.002C97.4545 12.002 98.1565 10.706 98.1565 9.95V9.176C97.8505 9.302 96.9685 9.482 95.9605 9.644C94.2685 9.932 93.7285 10.166 93.7285 10.868V10.904C93.7285 11.534 94.1785 12.002 95.4025 12.002ZM98.2645 12.614C97.8325 13.136 96.7525 14.198 94.4125 14.198H94.1245C91.3345 14.198 90.1825 12.686 90.1825 11.03V10.958C90.1825 9.23 91.2805 8.168 94.6645 7.88L97.4005 7.646C97.9585 7.592 98.1565 7.412 98.1565 6.998C98.1565 6.53 98.0125 6.026 96.0685 6.026C94.2325 6.026 94.0525 6.746 94.0525 7.124H90.4525V7.088C90.4525 6.098 90.8485 3.776 95.7625 3.776H96.3205C101.271 3.776 101.577 5.81 101.577 7.142V10.436C101.577 11.066 101.703 11.318 102.405 11.318H102.783V14H99.9385C98.8945 14 98.4085 13.262 98.2645 12.614ZM121.723 14V5L113.893 14H110.185V0.608H113.893V9.608L121.723 0.608H125.431V14H121.723ZM137.73 9.014V8.96C137.73 7.88 137.226 6.422 135.03 6.422H134.85C132.744 6.422 132.078 7.808 132.078 8.96V9.014C132.078 10.112 132.744 11.552 134.85 11.552H135.03C137.226 11.552 137.73 10.04 137.73 9.014ZM128.586 17.438V4.01H132.06V5.288C132.492 4.82 133.806 3.812 136.074 3.812H136.308C140.124 3.812 141.366 6.422 141.366 8.798V9.104C141.366 11.282 140.088 14.198 136.29 14.198H136.038C133.752 14.198 132.528 13.154 132.096 12.722V17.438H128.586ZM152.232 7.952L147.408 14H143.808V4.01H147.318V10.058L152.142 4.01H155.742V14H152.232V7.952ZM162.171 14H158.661V4.01H162.171V7.646H167.067V4.01H170.577V14H167.067V10.31H162.171V14ZM178.213 12.002C180.265 12.002 180.967 10.706 180.967 9.95V9.176C180.661 9.302 179.779 9.482 178.771 9.644C177.079 9.932 176.539 10.166 176.539 10.868V10.904C176.539 11.534 176.989 12.002 178.213 12.002ZM181.075 12.614C180.643 13.136 179.563 14.198 177.223 14.198H176.935C174.145 14.198 172.993 12.686 172.993 11.03V10.958C172.993 9.23 174.091 8.168 177.475 7.88L180.211 7.646C180.769 7.592 180.967 7.412 180.967 6.998C180.967 6.53 180.823 6.026 178.879 6.026C177.043 6.026 176.863 6.746 176.863 7.124H173.263V7.088C173.263 6.098 173.659 3.776 178.573 3.776H179.131C184.081 3.776 184.387 5.81 184.387 7.142V10.436C184.387 11.066 184.513 11.318 185.215 11.318H185.593V14H182.749C181.705 14 181.219 13.262 181.075 12.614ZM0.656 38V24.608H5.588L9.854 33.68L14.246 24.608H18.872V38H15.254V29.234L11.186 38H8.288L4.22 29.234V38H0.656ZM26.7072 36.002C28.7592 36.002 29.4612 34.706 29.4612 33.95V33.176C29.1552 33.302 28.2732 33.482 27.2652 33.644C25.5732 33.932 25.0332 34.166 25.0332 34.868V34.904C25.0332 35.534 25.4832 36.002 26.7072 36.002ZM29.5692 36.614C29.1372 37.136 28.0572 38.198 25.7172 38.198H25.4292C22.6392 38.198 21.4872 36.686 21.4872 35.03V34.958C21.4872 33.23 22.5852 32.168 25.9692 31.88L28.7052 31.646C29.2632 31.592 29.4612 31.412 29.4612 30.998C29.4612 30.53 29.3172 30.026 27.3732 30.026C25.5372 30.026 25.3572 30.746 25.3572 31.124H21.7572V31.088C21.7572 30.098 22.1532 27.776 27.0672 27.776H27.6252C32.5752 27.776 32.8812 29.81 32.8812 31.142V34.436C32.8812 35.066 33.0072 35.318 33.7092 35.318H34.0872V38H31.2432C30.1992 38 29.7132 37.262 29.5692 36.614ZM43.5229 38L39.6349 33.374V38H36.1249V28.01H39.6349V32.006L43.1989 28.01H47.2489L43.0729 32.492L47.6989 38H43.5229ZM57.0444 34.076H60.7164C60.7164 35.588 59.8164 38.27 55.0104 38.27H54.1284C49.1424 38.27 48.2064 35.03 48.2064 33.14V32.888C48.2064 30.998 49.0884 27.74 54.1104 27.74H54.9384C59.7624 27.74 60.7164 30.368 60.7164 31.808V31.826H57.0444C56.9904 31.538 56.6484 30.296 54.5784 30.296H54.3984C52.3284 30.296 51.8424 31.718 51.8424 32.924V32.942C51.8424 34.184 52.4364 35.66 54.4704 35.66H54.6504C56.7384 35.66 57.0444 34.31 57.0444 34.076ZM71.5304 31.952L66.7064 38H63.1064V28.01H66.6164V34.058L71.4404 28.01H75.0404V38H71.5304V31.952ZM81.2 31.268V38H77.96V28.01H82.91L85.88 34.382L88.85 28.01H93.62V38H90.11V31.268L86.996 38H84.314L81.2 31.268ZM102.681 38.27H102.123C96.741 38.27 95.913 34.994 95.913 33.176V32.924C95.913 31.124 96.741 27.74 102.105 27.74H102.699C108.243 27.74 108.891 31.142 108.891 32.906V33.194C108.891 34.994 108.243 38.27 102.681 38.27ZM102.303 35.642H102.501C104.715 35.642 105.273 34.058 105.273 32.96C105.273 31.826 104.715 30.314 102.501 30.314H102.303C99.999 30.314 99.531 31.826 99.531 32.96C99.531 34.058 99.999 35.642 102.303 35.642ZM119.55 38H111.306V28.01H119.19C121.476 28.01 122.916 28.82 122.916 30.404V30.494C122.916 31.736 122.124 32.474 120.918 32.672C122.142 32.816 123.24 33.68 123.24 35.12V35.192C123.24 37.01 122.052 38 119.55 38ZM114.816 31.988H118.038C118.884 31.988 119.316 31.664 119.316 31.034V30.944C119.316 30.368 118.92 30.026 118.038 30.026H114.816V31.988ZM114.816 35.984H118.182C119.118 35.984 119.64 35.678 119.64 34.976V34.832C119.64 34.202 119.208 33.806 118.182 33.806H114.816V35.984ZM129.195 38H125.685V28.01H129.195V31.646H134.091V28.01H137.601V38H134.091V34.31H129.195V38ZM145.237 36.002C147.289 36.002 147.991 34.706 147.991 33.95V33.176C147.685 33.302 146.803 33.482 145.795 33.644C144.103 33.932 143.562 34.166 143.562 34.868V34.904C143.562 35.534 144.013 36.002 145.237 36.002ZM148.099 36.614C147.667 37.136 146.587 38.198 144.247 38.198H143.959C141.169 38.198 140.017 36.686 140.017 35.03V34.958C140.017 33.23 141.115 32.168 144.499 31.88L147.235 31.646C147.793 31.592 147.991 31.412 147.991 30.998C147.991 30.53 147.847 30.026 145.903 30.026C144.067 30.026 143.887 30.746 143.887 31.124H140.287V31.088C140.287 30.098 140.683 27.776 145.597 27.776H146.155C151.105 27.776 151.411 29.81 151.411 31.142V34.436C151.411 35.066 151.537 35.318 152.239 35.318H152.617V38H149.773C148.729 38 148.243 37.262 148.099 36.614Z" fill="#C1A875" style="mix-blend-mode:color"/>
<defs>
<linearGradient id="paint0_linear_2016_565" x1="-0.999999" y1="30" x2="221" y2="30" gradientUnits="userSpaceOnUse">
<stop stop-color="#576167"/>
<stop offset="0.191294" stop-color="#9EA1A2"/>
<stop offset="0.396166" stop-color="#848989"/>
<stop offset="0.62055" stop-color="#576167"/>
<stop offset="0.830299" stop-color="#757A7C"/>
<stop offset="1" stop-color="#576167"/>
</linearGradient>
<radialGradient id="paint1_radial_2016_565" cx="0" cy="0" r="1" gradientUnits="userSpaceOnUse" gradientTransform="translate(117.226 2.39326) rotate(90) scale(53.4944 167.95)">
<stop stop-color="white"/>
<stop offset="1" stop-color="white" stop-opacity="0"/>
</radialGradient>
<radialGradient id="paint2_radial_2016_565" cx="0" cy="0" r="1" gradientUnits="userSpaceOnUse" gradientTransform="translate(129.783 82.9888) rotate(-89.7344) scale(76.6525 240.162)">
<stop stop-color="white"/>
<stop offset="1" stop-color="white" stop-opacity="0"/>
</radialGradient>
</defs>
</svg>
