<svg width="185" height="39" viewBox="0 0 185 39" fill="none" xmlns="http://www.w3.org/2000/svg">
<path d="M0.656 14V0.608H14.534V14H10.826V3.56H4.364V14H0.656ZM22.3654 12.002C24.4174 12.002 25.1194 10.706 25.1194 9.95V9.176C24.8134 9.302 23.9314 9.482 22.9234 9.644C21.2314 9.932 20.6914 10.166 20.6914 10.868V10.904C20.6914 11.534 21.1414 12.002 22.3654 12.002ZM25.2274 12.614C24.7954 13.136 23.7154 14.198 21.3754 14.198H21.0874C18.2974 14.198 17.1454 12.686 17.1454 11.03V10.958C17.1454 9.23 18.2434 8.168 21.6274 7.88L24.3634 7.646C24.9214 7.592 25.1194 7.412 25.1194 6.998C25.1194 6.53 24.9754 6.026 23.0314 6.026C21.1954 6.026 21.0154 6.746 21.0154 7.124H17.4154V7.088C17.4154 6.098 17.8114 3.776 22.7254 3.776H23.2834C28.2334 3.776 28.5394 5.81 28.5394 7.142V10.436C28.5394 11.066 28.6654 11.318 29.3674 11.318H29.7454V14H26.9014C25.8574 14 25.3714 13.262 25.2274 12.614ZM39.9911 14H31.7471V4.01H39.6311C41.9171 4.01 43.3571 4.82 43.3571 6.404V6.494C43.3571 7.736 42.5651 8.474 41.3591 8.672C42.5831 8.816 43.6811 9.68 43.6811 11.12V11.192C43.6811 13.01 42.4931 14 39.9911 14ZM35.2571 7.988H38.4791C39.3251 7.988 39.7571 7.664 39.7571 7.034V6.944C39.7571 6.368 39.3611 6.026 38.4791 6.026H35.2571V7.988ZM35.2571 11.984H38.6231C39.5591 11.984 40.0811 11.678 40.0811 10.976V10.832C40.0811 10.202 39.6491 9.806 38.6231 9.806H35.2571V11.984ZM54.2281 14V6.674H50.2681C50.2681 9.356 50.1781 10.85 49.8361 11.768C49.4581 12.776 48.9541 14 46.3081 14H45.2101V11.39H45.4261C46.0561 11.39 46.5241 11.174 46.7221 10.256C46.8661 9.482 46.9201 8.636 46.9201 4.01H57.7381V14H54.2281ZM66.9095 14.27H66.3515C60.9695 14.27 60.1415 10.994 60.1415 9.176V8.924C60.1415 7.124 60.9695 3.74 66.3335 3.74H66.9275C72.4715 3.74 73.1195 7.142 73.1195 8.906V9.194C73.1195 10.994 72.4715 14.27 66.9095 14.27ZM66.5315 11.642H66.7295C68.9435 11.642 69.5015 10.058 69.5015 8.96C69.5015 7.826 68.9435 6.314 66.7295 6.314H66.5315C64.2275 6.314 63.7595 7.826 63.7595 8.96C63.7595 10.058 64.2275 11.642 66.5315 11.642ZM83.7782 14H75.5342V4.01H83.4182C85.7042 4.01 87.1442 4.82 87.1442 6.404V6.494C87.1442 7.736 86.3522 8.474 85.1462 8.672C86.3702 8.816 87.4682 9.68 87.4682 11.12V11.192C87.4682 13.01 86.2802 14 83.7782 14ZM79.0442 7.988H82.2662C83.1122 7.988 83.5442 7.664 83.5442 7.034V6.944C83.5442 6.368 83.1482 6.026 82.2662 6.026H79.0442V7.988ZM79.0442 11.984H82.4102C83.3462 11.984 83.8682 11.678 83.8682 10.976V10.832C83.8682 10.202 83.4362 9.806 82.4102 9.806H79.0442V11.984ZM104.656 8.762L102.226 3.308L99.8682 8.762H104.656ZM106.996 14L105.898 11.516H98.6622L97.5822 14H93.8562L99.7962 0.608H104.764L110.974 14H106.996ZM116.134 14H112.624V4.01H116.134V7.646H121.03V4.01H124.54V14H121.03V10.31H116.134V14ZM126.632 16.124V11.336H127.838C128.522 9.968 128.63 6.998 128.72 4.01H139.286V11.336H141.086V16.124H137.756V14H129.962V16.124H126.632ZM131.15 11.336H135.776V6.674H131.87C131.816 7.97 131.636 9.95 131.15 11.336ZM152.355 9.014V8.96C152.355 7.88 151.851 6.422 149.655 6.422H149.475C147.369 6.422 146.703 7.808 146.703 8.96V9.014C146.703 10.112 147.369 11.552 149.475 11.552H149.655C151.851 11.552 152.355 10.04 152.355 9.014ZM143.211 17.438V4.01H146.685V5.288C147.117 4.82 148.431 3.812 150.699 3.812H150.933C154.749 3.812 155.991 6.422 155.991 8.798V9.104C155.991 11.282 154.713 14.198 150.915 14.198H150.663C148.377 14.198 147.153 13.154 146.721 12.722V17.438H143.211ZM164.247 6.08C162.429 6.08 161.745 6.818 161.565 7.862H166.857C166.857 7.124 166.497 6.08 164.247 6.08ZM166.929 10.886H170.583C170.583 11.714 169.935 14.234 164.769 14.234H164.103C159.171 14.234 157.947 11.534 157.947 9.14V8.888C157.947 6.638 159.063 3.794 163.797 3.794H164.589C169.701 3.794 170.619 6.638 170.619 9.428V9.752H161.529C161.673 10.904 162.411 11.84 164.553 11.84C166.587 11.84 166.839 11.048 166.929 10.886ZM181.446 7.952L176.622 14H173.022V4.01H176.532V10.058L181.356 4.01H184.956V14H181.446V7.952ZM179.214 2.984H178.674C175.812 2.984 175.308 1.04 175.308 0.104V0.0499994H177.954C177.954 0.284 178.062 1.004 178.962 1.004C179.808 1.004 179.934 0.284 179.934 0.0499994H182.544V0.104C182.544 1.04 181.824 2.984 179.214 2.984ZM11.834 38V32.618H4.364V38H0.656V24.608H4.364V29.576H11.834V24.608H15.542V38H11.834ZM27.0754 31.952L22.2514 38H18.6514V28.01H22.1614V34.058L26.9854 28.01H30.5854V38H27.0754V31.952ZM40.9389 38L37.0509 33.374V38H33.5409V28.01H37.0509V32.006L40.6149 28.01H44.6649L40.4889 32.492L45.1149 38H40.9389ZM52.3724 38.27H51.8144C46.4324 38.27 45.6044 34.994 45.6044 33.176V32.924C45.6044 31.124 46.4324 27.74 51.7964 27.74H52.3904C57.9344 27.74 58.5824 31.142 58.5824 32.906V33.194C58.5824 34.994 57.9344 38.27 52.3724 38.27ZM51.9944 35.642H52.1924C54.4064 35.642 54.9644 34.058 54.9644 32.96C54.9644 31.826 54.4064 30.314 52.1924 30.314H51.9944C49.6904 30.314 49.2224 31.826 49.2224 32.96C49.2224 34.058 49.6904 35.642 51.9944 35.642ZM69.0113 38V30.674H65.0513C65.0513 33.356 64.9613 34.85 64.6193 35.768C64.2413 36.776 63.7373 38 61.0913 38H59.9933V35.39H60.2093C60.8393 35.39 61.3073 35.174 61.5053 34.256C61.6493 33.482 61.7033 32.636 61.7033 28.01H72.5213V38H69.0113ZM80.1447 36.002C82.1967 36.002 82.8987 34.706 82.8987 33.95V33.176C82.5927 33.302 81.7107 33.482 80.7027 33.644C79.0107 33.932 78.4707 34.166 78.4707 34.868V34.904C78.4707 35.534 78.9207 36.002 80.1447 36.002ZM83.0067 36.614C82.5747 37.136 81.4947 38.198 79.1547 38.198H78.8667C76.0767 38.198 74.9247 36.686 74.9247 35.03V34.958C74.9247 33.23 76.0227 32.168 79.4067 31.88L82.1427 31.646C82.7007 31.592 82.8987 31.412 82.8987 30.998C82.8987 30.53 82.7547 30.026 80.8107 30.026C78.9747 30.026 78.7947 30.746 78.7947 31.124H75.1947V31.088C75.1947 30.098 75.5907 27.776 80.5047 27.776H81.0627C86.0127 27.776 86.3187 29.81 86.3187 31.142V34.436C86.3187 35.066 86.4447 35.318 87.1467 35.318H87.5247V38H84.6807C83.6367 38 83.1507 37.262 83.0067 36.614ZM95.3404 30.08C93.5224 30.08 92.8384 30.818 92.6584 31.862H97.9504C97.9504 31.124 97.5904 30.08 95.3404 30.08ZM98.0224 34.886H101.676C101.676 35.714 101.028 38.234 95.8624 38.234H95.1964C90.2644 38.234 89.0404 35.534 89.0404 33.14V32.888C89.0404 30.638 90.1564 27.794 94.8904 27.794H95.6824C100.794 27.794 101.712 30.638 101.712 33.428V33.752H92.6224C92.7664 34.904 93.5044 35.84 95.6464 35.84C97.6804 35.84 97.9324 35.048 98.0224 34.886ZM112.36 38H104.116V28.01H112C114.286 28.01 115.726 28.82 115.726 30.404V30.494C115.726 31.736 114.934 32.474 113.728 32.672C114.952 32.816 116.05 33.68 116.05 35.12V35.192C116.05 37.01 114.862 38 112.36 38ZM107.626 31.988H110.848C111.694 31.988 112.126 31.664 112.126 31.034V30.944C112.126 30.368 111.73 30.026 110.848 30.026H107.626V31.988ZM107.626 35.984H110.992C111.928 35.984 112.45 35.678 112.45 34.976V34.832C112.45 34.202 112.018 33.806 110.992 33.806H107.626V35.984ZM126.919 31.952L122.095 38H118.495V28.01H122.005V34.058L126.829 28.01H130.429V38H126.919V31.952ZM140.765 28.01H144.275V38H140.765V34.562C139.991 34.652 139.091 34.742 138.155 34.742C134.195 34.742 132.701 33.626 132.701 30.458V28.01H136.211V29.81C136.211 31.682 136.841 32.006 138.695 32.006C139.397 32.006 140.207 31.952 140.765 31.88V28.01Z" fill="url(#paint0_linear_2016_527)"/>
<path d="M0.656 14V0.608H14.534V14H10.826V3.56H4.364V14H0.656ZM22.3654 12.002C24.4174 12.002 25.1194 10.706 25.1194 9.95V9.176C24.8134 9.302 23.9314 9.482 22.9234 9.644C21.2314 9.932 20.6914 10.166 20.6914 10.868V10.904C20.6914 11.534 21.1414 12.002 22.3654 12.002ZM25.2274 12.614C24.7954 13.136 23.7154 14.198 21.3754 14.198H21.0874C18.2974 14.198 17.1454 12.686 17.1454 11.03V10.958C17.1454 9.23 18.2434 8.168 21.6274 7.88L24.3634 7.646C24.9214 7.592 25.1194 7.412 25.1194 6.998C25.1194 6.53 24.9754 6.026 23.0314 6.026C21.1954 6.026 21.0154 6.746 21.0154 7.124H17.4154V7.088C17.4154 6.098 17.8114 3.776 22.7254 3.776H23.2834C28.2334 3.776 28.5394 5.81 28.5394 7.142V10.436C28.5394 11.066 28.6654 11.318 29.3674 11.318H29.7454V14H26.9014C25.8574 14 25.3714 13.262 25.2274 12.614ZM39.9911 14H31.7471V4.01H39.6311C41.9171 4.01 43.3571 4.82 43.3571 6.404V6.494C43.3571 7.736 42.5651 8.474 41.3591 8.672C42.5831 8.816 43.6811 9.68 43.6811 11.12V11.192C43.6811 13.01 42.4931 14 39.9911 14ZM35.2571 7.988H38.4791C39.3251 7.988 39.7571 7.664 39.7571 7.034V6.944C39.7571 6.368 39.3611 6.026 38.4791 6.026H35.2571V7.988ZM35.2571 11.984H38.6231C39.5591 11.984 40.0811 11.678 40.0811 10.976V10.832C40.0811 10.202 39.6491 9.806 38.6231 9.806H35.2571V11.984ZM54.2281 14V6.674H50.2681C50.2681 9.356 50.1781 10.85 49.8361 11.768C49.4581 12.776 48.9541 14 46.3081 14H45.2101V11.39H45.4261C46.0561 11.39 46.5241 11.174 46.7221 10.256C46.8661 9.482 46.9201 8.636 46.9201 4.01H57.7381V14H54.2281ZM66.9095 14.27H66.3515C60.9695 14.27 60.1415 10.994 60.1415 9.176V8.924C60.1415 7.124 60.9695 3.74 66.3335 3.74H66.9275C72.4715 3.74 73.1195 7.142 73.1195 8.906V9.194C73.1195 10.994 72.4715 14.27 66.9095 14.27ZM66.5315 11.642H66.7295C68.9435 11.642 69.5015 10.058 69.5015 8.96C69.5015 7.826 68.9435 6.314 66.7295 6.314H66.5315C64.2275 6.314 63.7595 7.826 63.7595 8.96C63.7595 10.058 64.2275 11.642 66.5315 11.642ZM83.7782 14H75.5342V4.01H83.4182C85.7042 4.01 87.1442 4.82 87.1442 6.404V6.494C87.1442 7.736 86.3522 8.474 85.1462 8.672C86.3702 8.816 87.4682 9.68 87.4682 11.12V11.192C87.4682 13.01 86.2802 14 83.7782 14ZM79.0442 7.988H82.2662C83.1122 7.988 83.5442 7.664 83.5442 7.034V6.944C83.5442 6.368 83.1482 6.026 82.2662 6.026H79.0442V7.988ZM79.0442 11.984H82.4102C83.3462 11.984 83.8682 11.678 83.8682 10.976V10.832C83.8682 10.202 83.4362 9.806 82.4102 9.806H79.0442V11.984ZM104.656 8.762L102.226 3.308L99.8682 8.762H104.656ZM106.996 14L105.898 11.516H98.6622L97.5822 14H93.8562L99.7962 0.608H104.764L110.974 14H106.996ZM116.134 14H112.624V4.01H116.134V7.646H121.03V4.01H124.54V14H121.03V10.31H116.134V14ZM126.632 16.124V11.336H127.838C128.522 9.968 128.63 6.998 128.72 4.01H139.286V11.336H141.086V16.124H137.756V14H129.962V16.124H126.632ZM131.15 11.336H135.776V6.674H131.87C131.816 7.97 131.636 9.95 131.15 11.336ZM152.355 9.014V8.96C152.355 7.88 151.851 6.422 149.655 6.422H149.475C147.369 6.422 146.703 7.808 146.703 8.96V9.014C146.703 10.112 147.369 11.552 149.475 11.552H149.655C151.851 11.552 152.355 10.04 152.355 9.014ZM143.211 17.438V4.01H146.685V5.288C147.117 4.82 148.431 3.812 150.699 3.812H150.933C154.749 3.812 155.991 6.422 155.991 8.798V9.104C155.991 11.282 154.713 14.198 150.915 14.198H150.663C148.377 14.198 147.153 13.154 146.721 12.722V17.438H143.211ZM164.247 6.08C162.429 6.08 161.745 6.818 161.565 7.862H166.857C166.857 7.124 166.497 6.08 164.247 6.08ZM166.929 10.886H170.583C170.583 11.714 169.935 14.234 164.769 14.234H164.103C159.171 14.234 157.947 11.534 157.947 9.14V8.888C157.947 6.638 159.063 3.794 163.797 3.794H164.589C169.701 3.794 170.619 6.638 170.619 9.428V9.752H161.529C161.673 10.904 162.411 11.84 164.553 11.84C166.587 11.84 166.839 11.048 166.929 10.886ZM181.446 7.952L176.622 14H173.022V4.01H176.532V10.058L181.356 4.01H184.956V14H181.446V7.952ZM179.214 2.984H178.674C175.812 2.984 175.308 1.04 175.308 0.104V0.0499994H177.954C177.954 0.284 178.062 1.004 178.962 1.004C179.808 1.004 179.934 0.284 179.934 0.0499994H182.544V0.104C182.544 1.04 181.824 2.984 179.214 2.984ZM11.834 38V32.618H4.364V38H0.656V24.608H4.364V29.576H11.834V24.608H15.542V38H11.834ZM27.0754 31.952L22.2514 38H18.6514V28.01H22.1614V34.058L26.9854 28.01H30.5854V38H27.0754V31.952ZM40.9389 38L37.0509 33.374V38H33.5409V28.01H37.0509V32.006L40.6149 28.01H44.6649L40.4889 32.492L45.1149 38H40.9389ZM52.3724 38.27H51.8144C46.4324 38.27 45.6044 34.994 45.6044 33.176V32.924C45.6044 31.124 46.4324 27.74 51.7964 27.74H52.3904C57.9344 27.74 58.5824 31.142 58.5824 32.906V33.194C58.5824 34.994 57.9344 38.27 52.3724 38.27ZM51.9944 35.642H52.1924C54.4064 35.642 54.9644 34.058 54.9644 32.96C54.9644 31.826 54.4064 30.314 52.1924 30.314H51.9944C49.6904 30.314 49.2224 31.826 49.2224 32.96C49.2224 34.058 49.6904 35.642 51.9944 35.642ZM69.0113 38V30.674H65.0513C65.0513 33.356 64.9613 34.85 64.6193 35.768C64.2413 36.776 63.7373 38 61.0913 38H59.9933V35.39H60.2093C60.8393 35.39 61.3073 35.174 61.5053 34.256C61.6493 33.482 61.7033 32.636 61.7033 28.01H72.5213V38H69.0113ZM80.1447 36.002C82.1967 36.002 82.8987 34.706 82.8987 33.95V33.176C82.5927 33.302 81.7107 33.482 80.7027 33.644C79.0107 33.932 78.4707 34.166 78.4707 34.868V34.904C78.4707 35.534 78.9207 36.002 80.1447 36.002ZM83.0067 36.614C82.5747 37.136 81.4947 38.198 79.1547 38.198H78.8667C76.0767 38.198 74.9247 36.686 74.9247 35.03V34.958C74.9247 33.23 76.0227 32.168 79.4067 31.88L82.1427 31.646C82.7007 31.592 82.8987 31.412 82.8987 30.998C82.8987 30.53 82.7547 30.026 80.8107 30.026C78.9747 30.026 78.7947 30.746 78.7947 31.124H75.1947V31.088C75.1947 30.098 75.5907 27.776 80.5047 27.776H81.0627C86.0127 27.776 86.3187 29.81 86.3187 31.142V34.436C86.3187 35.066 86.4447 35.318 87.1467 35.318H87.5247V38H84.6807C83.6367 38 83.1507 37.262 83.0067 36.614ZM95.3404 30.08C93.5224 30.08 92.8384 30.818 92.6584 31.862H97.9504C97.9504 31.124 97.5904 30.08 95.3404 30.08ZM98.0224 34.886H101.676C101.676 35.714 101.028 38.234 95.8624 38.234H95.1964C90.2644 38.234 89.0404 35.534 89.0404 33.14V32.888C89.0404 30.638 90.1564 27.794 94.8904 27.794H95.6824C100.794 27.794 101.712 30.638 101.712 33.428V33.752H92.6224C92.7664 34.904 93.5044 35.84 95.6464 35.84C97.6804 35.84 97.9324 35.048 98.0224 34.886ZM112.36 38H104.116V28.01H112C114.286 28.01 115.726 28.82 115.726 30.404V30.494C115.726 31.736 114.934 32.474 113.728 32.672C114.952 32.816 116.05 33.68 116.05 35.12V35.192C116.05 37.01 114.862 38 112.36 38ZM107.626 31.988H110.848C111.694 31.988 112.126 31.664 112.126 31.034V30.944C112.126 30.368 111.73 30.026 110.848 30.026H107.626V31.988ZM107.626 35.984H110.992C111.928 35.984 112.45 35.678 112.45 34.976V34.832C112.45 34.202 112.018 33.806 110.992 33.806H107.626V35.984ZM126.919 31.952L122.095 38H118.495V28.01H122.005V34.058L126.829 28.01H130.429V38H126.919V31.952ZM140.765 28.01H144.275V38H140.765V34.562C139.991 34.652 139.091 34.742 138.155 34.742C134.195 34.742 132.701 33.626 132.701 30.458V28.01H136.211V29.81C136.211 31.682 136.841 32.006 138.695 32.006C139.397 32.006 140.207 31.952 140.765 31.88V28.01Z" fill="url(#paint1_radial_2016_527)" style="mix-blend-mode:overlay"/>
<path d="M0.656 14V0.608H14.534V14H10.826V3.56H4.364V14H0.656ZM22.3654 12.002C24.4174 12.002 25.1194 10.706 25.1194 9.95V9.176C24.8134 9.302 23.9314 9.482 22.9234 9.644C21.2314 9.932 20.6914 10.166 20.6914 10.868V10.904C20.6914 11.534 21.1414 12.002 22.3654 12.002ZM25.2274 12.614C24.7954 13.136 23.7154 14.198 21.3754 14.198H21.0874C18.2974 14.198 17.1454 12.686 17.1454 11.03V10.958C17.1454 9.23 18.2434 8.168 21.6274 7.88L24.3634 7.646C24.9214 7.592 25.1194 7.412 25.1194 6.998C25.1194 6.53 24.9754 6.026 23.0314 6.026C21.1954 6.026 21.0154 6.746 21.0154 7.124H17.4154V7.088C17.4154 6.098 17.8114 3.776 22.7254 3.776H23.2834C28.2334 3.776 28.5394 5.81 28.5394 7.142V10.436C28.5394 11.066 28.6654 11.318 29.3674 11.318H29.7454V14H26.9014C25.8574 14 25.3714 13.262 25.2274 12.614ZM39.9911 14H31.7471V4.01H39.6311C41.9171 4.01 43.3571 4.82 43.3571 6.404V6.494C43.3571 7.736 42.5651 8.474 41.3591 8.672C42.5831 8.816 43.6811 9.68 43.6811 11.12V11.192C43.6811 13.01 42.4931 14 39.9911 14ZM35.2571 7.988H38.4791C39.3251 7.988 39.7571 7.664 39.7571 7.034V6.944C39.7571 6.368 39.3611 6.026 38.4791 6.026H35.2571V7.988ZM35.2571 11.984H38.6231C39.5591 11.984 40.0811 11.678 40.0811 10.976V10.832C40.0811 10.202 39.6491 9.806 38.6231 9.806H35.2571V11.984ZM54.2281 14V6.674H50.2681C50.2681 9.356 50.1781 10.85 49.8361 11.768C49.4581 12.776 48.9541 14 46.3081 14H45.2101V11.39H45.4261C46.0561 11.39 46.5241 11.174 46.7221 10.256C46.8661 9.482 46.9201 8.636 46.9201 4.01H57.7381V14H54.2281ZM66.9095 14.27H66.3515C60.9695 14.27 60.1415 10.994 60.1415 9.176V8.924C60.1415 7.124 60.9695 3.74 66.3335 3.74H66.9275C72.4715 3.74 73.1195 7.142 73.1195 8.906V9.194C73.1195 10.994 72.4715 14.27 66.9095 14.27ZM66.5315 11.642H66.7295C68.9435 11.642 69.5015 10.058 69.5015 8.96C69.5015 7.826 68.9435 6.314 66.7295 6.314H66.5315C64.2275 6.314 63.7595 7.826 63.7595 8.96C63.7595 10.058 64.2275 11.642 66.5315 11.642ZM83.7782 14H75.5342V4.01H83.4182C85.7042 4.01 87.1442 4.82 87.1442 6.404V6.494C87.1442 7.736 86.3522 8.474 85.1462 8.672C86.3702 8.816 87.4682 9.68 87.4682 11.12V11.192C87.4682 13.01 86.2802 14 83.7782 14ZM79.0442 7.988H82.2662C83.1122 7.988 83.5442 7.664 83.5442 7.034V6.944C83.5442 6.368 83.1482 6.026 82.2662 6.026H79.0442V7.988ZM79.0442 11.984H82.4102C83.3462 11.984 83.8682 11.678 83.8682 10.976V10.832C83.8682 10.202 83.4362 9.806 82.4102 9.806H79.0442V11.984ZM104.656 8.762L102.226 3.308L99.8682 8.762H104.656ZM106.996 14L105.898 11.516H98.6622L97.5822 14H93.8562L99.7962 0.608H104.764L110.974 14H106.996ZM116.134 14H112.624V4.01H116.134V7.646H121.03V4.01H124.54V14H121.03V10.31H116.134V14ZM126.632 16.124V11.336H127.838C128.522 9.968 128.63 6.998 128.72 4.01H139.286V11.336H141.086V16.124H137.756V14H129.962V16.124H126.632ZM131.15 11.336H135.776V6.674H131.87C131.816 7.97 131.636 9.95 131.15 11.336ZM152.355 9.014V8.96C152.355 7.88 151.851 6.422 149.655 6.422H149.475C147.369 6.422 146.703 7.808 146.703 8.96V9.014C146.703 10.112 147.369 11.552 149.475 11.552H149.655C151.851 11.552 152.355 10.04 152.355 9.014ZM143.211 17.438V4.01H146.685V5.288C147.117 4.82 148.431 3.812 150.699 3.812H150.933C154.749 3.812 155.991 6.422 155.991 8.798V9.104C155.991 11.282 154.713 14.198 150.915 14.198H150.663C148.377 14.198 147.153 13.154 146.721 12.722V17.438H143.211ZM164.247 6.08C162.429 6.08 161.745 6.818 161.565 7.862H166.857C166.857 7.124 166.497 6.08 164.247 6.08ZM166.929 10.886H170.583C170.583 11.714 169.935 14.234 164.769 14.234H164.103C159.171 14.234 157.947 11.534 157.947 9.14V8.888C157.947 6.638 159.063 3.794 163.797 3.794H164.589C169.701 3.794 170.619 6.638 170.619 9.428V9.752H161.529C161.673 10.904 162.411 11.84 164.553 11.84C166.587 11.84 166.839 11.048 166.929 10.886ZM181.446 7.952L176.622 14H173.022V4.01H176.532V10.058L181.356 4.01H184.956V14H181.446V7.952ZM179.214 2.984H178.674C175.812 2.984 175.308 1.04 175.308 0.104V0.0499994H177.954C177.954 0.284 178.062 1.004 178.962 1.004C179.808 1.004 179.934 0.284 179.934 0.0499994H182.544V0.104C182.544 1.04 181.824 2.984 179.214 2.984ZM11.834 38V32.618H4.364V38H0.656V24.608H4.364V29.576H11.834V24.608H15.542V38H11.834ZM27.0754 31.952L22.2514 38H18.6514V28.01H22.1614V34.058L26.9854 28.01H30.5854V38H27.0754V31.952ZM40.9389 38L37.0509 33.374V38H33.5409V28.01H37.0509V32.006L40.6149 28.01H44.6649L40.4889 32.492L45.1149 38H40.9389ZM52.3724 38.27H51.8144C46.4324 38.27 45.6044 34.994 45.6044 33.176V32.924C45.6044 31.124 46.4324 27.74 51.7964 27.74H52.3904C57.9344 27.74 58.5824 31.142 58.5824 32.906V33.194C58.5824 34.994 57.9344 38.27 52.3724 38.27ZM51.9944 35.642H52.1924C54.4064 35.642 54.9644 34.058 54.9644 32.96C54.9644 31.826 54.4064 30.314 52.1924 30.314H51.9944C49.6904 30.314 49.2224 31.826 49.2224 32.96C49.2224 34.058 49.6904 35.642 51.9944 35.642ZM69.0113 38V30.674H65.0513C65.0513 33.356 64.9613 34.85 64.6193 35.768C64.2413 36.776 63.7373 38 61.0913 38H59.9933V35.39H60.2093C60.8393 35.39 61.3073 35.174 61.5053 34.256C61.6493 33.482 61.7033 32.636 61.7033 28.01H72.5213V38H69.0113ZM80.1447 36.002C82.1967 36.002 82.8987 34.706 82.8987 33.95V33.176C82.5927 33.302 81.7107 33.482 80.7027 33.644C79.0107 33.932 78.4707 34.166 78.4707 34.868V34.904C78.4707 35.534 78.9207 36.002 80.1447 36.002ZM83.0067 36.614C82.5747 37.136 81.4947 38.198 79.1547 38.198H78.8667C76.0767 38.198 74.9247 36.686 74.9247 35.03V34.958C74.9247 33.23 76.0227 32.168 79.4067 31.88L82.1427 31.646C82.7007 31.592 82.8987 31.412 82.8987 30.998C82.8987 30.53 82.7547 30.026 80.8107 30.026C78.9747 30.026 78.7947 30.746 78.7947 31.124H75.1947V31.088C75.1947 30.098 75.5907 27.776 80.5047 27.776H81.0627C86.0127 27.776 86.3187 29.81 86.3187 31.142V34.436C86.3187 35.066 86.4447 35.318 87.1467 35.318H87.5247V38H84.6807C83.6367 38 83.1507 37.262 83.0067 36.614ZM95.3404 30.08C93.5224 30.08 92.8384 30.818 92.6584 31.862H97.9504C97.9504 31.124 97.5904 30.08 95.3404 30.08ZM98.0224 34.886H101.676C101.676 35.714 101.028 38.234 95.8624 38.234H95.1964C90.2644 38.234 89.0404 35.534 89.0404 33.14V32.888C89.0404 30.638 90.1564 27.794 94.8904 27.794H95.6824C100.794 27.794 101.712 30.638 101.712 33.428V33.752H92.6224C92.7664 34.904 93.5044 35.84 95.6464 35.84C97.6804 35.84 97.9324 35.048 98.0224 34.886ZM112.36 38H104.116V28.01H112C114.286 28.01 115.726 28.82 115.726 30.404V30.494C115.726 31.736 114.934 32.474 113.728 32.672C114.952 32.816 116.05 33.68 116.05 35.12V35.192C116.05 37.01 114.862 38 112.36 38ZM107.626 31.988H110.848C111.694 31.988 112.126 31.664 112.126 31.034V30.944C112.126 30.368 111.73 30.026 110.848 30.026H107.626V31.988ZM107.626 35.984H110.992C111.928 35.984 112.45 35.678 112.45 34.976V34.832C112.45 34.202 112.018 33.806 110.992 33.806H107.626V35.984ZM126.919 31.952L122.095 38H118.495V28.01H122.005V34.058L126.829 28.01H130.429V38H126.919V31.952ZM140.765 28.01H144.275V38H140.765V34.562C139.991 34.652 139.091 34.742 138.155 34.742C134.195 34.742 132.701 33.626 132.701 30.458V28.01H136.211V29.81C136.211 31.682 136.841 32.006 138.695 32.006C139.397 32.006 140.207 31.952 140.765 31.88V28.01Z" fill="url(#paint2_radial_2016_527)"/>
<path d="M0.656 14V0.608H14.534V14H10.826V3.56H4.364V14H0.656ZM22.3654 12.002C24.4174 12.002 25.1194 10.706 25.1194 9.95V9.176C24.8134 9.302 23.9314 9.482 22.9234 9.644C21.2314 9.932 20.6914 10.166 20.6914 10.868V10.904C20.6914 11.534 21.1414 12.002 22.3654 12.002ZM25.2274 12.614C24.7954 13.136 23.7154 14.198 21.3754 14.198H21.0874C18.2974 14.198 17.1454 12.686 17.1454 11.03V10.958C17.1454 9.23 18.2434 8.168 21.6274 7.88L24.3634 7.646C24.9214 7.592 25.1194 7.412 25.1194 6.998C25.1194 6.53 24.9754 6.026 23.0314 6.026C21.1954 6.026 21.0154 6.746 21.0154 7.124H17.4154V7.088C17.4154 6.098 17.8114 3.776 22.7254 3.776H23.2834C28.2334 3.776 28.5394 5.81 28.5394 7.142V10.436C28.5394 11.066 28.6654 11.318 29.3674 11.318H29.7454V14H26.9014C25.8574 14 25.3714 13.262 25.2274 12.614ZM39.9911 14H31.7471V4.01H39.6311C41.9171 4.01 43.3571 4.82 43.3571 6.404V6.494C43.3571 7.736 42.5651 8.474 41.3591 8.672C42.5831 8.816 43.6811 9.68 43.6811 11.12V11.192C43.6811 13.01 42.4931 14 39.9911 14ZM35.2571 7.988H38.4791C39.3251 7.988 39.7571 7.664 39.7571 7.034V6.944C39.7571 6.368 39.3611 6.026 38.4791 6.026H35.2571V7.988ZM35.2571 11.984H38.6231C39.5591 11.984 40.0811 11.678 40.0811 10.976V10.832C40.0811 10.202 39.6491 9.806 38.6231 9.806H35.2571V11.984ZM54.2281 14V6.674H50.2681C50.2681 9.356 50.1781 10.85 49.8361 11.768C49.4581 12.776 48.9541 14 46.3081 14H45.2101V11.39H45.4261C46.0561 11.39 46.5241 11.174 46.7221 10.256C46.8661 9.482 46.9201 8.636 46.9201 4.01H57.7381V14H54.2281ZM66.9095 14.27H66.3515C60.9695 14.27 60.1415 10.994 60.1415 9.176V8.924C60.1415 7.124 60.9695 3.74 66.3335 3.74H66.9275C72.4715 3.74 73.1195 7.142 73.1195 8.906V9.194C73.1195 10.994 72.4715 14.27 66.9095 14.27ZM66.5315 11.642H66.7295C68.9435 11.642 69.5015 10.058 69.5015 8.96C69.5015 7.826 68.9435 6.314 66.7295 6.314H66.5315C64.2275 6.314 63.7595 7.826 63.7595 8.96C63.7595 10.058 64.2275 11.642 66.5315 11.642ZM83.7782 14H75.5342V4.01H83.4182C85.7042 4.01 87.1442 4.82 87.1442 6.404V6.494C87.1442 7.736 86.3522 8.474 85.1462 8.672C86.3702 8.816 87.4682 9.68 87.4682 11.12V11.192C87.4682 13.01 86.2802 14 83.7782 14ZM79.0442 7.988H82.2662C83.1122 7.988 83.5442 7.664 83.5442 7.034V6.944C83.5442 6.368 83.1482 6.026 82.2662 6.026H79.0442V7.988ZM79.0442 11.984H82.4102C83.3462 11.984 83.8682 11.678 83.8682 10.976V10.832C83.8682 10.202 83.4362 9.806 82.4102 9.806H79.0442V11.984ZM104.656 8.762L102.226 3.308L99.8682 8.762H104.656ZM106.996 14L105.898 11.516H98.6622L97.5822 14H93.8562L99.7962 0.608H104.764L110.974 14H106.996ZM116.134 14H112.624V4.01H116.134V7.646H121.03V4.01H124.54V14H121.03V10.31H116.134V14ZM126.632 16.124V11.336H127.838C128.522 9.968 128.63 6.998 128.72 4.01H139.286V11.336H141.086V16.124H137.756V14H129.962V16.124H126.632ZM131.15 11.336H135.776V6.674H131.87C131.816 7.97 131.636 9.95 131.15 11.336ZM152.355 9.014V8.96C152.355 7.88 151.851 6.422 149.655 6.422H149.475C147.369 6.422 146.703 7.808 146.703 8.96V9.014C146.703 10.112 147.369 11.552 149.475 11.552H149.655C151.851 11.552 152.355 10.04 152.355 9.014ZM143.211 17.438V4.01H146.685V5.288C147.117 4.82 148.431 3.812 150.699 3.812H150.933C154.749 3.812 155.991 6.422 155.991 8.798V9.104C155.991 11.282 154.713 14.198 150.915 14.198H150.663C148.377 14.198 147.153 13.154 146.721 12.722V17.438H143.211ZM164.247 6.08C162.429 6.08 161.745 6.818 161.565 7.862H166.857C166.857 7.124 166.497 6.08 164.247 6.08ZM166.929 10.886H170.583C170.583 11.714 169.935 14.234 164.769 14.234H164.103C159.171 14.234 157.947 11.534 157.947 9.14V8.888C157.947 6.638 159.063 3.794 163.797 3.794H164.589C169.701 3.794 170.619 6.638 170.619 9.428V9.752H161.529C161.673 10.904 162.411 11.84 164.553 11.84C166.587 11.84 166.839 11.048 166.929 10.886ZM181.446 7.952L176.622 14H173.022V4.01H176.532V10.058L181.356 4.01H184.956V14H181.446V7.952ZM179.214 2.984H178.674C175.812 2.984 175.308 1.04 175.308 0.104V0.0499994H177.954C177.954 0.284 178.062 1.004 178.962 1.004C179.808 1.004 179.934 0.284 179.934 0.0499994H182.544V0.104C182.544 1.04 181.824 2.984 179.214 2.984ZM11.834 38V32.618H4.364V38H0.656V24.608H4.364V29.576H11.834V24.608H15.542V38H11.834ZM27.0754 31.952L22.2514 38H18.6514V28.01H22.1614V34.058L26.9854 28.01H30.5854V38H27.0754V31.952ZM40.9389 38L37.0509 33.374V38H33.5409V28.01H37.0509V32.006L40.6149 28.01H44.6649L40.4889 32.492L45.1149 38H40.9389ZM52.3724 38.27H51.8144C46.4324 38.27 45.6044 34.994 45.6044 33.176V32.924C45.6044 31.124 46.4324 27.74 51.7964 27.74H52.3904C57.9344 27.74 58.5824 31.142 58.5824 32.906V33.194C58.5824 34.994 57.9344 38.27 52.3724 38.27ZM51.9944 35.642H52.1924C54.4064 35.642 54.9644 34.058 54.9644 32.96C54.9644 31.826 54.4064 30.314 52.1924 30.314H51.9944C49.6904 30.314 49.2224 31.826 49.2224 32.96C49.2224 34.058 49.6904 35.642 51.9944 35.642ZM69.0113 38V30.674H65.0513C65.0513 33.356 64.9613 34.85 64.6193 35.768C64.2413 36.776 63.7373 38 61.0913 38H59.9933V35.39H60.2093C60.8393 35.39 61.3073 35.174 61.5053 34.256C61.6493 33.482 61.7033 32.636 61.7033 28.01H72.5213V38H69.0113ZM80.1447 36.002C82.1967 36.002 82.8987 34.706 82.8987 33.95V33.176C82.5927 33.302 81.7107 33.482 80.7027 33.644C79.0107 33.932 78.4707 34.166 78.4707 34.868V34.904C78.4707 35.534 78.9207 36.002 80.1447 36.002ZM83.0067 36.614C82.5747 37.136 81.4947 38.198 79.1547 38.198H78.8667C76.0767 38.198 74.9247 36.686 74.9247 35.03V34.958C74.9247 33.23 76.0227 32.168 79.4067 31.88L82.1427 31.646C82.7007 31.592 82.8987 31.412 82.8987 30.998C82.8987 30.53 82.7547 30.026 80.8107 30.026C78.9747 30.026 78.7947 30.746 78.7947 31.124H75.1947V31.088C75.1947 30.098 75.5907 27.776 80.5047 27.776H81.0627C86.0127 27.776 86.3187 29.81 86.3187 31.142V34.436C86.3187 35.066 86.4447 35.318 87.1467 35.318H87.5247V38H84.6807C83.6367 38 83.1507 37.262 83.0067 36.614ZM95.3404 30.08C93.5224 30.08 92.8384 30.818 92.6584 31.862H97.9504C97.9504 31.124 97.5904 30.08 95.3404 30.08ZM98.0224 34.886H101.676C101.676 35.714 101.028 38.234 95.8624 38.234H95.1964C90.2644 38.234 89.0404 35.534 89.0404 33.14V32.888C89.0404 30.638 90.1564 27.794 94.8904 27.794H95.6824C100.794 27.794 101.712 30.638 101.712 33.428V33.752H92.6224C92.7664 34.904 93.5044 35.84 95.6464 35.84C97.6804 35.84 97.9324 35.048 98.0224 34.886ZM112.36 38H104.116V28.01H112C114.286 28.01 115.726 28.82 115.726 30.404V30.494C115.726 31.736 114.934 32.474 113.728 32.672C114.952 32.816 116.05 33.68 116.05 35.12V35.192C116.05 37.01 114.862 38 112.36 38ZM107.626 31.988H110.848C111.694 31.988 112.126 31.664 112.126 31.034V30.944C112.126 30.368 111.73 30.026 110.848 30.026H107.626V31.988ZM107.626 35.984H110.992C111.928 35.984 112.45 35.678 112.45 34.976V34.832C112.45 34.202 112.018 33.806 110.992 33.806H107.626V35.984ZM126.919 31.952L122.095 38H118.495V28.01H122.005V34.058L126.829 28.01H130.429V38H126.919V31.952ZM140.765 28.01H144.275V38H140.765V34.562C139.991 34.652 139.091 34.742 138.155 34.742C134.195 34.742 132.701 33.626 132.701 30.458V28.01H136.211V29.81C136.211 31.682 136.841 32.006 138.695 32.006C139.397 32.006 140.207 31.952 140.765 31.88V28.01Z" fill="#C1A875" style="mix-blend-mode:color"/>
<defs>
<linearGradient id="paint0_linear_2016_527" x1="-0.999999" y1="30" x2="221" y2="30" gradientUnits="userSpaceOnUse">
<stop stop-color="#576167"/>
<stop offset="0.191294" stop-color="#9EA1A2"/>
<stop offset="0.396166" stop-color="#848989"/>
<stop offset="0.62055" stop-color="#576167"/>
<stop offset="0.830299" stop-color="#757A7C"/>
<stop offset="1" stop-color="#576167"/>
</linearGradient>
<radialGradient id="paint1_radial_2016_527" cx="0" cy="0" r="1" gradientUnits="userSpaceOnUse" gradientTransform="translate(117.226 2.39326) rotate(90) scale(53.4944 167.95)">
<stop stop-color="white"/>
<stop offset="1" stop-color="white" stop-opacity="0"/>
</radialGradient>
<radialGradient id="paint2_radial_2016_527" cx="0" cy="0" r="1" gradientUnits="userSpaceOnUse" gradientTransform="translate(129.783 82.9888) rotate(-89.7344) scale(76.6525 240.162)">
<stop stop-color="white"/>
<stop offset="1" stop-color="white" stop-opacity="0"/>
</radialGradient>
</defs>
</svg>
