<svg width="217" height="42" viewBox="0 0 217 42" fill="none" xmlns="http://www.w3.org/2000/svg">
<path d="M0.656 14V0.608H4.364V11.048H8.756V0.608H12.464V11.048H16.856V0.608H20.564V11.048H22.724V16.25H19.196V14H0.656ZM30.4419 6.08C28.6239 6.08 27.9399 6.818 27.7599 7.862H33.0519C33.0519 7.124 32.6919 6.08 30.4419 6.08ZM33.1239 10.886H36.7779C36.7779 11.714 36.1299 14.234 30.9639 14.234H30.2979C25.3659 14.234 24.1419 11.534 24.1419 9.14V8.888C24.1419 6.638 25.2579 3.794 29.9919 3.794H30.7839C35.8959 3.794 36.8139 6.638 36.8139 9.428V9.752H27.7239C27.8679 10.904 28.6059 11.84 30.7479 11.84C32.7819 11.84 33.0339 11.048 33.1239 10.886ZM48.3978 9.014V8.96C48.3978 7.88 47.8938 6.422 45.6978 6.422H45.5178C43.4118 6.422 42.7458 7.808 42.7458 8.96V9.014C42.7458 10.112 43.4118 11.552 45.5178 11.552H45.6978C47.8938 11.552 48.3978 10.04 48.3978 9.014ZM39.2538 17.438V4.01H42.7278V5.288C43.1598 4.82 44.4738 3.812 46.7418 3.812H46.9758C50.7918 3.812 52.0338 6.422 52.0338 8.798V9.104C52.0338 11.282 50.7558 14.198 46.9578 14.198H46.7058C44.4198 14.198 43.1958 13.154 42.7638 12.722V17.438H39.2538ZM66.9496 9.122V9.356C66.9496 13.1 64.1056 14.27 60.7036 14.27H60.3436C56.8336 14.27 53.9716 12.902 53.9716 8.15V7.088C53.9716 2.282 56.3656 0.698 61.0456 0.698H61.8556C62.9716 0.698 63.0436 0.589999 63.0796 0.373999H66.5176C66.5176 2.48 65.7256 3.362 63.2776 3.362H61.0456C58.4536 3.362 57.4636 4.172 57.4096 5.99C58.3276 5.036 59.7316 4.388 61.9456 4.388H62.0536C64.4296 4.388 66.9496 5.594 66.9496 9.122ZM60.3796 11.642H60.5776C62.1616 11.642 63.3316 10.85 63.3316 9.212C63.3316 7.628 62.1436 6.854 60.5956 6.854H60.3796C58.6516 6.854 57.5896 7.592 57.5896 9.23C57.5896 10.886 58.6696 11.642 60.3796 11.642ZM73.9924 12.002C76.0444 12.002 76.7464 10.706 76.7464 9.95V9.176C76.4404 9.302 75.5584 9.482 74.5504 9.644C72.8584 9.932 72.3184 10.166 72.3184 10.868V10.904C72.3184 11.534 72.7684 12.002 73.9924 12.002ZM76.8544 12.614C76.4224 13.136 75.3424 14.198 73.0024 14.198H72.7144C69.9244 14.198 68.7724 12.686 68.7724 11.03V10.958C68.7724 9.23 69.8704 8.168 73.2544 7.88L75.9904 7.646C76.5484 7.592 76.7464 7.412 76.7464 6.998C76.7464 6.53 76.6024 6.026 74.6584 6.026C72.8224 6.026 72.6424 6.746 72.6424 7.124H69.0424V7.088C69.0424 6.098 69.4384 3.776 74.3524 3.776H74.9104C79.8604 3.776 80.1664 5.81 80.1664 7.142V10.436C80.1664 11.066 80.2924 11.318 80.9944 11.318H81.3724V14H78.5284C77.4844 14 76.9984 13.262 76.8544 12.614ZM90.808 14L86.92 9.374V14H83.41V4.01H86.92V8.006L90.484 4.01H94.534L90.358 8.492L94.984 14H90.808ZM102.242 14.27H101.684C96.3015 14.27 95.4735 10.994 95.4735 9.176V8.924C95.4735 7.124 96.3015 3.74 101.666 3.74H102.26C107.804 3.74 108.452 7.142 108.452 8.906V9.194C108.452 10.994 107.804 14.27 102.242 14.27ZM101.864 11.642H102.062C104.276 11.642 104.834 10.058 104.834 8.96C104.834 7.826 104.276 6.314 102.062 6.314H101.864C99.5595 6.314 99.0915 7.826 99.0915 8.96C99.0915 10.058 99.5595 11.642 101.864 11.642ZM119.11 14H110.866V4.01H118.75C121.036 4.01 122.476 4.82 122.476 6.404V6.494C122.476 7.736 121.684 8.474 120.478 8.672C121.702 8.816 122.8 9.68 122.8 11.12V11.192C122.8 13.01 121.612 14 119.11 14ZM114.376 7.988H117.598C118.444 7.988 118.876 7.664 118.876 7.034V6.944C118.876 6.368 118.48 6.026 117.598 6.026H114.376V7.988ZM114.376 11.984H117.742C118.678 11.984 119.2 11.678 119.2 10.976V10.832C119.2 10.202 118.768 9.806 117.742 9.806H114.376V11.984ZM129.873 12.002C131.925 12.002 132.627 10.706 132.627 9.95V9.176C132.321 9.302 131.439 9.482 130.431 9.644C128.739 9.932 128.199 10.166 128.199 10.868V10.904C128.199 11.534 128.649 12.002 129.873 12.002ZM132.735 12.614C132.303 13.136 131.223 14.198 128.883 14.198H128.595C125.805 14.198 124.653 12.686 124.653 11.03V10.958C124.653 9.23 125.751 8.168 129.135 7.88L131.871 7.646C132.429 7.592 132.627 7.412 132.627 6.998C132.627 6.53 132.483 6.026 130.539 6.026C128.703 6.026 128.523 6.746 128.523 7.124H124.923V7.088C124.923 6.098 125.319 3.776 130.233 3.776H130.791C135.741 3.776 136.047 5.81 136.047 7.142V10.436C136.047 11.066 136.173 11.318 136.875 11.318H137.253V14H134.409C133.365 14 132.879 13.262 132.735 12.614ZM0.656 38V24.608H5.588L9.854 33.68L14.246 24.608H18.872V38H15.254V29.234L11.186 38H8.288L4.22 29.234V38H0.656ZM26.7072 36.002C28.7592 36.002 29.4612 34.706 29.4612 33.95V33.176C29.1552 33.302 28.2732 33.482 27.2652 33.644C25.5732 33.932 25.0332 34.166 25.0332 34.868V34.904C25.0332 35.534 25.4832 36.002 26.7072 36.002ZM29.5692 36.614C29.1372 37.136 28.0572 38.198 25.7172 38.198H25.4292C22.6392 38.198 21.4872 36.686 21.4872 35.03V34.958C21.4872 33.23 22.5852 32.168 25.9692 31.88L28.7052 31.646C29.2632 31.592 29.4612 31.412 29.4612 30.998C29.4612 30.53 29.3172 30.026 27.3732 30.026C25.5372 30.026 25.3572 30.746 25.3572 31.124H21.7572V31.088C21.7572 30.098 22.1532 27.776 27.0672 27.776H27.6252C32.5752 27.776 32.8812 29.81 32.8812 31.142V34.436C32.8812 35.066 33.0072 35.318 33.7092 35.318H34.0872V38H31.2432C30.1992 38 29.7132 37.262 29.5692 36.614ZM45.2689 33.014V32.96C45.2689 31.88 44.7649 30.422 42.5689 30.422H42.3889C40.2829 30.422 39.6169 31.808 39.6169 32.96V33.014C39.6169 34.112 40.2829 35.552 42.3889 35.552H42.5689C44.7649 35.552 45.2689 34.04 45.2689 33.014ZM36.1249 41.438V28.01H39.5989V29.288C40.0309 28.82 41.3449 27.812 43.6129 27.812H43.8469C47.6629 27.812 48.9049 30.422 48.9049 32.798V33.104C48.9049 35.282 47.6269 38.198 43.8289 38.198H43.5769C41.2909 38.198 40.0669 37.154 39.6349 36.722V41.438H36.1249ZM59.7707 31.952L54.9467 38H51.3467V28.01H54.8567V34.058L59.6807 28.01H63.2807V38H59.7707V31.952ZM74.6062 34.652H72.2482L69.3322 38H65.3722L68.6302 34.274C66.9022 33.932 65.9122 32.942 65.9122 31.43V31.214C65.9122 29.396 67.3882 28.01 69.8902 28.01H78.1162V38H74.6062V34.652ZM74.6062 30.314H70.8442C70.0702 30.314 69.4222 30.494 69.4222 31.286V31.358C69.4222 32.132 70.0882 32.366 70.8622 32.366H74.6062V30.314ZM95.7793 32.762L93.3493 27.308L90.9913 32.762H95.7793ZM98.1193 38L97.0213 35.516H89.7853L88.7053 38H84.9793L90.9193 24.608H95.8873L102.097 38H98.1193ZM107.257 38H103.747V28.01H107.257V31.646H112.153V28.01H115.663V38H112.153V34.31H107.257V38ZM121.445 38V30.674H117.575V28.01H128.825V30.674H124.955V38H121.445ZM136.993 38.27H136.435C131.053 38.27 130.225 34.994 130.225 33.176V32.924C130.225 31.124 131.053 27.74 136.417 27.74H137.011C142.555 27.74 143.203 31.142 143.203 32.906V33.194C143.203 34.994 142.555 38.27 136.993 38.27ZM136.615 35.642H136.813C139.027 35.642 139.585 34.058 139.585 32.96C139.585 31.826 139.027 30.314 136.813 30.314H136.615C134.311 30.314 133.843 31.826 133.843 32.96C133.843 34.058 134.311 35.642 136.615 35.642ZM149.128 38H145.618V28.01H149.128V31.646H154.024V28.01H157.534V38H154.024V34.31H149.128V38ZM166.718 38.27H166.16C160.778 38.27 159.95 34.994 159.95 33.176V32.924C159.95 31.124 160.778 27.74 166.142 27.74H166.736C172.28 27.74 172.928 31.142 172.928 32.906V33.194C172.928 34.994 172.28 38.27 166.718 38.27ZM166.34 35.642H166.538C168.752 35.642 169.31 34.058 169.31 32.96C169.31 31.826 168.752 30.314 166.538 30.314H166.34C164.036 30.314 163.568 31.826 163.568 32.96C163.568 34.058 164.036 35.642 166.34 35.642ZM183.587 38H175.343V28.01H183.227C185.513 28.01 186.953 28.82 186.953 30.404V30.494C186.953 31.736 186.161 32.474 184.955 32.672C186.179 32.816 187.277 33.68 187.277 35.12V35.192C187.277 37.01 186.089 38 183.587 38ZM178.853 31.988H182.075C182.921 31.988 183.353 31.664 183.353 31.034V30.944C183.353 30.368 182.957 30.026 182.075 30.026H178.853V31.988ZM178.853 35.984H182.219C183.155 35.984 183.677 35.678 183.677 34.976V34.832C183.677 34.202 183.245 33.806 182.219 33.806H178.853V35.984ZM193.232 38H189.722V28.01H193.232V31.646H198.128V28.01H201.638V38H198.128V34.31H193.232V38ZM209.274 36.002C211.326 36.002 212.028 34.706 212.028 33.95V33.176C211.722 33.302 210.84 33.482 209.832 33.644C208.14 33.932 207.6 34.166 207.6 34.868V34.904C207.6 35.534 208.05 36.002 209.274 36.002ZM212.136 36.614C211.704 37.136 210.624 38.198 208.284 38.198H207.996C205.206 38.198 204.054 36.686 204.054 35.03V34.958C204.054 33.23 205.152 32.168 208.536 31.88L211.272 31.646C211.83 31.592 212.028 31.412 212.028 30.998C212.028 30.53 211.884 30.026 209.94 30.026C208.104 30.026 207.924 30.746 207.924 31.124H204.324V31.088C204.324 30.098 204.72 27.776 209.634 27.776H210.192C215.142 27.776 215.448 29.81 215.448 31.142V34.436C215.448 35.066 215.574 35.318 216.276 35.318H216.654V38H213.81C212.766 38 212.28 37.262 212.136 36.614Z" fill="url(#paint0_linear_2016_546)"/>
<path d="M0.656 14V0.608H4.364V11.048H8.756V0.608H12.464V11.048H16.856V0.608H20.564V11.048H22.724V16.25H19.196V14H0.656ZM30.4419 6.08C28.6239 6.08 27.9399 6.818 27.7599 7.862H33.0519C33.0519 7.124 32.6919 6.08 30.4419 6.08ZM33.1239 10.886H36.7779C36.7779 11.714 36.1299 14.234 30.9639 14.234H30.2979C25.3659 14.234 24.1419 11.534 24.1419 9.14V8.888C24.1419 6.638 25.2579 3.794 29.9919 3.794H30.7839C35.8959 3.794 36.8139 6.638 36.8139 9.428V9.752H27.7239C27.8679 10.904 28.6059 11.84 30.7479 11.84C32.7819 11.84 33.0339 11.048 33.1239 10.886ZM48.3978 9.014V8.96C48.3978 7.88 47.8938 6.422 45.6978 6.422H45.5178C43.4118 6.422 42.7458 7.808 42.7458 8.96V9.014C42.7458 10.112 43.4118 11.552 45.5178 11.552H45.6978C47.8938 11.552 48.3978 10.04 48.3978 9.014ZM39.2538 17.438V4.01H42.7278V5.288C43.1598 4.82 44.4738 3.812 46.7418 3.812H46.9758C50.7918 3.812 52.0338 6.422 52.0338 8.798V9.104C52.0338 11.282 50.7558 14.198 46.9578 14.198H46.7058C44.4198 14.198 43.1958 13.154 42.7638 12.722V17.438H39.2538ZM66.9496 9.122V9.356C66.9496 13.1 64.1056 14.27 60.7036 14.27H60.3436C56.8336 14.27 53.9716 12.902 53.9716 8.15V7.088C53.9716 2.282 56.3656 0.698 61.0456 0.698H61.8556C62.9716 0.698 63.0436 0.589999 63.0796 0.373999H66.5176C66.5176 2.48 65.7256 3.362 63.2776 3.362H61.0456C58.4536 3.362 57.4636 4.172 57.4096 5.99C58.3276 5.036 59.7316 4.388 61.9456 4.388H62.0536C64.4296 4.388 66.9496 5.594 66.9496 9.122ZM60.3796 11.642H60.5776C62.1616 11.642 63.3316 10.85 63.3316 9.212C63.3316 7.628 62.1436 6.854 60.5956 6.854H60.3796C58.6516 6.854 57.5896 7.592 57.5896 9.23C57.5896 10.886 58.6696 11.642 60.3796 11.642ZM73.9924 12.002C76.0444 12.002 76.7464 10.706 76.7464 9.95V9.176C76.4404 9.302 75.5584 9.482 74.5504 9.644C72.8584 9.932 72.3184 10.166 72.3184 10.868V10.904C72.3184 11.534 72.7684 12.002 73.9924 12.002ZM76.8544 12.614C76.4224 13.136 75.3424 14.198 73.0024 14.198H72.7144C69.9244 14.198 68.7724 12.686 68.7724 11.03V10.958C68.7724 9.23 69.8704 8.168 73.2544 7.88L75.9904 7.646C76.5484 7.592 76.7464 7.412 76.7464 6.998C76.7464 6.53 76.6024 6.026 74.6584 6.026C72.8224 6.026 72.6424 6.746 72.6424 7.124H69.0424V7.088C69.0424 6.098 69.4384 3.776 74.3524 3.776H74.9104C79.8604 3.776 80.1664 5.81 80.1664 7.142V10.436C80.1664 11.066 80.2924 11.318 80.9944 11.318H81.3724V14H78.5284C77.4844 14 76.9984 13.262 76.8544 12.614ZM90.808 14L86.92 9.374V14H83.41V4.01H86.92V8.006L90.484 4.01H94.534L90.358 8.492L94.984 14H90.808ZM102.242 14.27H101.684C96.3015 14.27 95.4735 10.994 95.4735 9.176V8.924C95.4735 7.124 96.3015 3.74 101.666 3.74H102.26C107.804 3.74 108.452 7.142 108.452 8.906V9.194C108.452 10.994 107.804 14.27 102.242 14.27ZM101.864 11.642H102.062C104.276 11.642 104.834 10.058 104.834 8.96C104.834 7.826 104.276 6.314 102.062 6.314H101.864C99.5595 6.314 99.0915 7.826 99.0915 8.96C99.0915 10.058 99.5595 11.642 101.864 11.642ZM119.11 14H110.866V4.01H118.75C121.036 4.01 122.476 4.82 122.476 6.404V6.494C122.476 7.736 121.684 8.474 120.478 8.672C121.702 8.816 122.8 9.68 122.8 11.12V11.192C122.8 13.01 121.612 14 119.11 14ZM114.376 7.988H117.598C118.444 7.988 118.876 7.664 118.876 7.034V6.944C118.876 6.368 118.48 6.026 117.598 6.026H114.376V7.988ZM114.376 11.984H117.742C118.678 11.984 119.2 11.678 119.2 10.976V10.832C119.2 10.202 118.768 9.806 117.742 9.806H114.376V11.984ZM129.873 12.002C131.925 12.002 132.627 10.706 132.627 9.95V9.176C132.321 9.302 131.439 9.482 130.431 9.644C128.739 9.932 128.199 10.166 128.199 10.868V10.904C128.199 11.534 128.649 12.002 129.873 12.002ZM132.735 12.614C132.303 13.136 131.223 14.198 128.883 14.198H128.595C125.805 14.198 124.653 12.686 124.653 11.03V10.958C124.653 9.23 125.751 8.168 129.135 7.88L131.871 7.646C132.429 7.592 132.627 7.412 132.627 6.998C132.627 6.53 132.483 6.026 130.539 6.026C128.703 6.026 128.523 6.746 128.523 7.124H124.923V7.088C124.923 6.098 125.319 3.776 130.233 3.776H130.791C135.741 3.776 136.047 5.81 136.047 7.142V10.436C136.047 11.066 136.173 11.318 136.875 11.318H137.253V14H134.409C133.365 14 132.879 13.262 132.735 12.614ZM0.656 38V24.608H5.588L9.854 33.68L14.246 24.608H18.872V38H15.254V29.234L11.186 38H8.288L4.22 29.234V38H0.656ZM26.7072 36.002C28.7592 36.002 29.4612 34.706 29.4612 33.95V33.176C29.1552 33.302 28.2732 33.482 27.2652 33.644C25.5732 33.932 25.0332 34.166 25.0332 34.868V34.904C25.0332 35.534 25.4832 36.002 26.7072 36.002ZM29.5692 36.614C29.1372 37.136 28.0572 38.198 25.7172 38.198H25.4292C22.6392 38.198 21.4872 36.686 21.4872 35.03V34.958C21.4872 33.23 22.5852 32.168 25.9692 31.88L28.7052 31.646C29.2632 31.592 29.4612 31.412 29.4612 30.998C29.4612 30.53 29.3172 30.026 27.3732 30.026C25.5372 30.026 25.3572 30.746 25.3572 31.124H21.7572V31.088C21.7572 30.098 22.1532 27.776 27.0672 27.776H27.6252C32.5752 27.776 32.8812 29.81 32.8812 31.142V34.436C32.8812 35.066 33.0072 35.318 33.7092 35.318H34.0872V38H31.2432C30.1992 38 29.7132 37.262 29.5692 36.614ZM45.2689 33.014V32.96C45.2689 31.88 44.7649 30.422 42.5689 30.422H42.3889C40.2829 30.422 39.6169 31.808 39.6169 32.96V33.014C39.6169 34.112 40.2829 35.552 42.3889 35.552H42.5689C44.7649 35.552 45.2689 34.04 45.2689 33.014ZM36.1249 41.438V28.01H39.5989V29.288C40.0309 28.82 41.3449 27.812 43.6129 27.812H43.8469C47.6629 27.812 48.9049 30.422 48.9049 32.798V33.104C48.9049 35.282 47.6269 38.198 43.8289 38.198H43.5769C41.2909 38.198 40.0669 37.154 39.6349 36.722V41.438H36.1249ZM59.7707 31.952L54.9467 38H51.3467V28.01H54.8567V34.058L59.6807 28.01H63.2807V38H59.7707V31.952ZM74.6062 34.652H72.2482L69.3322 38H65.3722L68.6302 34.274C66.9022 33.932 65.9122 32.942 65.9122 31.43V31.214C65.9122 29.396 67.3882 28.01 69.8902 28.01H78.1162V38H74.6062V34.652ZM74.6062 30.314H70.8442C70.0702 30.314 69.4222 30.494 69.4222 31.286V31.358C69.4222 32.132 70.0882 32.366 70.8622 32.366H74.6062V30.314ZM95.7793 32.762L93.3493 27.308L90.9913 32.762H95.7793ZM98.1193 38L97.0213 35.516H89.7853L88.7053 38H84.9793L90.9193 24.608H95.8873L102.097 38H98.1193ZM107.257 38H103.747V28.01H107.257V31.646H112.153V28.01H115.663V38H112.153V34.31H107.257V38ZM121.445 38V30.674H117.575V28.01H128.825V30.674H124.955V38H121.445ZM136.993 38.27H136.435C131.053 38.27 130.225 34.994 130.225 33.176V32.924C130.225 31.124 131.053 27.74 136.417 27.74H137.011C142.555 27.74 143.203 31.142 143.203 32.906V33.194C143.203 34.994 142.555 38.27 136.993 38.27ZM136.615 35.642H136.813C139.027 35.642 139.585 34.058 139.585 32.96C139.585 31.826 139.027 30.314 136.813 30.314H136.615C134.311 30.314 133.843 31.826 133.843 32.96C133.843 34.058 134.311 35.642 136.615 35.642ZM149.128 38H145.618V28.01H149.128V31.646H154.024V28.01H157.534V38H154.024V34.31H149.128V38ZM166.718 38.27H166.16C160.778 38.27 159.95 34.994 159.95 33.176V32.924C159.95 31.124 160.778 27.74 166.142 27.74H166.736C172.28 27.74 172.928 31.142 172.928 32.906V33.194C172.928 34.994 172.28 38.27 166.718 38.27ZM166.34 35.642H166.538C168.752 35.642 169.31 34.058 169.31 32.96C169.31 31.826 168.752 30.314 166.538 30.314H166.34C164.036 30.314 163.568 31.826 163.568 32.96C163.568 34.058 164.036 35.642 166.34 35.642ZM183.587 38H175.343V28.01H183.227C185.513 28.01 186.953 28.82 186.953 30.404V30.494C186.953 31.736 186.161 32.474 184.955 32.672C186.179 32.816 187.277 33.68 187.277 35.12V35.192C187.277 37.01 186.089 38 183.587 38ZM178.853 31.988H182.075C182.921 31.988 183.353 31.664 183.353 31.034V30.944C183.353 30.368 182.957 30.026 182.075 30.026H178.853V31.988ZM178.853 35.984H182.219C183.155 35.984 183.677 35.678 183.677 34.976V34.832C183.677 34.202 183.245 33.806 182.219 33.806H178.853V35.984ZM193.232 38H189.722V28.01H193.232V31.646H198.128V28.01H201.638V38H198.128V34.31H193.232V38ZM209.274 36.002C211.326 36.002 212.028 34.706 212.028 33.95V33.176C211.722 33.302 210.84 33.482 209.832 33.644C208.14 33.932 207.6 34.166 207.6 34.868V34.904C207.6 35.534 208.05 36.002 209.274 36.002ZM212.136 36.614C211.704 37.136 210.624 38.198 208.284 38.198H207.996C205.206 38.198 204.054 36.686 204.054 35.03V34.958C204.054 33.23 205.152 32.168 208.536 31.88L211.272 31.646C211.83 31.592 212.028 31.412 212.028 30.998C212.028 30.53 211.884 30.026 209.94 30.026C208.104 30.026 207.924 30.746 207.924 31.124H204.324V31.088C204.324 30.098 204.72 27.776 209.634 27.776H210.192C215.142 27.776 215.448 29.81 215.448 31.142V34.436C215.448 35.066 215.574 35.318 216.276 35.318H216.654V38H213.81C212.766 38 212.28 37.262 212.136 36.614Z" fill="url(#paint1_radial_2016_546)" style="mix-blend-mode:overlay"/>
<path d="M0.656 14V0.608H4.364V11.048H8.756V0.608H12.464V11.048H16.856V0.608H20.564V11.048H22.724V16.25H19.196V14H0.656ZM30.4419 6.08C28.6239 6.08 27.9399 6.818 27.7599 7.862H33.0519C33.0519 7.124 32.6919 6.08 30.4419 6.08ZM33.1239 10.886H36.7779C36.7779 11.714 36.1299 14.234 30.9639 14.234H30.2979C25.3659 14.234 24.1419 11.534 24.1419 9.14V8.888C24.1419 6.638 25.2579 3.794 29.9919 3.794H30.7839C35.8959 3.794 36.8139 6.638 36.8139 9.428V9.752H27.7239C27.8679 10.904 28.6059 11.84 30.7479 11.84C32.7819 11.84 33.0339 11.048 33.1239 10.886ZM48.3978 9.014V8.96C48.3978 7.88 47.8938 6.422 45.6978 6.422H45.5178C43.4118 6.422 42.7458 7.808 42.7458 8.96V9.014C42.7458 10.112 43.4118 11.552 45.5178 11.552H45.6978C47.8938 11.552 48.3978 10.04 48.3978 9.014ZM39.2538 17.438V4.01H42.7278V5.288C43.1598 4.82 44.4738 3.812 46.7418 3.812H46.9758C50.7918 3.812 52.0338 6.422 52.0338 8.798V9.104C52.0338 11.282 50.7558 14.198 46.9578 14.198H46.7058C44.4198 14.198 43.1958 13.154 42.7638 12.722V17.438H39.2538ZM66.9496 9.122V9.356C66.9496 13.1 64.1056 14.27 60.7036 14.27H60.3436C56.8336 14.27 53.9716 12.902 53.9716 8.15V7.088C53.9716 2.282 56.3656 0.698 61.0456 0.698H61.8556C62.9716 0.698 63.0436 0.589999 63.0796 0.373999H66.5176C66.5176 2.48 65.7256 3.362 63.2776 3.362H61.0456C58.4536 3.362 57.4636 4.172 57.4096 5.99C58.3276 5.036 59.7316 4.388 61.9456 4.388H62.0536C64.4296 4.388 66.9496 5.594 66.9496 9.122ZM60.3796 11.642H60.5776C62.1616 11.642 63.3316 10.85 63.3316 9.212C63.3316 7.628 62.1436 6.854 60.5956 6.854H60.3796C58.6516 6.854 57.5896 7.592 57.5896 9.23C57.5896 10.886 58.6696 11.642 60.3796 11.642ZM73.9924 12.002C76.0444 12.002 76.7464 10.706 76.7464 9.95V9.176C76.4404 9.302 75.5584 9.482 74.5504 9.644C72.8584 9.932 72.3184 10.166 72.3184 10.868V10.904C72.3184 11.534 72.7684 12.002 73.9924 12.002ZM76.8544 12.614C76.4224 13.136 75.3424 14.198 73.0024 14.198H72.7144C69.9244 14.198 68.7724 12.686 68.7724 11.03V10.958C68.7724 9.23 69.8704 8.168 73.2544 7.88L75.9904 7.646C76.5484 7.592 76.7464 7.412 76.7464 6.998C76.7464 6.53 76.6024 6.026 74.6584 6.026C72.8224 6.026 72.6424 6.746 72.6424 7.124H69.0424V7.088C69.0424 6.098 69.4384 3.776 74.3524 3.776H74.9104C79.8604 3.776 80.1664 5.81 80.1664 7.142V10.436C80.1664 11.066 80.2924 11.318 80.9944 11.318H81.3724V14H78.5284C77.4844 14 76.9984 13.262 76.8544 12.614ZM90.808 14L86.92 9.374V14H83.41V4.01H86.92V8.006L90.484 4.01H94.534L90.358 8.492L94.984 14H90.808ZM102.242 14.27H101.684C96.3015 14.27 95.4735 10.994 95.4735 9.176V8.924C95.4735 7.124 96.3015 3.74 101.666 3.74H102.26C107.804 3.74 108.452 7.142 108.452 8.906V9.194C108.452 10.994 107.804 14.27 102.242 14.27ZM101.864 11.642H102.062C104.276 11.642 104.834 10.058 104.834 8.96C104.834 7.826 104.276 6.314 102.062 6.314H101.864C99.5595 6.314 99.0915 7.826 99.0915 8.96C99.0915 10.058 99.5595 11.642 101.864 11.642ZM119.11 14H110.866V4.01H118.75C121.036 4.01 122.476 4.82 122.476 6.404V6.494C122.476 7.736 121.684 8.474 120.478 8.672C121.702 8.816 122.8 9.68 122.8 11.12V11.192C122.8 13.01 121.612 14 119.11 14ZM114.376 7.988H117.598C118.444 7.988 118.876 7.664 118.876 7.034V6.944C118.876 6.368 118.48 6.026 117.598 6.026H114.376V7.988ZM114.376 11.984H117.742C118.678 11.984 119.2 11.678 119.2 10.976V10.832C119.2 10.202 118.768 9.806 117.742 9.806H114.376V11.984ZM129.873 12.002C131.925 12.002 132.627 10.706 132.627 9.95V9.176C132.321 9.302 131.439 9.482 130.431 9.644C128.739 9.932 128.199 10.166 128.199 10.868V10.904C128.199 11.534 128.649 12.002 129.873 12.002ZM132.735 12.614C132.303 13.136 131.223 14.198 128.883 14.198H128.595C125.805 14.198 124.653 12.686 124.653 11.03V10.958C124.653 9.23 125.751 8.168 129.135 7.88L131.871 7.646C132.429 7.592 132.627 7.412 132.627 6.998C132.627 6.53 132.483 6.026 130.539 6.026C128.703 6.026 128.523 6.746 128.523 7.124H124.923V7.088C124.923 6.098 125.319 3.776 130.233 3.776H130.791C135.741 3.776 136.047 5.81 136.047 7.142V10.436C136.047 11.066 136.173 11.318 136.875 11.318H137.253V14H134.409C133.365 14 132.879 13.262 132.735 12.614ZM0.656 38V24.608H5.588L9.854 33.68L14.246 24.608H18.872V38H15.254V29.234L11.186 38H8.288L4.22 29.234V38H0.656ZM26.7072 36.002C28.7592 36.002 29.4612 34.706 29.4612 33.95V33.176C29.1552 33.302 28.2732 33.482 27.2652 33.644C25.5732 33.932 25.0332 34.166 25.0332 34.868V34.904C25.0332 35.534 25.4832 36.002 26.7072 36.002ZM29.5692 36.614C29.1372 37.136 28.0572 38.198 25.7172 38.198H25.4292C22.6392 38.198 21.4872 36.686 21.4872 35.03V34.958C21.4872 33.23 22.5852 32.168 25.9692 31.88L28.7052 31.646C29.2632 31.592 29.4612 31.412 29.4612 30.998C29.4612 30.53 29.3172 30.026 27.3732 30.026C25.5372 30.026 25.3572 30.746 25.3572 31.124H21.7572V31.088C21.7572 30.098 22.1532 27.776 27.0672 27.776H27.6252C32.5752 27.776 32.8812 29.81 32.8812 31.142V34.436C32.8812 35.066 33.0072 35.318 33.7092 35.318H34.0872V38H31.2432C30.1992 38 29.7132 37.262 29.5692 36.614ZM45.2689 33.014V32.96C45.2689 31.88 44.7649 30.422 42.5689 30.422H42.3889C40.2829 30.422 39.6169 31.808 39.6169 32.96V33.014C39.6169 34.112 40.2829 35.552 42.3889 35.552H42.5689C44.7649 35.552 45.2689 34.04 45.2689 33.014ZM36.1249 41.438V28.01H39.5989V29.288C40.0309 28.82 41.3449 27.812 43.6129 27.812H43.8469C47.6629 27.812 48.9049 30.422 48.9049 32.798V33.104C48.9049 35.282 47.6269 38.198 43.8289 38.198H43.5769C41.2909 38.198 40.0669 37.154 39.6349 36.722V41.438H36.1249ZM59.7707 31.952L54.9467 38H51.3467V28.01H54.8567V34.058L59.6807 28.01H63.2807V38H59.7707V31.952ZM74.6062 34.652H72.2482L69.3322 38H65.3722L68.6302 34.274C66.9022 33.932 65.9122 32.942 65.9122 31.43V31.214C65.9122 29.396 67.3882 28.01 69.8902 28.01H78.1162V38H74.6062V34.652ZM74.6062 30.314H70.8442C70.0702 30.314 69.4222 30.494 69.4222 31.286V31.358C69.4222 32.132 70.0882 32.366 70.8622 32.366H74.6062V30.314ZM95.7793 32.762L93.3493 27.308L90.9913 32.762H95.7793ZM98.1193 38L97.0213 35.516H89.7853L88.7053 38H84.9793L90.9193 24.608H95.8873L102.097 38H98.1193ZM107.257 38H103.747V28.01H107.257V31.646H112.153V28.01H115.663V38H112.153V34.31H107.257V38ZM121.445 38V30.674H117.575V28.01H128.825V30.674H124.955V38H121.445ZM136.993 38.27H136.435C131.053 38.27 130.225 34.994 130.225 33.176V32.924C130.225 31.124 131.053 27.74 136.417 27.74H137.011C142.555 27.74 143.203 31.142 143.203 32.906V33.194C143.203 34.994 142.555 38.27 136.993 38.27ZM136.615 35.642H136.813C139.027 35.642 139.585 34.058 139.585 32.96C139.585 31.826 139.027 30.314 136.813 30.314H136.615C134.311 30.314 133.843 31.826 133.843 32.96C133.843 34.058 134.311 35.642 136.615 35.642ZM149.128 38H145.618V28.01H149.128V31.646H154.024V28.01H157.534V38H154.024V34.31H149.128V38ZM166.718 38.27H166.16C160.778 38.27 159.95 34.994 159.95 33.176V32.924C159.95 31.124 160.778 27.74 166.142 27.74H166.736C172.28 27.74 172.928 31.142 172.928 32.906V33.194C172.928 34.994 172.28 38.27 166.718 38.27ZM166.34 35.642H166.538C168.752 35.642 169.31 34.058 169.31 32.96C169.31 31.826 168.752 30.314 166.538 30.314H166.34C164.036 30.314 163.568 31.826 163.568 32.96C163.568 34.058 164.036 35.642 166.34 35.642ZM183.587 38H175.343V28.01H183.227C185.513 28.01 186.953 28.82 186.953 30.404V30.494C186.953 31.736 186.161 32.474 184.955 32.672C186.179 32.816 187.277 33.68 187.277 35.12V35.192C187.277 37.01 186.089 38 183.587 38ZM178.853 31.988H182.075C182.921 31.988 183.353 31.664 183.353 31.034V30.944C183.353 30.368 182.957 30.026 182.075 30.026H178.853V31.988ZM178.853 35.984H182.219C183.155 35.984 183.677 35.678 183.677 34.976V34.832C183.677 34.202 183.245 33.806 182.219 33.806H178.853V35.984ZM193.232 38H189.722V28.01H193.232V31.646H198.128V28.01H201.638V38H198.128V34.31H193.232V38ZM209.274 36.002C211.326 36.002 212.028 34.706 212.028 33.95V33.176C211.722 33.302 210.84 33.482 209.832 33.644C208.14 33.932 207.6 34.166 207.6 34.868V34.904C207.6 35.534 208.05 36.002 209.274 36.002ZM212.136 36.614C211.704 37.136 210.624 38.198 208.284 38.198H207.996C205.206 38.198 204.054 36.686 204.054 35.03V34.958C204.054 33.23 205.152 32.168 208.536 31.88L211.272 31.646C211.83 31.592 212.028 31.412 212.028 30.998C212.028 30.53 211.884 30.026 209.94 30.026C208.104 30.026 207.924 30.746 207.924 31.124H204.324V31.088C204.324 30.098 204.72 27.776 209.634 27.776H210.192C215.142 27.776 215.448 29.81 215.448 31.142V34.436C215.448 35.066 215.574 35.318 216.276 35.318H216.654V38H213.81C212.766 38 212.28 37.262 212.136 36.614Z" fill="url(#paint2_radial_2016_546)"/>
<path d="M0.656 14V0.608H4.364V11.048H8.756V0.608H12.464V11.048H16.856V0.608H20.564V11.048H22.724V16.25H19.196V14H0.656ZM30.4419 6.08C28.6239 6.08 27.9399 6.818 27.7599 7.862H33.0519C33.0519 7.124 32.6919 6.08 30.4419 6.08ZM33.1239 10.886H36.7779C36.7779 11.714 36.1299 14.234 30.9639 14.234H30.2979C25.3659 14.234 24.1419 11.534 24.1419 9.14V8.888C24.1419 6.638 25.2579 3.794 29.9919 3.794H30.7839C35.8959 3.794 36.8139 6.638 36.8139 9.428V9.752H27.7239C27.8679 10.904 28.6059 11.84 30.7479 11.84C32.7819 11.84 33.0339 11.048 33.1239 10.886ZM48.3978 9.014V8.96C48.3978 7.88 47.8938 6.422 45.6978 6.422H45.5178C43.4118 6.422 42.7458 7.808 42.7458 8.96V9.014C42.7458 10.112 43.4118 11.552 45.5178 11.552H45.6978C47.8938 11.552 48.3978 10.04 48.3978 9.014ZM39.2538 17.438V4.01H42.7278V5.288C43.1598 4.82 44.4738 3.812 46.7418 3.812H46.9758C50.7918 3.812 52.0338 6.422 52.0338 8.798V9.104C52.0338 11.282 50.7558 14.198 46.9578 14.198H46.7058C44.4198 14.198 43.1958 13.154 42.7638 12.722V17.438H39.2538ZM66.9496 9.122V9.356C66.9496 13.1 64.1056 14.27 60.7036 14.27H60.3436C56.8336 14.27 53.9716 12.902 53.9716 8.15V7.088C53.9716 2.282 56.3656 0.698 61.0456 0.698H61.8556C62.9716 0.698 63.0436 0.589999 63.0796 0.373999H66.5176C66.5176 2.48 65.7256 3.362 63.2776 3.362H61.0456C58.4536 3.362 57.4636 4.172 57.4096 5.99C58.3276 5.036 59.7316 4.388 61.9456 4.388H62.0536C64.4296 4.388 66.9496 5.594 66.9496 9.122ZM60.3796 11.642H60.5776C62.1616 11.642 63.3316 10.85 63.3316 9.212C63.3316 7.628 62.1436 6.854 60.5956 6.854H60.3796C58.6516 6.854 57.5896 7.592 57.5896 9.23C57.5896 10.886 58.6696 11.642 60.3796 11.642ZM73.9924 12.002C76.0444 12.002 76.7464 10.706 76.7464 9.95V9.176C76.4404 9.302 75.5584 9.482 74.5504 9.644C72.8584 9.932 72.3184 10.166 72.3184 10.868V10.904C72.3184 11.534 72.7684 12.002 73.9924 12.002ZM76.8544 12.614C76.4224 13.136 75.3424 14.198 73.0024 14.198H72.7144C69.9244 14.198 68.7724 12.686 68.7724 11.03V10.958C68.7724 9.23 69.8704 8.168 73.2544 7.88L75.9904 7.646C76.5484 7.592 76.7464 7.412 76.7464 6.998C76.7464 6.53 76.6024 6.026 74.6584 6.026C72.8224 6.026 72.6424 6.746 72.6424 7.124H69.0424V7.088C69.0424 6.098 69.4384 3.776 74.3524 3.776H74.9104C79.8604 3.776 80.1664 5.81 80.1664 7.142V10.436C80.1664 11.066 80.2924 11.318 80.9944 11.318H81.3724V14H78.5284C77.4844 14 76.9984 13.262 76.8544 12.614ZM90.808 14L86.92 9.374V14H83.41V4.01H86.92V8.006L90.484 4.01H94.534L90.358 8.492L94.984 14H90.808ZM102.242 14.27H101.684C96.3015 14.27 95.4735 10.994 95.4735 9.176V8.924C95.4735 7.124 96.3015 3.74 101.666 3.74H102.26C107.804 3.74 108.452 7.142 108.452 8.906V9.194C108.452 10.994 107.804 14.27 102.242 14.27ZM101.864 11.642H102.062C104.276 11.642 104.834 10.058 104.834 8.96C104.834 7.826 104.276 6.314 102.062 6.314H101.864C99.5595 6.314 99.0915 7.826 99.0915 8.96C99.0915 10.058 99.5595 11.642 101.864 11.642ZM119.11 14H110.866V4.01H118.75C121.036 4.01 122.476 4.82 122.476 6.404V6.494C122.476 7.736 121.684 8.474 120.478 8.672C121.702 8.816 122.8 9.68 122.8 11.12V11.192C122.8 13.01 121.612 14 119.11 14ZM114.376 7.988H117.598C118.444 7.988 118.876 7.664 118.876 7.034V6.944C118.876 6.368 118.48 6.026 117.598 6.026H114.376V7.988ZM114.376 11.984H117.742C118.678 11.984 119.2 11.678 119.2 10.976V10.832C119.2 10.202 118.768 9.806 117.742 9.806H114.376V11.984ZM129.873 12.002C131.925 12.002 132.627 10.706 132.627 9.95V9.176C132.321 9.302 131.439 9.482 130.431 9.644C128.739 9.932 128.199 10.166 128.199 10.868V10.904C128.199 11.534 128.649 12.002 129.873 12.002ZM132.735 12.614C132.303 13.136 131.223 14.198 128.883 14.198H128.595C125.805 14.198 124.653 12.686 124.653 11.03V10.958C124.653 9.23 125.751 8.168 129.135 7.88L131.871 7.646C132.429 7.592 132.627 7.412 132.627 6.998C132.627 6.53 132.483 6.026 130.539 6.026C128.703 6.026 128.523 6.746 128.523 7.124H124.923V7.088C124.923 6.098 125.319 3.776 130.233 3.776H130.791C135.741 3.776 136.047 5.81 136.047 7.142V10.436C136.047 11.066 136.173 11.318 136.875 11.318H137.253V14H134.409C133.365 14 132.879 13.262 132.735 12.614ZM0.656 38V24.608H5.588L9.854 33.68L14.246 24.608H18.872V38H15.254V29.234L11.186 38H8.288L4.22 29.234V38H0.656ZM26.7072 36.002C28.7592 36.002 29.4612 34.706 29.4612 33.95V33.176C29.1552 33.302 28.2732 33.482 27.2652 33.644C25.5732 33.932 25.0332 34.166 25.0332 34.868V34.904C25.0332 35.534 25.4832 36.002 26.7072 36.002ZM29.5692 36.614C29.1372 37.136 28.0572 38.198 25.7172 38.198H25.4292C22.6392 38.198 21.4872 36.686 21.4872 35.03V34.958C21.4872 33.23 22.5852 32.168 25.9692 31.88L28.7052 31.646C29.2632 31.592 29.4612 31.412 29.4612 30.998C29.4612 30.53 29.3172 30.026 27.3732 30.026C25.5372 30.026 25.3572 30.746 25.3572 31.124H21.7572V31.088C21.7572 30.098 22.1532 27.776 27.0672 27.776H27.6252C32.5752 27.776 32.8812 29.81 32.8812 31.142V34.436C32.8812 35.066 33.0072 35.318 33.7092 35.318H34.0872V38H31.2432C30.1992 38 29.7132 37.262 29.5692 36.614ZM45.2689 33.014V32.96C45.2689 31.88 44.7649 30.422 42.5689 30.422H42.3889C40.2829 30.422 39.6169 31.808 39.6169 32.96V33.014C39.6169 34.112 40.2829 35.552 42.3889 35.552H42.5689C44.7649 35.552 45.2689 34.04 45.2689 33.014ZM36.1249 41.438V28.01H39.5989V29.288C40.0309 28.82 41.3449 27.812 43.6129 27.812H43.8469C47.6629 27.812 48.9049 30.422 48.9049 32.798V33.104C48.9049 35.282 47.6269 38.198 43.8289 38.198H43.5769C41.2909 38.198 40.0669 37.154 39.6349 36.722V41.438H36.1249ZM59.7707 31.952L54.9467 38H51.3467V28.01H54.8567V34.058L59.6807 28.01H63.2807V38H59.7707V31.952ZM74.6062 34.652H72.2482L69.3322 38H65.3722L68.6302 34.274C66.9022 33.932 65.9122 32.942 65.9122 31.43V31.214C65.9122 29.396 67.3882 28.01 69.8902 28.01H78.1162V38H74.6062V34.652ZM74.6062 30.314H70.8442C70.0702 30.314 69.4222 30.494 69.4222 31.286V31.358C69.4222 32.132 70.0882 32.366 70.8622 32.366H74.6062V30.314ZM95.7793 32.762L93.3493 27.308L90.9913 32.762H95.7793ZM98.1193 38L97.0213 35.516H89.7853L88.7053 38H84.9793L90.9193 24.608H95.8873L102.097 38H98.1193ZM107.257 38H103.747V28.01H107.257V31.646H112.153V28.01H115.663V38H112.153V34.31H107.257V38ZM121.445 38V30.674H117.575V28.01H128.825V30.674H124.955V38H121.445ZM136.993 38.27H136.435C131.053 38.27 130.225 34.994 130.225 33.176V32.924C130.225 31.124 131.053 27.74 136.417 27.74H137.011C142.555 27.74 143.203 31.142 143.203 32.906V33.194C143.203 34.994 142.555 38.27 136.993 38.27ZM136.615 35.642H136.813C139.027 35.642 139.585 34.058 139.585 32.96C139.585 31.826 139.027 30.314 136.813 30.314H136.615C134.311 30.314 133.843 31.826 133.843 32.96C133.843 34.058 134.311 35.642 136.615 35.642ZM149.128 38H145.618V28.01H149.128V31.646H154.024V28.01H157.534V38H154.024V34.31H149.128V38ZM166.718 38.27H166.16C160.778 38.27 159.95 34.994 159.95 33.176V32.924C159.95 31.124 160.778 27.74 166.142 27.74H166.736C172.28 27.74 172.928 31.142 172.928 32.906V33.194C172.928 34.994 172.28 38.27 166.718 38.27ZM166.34 35.642H166.538C168.752 35.642 169.31 34.058 169.31 32.96C169.31 31.826 168.752 30.314 166.538 30.314H166.34C164.036 30.314 163.568 31.826 163.568 32.96C163.568 34.058 164.036 35.642 166.34 35.642ZM183.587 38H175.343V28.01H183.227C185.513 28.01 186.953 28.82 186.953 30.404V30.494C186.953 31.736 186.161 32.474 184.955 32.672C186.179 32.816 187.277 33.68 187.277 35.12V35.192C187.277 37.01 186.089 38 183.587 38ZM178.853 31.988H182.075C182.921 31.988 183.353 31.664 183.353 31.034V30.944C183.353 30.368 182.957 30.026 182.075 30.026H178.853V31.988ZM178.853 35.984H182.219C183.155 35.984 183.677 35.678 183.677 34.976V34.832C183.677 34.202 183.245 33.806 182.219 33.806H178.853V35.984ZM193.232 38H189.722V28.01H193.232V31.646H198.128V28.01H201.638V38H198.128V34.31H193.232V38ZM209.274 36.002C211.326 36.002 212.028 34.706 212.028 33.95V33.176C211.722 33.302 210.84 33.482 209.832 33.644C208.14 33.932 207.6 34.166 207.6 34.868V34.904C207.6 35.534 208.05 36.002 209.274 36.002ZM212.136 36.614C211.704 37.136 210.624 38.198 208.284 38.198H207.996C205.206 38.198 204.054 36.686 204.054 35.03V34.958C204.054 33.23 205.152 32.168 208.536 31.88L211.272 31.646C211.83 31.592 212.028 31.412 212.028 30.998C212.028 30.53 211.884 30.026 209.94 30.026C208.104 30.026 207.924 30.746 207.924 31.124H204.324V31.088C204.324 30.098 204.72 27.776 209.634 27.776H210.192C215.142 27.776 215.448 29.81 215.448 31.142V34.436C215.448 35.066 215.574 35.318 216.276 35.318H216.654V38H213.81C212.766 38 212.28 37.262 212.136 36.614Z" fill="#C1A875" style="mix-blend-mode:color"/>
<defs>
<linearGradient id="paint0_linear_2016_546" x1="-0.999999" y1="30" x2="221" y2="30" gradientUnits="userSpaceOnUse">
<stop stop-color="#576167"/>
<stop offset="0.191294" stop-color="#9EA1A2"/>
<stop offset="0.396166" stop-color="#848989"/>
<stop offset="0.62055" stop-color="#576167"/>
<stop offset="0.830299" stop-color="#757A7C"/>
<stop offset="1" stop-color="#576167"/>
</linearGradient>
<radialGradient id="paint1_radial_2016_546" cx="0" cy="0" r="1" gradientUnits="userSpaceOnUse" gradientTransform="translate(117.226 2.39326) rotate(90) scale(53.4944 167.95)">
<stop stop-color="white"/>
<stop offset="1" stop-color="white" stop-opacity="0"/>
</radialGradient>
<radialGradient id="paint2_radial_2016_546" cx="0" cy="0" r="1" gradientUnits="userSpaceOnUse" gradientTransform="translate(129.783 82.9888) rotate(-89.7344) scale(76.6525 240.162)">
<stop stop-color="white"/>
<stop offset="1" stop-color="white" stop-opacity="0"/>
</radialGradient>
</defs>
</svg>
