<svg width="192" height="39" viewBox="0 0 192 39" fill="none" xmlns="http://www.w3.org/2000/svg">
<path d="M12.24 14V3.56H6.48C6.48 7.214 6.318 10.004 5.832 11.462C5.4 12.74 4.626 14 1.962 14H0.63V10.85H0.756C1.854 10.85 2.304 10.346 2.52 9.788C2.88 8.852 2.97 7.574 2.97 0.608H15.948V14H12.24ZM19.8097 17.438V14.936H22.0057C22.3477 14.936 22.5277 14.792 22.5277 14.522V14.504C22.5277 14.288 22.4737 14.09 22.2037 13.532L17.9197 4.01H21.7717L24.5437 11.174L27.2977 4.01H30.8257L26.2537 15.008C25.5517 16.646 24.6877 17.438 23.0317 17.438H19.8097ZM40.0404 14L36.1524 9.374V14H32.6424V4.01H36.1524V8.006L39.7164 4.01H43.7664L39.5904 8.492L44.2164 14H40.0404ZM54.091 7.952L49.267 14H45.667V4.01H49.177V10.058L54.001 4.01H57.601V14H54.091V7.952ZM64.0305 14H60.5205V4.01H64.0305V7.646H68.9265V4.01H72.4365V14H68.9265V10.31H64.0305V14ZM80.7576 14V0.608H91.9176V3.56H84.4656V14H80.7576ZM103.011 9.014V8.96C103.011 7.88 102.507 6.422 100.311 6.422H100.131C98.025 6.422 97.359 7.808 97.359 8.96V9.014C97.359 10.112 98.025 11.552 100.131 11.552H100.311C102.507 11.552 103.011 10.04 103.011 9.014ZM93.867 17.438V4.01H97.341V5.288C97.773 4.82 99.087 3.812 101.355 3.812H101.589C105.405 3.812 106.647 6.422 106.647 8.798V9.104C106.647 11.282 105.369 14.198 101.571 14.198H101.319C99.033 14.198 97.809 13.154 97.377 12.722V17.438H93.867ZM117.513 7.952L112.689 14H109.089V4.01H112.599V10.058L117.423 4.01H121.023V14H117.513V7.952ZM123.942 14V4.01H132.654V6.674H127.452V14H123.942ZM140.824 14.27H140.266C134.884 14.27 134.056 10.994 134.056 9.176V8.924C134.056 7.124 134.884 3.74 140.248 3.74H140.842C146.386 3.74 147.034 7.142 147.034 8.906V9.194C147.034 10.994 146.386 14.27 140.824 14.27ZM140.446 11.642H140.644C142.858 11.642 143.416 10.058 143.416 8.96C143.416 7.826 142.858 6.314 140.644 6.314H140.446C138.142 6.314 137.674 7.826 137.674 8.96C137.674 10.058 138.142 11.642 140.446 11.642ZM158.628 9.014V8.96C158.628 7.88 158.124 6.422 155.928 6.422H155.748C153.642 6.422 152.976 7.808 152.976 8.96V9.014C152.976 10.112 153.642 11.552 155.748 11.552H155.928C158.124 11.552 158.628 10.04 158.628 9.014ZM149.484 17.438V4.01H152.958V5.288C153.39 4.82 154.704 3.812 156.972 3.812H157.206C161.022 3.812 162.264 6.422 162.264 8.798V9.104C162.264 11.282 160.986 14.198 157.188 14.198H156.936C154.65 14.198 153.426 13.154 152.994 12.722V17.438H149.484ZM173.13 7.952L168.306 14H164.706V4.01H168.216V10.058L173.04 4.01H176.64V14H173.13V7.952ZM187.984 7.952L183.16 14H179.56V4.01H183.07V10.058L187.894 4.01H191.494V14H187.984V7.952ZM185.752 2.984H185.212C182.35 2.984 181.846 1.04 181.846 0.104V0.0499994H184.492C184.492 0.284 184.6 1.004 185.5 1.004C186.346 1.004 186.472 0.284 186.472 0.0499994H189.082V0.104C189.082 1.04 188.362 2.984 185.752 2.984ZM13.194 38V29L5.364 38H1.656V24.608H5.364V33.608L13.194 24.608H16.902V38H13.194ZM28.2645 38H20.0205V28.01H27.9045C30.1905 28.01 31.6305 28.82 31.6305 30.404V30.494C31.6305 31.736 30.8385 32.474 29.6325 32.672C30.8565 32.816 31.9545 33.68 31.9545 35.12V35.192C31.9545 37.01 30.7665 38 28.2645 38ZM23.5305 31.988H26.7525C27.5985 31.988 28.0305 31.664 28.0305 31.034V30.944C28.0305 30.368 27.6345 30.026 26.7525 30.026H23.5305V31.988ZM23.5305 35.984H26.8965C27.8325 35.984 28.3545 35.678 28.3545 34.976V34.832C28.3545 34.202 27.9225 33.806 26.8965 33.806H23.5305V35.984ZM39.0275 36.002C41.0795 36.002 41.7815 34.706 41.7815 33.95V33.176C41.4755 33.302 40.5935 33.482 39.5855 33.644C37.8935 33.932 37.3535 34.166 37.3535 34.868V34.904C37.3535 35.534 37.8035 36.002 39.0275 36.002ZM41.8895 36.614C41.4575 37.136 40.3775 38.198 38.0375 38.198H37.7495C34.9595 38.198 33.8075 36.686 33.8075 35.03V34.958C33.8075 33.23 34.9055 32.168 38.2895 31.88L41.0255 31.646C41.5835 31.592 41.7815 31.412 41.7815 30.998C41.7815 30.53 41.6375 30.026 39.6935 30.026C37.8575 30.026 37.6775 30.746 37.6775 31.124H34.0775V31.088C34.0775 30.098 34.4735 27.776 39.3875 27.776H39.9455C44.8955 27.776 45.2015 29.81 45.2015 31.142V34.436C45.2015 35.066 45.3275 35.318 46.0295 35.318H46.4075V38H43.5635C42.5195 38 42.0335 37.262 41.8895 36.614ZM51.9192 38H48.4092V28.01H51.9192V31.646H56.8152V28.01H60.3252V38H56.8152V34.31H51.9192V38ZM69.5091 38.27H68.9511C63.5691 38.27 62.7411 34.994 62.7411 33.176V32.924C62.7411 31.124 63.5691 27.74 68.9331 27.74H69.5271C75.0711 27.74 75.7191 31.142 75.7191 32.906V33.194C75.7191 34.994 75.0711 38.27 69.5091 38.27ZM69.1311 35.642H69.3291C71.5431 35.642 72.1011 34.058 72.1011 32.96C72.1011 31.826 71.5431 30.314 69.3291 30.314H69.1311C66.8271 30.314 66.3591 31.826 66.3591 32.96C66.3591 34.058 66.8271 35.642 69.1311 35.642ZM86.3778 38H78.1338V28.01H86.0178C88.3038 28.01 89.7438 28.82 89.7438 30.404V30.494C89.7438 31.736 88.9518 32.474 87.7458 32.672C88.9698 32.816 90.0678 33.68 90.0678 35.12V35.192C90.0678 37.01 88.8798 38 86.3778 38ZM81.6438 31.988H84.8658C85.7118 31.988 86.1438 31.664 86.1438 31.034V30.944C86.1438 30.368 85.7478 30.026 84.8658 30.026H81.6438V31.988ZM81.6438 35.984H85.0098C85.9458 35.984 86.4678 35.678 86.4678 34.976V34.832C86.4678 34.202 86.0358 33.806 85.0098 33.806H81.6438V35.984ZM100.937 31.952L96.1127 38H92.5127V28.01H96.0227V34.058L100.847 28.01H104.447V38H100.937V31.952ZM114.782 28.01H118.292V38H114.782V34.562C114.008 34.652 113.108 34.742 112.172 34.742C108.212 34.742 106.718 33.626 106.718 30.458V28.01H110.228V29.81C110.228 31.682 110.858 32.006 112.712 32.006C113.414 32.006 114.224 31.952 114.782 31.88V28.01Z" fill="url(#paint0_linear_2016_499)"/>
<path d="M12.24 14V3.56H6.48C6.48 7.214 6.318 10.004 5.832 11.462C5.4 12.74 4.626 14 1.962 14H0.63V10.85H0.756C1.854 10.85 2.304 10.346 2.52 9.788C2.88 8.852 2.97 7.574 2.97 0.608H15.948V14H12.24ZM19.8097 17.438V14.936H22.0057C22.3477 14.936 22.5277 14.792 22.5277 14.522V14.504C22.5277 14.288 22.4737 14.09 22.2037 13.532L17.9197 4.01H21.7717L24.5437 11.174L27.2977 4.01H30.8257L26.2537 15.008C25.5517 16.646 24.6877 17.438 23.0317 17.438H19.8097ZM40.0404 14L36.1524 9.374V14H32.6424V4.01H36.1524V8.006L39.7164 4.01H43.7664L39.5904 8.492L44.2164 14H40.0404ZM54.091 7.952L49.267 14H45.667V4.01H49.177V10.058L54.001 4.01H57.601V14H54.091V7.952ZM64.0305 14H60.5205V4.01H64.0305V7.646H68.9265V4.01H72.4365V14H68.9265V10.31H64.0305V14ZM80.7576 14V0.608H91.9176V3.56H84.4656V14H80.7576ZM103.011 9.014V8.96C103.011 7.88 102.507 6.422 100.311 6.422H100.131C98.025 6.422 97.359 7.808 97.359 8.96V9.014C97.359 10.112 98.025 11.552 100.131 11.552H100.311C102.507 11.552 103.011 10.04 103.011 9.014ZM93.867 17.438V4.01H97.341V5.288C97.773 4.82 99.087 3.812 101.355 3.812H101.589C105.405 3.812 106.647 6.422 106.647 8.798V9.104C106.647 11.282 105.369 14.198 101.571 14.198H101.319C99.033 14.198 97.809 13.154 97.377 12.722V17.438H93.867ZM117.513 7.952L112.689 14H109.089V4.01H112.599V10.058L117.423 4.01H121.023V14H117.513V7.952ZM123.942 14V4.01H132.654V6.674H127.452V14H123.942ZM140.824 14.27H140.266C134.884 14.27 134.056 10.994 134.056 9.176V8.924C134.056 7.124 134.884 3.74 140.248 3.74H140.842C146.386 3.74 147.034 7.142 147.034 8.906V9.194C147.034 10.994 146.386 14.27 140.824 14.27ZM140.446 11.642H140.644C142.858 11.642 143.416 10.058 143.416 8.96C143.416 7.826 142.858 6.314 140.644 6.314H140.446C138.142 6.314 137.674 7.826 137.674 8.96C137.674 10.058 138.142 11.642 140.446 11.642ZM158.628 9.014V8.96C158.628 7.88 158.124 6.422 155.928 6.422H155.748C153.642 6.422 152.976 7.808 152.976 8.96V9.014C152.976 10.112 153.642 11.552 155.748 11.552H155.928C158.124 11.552 158.628 10.04 158.628 9.014ZM149.484 17.438V4.01H152.958V5.288C153.39 4.82 154.704 3.812 156.972 3.812H157.206C161.022 3.812 162.264 6.422 162.264 8.798V9.104C162.264 11.282 160.986 14.198 157.188 14.198H156.936C154.65 14.198 153.426 13.154 152.994 12.722V17.438H149.484ZM173.13 7.952L168.306 14H164.706V4.01H168.216V10.058L173.04 4.01H176.64V14H173.13V7.952ZM187.984 7.952L183.16 14H179.56V4.01H183.07V10.058L187.894 4.01H191.494V14H187.984V7.952ZM185.752 2.984H185.212C182.35 2.984 181.846 1.04 181.846 0.104V0.0499994H184.492C184.492 0.284 184.6 1.004 185.5 1.004C186.346 1.004 186.472 0.284 186.472 0.0499994H189.082V0.104C189.082 1.04 188.362 2.984 185.752 2.984ZM13.194 38V29L5.364 38H1.656V24.608H5.364V33.608L13.194 24.608H16.902V38H13.194ZM28.2645 38H20.0205V28.01H27.9045C30.1905 28.01 31.6305 28.82 31.6305 30.404V30.494C31.6305 31.736 30.8385 32.474 29.6325 32.672C30.8565 32.816 31.9545 33.68 31.9545 35.12V35.192C31.9545 37.01 30.7665 38 28.2645 38ZM23.5305 31.988H26.7525C27.5985 31.988 28.0305 31.664 28.0305 31.034V30.944C28.0305 30.368 27.6345 30.026 26.7525 30.026H23.5305V31.988ZM23.5305 35.984H26.8965C27.8325 35.984 28.3545 35.678 28.3545 34.976V34.832C28.3545 34.202 27.9225 33.806 26.8965 33.806H23.5305V35.984ZM39.0275 36.002C41.0795 36.002 41.7815 34.706 41.7815 33.95V33.176C41.4755 33.302 40.5935 33.482 39.5855 33.644C37.8935 33.932 37.3535 34.166 37.3535 34.868V34.904C37.3535 35.534 37.8035 36.002 39.0275 36.002ZM41.8895 36.614C41.4575 37.136 40.3775 38.198 38.0375 38.198H37.7495C34.9595 38.198 33.8075 36.686 33.8075 35.03V34.958C33.8075 33.23 34.9055 32.168 38.2895 31.88L41.0255 31.646C41.5835 31.592 41.7815 31.412 41.7815 30.998C41.7815 30.53 41.6375 30.026 39.6935 30.026C37.8575 30.026 37.6775 30.746 37.6775 31.124H34.0775V31.088C34.0775 30.098 34.4735 27.776 39.3875 27.776H39.9455C44.8955 27.776 45.2015 29.81 45.2015 31.142V34.436C45.2015 35.066 45.3275 35.318 46.0295 35.318H46.4075V38H43.5635C42.5195 38 42.0335 37.262 41.8895 36.614ZM51.9192 38H48.4092V28.01H51.9192V31.646H56.8152V28.01H60.3252V38H56.8152V34.31H51.9192V38ZM69.5091 38.27H68.9511C63.5691 38.27 62.7411 34.994 62.7411 33.176V32.924C62.7411 31.124 63.5691 27.74 68.9331 27.74H69.5271C75.0711 27.74 75.7191 31.142 75.7191 32.906V33.194C75.7191 34.994 75.0711 38.27 69.5091 38.27ZM69.1311 35.642H69.3291C71.5431 35.642 72.1011 34.058 72.1011 32.96C72.1011 31.826 71.5431 30.314 69.3291 30.314H69.1311C66.8271 30.314 66.3591 31.826 66.3591 32.96C66.3591 34.058 66.8271 35.642 69.1311 35.642ZM86.3778 38H78.1338V28.01H86.0178C88.3038 28.01 89.7438 28.82 89.7438 30.404V30.494C89.7438 31.736 88.9518 32.474 87.7458 32.672C88.9698 32.816 90.0678 33.68 90.0678 35.12V35.192C90.0678 37.01 88.8798 38 86.3778 38ZM81.6438 31.988H84.8658C85.7118 31.988 86.1438 31.664 86.1438 31.034V30.944C86.1438 30.368 85.7478 30.026 84.8658 30.026H81.6438V31.988ZM81.6438 35.984H85.0098C85.9458 35.984 86.4678 35.678 86.4678 34.976V34.832C86.4678 34.202 86.0358 33.806 85.0098 33.806H81.6438V35.984ZM100.937 31.952L96.1127 38H92.5127V28.01H96.0227V34.058L100.847 28.01H104.447V38H100.937V31.952ZM114.782 28.01H118.292V38H114.782V34.562C114.008 34.652 113.108 34.742 112.172 34.742C108.212 34.742 106.718 33.626 106.718 30.458V28.01H110.228V29.81C110.228 31.682 110.858 32.006 112.712 32.006C113.414 32.006 114.224 31.952 114.782 31.88V28.01Z" fill="url(#paint1_radial_2016_499)" style="mix-blend-mode:overlay"/>
<path d="M12.24 14V3.56H6.48C6.48 7.214 6.318 10.004 5.832 11.462C5.4 12.74 4.626 14 1.962 14H0.63V10.85H0.756C1.854 10.85 2.304 10.346 2.52 9.788C2.88 8.852 2.97 7.574 2.97 0.608H15.948V14H12.24ZM19.8097 17.438V14.936H22.0057C22.3477 14.936 22.5277 14.792 22.5277 14.522V14.504C22.5277 14.288 22.4737 14.09 22.2037 13.532L17.9197 4.01H21.7717L24.5437 11.174L27.2977 4.01H30.8257L26.2537 15.008C25.5517 16.646 24.6877 17.438 23.0317 17.438H19.8097ZM40.0404 14L36.1524 9.374V14H32.6424V4.01H36.1524V8.006L39.7164 4.01H43.7664L39.5904 8.492L44.2164 14H40.0404ZM54.091 7.952L49.267 14H45.667V4.01H49.177V10.058L54.001 4.01H57.601V14H54.091V7.952ZM64.0305 14H60.5205V4.01H64.0305V7.646H68.9265V4.01H72.4365V14H68.9265V10.31H64.0305V14ZM80.7576 14V0.608H91.9176V3.56H84.4656V14H80.7576ZM103.011 9.014V8.96C103.011 7.88 102.507 6.422 100.311 6.422H100.131C98.025 6.422 97.359 7.808 97.359 8.96V9.014C97.359 10.112 98.025 11.552 100.131 11.552H100.311C102.507 11.552 103.011 10.04 103.011 9.014ZM93.867 17.438V4.01H97.341V5.288C97.773 4.82 99.087 3.812 101.355 3.812H101.589C105.405 3.812 106.647 6.422 106.647 8.798V9.104C106.647 11.282 105.369 14.198 101.571 14.198H101.319C99.033 14.198 97.809 13.154 97.377 12.722V17.438H93.867ZM117.513 7.952L112.689 14H109.089V4.01H112.599V10.058L117.423 4.01H121.023V14H117.513V7.952ZM123.942 14V4.01H132.654V6.674H127.452V14H123.942ZM140.824 14.27H140.266C134.884 14.27 134.056 10.994 134.056 9.176V8.924C134.056 7.124 134.884 3.74 140.248 3.74H140.842C146.386 3.74 147.034 7.142 147.034 8.906V9.194C147.034 10.994 146.386 14.27 140.824 14.27ZM140.446 11.642H140.644C142.858 11.642 143.416 10.058 143.416 8.96C143.416 7.826 142.858 6.314 140.644 6.314H140.446C138.142 6.314 137.674 7.826 137.674 8.96C137.674 10.058 138.142 11.642 140.446 11.642ZM158.628 9.014V8.96C158.628 7.88 158.124 6.422 155.928 6.422H155.748C153.642 6.422 152.976 7.808 152.976 8.96V9.014C152.976 10.112 153.642 11.552 155.748 11.552H155.928C158.124 11.552 158.628 10.04 158.628 9.014ZM149.484 17.438V4.01H152.958V5.288C153.39 4.82 154.704 3.812 156.972 3.812H157.206C161.022 3.812 162.264 6.422 162.264 8.798V9.104C162.264 11.282 160.986 14.198 157.188 14.198H156.936C154.65 14.198 153.426 13.154 152.994 12.722V17.438H149.484ZM173.13 7.952L168.306 14H164.706V4.01H168.216V10.058L173.04 4.01H176.64V14H173.13V7.952ZM187.984 7.952L183.16 14H179.56V4.01H183.07V10.058L187.894 4.01H191.494V14H187.984V7.952ZM185.752 2.984H185.212C182.35 2.984 181.846 1.04 181.846 0.104V0.0499994H184.492C184.492 0.284 184.6 1.004 185.5 1.004C186.346 1.004 186.472 0.284 186.472 0.0499994H189.082V0.104C189.082 1.04 188.362 2.984 185.752 2.984ZM13.194 38V29L5.364 38H1.656V24.608H5.364V33.608L13.194 24.608H16.902V38H13.194ZM28.2645 38H20.0205V28.01H27.9045C30.1905 28.01 31.6305 28.82 31.6305 30.404V30.494C31.6305 31.736 30.8385 32.474 29.6325 32.672C30.8565 32.816 31.9545 33.68 31.9545 35.12V35.192C31.9545 37.01 30.7665 38 28.2645 38ZM23.5305 31.988H26.7525C27.5985 31.988 28.0305 31.664 28.0305 31.034V30.944C28.0305 30.368 27.6345 30.026 26.7525 30.026H23.5305V31.988ZM23.5305 35.984H26.8965C27.8325 35.984 28.3545 35.678 28.3545 34.976V34.832C28.3545 34.202 27.9225 33.806 26.8965 33.806H23.5305V35.984ZM39.0275 36.002C41.0795 36.002 41.7815 34.706 41.7815 33.95V33.176C41.4755 33.302 40.5935 33.482 39.5855 33.644C37.8935 33.932 37.3535 34.166 37.3535 34.868V34.904C37.3535 35.534 37.8035 36.002 39.0275 36.002ZM41.8895 36.614C41.4575 37.136 40.3775 38.198 38.0375 38.198H37.7495C34.9595 38.198 33.8075 36.686 33.8075 35.03V34.958C33.8075 33.23 34.9055 32.168 38.2895 31.88L41.0255 31.646C41.5835 31.592 41.7815 31.412 41.7815 30.998C41.7815 30.53 41.6375 30.026 39.6935 30.026C37.8575 30.026 37.6775 30.746 37.6775 31.124H34.0775V31.088C34.0775 30.098 34.4735 27.776 39.3875 27.776H39.9455C44.8955 27.776 45.2015 29.81 45.2015 31.142V34.436C45.2015 35.066 45.3275 35.318 46.0295 35.318H46.4075V38H43.5635C42.5195 38 42.0335 37.262 41.8895 36.614ZM51.9192 38H48.4092V28.01H51.9192V31.646H56.8152V28.01H60.3252V38H56.8152V34.31H51.9192V38ZM69.5091 38.27H68.9511C63.5691 38.27 62.7411 34.994 62.7411 33.176V32.924C62.7411 31.124 63.5691 27.74 68.9331 27.74H69.5271C75.0711 27.74 75.7191 31.142 75.7191 32.906V33.194C75.7191 34.994 75.0711 38.27 69.5091 38.27ZM69.1311 35.642H69.3291C71.5431 35.642 72.1011 34.058 72.1011 32.96C72.1011 31.826 71.5431 30.314 69.3291 30.314H69.1311C66.8271 30.314 66.3591 31.826 66.3591 32.96C66.3591 34.058 66.8271 35.642 69.1311 35.642ZM86.3778 38H78.1338V28.01H86.0178C88.3038 28.01 89.7438 28.82 89.7438 30.404V30.494C89.7438 31.736 88.9518 32.474 87.7458 32.672C88.9698 32.816 90.0678 33.68 90.0678 35.12V35.192C90.0678 37.01 88.8798 38 86.3778 38ZM81.6438 31.988H84.8658C85.7118 31.988 86.1438 31.664 86.1438 31.034V30.944C86.1438 30.368 85.7478 30.026 84.8658 30.026H81.6438V31.988ZM81.6438 35.984H85.0098C85.9458 35.984 86.4678 35.678 86.4678 34.976V34.832C86.4678 34.202 86.0358 33.806 85.0098 33.806H81.6438V35.984ZM100.937 31.952L96.1127 38H92.5127V28.01H96.0227V34.058L100.847 28.01H104.447V38H100.937V31.952ZM114.782 28.01H118.292V38H114.782V34.562C114.008 34.652 113.108 34.742 112.172 34.742C108.212 34.742 106.718 33.626 106.718 30.458V28.01H110.228V29.81C110.228 31.682 110.858 32.006 112.712 32.006C113.414 32.006 114.224 31.952 114.782 31.88V28.01Z" fill="url(#paint2_radial_2016_499)"/>
<path d="M12.24 14V3.56H6.48C6.48 7.214 6.318 10.004 5.832 11.462C5.4 12.74 4.626 14 1.962 14H0.63V10.85H0.756C1.854 10.85 2.304 10.346 2.52 9.788C2.88 8.852 2.97 7.574 2.97 0.608H15.948V14H12.24ZM19.8097 17.438V14.936H22.0057C22.3477 14.936 22.5277 14.792 22.5277 14.522V14.504C22.5277 14.288 22.4737 14.09 22.2037 13.532L17.9197 4.01H21.7717L24.5437 11.174L27.2977 4.01H30.8257L26.2537 15.008C25.5517 16.646 24.6877 17.438 23.0317 17.438H19.8097ZM40.0404 14L36.1524 9.374V14H32.6424V4.01H36.1524V8.006L39.7164 4.01H43.7664L39.5904 8.492L44.2164 14H40.0404ZM54.091 7.952L49.267 14H45.667V4.01H49.177V10.058L54.001 4.01H57.601V14H54.091V7.952ZM64.0305 14H60.5205V4.01H64.0305V7.646H68.9265V4.01H72.4365V14H68.9265V10.31H64.0305V14ZM80.7576 14V0.608H91.9176V3.56H84.4656V14H80.7576ZM103.011 9.014V8.96C103.011 7.88 102.507 6.422 100.311 6.422H100.131C98.025 6.422 97.359 7.808 97.359 8.96V9.014C97.359 10.112 98.025 11.552 100.131 11.552H100.311C102.507 11.552 103.011 10.04 103.011 9.014ZM93.867 17.438V4.01H97.341V5.288C97.773 4.82 99.087 3.812 101.355 3.812H101.589C105.405 3.812 106.647 6.422 106.647 8.798V9.104C106.647 11.282 105.369 14.198 101.571 14.198H101.319C99.033 14.198 97.809 13.154 97.377 12.722V17.438H93.867ZM117.513 7.952L112.689 14H109.089V4.01H112.599V10.058L117.423 4.01H121.023V14H117.513V7.952ZM123.942 14V4.01H132.654V6.674H127.452V14H123.942ZM140.824 14.27H140.266C134.884 14.27 134.056 10.994 134.056 9.176V8.924C134.056 7.124 134.884 3.74 140.248 3.74H140.842C146.386 3.74 147.034 7.142 147.034 8.906V9.194C147.034 10.994 146.386 14.27 140.824 14.27ZM140.446 11.642H140.644C142.858 11.642 143.416 10.058 143.416 8.96C143.416 7.826 142.858 6.314 140.644 6.314H140.446C138.142 6.314 137.674 7.826 137.674 8.96C137.674 10.058 138.142 11.642 140.446 11.642ZM158.628 9.014V8.96C158.628 7.88 158.124 6.422 155.928 6.422H155.748C153.642 6.422 152.976 7.808 152.976 8.96V9.014C152.976 10.112 153.642 11.552 155.748 11.552H155.928C158.124 11.552 158.628 10.04 158.628 9.014ZM149.484 17.438V4.01H152.958V5.288C153.39 4.82 154.704 3.812 156.972 3.812H157.206C161.022 3.812 162.264 6.422 162.264 8.798V9.104C162.264 11.282 160.986 14.198 157.188 14.198H156.936C154.65 14.198 153.426 13.154 152.994 12.722V17.438H149.484ZM173.13 7.952L168.306 14H164.706V4.01H168.216V10.058L173.04 4.01H176.64V14H173.13V7.952ZM187.984 7.952L183.16 14H179.56V4.01H183.07V10.058L187.894 4.01H191.494V14H187.984V7.952ZM185.752 2.984H185.212C182.35 2.984 181.846 1.04 181.846 0.104V0.0499994H184.492C184.492 0.284 184.6 1.004 185.5 1.004C186.346 1.004 186.472 0.284 186.472 0.0499994H189.082V0.104C189.082 1.04 188.362 2.984 185.752 2.984ZM13.194 38V29L5.364 38H1.656V24.608H5.364V33.608L13.194 24.608H16.902V38H13.194ZM28.2645 38H20.0205V28.01H27.9045C30.1905 28.01 31.6305 28.82 31.6305 30.404V30.494C31.6305 31.736 30.8385 32.474 29.6325 32.672C30.8565 32.816 31.9545 33.68 31.9545 35.12V35.192C31.9545 37.01 30.7665 38 28.2645 38ZM23.5305 31.988H26.7525C27.5985 31.988 28.0305 31.664 28.0305 31.034V30.944C28.0305 30.368 27.6345 30.026 26.7525 30.026H23.5305V31.988ZM23.5305 35.984H26.8965C27.8325 35.984 28.3545 35.678 28.3545 34.976V34.832C28.3545 34.202 27.9225 33.806 26.8965 33.806H23.5305V35.984ZM39.0275 36.002C41.0795 36.002 41.7815 34.706 41.7815 33.95V33.176C41.4755 33.302 40.5935 33.482 39.5855 33.644C37.8935 33.932 37.3535 34.166 37.3535 34.868V34.904C37.3535 35.534 37.8035 36.002 39.0275 36.002ZM41.8895 36.614C41.4575 37.136 40.3775 38.198 38.0375 38.198H37.7495C34.9595 38.198 33.8075 36.686 33.8075 35.03V34.958C33.8075 33.23 34.9055 32.168 38.2895 31.88L41.0255 31.646C41.5835 31.592 41.7815 31.412 41.7815 30.998C41.7815 30.53 41.6375 30.026 39.6935 30.026C37.8575 30.026 37.6775 30.746 37.6775 31.124H34.0775V31.088C34.0775 30.098 34.4735 27.776 39.3875 27.776H39.9455C44.8955 27.776 45.2015 29.81 45.2015 31.142V34.436C45.2015 35.066 45.3275 35.318 46.0295 35.318H46.4075V38H43.5635C42.5195 38 42.0335 37.262 41.8895 36.614ZM51.9192 38H48.4092V28.01H51.9192V31.646H56.8152V28.01H60.3252V38H56.8152V34.31H51.9192V38ZM69.5091 38.27H68.9511C63.5691 38.27 62.7411 34.994 62.7411 33.176V32.924C62.7411 31.124 63.5691 27.74 68.9331 27.74H69.5271C75.0711 27.74 75.7191 31.142 75.7191 32.906V33.194C75.7191 34.994 75.0711 38.27 69.5091 38.27ZM69.1311 35.642H69.3291C71.5431 35.642 72.1011 34.058 72.1011 32.96C72.1011 31.826 71.5431 30.314 69.3291 30.314H69.1311C66.8271 30.314 66.3591 31.826 66.3591 32.96C66.3591 34.058 66.8271 35.642 69.1311 35.642ZM86.3778 38H78.1338V28.01H86.0178C88.3038 28.01 89.7438 28.82 89.7438 30.404V30.494C89.7438 31.736 88.9518 32.474 87.7458 32.672C88.9698 32.816 90.0678 33.68 90.0678 35.12V35.192C90.0678 37.01 88.8798 38 86.3778 38ZM81.6438 31.988H84.8658C85.7118 31.988 86.1438 31.664 86.1438 31.034V30.944C86.1438 30.368 85.7478 30.026 84.8658 30.026H81.6438V31.988ZM81.6438 35.984H85.0098C85.9458 35.984 86.4678 35.678 86.4678 34.976V34.832C86.4678 34.202 86.0358 33.806 85.0098 33.806H81.6438V35.984ZM100.937 31.952L96.1127 38H92.5127V28.01H96.0227V34.058L100.847 28.01H104.447V38H100.937V31.952ZM114.782 28.01H118.292V38H114.782V34.562C114.008 34.652 113.108 34.742 112.172 34.742C108.212 34.742 106.718 33.626 106.718 30.458V28.01H110.228V29.81C110.228 31.682 110.858 32.006 112.712 32.006C113.414 32.006 114.224 31.952 114.782 31.88V28.01Z" fill="#C1A875" style="mix-blend-mode:color"/>
<defs>
<linearGradient id="paint0_linear_2016_499" x1="8.27014e-07" y1="30" x2="222" y2="30" gradientUnits="userSpaceOnUse">
<stop stop-color="#576167"/>
<stop offset="0.191294" stop-color="#9EA1A2"/>
<stop offset="0.396166" stop-color="#848989"/>
<stop offset="0.62055" stop-color="#576167"/>
<stop offset="0.830299" stop-color="#757A7C"/>
<stop offset="1" stop-color="#576167"/>
</linearGradient>
<radialGradient id="paint1_radial_2016_499" cx="0" cy="0" r="1" gradientUnits="userSpaceOnUse" gradientTransform="translate(118.226 2.39326) rotate(90) scale(53.4944 167.95)">
<stop stop-color="white"/>
<stop offset="1" stop-color="white" stop-opacity="0"/>
</radialGradient>
<radialGradient id="paint2_radial_2016_499" cx="0" cy="0" r="1" gradientUnits="userSpaceOnUse" gradientTransform="translate(130.783 82.9888) rotate(-89.7344) scale(76.6525 240.162)">
<stop stop-color="white"/>
<stop offset="1" stop-color="white" stop-opacity="0"/>
</radialGradient>
</defs>
</svg>
