<svg width="147" height="63" viewBox="0 0 147 63" fill="none" xmlns="http://www.w3.org/2000/svg">
<path d="M1.656 0.608H13.914V3.524H5.31V5.702H13.644V8.726H5.31V11.048H14.022V14H1.656V0.608ZM24.9761 14V6.674H21.0161C21.0161 9.356 20.9261 10.85 20.5841 11.768C20.2061 12.776 19.7021 14 17.0561 14H15.9581V11.39H16.1741C16.8041 11.39 17.2721 11.174 17.4701 10.256C17.6141 9.482 17.6681 8.636 17.6681 4.01H28.4861V14H24.9761ZM37.2075 6.08C35.3895 6.08 34.7055 6.818 34.5255 7.862H39.8175C39.8175 7.124 39.4575 6.08 37.2075 6.08ZM39.8895 10.886H43.5435C43.5435 11.714 42.8955 14.234 37.7295 14.234H37.0635C32.1315 14.234 30.9075 11.534 30.9075 9.14V8.888C30.9075 6.638 32.0235 3.794 36.7575 3.794H37.5495C42.6615 3.794 43.5795 6.638 43.5795 9.428V9.752H34.4895C34.6335 10.904 35.3715 11.84 37.5135 11.84C39.5475 11.84 39.7995 11.048 39.8895 10.886ZM49.4934 14H45.9834V4.01H49.4934V7.646H54.3894V4.01H57.8994V14H54.3894V10.31H49.4934V14ZM65.5353 12.002C67.5873 12.002 68.2893 10.706 68.2893 9.95V9.176C67.9833 9.302 67.1013 9.482 66.0933 9.644C64.4013 9.932 63.8613 10.166 63.8613 10.868V10.904C63.8613 11.534 64.3113 12.002 65.5353 12.002ZM68.3973 12.614C67.9653 13.136 66.8853 14.198 64.5453 14.198H64.2573C61.4673 14.198 60.3153 12.686 60.3153 11.03V10.958C60.3153 9.23 61.4133 8.168 64.7973 7.88L67.5333 7.646C68.0913 7.592 68.2893 7.412 68.2893 6.998C68.2893 6.53 68.1453 6.026 66.2013 6.026C64.3653 6.026 64.1853 6.746 64.1853 7.124H60.5853V7.088C60.5853 6.098 60.9813 3.776 65.8953 3.776H66.4533C71.4033 3.776 71.7093 5.81 71.7093 7.142V10.436C71.7093 11.066 71.8353 11.318 72.5373 11.318H72.9153V14H70.0713C69.0273 14 68.5413 13.262 68.3973 12.614ZM10.998 32.762L8.568 27.308L6.21 32.762H10.998ZM13.338 38L12.24 35.516H5.004L3.924 38H0.198L6.138 24.608H11.106L17.316 38H13.338ZM28.1458 33.014V32.96C28.1458 31.88 27.6418 30.422 25.4458 30.422H25.2658C23.1598 30.422 22.4938 31.808 22.4938 32.96V33.014C22.4938 34.112 23.1598 35.552 25.2658 35.552H25.4458C27.6418 35.552 28.1458 34.04 28.1458 33.014ZM19.0018 41.438V28.01H22.4758V29.288C22.9078 28.82 24.2218 27.812 26.4898 27.812H26.7238C30.5398 27.812 31.7818 30.422 31.7818 32.798V33.104C31.7818 35.282 30.5038 38.198 26.7058 38.198H26.4538C24.1678 38.198 22.9438 37.154 22.5118 36.722V41.438H19.0018ZM41.6576 38L37.7696 33.374V38H34.2596V28.01H37.7696V32.006L41.3336 28.01H45.3836L41.2076 32.492L45.8336 38H41.6576ZM51.6486 36.002C53.7006 36.002 54.4026 34.706 54.4026 33.95V33.176C54.0966 33.302 53.2146 33.482 52.2066 33.644C50.5146 33.932 49.9746 34.166 49.9746 34.868V34.904C49.9746 35.534 50.4246 36.002 51.6486 36.002ZM54.5106 36.614C54.0786 37.136 52.9986 38.198 50.6586 38.198H50.3706C47.5806 38.198 46.4286 36.686 46.4286 35.03V34.958C46.4286 33.23 47.5266 32.168 50.9106 31.88L53.6466 31.646C54.2046 31.592 54.4026 31.412 54.4026 30.998C54.4026 30.53 54.2586 30.026 52.3146 30.026C50.4786 30.026 50.2986 30.746 50.2986 31.124H46.6986V31.088C46.6986 30.098 47.0946 27.776 52.0086 27.776H52.5666C57.5166 27.776 57.8226 29.81 57.8226 31.142V34.436C57.8226 35.066 57.9486 35.318 58.6506 35.318H59.0286V38H56.1846C55.1406 38 54.6546 37.262 54.5106 36.614ZM60.5538 40.124V35.336H61.7598C62.4438 33.968 62.5518 30.998 62.6418 28.01H73.2078V35.336H75.0078V40.124H71.6778V38H63.8838V40.124H60.5538ZM65.0718 35.336H69.6978V30.674H65.7918C65.7378 31.97 65.5578 33.95 65.0718 35.336ZM77.0967 38V28.01H80.6067V30.872H83.3427C86.7627 30.872 88.0947 32.384 88.0947 34.292V34.508C88.0947 36.596 86.7627 38 83.3427 38H77.0967ZM80.6067 35.624H82.9107C83.6307 35.624 84.4947 35.408 84.4947 34.436V34.382C84.4947 33.482 83.6307 33.248 82.9107 33.248H80.6067V35.624ZM96.1646 30.08C94.3466 30.08 93.6626 30.818 93.4826 31.862H98.7746C98.7746 31.124 98.4146 30.08 96.1646 30.08ZM98.8466 34.886H102.501C102.501 35.714 101.853 38.234 96.6866 38.234H96.0206C91.0886 38.234 89.8646 35.534 89.8646 33.14V32.888C89.8646 30.638 90.9806 27.794 95.7146 27.794H96.5066C101.619 27.794 102.537 30.638 102.537 33.428V33.752H93.4466C93.5906 34.904 94.3286 35.84 96.4706 35.84C98.5046 35.84 98.7566 35.048 98.8466 34.886ZM113.184 38H104.94V28.01H112.824C115.11 28.01 116.55 28.82 116.55 30.404V30.494C116.55 31.736 115.758 32.474 114.552 32.672C115.776 32.816 116.874 33.68 116.874 35.12V35.192C116.874 37.01 115.686 38 113.184 38ZM108.45 31.988H111.672C112.518 31.988 112.95 31.664 112.95 31.034V30.944C112.95 30.368 112.554 30.026 111.672 30.026H108.45V31.988ZM108.45 35.984H111.816C112.752 35.984 113.274 35.678 113.274 34.976V34.832C113.274 34.202 112.842 33.806 111.816 33.806H108.45V35.984ZM122.829 38H119.319V28.01H122.829V31.646H127.725V28.01H131.235V38H127.725V34.31H122.829V38ZM138.871 36.002C140.923 36.002 141.625 34.706 141.625 33.95V33.176C141.319 33.302 140.437 33.482 139.429 33.644C137.737 33.932 137.197 34.166 137.197 34.868V34.904C137.197 35.534 137.647 36.002 138.871 36.002ZM141.733 36.614C141.301 37.136 140.221 38.198 137.881 38.198H137.593C134.803 38.198 133.651 36.686 133.651 35.03V34.958C133.651 33.23 134.749 32.168 138.133 31.88L140.869 31.646C141.427 31.592 141.625 31.412 141.625 30.998C141.625 30.53 141.481 30.026 139.537 30.026C137.701 30.026 137.521 30.746 137.521 31.124H133.921V31.088C133.921 30.098 134.317 27.776 139.231 27.776H139.789C144.739 27.776 145.045 29.81 145.045 31.142V34.436C145.045 35.066 145.171 35.318 145.873 35.318H146.251V38H143.407C142.363 38 141.877 37.262 141.733 36.614ZM1.656 62V48.608H6.588L10.854 57.68L15.246 48.608H19.872V62H16.254V53.234L12.186 62H9.288L5.22 53.234V62H1.656ZM31.4152 55.952L26.5912 62H22.9912V52.01H26.5012V58.058L31.3252 52.01H34.9252V62H31.4152V55.952ZM37.8447 62V52.01H41.3547V59.336H44.4507V52.01H47.9607V59.336H51.0567V52.01H54.5667V62H37.8447ZM65.9035 55.952L61.0795 62H57.4795V52.01H60.9895V58.058L65.8135 52.01H69.4135V62H65.9035V55.952ZM75.843 62H72.333V52.01H75.843V55.646H80.739V52.01H84.249V62H80.739V58.31H75.843V62ZM91.8849 60.002C93.9369 60.002 94.6389 58.706 94.6389 57.95V57.176C94.3329 57.302 93.4509 57.482 92.4429 57.644C90.7509 57.932 90.2109 58.166 90.2109 58.868V58.904C90.2109 59.534 90.6609 60.002 91.8849 60.002ZM94.7469 60.614C94.3149 61.136 93.2349 62.198 90.8949 62.198H90.6069C87.8169 62.198 86.6649 60.686 86.6649 59.03V58.958C86.6649 57.23 87.7629 56.168 91.1469 55.88L93.8829 55.646C94.4409 55.592 94.6389 55.412 94.6389 54.998C94.6389 54.53 94.4949 54.026 92.5509 54.026C90.7149 54.026 90.5349 54.746 90.5349 55.124H86.9349V55.088C86.9349 54.098 87.3309 51.776 92.2449 51.776H92.8029C97.7529 51.776 98.0589 53.81 98.0589 55.142V58.436C98.0589 59.066 98.1849 59.318 98.8869 59.318H99.2649V62H96.4209C95.3769 62 94.8909 61.262 94.7469 60.614Z" fill="url(#paint0_linear_2018_1092)"/>
<path d="M1.656 0.608H13.914V3.524H5.31V5.702H13.644V8.726H5.31V11.048H14.022V14H1.656V0.608ZM24.9761 14V6.674H21.0161C21.0161 9.356 20.9261 10.85 20.5841 11.768C20.2061 12.776 19.7021 14 17.0561 14H15.9581V11.39H16.1741C16.8041 11.39 17.2721 11.174 17.4701 10.256C17.6141 9.482 17.6681 8.636 17.6681 4.01H28.4861V14H24.9761ZM37.2075 6.08C35.3895 6.08 34.7055 6.818 34.5255 7.862H39.8175C39.8175 7.124 39.4575 6.08 37.2075 6.08ZM39.8895 10.886H43.5435C43.5435 11.714 42.8955 14.234 37.7295 14.234H37.0635C32.1315 14.234 30.9075 11.534 30.9075 9.14V8.888C30.9075 6.638 32.0235 3.794 36.7575 3.794H37.5495C42.6615 3.794 43.5795 6.638 43.5795 9.428V9.752H34.4895C34.6335 10.904 35.3715 11.84 37.5135 11.84C39.5475 11.84 39.7995 11.048 39.8895 10.886ZM49.4934 14H45.9834V4.01H49.4934V7.646H54.3894V4.01H57.8994V14H54.3894V10.31H49.4934V14ZM65.5353 12.002C67.5873 12.002 68.2893 10.706 68.2893 9.95V9.176C67.9833 9.302 67.1013 9.482 66.0933 9.644C64.4013 9.932 63.8613 10.166 63.8613 10.868V10.904C63.8613 11.534 64.3113 12.002 65.5353 12.002ZM68.3973 12.614C67.9653 13.136 66.8853 14.198 64.5453 14.198H64.2573C61.4673 14.198 60.3153 12.686 60.3153 11.03V10.958C60.3153 9.23 61.4133 8.168 64.7973 7.88L67.5333 7.646C68.0913 7.592 68.2893 7.412 68.2893 6.998C68.2893 6.53 68.1453 6.026 66.2013 6.026C64.3653 6.026 64.1853 6.746 64.1853 7.124H60.5853V7.088C60.5853 6.098 60.9813 3.776 65.8953 3.776H66.4533C71.4033 3.776 71.7093 5.81 71.7093 7.142V10.436C71.7093 11.066 71.8353 11.318 72.5373 11.318H72.9153V14H70.0713C69.0273 14 68.5413 13.262 68.3973 12.614ZM10.998 32.762L8.568 27.308L6.21 32.762H10.998ZM13.338 38L12.24 35.516H5.004L3.924 38H0.198L6.138 24.608H11.106L17.316 38H13.338ZM28.1458 33.014V32.96C28.1458 31.88 27.6418 30.422 25.4458 30.422H25.2658C23.1598 30.422 22.4938 31.808 22.4938 32.96V33.014C22.4938 34.112 23.1598 35.552 25.2658 35.552H25.4458C27.6418 35.552 28.1458 34.04 28.1458 33.014ZM19.0018 41.438V28.01H22.4758V29.288C22.9078 28.82 24.2218 27.812 26.4898 27.812H26.7238C30.5398 27.812 31.7818 30.422 31.7818 32.798V33.104C31.7818 35.282 30.5038 38.198 26.7058 38.198H26.4538C24.1678 38.198 22.9438 37.154 22.5118 36.722V41.438H19.0018ZM41.6576 38L37.7696 33.374V38H34.2596V28.01H37.7696V32.006L41.3336 28.01H45.3836L41.2076 32.492L45.8336 38H41.6576ZM51.6486 36.002C53.7006 36.002 54.4026 34.706 54.4026 33.95V33.176C54.0966 33.302 53.2146 33.482 52.2066 33.644C50.5146 33.932 49.9746 34.166 49.9746 34.868V34.904C49.9746 35.534 50.4246 36.002 51.6486 36.002ZM54.5106 36.614C54.0786 37.136 52.9986 38.198 50.6586 38.198H50.3706C47.5806 38.198 46.4286 36.686 46.4286 35.03V34.958C46.4286 33.23 47.5266 32.168 50.9106 31.88L53.6466 31.646C54.2046 31.592 54.4026 31.412 54.4026 30.998C54.4026 30.53 54.2586 30.026 52.3146 30.026C50.4786 30.026 50.2986 30.746 50.2986 31.124H46.6986V31.088C46.6986 30.098 47.0946 27.776 52.0086 27.776H52.5666C57.5166 27.776 57.8226 29.81 57.8226 31.142V34.436C57.8226 35.066 57.9486 35.318 58.6506 35.318H59.0286V38H56.1846C55.1406 38 54.6546 37.262 54.5106 36.614ZM60.5538 40.124V35.336H61.7598C62.4438 33.968 62.5518 30.998 62.6418 28.01H73.2078V35.336H75.0078V40.124H71.6778V38H63.8838V40.124H60.5538ZM65.0718 35.336H69.6978V30.674H65.7918C65.7378 31.97 65.5578 33.95 65.0718 35.336ZM77.0967 38V28.01H80.6067V30.872H83.3427C86.7627 30.872 88.0947 32.384 88.0947 34.292V34.508C88.0947 36.596 86.7627 38 83.3427 38H77.0967ZM80.6067 35.624H82.9107C83.6307 35.624 84.4947 35.408 84.4947 34.436V34.382C84.4947 33.482 83.6307 33.248 82.9107 33.248H80.6067V35.624ZM96.1646 30.08C94.3466 30.08 93.6626 30.818 93.4826 31.862H98.7746C98.7746 31.124 98.4146 30.08 96.1646 30.08ZM98.8466 34.886H102.501C102.501 35.714 101.853 38.234 96.6866 38.234H96.0206C91.0886 38.234 89.8646 35.534 89.8646 33.14V32.888C89.8646 30.638 90.9806 27.794 95.7146 27.794H96.5066C101.619 27.794 102.537 30.638 102.537 33.428V33.752H93.4466C93.5906 34.904 94.3286 35.84 96.4706 35.84C98.5046 35.84 98.7566 35.048 98.8466 34.886ZM113.184 38H104.94V28.01H112.824C115.11 28.01 116.55 28.82 116.55 30.404V30.494C116.55 31.736 115.758 32.474 114.552 32.672C115.776 32.816 116.874 33.68 116.874 35.12V35.192C116.874 37.01 115.686 38 113.184 38ZM108.45 31.988H111.672C112.518 31.988 112.95 31.664 112.95 31.034V30.944C112.95 30.368 112.554 30.026 111.672 30.026H108.45V31.988ZM108.45 35.984H111.816C112.752 35.984 113.274 35.678 113.274 34.976V34.832C113.274 34.202 112.842 33.806 111.816 33.806H108.45V35.984ZM122.829 38H119.319V28.01H122.829V31.646H127.725V28.01H131.235V38H127.725V34.31H122.829V38ZM138.871 36.002C140.923 36.002 141.625 34.706 141.625 33.95V33.176C141.319 33.302 140.437 33.482 139.429 33.644C137.737 33.932 137.197 34.166 137.197 34.868V34.904C137.197 35.534 137.647 36.002 138.871 36.002ZM141.733 36.614C141.301 37.136 140.221 38.198 137.881 38.198H137.593C134.803 38.198 133.651 36.686 133.651 35.03V34.958C133.651 33.23 134.749 32.168 138.133 31.88L140.869 31.646C141.427 31.592 141.625 31.412 141.625 30.998C141.625 30.53 141.481 30.026 139.537 30.026C137.701 30.026 137.521 30.746 137.521 31.124H133.921V31.088C133.921 30.098 134.317 27.776 139.231 27.776H139.789C144.739 27.776 145.045 29.81 145.045 31.142V34.436C145.045 35.066 145.171 35.318 145.873 35.318H146.251V38H143.407C142.363 38 141.877 37.262 141.733 36.614ZM1.656 62V48.608H6.588L10.854 57.68L15.246 48.608H19.872V62H16.254V53.234L12.186 62H9.288L5.22 53.234V62H1.656ZM31.4152 55.952L26.5912 62H22.9912V52.01H26.5012V58.058L31.3252 52.01H34.9252V62H31.4152V55.952ZM37.8447 62V52.01H41.3547V59.336H44.4507V52.01H47.9607V59.336H51.0567V52.01H54.5667V62H37.8447ZM65.9035 55.952L61.0795 62H57.4795V52.01H60.9895V58.058L65.8135 52.01H69.4135V62H65.9035V55.952ZM75.843 62H72.333V52.01H75.843V55.646H80.739V52.01H84.249V62H80.739V58.31H75.843V62ZM91.8849 60.002C93.9369 60.002 94.6389 58.706 94.6389 57.95V57.176C94.3329 57.302 93.4509 57.482 92.4429 57.644C90.7509 57.932 90.2109 58.166 90.2109 58.868V58.904C90.2109 59.534 90.6609 60.002 91.8849 60.002ZM94.7469 60.614C94.3149 61.136 93.2349 62.198 90.8949 62.198H90.6069C87.8169 62.198 86.6649 60.686 86.6649 59.03V58.958C86.6649 57.23 87.7629 56.168 91.1469 55.88L93.8829 55.646C94.4409 55.592 94.6389 55.412 94.6389 54.998C94.6389 54.53 94.4949 54.026 92.5509 54.026C90.7149 54.026 90.5349 54.746 90.5349 55.124H86.9349V55.088C86.9349 54.098 87.3309 51.776 92.2449 51.776H92.8029C97.7529 51.776 98.0589 53.81 98.0589 55.142V58.436C98.0589 59.066 98.1849 59.318 98.8869 59.318H99.2649V62H96.4209C95.3769 62 94.8909 61.262 94.7469 60.614Z" fill="url(#paint1_radial_2018_1092)" style="mix-blend-mode:overlay"/>
<path d="M1.656 0.608H13.914V3.524H5.31V5.702H13.644V8.726H5.31V11.048H14.022V14H1.656V0.608ZM24.9761 14V6.674H21.0161C21.0161 9.356 20.9261 10.85 20.5841 11.768C20.2061 12.776 19.7021 14 17.0561 14H15.9581V11.39H16.1741C16.8041 11.39 17.2721 11.174 17.4701 10.256C17.6141 9.482 17.6681 8.636 17.6681 4.01H28.4861V14H24.9761ZM37.2075 6.08C35.3895 6.08 34.7055 6.818 34.5255 7.862H39.8175C39.8175 7.124 39.4575 6.08 37.2075 6.08ZM39.8895 10.886H43.5435C43.5435 11.714 42.8955 14.234 37.7295 14.234H37.0635C32.1315 14.234 30.9075 11.534 30.9075 9.14V8.888C30.9075 6.638 32.0235 3.794 36.7575 3.794H37.5495C42.6615 3.794 43.5795 6.638 43.5795 9.428V9.752H34.4895C34.6335 10.904 35.3715 11.84 37.5135 11.84C39.5475 11.84 39.7995 11.048 39.8895 10.886ZM49.4934 14H45.9834V4.01H49.4934V7.646H54.3894V4.01H57.8994V14H54.3894V10.31H49.4934V14ZM65.5353 12.002C67.5873 12.002 68.2893 10.706 68.2893 9.95V9.176C67.9833 9.302 67.1013 9.482 66.0933 9.644C64.4013 9.932 63.8613 10.166 63.8613 10.868V10.904C63.8613 11.534 64.3113 12.002 65.5353 12.002ZM68.3973 12.614C67.9653 13.136 66.8853 14.198 64.5453 14.198H64.2573C61.4673 14.198 60.3153 12.686 60.3153 11.03V10.958C60.3153 9.23 61.4133 8.168 64.7973 7.88L67.5333 7.646C68.0913 7.592 68.2893 7.412 68.2893 6.998C68.2893 6.53 68.1453 6.026 66.2013 6.026C64.3653 6.026 64.1853 6.746 64.1853 7.124H60.5853V7.088C60.5853 6.098 60.9813 3.776 65.8953 3.776H66.4533C71.4033 3.776 71.7093 5.81 71.7093 7.142V10.436C71.7093 11.066 71.8353 11.318 72.5373 11.318H72.9153V14H70.0713C69.0273 14 68.5413 13.262 68.3973 12.614ZM10.998 32.762L8.568 27.308L6.21 32.762H10.998ZM13.338 38L12.24 35.516H5.004L3.924 38H0.198L6.138 24.608H11.106L17.316 38H13.338ZM28.1458 33.014V32.96C28.1458 31.88 27.6418 30.422 25.4458 30.422H25.2658C23.1598 30.422 22.4938 31.808 22.4938 32.96V33.014C22.4938 34.112 23.1598 35.552 25.2658 35.552H25.4458C27.6418 35.552 28.1458 34.04 28.1458 33.014ZM19.0018 41.438V28.01H22.4758V29.288C22.9078 28.82 24.2218 27.812 26.4898 27.812H26.7238C30.5398 27.812 31.7818 30.422 31.7818 32.798V33.104C31.7818 35.282 30.5038 38.198 26.7058 38.198H26.4538C24.1678 38.198 22.9438 37.154 22.5118 36.722V41.438H19.0018ZM41.6576 38L37.7696 33.374V38H34.2596V28.01H37.7696V32.006L41.3336 28.01H45.3836L41.2076 32.492L45.8336 38H41.6576ZM51.6486 36.002C53.7006 36.002 54.4026 34.706 54.4026 33.95V33.176C54.0966 33.302 53.2146 33.482 52.2066 33.644C50.5146 33.932 49.9746 34.166 49.9746 34.868V34.904C49.9746 35.534 50.4246 36.002 51.6486 36.002ZM54.5106 36.614C54.0786 37.136 52.9986 38.198 50.6586 38.198H50.3706C47.5806 38.198 46.4286 36.686 46.4286 35.03V34.958C46.4286 33.23 47.5266 32.168 50.9106 31.88L53.6466 31.646C54.2046 31.592 54.4026 31.412 54.4026 30.998C54.4026 30.53 54.2586 30.026 52.3146 30.026C50.4786 30.026 50.2986 30.746 50.2986 31.124H46.6986V31.088C46.6986 30.098 47.0946 27.776 52.0086 27.776H52.5666C57.5166 27.776 57.8226 29.81 57.8226 31.142V34.436C57.8226 35.066 57.9486 35.318 58.6506 35.318H59.0286V38H56.1846C55.1406 38 54.6546 37.262 54.5106 36.614ZM60.5538 40.124V35.336H61.7598C62.4438 33.968 62.5518 30.998 62.6418 28.01H73.2078V35.336H75.0078V40.124H71.6778V38H63.8838V40.124H60.5538ZM65.0718 35.336H69.6978V30.674H65.7918C65.7378 31.97 65.5578 33.95 65.0718 35.336ZM77.0967 38V28.01H80.6067V30.872H83.3427C86.7627 30.872 88.0947 32.384 88.0947 34.292V34.508C88.0947 36.596 86.7627 38 83.3427 38H77.0967ZM80.6067 35.624H82.9107C83.6307 35.624 84.4947 35.408 84.4947 34.436V34.382C84.4947 33.482 83.6307 33.248 82.9107 33.248H80.6067V35.624ZM96.1646 30.08C94.3466 30.08 93.6626 30.818 93.4826 31.862H98.7746C98.7746 31.124 98.4146 30.08 96.1646 30.08ZM98.8466 34.886H102.501C102.501 35.714 101.853 38.234 96.6866 38.234H96.0206C91.0886 38.234 89.8646 35.534 89.8646 33.14V32.888C89.8646 30.638 90.9806 27.794 95.7146 27.794H96.5066C101.619 27.794 102.537 30.638 102.537 33.428V33.752H93.4466C93.5906 34.904 94.3286 35.84 96.4706 35.84C98.5046 35.84 98.7566 35.048 98.8466 34.886ZM113.184 38H104.94V28.01H112.824C115.11 28.01 116.55 28.82 116.55 30.404V30.494C116.55 31.736 115.758 32.474 114.552 32.672C115.776 32.816 116.874 33.68 116.874 35.12V35.192C116.874 37.01 115.686 38 113.184 38ZM108.45 31.988H111.672C112.518 31.988 112.95 31.664 112.95 31.034V30.944C112.95 30.368 112.554 30.026 111.672 30.026H108.45V31.988ZM108.45 35.984H111.816C112.752 35.984 113.274 35.678 113.274 34.976V34.832C113.274 34.202 112.842 33.806 111.816 33.806H108.45V35.984ZM122.829 38H119.319V28.01H122.829V31.646H127.725V28.01H131.235V38H127.725V34.31H122.829V38ZM138.871 36.002C140.923 36.002 141.625 34.706 141.625 33.95V33.176C141.319 33.302 140.437 33.482 139.429 33.644C137.737 33.932 137.197 34.166 137.197 34.868V34.904C137.197 35.534 137.647 36.002 138.871 36.002ZM141.733 36.614C141.301 37.136 140.221 38.198 137.881 38.198H137.593C134.803 38.198 133.651 36.686 133.651 35.03V34.958C133.651 33.23 134.749 32.168 138.133 31.88L140.869 31.646C141.427 31.592 141.625 31.412 141.625 30.998C141.625 30.53 141.481 30.026 139.537 30.026C137.701 30.026 137.521 30.746 137.521 31.124H133.921V31.088C133.921 30.098 134.317 27.776 139.231 27.776H139.789C144.739 27.776 145.045 29.81 145.045 31.142V34.436C145.045 35.066 145.171 35.318 145.873 35.318H146.251V38H143.407C142.363 38 141.877 37.262 141.733 36.614ZM1.656 62V48.608H6.588L10.854 57.68L15.246 48.608H19.872V62H16.254V53.234L12.186 62H9.288L5.22 53.234V62H1.656ZM31.4152 55.952L26.5912 62H22.9912V52.01H26.5012V58.058L31.3252 52.01H34.9252V62H31.4152V55.952ZM37.8447 62V52.01H41.3547V59.336H44.4507V52.01H47.9607V59.336H51.0567V52.01H54.5667V62H37.8447ZM65.9035 55.952L61.0795 62H57.4795V52.01H60.9895V58.058L65.8135 52.01H69.4135V62H65.9035V55.952ZM75.843 62H72.333V52.01H75.843V55.646H80.739V52.01H84.249V62H80.739V58.31H75.843V62ZM91.8849 60.002C93.9369 60.002 94.6389 58.706 94.6389 57.95V57.176C94.3329 57.302 93.4509 57.482 92.4429 57.644C90.7509 57.932 90.2109 58.166 90.2109 58.868V58.904C90.2109 59.534 90.6609 60.002 91.8849 60.002ZM94.7469 60.614C94.3149 61.136 93.2349 62.198 90.8949 62.198H90.6069C87.8169 62.198 86.6649 60.686 86.6649 59.03V58.958C86.6649 57.23 87.7629 56.168 91.1469 55.88L93.8829 55.646C94.4409 55.592 94.6389 55.412 94.6389 54.998C94.6389 54.53 94.4949 54.026 92.5509 54.026C90.7149 54.026 90.5349 54.746 90.5349 55.124H86.9349V55.088C86.9349 54.098 87.3309 51.776 92.2449 51.776H92.8029C97.7529 51.776 98.0589 53.81 98.0589 55.142V58.436C98.0589 59.066 98.1849 59.318 98.8869 59.318H99.2649V62H96.4209C95.3769 62 94.8909 61.262 94.7469 60.614Z" fill="url(#paint2_radial_2018_1092)"/>
<path d="M1.656 0.608H13.914V3.524H5.31V5.702H13.644V8.726H5.31V11.048H14.022V14H1.656V0.608ZM24.9761 14V6.674H21.0161C21.0161 9.356 20.9261 10.85 20.5841 11.768C20.2061 12.776 19.7021 14 17.0561 14H15.9581V11.39H16.1741C16.8041 11.39 17.2721 11.174 17.4701 10.256C17.6141 9.482 17.6681 8.636 17.6681 4.01H28.4861V14H24.9761ZM37.2075 6.08C35.3895 6.08 34.7055 6.818 34.5255 7.862H39.8175C39.8175 7.124 39.4575 6.08 37.2075 6.08ZM39.8895 10.886H43.5435C43.5435 11.714 42.8955 14.234 37.7295 14.234H37.0635C32.1315 14.234 30.9075 11.534 30.9075 9.14V8.888C30.9075 6.638 32.0235 3.794 36.7575 3.794H37.5495C42.6615 3.794 43.5795 6.638 43.5795 9.428V9.752H34.4895C34.6335 10.904 35.3715 11.84 37.5135 11.84C39.5475 11.84 39.7995 11.048 39.8895 10.886ZM49.4934 14H45.9834V4.01H49.4934V7.646H54.3894V4.01H57.8994V14H54.3894V10.31H49.4934V14ZM65.5353 12.002C67.5873 12.002 68.2893 10.706 68.2893 9.95V9.176C67.9833 9.302 67.1013 9.482 66.0933 9.644C64.4013 9.932 63.8613 10.166 63.8613 10.868V10.904C63.8613 11.534 64.3113 12.002 65.5353 12.002ZM68.3973 12.614C67.9653 13.136 66.8853 14.198 64.5453 14.198H64.2573C61.4673 14.198 60.3153 12.686 60.3153 11.03V10.958C60.3153 9.23 61.4133 8.168 64.7973 7.88L67.5333 7.646C68.0913 7.592 68.2893 7.412 68.2893 6.998C68.2893 6.53 68.1453 6.026 66.2013 6.026C64.3653 6.026 64.1853 6.746 64.1853 7.124H60.5853V7.088C60.5853 6.098 60.9813 3.776 65.8953 3.776H66.4533C71.4033 3.776 71.7093 5.81 71.7093 7.142V10.436C71.7093 11.066 71.8353 11.318 72.5373 11.318H72.9153V14H70.0713C69.0273 14 68.5413 13.262 68.3973 12.614ZM10.998 32.762L8.568 27.308L6.21 32.762H10.998ZM13.338 38L12.24 35.516H5.004L3.924 38H0.198L6.138 24.608H11.106L17.316 38H13.338ZM28.1458 33.014V32.96C28.1458 31.88 27.6418 30.422 25.4458 30.422H25.2658C23.1598 30.422 22.4938 31.808 22.4938 32.96V33.014C22.4938 34.112 23.1598 35.552 25.2658 35.552H25.4458C27.6418 35.552 28.1458 34.04 28.1458 33.014ZM19.0018 41.438V28.01H22.4758V29.288C22.9078 28.82 24.2218 27.812 26.4898 27.812H26.7238C30.5398 27.812 31.7818 30.422 31.7818 32.798V33.104C31.7818 35.282 30.5038 38.198 26.7058 38.198H26.4538C24.1678 38.198 22.9438 37.154 22.5118 36.722V41.438H19.0018ZM41.6576 38L37.7696 33.374V38H34.2596V28.01H37.7696V32.006L41.3336 28.01H45.3836L41.2076 32.492L45.8336 38H41.6576ZM51.6486 36.002C53.7006 36.002 54.4026 34.706 54.4026 33.95V33.176C54.0966 33.302 53.2146 33.482 52.2066 33.644C50.5146 33.932 49.9746 34.166 49.9746 34.868V34.904C49.9746 35.534 50.4246 36.002 51.6486 36.002ZM54.5106 36.614C54.0786 37.136 52.9986 38.198 50.6586 38.198H50.3706C47.5806 38.198 46.4286 36.686 46.4286 35.03V34.958C46.4286 33.23 47.5266 32.168 50.9106 31.88L53.6466 31.646C54.2046 31.592 54.4026 31.412 54.4026 30.998C54.4026 30.53 54.2586 30.026 52.3146 30.026C50.4786 30.026 50.2986 30.746 50.2986 31.124H46.6986V31.088C46.6986 30.098 47.0946 27.776 52.0086 27.776H52.5666C57.5166 27.776 57.8226 29.81 57.8226 31.142V34.436C57.8226 35.066 57.9486 35.318 58.6506 35.318H59.0286V38H56.1846C55.1406 38 54.6546 37.262 54.5106 36.614ZM60.5538 40.124V35.336H61.7598C62.4438 33.968 62.5518 30.998 62.6418 28.01H73.2078V35.336H75.0078V40.124H71.6778V38H63.8838V40.124H60.5538ZM65.0718 35.336H69.6978V30.674H65.7918C65.7378 31.97 65.5578 33.95 65.0718 35.336ZM77.0967 38V28.01H80.6067V30.872H83.3427C86.7627 30.872 88.0947 32.384 88.0947 34.292V34.508C88.0947 36.596 86.7627 38 83.3427 38H77.0967ZM80.6067 35.624H82.9107C83.6307 35.624 84.4947 35.408 84.4947 34.436V34.382C84.4947 33.482 83.6307 33.248 82.9107 33.248H80.6067V35.624ZM96.1646 30.08C94.3466 30.08 93.6626 30.818 93.4826 31.862H98.7746C98.7746 31.124 98.4146 30.08 96.1646 30.08ZM98.8466 34.886H102.501C102.501 35.714 101.853 38.234 96.6866 38.234H96.0206C91.0886 38.234 89.8646 35.534 89.8646 33.14V32.888C89.8646 30.638 90.9806 27.794 95.7146 27.794H96.5066C101.619 27.794 102.537 30.638 102.537 33.428V33.752H93.4466C93.5906 34.904 94.3286 35.84 96.4706 35.84C98.5046 35.84 98.7566 35.048 98.8466 34.886ZM113.184 38H104.94V28.01H112.824C115.11 28.01 116.55 28.82 116.55 30.404V30.494C116.55 31.736 115.758 32.474 114.552 32.672C115.776 32.816 116.874 33.68 116.874 35.12V35.192C116.874 37.01 115.686 38 113.184 38ZM108.45 31.988H111.672C112.518 31.988 112.95 31.664 112.95 31.034V30.944C112.95 30.368 112.554 30.026 111.672 30.026H108.45V31.988ZM108.45 35.984H111.816C112.752 35.984 113.274 35.678 113.274 34.976V34.832C113.274 34.202 112.842 33.806 111.816 33.806H108.45V35.984ZM122.829 38H119.319V28.01H122.829V31.646H127.725V28.01H131.235V38H127.725V34.31H122.829V38ZM138.871 36.002C140.923 36.002 141.625 34.706 141.625 33.95V33.176C141.319 33.302 140.437 33.482 139.429 33.644C137.737 33.932 137.197 34.166 137.197 34.868V34.904C137.197 35.534 137.647 36.002 138.871 36.002ZM141.733 36.614C141.301 37.136 140.221 38.198 137.881 38.198H137.593C134.803 38.198 133.651 36.686 133.651 35.03V34.958C133.651 33.23 134.749 32.168 138.133 31.88L140.869 31.646C141.427 31.592 141.625 31.412 141.625 30.998C141.625 30.53 141.481 30.026 139.537 30.026C137.701 30.026 137.521 30.746 137.521 31.124H133.921V31.088C133.921 30.098 134.317 27.776 139.231 27.776H139.789C144.739 27.776 145.045 29.81 145.045 31.142V34.436C145.045 35.066 145.171 35.318 145.873 35.318H146.251V38H143.407C142.363 38 141.877 37.262 141.733 36.614ZM1.656 62V48.608H6.588L10.854 57.68L15.246 48.608H19.872V62H16.254V53.234L12.186 62H9.288L5.22 53.234V62H1.656ZM31.4152 55.952L26.5912 62H22.9912V52.01H26.5012V58.058L31.3252 52.01H34.9252V62H31.4152V55.952ZM37.8447 62V52.01H41.3547V59.336H44.4507V52.01H47.9607V59.336H51.0567V52.01H54.5667V62H37.8447ZM65.9035 55.952L61.0795 62H57.4795V52.01H60.9895V58.058L65.8135 52.01H69.4135V62H65.9035V55.952ZM75.843 62H72.333V52.01H75.843V55.646H80.739V52.01H84.249V62H80.739V58.31H75.843V62ZM91.8849 60.002C93.9369 60.002 94.6389 58.706 94.6389 57.95V57.176C94.3329 57.302 93.4509 57.482 92.4429 57.644C90.7509 57.932 90.2109 58.166 90.2109 58.868V58.904C90.2109 59.534 90.6609 60.002 91.8849 60.002ZM94.7469 60.614C94.3149 61.136 93.2349 62.198 90.8949 62.198H90.6069C87.8169 62.198 86.6649 60.686 86.6649 59.03V58.958C86.6649 57.23 87.7629 56.168 91.1469 55.88L93.8829 55.646C94.4409 55.592 94.6389 55.412 94.6389 54.998C94.6389 54.53 94.4949 54.026 92.5509 54.026C90.7149 54.026 90.5349 54.746 90.5349 55.124H86.9349V55.088C86.9349 54.098 87.3309 51.776 92.2449 51.776H92.8029C97.7529 51.776 98.0589 53.81 98.0589 55.142V58.436C98.0589 59.066 98.1849 59.318 98.8869 59.318H99.2649V62H96.4209C95.3769 62 94.8909 61.262 94.7469 60.614Z" fill="#C1A875" style="mix-blend-mode:color"/>
<defs>
<linearGradient id="paint0_linear_2018_1092" x1="8.27014e-07" y1="30" x2="222" y2="30" gradientUnits="userSpaceOnUse">
<stop stop-color="#576167"/>
<stop offset="0.191294" stop-color="#9EA1A2"/>
<stop offset="0.396166" stop-color="#848989"/>
<stop offset="0.62055" stop-color="#576167"/>
<stop offset="0.830299" stop-color="#757A7C"/>
<stop offset="1" stop-color="#576167"/>
</linearGradient>
<radialGradient id="paint1_radial_2018_1092" cx="0" cy="0" r="1" gradientUnits="userSpaceOnUse" gradientTransform="translate(118.226 2.39326) rotate(90) scale(53.4944 167.95)">
<stop stop-color="white"/>
<stop offset="1" stop-color="white" stop-opacity="0"/>
</radialGradient>
<radialGradient id="paint2_radial_2018_1092" cx="0" cy="0" r="1" gradientUnits="userSpaceOnUse" gradientTransform="translate(130.783 82.9888) rotate(-89.7344) scale(76.6525 240.162)">
<stop stop-color="white"/>
<stop offset="1" stop-color="white" stop-opacity="0"/>
</radialGradient>
</defs>
</svg>
