<svg width="145" height="63" viewBox="0 0 145 63" fill="none" xmlns="http://www.w3.org/2000/svg">
<path d="M8.63 14.198H7.802C1.682 14.198 0.0620001 10.274 0.0620001 7.538V6.998C0.0620001 4.208 1.682 0.409999 7.802 0.409999H8.63C14.246 0.409999 16.118 3.164 16.118 5.702V5.738H12.302C12.248 5.36 11.744 3.47 8.216 3.47C4.94 3.47 3.914 5.306 3.914 7.106V7.358C3.914 9.014 4.976 11.12 8.234 11.12C11.798 11.12 12.248 9.194 12.302 8.762H16.118V8.816C16.118 11.264 14.318 14.198 8.63 14.198ZM26.825 14H18.581V4.01H26.465C28.751 4.01 30.191 4.82 30.191 6.404V6.494C30.191 7.736 29.399 8.474 28.193 8.672C29.417 8.816 30.515 9.68 30.515 11.12V11.192C30.515 13.01 29.327 14 26.825 14ZM22.091 7.988H25.313C26.159 7.988 26.591 7.664 26.591 7.034V6.944C26.591 6.368 26.195 6.026 25.313 6.026H22.091V7.988ZM22.091 11.984H25.457C26.393 11.984 26.915 11.678 26.915 10.976V10.832C26.915 10.202 26.483 9.806 25.457 9.806H22.091V11.984ZM38.774 6.08C36.956 6.08 36.272 6.818 36.092 7.862H41.384C41.384 7.124 41.024 6.08 38.774 6.08ZM41.456 10.886H45.11C45.11 11.714 44.462 14.234 39.296 14.234H38.63C33.698 14.234 32.474 11.534 32.474 9.14V8.888C32.474 6.638 33.59 3.794 38.324 3.794H39.116C44.228 3.794 45.146 6.638 45.146 9.428V9.752H36.056C36.2 10.904 36.938 11.84 39.08 11.84C41.114 11.84 41.366 11.048 41.456 10.886ZM50.236 14V6.674H46.366V4.01H57.616V6.674H53.746V14H50.236ZM67.4468 14V6.674H63.4868C63.4868 9.356 63.3968 10.85 63.0548 11.768C62.6768 12.776 62.1728 14 59.5268 14H58.4288V11.39H58.6448C59.2748 11.39 59.7428 11.174 59.9408 10.256C60.0848 9.482 60.1388 8.636 60.1388 4.01H70.9568V14H67.4468ZM78.5803 12.002C80.6323 12.002 81.3343 10.706 81.3343 9.95V9.176C81.0283 9.302 80.1463 9.482 79.1383 9.644C77.4463 9.932 76.9062 10.166 76.9062 10.868V10.904C76.9062 11.534 77.3563 12.002 78.5803 12.002ZM81.4423 12.614C81.0103 13.136 79.9303 14.198 77.5903 14.198H77.3023C74.5123 14.198 73.3603 12.686 73.3603 11.03V10.958C73.3603 9.23 74.4583 8.168 77.8423 7.88L80.5783 7.646C81.1363 7.592 81.3343 7.412 81.3343 6.998C81.3343 6.53 81.1903 6.026 79.2463 6.026C77.4103 6.026 77.2303 6.746 77.2303 7.124H73.6303V7.088C73.6303 6.098 74.0263 3.776 78.9403 3.776H79.4983C84.4483 3.776 84.7543 5.81 84.7543 7.142V10.436C84.7543 11.066 84.8803 11.318 85.5823 11.318H85.9603V14H83.1163C82.0723 14 81.5863 13.262 81.4423 12.614ZM91.4719 14H87.9619V4.01H91.4719V7.646H96.3679V4.01H99.8779V14H96.3679V10.31H91.4719V14ZM107.514 12.002C109.566 12.002 110.268 10.706 110.268 9.95V9.176C109.962 9.302 109.08 9.482 108.072 9.644C106.38 9.932 105.84 10.166 105.84 10.868V10.904C105.84 11.534 106.29 12.002 107.514 12.002ZM110.376 12.614C109.944 13.136 108.864 14.198 106.524 14.198H106.236C103.446 14.198 102.294 12.686 102.294 11.03V10.958C102.294 9.23 103.392 8.168 106.776 7.88L109.512 7.646C110.07 7.592 110.268 7.412 110.268 6.998C110.268 6.53 110.124 6.026 108.18 6.026C106.344 6.026 106.164 6.746 106.164 7.124H102.564V7.088C102.564 6.098 102.96 3.776 107.874 3.776H108.432C113.382 3.776 113.688 5.81 113.688 7.142V10.436C113.688 11.066 113.814 11.318 114.516 11.318H114.894V14H112.05C111.006 14 110.52 13.262 110.376 12.614ZM0.656 38V24.608H10.43C14.264 24.608 15.218 26.282 15.218 27.776V27.974C15.218 29.666 13.76 30.476 12.752 30.62C14.264 30.872 15.884 31.772 15.884 33.932V34.13C15.884 35.948 14.786 38 10.484 38H0.656ZM9.89 27.398H4.364V29.792H9.89C11.024 29.792 11.348 29.252 11.348 28.622V28.586C11.348 27.938 10.988 27.398 9.89 27.398ZM10.178 32.42H4.364V35.066H10.178C11.474 35.066 11.852 34.382 11.852 33.716V33.644C11.852 32.978 11.474 32.42 10.178 32.42ZM26.7062 31.952L21.8822 38H18.2822V28.01H21.7922V34.058L26.6162 28.01H30.2162V38H26.7062V31.952ZM40.5697 38L36.6817 33.374V38H33.1717V28.01H36.6817V32.006L40.2457 28.01H44.2957L40.1197 32.492L44.7457 38H40.5697ZM49.0583 38V30.674H45.1883V28.01H56.4383V30.674H52.5683V38H49.0583ZM64.6068 38.27H64.0488C58.6668 38.27 57.8388 34.994 57.8388 33.176V32.924C57.8388 31.124 58.6668 27.74 64.0308 27.74H64.6248C70.1688 27.74 70.8168 31.142 70.8168 32.906V33.194C70.8168 34.994 70.1688 38.27 64.6068 38.27ZM64.2288 35.642H64.4268C66.6408 35.642 67.1988 34.058 67.1988 32.96C67.1988 31.826 66.6408 30.314 64.4268 30.314H64.2288C61.9248 30.314 61.4568 31.826 61.4568 32.96C61.4568 34.058 61.9248 35.642 64.2288 35.642ZM82.4114 33.014V32.96C82.4114 31.88 81.9074 30.422 79.7114 30.422H79.5314C77.4254 30.422 76.7594 31.808 76.7594 32.96V33.014C76.7594 34.112 77.4254 35.552 79.5314 35.552H79.7114C81.9074 35.552 82.4114 34.04 82.4114 33.014ZM73.2674 41.438V28.01H76.7414V29.288C77.1734 28.82 78.4874 27.812 80.7554 27.812H80.9894C84.8054 27.812 86.0474 30.422 86.0474 32.798V33.104C86.0474 35.282 84.7694 38.198 80.9714 38.198H80.7194C78.4334 38.198 77.2094 37.154 76.7774 36.722V41.438H73.2674ZM94.7533 38.27H94.1953C88.8133 38.27 87.9853 34.994 87.9853 33.176V32.924C87.9853 31.124 88.8133 27.74 94.1773 27.74H94.7713C100.315 27.74 100.963 31.142 100.963 32.906V33.194C100.963 34.994 100.315 38.27 94.7533 38.27ZM94.3753 35.642H94.5733C96.7873 35.642 97.3453 34.058 97.3453 32.96C97.3453 31.826 96.7873 30.314 94.5733 30.314H94.3753C92.0713 30.314 91.6033 31.826 91.6033 32.96C91.6033 34.058 92.0713 35.642 94.3753 35.642ZM111.622 38H103.378V28.01H111.262C113.548 28.01 114.988 28.82 114.988 30.404V30.494C114.988 31.736 114.196 32.474 112.99 32.672C114.214 32.816 115.312 33.68 115.312 35.12V35.192C115.312 37.01 114.124 38 111.622 38ZM106.888 31.988H110.11C110.956 31.988 111.388 31.664 111.388 31.034V30.944C111.388 30.368 110.992 30.026 110.11 30.026H106.888V31.988ZM106.888 35.984H110.254C111.19 35.984 111.712 35.678 111.712 34.976V34.832C111.712 34.202 111.28 33.806 110.254 33.806H106.888V35.984ZM121.267 38H117.757V28.01H121.267V31.646H126.163V28.01H129.673V38H126.163V34.31H121.267V38ZM137.309 36.002C139.361 36.002 140.063 34.706 140.063 33.95V33.176C139.757 33.302 138.875 33.482 137.867 33.644C136.175 33.932 135.635 34.166 135.635 34.868V34.904C135.635 35.534 136.085 36.002 137.309 36.002ZM140.171 36.614C139.739 37.136 138.659 38.198 136.319 38.198H136.031C133.241 38.198 132.089 36.686 132.089 35.03V34.958C132.089 33.23 133.187 32.168 136.571 31.88L139.307 31.646C139.865 31.592 140.063 31.412 140.063 30.998C140.063 30.53 139.919 30.026 137.975 30.026C136.139 30.026 135.959 30.746 135.959 31.124H132.359V31.088C132.359 30.098 132.755 27.776 137.669 27.776H138.227C143.177 27.776 143.483 29.81 143.483 31.142V34.436C143.483 35.066 143.609 35.318 144.311 35.318H144.689V38H141.845C140.801 38 140.315 37.262 140.171 36.614ZM10.808 62L4.364 55.7V62H0.656V48.608H4.364V54.116L10.628 48.608H15.344L8.288 54.746L15.65 62H10.808ZM21.3283 60.002C23.3803 60.002 24.0823 58.706 24.0823 57.95V57.176C23.7763 57.302 22.8943 57.482 21.8863 57.644C20.1943 57.932 19.6543 58.166 19.6543 58.868V58.904C19.6543 59.534 20.1043 60.002 21.3283 60.002ZM24.1903 60.614C23.7583 61.136 22.6783 62.198 20.3383 62.198H20.0503C17.2603 62.198 16.1083 60.686 16.1083 59.03V58.958C16.1083 57.23 17.2063 56.168 20.5903 55.88L23.3263 55.646C23.8843 55.592 24.0823 55.412 24.0823 54.998C24.0823 54.53 23.9383 54.026 21.9943 54.026C20.1583 54.026 19.9783 54.746 19.9783 55.124H16.3783V55.088C16.3783 54.098 16.7743 51.776 21.6883 51.776H22.2463C27.1963 51.776 27.5023 53.81 27.5023 55.142V58.436C27.5023 59.066 27.6283 59.318 28.3303 59.318H28.7083V62H25.8643C24.8203 62 24.3343 61.262 24.1903 60.614ZM41.924 59.048V59.156C41.924 61.154 40.25 62.27 36.416 62.27H36.092C31.988 62.27 30.206 60.74 30.206 58.67V58.526H33.968C34.022 59.642 35.048 60.056 36.272 60.056C37.586 60.056 38.306 59.66 38.306 58.868V58.814C38.306 58.076 37.73 57.896 36.722 57.896H34.346V55.754H36.722C37.496 55.754 37.982 55.448 37.982 54.872V54.818C37.982 54.224 37.388 53.918 36.182 53.918C34.832 53.918 34.112 54.242 34.058 54.944H30.296V54.89C30.296 52.748 32.798 51.74 36.056 51.74H36.344C39.71 51.74 41.6 52.55 41.6 54.422V54.494C41.6 56.006 40.448 56.582 39.62 56.78C40.628 56.978 41.924 57.464 41.924 59.048ZM48.9963 60.002C51.0483 60.002 51.7503 58.706 51.7503 57.95V57.176C51.4443 57.302 50.5623 57.482 49.5543 57.644C47.8623 57.932 47.3223 58.166 47.3223 58.868V58.904C47.3223 59.534 47.7723 60.002 48.9963 60.002ZM51.8583 60.614C51.4263 61.136 50.3463 62.198 48.0063 62.198H47.7183C44.9283 62.198 43.7763 60.686 43.7763 59.03V58.958C43.7763 57.23 44.8743 56.168 48.2583 55.88L50.9943 55.646C51.5523 55.592 51.7503 55.412 51.7503 54.998C51.7503 54.53 51.6063 54.026 49.6623 54.026C47.8263 54.026 47.6463 54.746 47.6463 55.124H44.0463V55.088C44.0463 54.098 44.4423 51.776 49.3563 51.776H49.9143C54.8643 51.776 55.1703 53.81 55.1703 55.142V58.436C55.1703 59.066 55.2963 59.318 55.9983 59.318H56.3763V62H53.5323C52.4883 62 52.0023 61.262 51.8583 60.614ZM65.8119 62L61.9239 57.374V62H58.4139V52.01H61.9239V56.006L65.4879 52.01H69.5379L65.3619 56.492L69.9879 62H65.8119ZM77.2454 62.27H76.6874C71.3054 62.27 70.4774 58.994 70.4774 57.176V56.924C70.4774 55.124 71.3054 51.74 76.6694 51.74H77.2634C82.8074 51.74 83.4554 55.142 83.4554 56.906V57.194C83.4554 58.994 82.8074 62.27 77.2454 62.27ZM76.8674 59.642H77.0654C79.2794 59.642 79.8374 58.058 79.8374 56.96C79.8374 55.826 79.2794 54.314 77.0654 54.314H76.8674C74.5634 54.314 74.0954 55.826 74.0954 56.96C74.0954 58.058 74.5634 59.642 76.8674 59.642ZM94.1141 62H85.8701V52.01H93.7541C96.0401 52.01 97.4801 52.82 97.4801 54.404V54.494C97.4801 55.736 96.6881 56.474 95.4821 56.672C96.7061 56.816 97.8041 57.68 97.8041 59.12V59.192C97.8041 61.01 96.6161 62 94.1141 62ZM89.3801 55.988H92.6021C93.4481 55.988 93.8801 55.664 93.8801 55.034V54.944C93.8801 54.368 93.4841 54.026 92.6021 54.026H89.3801V55.988ZM89.3801 59.984H92.7461C93.6821 59.984 94.2041 59.678 94.2041 58.976V58.832C94.2041 58.202 93.7721 57.806 92.7461 57.806H89.3801V59.984ZM104.877 60.002C106.929 60.002 107.631 58.706 107.631 57.95V57.176C107.325 57.302 106.443 57.482 105.435 57.644C103.743 57.932 103.203 58.166 103.203 58.868V58.904C103.203 59.534 103.653 60.002 104.877 60.002ZM107.739 60.614C107.307 61.136 106.227 62.198 103.887 62.198H103.599C100.809 62.198 99.6571 60.686 99.6571 59.03V58.958C99.6571 57.23 100.755 56.168 104.139 55.88L106.875 55.646C107.433 55.592 107.631 55.412 107.631 54.998C107.631 54.53 107.487 54.026 105.543 54.026C103.707 54.026 103.527 54.746 103.527 55.124H99.9271V55.088C99.9271 54.098 100.323 51.776 105.237 51.776H105.795C110.745 51.776 111.051 53.81 111.051 55.142V58.436C111.051 59.066 111.177 59.318 111.879 59.318H112.257V62H109.413C108.369 62 107.883 61.262 107.739 60.614Z" fill="url(#paint0_linear_2018_1111)"/>
<path d="M8.63 14.198H7.802C1.682 14.198 0.0620001 10.274 0.0620001 7.538V6.998C0.0620001 4.208 1.682 0.409999 7.802 0.409999H8.63C14.246 0.409999 16.118 3.164 16.118 5.702V5.738H12.302C12.248 5.36 11.744 3.47 8.216 3.47C4.94 3.47 3.914 5.306 3.914 7.106V7.358C3.914 9.014 4.976 11.12 8.234 11.12C11.798 11.12 12.248 9.194 12.302 8.762H16.118V8.816C16.118 11.264 14.318 14.198 8.63 14.198ZM26.825 14H18.581V4.01H26.465C28.751 4.01 30.191 4.82 30.191 6.404V6.494C30.191 7.736 29.399 8.474 28.193 8.672C29.417 8.816 30.515 9.68 30.515 11.12V11.192C30.515 13.01 29.327 14 26.825 14ZM22.091 7.988H25.313C26.159 7.988 26.591 7.664 26.591 7.034V6.944C26.591 6.368 26.195 6.026 25.313 6.026H22.091V7.988ZM22.091 11.984H25.457C26.393 11.984 26.915 11.678 26.915 10.976V10.832C26.915 10.202 26.483 9.806 25.457 9.806H22.091V11.984ZM38.774 6.08C36.956 6.08 36.272 6.818 36.092 7.862H41.384C41.384 7.124 41.024 6.08 38.774 6.08ZM41.456 10.886H45.11C45.11 11.714 44.462 14.234 39.296 14.234H38.63C33.698 14.234 32.474 11.534 32.474 9.14V8.888C32.474 6.638 33.59 3.794 38.324 3.794H39.116C44.228 3.794 45.146 6.638 45.146 9.428V9.752H36.056C36.2 10.904 36.938 11.84 39.08 11.84C41.114 11.84 41.366 11.048 41.456 10.886ZM50.236 14V6.674H46.366V4.01H57.616V6.674H53.746V14H50.236ZM67.4468 14V6.674H63.4868C63.4868 9.356 63.3968 10.85 63.0548 11.768C62.6768 12.776 62.1728 14 59.5268 14H58.4288V11.39H58.6448C59.2748 11.39 59.7428 11.174 59.9408 10.256C60.0848 9.482 60.1388 8.636 60.1388 4.01H70.9568V14H67.4468ZM78.5803 12.002C80.6323 12.002 81.3343 10.706 81.3343 9.95V9.176C81.0283 9.302 80.1463 9.482 79.1383 9.644C77.4463 9.932 76.9062 10.166 76.9062 10.868V10.904C76.9062 11.534 77.3563 12.002 78.5803 12.002ZM81.4423 12.614C81.0103 13.136 79.9303 14.198 77.5903 14.198H77.3023C74.5123 14.198 73.3603 12.686 73.3603 11.03V10.958C73.3603 9.23 74.4583 8.168 77.8423 7.88L80.5783 7.646C81.1363 7.592 81.3343 7.412 81.3343 6.998C81.3343 6.53 81.1903 6.026 79.2463 6.026C77.4103 6.026 77.2303 6.746 77.2303 7.124H73.6303V7.088C73.6303 6.098 74.0263 3.776 78.9403 3.776H79.4983C84.4483 3.776 84.7543 5.81 84.7543 7.142V10.436C84.7543 11.066 84.8803 11.318 85.5823 11.318H85.9603V14H83.1163C82.0723 14 81.5863 13.262 81.4423 12.614ZM91.4719 14H87.9619V4.01H91.4719V7.646H96.3679V4.01H99.8779V14H96.3679V10.31H91.4719V14ZM107.514 12.002C109.566 12.002 110.268 10.706 110.268 9.95V9.176C109.962 9.302 109.08 9.482 108.072 9.644C106.38 9.932 105.84 10.166 105.84 10.868V10.904C105.84 11.534 106.29 12.002 107.514 12.002ZM110.376 12.614C109.944 13.136 108.864 14.198 106.524 14.198H106.236C103.446 14.198 102.294 12.686 102.294 11.03V10.958C102.294 9.23 103.392 8.168 106.776 7.88L109.512 7.646C110.07 7.592 110.268 7.412 110.268 6.998C110.268 6.53 110.124 6.026 108.18 6.026C106.344 6.026 106.164 6.746 106.164 7.124H102.564V7.088C102.564 6.098 102.96 3.776 107.874 3.776H108.432C113.382 3.776 113.688 5.81 113.688 7.142V10.436C113.688 11.066 113.814 11.318 114.516 11.318H114.894V14H112.05C111.006 14 110.52 13.262 110.376 12.614ZM0.656 38V24.608H10.43C14.264 24.608 15.218 26.282 15.218 27.776V27.974C15.218 29.666 13.76 30.476 12.752 30.62C14.264 30.872 15.884 31.772 15.884 33.932V34.13C15.884 35.948 14.786 38 10.484 38H0.656ZM9.89 27.398H4.364V29.792H9.89C11.024 29.792 11.348 29.252 11.348 28.622V28.586C11.348 27.938 10.988 27.398 9.89 27.398ZM10.178 32.42H4.364V35.066H10.178C11.474 35.066 11.852 34.382 11.852 33.716V33.644C11.852 32.978 11.474 32.42 10.178 32.42ZM26.7062 31.952L21.8822 38H18.2822V28.01H21.7922V34.058L26.6162 28.01H30.2162V38H26.7062V31.952ZM40.5697 38L36.6817 33.374V38H33.1717V28.01H36.6817V32.006L40.2457 28.01H44.2957L40.1197 32.492L44.7457 38H40.5697ZM49.0583 38V30.674H45.1883V28.01H56.4383V30.674H52.5683V38H49.0583ZM64.6068 38.27H64.0488C58.6668 38.27 57.8388 34.994 57.8388 33.176V32.924C57.8388 31.124 58.6668 27.74 64.0308 27.74H64.6248C70.1688 27.74 70.8168 31.142 70.8168 32.906V33.194C70.8168 34.994 70.1688 38.27 64.6068 38.27ZM64.2288 35.642H64.4268C66.6408 35.642 67.1988 34.058 67.1988 32.96C67.1988 31.826 66.6408 30.314 64.4268 30.314H64.2288C61.9248 30.314 61.4568 31.826 61.4568 32.96C61.4568 34.058 61.9248 35.642 64.2288 35.642ZM82.4114 33.014V32.96C82.4114 31.88 81.9074 30.422 79.7114 30.422H79.5314C77.4254 30.422 76.7594 31.808 76.7594 32.96V33.014C76.7594 34.112 77.4254 35.552 79.5314 35.552H79.7114C81.9074 35.552 82.4114 34.04 82.4114 33.014ZM73.2674 41.438V28.01H76.7414V29.288C77.1734 28.82 78.4874 27.812 80.7554 27.812H80.9894C84.8054 27.812 86.0474 30.422 86.0474 32.798V33.104C86.0474 35.282 84.7694 38.198 80.9714 38.198H80.7194C78.4334 38.198 77.2094 37.154 76.7774 36.722V41.438H73.2674ZM94.7533 38.27H94.1953C88.8133 38.27 87.9853 34.994 87.9853 33.176V32.924C87.9853 31.124 88.8133 27.74 94.1773 27.74H94.7713C100.315 27.74 100.963 31.142 100.963 32.906V33.194C100.963 34.994 100.315 38.27 94.7533 38.27ZM94.3753 35.642H94.5733C96.7873 35.642 97.3453 34.058 97.3453 32.96C97.3453 31.826 96.7873 30.314 94.5733 30.314H94.3753C92.0713 30.314 91.6033 31.826 91.6033 32.96C91.6033 34.058 92.0713 35.642 94.3753 35.642ZM111.622 38H103.378V28.01H111.262C113.548 28.01 114.988 28.82 114.988 30.404V30.494C114.988 31.736 114.196 32.474 112.99 32.672C114.214 32.816 115.312 33.68 115.312 35.12V35.192C115.312 37.01 114.124 38 111.622 38ZM106.888 31.988H110.11C110.956 31.988 111.388 31.664 111.388 31.034V30.944C111.388 30.368 110.992 30.026 110.11 30.026H106.888V31.988ZM106.888 35.984H110.254C111.19 35.984 111.712 35.678 111.712 34.976V34.832C111.712 34.202 111.28 33.806 110.254 33.806H106.888V35.984ZM121.267 38H117.757V28.01H121.267V31.646H126.163V28.01H129.673V38H126.163V34.31H121.267V38ZM137.309 36.002C139.361 36.002 140.063 34.706 140.063 33.95V33.176C139.757 33.302 138.875 33.482 137.867 33.644C136.175 33.932 135.635 34.166 135.635 34.868V34.904C135.635 35.534 136.085 36.002 137.309 36.002ZM140.171 36.614C139.739 37.136 138.659 38.198 136.319 38.198H136.031C133.241 38.198 132.089 36.686 132.089 35.03V34.958C132.089 33.23 133.187 32.168 136.571 31.88L139.307 31.646C139.865 31.592 140.063 31.412 140.063 30.998C140.063 30.53 139.919 30.026 137.975 30.026C136.139 30.026 135.959 30.746 135.959 31.124H132.359V31.088C132.359 30.098 132.755 27.776 137.669 27.776H138.227C143.177 27.776 143.483 29.81 143.483 31.142V34.436C143.483 35.066 143.609 35.318 144.311 35.318H144.689V38H141.845C140.801 38 140.315 37.262 140.171 36.614ZM10.808 62L4.364 55.7V62H0.656V48.608H4.364V54.116L10.628 48.608H15.344L8.288 54.746L15.65 62H10.808ZM21.3283 60.002C23.3803 60.002 24.0823 58.706 24.0823 57.95V57.176C23.7763 57.302 22.8943 57.482 21.8863 57.644C20.1943 57.932 19.6543 58.166 19.6543 58.868V58.904C19.6543 59.534 20.1043 60.002 21.3283 60.002ZM24.1903 60.614C23.7583 61.136 22.6783 62.198 20.3383 62.198H20.0503C17.2603 62.198 16.1083 60.686 16.1083 59.03V58.958C16.1083 57.23 17.2063 56.168 20.5903 55.88L23.3263 55.646C23.8843 55.592 24.0823 55.412 24.0823 54.998C24.0823 54.53 23.9383 54.026 21.9943 54.026C20.1583 54.026 19.9783 54.746 19.9783 55.124H16.3783V55.088C16.3783 54.098 16.7743 51.776 21.6883 51.776H22.2463C27.1963 51.776 27.5023 53.81 27.5023 55.142V58.436C27.5023 59.066 27.6283 59.318 28.3303 59.318H28.7083V62H25.8643C24.8203 62 24.3343 61.262 24.1903 60.614ZM41.924 59.048V59.156C41.924 61.154 40.25 62.27 36.416 62.27H36.092C31.988 62.27 30.206 60.74 30.206 58.67V58.526H33.968C34.022 59.642 35.048 60.056 36.272 60.056C37.586 60.056 38.306 59.66 38.306 58.868V58.814C38.306 58.076 37.73 57.896 36.722 57.896H34.346V55.754H36.722C37.496 55.754 37.982 55.448 37.982 54.872V54.818C37.982 54.224 37.388 53.918 36.182 53.918C34.832 53.918 34.112 54.242 34.058 54.944H30.296V54.89C30.296 52.748 32.798 51.74 36.056 51.74H36.344C39.71 51.74 41.6 52.55 41.6 54.422V54.494C41.6 56.006 40.448 56.582 39.62 56.78C40.628 56.978 41.924 57.464 41.924 59.048ZM48.9963 60.002C51.0483 60.002 51.7503 58.706 51.7503 57.95V57.176C51.4443 57.302 50.5623 57.482 49.5543 57.644C47.8623 57.932 47.3223 58.166 47.3223 58.868V58.904C47.3223 59.534 47.7723 60.002 48.9963 60.002ZM51.8583 60.614C51.4263 61.136 50.3463 62.198 48.0063 62.198H47.7183C44.9283 62.198 43.7763 60.686 43.7763 59.03V58.958C43.7763 57.23 44.8743 56.168 48.2583 55.88L50.9943 55.646C51.5523 55.592 51.7503 55.412 51.7503 54.998C51.7503 54.53 51.6063 54.026 49.6623 54.026C47.8263 54.026 47.6463 54.746 47.6463 55.124H44.0463V55.088C44.0463 54.098 44.4423 51.776 49.3563 51.776H49.9143C54.8643 51.776 55.1703 53.81 55.1703 55.142V58.436C55.1703 59.066 55.2963 59.318 55.9983 59.318H56.3763V62H53.5323C52.4883 62 52.0023 61.262 51.8583 60.614ZM65.8119 62L61.9239 57.374V62H58.4139V52.01H61.9239V56.006L65.4879 52.01H69.5379L65.3619 56.492L69.9879 62H65.8119ZM77.2454 62.27H76.6874C71.3054 62.27 70.4774 58.994 70.4774 57.176V56.924C70.4774 55.124 71.3054 51.74 76.6694 51.74H77.2634C82.8074 51.74 83.4554 55.142 83.4554 56.906V57.194C83.4554 58.994 82.8074 62.27 77.2454 62.27ZM76.8674 59.642H77.0654C79.2794 59.642 79.8374 58.058 79.8374 56.96C79.8374 55.826 79.2794 54.314 77.0654 54.314H76.8674C74.5634 54.314 74.0954 55.826 74.0954 56.96C74.0954 58.058 74.5634 59.642 76.8674 59.642ZM94.1141 62H85.8701V52.01H93.7541C96.0401 52.01 97.4801 52.82 97.4801 54.404V54.494C97.4801 55.736 96.6881 56.474 95.4821 56.672C96.7061 56.816 97.8041 57.68 97.8041 59.12V59.192C97.8041 61.01 96.6161 62 94.1141 62ZM89.3801 55.988H92.6021C93.4481 55.988 93.8801 55.664 93.8801 55.034V54.944C93.8801 54.368 93.4841 54.026 92.6021 54.026H89.3801V55.988ZM89.3801 59.984H92.7461C93.6821 59.984 94.2041 59.678 94.2041 58.976V58.832C94.2041 58.202 93.7721 57.806 92.7461 57.806H89.3801V59.984ZM104.877 60.002C106.929 60.002 107.631 58.706 107.631 57.95V57.176C107.325 57.302 106.443 57.482 105.435 57.644C103.743 57.932 103.203 58.166 103.203 58.868V58.904C103.203 59.534 103.653 60.002 104.877 60.002ZM107.739 60.614C107.307 61.136 106.227 62.198 103.887 62.198H103.599C100.809 62.198 99.6571 60.686 99.6571 59.03V58.958C99.6571 57.23 100.755 56.168 104.139 55.88L106.875 55.646C107.433 55.592 107.631 55.412 107.631 54.998C107.631 54.53 107.487 54.026 105.543 54.026C103.707 54.026 103.527 54.746 103.527 55.124H99.9271V55.088C99.9271 54.098 100.323 51.776 105.237 51.776H105.795C110.745 51.776 111.051 53.81 111.051 55.142V58.436C111.051 59.066 111.177 59.318 111.879 59.318H112.257V62H109.413C108.369 62 107.883 61.262 107.739 60.614Z" fill="url(#paint1_radial_2018_1111)" style="mix-blend-mode:overlay"/>
<path d="M8.63 14.198H7.802C1.682 14.198 0.0620001 10.274 0.0620001 7.538V6.998C0.0620001 4.208 1.682 0.409999 7.802 0.409999H8.63C14.246 0.409999 16.118 3.164 16.118 5.702V5.738H12.302C12.248 5.36 11.744 3.47 8.216 3.47C4.94 3.47 3.914 5.306 3.914 7.106V7.358C3.914 9.014 4.976 11.12 8.234 11.12C11.798 11.12 12.248 9.194 12.302 8.762H16.118V8.816C16.118 11.264 14.318 14.198 8.63 14.198ZM26.825 14H18.581V4.01H26.465C28.751 4.01 30.191 4.82 30.191 6.404V6.494C30.191 7.736 29.399 8.474 28.193 8.672C29.417 8.816 30.515 9.68 30.515 11.12V11.192C30.515 13.01 29.327 14 26.825 14ZM22.091 7.988H25.313C26.159 7.988 26.591 7.664 26.591 7.034V6.944C26.591 6.368 26.195 6.026 25.313 6.026H22.091V7.988ZM22.091 11.984H25.457C26.393 11.984 26.915 11.678 26.915 10.976V10.832C26.915 10.202 26.483 9.806 25.457 9.806H22.091V11.984ZM38.774 6.08C36.956 6.08 36.272 6.818 36.092 7.862H41.384C41.384 7.124 41.024 6.08 38.774 6.08ZM41.456 10.886H45.11C45.11 11.714 44.462 14.234 39.296 14.234H38.63C33.698 14.234 32.474 11.534 32.474 9.14V8.888C32.474 6.638 33.59 3.794 38.324 3.794H39.116C44.228 3.794 45.146 6.638 45.146 9.428V9.752H36.056C36.2 10.904 36.938 11.84 39.08 11.84C41.114 11.84 41.366 11.048 41.456 10.886ZM50.236 14V6.674H46.366V4.01H57.616V6.674H53.746V14H50.236ZM67.4468 14V6.674H63.4868C63.4868 9.356 63.3968 10.85 63.0548 11.768C62.6768 12.776 62.1728 14 59.5268 14H58.4288V11.39H58.6448C59.2748 11.39 59.7428 11.174 59.9408 10.256C60.0848 9.482 60.1388 8.636 60.1388 4.01H70.9568V14H67.4468ZM78.5803 12.002C80.6323 12.002 81.3343 10.706 81.3343 9.95V9.176C81.0283 9.302 80.1463 9.482 79.1383 9.644C77.4463 9.932 76.9062 10.166 76.9062 10.868V10.904C76.9062 11.534 77.3563 12.002 78.5803 12.002ZM81.4423 12.614C81.0103 13.136 79.9303 14.198 77.5903 14.198H77.3023C74.5123 14.198 73.3603 12.686 73.3603 11.03V10.958C73.3603 9.23 74.4583 8.168 77.8423 7.88L80.5783 7.646C81.1363 7.592 81.3343 7.412 81.3343 6.998C81.3343 6.53 81.1903 6.026 79.2463 6.026C77.4103 6.026 77.2303 6.746 77.2303 7.124H73.6303V7.088C73.6303 6.098 74.0263 3.776 78.9403 3.776H79.4983C84.4483 3.776 84.7543 5.81 84.7543 7.142V10.436C84.7543 11.066 84.8803 11.318 85.5823 11.318H85.9603V14H83.1163C82.0723 14 81.5863 13.262 81.4423 12.614ZM91.4719 14H87.9619V4.01H91.4719V7.646H96.3679V4.01H99.8779V14H96.3679V10.31H91.4719V14ZM107.514 12.002C109.566 12.002 110.268 10.706 110.268 9.95V9.176C109.962 9.302 109.08 9.482 108.072 9.644C106.38 9.932 105.84 10.166 105.84 10.868V10.904C105.84 11.534 106.29 12.002 107.514 12.002ZM110.376 12.614C109.944 13.136 108.864 14.198 106.524 14.198H106.236C103.446 14.198 102.294 12.686 102.294 11.03V10.958C102.294 9.23 103.392 8.168 106.776 7.88L109.512 7.646C110.07 7.592 110.268 7.412 110.268 6.998C110.268 6.53 110.124 6.026 108.18 6.026C106.344 6.026 106.164 6.746 106.164 7.124H102.564V7.088C102.564 6.098 102.96 3.776 107.874 3.776H108.432C113.382 3.776 113.688 5.81 113.688 7.142V10.436C113.688 11.066 113.814 11.318 114.516 11.318H114.894V14H112.05C111.006 14 110.52 13.262 110.376 12.614ZM0.656 38V24.608H10.43C14.264 24.608 15.218 26.282 15.218 27.776V27.974C15.218 29.666 13.76 30.476 12.752 30.62C14.264 30.872 15.884 31.772 15.884 33.932V34.13C15.884 35.948 14.786 38 10.484 38H0.656ZM9.89 27.398H4.364V29.792H9.89C11.024 29.792 11.348 29.252 11.348 28.622V28.586C11.348 27.938 10.988 27.398 9.89 27.398ZM10.178 32.42H4.364V35.066H10.178C11.474 35.066 11.852 34.382 11.852 33.716V33.644C11.852 32.978 11.474 32.42 10.178 32.42ZM26.7062 31.952L21.8822 38H18.2822V28.01H21.7922V34.058L26.6162 28.01H30.2162V38H26.7062V31.952ZM40.5697 38L36.6817 33.374V38H33.1717V28.01H36.6817V32.006L40.2457 28.01H44.2957L40.1197 32.492L44.7457 38H40.5697ZM49.0583 38V30.674H45.1883V28.01H56.4383V30.674H52.5683V38H49.0583ZM64.6068 38.27H64.0488C58.6668 38.27 57.8388 34.994 57.8388 33.176V32.924C57.8388 31.124 58.6668 27.74 64.0308 27.74H64.6248C70.1688 27.74 70.8168 31.142 70.8168 32.906V33.194C70.8168 34.994 70.1688 38.27 64.6068 38.27ZM64.2288 35.642H64.4268C66.6408 35.642 67.1988 34.058 67.1988 32.96C67.1988 31.826 66.6408 30.314 64.4268 30.314H64.2288C61.9248 30.314 61.4568 31.826 61.4568 32.96C61.4568 34.058 61.9248 35.642 64.2288 35.642ZM82.4114 33.014V32.96C82.4114 31.88 81.9074 30.422 79.7114 30.422H79.5314C77.4254 30.422 76.7594 31.808 76.7594 32.96V33.014C76.7594 34.112 77.4254 35.552 79.5314 35.552H79.7114C81.9074 35.552 82.4114 34.04 82.4114 33.014ZM73.2674 41.438V28.01H76.7414V29.288C77.1734 28.82 78.4874 27.812 80.7554 27.812H80.9894C84.8054 27.812 86.0474 30.422 86.0474 32.798V33.104C86.0474 35.282 84.7694 38.198 80.9714 38.198H80.7194C78.4334 38.198 77.2094 37.154 76.7774 36.722V41.438H73.2674ZM94.7533 38.27H94.1953C88.8133 38.27 87.9853 34.994 87.9853 33.176V32.924C87.9853 31.124 88.8133 27.74 94.1773 27.74H94.7713C100.315 27.74 100.963 31.142 100.963 32.906V33.194C100.963 34.994 100.315 38.27 94.7533 38.27ZM94.3753 35.642H94.5733C96.7873 35.642 97.3453 34.058 97.3453 32.96C97.3453 31.826 96.7873 30.314 94.5733 30.314H94.3753C92.0713 30.314 91.6033 31.826 91.6033 32.96C91.6033 34.058 92.0713 35.642 94.3753 35.642ZM111.622 38H103.378V28.01H111.262C113.548 28.01 114.988 28.82 114.988 30.404V30.494C114.988 31.736 114.196 32.474 112.99 32.672C114.214 32.816 115.312 33.68 115.312 35.12V35.192C115.312 37.01 114.124 38 111.622 38ZM106.888 31.988H110.11C110.956 31.988 111.388 31.664 111.388 31.034V30.944C111.388 30.368 110.992 30.026 110.11 30.026H106.888V31.988ZM106.888 35.984H110.254C111.19 35.984 111.712 35.678 111.712 34.976V34.832C111.712 34.202 111.28 33.806 110.254 33.806H106.888V35.984ZM121.267 38H117.757V28.01H121.267V31.646H126.163V28.01H129.673V38H126.163V34.31H121.267V38ZM137.309 36.002C139.361 36.002 140.063 34.706 140.063 33.95V33.176C139.757 33.302 138.875 33.482 137.867 33.644C136.175 33.932 135.635 34.166 135.635 34.868V34.904C135.635 35.534 136.085 36.002 137.309 36.002ZM140.171 36.614C139.739 37.136 138.659 38.198 136.319 38.198H136.031C133.241 38.198 132.089 36.686 132.089 35.03V34.958C132.089 33.23 133.187 32.168 136.571 31.88L139.307 31.646C139.865 31.592 140.063 31.412 140.063 30.998C140.063 30.53 139.919 30.026 137.975 30.026C136.139 30.026 135.959 30.746 135.959 31.124H132.359V31.088C132.359 30.098 132.755 27.776 137.669 27.776H138.227C143.177 27.776 143.483 29.81 143.483 31.142V34.436C143.483 35.066 143.609 35.318 144.311 35.318H144.689V38H141.845C140.801 38 140.315 37.262 140.171 36.614ZM10.808 62L4.364 55.7V62H0.656V48.608H4.364V54.116L10.628 48.608H15.344L8.288 54.746L15.65 62H10.808ZM21.3283 60.002C23.3803 60.002 24.0823 58.706 24.0823 57.95V57.176C23.7763 57.302 22.8943 57.482 21.8863 57.644C20.1943 57.932 19.6543 58.166 19.6543 58.868V58.904C19.6543 59.534 20.1043 60.002 21.3283 60.002ZM24.1903 60.614C23.7583 61.136 22.6783 62.198 20.3383 62.198H20.0503C17.2603 62.198 16.1083 60.686 16.1083 59.03V58.958C16.1083 57.23 17.2063 56.168 20.5903 55.88L23.3263 55.646C23.8843 55.592 24.0823 55.412 24.0823 54.998C24.0823 54.53 23.9383 54.026 21.9943 54.026C20.1583 54.026 19.9783 54.746 19.9783 55.124H16.3783V55.088C16.3783 54.098 16.7743 51.776 21.6883 51.776H22.2463C27.1963 51.776 27.5023 53.81 27.5023 55.142V58.436C27.5023 59.066 27.6283 59.318 28.3303 59.318H28.7083V62H25.8643C24.8203 62 24.3343 61.262 24.1903 60.614ZM41.924 59.048V59.156C41.924 61.154 40.25 62.27 36.416 62.27H36.092C31.988 62.27 30.206 60.74 30.206 58.67V58.526H33.968C34.022 59.642 35.048 60.056 36.272 60.056C37.586 60.056 38.306 59.66 38.306 58.868V58.814C38.306 58.076 37.73 57.896 36.722 57.896H34.346V55.754H36.722C37.496 55.754 37.982 55.448 37.982 54.872V54.818C37.982 54.224 37.388 53.918 36.182 53.918C34.832 53.918 34.112 54.242 34.058 54.944H30.296V54.89C30.296 52.748 32.798 51.74 36.056 51.74H36.344C39.71 51.74 41.6 52.55 41.6 54.422V54.494C41.6 56.006 40.448 56.582 39.62 56.78C40.628 56.978 41.924 57.464 41.924 59.048ZM48.9963 60.002C51.0483 60.002 51.7503 58.706 51.7503 57.95V57.176C51.4443 57.302 50.5623 57.482 49.5543 57.644C47.8623 57.932 47.3223 58.166 47.3223 58.868V58.904C47.3223 59.534 47.7723 60.002 48.9963 60.002ZM51.8583 60.614C51.4263 61.136 50.3463 62.198 48.0063 62.198H47.7183C44.9283 62.198 43.7763 60.686 43.7763 59.03V58.958C43.7763 57.23 44.8743 56.168 48.2583 55.88L50.9943 55.646C51.5523 55.592 51.7503 55.412 51.7503 54.998C51.7503 54.53 51.6063 54.026 49.6623 54.026C47.8263 54.026 47.6463 54.746 47.6463 55.124H44.0463V55.088C44.0463 54.098 44.4423 51.776 49.3563 51.776H49.9143C54.8643 51.776 55.1703 53.81 55.1703 55.142V58.436C55.1703 59.066 55.2963 59.318 55.9983 59.318H56.3763V62H53.5323C52.4883 62 52.0023 61.262 51.8583 60.614ZM65.8119 62L61.9239 57.374V62H58.4139V52.01H61.9239V56.006L65.4879 52.01H69.5379L65.3619 56.492L69.9879 62H65.8119ZM77.2454 62.27H76.6874C71.3054 62.27 70.4774 58.994 70.4774 57.176V56.924C70.4774 55.124 71.3054 51.74 76.6694 51.74H77.2634C82.8074 51.74 83.4554 55.142 83.4554 56.906V57.194C83.4554 58.994 82.8074 62.27 77.2454 62.27ZM76.8674 59.642H77.0654C79.2794 59.642 79.8374 58.058 79.8374 56.96C79.8374 55.826 79.2794 54.314 77.0654 54.314H76.8674C74.5634 54.314 74.0954 55.826 74.0954 56.96C74.0954 58.058 74.5634 59.642 76.8674 59.642ZM94.1141 62H85.8701V52.01H93.7541C96.0401 52.01 97.4801 52.82 97.4801 54.404V54.494C97.4801 55.736 96.6881 56.474 95.4821 56.672C96.7061 56.816 97.8041 57.68 97.8041 59.12V59.192C97.8041 61.01 96.6161 62 94.1141 62ZM89.3801 55.988H92.6021C93.4481 55.988 93.8801 55.664 93.8801 55.034V54.944C93.8801 54.368 93.4841 54.026 92.6021 54.026H89.3801V55.988ZM89.3801 59.984H92.7461C93.6821 59.984 94.2041 59.678 94.2041 58.976V58.832C94.2041 58.202 93.7721 57.806 92.7461 57.806H89.3801V59.984ZM104.877 60.002C106.929 60.002 107.631 58.706 107.631 57.95V57.176C107.325 57.302 106.443 57.482 105.435 57.644C103.743 57.932 103.203 58.166 103.203 58.868V58.904C103.203 59.534 103.653 60.002 104.877 60.002ZM107.739 60.614C107.307 61.136 106.227 62.198 103.887 62.198H103.599C100.809 62.198 99.6571 60.686 99.6571 59.03V58.958C99.6571 57.23 100.755 56.168 104.139 55.88L106.875 55.646C107.433 55.592 107.631 55.412 107.631 54.998C107.631 54.53 107.487 54.026 105.543 54.026C103.707 54.026 103.527 54.746 103.527 55.124H99.9271V55.088C99.9271 54.098 100.323 51.776 105.237 51.776H105.795C110.745 51.776 111.051 53.81 111.051 55.142V58.436C111.051 59.066 111.177 59.318 111.879 59.318H112.257V62H109.413C108.369 62 107.883 61.262 107.739 60.614Z" fill="url(#paint2_radial_2018_1111)"/>
<path d="M8.63 14.198H7.802C1.682 14.198 0.0620001 10.274 0.0620001 7.538V6.998C0.0620001 4.208 1.682 0.409999 7.802 0.409999H8.63C14.246 0.409999 16.118 3.164 16.118 5.702V5.738H12.302C12.248 5.36 11.744 3.47 8.216 3.47C4.94 3.47 3.914 5.306 3.914 7.106V7.358C3.914 9.014 4.976 11.12 8.234 11.12C11.798 11.12 12.248 9.194 12.302 8.762H16.118V8.816C16.118 11.264 14.318 14.198 8.63 14.198ZM26.825 14H18.581V4.01H26.465C28.751 4.01 30.191 4.82 30.191 6.404V6.494C30.191 7.736 29.399 8.474 28.193 8.672C29.417 8.816 30.515 9.68 30.515 11.12V11.192C30.515 13.01 29.327 14 26.825 14ZM22.091 7.988H25.313C26.159 7.988 26.591 7.664 26.591 7.034V6.944C26.591 6.368 26.195 6.026 25.313 6.026H22.091V7.988ZM22.091 11.984H25.457C26.393 11.984 26.915 11.678 26.915 10.976V10.832C26.915 10.202 26.483 9.806 25.457 9.806H22.091V11.984ZM38.774 6.08C36.956 6.08 36.272 6.818 36.092 7.862H41.384C41.384 7.124 41.024 6.08 38.774 6.08ZM41.456 10.886H45.11C45.11 11.714 44.462 14.234 39.296 14.234H38.63C33.698 14.234 32.474 11.534 32.474 9.14V8.888C32.474 6.638 33.59 3.794 38.324 3.794H39.116C44.228 3.794 45.146 6.638 45.146 9.428V9.752H36.056C36.2 10.904 36.938 11.84 39.08 11.84C41.114 11.84 41.366 11.048 41.456 10.886ZM50.236 14V6.674H46.366V4.01H57.616V6.674H53.746V14H50.236ZM67.4468 14V6.674H63.4868C63.4868 9.356 63.3968 10.85 63.0548 11.768C62.6768 12.776 62.1728 14 59.5268 14H58.4288V11.39H58.6448C59.2748 11.39 59.7428 11.174 59.9408 10.256C60.0848 9.482 60.1388 8.636 60.1388 4.01H70.9568V14H67.4468ZM78.5803 12.002C80.6323 12.002 81.3343 10.706 81.3343 9.95V9.176C81.0283 9.302 80.1463 9.482 79.1383 9.644C77.4463 9.932 76.9062 10.166 76.9062 10.868V10.904C76.9062 11.534 77.3563 12.002 78.5803 12.002ZM81.4423 12.614C81.0103 13.136 79.9303 14.198 77.5903 14.198H77.3023C74.5123 14.198 73.3603 12.686 73.3603 11.03V10.958C73.3603 9.23 74.4583 8.168 77.8423 7.88L80.5783 7.646C81.1363 7.592 81.3343 7.412 81.3343 6.998C81.3343 6.53 81.1903 6.026 79.2463 6.026C77.4103 6.026 77.2303 6.746 77.2303 7.124H73.6303V7.088C73.6303 6.098 74.0263 3.776 78.9403 3.776H79.4983C84.4483 3.776 84.7543 5.81 84.7543 7.142V10.436C84.7543 11.066 84.8803 11.318 85.5823 11.318H85.9603V14H83.1163C82.0723 14 81.5863 13.262 81.4423 12.614ZM91.4719 14H87.9619V4.01H91.4719V7.646H96.3679V4.01H99.8779V14H96.3679V10.31H91.4719V14ZM107.514 12.002C109.566 12.002 110.268 10.706 110.268 9.95V9.176C109.962 9.302 109.08 9.482 108.072 9.644C106.38 9.932 105.84 10.166 105.84 10.868V10.904C105.84 11.534 106.29 12.002 107.514 12.002ZM110.376 12.614C109.944 13.136 108.864 14.198 106.524 14.198H106.236C103.446 14.198 102.294 12.686 102.294 11.03V10.958C102.294 9.23 103.392 8.168 106.776 7.88L109.512 7.646C110.07 7.592 110.268 7.412 110.268 6.998C110.268 6.53 110.124 6.026 108.18 6.026C106.344 6.026 106.164 6.746 106.164 7.124H102.564V7.088C102.564 6.098 102.96 3.776 107.874 3.776H108.432C113.382 3.776 113.688 5.81 113.688 7.142V10.436C113.688 11.066 113.814 11.318 114.516 11.318H114.894V14H112.05C111.006 14 110.52 13.262 110.376 12.614ZM0.656 38V24.608H10.43C14.264 24.608 15.218 26.282 15.218 27.776V27.974C15.218 29.666 13.76 30.476 12.752 30.62C14.264 30.872 15.884 31.772 15.884 33.932V34.13C15.884 35.948 14.786 38 10.484 38H0.656ZM9.89 27.398H4.364V29.792H9.89C11.024 29.792 11.348 29.252 11.348 28.622V28.586C11.348 27.938 10.988 27.398 9.89 27.398ZM10.178 32.42H4.364V35.066H10.178C11.474 35.066 11.852 34.382 11.852 33.716V33.644C11.852 32.978 11.474 32.42 10.178 32.42ZM26.7062 31.952L21.8822 38H18.2822V28.01H21.7922V34.058L26.6162 28.01H30.2162V38H26.7062V31.952ZM40.5697 38L36.6817 33.374V38H33.1717V28.01H36.6817V32.006L40.2457 28.01H44.2957L40.1197 32.492L44.7457 38H40.5697ZM49.0583 38V30.674H45.1883V28.01H56.4383V30.674H52.5683V38H49.0583ZM64.6068 38.27H64.0488C58.6668 38.27 57.8388 34.994 57.8388 33.176V32.924C57.8388 31.124 58.6668 27.74 64.0308 27.74H64.6248C70.1688 27.74 70.8168 31.142 70.8168 32.906V33.194C70.8168 34.994 70.1688 38.27 64.6068 38.27ZM64.2288 35.642H64.4268C66.6408 35.642 67.1988 34.058 67.1988 32.96C67.1988 31.826 66.6408 30.314 64.4268 30.314H64.2288C61.9248 30.314 61.4568 31.826 61.4568 32.96C61.4568 34.058 61.9248 35.642 64.2288 35.642ZM82.4114 33.014V32.96C82.4114 31.88 81.9074 30.422 79.7114 30.422H79.5314C77.4254 30.422 76.7594 31.808 76.7594 32.96V33.014C76.7594 34.112 77.4254 35.552 79.5314 35.552H79.7114C81.9074 35.552 82.4114 34.04 82.4114 33.014ZM73.2674 41.438V28.01H76.7414V29.288C77.1734 28.82 78.4874 27.812 80.7554 27.812H80.9894C84.8054 27.812 86.0474 30.422 86.0474 32.798V33.104C86.0474 35.282 84.7694 38.198 80.9714 38.198H80.7194C78.4334 38.198 77.2094 37.154 76.7774 36.722V41.438H73.2674ZM94.7533 38.27H94.1953C88.8133 38.27 87.9853 34.994 87.9853 33.176V32.924C87.9853 31.124 88.8133 27.74 94.1773 27.74H94.7713C100.315 27.74 100.963 31.142 100.963 32.906V33.194C100.963 34.994 100.315 38.27 94.7533 38.27ZM94.3753 35.642H94.5733C96.7873 35.642 97.3453 34.058 97.3453 32.96C97.3453 31.826 96.7873 30.314 94.5733 30.314H94.3753C92.0713 30.314 91.6033 31.826 91.6033 32.96C91.6033 34.058 92.0713 35.642 94.3753 35.642ZM111.622 38H103.378V28.01H111.262C113.548 28.01 114.988 28.82 114.988 30.404V30.494C114.988 31.736 114.196 32.474 112.99 32.672C114.214 32.816 115.312 33.68 115.312 35.12V35.192C115.312 37.01 114.124 38 111.622 38ZM106.888 31.988H110.11C110.956 31.988 111.388 31.664 111.388 31.034V30.944C111.388 30.368 110.992 30.026 110.11 30.026H106.888V31.988ZM106.888 35.984H110.254C111.19 35.984 111.712 35.678 111.712 34.976V34.832C111.712 34.202 111.28 33.806 110.254 33.806H106.888V35.984ZM121.267 38H117.757V28.01H121.267V31.646H126.163V28.01H129.673V38H126.163V34.31H121.267V38ZM137.309 36.002C139.361 36.002 140.063 34.706 140.063 33.95V33.176C139.757 33.302 138.875 33.482 137.867 33.644C136.175 33.932 135.635 34.166 135.635 34.868V34.904C135.635 35.534 136.085 36.002 137.309 36.002ZM140.171 36.614C139.739 37.136 138.659 38.198 136.319 38.198H136.031C133.241 38.198 132.089 36.686 132.089 35.03V34.958C132.089 33.23 133.187 32.168 136.571 31.88L139.307 31.646C139.865 31.592 140.063 31.412 140.063 30.998C140.063 30.53 139.919 30.026 137.975 30.026C136.139 30.026 135.959 30.746 135.959 31.124H132.359V31.088C132.359 30.098 132.755 27.776 137.669 27.776H138.227C143.177 27.776 143.483 29.81 143.483 31.142V34.436C143.483 35.066 143.609 35.318 144.311 35.318H144.689V38H141.845C140.801 38 140.315 37.262 140.171 36.614ZM10.808 62L4.364 55.7V62H0.656V48.608H4.364V54.116L10.628 48.608H15.344L8.288 54.746L15.65 62H10.808ZM21.3283 60.002C23.3803 60.002 24.0823 58.706 24.0823 57.95V57.176C23.7763 57.302 22.8943 57.482 21.8863 57.644C20.1943 57.932 19.6543 58.166 19.6543 58.868V58.904C19.6543 59.534 20.1043 60.002 21.3283 60.002ZM24.1903 60.614C23.7583 61.136 22.6783 62.198 20.3383 62.198H20.0503C17.2603 62.198 16.1083 60.686 16.1083 59.03V58.958C16.1083 57.23 17.2063 56.168 20.5903 55.88L23.3263 55.646C23.8843 55.592 24.0823 55.412 24.0823 54.998C24.0823 54.53 23.9383 54.026 21.9943 54.026C20.1583 54.026 19.9783 54.746 19.9783 55.124H16.3783V55.088C16.3783 54.098 16.7743 51.776 21.6883 51.776H22.2463C27.1963 51.776 27.5023 53.81 27.5023 55.142V58.436C27.5023 59.066 27.6283 59.318 28.3303 59.318H28.7083V62H25.8643C24.8203 62 24.3343 61.262 24.1903 60.614ZM41.924 59.048V59.156C41.924 61.154 40.25 62.27 36.416 62.27H36.092C31.988 62.27 30.206 60.74 30.206 58.67V58.526H33.968C34.022 59.642 35.048 60.056 36.272 60.056C37.586 60.056 38.306 59.66 38.306 58.868V58.814C38.306 58.076 37.73 57.896 36.722 57.896H34.346V55.754H36.722C37.496 55.754 37.982 55.448 37.982 54.872V54.818C37.982 54.224 37.388 53.918 36.182 53.918C34.832 53.918 34.112 54.242 34.058 54.944H30.296V54.89C30.296 52.748 32.798 51.74 36.056 51.74H36.344C39.71 51.74 41.6 52.55 41.6 54.422V54.494C41.6 56.006 40.448 56.582 39.62 56.78C40.628 56.978 41.924 57.464 41.924 59.048ZM48.9963 60.002C51.0483 60.002 51.7503 58.706 51.7503 57.95V57.176C51.4443 57.302 50.5623 57.482 49.5543 57.644C47.8623 57.932 47.3223 58.166 47.3223 58.868V58.904C47.3223 59.534 47.7723 60.002 48.9963 60.002ZM51.8583 60.614C51.4263 61.136 50.3463 62.198 48.0063 62.198H47.7183C44.9283 62.198 43.7763 60.686 43.7763 59.03V58.958C43.7763 57.23 44.8743 56.168 48.2583 55.88L50.9943 55.646C51.5523 55.592 51.7503 55.412 51.7503 54.998C51.7503 54.53 51.6063 54.026 49.6623 54.026C47.8263 54.026 47.6463 54.746 47.6463 55.124H44.0463V55.088C44.0463 54.098 44.4423 51.776 49.3563 51.776H49.9143C54.8643 51.776 55.1703 53.81 55.1703 55.142V58.436C55.1703 59.066 55.2963 59.318 55.9983 59.318H56.3763V62H53.5323C52.4883 62 52.0023 61.262 51.8583 60.614ZM65.8119 62L61.9239 57.374V62H58.4139V52.01H61.9239V56.006L65.4879 52.01H69.5379L65.3619 56.492L69.9879 62H65.8119ZM77.2454 62.27H76.6874C71.3054 62.27 70.4774 58.994 70.4774 57.176V56.924C70.4774 55.124 71.3054 51.74 76.6694 51.74H77.2634C82.8074 51.74 83.4554 55.142 83.4554 56.906V57.194C83.4554 58.994 82.8074 62.27 77.2454 62.27ZM76.8674 59.642H77.0654C79.2794 59.642 79.8374 58.058 79.8374 56.96C79.8374 55.826 79.2794 54.314 77.0654 54.314H76.8674C74.5634 54.314 74.0954 55.826 74.0954 56.96C74.0954 58.058 74.5634 59.642 76.8674 59.642ZM94.1141 62H85.8701V52.01H93.7541C96.0401 52.01 97.4801 52.82 97.4801 54.404V54.494C97.4801 55.736 96.6881 56.474 95.4821 56.672C96.7061 56.816 97.8041 57.68 97.8041 59.12V59.192C97.8041 61.01 96.6161 62 94.1141 62ZM89.3801 55.988H92.6021C93.4481 55.988 93.8801 55.664 93.8801 55.034V54.944C93.8801 54.368 93.4841 54.026 92.6021 54.026H89.3801V55.988ZM89.3801 59.984H92.7461C93.6821 59.984 94.2041 59.678 94.2041 58.976V58.832C94.2041 58.202 93.7721 57.806 92.7461 57.806H89.3801V59.984ZM104.877 60.002C106.929 60.002 107.631 58.706 107.631 57.95V57.176C107.325 57.302 106.443 57.482 105.435 57.644C103.743 57.932 103.203 58.166 103.203 58.868V58.904C103.203 59.534 103.653 60.002 104.877 60.002ZM107.739 60.614C107.307 61.136 106.227 62.198 103.887 62.198H103.599C100.809 62.198 99.6571 60.686 99.6571 59.03V58.958C99.6571 57.23 100.755 56.168 104.139 55.88L106.875 55.646C107.433 55.592 107.631 55.412 107.631 54.998C107.631 54.53 107.487 54.026 105.543 54.026C103.707 54.026 103.527 54.746 103.527 55.124H99.9271V55.088C99.9271 54.098 100.323 51.776 105.237 51.776H105.795C110.745 51.776 111.051 53.81 111.051 55.142V58.436C111.051 59.066 111.177 59.318 111.879 59.318H112.257V62H109.413C108.369 62 107.883 61.262 107.739 60.614Z" fill="#C1A875" style="mix-blend-mode:color"/>
<defs>
<linearGradient id="paint0_linear_2018_1111" x1="-0.999999" y1="30" x2="221" y2="30" gradientUnits="userSpaceOnUse">
<stop stop-color="#576167"/>
<stop offset="0.191294" stop-color="#9EA1A2"/>
<stop offset="0.396166" stop-color="#848989"/>
<stop offset="0.62055" stop-color="#576167"/>
<stop offset="0.830299" stop-color="#757A7C"/>
<stop offset="1" stop-color="#576167"/>
</linearGradient>
<radialGradient id="paint1_radial_2018_1111" cx="0" cy="0" r="1" gradientUnits="userSpaceOnUse" gradientTransform="translate(117.226 2.39326) rotate(90) scale(53.4944 167.95)">
<stop stop-color="white"/>
<stop offset="1" stop-color="white" stop-opacity="0"/>
</radialGradient>
<radialGradient id="paint2_radial_2018_1111" cx="0" cy="0" r="1" gradientUnits="userSpaceOnUse" gradientTransform="translate(129.783 82.9888) rotate(-89.7344) scale(76.6525 240.162)">
<stop stop-color="white"/>
<stop offset="1" stop-color="white" stop-opacity="0"/>
</radialGradient>
</defs>
</svg>
