<svg width="139" height="66" viewBox="0 0 139 66" fill="none" xmlns="http://www.w3.org/2000/svg">
<path d="M10.808 14L4.364 7.7V14H0.656V0.608H4.364V6.116L10.628 0.608H15.344L8.288 6.746L15.65 14H10.808ZM25.4933 7.952L20.6693 14H17.0693V4.01H20.5793V10.058L25.4033 4.01H29.0033V14H25.4933V7.952ZM41.1028 9.014V8.96C41.1028 7.88 40.5988 6.422 38.4028 6.422H38.2228C36.1168 6.422 35.4508 7.808 35.4508 8.96V9.014C35.4508 10.112 36.1168 11.552 38.2228 11.552H38.4028C40.5988 11.552 41.1028 10.04 41.1028 9.014ZM31.9588 17.438V4.01H35.4328V5.288C35.8648 4.82 37.1788 3.812 39.4468 3.812H39.6808C43.4968 3.812 44.7388 6.422 44.7388 8.798V9.104C44.7388 11.282 43.4608 14.198 39.6628 14.198H39.4108C37.1248 14.198 35.9008 13.154 35.4688 12.722V17.438H31.9588ZM55.6047 7.952L50.7807 14H47.1807V4.01H50.6907V10.058L55.5147 4.01H59.1147V14H55.6047V7.952ZM70.2242 14V6.674H66.2642C66.2642 9.356 66.1742 10.85 65.8322 11.768C65.4542 12.776 64.9502 14 62.3042 14H61.2062V11.39H61.4222C62.0522 11.39 62.5202 11.174 62.7182 10.256C62.8622 9.482 62.9162 8.636 62.9162 4.01H73.7342V14H70.2242ZM84.8316 14V6.674H80.8716C80.8716 9.356 80.7816 10.85 80.4396 11.768C80.0616 12.776 79.5576 14 76.9116 14H75.8136V11.39H76.0296C76.6596 11.39 77.1276 11.174 77.3256 10.256C77.4696 9.482 77.5236 8.636 77.5236 4.01H88.3416V14H84.8316ZM0.656 24.608H12.914V27.524H4.31V29.702H12.644V32.726H4.31V35.048H13.022V38H0.656V24.608ZM24.0301 38H15.7861V28.01H23.6701C25.9561 28.01 27.3961 28.82 27.3961 30.404V30.494C27.3961 31.736 26.6041 32.474 25.3981 32.672C26.6221 32.816 27.7201 33.68 27.7201 35.12V35.192C27.7201 37.01 26.5321 38 24.0301 38ZM19.2961 31.988H22.5181C23.3641 31.988 23.7961 31.664 23.7961 31.034V30.944C23.7961 30.368 23.4001 30.026 22.5181 30.026H19.2961V31.988ZM19.2961 35.984H22.6621C23.5981 35.984 24.1201 35.678 24.1201 34.976V34.832C24.1201 34.202 23.6881 33.806 22.6621 33.806H19.2961V35.984ZM30.165 38V28.01H38.877V30.674H33.675V38H30.165ZM46.5962 30.08C44.7782 30.08 44.0942 30.818 43.9142 31.862H49.2062C49.2062 31.124 48.8462 30.08 46.5962 30.08ZM49.2782 34.886H52.9322C52.9322 35.714 52.2842 38.234 47.1182 38.234H46.4522C41.5202 38.234 40.2962 35.534 40.2962 33.14V32.888C40.2962 30.638 41.4122 27.794 46.1462 27.794H46.9382C52.0502 27.794 52.9682 30.638 52.9682 33.428V33.752H43.8782C44.0222 34.904 44.7602 35.84 46.9022 35.84C48.9362 35.84 49.1882 35.048 49.2782 34.886ZM58.8821 38H55.3721V28.01H58.8821V31.646H63.7781V28.01H67.2881V38H63.7781V34.31H58.8821V38ZM70.208 38V28.01H73.718V30.872H76.454C79.874 30.872 81.206 32.384 81.206 34.292V34.508C81.206 36.596 79.874 38 76.454 38H70.208ZM73.718 35.624H76.022C76.742 35.624 77.606 35.408 77.606 34.436V34.382C77.606 33.482 76.742 33.248 76.022 33.248H73.718V35.624ZM89.2759 30.08C87.4579 30.08 86.7739 30.818 86.5939 31.862H91.8859C91.8859 31.124 91.5259 30.08 89.2759 30.08ZM91.9579 34.886H95.6119C95.6119 35.714 94.9639 38.234 89.7979 38.234H89.1319C84.1999 38.234 82.9759 35.534 82.9759 33.14V32.888C82.9759 30.638 84.0919 27.794 88.8259 27.794H89.6179C94.7299 27.794 95.6479 30.638 95.6479 33.428V33.752H86.5579C86.7019 34.904 87.4399 35.84 89.5819 35.84C91.6159 35.84 91.8679 35.048 91.9579 34.886ZM106.296 38H98.0518V28.01H105.936C108.222 28.01 109.662 28.82 109.662 30.404V30.494C109.662 31.736 108.87 32.474 107.664 32.672C108.888 32.816 109.986 33.68 109.986 35.12V35.192C109.986 37.01 108.798 38 106.296 38ZM101.562 31.988H104.784C105.63 31.988 106.062 31.664 106.062 31.034V30.944C106.062 30.368 105.666 30.026 104.784 30.026H101.562V31.988ZM101.562 35.984H104.928C105.864 35.984 106.386 35.678 106.386 34.976V34.832C106.386 34.202 105.954 33.806 104.928 33.806H101.562V35.984ZM120.855 31.952L116.031 38H112.431V28.01H115.941V34.058L120.765 28.01H124.365V38H120.855V31.952ZM134.7 28.01H138.21V38H134.7V34.562C133.926 34.652 133.026 34.742 132.09 34.742C128.13 34.742 126.636 33.626 126.636 30.458V28.01H130.146V29.81C130.146 31.682 130.776 32.006 132.63 32.006C133.332 32.006 134.142 31.952 134.7 31.88V28.01ZM11.834 62V56.618H4.364V62H0.656V48.608H4.364V53.576H11.834V48.608H15.542V62H11.834ZM23.3674 60.002C25.4194 60.002 26.1214 58.706 26.1214 57.95V57.176C25.8154 57.302 24.9334 57.482 23.9254 57.644C22.2334 57.932 21.6934 58.166 21.6934 58.868V58.904C21.6934 59.534 22.1434 60.002 23.3674 60.002ZM26.2294 60.614C25.7974 61.136 24.7174 62.198 22.3774 62.198H22.0894C19.2994 62.198 18.1474 60.686 18.1474 59.03V58.958C18.1474 57.23 19.2454 56.168 22.6294 55.88L25.3654 55.646C25.9234 55.592 26.1214 55.412 26.1214 54.998C26.1214 54.53 25.9774 54.026 24.0334 54.026C22.1974 54.026 22.0174 54.746 22.0174 55.124H18.4174V55.088C18.4174 54.098 18.8134 51.776 23.7274 51.776H24.2854C29.2354 51.776 29.5414 53.81 29.5414 55.142V58.436C29.5414 59.066 29.6674 59.318 30.3694 59.318H30.7474V62H27.9034C26.8594 62 26.3734 61.262 26.2294 60.614ZM43.963 59.048V59.156C43.963 61.154 42.289 62.27 38.455 62.27H38.131C34.027 62.27 32.245 60.74 32.245 58.67V58.526H36.007C36.061 59.642 37.087 60.056 38.311 60.056C39.625 60.056 40.345 59.66 40.345 58.868V58.814C40.345 58.076 39.769 57.896 38.761 57.896H36.385V55.754H38.761C39.535 55.754 40.021 55.448 40.021 54.872V54.818C40.021 54.224 39.427 53.918 38.221 53.918C36.871 53.918 36.151 54.242 36.097 54.944H32.335V54.89C32.335 52.748 34.837 51.74 38.095 51.74H38.383C41.749 51.74 43.639 52.55 43.639 54.422V54.494C43.639 56.006 42.487 56.582 41.659 56.78C42.667 56.978 43.963 57.464 43.963 59.048ZM51.0353 60.002C53.0873 60.002 53.7893 58.706 53.7893 57.95V57.176C53.4833 57.302 52.6013 57.482 51.5933 57.644C49.9013 57.932 49.3613 58.166 49.3613 58.868V58.904C49.3613 59.534 49.8113 60.002 51.0353 60.002ZM53.8973 60.614C53.4653 61.136 52.3853 62.198 50.0453 62.198H49.7573C46.9673 62.198 45.8153 60.686 45.8153 59.03V58.958C45.8153 57.23 46.9133 56.168 50.2973 55.88L53.0333 55.646C53.5913 55.592 53.7893 55.412 53.7893 54.998C53.7893 54.53 53.6453 54.026 51.7013 54.026C49.8653 54.026 49.6853 54.746 49.6853 55.124H46.0853V55.088C46.0853 54.098 46.4813 51.776 51.3953 51.776H51.9533C56.9033 51.776 57.2093 53.81 57.2093 55.142V58.436C57.2093 59.066 57.3353 59.318 58.0373 59.318H58.4153V62H55.5713C54.5273 62 54.0413 61.262 53.8973 60.614ZM69.597 57.014V56.96C69.597 55.88 69.093 54.422 66.897 54.422H66.717C64.611 54.422 63.945 55.808 63.945 56.96V57.014C63.945 58.112 64.611 59.552 66.717 59.552H66.897C69.093 59.552 69.597 58.04 69.597 57.014ZM60.453 65.438V52.01H63.927V53.288C64.359 52.82 65.673 51.812 67.941 51.812H68.175C71.991 51.812 73.233 54.422 73.233 56.798V57.104C73.233 59.282 71.955 62.198 68.157 62.198H67.905C65.619 62.198 64.395 61.154 63.963 60.722V65.438H60.453ZM81.9388 62.27H81.3808C75.9988 62.27 75.1708 58.994 75.1708 57.176V56.924C75.1708 55.124 75.9988 51.74 81.3628 51.74H81.9568C87.5008 51.74 88.1488 55.142 88.1488 56.906V57.194C88.1488 58.994 87.5008 62.27 81.9388 62.27ZM81.5608 59.642H81.7588C83.9728 59.642 84.5308 58.058 84.5308 56.96C84.5308 55.826 83.9728 54.314 81.7588 54.314H81.5608C79.2568 54.314 78.7888 55.826 78.7888 56.96C78.7888 58.058 79.2568 59.642 81.5608 59.642ZM98.8075 62H90.5635V52.01H98.4475C100.733 52.01 102.173 52.82 102.173 54.404V54.494C102.173 55.736 101.381 56.474 100.175 56.672C101.399 56.816 102.497 57.68 102.497 59.12V59.192C102.497 61.01 101.309 62 98.8075 62ZM94.0735 55.988H97.2955C98.1415 55.988 98.5735 55.664 98.5735 55.034V54.944C98.5735 54.368 98.1775 54.026 97.2955 54.026H94.0735V55.988ZM94.0735 59.984H97.4395C98.3755 59.984 98.8975 59.678 98.8975 58.976V58.832C98.8975 58.202 98.4655 57.806 97.4395 57.806H94.0735V59.984Z" fill="url(#paint0_linear_2018_1083)"/>
<path d="M10.808 14L4.364 7.7V14H0.656V0.608H4.364V6.116L10.628 0.608H15.344L8.288 6.746L15.65 14H10.808ZM25.4933 7.952L20.6693 14H17.0693V4.01H20.5793V10.058L25.4033 4.01H29.0033V14H25.4933V7.952ZM41.1028 9.014V8.96C41.1028 7.88 40.5988 6.422 38.4028 6.422H38.2228C36.1168 6.422 35.4508 7.808 35.4508 8.96V9.014C35.4508 10.112 36.1168 11.552 38.2228 11.552H38.4028C40.5988 11.552 41.1028 10.04 41.1028 9.014ZM31.9588 17.438V4.01H35.4328V5.288C35.8648 4.82 37.1788 3.812 39.4468 3.812H39.6808C43.4968 3.812 44.7388 6.422 44.7388 8.798V9.104C44.7388 11.282 43.4608 14.198 39.6628 14.198H39.4108C37.1248 14.198 35.9008 13.154 35.4688 12.722V17.438H31.9588ZM55.6047 7.952L50.7807 14H47.1807V4.01H50.6907V10.058L55.5147 4.01H59.1147V14H55.6047V7.952ZM70.2242 14V6.674H66.2642C66.2642 9.356 66.1742 10.85 65.8322 11.768C65.4542 12.776 64.9502 14 62.3042 14H61.2062V11.39H61.4222C62.0522 11.39 62.5202 11.174 62.7182 10.256C62.8622 9.482 62.9162 8.636 62.9162 4.01H73.7342V14H70.2242ZM84.8316 14V6.674H80.8716C80.8716 9.356 80.7816 10.85 80.4396 11.768C80.0616 12.776 79.5576 14 76.9116 14H75.8136V11.39H76.0296C76.6596 11.39 77.1276 11.174 77.3256 10.256C77.4696 9.482 77.5236 8.636 77.5236 4.01H88.3416V14H84.8316ZM0.656 24.608H12.914V27.524H4.31V29.702H12.644V32.726H4.31V35.048H13.022V38H0.656V24.608ZM24.0301 38H15.7861V28.01H23.6701C25.9561 28.01 27.3961 28.82 27.3961 30.404V30.494C27.3961 31.736 26.6041 32.474 25.3981 32.672C26.6221 32.816 27.7201 33.68 27.7201 35.12V35.192C27.7201 37.01 26.5321 38 24.0301 38ZM19.2961 31.988H22.5181C23.3641 31.988 23.7961 31.664 23.7961 31.034V30.944C23.7961 30.368 23.4001 30.026 22.5181 30.026H19.2961V31.988ZM19.2961 35.984H22.6621C23.5981 35.984 24.1201 35.678 24.1201 34.976V34.832C24.1201 34.202 23.6881 33.806 22.6621 33.806H19.2961V35.984ZM30.165 38V28.01H38.877V30.674H33.675V38H30.165ZM46.5962 30.08C44.7782 30.08 44.0942 30.818 43.9142 31.862H49.2062C49.2062 31.124 48.8462 30.08 46.5962 30.08ZM49.2782 34.886H52.9322C52.9322 35.714 52.2842 38.234 47.1182 38.234H46.4522C41.5202 38.234 40.2962 35.534 40.2962 33.14V32.888C40.2962 30.638 41.4122 27.794 46.1462 27.794H46.9382C52.0502 27.794 52.9682 30.638 52.9682 33.428V33.752H43.8782C44.0222 34.904 44.7602 35.84 46.9022 35.84C48.9362 35.84 49.1882 35.048 49.2782 34.886ZM58.8821 38H55.3721V28.01H58.8821V31.646H63.7781V28.01H67.2881V38H63.7781V34.31H58.8821V38ZM70.208 38V28.01H73.718V30.872H76.454C79.874 30.872 81.206 32.384 81.206 34.292V34.508C81.206 36.596 79.874 38 76.454 38H70.208ZM73.718 35.624H76.022C76.742 35.624 77.606 35.408 77.606 34.436V34.382C77.606 33.482 76.742 33.248 76.022 33.248H73.718V35.624ZM89.2759 30.08C87.4579 30.08 86.7739 30.818 86.5939 31.862H91.8859C91.8859 31.124 91.5259 30.08 89.2759 30.08ZM91.9579 34.886H95.6119C95.6119 35.714 94.9639 38.234 89.7979 38.234H89.1319C84.1999 38.234 82.9759 35.534 82.9759 33.14V32.888C82.9759 30.638 84.0919 27.794 88.8259 27.794H89.6179C94.7299 27.794 95.6479 30.638 95.6479 33.428V33.752H86.5579C86.7019 34.904 87.4399 35.84 89.5819 35.84C91.6159 35.84 91.8679 35.048 91.9579 34.886ZM106.296 38H98.0518V28.01H105.936C108.222 28.01 109.662 28.82 109.662 30.404V30.494C109.662 31.736 108.87 32.474 107.664 32.672C108.888 32.816 109.986 33.68 109.986 35.12V35.192C109.986 37.01 108.798 38 106.296 38ZM101.562 31.988H104.784C105.63 31.988 106.062 31.664 106.062 31.034V30.944C106.062 30.368 105.666 30.026 104.784 30.026H101.562V31.988ZM101.562 35.984H104.928C105.864 35.984 106.386 35.678 106.386 34.976V34.832C106.386 34.202 105.954 33.806 104.928 33.806H101.562V35.984ZM120.855 31.952L116.031 38H112.431V28.01H115.941V34.058L120.765 28.01H124.365V38H120.855V31.952ZM134.7 28.01H138.21V38H134.7V34.562C133.926 34.652 133.026 34.742 132.09 34.742C128.13 34.742 126.636 33.626 126.636 30.458V28.01H130.146V29.81C130.146 31.682 130.776 32.006 132.63 32.006C133.332 32.006 134.142 31.952 134.7 31.88V28.01ZM11.834 62V56.618H4.364V62H0.656V48.608H4.364V53.576H11.834V48.608H15.542V62H11.834ZM23.3674 60.002C25.4194 60.002 26.1214 58.706 26.1214 57.95V57.176C25.8154 57.302 24.9334 57.482 23.9254 57.644C22.2334 57.932 21.6934 58.166 21.6934 58.868V58.904C21.6934 59.534 22.1434 60.002 23.3674 60.002ZM26.2294 60.614C25.7974 61.136 24.7174 62.198 22.3774 62.198H22.0894C19.2994 62.198 18.1474 60.686 18.1474 59.03V58.958C18.1474 57.23 19.2454 56.168 22.6294 55.88L25.3654 55.646C25.9234 55.592 26.1214 55.412 26.1214 54.998C26.1214 54.53 25.9774 54.026 24.0334 54.026C22.1974 54.026 22.0174 54.746 22.0174 55.124H18.4174V55.088C18.4174 54.098 18.8134 51.776 23.7274 51.776H24.2854C29.2354 51.776 29.5414 53.81 29.5414 55.142V58.436C29.5414 59.066 29.6674 59.318 30.3694 59.318H30.7474V62H27.9034C26.8594 62 26.3734 61.262 26.2294 60.614ZM43.963 59.048V59.156C43.963 61.154 42.289 62.27 38.455 62.27H38.131C34.027 62.27 32.245 60.74 32.245 58.67V58.526H36.007C36.061 59.642 37.087 60.056 38.311 60.056C39.625 60.056 40.345 59.66 40.345 58.868V58.814C40.345 58.076 39.769 57.896 38.761 57.896H36.385V55.754H38.761C39.535 55.754 40.021 55.448 40.021 54.872V54.818C40.021 54.224 39.427 53.918 38.221 53.918C36.871 53.918 36.151 54.242 36.097 54.944H32.335V54.89C32.335 52.748 34.837 51.74 38.095 51.74H38.383C41.749 51.74 43.639 52.55 43.639 54.422V54.494C43.639 56.006 42.487 56.582 41.659 56.78C42.667 56.978 43.963 57.464 43.963 59.048ZM51.0353 60.002C53.0873 60.002 53.7893 58.706 53.7893 57.95V57.176C53.4833 57.302 52.6013 57.482 51.5933 57.644C49.9013 57.932 49.3613 58.166 49.3613 58.868V58.904C49.3613 59.534 49.8113 60.002 51.0353 60.002ZM53.8973 60.614C53.4653 61.136 52.3853 62.198 50.0453 62.198H49.7573C46.9673 62.198 45.8153 60.686 45.8153 59.03V58.958C45.8153 57.23 46.9133 56.168 50.2973 55.88L53.0333 55.646C53.5913 55.592 53.7893 55.412 53.7893 54.998C53.7893 54.53 53.6453 54.026 51.7013 54.026C49.8653 54.026 49.6853 54.746 49.6853 55.124H46.0853V55.088C46.0853 54.098 46.4813 51.776 51.3953 51.776H51.9533C56.9033 51.776 57.2093 53.81 57.2093 55.142V58.436C57.2093 59.066 57.3353 59.318 58.0373 59.318H58.4153V62H55.5713C54.5273 62 54.0413 61.262 53.8973 60.614ZM69.597 57.014V56.96C69.597 55.88 69.093 54.422 66.897 54.422H66.717C64.611 54.422 63.945 55.808 63.945 56.96V57.014C63.945 58.112 64.611 59.552 66.717 59.552H66.897C69.093 59.552 69.597 58.04 69.597 57.014ZM60.453 65.438V52.01H63.927V53.288C64.359 52.82 65.673 51.812 67.941 51.812H68.175C71.991 51.812 73.233 54.422 73.233 56.798V57.104C73.233 59.282 71.955 62.198 68.157 62.198H67.905C65.619 62.198 64.395 61.154 63.963 60.722V65.438H60.453ZM81.9388 62.27H81.3808C75.9988 62.27 75.1708 58.994 75.1708 57.176V56.924C75.1708 55.124 75.9988 51.74 81.3628 51.74H81.9568C87.5008 51.74 88.1488 55.142 88.1488 56.906V57.194C88.1488 58.994 87.5008 62.27 81.9388 62.27ZM81.5608 59.642H81.7588C83.9728 59.642 84.5308 58.058 84.5308 56.96C84.5308 55.826 83.9728 54.314 81.7588 54.314H81.5608C79.2568 54.314 78.7888 55.826 78.7888 56.96C78.7888 58.058 79.2568 59.642 81.5608 59.642ZM98.8075 62H90.5635V52.01H98.4475C100.733 52.01 102.173 52.82 102.173 54.404V54.494C102.173 55.736 101.381 56.474 100.175 56.672C101.399 56.816 102.497 57.68 102.497 59.12V59.192C102.497 61.01 101.309 62 98.8075 62ZM94.0735 55.988H97.2955C98.1415 55.988 98.5735 55.664 98.5735 55.034V54.944C98.5735 54.368 98.1775 54.026 97.2955 54.026H94.0735V55.988ZM94.0735 59.984H97.4395C98.3755 59.984 98.8975 59.678 98.8975 58.976V58.832C98.8975 58.202 98.4655 57.806 97.4395 57.806H94.0735V59.984Z" fill="url(#paint1_radial_2018_1083)" style="mix-blend-mode:overlay"/>
<path d="M10.808 14L4.364 7.7V14H0.656V0.608H4.364V6.116L10.628 0.608H15.344L8.288 6.746L15.65 14H10.808ZM25.4933 7.952L20.6693 14H17.0693V4.01H20.5793V10.058L25.4033 4.01H29.0033V14H25.4933V7.952ZM41.1028 9.014V8.96C41.1028 7.88 40.5988 6.422 38.4028 6.422H38.2228C36.1168 6.422 35.4508 7.808 35.4508 8.96V9.014C35.4508 10.112 36.1168 11.552 38.2228 11.552H38.4028C40.5988 11.552 41.1028 10.04 41.1028 9.014ZM31.9588 17.438V4.01H35.4328V5.288C35.8648 4.82 37.1788 3.812 39.4468 3.812H39.6808C43.4968 3.812 44.7388 6.422 44.7388 8.798V9.104C44.7388 11.282 43.4608 14.198 39.6628 14.198H39.4108C37.1248 14.198 35.9008 13.154 35.4688 12.722V17.438H31.9588ZM55.6047 7.952L50.7807 14H47.1807V4.01H50.6907V10.058L55.5147 4.01H59.1147V14H55.6047V7.952ZM70.2242 14V6.674H66.2642C66.2642 9.356 66.1742 10.85 65.8322 11.768C65.4542 12.776 64.9502 14 62.3042 14H61.2062V11.39H61.4222C62.0522 11.39 62.5202 11.174 62.7182 10.256C62.8622 9.482 62.9162 8.636 62.9162 4.01H73.7342V14H70.2242ZM84.8316 14V6.674H80.8716C80.8716 9.356 80.7816 10.85 80.4396 11.768C80.0616 12.776 79.5576 14 76.9116 14H75.8136V11.39H76.0296C76.6596 11.39 77.1276 11.174 77.3256 10.256C77.4696 9.482 77.5236 8.636 77.5236 4.01H88.3416V14H84.8316ZM0.656 24.608H12.914V27.524H4.31V29.702H12.644V32.726H4.31V35.048H13.022V38H0.656V24.608ZM24.0301 38H15.7861V28.01H23.6701C25.9561 28.01 27.3961 28.82 27.3961 30.404V30.494C27.3961 31.736 26.6041 32.474 25.3981 32.672C26.6221 32.816 27.7201 33.68 27.7201 35.12V35.192C27.7201 37.01 26.5321 38 24.0301 38ZM19.2961 31.988H22.5181C23.3641 31.988 23.7961 31.664 23.7961 31.034V30.944C23.7961 30.368 23.4001 30.026 22.5181 30.026H19.2961V31.988ZM19.2961 35.984H22.6621C23.5981 35.984 24.1201 35.678 24.1201 34.976V34.832C24.1201 34.202 23.6881 33.806 22.6621 33.806H19.2961V35.984ZM30.165 38V28.01H38.877V30.674H33.675V38H30.165ZM46.5962 30.08C44.7782 30.08 44.0942 30.818 43.9142 31.862H49.2062C49.2062 31.124 48.8462 30.08 46.5962 30.08ZM49.2782 34.886H52.9322C52.9322 35.714 52.2842 38.234 47.1182 38.234H46.4522C41.5202 38.234 40.2962 35.534 40.2962 33.14V32.888C40.2962 30.638 41.4122 27.794 46.1462 27.794H46.9382C52.0502 27.794 52.9682 30.638 52.9682 33.428V33.752H43.8782C44.0222 34.904 44.7602 35.84 46.9022 35.84C48.9362 35.84 49.1882 35.048 49.2782 34.886ZM58.8821 38H55.3721V28.01H58.8821V31.646H63.7781V28.01H67.2881V38H63.7781V34.31H58.8821V38ZM70.208 38V28.01H73.718V30.872H76.454C79.874 30.872 81.206 32.384 81.206 34.292V34.508C81.206 36.596 79.874 38 76.454 38H70.208ZM73.718 35.624H76.022C76.742 35.624 77.606 35.408 77.606 34.436V34.382C77.606 33.482 76.742 33.248 76.022 33.248H73.718V35.624ZM89.2759 30.08C87.4579 30.08 86.7739 30.818 86.5939 31.862H91.8859C91.8859 31.124 91.5259 30.08 89.2759 30.08ZM91.9579 34.886H95.6119C95.6119 35.714 94.9639 38.234 89.7979 38.234H89.1319C84.1999 38.234 82.9759 35.534 82.9759 33.14V32.888C82.9759 30.638 84.0919 27.794 88.8259 27.794H89.6179C94.7299 27.794 95.6479 30.638 95.6479 33.428V33.752H86.5579C86.7019 34.904 87.4399 35.84 89.5819 35.84C91.6159 35.84 91.8679 35.048 91.9579 34.886ZM106.296 38H98.0518V28.01H105.936C108.222 28.01 109.662 28.82 109.662 30.404V30.494C109.662 31.736 108.87 32.474 107.664 32.672C108.888 32.816 109.986 33.68 109.986 35.12V35.192C109.986 37.01 108.798 38 106.296 38ZM101.562 31.988H104.784C105.63 31.988 106.062 31.664 106.062 31.034V30.944C106.062 30.368 105.666 30.026 104.784 30.026H101.562V31.988ZM101.562 35.984H104.928C105.864 35.984 106.386 35.678 106.386 34.976V34.832C106.386 34.202 105.954 33.806 104.928 33.806H101.562V35.984ZM120.855 31.952L116.031 38H112.431V28.01H115.941V34.058L120.765 28.01H124.365V38H120.855V31.952ZM134.7 28.01H138.21V38H134.7V34.562C133.926 34.652 133.026 34.742 132.09 34.742C128.13 34.742 126.636 33.626 126.636 30.458V28.01H130.146V29.81C130.146 31.682 130.776 32.006 132.63 32.006C133.332 32.006 134.142 31.952 134.7 31.88V28.01ZM11.834 62V56.618H4.364V62H0.656V48.608H4.364V53.576H11.834V48.608H15.542V62H11.834ZM23.3674 60.002C25.4194 60.002 26.1214 58.706 26.1214 57.95V57.176C25.8154 57.302 24.9334 57.482 23.9254 57.644C22.2334 57.932 21.6934 58.166 21.6934 58.868V58.904C21.6934 59.534 22.1434 60.002 23.3674 60.002ZM26.2294 60.614C25.7974 61.136 24.7174 62.198 22.3774 62.198H22.0894C19.2994 62.198 18.1474 60.686 18.1474 59.03V58.958C18.1474 57.23 19.2454 56.168 22.6294 55.88L25.3654 55.646C25.9234 55.592 26.1214 55.412 26.1214 54.998C26.1214 54.53 25.9774 54.026 24.0334 54.026C22.1974 54.026 22.0174 54.746 22.0174 55.124H18.4174V55.088C18.4174 54.098 18.8134 51.776 23.7274 51.776H24.2854C29.2354 51.776 29.5414 53.81 29.5414 55.142V58.436C29.5414 59.066 29.6674 59.318 30.3694 59.318H30.7474V62H27.9034C26.8594 62 26.3734 61.262 26.2294 60.614ZM43.963 59.048V59.156C43.963 61.154 42.289 62.27 38.455 62.27H38.131C34.027 62.27 32.245 60.74 32.245 58.67V58.526H36.007C36.061 59.642 37.087 60.056 38.311 60.056C39.625 60.056 40.345 59.66 40.345 58.868V58.814C40.345 58.076 39.769 57.896 38.761 57.896H36.385V55.754H38.761C39.535 55.754 40.021 55.448 40.021 54.872V54.818C40.021 54.224 39.427 53.918 38.221 53.918C36.871 53.918 36.151 54.242 36.097 54.944H32.335V54.89C32.335 52.748 34.837 51.74 38.095 51.74H38.383C41.749 51.74 43.639 52.55 43.639 54.422V54.494C43.639 56.006 42.487 56.582 41.659 56.78C42.667 56.978 43.963 57.464 43.963 59.048ZM51.0353 60.002C53.0873 60.002 53.7893 58.706 53.7893 57.95V57.176C53.4833 57.302 52.6013 57.482 51.5933 57.644C49.9013 57.932 49.3613 58.166 49.3613 58.868V58.904C49.3613 59.534 49.8113 60.002 51.0353 60.002ZM53.8973 60.614C53.4653 61.136 52.3853 62.198 50.0453 62.198H49.7573C46.9673 62.198 45.8153 60.686 45.8153 59.03V58.958C45.8153 57.23 46.9133 56.168 50.2973 55.88L53.0333 55.646C53.5913 55.592 53.7893 55.412 53.7893 54.998C53.7893 54.53 53.6453 54.026 51.7013 54.026C49.8653 54.026 49.6853 54.746 49.6853 55.124H46.0853V55.088C46.0853 54.098 46.4813 51.776 51.3953 51.776H51.9533C56.9033 51.776 57.2093 53.81 57.2093 55.142V58.436C57.2093 59.066 57.3353 59.318 58.0373 59.318H58.4153V62H55.5713C54.5273 62 54.0413 61.262 53.8973 60.614ZM69.597 57.014V56.96C69.597 55.88 69.093 54.422 66.897 54.422H66.717C64.611 54.422 63.945 55.808 63.945 56.96V57.014C63.945 58.112 64.611 59.552 66.717 59.552H66.897C69.093 59.552 69.597 58.04 69.597 57.014ZM60.453 65.438V52.01H63.927V53.288C64.359 52.82 65.673 51.812 67.941 51.812H68.175C71.991 51.812 73.233 54.422 73.233 56.798V57.104C73.233 59.282 71.955 62.198 68.157 62.198H67.905C65.619 62.198 64.395 61.154 63.963 60.722V65.438H60.453ZM81.9388 62.27H81.3808C75.9988 62.27 75.1708 58.994 75.1708 57.176V56.924C75.1708 55.124 75.9988 51.74 81.3628 51.74H81.9568C87.5008 51.74 88.1488 55.142 88.1488 56.906V57.194C88.1488 58.994 87.5008 62.27 81.9388 62.27ZM81.5608 59.642H81.7588C83.9728 59.642 84.5308 58.058 84.5308 56.96C84.5308 55.826 83.9728 54.314 81.7588 54.314H81.5608C79.2568 54.314 78.7888 55.826 78.7888 56.96C78.7888 58.058 79.2568 59.642 81.5608 59.642ZM98.8075 62H90.5635V52.01H98.4475C100.733 52.01 102.173 52.82 102.173 54.404V54.494C102.173 55.736 101.381 56.474 100.175 56.672C101.399 56.816 102.497 57.68 102.497 59.12V59.192C102.497 61.01 101.309 62 98.8075 62ZM94.0735 55.988H97.2955C98.1415 55.988 98.5735 55.664 98.5735 55.034V54.944C98.5735 54.368 98.1775 54.026 97.2955 54.026H94.0735V55.988ZM94.0735 59.984H97.4395C98.3755 59.984 98.8975 59.678 98.8975 58.976V58.832C98.8975 58.202 98.4655 57.806 97.4395 57.806H94.0735V59.984Z" fill="url(#paint2_radial_2018_1083)"/>
<path d="M10.808 14L4.364 7.7V14H0.656V0.608H4.364V6.116L10.628 0.608H15.344L8.288 6.746L15.65 14H10.808ZM25.4933 7.952L20.6693 14H17.0693V4.01H20.5793V10.058L25.4033 4.01H29.0033V14H25.4933V7.952ZM41.1028 9.014V8.96C41.1028 7.88 40.5988 6.422 38.4028 6.422H38.2228C36.1168 6.422 35.4508 7.808 35.4508 8.96V9.014C35.4508 10.112 36.1168 11.552 38.2228 11.552H38.4028C40.5988 11.552 41.1028 10.04 41.1028 9.014ZM31.9588 17.438V4.01H35.4328V5.288C35.8648 4.82 37.1788 3.812 39.4468 3.812H39.6808C43.4968 3.812 44.7388 6.422 44.7388 8.798V9.104C44.7388 11.282 43.4608 14.198 39.6628 14.198H39.4108C37.1248 14.198 35.9008 13.154 35.4688 12.722V17.438H31.9588ZM55.6047 7.952L50.7807 14H47.1807V4.01H50.6907V10.058L55.5147 4.01H59.1147V14H55.6047V7.952ZM70.2242 14V6.674H66.2642C66.2642 9.356 66.1742 10.85 65.8322 11.768C65.4542 12.776 64.9502 14 62.3042 14H61.2062V11.39H61.4222C62.0522 11.39 62.5202 11.174 62.7182 10.256C62.8622 9.482 62.9162 8.636 62.9162 4.01H73.7342V14H70.2242ZM84.8316 14V6.674H80.8716C80.8716 9.356 80.7816 10.85 80.4396 11.768C80.0616 12.776 79.5576 14 76.9116 14H75.8136V11.39H76.0296C76.6596 11.39 77.1276 11.174 77.3256 10.256C77.4696 9.482 77.5236 8.636 77.5236 4.01H88.3416V14H84.8316ZM0.656 24.608H12.914V27.524H4.31V29.702H12.644V32.726H4.31V35.048H13.022V38H0.656V24.608ZM24.0301 38H15.7861V28.01H23.6701C25.9561 28.01 27.3961 28.82 27.3961 30.404V30.494C27.3961 31.736 26.6041 32.474 25.3981 32.672C26.6221 32.816 27.7201 33.68 27.7201 35.12V35.192C27.7201 37.01 26.5321 38 24.0301 38ZM19.2961 31.988H22.5181C23.3641 31.988 23.7961 31.664 23.7961 31.034V30.944C23.7961 30.368 23.4001 30.026 22.5181 30.026H19.2961V31.988ZM19.2961 35.984H22.6621C23.5981 35.984 24.1201 35.678 24.1201 34.976V34.832C24.1201 34.202 23.6881 33.806 22.6621 33.806H19.2961V35.984ZM30.165 38V28.01H38.877V30.674H33.675V38H30.165ZM46.5962 30.08C44.7782 30.08 44.0942 30.818 43.9142 31.862H49.2062C49.2062 31.124 48.8462 30.08 46.5962 30.08ZM49.2782 34.886H52.9322C52.9322 35.714 52.2842 38.234 47.1182 38.234H46.4522C41.5202 38.234 40.2962 35.534 40.2962 33.14V32.888C40.2962 30.638 41.4122 27.794 46.1462 27.794H46.9382C52.0502 27.794 52.9682 30.638 52.9682 33.428V33.752H43.8782C44.0222 34.904 44.7602 35.84 46.9022 35.84C48.9362 35.84 49.1882 35.048 49.2782 34.886ZM58.8821 38H55.3721V28.01H58.8821V31.646H63.7781V28.01H67.2881V38H63.7781V34.31H58.8821V38ZM70.208 38V28.01H73.718V30.872H76.454C79.874 30.872 81.206 32.384 81.206 34.292V34.508C81.206 36.596 79.874 38 76.454 38H70.208ZM73.718 35.624H76.022C76.742 35.624 77.606 35.408 77.606 34.436V34.382C77.606 33.482 76.742 33.248 76.022 33.248H73.718V35.624ZM89.2759 30.08C87.4579 30.08 86.7739 30.818 86.5939 31.862H91.8859C91.8859 31.124 91.5259 30.08 89.2759 30.08ZM91.9579 34.886H95.6119C95.6119 35.714 94.9639 38.234 89.7979 38.234H89.1319C84.1999 38.234 82.9759 35.534 82.9759 33.14V32.888C82.9759 30.638 84.0919 27.794 88.8259 27.794H89.6179C94.7299 27.794 95.6479 30.638 95.6479 33.428V33.752H86.5579C86.7019 34.904 87.4399 35.84 89.5819 35.84C91.6159 35.84 91.8679 35.048 91.9579 34.886ZM106.296 38H98.0518V28.01H105.936C108.222 28.01 109.662 28.82 109.662 30.404V30.494C109.662 31.736 108.87 32.474 107.664 32.672C108.888 32.816 109.986 33.68 109.986 35.12V35.192C109.986 37.01 108.798 38 106.296 38ZM101.562 31.988H104.784C105.63 31.988 106.062 31.664 106.062 31.034V30.944C106.062 30.368 105.666 30.026 104.784 30.026H101.562V31.988ZM101.562 35.984H104.928C105.864 35.984 106.386 35.678 106.386 34.976V34.832C106.386 34.202 105.954 33.806 104.928 33.806H101.562V35.984ZM120.855 31.952L116.031 38H112.431V28.01H115.941V34.058L120.765 28.01H124.365V38H120.855V31.952ZM134.7 28.01H138.21V38H134.7V34.562C133.926 34.652 133.026 34.742 132.09 34.742C128.13 34.742 126.636 33.626 126.636 30.458V28.01H130.146V29.81C130.146 31.682 130.776 32.006 132.63 32.006C133.332 32.006 134.142 31.952 134.7 31.88V28.01ZM11.834 62V56.618H4.364V62H0.656V48.608H4.364V53.576H11.834V48.608H15.542V62H11.834ZM23.3674 60.002C25.4194 60.002 26.1214 58.706 26.1214 57.95V57.176C25.8154 57.302 24.9334 57.482 23.9254 57.644C22.2334 57.932 21.6934 58.166 21.6934 58.868V58.904C21.6934 59.534 22.1434 60.002 23.3674 60.002ZM26.2294 60.614C25.7974 61.136 24.7174 62.198 22.3774 62.198H22.0894C19.2994 62.198 18.1474 60.686 18.1474 59.03V58.958C18.1474 57.23 19.2454 56.168 22.6294 55.88L25.3654 55.646C25.9234 55.592 26.1214 55.412 26.1214 54.998C26.1214 54.53 25.9774 54.026 24.0334 54.026C22.1974 54.026 22.0174 54.746 22.0174 55.124H18.4174V55.088C18.4174 54.098 18.8134 51.776 23.7274 51.776H24.2854C29.2354 51.776 29.5414 53.81 29.5414 55.142V58.436C29.5414 59.066 29.6674 59.318 30.3694 59.318H30.7474V62H27.9034C26.8594 62 26.3734 61.262 26.2294 60.614ZM43.963 59.048V59.156C43.963 61.154 42.289 62.27 38.455 62.27H38.131C34.027 62.27 32.245 60.74 32.245 58.67V58.526H36.007C36.061 59.642 37.087 60.056 38.311 60.056C39.625 60.056 40.345 59.66 40.345 58.868V58.814C40.345 58.076 39.769 57.896 38.761 57.896H36.385V55.754H38.761C39.535 55.754 40.021 55.448 40.021 54.872V54.818C40.021 54.224 39.427 53.918 38.221 53.918C36.871 53.918 36.151 54.242 36.097 54.944H32.335V54.89C32.335 52.748 34.837 51.74 38.095 51.74H38.383C41.749 51.74 43.639 52.55 43.639 54.422V54.494C43.639 56.006 42.487 56.582 41.659 56.78C42.667 56.978 43.963 57.464 43.963 59.048ZM51.0353 60.002C53.0873 60.002 53.7893 58.706 53.7893 57.95V57.176C53.4833 57.302 52.6013 57.482 51.5933 57.644C49.9013 57.932 49.3613 58.166 49.3613 58.868V58.904C49.3613 59.534 49.8113 60.002 51.0353 60.002ZM53.8973 60.614C53.4653 61.136 52.3853 62.198 50.0453 62.198H49.7573C46.9673 62.198 45.8153 60.686 45.8153 59.03V58.958C45.8153 57.23 46.9133 56.168 50.2973 55.88L53.0333 55.646C53.5913 55.592 53.7893 55.412 53.7893 54.998C53.7893 54.53 53.6453 54.026 51.7013 54.026C49.8653 54.026 49.6853 54.746 49.6853 55.124H46.0853V55.088C46.0853 54.098 46.4813 51.776 51.3953 51.776H51.9533C56.9033 51.776 57.2093 53.81 57.2093 55.142V58.436C57.2093 59.066 57.3353 59.318 58.0373 59.318H58.4153V62H55.5713C54.5273 62 54.0413 61.262 53.8973 60.614ZM69.597 57.014V56.96C69.597 55.88 69.093 54.422 66.897 54.422H66.717C64.611 54.422 63.945 55.808 63.945 56.96V57.014C63.945 58.112 64.611 59.552 66.717 59.552H66.897C69.093 59.552 69.597 58.04 69.597 57.014ZM60.453 65.438V52.01H63.927V53.288C64.359 52.82 65.673 51.812 67.941 51.812H68.175C71.991 51.812 73.233 54.422 73.233 56.798V57.104C73.233 59.282 71.955 62.198 68.157 62.198H67.905C65.619 62.198 64.395 61.154 63.963 60.722V65.438H60.453ZM81.9388 62.27H81.3808C75.9988 62.27 75.1708 58.994 75.1708 57.176V56.924C75.1708 55.124 75.9988 51.74 81.3628 51.74H81.9568C87.5008 51.74 88.1488 55.142 88.1488 56.906V57.194C88.1488 58.994 87.5008 62.27 81.9388 62.27ZM81.5608 59.642H81.7588C83.9728 59.642 84.5308 58.058 84.5308 56.96C84.5308 55.826 83.9728 54.314 81.7588 54.314H81.5608C79.2568 54.314 78.7888 55.826 78.7888 56.96C78.7888 58.058 79.2568 59.642 81.5608 59.642ZM98.8075 62H90.5635V52.01H98.4475C100.733 52.01 102.173 52.82 102.173 54.404V54.494C102.173 55.736 101.381 56.474 100.175 56.672C101.399 56.816 102.497 57.68 102.497 59.12V59.192C102.497 61.01 101.309 62 98.8075 62ZM94.0735 55.988H97.2955C98.1415 55.988 98.5735 55.664 98.5735 55.034V54.944C98.5735 54.368 98.1775 54.026 97.2955 54.026H94.0735V55.988ZM94.0735 59.984H97.4395C98.3755 59.984 98.8975 59.678 98.8975 58.976V58.832C98.8975 58.202 98.4655 57.806 97.4395 57.806H94.0735V59.984Z" fill="#C1A875" style="mix-blend-mode:color"/>
<defs>
<linearGradient id="paint0_linear_2018_1083" x1="-0.999999" y1="42" x2="221" y2="42" gradientUnits="userSpaceOnUse">
<stop stop-color="#576167"/>
<stop offset="0.191294" stop-color="#9EA1A2"/>
<stop offset="0.396166" stop-color="#848989"/>
<stop offset="0.62055" stop-color="#576167"/>
<stop offset="0.830299" stop-color="#757A7C"/>
<stop offset="1" stop-color="#576167"/>
</linearGradient>
<radialGradient id="paint1_radial_2018_1083" cx="0" cy="0" r="1" gradientUnits="userSpaceOnUse" gradientTransform="translate(117.226 5.19101) rotate(90) scale(71.3258 167.95)">
<stop stop-color="white"/>
<stop offset="1" stop-color="white" stop-opacity="0"/>
</radialGradient>
<radialGradient id="paint2_radial_2018_1083" cx="0" cy="0" r="1" gradientUnits="userSpaceOnUse" gradientTransform="translate(129.783 112.652) rotate(-89.8008) scale(102.203 240.163)">
<stop stop-color="white"/>
<stop offset="1" stop-color="white" stop-opacity="0"/>
</radialGradient>
</defs>
</svg>
