<svg width="146" height="63" viewBox="0 0 146 63" fill="none" xmlns="http://www.w3.org/2000/svg">
<path d="M1.656 14V0.608H11.43C15.264 0.608 16.218 2.282 16.218 3.776V3.974C16.218 5.666 14.76 6.476 13.752 6.62C15.264 6.872 16.884 7.772 16.884 9.932V10.13C16.884 11.948 15.786 14 11.484 14H1.656ZM10.89 3.398H5.364V5.792H10.89C12.024 5.792 12.348 5.252 12.348 4.622V4.586C12.348 3.938 11.988 3.398 10.89 3.398ZM11.178 8.42H5.364V11.066H11.178C12.474 11.066 12.852 10.382 12.852 9.716V9.644C12.852 8.978 12.474 8.42 11.178 8.42ZM27.7062 7.952L22.8822 14H19.2822V4.01H22.7922V10.058L27.6162 4.01H31.2162V14H27.7062V7.952ZM41.5697 14L37.6817 9.374V14H34.1717V4.01H37.6817V8.006L41.2457 4.01H45.2957L41.1197 8.492L45.7457 14H41.5697ZM50.0583 14V6.674H46.1883V4.01H57.4383V6.674H53.5683V14H50.0583ZM65.6068 14.27H65.0488C59.6668 14.27 58.8388 10.994 58.8388 9.176V8.924C58.8388 7.124 59.6668 3.74 65.0308 3.74H65.6248C71.1688 3.74 71.8168 7.142 71.8168 8.906V9.194C71.8168 10.994 71.1688 14.27 65.6068 14.27ZM65.2288 11.642H65.4268C67.6408 11.642 68.1988 10.058 68.1988 8.96C68.1988 7.826 67.6408 6.314 65.4268 6.314H65.2288C62.9248 6.314 62.4568 7.826 62.4568 8.96C62.4568 10.058 62.9248 11.642 65.2288 11.642ZM83.4114 9.014V8.96C83.4114 7.88 82.9074 6.422 80.7114 6.422H80.5314C78.4254 6.422 77.7594 7.808 77.7594 8.96V9.014C77.7594 10.112 78.4254 11.552 80.5314 11.552H80.7114C82.9074 11.552 83.4114 10.04 83.4114 9.014ZM74.2674 17.438V4.01H77.7414V5.288C78.1734 4.82 79.4874 3.812 81.7554 3.812H81.9894C85.8054 3.812 87.0474 6.422 87.0474 8.798V9.104C87.0474 11.282 85.7694 14.198 81.9714 14.198H81.7194C79.4334 14.198 78.2094 13.154 77.7774 12.722V17.438H74.2674ZM97.9133 7.952L93.0893 14H89.4893V4.01H92.9993V10.058L97.8233 4.01H101.423V14H97.9133V7.952ZM112.749 10.652H110.391L107.475 14H103.515L106.773 10.274C105.045 9.932 104.055 8.942 104.055 7.43V7.214C104.055 5.396 105.531 4.01 108.033 4.01H116.259V14H112.749V10.652ZM112.749 6.314H108.987C108.213 6.314 107.565 6.494 107.565 7.286V7.358C107.565 8.132 108.231 8.366 109.005 8.366H112.749V6.314ZM10.998 32.762L8.568 27.308L6.21 32.762H10.998ZM13.338 38L12.24 35.516H5.004L3.924 38H0.198L6.138 24.608H11.106L17.316 38H13.338ZM27.1558 38V30.674H23.1958C23.1958 33.356 23.1058 34.85 22.7638 35.768C22.3858 36.776 21.8818 38 19.2358 38H18.1378V35.39H18.3538C18.9838 35.39 19.4518 35.174 19.6498 34.256C19.7938 33.482 19.8478 32.636 19.8478 28.01H30.6658V38H27.1558ZM39.3872 30.08C37.5692 30.08 36.8852 30.818 36.7052 31.862H41.9972C41.9972 31.124 41.6372 30.08 39.3872 30.08ZM42.0692 34.886H45.7232C45.7232 35.714 45.0752 38.234 39.9092 38.234H39.2432C34.3112 38.234 33.0872 35.534 33.0872 33.14V32.888C33.0872 30.638 34.2032 27.794 38.9372 27.794H39.7292C44.8412 27.794 45.7592 30.638 45.7592 33.428V33.752H36.6692C36.8132 34.904 37.5512 35.84 39.6932 35.84C41.7272 35.84 41.9792 35.048 42.0692 34.886ZM55.5971 38L51.7091 33.374V38H48.1991V28.01H51.7091V32.006L55.2731 28.01H59.3231L55.1471 32.492L59.7731 38H55.5971ZM69.1186 34.076H72.7906C72.7906 35.588 71.8906 38.27 67.0846 38.27H66.2026C61.2166 38.27 60.2806 35.03 60.2806 33.14V32.888C60.2806 30.998 61.1626 27.74 66.1846 27.74H67.0126C71.8366 27.74 72.7906 30.368 72.7906 31.808V31.826H69.1186C69.0646 31.538 68.7226 30.296 66.6526 30.296H66.4726C64.4026 30.296 63.9166 31.718 63.9166 32.924V32.942C63.9166 34.184 64.5106 35.66 66.5446 35.66H66.7246C68.8126 35.66 69.1186 34.31 69.1186 34.076ZM80.9947 30.08C79.1767 30.08 78.4927 30.818 78.3127 31.862H83.6047C83.6047 31.124 83.2447 30.08 80.9947 30.08ZM83.6767 34.886H87.3307C87.3307 35.714 86.6827 38.234 81.5167 38.234H80.8507C75.9187 38.234 74.6947 35.534 74.6947 33.14V32.888C74.6947 30.638 75.8107 27.794 80.5447 27.794H81.3367C86.4487 27.794 87.3667 30.638 87.3667 33.428V33.752H78.2767C78.4207 34.904 79.1587 35.84 81.3007 35.84C83.3347 35.84 83.5867 35.048 83.6767 34.886ZM95.5845 30.08C93.7665 30.08 93.0825 30.818 92.9025 31.862H98.1945C98.1945 31.124 97.8345 30.08 95.5845 30.08ZM98.2665 34.886H101.921C101.921 35.714 101.273 38.234 96.1065 38.234H95.4405C90.5085 38.234 89.2845 35.534 89.2845 33.14V32.888C89.2845 30.638 90.4005 27.794 95.1345 27.794H95.9265C101.039 27.794 101.957 30.638 101.957 33.428V33.752H92.8665C93.0105 34.904 93.7485 35.84 95.8905 35.84C97.9245 35.84 98.1765 35.048 98.2665 34.886ZM112.604 38H104.36V28.01H112.244C114.53 28.01 115.97 28.82 115.97 30.404V30.494C115.97 31.736 115.178 32.474 113.972 32.672C115.196 32.816 116.294 33.68 116.294 35.12V35.192C116.294 37.01 115.106 38 112.604 38ZM107.87 31.988H111.092C111.938 31.988 112.37 31.664 112.37 31.034V30.944C112.37 30.368 111.974 30.026 111.092 30.026H107.87V31.988ZM107.87 35.984H111.236C112.172 35.984 112.694 35.678 112.694 34.976V34.832C112.694 34.202 112.262 33.806 111.236 33.806H107.87V35.984ZM122.249 38H118.739V28.01H122.249V31.646H127.145V28.01H130.655V38H127.145V34.31H122.249V38ZM138.291 36.002C140.343 36.002 141.045 34.706 141.045 33.95V33.176C140.739 33.302 139.857 33.482 138.849 33.644C137.157 33.932 136.617 34.166 136.617 34.868V34.904C136.617 35.534 137.067 36.002 138.291 36.002ZM141.153 36.614C140.721 37.136 139.641 38.198 137.301 38.198H137.013C134.223 38.198 133.071 36.686 133.071 35.03V34.958C133.071 33.23 134.169 32.168 137.553 31.88L140.289 31.646C140.847 31.592 141.045 31.412 141.045 30.998C141.045 30.53 140.901 30.026 138.957 30.026C137.121 30.026 136.941 30.746 136.941 31.124H133.341V31.088C133.341 30.098 133.737 27.776 138.651 27.776H139.209C144.159 27.776 144.465 29.81 144.465 31.142V34.436C144.465 35.066 144.591 35.318 145.293 35.318H145.671V38H142.827C141.783 38 141.297 37.262 141.153 36.614ZM16.272 57.968V58.148C16.272 61.01 13.608 62.234 8.928 62.234H8.496C4.68 62.234 1.008 61.1 1.008 57.5V57.284H4.968C4.968 58.94 6.444 59.516 9.126 59.516C11.358 59.516 12.42 58.922 12.42 57.842C12.42 56.834 11.718 56.402 9.972 56.402H6.102V53.756H9.774C10.854 53.756 12.006 53.594 12.006 52.586C12.006 51.452 11.034 51.092 8.676 51.092C6.75 51.092 5.13 51.452 5.076 52.964H1.116V52.694C1.116 49.508 4.59 48.446 8.316 48.446H8.892C13.41 48.446 15.858 49.58 15.858 51.83V51.956C15.858 53.666 14.724 54.494 13.284 54.872C14.724 55.16 16.272 56.096 16.272 57.968ZM18.5791 62V52.01H22.0891V54.872H24.8251C28.2451 54.872 29.5771 56.384 29.5771 58.292V58.508C29.5771 60.596 28.2451 62 24.8251 62H18.5791ZM22.0891 59.624H24.3931C25.1131 59.624 25.9771 59.408 25.9771 58.436V58.382C25.9771 57.482 25.1131 57.248 24.3931 57.248H22.0891V59.624ZM34.3651 52.01V62H30.8551V52.01H34.3651ZM44.7162 62L40.8282 57.374V62H37.3182V52.01H40.8282V56.006L44.3922 52.01H48.4422L44.2662 56.492L48.8922 62H44.7162ZM56.1497 62.27H55.5917C50.2097 62.27 49.3817 58.994 49.3817 57.176V56.924C49.3817 55.124 50.2097 51.74 55.5737 51.74H56.1677C61.7117 51.74 62.3597 55.142 62.3597 56.906V57.194C62.3597 58.994 61.7117 62.27 56.1497 62.27ZM55.7717 59.642H55.9697C58.1837 59.642 58.7417 58.058 58.7417 56.96C58.7417 55.826 58.1837 54.314 55.9697 54.314H55.7717C53.4677 54.314 52.9997 55.826 52.9997 56.96C52.9997 58.058 53.4677 59.642 55.7717 59.642ZM73.0184 62H64.7744V52.01H72.6584C74.9444 52.01 76.3844 52.82 76.3844 54.404V54.494C76.3844 55.736 75.5924 56.474 74.3864 56.672C75.6104 56.816 76.7084 57.68 76.7084 59.12V59.192C76.7084 61.01 75.5204 62 73.0184 62ZM68.2844 55.988H71.5064C72.3524 55.988 72.7844 55.664 72.7844 55.034V54.944C72.7844 54.368 72.3884 54.026 71.5064 54.026H68.2844V55.988ZM68.2844 59.984H71.6504C72.5864 59.984 73.1084 59.678 73.1084 58.976V58.832C73.1084 58.202 72.6764 57.806 71.6504 57.806H68.2844V59.984ZM83.7814 60.002C85.8334 60.002 86.5354 58.706 86.5354 57.95V57.176C86.2294 57.302 85.3474 57.482 84.3394 57.644C82.6474 57.932 82.1074 58.166 82.1074 58.868V58.904C82.1074 59.534 82.5574 60.002 83.7814 60.002ZM86.6434 60.614C86.2114 61.136 85.1314 62.198 82.7914 62.198H82.5034C79.7134 62.198 78.5614 60.686 78.5614 59.03V58.958C78.5614 57.23 79.6594 56.168 83.0434 55.88L85.7794 55.646C86.3374 55.592 86.5354 55.412 86.5354 54.998C86.5354 54.53 86.3914 54.026 84.4474 54.026C82.6114 54.026 82.4314 54.746 82.4314 55.124H78.8314V55.088C78.8314 54.098 79.2274 51.776 84.1414 51.776H84.6994C89.6494 51.776 89.9554 53.81 89.9554 55.142V58.436C89.9554 59.066 90.0814 59.318 90.7834 59.318H91.1614V62H88.3174C87.2734 62 86.7874 61.262 86.6434 60.614Z" fill="url(#paint0_linear_2018_1148)"/>
<path d="M1.656 14V0.608H11.43C15.264 0.608 16.218 2.282 16.218 3.776V3.974C16.218 5.666 14.76 6.476 13.752 6.62C15.264 6.872 16.884 7.772 16.884 9.932V10.13C16.884 11.948 15.786 14 11.484 14H1.656ZM10.89 3.398H5.364V5.792H10.89C12.024 5.792 12.348 5.252 12.348 4.622V4.586C12.348 3.938 11.988 3.398 10.89 3.398ZM11.178 8.42H5.364V11.066H11.178C12.474 11.066 12.852 10.382 12.852 9.716V9.644C12.852 8.978 12.474 8.42 11.178 8.42ZM27.7062 7.952L22.8822 14H19.2822V4.01H22.7922V10.058L27.6162 4.01H31.2162V14H27.7062V7.952ZM41.5697 14L37.6817 9.374V14H34.1717V4.01H37.6817V8.006L41.2457 4.01H45.2957L41.1197 8.492L45.7457 14H41.5697ZM50.0583 14V6.674H46.1883V4.01H57.4383V6.674H53.5683V14H50.0583ZM65.6068 14.27H65.0488C59.6668 14.27 58.8388 10.994 58.8388 9.176V8.924C58.8388 7.124 59.6668 3.74 65.0308 3.74H65.6248C71.1688 3.74 71.8168 7.142 71.8168 8.906V9.194C71.8168 10.994 71.1688 14.27 65.6068 14.27ZM65.2288 11.642H65.4268C67.6408 11.642 68.1988 10.058 68.1988 8.96C68.1988 7.826 67.6408 6.314 65.4268 6.314H65.2288C62.9248 6.314 62.4568 7.826 62.4568 8.96C62.4568 10.058 62.9248 11.642 65.2288 11.642ZM83.4114 9.014V8.96C83.4114 7.88 82.9074 6.422 80.7114 6.422H80.5314C78.4254 6.422 77.7594 7.808 77.7594 8.96V9.014C77.7594 10.112 78.4254 11.552 80.5314 11.552H80.7114C82.9074 11.552 83.4114 10.04 83.4114 9.014ZM74.2674 17.438V4.01H77.7414V5.288C78.1734 4.82 79.4874 3.812 81.7554 3.812H81.9894C85.8054 3.812 87.0474 6.422 87.0474 8.798V9.104C87.0474 11.282 85.7694 14.198 81.9714 14.198H81.7194C79.4334 14.198 78.2094 13.154 77.7774 12.722V17.438H74.2674ZM97.9133 7.952L93.0893 14H89.4893V4.01H92.9993V10.058L97.8233 4.01H101.423V14H97.9133V7.952ZM112.749 10.652H110.391L107.475 14H103.515L106.773 10.274C105.045 9.932 104.055 8.942 104.055 7.43V7.214C104.055 5.396 105.531 4.01 108.033 4.01H116.259V14H112.749V10.652ZM112.749 6.314H108.987C108.213 6.314 107.565 6.494 107.565 7.286V7.358C107.565 8.132 108.231 8.366 109.005 8.366H112.749V6.314ZM10.998 32.762L8.568 27.308L6.21 32.762H10.998ZM13.338 38L12.24 35.516H5.004L3.924 38H0.198L6.138 24.608H11.106L17.316 38H13.338ZM27.1558 38V30.674H23.1958C23.1958 33.356 23.1058 34.85 22.7638 35.768C22.3858 36.776 21.8818 38 19.2358 38H18.1378V35.39H18.3538C18.9838 35.39 19.4518 35.174 19.6498 34.256C19.7938 33.482 19.8478 32.636 19.8478 28.01H30.6658V38H27.1558ZM39.3872 30.08C37.5692 30.08 36.8852 30.818 36.7052 31.862H41.9972C41.9972 31.124 41.6372 30.08 39.3872 30.08ZM42.0692 34.886H45.7232C45.7232 35.714 45.0752 38.234 39.9092 38.234H39.2432C34.3112 38.234 33.0872 35.534 33.0872 33.14V32.888C33.0872 30.638 34.2032 27.794 38.9372 27.794H39.7292C44.8412 27.794 45.7592 30.638 45.7592 33.428V33.752H36.6692C36.8132 34.904 37.5512 35.84 39.6932 35.84C41.7272 35.84 41.9792 35.048 42.0692 34.886ZM55.5971 38L51.7091 33.374V38H48.1991V28.01H51.7091V32.006L55.2731 28.01H59.3231L55.1471 32.492L59.7731 38H55.5971ZM69.1186 34.076H72.7906C72.7906 35.588 71.8906 38.27 67.0846 38.27H66.2026C61.2166 38.27 60.2806 35.03 60.2806 33.14V32.888C60.2806 30.998 61.1626 27.74 66.1846 27.74H67.0126C71.8366 27.74 72.7906 30.368 72.7906 31.808V31.826H69.1186C69.0646 31.538 68.7226 30.296 66.6526 30.296H66.4726C64.4026 30.296 63.9166 31.718 63.9166 32.924V32.942C63.9166 34.184 64.5106 35.66 66.5446 35.66H66.7246C68.8126 35.66 69.1186 34.31 69.1186 34.076ZM80.9947 30.08C79.1767 30.08 78.4927 30.818 78.3127 31.862H83.6047C83.6047 31.124 83.2447 30.08 80.9947 30.08ZM83.6767 34.886H87.3307C87.3307 35.714 86.6827 38.234 81.5167 38.234H80.8507C75.9187 38.234 74.6947 35.534 74.6947 33.14V32.888C74.6947 30.638 75.8107 27.794 80.5447 27.794H81.3367C86.4487 27.794 87.3667 30.638 87.3667 33.428V33.752H78.2767C78.4207 34.904 79.1587 35.84 81.3007 35.84C83.3347 35.84 83.5867 35.048 83.6767 34.886ZM95.5845 30.08C93.7665 30.08 93.0825 30.818 92.9025 31.862H98.1945C98.1945 31.124 97.8345 30.08 95.5845 30.08ZM98.2665 34.886H101.921C101.921 35.714 101.273 38.234 96.1065 38.234H95.4405C90.5085 38.234 89.2845 35.534 89.2845 33.14V32.888C89.2845 30.638 90.4005 27.794 95.1345 27.794H95.9265C101.039 27.794 101.957 30.638 101.957 33.428V33.752H92.8665C93.0105 34.904 93.7485 35.84 95.8905 35.84C97.9245 35.84 98.1765 35.048 98.2665 34.886ZM112.604 38H104.36V28.01H112.244C114.53 28.01 115.97 28.82 115.97 30.404V30.494C115.97 31.736 115.178 32.474 113.972 32.672C115.196 32.816 116.294 33.68 116.294 35.12V35.192C116.294 37.01 115.106 38 112.604 38ZM107.87 31.988H111.092C111.938 31.988 112.37 31.664 112.37 31.034V30.944C112.37 30.368 111.974 30.026 111.092 30.026H107.87V31.988ZM107.87 35.984H111.236C112.172 35.984 112.694 35.678 112.694 34.976V34.832C112.694 34.202 112.262 33.806 111.236 33.806H107.87V35.984ZM122.249 38H118.739V28.01H122.249V31.646H127.145V28.01H130.655V38H127.145V34.31H122.249V38ZM138.291 36.002C140.343 36.002 141.045 34.706 141.045 33.95V33.176C140.739 33.302 139.857 33.482 138.849 33.644C137.157 33.932 136.617 34.166 136.617 34.868V34.904C136.617 35.534 137.067 36.002 138.291 36.002ZM141.153 36.614C140.721 37.136 139.641 38.198 137.301 38.198H137.013C134.223 38.198 133.071 36.686 133.071 35.03V34.958C133.071 33.23 134.169 32.168 137.553 31.88L140.289 31.646C140.847 31.592 141.045 31.412 141.045 30.998C141.045 30.53 140.901 30.026 138.957 30.026C137.121 30.026 136.941 30.746 136.941 31.124H133.341V31.088C133.341 30.098 133.737 27.776 138.651 27.776H139.209C144.159 27.776 144.465 29.81 144.465 31.142V34.436C144.465 35.066 144.591 35.318 145.293 35.318H145.671V38H142.827C141.783 38 141.297 37.262 141.153 36.614ZM16.272 57.968V58.148C16.272 61.01 13.608 62.234 8.928 62.234H8.496C4.68 62.234 1.008 61.1 1.008 57.5V57.284H4.968C4.968 58.94 6.444 59.516 9.126 59.516C11.358 59.516 12.42 58.922 12.42 57.842C12.42 56.834 11.718 56.402 9.972 56.402H6.102V53.756H9.774C10.854 53.756 12.006 53.594 12.006 52.586C12.006 51.452 11.034 51.092 8.676 51.092C6.75 51.092 5.13 51.452 5.076 52.964H1.116V52.694C1.116 49.508 4.59 48.446 8.316 48.446H8.892C13.41 48.446 15.858 49.58 15.858 51.83V51.956C15.858 53.666 14.724 54.494 13.284 54.872C14.724 55.16 16.272 56.096 16.272 57.968ZM18.5791 62V52.01H22.0891V54.872H24.8251C28.2451 54.872 29.5771 56.384 29.5771 58.292V58.508C29.5771 60.596 28.2451 62 24.8251 62H18.5791ZM22.0891 59.624H24.3931C25.1131 59.624 25.9771 59.408 25.9771 58.436V58.382C25.9771 57.482 25.1131 57.248 24.3931 57.248H22.0891V59.624ZM34.3651 52.01V62H30.8551V52.01H34.3651ZM44.7162 62L40.8282 57.374V62H37.3182V52.01H40.8282V56.006L44.3922 52.01H48.4422L44.2662 56.492L48.8922 62H44.7162ZM56.1497 62.27H55.5917C50.2097 62.27 49.3817 58.994 49.3817 57.176V56.924C49.3817 55.124 50.2097 51.74 55.5737 51.74H56.1677C61.7117 51.74 62.3597 55.142 62.3597 56.906V57.194C62.3597 58.994 61.7117 62.27 56.1497 62.27ZM55.7717 59.642H55.9697C58.1837 59.642 58.7417 58.058 58.7417 56.96C58.7417 55.826 58.1837 54.314 55.9697 54.314H55.7717C53.4677 54.314 52.9997 55.826 52.9997 56.96C52.9997 58.058 53.4677 59.642 55.7717 59.642ZM73.0184 62H64.7744V52.01H72.6584C74.9444 52.01 76.3844 52.82 76.3844 54.404V54.494C76.3844 55.736 75.5924 56.474 74.3864 56.672C75.6104 56.816 76.7084 57.68 76.7084 59.12V59.192C76.7084 61.01 75.5204 62 73.0184 62ZM68.2844 55.988H71.5064C72.3524 55.988 72.7844 55.664 72.7844 55.034V54.944C72.7844 54.368 72.3884 54.026 71.5064 54.026H68.2844V55.988ZM68.2844 59.984H71.6504C72.5864 59.984 73.1084 59.678 73.1084 58.976V58.832C73.1084 58.202 72.6764 57.806 71.6504 57.806H68.2844V59.984ZM83.7814 60.002C85.8334 60.002 86.5354 58.706 86.5354 57.95V57.176C86.2294 57.302 85.3474 57.482 84.3394 57.644C82.6474 57.932 82.1074 58.166 82.1074 58.868V58.904C82.1074 59.534 82.5574 60.002 83.7814 60.002ZM86.6434 60.614C86.2114 61.136 85.1314 62.198 82.7914 62.198H82.5034C79.7134 62.198 78.5614 60.686 78.5614 59.03V58.958C78.5614 57.23 79.6594 56.168 83.0434 55.88L85.7794 55.646C86.3374 55.592 86.5354 55.412 86.5354 54.998C86.5354 54.53 86.3914 54.026 84.4474 54.026C82.6114 54.026 82.4314 54.746 82.4314 55.124H78.8314V55.088C78.8314 54.098 79.2274 51.776 84.1414 51.776H84.6994C89.6494 51.776 89.9554 53.81 89.9554 55.142V58.436C89.9554 59.066 90.0814 59.318 90.7834 59.318H91.1614V62H88.3174C87.2734 62 86.7874 61.262 86.6434 60.614Z" fill="url(#paint1_radial_2018_1148)" style="mix-blend-mode:overlay"/>
<path d="M1.656 14V0.608H11.43C15.264 0.608 16.218 2.282 16.218 3.776V3.974C16.218 5.666 14.76 6.476 13.752 6.62C15.264 6.872 16.884 7.772 16.884 9.932V10.13C16.884 11.948 15.786 14 11.484 14H1.656ZM10.89 3.398H5.364V5.792H10.89C12.024 5.792 12.348 5.252 12.348 4.622V4.586C12.348 3.938 11.988 3.398 10.89 3.398ZM11.178 8.42H5.364V11.066H11.178C12.474 11.066 12.852 10.382 12.852 9.716V9.644C12.852 8.978 12.474 8.42 11.178 8.42ZM27.7062 7.952L22.8822 14H19.2822V4.01H22.7922V10.058L27.6162 4.01H31.2162V14H27.7062V7.952ZM41.5697 14L37.6817 9.374V14H34.1717V4.01H37.6817V8.006L41.2457 4.01H45.2957L41.1197 8.492L45.7457 14H41.5697ZM50.0583 14V6.674H46.1883V4.01H57.4383V6.674H53.5683V14H50.0583ZM65.6068 14.27H65.0488C59.6668 14.27 58.8388 10.994 58.8388 9.176V8.924C58.8388 7.124 59.6668 3.74 65.0308 3.74H65.6248C71.1688 3.74 71.8168 7.142 71.8168 8.906V9.194C71.8168 10.994 71.1688 14.27 65.6068 14.27ZM65.2288 11.642H65.4268C67.6408 11.642 68.1988 10.058 68.1988 8.96C68.1988 7.826 67.6408 6.314 65.4268 6.314H65.2288C62.9248 6.314 62.4568 7.826 62.4568 8.96C62.4568 10.058 62.9248 11.642 65.2288 11.642ZM83.4114 9.014V8.96C83.4114 7.88 82.9074 6.422 80.7114 6.422H80.5314C78.4254 6.422 77.7594 7.808 77.7594 8.96V9.014C77.7594 10.112 78.4254 11.552 80.5314 11.552H80.7114C82.9074 11.552 83.4114 10.04 83.4114 9.014ZM74.2674 17.438V4.01H77.7414V5.288C78.1734 4.82 79.4874 3.812 81.7554 3.812H81.9894C85.8054 3.812 87.0474 6.422 87.0474 8.798V9.104C87.0474 11.282 85.7694 14.198 81.9714 14.198H81.7194C79.4334 14.198 78.2094 13.154 77.7774 12.722V17.438H74.2674ZM97.9133 7.952L93.0893 14H89.4893V4.01H92.9993V10.058L97.8233 4.01H101.423V14H97.9133V7.952ZM112.749 10.652H110.391L107.475 14H103.515L106.773 10.274C105.045 9.932 104.055 8.942 104.055 7.43V7.214C104.055 5.396 105.531 4.01 108.033 4.01H116.259V14H112.749V10.652ZM112.749 6.314H108.987C108.213 6.314 107.565 6.494 107.565 7.286V7.358C107.565 8.132 108.231 8.366 109.005 8.366H112.749V6.314ZM10.998 32.762L8.568 27.308L6.21 32.762H10.998ZM13.338 38L12.24 35.516H5.004L3.924 38H0.198L6.138 24.608H11.106L17.316 38H13.338ZM27.1558 38V30.674H23.1958C23.1958 33.356 23.1058 34.85 22.7638 35.768C22.3858 36.776 21.8818 38 19.2358 38H18.1378V35.39H18.3538C18.9838 35.39 19.4518 35.174 19.6498 34.256C19.7938 33.482 19.8478 32.636 19.8478 28.01H30.6658V38H27.1558ZM39.3872 30.08C37.5692 30.08 36.8852 30.818 36.7052 31.862H41.9972C41.9972 31.124 41.6372 30.08 39.3872 30.08ZM42.0692 34.886H45.7232C45.7232 35.714 45.0752 38.234 39.9092 38.234H39.2432C34.3112 38.234 33.0872 35.534 33.0872 33.14V32.888C33.0872 30.638 34.2032 27.794 38.9372 27.794H39.7292C44.8412 27.794 45.7592 30.638 45.7592 33.428V33.752H36.6692C36.8132 34.904 37.5512 35.84 39.6932 35.84C41.7272 35.84 41.9792 35.048 42.0692 34.886ZM55.5971 38L51.7091 33.374V38H48.1991V28.01H51.7091V32.006L55.2731 28.01H59.3231L55.1471 32.492L59.7731 38H55.5971ZM69.1186 34.076H72.7906C72.7906 35.588 71.8906 38.27 67.0846 38.27H66.2026C61.2166 38.27 60.2806 35.03 60.2806 33.14V32.888C60.2806 30.998 61.1626 27.74 66.1846 27.74H67.0126C71.8366 27.74 72.7906 30.368 72.7906 31.808V31.826H69.1186C69.0646 31.538 68.7226 30.296 66.6526 30.296H66.4726C64.4026 30.296 63.9166 31.718 63.9166 32.924V32.942C63.9166 34.184 64.5106 35.66 66.5446 35.66H66.7246C68.8126 35.66 69.1186 34.31 69.1186 34.076ZM80.9947 30.08C79.1767 30.08 78.4927 30.818 78.3127 31.862H83.6047C83.6047 31.124 83.2447 30.08 80.9947 30.08ZM83.6767 34.886H87.3307C87.3307 35.714 86.6827 38.234 81.5167 38.234H80.8507C75.9187 38.234 74.6947 35.534 74.6947 33.14V32.888C74.6947 30.638 75.8107 27.794 80.5447 27.794H81.3367C86.4487 27.794 87.3667 30.638 87.3667 33.428V33.752H78.2767C78.4207 34.904 79.1587 35.84 81.3007 35.84C83.3347 35.84 83.5867 35.048 83.6767 34.886ZM95.5845 30.08C93.7665 30.08 93.0825 30.818 92.9025 31.862H98.1945C98.1945 31.124 97.8345 30.08 95.5845 30.08ZM98.2665 34.886H101.921C101.921 35.714 101.273 38.234 96.1065 38.234H95.4405C90.5085 38.234 89.2845 35.534 89.2845 33.14V32.888C89.2845 30.638 90.4005 27.794 95.1345 27.794H95.9265C101.039 27.794 101.957 30.638 101.957 33.428V33.752H92.8665C93.0105 34.904 93.7485 35.84 95.8905 35.84C97.9245 35.84 98.1765 35.048 98.2665 34.886ZM112.604 38H104.36V28.01H112.244C114.53 28.01 115.97 28.82 115.97 30.404V30.494C115.97 31.736 115.178 32.474 113.972 32.672C115.196 32.816 116.294 33.68 116.294 35.12V35.192C116.294 37.01 115.106 38 112.604 38ZM107.87 31.988H111.092C111.938 31.988 112.37 31.664 112.37 31.034V30.944C112.37 30.368 111.974 30.026 111.092 30.026H107.87V31.988ZM107.87 35.984H111.236C112.172 35.984 112.694 35.678 112.694 34.976V34.832C112.694 34.202 112.262 33.806 111.236 33.806H107.87V35.984ZM122.249 38H118.739V28.01H122.249V31.646H127.145V28.01H130.655V38H127.145V34.31H122.249V38ZM138.291 36.002C140.343 36.002 141.045 34.706 141.045 33.95V33.176C140.739 33.302 139.857 33.482 138.849 33.644C137.157 33.932 136.617 34.166 136.617 34.868V34.904C136.617 35.534 137.067 36.002 138.291 36.002ZM141.153 36.614C140.721 37.136 139.641 38.198 137.301 38.198H137.013C134.223 38.198 133.071 36.686 133.071 35.03V34.958C133.071 33.23 134.169 32.168 137.553 31.88L140.289 31.646C140.847 31.592 141.045 31.412 141.045 30.998C141.045 30.53 140.901 30.026 138.957 30.026C137.121 30.026 136.941 30.746 136.941 31.124H133.341V31.088C133.341 30.098 133.737 27.776 138.651 27.776H139.209C144.159 27.776 144.465 29.81 144.465 31.142V34.436C144.465 35.066 144.591 35.318 145.293 35.318H145.671V38H142.827C141.783 38 141.297 37.262 141.153 36.614ZM16.272 57.968V58.148C16.272 61.01 13.608 62.234 8.928 62.234H8.496C4.68 62.234 1.008 61.1 1.008 57.5V57.284H4.968C4.968 58.94 6.444 59.516 9.126 59.516C11.358 59.516 12.42 58.922 12.42 57.842C12.42 56.834 11.718 56.402 9.972 56.402H6.102V53.756H9.774C10.854 53.756 12.006 53.594 12.006 52.586C12.006 51.452 11.034 51.092 8.676 51.092C6.75 51.092 5.13 51.452 5.076 52.964H1.116V52.694C1.116 49.508 4.59 48.446 8.316 48.446H8.892C13.41 48.446 15.858 49.58 15.858 51.83V51.956C15.858 53.666 14.724 54.494 13.284 54.872C14.724 55.16 16.272 56.096 16.272 57.968ZM18.5791 62V52.01H22.0891V54.872H24.8251C28.2451 54.872 29.5771 56.384 29.5771 58.292V58.508C29.5771 60.596 28.2451 62 24.8251 62H18.5791ZM22.0891 59.624H24.3931C25.1131 59.624 25.9771 59.408 25.9771 58.436V58.382C25.9771 57.482 25.1131 57.248 24.3931 57.248H22.0891V59.624ZM34.3651 52.01V62H30.8551V52.01H34.3651ZM44.7162 62L40.8282 57.374V62H37.3182V52.01H40.8282V56.006L44.3922 52.01H48.4422L44.2662 56.492L48.8922 62H44.7162ZM56.1497 62.27H55.5917C50.2097 62.27 49.3817 58.994 49.3817 57.176V56.924C49.3817 55.124 50.2097 51.74 55.5737 51.74H56.1677C61.7117 51.74 62.3597 55.142 62.3597 56.906V57.194C62.3597 58.994 61.7117 62.27 56.1497 62.27ZM55.7717 59.642H55.9697C58.1837 59.642 58.7417 58.058 58.7417 56.96C58.7417 55.826 58.1837 54.314 55.9697 54.314H55.7717C53.4677 54.314 52.9997 55.826 52.9997 56.96C52.9997 58.058 53.4677 59.642 55.7717 59.642ZM73.0184 62H64.7744V52.01H72.6584C74.9444 52.01 76.3844 52.82 76.3844 54.404V54.494C76.3844 55.736 75.5924 56.474 74.3864 56.672C75.6104 56.816 76.7084 57.68 76.7084 59.12V59.192C76.7084 61.01 75.5204 62 73.0184 62ZM68.2844 55.988H71.5064C72.3524 55.988 72.7844 55.664 72.7844 55.034V54.944C72.7844 54.368 72.3884 54.026 71.5064 54.026H68.2844V55.988ZM68.2844 59.984H71.6504C72.5864 59.984 73.1084 59.678 73.1084 58.976V58.832C73.1084 58.202 72.6764 57.806 71.6504 57.806H68.2844V59.984ZM83.7814 60.002C85.8334 60.002 86.5354 58.706 86.5354 57.95V57.176C86.2294 57.302 85.3474 57.482 84.3394 57.644C82.6474 57.932 82.1074 58.166 82.1074 58.868V58.904C82.1074 59.534 82.5574 60.002 83.7814 60.002ZM86.6434 60.614C86.2114 61.136 85.1314 62.198 82.7914 62.198H82.5034C79.7134 62.198 78.5614 60.686 78.5614 59.03V58.958C78.5614 57.23 79.6594 56.168 83.0434 55.88L85.7794 55.646C86.3374 55.592 86.5354 55.412 86.5354 54.998C86.5354 54.53 86.3914 54.026 84.4474 54.026C82.6114 54.026 82.4314 54.746 82.4314 55.124H78.8314V55.088C78.8314 54.098 79.2274 51.776 84.1414 51.776H84.6994C89.6494 51.776 89.9554 53.81 89.9554 55.142V58.436C89.9554 59.066 90.0814 59.318 90.7834 59.318H91.1614V62H88.3174C87.2734 62 86.7874 61.262 86.6434 60.614Z" fill="url(#paint2_radial_2018_1148)"/>
<path d="M1.656 14V0.608H11.43C15.264 0.608 16.218 2.282 16.218 3.776V3.974C16.218 5.666 14.76 6.476 13.752 6.62C15.264 6.872 16.884 7.772 16.884 9.932V10.13C16.884 11.948 15.786 14 11.484 14H1.656ZM10.89 3.398H5.364V5.792H10.89C12.024 5.792 12.348 5.252 12.348 4.622V4.586C12.348 3.938 11.988 3.398 10.89 3.398ZM11.178 8.42H5.364V11.066H11.178C12.474 11.066 12.852 10.382 12.852 9.716V9.644C12.852 8.978 12.474 8.42 11.178 8.42ZM27.7062 7.952L22.8822 14H19.2822V4.01H22.7922V10.058L27.6162 4.01H31.2162V14H27.7062V7.952ZM41.5697 14L37.6817 9.374V14H34.1717V4.01H37.6817V8.006L41.2457 4.01H45.2957L41.1197 8.492L45.7457 14H41.5697ZM50.0583 14V6.674H46.1883V4.01H57.4383V6.674H53.5683V14H50.0583ZM65.6068 14.27H65.0488C59.6668 14.27 58.8388 10.994 58.8388 9.176V8.924C58.8388 7.124 59.6668 3.74 65.0308 3.74H65.6248C71.1688 3.74 71.8168 7.142 71.8168 8.906V9.194C71.8168 10.994 71.1688 14.27 65.6068 14.27ZM65.2288 11.642H65.4268C67.6408 11.642 68.1988 10.058 68.1988 8.96C68.1988 7.826 67.6408 6.314 65.4268 6.314H65.2288C62.9248 6.314 62.4568 7.826 62.4568 8.96C62.4568 10.058 62.9248 11.642 65.2288 11.642ZM83.4114 9.014V8.96C83.4114 7.88 82.9074 6.422 80.7114 6.422H80.5314C78.4254 6.422 77.7594 7.808 77.7594 8.96V9.014C77.7594 10.112 78.4254 11.552 80.5314 11.552H80.7114C82.9074 11.552 83.4114 10.04 83.4114 9.014ZM74.2674 17.438V4.01H77.7414V5.288C78.1734 4.82 79.4874 3.812 81.7554 3.812H81.9894C85.8054 3.812 87.0474 6.422 87.0474 8.798V9.104C87.0474 11.282 85.7694 14.198 81.9714 14.198H81.7194C79.4334 14.198 78.2094 13.154 77.7774 12.722V17.438H74.2674ZM97.9133 7.952L93.0893 14H89.4893V4.01H92.9993V10.058L97.8233 4.01H101.423V14H97.9133V7.952ZM112.749 10.652H110.391L107.475 14H103.515L106.773 10.274C105.045 9.932 104.055 8.942 104.055 7.43V7.214C104.055 5.396 105.531 4.01 108.033 4.01H116.259V14H112.749V10.652ZM112.749 6.314H108.987C108.213 6.314 107.565 6.494 107.565 7.286V7.358C107.565 8.132 108.231 8.366 109.005 8.366H112.749V6.314ZM10.998 32.762L8.568 27.308L6.21 32.762H10.998ZM13.338 38L12.24 35.516H5.004L3.924 38H0.198L6.138 24.608H11.106L17.316 38H13.338ZM27.1558 38V30.674H23.1958C23.1958 33.356 23.1058 34.85 22.7638 35.768C22.3858 36.776 21.8818 38 19.2358 38H18.1378V35.39H18.3538C18.9838 35.39 19.4518 35.174 19.6498 34.256C19.7938 33.482 19.8478 32.636 19.8478 28.01H30.6658V38H27.1558ZM39.3872 30.08C37.5692 30.08 36.8852 30.818 36.7052 31.862H41.9972C41.9972 31.124 41.6372 30.08 39.3872 30.08ZM42.0692 34.886H45.7232C45.7232 35.714 45.0752 38.234 39.9092 38.234H39.2432C34.3112 38.234 33.0872 35.534 33.0872 33.14V32.888C33.0872 30.638 34.2032 27.794 38.9372 27.794H39.7292C44.8412 27.794 45.7592 30.638 45.7592 33.428V33.752H36.6692C36.8132 34.904 37.5512 35.84 39.6932 35.84C41.7272 35.84 41.9792 35.048 42.0692 34.886ZM55.5971 38L51.7091 33.374V38H48.1991V28.01H51.7091V32.006L55.2731 28.01H59.3231L55.1471 32.492L59.7731 38H55.5971ZM69.1186 34.076H72.7906C72.7906 35.588 71.8906 38.27 67.0846 38.27H66.2026C61.2166 38.27 60.2806 35.03 60.2806 33.14V32.888C60.2806 30.998 61.1626 27.74 66.1846 27.74H67.0126C71.8366 27.74 72.7906 30.368 72.7906 31.808V31.826H69.1186C69.0646 31.538 68.7226 30.296 66.6526 30.296H66.4726C64.4026 30.296 63.9166 31.718 63.9166 32.924V32.942C63.9166 34.184 64.5106 35.66 66.5446 35.66H66.7246C68.8126 35.66 69.1186 34.31 69.1186 34.076ZM80.9947 30.08C79.1767 30.08 78.4927 30.818 78.3127 31.862H83.6047C83.6047 31.124 83.2447 30.08 80.9947 30.08ZM83.6767 34.886H87.3307C87.3307 35.714 86.6827 38.234 81.5167 38.234H80.8507C75.9187 38.234 74.6947 35.534 74.6947 33.14V32.888C74.6947 30.638 75.8107 27.794 80.5447 27.794H81.3367C86.4487 27.794 87.3667 30.638 87.3667 33.428V33.752H78.2767C78.4207 34.904 79.1587 35.84 81.3007 35.84C83.3347 35.84 83.5867 35.048 83.6767 34.886ZM95.5845 30.08C93.7665 30.08 93.0825 30.818 92.9025 31.862H98.1945C98.1945 31.124 97.8345 30.08 95.5845 30.08ZM98.2665 34.886H101.921C101.921 35.714 101.273 38.234 96.1065 38.234H95.4405C90.5085 38.234 89.2845 35.534 89.2845 33.14V32.888C89.2845 30.638 90.4005 27.794 95.1345 27.794H95.9265C101.039 27.794 101.957 30.638 101.957 33.428V33.752H92.8665C93.0105 34.904 93.7485 35.84 95.8905 35.84C97.9245 35.84 98.1765 35.048 98.2665 34.886ZM112.604 38H104.36V28.01H112.244C114.53 28.01 115.97 28.82 115.97 30.404V30.494C115.97 31.736 115.178 32.474 113.972 32.672C115.196 32.816 116.294 33.68 116.294 35.12V35.192C116.294 37.01 115.106 38 112.604 38ZM107.87 31.988H111.092C111.938 31.988 112.37 31.664 112.37 31.034V30.944C112.37 30.368 111.974 30.026 111.092 30.026H107.87V31.988ZM107.87 35.984H111.236C112.172 35.984 112.694 35.678 112.694 34.976V34.832C112.694 34.202 112.262 33.806 111.236 33.806H107.87V35.984ZM122.249 38H118.739V28.01H122.249V31.646H127.145V28.01H130.655V38H127.145V34.31H122.249V38ZM138.291 36.002C140.343 36.002 141.045 34.706 141.045 33.95V33.176C140.739 33.302 139.857 33.482 138.849 33.644C137.157 33.932 136.617 34.166 136.617 34.868V34.904C136.617 35.534 137.067 36.002 138.291 36.002ZM141.153 36.614C140.721 37.136 139.641 38.198 137.301 38.198H137.013C134.223 38.198 133.071 36.686 133.071 35.03V34.958C133.071 33.23 134.169 32.168 137.553 31.88L140.289 31.646C140.847 31.592 141.045 31.412 141.045 30.998C141.045 30.53 140.901 30.026 138.957 30.026C137.121 30.026 136.941 30.746 136.941 31.124H133.341V31.088C133.341 30.098 133.737 27.776 138.651 27.776H139.209C144.159 27.776 144.465 29.81 144.465 31.142V34.436C144.465 35.066 144.591 35.318 145.293 35.318H145.671V38H142.827C141.783 38 141.297 37.262 141.153 36.614ZM16.272 57.968V58.148C16.272 61.01 13.608 62.234 8.928 62.234H8.496C4.68 62.234 1.008 61.1 1.008 57.5V57.284H4.968C4.968 58.94 6.444 59.516 9.126 59.516C11.358 59.516 12.42 58.922 12.42 57.842C12.42 56.834 11.718 56.402 9.972 56.402H6.102V53.756H9.774C10.854 53.756 12.006 53.594 12.006 52.586C12.006 51.452 11.034 51.092 8.676 51.092C6.75 51.092 5.13 51.452 5.076 52.964H1.116V52.694C1.116 49.508 4.59 48.446 8.316 48.446H8.892C13.41 48.446 15.858 49.58 15.858 51.83V51.956C15.858 53.666 14.724 54.494 13.284 54.872C14.724 55.16 16.272 56.096 16.272 57.968ZM18.5791 62V52.01H22.0891V54.872H24.8251C28.2451 54.872 29.5771 56.384 29.5771 58.292V58.508C29.5771 60.596 28.2451 62 24.8251 62H18.5791ZM22.0891 59.624H24.3931C25.1131 59.624 25.9771 59.408 25.9771 58.436V58.382C25.9771 57.482 25.1131 57.248 24.3931 57.248H22.0891V59.624ZM34.3651 52.01V62H30.8551V52.01H34.3651ZM44.7162 62L40.8282 57.374V62H37.3182V52.01H40.8282V56.006L44.3922 52.01H48.4422L44.2662 56.492L48.8922 62H44.7162ZM56.1497 62.27H55.5917C50.2097 62.27 49.3817 58.994 49.3817 57.176V56.924C49.3817 55.124 50.2097 51.74 55.5737 51.74H56.1677C61.7117 51.74 62.3597 55.142 62.3597 56.906V57.194C62.3597 58.994 61.7117 62.27 56.1497 62.27ZM55.7717 59.642H55.9697C58.1837 59.642 58.7417 58.058 58.7417 56.96C58.7417 55.826 58.1837 54.314 55.9697 54.314H55.7717C53.4677 54.314 52.9997 55.826 52.9997 56.96C52.9997 58.058 53.4677 59.642 55.7717 59.642ZM73.0184 62H64.7744V52.01H72.6584C74.9444 52.01 76.3844 52.82 76.3844 54.404V54.494C76.3844 55.736 75.5924 56.474 74.3864 56.672C75.6104 56.816 76.7084 57.68 76.7084 59.12V59.192C76.7084 61.01 75.5204 62 73.0184 62ZM68.2844 55.988H71.5064C72.3524 55.988 72.7844 55.664 72.7844 55.034V54.944C72.7844 54.368 72.3884 54.026 71.5064 54.026H68.2844V55.988ZM68.2844 59.984H71.6504C72.5864 59.984 73.1084 59.678 73.1084 58.976V58.832C73.1084 58.202 72.6764 57.806 71.6504 57.806H68.2844V59.984ZM83.7814 60.002C85.8334 60.002 86.5354 58.706 86.5354 57.95V57.176C86.2294 57.302 85.3474 57.482 84.3394 57.644C82.6474 57.932 82.1074 58.166 82.1074 58.868V58.904C82.1074 59.534 82.5574 60.002 83.7814 60.002ZM86.6434 60.614C86.2114 61.136 85.1314 62.198 82.7914 62.198H82.5034C79.7134 62.198 78.5614 60.686 78.5614 59.03V58.958C78.5614 57.23 79.6594 56.168 83.0434 55.88L85.7794 55.646C86.3374 55.592 86.5354 55.412 86.5354 54.998C86.5354 54.53 86.3914 54.026 84.4474 54.026C82.6114 54.026 82.4314 54.746 82.4314 55.124H78.8314V55.088C78.8314 54.098 79.2274 51.776 84.1414 51.776H84.6994C89.6494 51.776 89.9554 53.81 89.9554 55.142V58.436C89.9554 59.066 90.0814 59.318 90.7834 59.318H91.1614V62H88.3174C87.2734 62 86.7874 61.262 86.6434 60.614Z" fill="#C1A875" style="mix-blend-mode:color"/>
<defs>
<linearGradient id="paint0_linear_2018_1148" x1="8.27014e-07" y1="30" x2="222" y2="30" gradientUnits="userSpaceOnUse">
<stop stop-color="#576167"/>
<stop offset="0.191294" stop-color="#9EA1A2"/>
<stop offset="0.396166" stop-color="#848989"/>
<stop offset="0.62055" stop-color="#576167"/>
<stop offset="0.830299" stop-color="#757A7C"/>
<stop offset="1" stop-color="#576167"/>
</linearGradient>
<radialGradient id="paint1_radial_2018_1148" cx="0" cy="0" r="1" gradientUnits="userSpaceOnUse" gradientTransform="translate(118.226 2.39326) rotate(90) scale(53.4944 167.95)">
<stop stop-color="white"/>
<stop offset="1" stop-color="white" stop-opacity="0"/>
</radialGradient>
<radialGradient id="paint2_radial_2018_1148" cx="0" cy="0" r="1" gradientUnits="userSpaceOnUse" gradientTransform="translate(130.783 82.9888) rotate(-89.7344) scale(76.6525 240.162)">
<stop stop-color="white"/>
<stop offset="1" stop-color="white" stop-opacity="0"/>
</radialGradient>
</defs>
</svg>
