<svg width="183" height="66" viewBox="0 0 183 66" fill="none" xmlns="http://www.w3.org/2000/svg">
<path d="M0.656 14V0.608H5.588L9.854 9.68L14.246 0.608H18.872V14H15.254V5.234L11.186 14H8.288L4.22 5.234V14H0.656ZM26.7072 12.002C28.7592 12.002 29.4612 10.706 29.4612 9.95V9.176C29.1552 9.302 28.2732 9.482 27.2652 9.644C25.5732 9.932 25.0332 10.166 25.0332 10.868V10.904C25.0332 11.534 25.4832 12.002 26.7072 12.002ZM29.5692 12.614C29.1372 13.136 28.0572 14.198 25.7172 14.198H25.4292C22.6392 14.198 21.4872 12.686 21.4872 11.03V10.958C21.4872 9.23 22.5852 8.168 25.9692 7.88L28.7052 7.646C29.2632 7.592 29.4612 7.412 29.4612 6.998C29.4612 6.53 29.3172 6.026 27.3732 6.026C25.5372 6.026 25.3572 6.746 25.3572 7.124H21.7572V7.088C21.7572 6.098 22.1532 3.776 27.0672 3.776H27.6252C32.5752 3.776 32.8812 5.81 32.8812 7.142V10.436C32.8812 11.066 33.0072 11.318 33.7092 11.318H34.0872V14H31.2432C30.1992 14 29.7132 13.262 29.5692 12.614ZM45.2689 9.014V8.96C45.2689 7.88 44.7649 6.422 42.5689 6.422H42.3889C40.2829 6.422 39.6169 7.808 39.6169 8.96V9.014C39.6169 10.112 40.2829 11.552 42.3889 11.552H42.5689C44.7649 11.552 45.2689 10.04 45.2689 9.014ZM36.1249 17.438V4.01H39.5989V5.288C40.0309 4.82 41.3449 3.812 43.6129 3.812H43.8469C47.6629 3.812 48.9049 6.422 48.9049 8.798V9.104C48.9049 11.282 47.6269 14.198 43.8289 14.198H43.5769C41.2909 14.198 40.0669 13.154 39.6349 12.722V17.438H36.1249ZM59.7707 7.952L54.9467 14H51.3467V4.01H54.8567V10.058L59.6807 4.01H63.2807V14H59.7707V7.952ZM69.7102 14H66.2002V4.01H69.7102V7.646H74.6062V4.01H78.1162V14H74.6062V10.31H69.7102V14ZM85.7521 12.002C87.8041 12.002 88.5061 10.706 88.5061 9.95V9.176C88.2001 9.302 87.3181 9.482 86.3101 9.644C84.6181 9.932 84.0781 10.166 84.0781 10.868V10.904C84.0781 11.534 84.5281 12.002 85.7521 12.002ZM88.6141 12.614C88.1821 13.136 87.1021 14.198 84.7621 14.198H84.4741C81.6841 14.198 80.5321 12.686 80.5321 11.03V10.958C80.5321 9.23 81.6301 8.168 85.0141 7.88L87.7501 7.646C88.3081 7.592 88.5061 7.412 88.5061 6.998C88.5061 6.53 88.3621 6.026 86.4181 6.026C84.5821 6.026 84.4021 6.746 84.4021 7.124H80.8021V7.088C80.8021 6.098 81.1981 3.776 86.1121 3.776H86.6701C91.6201 3.776 91.9261 5.81 91.9261 7.142V10.436C91.9261 11.066 92.0521 11.318 92.7541 11.318H93.1321V14H90.2881C89.2441 14 88.7581 13.262 88.6141 12.614ZM0.656 38V24.608H10.43C14.264 24.608 15.218 26.282 15.218 27.776V27.974C15.218 29.666 13.76 30.476 12.752 30.62C14.264 30.872 15.884 31.772 15.884 33.932V34.13C15.884 35.948 14.786 38 10.484 38H0.656ZM9.89 27.398H4.364V29.792H9.89C11.024 29.792 11.348 29.252 11.348 28.622V28.586C11.348 27.938 10.988 27.398 9.89 27.398ZM10.178 32.42H4.364V35.066H10.178C11.474 35.066 11.852 34.382 11.852 33.716V33.644C11.852 32.978 11.474 32.42 10.178 32.42ZM26.4722 38V30.674H22.5122C22.5122 33.356 22.4222 34.85 22.0802 35.768C21.7022 36.776 21.1982 38 18.5522 38H17.4542V35.39H17.6702C18.3002 35.39 18.7682 35.174 18.9662 34.256C19.1102 33.482 19.1642 32.636 19.1642 28.01H29.9822V38H26.4722ZM37.6056 36.002C39.6576 36.002 40.3596 34.706 40.3596 33.95V33.176C40.0536 33.302 39.1716 33.482 38.1636 33.644C36.4716 33.932 35.9316 34.166 35.9316 34.868V34.904C35.9316 35.534 36.3816 36.002 37.6056 36.002ZM40.4676 36.614C40.0356 37.136 38.9556 38.198 36.6156 38.198H36.3276C33.5376 38.198 32.3856 36.686 32.3856 35.03V34.958C32.3856 33.23 33.4836 32.168 36.8676 31.88L39.6036 31.646C40.1616 31.592 40.3596 31.412 40.3596 30.998C40.3596 30.53 40.2156 30.026 38.2716 30.026C36.4356 30.026 36.2556 30.746 36.2556 31.124H32.6556V31.088C32.6556 30.098 33.0516 27.776 37.9656 27.776H38.5236C43.4736 27.776 43.7796 29.81 43.7796 31.142V34.436C43.7796 35.066 43.9056 35.318 44.6076 35.318H44.9856V38H42.1416C41.0976 38 40.6116 37.262 40.4676 36.614ZM46.5109 40.124V35.336H47.7169C48.4009 33.968 48.5089 30.998 48.5989 28.01H59.1649V35.336H60.9649V40.124H57.6349V38H49.8409V40.124H46.5109ZM51.0289 35.336H55.6549V30.674H51.7489C51.6949 31.97 51.5149 33.95 51.0289 35.336ZM71.4777 31.952L66.6537 38H63.0537V28.01H66.5637V34.058L71.3877 28.01H74.9877V38H71.4777V31.952ZM81.1472 31.268V38H77.9072V28.01H82.8572L85.8272 34.382L88.7972 28.01H93.5672V38H90.0572V31.268L86.9432 38H84.2612L81.1472 31.268ZM104.788 31.952L99.9643 38H96.3643V28.01H99.8743V34.058L104.698 28.01H108.298V38H104.788V31.952ZM120.398 33.014V32.96C120.398 31.88 119.894 30.422 117.698 30.422H117.518C115.412 30.422 114.746 31.808 114.746 32.96V33.014C114.746 34.112 115.412 35.552 117.518 35.552H117.698C119.894 35.552 120.398 34.04 120.398 33.014ZM111.254 41.438V28.01H114.728V29.288C115.16 28.82 116.474 27.812 118.742 27.812H118.976C122.792 27.812 124.034 30.422 124.034 32.798V33.104C124.034 35.282 122.756 38.198 118.958 38.198H118.706C116.42 38.198 115.196 37.154 114.764 36.722V41.438H111.254ZM132.74 38.27H132.182C126.8 38.27 125.972 34.994 125.972 33.176V32.924C125.972 31.124 126.8 27.74 132.164 27.74H132.758C138.302 27.74 138.95 31.142 138.95 32.906V33.194C138.95 34.994 138.302 38.27 132.74 38.27ZM132.362 35.642H132.56C134.774 35.642 135.332 34.058 135.332 32.96C135.332 31.826 134.774 30.314 132.56 30.314H132.362C130.058 30.314 129.59 31.826 129.59 32.96C129.59 34.058 130.058 35.642 132.362 35.642ZM149.608 38H141.364V28.01H149.248C151.534 28.01 152.974 28.82 152.974 30.404V30.494C152.974 31.736 152.182 32.474 150.976 32.672C152.2 32.816 153.298 33.68 153.298 35.12V35.192C153.298 37.01 152.11 38 149.608 38ZM144.874 31.988H148.096C148.942 31.988 149.374 31.664 149.374 31.034V30.944C149.374 30.368 148.978 30.026 148.096 30.026H144.874V31.988ZM144.874 35.984H148.24C149.176 35.984 149.698 35.678 149.698 34.976V34.832C149.698 34.202 149.266 33.806 148.24 33.806H144.874V35.984ZM159.253 38H155.743V28.01H159.253V31.646H164.149V28.01H167.659V38H164.149V34.31H159.253V38ZM175.295 36.002C177.347 36.002 178.049 34.706 178.049 33.95V33.176C177.743 33.302 176.861 33.482 175.853 33.644C174.161 33.932 173.621 34.166 173.621 34.868V34.904C173.621 35.534 174.071 36.002 175.295 36.002ZM178.157 36.614C177.725 37.136 176.645 38.198 174.305 38.198H174.017C171.227 38.198 170.075 36.686 170.075 35.03V34.958C170.075 33.23 171.173 32.168 174.557 31.88L177.293 31.646C177.851 31.592 178.049 31.412 178.049 30.998C178.049 30.53 177.905 30.026 175.961 30.026C174.125 30.026 173.945 30.746 173.945 31.124H170.345V31.088C170.345 30.098 170.741 27.776 175.655 27.776H176.213C181.163 27.776 181.469 29.81 181.469 31.142V34.436C181.469 35.066 181.595 35.318 182.297 35.318H182.675V38H179.831C178.787 38 178.301 37.262 178.157 36.614ZM10.808 62L4.364 55.7V62H0.656V48.608H4.364V54.116L10.628 48.608H15.344L8.288 54.746L15.65 62H10.808ZM25.4933 55.952L20.6693 62H17.0693V52.01H20.5793V58.058L25.4033 52.01H29.0033V62H25.4933V55.952ZM41.1028 57.014V56.96C41.1028 55.88 40.5988 54.422 38.4028 54.422H38.2228C36.1168 54.422 35.4508 55.808 35.4508 56.96V57.014C35.4508 58.112 36.1168 59.552 38.2228 59.552H38.4028C40.5988 59.552 41.1028 58.04 41.1028 57.014ZM31.9588 65.438V52.01H35.4328V53.288C35.8648 52.82 37.1788 51.812 39.4468 51.812H39.6808C43.4968 51.812 44.7388 54.422 44.7388 56.798V57.104C44.7388 59.282 43.4608 62.198 39.6628 62.198H39.4108C37.1248 62.198 35.9008 61.154 35.4688 60.722V65.438H31.9588ZM55.6047 55.952L50.7807 62H47.1807V52.01H50.6907V58.058L55.5147 52.01H59.1147V62H55.6047V55.952ZM70.2242 62V54.674H66.2642C66.2642 57.356 66.1742 58.85 65.8322 59.768C65.4542 60.776 64.9502 62 62.3042 62H61.2062V59.39H61.4222C62.0522 59.39 62.5202 59.174 62.7182 58.256C62.8622 57.482 62.9162 56.636 62.9162 52.01H73.7342V62H70.2242ZM84.8316 62V54.674H80.8716C80.8716 57.356 80.7816 58.85 80.4396 59.768C80.0616 60.776 79.5576 62 76.9116 62H75.8136V59.39H76.0296C76.6596 59.39 77.1276 59.174 77.3256 58.256C77.4696 57.482 77.5236 56.636 77.5236 52.01H88.3416V62H84.8316ZM97.513 62.27H96.955C91.573 62.27 90.745 58.994 90.745 57.176V56.924C90.745 55.124 91.573 51.74 96.937 51.74H97.531C103.075 51.74 103.723 55.142 103.723 56.906V57.194C103.723 58.994 103.075 62.27 97.513 62.27ZM97.135 59.642H97.333C99.547 59.642 100.105 58.058 100.105 56.96C100.105 55.826 99.547 54.314 97.333 54.314H97.135C94.831 54.314 94.363 55.826 94.363 56.96C94.363 58.058 94.831 59.642 97.135 59.642ZM114.382 62H106.138V52.01H114.022C116.308 52.01 117.748 52.82 117.748 54.404V54.494C117.748 55.736 116.956 56.474 115.75 56.672C116.974 56.816 118.072 57.68 118.072 59.12V59.192C118.072 61.01 116.884 62 114.382 62ZM109.648 55.988H112.87C113.716 55.988 114.148 55.664 114.148 55.034V54.944C114.148 54.368 113.752 54.026 112.87 54.026H109.648V55.988ZM109.648 59.984H113.014C113.95 59.984 114.472 59.678 114.472 58.976V58.832C114.472 58.202 114.04 57.806 113.014 57.806H109.648V59.984ZM125.145 60.002C127.197 60.002 127.899 58.706 127.899 57.95V57.176C127.593 57.302 126.711 57.482 125.703 57.644C124.011 57.932 123.471 58.166 123.471 58.868V58.904C123.471 59.534 123.921 60.002 125.145 60.002ZM128.007 60.614C127.575 61.136 126.495 62.198 124.155 62.198H123.867C121.077 62.198 119.925 60.686 119.925 59.03V58.958C119.925 57.23 121.023 56.168 124.407 55.88L127.143 55.646C127.701 55.592 127.899 55.412 127.899 54.998C127.899 54.53 127.755 54.026 125.811 54.026C123.975 54.026 123.795 54.746 123.795 55.124H120.195V55.088C120.195 54.098 120.591 51.776 125.505 51.776H126.063C131.013 51.776 131.319 53.81 131.319 55.142V58.436C131.319 59.066 131.445 59.318 132.147 59.318H132.525V62H129.681C128.637 62 128.151 61.262 128.007 60.614Z" fill="url(#paint0_linear_2018_1139)"/>
<path d="M0.656 14V0.608H5.588L9.854 9.68L14.246 0.608H18.872V14H15.254V5.234L11.186 14H8.288L4.22 5.234V14H0.656ZM26.7072 12.002C28.7592 12.002 29.4612 10.706 29.4612 9.95V9.176C29.1552 9.302 28.2732 9.482 27.2652 9.644C25.5732 9.932 25.0332 10.166 25.0332 10.868V10.904C25.0332 11.534 25.4832 12.002 26.7072 12.002ZM29.5692 12.614C29.1372 13.136 28.0572 14.198 25.7172 14.198H25.4292C22.6392 14.198 21.4872 12.686 21.4872 11.03V10.958C21.4872 9.23 22.5852 8.168 25.9692 7.88L28.7052 7.646C29.2632 7.592 29.4612 7.412 29.4612 6.998C29.4612 6.53 29.3172 6.026 27.3732 6.026C25.5372 6.026 25.3572 6.746 25.3572 7.124H21.7572V7.088C21.7572 6.098 22.1532 3.776 27.0672 3.776H27.6252C32.5752 3.776 32.8812 5.81 32.8812 7.142V10.436C32.8812 11.066 33.0072 11.318 33.7092 11.318H34.0872V14H31.2432C30.1992 14 29.7132 13.262 29.5692 12.614ZM45.2689 9.014V8.96C45.2689 7.88 44.7649 6.422 42.5689 6.422H42.3889C40.2829 6.422 39.6169 7.808 39.6169 8.96V9.014C39.6169 10.112 40.2829 11.552 42.3889 11.552H42.5689C44.7649 11.552 45.2689 10.04 45.2689 9.014ZM36.1249 17.438V4.01H39.5989V5.288C40.0309 4.82 41.3449 3.812 43.6129 3.812H43.8469C47.6629 3.812 48.9049 6.422 48.9049 8.798V9.104C48.9049 11.282 47.6269 14.198 43.8289 14.198H43.5769C41.2909 14.198 40.0669 13.154 39.6349 12.722V17.438H36.1249ZM59.7707 7.952L54.9467 14H51.3467V4.01H54.8567V10.058L59.6807 4.01H63.2807V14H59.7707V7.952ZM69.7102 14H66.2002V4.01H69.7102V7.646H74.6062V4.01H78.1162V14H74.6062V10.31H69.7102V14ZM85.7521 12.002C87.8041 12.002 88.5061 10.706 88.5061 9.95V9.176C88.2001 9.302 87.3181 9.482 86.3101 9.644C84.6181 9.932 84.0781 10.166 84.0781 10.868V10.904C84.0781 11.534 84.5281 12.002 85.7521 12.002ZM88.6141 12.614C88.1821 13.136 87.1021 14.198 84.7621 14.198H84.4741C81.6841 14.198 80.5321 12.686 80.5321 11.03V10.958C80.5321 9.23 81.6301 8.168 85.0141 7.88L87.7501 7.646C88.3081 7.592 88.5061 7.412 88.5061 6.998C88.5061 6.53 88.3621 6.026 86.4181 6.026C84.5821 6.026 84.4021 6.746 84.4021 7.124H80.8021V7.088C80.8021 6.098 81.1981 3.776 86.1121 3.776H86.6701C91.6201 3.776 91.9261 5.81 91.9261 7.142V10.436C91.9261 11.066 92.0521 11.318 92.7541 11.318H93.1321V14H90.2881C89.2441 14 88.7581 13.262 88.6141 12.614ZM0.656 38V24.608H10.43C14.264 24.608 15.218 26.282 15.218 27.776V27.974C15.218 29.666 13.76 30.476 12.752 30.62C14.264 30.872 15.884 31.772 15.884 33.932V34.13C15.884 35.948 14.786 38 10.484 38H0.656ZM9.89 27.398H4.364V29.792H9.89C11.024 29.792 11.348 29.252 11.348 28.622V28.586C11.348 27.938 10.988 27.398 9.89 27.398ZM10.178 32.42H4.364V35.066H10.178C11.474 35.066 11.852 34.382 11.852 33.716V33.644C11.852 32.978 11.474 32.42 10.178 32.42ZM26.4722 38V30.674H22.5122C22.5122 33.356 22.4222 34.85 22.0802 35.768C21.7022 36.776 21.1982 38 18.5522 38H17.4542V35.39H17.6702C18.3002 35.39 18.7682 35.174 18.9662 34.256C19.1102 33.482 19.1642 32.636 19.1642 28.01H29.9822V38H26.4722ZM37.6056 36.002C39.6576 36.002 40.3596 34.706 40.3596 33.95V33.176C40.0536 33.302 39.1716 33.482 38.1636 33.644C36.4716 33.932 35.9316 34.166 35.9316 34.868V34.904C35.9316 35.534 36.3816 36.002 37.6056 36.002ZM40.4676 36.614C40.0356 37.136 38.9556 38.198 36.6156 38.198H36.3276C33.5376 38.198 32.3856 36.686 32.3856 35.03V34.958C32.3856 33.23 33.4836 32.168 36.8676 31.88L39.6036 31.646C40.1616 31.592 40.3596 31.412 40.3596 30.998C40.3596 30.53 40.2156 30.026 38.2716 30.026C36.4356 30.026 36.2556 30.746 36.2556 31.124H32.6556V31.088C32.6556 30.098 33.0516 27.776 37.9656 27.776H38.5236C43.4736 27.776 43.7796 29.81 43.7796 31.142V34.436C43.7796 35.066 43.9056 35.318 44.6076 35.318H44.9856V38H42.1416C41.0976 38 40.6116 37.262 40.4676 36.614ZM46.5109 40.124V35.336H47.7169C48.4009 33.968 48.5089 30.998 48.5989 28.01H59.1649V35.336H60.9649V40.124H57.6349V38H49.8409V40.124H46.5109ZM51.0289 35.336H55.6549V30.674H51.7489C51.6949 31.97 51.5149 33.95 51.0289 35.336ZM71.4777 31.952L66.6537 38H63.0537V28.01H66.5637V34.058L71.3877 28.01H74.9877V38H71.4777V31.952ZM81.1472 31.268V38H77.9072V28.01H82.8572L85.8272 34.382L88.7972 28.01H93.5672V38H90.0572V31.268L86.9432 38H84.2612L81.1472 31.268ZM104.788 31.952L99.9643 38H96.3643V28.01H99.8743V34.058L104.698 28.01H108.298V38H104.788V31.952ZM120.398 33.014V32.96C120.398 31.88 119.894 30.422 117.698 30.422H117.518C115.412 30.422 114.746 31.808 114.746 32.96V33.014C114.746 34.112 115.412 35.552 117.518 35.552H117.698C119.894 35.552 120.398 34.04 120.398 33.014ZM111.254 41.438V28.01H114.728V29.288C115.16 28.82 116.474 27.812 118.742 27.812H118.976C122.792 27.812 124.034 30.422 124.034 32.798V33.104C124.034 35.282 122.756 38.198 118.958 38.198H118.706C116.42 38.198 115.196 37.154 114.764 36.722V41.438H111.254ZM132.74 38.27H132.182C126.8 38.27 125.972 34.994 125.972 33.176V32.924C125.972 31.124 126.8 27.74 132.164 27.74H132.758C138.302 27.74 138.95 31.142 138.95 32.906V33.194C138.95 34.994 138.302 38.27 132.74 38.27ZM132.362 35.642H132.56C134.774 35.642 135.332 34.058 135.332 32.96C135.332 31.826 134.774 30.314 132.56 30.314H132.362C130.058 30.314 129.59 31.826 129.59 32.96C129.59 34.058 130.058 35.642 132.362 35.642ZM149.608 38H141.364V28.01H149.248C151.534 28.01 152.974 28.82 152.974 30.404V30.494C152.974 31.736 152.182 32.474 150.976 32.672C152.2 32.816 153.298 33.68 153.298 35.12V35.192C153.298 37.01 152.11 38 149.608 38ZM144.874 31.988H148.096C148.942 31.988 149.374 31.664 149.374 31.034V30.944C149.374 30.368 148.978 30.026 148.096 30.026H144.874V31.988ZM144.874 35.984H148.24C149.176 35.984 149.698 35.678 149.698 34.976V34.832C149.698 34.202 149.266 33.806 148.24 33.806H144.874V35.984ZM159.253 38H155.743V28.01H159.253V31.646H164.149V28.01H167.659V38H164.149V34.31H159.253V38ZM175.295 36.002C177.347 36.002 178.049 34.706 178.049 33.95V33.176C177.743 33.302 176.861 33.482 175.853 33.644C174.161 33.932 173.621 34.166 173.621 34.868V34.904C173.621 35.534 174.071 36.002 175.295 36.002ZM178.157 36.614C177.725 37.136 176.645 38.198 174.305 38.198H174.017C171.227 38.198 170.075 36.686 170.075 35.03V34.958C170.075 33.23 171.173 32.168 174.557 31.88L177.293 31.646C177.851 31.592 178.049 31.412 178.049 30.998C178.049 30.53 177.905 30.026 175.961 30.026C174.125 30.026 173.945 30.746 173.945 31.124H170.345V31.088C170.345 30.098 170.741 27.776 175.655 27.776H176.213C181.163 27.776 181.469 29.81 181.469 31.142V34.436C181.469 35.066 181.595 35.318 182.297 35.318H182.675V38H179.831C178.787 38 178.301 37.262 178.157 36.614ZM10.808 62L4.364 55.7V62H0.656V48.608H4.364V54.116L10.628 48.608H15.344L8.288 54.746L15.65 62H10.808ZM25.4933 55.952L20.6693 62H17.0693V52.01H20.5793V58.058L25.4033 52.01H29.0033V62H25.4933V55.952ZM41.1028 57.014V56.96C41.1028 55.88 40.5988 54.422 38.4028 54.422H38.2228C36.1168 54.422 35.4508 55.808 35.4508 56.96V57.014C35.4508 58.112 36.1168 59.552 38.2228 59.552H38.4028C40.5988 59.552 41.1028 58.04 41.1028 57.014ZM31.9588 65.438V52.01H35.4328V53.288C35.8648 52.82 37.1788 51.812 39.4468 51.812H39.6808C43.4968 51.812 44.7388 54.422 44.7388 56.798V57.104C44.7388 59.282 43.4608 62.198 39.6628 62.198H39.4108C37.1248 62.198 35.9008 61.154 35.4688 60.722V65.438H31.9588ZM55.6047 55.952L50.7807 62H47.1807V52.01H50.6907V58.058L55.5147 52.01H59.1147V62H55.6047V55.952ZM70.2242 62V54.674H66.2642C66.2642 57.356 66.1742 58.85 65.8322 59.768C65.4542 60.776 64.9502 62 62.3042 62H61.2062V59.39H61.4222C62.0522 59.39 62.5202 59.174 62.7182 58.256C62.8622 57.482 62.9162 56.636 62.9162 52.01H73.7342V62H70.2242ZM84.8316 62V54.674H80.8716C80.8716 57.356 80.7816 58.85 80.4396 59.768C80.0616 60.776 79.5576 62 76.9116 62H75.8136V59.39H76.0296C76.6596 59.39 77.1276 59.174 77.3256 58.256C77.4696 57.482 77.5236 56.636 77.5236 52.01H88.3416V62H84.8316ZM97.513 62.27H96.955C91.573 62.27 90.745 58.994 90.745 57.176V56.924C90.745 55.124 91.573 51.74 96.937 51.74H97.531C103.075 51.74 103.723 55.142 103.723 56.906V57.194C103.723 58.994 103.075 62.27 97.513 62.27ZM97.135 59.642H97.333C99.547 59.642 100.105 58.058 100.105 56.96C100.105 55.826 99.547 54.314 97.333 54.314H97.135C94.831 54.314 94.363 55.826 94.363 56.96C94.363 58.058 94.831 59.642 97.135 59.642ZM114.382 62H106.138V52.01H114.022C116.308 52.01 117.748 52.82 117.748 54.404V54.494C117.748 55.736 116.956 56.474 115.75 56.672C116.974 56.816 118.072 57.68 118.072 59.12V59.192C118.072 61.01 116.884 62 114.382 62ZM109.648 55.988H112.87C113.716 55.988 114.148 55.664 114.148 55.034V54.944C114.148 54.368 113.752 54.026 112.87 54.026H109.648V55.988ZM109.648 59.984H113.014C113.95 59.984 114.472 59.678 114.472 58.976V58.832C114.472 58.202 114.04 57.806 113.014 57.806H109.648V59.984ZM125.145 60.002C127.197 60.002 127.899 58.706 127.899 57.95V57.176C127.593 57.302 126.711 57.482 125.703 57.644C124.011 57.932 123.471 58.166 123.471 58.868V58.904C123.471 59.534 123.921 60.002 125.145 60.002ZM128.007 60.614C127.575 61.136 126.495 62.198 124.155 62.198H123.867C121.077 62.198 119.925 60.686 119.925 59.03V58.958C119.925 57.23 121.023 56.168 124.407 55.88L127.143 55.646C127.701 55.592 127.899 55.412 127.899 54.998C127.899 54.53 127.755 54.026 125.811 54.026C123.975 54.026 123.795 54.746 123.795 55.124H120.195V55.088C120.195 54.098 120.591 51.776 125.505 51.776H126.063C131.013 51.776 131.319 53.81 131.319 55.142V58.436C131.319 59.066 131.445 59.318 132.147 59.318H132.525V62H129.681C128.637 62 128.151 61.262 128.007 60.614Z" fill="url(#paint1_radial_2018_1139)" style="mix-blend-mode:overlay"/>
<path d="M0.656 14V0.608H5.588L9.854 9.68L14.246 0.608H18.872V14H15.254V5.234L11.186 14H8.288L4.22 5.234V14H0.656ZM26.7072 12.002C28.7592 12.002 29.4612 10.706 29.4612 9.95V9.176C29.1552 9.302 28.2732 9.482 27.2652 9.644C25.5732 9.932 25.0332 10.166 25.0332 10.868V10.904C25.0332 11.534 25.4832 12.002 26.7072 12.002ZM29.5692 12.614C29.1372 13.136 28.0572 14.198 25.7172 14.198H25.4292C22.6392 14.198 21.4872 12.686 21.4872 11.03V10.958C21.4872 9.23 22.5852 8.168 25.9692 7.88L28.7052 7.646C29.2632 7.592 29.4612 7.412 29.4612 6.998C29.4612 6.53 29.3172 6.026 27.3732 6.026C25.5372 6.026 25.3572 6.746 25.3572 7.124H21.7572V7.088C21.7572 6.098 22.1532 3.776 27.0672 3.776H27.6252C32.5752 3.776 32.8812 5.81 32.8812 7.142V10.436C32.8812 11.066 33.0072 11.318 33.7092 11.318H34.0872V14H31.2432C30.1992 14 29.7132 13.262 29.5692 12.614ZM45.2689 9.014V8.96C45.2689 7.88 44.7649 6.422 42.5689 6.422H42.3889C40.2829 6.422 39.6169 7.808 39.6169 8.96V9.014C39.6169 10.112 40.2829 11.552 42.3889 11.552H42.5689C44.7649 11.552 45.2689 10.04 45.2689 9.014ZM36.1249 17.438V4.01H39.5989V5.288C40.0309 4.82 41.3449 3.812 43.6129 3.812H43.8469C47.6629 3.812 48.9049 6.422 48.9049 8.798V9.104C48.9049 11.282 47.6269 14.198 43.8289 14.198H43.5769C41.2909 14.198 40.0669 13.154 39.6349 12.722V17.438H36.1249ZM59.7707 7.952L54.9467 14H51.3467V4.01H54.8567V10.058L59.6807 4.01H63.2807V14H59.7707V7.952ZM69.7102 14H66.2002V4.01H69.7102V7.646H74.6062V4.01H78.1162V14H74.6062V10.31H69.7102V14ZM85.7521 12.002C87.8041 12.002 88.5061 10.706 88.5061 9.95V9.176C88.2001 9.302 87.3181 9.482 86.3101 9.644C84.6181 9.932 84.0781 10.166 84.0781 10.868V10.904C84.0781 11.534 84.5281 12.002 85.7521 12.002ZM88.6141 12.614C88.1821 13.136 87.1021 14.198 84.7621 14.198H84.4741C81.6841 14.198 80.5321 12.686 80.5321 11.03V10.958C80.5321 9.23 81.6301 8.168 85.0141 7.88L87.7501 7.646C88.3081 7.592 88.5061 7.412 88.5061 6.998C88.5061 6.53 88.3621 6.026 86.4181 6.026C84.5821 6.026 84.4021 6.746 84.4021 7.124H80.8021V7.088C80.8021 6.098 81.1981 3.776 86.1121 3.776H86.6701C91.6201 3.776 91.9261 5.81 91.9261 7.142V10.436C91.9261 11.066 92.0521 11.318 92.7541 11.318H93.1321V14H90.2881C89.2441 14 88.7581 13.262 88.6141 12.614ZM0.656 38V24.608H10.43C14.264 24.608 15.218 26.282 15.218 27.776V27.974C15.218 29.666 13.76 30.476 12.752 30.62C14.264 30.872 15.884 31.772 15.884 33.932V34.13C15.884 35.948 14.786 38 10.484 38H0.656ZM9.89 27.398H4.364V29.792H9.89C11.024 29.792 11.348 29.252 11.348 28.622V28.586C11.348 27.938 10.988 27.398 9.89 27.398ZM10.178 32.42H4.364V35.066H10.178C11.474 35.066 11.852 34.382 11.852 33.716V33.644C11.852 32.978 11.474 32.42 10.178 32.42ZM26.4722 38V30.674H22.5122C22.5122 33.356 22.4222 34.85 22.0802 35.768C21.7022 36.776 21.1982 38 18.5522 38H17.4542V35.39H17.6702C18.3002 35.39 18.7682 35.174 18.9662 34.256C19.1102 33.482 19.1642 32.636 19.1642 28.01H29.9822V38H26.4722ZM37.6056 36.002C39.6576 36.002 40.3596 34.706 40.3596 33.95V33.176C40.0536 33.302 39.1716 33.482 38.1636 33.644C36.4716 33.932 35.9316 34.166 35.9316 34.868V34.904C35.9316 35.534 36.3816 36.002 37.6056 36.002ZM40.4676 36.614C40.0356 37.136 38.9556 38.198 36.6156 38.198H36.3276C33.5376 38.198 32.3856 36.686 32.3856 35.03V34.958C32.3856 33.23 33.4836 32.168 36.8676 31.88L39.6036 31.646C40.1616 31.592 40.3596 31.412 40.3596 30.998C40.3596 30.53 40.2156 30.026 38.2716 30.026C36.4356 30.026 36.2556 30.746 36.2556 31.124H32.6556V31.088C32.6556 30.098 33.0516 27.776 37.9656 27.776H38.5236C43.4736 27.776 43.7796 29.81 43.7796 31.142V34.436C43.7796 35.066 43.9056 35.318 44.6076 35.318H44.9856V38H42.1416C41.0976 38 40.6116 37.262 40.4676 36.614ZM46.5109 40.124V35.336H47.7169C48.4009 33.968 48.5089 30.998 48.5989 28.01H59.1649V35.336H60.9649V40.124H57.6349V38H49.8409V40.124H46.5109ZM51.0289 35.336H55.6549V30.674H51.7489C51.6949 31.97 51.5149 33.95 51.0289 35.336ZM71.4777 31.952L66.6537 38H63.0537V28.01H66.5637V34.058L71.3877 28.01H74.9877V38H71.4777V31.952ZM81.1472 31.268V38H77.9072V28.01H82.8572L85.8272 34.382L88.7972 28.01H93.5672V38H90.0572V31.268L86.9432 38H84.2612L81.1472 31.268ZM104.788 31.952L99.9643 38H96.3643V28.01H99.8743V34.058L104.698 28.01H108.298V38H104.788V31.952ZM120.398 33.014V32.96C120.398 31.88 119.894 30.422 117.698 30.422H117.518C115.412 30.422 114.746 31.808 114.746 32.96V33.014C114.746 34.112 115.412 35.552 117.518 35.552H117.698C119.894 35.552 120.398 34.04 120.398 33.014ZM111.254 41.438V28.01H114.728V29.288C115.16 28.82 116.474 27.812 118.742 27.812H118.976C122.792 27.812 124.034 30.422 124.034 32.798V33.104C124.034 35.282 122.756 38.198 118.958 38.198H118.706C116.42 38.198 115.196 37.154 114.764 36.722V41.438H111.254ZM132.74 38.27H132.182C126.8 38.27 125.972 34.994 125.972 33.176V32.924C125.972 31.124 126.8 27.74 132.164 27.74H132.758C138.302 27.74 138.95 31.142 138.95 32.906V33.194C138.95 34.994 138.302 38.27 132.74 38.27ZM132.362 35.642H132.56C134.774 35.642 135.332 34.058 135.332 32.96C135.332 31.826 134.774 30.314 132.56 30.314H132.362C130.058 30.314 129.59 31.826 129.59 32.96C129.59 34.058 130.058 35.642 132.362 35.642ZM149.608 38H141.364V28.01H149.248C151.534 28.01 152.974 28.82 152.974 30.404V30.494C152.974 31.736 152.182 32.474 150.976 32.672C152.2 32.816 153.298 33.68 153.298 35.12V35.192C153.298 37.01 152.11 38 149.608 38ZM144.874 31.988H148.096C148.942 31.988 149.374 31.664 149.374 31.034V30.944C149.374 30.368 148.978 30.026 148.096 30.026H144.874V31.988ZM144.874 35.984H148.24C149.176 35.984 149.698 35.678 149.698 34.976V34.832C149.698 34.202 149.266 33.806 148.24 33.806H144.874V35.984ZM159.253 38H155.743V28.01H159.253V31.646H164.149V28.01H167.659V38H164.149V34.31H159.253V38ZM175.295 36.002C177.347 36.002 178.049 34.706 178.049 33.95V33.176C177.743 33.302 176.861 33.482 175.853 33.644C174.161 33.932 173.621 34.166 173.621 34.868V34.904C173.621 35.534 174.071 36.002 175.295 36.002ZM178.157 36.614C177.725 37.136 176.645 38.198 174.305 38.198H174.017C171.227 38.198 170.075 36.686 170.075 35.03V34.958C170.075 33.23 171.173 32.168 174.557 31.88L177.293 31.646C177.851 31.592 178.049 31.412 178.049 30.998C178.049 30.53 177.905 30.026 175.961 30.026C174.125 30.026 173.945 30.746 173.945 31.124H170.345V31.088C170.345 30.098 170.741 27.776 175.655 27.776H176.213C181.163 27.776 181.469 29.81 181.469 31.142V34.436C181.469 35.066 181.595 35.318 182.297 35.318H182.675V38H179.831C178.787 38 178.301 37.262 178.157 36.614ZM10.808 62L4.364 55.7V62H0.656V48.608H4.364V54.116L10.628 48.608H15.344L8.288 54.746L15.65 62H10.808ZM25.4933 55.952L20.6693 62H17.0693V52.01H20.5793V58.058L25.4033 52.01H29.0033V62H25.4933V55.952ZM41.1028 57.014V56.96C41.1028 55.88 40.5988 54.422 38.4028 54.422H38.2228C36.1168 54.422 35.4508 55.808 35.4508 56.96V57.014C35.4508 58.112 36.1168 59.552 38.2228 59.552H38.4028C40.5988 59.552 41.1028 58.04 41.1028 57.014ZM31.9588 65.438V52.01H35.4328V53.288C35.8648 52.82 37.1788 51.812 39.4468 51.812H39.6808C43.4968 51.812 44.7388 54.422 44.7388 56.798V57.104C44.7388 59.282 43.4608 62.198 39.6628 62.198H39.4108C37.1248 62.198 35.9008 61.154 35.4688 60.722V65.438H31.9588ZM55.6047 55.952L50.7807 62H47.1807V52.01H50.6907V58.058L55.5147 52.01H59.1147V62H55.6047V55.952ZM70.2242 62V54.674H66.2642C66.2642 57.356 66.1742 58.85 65.8322 59.768C65.4542 60.776 64.9502 62 62.3042 62H61.2062V59.39H61.4222C62.0522 59.39 62.5202 59.174 62.7182 58.256C62.8622 57.482 62.9162 56.636 62.9162 52.01H73.7342V62H70.2242ZM84.8316 62V54.674H80.8716C80.8716 57.356 80.7816 58.85 80.4396 59.768C80.0616 60.776 79.5576 62 76.9116 62H75.8136V59.39H76.0296C76.6596 59.39 77.1276 59.174 77.3256 58.256C77.4696 57.482 77.5236 56.636 77.5236 52.01H88.3416V62H84.8316ZM97.513 62.27H96.955C91.573 62.27 90.745 58.994 90.745 57.176V56.924C90.745 55.124 91.573 51.74 96.937 51.74H97.531C103.075 51.74 103.723 55.142 103.723 56.906V57.194C103.723 58.994 103.075 62.27 97.513 62.27ZM97.135 59.642H97.333C99.547 59.642 100.105 58.058 100.105 56.96C100.105 55.826 99.547 54.314 97.333 54.314H97.135C94.831 54.314 94.363 55.826 94.363 56.96C94.363 58.058 94.831 59.642 97.135 59.642ZM114.382 62H106.138V52.01H114.022C116.308 52.01 117.748 52.82 117.748 54.404V54.494C117.748 55.736 116.956 56.474 115.75 56.672C116.974 56.816 118.072 57.68 118.072 59.12V59.192C118.072 61.01 116.884 62 114.382 62ZM109.648 55.988H112.87C113.716 55.988 114.148 55.664 114.148 55.034V54.944C114.148 54.368 113.752 54.026 112.87 54.026H109.648V55.988ZM109.648 59.984H113.014C113.95 59.984 114.472 59.678 114.472 58.976V58.832C114.472 58.202 114.04 57.806 113.014 57.806H109.648V59.984ZM125.145 60.002C127.197 60.002 127.899 58.706 127.899 57.95V57.176C127.593 57.302 126.711 57.482 125.703 57.644C124.011 57.932 123.471 58.166 123.471 58.868V58.904C123.471 59.534 123.921 60.002 125.145 60.002ZM128.007 60.614C127.575 61.136 126.495 62.198 124.155 62.198H123.867C121.077 62.198 119.925 60.686 119.925 59.03V58.958C119.925 57.23 121.023 56.168 124.407 55.88L127.143 55.646C127.701 55.592 127.899 55.412 127.899 54.998C127.899 54.53 127.755 54.026 125.811 54.026C123.975 54.026 123.795 54.746 123.795 55.124H120.195V55.088C120.195 54.098 120.591 51.776 125.505 51.776H126.063C131.013 51.776 131.319 53.81 131.319 55.142V58.436C131.319 59.066 131.445 59.318 132.147 59.318H132.525V62H129.681C128.637 62 128.151 61.262 128.007 60.614Z" fill="url(#paint2_radial_2018_1139)"/>
<path d="M0.656 14V0.608H5.588L9.854 9.68L14.246 0.608H18.872V14H15.254V5.234L11.186 14H8.288L4.22 5.234V14H0.656ZM26.7072 12.002C28.7592 12.002 29.4612 10.706 29.4612 9.95V9.176C29.1552 9.302 28.2732 9.482 27.2652 9.644C25.5732 9.932 25.0332 10.166 25.0332 10.868V10.904C25.0332 11.534 25.4832 12.002 26.7072 12.002ZM29.5692 12.614C29.1372 13.136 28.0572 14.198 25.7172 14.198H25.4292C22.6392 14.198 21.4872 12.686 21.4872 11.03V10.958C21.4872 9.23 22.5852 8.168 25.9692 7.88L28.7052 7.646C29.2632 7.592 29.4612 7.412 29.4612 6.998C29.4612 6.53 29.3172 6.026 27.3732 6.026C25.5372 6.026 25.3572 6.746 25.3572 7.124H21.7572V7.088C21.7572 6.098 22.1532 3.776 27.0672 3.776H27.6252C32.5752 3.776 32.8812 5.81 32.8812 7.142V10.436C32.8812 11.066 33.0072 11.318 33.7092 11.318H34.0872V14H31.2432C30.1992 14 29.7132 13.262 29.5692 12.614ZM45.2689 9.014V8.96C45.2689 7.88 44.7649 6.422 42.5689 6.422H42.3889C40.2829 6.422 39.6169 7.808 39.6169 8.96V9.014C39.6169 10.112 40.2829 11.552 42.3889 11.552H42.5689C44.7649 11.552 45.2689 10.04 45.2689 9.014ZM36.1249 17.438V4.01H39.5989V5.288C40.0309 4.82 41.3449 3.812 43.6129 3.812H43.8469C47.6629 3.812 48.9049 6.422 48.9049 8.798V9.104C48.9049 11.282 47.6269 14.198 43.8289 14.198H43.5769C41.2909 14.198 40.0669 13.154 39.6349 12.722V17.438H36.1249ZM59.7707 7.952L54.9467 14H51.3467V4.01H54.8567V10.058L59.6807 4.01H63.2807V14H59.7707V7.952ZM69.7102 14H66.2002V4.01H69.7102V7.646H74.6062V4.01H78.1162V14H74.6062V10.31H69.7102V14ZM85.7521 12.002C87.8041 12.002 88.5061 10.706 88.5061 9.95V9.176C88.2001 9.302 87.3181 9.482 86.3101 9.644C84.6181 9.932 84.0781 10.166 84.0781 10.868V10.904C84.0781 11.534 84.5281 12.002 85.7521 12.002ZM88.6141 12.614C88.1821 13.136 87.1021 14.198 84.7621 14.198H84.4741C81.6841 14.198 80.5321 12.686 80.5321 11.03V10.958C80.5321 9.23 81.6301 8.168 85.0141 7.88L87.7501 7.646C88.3081 7.592 88.5061 7.412 88.5061 6.998C88.5061 6.53 88.3621 6.026 86.4181 6.026C84.5821 6.026 84.4021 6.746 84.4021 7.124H80.8021V7.088C80.8021 6.098 81.1981 3.776 86.1121 3.776H86.6701C91.6201 3.776 91.9261 5.81 91.9261 7.142V10.436C91.9261 11.066 92.0521 11.318 92.7541 11.318H93.1321V14H90.2881C89.2441 14 88.7581 13.262 88.6141 12.614ZM0.656 38V24.608H10.43C14.264 24.608 15.218 26.282 15.218 27.776V27.974C15.218 29.666 13.76 30.476 12.752 30.62C14.264 30.872 15.884 31.772 15.884 33.932V34.13C15.884 35.948 14.786 38 10.484 38H0.656ZM9.89 27.398H4.364V29.792H9.89C11.024 29.792 11.348 29.252 11.348 28.622V28.586C11.348 27.938 10.988 27.398 9.89 27.398ZM10.178 32.42H4.364V35.066H10.178C11.474 35.066 11.852 34.382 11.852 33.716V33.644C11.852 32.978 11.474 32.42 10.178 32.42ZM26.4722 38V30.674H22.5122C22.5122 33.356 22.4222 34.85 22.0802 35.768C21.7022 36.776 21.1982 38 18.5522 38H17.4542V35.39H17.6702C18.3002 35.39 18.7682 35.174 18.9662 34.256C19.1102 33.482 19.1642 32.636 19.1642 28.01H29.9822V38H26.4722ZM37.6056 36.002C39.6576 36.002 40.3596 34.706 40.3596 33.95V33.176C40.0536 33.302 39.1716 33.482 38.1636 33.644C36.4716 33.932 35.9316 34.166 35.9316 34.868V34.904C35.9316 35.534 36.3816 36.002 37.6056 36.002ZM40.4676 36.614C40.0356 37.136 38.9556 38.198 36.6156 38.198H36.3276C33.5376 38.198 32.3856 36.686 32.3856 35.03V34.958C32.3856 33.23 33.4836 32.168 36.8676 31.88L39.6036 31.646C40.1616 31.592 40.3596 31.412 40.3596 30.998C40.3596 30.53 40.2156 30.026 38.2716 30.026C36.4356 30.026 36.2556 30.746 36.2556 31.124H32.6556V31.088C32.6556 30.098 33.0516 27.776 37.9656 27.776H38.5236C43.4736 27.776 43.7796 29.81 43.7796 31.142V34.436C43.7796 35.066 43.9056 35.318 44.6076 35.318H44.9856V38H42.1416C41.0976 38 40.6116 37.262 40.4676 36.614ZM46.5109 40.124V35.336H47.7169C48.4009 33.968 48.5089 30.998 48.5989 28.01H59.1649V35.336H60.9649V40.124H57.6349V38H49.8409V40.124H46.5109ZM51.0289 35.336H55.6549V30.674H51.7489C51.6949 31.97 51.5149 33.95 51.0289 35.336ZM71.4777 31.952L66.6537 38H63.0537V28.01H66.5637V34.058L71.3877 28.01H74.9877V38H71.4777V31.952ZM81.1472 31.268V38H77.9072V28.01H82.8572L85.8272 34.382L88.7972 28.01H93.5672V38H90.0572V31.268L86.9432 38H84.2612L81.1472 31.268ZM104.788 31.952L99.9643 38H96.3643V28.01H99.8743V34.058L104.698 28.01H108.298V38H104.788V31.952ZM120.398 33.014V32.96C120.398 31.88 119.894 30.422 117.698 30.422H117.518C115.412 30.422 114.746 31.808 114.746 32.96V33.014C114.746 34.112 115.412 35.552 117.518 35.552H117.698C119.894 35.552 120.398 34.04 120.398 33.014ZM111.254 41.438V28.01H114.728V29.288C115.16 28.82 116.474 27.812 118.742 27.812H118.976C122.792 27.812 124.034 30.422 124.034 32.798V33.104C124.034 35.282 122.756 38.198 118.958 38.198H118.706C116.42 38.198 115.196 37.154 114.764 36.722V41.438H111.254ZM132.74 38.27H132.182C126.8 38.27 125.972 34.994 125.972 33.176V32.924C125.972 31.124 126.8 27.74 132.164 27.74H132.758C138.302 27.74 138.95 31.142 138.95 32.906V33.194C138.95 34.994 138.302 38.27 132.74 38.27ZM132.362 35.642H132.56C134.774 35.642 135.332 34.058 135.332 32.96C135.332 31.826 134.774 30.314 132.56 30.314H132.362C130.058 30.314 129.59 31.826 129.59 32.96C129.59 34.058 130.058 35.642 132.362 35.642ZM149.608 38H141.364V28.01H149.248C151.534 28.01 152.974 28.82 152.974 30.404V30.494C152.974 31.736 152.182 32.474 150.976 32.672C152.2 32.816 153.298 33.68 153.298 35.12V35.192C153.298 37.01 152.11 38 149.608 38ZM144.874 31.988H148.096C148.942 31.988 149.374 31.664 149.374 31.034V30.944C149.374 30.368 148.978 30.026 148.096 30.026H144.874V31.988ZM144.874 35.984H148.24C149.176 35.984 149.698 35.678 149.698 34.976V34.832C149.698 34.202 149.266 33.806 148.24 33.806H144.874V35.984ZM159.253 38H155.743V28.01H159.253V31.646H164.149V28.01H167.659V38H164.149V34.31H159.253V38ZM175.295 36.002C177.347 36.002 178.049 34.706 178.049 33.95V33.176C177.743 33.302 176.861 33.482 175.853 33.644C174.161 33.932 173.621 34.166 173.621 34.868V34.904C173.621 35.534 174.071 36.002 175.295 36.002ZM178.157 36.614C177.725 37.136 176.645 38.198 174.305 38.198H174.017C171.227 38.198 170.075 36.686 170.075 35.03V34.958C170.075 33.23 171.173 32.168 174.557 31.88L177.293 31.646C177.851 31.592 178.049 31.412 178.049 30.998C178.049 30.53 177.905 30.026 175.961 30.026C174.125 30.026 173.945 30.746 173.945 31.124H170.345V31.088C170.345 30.098 170.741 27.776 175.655 27.776H176.213C181.163 27.776 181.469 29.81 181.469 31.142V34.436C181.469 35.066 181.595 35.318 182.297 35.318H182.675V38H179.831C178.787 38 178.301 37.262 178.157 36.614ZM10.808 62L4.364 55.7V62H0.656V48.608H4.364V54.116L10.628 48.608H15.344L8.288 54.746L15.65 62H10.808ZM25.4933 55.952L20.6693 62H17.0693V52.01H20.5793V58.058L25.4033 52.01H29.0033V62H25.4933V55.952ZM41.1028 57.014V56.96C41.1028 55.88 40.5988 54.422 38.4028 54.422H38.2228C36.1168 54.422 35.4508 55.808 35.4508 56.96V57.014C35.4508 58.112 36.1168 59.552 38.2228 59.552H38.4028C40.5988 59.552 41.1028 58.04 41.1028 57.014ZM31.9588 65.438V52.01H35.4328V53.288C35.8648 52.82 37.1788 51.812 39.4468 51.812H39.6808C43.4968 51.812 44.7388 54.422 44.7388 56.798V57.104C44.7388 59.282 43.4608 62.198 39.6628 62.198H39.4108C37.1248 62.198 35.9008 61.154 35.4688 60.722V65.438H31.9588ZM55.6047 55.952L50.7807 62H47.1807V52.01H50.6907V58.058L55.5147 52.01H59.1147V62H55.6047V55.952ZM70.2242 62V54.674H66.2642C66.2642 57.356 66.1742 58.85 65.8322 59.768C65.4542 60.776 64.9502 62 62.3042 62H61.2062V59.39H61.4222C62.0522 59.39 62.5202 59.174 62.7182 58.256C62.8622 57.482 62.9162 56.636 62.9162 52.01H73.7342V62H70.2242ZM84.8316 62V54.674H80.8716C80.8716 57.356 80.7816 58.85 80.4396 59.768C80.0616 60.776 79.5576 62 76.9116 62H75.8136V59.39H76.0296C76.6596 59.39 77.1276 59.174 77.3256 58.256C77.4696 57.482 77.5236 56.636 77.5236 52.01H88.3416V62H84.8316ZM97.513 62.27H96.955C91.573 62.27 90.745 58.994 90.745 57.176V56.924C90.745 55.124 91.573 51.74 96.937 51.74H97.531C103.075 51.74 103.723 55.142 103.723 56.906V57.194C103.723 58.994 103.075 62.27 97.513 62.27ZM97.135 59.642H97.333C99.547 59.642 100.105 58.058 100.105 56.96C100.105 55.826 99.547 54.314 97.333 54.314H97.135C94.831 54.314 94.363 55.826 94.363 56.96C94.363 58.058 94.831 59.642 97.135 59.642ZM114.382 62H106.138V52.01H114.022C116.308 52.01 117.748 52.82 117.748 54.404V54.494C117.748 55.736 116.956 56.474 115.75 56.672C116.974 56.816 118.072 57.68 118.072 59.12V59.192C118.072 61.01 116.884 62 114.382 62ZM109.648 55.988H112.87C113.716 55.988 114.148 55.664 114.148 55.034V54.944C114.148 54.368 113.752 54.026 112.87 54.026H109.648V55.988ZM109.648 59.984H113.014C113.95 59.984 114.472 59.678 114.472 58.976V58.832C114.472 58.202 114.04 57.806 113.014 57.806H109.648V59.984ZM125.145 60.002C127.197 60.002 127.899 58.706 127.899 57.95V57.176C127.593 57.302 126.711 57.482 125.703 57.644C124.011 57.932 123.471 58.166 123.471 58.868V58.904C123.471 59.534 123.921 60.002 125.145 60.002ZM128.007 60.614C127.575 61.136 126.495 62.198 124.155 62.198H123.867C121.077 62.198 119.925 60.686 119.925 59.03V58.958C119.925 57.23 121.023 56.168 124.407 55.88L127.143 55.646C127.701 55.592 127.899 55.412 127.899 54.998C127.899 54.53 127.755 54.026 125.811 54.026C123.975 54.026 123.795 54.746 123.795 55.124H120.195V55.088C120.195 54.098 120.591 51.776 125.505 51.776H126.063C131.013 51.776 131.319 53.81 131.319 55.142V58.436C131.319 59.066 131.445 59.318 132.147 59.318H132.525V62H129.681C128.637 62 128.151 61.262 128.007 60.614Z" fill="#C1A875" style="mix-blend-mode:color"/>
<defs>
<linearGradient id="paint0_linear_2018_1139" x1="-0.999999" y1="30" x2="221" y2="30" gradientUnits="userSpaceOnUse">
<stop stop-color="#576167"/>
<stop offset="0.191294" stop-color="#9EA1A2"/>
<stop offset="0.396166" stop-color="#848989"/>
<stop offset="0.62055" stop-color="#576167"/>
<stop offset="0.830299" stop-color="#757A7C"/>
<stop offset="1" stop-color="#576167"/>
</linearGradient>
<radialGradient id="paint1_radial_2018_1139" cx="0" cy="0" r="1" gradientUnits="userSpaceOnUse" gradientTransform="translate(117.226 2.39326) rotate(90) scale(53.4944 167.95)">
<stop stop-color="white"/>
<stop offset="1" stop-color="white" stop-opacity="0"/>
</radialGradient>
<radialGradient id="paint2_radial_2018_1139" cx="0" cy="0" r="1" gradientUnits="userSpaceOnUse" gradientTransform="translate(129.783 82.9888) rotate(-89.7344) scale(76.6525 240.162)">
<stop stop-color="white"/>
<stop offset="1" stop-color="white" stop-opacity="0"/>
</radialGradient>
</defs>
</svg>
