<svg width="145" height="63" viewBox="0 0 145 63" fill="none" xmlns="http://www.w3.org/2000/svg">
<path d="M8.63 14.198H7.802C1.682 14.198 0.0620001 10.274 0.0620001 7.538V6.998C0.0620001 4.208 1.682 0.409999 7.802 0.409999H8.63C14.246 0.409999 16.118 3.164 16.118 5.702V5.738H12.302C12.248 5.36 11.744 3.47 8.216 3.47C4.94 3.47 3.914 5.306 3.914 7.106V7.358C3.914 9.014 4.976 11.12 8.234 11.12C11.798 11.12 12.248 9.194 12.302 8.762H16.118V8.816C16.118 11.264 14.318 14.198 8.63 14.198ZM24.395 6.08C22.577 6.08 21.893 6.818 21.713 7.862H27.005C27.005 7.124 26.645 6.08 24.395 6.08ZM27.077 10.886H30.731C30.731 11.714 30.083 14.234 24.917 14.234H24.251C19.319 14.234 18.095 11.534 18.095 9.14V8.888C18.095 6.638 19.211 3.794 23.945 3.794H24.737C29.849 3.794 30.767 6.638 30.767 9.428V9.752H21.677C21.821 10.904 22.559 11.84 24.701 11.84C26.735 11.84 26.987 11.048 27.077 10.886ZM42.3509 9.014V8.96C42.3509 7.88 41.8469 6.422 39.6509 6.422H39.4709C37.3649 6.422 36.6989 7.808 36.6989 8.96V9.014C36.6989 10.112 37.3649 11.552 39.4709 11.552H39.6509C41.8469 11.552 42.3509 10.04 42.3509 9.014ZM33.2069 17.438V4.01H36.6809V5.288C37.1129 4.82 38.4269 3.812 40.6949 3.812H40.9289C44.7449 3.812 45.9869 6.422 45.9869 8.798V9.104C45.9869 11.282 44.7089 14.198 40.9109 14.198H40.6589C38.3729 14.198 37.1489 13.154 36.7169 12.722V17.438H33.2069ZM48.4287 14V4.01H57.1407V6.674H51.9387V14H48.4287ZM64.8599 6.08C63.0419 6.08 62.3579 6.818 62.1779 7.862H67.4699C67.4699 7.124 67.1099 6.08 64.8599 6.08ZM67.5419 10.886H71.1959C71.1959 11.714 70.5479 14.234 65.3819 14.234H64.7159C59.7839 14.234 58.5599 11.534 58.5599 9.14V8.888C58.5599 6.638 59.6759 3.794 64.4099 3.794H65.2019C70.3139 3.794 71.2319 6.638 71.2319 9.428V9.752H62.1419C62.2859 10.904 63.0239 11.84 65.1659 11.84C67.1999 11.84 67.4519 11.048 67.5419 10.886ZM82.0597 7.952L77.2357 14H73.6357V4.01H77.1457V10.058L81.9697 4.01H85.5697V14H82.0597V7.952ZM79.8277 2.984H79.2877C76.4257 2.984 75.9217 1.04 75.9217 0.104V0.0499994H78.5677C78.5677 0.284 78.6757 1.004 79.5757 1.004C80.4217 1.004 80.5477 0.284 80.5477 0.0499994H83.1577V0.104C83.1577 1.04 82.4377 2.984 79.8277 2.984ZM0.656 38V24.608H10.43C14.264 24.608 15.218 26.282 15.218 27.776V27.974C15.218 29.666 13.76 30.476 12.752 30.62C14.264 30.872 15.884 31.772 15.884 33.932V34.13C15.884 35.948 14.786 38 10.484 38H0.656ZM9.89 27.398H4.364V29.792H9.89C11.024 29.792 11.348 29.252 11.348 28.622V28.586C11.348 27.938 10.988 27.398 9.89 27.398ZM10.178 32.42H4.364V35.066H10.178C11.474 35.066 11.852 34.382 11.852 33.716V33.644C11.852 32.978 11.474 32.42 10.178 32.42ZM22.9982 36.002C25.0502 36.002 25.7522 34.706 25.7522 33.95V33.176C25.4462 33.302 24.5642 33.482 23.5562 33.644C21.8642 33.932 21.3242 34.166 21.3242 34.868V34.904C21.3242 35.534 21.7742 36.002 22.9982 36.002ZM25.8602 36.614C25.4282 37.136 24.3482 38.198 22.0082 38.198H21.7202C18.9302 38.198 17.7782 36.686 17.7782 35.03V34.958C17.7782 33.23 18.8762 32.168 22.2602 31.88L24.9962 31.646C25.5542 31.592 25.7522 31.412 25.7522 30.998C25.7522 30.53 25.6082 30.026 23.6642 30.026C21.8282 30.026 21.6482 30.746 21.6482 31.124H18.0482V31.088C18.0482 30.098 18.4442 27.776 23.3582 27.776H23.9162C28.8662 27.776 29.1722 29.81 29.1722 31.142V34.436C29.1722 35.066 29.2982 35.318 30.0002 35.318H30.3782V38H27.5342C26.4902 38 26.0042 37.262 25.8602 36.614ZM40.7319 34.076H44.4039C44.4039 35.588 43.5039 38.27 38.6979 38.27H37.8159C32.8299 38.27 31.8939 35.03 31.8939 33.14V32.888C31.8939 30.998 32.7759 27.74 37.7979 27.74H38.6259C43.4499 27.74 44.4039 30.368 44.4039 31.808V31.826H40.7319C40.6779 31.538 40.3359 30.296 38.2659 30.296H38.0859C36.0159 30.296 35.5299 31.718 35.5299 32.924V32.942C35.5299 34.184 36.1239 35.66 38.1579 35.66H38.3379C40.4259 35.66 40.7319 34.31 40.7319 34.076ZM55.2179 31.952L50.3939 38H46.7939V28.01H50.3039V34.058L55.1279 28.01H58.7279V38H55.2179V31.952ZM69.8375 38V30.674H65.8775C65.8775 33.356 65.7875 34.85 65.4455 35.768C65.0675 36.776 64.5635 38 61.9175 38H60.8195V35.39H61.0355C61.6655 35.39 62.1335 35.174 62.3315 34.256C62.4755 33.482 62.5295 32.636 62.5295 28.01H73.3475V38H69.8375ZM76.2549 38V28.01H79.7649V30.872H82.5009C85.9209 30.872 87.2529 32.384 87.2529 34.292V34.508C87.2529 36.596 85.9209 38 82.5009 38H76.2549ZM79.7649 35.624H82.0689C82.7889 35.624 83.6529 35.408 83.6529 34.436V34.382C83.6529 33.482 82.7889 33.248 82.0689 33.248H79.7649V35.624ZM95.3228 30.08C93.5048 30.08 92.8208 30.818 92.6408 31.862H97.9328C97.9328 31.124 97.5728 30.08 95.3228 30.08ZM98.0048 34.886H101.659C101.659 35.714 101.011 38.234 95.8448 38.234H95.1788C90.2468 38.234 89.0228 35.534 89.0228 33.14V32.888C89.0228 30.638 90.1388 27.794 94.8728 27.794H95.6648C100.777 27.794 101.695 30.638 101.695 33.428V33.752H92.6048C92.7488 34.904 93.4868 35.84 95.6288 35.84C97.6628 35.84 97.9148 35.048 98.0048 34.886ZM112.343 38H104.099V28.01H111.983C114.269 28.01 115.709 28.82 115.709 30.404V30.494C115.709 31.736 114.917 32.474 113.711 32.672C114.935 32.816 116.033 33.68 116.033 35.12V35.192C116.033 37.01 114.845 38 112.343 38ZM107.609 31.988H110.831C111.677 31.988 112.109 31.664 112.109 31.034V30.944C112.109 30.368 111.713 30.026 110.831 30.026H107.609V31.988ZM107.609 35.984H110.975C111.911 35.984 112.433 35.678 112.433 34.976V34.832C112.433 34.202 112.001 33.806 110.975 33.806H107.609V35.984ZM126.902 31.952L122.078 38H118.478V28.01H121.988V34.058L126.812 28.01H130.412V38H126.902V31.952ZM140.747 28.01H144.257V38H140.747V34.562C139.973 34.652 139.073 34.742 138.137 34.742C134.177 34.742 132.683 33.626 132.683 30.458V28.01H136.193V29.81C136.193 31.682 136.823 32.006 138.677 32.006C139.379 32.006 140.189 31.952 140.747 31.88V28.01ZM10.808 62L4.364 55.7V62H0.656V48.608H4.364V54.116L10.628 48.608H15.344L8.288 54.746L15.65 62H10.808ZM22.5247 62.27H21.9667C16.5847 62.27 15.7567 58.994 15.7567 57.176V56.924C15.7567 55.124 16.5847 51.74 21.9487 51.74H22.5427C28.0867 51.74 28.7347 55.142 28.7347 56.906V57.194C28.7347 58.994 28.0867 62.27 22.5247 62.27ZM22.1467 59.642H22.3447C24.5587 59.642 25.1167 58.058 25.1167 56.96C25.1167 55.826 24.5587 54.314 22.3447 54.314H22.1467C19.8427 54.314 19.3747 55.826 19.3747 56.96C19.3747 58.058 19.8427 59.642 22.1467 59.642ZM39.1636 62V54.674H35.2036C35.2036 57.356 35.1136 58.85 34.7716 59.768C34.3936 60.776 33.8896 62 31.2436 62H30.1456V59.39H30.3616C30.9916 59.39 31.4596 59.174 31.6576 58.256C31.8016 57.482 31.8556 56.636 31.8556 52.01H42.6736V62H39.1636ZM51.845 62.27H51.287C45.905 62.27 45.077 58.994 45.077 57.176V56.924C45.077 55.124 45.905 51.74 51.269 51.74H51.863C57.407 51.74 58.055 55.142 58.055 56.906V57.194C58.055 58.994 57.407 62.27 51.845 62.27ZM51.467 59.642H51.665C53.879 59.642 54.437 58.058 54.437 56.96C54.437 55.826 53.879 54.314 51.665 54.314H51.467C49.163 54.314 48.695 55.826 48.695 56.96C48.695 58.058 49.163 59.642 51.467 59.642ZM72.9437 57.122V57.356C72.9437 61.1 70.0997 62.27 66.6977 62.27H66.3377C62.8277 62.27 59.9657 60.902 59.9657 56.15V55.088C59.9657 50.282 62.3597 48.698 67.0397 48.698H67.8497C68.9657 48.698 69.0377 48.59 69.0737 48.374H72.5117C72.5117 50.48 71.7197 51.362 69.2717 51.362H67.0397C64.4477 51.362 63.4577 52.172 63.4037 53.99C64.3217 53.036 65.7257 52.388 67.9397 52.388H68.0477C70.4237 52.388 72.9437 53.594 72.9437 57.122ZM66.3737 59.642H66.5717C68.1557 59.642 69.3257 58.85 69.3257 57.212C69.3257 55.628 68.1377 54.854 66.5897 54.854H66.3737C64.6457 54.854 63.5837 55.592 63.5837 57.23C63.5837 58.886 64.6637 59.642 66.3737 59.642ZM81.6224 62.27H81.0644C75.6824 62.27 74.8544 58.994 74.8544 57.176V56.924C74.8544 55.124 75.6824 51.74 81.0464 51.74H81.6404C87.1844 51.74 87.8324 55.142 87.8324 56.906V57.194C87.8324 58.994 87.1844 62.27 81.6224 62.27ZM81.2444 59.642H81.4424C83.6564 59.642 84.2144 58.058 84.2144 56.96C84.2144 55.826 83.6564 54.314 81.4424 54.314H81.2444C78.9404 54.314 78.4724 55.826 78.4724 56.96C78.4724 58.058 78.9404 59.642 81.2444 59.642ZM98.4911 62H90.2471V52.01H98.1311C100.417 52.01 101.857 52.82 101.857 54.404V54.494C101.857 55.736 101.065 56.474 99.8591 56.672C101.083 56.816 102.181 57.68 102.181 59.12V59.192C102.181 61.01 100.993 62 98.4911 62ZM93.7571 55.988H96.9791C97.8251 55.988 98.2571 55.664 98.2571 55.034V54.944C98.2571 54.368 97.8611 54.026 96.9791 54.026H93.7571V55.988ZM93.7571 59.984H97.1231C98.0591 59.984 98.5811 59.678 98.5811 58.976V58.832C98.5811 58.202 98.1491 57.806 97.1231 57.806H93.7571V59.984Z" fill="url(#paint0_linear_2018_1157)"/>
<path d="M8.63 14.198H7.802C1.682 14.198 0.0620001 10.274 0.0620001 7.538V6.998C0.0620001 4.208 1.682 0.409999 7.802 0.409999H8.63C14.246 0.409999 16.118 3.164 16.118 5.702V5.738H12.302C12.248 5.36 11.744 3.47 8.216 3.47C4.94 3.47 3.914 5.306 3.914 7.106V7.358C3.914 9.014 4.976 11.12 8.234 11.12C11.798 11.12 12.248 9.194 12.302 8.762H16.118V8.816C16.118 11.264 14.318 14.198 8.63 14.198ZM24.395 6.08C22.577 6.08 21.893 6.818 21.713 7.862H27.005C27.005 7.124 26.645 6.08 24.395 6.08ZM27.077 10.886H30.731C30.731 11.714 30.083 14.234 24.917 14.234H24.251C19.319 14.234 18.095 11.534 18.095 9.14V8.888C18.095 6.638 19.211 3.794 23.945 3.794H24.737C29.849 3.794 30.767 6.638 30.767 9.428V9.752H21.677C21.821 10.904 22.559 11.84 24.701 11.84C26.735 11.84 26.987 11.048 27.077 10.886ZM42.3509 9.014V8.96C42.3509 7.88 41.8469 6.422 39.6509 6.422H39.4709C37.3649 6.422 36.6989 7.808 36.6989 8.96V9.014C36.6989 10.112 37.3649 11.552 39.4709 11.552H39.6509C41.8469 11.552 42.3509 10.04 42.3509 9.014ZM33.2069 17.438V4.01H36.6809V5.288C37.1129 4.82 38.4269 3.812 40.6949 3.812H40.9289C44.7449 3.812 45.9869 6.422 45.9869 8.798V9.104C45.9869 11.282 44.7089 14.198 40.9109 14.198H40.6589C38.3729 14.198 37.1489 13.154 36.7169 12.722V17.438H33.2069ZM48.4287 14V4.01H57.1407V6.674H51.9387V14H48.4287ZM64.8599 6.08C63.0419 6.08 62.3579 6.818 62.1779 7.862H67.4699C67.4699 7.124 67.1099 6.08 64.8599 6.08ZM67.5419 10.886H71.1959C71.1959 11.714 70.5479 14.234 65.3819 14.234H64.7159C59.7839 14.234 58.5599 11.534 58.5599 9.14V8.888C58.5599 6.638 59.6759 3.794 64.4099 3.794H65.2019C70.3139 3.794 71.2319 6.638 71.2319 9.428V9.752H62.1419C62.2859 10.904 63.0239 11.84 65.1659 11.84C67.1999 11.84 67.4519 11.048 67.5419 10.886ZM82.0597 7.952L77.2357 14H73.6357V4.01H77.1457V10.058L81.9697 4.01H85.5697V14H82.0597V7.952ZM79.8277 2.984H79.2877C76.4257 2.984 75.9217 1.04 75.9217 0.104V0.0499994H78.5677C78.5677 0.284 78.6757 1.004 79.5757 1.004C80.4217 1.004 80.5477 0.284 80.5477 0.0499994H83.1577V0.104C83.1577 1.04 82.4377 2.984 79.8277 2.984ZM0.656 38V24.608H10.43C14.264 24.608 15.218 26.282 15.218 27.776V27.974C15.218 29.666 13.76 30.476 12.752 30.62C14.264 30.872 15.884 31.772 15.884 33.932V34.13C15.884 35.948 14.786 38 10.484 38H0.656ZM9.89 27.398H4.364V29.792H9.89C11.024 29.792 11.348 29.252 11.348 28.622V28.586C11.348 27.938 10.988 27.398 9.89 27.398ZM10.178 32.42H4.364V35.066H10.178C11.474 35.066 11.852 34.382 11.852 33.716V33.644C11.852 32.978 11.474 32.42 10.178 32.42ZM22.9982 36.002C25.0502 36.002 25.7522 34.706 25.7522 33.95V33.176C25.4462 33.302 24.5642 33.482 23.5562 33.644C21.8642 33.932 21.3242 34.166 21.3242 34.868V34.904C21.3242 35.534 21.7742 36.002 22.9982 36.002ZM25.8602 36.614C25.4282 37.136 24.3482 38.198 22.0082 38.198H21.7202C18.9302 38.198 17.7782 36.686 17.7782 35.03V34.958C17.7782 33.23 18.8762 32.168 22.2602 31.88L24.9962 31.646C25.5542 31.592 25.7522 31.412 25.7522 30.998C25.7522 30.53 25.6082 30.026 23.6642 30.026C21.8282 30.026 21.6482 30.746 21.6482 31.124H18.0482V31.088C18.0482 30.098 18.4442 27.776 23.3582 27.776H23.9162C28.8662 27.776 29.1722 29.81 29.1722 31.142V34.436C29.1722 35.066 29.2982 35.318 30.0002 35.318H30.3782V38H27.5342C26.4902 38 26.0042 37.262 25.8602 36.614ZM40.7319 34.076H44.4039C44.4039 35.588 43.5039 38.27 38.6979 38.27H37.8159C32.8299 38.27 31.8939 35.03 31.8939 33.14V32.888C31.8939 30.998 32.7759 27.74 37.7979 27.74H38.6259C43.4499 27.74 44.4039 30.368 44.4039 31.808V31.826H40.7319C40.6779 31.538 40.3359 30.296 38.2659 30.296H38.0859C36.0159 30.296 35.5299 31.718 35.5299 32.924V32.942C35.5299 34.184 36.1239 35.66 38.1579 35.66H38.3379C40.4259 35.66 40.7319 34.31 40.7319 34.076ZM55.2179 31.952L50.3939 38H46.7939V28.01H50.3039V34.058L55.1279 28.01H58.7279V38H55.2179V31.952ZM69.8375 38V30.674H65.8775C65.8775 33.356 65.7875 34.85 65.4455 35.768C65.0675 36.776 64.5635 38 61.9175 38H60.8195V35.39H61.0355C61.6655 35.39 62.1335 35.174 62.3315 34.256C62.4755 33.482 62.5295 32.636 62.5295 28.01H73.3475V38H69.8375ZM76.2549 38V28.01H79.7649V30.872H82.5009C85.9209 30.872 87.2529 32.384 87.2529 34.292V34.508C87.2529 36.596 85.9209 38 82.5009 38H76.2549ZM79.7649 35.624H82.0689C82.7889 35.624 83.6529 35.408 83.6529 34.436V34.382C83.6529 33.482 82.7889 33.248 82.0689 33.248H79.7649V35.624ZM95.3228 30.08C93.5048 30.08 92.8208 30.818 92.6408 31.862H97.9328C97.9328 31.124 97.5728 30.08 95.3228 30.08ZM98.0048 34.886H101.659C101.659 35.714 101.011 38.234 95.8448 38.234H95.1788C90.2468 38.234 89.0228 35.534 89.0228 33.14V32.888C89.0228 30.638 90.1388 27.794 94.8728 27.794H95.6648C100.777 27.794 101.695 30.638 101.695 33.428V33.752H92.6048C92.7488 34.904 93.4868 35.84 95.6288 35.84C97.6628 35.84 97.9148 35.048 98.0048 34.886ZM112.343 38H104.099V28.01H111.983C114.269 28.01 115.709 28.82 115.709 30.404V30.494C115.709 31.736 114.917 32.474 113.711 32.672C114.935 32.816 116.033 33.68 116.033 35.12V35.192C116.033 37.01 114.845 38 112.343 38ZM107.609 31.988H110.831C111.677 31.988 112.109 31.664 112.109 31.034V30.944C112.109 30.368 111.713 30.026 110.831 30.026H107.609V31.988ZM107.609 35.984H110.975C111.911 35.984 112.433 35.678 112.433 34.976V34.832C112.433 34.202 112.001 33.806 110.975 33.806H107.609V35.984ZM126.902 31.952L122.078 38H118.478V28.01H121.988V34.058L126.812 28.01H130.412V38H126.902V31.952ZM140.747 28.01H144.257V38H140.747V34.562C139.973 34.652 139.073 34.742 138.137 34.742C134.177 34.742 132.683 33.626 132.683 30.458V28.01H136.193V29.81C136.193 31.682 136.823 32.006 138.677 32.006C139.379 32.006 140.189 31.952 140.747 31.88V28.01ZM10.808 62L4.364 55.7V62H0.656V48.608H4.364V54.116L10.628 48.608H15.344L8.288 54.746L15.65 62H10.808ZM22.5247 62.27H21.9667C16.5847 62.27 15.7567 58.994 15.7567 57.176V56.924C15.7567 55.124 16.5847 51.74 21.9487 51.74H22.5427C28.0867 51.74 28.7347 55.142 28.7347 56.906V57.194C28.7347 58.994 28.0867 62.27 22.5247 62.27ZM22.1467 59.642H22.3447C24.5587 59.642 25.1167 58.058 25.1167 56.96C25.1167 55.826 24.5587 54.314 22.3447 54.314H22.1467C19.8427 54.314 19.3747 55.826 19.3747 56.96C19.3747 58.058 19.8427 59.642 22.1467 59.642ZM39.1636 62V54.674H35.2036C35.2036 57.356 35.1136 58.85 34.7716 59.768C34.3936 60.776 33.8896 62 31.2436 62H30.1456V59.39H30.3616C30.9916 59.39 31.4596 59.174 31.6576 58.256C31.8016 57.482 31.8556 56.636 31.8556 52.01H42.6736V62H39.1636ZM51.845 62.27H51.287C45.905 62.27 45.077 58.994 45.077 57.176V56.924C45.077 55.124 45.905 51.74 51.269 51.74H51.863C57.407 51.74 58.055 55.142 58.055 56.906V57.194C58.055 58.994 57.407 62.27 51.845 62.27ZM51.467 59.642H51.665C53.879 59.642 54.437 58.058 54.437 56.96C54.437 55.826 53.879 54.314 51.665 54.314H51.467C49.163 54.314 48.695 55.826 48.695 56.96C48.695 58.058 49.163 59.642 51.467 59.642ZM72.9437 57.122V57.356C72.9437 61.1 70.0997 62.27 66.6977 62.27H66.3377C62.8277 62.27 59.9657 60.902 59.9657 56.15V55.088C59.9657 50.282 62.3597 48.698 67.0397 48.698H67.8497C68.9657 48.698 69.0377 48.59 69.0737 48.374H72.5117C72.5117 50.48 71.7197 51.362 69.2717 51.362H67.0397C64.4477 51.362 63.4577 52.172 63.4037 53.99C64.3217 53.036 65.7257 52.388 67.9397 52.388H68.0477C70.4237 52.388 72.9437 53.594 72.9437 57.122ZM66.3737 59.642H66.5717C68.1557 59.642 69.3257 58.85 69.3257 57.212C69.3257 55.628 68.1377 54.854 66.5897 54.854H66.3737C64.6457 54.854 63.5837 55.592 63.5837 57.23C63.5837 58.886 64.6637 59.642 66.3737 59.642ZM81.6224 62.27H81.0644C75.6824 62.27 74.8544 58.994 74.8544 57.176V56.924C74.8544 55.124 75.6824 51.74 81.0464 51.74H81.6404C87.1844 51.74 87.8324 55.142 87.8324 56.906V57.194C87.8324 58.994 87.1844 62.27 81.6224 62.27ZM81.2444 59.642H81.4424C83.6564 59.642 84.2144 58.058 84.2144 56.96C84.2144 55.826 83.6564 54.314 81.4424 54.314H81.2444C78.9404 54.314 78.4724 55.826 78.4724 56.96C78.4724 58.058 78.9404 59.642 81.2444 59.642ZM98.4911 62H90.2471V52.01H98.1311C100.417 52.01 101.857 52.82 101.857 54.404V54.494C101.857 55.736 101.065 56.474 99.8591 56.672C101.083 56.816 102.181 57.68 102.181 59.12V59.192C102.181 61.01 100.993 62 98.4911 62ZM93.7571 55.988H96.9791C97.8251 55.988 98.2571 55.664 98.2571 55.034V54.944C98.2571 54.368 97.8611 54.026 96.9791 54.026H93.7571V55.988ZM93.7571 59.984H97.1231C98.0591 59.984 98.5811 59.678 98.5811 58.976V58.832C98.5811 58.202 98.1491 57.806 97.1231 57.806H93.7571V59.984Z" fill="url(#paint1_radial_2018_1157)" style="mix-blend-mode:overlay"/>
<path d="M8.63 14.198H7.802C1.682 14.198 0.0620001 10.274 0.0620001 7.538V6.998C0.0620001 4.208 1.682 0.409999 7.802 0.409999H8.63C14.246 0.409999 16.118 3.164 16.118 5.702V5.738H12.302C12.248 5.36 11.744 3.47 8.216 3.47C4.94 3.47 3.914 5.306 3.914 7.106V7.358C3.914 9.014 4.976 11.12 8.234 11.12C11.798 11.12 12.248 9.194 12.302 8.762H16.118V8.816C16.118 11.264 14.318 14.198 8.63 14.198ZM24.395 6.08C22.577 6.08 21.893 6.818 21.713 7.862H27.005C27.005 7.124 26.645 6.08 24.395 6.08ZM27.077 10.886H30.731C30.731 11.714 30.083 14.234 24.917 14.234H24.251C19.319 14.234 18.095 11.534 18.095 9.14V8.888C18.095 6.638 19.211 3.794 23.945 3.794H24.737C29.849 3.794 30.767 6.638 30.767 9.428V9.752H21.677C21.821 10.904 22.559 11.84 24.701 11.84C26.735 11.84 26.987 11.048 27.077 10.886ZM42.3509 9.014V8.96C42.3509 7.88 41.8469 6.422 39.6509 6.422H39.4709C37.3649 6.422 36.6989 7.808 36.6989 8.96V9.014C36.6989 10.112 37.3649 11.552 39.4709 11.552H39.6509C41.8469 11.552 42.3509 10.04 42.3509 9.014ZM33.2069 17.438V4.01H36.6809V5.288C37.1129 4.82 38.4269 3.812 40.6949 3.812H40.9289C44.7449 3.812 45.9869 6.422 45.9869 8.798V9.104C45.9869 11.282 44.7089 14.198 40.9109 14.198H40.6589C38.3729 14.198 37.1489 13.154 36.7169 12.722V17.438H33.2069ZM48.4287 14V4.01H57.1407V6.674H51.9387V14H48.4287ZM64.8599 6.08C63.0419 6.08 62.3579 6.818 62.1779 7.862H67.4699C67.4699 7.124 67.1099 6.08 64.8599 6.08ZM67.5419 10.886H71.1959C71.1959 11.714 70.5479 14.234 65.3819 14.234H64.7159C59.7839 14.234 58.5599 11.534 58.5599 9.14V8.888C58.5599 6.638 59.6759 3.794 64.4099 3.794H65.2019C70.3139 3.794 71.2319 6.638 71.2319 9.428V9.752H62.1419C62.2859 10.904 63.0239 11.84 65.1659 11.84C67.1999 11.84 67.4519 11.048 67.5419 10.886ZM82.0597 7.952L77.2357 14H73.6357V4.01H77.1457V10.058L81.9697 4.01H85.5697V14H82.0597V7.952ZM79.8277 2.984H79.2877C76.4257 2.984 75.9217 1.04 75.9217 0.104V0.0499994H78.5677C78.5677 0.284 78.6757 1.004 79.5757 1.004C80.4217 1.004 80.5477 0.284 80.5477 0.0499994H83.1577V0.104C83.1577 1.04 82.4377 2.984 79.8277 2.984ZM0.656 38V24.608H10.43C14.264 24.608 15.218 26.282 15.218 27.776V27.974C15.218 29.666 13.76 30.476 12.752 30.62C14.264 30.872 15.884 31.772 15.884 33.932V34.13C15.884 35.948 14.786 38 10.484 38H0.656ZM9.89 27.398H4.364V29.792H9.89C11.024 29.792 11.348 29.252 11.348 28.622V28.586C11.348 27.938 10.988 27.398 9.89 27.398ZM10.178 32.42H4.364V35.066H10.178C11.474 35.066 11.852 34.382 11.852 33.716V33.644C11.852 32.978 11.474 32.42 10.178 32.42ZM22.9982 36.002C25.0502 36.002 25.7522 34.706 25.7522 33.95V33.176C25.4462 33.302 24.5642 33.482 23.5562 33.644C21.8642 33.932 21.3242 34.166 21.3242 34.868V34.904C21.3242 35.534 21.7742 36.002 22.9982 36.002ZM25.8602 36.614C25.4282 37.136 24.3482 38.198 22.0082 38.198H21.7202C18.9302 38.198 17.7782 36.686 17.7782 35.03V34.958C17.7782 33.23 18.8762 32.168 22.2602 31.88L24.9962 31.646C25.5542 31.592 25.7522 31.412 25.7522 30.998C25.7522 30.53 25.6082 30.026 23.6642 30.026C21.8282 30.026 21.6482 30.746 21.6482 31.124H18.0482V31.088C18.0482 30.098 18.4442 27.776 23.3582 27.776H23.9162C28.8662 27.776 29.1722 29.81 29.1722 31.142V34.436C29.1722 35.066 29.2982 35.318 30.0002 35.318H30.3782V38H27.5342C26.4902 38 26.0042 37.262 25.8602 36.614ZM40.7319 34.076H44.4039C44.4039 35.588 43.5039 38.27 38.6979 38.27H37.8159C32.8299 38.27 31.8939 35.03 31.8939 33.14V32.888C31.8939 30.998 32.7759 27.74 37.7979 27.74H38.6259C43.4499 27.74 44.4039 30.368 44.4039 31.808V31.826H40.7319C40.6779 31.538 40.3359 30.296 38.2659 30.296H38.0859C36.0159 30.296 35.5299 31.718 35.5299 32.924V32.942C35.5299 34.184 36.1239 35.66 38.1579 35.66H38.3379C40.4259 35.66 40.7319 34.31 40.7319 34.076ZM55.2179 31.952L50.3939 38H46.7939V28.01H50.3039V34.058L55.1279 28.01H58.7279V38H55.2179V31.952ZM69.8375 38V30.674H65.8775C65.8775 33.356 65.7875 34.85 65.4455 35.768C65.0675 36.776 64.5635 38 61.9175 38H60.8195V35.39H61.0355C61.6655 35.39 62.1335 35.174 62.3315 34.256C62.4755 33.482 62.5295 32.636 62.5295 28.01H73.3475V38H69.8375ZM76.2549 38V28.01H79.7649V30.872H82.5009C85.9209 30.872 87.2529 32.384 87.2529 34.292V34.508C87.2529 36.596 85.9209 38 82.5009 38H76.2549ZM79.7649 35.624H82.0689C82.7889 35.624 83.6529 35.408 83.6529 34.436V34.382C83.6529 33.482 82.7889 33.248 82.0689 33.248H79.7649V35.624ZM95.3228 30.08C93.5048 30.08 92.8208 30.818 92.6408 31.862H97.9328C97.9328 31.124 97.5728 30.08 95.3228 30.08ZM98.0048 34.886H101.659C101.659 35.714 101.011 38.234 95.8448 38.234H95.1788C90.2468 38.234 89.0228 35.534 89.0228 33.14V32.888C89.0228 30.638 90.1388 27.794 94.8728 27.794H95.6648C100.777 27.794 101.695 30.638 101.695 33.428V33.752H92.6048C92.7488 34.904 93.4868 35.84 95.6288 35.84C97.6628 35.84 97.9148 35.048 98.0048 34.886ZM112.343 38H104.099V28.01H111.983C114.269 28.01 115.709 28.82 115.709 30.404V30.494C115.709 31.736 114.917 32.474 113.711 32.672C114.935 32.816 116.033 33.68 116.033 35.12V35.192C116.033 37.01 114.845 38 112.343 38ZM107.609 31.988H110.831C111.677 31.988 112.109 31.664 112.109 31.034V30.944C112.109 30.368 111.713 30.026 110.831 30.026H107.609V31.988ZM107.609 35.984H110.975C111.911 35.984 112.433 35.678 112.433 34.976V34.832C112.433 34.202 112.001 33.806 110.975 33.806H107.609V35.984ZM126.902 31.952L122.078 38H118.478V28.01H121.988V34.058L126.812 28.01H130.412V38H126.902V31.952ZM140.747 28.01H144.257V38H140.747V34.562C139.973 34.652 139.073 34.742 138.137 34.742C134.177 34.742 132.683 33.626 132.683 30.458V28.01H136.193V29.81C136.193 31.682 136.823 32.006 138.677 32.006C139.379 32.006 140.189 31.952 140.747 31.88V28.01ZM10.808 62L4.364 55.7V62H0.656V48.608H4.364V54.116L10.628 48.608H15.344L8.288 54.746L15.65 62H10.808ZM22.5247 62.27H21.9667C16.5847 62.27 15.7567 58.994 15.7567 57.176V56.924C15.7567 55.124 16.5847 51.74 21.9487 51.74H22.5427C28.0867 51.74 28.7347 55.142 28.7347 56.906V57.194C28.7347 58.994 28.0867 62.27 22.5247 62.27ZM22.1467 59.642H22.3447C24.5587 59.642 25.1167 58.058 25.1167 56.96C25.1167 55.826 24.5587 54.314 22.3447 54.314H22.1467C19.8427 54.314 19.3747 55.826 19.3747 56.96C19.3747 58.058 19.8427 59.642 22.1467 59.642ZM39.1636 62V54.674H35.2036C35.2036 57.356 35.1136 58.85 34.7716 59.768C34.3936 60.776 33.8896 62 31.2436 62H30.1456V59.39H30.3616C30.9916 59.39 31.4596 59.174 31.6576 58.256C31.8016 57.482 31.8556 56.636 31.8556 52.01H42.6736V62H39.1636ZM51.845 62.27H51.287C45.905 62.27 45.077 58.994 45.077 57.176V56.924C45.077 55.124 45.905 51.74 51.269 51.74H51.863C57.407 51.74 58.055 55.142 58.055 56.906V57.194C58.055 58.994 57.407 62.27 51.845 62.27ZM51.467 59.642H51.665C53.879 59.642 54.437 58.058 54.437 56.96C54.437 55.826 53.879 54.314 51.665 54.314H51.467C49.163 54.314 48.695 55.826 48.695 56.96C48.695 58.058 49.163 59.642 51.467 59.642ZM72.9437 57.122V57.356C72.9437 61.1 70.0997 62.27 66.6977 62.27H66.3377C62.8277 62.27 59.9657 60.902 59.9657 56.15V55.088C59.9657 50.282 62.3597 48.698 67.0397 48.698H67.8497C68.9657 48.698 69.0377 48.59 69.0737 48.374H72.5117C72.5117 50.48 71.7197 51.362 69.2717 51.362H67.0397C64.4477 51.362 63.4577 52.172 63.4037 53.99C64.3217 53.036 65.7257 52.388 67.9397 52.388H68.0477C70.4237 52.388 72.9437 53.594 72.9437 57.122ZM66.3737 59.642H66.5717C68.1557 59.642 69.3257 58.85 69.3257 57.212C69.3257 55.628 68.1377 54.854 66.5897 54.854H66.3737C64.6457 54.854 63.5837 55.592 63.5837 57.23C63.5837 58.886 64.6637 59.642 66.3737 59.642ZM81.6224 62.27H81.0644C75.6824 62.27 74.8544 58.994 74.8544 57.176V56.924C74.8544 55.124 75.6824 51.74 81.0464 51.74H81.6404C87.1844 51.74 87.8324 55.142 87.8324 56.906V57.194C87.8324 58.994 87.1844 62.27 81.6224 62.27ZM81.2444 59.642H81.4424C83.6564 59.642 84.2144 58.058 84.2144 56.96C84.2144 55.826 83.6564 54.314 81.4424 54.314H81.2444C78.9404 54.314 78.4724 55.826 78.4724 56.96C78.4724 58.058 78.9404 59.642 81.2444 59.642ZM98.4911 62H90.2471V52.01H98.1311C100.417 52.01 101.857 52.82 101.857 54.404V54.494C101.857 55.736 101.065 56.474 99.8591 56.672C101.083 56.816 102.181 57.68 102.181 59.12V59.192C102.181 61.01 100.993 62 98.4911 62ZM93.7571 55.988H96.9791C97.8251 55.988 98.2571 55.664 98.2571 55.034V54.944C98.2571 54.368 97.8611 54.026 96.9791 54.026H93.7571V55.988ZM93.7571 59.984H97.1231C98.0591 59.984 98.5811 59.678 98.5811 58.976V58.832C98.5811 58.202 98.1491 57.806 97.1231 57.806H93.7571V59.984Z" fill="url(#paint2_radial_2018_1157)"/>
<path d="M8.63 14.198H7.802C1.682 14.198 0.0620001 10.274 0.0620001 7.538V6.998C0.0620001 4.208 1.682 0.409999 7.802 0.409999H8.63C14.246 0.409999 16.118 3.164 16.118 5.702V5.738H12.302C12.248 5.36 11.744 3.47 8.216 3.47C4.94 3.47 3.914 5.306 3.914 7.106V7.358C3.914 9.014 4.976 11.12 8.234 11.12C11.798 11.12 12.248 9.194 12.302 8.762H16.118V8.816C16.118 11.264 14.318 14.198 8.63 14.198ZM24.395 6.08C22.577 6.08 21.893 6.818 21.713 7.862H27.005C27.005 7.124 26.645 6.08 24.395 6.08ZM27.077 10.886H30.731C30.731 11.714 30.083 14.234 24.917 14.234H24.251C19.319 14.234 18.095 11.534 18.095 9.14V8.888C18.095 6.638 19.211 3.794 23.945 3.794H24.737C29.849 3.794 30.767 6.638 30.767 9.428V9.752H21.677C21.821 10.904 22.559 11.84 24.701 11.84C26.735 11.84 26.987 11.048 27.077 10.886ZM42.3509 9.014V8.96C42.3509 7.88 41.8469 6.422 39.6509 6.422H39.4709C37.3649 6.422 36.6989 7.808 36.6989 8.96V9.014C36.6989 10.112 37.3649 11.552 39.4709 11.552H39.6509C41.8469 11.552 42.3509 10.04 42.3509 9.014ZM33.2069 17.438V4.01H36.6809V5.288C37.1129 4.82 38.4269 3.812 40.6949 3.812H40.9289C44.7449 3.812 45.9869 6.422 45.9869 8.798V9.104C45.9869 11.282 44.7089 14.198 40.9109 14.198H40.6589C38.3729 14.198 37.1489 13.154 36.7169 12.722V17.438H33.2069ZM48.4287 14V4.01H57.1407V6.674H51.9387V14H48.4287ZM64.8599 6.08C63.0419 6.08 62.3579 6.818 62.1779 7.862H67.4699C67.4699 7.124 67.1099 6.08 64.8599 6.08ZM67.5419 10.886H71.1959C71.1959 11.714 70.5479 14.234 65.3819 14.234H64.7159C59.7839 14.234 58.5599 11.534 58.5599 9.14V8.888C58.5599 6.638 59.6759 3.794 64.4099 3.794H65.2019C70.3139 3.794 71.2319 6.638 71.2319 9.428V9.752H62.1419C62.2859 10.904 63.0239 11.84 65.1659 11.84C67.1999 11.84 67.4519 11.048 67.5419 10.886ZM82.0597 7.952L77.2357 14H73.6357V4.01H77.1457V10.058L81.9697 4.01H85.5697V14H82.0597V7.952ZM79.8277 2.984H79.2877C76.4257 2.984 75.9217 1.04 75.9217 0.104V0.0499994H78.5677C78.5677 0.284 78.6757 1.004 79.5757 1.004C80.4217 1.004 80.5477 0.284 80.5477 0.0499994H83.1577V0.104C83.1577 1.04 82.4377 2.984 79.8277 2.984ZM0.656 38V24.608H10.43C14.264 24.608 15.218 26.282 15.218 27.776V27.974C15.218 29.666 13.76 30.476 12.752 30.62C14.264 30.872 15.884 31.772 15.884 33.932V34.13C15.884 35.948 14.786 38 10.484 38H0.656ZM9.89 27.398H4.364V29.792H9.89C11.024 29.792 11.348 29.252 11.348 28.622V28.586C11.348 27.938 10.988 27.398 9.89 27.398ZM10.178 32.42H4.364V35.066H10.178C11.474 35.066 11.852 34.382 11.852 33.716V33.644C11.852 32.978 11.474 32.42 10.178 32.42ZM22.9982 36.002C25.0502 36.002 25.7522 34.706 25.7522 33.95V33.176C25.4462 33.302 24.5642 33.482 23.5562 33.644C21.8642 33.932 21.3242 34.166 21.3242 34.868V34.904C21.3242 35.534 21.7742 36.002 22.9982 36.002ZM25.8602 36.614C25.4282 37.136 24.3482 38.198 22.0082 38.198H21.7202C18.9302 38.198 17.7782 36.686 17.7782 35.03V34.958C17.7782 33.23 18.8762 32.168 22.2602 31.88L24.9962 31.646C25.5542 31.592 25.7522 31.412 25.7522 30.998C25.7522 30.53 25.6082 30.026 23.6642 30.026C21.8282 30.026 21.6482 30.746 21.6482 31.124H18.0482V31.088C18.0482 30.098 18.4442 27.776 23.3582 27.776H23.9162C28.8662 27.776 29.1722 29.81 29.1722 31.142V34.436C29.1722 35.066 29.2982 35.318 30.0002 35.318H30.3782V38H27.5342C26.4902 38 26.0042 37.262 25.8602 36.614ZM40.7319 34.076H44.4039C44.4039 35.588 43.5039 38.27 38.6979 38.27H37.8159C32.8299 38.27 31.8939 35.03 31.8939 33.14V32.888C31.8939 30.998 32.7759 27.74 37.7979 27.74H38.6259C43.4499 27.74 44.4039 30.368 44.4039 31.808V31.826H40.7319C40.6779 31.538 40.3359 30.296 38.2659 30.296H38.0859C36.0159 30.296 35.5299 31.718 35.5299 32.924V32.942C35.5299 34.184 36.1239 35.66 38.1579 35.66H38.3379C40.4259 35.66 40.7319 34.31 40.7319 34.076ZM55.2179 31.952L50.3939 38H46.7939V28.01H50.3039V34.058L55.1279 28.01H58.7279V38H55.2179V31.952ZM69.8375 38V30.674H65.8775C65.8775 33.356 65.7875 34.85 65.4455 35.768C65.0675 36.776 64.5635 38 61.9175 38H60.8195V35.39H61.0355C61.6655 35.39 62.1335 35.174 62.3315 34.256C62.4755 33.482 62.5295 32.636 62.5295 28.01H73.3475V38H69.8375ZM76.2549 38V28.01H79.7649V30.872H82.5009C85.9209 30.872 87.2529 32.384 87.2529 34.292V34.508C87.2529 36.596 85.9209 38 82.5009 38H76.2549ZM79.7649 35.624H82.0689C82.7889 35.624 83.6529 35.408 83.6529 34.436V34.382C83.6529 33.482 82.7889 33.248 82.0689 33.248H79.7649V35.624ZM95.3228 30.08C93.5048 30.08 92.8208 30.818 92.6408 31.862H97.9328C97.9328 31.124 97.5728 30.08 95.3228 30.08ZM98.0048 34.886H101.659C101.659 35.714 101.011 38.234 95.8448 38.234H95.1788C90.2468 38.234 89.0228 35.534 89.0228 33.14V32.888C89.0228 30.638 90.1388 27.794 94.8728 27.794H95.6648C100.777 27.794 101.695 30.638 101.695 33.428V33.752H92.6048C92.7488 34.904 93.4868 35.84 95.6288 35.84C97.6628 35.84 97.9148 35.048 98.0048 34.886ZM112.343 38H104.099V28.01H111.983C114.269 28.01 115.709 28.82 115.709 30.404V30.494C115.709 31.736 114.917 32.474 113.711 32.672C114.935 32.816 116.033 33.68 116.033 35.12V35.192C116.033 37.01 114.845 38 112.343 38ZM107.609 31.988H110.831C111.677 31.988 112.109 31.664 112.109 31.034V30.944C112.109 30.368 111.713 30.026 110.831 30.026H107.609V31.988ZM107.609 35.984H110.975C111.911 35.984 112.433 35.678 112.433 34.976V34.832C112.433 34.202 112.001 33.806 110.975 33.806H107.609V35.984ZM126.902 31.952L122.078 38H118.478V28.01H121.988V34.058L126.812 28.01H130.412V38H126.902V31.952ZM140.747 28.01H144.257V38H140.747V34.562C139.973 34.652 139.073 34.742 138.137 34.742C134.177 34.742 132.683 33.626 132.683 30.458V28.01H136.193V29.81C136.193 31.682 136.823 32.006 138.677 32.006C139.379 32.006 140.189 31.952 140.747 31.88V28.01ZM10.808 62L4.364 55.7V62H0.656V48.608H4.364V54.116L10.628 48.608H15.344L8.288 54.746L15.65 62H10.808ZM22.5247 62.27H21.9667C16.5847 62.27 15.7567 58.994 15.7567 57.176V56.924C15.7567 55.124 16.5847 51.74 21.9487 51.74H22.5427C28.0867 51.74 28.7347 55.142 28.7347 56.906V57.194C28.7347 58.994 28.0867 62.27 22.5247 62.27ZM22.1467 59.642H22.3447C24.5587 59.642 25.1167 58.058 25.1167 56.96C25.1167 55.826 24.5587 54.314 22.3447 54.314H22.1467C19.8427 54.314 19.3747 55.826 19.3747 56.96C19.3747 58.058 19.8427 59.642 22.1467 59.642ZM39.1636 62V54.674H35.2036C35.2036 57.356 35.1136 58.85 34.7716 59.768C34.3936 60.776 33.8896 62 31.2436 62H30.1456V59.39H30.3616C30.9916 59.39 31.4596 59.174 31.6576 58.256C31.8016 57.482 31.8556 56.636 31.8556 52.01H42.6736V62H39.1636ZM51.845 62.27H51.287C45.905 62.27 45.077 58.994 45.077 57.176V56.924C45.077 55.124 45.905 51.74 51.269 51.74H51.863C57.407 51.74 58.055 55.142 58.055 56.906V57.194C58.055 58.994 57.407 62.27 51.845 62.27ZM51.467 59.642H51.665C53.879 59.642 54.437 58.058 54.437 56.96C54.437 55.826 53.879 54.314 51.665 54.314H51.467C49.163 54.314 48.695 55.826 48.695 56.96C48.695 58.058 49.163 59.642 51.467 59.642ZM72.9437 57.122V57.356C72.9437 61.1 70.0997 62.27 66.6977 62.27H66.3377C62.8277 62.27 59.9657 60.902 59.9657 56.15V55.088C59.9657 50.282 62.3597 48.698 67.0397 48.698H67.8497C68.9657 48.698 69.0377 48.59 69.0737 48.374H72.5117C72.5117 50.48 71.7197 51.362 69.2717 51.362H67.0397C64.4477 51.362 63.4577 52.172 63.4037 53.99C64.3217 53.036 65.7257 52.388 67.9397 52.388H68.0477C70.4237 52.388 72.9437 53.594 72.9437 57.122ZM66.3737 59.642H66.5717C68.1557 59.642 69.3257 58.85 69.3257 57.212C69.3257 55.628 68.1377 54.854 66.5897 54.854H66.3737C64.6457 54.854 63.5837 55.592 63.5837 57.23C63.5837 58.886 64.6637 59.642 66.3737 59.642ZM81.6224 62.27H81.0644C75.6824 62.27 74.8544 58.994 74.8544 57.176V56.924C74.8544 55.124 75.6824 51.74 81.0464 51.74H81.6404C87.1844 51.74 87.8324 55.142 87.8324 56.906V57.194C87.8324 58.994 87.1844 62.27 81.6224 62.27ZM81.2444 59.642H81.4424C83.6564 59.642 84.2144 58.058 84.2144 56.96C84.2144 55.826 83.6564 54.314 81.4424 54.314H81.2444C78.9404 54.314 78.4724 55.826 78.4724 56.96C78.4724 58.058 78.9404 59.642 81.2444 59.642ZM98.4911 62H90.2471V52.01H98.1311C100.417 52.01 101.857 52.82 101.857 54.404V54.494C101.857 55.736 101.065 56.474 99.8591 56.672C101.083 56.816 102.181 57.68 102.181 59.12V59.192C102.181 61.01 100.993 62 98.4911 62ZM93.7571 55.988H96.9791C97.8251 55.988 98.2571 55.664 98.2571 55.034V54.944C98.2571 54.368 97.8611 54.026 96.9791 54.026H93.7571V55.988ZM93.7571 59.984H97.1231C98.0591 59.984 98.5811 59.678 98.5811 58.976V58.832C98.5811 58.202 98.1491 57.806 97.1231 57.806H93.7571V59.984Z" fill="#C1A875" style="mix-blend-mode:color"/>
<defs>
<linearGradient id="paint0_linear_2018_1157" x1="-0.999999" y1="30" x2="221" y2="30" gradientUnits="userSpaceOnUse">
<stop stop-color="#576167"/>
<stop offset="0.191294" stop-color="#9EA1A2"/>
<stop offset="0.396166" stop-color="#848989"/>
<stop offset="0.62055" stop-color="#576167"/>
<stop offset="0.830299" stop-color="#757A7C"/>
<stop offset="1" stop-color="#576167"/>
</linearGradient>
<radialGradient id="paint1_radial_2018_1157" cx="0" cy="0" r="1" gradientUnits="userSpaceOnUse" gradientTransform="translate(117.226 2.39326) rotate(90) scale(53.4944 167.95)">
<stop stop-color="white"/>
<stop offset="1" stop-color="white" stop-opacity="0"/>
</radialGradient>
<radialGradient id="paint2_radial_2018_1157" cx="0" cy="0" r="1" gradientUnits="userSpaceOnUse" gradientTransform="translate(129.783 82.9888) rotate(-89.7344) scale(76.6525 240.162)">
<stop stop-color="white"/>
<stop offset="1" stop-color="white" stop-opacity="0"/>
</radialGradient>
</defs>
</svg>
