<svg width="205" height="39" viewBox="0 0 205 39" fill="none" xmlns="http://www.w3.org/2000/svg">
<path d="M0.656 0.608H12.914V3.524H4.31V5.702H12.644V8.726H4.31V11.048H13.022V14H0.656V0.608ZM15.7861 14V4.01H24.4981V6.674H19.2961V14H15.7861ZM32.6673 14.27H32.1093C26.7273 14.27 25.8993 10.994 25.8993 9.176V8.924C25.8993 7.124 26.7273 3.74 32.0913 3.74H32.6853C38.2293 3.74 38.8773 7.142 38.8773 8.906V9.194C38.8773 10.994 38.2293 14.27 32.6673 14.27ZM32.2893 11.642H32.4873C34.7013 11.642 35.2593 10.058 35.2593 8.96C35.2593 7.826 34.7013 6.314 32.4873 6.314H32.2893C29.9853 6.314 29.5173 7.826 29.5173 8.96C29.5173 10.058 29.9853 11.642 32.2893 11.642ZM50.472 9.014V8.96C50.472 7.88 49.968 6.422 47.772 6.422H47.592C45.486 6.422 44.82 7.808 44.82 8.96V9.014C44.82 10.112 45.486 11.552 47.592 11.552H47.772C49.968 11.552 50.472 10.04 50.472 9.014ZM41.328 17.438V4.01H44.802V5.288C45.234 4.82 46.548 3.812 48.816 3.812H49.05C52.866 3.812 54.108 6.422 54.108 8.798V9.104C54.108 11.282 52.83 14.198 49.032 14.198H48.78C46.494 14.198 45.27 13.154 44.838 12.722V17.438H41.328ZM71.2929 8.762L68.8629 3.308L66.5049 8.762H71.2929ZM73.6329 14L72.5349 11.516H65.2989L64.2189 14H60.4929L66.4329 0.608H71.4009L77.6109 14H73.6329ZM87.4507 14V6.674H83.4907C83.4907 9.356 83.4007 10.85 83.0587 11.768C82.6807 12.776 82.1767 14 79.5307 14H78.4327V11.39H78.6487C79.2787 11.39 79.7467 11.174 79.9447 10.256C80.0887 9.482 80.1427 8.636 80.1427 4.01H90.9607V14H87.4507ZM99.6822 6.08C97.8642 6.08 97.1802 6.818 97.0002 7.862H102.292C102.292 7.124 101.932 6.08 99.6822 6.08ZM102.364 10.886H106.018C106.018 11.714 105.37 14.234 100.204 14.234H99.5382C94.6062 14.234 93.3822 11.534 93.3822 9.14V8.888C93.3822 6.638 94.4982 3.794 99.2322 3.794H100.024C105.136 3.794 106.054 6.638 106.054 9.428V9.752H96.9642C97.1082 10.904 97.8462 11.84 99.9882 11.84C102.022 11.84 102.274 11.048 102.364 10.886ZM115.892 14L112.004 9.374V14H108.494V4.01H112.004V8.006L115.568 4.01H119.618L115.442 8.492L120.068 14H115.892ZM129.414 10.076H133.086C133.086 11.588 132.186 14.27 127.38 14.27H126.498C121.512 14.27 120.576 11.03 120.576 9.14V8.888C120.576 6.998 121.458 3.74 126.48 3.74H127.308C132.132 3.74 133.086 6.368 133.086 7.808V7.826H129.414C129.36 7.538 129.018 6.296 126.948 6.296H126.768C124.698 6.296 124.212 7.718 124.212 8.924V8.942C124.212 10.184 124.806 11.66 126.84 11.66H127.02C129.108 11.66 129.414 10.31 129.414 10.076ZM141.29 6.08C139.472 6.08 138.788 6.818 138.608 7.862H143.9C143.9 7.124 143.54 6.08 141.29 6.08ZM143.972 10.886H147.626C147.626 11.714 146.978 14.234 141.812 14.234H141.146C136.214 14.234 134.99 11.534 134.99 9.14V8.888C134.99 6.638 136.106 3.794 140.84 3.794H141.632C146.744 3.794 147.662 6.638 147.662 9.428V9.752H138.572C138.716 10.904 139.454 11.84 141.596 11.84C143.63 11.84 143.882 11.048 143.972 10.886ZM155.879 6.08C154.061 6.08 153.377 6.818 153.197 7.862H158.489C158.489 7.124 158.129 6.08 155.879 6.08ZM158.561 10.886H162.215C162.215 11.714 161.567 14.234 156.401 14.234H155.735C150.803 14.234 149.579 11.534 149.579 9.14V8.888C149.579 6.638 150.695 3.794 155.429 3.794H156.221C161.333 3.794 162.251 6.638 162.251 9.428V9.752H153.161C153.305 10.904 154.043 11.84 156.185 11.84C158.219 11.84 158.471 11.048 158.561 10.886ZM172.899 14H164.655V4.01H172.539C174.825 4.01 176.265 4.82 176.265 6.404V6.494C176.265 7.736 175.473 8.474 174.267 8.672C175.491 8.816 176.589 9.68 176.589 11.12V11.192C176.589 13.01 175.401 14 172.899 14ZM168.165 7.988H171.387C172.233 7.988 172.665 7.664 172.665 7.034V6.944C172.665 6.368 172.269 6.026 171.387 6.026H168.165V7.988ZM168.165 11.984H171.531C172.467 11.984 172.989 11.678 172.989 10.976V10.832C172.989 10.202 172.557 9.806 171.531 9.806H168.165V11.984ZM187.458 7.952L182.634 14H179.034V4.01H182.544V10.058L187.368 4.01H190.968V14H187.458V7.952ZM201.304 4.01H204.814V14H201.304V10.562C200.53 10.652 199.63 10.742 198.694 10.742C194.734 10.742 193.24 9.626 193.24 6.458V4.01H196.75V5.81C196.75 7.682 197.38 8.006 199.234 8.006C199.936 8.006 200.746 7.952 201.304 7.88V4.01ZM15.272 33.968V34.148C15.272 37.01 12.608 38.234 7.928 38.234H7.496C3.68 38.234 0.00800003 37.1 0.00800003 33.5V33.284H3.968C3.968 34.94 5.444 35.516 8.126 35.516C10.358 35.516 11.42 34.922 11.42 33.842C11.42 32.834 10.718 32.402 8.972 32.402H5.102V29.756H8.774C9.854 29.756 11.006 29.594 11.006 28.586C11.006 27.452 10.034 27.092 7.676 27.092C5.75 27.092 4.13 27.452 4.076 28.964H0.116V28.694C0.116 25.508 3.59 24.446 7.316 24.446H7.892C12.41 24.446 14.858 25.58 14.858 27.83V27.956C14.858 29.666 13.724 30.494 12.284 30.872C13.724 31.16 15.272 32.096 15.272 33.968ZM26.0031 31.952L21.1791 38H17.5791V28.01H21.0891V34.058L25.9131 28.01H29.5131V38H26.0031V31.952ZM35.6726 31.268V38H32.4326V28.01H37.3826L40.3526 34.382L43.3226 28.01H48.0926V38H44.5826V31.268L41.4686 38H38.7866L35.6726 31.268ZM59.3136 31.952L54.4896 38H50.8896V28.01H54.3996V34.058L59.2236 28.01H62.8236V38H59.3136V31.952ZM69.2532 38H65.7432V28.01H69.2532V31.646H74.1492V28.01H77.6592V38H74.1492V34.31H69.2532V38Z" fill="url(#paint0_linear_2018_1129)"/>
<path d="M0.656 0.608H12.914V3.524H4.31V5.702H12.644V8.726H4.31V11.048H13.022V14H0.656V0.608ZM15.7861 14V4.01H24.4981V6.674H19.2961V14H15.7861ZM32.6673 14.27H32.1093C26.7273 14.27 25.8993 10.994 25.8993 9.176V8.924C25.8993 7.124 26.7273 3.74 32.0913 3.74H32.6853C38.2293 3.74 38.8773 7.142 38.8773 8.906V9.194C38.8773 10.994 38.2293 14.27 32.6673 14.27ZM32.2893 11.642H32.4873C34.7013 11.642 35.2593 10.058 35.2593 8.96C35.2593 7.826 34.7013 6.314 32.4873 6.314H32.2893C29.9853 6.314 29.5173 7.826 29.5173 8.96C29.5173 10.058 29.9853 11.642 32.2893 11.642ZM50.472 9.014V8.96C50.472 7.88 49.968 6.422 47.772 6.422H47.592C45.486 6.422 44.82 7.808 44.82 8.96V9.014C44.82 10.112 45.486 11.552 47.592 11.552H47.772C49.968 11.552 50.472 10.04 50.472 9.014ZM41.328 17.438V4.01H44.802V5.288C45.234 4.82 46.548 3.812 48.816 3.812H49.05C52.866 3.812 54.108 6.422 54.108 8.798V9.104C54.108 11.282 52.83 14.198 49.032 14.198H48.78C46.494 14.198 45.27 13.154 44.838 12.722V17.438H41.328ZM71.2929 8.762L68.8629 3.308L66.5049 8.762H71.2929ZM73.6329 14L72.5349 11.516H65.2989L64.2189 14H60.4929L66.4329 0.608H71.4009L77.6109 14H73.6329ZM87.4507 14V6.674H83.4907C83.4907 9.356 83.4007 10.85 83.0587 11.768C82.6807 12.776 82.1767 14 79.5307 14H78.4327V11.39H78.6487C79.2787 11.39 79.7467 11.174 79.9447 10.256C80.0887 9.482 80.1427 8.636 80.1427 4.01H90.9607V14H87.4507ZM99.6822 6.08C97.8642 6.08 97.1802 6.818 97.0002 7.862H102.292C102.292 7.124 101.932 6.08 99.6822 6.08ZM102.364 10.886H106.018C106.018 11.714 105.37 14.234 100.204 14.234H99.5382C94.6062 14.234 93.3822 11.534 93.3822 9.14V8.888C93.3822 6.638 94.4982 3.794 99.2322 3.794H100.024C105.136 3.794 106.054 6.638 106.054 9.428V9.752H96.9642C97.1082 10.904 97.8462 11.84 99.9882 11.84C102.022 11.84 102.274 11.048 102.364 10.886ZM115.892 14L112.004 9.374V14H108.494V4.01H112.004V8.006L115.568 4.01H119.618L115.442 8.492L120.068 14H115.892ZM129.414 10.076H133.086C133.086 11.588 132.186 14.27 127.38 14.27H126.498C121.512 14.27 120.576 11.03 120.576 9.14V8.888C120.576 6.998 121.458 3.74 126.48 3.74H127.308C132.132 3.74 133.086 6.368 133.086 7.808V7.826H129.414C129.36 7.538 129.018 6.296 126.948 6.296H126.768C124.698 6.296 124.212 7.718 124.212 8.924V8.942C124.212 10.184 124.806 11.66 126.84 11.66H127.02C129.108 11.66 129.414 10.31 129.414 10.076ZM141.29 6.08C139.472 6.08 138.788 6.818 138.608 7.862H143.9C143.9 7.124 143.54 6.08 141.29 6.08ZM143.972 10.886H147.626C147.626 11.714 146.978 14.234 141.812 14.234H141.146C136.214 14.234 134.99 11.534 134.99 9.14V8.888C134.99 6.638 136.106 3.794 140.84 3.794H141.632C146.744 3.794 147.662 6.638 147.662 9.428V9.752H138.572C138.716 10.904 139.454 11.84 141.596 11.84C143.63 11.84 143.882 11.048 143.972 10.886ZM155.879 6.08C154.061 6.08 153.377 6.818 153.197 7.862H158.489C158.489 7.124 158.129 6.08 155.879 6.08ZM158.561 10.886H162.215C162.215 11.714 161.567 14.234 156.401 14.234H155.735C150.803 14.234 149.579 11.534 149.579 9.14V8.888C149.579 6.638 150.695 3.794 155.429 3.794H156.221C161.333 3.794 162.251 6.638 162.251 9.428V9.752H153.161C153.305 10.904 154.043 11.84 156.185 11.84C158.219 11.84 158.471 11.048 158.561 10.886ZM172.899 14H164.655V4.01H172.539C174.825 4.01 176.265 4.82 176.265 6.404V6.494C176.265 7.736 175.473 8.474 174.267 8.672C175.491 8.816 176.589 9.68 176.589 11.12V11.192C176.589 13.01 175.401 14 172.899 14ZM168.165 7.988H171.387C172.233 7.988 172.665 7.664 172.665 7.034V6.944C172.665 6.368 172.269 6.026 171.387 6.026H168.165V7.988ZM168.165 11.984H171.531C172.467 11.984 172.989 11.678 172.989 10.976V10.832C172.989 10.202 172.557 9.806 171.531 9.806H168.165V11.984ZM187.458 7.952L182.634 14H179.034V4.01H182.544V10.058L187.368 4.01H190.968V14H187.458V7.952ZM201.304 4.01H204.814V14H201.304V10.562C200.53 10.652 199.63 10.742 198.694 10.742C194.734 10.742 193.24 9.626 193.24 6.458V4.01H196.75V5.81C196.75 7.682 197.38 8.006 199.234 8.006C199.936 8.006 200.746 7.952 201.304 7.88V4.01ZM15.272 33.968V34.148C15.272 37.01 12.608 38.234 7.928 38.234H7.496C3.68 38.234 0.00800003 37.1 0.00800003 33.5V33.284H3.968C3.968 34.94 5.444 35.516 8.126 35.516C10.358 35.516 11.42 34.922 11.42 33.842C11.42 32.834 10.718 32.402 8.972 32.402H5.102V29.756H8.774C9.854 29.756 11.006 29.594 11.006 28.586C11.006 27.452 10.034 27.092 7.676 27.092C5.75 27.092 4.13 27.452 4.076 28.964H0.116V28.694C0.116 25.508 3.59 24.446 7.316 24.446H7.892C12.41 24.446 14.858 25.58 14.858 27.83V27.956C14.858 29.666 13.724 30.494 12.284 30.872C13.724 31.16 15.272 32.096 15.272 33.968ZM26.0031 31.952L21.1791 38H17.5791V28.01H21.0891V34.058L25.9131 28.01H29.5131V38H26.0031V31.952ZM35.6726 31.268V38H32.4326V28.01H37.3826L40.3526 34.382L43.3226 28.01H48.0926V38H44.5826V31.268L41.4686 38H38.7866L35.6726 31.268ZM59.3136 31.952L54.4896 38H50.8896V28.01H54.3996V34.058L59.2236 28.01H62.8236V38H59.3136V31.952ZM69.2532 38H65.7432V28.01H69.2532V31.646H74.1492V28.01H77.6592V38H74.1492V34.31H69.2532V38Z" fill="url(#paint1_radial_2018_1129)" style="mix-blend-mode:overlay"/>
<path d="M0.656 0.608H12.914V3.524H4.31V5.702H12.644V8.726H4.31V11.048H13.022V14H0.656V0.608ZM15.7861 14V4.01H24.4981V6.674H19.2961V14H15.7861ZM32.6673 14.27H32.1093C26.7273 14.27 25.8993 10.994 25.8993 9.176V8.924C25.8993 7.124 26.7273 3.74 32.0913 3.74H32.6853C38.2293 3.74 38.8773 7.142 38.8773 8.906V9.194C38.8773 10.994 38.2293 14.27 32.6673 14.27ZM32.2893 11.642H32.4873C34.7013 11.642 35.2593 10.058 35.2593 8.96C35.2593 7.826 34.7013 6.314 32.4873 6.314H32.2893C29.9853 6.314 29.5173 7.826 29.5173 8.96C29.5173 10.058 29.9853 11.642 32.2893 11.642ZM50.472 9.014V8.96C50.472 7.88 49.968 6.422 47.772 6.422H47.592C45.486 6.422 44.82 7.808 44.82 8.96V9.014C44.82 10.112 45.486 11.552 47.592 11.552H47.772C49.968 11.552 50.472 10.04 50.472 9.014ZM41.328 17.438V4.01H44.802V5.288C45.234 4.82 46.548 3.812 48.816 3.812H49.05C52.866 3.812 54.108 6.422 54.108 8.798V9.104C54.108 11.282 52.83 14.198 49.032 14.198H48.78C46.494 14.198 45.27 13.154 44.838 12.722V17.438H41.328ZM71.2929 8.762L68.8629 3.308L66.5049 8.762H71.2929ZM73.6329 14L72.5349 11.516H65.2989L64.2189 14H60.4929L66.4329 0.608H71.4009L77.6109 14H73.6329ZM87.4507 14V6.674H83.4907C83.4907 9.356 83.4007 10.85 83.0587 11.768C82.6807 12.776 82.1767 14 79.5307 14H78.4327V11.39H78.6487C79.2787 11.39 79.7467 11.174 79.9447 10.256C80.0887 9.482 80.1427 8.636 80.1427 4.01H90.9607V14H87.4507ZM99.6822 6.08C97.8642 6.08 97.1802 6.818 97.0002 7.862H102.292C102.292 7.124 101.932 6.08 99.6822 6.08ZM102.364 10.886H106.018C106.018 11.714 105.37 14.234 100.204 14.234H99.5382C94.6062 14.234 93.3822 11.534 93.3822 9.14V8.888C93.3822 6.638 94.4982 3.794 99.2322 3.794H100.024C105.136 3.794 106.054 6.638 106.054 9.428V9.752H96.9642C97.1082 10.904 97.8462 11.84 99.9882 11.84C102.022 11.84 102.274 11.048 102.364 10.886ZM115.892 14L112.004 9.374V14H108.494V4.01H112.004V8.006L115.568 4.01H119.618L115.442 8.492L120.068 14H115.892ZM129.414 10.076H133.086C133.086 11.588 132.186 14.27 127.38 14.27H126.498C121.512 14.27 120.576 11.03 120.576 9.14V8.888C120.576 6.998 121.458 3.74 126.48 3.74H127.308C132.132 3.74 133.086 6.368 133.086 7.808V7.826H129.414C129.36 7.538 129.018 6.296 126.948 6.296H126.768C124.698 6.296 124.212 7.718 124.212 8.924V8.942C124.212 10.184 124.806 11.66 126.84 11.66H127.02C129.108 11.66 129.414 10.31 129.414 10.076ZM141.29 6.08C139.472 6.08 138.788 6.818 138.608 7.862H143.9C143.9 7.124 143.54 6.08 141.29 6.08ZM143.972 10.886H147.626C147.626 11.714 146.978 14.234 141.812 14.234H141.146C136.214 14.234 134.99 11.534 134.99 9.14V8.888C134.99 6.638 136.106 3.794 140.84 3.794H141.632C146.744 3.794 147.662 6.638 147.662 9.428V9.752H138.572C138.716 10.904 139.454 11.84 141.596 11.84C143.63 11.84 143.882 11.048 143.972 10.886ZM155.879 6.08C154.061 6.08 153.377 6.818 153.197 7.862H158.489C158.489 7.124 158.129 6.08 155.879 6.08ZM158.561 10.886H162.215C162.215 11.714 161.567 14.234 156.401 14.234H155.735C150.803 14.234 149.579 11.534 149.579 9.14V8.888C149.579 6.638 150.695 3.794 155.429 3.794H156.221C161.333 3.794 162.251 6.638 162.251 9.428V9.752H153.161C153.305 10.904 154.043 11.84 156.185 11.84C158.219 11.84 158.471 11.048 158.561 10.886ZM172.899 14H164.655V4.01H172.539C174.825 4.01 176.265 4.82 176.265 6.404V6.494C176.265 7.736 175.473 8.474 174.267 8.672C175.491 8.816 176.589 9.68 176.589 11.12V11.192C176.589 13.01 175.401 14 172.899 14ZM168.165 7.988H171.387C172.233 7.988 172.665 7.664 172.665 7.034V6.944C172.665 6.368 172.269 6.026 171.387 6.026H168.165V7.988ZM168.165 11.984H171.531C172.467 11.984 172.989 11.678 172.989 10.976V10.832C172.989 10.202 172.557 9.806 171.531 9.806H168.165V11.984ZM187.458 7.952L182.634 14H179.034V4.01H182.544V10.058L187.368 4.01H190.968V14H187.458V7.952ZM201.304 4.01H204.814V14H201.304V10.562C200.53 10.652 199.63 10.742 198.694 10.742C194.734 10.742 193.24 9.626 193.24 6.458V4.01H196.75V5.81C196.75 7.682 197.38 8.006 199.234 8.006C199.936 8.006 200.746 7.952 201.304 7.88V4.01ZM15.272 33.968V34.148C15.272 37.01 12.608 38.234 7.928 38.234H7.496C3.68 38.234 0.00800003 37.1 0.00800003 33.5V33.284H3.968C3.968 34.94 5.444 35.516 8.126 35.516C10.358 35.516 11.42 34.922 11.42 33.842C11.42 32.834 10.718 32.402 8.972 32.402H5.102V29.756H8.774C9.854 29.756 11.006 29.594 11.006 28.586C11.006 27.452 10.034 27.092 7.676 27.092C5.75 27.092 4.13 27.452 4.076 28.964H0.116V28.694C0.116 25.508 3.59 24.446 7.316 24.446H7.892C12.41 24.446 14.858 25.58 14.858 27.83V27.956C14.858 29.666 13.724 30.494 12.284 30.872C13.724 31.16 15.272 32.096 15.272 33.968ZM26.0031 31.952L21.1791 38H17.5791V28.01H21.0891V34.058L25.9131 28.01H29.5131V38H26.0031V31.952ZM35.6726 31.268V38H32.4326V28.01H37.3826L40.3526 34.382L43.3226 28.01H48.0926V38H44.5826V31.268L41.4686 38H38.7866L35.6726 31.268ZM59.3136 31.952L54.4896 38H50.8896V28.01H54.3996V34.058L59.2236 28.01H62.8236V38H59.3136V31.952ZM69.2532 38H65.7432V28.01H69.2532V31.646H74.1492V28.01H77.6592V38H74.1492V34.31H69.2532V38Z" fill="url(#paint2_radial_2018_1129)"/>
<path d="M0.656 0.608H12.914V3.524H4.31V5.702H12.644V8.726H4.31V11.048H13.022V14H0.656V0.608ZM15.7861 14V4.01H24.4981V6.674H19.2961V14H15.7861ZM32.6673 14.27H32.1093C26.7273 14.27 25.8993 10.994 25.8993 9.176V8.924C25.8993 7.124 26.7273 3.74 32.0913 3.74H32.6853C38.2293 3.74 38.8773 7.142 38.8773 8.906V9.194C38.8773 10.994 38.2293 14.27 32.6673 14.27ZM32.2893 11.642H32.4873C34.7013 11.642 35.2593 10.058 35.2593 8.96C35.2593 7.826 34.7013 6.314 32.4873 6.314H32.2893C29.9853 6.314 29.5173 7.826 29.5173 8.96C29.5173 10.058 29.9853 11.642 32.2893 11.642ZM50.472 9.014V8.96C50.472 7.88 49.968 6.422 47.772 6.422H47.592C45.486 6.422 44.82 7.808 44.82 8.96V9.014C44.82 10.112 45.486 11.552 47.592 11.552H47.772C49.968 11.552 50.472 10.04 50.472 9.014ZM41.328 17.438V4.01H44.802V5.288C45.234 4.82 46.548 3.812 48.816 3.812H49.05C52.866 3.812 54.108 6.422 54.108 8.798V9.104C54.108 11.282 52.83 14.198 49.032 14.198H48.78C46.494 14.198 45.27 13.154 44.838 12.722V17.438H41.328ZM71.2929 8.762L68.8629 3.308L66.5049 8.762H71.2929ZM73.6329 14L72.5349 11.516H65.2989L64.2189 14H60.4929L66.4329 0.608H71.4009L77.6109 14H73.6329ZM87.4507 14V6.674H83.4907C83.4907 9.356 83.4007 10.85 83.0587 11.768C82.6807 12.776 82.1767 14 79.5307 14H78.4327V11.39H78.6487C79.2787 11.39 79.7467 11.174 79.9447 10.256C80.0887 9.482 80.1427 8.636 80.1427 4.01H90.9607V14H87.4507ZM99.6822 6.08C97.8642 6.08 97.1802 6.818 97.0002 7.862H102.292C102.292 7.124 101.932 6.08 99.6822 6.08ZM102.364 10.886H106.018C106.018 11.714 105.37 14.234 100.204 14.234H99.5382C94.6062 14.234 93.3822 11.534 93.3822 9.14V8.888C93.3822 6.638 94.4982 3.794 99.2322 3.794H100.024C105.136 3.794 106.054 6.638 106.054 9.428V9.752H96.9642C97.1082 10.904 97.8462 11.84 99.9882 11.84C102.022 11.84 102.274 11.048 102.364 10.886ZM115.892 14L112.004 9.374V14H108.494V4.01H112.004V8.006L115.568 4.01H119.618L115.442 8.492L120.068 14H115.892ZM129.414 10.076H133.086C133.086 11.588 132.186 14.27 127.38 14.27H126.498C121.512 14.27 120.576 11.03 120.576 9.14V8.888C120.576 6.998 121.458 3.74 126.48 3.74H127.308C132.132 3.74 133.086 6.368 133.086 7.808V7.826H129.414C129.36 7.538 129.018 6.296 126.948 6.296H126.768C124.698 6.296 124.212 7.718 124.212 8.924V8.942C124.212 10.184 124.806 11.66 126.84 11.66H127.02C129.108 11.66 129.414 10.31 129.414 10.076ZM141.29 6.08C139.472 6.08 138.788 6.818 138.608 7.862H143.9C143.9 7.124 143.54 6.08 141.29 6.08ZM143.972 10.886H147.626C147.626 11.714 146.978 14.234 141.812 14.234H141.146C136.214 14.234 134.99 11.534 134.99 9.14V8.888C134.99 6.638 136.106 3.794 140.84 3.794H141.632C146.744 3.794 147.662 6.638 147.662 9.428V9.752H138.572C138.716 10.904 139.454 11.84 141.596 11.84C143.63 11.84 143.882 11.048 143.972 10.886ZM155.879 6.08C154.061 6.08 153.377 6.818 153.197 7.862H158.489C158.489 7.124 158.129 6.08 155.879 6.08ZM158.561 10.886H162.215C162.215 11.714 161.567 14.234 156.401 14.234H155.735C150.803 14.234 149.579 11.534 149.579 9.14V8.888C149.579 6.638 150.695 3.794 155.429 3.794H156.221C161.333 3.794 162.251 6.638 162.251 9.428V9.752H153.161C153.305 10.904 154.043 11.84 156.185 11.84C158.219 11.84 158.471 11.048 158.561 10.886ZM172.899 14H164.655V4.01H172.539C174.825 4.01 176.265 4.82 176.265 6.404V6.494C176.265 7.736 175.473 8.474 174.267 8.672C175.491 8.816 176.589 9.68 176.589 11.12V11.192C176.589 13.01 175.401 14 172.899 14ZM168.165 7.988H171.387C172.233 7.988 172.665 7.664 172.665 7.034V6.944C172.665 6.368 172.269 6.026 171.387 6.026H168.165V7.988ZM168.165 11.984H171.531C172.467 11.984 172.989 11.678 172.989 10.976V10.832C172.989 10.202 172.557 9.806 171.531 9.806H168.165V11.984ZM187.458 7.952L182.634 14H179.034V4.01H182.544V10.058L187.368 4.01H190.968V14H187.458V7.952ZM201.304 4.01H204.814V14H201.304V10.562C200.53 10.652 199.63 10.742 198.694 10.742C194.734 10.742 193.24 9.626 193.24 6.458V4.01H196.75V5.81C196.75 7.682 197.38 8.006 199.234 8.006C199.936 8.006 200.746 7.952 201.304 7.88V4.01ZM15.272 33.968V34.148C15.272 37.01 12.608 38.234 7.928 38.234H7.496C3.68 38.234 0.00800003 37.1 0.00800003 33.5V33.284H3.968C3.968 34.94 5.444 35.516 8.126 35.516C10.358 35.516 11.42 34.922 11.42 33.842C11.42 32.834 10.718 32.402 8.972 32.402H5.102V29.756H8.774C9.854 29.756 11.006 29.594 11.006 28.586C11.006 27.452 10.034 27.092 7.676 27.092C5.75 27.092 4.13 27.452 4.076 28.964H0.116V28.694C0.116 25.508 3.59 24.446 7.316 24.446H7.892C12.41 24.446 14.858 25.58 14.858 27.83V27.956C14.858 29.666 13.724 30.494 12.284 30.872C13.724 31.16 15.272 32.096 15.272 33.968ZM26.0031 31.952L21.1791 38H17.5791V28.01H21.0891V34.058L25.9131 28.01H29.5131V38H26.0031V31.952ZM35.6726 31.268V38H32.4326V28.01H37.3826L40.3526 34.382L43.3226 28.01H48.0926V38H44.5826V31.268L41.4686 38H38.7866L35.6726 31.268ZM59.3136 31.952L54.4896 38H50.8896V28.01H54.3996V34.058L59.2236 28.01H62.8236V38H59.3136V31.952ZM69.2532 38H65.7432V28.01H69.2532V31.646H74.1492V28.01H77.6592V38H74.1492V34.31H69.2532V38Z" fill="#C1A875" style="mix-blend-mode:color"/>
<defs>
<linearGradient id="paint0_linear_2018_1129" x1="-0.999999" y1="30" x2="221" y2="30" gradientUnits="userSpaceOnUse">
<stop stop-color="#576167"/>
<stop offset="0.191294" stop-color="#9EA1A2"/>
<stop offset="0.396166" stop-color="#848989"/>
<stop offset="0.62055" stop-color="#576167"/>
<stop offset="0.830299" stop-color="#757A7C"/>
<stop offset="1" stop-color="#576167"/>
</linearGradient>
<radialGradient id="paint1_radial_2018_1129" cx="0" cy="0" r="1" gradientUnits="userSpaceOnUse" gradientTransform="translate(117.226 2.39326) rotate(90) scale(53.4944 167.95)">
<stop stop-color="white"/>
<stop offset="1" stop-color="white" stop-opacity="0"/>
</radialGradient>
<radialGradient id="paint2_radial_2018_1129" cx="0" cy="0" r="1" gradientUnits="userSpaceOnUse" gradientTransform="translate(129.783 82.9888) rotate(-89.7344) scale(76.6525 240.162)">
<stop stop-color="white"/>
<stop offset="1" stop-color="white" stop-opacity="0"/>
</radialGradient>
</defs>
</svg>
