<svg width="210" height="42" viewBox="0 0 210 42" fill="none" xmlns="http://www.w3.org/2000/svg">
<path d="M15.272 9.968V10.148C15.272 13.01 12.608 14.234 7.928 14.234H7.496C3.68 14.234 0.00800003 13.1 0.00800003 9.5V9.284H3.968C3.968 10.94 5.444 11.516 8.126 11.516C10.358 11.516 11.42 10.922 11.42 9.842C11.42 8.834 10.718 8.402 8.972 8.402H5.102V5.756H8.774C9.854 5.756 11.006 5.594 11.006 4.586C11.006 3.452 10.034 3.092 7.676 3.092C5.75 3.092 4.13 3.452 4.076 4.964H0.116V4.694C0.116 1.508 3.59 0.446 7.316 0.446H7.892C12.41 0.446 14.858 1.58 14.858 3.83V3.956C14.858 5.666 13.724 6.494 12.284 6.872C13.724 7.16 15.272 8.096 15.272 9.968ZM23.8431 14.27H23.2851C17.9031 14.27 17.0751 10.994 17.0751 9.176V8.924C17.0751 7.124 17.9031 3.74 23.2671 3.74H23.8611C29.4051 3.74 30.0531 7.142 30.0531 8.906V9.194C30.0531 10.994 29.4051 14.27 23.8431 14.27ZM23.4651 11.642H23.6631C25.8771 11.642 26.4351 10.058 26.4351 8.96C26.4351 7.826 25.8771 6.314 23.6631 6.314H23.4651C21.1611 6.314 20.6931 7.826 20.6931 8.96C20.6931 10.058 21.1611 11.642 23.4651 11.642ZM40.7859 10.652H38.4279L35.5119 14H31.5519L34.8099 10.274C33.0819 9.932 32.0919 8.942 32.0919 7.43V7.214C32.0919 5.396 33.5679 4.01 36.0699 4.01H44.2959V14H40.7859V10.652ZM40.7859 6.314H37.0239C36.2499 6.314 35.6019 6.494 35.6019 7.286V7.358C35.6019 8.132 36.2679 8.366 37.0419 8.366H40.7859V6.314ZM61.9589 8.762L59.5289 3.308L57.1709 8.762H61.9589ZM64.2989 14L63.2009 11.516H55.9649L54.8849 14H51.1589L57.0989 0.608H62.0669L68.2769 14H64.2989ZM73.4368 14H69.9268V4.01H73.4368V7.646H78.3328V4.01H81.8428V14H78.3328V10.31H73.4368V14ZM89.4787 12.002C91.5307 12.002 92.2327 10.706 92.2327 9.95V9.176C91.9267 9.302 91.0447 9.482 90.0367 9.644C88.3447 9.932 87.8047 10.166 87.8047 10.868V10.904C87.8047 11.534 88.2547 12.002 89.4787 12.002ZM92.3407 12.614C91.9087 13.136 90.8287 14.198 88.4887 14.198H88.2007C85.4107 14.198 84.2587 12.686 84.2587 11.03V10.958C84.2587 9.23 85.3567 8.168 88.7407 7.88L91.4767 7.646C92.0347 7.592 92.2327 7.412 92.2327 6.998C92.2327 6.53 92.0887 6.026 90.1447 6.026C88.3087 6.026 88.1287 6.746 88.1287 7.124H84.5287V7.088C84.5287 6.098 84.9247 3.776 89.8387 3.776H90.3967C95.3467 3.776 95.6527 5.81 95.6527 7.142V10.436C95.6527 11.066 95.7787 11.318 96.4807 11.318H96.8587V14H94.0147C92.9707 14 92.4847 13.262 92.3407 12.614ZM101.547 14V6.674H97.6766V4.01H108.927V6.674H105.057V14H101.547ZM117.095 14.27H116.537C111.155 14.27 110.327 10.994 110.327 9.176V8.924C110.327 7.124 111.155 3.74 116.519 3.74H117.113C122.657 3.74 123.305 7.142 123.305 8.906V9.194C123.305 10.994 122.657 14.27 117.095 14.27ZM116.717 11.642H116.915C119.129 11.642 119.687 10.058 119.687 8.96C119.687 7.826 119.129 6.314 116.915 6.314H116.717C114.413 6.314 113.945 7.826 113.945 8.96C113.945 10.058 114.413 11.642 116.717 11.642ZM133.734 14V6.674H129.774C129.774 9.356 129.684 10.85 129.342 11.768C128.964 12.776 128.46 14 125.814 14H124.716V11.39H124.932C125.562 11.39 126.03 11.174 126.228 10.256C126.372 9.482 126.426 8.636 126.426 4.01H137.244V14H133.734ZM140.151 14V4.01H143.661V6.872H146.397C149.817 6.872 151.149 8.384 151.149 10.292V10.508C151.149 12.596 149.817 14 146.397 14H140.151ZM143.661 11.624H145.965C146.685 11.624 147.549 11.408 147.549 10.436V10.382C147.549 9.482 146.685 9.248 145.965 9.248H143.661V11.624ZM159.219 6.08C157.401 6.08 156.717 6.818 156.537 7.862H161.829C161.829 7.124 161.469 6.08 159.219 6.08ZM161.901 10.886H165.555C165.555 11.714 164.907 14.234 159.741 14.234H159.075C154.143 14.234 152.919 11.534 152.919 9.14V8.888C152.919 6.638 154.035 3.794 158.769 3.794H159.561C164.673 3.794 165.591 6.638 165.591 9.428V9.752H156.501C156.645 10.904 157.383 11.84 159.525 11.84C161.559 11.84 161.811 11.048 161.901 10.886ZM176.239 14H167.995V4.01H175.879C178.165 4.01 179.605 4.82 179.605 6.404V6.494C179.605 7.736 178.813 8.474 177.607 8.672C178.831 8.816 179.929 9.68 179.929 11.12V11.192C179.929 13.01 178.741 14 176.239 14ZM171.505 7.988H174.727C175.573 7.988 176.005 7.664 176.005 7.034V6.944C176.005 6.368 175.609 6.026 174.727 6.026H171.505V7.988ZM171.505 11.984H174.871C175.807 11.984 176.329 11.678 176.329 10.976V10.832C176.329 10.202 175.897 9.806 174.871 9.806H171.505V11.984ZM185.884 14H182.374V4.01H185.884V7.646H190.78V4.01H194.29V14H190.78V10.31H185.884V14ZM201.926 12.002C203.978 12.002 204.68 10.706 204.68 9.95V9.176C204.374 9.302 203.492 9.482 202.484 9.644C200.792 9.932 200.252 10.166 200.252 10.868V10.904C200.252 11.534 200.702 12.002 201.926 12.002ZM204.788 12.614C204.356 13.136 203.276 14.198 200.936 14.198H200.648C197.858 14.198 196.706 12.686 196.706 11.03V10.958C196.706 9.23 197.804 8.168 201.188 7.88L203.924 7.646C204.482 7.592 204.68 7.412 204.68 6.998C204.68 6.53 204.536 6.026 202.592 6.026C200.756 6.026 200.576 6.746 200.576 7.124H196.976V7.088C196.976 6.098 197.372 3.776 202.286 3.776H202.844C207.794 3.776 208.1 5.81 208.1 7.142V10.436C208.1 11.066 208.226 11.318 208.928 11.318H209.306V14H206.462C205.418 14 204.932 13.262 204.788 12.614ZM9.728 33.716H4.364V38H0.656V24.608H9.728C13.958 24.608 15.272 26.462 15.272 29.054V29.252C15.272 31.79 13.904 33.716 9.728 33.716ZM4.364 27.596V30.728H9.458C10.826 30.728 11.42 30.152 11.42 29.198V29.126C11.42 28.19 10.826 27.596 9.458 27.596H4.364ZM18.423 41.438V38.936H20.619C20.961 38.936 21.141 38.792 21.141 38.522V38.504C21.141 38.288 21.087 38.09 20.817 37.532L16.533 28.01H20.385L23.157 35.174L25.911 28.01H29.439L24.867 39.008C24.165 40.646 23.301 41.438 21.645 41.438H18.423ZM43.6937 33.122V33.356C43.6937 37.1 40.8497 38.27 37.4477 38.27H37.0877C33.5777 38.27 30.7157 36.902 30.7157 32.15V31.088C30.7157 26.282 33.1097 24.698 37.7897 24.698H38.5997C39.7157 24.698 39.7877 24.59 39.8237 24.374H43.2617C43.2617 26.48 42.4697 27.362 40.0217 27.362H37.7897C35.1977 27.362 34.2077 28.172 34.1537 29.99C35.0717 29.036 36.4757 28.388 38.6897 28.388H38.7977C41.1737 28.388 43.6937 29.594 43.6937 33.122ZM37.1237 35.642H37.3217C38.9057 35.642 40.0757 34.85 40.0757 33.212C40.0757 31.628 38.8877 30.854 37.3397 30.854H37.1237C35.3957 30.854 34.3337 31.592 34.3337 33.23C34.3337 34.886 35.4137 35.642 37.1237 35.642ZM59.4644 35.336V40.124H56.1344V38H46.1084V28.01H49.6184V35.336H54.1544V28.01H57.6644V35.336H59.4644ZM67.6478 38.27H67.0898C61.7078 38.27 60.8798 34.994 60.8798 33.176V32.924C60.8798 31.124 61.7078 27.74 67.0718 27.74H67.6658C73.2098 27.74 73.8578 31.142 73.8578 32.906V33.194C73.8578 34.994 73.2098 38.27 67.6478 38.27ZM67.2698 35.642H67.4678C69.6818 35.642 70.2398 34.058 70.2398 32.96C70.2398 31.826 69.6818 30.314 67.4678 30.314H67.2698C64.9658 30.314 64.4978 31.826 64.4978 32.96C64.4978 34.058 64.9658 35.642 67.2698 35.642ZM84.5165 38H76.2725V28.01H84.1565C86.4425 28.01 87.8825 28.82 87.8825 30.404V30.494C87.8825 31.736 87.0905 32.474 85.8845 32.672C87.1085 32.816 88.2065 33.68 88.2065 35.12V35.192C88.2065 37.01 87.0185 38 84.5165 38ZM79.7825 31.988H83.0045C83.8505 31.988 84.2825 31.664 84.2825 31.034V30.944C84.2825 30.368 83.8865 30.026 83.0045 30.026H79.7825V31.988ZM79.7825 35.984H83.1485C84.0845 35.984 84.6065 35.678 84.6065 34.976V34.832C84.6065 34.202 84.1745 33.806 83.1485 33.806H79.7825V35.984ZM95.2795 36.002C97.3315 36.002 98.0335 34.706 98.0335 33.95V33.176C97.7275 33.302 96.8455 33.482 95.8375 33.644C94.1455 33.932 93.6055 34.166 93.6055 34.868V34.904C93.6055 35.534 94.0555 36.002 95.2795 36.002ZM98.1415 36.614C97.7095 37.136 96.6295 38.198 94.2895 38.198H94.0015C91.2115 38.198 90.0595 36.686 90.0595 35.03V34.958C90.0595 33.23 91.1575 32.168 94.5415 31.88L97.2775 31.646C97.8355 31.592 98.0335 31.412 98.0335 30.998C98.0335 30.53 97.8895 30.026 95.9455 30.026C94.1095 30.026 93.9295 30.746 93.9295 31.124H90.3295V31.088C90.3295 30.098 90.7255 27.776 95.6395 27.776H96.1975C101.147 27.776 101.453 29.81 101.453 31.142V34.436C101.453 35.066 101.579 35.318 102.281 35.318H102.659V38H99.8155C98.7715 38 98.2855 37.262 98.1415 36.614Z" fill="url(#paint0_linear_2018_1166)"/>
<path d="M15.272 9.968V10.148C15.272 13.01 12.608 14.234 7.928 14.234H7.496C3.68 14.234 0.00800003 13.1 0.00800003 9.5V9.284H3.968C3.968 10.94 5.444 11.516 8.126 11.516C10.358 11.516 11.42 10.922 11.42 9.842C11.42 8.834 10.718 8.402 8.972 8.402H5.102V5.756H8.774C9.854 5.756 11.006 5.594 11.006 4.586C11.006 3.452 10.034 3.092 7.676 3.092C5.75 3.092 4.13 3.452 4.076 4.964H0.116V4.694C0.116 1.508 3.59 0.446 7.316 0.446H7.892C12.41 0.446 14.858 1.58 14.858 3.83V3.956C14.858 5.666 13.724 6.494 12.284 6.872C13.724 7.16 15.272 8.096 15.272 9.968ZM23.8431 14.27H23.2851C17.9031 14.27 17.0751 10.994 17.0751 9.176V8.924C17.0751 7.124 17.9031 3.74 23.2671 3.74H23.8611C29.4051 3.74 30.0531 7.142 30.0531 8.906V9.194C30.0531 10.994 29.4051 14.27 23.8431 14.27ZM23.4651 11.642H23.6631C25.8771 11.642 26.4351 10.058 26.4351 8.96C26.4351 7.826 25.8771 6.314 23.6631 6.314H23.4651C21.1611 6.314 20.6931 7.826 20.6931 8.96C20.6931 10.058 21.1611 11.642 23.4651 11.642ZM40.7859 10.652H38.4279L35.5119 14H31.5519L34.8099 10.274C33.0819 9.932 32.0919 8.942 32.0919 7.43V7.214C32.0919 5.396 33.5679 4.01 36.0699 4.01H44.2959V14H40.7859V10.652ZM40.7859 6.314H37.0239C36.2499 6.314 35.6019 6.494 35.6019 7.286V7.358C35.6019 8.132 36.2679 8.366 37.0419 8.366H40.7859V6.314ZM61.9589 8.762L59.5289 3.308L57.1709 8.762H61.9589ZM64.2989 14L63.2009 11.516H55.9649L54.8849 14H51.1589L57.0989 0.608H62.0669L68.2769 14H64.2989ZM73.4368 14H69.9268V4.01H73.4368V7.646H78.3328V4.01H81.8428V14H78.3328V10.31H73.4368V14ZM89.4787 12.002C91.5307 12.002 92.2327 10.706 92.2327 9.95V9.176C91.9267 9.302 91.0447 9.482 90.0367 9.644C88.3447 9.932 87.8047 10.166 87.8047 10.868V10.904C87.8047 11.534 88.2547 12.002 89.4787 12.002ZM92.3407 12.614C91.9087 13.136 90.8287 14.198 88.4887 14.198H88.2007C85.4107 14.198 84.2587 12.686 84.2587 11.03V10.958C84.2587 9.23 85.3567 8.168 88.7407 7.88L91.4767 7.646C92.0347 7.592 92.2327 7.412 92.2327 6.998C92.2327 6.53 92.0887 6.026 90.1447 6.026C88.3087 6.026 88.1287 6.746 88.1287 7.124H84.5287V7.088C84.5287 6.098 84.9247 3.776 89.8387 3.776H90.3967C95.3467 3.776 95.6527 5.81 95.6527 7.142V10.436C95.6527 11.066 95.7787 11.318 96.4807 11.318H96.8587V14H94.0147C92.9707 14 92.4847 13.262 92.3407 12.614ZM101.547 14V6.674H97.6766V4.01H108.927V6.674H105.057V14H101.547ZM117.095 14.27H116.537C111.155 14.27 110.327 10.994 110.327 9.176V8.924C110.327 7.124 111.155 3.74 116.519 3.74H117.113C122.657 3.74 123.305 7.142 123.305 8.906V9.194C123.305 10.994 122.657 14.27 117.095 14.27ZM116.717 11.642H116.915C119.129 11.642 119.687 10.058 119.687 8.96C119.687 7.826 119.129 6.314 116.915 6.314H116.717C114.413 6.314 113.945 7.826 113.945 8.96C113.945 10.058 114.413 11.642 116.717 11.642ZM133.734 14V6.674H129.774C129.774 9.356 129.684 10.85 129.342 11.768C128.964 12.776 128.46 14 125.814 14H124.716V11.39H124.932C125.562 11.39 126.03 11.174 126.228 10.256C126.372 9.482 126.426 8.636 126.426 4.01H137.244V14H133.734ZM140.151 14V4.01H143.661V6.872H146.397C149.817 6.872 151.149 8.384 151.149 10.292V10.508C151.149 12.596 149.817 14 146.397 14H140.151ZM143.661 11.624H145.965C146.685 11.624 147.549 11.408 147.549 10.436V10.382C147.549 9.482 146.685 9.248 145.965 9.248H143.661V11.624ZM159.219 6.08C157.401 6.08 156.717 6.818 156.537 7.862H161.829C161.829 7.124 161.469 6.08 159.219 6.08ZM161.901 10.886H165.555C165.555 11.714 164.907 14.234 159.741 14.234H159.075C154.143 14.234 152.919 11.534 152.919 9.14V8.888C152.919 6.638 154.035 3.794 158.769 3.794H159.561C164.673 3.794 165.591 6.638 165.591 9.428V9.752H156.501C156.645 10.904 157.383 11.84 159.525 11.84C161.559 11.84 161.811 11.048 161.901 10.886ZM176.239 14H167.995V4.01H175.879C178.165 4.01 179.605 4.82 179.605 6.404V6.494C179.605 7.736 178.813 8.474 177.607 8.672C178.831 8.816 179.929 9.68 179.929 11.12V11.192C179.929 13.01 178.741 14 176.239 14ZM171.505 7.988H174.727C175.573 7.988 176.005 7.664 176.005 7.034V6.944C176.005 6.368 175.609 6.026 174.727 6.026H171.505V7.988ZM171.505 11.984H174.871C175.807 11.984 176.329 11.678 176.329 10.976V10.832C176.329 10.202 175.897 9.806 174.871 9.806H171.505V11.984ZM185.884 14H182.374V4.01H185.884V7.646H190.78V4.01H194.29V14H190.78V10.31H185.884V14ZM201.926 12.002C203.978 12.002 204.68 10.706 204.68 9.95V9.176C204.374 9.302 203.492 9.482 202.484 9.644C200.792 9.932 200.252 10.166 200.252 10.868V10.904C200.252 11.534 200.702 12.002 201.926 12.002ZM204.788 12.614C204.356 13.136 203.276 14.198 200.936 14.198H200.648C197.858 14.198 196.706 12.686 196.706 11.03V10.958C196.706 9.23 197.804 8.168 201.188 7.88L203.924 7.646C204.482 7.592 204.68 7.412 204.68 6.998C204.68 6.53 204.536 6.026 202.592 6.026C200.756 6.026 200.576 6.746 200.576 7.124H196.976V7.088C196.976 6.098 197.372 3.776 202.286 3.776H202.844C207.794 3.776 208.1 5.81 208.1 7.142V10.436C208.1 11.066 208.226 11.318 208.928 11.318H209.306V14H206.462C205.418 14 204.932 13.262 204.788 12.614ZM9.728 33.716H4.364V38H0.656V24.608H9.728C13.958 24.608 15.272 26.462 15.272 29.054V29.252C15.272 31.79 13.904 33.716 9.728 33.716ZM4.364 27.596V30.728H9.458C10.826 30.728 11.42 30.152 11.42 29.198V29.126C11.42 28.19 10.826 27.596 9.458 27.596H4.364ZM18.423 41.438V38.936H20.619C20.961 38.936 21.141 38.792 21.141 38.522V38.504C21.141 38.288 21.087 38.09 20.817 37.532L16.533 28.01H20.385L23.157 35.174L25.911 28.01H29.439L24.867 39.008C24.165 40.646 23.301 41.438 21.645 41.438H18.423ZM43.6937 33.122V33.356C43.6937 37.1 40.8497 38.27 37.4477 38.27H37.0877C33.5777 38.27 30.7157 36.902 30.7157 32.15V31.088C30.7157 26.282 33.1097 24.698 37.7897 24.698H38.5997C39.7157 24.698 39.7877 24.59 39.8237 24.374H43.2617C43.2617 26.48 42.4697 27.362 40.0217 27.362H37.7897C35.1977 27.362 34.2077 28.172 34.1537 29.99C35.0717 29.036 36.4757 28.388 38.6897 28.388H38.7977C41.1737 28.388 43.6937 29.594 43.6937 33.122ZM37.1237 35.642H37.3217C38.9057 35.642 40.0757 34.85 40.0757 33.212C40.0757 31.628 38.8877 30.854 37.3397 30.854H37.1237C35.3957 30.854 34.3337 31.592 34.3337 33.23C34.3337 34.886 35.4137 35.642 37.1237 35.642ZM59.4644 35.336V40.124H56.1344V38H46.1084V28.01H49.6184V35.336H54.1544V28.01H57.6644V35.336H59.4644ZM67.6478 38.27H67.0898C61.7078 38.27 60.8798 34.994 60.8798 33.176V32.924C60.8798 31.124 61.7078 27.74 67.0718 27.74H67.6658C73.2098 27.74 73.8578 31.142 73.8578 32.906V33.194C73.8578 34.994 73.2098 38.27 67.6478 38.27ZM67.2698 35.642H67.4678C69.6818 35.642 70.2398 34.058 70.2398 32.96C70.2398 31.826 69.6818 30.314 67.4678 30.314H67.2698C64.9658 30.314 64.4978 31.826 64.4978 32.96C64.4978 34.058 64.9658 35.642 67.2698 35.642ZM84.5165 38H76.2725V28.01H84.1565C86.4425 28.01 87.8825 28.82 87.8825 30.404V30.494C87.8825 31.736 87.0905 32.474 85.8845 32.672C87.1085 32.816 88.2065 33.68 88.2065 35.12V35.192C88.2065 37.01 87.0185 38 84.5165 38ZM79.7825 31.988H83.0045C83.8505 31.988 84.2825 31.664 84.2825 31.034V30.944C84.2825 30.368 83.8865 30.026 83.0045 30.026H79.7825V31.988ZM79.7825 35.984H83.1485C84.0845 35.984 84.6065 35.678 84.6065 34.976V34.832C84.6065 34.202 84.1745 33.806 83.1485 33.806H79.7825V35.984ZM95.2795 36.002C97.3315 36.002 98.0335 34.706 98.0335 33.95V33.176C97.7275 33.302 96.8455 33.482 95.8375 33.644C94.1455 33.932 93.6055 34.166 93.6055 34.868V34.904C93.6055 35.534 94.0555 36.002 95.2795 36.002ZM98.1415 36.614C97.7095 37.136 96.6295 38.198 94.2895 38.198H94.0015C91.2115 38.198 90.0595 36.686 90.0595 35.03V34.958C90.0595 33.23 91.1575 32.168 94.5415 31.88L97.2775 31.646C97.8355 31.592 98.0335 31.412 98.0335 30.998C98.0335 30.53 97.8895 30.026 95.9455 30.026C94.1095 30.026 93.9295 30.746 93.9295 31.124H90.3295V31.088C90.3295 30.098 90.7255 27.776 95.6395 27.776H96.1975C101.147 27.776 101.453 29.81 101.453 31.142V34.436C101.453 35.066 101.579 35.318 102.281 35.318H102.659V38H99.8155C98.7715 38 98.2855 37.262 98.1415 36.614Z" fill="url(#paint1_radial_2018_1166)" style="mix-blend-mode:overlay"/>
<path d="M15.272 9.968V10.148C15.272 13.01 12.608 14.234 7.928 14.234H7.496C3.68 14.234 0.00800003 13.1 0.00800003 9.5V9.284H3.968C3.968 10.94 5.444 11.516 8.126 11.516C10.358 11.516 11.42 10.922 11.42 9.842C11.42 8.834 10.718 8.402 8.972 8.402H5.102V5.756H8.774C9.854 5.756 11.006 5.594 11.006 4.586C11.006 3.452 10.034 3.092 7.676 3.092C5.75 3.092 4.13 3.452 4.076 4.964H0.116V4.694C0.116 1.508 3.59 0.446 7.316 0.446H7.892C12.41 0.446 14.858 1.58 14.858 3.83V3.956C14.858 5.666 13.724 6.494 12.284 6.872C13.724 7.16 15.272 8.096 15.272 9.968ZM23.8431 14.27H23.2851C17.9031 14.27 17.0751 10.994 17.0751 9.176V8.924C17.0751 7.124 17.9031 3.74 23.2671 3.74H23.8611C29.4051 3.74 30.0531 7.142 30.0531 8.906V9.194C30.0531 10.994 29.4051 14.27 23.8431 14.27ZM23.4651 11.642H23.6631C25.8771 11.642 26.4351 10.058 26.4351 8.96C26.4351 7.826 25.8771 6.314 23.6631 6.314H23.4651C21.1611 6.314 20.6931 7.826 20.6931 8.96C20.6931 10.058 21.1611 11.642 23.4651 11.642ZM40.7859 10.652H38.4279L35.5119 14H31.5519L34.8099 10.274C33.0819 9.932 32.0919 8.942 32.0919 7.43V7.214C32.0919 5.396 33.5679 4.01 36.0699 4.01H44.2959V14H40.7859V10.652ZM40.7859 6.314H37.0239C36.2499 6.314 35.6019 6.494 35.6019 7.286V7.358C35.6019 8.132 36.2679 8.366 37.0419 8.366H40.7859V6.314ZM61.9589 8.762L59.5289 3.308L57.1709 8.762H61.9589ZM64.2989 14L63.2009 11.516H55.9649L54.8849 14H51.1589L57.0989 0.608H62.0669L68.2769 14H64.2989ZM73.4368 14H69.9268V4.01H73.4368V7.646H78.3328V4.01H81.8428V14H78.3328V10.31H73.4368V14ZM89.4787 12.002C91.5307 12.002 92.2327 10.706 92.2327 9.95V9.176C91.9267 9.302 91.0447 9.482 90.0367 9.644C88.3447 9.932 87.8047 10.166 87.8047 10.868V10.904C87.8047 11.534 88.2547 12.002 89.4787 12.002ZM92.3407 12.614C91.9087 13.136 90.8287 14.198 88.4887 14.198H88.2007C85.4107 14.198 84.2587 12.686 84.2587 11.03V10.958C84.2587 9.23 85.3567 8.168 88.7407 7.88L91.4767 7.646C92.0347 7.592 92.2327 7.412 92.2327 6.998C92.2327 6.53 92.0887 6.026 90.1447 6.026C88.3087 6.026 88.1287 6.746 88.1287 7.124H84.5287V7.088C84.5287 6.098 84.9247 3.776 89.8387 3.776H90.3967C95.3467 3.776 95.6527 5.81 95.6527 7.142V10.436C95.6527 11.066 95.7787 11.318 96.4807 11.318H96.8587V14H94.0147C92.9707 14 92.4847 13.262 92.3407 12.614ZM101.547 14V6.674H97.6766V4.01H108.927V6.674H105.057V14H101.547ZM117.095 14.27H116.537C111.155 14.27 110.327 10.994 110.327 9.176V8.924C110.327 7.124 111.155 3.74 116.519 3.74H117.113C122.657 3.74 123.305 7.142 123.305 8.906V9.194C123.305 10.994 122.657 14.27 117.095 14.27ZM116.717 11.642H116.915C119.129 11.642 119.687 10.058 119.687 8.96C119.687 7.826 119.129 6.314 116.915 6.314H116.717C114.413 6.314 113.945 7.826 113.945 8.96C113.945 10.058 114.413 11.642 116.717 11.642ZM133.734 14V6.674H129.774C129.774 9.356 129.684 10.85 129.342 11.768C128.964 12.776 128.46 14 125.814 14H124.716V11.39H124.932C125.562 11.39 126.03 11.174 126.228 10.256C126.372 9.482 126.426 8.636 126.426 4.01H137.244V14H133.734ZM140.151 14V4.01H143.661V6.872H146.397C149.817 6.872 151.149 8.384 151.149 10.292V10.508C151.149 12.596 149.817 14 146.397 14H140.151ZM143.661 11.624H145.965C146.685 11.624 147.549 11.408 147.549 10.436V10.382C147.549 9.482 146.685 9.248 145.965 9.248H143.661V11.624ZM159.219 6.08C157.401 6.08 156.717 6.818 156.537 7.862H161.829C161.829 7.124 161.469 6.08 159.219 6.08ZM161.901 10.886H165.555C165.555 11.714 164.907 14.234 159.741 14.234H159.075C154.143 14.234 152.919 11.534 152.919 9.14V8.888C152.919 6.638 154.035 3.794 158.769 3.794H159.561C164.673 3.794 165.591 6.638 165.591 9.428V9.752H156.501C156.645 10.904 157.383 11.84 159.525 11.84C161.559 11.84 161.811 11.048 161.901 10.886ZM176.239 14H167.995V4.01H175.879C178.165 4.01 179.605 4.82 179.605 6.404V6.494C179.605 7.736 178.813 8.474 177.607 8.672C178.831 8.816 179.929 9.68 179.929 11.12V11.192C179.929 13.01 178.741 14 176.239 14ZM171.505 7.988H174.727C175.573 7.988 176.005 7.664 176.005 7.034V6.944C176.005 6.368 175.609 6.026 174.727 6.026H171.505V7.988ZM171.505 11.984H174.871C175.807 11.984 176.329 11.678 176.329 10.976V10.832C176.329 10.202 175.897 9.806 174.871 9.806H171.505V11.984ZM185.884 14H182.374V4.01H185.884V7.646H190.78V4.01H194.29V14H190.78V10.31H185.884V14ZM201.926 12.002C203.978 12.002 204.68 10.706 204.68 9.95V9.176C204.374 9.302 203.492 9.482 202.484 9.644C200.792 9.932 200.252 10.166 200.252 10.868V10.904C200.252 11.534 200.702 12.002 201.926 12.002ZM204.788 12.614C204.356 13.136 203.276 14.198 200.936 14.198H200.648C197.858 14.198 196.706 12.686 196.706 11.03V10.958C196.706 9.23 197.804 8.168 201.188 7.88L203.924 7.646C204.482 7.592 204.68 7.412 204.68 6.998C204.68 6.53 204.536 6.026 202.592 6.026C200.756 6.026 200.576 6.746 200.576 7.124H196.976V7.088C196.976 6.098 197.372 3.776 202.286 3.776H202.844C207.794 3.776 208.1 5.81 208.1 7.142V10.436C208.1 11.066 208.226 11.318 208.928 11.318H209.306V14H206.462C205.418 14 204.932 13.262 204.788 12.614ZM9.728 33.716H4.364V38H0.656V24.608H9.728C13.958 24.608 15.272 26.462 15.272 29.054V29.252C15.272 31.79 13.904 33.716 9.728 33.716ZM4.364 27.596V30.728H9.458C10.826 30.728 11.42 30.152 11.42 29.198V29.126C11.42 28.19 10.826 27.596 9.458 27.596H4.364ZM18.423 41.438V38.936H20.619C20.961 38.936 21.141 38.792 21.141 38.522V38.504C21.141 38.288 21.087 38.09 20.817 37.532L16.533 28.01H20.385L23.157 35.174L25.911 28.01H29.439L24.867 39.008C24.165 40.646 23.301 41.438 21.645 41.438H18.423ZM43.6937 33.122V33.356C43.6937 37.1 40.8497 38.27 37.4477 38.27H37.0877C33.5777 38.27 30.7157 36.902 30.7157 32.15V31.088C30.7157 26.282 33.1097 24.698 37.7897 24.698H38.5997C39.7157 24.698 39.7877 24.59 39.8237 24.374H43.2617C43.2617 26.48 42.4697 27.362 40.0217 27.362H37.7897C35.1977 27.362 34.2077 28.172 34.1537 29.99C35.0717 29.036 36.4757 28.388 38.6897 28.388H38.7977C41.1737 28.388 43.6937 29.594 43.6937 33.122ZM37.1237 35.642H37.3217C38.9057 35.642 40.0757 34.85 40.0757 33.212C40.0757 31.628 38.8877 30.854 37.3397 30.854H37.1237C35.3957 30.854 34.3337 31.592 34.3337 33.23C34.3337 34.886 35.4137 35.642 37.1237 35.642ZM59.4644 35.336V40.124H56.1344V38H46.1084V28.01H49.6184V35.336H54.1544V28.01H57.6644V35.336H59.4644ZM67.6478 38.27H67.0898C61.7078 38.27 60.8798 34.994 60.8798 33.176V32.924C60.8798 31.124 61.7078 27.74 67.0718 27.74H67.6658C73.2098 27.74 73.8578 31.142 73.8578 32.906V33.194C73.8578 34.994 73.2098 38.27 67.6478 38.27ZM67.2698 35.642H67.4678C69.6818 35.642 70.2398 34.058 70.2398 32.96C70.2398 31.826 69.6818 30.314 67.4678 30.314H67.2698C64.9658 30.314 64.4978 31.826 64.4978 32.96C64.4978 34.058 64.9658 35.642 67.2698 35.642ZM84.5165 38H76.2725V28.01H84.1565C86.4425 28.01 87.8825 28.82 87.8825 30.404V30.494C87.8825 31.736 87.0905 32.474 85.8845 32.672C87.1085 32.816 88.2065 33.68 88.2065 35.12V35.192C88.2065 37.01 87.0185 38 84.5165 38ZM79.7825 31.988H83.0045C83.8505 31.988 84.2825 31.664 84.2825 31.034V30.944C84.2825 30.368 83.8865 30.026 83.0045 30.026H79.7825V31.988ZM79.7825 35.984H83.1485C84.0845 35.984 84.6065 35.678 84.6065 34.976V34.832C84.6065 34.202 84.1745 33.806 83.1485 33.806H79.7825V35.984ZM95.2795 36.002C97.3315 36.002 98.0335 34.706 98.0335 33.95V33.176C97.7275 33.302 96.8455 33.482 95.8375 33.644C94.1455 33.932 93.6055 34.166 93.6055 34.868V34.904C93.6055 35.534 94.0555 36.002 95.2795 36.002ZM98.1415 36.614C97.7095 37.136 96.6295 38.198 94.2895 38.198H94.0015C91.2115 38.198 90.0595 36.686 90.0595 35.03V34.958C90.0595 33.23 91.1575 32.168 94.5415 31.88L97.2775 31.646C97.8355 31.592 98.0335 31.412 98.0335 30.998C98.0335 30.53 97.8895 30.026 95.9455 30.026C94.1095 30.026 93.9295 30.746 93.9295 31.124H90.3295V31.088C90.3295 30.098 90.7255 27.776 95.6395 27.776H96.1975C101.147 27.776 101.453 29.81 101.453 31.142V34.436C101.453 35.066 101.579 35.318 102.281 35.318H102.659V38H99.8155C98.7715 38 98.2855 37.262 98.1415 36.614Z" fill="url(#paint2_radial_2018_1166)"/>
<path d="M15.272 9.968V10.148C15.272 13.01 12.608 14.234 7.928 14.234H7.496C3.68 14.234 0.00800003 13.1 0.00800003 9.5V9.284H3.968C3.968 10.94 5.444 11.516 8.126 11.516C10.358 11.516 11.42 10.922 11.42 9.842C11.42 8.834 10.718 8.402 8.972 8.402H5.102V5.756H8.774C9.854 5.756 11.006 5.594 11.006 4.586C11.006 3.452 10.034 3.092 7.676 3.092C5.75 3.092 4.13 3.452 4.076 4.964H0.116V4.694C0.116 1.508 3.59 0.446 7.316 0.446H7.892C12.41 0.446 14.858 1.58 14.858 3.83V3.956C14.858 5.666 13.724 6.494 12.284 6.872C13.724 7.16 15.272 8.096 15.272 9.968ZM23.8431 14.27H23.2851C17.9031 14.27 17.0751 10.994 17.0751 9.176V8.924C17.0751 7.124 17.9031 3.74 23.2671 3.74H23.8611C29.4051 3.74 30.0531 7.142 30.0531 8.906V9.194C30.0531 10.994 29.4051 14.27 23.8431 14.27ZM23.4651 11.642H23.6631C25.8771 11.642 26.4351 10.058 26.4351 8.96C26.4351 7.826 25.8771 6.314 23.6631 6.314H23.4651C21.1611 6.314 20.6931 7.826 20.6931 8.96C20.6931 10.058 21.1611 11.642 23.4651 11.642ZM40.7859 10.652H38.4279L35.5119 14H31.5519L34.8099 10.274C33.0819 9.932 32.0919 8.942 32.0919 7.43V7.214C32.0919 5.396 33.5679 4.01 36.0699 4.01H44.2959V14H40.7859V10.652ZM40.7859 6.314H37.0239C36.2499 6.314 35.6019 6.494 35.6019 7.286V7.358C35.6019 8.132 36.2679 8.366 37.0419 8.366H40.7859V6.314ZM61.9589 8.762L59.5289 3.308L57.1709 8.762H61.9589ZM64.2989 14L63.2009 11.516H55.9649L54.8849 14H51.1589L57.0989 0.608H62.0669L68.2769 14H64.2989ZM73.4368 14H69.9268V4.01H73.4368V7.646H78.3328V4.01H81.8428V14H78.3328V10.31H73.4368V14ZM89.4787 12.002C91.5307 12.002 92.2327 10.706 92.2327 9.95V9.176C91.9267 9.302 91.0447 9.482 90.0367 9.644C88.3447 9.932 87.8047 10.166 87.8047 10.868V10.904C87.8047 11.534 88.2547 12.002 89.4787 12.002ZM92.3407 12.614C91.9087 13.136 90.8287 14.198 88.4887 14.198H88.2007C85.4107 14.198 84.2587 12.686 84.2587 11.03V10.958C84.2587 9.23 85.3567 8.168 88.7407 7.88L91.4767 7.646C92.0347 7.592 92.2327 7.412 92.2327 6.998C92.2327 6.53 92.0887 6.026 90.1447 6.026C88.3087 6.026 88.1287 6.746 88.1287 7.124H84.5287V7.088C84.5287 6.098 84.9247 3.776 89.8387 3.776H90.3967C95.3467 3.776 95.6527 5.81 95.6527 7.142V10.436C95.6527 11.066 95.7787 11.318 96.4807 11.318H96.8587V14H94.0147C92.9707 14 92.4847 13.262 92.3407 12.614ZM101.547 14V6.674H97.6766V4.01H108.927V6.674H105.057V14H101.547ZM117.095 14.27H116.537C111.155 14.27 110.327 10.994 110.327 9.176V8.924C110.327 7.124 111.155 3.74 116.519 3.74H117.113C122.657 3.74 123.305 7.142 123.305 8.906V9.194C123.305 10.994 122.657 14.27 117.095 14.27ZM116.717 11.642H116.915C119.129 11.642 119.687 10.058 119.687 8.96C119.687 7.826 119.129 6.314 116.915 6.314H116.717C114.413 6.314 113.945 7.826 113.945 8.96C113.945 10.058 114.413 11.642 116.717 11.642ZM133.734 14V6.674H129.774C129.774 9.356 129.684 10.85 129.342 11.768C128.964 12.776 128.46 14 125.814 14H124.716V11.39H124.932C125.562 11.39 126.03 11.174 126.228 10.256C126.372 9.482 126.426 8.636 126.426 4.01H137.244V14H133.734ZM140.151 14V4.01H143.661V6.872H146.397C149.817 6.872 151.149 8.384 151.149 10.292V10.508C151.149 12.596 149.817 14 146.397 14H140.151ZM143.661 11.624H145.965C146.685 11.624 147.549 11.408 147.549 10.436V10.382C147.549 9.482 146.685 9.248 145.965 9.248H143.661V11.624ZM159.219 6.08C157.401 6.08 156.717 6.818 156.537 7.862H161.829C161.829 7.124 161.469 6.08 159.219 6.08ZM161.901 10.886H165.555C165.555 11.714 164.907 14.234 159.741 14.234H159.075C154.143 14.234 152.919 11.534 152.919 9.14V8.888C152.919 6.638 154.035 3.794 158.769 3.794H159.561C164.673 3.794 165.591 6.638 165.591 9.428V9.752H156.501C156.645 10.904 157.383 11.84 159.525 11.84C161.559 11.84 161.811 11.048 161.901 10.886ZM176.239 14H167.995V4.01H175.879C178.165 4.01 179.605 4.82 179.605 6.404V6.494C179.605 7.736 178.813 8.474 177.607 8.672C178.831 8.816 179.929 9.68 179.929 11.12V11.192C179.929 13.01 178.741 14 176.239 14ZM171.505 7.988H174.727C175.573 7.988 176.005 7.664 176.005 7.034V6.944C176.005 6.368 175.609 6.026 174.727 6.026H171.505V7.988ZM171.505 11.984H174.871C175.807 11.984 176.329 11.678 176.329 10.976V10.832C176.329 10.202 175.897 9.806 174.871 9.806H171.505V11.984ZM185.884 14H182.374V4.01H185.884V7.646H190.78V4.01H194.29V14H190.78V10.31H185.884V14ZM201.926 12.002C203.978 12.002 204.68 10.706 204.68 9.95V9.176C204.374 9.302 203.492 9.482 202.484 9.644C200.792 9.932 200.252 10.166 200.252 10.868V10.904C200.252 11.534 200.702 12.002 201.926 12.002ZM204.788 12.614C204.356 13.136 203.276 14.198 200.936 14.198H200.648C197.858 14.198 196.706 12.686 196.706 11.03V10.958C196.706 9.23 197.804 8.168 201.188 7.88L203.924 7.646C204.482 7.592 204.68 7.412 204.68 6.998C204.68 6.53 204.536 6.026 202.592 6.026C200.756 6.026 200.576 6.746 200.576 7.124H196.976V7.088C196.976 6.098 197.372 3.776 202.286 3.776H202.844C207.794 3.776 208.1 5.81 208.1 7.142V10.436C208.1 11.066 208.226 11.318 208.928 11.318H209.306V14H206.462C205.418 14 204.932 13.262 204.788 12.614ZM9.728 33.716H4.364V38H0.656V24.608H9.728C13.958 24.608 15.272 26.462 15.272 29.054V29.252C15.272 31.79 13.904 33.716 9.728 33.716ZM4.364 27.596V30.728H9.458C10.826 30.728 11.42 30.152 11.42 29.198V29.126C11.42 28.19 10.826 27.596 9.458 27.596H4.364ZM18.423 41.438V38.936H20.619C20.961 38.936 21.141 38.792 21.141 38.522V38.504C21.141 38.288 21.087 38.09 20.817 37.532L16.533 28.01H20.385L23.157 35.174L25.911 28.01H29.439L24.867 39.008C24.165 40.646 23.301 41.438 21.645 41.438H18.423ZM43.6937 33.122V33.356C43.6937 37.1 40.8497 38.27 37.4477 38.27H37.0877C33.5777 38.27 30.7157 36.902 30.7157 32.15V31.088C30.7157 26.282 33.1097 24.698 37.7897 24.698H38.5997C39.7157 24.698 39.7877 24.59 39.8237 24.374H43.2617C43.2617 26.48 42.4697 27.362 40.0217 27.362H37.7897C35.1977 27.362 34.2077 28.172 34.1537 29.99C35.0717 29.036 36.4757 28.388 38.6897 28.388H38.7977C41.1737 28.388 43.6937 29.594 43.6937 33.122ZM37.1237 35.642H37.3217C38.9057 35.642 40.0757 34.85 40.0757 33.212C40.0757 31.628 38.8877 30.854 37.3397 30.854H37.1237C35.3957 30.854 34.3337 31.592 34.3337 33.23C34.3337 34.886 35.4137 35.642 37.1237 35.642ZM59.4644 35.336V40.124H56.1344V38H46.1084V28.01H49.6184V35.336H54.1544V28.01H57.6644V35.336H59.4644ZM67.6478 38.27H67.0898C61.7078 38.27 60.8798 34.994 60.8798 33.176V32.924C60.8798 31.124 61.7078 27.74 67.0718 27.74H67.6658C73.2098 27.74 73.8578 31.142 73.8578 32.906V33.194C73.8578 34.994 73.2098 38.27 67.6478 38.27ZM67.2698 35.642H67.4678C69.6818 35.642 70.2398 34.058 70.2398 32.96C70.2398 31.826 69.6818 30.314 67.4678 30.314H67.2698C64.9658 30.314 64.4978 31.826 64.4978 32.96C64.4978 34.058 64.9658 35.642 67.2698 35.642ZM84.5165 38H76.2725V28.01H84.1565C86.4425 28.01 87.8825 28.82 87.8825 30.404V30.494C87.8825 31.736 87.0905 32.474 85.8845 32.672C87.1085 32.816 88.2065 33.68 88.2065 35.12V35.192C88.2065 37.01 87.0185 38 84.5165 38ZM79.7825 31.988H83.0045C83.8505 31.988 84.2825 31.664 84.2825 31.034V30.944C84.2825 30.368 83.8865 30.026 83.0045 30.026H79.7825V31.988ZM79.7825 35.984H83.1485C84.0845 35.984 84.6065 35.678 84.6065 34.976V34.832C84.6065 34.202 84.1745 33.806 83.1485 33.806H79.7825V35.984ZM95.2795 36.002C97.3315 36.002 98.0335 34.706 98.0335 33.95V33.176C97.7275 33.302 96.8455 33.482 95.8375 33.644C94.1455 33.932 93.6055 34.166 93.6055 34.868V34.904C93.6055 35.534 94.0555 36.002 95.2795 36.002ZM98.1415 36.614C97.7095 37.136 96.6295 38.198 94.2895 38.198H94.0015C91.2115 38.198 90.0595 36.686 90.0595 35.03V34.958C90.0595 33.23 91.1575 32.168 94.5415 31.88L97.2775 31.646C97.8355 31.592 98.0335 31.412 98.0335 30.998C98.0335 30.53 97.8895 30.026 95.9455 30.026C94.1095 30.026 93.9295 30.746 93.9295 31.124H90.3295V31.088C90.3295 30.098 90.7255 27.776 95.6395 27.776H96.1975C101.147 27.776 101.453 29.81 101.453 31.142V34.436C101.453 35.066 101.579 35.318 102.281 35.318H102.659V38H99.8155C98.7715 38 98.2855 37.262 98.1415 36.614Z" fill="#C1A875" style="mix-blend-mode:color"/>
<defs>
<linearGradient id="paint0_linear_2018_1166" x1="-0.999999" y1="18" x2="221" y2="18" gradientUnits="userSpaceOnUse">
<stop stop-color="#576167"/>
<stop offset="0.191294" stop-color="#9EA1A2"/>
<stop offset="0.396166" stop-color="#848989"/>
<stop offset="0.62055" stop-color="#576167"/>
<stop offset="0.830299" stop-color="#757A7C"/>
<stop offset="1" stop-color="#576167"/>
</linearGradient>
<radialGradient id="paint1_radial_2018_1166" cx="0" cy="0" r="1" gradientUnits="userSpaceOnUse" gradientTransform="translate(117.226 -0.404494) rotate(90) scale(35.6629 167.95)">
<stop stop-color="white"/>
<stop offset="1" stop-color="white" stop-opacity="0"/>
</radialGradient>
<radialGradient id="paint2_radial_2018_1166" cx="0" cy="0" r="1" gradientUnits="userSpaceOnUse" gradientTransform="translate(129.783 53.3258) rotate(-89.6015) scale(51.1024 240.159)">
<stop stop-color="white"/>
<stop offset="1" stop-color="white" stop-opacity="0"/>
</radialGradient>
</defs>
</svg>
