<svg width="212" height="42" viewBox="0 0 212 42" fill="none" xmlns="http://www.w3.org/2000/svg">
<path d="M12.24 14V3.56H6.48C6.48 7.214 6.318 10.004 5.832 11.462C5.4 12.74 4.626 14 1.962 14H0.63V10.85H0.756C1.854 10.85 2.304 10.346 2.52 9.788C2.88 8.852 2.97 7.574 2.97 0.608H15.948V14H12.24ZM23.7697 12.002C25.8217 12.002 26.5237 10.706 26.5237 9.95V9.176C26.2177 9.302 25.3357 9.482 24.3277 9.644C22.6357 9.932 22.0957 10.166 22.0957 10.868V10.904C22.0957 11.534 22.5457 12.002 23.7697 12.002ZM26.6317 12.614C26.1997 13.136 25.1197 14.198 22.7797 14.198H22.4917C19.7017 14.198 18.5497 12.686 18.5497 11.03V10.958C18.5497 9.23 19.6477 8.168 23.0317 7.88L25.7677 7.646C26.3257 7.592 26.5237 7.412 26.5237 6.998C26.5237 6.53 26.3797 6.026 24.4357 6.026C22.5997 6.026 22.4197 6.746 22.4197 7.124H18.8197V7.088C18.8197 6.098 19.2157 3.776 24.1297 3.776H24.6877C29.6377 3.776 29.9437 5.81 29.9437 7.142V10.436C29.9437 11.066 30.0697 11.318 30.7717 11.318H31.1497V14H28.3057C27.2617 14 26.7757 13.262 26.6317 12.614ZM42.3314 9.014V8.96C42.3314 7.88 41.8274 6.422 39.6314 6.422H39.4514C37.3454 6.422 36.6794 7.808 36.6794 8.96V9.014C36.6794 10.112 37.3454 11.552 39.4514 11.552H39.6314C41.8274 11.552 42.3314 10.04 42.3314 9.014ZM33.1874 17.438V4.01H36.6614V5.288C37.0934 4.82 38.4074 3.812 40.6754 3.812H40.9094C44.7254 3.812 45.9674 6.422 45.9674 8.798V9.104C45.9674 11.282 44.6894 14.198 40.8914 14.198H40.6394C38.3534 14.198 37.1294 13.154 36.6974 12.722V17.438H33.1874ZM56.8332 7.952L52.0092 14H48.4092V4.01H51.9192V10.058L56.7432 4.01H60.3432V14H56.8332V7.952ZM71.6147 10.076H75.2867C75.2867 11.588 74.3867 14.27 69.5807 14.27H68.6987C63.7127 14.27 62.7767 11.03 62.7767 9.14V8.888C62.7767 6.998 63.6587 3.74 68.6807 3.74H69.5087C74.3327 3.74 75.2867 6.368 75.2867 7.808V7.826H71.6147C71.5607 7.538 71.2187 6.296 69.1487 6.296H68.9687C66.8987 6.296 66.4127 7.718 66.4127 8.924V8.942C66.4127 10.184 67.0067 11.66 69.0407 11.66H69.2207C71.3087 11.66 71.6147 10.31 71.6147 10.076ZM82.3928 12.002C84.4448 12.002 85.1468 10.706 85.1468 9.95V9.176C84.8408 9.302 83.9588 9.482 82.9508 9.644C81.2588 9.932 80.7188 10.166 80.7188 10.868V10.904C80.7188 11.534 81.1688 12.002 82.3928 12.002ZM85.2548 12.614C84.8228 13.136 83.7428 14.198 81.4028 14.198H81.1148C78.3248 14.198 77.1728 12.686 77.1728 11.03V10.958C77.1728 9.23 78.2708 8.168 81.6548 7.88L84.3908 7.646C84.9488 7.592 85.1468 7.412 85.1468 6.998C85.1468 6.53 85.0028 6.026 83.0588 6.026C81.2228 6.026 81.0428 6.746 81.0428 7.124H77.4428V7.088C77.4428 6.098 77.8388 3.776 82.7528 3.776H83.3108C88.2608 3.776 88.5668 5.81 88.5668 7.142V10.436C88.5668 11.066 88.6928 11.318 89.3948 11.318H89.7728V14H86.9288C85.8848 14 85.3988 13.262 85.2548 12.614ZM104.628 0.391999H105.42C111.684 0.391999 113.466 4.064 113.466 6.998V7.538C113.466 10.418 111.684 14.216 105.42 14.216H104.628C98.3635 14.216 96.5815 10.418 96.5815 7.538V6.998C96.5815 4.082 98.3635 0.391999 104.628 0.391999ZM109.614 7.394V7.142C109.614 5.486 108.804 3.452 105.024 3.452C101.28 3.452 100.434 5.486 100.434 7.142V7.394C100.434 9.014 101.334 11.138 105.024 11.138C108.786 11.138 109.614 9.014 109.614 7.394ZM123.625 14V6.674H119.665C119.665 9.356 119.575 10.85 119.233 11.768C118.855 12.776 118.351 14 115.705 14H114.607V11.39H114.823C115.453 11.39 115.921 11.174 116.119 10.256C116.263 9.482 116.317 8.636 116.317 4.01H127.135V14H123.625ZM135.856 6.08C134.038 6.08 133.354 6.818 133.174 7.862H138.466C138.466 7.124 138.106 6.08 135.856 6.08ZM138.538 10.886H142.192C142.192 11.714 141.544 14.234 136.378 14.234H135.712C130.78 14.234 129.556 11.534 129.556 9.14V8.888C129.556 6.638 130.672 3.794 135.406 3.794H136.198C141.31 3.794 142.228 6.638 142.228 9.428V9.752H133.138C133.282 10.904 134.02 11.84 136.162 11.84C138.196 11.84 138.448 11.048 138.538 10.886ZM144.632 14V4.01H153.344V6.674H148.142V14H144.632ZM161.513 14.27H160.955C155.573 14.27 154.745 10.994 154.745 9.176V8.924C154.745 7.124 155.573 3.74 160.937 3.74H161.531C167.075 3.74 167.723 7.142 167.723 8.906V9.194C167.723 10.994 167.075 14.27 161.513 14.27ZM161.135 11.642H161.333C163.547 11.642 164.105 10.058 164.105 8.96C164.105 7.826 163.547 6.314 161.333 6.314H161.135C158.831 6.314 158.363 7.826 158.363 8.96C158.363 10.058 158.831 11.642 161.135 11.642ZM178.382 14H170.138V4.01H178.022C180.308 4.01 181.748 4.82 181.748 6.404V6.494C181.748 7.736 180.956 8.474 179.75 8.672C180.974 8.816 182.072 9.68 182.072 11.12V11.192C182.072 13.01 180.884 14 178.382 14ZM173.648 7.988H176.87C177.716 7.988 178.148 7.664 178.148 7.034V6.944C178.148 6.368 177.752 6.026 176.87 6.026H173.648V7.988ZM173.648 11.984H177.014C177.95 11.984 178.472 11.678 178.472 10.976V10.832C178.472 10.202 178.04 9.806 177.014 9.806H173.648V11.984ZM188.027 14H184.517V4.01H188.027V7.646H192.923V4.01H196.433V14H192.923V10.31H188.027V14ZM204.069 12.002C206.121 12.002 206.823 10.706 206.823 9.95V9.176C206.517 9.302 205.635 9.482 204.627 9.644C202.935 9.932 202.395 10.166 202.395 10.868V10.904C202.395 11.534 202.845 12.002 204.069 12.002ZM206.931 12.614C206.499 13.136 205.419 14.198 203.079 14.198H202.791C200.001 14.198 198.849 12.686 198.849 11.03V10.958C198.849 9.23 199.947 8.168 203.331 7.88L206.067 7.646C206.625 7.592 206.823 7.412 206.823 6.998C206.823 6.53 206.679 6.026 204.735 6.026C202.899 6.026 202.719 6.746 202.719 7.124H199.119V7.088C199.119 6.098 199.515 3.776 204.429 3.776H204.987C209.937 3.776 210.243 5.81 210.243 7.142V10.436C210.243 11.066 210.369 11.318 211.071 11.318H211.449V14H208.605C207.561 14 207.075 13.262 206.931 12.614ZM1.656 38V24.608H11.43C15.264 24.608 16.218 26.282 16.218 27.776V27.974C16.218 29.666 14.76 30.476 13.752 30.62C15.264 30.872 16.884 31.772 16.884 33.932V34.13C16.884 35.948 15.786 38 11.484 38H1.656ZM10.89 27.398H5.364V29.792H10.89C12.024 29.792 12.348 29.252 12.348 28.622V28.586C12.348 27.938 11.988 27.398 10.89 27.398ZM11.178 32.42H5.364V35.066H11.178C12.474 35.066 12.852 34.382 12.852 33.716V33.644C12.852 32.978 12.474 32.42 11.178 32.42ZM25.5462 38.27H24.9882C19.6062 38.27 18.7782 34.994 18.7782 33.176V32.924C18.7782 31.124 19.6062 27.74 24.9702 27.74H25.5642C31.1082 27.74 31.7562 31.142 31.7562 32.906V33.194C31.7562 34.994 31.1082 38.27 25.5462 38.27ZM25.1682 35.642H25.3662C27.5802 35.642 28.1382 34.058 28.1382 32.96C28.1382 31.826 27.5802 30.314 25.3662 30.314H25.1682C22.8642 30.314 22.3962 31.826 22.3962 32.96C22.3962 34.058 22.8642 35.642 25.1682 35.642ZM43.3509 33.014V32.96C43.3509 31.88 42.8469 30.422 40.6509 30.422H40.4709C38.3649 30.422 37.6989 31.808 37.6989 32.96V33.014C37.6989 34.112 38.3649 35.552 40.4709 35.552H40.6509C42.8469 35.552 43.3509 34.04 43.3509 33.014ZM34.2069 41.438V28.01H37.6809V29.288C38.1129 28.82 39.4269 27.812 41.6949 27.812H41.9289C45.7449 27.812 46.9869 30.422 46.9869 32.798V33.104C46.9869 35.282 45.7089 38.198 41.9109 38.198H41.6589C39.3729 38.198 38.1489 37.154 37.7169 36.722V41.438H34.2069ZM55.6927 38.27H55.1347C49.7527 38.27 48.9247 34.994 48.9247 33.176V32.924C48.9247 31.124 49.7527 27.74 55.1167 27.74H55.7107C61.2547 27.74 61.9027 31.142 61.9027 32.906V33.194C61.9027 34.994 61.2547 38.27 55.6927 38.27ZM55.3147 35.642H55.5127C57.7267 35.642 58.2847 34.058 58.2847 32.96C58.2847 31.826 57.7267 30.314 55.5127 30.314H55.3147C53.0107 30.314 52.5427 31.826 52.5427 32.96C52.5427 34.058 53.0107 35.642 55.3147 35.642ZM67.8274 38H64.3174V28.01H67.8274V31.646H72.7234V28.01H76.2334V38H72.7234V34.31H67.8274V38ZM92.5093 35.336V40.124H89.1793V38H79.1533V28.01H82.6633V35.336H87.1993V28.01H90.7093V35.336H92.5093ZM100.693 38.27H100.135C94.7527 38.27 93.9247 34.994 93.9247 33.176V32.924C93.9247 31.124 94.7527 27.74 100.117 27.74H100.711C106.255 27.74 106.903 31.142 106.903 32.906V33.194C106.903 34.994 106.255 38.27 100.693 38.27ZM100.315 35.642H100.513C102.727 35.642 103.285 34.058 103.285 32.96C103.285 31.826 102.727 30.314 100.513 30.314H100.315C98.0107 30.314 97.5427 31.826 97.5427 32.96C97.5427 34.058 98.0107 35.642 100.315 35.642ZM117.561 38H109.317V28.01H117.201C119.487 28.01 120.927 28.82 120.927 30.404V30.494C120.927 31.736 120.135 32.474 118.929 32.672C120.153 32.816 121.251 33.68 121.251 35.12V35.192C121.251 37.01 120.063 38 117.561 38ZM112.827 31.988H116.049C116.895 31.988 117.327 31.664 117.327 31.034V30.944C117.327 30.368 116.931 30.026 116.049 30.026H112.827V31.988ZM112.827 35.984H116.193C117.129 35.984 117.651 35.678 117.651 34.976V34.832C117.651 34.202 117.219 33.806 116.193 33.806H112.827V35.984ZM128.324 36.002C130.376 36.002 131.078 34.706 131.078 33.95V33.176C130.772 33.302 129.89 33.482 128.882 33.644C127.19 33.932 126.65 34.166 126.65 34.868V34.904C126.65 35.534 127.1 36.002 128.324 36.002ZM131.186 36.614C130.754 37.136 129.674 38.198 127.334 38.198H127.046C124.256 38.198 123.104 36.686 123.104 35.03V34.958C123.104 33.23 124.202 32.168 127.586 31.88L130.322 31.646C130.88 31.592 131.078 31.412 131.078 30.998C131.078 30.53 130.934 30.026 128.99 30.026C127.154 30.026 126.974 30.746 126.974 31.124H123.374V31.088C123.374 30.098 123.77 27.776 128.684 27.776H129.242C134.192 27.776 134.498 29.81 134.498 31.142V34.436C134.498 35.066 134.624 35.318 135.326 35.318H135.704V38H132.86C131.816 38 131.33 37.262 131.186 36.614Z" fill="url(#paint0_linear_2018_1101)"/>
<path d="M12.24 14V3.56H6.48C6.48 7.214 6.318 10.004 5.832 11.462C5.4 12.74 4.626 14 1.962 14H0.63V10.85H0.756C1.854 10.85 2.304 10.346 2.52 9.788C2.88 8.852 2.97 7.574 2.97 0.608H15.948V14H12.24ZM23.7697 12.002C25.8217 12.002 26.5237 10.706 26.5237 9.95V9.176C26.2177 9.302 25.3357 9.482 24.3277 9.644C22.6357 9.932 22.0957 10.166 22.0957 10.868V10.904C22.0957 11.534 22.5457 12.002 23.7697 12.002ZM26.6317 12.614C26.1997 13.136 25.1197 14.198 22.7797 14.198H22.4917C19.7017 14.198 18.5497 12.686 18.5497 11.03V10.958C18.5497 9.23 19.6477 8.168 23.0317 7.88L25.7677 7.646C26.3257 7.592 26.5237 7.412 26.5237 6.998C26.5237 6.53 26.3797 6.026 24.4357 6.026C22.5997 6.026 22.4197 6.746 22.4197 7.124H18.8197V7.088C18.8197 6.098 19.2157 3.776 24.1297 3.776H24.6877C29.6377 3.776 29.9437 5.81 29.9437 7.142V10.436C29.9437 11.066 30.0697 11.318 30.7717 11.318H31.1497V14H28.3057C27.2617 14 26.7757 13.262 26.6317 12.614ZM42.3314 9.014V8.96C42.3314 7.88 41.8274 6.422 39.6314 6.422H39.4514C37.3454 6.422 36.6794 7.808 36.6794 8.96V9.014C36.6794 10.112 37.3454 11.552 39.4514 11.552H39.6314C41.8274 11.552 42.3314 10.04 42.3314 9.014ZM33.1874 17.438V4.01H36.6614V5.288C37.0934 4.82 38.4074 3.812 40.6754 3.812H40.9094C44.7254 3.812 45.9674 6.422 45.9674 8.798V9.104C45.9674 11.282 44.6894 14.198 40.8914 14.198H40.6394C38.3534 14.198 37.1294 13.154 36.6974 12.722V17.438H33.1874ZM56.8332 7.952L52.0092 14H48.4092V4.01H51.9192V10.058L56.7432 4.01H60.3432V14H56.8332V7.952ZM71.6147 10.076H75.2867C75.2867 11.588 74.3867 14.27 69.5807 14.27H68.6987C63.7127 14.27 62.7767 11.03 62.7767 9.14V8.888C62.7767 6.998 63.6587 3.74 68.6807 3.74H69.5087C74.3327 3.74 75.2867 6.368 75.2867 7.808V7.826H71.6147C71.5607 7.538 71.2187 6.296 69.1487 6.296H68.9687C66.8987 6.296 66.4127 7.718 66.4127 8.924V8.942C66.4127 10.184 67.0067 11.66 69.0407 11.66H69.2207C71.3087 11.66 71.6147 10.31 71.6147 10.076ZM82.3928 12.002C84.4448 12.002 85.1468 10.706 85.1468 9.95V9.176C84.8408 9.302 83.9588 9.482 82.9508 9.644C81.2588 9.932 80.7188 10.166 80.7188 10.868V10.904C80.7188 11.534 81.1688 12.002 82.3928 12.002ZM85.2548 12.614C84.8228 13.136 83.7428 14.198 81.4028 14.198H81.1148C78.3248 14.198 77.1728 12.686 77.1728 11.03V10.958C77.1728 9.23 78.2708 8.168 81.6548 7.88L84.3908 7.646C84.9488 7.592 85.1468 7.412 85.1468 6.998C85.1468 6.53 85.0028 6.026 83.0588 6.026C81.2228 6.026 81.0428 6.746 81.0428 7.124H77.4428V7.088C77.4428 6.098 77.8388 3.776 82.7528 3.776H83.3108C88.2608 3.776 88.5668 5.81 88.5668 7.142V10.436C88.5668 11.066 88.6928 11.318 89.3948 11.318H89.7728V14H86.9288C85.8848 14 85.3988 13.262 85.2548 12.614ZM104.628 0.391999H105.42C111.684 0.391999 113.466 4.064 113.466 6.998V7.538C113.466 10.418 111.684 14.216 105.42 14.216H104.628C98.3635 14.216 96.5815 10.418 96.5815 7.538V6.998C96.5815 4.082 98.3635 0.391999 104.628 0.391999ZM109.614 7.394V7.142C109.614 5.486 108.804 3.452 105.024 3.452C101.28 3.452 100.434 5.486 100.434 7.142V7.394C100.434 9.014 101.334 11.138 105.024 11.138C108.786 11.138 109.614 9.014 109.614 7.394ZM123.625 14V6.674H119.665C119.665 9.356 119.575 10.85 119.233 11.768C118.855 12.776 118.351 14 115.705 14H114.607V11.39H114.823C115.453 11.39 115.921 11.174 116.119 10.256C116.263 9.482 116.317 8.636 116.317 4.01H127.135V14H123.625ZM135.856 6.08C134.038 6.08 133.354 6.818 133.174 7.862H138.466C138.466 7.124 138.106 6.08 135.856 6.08ZM138.538 10.886H142.192C142.192 11.714 141.544 14.234 136.378 14.234H135.712C130.78 14.234 129.556 11.534 129.556 9.14V8.888C129.556 6.638 130.672 3.794 135.406 3.794H136.198C141.31 3.794 142.228 6.638 142.228 9.428V9.752H133.138C133.282 10.904 134.02 11.84 136.162 11.84C138.196 11.84 138.448 11.048 138.538 10.886ZM144.632 14V4.01H153.344V6.674H148.142V14H144.632ZM161.513 14.27H160.955C155.573 14.27 154.745 10.994 154.745 9.176V8.924C154.745 7.124 155.573 3.74 160.937 3.74H161.531C167.075 3.74 167.723 7.142 167.723 8.906V9.194C167.723 10.994 167.075 14.27 161.513 14.27ZM161.135 11.642H161.333C163.547 11.642 164.105 10.058 164.105 8.96C164.105 7.826 163.547 6.314 161.333 6.314H161.135C158.831 6.314 158.363 7.826 158.363 8.96C158.363 10.058 158.831 11.642 161.135 11.642ZM178.382 14H170.138V4.01H178.022C180.308 4.01 181.748 4.82 181.748 6.404V6.494C181.748 7.736 180.956 8.474 179.75 8.672C180.974 8.816 182.072 9.68 182.072 11.12V11.192C182.072 13.01 180.884 14 178.382 14ZM173.648 7.988H176.87C177.716 7.988 178.148 7.664 178.148 7.034V6.944C178.148 6.368 177.752 6.026 176.87 6.026H173.648V7.988ZM173.648 11.984H177.014C177.95 11.984 178.472 11.678 178.472 10.976V10.832C178.472 10.202 178.04 9.806 177.014 9.806H173.648V11.984ZM188.027 14H184.517V4.01H188.027V7.646H192.923V4.01H196.433V14H192.923V10.31H188.027V14ZM204.069 12.002C206.121 12.002 206.823 10.706 206.823 9.95V9.176C206.517 9.302 205.635 9.482 204.627 9.644C202.935 9.932 202.395 10.166 202.395 10.868V10.904C202.395 11.534 202.845 12.002 204.069 12.002ZM206.931 12.614C206.499 13.136 205.419 14.198 203.079 14.198H202.791C200.001 14.198 198.849 12.686 198.849 11.03V10.958C198.849 9.23 199.947 8.168 203.331 7.88L206.067 7.646C206.625 7.592 206.823 7.412 206.823 6.998C206.823 6.53 206.679 6.026 204.735 6.026C202.899 6.026 202.719 6.746 202.719 7.124H199.119V7.088C199.119 6.098 199.515 3.776 204.429 3.776H204.987C209.937 3.776 210.243 5.81 210.243 7.142V10.436C210.243 11.066 210.369 11.318 211.071 11.318H211.449V14H208.605C207.561 14 207.075 13.262 206.931 12.614ZM1.656 38V24.608H11.43C15.264 24.608 16.218 26.282 16.218 27.776V27.974C16.218 29.666 14.76 30.476 13.752 30.62C15.264 30.872 16.884 31.772 16.884 33.932V34.13C16.884 35.948 15.786 38 11.484 38H1.656ZM10.89 27.398H5.364V29.792H10.89C12.024 29.792 12.348 29.252 12.348 28.622V28.586C12.348 27.938 11.988 27.398 10.89 27.398ZM11.178 32.42H5.364V35.066H11.178C12.474 35.066 12.852 34.382 12.852 33.716V33.644C12.852 32.978 12.474 32.42 11.178 32.42ZM25.5462 38.27H24.9882C19.6062 38.27 18.7782 34.994 18.7782 33.176V32.924C18.7782 31.124 19.6062 27.74 24.9702 27.74H25.5642C31.1082 27.74 31.7562 31.142 31.7562 32.906V33.194C31.7562 34.994 31.1082 38.27 25.5462 38.27ZM25.1682 35.642H25.3662C27.5802 35.642 28.1382 34.058 28.1382 32.96C28.1382 31.826 27.5802 30.314 25.3662 30.314H25.1682C22.8642 30.314 22.3962 31.826 22.3962 32.96C22.3962 34.058 22.8642 35.642 25.1682 35.642ZM43.3509 33.014V32.96C43.3509 31.88 42.8469 30.422 40.6509 30.422H40.4709C38.3649 30.422 37.6989 31.808 37.6989 32.96V33.014C37.6989 34.112 38.3649 35.552 40.4709 35.552H40.6509C42.8469 35.552 43.3509 34.04 43.3509 33.014ZM34.2069 41.438V28.01H37.6809V29.288C38.1129 28.82 39.4269 27.812 41.6949 27.812H41.9289C45.7449 27.812 46.9869 30.422 46.9869 32.798V33.104C46.9869 35.282 45.7089 38.198 41.9109 38.198H41.6589C39.3729 38.198 38.1489 37.154 37.7169 36.722V41.438H34.2069ZM55.6927 38.27H55.1347C49.7527 38.27 48.9247 34.994 48.9247 33.176V32.924C48.9247 31.124 49.7527 27.74 55.1167 27.74H55.7107C61.2547 27.74 61.9027 31.142 61.9027 32.906V33.194C61.9027 34.994 61.2547 38.27 55.6927 38.27ZM55.3147 35.642H55.5127C57.7267 35.642 58.2847 34.058 58.2847 32.96C58.2847 31.826 57.7267 30.314 55.5127 30.314H55.3147C53.0107 30.314 52.5427 31.826 52.5427 32.96C52.5427 34.058 53.0107 35.642 55.3147 35.642ZM67.8274 38H64.3174V28.01H67.8274V31.646H72.7234V28.01H76.2334V38H72.7234V34.31H67.8274V38ZM92.5093 35.336V40.124H89.1793V38H79.1533V28.01H82.6633V35.336H87.1993V28.01H90.7093V35.336H92.5093ZM100.693 38.27H100.135C94.7527 38.27 93.9247 34.994 93.9247 33.176V32.924C93.9247 31.124 94.7527 27.74 100.117 27.74H100.711C106.255 27.74 106.903 31.142 106.903 32.906V33.194C106.903 34.994 106.255 38.27 100.693 38.27ZM100.315 35.642H100.513C102.727 35.642 103.285 34.058 103.285 32.96C103.285 31.826 102.727 30.314 100.513 30.314H100.315C98.0107 30.314 97.5427 31.826 97.5427 32.96C97.5427 34.058 98.0107 35.642 100.315 35.642ZM117.561 38H109.317V28.01H117.201C119.487 28.01 120.927 28.82 120.927 30.404V30.494C120.927 31.736 120.135 32.474 118.929 32.672C120.153 32.816 121.251 33.68 121.251 35.12V35.192C121.251 37.01 120.063 38 117.561 38ZM112.827 31.988H116.049C116.895 31.988 117.327 31.664 117.327 31.034V30.944C117.327 30.368 116.931 30.026 116.049 30.026H112.827V31.988ZM112.827 35.984H116.193C117.129 35.984 117.651 35.678 117.651 34.976V34.832C117.651 34.202 117.219 33.806 116.193 33.806H112.827V35.984ZM128.324 36.002C130.376 36.002 131.078 34.706 131.078 33.95V33.176C130.772 33.302 129.89 33.482 128.882 33.644C127.19 33.932 126.65 34.166 126.65 34.868V34.904C126.65 35.534 127.1 36.002 128.324 36.002ZM131.186 36.614C130.754 37.136 129.674 38.198 127.334 38.198H127.046C124.256 38.198 123.104 36.686 123.104 35.03V34.958C123.104 33.23 124.202 32.168 127.586 31.88L130.322 31.646C130.88 31.592 131.078 31.412 131.078 30.998C131.078 30.53 130.934 30.026 128.99 30.026C127.154 30.026 126.974 30.746 126.974 31.124H123.374V31.088C123.374 30.098 123.77 27.776 128.684 27.776H129.242C134.192 27.776 134.498 29.81 134.498 31.142V34.436C134.498 35.066 134.624 35.318 135.326 35.318H135.704V38H132.86C131.816 38 131.33 37.262 131.186 36.614Z" fill="url(#paint1_radial_2018_1101)" style="mix-blend-mode:overlay"/>
<path d="M12.24 14V3.56H6.48C6.48 7.214 6.318 10.004 5.832 11.462C5.4 12.74 4.626 14 1.962 14H0.63V10.85H0.756C1.854 10.85 2.304 10.346 2.52 9.788C2.88 8.852 2.97 7.574 2.97 0.608H15.948V14H12.24ZM23.7697 12.002C25.8217 12.002 26.5237 10.706 26.5237 9.95V9.176C26.2177 9.302 25.3357 9.482 24.3277 9.644C22.6357 9.932 22.0957 10.166 22.0957 10.868V10.904C22.0957 11.534 22.5457 12.002 23.7697 12.002ZM26.6317 12.614C26.1997 13.136 25.1197 14.198 22.7797 14.198H22.4917C19.7017 14.198 18.5497 12.686 18.5497 11.03V10.958C18.5497 9.23 19.6477 8.168 23.0317 7.88L25.7677 7.646C26.3257 7.592 26.5237 7.412 26.5237 6.998C26.5237 6.53 26.3797 6.026 24.4357 6.026C22.5997 6.026 22.4197 6.746 22.4197 7.124H18.8197V7.088C18.8197 6.098 19.2157 3.776 24.1297 3.776H24.6877C29.6377 3.776 29.9437 5.81 29.9437 7.142V10.436C29.9437 11.066 30.0697 11.318 30.7717 11.318H31.1497V14H28.3057C27.2617 14 26.7757 13.262 26.6317 12.614ZM42.3314 9.014V8.96C42.3314 7.88 41.8274 6.422 39.6314 6.422H39.4514C37.3454 6.422 36.6794 7.808 36.6794 8.96V9.014C36.6794 10.112 37.3454 11.552 39.4514 11.552H39.6314C41.8274 11.552 42.3314 10.04 42.3314 9.014ZM33.1874 17.438V4.01H36.6614V5.288C37.0934 4.82 38.4074 3.812 40.6754 3.812H40.9094C44.7254 3.812 45.9674 6.422 45.9674 8.798V9.104C45.9674 11.282 44.6894 14.198 40.8914 14.198H40.6394C38.3534 14.198 37.1294 13.154 36.6974 12.722V17.438H33.1874ZM56.8332 7.952L52.0092 14H48.4092V4.01H51.9192V10.058L56.7432 4.01H60.3432V14H56.8332V7.952ZM71.6147 10.076H75.2867C75.2867 11.588 74.3867 14.27 69.5807 14.27H68.6987C63.7127 14.27 62.7767 11.03 62.7767 9.14V8.888C62.7767 6.998 63.6587 3.74 68.6807 3.74H69.5087C74.3327 3.74 75.2867 6.368 75.2867 7.808V7.826H71.6147C71.5607 7.538 71.2187 6.296 69.1487 6.296H68.9687C66.8987 6.296 66.4127 7.718 66.4127 8.924V8.942C66.4127 10.184 67.0067 11.66 69.0407 11.66H69.2207C71.3087 11.66 71.6147 10.31 71.6147 10.076ZM82.3928 12.002C84.4448 12.002 85.1468 10.706 85.1468 9.95V9.176C84.8408 9.302 83.9588 9.482 82.9508 9.644C81.2588 9.932 80.7188 10.166 80.7188 10.868V10.904C80.7188 11.534 81.1688 12.002 82.3928 12.002ZM85.2548 12.614C84.8228 13.136 83.7428 14.198 81.4028 14.198H81.1148C78.3248 14.198 77.1728 12.686 77.1728 11.03V10.958C77.1728 9.23 78.2708 8.168 81.6548 7.88L84.3908 7.646C84.9488 7.592 85.1468 7.412 85.1468 6.998C85.1468 6.53 85.0028 6.026 83.0588 6.026C81.2228 6.026 81.0428 6.746 81.0428 7.124H77.4428V7.088C77.4428 6.098 77.8388 3.776 82.7528 3.776H83.3108C88.2608 3.776 88.5668 5.81 88.5668 7.142V10.436C88.5668 11.066 88.6928 11.318 89.3948 11.318H89.7728V14H86.9288C85.8848 14 85.3988 13.262 85.2548 12.614ZM104.628 0.391999H105.42C111.684 0.391999 113.466 4.064 113.466 6.998V7.538C113.466 10.418 111.684 14.216 105.42 14.216H104.628C98.3635 14.216 96.5815 10.418 96.5815 7.538V6.998C96.5815 4.082 98.3635 0.391999 104.628 0.391999ZM109.614 7.394V7.142C109.614 5.486 108.804 3.452 105.024 3.452C101.28 3.452 100.434 5.486 100.434 7.142V7.394C100.434 9.014 101.334 11.138 105.024 11.138C108.786 11.138 109.614 9.014 109.614 7.394ZM123.625 14V6.674H119.665C119.665 9.356 119.575 10.85 119.233 11.768C118.855 12.776 118.351 14 115.705 14H114.607V11.39H114.823C115.453 11.39 115.921 11.174 116.119 10.256C116.263 9.482 116.317 8.636 116.317 4.01H127.135V14H123.625ZM135.856 6.08C134.038 6.08 133.354 6.818 133.174 7.862H138.466C138.466 7.124 138.106 6.08 135.856 6.08ZM138.538 10.886H142.192C142.192 11.714 141.544 14.234 136.378 14.234H135.712C130.78 14.234 129.556 11.534 129.556 9.14V8.888C129.556 6.638 130.672 3.794 135.406 3.794H136.198C141.31 3.794 142.228 6.638 142.228 9.428V9.752H133.138C133.282 10.904 134.02 11.84 136.162 11.84C138.196 11.84 138.448 11.048 138.538 10.886ZM144.632 14V4.01H153.344V6.674H148.142V14H144.632ZM161.513 14.27H160.955C155.573 14.27 154.745 10.994 154.745 9.176V8.924C154.745 7.124 155.573 3.74 160.937 3.74H161.531C167.075 3.74 167.723 7.142 167.723 8.906V9.194C167.723 10.994 167.075 14.27 161.513 14.27ZM161.135 11.642H161.333C163.547 11.642 164.105 10.058 164.105 8.96C164.105 7.826 163.547 6.314 161.333 6.314H161.135C158.831 6.314 158.363 7.826 158.363 8.96C158.363 10.058 158.831 11.642 161.135 11.642ZM178.382 14H170.138V4.01H178.022C180.308 4.01 181.748 4.82 181.748 6.404V6.494C181.748 7.736 180.956 8.474 179.75 8.672C180.974 8.816 182.072 9.68 182.072 11.12V11.192C182.072 13.01 180.884 14 178.382 14ZM173.648 7.988H176.87C177.716 7.988 178.148 7.664 178.148 7.034V6.944C178.148 6.368 177.752 6.026 176.87 6.026H173.648V7.988ZM173.648 11.984H177.014C177.95 11.984 178.472 11.678 178.472 10.976V10.832C178.472 10.202 178.04 9.806 177.014 9.806H173.648V11.984ZM188.027 14H184.517V4.01H188.027V7.646H192.923V4.01H196.433V14H192.923V10.31H188.027V14ZM204.069 12.002C206.121 12.002 206.823 10.706 206.823 9.95V9.176C206.517 9.302 205.635 9.482 204.627 9.644C202.935 9.932 202.395 10.166 202.395 10.868V10.904C202.395 11.534 202.845 12.002 204.069 12.002ZM206.931 12.614C206.499 13.136 205.419 14.198 203.079 14.198H202.791C200.001 14.198 198.849 12.686 198.849 11.03V10.958C198.849 9.23 199.947 8.168 203.331 7.88L206.067 7.646C206.625 7.592 206.823 7.412 206.823 6.998C206.823 6.53 206.679 6.026 204.735 6.026C202.899 6.026 202.719 6.746 202.719 7.124H199.119V7.088C199.119 6.098 199.515 3.776 204.429 3.776H204.987C209.937 3.776 210.243 5.81 210.243 7.142V10.436C210.243 11.066 210.369 11.318 211.071 11.318H211.449V14H208.605C207.561 14 207.075 13.262 206.931 12.614ZM1.656 38V24.608H11.43C15.264 24.608 16.218 26.282 16.218 27.776V27.974C16.218 29.666 14.76 30.476 13.752 30.62C15.264 30.872 16.884 31.772 16.884 33.932V34.13C16.884 35.948 15.786 38 11.484 38H1.656ZM10.89 27.398H5.364V29.792H10.89C12.024 29.792 12.348 29.252 12.348 28.622V28.586C12.348 27.938 11.988 27.398 10.89 27.398ZM11.178 32.42H5.364V35.066H11.178C12.474 35.066 12.852 34.382 12.852 33.716V33.644C12.852 32.978 12.474 32.42 11.178 32.42ZM25.5462 38.27H24.9882C19.6062 38.27 18.7782 34.994 18.7782 33.176V32.924C18.7782 31.124 19.6062 27.74 24.9702 27.74H25.5642C31.1082 27.74 31.7562 31.142 31.7562 32.906V33.194C31.7562 34.994 31.1082 38.27 25.5462 38.27ZM25.1682 35.642H25.3662C27.5802 35.642 28.1382 34.058 28.1382 32.96C28.1382 31.826 27.5802 30.314 25.3662 30.314H25.1682C22.8642 30.314 22.3962 31.826 22.3962 32.96C22.3962 34.058 22.8642 35.642 25.1682 35.642ZM43.3509 33.014V32.96C43.3509 31.88 42.8469 30.422 40.6509 30.422H40.4709C38.3649 30.422 37.6989 31.808 37.6989 32.96V33.014C37.6989 34.112 38.3649 35.552 40.4709 35.552H40.6509C42.8469 35.552 43.3509 34.04 43.3509 33.014ZM34.2069 41.438V28.01H37.6809V29.288C38.1129 28.82 39.4269 27.812 41.6949 27.812H41.9289C45.7449 27.812 46.9869 30.422 46.9869 32.798V33.104C46.9869 35.282 45.7089 38.198 41.9109 38.198H41.6589C39.3729 38.198 38.1489 37.154 37.7169 36.722V41.438H34.2069ZM55.6927 38.27H55.1347C49.7527 38.27 48.9247 34.994 48.9247 33.176V32.924C48.9247 31.124 49.7527 27.74 55.1167 27.74H55.7107C61.2547 27.74 61.9027 31.142 61.9027 32.906V33.194C61.9027 34.994 61.2547 38.27 55.6927 38.27ZM55.3147 35.642H55.5127C57.7267 35.642 58.2847 34.058 58.2847 32.96C58.2847 31.826 57.7267 30.314 55.5127 30.314H55.3147C53.0107 30.314 52.5427 31.826 52.5427 32.96C52.5427 34.058 53.0107 35.642 55.3147 35.642ZM67.8274 38H64.3174V28.01H67.8274V31.646H72.7234V28.01H76.2334V38H72.7234V34.31H67.8274V38ZM92.5093 35.336V40.124H89.1793V38H79.1533V28.01H82.6633V35.336H87.1993V28.01H90.7093V35.336H92.5093ZM100.693 38.27H100.135C94.7527 38.27 93.9247 34.994 93.9247 33.176V32.924C93.9247 31.124 94.7527 27.74 100.117 27.74H100.711C106.255 27.74 106.903 31.142 106.903 32.906V33.194C106.903 34.994 106.255 38.27 100.693 38.27ZM100.315 35.642H100.513C102.727 35.642 103.285 34.058 103.285 32.96C103.285 31.826 102.727 30.314 100.513 30.314H100.315C98.0107 30.314 97.5427 31.826 97.5427 32.96C97.5427 34.058 98.0107 35.642 100.315 35.642ZM117.561 38H109.317V28.01H117.201C119.487 28.01 120.927 28.82 120.927 30.404V30.494C120.927 31.736 120.135 32.474 118.929 32.672C120.153 32.816 121.251 33.68 121.251 35.12V35.192C121.251 37.01 120.063 38 117.561 38ZM112.827 31.988H116.049C116.895 31.988 117.327 31.664 117.327 31.034V30.944C117.327 30.368 116.931 30.026 116.049 30.026H112.827V31.988ZM112.827 35.984H116.193C117.129 35.984 117.651 35.678 117.651 34.976V34.832C117.651 34.202 117.219 33.806 116.193 33.806H112.827V35.984ZM128.324 36.002C130.376 36.002 131.078 34.706 131.078 33.95V33.176C130.772 33.302 129.89 33.482 128.882 33.644C127.19 33.932 126.65 34.166 126.65 34.868V34.904C126.65 35.534 127.1 36.002 128.324 36.002ZM131.186 36.614C130.754 37.136 129.674 38.198 127.334 38.198H127.046C124.256 38.198 123.104 36.686 123.104 35.03V34.958C123.104 33.23 124.202 32.168 127.586 31.88L130.322 31.646C130.88 31.592 131.078 31.412 131.078 30.998C131.078 30.53 130.934 30.026 128.99 30.026C127.154 30.026 126.974 30.746 126.974 31.124H123.374V31.088C123.374 30.098 123.77 27.776 128.684 27.776H129.242C134.192 27.776 134.498 29.81 134.498 31.142V34.436C134.498 35.066 134.624 35.318 135.326 35.318H135.704V38H132.86C131.816 38 131.33 37.262 131.186 36.614Z" fill="url(#paint2_radial_2018_1101)"/>
<path d="M12.24 14V3.56H6.48C6.48 7.214 6.318 10.004 5.832 11.462C5.4 12.74 4.626 14 1.962 14H0.63V10.85H0.756C1.854 10.85 2.304 10.346 2.52 9.788C2.88 8.852 2.97 7.574 2.97 0.608H15.948V14H12.24ZM23.7697 12.002C25.8217 12.002 26.5237 10.706 26.5237 9.95V9.176C26.2177 9.302 25.3357 9.482 24.3277 9.644C22.6357 9.932 22.0957 10.166 22.0957 10.868V10.904C22.0957 11.534 22.5457 12.002 23.7697 12.002ZM26.6317 12.614C26.1997 13.136 25.1197 14.198 22.7797 14.198H22.4917C19.7017 14.198 18.5497 12.686 18.5497 11.03V10.958C18.5497 9.23 19.6477 8.168 23.0317 7.88L25.7677 7.646C26.3257 7.592 26.5237 7.412 26.5237 6.998C26.5237 6.53 26.3797 6.026 24.4357 6.026C22.5997 6.026 22.4197 6.746 22.4197 7.124H18.8197V7.088C18.8197 6.098 19.2157 3.776 24.1297 3.776H24.6877C29.6377 3.776 29.9437 5.81 29.9437 7.142V10.436C29.9437 11.066 30.0697 11.318 30.7717 11.318H31.1497V14H28.3057C27.2617 14 26.7757 13.262 26.6317 12.614ZM42.3314 9.014V8.96C42.3314 7.88 41.8274 6.422 39.6314 6.422H39.4514C37.3454 6.422 36.6794 7.808 36.6794 8.96V9.014C36.6794 10.112 37.3454 11.552 39.4514 11.552H39.6314C41.8274 11.552 42.3314 10.04 42.3314 9.014ZM33.1874 17.438V4.01H36.6614V5.288C37.0934 4.82 38.4074 3.812 40.6754 3.812H40.9094C44.7254 3.812 45.9674 6.422 45.9674 8.798V9.104C45.9674 11.282 44.6894 14.198 40.8914 14.198H40.6394C38.3534 14.198 37.1294 13.154 36.6974 12.722V17.438H33.1874ZM56.8332 7.952L52.0092 14H48.4092V4.01H51.9192V10.058L56.7432 4.01H60.3432V14H56.8332V7.952ZM71.6147 10.076H75.2867C75.2867 11.588 74.3867 14.27 69.5807 14.27H68.6987C63.7127 14.27 62.7767 11.03 62.7767 9.14V8.888C62.7767 6.998 63.6587 3.74 68.6807 3.74H69.5087C74.3327 3.74 75.2867 6.368 75.2867 7.808V7.826H71.6147C71.5607 7.538 71.2187 6.296 69.1487 6.296H68.9687C66.8987 6.296 66.4127 7.718 66.4127 8.924V8.942C66.4127 10.184 67.0067 11.66 69.0407 11.66H69.2207C71.3087 11.66 71.6147 10.31 71.6147 10.076ZM82.3928 12.002C84.4448 12.002 85.1468 10.706 85.1468 9.95V9.176C84.8408 9.302 83.9588 9.482 82.9508 9.644C81.2588 9.932 80.7188 10.166 80.7188 10.868V10.904C80.7188 11.534 81.1688 12.002 82.3928 12.002ZM85.2548 12.614C84.8228 13.136 83.7428 14.198 81.4028 14.198H81.1148C78.3248 14.198 77.1728 12.686 77.1728 11.03V10.958C77.1728 9.23 78.2708 8.168 81.6548 7.88L84.3908 7.646C84.9488 7.592 85.1468 7.412 85.1468 6.998C85.1468 6.53 85.0028 6.026 83.0588 6.026C81.2228 6.026 81.0428 6.746 81.0428 7.124H77.4428V7.088C77.4428 6.098 77.8388 3.776 82.7528 3.776H83.3108C88.2608 3.776 88.5668 5.81 88.5668 7.142V10.436C88.5668 11.066 88.6928 11.318 89.3948 11.318H89.7728V14H86.9288C85.8848 14 85.3988 13.262 85.2548 12.614ZM104.628 0.391999H105.42C111.684 0.391999 113.466 4.064 113.466 6.998V7.538C113.466 10.418 111.684 14.216 105.42 14.216H104.628C98.3635 14.216 96.5815 10.418 96.5815 7.538V6.998C96.5815 4.082 98.3635 0.391999 104.628 0.391999ZM109.614 7.394V7.142C109.614 5.486 108.804 3.452 105.024 3.452C101.28 3.452 100.434 5.486 100.434 7.142V7.394C100.434 9.014 101.334 11.138 105.024 11.138C108.786 11.138 109.614 9.014 109.614 7.394ZM123.625 14V6.674H119.665C119.665 9.356 119.575 10.85 119.233 11.768C118.855 12.776 118.351 14 115.705 14H114.607V11.39H114.823C115.453 11.39 115.921 11.174 116.119 10.256C116.263 9.482 116.317 8.636 116.317 4.01H127.135V14H123.625ZM135.856 6.08C134.038 6.08 133.354 6.818 133.174 7.862H138.466C138.466 7.124 138.106 6.08 135.856 6.08ZM138.538 10.886H142.192C142.192 11.714 141.544 14.234 136.378 14.234H135.712C130.78 14.234 129.556 11.534 129.556 9.14V8.888C129.556 6.638 130.672 3.794 135.406 3.794H136.198C141.31 3.794 142.228 6.638 142.228 9.428V9.752H133.138C133.282 10.904 134.02 11.84 136.162 11.84C138.196 11.84 138.448 11.048 138.538 10.886ZM144.632 14V4.01H153.344V6.674H148.142V14H144.632ZM161.513 14.27H160.955C155.573 14.27 154.745 10.994 154.745 9.176V8.924C154.745 7.124 155.573 3.74 160.937 3.74H161.531C167.075 3.74 167.723 7.142 167.723 8.906V9.194C167.723 10.994 167.075 14.27 161.513 14.27ZM161.135 11.642H161.333C163.547 11.642 164.105 10.058 164.105 8.96C164.105 7.826 163.547 6.314 161.333 6.314H161.135C158.831 6.314 158.363 7.826 158.363 8.96C158.363 10.058 158.831 11.642 161.135 11.642ZM178.382 14H170.138V4.01H178.022C180.308 4.01 181.748 4.82 181.748 6.404V6.494C181.748 7.736 180.956 8.474 179.75 8.672C180.974 8.816 182.072 9.68 182.072 11.12V11.192C182.072 13.01 180.884 14 178.382 14ZM173.648 7.988H176.87C177.716 7.988 178.148 7.664 178.148 7.034V6.944C178.148 6.368 177.752 6.026 176.87 6.026H173.648V7.988ZM173.648 11.984H177.014C177.95 11.984 178.472 11.678 178.472 10.976V10.832C178.472 10.202 178.04 9.806 177.014 9.806H173.648V11.984ZM188.027 14H184.517V4.01H188.027V7.646H192.923V4.01H196.433V14H192.923V10.31H188.027V14ZM204.069 12.002C206.121 12.002 206.823 10.706 206.823 9.95V9.176C206.517 9.302 205.635 9.482 204.627 9.644C202.935 9.932 202.395 10.166 202.395 10.868V10.904C202.395 11.534 202.845 12.002 204.069 12.002ZM206.931 12.614C206.499 13.136 205.419 14.198 203.079 14.198H202.791C200.001 14.198 198.849 12.686 198.849 11.03V10.958C198.849 9.23 199.947 8.168 203.331 7.88L206.067 7.646C206.625 7.592 206.823 7.412 206.823 6.998C206.823 6.53 206.679 6.026 204.735 6.026C202.899 6.026 202.719 6.746 202.719 7.124H199.119V7.088C199.119 6.098 199.515 3.776 204.429 3.776H204.987C209.937 3.776 210.243 5.81 210.243 7.142V10.436C210.243 11.066 210.369 11.318 211.071 11.318H211.449V14H208.605C207.561 14 207.075 13.262 206.931 12.614ZM1.656 38V24.608H11.43C15.264 24.608 16.218 26.282 16.218 27.776V27.974C16.218 29.666 14.76 30.476 13.752 30.62C15.264 30.872 16.884 31.772 16.884 33.932V34.13C16.884 35.948 15.786 38 11.484 38H1.656ZM10.89 27.398H5.364V29.792H10.89C12.024 29.792 12.348 29.252 12.348 28.622V28.586C12.348 27.938 11.988 27.398 10.89 27.398ZM11.178 32.42H5.364V35.066H11.178C12.474 35.066 12.852 34.382 12.852 33.716V33.644C12.852 32.978 12.474 32.42 11.178 32.42ZM25.5462 38.27H24.9882C19.6062 38.27 18.7782 34.994 18.7782 33.176V32.924C18.7782 31.124 19.6062 27.74 24.9702 27.74H25.5642C31.1082 27.74 31.7562 31.142 31.7562 32.906V33.194C31.7562 34.994 31.1082 38.27 25.5462 38.27ZM25.1682 35.642H25.3662C27.5802 35.642 28.1382 34.058 28.1382 32.96C28.1382 31.826 27.5802 30.314 25.3662 30.314H25.1682C22.8642 30.314 22.3962 31.826 22.3962 32.96C22.3962 34.058 22.8642 35.642 25.1682 35.642ZM43.3509 33.014V32.96C43.3509 31.88 42.8469 30.422 40.6509 30.422H40.4709C38.3649 30.422 37.6989 31.808 37.6989 32.96V33.014C37.6989 34.112 38.3649 35.552 40.4709 35.552H40.6509C42.8469 35.552 43.3509 34.04 43.3509 33.014ZM34.2069 41.438V28.01H37.6809V29.288C38.1129 28.82 39.4269 27.812 41.6949 27.812H41.9289C45.7449 27.812 46.9869 30.422 46.9869 32.798V33.104C46.9869 35.282 45.7089 38.198 41.9109 38.198H41.6589C39.3729 38.198 38.1489 37.154 37.7169 36.722V41.438H34.2069ZM55.6927 38.27H55.1347C49.7527 38.27 48.9247 34.994 48.9247 33.176V32.924C48.9247 31.124 49.7527 27.74 55.1167 27.74H55.7107C61.2547 27.74 61.9027 31.142 61.9027 32.906V33.194C61.9027 34.994 61.2547 38.27 55.6927 38.27ZM55.3147 35.642H55.5127C57.7267 35.642 58.2847 34.058 58.2847 32.96C58.2847 31.826 57.7267 30.314 55.5127 30.314H55.3147C53.0107 30.314 52.5427 31.826 52.5427 32.96C52.5427 34.058 53.0107 35.642 55.3147 35.642ZM67.8274 38H64.3174V28.01H67.8274V31.646H72.7234V28.01H76.2334V38H72.7234V34.31H67.8274V38ZM92.5093 35.336V40.124H89.1793V38H79.1533V28.01H82.6633V35.336H87.1993V28.01H90.7093V35.336H92.5093ZM100.693 38.27H100.135C94.7527 38.27 93.9247 34.994 93.9247 33.176V32.924C93.9247 31.124 94.7527 27.74 100.117 27.74H100.711C106.255 27.74 106.903 31.142 106.903 32.906V33.194C106.903 34.994 106.255 38.27 100.693 38.27ZM100.315 35.642H100.513C102.727 35.642 103.285 34.058 103.285 32.96C103.285 31.826 102.727 30.314 100.513 30.314H100.315C98.0107 30.314 97.5427 31.826 97.5427 32.96C97.5427 34.058 98.0107 35.642 100.315 35.642ZM117.561 38H109.317V28.01H117.201C119.487 28.01 120.927 28.82 120.927 30.404V30.494C120.927 31.736 120.135 32.474 118.929 32.672C120.153 32.816 121.251 33.68 121.251 35.12V35.192C121.251 37.01 120.063 38 117.561 38ZM112.827 31.988H116.049C116.895 31.988 117.327 31.664 117.327 31.034V30.944C117.327 30.368 116.931 30.026 116.049 30.026H112.827V31.988ZM112.827 35.984H116.193C117.129 35.984 117.651 35.678 117.651 34.976V34.832C117.651 34.202 117.219 33.806 116.193 33.806H112.827V35.984ZM128.324 36.002C130.376 36.002 131.078 34.706 131.078 33.95V33.176C130.772 33.302 129.89 33.482 128.882 33.644C127.19 33.932 126.65 34.166 126.65 34.868V34.904C126.65 35.534 127.1 36.002 128.324 36.002ZM131.186 36.614C130.754 37.136 129.674 38.198 127.334 38.198H127.046C124.256 38.198 123.104 36.686 123.104 35.03V34.958C123.104 33.23 124.202 32.168 127.586 31.88L130.322 31.646C130.88 31.592 131.078 31.412 131.078 30.998C131.078 30.53 130.934 30.026 128.99 30.026C127.154 30.026 126.974 30.746 126.974 31.124H123.374V31.088C123.374 30.098 123.77 27.776 128.684 27.776H129.242C134.192 27.776 134.498 29.81 134.498 31.142V34.436C134.498 35.066 134.624 35.318 135.326 35.318H135.704V38H132.86C131.816 38 131.33 37.262 131.186 36.614Z" fill="#C1A875" style="mix-blend-mode:color"/>
<defs>
<linearGradient id="paint0_linear_2018_1101" x1="8.27014e-07" y1="18" x2="222" y2="18" gradientUnits="userSpaceOnUse">
<stop stop-color="#576167"/>
<stop offset="0.191294" stop-color="#9EA1A2"/>
<stop offset="0.396166" stop-color="#848989"/>
<stop offset="0.62055" stop-color="#576167"/>
<stop offset="0.830299" stop-color="#757A7C"/>
<stop offset="1" stop-color="#576167"/>
</linearGradient>
<radialGradient id="paint1_radial_2018_1101" cx="0" cy="0" r="1" gradientUnits="userSpaceOnUse" gradientTransform="translate(118.226 -0.404494) rotate(90) scale(35.6629 167.95)">
<stop stop-color="white"/>
<stop offset="1" stop-color="white" stop-opacity="0"/>
</radialGradient>
<radialGradient id="paint2_radial_2018_1101" cx="0" cy="0" r="1" gradientUnits="userSpaceOnUse" gradientTransform="translate(130.783 53.3258) rotate(-89.6015) scale(51.1024 240.159)">
<stop stop-color="white"/>
<stop offset="1" stop-color="white" stop-opacity="0"/>
</radialGradient>
</defs>
</svg>
