<svg width="191" height="63" viewBox="0 0 191 63" fill="none" xmlns="http://www.w3.org/2000/svg">
<path d="M1.656 14V0.608H15.534V14H11.826V3.56H5.364V14H1.656ZM23.3654 12.002C25.4174 12.002 26.1194 10.706 26.1194 9.95V9.176C25.8134 9.302 24.9314 9.482 23.9234 9.644C22.2314 9.932 21.6914 10.166 21.6914 10.868V10.904C21.6914 11.534 22.1414 12.002 23.3654 12.002ZM26.2274 12.614C25.7954 13.136 24.7154 14.198 22.3754 14.198H22.0874C19.2974 14.198 18.1454 12.686 18.1454 11.03V10.958C18.1454 9.23 19.2434 8.168 22.6274 7.88L25.3634 7.646C25.9214 7.592 26.1194 7.412 26.1194 6.998C26.1194 6.53 25.9754 6.026 24.0314 6.026C22.1954 6.026 22.0154 6.746 22.0154 7.124H18.4154V7.088C18.4154 6.098 18.8114 3.776 23.7254 3.776H24.2834C29.2334 3.776 29.5394 5.81 29.5394 7.142V10.436C29.5394 11.066 29.6654 11.318 30.3674 11.318H30.7454V14H27.9014C26.8574 14 26.3714 13.262 26.2274 12.614ZM40.9911 14H32.7471V4.01H40.6311C42.9171 4.01 44.3571 4.82 44.3571 6.404V6.494C44.3571 7.736 43.5651 8.474 42.3591 8.672C43.5831 8.816 44.6811 9.68 44.6811 11.12V11.192C44.6811 13.01 43.4931 14 40.9911 14ZM36.2571 7.988H39.4791C40.3251 7.988 40.7571 7.664 40.7571 7.034V6.944C40.7571 6.368 40.3611 6.026 39.4791 6.026H36.2571V7.988ZM36.2571 11.984H39.6231C40.5591 11.984 41.0811 11.678 41.0811 10.976V10.832C41.0811 10.202 40.6491 9.806 39.6231 9.806H36.2571V11.984ZM52.94 6.08C51.122 6.08 50.438 6.818 50.258 7.862H55.55C55.55 7.124 55.19 6.08 52.94 6.08ZM55.622 10.886H59.276C59.276 11.714 58.628 14.234 53.462 14.234H52.796C47.864 14.234 46.64 11.534 46.64 9.14V8.888C46.64 6.638 47.756 3.794 52.49 3.794H53.282C58.394 3.794 59.312 6.638 59.312 9.428V9.752H50.222C50.366 10.904 51.104 11.84 53.246 11.84C55.28 11.84 55.532 11.048 55.622 10.886ZM69.73 14V6.674H65.77C65.77 9.356 65.68 10.85 65.338 11.768C64.96 12.776 64.456 14 61.81 14H60.712V11.39H60.928C61.558 11.39 62.026 11.174 62.224 10.256C62.368 9.482 62.422 8.636 62.422 4.01H73.24V14H69.73ZM10.998 32.762L8.568 27.308L6.21 32.762H10.998ZM13.338 38L12.24 35.516H5.004L3.924 38H0.198L6.138 24.608H11.106L17.316 38H13.338ZM27.1558 38V30.674H23.1958C23.1958 33.356 23.1058 34.85 22.7638 35.768C22.3858 36.776 21.8818 38 19.2358 38H18.1378V35.39H18.3538C18.9838 35.39 19.4518 35.174 19.6498 34.256C19.7938 33.482 19.8478 32.636 19.8478 28.01H30.6658V38H27.1558ZM39.3872 30.08C37.5692 30.08 36.8852 30.818 36.7052 31.862H41.9972C41.9972 31.124 41.6372 30.08 39.3872 30.08ZM42.0692 34.886H45.7232C45.7232 35.714 45.0752 38.234 39.9092 38.234H39.2432C34.3112 38.234 33.0872 35.534 33.0872 33.14V32.888C33.0872 30.638 34.2032 27.794 38.9372 27.794H39.7292C44.8412 27.794 45.7592 30.638 45.7592 33.428V33.752H36.6692C36.8132 34.904 37.5512 35.84 39.6932 35.84C41.7272 35.84 41.9792 35.048 42.0692 34.886ZM55.5971 38L51.7091 33.374V38H48.1991V28.01H51.7091V32.006L55.2731 28.01H59.3231L55.1471 32.492L59.7731 38H55.5971ZM69.1186 34.076H72.7906C72.7906 35.588 71.8906 38.27 67.0846 38.27H66.2026C61.2166 38.27 60.2806 35.03 60.2806 33.14V32.888C60.2806 30.998 61.1626 27.74 66.1846 27.74H67.0126C71.8366 27.74 72.7906 30.368 72.7906 31.808V31.826H69.1186C69.0646 31.538 68.7226 30.296 66.6526 30.296H66.4726C64.4026 30.296 63.9166 31.718 63.9166 32.924V32.942C63.9166 34.184 64.5106 35.66 66.5446 35.66H66.7246C68.8126 35.66 69.1186 34.31 69.1186 34.076ZM79.8967 36.002C81.9487 36.002 82.6507 34.706 82.6507 33.95V33.176C82.3447 33.302 81.4627 33.482 80.4547 33.644C78.7627 33.932 78.2227 34.166 78.2227 34.868V34.904C78.2227 35.534 78.6727 36.002 79.8967 36.002ZM82.7587 36.614C82.3267 37.136 81.2467 38.198 78.9067 38.198H78.6187C75.8287 38.198 74.6767 36.686 74.6767 35.03V34.958C74.6767 33.23 75.7747 32.168 79.1587 31.88L81.8947 31.646C82.4527 31.592 82.6507 31.412 82.6507 30.998C82.6507 30.53 82.5067 30.026 80.5627 30.026C78.7267 30.026 78.5467 30.746 78.5467 31.124H74.9467V31.088C74.9467 30.098 75.3427 27.776 80.2567 27.776H80.8147C85.7647 27.776 86.0707 29.81 86.0707 31.142V34.436C86.0707 35.066 86.1967 35.318 86.8987 35.318H87.2767V38H84.4327C83.3887 38 82.9027 37.262 82.7587 36.614ZM92.7883 38H89.2783V28.01H92.7883V31.646H97.6843V28.01H101.194V38H97.6843V34.31H92.7883V38ZM103.286 40.124V35.336H104.492C105.176 33.968 105.284 30.998 105.374 28.01H115.94V35.336H117.74V40.124H114.41V38H106.616V40.124H103.286ZM107.804 35.336H112.43V30.674H108.524C108.47 31.97 108.29 33.95 107.804 35.336ZM129.009 33.014V32.96C129.009 31.88 128.505 30.422 126.309 30.422H126.129C124.023 30.422 123.357 31.808 123.357 32.96V33.014C123.357 34.112 124.023 35.552 126.129 35.552H126.309C128.505 35.552 129.009 34.04 129.009 33.014ZM119.865 41.438V28.01H123.339V29.288C123.771 28.82 125.085 27.812 127.353 27.812H127.587C131.403 27.812 132.645 30.422 132.645 32.798V33.104C132.645 35.282 131.367 38.198 127.569 38.198H127.317C125.031 38.198 123.807 37.154 123.375 36.722V41.438H119.865ZM141.351 38.27H140.793C135.411 38.27 134.583 34.994 134.583 33.176V32.924C134.583 31.124 135.411 27.74 140.775 27.74H141.369C146.913 27.74 147.561 31.142 147.561 32.906V33.194C147.561 34.994 146.913 38.27 141.351 38.27ZM140.973 35.642H141.171C143.385 35.642 143.943 34.058 143.943 32.96C143.943 31.826 143.385 30.314 141.171 30.314H140.973C138.669 30.314 138.201 31.826 138.201 32.96C138.201 34.058 138.669 35.642 140.973 35.642ZM158.22 38H149.976V28.01H157.86C160.146 28.01 161.586 28.82 161.586 30.404V30.494C161.586 31.736 160.794 32.474 159.588 32.672C160.812 32.816 161.91 33.68 161.91 35.12V35.192C161.91 37.01 160.722 38 158.22 38ZM153.486 31.988H156.708C157.554 31.988 157.986 31.664 157.986 31.034V30.944C157.986 30.368 157.59 30.026 156.708 30.026H153.486V31.988ZM153.486 35.984H156.852C157.788 35.984 158.31 35.678 158.31 34.976V34.832C158.31 34.202 157.878 33.806 156.852 33.806H153.486V35.984ZM172.778 31.952L167.954 38H164.354V28.01H167.864V34.058L172.688 28.01H176.288V38H172.778V31.952ZM186.624 28.01H190.134V38H186.624V34.562C185.85 34.652 184.95 34.742 184.014 34.742C180.054 34.742 178.56 33.626 178.56 30.458V28.01H182.07V29.81C182.07 31.682 182.7 32.006 184.554 32.006C185.256 32.006 186.066 31.952 186.624 31.88V28.01ZM1.656 62V48.608H5.364V59.048H9.756V48.608H13.464V59.048H17.856V48.608H21.564V62H1.656ZM30.4927 54.08C28.6747 54.08 27.9907 54.818 27.8107 55.862H33.1027C33.1027 55.124 32.7427 54.08 30.4927 54.08ZM33.1747 58.886H36.8287C36.8287 59.714 36.1807 62.234 31.0147 62.234H30.3487C25.4167 62.234 24.1927 59.534 24.1927 57.14V56.888C24.1927 54.638 25.3087 51.794 30.0427 51.794H30.8347C35.9467 51.794 36.8647 54.638 36.8647 57.428V57.752H27.7747C27.9187 58.904 28.6567 59.84 30.7987 59.84C32.8327 59.84 33.0847 59.048 33.1747 58.886ZM47.6205 58.076H51.2925C51.2925 59.588 50.3925 62.27 45.5865 62.27H44.7045C39.7185 62.27 38.7825 59.03 38.7825 57.14V56.888C38.7825 54.998 39.6645 51.74 44.6865 51.74H45.5145C50.3385 51.74 51.2925 54.368 51.2925 55.808V55.826H47.6205C47.5665 55.538 47.2245 54.296 45.1545 54.296H44.9745C42.9045 54.296 42.4185 55.718 42.4185 56.924V56.942C42.4185 58.184 43.0125 59.66 45.0465 59.66H45.2265C47.3145 59.66 47.6205 58.31 47.6205 58.076ZM56.5446 62V54.674H52.6746V52.01H63.9246V54.674H60.0546V62H56.5446ZM70.5451 60.002C72.5971 60.002 73.2991 58.706 73.2991 57.95V57.176C72.9931 57.302 72.1111 57.482 71.1031 57.644C69.4111 57.932 68.8711 58.166 68.8711 58.868V58.904C68.8711 59.534 69.3211 60.002 70.5451 60.002ZM73.4071 60.614C72.9751 61.136 71.8951 62.198 69.5551 62.198H69.2671C66.4771 62.198 65.3251 60.686 65.3251 59.03V58.958C65.3251 57.23 66.4231 56.168 69.8071 55.88L72.5431 55.646C73.1011 55.592 73.2991 55.412 73.2991 54.998C73.2991 54.53 73.1551 54.026 71.2111 54.026C69.3751 54.026 69.1951 54.746 69.1951 55.124H65.5951V55.088C65.5951 54.098 65.9911 51.776 70.9051 51.776H71.4631C76.4131 51.776 76.7191 53.81 76.7191 55.142V58.436C76.7191 59.066 76.8451 59.318 77.5471 59.318H77.9251V62H75.0811C74.0371 62 73.5511 61.262 73.4071 60.614ZM87.3608 62L83.4728 57.374V62H79.9628V52.01H83.4728V56.006L87.0368 52.01H91.0868L86.9108 56.492L91.5368 62H87.3608ZM98.7943 62.27H98.2363C92.8543 62.27 92.0263 58.994 92.0263 57.176V56.924C92.0263 55.124 92.8543 51.74 98.2183 51.74H98.8123C104.356 51.74 105.004 55.142 105.004 56.906V57.194C105.004 58.994 104.356 62.27 98.7943 62.27ZM98.4163 59.642H98.6143C100.828 59.642 101.386 58.058 101.386 56.96C101.386 55.826 100.828 54.314 98.6143 54.314H98.4163C96.1123 54.314 95.6443 55.826 95.6443 56.96C95.6443 58.058 96.1123 59.642 98.4163 59.642ZM115.663 62H107.419V52.01H115.303C117.589 52.01 119.029 52.82 119.029 54.404V54.494C119.029 55.736 118.237 56.474 117.031 56.672C118.255 56.816 119.353 57.68 119.353 59.12V59.192C119.353 61.01 118.165 62 115.663 62ZM110.929 55.988H114.151C114.997 55.988 115.429 55.664 115.429 55.034V54.944C115.429 54.368 115.033 54.026 114.151 54.026H110.929V55.988ZM110.929 59.984H114.295C115.231 59.984 115.753 59.678 115.753 58.976V58.832C115.753 58.202 115.321 57.806 114.295 57.806H110.929V59.984Z" fill="url(#paint0_linear_2018_1121)"/>
<path d="M1.656 14V0.608H15.534V14H11.826V3.56H5.364V14H1.656ZM23.3654 12.002C25.4174 12.002 26.1194 10.706 26.1194 9.95V9.176C25.8134 9.302 24.9314 9.482 23.9234 9.644C22.2314 9.932 21.6914 10.166 21.6914 10.868V10.904C21.6914 11.534 22.1414 12.002 23.3654 12.002ZM26.2274 12.614C25.7954 13.136 24.7154 14.198 22.3754 14.198H22.0874C19.2974 14.198 18.1454 12.686 18.1454 11.03V10.958C18.1454 9.23 19.2434 8.168 22.6274 7.88L25.3634 7.646C25.9214 7.592 26.1194 7.412 26.1194 6.998C26.1194 6.53 25.9754 6.026 24.0314 6.026C22.1954 6.026 22.0154 6.746 22.0154 7.124H18.4154V7.088C18.4154 6.098 18.8114 3.776 23.7254 3.776H24.2834C29.2334 3.776 29.5394 5.81 29.5394 7.142V10.436C29.5394 11.066 29.6654 11.318 30.3674 11.318H30.7454V14H27.9014C26.8574 14 26.3714 13.262 26.2274 12.614ZM40.9911 14H32.7471V4.01H40.6311C42.9171 4.01 44.3571 4.82 44.3571 6.404V6.494C44.3571 7.736 43.5651 8.474 42.3591 8.672C43.5831 8.816 44.6811 9.68 44.6811 11.12V11.192C44.6811 13.01 43.4931 14 40.9911 14ZM36.2571 7.988H39.4791C40.3251 7.988 40.7571 7.664 40.7571 7.034V6.944C40.7571 6.368 40.3611 6.026 39.4791 6.026H36.2571V7.988ZM36.2571 11.984H39.6231C40.5591 11.984 41.0811 11.678 41.0811 10.976V10.832C41.0811 10.202 40.6491 9.806 39.6231 9.806H36.2571V11.984ZM52.94 6.08C51.122 6.08 50.438 6.818 50.258 7.862H55.55C55.55 7.124 55.19 6.08 52.94 6.08ZM55.622 10.886H59.276C59.276 11.714 58.628 14.234 53.462 14.234H52.796C47.864 14.234 46.64 11.534 46.64 9.14V8.888C46.64 6.638 47.756 3.794 52.49 3.794H53.282C58.394 3.794 59.312 6.638 59.312 9.428V9.752H50.222C50.366 10.904 51.104 11.84 53.246 11.84C55.28 11.84 55.532 11.048 55.622 10.886ZM69.73 14V6.674H65.77C65.77 9.356 65.68 10.85 65.338 11.768C64.96 12.776 64.456 14 61.81 14H60.712V11.39H60.928C61.558 11.39 62.026 11.174 62.224 10.256C62.368 9.482 62.422 8.636 62.422 4.01H73.24V14H69.73ZM10.998 32.762L8.568 27.308L6.21 32.762H10.998ZM13.338 38L12.24 35.516H5.004L3.924 38H0.198L6.138 24.608H11.106L17.316 38H13.338ZM27.1558 38V30.674H23.1958C23.1958 33.356 23.1058 34.85 22.7638 35.768C22.3858 36.776 21.8818 38 19.2358 38H18.1378V35.39H18.3538C18.9838 35.39 19.4518 35.174 19.6498 34.256C19.7938 33.482 19.8478 32.636 19.8478 28.01H30.6658V38H27.1558ZM39.3872 30.08C37.5692 30.08 36.8852 30.818 36.7052 31.862H41.9972C41.9972 31.124 41.6372 30.08 39.3872 30.08ZM42.0692 34.886H45.7232C45.7232 35.714 45.0752 38.234 39.9092 38.234H39.2432C34.3112 38.234 33.0872 35.534 33.0872 33.14V32.888C33.0872 30.638 34.2032 27.794 38.9372 27.794H39.7292C44.8412 27.794 45.7592 30.638 45.7592 33.428V33.752H36.6692C36.8132 34.904 37.5512 35.84 39.6932 35.84C41.7272 35.84 41.9792 35.048 42.0692 34.886ZM55.5971 38L51.7091 33.374V38H48.1991V28.01H51.7091V32.006L55.2731 28.01H59.3231L55.1471 32.492L59.7731 38H55.5971ZM69.1186 34.076H72.7906C72.7906 35.588 71.8906 38.27 67.0846 38.27H66.2026C61.2166 38.27 60.2806 35.03 60.2806 33.14V32.888C60.2806 30.998 61.1626 27.74 66.1846 27.74H67.0126C71.8366 27.74 72.7906 30.368 72.7906 31.808V31.826H69.1186C69.0646 31.538 68.7226 30.296 66.6526 30.296H66.4726C64.4026 30.296 63.9166 31.718 63.9166 32.924V32.942C63.9166 34.184 64.5106 35.66 66.5446 35.66H66.7246C68.8126 35.66 69.1186 34.31 69.1186 34.076ZM79.8967 36.002C81.9487 36.002 82.6507 34.706 82.6507 33.95V33.176C82.3447 33.302 81.4627 33.482 80.4547 33.644C78.7627 33.932 78.2227 34.166 78.2227 34.868V34.904C78.2227 35.534 78.6727 36.002 79.8967 36.002ZM82.7587 36.614C82.3267 37.136 81.2467 38.198 78.9067 38.198H78.6187C75.8287 38.198 74.6767 36.686 74.6767 35.03V34.958C74.6767 33.23 75.7747 32.168 79.1587 31.88L81.8947 31.646C82.4527 31.592 82.6507 31.412 82.6507 30.998C82.6507 30.53 82.5067 30.026 80.5627 30.026C78.7267 30.026 78.5467 30.746 78.5467 31.124H74.9467V31.088C74.9467 30.098 75.3427 27.776 80.2567 27.776H80.8147C85.7647 27.776 86.0707 29.81 86.0707 31.142V34.436C86.0707 35.066 86.1967 35.318 86.8987 35.318H87.2767V38H84.4327C83.3887 38 82.9027 37.262 82.7587 36.614ZM92.7883 38H89.2783V28.01H92.7883V31.646H97.6843V28.01H101.194V38H97.6843V34.31H92.7883V38ZM103.286 40.124V35.336H104.492C105.176 33.968 105.284 30.998 105.374 28.01H115.94V35.336H117.74V40.124H114.41V38H106.616V40.124H103.286ZM107.804 35.336H112.43V30.674H108.524C108.47 31.97 108.29 33.95 107.804 35.336ZM129.009 33.014V32.96C129.009 31.88 128.505 30.422 126.309 30.422H126.129C124.023 30.422 123.357 31.808 123.357 32.96V33.014C123.357 34.112 124.023 35.552 126.129 35.552H126.309C128.505 35.552 129.009 34.04 129.009 33.014ZM119.865 41.438V28.01H123.339V29.288C123.771 28.82 125.085 27.812 127.353 27.812H127.587C131.403 27.812 132.645 30.422 132.645 32.798V33.104C132.645 35.282 131.367 38.198 127.569 38.198H127.317C125.031 38.198 123.807 37.154 123.375 36.722V41.438H119.865ZM141.351 38.27H140.793C135.411 38.27 134.583 34.994 134.583 33.176V32.924C134.583 31.124 135.411 27.74 140.775 27.74H141.369C146.913 27.74 147.561 31.142 147.561 32.906V33.194C147.561 34.994 146.913 38.27 141.351 38.27ZM140.973 35.642H141.171C143.385 35.642 143.943 34.058 143.943 32.96C143.943 31.826 143.385 30.314 141.171 30.314H140.973C138.669 30.314 138.201 31.826 138.201 32.96C138.201 34.058 138.669 35.642 140.973 35.642ZM158.22 38H149.976V28.01H157.86C160.146 28.01 161.586 28.82 161.586 30.404V30.494C161.586 31.736 160.794 32.474 159.588 32.672C160.812 32.816 161.91 33.68 161.91 35.12V35.192C161.91 37.01 160.722 38 158.22 38ZM153.486 31.988H156.708C157.554 31.988 157.986 31.664 157.986 31.034V30.944C157.986 30.368 157.59 30.026 156.708 30.026H153.486V31.988ZM153.486 35.984H156.852C157.788 35.984 158.31 35.678 158.31 34.976V34.832C158.31 34.202 157.878 33.806 156.852 33.806H153.486V35.984ZM172.778 31.952L167.954 38H164.354V28.01H167.864V34.058L172.688 28.01H176.288V38H172.778V31.952ZM186.624 28.01H190.134V38H186.624V34.562C185.85 34.652 184.95 34.742 184.014 34.742C180.054 34.742 178.56 33.626 178.56 30.458V28.01H182.07V29.81C182.07 31.682 182.7 32.006 184.554 32.006C185.256 32.006 186.066 31.952 186.624 31.88V28.01ZM1.656 62V48.608H5.364V59.048H9.756V48.608H13.464V59.048H17.856V48.608H21.564V62H1.656ZM30.4927 54.08C28.6747 54.08 27.9907 54.818 27.8107 55.862H33.1027C33.1027 55.124 32.7427 54.08 30.4927 54.08ZM33.1747 58.886H36.8287C36.8287 59.714 36.1807 62.234 31.0147 62.234H30.3487C25.4167 62.234 24.1927 59.534 24.1927 57.14V56.888C24.1927 54.638 25.3087 51.794 30.0427 51.794H30.8347C35.9467 51.794 36.8647 54.638 36.8647 57.428V57.752H27.7747C27.9187 58.904 28.6567 59.84 30.7987 59.84C32.8327 59.84 33.0847 59.048 33.1747 58.886ZM47.6205 58.076H51.2925C51.2925 59.588 50.3925 62.27 45.5865 62.27H44.7045C39.7185 62.27 38.7825 59.03 38.7825 57.14V56.888C38.7825 54.998 39.6645 51.74 44.6865 51.74H45.5145C50.3385 51.74 51.2925 54.368 51.2925 55.808V55.826H47.6205C47.5665 55.538 47.2245 54.296 45.1545 54.296H44.9745C42.9045 54.296 42.4185 55.718 42.4185 56.924V56.942C42.4185 58.184 43.0125 59.66 45.0465 59.66H45.2265C47.3145 59.66 47.6205 58.31 47.6205 58.076ZM56.5446 62V54.674H52.6746V52.01H63.9246V54.674H60.0546V62H56.5446ZM70.5451 60.002C72.5971 60.002 73.2991 58.706 73.2991 57.95V57.176C72.9931 57.302 72.1111 57.482 71.1031 57.644C69.4111 57.932 68.8711 58.166 68.8711 58.868V58.904C68.8711 59.534 69.3211 60.002 70.5451 60.002ZM73.4071 60.614C72.9751 61.136 71.8951 62.198 69.5551 62.198H69.2671C66.4771 62.198 65.3251 60.686 65.3251 59.03V58.958C65.3251 57.23 66.4231 56.168 69.8071 55.88L72.5431 55.646C73.1011 55.592 73.2991 55.412 73.2991 54.998C73.2991 54.53 73.1551 54.026 71.2111 54.026C69.3751 54.026 69.1951 54.746 69.1951 55.124H65.5951V55.088C65.5951 54.098 65.9911 51.776 70.9051 51.776H71.4631C76.4131 51.776 76.7191 53.81 76.7191 55.142V58.436C76.7191 59.066 76.8451 59.318 77.5471 59.318H77.9251V62H75.0811C74.0371 62 73.5511 61.262 73.4071 60.614ZM87.3608 62L83.4728 57.374V62H79.9628V52.01H83.4728V56.006L87.0368 52.01H91.0868L86.9108 56.492L91.5368 62H87.3608ZM98.7943 62.27H98.2363C92.8543 62.27 92.0263 58.994 92.0263 57.176V56.924C92.0263 55.124 92.8543 51.74 98.2183 51.74H98.8123C104.356 51.74 105.004 55.142 105.004 56.906V57.194C105.004 58.994 104.356 62.27 98.7943 62.27ZM98.4163 59.642H98.6143C100.828 59.642 101.386 58.058 101.386 56.96C101.386 55.826 100.828 54.314 98.6143 54.314H98.4163C96.1123 54.314 95.6443 55.826 95.6443 56.96C95.6443 58.058 96.1123 59.642 98.4163 59.642ZM115.663 62H107.419V52.01H115.303C117.589 52.01 119.029 52.82 119.029 54.404V54.494C119.029 55.736 118.237 56.474 117.031 56.672C118.255 56.816 119.353 57.68 119.353 59.12V59.192C119.353 61.01 118.165 62 115.663 62ZM110.929 55.988H114.151C114.997 55.988 115.429 55.664 115.429 55.034V54.944C115.429 54.368 115.033 54.026 114.151 54.026H110.929V55.988ZM110.929 59.984H114.295C115.231 59.984 115.753 59.678 115.753 58.976V58.832C115.753 58.202 115.321 57.806 114.295 57.806H110.929V59.984Z" fill="url(#paint1_radial_2018_1121)" style="mix-blend-mode:overlay"/>
<path d="M1.656 14V0.608H15.534V14H11.826V3.56H5.364V14H1.656ZM23.3654 12.002C25.4174 12.002 26.1194 10.706 26.1194 9.95V9.176C25.8134 9.302 24.9314 9.482 23.9234 9.644C22.2314 9.932 21.6914 10.166 21.6914 10.868V10.904C21.6914 11.534 22.1414 12.002 23.3654 12.002ZM26.2274 12.614C25.7954 13.136 24.7154 14.198 22.3754 14.198H22.0874C19.2974 14.198 18.1454 12.686 18.1454 11.03V10.958C18.1454 9.23 19.2434 8.168 22.6274 7.88L25.3634 7.646C25.9214 7.592 26.1194 7.412 26.1194 6.998C26.1194 6.53 25.9754 6.026 24.0314 6.026C22.1954 6.026 22.0154 6.746 22.0154 7.124H18.4154V7.088C18.4154 6.098 18.8114 3.776 23.7254 3.776H24.2834C29.2334 3.776 29.5394 5.81 29.5394 7.142V10.436C29.5394 11.066 29.6654 11.318 30.3674 11.318H30.7454V14H27.9014C26.8574 14 26.3714 13.262 26.2274 12.614ZM40.9911 14H32.7471V4.01H40.6311C42.9171 4.01 44.3571 4.82 44.3571 6.404V6.494C44.3571 7.736 43.5651 8.474 42.3591 8.672C43.5831 8.816 44.6811 9.68 44.6811 11.12V11.192C44.6811 13.01 43.4931 14 40.9911 14ZM36.2571 7.988H39.4791C40.3251 7.988 40.7571 7.664 40.7571 7.034V6.944C40.7571 6.368 40.3611 6.026 39.4791 6.026H36.2571V7.988ZM36.2571 11.984H39.6231C40.5591 11.984 41.0811 11.678 41.0811 10.976V10.832C41.0811 10.202 40.6491 9.806 39.6231 9.806H36.2571V11.984ZM52.94 6.08C51.122 6.08 50.438 6.818 50.258 7.862H55.55C55.55 7.124 55.19 6.08 52.94 6.08ZM55.622 10.886H59.276C59.276 11.714 58.628 14.234 53.462 14.234H52.796C47.864 14.234 46.64 11.534 46.64 9.14V8.888C46.64 6.638 47.756 3.794 52.49 3.794H53.282C58.394 3.794 59.312 6.638 59.312 9.428V9.752H50.222C50.366 10.904 51.104 11.84 53.246 11.84C55.28 11.84 55.532 11.048 55.622 10.886ZM69.73 14V6.674H65.77C65.77 9.356 65.68 10.85 65.338 11.768C64.96 12.776 64.456 14 61.81 14H60.712V11.39H60.928C61.558 11.39 62.026 11.174 62.224 10.256C62.368 9.482 62.422 8.636 62.422 4.01H73.24V14H69.73ZM10.998 32.762L8.568 27.308L6.21 32.762H10.998ZM13.338 38L12.24 35.516H5.004L3.924 38H0.198L6.138 24.608H11.106L17.316 38H13.338ZM27.1558 38V30.674H23.1958C23.1958 33.356 23.1058 34.85 22.7638 35.768C22.3858 36.776 21.8818 38 19.2358 38H18.1378V35.39H18.3538C18.9838 35.39 19.4518 35.174 19.6498 34.256C19.7938 33.482 19.8478 32.636 19.8478 28.01H30.6658V38H27.1558ZM39.3872 30.08C37.5692 30.08 36.8852 30.818 36.7052 31.862H41.9972C41.9972 31.124 41.6372 30.08 39.3872 30.08ZM42.0692 34.886H45.7232C45.7232 35.714 45.0752 38.234 39.9092 38.234H39.2432C34.3112 38.234 33.0872 35.534 33.0872 33.14V32.888C33.0872 30.638 34.2032 27.794 38.9372 27.794H39.7292C44.8412 27.794 45.7592 30.638 45.7592 33.428V33.752H36.6692C36.8132 34.904 37.5512 35.84 39.6932 35.84C41.7272 35.84 41.9792 35.048 42.0692 34.886ZM55.5971 38L51.7091 33.374V38H48.1991V28.01H51.7091V32.006L55.2731 28.01H59.3231L55.1471 32.492L59.7731 38H55.5971ZM69.1186 34.076H72.7906C72.7906 35.588 71.8906 38.27 67.0846 38.27H66.2026C61.2166 38.27 60.2806 35.03 60.2806 33.14V32.888C60.2806 30.998 61.1626 27.74 66.1846 27.74H67.0126C71.8366 27.74 72.7906 30.368 72.7906 31.808V31.826H69.1186C69.0646 31.538 68.7226 30.296 66.6526 30.296H66.4726C64.4026 30.296 63.9166 31.718 63.9166 32.924V32.942C63.9166 34.184 64.5106 35.66 66.5446 35.66H66.7246C68.8126 35.66 69.1186 34.31 69.1186 34.076ZM79.8967 36.002C81.9487 36.002 82.6507 34.706 82.6507 33.95V33.176C82.3447 33.302 81.4627 33.482 80.4547 33.644C78.7627 33.932 78.2227 34.166 78.2227 34.868V34.904C78.2227 35.534 78.6727 36.002 79.8967 36.002ZM82.7587 36.614C82.3267 37.136 81.2467 38.198 78.9067 38.198H78.6187C75.8287 38.198 74.6767 36.686 74.6767 35.03V34.958C74.6767 33.23 75.7747 32.168 79.1587 31.88L81.8947 31.646C82.4527 31.592 82.6507 31.412 82.6507 30.998C82.6507 30.53 82.5067 30.026 80.5627 30.026C78.7267 30.026 78.5467 30.746 78.5467 31.124H74.9467V31.088C74.9467 30.098 75.3427 27.776 80.2567 27.776H80.8147C85.7647 27.776 86.0707 29.81 86.0707 31.142V34.436C86.0707 35.066 86.1967 35.318 86.8987 35.318H87.2767V38H84.4327C83.3887 38 82.9027 37.262 82.7587 36.614ZM92.7883 38H89.2783V28.01H92.7883V31.646H97.6843V28.01H101.194V38H97.6843V34.31H92.7883V38ZM103.286 40.124V35.336H104.492C105.176 33.968 105.284 30.998 105.374 28.01H115.94V35.336H117.74V40.124H114.41V38H106.616V40.124H103.286ZM107.804 35.336H112.43V30.674H108.524C108.47 31.97 108.29 33.95 107.804 35.336ZM129.009 33.014V32.96C129.009 31.88 128.505 30.422 126.309 30.422H126.129C124.023 30.422 123.357 31.808 123.357 32.96V33.014C123.357 34.112 124.023 35.552 126.129 35.552H126.309C128.505 35.552 129.009 34.04 129.009 33.014ZM119.865 41.438V28.01H123.339V29.288C123.771 28.82 125.085 27.812 127.353 27.812H127.587C131.403 27.812 132.645 30.422 132.645 32.798V33.104C132.645 35.282 131.367 38.198 127.569 38.198H127.317C125.031 38.198 123.807 37.154 123.375 36.722V41.438H119.865ZM141.351 38.27H140.793C135.411 38.27 134.583 34.994 134.583 33.176V32.924C134.583 31.124 135.411 27.74 140.775 27.74H141.369C146.913 27.74 147.561 31.142 147.561 32.906V33.194C147.561 34.994 146.913 38.27 141.351 38.27ZM140.973 35.642H141.171C143.385 35.642 143.943 34.058 143.943 32.96C143.943 31.826 143.385 30.314 141.171 30.314H140.973C138.669 30.314 138.201 31.826 138.201 32.96C138.201 34.058 138.669 35.642 140.973 35.642ZM158.22 38H149.976V28.01H157.86C160.146 28.01 161.586 28.82 161.586 30.404V30.494C161.586 31.736 160.794 32.474 159.588 32.672C160.812 32.816 161.91 33.68 161.91 35.12V35.192C161.91 37.01 160.722 38 158.22 38ZM153.486 31.988H156.708C157.554 31.988 157.986 31.664 157.986 31.034V30.944C157.986 30.368 157.59 30.026 156.708 30.026H153.486V31.988ZM153.486 35.984H156.852C157.788 35.984 158.31 35.678 158.31 34.976V34.832C158.31 34.202 157.878 33.806 156.852 33.806H153.486V35.984ZM172.778 31.952L167.954 38H164.354V28.01H167.864V34.058L172.688 28.01H176.288V38H172.778V31.952ZM186.624 28.01H190.134V38H186.624V34.562C185.85 34.652 184.95 34.742 184.014 34.742C180.054 34.742 178.56 33.626 178.56 30.458V28.01H182.07V29.81C182.07 31.682 182.7 32.006 184.554 32.006C185.256 32.006 186.066 31.952 186.624 31.88V28.01ZM1.656 62V48.608H5.364V59.048H9.756V48.608H13.464V59.048H17.856V48.608H21.564V62H1.656ZM30.4927 54.08C28.6747 54.08 27.9907 54.818 27.8107 55.862H33.1027C33.1027 55.124 32.7427 54.08 30.4927 54.08ZM33.1747 58.886H36.8287C36.8287 59.714 36.1807 62.234 31.0147 62.234H30.3487C25.4167 62.234 24.1927 59.534 24.1927 57.14V56.888C24.1927 54.638 25.3087 51.794 30.0427 51.794H30.8347C35.9467 51.794 36.8647 54.638 36.8647 57.428V57.752H27.7747C27.9187 58.904 28.6567 59.84 30.7987 59.84C32.8327 59.84 33.0847 59.048 33.1747 58.886ZM47.6205 58.076H51.2925C51.2925 59.588 50.3925 62.27 45.5865 62.27H44.7045C39.7185 62.27 38.7825 59.03 38.7825 57.14V56.888C38.7825 54.998 39.6645 51.74 44.6865 51.74H45.5145C50.3385 51.74 51.2925 54.368 51.2925 55.808V55.826H47.6205C47.5665 55.538 47.2245 54.296 45.1545 54.296H44.9745C42.9045 54.296 42.4185 55.718 42.4185 56.924V56.942C42.4185 58.184 43.0125 59.66 45.0465 59.66H45.2265C47.3145 59.66 47.6205 58.31 47.6205 58.076ZM56.5446 62V54.674H52.6746V52.01H63.9246V54.674H60.0546V62H56.5446ZM70.5451 60.002C72.5971 60.002 73.2991 58.706 73.2991 57.95V57.176C72.9931 57.302 72.1111 57.482 71.1031 57.644C69.4111 57.932 68.8711 58.166 68.8711 58.868V58.904C68.8711 59.534 69.3211 60.002 70.5451 60.002ZM73.4071 60.614C72.9751 61.136 71.8951 62.198 69.5551 62.198H69.2671C66.4771 62.198 65.3251 60.686 65.3251 59.03V58.958C65.3251 57.23 66.4231 56.168 69.8071 55.88L72.5431 55.646C73.1011 55.592 73.2991 55.412 73.2991 54.998C73.2991 54.53 73.1551 54.026 71.2111 54.026C69.3751 54.026 69.1951 54.746 69.1951 55.124H65.5951V55.088C65.5951 54.098 65.9911 51.776 70.9051 51.776H71.4631C76.4131 51.776 76.7191 53.81 76.7191 55.142V58.436C76.7191 59.066 76.8451 59.318 77.5471 59.318H77.9251V62H75.0811C74.0371 62 73.5511 61.262 73.4071 60.614ZM87.3608 62L83.4728 57.374V62H79.9628V52.01H83.4728V56.006L87.0368 52.01H91.0868L86.9108 56.492L91.5368 62H87.3608ZM98.7943 62.27H98.2363C92.8543 62.27 92.0263 58.994 92.0263 57.176V56.924C92.0263 55.124 92.8543 51.74 98.2183 51.74H98.8123C104.356 51.74 105.004 55.142 105.004 56.906V57.194C105.004 58.994 104.356 62.27 98.7943 62.27ZM98.4163 59.642H98.6143C100.828 59.642 101.386 58.058 101.386 56.96C101.386 55.826 100.828 54.314 98.6143 54.314H98.4163C96.1123 54.314 95.6443 55.826 95.6443 56.96C95.6443 58.058 96.1123 59.642 98.4163 59.642ZM115.663 62H107.419V52.01H115.303C117.589 52.01 119.029 52.82 119.029 54.404V54.494C119.029 55.736 118.237 56.474 117.031 56.672C118.255 56.816 119.353 57.68 119.353 59.12V59.192C119.353 61.01 118.165 62 115.663 62ZM110.929 55.988H114.151C114.997 55.988 115.429 55.664 115.429 55.034V54.944C115.429 54.368 115.033 54.026 114.151 54.026H110.929V55.988ZM110.929 59.984H114.295C115.231 59.984 115.753 59.678 115.753 58.976V58.832C115.753 58.202 115.321 57.806 114.295 57.806H110.929V59.984Z" fill="url(#paint2_radial_2018_1121)"/>
<path d="M1.656 14V0.608H15.534V14H11.826V3.56H5.364V14H1.656ZM23.3654 12.002C25.4174 12.002 26.1194 10.706 26.1194 9.95V9.176C25.8134 9.302 24.9314 9.482 23.9234 9.644C22.2314 9.932 21.6914 10.166 21.6914 10.868V10.904C21.6914 11.534 22.1414 12.002 23.3654 12.002ZM26.2274 12.614C25.7954 13.136 24.7154 14.198 22.3754 14.198H22.0874C19.2974 14.198 18.1454 12.686 18.1454 11.03V10.958C18.1454 9.23 19.2434 8.168 22.6274 7.88L25.3634 7.646C25.9214 7.592 26.1194 7.412 26.1194 6.998C26.1194 6.53 25.9754 6.026 24.0314 6.026C22.1954 6.026 22.0154 6.746 22.0154 7.124H18.4154V7.088C18.4154 6.098 18.8114 3.776 23.7254 3.776H24.2834C29.2334 3.776 29.5394 5.81 29.5394 7.142V10.436C29.5394 11.066 29.6654 11.318 30.3674 11.318H30.7454V14H27.9014C26.8574 14 26.3714 13.262 26.2274 12.614ZM40.9911 14H32.7471V4.01H40.6311C42.9171 4.01 44.3571 4.82 44.3571 6.404V6.494C44.3571 7.736 43.5651 8.474 42.3591 8.672C43.5831 8.816 44.6811 9.68 44.6811 11.12V11.192C44.6811 13.01 43.4931 14 40.9911 14ZM36.2571 7.988H39.4791C40.3251 7.988 40.7571 7.664 40.7571 7.034V6.944C40.7571 6.368 40.3611 6.026 39.4791 6.026H36.2571V7.988ZM36.2571 11.984H39.6231C40.5591 11.984 41.0811 11.678 41.0811 10.976V10.832C41.0811 10.202 40.6491 9.806 39.6231 9.806H36.2571V11.984ZM52.94 6.08C51.122 6.08 50.438 6.818 50.258 7.862H55.55C55.55 7.124 55.19 6.08 52.94 6.08ZM55.622 10.886H59.276C59.276 11.714 58.628 14.234 53.462 14.234H52.796C47.864 14.234 46.64 11.534 46.64 9.14V8.888C46.64 6.638 47.756 3.794 52.49 3.794H53.282C58.394 3.794 59.312 6.638 59.312 9.428V9.752H50.222C50.366 10.904 51.104 11.84 53.246 11.84C55.28 11.84 55.532 11.048 55.622 10.886ZM69.73 14V6.674H65.77C65.77 9.356 65.68 10.85 65.338 11.768C64.96 12.776 64.456 14 61.81 14H60.712V11.39H60.928C61.558 11.39 62.026 11.174 62.224 10.256C62.368 9.482 62.422 8.636 62.422 4.01H73.24V14H69.73ZM10.998 32.762L8.568 27.308L6.21 32.762H10.998ZM13.338 38L12.24 35.516H5.004L3.924 38H0.198L6.138 24.608H11.106L17.316 38H13.338ZM27.1558 38V30.674H23.1958C23.1958 33.356 23.1058 34.85 22.7638 35.768C22.3858 36.776 21.8818 38 19.2358 38H18.1378V35.39H18.3538C18.9838 35.39 19.4518 35.174 19.6498 34.256C19.7938 33.482 19.8478 32.636 19.8478 28.01H30.6658V38H27.1558ZM39.3872 30.08C37.5692 30.08 36.8852 30.818 36.7052 31.862H41.9972C41.9972 31.124 41.6372 30.08 39.3872 30.08ZM42.0692 34.886H45.7232C45.7232 35.714 45.0752 38.234 39.9092 38.234H39.2432C34.3112 38.234 33.0872 35.534 33.0872 33.14V32.888C33.0872 30.638 34.2032 27.794 38.9372 27.794H39.7292C44.8412 27.794 45.7592 30.638 45.7592 33.428V33.752H36.6692C36.8132 34.904 37.5512 35.84 39.6932 35.84C41.7272 35.84 41.9792 35.048 42.0692 34.886ZM55.5971 38L51.7091 33.374V38H48.1991V28.01H51.7091V32.006L55.2731 28.01H59.3231L55.1471 32.492L59.7731 38H55.5971ZM69.1186 34.076H72.7906C72.7906 35.588 71.8906 38.27 67.0846 38.27H66.2026C61.2166 38.27 60.2806 35.03 60.2806 33.14V32.888C60.2806 30.998 61.1626 27.74 66.1846 27.74H67.0126C71.8366 27.74 72.7906 30.368 72.7906 31.808V31.826H69.1186C69.0646 31.538 68.7226 30.296 66.6526 30.296H66.4726C64.4026 30.296 63.9166 31.718 63.9166 32.924V32.942C63.9166 34.184 64.5106 35.66 66.5446 35.66H66.7246C68.8126 35.66 69.1186 34.31 69.1186 34.076ZM79.8967 36.002C81.9487 36.002 82.6507 34.706 82.6507 33.95V33.176C82.3447 33.302 81.4627 33.482 80.4547 33.644C78.7627 33.932 78.2227 34.166 78.2227 34.868V34.904C78.2227 35.534 78.6727 36.002 79.8967 36.002ZM82.7587 36.614C82.3267 37.136 81.2467 38.198 78.9067 38.198H78.6187C75.8287 38.198 74.6767 36.686 74.6767 35.03V34.958C74.6767 33.23 75.7747 32.168 79.1587 31.88L81.8947 31.646C82.4527 31.592 82.6507 31.412 82.6507 30.998C82.6507 30.53 82.5067 30.026 80.5627 30.026C78.7267 30.026 78.5467 30.746 78.5467 31.124H74.9467V31.088C74.9467 30.098 75.3427 27.776 80.2567 27.776H80.8147C85.7647 27.776 86.0707 29.81 86.0707 31.142V34.436C86.0707 35.066 86.1967 35.318 86.8987 35.318H87.2767V38H84.4327C83.3887 38 82.9027 37.262 82.7587 36.614ZM92.7883 38H89.2783V28.01H92.7883V31.646H97.6843V28.01H101.194V38H97.6843V34.31H92.7883V38ZM103.286 40.124V35.336H104.492C105.176 33.968 105.284 30.998 105.374 28.01H115.94V35.336H117.74V40.124H114.41V38H106.616V40.124H103.286ZM107.804 35.336H112.43V30.674H108.524C108.47 31.97 108.29 33.95 107.804 35.336ZM129.009 33.014V32.96C129.009 31.88 128.505 30.422 126.309 30.422H126.129C124.023 30.422 123.357 31.808 123.357 32.96V33.014C123.357 34.112 124.023 35.552 126.129 35.552H126.309C128.505 35.552 129.009 34.04 129.009 33.014ZM119.865 41.438V28.01H123.339V29.288C123.771 28.82 125.085 27.812 127.353 27.812H127.587C131.403 27.812 132.645 30.422 132.645 32.798V33.104C132.645 35.282 131.367 38.198 127.569 38.198H127.317C125.031 38.198 123.807 37.154 123.375 36.722V41.438H119.865ZM141.351 38.27H140.793C135.411 38.27 134.583 34.994 134.583 33.176V32.924C134.583 31.124 135.411 27.74 140.775 27.74H141.369C146.913 27.74 147.561 31.142 147.561 32.906V33.194C147.561 34.994 146.913 38.27 141.351 38.27ZM140.973 35.642H141.171C143.385 35.642 143.943 34.058 143.943 32.96C143.943 31.826 143.385 30.314 141.171 30.314H140.973C138.669 30.314 138.201 31.826 138.201 32.96C138.201 34.058 138.669 35.642 140.973 35.642ZM158.22 38H149.976V28.01H157.86C160.146 28.01 161.586 28.82 161.586 30.404V30.494C161.586 31.736 160.794 32.474 159.588 32.672C160.812 32.816 161.91 33.68 161.91 35.12V35.192C161.91 37.01 160.722 38 158.22 38ZM153.486 31.988H156.708C157.554 31.988 157.986 31.664 157.986 31.034V30.944C157.986 30.368 157.59 30.026 156.708 30.026H153.486V31.988ZM153.486 35.984H156.852C157.788 35.984 158.31 35.678 158.31 34.976V34.832C158.31 34.202 157.878 33.806 156.852 33.806H153.486V35.984ZM172.778 31.952L167.954 38H164.354V28.01H167.864V34.058L172.688 28.01H176.288V38H172.778V31.952ZM186.624 28.01H190.134V38H186.624V34.562C185.85 34.652 184.95 34.742 184.014 34.742C180.054 34.742 178.56 33.626 178.56 30.458V28.01H182.07V29.81C182.07 31.682 182.7 32.006 184.554 32.006C185.256 32.006 186.066 31.952 186.624 31.88V28.01ZM1.656 62V48.608H5.364V59.048H9.756V48.608H13.464V59.048H17.856V48.608H21.564V62H1.656ZM30.4927 54.08C28.6747 54.08 27.9907 54.818 27.8107 55.862H33.1027C33.1027 55.124 32.7427 54.08 30.4927 54.08ZM33.1747 58.886H36.8287C36.8287 59.714 36.1807 62.234 31.0147 62.234H30.3487C25.4167 62.234 24.1927 59.534 24.1927 57.14V56.888C24.1927 54.638 25.3087 51.794 30.0427 51.794H30.8347C35.9467 51.794 36.8647 54.638 36.8647 57.428V57.752H27.7747C27.9187 58.904 28.6567 59.84 30.7987 59.84C32.8327 59.84 33.0847 59.048 33.1747 58.886ZM47.6205 58.076H51.2925C51.2925 59.588 50.3925 62.27 45.5865 62.27H44.7045C39.7185 62.27 38.7825 59.03 38.7825 57.14V56.888C38.7825 54.998 39.6645 51.74 44.6865 51.74H45.5145C50.3385 51.74 51.2925 54.368 51.2925 55.808V55.826H47.6205C47.5665 55.538 47.2245 54.296 45.1545 54.296H44.9745C42.9045 54.296 42.4185 55.718 42.4185 56.924V56.942C42.4185 58.184 43.0125 59.66 45.0465 59.66H45.2265C47.3145 59.66 47.6205 58.31 47.6205 58.076ZM56.5446 62V54.674H52.6746V52.01H63.9246V54.674H60.0546V62H56.5446ZM70.5451 60.002C72.5971 60.002 73.2991 58.706 73.2991 57.95V57.176C72.9931 57.302 72.1111 57.482 71.1031 57.644C69.4111 57.932 68.8711 58.166 68.8711 58.868V58.904C68.8711 59.534 69.3211 60.002 70.5451 60.002ZM73.4071 60.614C72.9751 61.136 71.8951 62.198 69.5551 62.198H69.2671C66.4771 62.198 65.3251 60.686 65.3251 59.03V58.958C65.3251 57.23 66.4231 56.168 69.8071 55.88L72.5431 55.646C73.1011 55.592 73.2991 55.412 73.2991 54.998C73.2991 54.53 73.1551 54.026 71.2111 54.026C69.3751 54.026 69.1951 54.746 69.1951 55.124H65.5951V55.088C65.5951 54.098 65.9911 51.776 70.9051 51.776H71.4631C76.4131 51.776 76.7191 53.81 76.7191 55.142V58.436C76.7191 59.066 76.8451 59.318 77.5471 59.318H77.9251V62H75.0811C74.0371 62 73.5511 61.262 73.4071 60.614ZM87.3608 62L83.4728 57.374V62H79.9628V52.01H83.4728V56.006L87.0368 52.01H91.0868L86.9108 56.492L91.5368 62H87.3608ZM98.7943 62.27H98.2363C92.8543 62.27 92.0263 58.994 92.0263 57.176V56.924C92.0263 55.124 92.8543 51.74 98.2183 51.74H98.8123C104.356 51.74 105.004 55.142 105.004 56.906V57.194C105.004 58.994 104.356 62.27 98.7943 62.27ZM98.4163 59.642H98.6143C100.828 59.642 101.386 58.058 101.386 56.96C101.386 55.826 100.828 54.314 98.6143 54.314H98.4163C96.1123 54.314 95.6443 55.826 95.6443 56.96C95.6443 58.058 96.1123 59.642 98.4163 59.642ZM115.663 62H107.419V52.01H115.303C117.589 52.01 119.029 52.82 119.029 54.404V54.494C119.029 55.736 118.237 56.474 117.031 56.672C118.255 56.816 119.353 57.68 119.353 59.12V59.192C119.353 61.01 118.165 62 115.663 62ZM110.929 55.988H114.151C114.997 55.988 115.429 55.664 115.429 55.034V54.944C115.429 54.368 115.033 54.026 114.151 54.026H110.929V55.988ZM110.929 59.984H114.295C115.231 59.984 115.753 59.678 115.753 58.976V58.832C115.753 58.202 115.321 57.806 114.295 57.806H110.929V59.984Z" fill="#C1A875" style="mix-blend-mode:color"/>
<defs>
<linearGradient id="paint0_linear_2018_1121" x1="8.27014e-07" y1="30" x2="222" y2="30" gradientUnits="userSpaceOnUse">
<stop stop-color="#576167"/>
<stop offset="0.191294" stop-color="#9EA1A2"/>
<stop offset="0.396166" stop-color="#848989"/>
<stop offset="0.62055" stop-color="#576167"/>
<stop offset="0.830299" stop-color="#757A7C"/>
<stop offset="1" stop-color="#576167"/>
</linearGradient>
<radialGradient id="paint1_radial_2018_1121" cx="0" cy="0" r="1" gradientUnits="userSpaceOnUse" gradientTransform="translate(118.226 2.39326) rotate(90) scale(53.4944 167.95)">
<stop stop-color="white"/>
<stop offset="1" stop-color="white" stop-opacity="0"/>
</radialGradient>
<radialGradient id="paint2_radial_2018_1121" cx="0" cy="0" r="1" gradientUnits="userSpaceOnUse" gradientTransform="translate(130.783 82.9888) rotate(-89.7344) scale(76.6525 240.162)">
<stop stop-color="white"/>
<stop offset="1" stop-color="white" stop-opacity="0"/>
</radialGradient>
</defs>
</svg>
