<svg width="123" height="14" viewBox="0 0 123 14" fill="none" xmlns="http://www.w3.org/2000/svg">
<path d="M10.408 12V7.216H3.768V12H0.472V0.0959997H3.768V4.512H10.408V0.0959997H13.704V12H10.408ZM22.0359 12.24H21.5399C16.7559 12.24 16.0199 9.328 16.0199 7.712V7.488C16.0199 5.888 16.7559 2.88 21.5239 2.88H22.0519C26.9799 2.88 27.5559 5.904 27.5559 7.472V7.728C27.5559 9.328 26.9799 12.24 22.0359 12.24ZM21.6999 9.904H21.8759C23.8439 9.904 24.3399 8.496 24.3399 7.52C24.3399 6.512 23.8439 5.168 21.8759 5.168H21.6999C19.6519 5.168 19.2359 6.512 19.2359 7.52C19.2359 8.496 19.6519 9.904 21.6999 9.904ZM32.5823 6.016V12H29.7023V3.12H34.1023L36.7423 8.784L39.3823 3.12H43.6223V12H40.5023V6.016L37.7343 12H35.3503L32.5823 6.016ZM53.5965 6.624L49.3085 12H46.1085V3.12H49.2285V8.496L53.5165 3.12H56.7165V12H53.5965V6.624ZM62.4316 12H59.3116V3.12H62.4316V6.352H66.7836V3.12H69.9036V12H66.7836V8.72H62.4316V12ZM76.6911 10.224C78.5151 10.224 79.1391 9.072 79.1391 8.4V7.712C78.8671 7.824 78.0831 7.984 77.1871 8.128C75.6831 8.384 75.2031 8.592 75.2031 9.216V9.248C75.2031 9.808 75.6031 10.224 76.6911 10.224ZM79.2351 10.768C78.8511 11.232 77.8911 12.176 75.8111 12.176H75.5551C73.0751 12.176 72.0511 10.832 72.0511 9.36V9.296C72.0511 7.76 73.0271 6.816 76.0351 6.56L78.4671 6.352C78.9631 6.304 79.1391 6.144 79.1391 5.776C79.1391 5.36 79.0111 4.912 77.2831 4.912C75.6511 4.912 75.4911 5.552 75.4911 5.888H72.2911V5.856C72.2911 4.976 72.6431 2.912 77.0111 2.912H77.5071C81.9071 2.912 82.1791 4.72 82.1791 5.904V8.832C82.1791 9.392 82.2911 9.616 82.9151 9.616H83.2511V12H80.7231C79.7951 12 79.3631 11.344 79.2351 10.768ZM96.9024 9.632V13.888H93.9424V12H85.0304V3.12H88.1504V9.632H92.1824V3.12H95.3024V9.632H96.9024ZM106.253 6.624L101.965 12H98.7648V3.12H101.885V8.496L106.173 3.12H109.373V12H106.253V6.624ZM119.44 9.024H117.344L114.752 12H111.232L114.128 8.688C112.592 8.384 111.712 7.504 111.712 6.16V5.968C111.712 4.352 113.024 3.12 115.248 3.12H122.56V12H119.44V9.024ZM119.44 5.168H116.096C115.408 5.168 114.832 5.328 114.832 6.032V6.096C114.832 6.784 115.424 6.992 116.112 6.992H119.44V5.168Z" fill="url(#paint0_linear_41_43)"/>
<path d="M10.408 12V7.216H3.768V12H0.472V0.0959997H3.768V4.512H10.408V0.0959997H13.704V12H10.408ZM22.0359 12.24H21.5399C16.7559 12.24 16.0199 9.328 16.0199 7.712V7.488C16.0199 5.888 16.7559 2.88 21.5239 2.88H22.0519C26.9799 2.88 27.5559 5.904 27.5559 7.472V7.728C27.5559 9.328 26.9799 12.24 22.0359 12.24ZM21.6999 9.904H21.8759C23.8439 9.904 24.3399 8.496 24.3399 7.52C24.3399 6.512 23.8439 5.168 21.8759 5.168H21.6999C19.6519 5.168 19.2359 6.512 19.2359 7.52C19.2359 8.496 19.6519 9.904 21.6999 9.904ZM32.5823 6.016V12H29.7023V3.12H34.1023L36.7423 8.784L39.3823 3.12H43.6223V12H40.5023V6.016L37.7343 12H35.3503L32.5823 6.016ZM53.5965 6.624L49.3085 12H46.1085V3.12H49.2285V8.496L53.5165 3.12H56.7165V12H53.5965V6.624ZM62.4316 12H59.3116V3.12H62.4316V6.352H66.7836V3.12H69.9036V12H66.7836V8.72H62.4316V12ZM76.6911 10.224C78.5151 10.224 79.1391 9.072 79.1391 8.4V7.712C78.8671 7.824 78.0831 7.984 77.1871 8.128C75.6831 8.384 75.2031 8.592 75.2031 9.216V9.248C75.2031 9.808 75.6031 10.224 76.6911 10.224ZM79.2351 10.768C78.8511 11.232 77.8911 12.176 75.8111 12.176H75.5551C73.0751 12.176 72.0511 10.832 72.0511 9.36V9.296C72.0511 7.76 73.0271 6.816 76.0351 6.56L78.4671 6.352C78.9631 6.304 79.1391 6.144 79.1391 5.776C79.1391 5.36 79.0111 4.912 77.2831 4.912C75.6511 4.912 75.4911 5.552 75.4911 5.888H72.2911V5.856C72.2911 4.976 72.6431 2.912 77.0111 2.912H77.5071C81.9071 2.912 82.1791 4.72 82.1791 5.904V8.832C82.1791 9.392 82.2911 9.616 82.9151 9.616H83.2511V12H80.7231C79.7951 12 79.3631 11.344 79.2351 10.768ZM96.9024 9.632V13.888H93.9424V12H85.0304V3.12H88.1504V9.632H92.1824V3.12H95.3024V9.632H96.9024ZM106.253 6.624L101.965 12H98.7648V3.12H101.885V8.496L106.173 3.12H109.373V12H106.253V6.624ZM119.44 9.024H117.344L114.752 12H111.232L114.128 8.688C112.592 8.384 111.712 7.504 111.712 6.16V5.968C111.712 4.352 113.024 3.12 115.248 3.12H122.56V12H119.44V9.024ZM119.44 5.168H116.096C115.408 5.168 114.832 5.328 114.832 6.032V6.096C114.832 6.784 115.424 6.992 116.112 6.992H119.44V5.168Z" fill="url(#paint1_radial_41_43)" style="mix-blend-mode:overlay"/>
<path d="M10.408 12V7.216H3.768V12H0.472V0.0959997H3.768V4.512H10.408V0.0959997H13.704V12H10.408ZM22.0359 12.24H21.5399C16.7559 12.24 16.0199 9.328 16.0199 7.712V7.488C16.0199 5.888 16.7559 2.88 21.5239 2.88H22.0519C26.9799 2.88 27.5559 5.904 27.5559 7.472V7.728C27.5559 9.328 26.9799 12.24 22.0359 12.24ZM21.6999 9.904H21.8759C23.8439 9.904 24.3399 8.496 24.3399 7.52C24.3399 6.512 23.8439 5.168 21.8759 5.168H21.6999C19.6519 5.168 19.2359 6.512 19.2359 7.52C19.2359 8.496 19.6519 9.904 21.6999 9.904ZM32.5823 6.016V12H29.7023V3.12H34.1023L36.7423 8.784L39.3823 3.12H43.6223V12H40.5023V6.016L37.7343 12H35.3503L32.5823 6.016ZM53.5965 6.624L49.3085 12H46.1085V3.12H49.2285V8.496L53.5165 3.12H56.7165V12H53.5965V6.624ZM62.4316 12H59.3116V3.12H62.4316V6.352H66.7836V3.12H69.9036V12H66.7836V8.72H62.4316V12ZM76.6911 10.224C78.5151 10.224 79.1391 9.072 79.1391 8.4V7.712C78.8671 7.824 78.0831 7.984 77.1871 8.128C75.6831 8.384 75.2031 8.592 75.2031 9.216V9.248C75.2031 9.808 75.6031 10.224 76.6911 10.224ZM79.2351 10.768C78.8511 11.232 77.8911 12.176 75.8111 12.176H75.5551C73.0751 12.176 72.0511 10.832 72.0511 9.36V9.296C72.0511 7.76 73.0271 6.816 76.0351 6.56L78.4671 6.352C78.9631 6.304 79.1391 6.144 79.1391 5.776C79.1391 5.36 79.0111 4.912 77.2831 4.912C75.6511 4.912 75.4911 5.552 75.4911 5.888H72.2911V5.856C72.2911 4.976 72.6431 2.912 77.0111 2.912H77.5071C81.9071 2.912 82.1791 4.72 82.1791 5.904V8.832C82.1791 9.392 82.2911 9.616 82.9151 9.616H83.2511V12H80.7231C79.7951 12 79.3631 11.344 79.2351 10.768ZM96.9024 9.632V13.888H93.9424V12H85.0304V3.12H88.1504V9.632H92.1824V3.12H95.3024V9.632H96.9024ZM106.253 6.624L101.965 12H98.7648V3.12H101.885V8.496L106.173 3.12H109.373V12H106.253V6.624ZM119.44 9.024H117.344L114.752 12H111.232L114.128 8.688C112.592 8.384 111.712 7.504 111.712 6.16V5.968C111.712 4.352 113.024 3.12 115.248 3.12H122.56V12H119.44V9.024ZM119.44 5.168H116.096C115.408 5.168 114.832 5.328 114.832 6.032V6.096C114.832 6.784 115.424 6.992 116.112 6.992H119.44V5.168Z" fill="url(#paint2_radial_41_43)"/>
<path d="M10.408 12V7.216H3.768V12H0.472V0.0959997H3.768V4.512H10.408V0.0959997H13.704V12H10.408ZM22.0359 12.24H21.5399C16.7559 12.24 16.0199 9.328 16.0199 7.712V7.488C16.0199 5.888 16.7559 2.88 21.5239 2.88H22.0519C26.9799 2.88 27.5559 5.904 27.5559 7.472V7.728C27.5559 9.328 26.9799 12.24 22.0359 12.24ZM21.6999 9.904H21.8759C23.8439 9.904 24.3399 8.496 24.3399 7.52C24.3399 6.512 23.8439 5.168 21.8759 5.168H21.6999C19.6519 5.168 19.2359 6.512 19.2359 7.52C19.2359 8.496 19.6519 9.904 21.6999 9.904ZM32.5823 6.016V12H29.7023V3.12H34.1023L36.7423 8.784L39.3823 3.12H43.6223V12H40.5023V6.016L37.7343 12H35.3503L32.5823 6.016ZM53.5965 6.624L49.3085 12H46.1085V3.12H49.2285V8.496L53.5165 3.12H56.7165V12H53.5965V6.624ZM62.4316 12H59.3116V3.12H62.4316V6.352H66.7836V3.12H69.9036V12H66.7836V8.72H62.4316V12ZM76.6911 10.224C78.5151 10.224 79.1391 9.072 79.1391 8.4V7.712C78.8671 7.824 78.0831 7.984 77.1871 8.128C75.6831 8.384 75.2031 8.592 75.2031 9.216V9.248C75.2031 9.808 75.6031 10.224 76.6911 10.224ZM79.2351 10.768C78.8511 11.232 77.8911 12.176 75.8111 12.176H75.5551C73.0751 12.176 72.0511 10.832 72.0511 9.36V9.296C72.0511 7.76 73.0271 6.816 76.0351 6.56L78.4671 6.352C78.9631 6.304 79.1391 6.144 79.1391 5.776C79.1391 5.36 79.0111 4.912 77.2831 4.912C75.6511 4.912 75.4911 5.552 75.4911 5.888H72.2911V5.856C72.2911 4.976 72.6431 2.912 77.0111 2.912H77.5071C81.9071 2.912 82.1791 4.72 82.1791 5.904V8.832C82.1791 9.392 82.2911 9.616 82.9151 9.616H83.2511V12H80.7231C79.7951 12 79.3631 11.344 79.2351 10.768ZM96.9024 9.632V13.888H93.9424V12H85.0304V3.12H88.1504V9.632H92.1824V3.12H95.3024V9.632H96.9024ZM106.253 6.624L101.965 12H98.7648V3.12H101.885V8.496L106.173 3.12H109.373V12H106.253V6.624ZM119.44 9.024H117.344L114.752 12H111.232L114.128 8.688C112.592 8.384 111.712 7.504 111.712 6.16V5.968C111.712 4.352 113.024 3.12 115.248 3.12H122.56V12H119.44V9.024ZM119.44 5.168H116.096C115.408 5.168 114.832 5.328 114.832 6.032V6.096C114.832 6.784 115.424 6.992 116.112 6.992H119.44V5.168Z" fill="#C1A875" style="mix-blend-mode:color"/>
<defs>
<linearGradient id="paint0_linear_41_43" x1="-1" y1="5" x2="124" y2="5.00001" gradientUnits="userSpaceOnUse">
<stop stop-color="#576167"/>
<stop offset="0.191294" stop-color="#9EA1A2"/>
<stop offset="0.396166" stop-color="#848989"/>
<stop offset="0.62055" stop-color="#576167"/>
<stop offset="0.830299" stop-color="#757A7C"/>
<stop offset="1" stop-color="#576167"/>
</linearGradient>
<radialGradient id="paint1_radial_41_43" cx="0" cy="0" r="1" gradientUnits="userSpaceOnUse" gradientTransform="translate(65.5688 -3.43539) rotate(90) scale(16.3455 94.5665)">
<stop stop-color="white"/>
<stop offset="1" stop-color="white" stop-opacity="0"/>
</radialGradient>
<radialGradient id="paint2_radial_41_43" cx="0" cy="0" r="1" gradientUnits="userSpaceOnUse" gradientTransform="translate(72.6393 21.191) rotate(-89.5105) scale(23.4222 135.223)">
<stop stop-color="white"/>
<stop offset="1" stop-color="white" stop-opacity="0"/>
</radialGradient>
</defs>
</svg>
