<svg width="93" height="12" viewBox="0 0 93 12" fill="none" xmlns="http://www.w3.org/2000/svg">
<path d="M8.184 11L3.172 6.1V11H0.288V0.584H3.172V4.868L8.044 0.584H11.712L6.224 5.358L11.95 11H8.184ZM17.297 11.21H16.863C12.677 11.21 12.033 8.662 12.033 7.248V7.052C12.033 5.652 12.677 3.02 16.849 3.02H17.311C21.623 3.02 22.127 5.666 22.127 7.038V7.262C22.127 8.662 21.623 11.21 17.297 11.21ZM17.003 9.166H17.157C18.879 9.166 19.313 7.934 19.313 7.08C19.313 6.198 18.879 5.022 17.157 5.022H17.003C15.211 5.022 14.847 6.198 14.847 7.08C14.847 7.934 15.211 9.166 17.003 9.166ZM26.5251 5.764V11H24.0051V3.23H27.8551L30.1651 8.186L32.4751 3.23H36.1851V11H33.4551V5.764L31.0331 11H28.9471L26.5251 5.764ZM38.3606 11V3.23H47.3486V11H44.6186V5.302H41.0906V11H38.3606ZM53.2805 9.446C54.8765 9.446 55.4225 8.438 55.4225 7.85V7.248C55.1845 7.346 54.4985 7.486 53.7145 7.612C52.3985 7.836 51.9785 8.018 51.9785 8.564V8.592C51.9785 9.082 52.3285 9.446 53.2805 9.446ZM55.5065 9.922C55.1705 10.328 54.3305 11.154 52.5105 11.154H52.2865C50.1165 11.154 49.2205 9.978 49.2205 8.69V8.634C49.2205 7.29 50.0745 6.464 52.7065 6.24L54.8345 6.058C55.2685 6.016 55.4225 5.876 55.4225 5.554C55.4225 5.19 55.3105 4.798 53.7985 4.798C52.3705 4.798 52.2305 5.358 52.2305 5.652H49.4305V5.624C49.4305 4.854 49.7385 3.048 53.5605 3.048H53.9945C57.8445 3.048 58.0825 4.63 58.0825 5.666V8.228C58.0825 8.718 58.1805 8.914 58.7265 8.914H59.0205V11H56.8085C55.9965 11 55.6185 10.426 55.5065 9.922ZM63.3074 11H60.5774V3.23H63.3074V6.058H67.1154V3.23H69.8454V11H67.1154V8.13H63.3074V11ZM78.6684 6.296L74.9164 11H72.1164V3.23H74.8464V7.934L78.5984 3.23H81.3984V11H78.6684V6.296ZM90.2072 8.396H88.3732L86.1052 11H83.0252L85.5592 8.102C84.2152 7.836 83.4452 7.066 83.4452 5.89V5.722C83.4452 4.308 84.5932 3.23 86.5392 3.23H92.9372V11H90.2072V8.396ZM90.2072 5.022H87.2812C86.6792 5.022 86.1752 5.162 86.1752 5.778V5.834C86.1752 6.436 86.6932 6.618 87.2952 6.618H90.2072V5.022Z" fill="url(#paint0_linear_41_292)"/>
<path d="M8.184 11L3.172 6.1V11H0.288V0.584H3.172V4.868L8.044 0.584H11.712L6.224 5.358L11.95 11H8.184ZM17.297 11.21H16.863C12.677 11.21 12.033 8.662 12.033 7.248V7.052C12.033 5.652 12.677 3.02 16.849 3.02H17.311C21.623 3.02 22.127 5.666 22.127 7.038V7.262C22.127 8.662 21.623 11.21 17.297 11.21ZM17.003 9.166H17.157C18.879 9.166 19.313 7.934 19.313 7.08C19.313 6.198 18.879 5.022 17.157 5.022H17.003C15.211 5.022 14.847 6.198 14.847 7.08C14.847 7.934 15.211 9.166 17.003 9.166ZM26.5251 5.764V11H24.0051V3.23H27.8551L30.1651 8.186L32.4751 3.23H36.1851V11H33.4551V5.764L31.0331 11H28.9471L26.5251 5.764ZM38.3606 11V3.23H47.3486V11H44.6186V5.302H41.0906V11H38.3606ZM53.2805 9.446C54.8765 9.446 55.4225 8.438 55.4225 7.85V7.248C55.1845 7.346 54.4985 7.486 53.7145 7.612C52.3985 7.836 51.9785 8.018 51.9785 8.564V8.592C51.9785 9.082 52.3285 9.446 53.2805 9.446ZM55.5065 9.922C55.1705 10.328 54.3305 11.154 52.5105 11.154H52.2865C50.1165 11.154 49.2205 9.978 49.2205 8.69V8.634C49.2205 7.29 50.0745 6.464 52.7065 6.24L54.8345 6.058C55.2685 6.016 55.4225 5.876 55.4225 5.554C55.4225 5.19 55.3105 4.798 53.7985 4.798C52.3705 4.798 52.2305 5.358 52.2305 5.652H49.4305V5.624C49.4305 4.854 49.7385 3.048 53.5605 3.048H53.9945C57.8445 3.048 58.0825 4.63 58.0825 5.666V8.228C58.0825 8.718 58.1805 8.914 58.7265 8.914H59.0205V11H56.8085C55.9965 11 55.6185 10.426 55.5065 9.922ZM63.3074 11H60.5774V3.23H63.3074V6.058H67.1154V3.23H69.8454V11H67.1154V8.13H63.3074V11ZM78.6684 6.296L74.9164 11H72.1164V3.23H74.8464V7.934L78.5984 3.23H81.3984V11H78.6684V6.296ZM90.2072 8.396H88.3732L86.1052 11H83.0252L85.5592 8.102C84.2152 7.836 83.4452 7.066 83.4452 5.89V5.722C83.4452 4.308 84.5932 3.23 86.5392 3.23H92.9372V11H90.2072V8.396ZM90.2072 5.022H87.2812C86.6792 5.022 86.1752 5.162 86.1752 5.778V5.834C86.1752 6.436 86.6932 6.618 87.2952 6.618H90.2072V5.022Z" fill="url(#paint1_radial_41_292)" style="mix-blend-mode:overlay"/>
<path d="M8.184 11L3.172 6.1V11H0.288V0.584H3.172V4.868L8.044 0.584H11.712L6.224 5.358L11.95 11H8.184ZM17.297 11.21H16.863C12.677 11.21 12.033 8.662 12.033 7.248V7.052C12.033 5.652 12.677 3.02 16.849 3.02H17.311C21.623 3.02 22.127 5.666 22.127 7.038V7.262C22.127 8.662 21.623 11.21 17.297 11.21ZM17.003 9.166H17.157C18.879 9.166 19.313 7.934 19.313 7.08C19.313 6.198 18.879 5.022 17.157 5.022H17.003C15.211 5.022 14.847 6.198 14.847 7.08C14.847 7.934 15.211 9.166 17.003 9.166ZM26.5251 5.764V11H24.0051V3.23H27.8551L30.1651 8.186L32.4751 3.23H36.1851V11H33.4551V5.764L31.0331 11H28.9471L26.5251 5.764ZM38.3606 11V3.23H47.3486V11H44.6186V5.302H41.0906V11H38.3606ZM53.2805 9.446C54.8765 9.446 55.4225 8.438 55.4225 7.85V7.248C55.1845 7.346 54.4985 7.486 53.7145 7.612C52.3985 7.836 51.9785 8.018 51.9785 8.564V8.592C51.9785 9.082 52.3285 9.446 53.2805 9.446ZM55.5065 9.922C55.1705 10.328 54.3305 11.154 52.5105 11.154H52.2865C50.1165 11.154 49.2205 9.978 49.2205 8.69V8.634C49.2205 7.29 50.0745 6.464 52.7065 6.24L54.8345 6.058C55.2685 6.016 55.4225 5.876 55.4225 5.554C55.4225 5.19 55.3105 4.798 53.7985 4.798C52.3705 4.798 52.2305 5.358 52.2305 5.652H49.4305V5.624C49.4305 4.854 49.7385 3.048 53.5605 3.048H53.9945C57.8445 3.048 58.0825 4.63 58.0825 5.666V8.228C58.0825 8.718 58.1805 8.914 58.7265 8.914H59.0205V11H56.8085C55.9965 11 55.6185 10.426 55.5065 9.922ZM63.3074 11H60.5774V3.23H63.3074V6.058H67.1154V3.23H69.8454V11H67.1154V8.13H63.3074V11ZM78.6684 6.296L74.9164 11H72.1164V3.23H74.8464V7.934L78.5984 3.23H81.3984V11H78.6684V6.296ZM90.2072 8.396H88.3732L86.1052 11H83.0252L85.5592 8.102C84.2152 7.836 83.4452 7.066 83.4452 5.89V5.722C83.4452 4.308 84.5932 3.23 86.5392 3.23H92.9372V11H90.2072V8.396ZM90.2072 5.022H87.2812C86.6792 5.022 86.1752 5.162 86.1752 5.778V5.834C86.1752 6.436 86.6932 6.618 87.2952 6.618H90.2072V5.022Z" fill="url(#paint2_radial_41_292)"/>
<path d="M8.184 11L3.172 6.1V11H0.288V0.584H3.172V4.868L8.044 0.584H11.712L6.224 5.358L11.95 11H8.184ZM17.297 11.21H16.863C12.677 11.21 12.033 8.662 12.033 7.248V7.052C12.033 5.652 12.677 3.02 16.849 3.02H17.311C21.623 3.02 22.127 5.666 22.127 7.038V7.262C22.127 8.662 21.623 11.21 17.297 11.21ZM17.003 9.166H17.157C18.879 9.166 19.313 7.934 19.313 7.08C19.313 6.198 18.879 5.022 17.157 5.022H17.003C15.211 5.022 14.847 6.198 14.847 7.08C14.847 7.934 15.211 9.166 17.003 9.166ZM26.5251 5.764V11H24.0051V3.23H27.8551L30.1651 8.186L32.4751 3.23H36.1851V11H33.4551V5.764L31.0331 11H28.9471L26.5251 5.764ZM38.3606 11V3.23H47.3486V11H44.6186V5.302H41.0906V11H38.3606ZM53.2805 9.446C54.8765 9.446 55.4225 8.438 55.4225 7.85V7.248C55.1845 7.346 54.4985 7.486 53.7145 7.612C52.3985 7.836 51.9785 8.018 51.9785 8.564V8.592C51.9785 9.082 52.3285 9.446 53.2805 9.446ZM55.5065 9.922C55.1705 10.328 54.3305 11.154 52.5105 11.154H52.2865C50.1165 11.154 49.2205 9.978 49.2205 8.69V8.634C49.2205 7.29 50.0745 6.464 52.7065 6.24L54.8345 6.058C55.2685 6.016 55.4225 5.876 55.4225 5.554C55.4225 5.19 55.3105 4.798 53.7985 4.798C52.3705 4.798 52.2305 5.358 52.2305 5.652H49.4305V5.624C49.4305 4.854 49.7385 3.048 53.5605 3.048H53.9945C57.8445 3.048 58.0825 4.63 58.0825 5.666V8.228C58.0825 8.718 58.1805 8.914 58.7265 8.914H59.0205V11H56.8085C55.9965 11 55.6185 10.426 55.5065 9.922ZM63.3074 11H60.5774V3.23H63.3074V6.058H67.1154V3.23H69.8454V11H67.1154V8.13H63.3074V11ZM78.6684 6.296L74.9164 11H72.1164V3.23H74.8464V7.934L78.5984 3.23H81.3984V11H78.6684V6.296ZM90.2072 8.396H88.3732L86.1052 11H83.0252L85.5592 8.102C84.2152 7.836 83.4452 7.066 83.4452 5.89V5.722C83.4452 4.308 84.5932 3.23 86.5392 3.23H92.9372V11H90.2072V8.396ZM90.2072 5.022H87.2812C86.6792 5.022 86.1752 5.162 86.1752 5.778V5.834C86.1752 6.436 86.6932 6.618 87.2952 6.618H90.2072V5.022Z" fill="#C1A875" style="mix-blend-mode:color"/>
<defs>
<linearGradient id="paint0_linear_41_292" x1="-1" y1="5.5" x2="95" y2="5.5" gradientUnits="userSpaceOnUse">
<stop stop-color="#576167"/>
<stop offset="0.191294" stop-color="#9EA1A2"/>
<stop offset="0.396166" stop-color="#848989"/>
<stop offset="0.62055" stop-color="#576167"/>
<stop offset="0.830299" stop-color="#757A7C"/>
<stop offset="1" stop-color="#576167"/>
</linearGradient>
<radialGradient id="paint1_radial_41_292" cx="0" cy="0" r="1" gradientUnits="userSpaceOnUse" gradientTransform="translate(50.1249 -1.78511) rotate(90) scale(14.1166 72.6271)">
<stop stop-color="white"/>
<stop offset="1" stop-color="white" stop-opacity="0"/>
</radialGradient>
<radialGradient id="paint2_radial_41_292" cx="0" cy="0" r="1" gradientUnits="userSpaceOnUse" gradientTransform="translate(55.555 19.4831) rotate(-89.5647) scale(20.2281 103.852)">
<stop stop-color="white"/>
<stop offset="1" stop-color="white" stop-opacity="0"/>
</radialGradient>
</defs>
</svg>
