<svg width="293" height="19" viewBox="0 0 293 19" fill="none" xmlns="http://www.w3.org/2000/svg">
<path d="M0.3 11.72H1.8C2.82 9.86 3.46 7.08 3.46 0.12H17.66V11.72H20.06V17.5H16.14V15H4.22V17.5H0.3V11.72ZM5.98 11.72H13.54V3.4H7.38C7.38 7.46 6.68 10.3 5.98 11.72ZM27.4264 12.78C29.7064 12.78 30.4864 11.34 30.4864 10.5V9.64C30.1464 9.78 29.1664 9.98 28.0464 10.16C26.1664 10.48 25.5664 10.74 25.5664 11.52V11.56C25.5664 12.26 26.0664 12.78 27.4264 12.78ZM30.6064 13.46C30.1264 14.04 28.9264 15.22 26.3264 15.22H26.0064C22.9064 15.22 21.6264 13.54 21.6264 11.7V11.62C21.6264 9.7 22.8464 8.52 26.6064 8.2L29.6464 7.94C30.2664 7.88 30.4864 7.68 30.4864 7.22C30.4864 6.7 30.3264 6.14 28.1664 6.14C26.1264 6.14 25.9264 6.94 25.9264 7.36H21.9264V7.32C21.9264 6.22 22.3664 3.64 27.8264 3.64H28.4464C33.9464 3.64 34.2864 5.9 34.2864 7.38V11.04C34.2864 11.74 34.4264 12.02 35.2064 12.02H35.6264V15H32.4664C31.3064 15 30.7664 14.18 30.6064 13.46ZM41.7505 15H37.8505V3.9H41.7505V7.94H47.1905V3.9H51.0905V15H47.1905V10.9H41.7505V15ZM58.2348 15H54.3348V3.9H58.2348V7.94H63.6748V3.9H67.5748V15H63.6748V10.9H58.2348V15ZM70.8192 15V3.9H74.7192V7.08H77.7592C81.5592 7.08 83.0392 8.76 83.0392 10.88V11.12C83.0392 13.44 81.5592 15 77.7592 15H70.8192ZM74.7192 12.36H77.2792C78.0792 12.36 79.0392 12.12 79.0392 11.04V10.98C79.0392 9.98 78.0792 9.72 77.2792 9.72H74.7192V12.36ZM88.3592 3.9V15H84.4592V3.9H88.3592ZM98.0605 6.2C96.0405 6.2 95.2805 7.02 95.0805 8.18H100.96C100.96 7.36 100.56 6.2 98.0605 6.2ZM101.04 11.54H105.1C105.1 12.46 104.38 15.26 98.6405 15.26H97.9005C92.4205 15.26 91.0605 12.26 91.0605 9.6V9.32C91.0605 6.82 92.3005 3.66 97.5605 3.66H98.4405C104.12 3.66 105.14 6.82 105.14 9.92V10.28H95.0405C95.2005 11.56 96.0205 12.6 98.4005 12.6C100.66 12.6 100.94 11.72 101.04 11.54ZM112.673 17.36V12.04H114.013C114.773 10.52 114.893 7.22 114.993 3.9H126.733V12.04H128.733V17.36H125.033V15H116.373V17.36H112.673ZM117.693 12.04H122.833V6.86H118.493C118.433 8.3 118.233 10.5 117.693 12.04ZM140.154 15V6.86H135.754C135.754 9.84 135.654 11.5 135.274 12.52C134.854 13.64 134.294 15 131.354 15H130.134V12.1H130.374C131.074 12.1 131.594 11.86 131.814 10.84C131.974 9.98 132.034 9.04 132.034 3.9H144.054V15H140.154ZM156.624 11.28H154.004L150.764 15H146.364L149.984 10.86C148.064 10.48 146.964 9.38 146.964 7.7V7.46C146.964 5.44 148.604 3.9 151.384 3.9H160.524V15H156.624V11.28ZM156.624 6.46H152.444C151.584 6.46 150.864 6.66 150.864 7.54V7.62C150.864 8.48 151.604 8.74 152.464 8.74H156.624V6.46ZM177.81 15L173.49 9.86V15H169.59V3.9H173.49V8.34L177.45 3.9H181.95L177.31 8.88L182.45 15H177.81ZM190.514 15.3H189.894C183.914 15.3 182.994 11.66 182.994 9.64V9.36C182.994 7.36 183.914 3.6 189.874 3.6H190.534C196.694 3.6 197.414 7.38 197.414 9.34V9.66C197.414 11.66 196.694 15.3 190.514 15.3ZM190.094 12.38H190.314C192.774 12.38 193.394 10.62 193.394 9.4C193.394 8.14 192.774 6.46 190.314 6.46H190.094C187.534 6.46 187.014 8.14 187.014 9.4C187.014 10.62 187.534 12.38 190.094 12.38ZM203.997 15H200.097V3.9H203.997V7.94H209.437V3.9H213.337V15H209.437V10.9H203.997V15ZM224.841 15L220.521 9.86V15H216.621V3.9H220.521V8.34L224.481 3.9H228.981L224.341 8.88L229.481 15H224.841ZM231.64 18.82V16.04H234.08C234.46 16.04 234.66 15.88 234.66 15.58V15.56C234.66 15.32 234.6 15.1 234.3 14.48L229.54 3.9H233.82L236.9 11.86L239.96 3.9H243.88L238.8 16.12C238.02 17.94 237.06 18.82 235.22 18.82H231.64ZM256.058 9.46V9.4C256.058 8.2 255.498 6.58 253.058 6.58H252.858C250.518 6.58 249.778 8.12 249.778 9.4V9.46C249.778 10.68 250.518 12.28 252.858 12.28H253.058C255.498 12.28 256.058 10.6 256.058 9.46ZM245.898 18.82V3.9H249.758V5.32C250.238 4.8 251.698 3.68 254.218 3.68H254.478C258.718 3.68 260.098 6.58 260.098 9.22V9.56C260.098 11.98 258.678 15.22 254.458 15.22H254.178C251.638 15.22 250.278 14.06 249.798 13.58V18.82H245.898ZM272.091 10.64H276.171C276.171 12.32 275.171 15.3 269.831 15.3H268.851C263.311 15.3 262.271 11.7 262.271 9.6V9.32C262.271 7.22 263.251 3.6 268.831 3.6H269.751C275.111 3.6 276.171 6.52 276.171 8.12V8.14H272.091C272.031 7.82 271.651 6.44 269.351 6.44H269.151C266.851 6.44 266.311 8.02 266.311 9.36V9.38C266.311 10.76 266.971 12.4 269.231 12.4H269.431C271.751 12.4 272.091 10.9 272.091 10.64ZM284.067 12.78C286.347 12.78 287.127 11.34 287.127 10.5V9.64C286.787 9.78 285.807 9.98 284.687 10.16C282.807 10.48 282.207 10.74 282.207 11.52V11.56C282.207 12.26 282.707 12.78 284.067 12.78ZM287.247 13.46C286.767 14.04 285.567 15.22 282.967 15.22H282.647C279.547 15.22 278.267 13.54 278.267 11.7V11.62C278.267 9.7 279.487 8.52 283.247 8.2L286.287 7.94C286.907 7.88 287.127 7.68 287.127 7.22C287.127 6.7 286.967 6.14 284.807 6.14C282.767 6.14 282.567 6.94 282.567 7.36H278.567V7.32C278.567 6.22 279.007 3.64 284.467 3.64H285.087C290.587 3.64 290.927 5.9 290.927 7.38V11.04C290.927 11.74 291.067 12.02 291.847 12.02H292.267V15H289.107C287.947 15 287.407 14.18 287.247 13.46Z" fill="url(#paint0_linear_41_300)"/>
<path d="M0.3 11.72H1.8C2.82 9.86 3.46 7.08 3.46 0.12H17.66V11.72H20.06V17.5H16.14V15H4.22V17.5H0.3V11.72ZM5.98 11.72H13.54V3.4H7.38C7.38 7.46 6.68 10.3 5.98 11.72ZM27.4264 12.78C29.7064 12.78 30.4864 11.34 30.4864 10.5V9.64C30.1464 9.78 29.1664 9.98 28.0464 10.16C26.1664 10.48 25.5664 10.74 25.5664 11.52V11.56C25.5664 12.26 26.0664 12.78 27.4264 12.78ZM30.6064 13.46C30.1264 14.04 28.9264 15.22 26.3264 15.22H26.0064C22.9064 15.22 21.6264 13.54 21.6264 11.7V11.62C21.6264 9.7 22.8464 8.52 26.6064 8.2L29.6464 7.94C30.2664 7.88 30.4864 7.68 30.4864 7.22C30.4864 6.7 30.3264 6.14 28.1664 6.14C26.1264 6.14 25.9264 6.94 25.9264 7.36H21.9264V7.32C21.9264 6.22 22.3664 3.64 27.8264 3.64H28.4464C33.9464 3.64 34.2864 5.9 34.2864 7.38V11.04C34.2864 11.74 34.4264 12.02 35.2064 12.02H35.6264V15H32.4664C31.3064 15 30.7664 14.18 30.6064 13.46ZM41.7505 15H37.8505V3.9H41.7505V7.94H47.1905V3.9H51.0905V15H47.1905V10.9H41.7505V15ZM58.2348 15H54.3348V3.9H58.2348V7.94H63.6748V3.9H67.5748V15H63.6748V10.9H58.2348V15ZM70.8192 15V3.9H74.7192V7.08H77.7592C81.5592 7.08 83.0392 8.76 83.0392 10.88V11.12C83.0392 13.44 81.5592 15 77.7592 15H70.8192ZM74.7192 12.36H77.2792C78.0792 12.36 79.0392 12.12 79.0392 11.04V10.98C79.0392 9.98 78.0792 9.72 77.2792 9.72H74.7192V12.36ZM88.3592 3.9V15H84.4592V3.9H88.3592ZM98.0605 6.2C96.0405 6.2 95.2805 7.02 95.0805 8.18H100.96C100.96 7.36 100.56 6.2 98.0605 6.2ZM101.04 11.54H105.1C105.1 12.46 104.38 15.26 98.6405 15.26H97.9005C92.4205 15.26 91.0605 12.26 91.0605 9.6V9.32C91.0605 6.82 92.3005 3.66 97.5605 3.66H98.4405C104.12 3.66 105.14 6.82 105.14 9.92V10.28H95.0405C95.2005 11.56 96.0205 12.6 98.4005 12.6C100.66 12.6 100.94 11.72 101.04 11.54ZM112.673 17.36V12.04H114.013C114.773 10.52 114.893 7.22 114.993 3.9H126.733V12.04H128.733V17.36H125.033V15H116.373V17.36H112.673ZM117.693 12.04H122.833V6.86H118.493C118.433 8.3 118.233 10.5 117.693 12.04ZM140.154 15V6.86H135.754C135.754 9.84 135.654 11.5 135.274 12.52C134.854 13.64 134.294 15 131.354 15H130.134V12.1H130.374C131.074 12.1 131.594 11.86 131.814 10.84C131.974 9.98 132.034 9.04 132.034 3.9H144.054V15H140.154ZM156.624 11.28H154.004L150.764 15H146.364L149.984 10.86C148.064 10.48 146.964 9.38 146.964 7.7V7.46C146.964 5.44 148.604 3.9 151.384 3.9H160.524V15H156.624V11.28ZM156.624 6.46H152.444C151.584 6.46 150.864 6.66 150.864 7.54V7.62C150.864 8.48 151.604 8.74 152.464 8.74H156.624V6.46ZM177.81 15L173.49 9.86V15H169.59V3.9H173.49V8.34L177.45 3.9H181.95L177.31 8.88L182.45 15H177.81ZM190.514 15.3H189.894C183.914 15.3 182.994 11.66 182.994 9.64V9.36C182.994 7.36 183.914 3.6 189.874 3.6H190.534C196.694 3.6 197.414 7.38 197.414 9.34V9.66C197.414 11.66 196.694 15.3 190.514 15.3ZM190.094 12.38H190.314C192.774 12.38 193.394 10.62 193.394 9.4C193.394 8.14 192.774 6.46 190.314 6.46H190.094C187.534 6.46 187.014 8.14 187.014 9.4C187.014 10.62 187.534 12.38 190.094 12.38ZM203.997 15H200.097V3.9H203.997V7.94H209.437V3.9H213.337V15H209.437V10.9H203.997V15ZM224.841 15L220.521 9.86V15H216.621V3.9H220.521V8.34L224.481 3.9H228.981L224.341 8.88L229.481 15H224.841ZM231.64 18.82V16.04H234.08C234.46 16.04 234.66 15.88 234.66 15.58V15.56C234.66 15.32 234.6 15.1 234.3 14.48L229.54 3.9H233.82L236.9 11.86L239.96 3.9H243.88L238.8 16.12C238.02 17.94 237.06 18.82 235.22 18.82H231.64ZM256.058 9.46V9.4C256.058 8.2 255.498 6.58 253.058 6.58H252.858C250.518 6.58 249.778 8.12 249.778 9.4V9.46C249.778 10.68 250.518 12.28 252.858 12.28H253.058C255.498 12.28 256.058 10.6 256.058 9.46ZM245.898 18.82V3.9H249.758V5.32C250.238 4.8 251.698 3.68 254.218 3.68H254.478C258.718 3.68 260.098 6.58 260.098 9.22V9.56C260.098 11.98 258.678 15.22 254.458 15.22H254.178C251.638 15.22 250.278 14.06 249.798 13.58V18.82H245.898ZM272.091 10.64H276.171C276.171 12.32 275.171 15.3 269.831 15.3H268.851C263.311 15.3 262.271 11.7 262.271 9.6V9.32C262.271 7.22 263.251 3.6 268.831 3.6H269.751C275.111 3.6 276.171 6.52 276.171 8.12V8.14H272.091C272.031 7.82 271.651 6.44 269.351 6.44H269.151C266.851 6.44 266.311 8.02 266.311 9.36V9.38C266.311 10.76 266.971 12.4 269.231 12.4H269.431C271.751 12.4 272.091 10.9 272.091 10.64ZM284.067 12.78C286.347 12.78 287.127 11.34 287.127 10.5V9.64C286.787 9.78 285.807 9.98 284.687 10.16C282.807 10.48 282.207 10.74 282.207 11.52V11.56C282.207 12.26 282.707 12.78 284.067 12.78ZM287.247 13.46C286.767 14.04 285.567 15.22 282.967 15.22H282.647C279.547 15.22 278.267 13.54 278.267 11.7V11.62C278.267 9.7 279.487 8.52 283.247 8.2L286.287 7.94C286.907 7.88 287.127 7.68 287.127 7.22C287.127 6.7 286.967 6.14 284.807 6.14C282.767 6.14 282.567 6.94 282.567 7.36H278.567V7.32C278.567 6.22 279.007 3.64 284.467 3.64H285.087C290.587 3.64 290.927 5.9 290.927 7.38V11.04C290.927 11.74 291.067 12.02 291.847 12.02H292.267V15H289.107C287.947 15 287.407 14.18 287.247 13.46Z" fill="url(#paint1_radial_41_300)" style="mix-blend-mode:overlay"/>
<path d="M0.3 11.72H1.8C2.82 9.86 3.46 7.08 3.46 0.12H17.66V11.72H20.06V17.5H16.14V15H4.22V17.5H0.3V11.72ZM5.98 11.72H13.54V3.4H7.38C7.38 7.46 6.68 10.3 5.98 11.72ZM27.4264 12.78C29.7064 12.78 30.4864 11.34 30.4864 10.5V9.64C30.1464 9.78 29.1664 9.98 28.0464 10.16C26.1664 10.48 25.5664 10.74 25.5664 11.52V11.56C25.5664 12.26 26.0664 12.78 27.4264 12.78ZM30.6064 13.46C30.1264 14.04 28.9264 15.22 26.3264 15.22H26.0064C22.9064 15.22 21.6264 13.54 21.6264 11.7V11.62C21.6264 9.7 22.8464 8.52 26.6064 8.2L29.6464 7.94C30.2664 7.88 30.4864 7.68 30.4864 7.22C30.4864 6.7 30.3264 6.14 28.1664 6.14C26.1264 6.14 25.9264 6.94 25.9264 7.36H21.9264V7.32C21.9264 6.22 22.3664 3.64 27.8264 3.64H28.4464C33.9464 3.64 34.2864 5.9 34.2864 7.38V11.04C34.2864 11.74 34.4264 12.02 35.2064 12.02H35.6264V15H32.4664C31.3064 15 30.7664 14.18 30.6064 13.46ZM41.7505 15H37.8505V3.9H41.7505V7.94H47.1905V3.9H51.0905V15H47.1905V10.9H41.7505V15ZM58.2348 15H54.3348V3.9H58.2348V7.94H63.6748V3.9H67.5748V15H63.6748V10.9H58.2348V15ZM70.8192 15V3.9H74.7192V7.08H77.7592C81.5592 7.08 83.0392 8.76 83.0392 10.88V11.12C83.0392 13.44 81.5592 15 77.7592 15H70.8192ZM74.7192 12.36H77.2792C78.0792 12.36 79.0392 12.12 79.0392 11.04V10.98C79.0392 9.98 78.0792 9.72 77.2792 9.72H74.7192V12.36ZM88.3592 3.9V15H84.4592V3.9H88.3592ZM98.0605 6.2C96.0405 6.2 95.2805 7.02 95.0805 8.18H100.96C100.96 7.36 100.56 6.2 98.0605 6.2ZM101.04 11.54H105.1C105.1 12.46 104.38 15.26 98.6405 15.26H97.9005C92.4205 15.26 91.0605 12.26 91.0605 9.6V9.32C91.0605 6.82 92.3005 3.66 97.5605 3.66H98.4405C104.12 3.66 105.14 6.82 105.14 9.92V10.28H95.0405C95.2005 11.56 96.0205 12.6 98.4005 12.6C100.66 12.6 100.94 11.72 101.04 11.54ZM112.673 17.36V12.04H114.013C114.773 10.52 114.893 7.22 114.993 3.9H126.733V12.04H128.733V17.36H125.033V15H116.373V17.36H112.673ZM117.693 12.04H122.833V6.86H118.493C118.433 8.3 118.233 10.5 117.693 12.04ZM140.154 15V6.86H135.754C135.754 9.84 135.654 11.5 135.274 12.52C134.854 13.64 134.294 15 131.354 15H130.134V12.1H130.374C131.074 12.1 131.594 11.86 131.814 10.84C131.974 9.98 132.034 9.04 132.034 3.9H144.054V15H140.154ZM156.624 11.28H154.004L150.764 15H146.364L149.984 10.86C148.064 10.48 146.964 9.38 146.964 7.7V7.46C146.964 5.44 148.604 3.9 151.384 3.9H160.524V15H156.624V11.28ZM156.624 6.46H152.444C151.584 6.46 150.864 6.66 150.864 7.54V7.62C150.864 8.48 151.604 8.74 152.464 8.74H156.624V6.46ZM177.81 15L173.49 9.86V15H169.59V3.9H173.49V8.34L177.45 3.9H181.95L177.31 8.88L182.45 15H177.81ZM190.514 15.3H189.894C183.914 15.3 182.994 11.66 182.994 9.64V9.36C182.994 7.36 183.914 3.6 189.874 3.6H190.534C196.694 3.6 197.414 7.38 197.414 9.34V9.66C197.414 11.66 196.694 15.3 190.514 15.3ZM190.094 12.38H190.314C192.774 12.38 193.394 10.62 193.394 9.4C193.394 8.14 192.774 6.46 190.314 6.46H190.094C187.534 6.46 187.014 8.14 187.014 9.4C187.014 10.62 187.534 12.38 190.094 12.38ZM203.997 15H200.097V3.9H203.997V7.94H209.437V3.9H213.337V15H209.437V10.9H203.997V15ZM224.841 15L220.521 9.86V15H216.621V3.9H220.521V8.34L224.481 3.9H228.981L224.341 8.88L229.481 15H224.841ZM231.64 18.82V16.04H234.08C234.46 16.04 234.66 15.88 234.66 15.58V15.56C234.66 15.32 234.6 15.1 234.3 14.48L229.54 3.9H233.82L236.9 11.86L239.96 3.9H243.88L238.8 16.12C238.02 17.94 237.06 18.82 235.22 18.82H231.64ZM256.058 9.46V9.4C256.058 8.2 255.498 6.58 253.058 6.58H252.858C250.518 6.58 249.778 8.12 249.778 9.4V9.46C249.778 10.68 250.518 12.28 252.858 12.28H253.058C255.498 12.28 256.058 10.6 256.058 9.46ZM245.898 18.82V3.9H249.758V5.32C250.238 4.8 251.698 3.68 254.218 3.68H254.478C258.718 3.68 260.098 6.58 260.098 9.22V9.56C260.098 11.98 258.678 15.22 254.458 15.22H254.178C251.638 15.22 250.278 14.06 249.798 13.58V18.82H245.898ZM272.091 10.64H276.171C276.171 12.32 275.171 15.3 269.831 15.3H268.851C263.311 15.3 262.271 11.7 262.271 9.6V9.32C262.271 7.22 263.251 3.6 268.831 3.6H269.751C275.111 3.6 276.171 6.52 276.171 8.12V8.14H272.091C272.031 7.82 271.651 6.44 269.351 6.44H269.151C266.851 6.44 266.311 8.02 266.311 9.36V9.38C266.311 10.76 266.971 12.4 269.231 12.4H269.431C271.751 12.4 272.091 10.9 272.091 10.64ZM284.067 12.78C286.347 12.78 287.127 11.34 287.127 10.5V9.64C286.787 9.78 285.807 9.98 284.687 10.16C282.807 10.48 282.207 10.74 282.207 11.52V11.56C282.207 12.26 282.707 12.78 284.067 12.78ZM287.247 13.46C286.767 14.04 285.567 15.22 282.967 15.22H282.647C279.547 15.22 278.267 13.54 278.267 11.7V11.62C278.267 9.7 279.487 8.52 283.247 8.2L286.287 7.94C286.907 7.88 287.127 7.68 287.127 7.22C287.127 6.7 286.967 6.14 284.807 6.14C282.767 6.14 282.567 6.94 282.567 7.36H278.567V7.32C278.567 6.22 279.007 3.64 284.467 3.64H285.087C290.587 3.64 290.927 5.9 290.927 7.38V11.04C290.927 11.74 291.067 12.02 291.847 12.02H292.267V15H289.107C287.947 15 287.407 14.18 287.247 13.46Z" fill="url(#paint2_radial_41_300)"/>
<path d="M0.3 11.72H1.8C2.82 9.86 3.46 7.08 3.46 0.12H17.66V11.72H20.06V17.5H16.14V15H4.22V17.5H0.3V11.72ZM5.98 11.72H13.54V3.4H7.38C7.38 7.46 6.68 10.3 5.98 11.72ZM27.4264 12.78C29.7064 12.78 30.4864 11.34 30.4864 10.5V9.64C30.1464 9.78 29.1664 9.98 28.0464 10.16C26.1664 10.48 25.5664 10.74 25.5664 11.52V11.56C25.5664 12.26 26.0664 12.78 27.4264 12.78ZM30.6064 13.46C30.1264 14.04 28.9264 15.22 26.3264 15.22H26.0064C22.9064 15.22 21.6264 13.54 21.6264 11.7V11.62C21.6264 9.7 22.8464 8.52 26.6064 8.2L29.6464 7.94C30.2664 7.88 30.4864 7.68 30.4864 7.22C30.4864 6.7 30.3264 6.14 28.1664 6.14C26.1264 6.14 25.9264 6.94 25.9264 7.36H21.9264V7.32C21.9264 6.22 22.3664 3.64 27.8264 3.64H28.4464C33.9464 3.64 34.2864 5.9 34.2864 7.38V11.04C34.2864 11.74 34.4264 12.02 35.2064 12.02H35.6264V15H32.4664C31.3064 15 30.7664 14.18 30.6064 13.46ZM41.7505 15H37.8505V3.9H41.7505V7.94H47.1905V3.9H51.0905V15H47.1905V10.9H41.7505V15ZM58.2348 15H54.3348V3.9H58.2348V7.94H63.6748V3.9H67.5748V15H63.6748V10.9H58.2348V15ZM70.8192 15V3.9H74.7192V7.08H77.7592C81.5592 7.08 83.0392 8.76 83.0392 10.88V11.12C83.0392 13.44 81.5592 15 77.7592 15H70.8192ZM74.7192 12.36H77.2792C78.0792 12.36 79.0392 12.12 79.0392 11.04V10.98C79.0392 9.98 78.0792 9.72 77.2792 9.72H74.7192V12.36ZM88.3592 3.9V15H84.4592V3.9H88.3592ZM98.0605 6.2C96.0405 6.2 95.2805 7.02 95.0805 8.18H100.96C100.96 7.36 100.56 6.2 98.0605 6.2ZM101.04 11.54H105.1C105.1 12.46 104.38 15.26 98.6405 15.26H97.9005C92.4205 15.26 91.0605 12.26 91.0605 9.6V9.32C91.0605 6.82 92.3005 3.66 97.5605 3.66H98.4405C104.12 3.66 105.14 6.82 105.14 9.92V10.28H95.0405C95.2005 11.56 96.0205 12.6 98.4005 12.6C100.66 12.6 100.94 11.72 101.04 11.54ZM112.673 17.36V12.04H114.013C114.773 10.52 114.893 7.22 114.993 3.9H126.733V12.04H128.733V17.36H125.033V15H116.373V17.36H112.673ZM117.693 12.04H122.833V6.86H118.493C118.433 8.3 118.233 10.5 117.693 12.04ZM140.154 15V6.86H135.754C135.754 9.84 135.654 11.5 135.274 12.52C134.854 13.64 134.294 15 131.354 15H130.134V12.1H130.374C131.074 12.1 131.594 11.86 131.814 10.84C131.974 9.98 132.034 9.04 132.034 3.9H144.054V15H140.154ZM156.624 11.28H154.004L150.764 15H146.364L149.984 10.86C148.064 10.48 146.964 9.38 146.964 7.7V7.46C146.964 5.44 148.604 3.9 151.384 3.9H160.524V15H156.624V11.28ZM156.624 6.46H152.444C151.584 6.46 150.864 6.66 150.864 7.54V7.62C150.864 8.48 151.604 8.74 152.464 8.74H156.624V6.46ZM177.81 15L173.49 9.86V15H169.59V3.9H173.49V8.34L177.45 3.9H181.95L177.31 8.88L182.45 15H177.81ZM190.514 15.3H189.894C183.914 15.3 182.994 11.66 182.994 9.64V9.36C182.994 7.36 183.914 3.6 189.874 3.6H190.534C196.694 3.6 197.414 7.38 197.414 9.34V9.66C197.414 11.66 196.694 15.3 190.514 15.3ZM190.094 12.38H190.314C192.774 12.38 193.394 10.62 193.394 9.4C193.394 8.14 192.774 6.46 190.314 6.46H190.094C187.534 6.46 187.014 8.14 187.014 9.4C187.014 10.62 187.534 12.38 190.094 12.38ZM203.997 15H200.097V3.9H203.997V7.94H209.437V3.9H213.337V15H209.437V10.9H203.997V15ZM224.841 15L220.521 9.86V15H216.621V3.9H220.521V8.34L224.481 3.9H228.981L224.341 8.88L229.481 15H224.841ZM231.64 18.82V16.04H234.08C234.46 16.04 234.66 15.88 234.66 15.58V15.56C234.66 15.32 234.6 15.1 234.3 14.48L229.54 3.9H233.82L236.9 11.86L239.96 3.9H243.88L238.8 16.12C238.02 17.94 237.06 18.82 235.22 18.82H231.64ZM256.058 9.46V9.4C256.058 8.2 255.498 6.58 253.058 6.58H252.858C250.518 6.58 249.778 8.12 249.778 9.4V9.46C249.778 10.68 250.518 12.28 252.858 12.28H253.058C255.498 12.28 256.058 10.6 256.058 9.46ZM245.898 18.82V3.9H249.758V5.32C250.238 4.8 251.698 3.68 254.218 3.68H254.478C258.718 3.68 260.098 6.58 260.098 9.22V9.56C260.098 11.98 258.678 15.22 254.458 15.22H254.178C251.638 15.22 250.278 14.06 249.798 13.58V18.82H245.898ZM272.091 10.64H276.171C276.171 12.32 275.171 15.3 269.831 15.3H268.851C263.311 15.3 262.271 11.7 262.271 9.6V9.32C262.271 7.22 263.251 3.6 268.831 3.6H269.751C275.111 3.6 276.171 6.52 276.171 8.12V8.14H272.091C272.031 7.82 271.651 6.44 269.351 6.44H269.151C266.851 6.44 266.311 8.02 266.311 9.36V9.38C266.311 10.76 266.971 12.4 269.231 12.4H269.431C271.751 12.4 272.091 10.9 272.091 10.64ZM284.067 12.78C286.347 12.78 287.127 11.34 287.127 10.5V9.64C286.787 9.78 285.807 9.98 284.687 10.16C282.807 10.48 282.207 10.74 282.207 11.52V11.56C282.207 12.26 282.707 12.78 284.067 12.78ZM287.247 13.46C286.767 14.04 285.567 15.22 282.967 15.22H282.647C279.547 15.22 278.267 13.54 278.267 11.7V11.62C278.267 9.7 279.487 8.52 283.247 8.2L286.287 7.94C286.907 7.88 287.127 7.68 287.127 7.22C287.127 6.7 286.967 6.14 284.807 6.14C282.767 6.14 282.567 6.94 282.567 7.36H278.567V7.32C278.567 6.22 279.007 3.64 284.467 3.64H285.087C290.587 3.64 290.927 5.9 290.927 7.38V11.04C290.927 11.74 291.067 12.02 291.847 12.02H292.267V15H289.107C287.947 15 287.407 14.18 287.247 13.46Z" fill="#C1A875" style="mix-blend-mode:color"/>
<defs>
<linearGradient id="paint0_linear_41_300" x1="1.09151e-06" y1="6.5" x2="293" y2="6.50002" gradientUnits="userSpaceOnUse">
<stop stop-color="#576167"/>
<stop offset="0.191294" stop-color="#9EA1A2"/>
<stop offset="0.396166" stop-color="#848989"/>
<stop offset="0.62055" stop-color="#576167"/>
<stop offset="0.830299" stop-color="#757A7C"/>
<stop offset="1" stop-color="#576167"/>
</linearGradient>
<radialGradient id="paint1_radial_41_300" cx="0" cy="0" r="1" gradientUnits="userSpaceOnUse" gradientTransform="translate(156.037 -3.85253) rotate(90) scale(20.0604 221.664)">
<stop stop-color="white"/>
<stop offset="1" stop-color="white" stop-opacity="0"/>
</radialGradient>
<radialGradient id="paint2_radial_41_300" cx="0" cy="0" r="1" gradientUnits="userSpaceOnUse" gradientTransform="translate(172.61 26.3708) rotate(-89.0651) scale(28.7482 316.932)">
<stop stop-color="white"/>
<stop offset="1" stop-color="white" stop-opacity="0"/>
</radialGradient>
</defs>
</svg>
