<svg width="46" height="12" viewBox="0 0 46 12" fill="none" xmlns="http://www.w3.org/2000/svg">
<path d="M7.308 1.522V0.444H10.192V1.522H12.11C14.868 1.522 17.01 2.642 17.01 5.582V5.694C17.01 8.634 14.854 9.936 12.082 9.936H10.192V11.14H7.308V9.936H5.418C2.646 9.936 0.49 8.634 0.49 5.694V5.582C0.49 2.642 2.632 1.522 5.39 1.522H7.308ZM7.308 3.804H5.992C4.41 3.804 3.486 4.35 3.486 5.582V5.694C3.486 7.108 4.382 7.654 5.992 7.654H7.308V3.804ZM10.192 3.804V7.654H11.508C13.118 7.654 14.014 7.108 14.014 5.694V5.582C14.014 4.35 13.09 3.804 11.508 3.804H10.192ZM27.762 11V4L21.672 11H18.788V0.584H21.672V7.584L27.762 0.584H30.646V11H27.762ZM39.0215 0.415999H39.6375C44.5095 0.415999 45.8955 3.272 45.8955 5.554V5.974C45.8955 8.214 44.5095 11.168 39.6375 11.168H39.0215C34.1495 11.168 32.7635 8.214 32.7635 5.974V5.554C32.7635 3.286 34.1495 0.415999 39.0215 0.415999ZM42.8995 5.862V5.666C42.8995 4.378 42.2695 2.796 39.3295 2.796C36.4175 2.796 35.7595 4.378 35.7595 5.666V5.862C35.7595 7.122 36.4595 8.774 39.3295 8.774C42.2555 8.774 42.8995 7.122 42.8995 5.862Z" fill="url(#paint0_linear_41_272)"/>
<path d="M7.308 1.522V0.444H10.192V1.522H12.11C14.868 1.522 17.01 2.642 17.01 5.582V5.694C17.01 8.634 14.854 9.936 12.082 9.936H10.192V11.14H7.308V9.936H5.418C2.646 9.936 0.49 8.634 0.49 5.694V5.582C0.49 2.642 2.632 1.522 5.39 1.522H7.308ZM7.308 3.804H5.992C4.41 3.804 3.486 4.35 3.486 5.582V5.694C3.486 7.108 4.382 7.654 5.992 7.654H7.308V3.804ZM10.192 3.804V7.654H11.508C13.118 7.654 14.014 7.108 14.014 5.694V5.582C14.014 4.35 13.09 3.804 11.508 3.804H10.192ZM27.762 11V4L21.672 11H18.788V0.584H21.672V7.584L27.762 0.584H30.646V11H27.762ZM39.0215 0.415999H39.6375C44.5095 0.415999 45.8955 3.272 45.8955 5.554V5.974C45.8955 8.214 44.5095 11.168 39.6375 11.168H39.0215C34.1495 11.168 32.7635 8.214 32.7635 5.974V5.554C32.7635 3.286 34.1495 0.415999 39.0215 0.415999ZM42.8995 5.862V5.666C42.8995 4.378 42.2695 2.796 39.3295 2.796C36.4175 2.796 35.7595 4.378 35.7595 5.666V5.862C35.7595 7.122 36.4595 8.774 39.3295 8.774C42.2555 8.774 42.8995 7.122 42.8995 5.862Z" fill="url(#paint1_radial_41_272)" style="mix-blend-mode:overlay"/>
<path d="M7.308 1.522V0.444H10.192V1.522H12.11C14.868 1.522 17.01 2.642 17.01 5.582V5.694C17.01 8.634 14.854 9.936 12.082 9.936H10.192V11.14H7.308V9.936H5.418C2.646 9.936 0.49 8.634 0.49 5.694V5.582C0.49 2.642 2.632 1.522 5.39 1.522H7.308ZM7.308 3.804H5.992C4.41 3.804 3.486 4.35 3.486 5.582V5.694C3.486 7.108 4.382 7.654 5.992 7.654H7.308V3.804ZM10.192 3.804V7.654H11.508C13.118 7.654 14.014 7.108 14.014 5.694V5.582C14.014 4.35 13.09 3.804 11.508 3.804H10.192ZM27.762 11V4L21.672 11H18.788V0.584H21.672V7.584L27.762 0.584H30.646V11H27.762ZM39.0215 0.415999H39.6375C44.5095 0.415999 45.8955 3.272 45.8955 5.554V5.974C45.8955 8.214 44.5095 11.168 39.6375 11.168H39.0215C34.1495 11.168 32.7635 8.214 32.7635 5.974V5.554C32.7635 3.286 34.1495 0.415999 39.0215 0.415999ZM42.8995 5.862V5.666C42.8995 4.378 42.2695 2.796 39.3295 2.796C36.4175 2.796 35.7595 4.378 35.7595 5.666V5.862C35.7595 7.122 36.4595 8.774 39.3295 8.774C42.2555 8.774 42.8995 7.122 42.8995 5.862Z" fill="url(#paint2_radial_41_272)"/>
<path d="M7.308 1.522V0.444H10.192V1.522H12.11C14.868 1.522 17.01 2.642 17.01 5.582V5.694C17.01 8.634 14.854 9.936 12.082 9.936H10.192V11.14H7.308V9.936H5.418C2.646 9.936 0.49 8.634 0.49 5.694V5.582C0.49 2.642 2.632 1.522 5.39 1.522H7.308ZM7.308 3.804H5.992C4.41 3.804 3.486 4.35 3.486 5.582V5.694C3.486 7.108 4.382 7.654 5.992 7.654H7.308V3.804ZM10.192 3.804V7.654H11.508C13.118 7.654 14.014 7.108 14.014 5.694V5.582C14.014 4.35 13.09 3.804 11.508 3.804H10.192ZM27.762 11V4L21.672 11H18.788V0.584H21.672V7.584L27.762 0.584H30.646V11H27.762ZM39.0215 0.415999H39.6375C44.5095 0.415999 45.8955 3.272 45.8955 5.554V5.974C45.8955 8.214 44.5095 11.168 39.6375 11.168H39.0215C34.1495 11.168 32.7635 8.214 32.7635 5.974V5.554C32.7635 3.286 34.1495 0.415999 39.0215 0.415999ZM42.8995 5.862V5.666C42.8995 4.378 42.2695 2.796 39.3295 2.796C36.4175 2.796 35.7595 4.378 35.7595 5.666V5.862C35.7595 7.122 36.4595 8.774 39.3295 8.774C42.2555 8.774 42.8995 7.122 42.8995 5.862Z" fill="#C1A875" style="mix-blend-mode:color"/>
<defs>
<linearGradient id="paint0_linear_41_272" x1="1.75089e-07" y1="5.5" x2="47" y2="5.5" gradientUnits="userSpaceOnUse">
<stop stop-color="#576167"/>
<stop offset="0.191294" stop-color="#9EA1A2"/>
<stop offset="0.396166" stop-color="#848989"/>
<stop offset="0.62055" stop-color="#576167"/>
<stop offset="0.830299" stop-color="#757A7C"/>
<stop offset="1" stop-color="#576167"/>
</linearGradient>
<radialGradient id="paint1_radial_41_272" cx="0" cy="0" r="1" gradientUnits="userSpaceOnUse" gradientTransform="translate(25.0299 -1.78511) rotate(90) scale(14.1166 35.557)">
<stop stop-color="white"/>
<stop offset="1" stop-color="white" stop-opacity="0"/>
</radialGradient>
<radialGradient id="paint2_radial_41_272" cx="0" cy="0" r="1" gradientUnits="userSpaceOnUse" gradientTransform="translate(27.6884 19.4831) rotate(-89.7869) scale(20.2277 50.8454)">
<stop stop-color="white"/>
<stop offset="1" stop-color="white" stop-opacity="0"/>
</radialGradient>
</defs>
</svg>
