<svg width="395" height="47" viewBox="0 0 395 47" fill="none" xmlns="http://www.w3.org/2000/svg">
<path d="M11.5 17.14H0.88V8.08C9.88 8.08 12.64 6.76 14.56 1.36H23.8V46H11.5V17.14ZM58.4434 46.72H55.9234C35.3434 46.72 32.9434 38.2 32.9434 33.34V32.56C32.9434 27.1 37.6834 23.56 42.9634 22.6C38.6434 21.82 34.0234 18.94 34.0234 13.66V12.94C34.0234 8.38 36.0634 0.939997 55.9234 0.939997H58.4434C78.4234 0.939997 80.4034 8.38 80.4034 12.94V13.66C80.4034 18.58 75.9034 21.82 71.4034 22.6C76.8634 23.56 81.4834 27.1 81.4834 32.56V33.34C81.4834 38.2 78.9034 46.72 58.4434 46.72ZM67.3234 14.26V14.02C67.3234 12.34 66.0634 10 57.1834 10C48.3034 10 47.0434 12.34 47.0434 14.02V14.26C47.0434 16.06 48.4234 18.28 57.1834 18.28C66.0634 18.28 67.3234 16.06 67.3234 14.26ZM68.4634 32.38V32.2C68.4634 30.04 67.0234 27.4 57.1834 27.4C47.3434 27.4 45.9634 30.04 45.9634 32.2V32.38C45.9634 34.54 47.4034 37.24 57.1834 37.24C67.0234 37.24 68.4634 34.54 68.4634 32.38ZM107.758 46V1.36H124.198L138.418 31.6L153.058 1.36H168.478V46H156.418V16.78L142.858 46H133.198L119.638 16.78V46H107.758ZM210.676 28.54L202.576 10.36L194.716 28.54H210.676ZM218.476 46L214.816 37.72H190.696L187.096 46H174.676L194.476 1.36H211.036L231.736 46H218.476ZM268.135 31.72H250.255V46H237.895V1.36H268.135C282.235 1.36 286.615 7.54 286.615 16.18V16.84C286.615 25.3 282.055 31.72 268.135 31.72ZM250.255 11.32V21.76H267.235C271.795 21.76 273.775 19.84 273.775 16.66V16.42C273.775 13.3 271.795 11.32 267.235 11.32H250.255ZM309.485 46V11.56H292.205V1.36H339.065V11.56H321.785V46H309.485ZM373.39 28.54L365.29 10.36L357.43 28.54H373.39ZM381.19 46L377.53 37.72H353.41L349.81 46H337.39L357.19 1.36H373.75L394.45 46H381.19Z" fill="url(#paint0_linear_2017_741)"/>
<path d="M11.5 17.14H0.88V8.08C9.88 8.08 12.64 6.76 14.56 1.36H23.8V46H11.5V17.14ZM58.4434 46.72H55.9234C35.3434 46.72 32.9434 38.2 32.9434 33.34V32.56C32.9434 27.1 37.6834 23.56 42.9634 22.6C38.6434 21.82 34.0234 18.94 34.0234 13.66V12.94C34.0234 8.38 36.0634 0.939997 55.9234 0.939997H58.4434C78.4234 0.939997 80.4034 8.38 80.4034 12.94V13.66C80.4034 18.58 75.9034 21.82 71.4034 22.6C76.8634 23.56 81.4834 27.1 81.4834 32.56V33.34C81.4834 38.2 78.9034 46.72 58.4434 46.72ZM67.3234 14.26V14.02C67.3234 12.34 66.0634 10 57.1834 10C48.3034 10 47.0434 12.34 47.0434 14.02V14.26C47.0434 16.06 48.4234 18.28 57.1834 18.28C66.0634 18.28 67.3234 16.06 67.3234 14.26ZM68.4634 32.38V32.2C68.4634 30.04 67.0234 27.4 57.1834 27.4C47.3434 27.4 45.9634 30.04 45.9634 32.2V32.38C45.9634 34.54 47.4034 37.24 57.1834 37.24C67.0234 37.24 68.4634 34.54 68.4634 32.38ZM107.758 46V1.36H124.198L138.418 31.6L153.058 1.36H168.478V46H156.418V16.78L142.858 46H133.198L119.638 16.78V46H107.758ZM210.676 28.54L202.576 10.36L194.716 28.54H210.676ZM218.476 46L214.816 37.72H190.696L187.096 46H174.676L194.476 1.36H211.036L231.736 46H218.476ZM268.135 31.72H250.255V46H237.895V1.36H268.135C282.235 1.36 286.615 7.54 286.615 16.18V16.84C286.615 25.3 282.055 31.72 268.135 31.72ZM250.255 11.32V21.76H267.235C271.795 21.76 273.775 19.84 273.775 16.66V16.42C273.775 13.3 271.795 11.32 267.235 11.32H250.255ZM309.485 46V11.56H292.205V1.36H339.065V11.56H321.785V46H309.485ZM373.39 28.54L365.29 10.36L357.43 28.54H373.39ZM381.19 46L377.53 37.72H353.41L349.81 46H337.39L357.19 1.36H373.75L394.45 46H381.19Z" fill="url(#paint1_radial_2017_741)" style="mix-blend-mode:overlay"/>
<path d="M11.5 17.14H0.88V8.08C9.88 8.08 12.64 6.76 14.56 1.36H23.8V46H11.5V17.14ZM58.4434 46.72H55.9234C35.3434 46.72 32.9434 38.2 32.9434 33.34V32.56C32.9434 27.1 37.6834 23.56 42.9634 22.6C38.6434 21.82 34.0234 18.94 34.0234 13.66V12.94C34.0234 8.38 36.0634 0.939997 55.9234 0.939997H58.4434C78.4234 0.939997 80.4034 8.38 80.4034 12.94V13.66C80.4034 18.58 75.9034 21.82 71.4034 22.6C76.8634 23.56 81.4834 27.1 81.4834 32.56V33.34C81.4834 38.2 78.9034 46.72 58.4434 46.72ZM67.3234 14.26V14.02C67.3234 12.34 66.0634 10 57.1834 10C48.3034 10 47.0434 12.34 47.0434 14.02V14.26C47.0434 16.06 48.4234 18.28 57.1834 18.28C66.0634 18.28 67.3234 16.06 67.3234 14.26ZM68.4634 32.38V32.2C68.4634 30.04 67.0234 27.4 57.1834 27.4C47.3434 27.4 45.9634 30.04 45.9634 32.2V32.38C45.9634 34.54 47.4034 37.24 57.1834 37.24C67.0234 37.24 68.4634 34.54 68.4634 32.38ZM107.758 46V1.36H124.198L138.418 31.6L153.058 1.36H168.478V46H156.418V16.78L142.858 46H133.198L119.638 16.78V46H107.758ZM210.676 28.54L202.576 10.36L194.716 28.54H210.676ZM218.476 46L214.816 37.72H190.696L187.096 46H174.676L194.476 1.36H211.036L231.736 46H218.476ZM268.135 31.72H250.255V46H237.895V1.36H268.135C282.235 1.36 286.615 7.54 286.615 16.18V16.84C286.615 25.3 282.055 31.72 268.135 31.72ZM250.255 11.32V21.76H267.235C271.795 21.76 273.775 19.84 273.775 16.66V16.42C273.775 13.3 271.795 11.32 267.235 11.32H250.255ZM309.485 46V11.56H292.205V1.36H339.065V11.56H321.785V46H309.485ZM373.39 28.54L365.29 10.36L357.43 28.54H373.39ZM381.19 46L377.53 37.72H353.41L349.81 46H337.39L357.19 1.36H373.75L394.45 46H381.19Z" fill="url(#paint2_radial_2017_741)"/>
<path d="M11.5 17.14H0.88V8.08C9.88 8.08 12.64 6.76 14.56 1.36H23.8V46H11.5V17.14ZM58.4434 46.72H55.9234C35.3434 46.72 32.9434 38.2 32.9434 33.34V32.56C32.9434 27.1 37.6834 23.56 42.9634 22.6C38.6434 21.82 34.0234 18.94 34.0234 13.66V12.94C34.0234 8.38 36.0634 0.939997 55.9234 0.939997H58.4434C78.4234 0.939997 80.4034 8.38 80.4034 12.94V13.66C80.4034 18.58 75.9034 21.82 71.4034 22.6C76.8634 23.56 81.4834 27.1 81.4834 32.56V33.34C81.4834 38.2 78.9034 46.72 58.4434 46.72ZM67.3234 14.26V14.02C67.3234 12.34 66.0634 10 57.1834 10C48.3034 10 47.0434 12.34 47.0434 14.02V14.26C47.0434 16.06 48.4234 18.28 57.1834 18.28C66.0634 18.28 67.3234 16.06 67.3234 14.26ZM68.4634 32.38V32.2C68.4634 30.04 67.0234 27.4 57.1834 27.4C47.3434 27.4 45.9634 30.04 45.9634 32.2V32.38C45.9634 34.54 47.4034 37.24 57.1834 37.24C67.0234 37.24 68.4634 34.54 68.4634 32.38ZM107.758 46V1.36H124.198L138.418 31.6L153.058 1.36H168.478V46H156.418V16.78L142.858 46H133.198L119.638 16.78V46H107.758ZM210.676 28.54L202.576 10.36L194.716 28.54H210.676ZM218.476 46L214.816 37.72H190.696L187.096 46H174.676L194.476 1.36H211.036L231.736 46H218.476ZM268.135 31.72H250.255V46H237.895V1.36H268.135C282.235 1.36 286.615 7.54 286.615 16.18V16.84C286.615 25.3 282.055 31.72 268.135 31.72ZM250.255 11.32V21.76H267.235C271.795 21.76 273.775 19.84 273.775 16.66V16.42C273.775 13.3 271.795 11.32 267.235 11.32H250.255ZM309.485 46V11.56H292.205V1.36H339.065V11.56H321.785V46H309.485ZM373.39 28.54L365.29 10.36L357.43 28.54H373.39ZM381.19 46L377.53 37.72H353.41L349.81 46H337.39L357.19 1.36H373.75L394.45 46H381.19Z" fill="#C1A875" style="mix-blend-mode:color"/>
<defs>
<linearGradient id="paint0_linear_2017_741" x1="-2" y1="20.5" x2="396" y2="20.5" gradientUnits="userSpaceOnUse">
<stop stop-color="#576167"/>
<stop offset="0.191294" stop-color="#9EA1A2"/>
<stop offset="0.396166" stop-color="#848989"/>
<stop offset="0.62055" stop-color="#576167"/>
<stop offset="0.830299" stop-color="#757A7C"/>
<stop offset="1" stop-color="#576167"/>
</linearGradient>
<radialGradient id="paint1_radial_2017_741" cx="0" cy="0" r="1" gradientUnits="userSpaceOnUse" gradientTransform="translate(209.955 -10.5576) rotate(90) scale(60.1812 301.1)">
<stop stop-color="white"/>
<stop offset="1" stop-color="white" stop-opacity="0"/>
</radialGradient>
<radialGradient id="paint2_radial_2017_741" cx="0" cy="0" r="1" gradientUnits="userSpaceOnUse" gradientTransform="translate(232.467 80.1124) rotate(-89.5767) scale(86.2355 430.554)">
<stop stop-color="white"/>
<stop offset="1" stop-color="white" stop-opacity="0"/>
</radialGradient>
</defs>
</svg>
