<svg width="217" height="18" viewBox="0 0 217 18" fill="none" xmlns="http://www.w3.org/2000/svg">
<path d="M14.4372 14H0.109248V11.84C0.109248 10.022 0.379248 8.294 5.76125 6.656C6.33725 6.458 7.52525 6.17 8.06525 6.026C9.79325 5.594 10.1892 5.252 10.1892 4.622C10.1892 3.812 9.63125 3.308 7.39925 3.308C4.66325 3.308 4.32125 4.712 4.26725 5.432H0.325248V5.306C0.325248 3.416 1.38725 0.446 6.87725 0.446H7.68725C12.5832 0.446 14.1312 2.156 14.1312 4.586V4.73C14.1312 7.088 12.7452 8.078 9.03725 8.798L6.40925 9.356C3.78125 9.986 3.43925 10.418 3.43925 10.796H14.4372V14ZM20.8078 10.508V14H16.6138V10.508H20.8078ZM40.24 14V3.56H34.48C34.48 7.214 34.318 10.004 33.832 11.462C33.4 12.74 32.626 14 29.962 14H28.63V10.85H28.756C29.854 10.85 30.304 10.346 30.52 9.788C30.88 8.852 30.97 7.574 30.97 0.608H43.948V14H40.24ZM55.4777 7.952L50.6537 14H47.0537V4.01H50.5637V10.058L55.3877 4.01H58.9877V14H55.4777V7.952ZM61.0792 16.124V11.336H62.2852C62.9692 9.968 63.0772 6.998 63.1672 4.01H73.7332V11.336H75.5332V16.124H72.2032V14H64.4092V16.124H61.0792ZM65.5972 11.336H70.2232V6.674H66.3172C66.2632 7.97 66.0832 9.95 65.5972 11.336ZM83.2603 6.08C81.4423 6.08 80.7583 6.818 80.5783 7.862H85.8703C85.8703 7.124 85.5103 6.08 83.2603 6.08ZM85.9423 10.886H89.5963C89.5963 11.714 88.9483 14.234 83.7823 14.234H83.1163C78.1843 14.234 76.9603 11.534 76.9603 9.14V8.888C76.9603 6.638 78.0763 3.794 82.8103 3.794H83.6023C88.7143 3.794 89.6323 6.638 89.6323 9.428V9.752H80.5423C80.6863 10.904 81.4243 11.84 83.5663 11.84C85.6003 11.84 85.8523 11.048 85.9423 10.886ZM101.216 9.014V8.96C101.216 7.88 100.712 6.422 98.5161 6.422H98.3361C96.2301 6.422 95.5641 7.808 95.5641 8.96V9.014C95.5641 10.112 96.2301 11.552 98.3361 11.552H98.5161C100.712 11.552 101.216 10.04 101.216 9.014ZM92.0721 17.438V4.01H95.5461V5.288C95.9781 4.82 97.2921 3.812 99.5601 3.812H99.7941C103.61 3.812 104.852 6.422 104.852 8.798V9.104C104.852 11.282 103.574 14.198 99.7761 14.198H99.5241C97.2381 14.198 96.0141 13.154 95.5821 12.722V17.438H92.0721ZM112.497 14V4.01H124.053V14H120.543V6.674H116.007V14H112.497ZM132.778 6.08C130.96 6.08 130.276 6.818 130.096 7.862H135.388C135.388 7.124 135.028 6.08 132.778 6.08ZM135.46 10.886H139.114C139.114 11.714 138.466 14.234 133.3 14.234H132.634C127.702 14.234 126.478 11.534 126.478 9.14V8.888C126.478 6.638 127.594 3.794 132.328 3.794H133.12C138.232 3.794 139.15 6.638 139.15 9.428V9.752H130.06C130.204 10.904 130.942 11.84 133.084 11.84C135.118 11.84 135.37 11.048 135.46 10.886ZM150.734 9.014V8.96C150.734 7.88 150.23 6.422 148.034 6.422H147.854C145.748 6.422 145.082 7.808 145.082 8.96V9.014C145.082 10.112 145.748 11.552 147.854 11.552H148.034C150.23 11.552 150.734 10.04 150.734 9.014ZM141.59 17.438V4.01H145.064V5.288C145.496 4.82 146.81 3.812 149.078 3.812H149.312C153.128 3.812 154.37 6.422 154.37 8.798V9.104C154.37 11.282 153.092 14.198 149.294 14.198H149.042C146.756 14.198 145.532 13.154 145.1 12.722V17.438H141.59ZM162.626 6.08C160.808 6.08 160.124 6.818 159.944 7.862H165.236C165.236 7.124 164.876 6.08 162.626 6.08ZM165.308 10.886H168.962C168.962 11.714 168.314 14.234 163.148 14.234H162.482C157.55 14.234 156.326 11.534 156.326 9.14V8.888C156.326 6.638 157.442 3.794 162.176 3.794H162.968C168.08 3.794 168.998 6.638 168.998 9.428V9.752H159.908C160.052 10.904 160.79 11.84 162.932 11.84C164.966 11.84 165.218 11.048 165.308 10.886ZM174.641 7.268V14H171.401V4.01H176.351L179.321 10.382L182.291 4.01H187.061V14H183.551V7.268L180.437 14H177.755L174.641 7.268ZM195.672 6.08C193.854 6.08 193.17 6.818 192.99 7.862H198.282C198.282 7.124 197.922 6.08 195.672 6.08ZM198.354 10.886H202.008C202.008 11.714 201.36 14.234 196.194 14.234H195.528C190.596 14.234 189.372 11.534 189.372 9.14V8.888C189.372 6.638 190.488 3.794 195.222 3.794H196.014C201.126 3.794 202.044 6.638 202.044 9.428V9.752H192.954C193.098 10.904 193.836 11.84 195.978 11.84C198.012 11.84 198.264 11.048 198.354 10.886ZM207.958 14H204.448V4.01H207.958V7.646H212.854V4.01H216.364V14H212.854V10.31H207.958V14Z" fill="url(#paint0_linear_41_163)"/>
<path d="M14.4372 14H0.109248V11.84C0.109248 10.022 0.379248 8.294 5.76125 6.656C6.33725 6.458 7.52525 6.17 8.06525 6.026C9.79325 5.594 10.1892 5.252 10.1892 4.622C10.1892 3.812 9.63125 3.308 7.39925 3.308C4.66325 3.308 4.32125 4.712 4.26725 5.432H0.325248V5.306C0.325248 3.416 1.38725 0.446 6.87725 0.446H7.68725C12.5832 0.446 14.1312 2.156 14.1312 4.586V4.73C14.1312 7.088 12.7452 8.078 9.03725 8.798L6.40925 9.356C3.78125 9.986 3.43925 10.418 3.43925 10.796H14.4372V14ZM20.8078 10.508V14H16.6138V10.508H20.8078ZM40.24 14V3.56H34.48C34.48 7.214 34.318 10.004 33.832 11.462C33.4 12.74 32.626 14 29.962 14H28.63V10.85H28.756C29.854 10.85 30.304 10.346 30.52 9.788C30.88 8.852 30.97 7.574 30.97 0.608H43.948V14H40.24ZM55.4777 7.952L50.6537 14H47.0537V4.01H50.5637V10.058L55.3877 4.01H58.9877V14H55.4777V7.952ZM61.0792 16.124V11.336H62.2852C62.9692 9.968 63.0772 6.998 63.1672 4.01H73.7332V11.336H75.5332V16.124H72.2032V14H64.4092V16.124H61.0792ZM65.5972 11.336H70.2232V6.674H66.3172C66.2632 7.97 66.0832 9.95 65.5972 11.336ZM83.2603 6.08C81.4423 6.08 80.7583 6.818 80.5783 7.862H85.8703C85.8703 7.124 85.5103 6.08 83.2603 6.08ZM85.9423 10.886H89.5963C89.5963 11.714 88.9483 14.234 83.7823 14.234H83.1163C78.1843 14.234 76.9603 11.534 76.9603 9.14V8.888C76.9603 6.638 78.0763 3.794 82.8103 3.794H83.6023C88.7143 3.794 89.6323 6.638 89.6323 9.428V9.752H80.5423C80.6863 10.904 81.4243 11.84 83.5663 11.84C85.6003 11.84 85.8523 11.048 85.9423 10.886ZM101.216 9.014V8.96C101.216 7.88 100.712 6.422 98.5161 6.422H98.3361C96.2301 6.422 95.5641 7.808 95.5641 8.96V9.014C95.5641 10.112 96.2301 11.552 98.3361 11.552H98.5161C100.712 11.552 101.216 10.04 101.216 9.014ZM92.0721 17.438V4.01H95.5461V5.288C95.9781 4.82 97.2921 3.812 99.5601 3.812H99.7941C103.61 3.812 104.852 6.422 104.852 8.798V9.104C104.852 11.282 103.574 14.198 99.7761 14.198H99.5241C97.2381 14.198 96.0141 13.154 95.5821 12.722V17.438H92.0721ZM112.497 14V4.01H124.053V14H120.543V6.674H116.007V14H112.497ZM132.778 6.08C130.96 6.08 130.276 6.818 130.096 7.862H135.388C135.388 7.124 135.028 6.08 132.778 6.08ZM135.46 10.886H139.114C139.114 11.714 138.466 14.234 133.3 14.234H132.634C127.702 14.234 126.478 11.534 126.478 9.14V8.888C126.478 6.638 127.594 3.794 132.328 3.794H133.12C138.232 3.794 139.15 6.638 139.15 9.428V9.752H130.06C130.204 10.904 130.942 11.84 133.084 11.84C135.118 11.84 135.37 11.048 135.46 10.886ZM150.734 9.014V8.96C150.734 7.88 150.23 6.422 148.034 6.422H147.854C145.748 6.422 145.082 7.808 145.082 8.96V9.014C145.082 10.112 145.748 11.552 147.854 11.552H148.034C150.23 11.552 150.734 10.04 150.734 9.014ZM141.59 17.438V4.01H145.064V5.288C145.496 4.82 146.81 3.812 149.078 3.812H149.312C153.128 3.812 154.37 6.422 154.37 8.798V9.104C154.37 11.282 153.092 14.198 149.294 14.198H149.042C146.756 14.198 145.532 13.154 145.1 12.722V17.438H141.59ZM162.626 6.08C160.808 6.08 160.124 6.818 159.944 7.862H165.236C165.236 7.124 164.876 6.08 162.626 6.08ZM165.308 10.886H168.962C168.962 11.714 168.314 14.234 163.148 14.234H162.482C157.55 14.234 156.326 11.534 156.326 9.14V8.888C156.326 6.638 157.442 3.794 162.176 3.794H162.968C168.08 3.794 168.998 6.638 168.998 9.428V9.752H159.908C160.052 10.904 160.79 11.84 162.932 11.84C164.966 11.84 165.218 11.048 165.308 10.886ZM174.641 7.268V14H171.401V4.01H176.351L179.321 10.382L182.291 4.01H187.061V14H183.551V7.268L180.437 14H177.755L174.641 7.268ZM195.672 6.08C193.854 6.08 193.17 6.818 192.99 7.862H198.282C198.282 7.124 197.922 6.08 195.672 6.08ZM198.354 10.886H202.008C202.008 11.714 201.36 14.234 196.194 14.234H195.528C190.596 14.234 189.372 11.534 189.372 9.14V8.888C189.372 6.638 190.488 3.794 195.222 3.794H196.014C201.126 3.794 202.044 6.638 202.044 9.428V9.752H192.954C193.098 10.904 193.836 11.84 195.978 11.84C198.012 11.84 198.264 11.048 198.354 10.886ZM207.958 14H204.448V4.01H207.958V7.646H212.854V4.01H216.364V14H212.854V10.31H207.958V14Z" fill="url(#paint1_radial_41_163)" style="mix-blend-mode:overlay"/>
<path d="M14.4372 14H0.109248V11.84C0.109248 10.022 0.379248 8.294 5.76125 6.656C6.33725 6.458 7.52525 6.17 8.06525 6.026C9.79325 5.594 10.1892 5.252 10.1892 4.622C10.1892 3.812 9.63125 3.308 7.39925 3.308C4.66325 3.308 4.32125 4.712 4.26725 5.432H0.325248V5.306C0.325248 3.416 1.38725 0.446 6.87725 0.446H7.68725C12.5832 0.446 14.1312 2.156 14.1312 4.586V4.73C14.1312 7.088 12.7452 8.078 9.03725 8.798L6.40925 9.356C3.78125 9.986 3.43925 10.418 3.43925 10.796H14.4372V14ZM20.8078 10.508V14H16.6138V10.508H20.8078ZM40.24 14V3.56H34.48C34.48 7.214 34.318 10.004 33.832 11.462C33.4 12.74 32.626 14 29.962 14H28.63V10.85H28.756C29.854 10.85 30.304 10.346 30.52 9.788C30.88 8.852 30.97 7.574 30.97 0.608H43.948V14H40.24ZM55.4777 7.952L50.6537 14H47.0537V4.01H50.5637V10.058L55.3877 4.01H58.9877V14H55.4777V7.952ZM61.0792 16.124V11.336H62.2852C62.9692 9.968 63.0772 6.998 63.1672 4.01H73.7332V11.336H75.5332V16.124H72.2032V14H64.4092V16.124H61.0792ZM65.5972 11.336H70.2232V6.674H66.3172C66.2632 7.97 66.0832 9.95 65.5972 11.336ZM83.2603 6.08C81.4423 6.08 80.7583 6.818 80.5783 7.862H85.8703C85.8703 7.124 85.5103 6.08 83.2603 6.08ZM85.9423 10.886H89.5963C89.5963 11.714 88.9483 14.234 83.7823 14.234H83.1163C78.1843 14.234 76.9603 11.534 76.9603 9.14V8.888C76.9603 6.638 78.0763 3.794 82.8103 3.794H83.6023C88.7143 3.794 89.6323 6.638 89.6323 9.428V9.752H80.5423C80.6863 10.904 81.4243 11.84 83.5663 11.84C85.6003 11.84 85.8523 11.048 85.9423 10.886ZM101.216 9.014V8.96C101.216 7.88 100.712 6.422 98.5161 6.422H98.3361C96.2301 6.422 95.5641 7.808 95.5641 8.96V9.014C95.5641 10.112 96.2301 11.552 98.3361 11.552H98.5161C100.712 11.552 101.216 10.04 101.216 9.014ZM92.0721 17.438V4.01H95.5461V5.288C95.9781 4.82 97.2921 3.812 99.5601 3.812H99.7941C103.61 3.812 104.852 6.422 104.852 8.798V9.104C104.852 11.282 103.574 14.198 99.7761 14.198H99.5241C97.2381 14.198 96.0141 13.154 95.5821 12.722V17.438H92.0721ZM112.497 14V4.01H124.053V14H120.543V6.674H116.007V14H112.497ZM132.778 6.08C130.96 6.08 130.276 6.818 130.096 7.862H135.388C135.388 7.124 135.028 6.08 132.778 6.08ZM135.46 10.886H139.114C139.114 11.714 138.466 14.234 133.3 14.234H132.634C127.702 14.234 126.478 11.534 126.478 9.14V8.888C126.478 6.638 127.594 3.794 132.328 3.794H133.12C138.232 3.794 139.15 6.638 139.15 9.428V9.752H130.06C130.204 10.904 130.942 11.84 133.084 11.84C135.118 11.84 135.37 11.048 135.46 10.886ZM150.734 9.014V8.96C150.734 7.88 150.23 6.422 148.034 6.422H147.854C145.748 6.422 145.082 7.808 145.082 8.96V9.014C145.082 10.112 145.748 11.552 147.854 11.552H148.034C150.23 11.552 150.734 10.04 150.734 9.014ZM141.59 17.438V4.01H145.064V5.288C145.496 4.82 146.81 3.812 149.078 3.812H149.312C153.128 3.812 154.37 6.422 154.37 8.798V9.104C154.37 11.282 153.092 14.198 149.294 14.198H149.042C146.756 14.198 145.532 13.154 145.1 12.722V17.438H141.59ZM162.626 6.08C160.808 6.08 160.124 6.818 159.944 7.862H165.236C165.236 7.124 164.876 6.08 162.626 6.08ZM165.308 10.886H168.962C168.962 11.714 168.314 14.234 163.148 14.234H162.482C157.55 14.234 156.326 11.534 156.326 9.14V8.888C156.326 6.638 157.442 3.794 162.176 3.794H162.968C168.08 3.794 168.998 6.638 168.998 9.428V9.752H159.908C160.052 10.904 160.79 11.84 162.932 11.84C164.966 11.84 165.218 11.048 165.308 10.886ZM174.641 7.268V14H171.401V4.01H176.351L179.321 10.382L182.291 4.01H187.061V14H183.551V7.268L180.437 14H177.755L174.641 7.268ZM195.672 6.08C193.854 6.08 193.17 6.818 192.99 7.862H198.282C198.282 7.124 197.922 6.08 195.672 6.08ZM198.354 10.886H202.008C202.008 11.714 201.36 14.234 196.194 14.234H195.528C190.596 14.234 189.372 11.534 189.372 9.14V8.888C189.372 6.638 190.488 3.794 195.222 3.794H196.014C201.126 3.794 202.044 6.638 202.044 9.428V9.752H192.954C193.098 10.904 193.836 11.84 195.978 11.84C198.012 11.84 198.264 11.048 198.354 10.886ZM207.958 14H204.448V4.01H207.958V7.646H212.854V4.01H216.364V14H212.854V10.31H207.958V14Z" fill="url(#paint2_radial_41_163)"/>
<path d="M14.4372 14H0.109248V11.84C0.109248 10.022 0.379248 8.294 5.76125 6.656C6.33725 6.458 7.52525 6.17 8.06525 6.026C9.79325 5.594 10.1892 5.252 10.1892 4.622C10.1892 3.812 9.63125 3.308 7.39925 3.308C4.66325 3.308 4.32125 4.712 4.26725 5.432H0.325248V5.306C0.325248 3.416 1.38725 0.446 6.87725 0.446H7.68725C12.5832 0.446 14.1312 2.156 14.1312 4.586V4.73C14.1312 7.088 12.7452 8.078 9.03725 8.798L6.40925 9.356C3.78125 9.986 3.43925 10.418 3.43925 10.796H14.4372V14ZM20.8078 10.508V14H16.6138V10.508H20.8078ZM40.24 14V3.56H34.48C34.48 7.214 34.318 10.004 33.832 11.462C33.4 12.74 32.626 14 29.962 14H28.63V10.85H28.756C29.854 10.85 30.304 10.346 30.52 9.788C30.88 8.852 30.97 7.574 30.97 0.608H43.948V14H40.24ZM55.4777 7.952L50.6537 14H47.0537V4.01H50.5637V10.058L55.3877 4.01H58.9877V14H55.4777V7.952ZM61.0792 16.124V11.336H62.2852C62.9692 9.968 63.0772 6.998 63.1672 4.01H73.7332V11.336H75.5332V16.124H72.2032V14H64.4092V16.124H61.0792ZM65.5972 11.336H70.2232V6.674H66.3172C66.2632 7.97 66.0832 9.95 65.5972 11.336ZM83.2603 6.08C81.4423 6.08 80.7583 6.818 80.5783 7.862H85.8703C85.8703 7.124 85.5103 6.08 83.2603 6.08ZM85.9423 10.886H89.5963C89.5963 11.714 88.9483 14.234 83.7823 14.234H83.1163C78.1843 14.234 76.9603 11.534 76.9603 9.14V8.888C76.9603 6.638 78.0763 3.794 82.8103 3.794H83.6023C88.7143 3.794 89.6323 6.638 89.6323 9.428V9.752H80.5423C80.6863 10.904 81.4243 11.84 83.5663 11.84C85.6003 11.84 85.8523 11.048 85.9423 10.886ZM101.216 9.014V8.96C101.216 7.88 100.712 6.422 98.5161 6.422H98.3361C96.2301 6.422 95.5641 7.808 95.5641 8.96V9.014C95.5641 10.112 96.2301 11.552 98.3361 11.552H98.5161C100.712 11.552 101.216 10.04 101.216 9.014ZM92.0721 17.438V4.01H95.5461V5.288C95.9781 4.82 97.2921 3.812 99.5601 3.812H99.7941C103.61 3.812 104.852 6.422 104.852 8.798V9.104C104.852 11.282 103.574 14.198 99.7761 14.198H99.5241C97.2381 14.198 96.0141 13.154 95.5821 12.722V17.438H92.0721ZM112.497 14V4.01H124.053V14H120.543V6.674H116.007V14H112.497ZM132.778 6.08C130.96 6.08 130.276 6.818 130.096 7.862H135.388C135.388 7.124 135.028 6.08 132.778 6.08ZM135.46 10.886H139.114C139.114 11.714 138.466 14.234 133.3 14.234H132.634C127.702 14.234 126.478 11.534 126.478 9.14V8.888C126.478 6.638 127.594 3.794 132.328 3.794H133.12C138.232 3.794 139.15 6.638 139.15 9.428V9.752H130.06C130.204 10.904 130.942 11.84 133.084 11.84C135.118 11.84 135.37 11.048 135.46 10.886ZM150.734 9.014V8.96C150.734 7.88 150.23 6.422 148.034 6.422H147.854C145.748 6.422 145.082 7.808 145.082 8.96V9.014C145.082 10.112 145.748 11.552 147.854 11.552H148.034C150.23 11.552 150.734 10.04 150.734 9.014ZM141.59 17.438V4.01H145.064V5.288C145.496 4.82 146.81 3.812 149.078 3.812H149.312C153.128 3.812 154.37 6.422 154.37 8.798V9.104C154.37 11.282 153.092 14.198 149.294 14.198H149.042C146.756 14.198 145.532 13.154 145.1 12.722V17.438H141.59ZM162.626 6.08C160.808 6.08 160.124 6.818 159.944 7.862H165.236C165.236 7.124 164.876 6.08 162.626 6.08ZM165.308 10.886H168.962C168.962 11.714 168.314 14.234 163.148 14.234H162.482C157.55 14.234 156.326 11.534 156.326 9.14V8.888C156.326 6.638 157.442 3.794 162.176 3.794H162.968C168.08 3.794 168.998 6.638 168.998 9.428V9.752H159.908C160.052 10.904 160.79 11.84 162.932 11.84C164.966 11.84 165.218 11.048 165.308 10.886ZM174.641 7.268V14H171.401V4.01H176.351L179.321 10.382L182.291 4.01H187.061V14H183.551V7.268L180.437 14H177.755L174.641 7.268ZM195.672 6.08C193.854 6.08 193.17 6.818 192.99 7.862H198.282C198.282 7.124 197.922 6.08 195.672 6.08ZM198.354 10.886H202.008C202.008 11.714 201.36 14.234 196.194 14.234H195.528C190.596 14.234 189.372 11.534 189.372 9.14V8.888C189.372 6.638 190.488 3.794 195.222 3.794H196.014C201.126 3.794 202.044 6.638 202.044 9.428V9.752H192.954C193.098 10.904 193.836 11.84 195.978 11.84C198.012 11.84 198.264 11.048 198.354 10.886ZM207.958 14H204.448V4.01H207.958V7.646H212.854V4.01H216.364V14H212.854V10.31H207.958V14Z" fill="#C1A875" style="mix-blend-mode:color"/>
<defs>
<linearGradient id="paint0_linear_41_163" x1="1" y1="6" x2="218" y2="6.00001" gradientUnits="userSpaceOnUse">
<stop stop-color="#576167"/>
<stop offset="0.191294" stop-color="#9EA1A2"/>
<stop offset="0.396166" stop-color="#848989"/>
<stop offset="0.62055" stop-color="#576167"/>
<stop offset="0.830299" stop-color="#757A7C"/>
<stop offset="1" stop-color="#576167"/>
</linearGradient>
<radialGradient id="paint1_radial_41_163" cx="0" cy="0" r="1" gradientUnits="userSpaceOnUse" gradientTransform="translate(116.563 -3.20225) rotate(90) scale(17.8315 164.168)">
<stop stop-color="white"/>
<stop offset="1" stop-color="white" stop-opacity="0"/>
</radialGradient>
<radialGradient id="paint2_radial_41_163" cx="0" cy="0" r="1" gradientUnits="userSpaceOnUse" gradientTransform="translate(128.838 23.6629) rotate(-89.2211) scale(25.5529 234.734)">
<stop stop-color="white"/>
<stop offset="1" stop-color="white" stop-opacity="0"/>
</radialGradient>
</defs>
</svg>
