<svg width="329" height="18" viewBox="0 0 329 18" fill="none" xmlns="http://www.w3.org/2000/svg">
<path d="M7.76925 0.481999H8.52525C14.5192 0.481999 15.0772 2.714 15.0772 4.082V4.298C15.0772 5.756 13.7272 6.746 12.3952 6.98C14.0152 7.268 15.4012 8.33 15.4012 9.968V10.202C15.4012 11.66 14.6632 14.216 8.52525 14.216H7.76925C1.59525 14.216 0.893248 11.66 0.893248 10.202V9.968C0.893248 8.33 2.29725 7.268 3.88125 6.98C2.58525 6.746 1.21725 5.846 1.21725 4.298V4.082C1.21725 2.714 1.81125 0.481999 7.76925 0.481999ZM8.14725 3.2C5.48325 3.2 5.12325 3.938 5.12325 4.442V4.514C5.12325 5.036 5.50125 5.684 8.14725 5.684C10.8112 5.684 11.1532 5.036 11.1532 4.514V4.442C11.1532 3.938 10.8292 3.2 8.14725 3.2ZM8.14725 8.42C5.19525 8.42 4.79925 9.212 4.79925 9.77V9.824C4.79925 10.436 5.19525 11.336 8.14725 11.336C11.0992 11.336 11.4952 10.436 11.4952 9.824V9.77C11.4952 9.212 11.0992 8.42 8.14725 8.42ZM21.8078 10.508V14H17.6138V10.508H21.8078ZM40.808 14L34.364 7.7V14H30.656V0.608H34.364V6.116L40.628 0.608H45.344L38.288 6.746L45.65 14H40.808ZM46.6476 17.438V14.936H48.8436C49.1856 14.936 49.3656 14.792 49.3656 14.522V14.504C49.3656 14.288 49.3116 14.09 49.0416 13.532L44.7576 4.01H48.6096L51.3816 11.174L54.1356 4.01H57.6636L53.0916 15.008C52.3896 16.646 51.5256 17.438 49.8696 17.438H46.6476ZM67.2828 14V6.674H63.3228C63.3228 9.356 63.2328 10.85 62.8908 11.768C62.5128 12.776 62.0088 14 59.3628 14H58.2648V11.39H58.4808C59.1108 11.39 59.5788 11.174 59.7768 10.256C59.9208 9.482 59.9748 8.636 59.9748 4.01H70.7928V14H67.2828ZM73.7002 14V4.01H77.2102V6.872H79.9462C83.3662 6.872 84.6982 8.384 84.6982 10.292V10.508C84.6982 12.596 83.3662 14 79.9462 14H73.7002ZM77.2102 11.624H79.5142C80.2342 11.624 81.0982 11.408 81.0982 10.436V10.382C81.0982 9.482 80.2342 9.248 79.5142 9.248H77.2102V11.624ZM89.0954 14V6.674H85.2254V4.01H96.4754V6.674H92.6054V14H89.0954ZM99.1359 17.438V14.936H101.332C101.674 14.936 101.854 14.792 101.854 14.522V14.504C101.854 14.288 101.8 14.09 101.53 13.532L97.2459 4.01H101.098L103.87 11.174L106.624 4.01H110.152L105.58 15.008C104.878 16.646 104.014 17.438 102.358 17.438H99.1359ZM121.113 9.014V8.96C121.113 7.88 120.609 6.422 118.413 6.422H118.233C116.127 6.422 115.461 7.808 115.461 8.96V9.014C115.461 10.112 116.127 11.552 118.233 11.552H118.413C120.609 11.552 121.113 10.04 121.113 9.014ZM111.969 17.438V4.01H115.443V5.288C115.875 4.82 117.189 3.812 119.457 3.812H119.691C123.507 3.812 124.749 6.422 124.749 8.798V9.104C124.749 11.282 123.471 14.198 119.673 14.198H119.421C117.135 14.198 115.911 13.154 115.479 12.722V17.438H111.969ZM130.7 14H127.19V4.01H130.7V7.646H135.596V4.01H139.106V14H135.596V10.31H130.7V14ZM142.026 14V4.01H145.536V6.872H148.272C151.692 6.872 153.024 8.384 153.024 10.292V10.508C153.024 12.596 151.692 14 148.272 14H142.026ZM145.536 11.624H147.84C148.56 11.624 149.424 11.408 149.424 10.436V10.382C149.424 9.482 148.56 9.248 147.84 9.248H145.536V11.624ZM157.812 4.01V14H154.302V4.01H157.812ZM169.153 7.952L164.329 14H160.729V4.01H164.239V10.058L169.063 4.01H172.663V14H169.153V7.952ZM166.921 2.984H166.381C163.519 2.984 163.015 1.04 163.015 0.104V0.0499994H165.661C165.661 0.284 165.769 1.004 166.669 1.004C167.515 1.004 167.641 0.284 167.641 0.0499994H170.251V0.104C170.251 1.04 169.531 2.984 166.921 2.984ZM185.502 12.002C187.554 12.002 188.256 10.706 188.256 9.95V9.176C187.95 9.302 187.068 9.482 186.06 9.644C184.368 9.932 183.828 10.166 183.828 10.868V10.904C183.828 11.534 184.278 12.002 185.502 12.002ZM188.364 12.614C187.932 13.136 186.852 14.198 184.512 14.198H184.224C181.434 14.198 180.282 12.686 180.282 11.03V10.958C180.282 9.23 181.38 8.168 184.764 7.88L187.5 7.646C188.058 7.592 188.256 7.412 188.256 6.998C188.256 6.53 188.112 6.026 186.168 6.026C184.332 6.026 184.152 6.746 184.152 7.124H180.552V7.088C180.552 6.098 180.948 3.776 185.862 3.776H186.42C191.37 3.776 191.676 5.81 191.676 7.142V10.436C191.676 11.066 191.802 11.318 192.504 11.318H192.882V14H190.038C188.994 14 188.508 13.262 188.364 12.614ZM198.124 7.268V14H194.884V4.01H199.834L202.804 10.382L205.774 4.01H210.544V14H207.034V7.268L203.92 14H201.238L198.124 7.268ZM225.815 9.122V9.356C225.815 13.1 222.971 14.27 219.569 14.27H219.209C215.699 14.27 212.837 12.902 212.837 8.15V7.088C212.837 2.282 215.231 0.698 219.911 0.698H220.721C221.837 0.698 221.909 0.589999 221.945 0.373999H225.383C225.383 2.48 224.591 3.362 222.143 3.362H219.911C217.319 3.362 216.329 4.172 216.275 5.99C217.193 5.036 218.597 4.388 220.811 4.388H220.919C223.295 4.388 225.815 5.594 225.815 9.122ZM219.245 11.642H219.443C221.027 11.642 222.197 10.85 222.197 9.212C222.197 7.628 221.009 6.854 219.461 6.854H219.245C217.517 6.854 216.455 7.592 216.455 9.23C216.455 10.886 217.535 11.642 219.245 11.642ZM232.858 12.002C234.91 12.002 235.612 10.706 235.612 9.95V9.176C235.306 9.302 234.424 9.482 233.416 9.644C231.724 9.932 231.184 10.166 231.184 10.868V10.904C231.184 11.534 231.634 12.002 232.858 12.002ZM235.72 12.614C235.288 13.136 234.208 14.198 231.868 14.198H231.58C228.79 14.198 227.638 12.686 227.638 11.03V10.958C227.638 9.23 228.736 8.168 232.12 7.88L234.856 7.646C235.414 7.592 235.612 7.412 235.612 6.998C235.612 6.53 235.468 6.026 233.524 6.026C231.688 6.026 231.508 6.746 231.508 7.124H227.908V7.088C227.908 6.098 228.304 3.776 233.218 3.776H233.776C238.726 3.776 239.032 5.81 239.032 7.142V10.436C239.032 11.066 239.158 11.318 239.86 11.318H240.238V14H237.394C236.35 14 235.864 13.262 235.72 12.614ZM250.591 10.076H254.263C254.263 11.588 253.363 14.27 248.557 14.27H247.675C242.689 14.27 241.753 11.03 241.753 9.14V8.888C241.753 6.998 242.635 3.74 247.657 3.74H248.485C253.309 3.74 254.263 6.368 254.263 7.808V7.826H250.591C250.537 7.538 250.195 6.296 248.125 6.296H247.945C245.875 6.296 245.389 7.718 245.389 8.924V8.942C245.389 10.184 245.983 11.66 248.017 11.66H248.197C250.285 11.66 250.591 10.31 250.591 10.076ZM265.005 10.076H268.677C268.677 11.588 267.777 14.27 262.971 14.27H262.089C257.103 14.27 256.167 11.03 256.167 9.14V8.888C256.167 6.998 257.049 3.74 262.071 3.74H262.899C267.723 3.74 268.677 6.368 268.677 7.808V7.826H265.005C264.951 7.538 264.609 6.296 262.539 6.296H262.359C260.289 6.296 259.803 7.718 259.803 8.924V8.942C259.803 10.184 260.397 11.66 262.431 11.66H262.611C264.699 11.66 265.005 10.31 265.005 10.076ZM275.783 12.002C277.835 12.002 278.537 10.706 278.537 9.95V9.176C278.231 9.302 277.349 9.482 276.341 9.644C274.649 9.932 274.109 10.166 274.109 10.868V10.904C274.109 11.534 274.559 12.002 275.783 12.002ZM278.645 12.614C278.213 13.136 277.133 14.198 274.793 14.198H274.505C271.715 14.198 270.563 12.686 270.563 11.03V10.958C270.563 9.23 271.661 8.168 275.045 7.88L277.781 7.646C278.339 7.592 278.537 7.412 278.537 6.998C278.537 6.53 278.393 6.026 276.449 6.026C274.613 6.026 274.433 6.746 274.433 7.124H270.833V7.088C270.833 6.098 271.229 3.776 276.143 3.776H276.701C281.651 3.776 281.957 5.81 281.957 7.142V10.436C281.957 11.066 282.083 11.318 282.785 11.318H283.163V14H280.319C279.275 14 278.789 13.262 278.645 12.614ZM284.689 16.124V11.336H285.895C286.579 9.968 286.687 6.998 286.777 4.01H297.343V11.336H299.143V16.124H295.813V14H288.019V16.124H284.689ZM289.207 11.336H293.833V6.674H289.927C289.873 7.97 289.693 9.95 289.207 11.336ZM307.32 14.27H306.762C301.38 14.27 300.552 10.994 300.552 9.176V8.924C300.552 7.124 301.38 3.74 306.744 3.74H307.338C312.882 3.74 313.53 7.142 313.53 8.906V9.194C313.53 10.994 312.882 14.27 307.32 14.27ZM306.942 11.642H307.14C309.354 11.642 309.912 10.058 309.912 8.96C309.912 7.826 309.354 6.314 307.14 6.314H306.942C304.638 6.314 304.17 7.826 304.17 8.96C304.17 10.058 304.638 11.642 306.942 11.642ZM325.124 9.014V8.96C325.124 7.88 324.62 6.422 322.424 6.422H322.244C320.138 6.422 319.472 7.808 319.472 8.96V9.014C319.472 10.112 320.138 11.552 322.244 11.552H322.424C324.62 11.552 325.124 10.04 325.124 9.014ZM315.98 17.438V4.01H319.454V5.288C319.886 4.82 321.2 3.812 323.468 3.812H323.702C327.518 3.812 328.76 6.422 328.76 8.798V9.104C328.76 11.282 327.482 14.198 323.684 14.198H323.432C321.146 14.198 319.922 13.154 319.49 12.722V17.438H315.98Z" fill="url(#paint0_linear_41_182)"/>
<path d="M7.76925 0.481999H8.52525C14.5192 0.481999 15.0772 2.714 15.0772 4.082V4.298C15.0772 5.756 13.7272 6.746 12.3952 6.98C14.0152 7.268 15.4012 8.33 15.4012 9.968V10.202C15.4012 11.66 14.6632 14.216 8.52525 14.216H7.76925C1.59525 14.216 0.893248 11.66 0.893248 10.202V9.968C0.893248 8.33 2.29725 7.268 3.88125 6.98C2.58525 6.746 1.21725 5.846 1.21725 4.298V4.082C1.21725 2.714 1.81125 0.481999 7.76925 0.481999ZM8.14725 3.2C5.48325 3.2 5.12325 3.938 5.12325 4.442V4.514C5.12325 5.036 5.50125 5.684 8.14725 5.684C10.8112 5.684 11.1532 5.036 11.1532 4.514V4.442C11.1532 3.938 10.8292 3.2 8.14725 3.2ZM8.14725 8.42C5.19525 8.42 4.79925 9.212 4.79925 9.77V9.824C4.79925 10.436 5.19525 11.336 8.14725 11.336C11.0992 11.336 11.4952 10.436 11.4952 9.824V9.77C11.4952 9.212 11.0992 8.42 8.14725 8.42ZM21.8078 10.508V14H17.6138V10.508H21.8078ZM40.808 14L34.364 7.7V14H30.656V0.608H34.364V6.116L40.628 0.608H45.344L38.288 6.746L45.65 14H40.808ZM46.6476 17.438V14.936H48.8436C49.1856 14.936 49.3656 14.792 49.3656 14.522V14.504C49.3656 14.288 49.3116 14.09 49.0416 13.532L44.7576 4.01H48.6096L51.3816 11.174L54.1356 4.01H57.6636L53.0916 15.008C52.3896 16.646 51.5256 17.438 49.8696 17.438H46.6476ZM67.2828 14V6.674H63.3228C63.3228 9.356 63.2328 10.85 62.8908 11.768C62.5128 12.776 62.0088 14 59.3628 14H58.2648V11.39H58.4808C59.1108 11.39 59.5788 11.174 59.7768 10.256C59.9208 9.482 59.9748 8.636 59.9748 4.01H70.7928V14H67.2828ZM73.7002 14V4.01H77.2102V6.872H79.9462C83.3662 6.872 84.6982 8.384 84.6982 10.292V10.508C84.6982 12.596 83.3662 14 79.9462 14H73.7002ZM77.2102 11.624H79.5142C80.2342 11.624 81.0982 11.408 81.0982 10.436V10.382C81.0982 9.482 80.2342 9.248 79.5142 9.248H77.2102V11.624ZM89.0954 14V6.674H85.2254V4.01H96.4754V6.674H92.6054V14H89.0954ZM99.1359 17.438V14.936H101.332C101.674 14.936 101.854 14.792 101.854 14.522V14.504C101.854 14.288 101.8 14.09 101.53 13.532L97.2459 4.01H101.098L103.87 11.174L106.624 4.01H110.152L105.58 15.008C104.878 16.646 104.014 17.438 102.358 17.438H99.1359ZM121.113 9.014V8.96C121.113 7.88 120.609 6.422 118.413 6.422H118.233C116.127 6.422 115.461 7.808 115.461 8.96V9.014C115.461 10.112 116.127 11.552 118.233 11.552H118.413C120.609 11.552 121.113 10.04 121.113 9.014ZM111.969 17.438V4.01H115.443V5.288C115.875 4.82 117.189 3.812 119.457 3.812H119.691C123.507 3.812 124.749 6.422 124.749 8.798V9.104C124.749 11.282 123.471 14.198 119.673 14.198H119.421C117.135 14.198 115.911 13.154 115.479 12.722V17.438H111.969ZM130.7 14H127.19V4.01H130.7V7.646H135.596V4.01H139.106V14H135.596V10.31H130.7V14ZM142.026 14V4.01H145.536V6.872H148.272C151.692 6.872 153.024 8.384 153.024 10.292V10.508C153.024 12.596 151.692 14 148.272 14H142.026ZM145.536 11.624H147.84C148.56 11.624 149.424 11.408 149.424 10.436V10.382C149.424 9.482 148.56 9.248 147.84 9.248H145.536V11.624ZM157.812 4.01V14H154.302V4.01H157.812ZM169.153 7.952L164.329 14H160.729V4.01H164.239V10.058L169.063 4.01H172.663V14H169.153V7.952ZM166.921 2.984H166.381C163.519 2.984 163.015 1.04 163.015 0.104V0.0499994H165.661C165.661 0.284 165.769 1.004 166.669 1.004C167.515 1.004 167.641 0.284 167.641 0.0499994H170.251V0.104C170.251 1.04 169.531 2.984 166.921 2.984ZM185.502 12.002C187.554 12.002 188.256 10.706 188.256 9.95V9.176C187.95 9.302 187.068 9.482 186.06 9.644C184.368 9.932 183.828 10.166 183.828 10.868V10.904C183.828 11.534 184.278 12.002 185.502 12.002ZM188.364 12.614C187.932 13.136 186.852 14.198 184.512 14.198H184.224C181.434 14.198 180.282 12.686 180.282 11.03V10.958C180.282 9.23 181.38 8.168 184.764 7.88L187.5 7.646C188.058 7.592 188.256 7.412 188.256 6.998C188.256 6.53 188.112 6.026 186.168 6.026C184.332 6.026 184.152 6.746 184.152 7.124H180.552V7.088C180.552 6.098 180.948 3.776 185.862 3.776H186.42C191.37 3.776 191.676 5.81 191.676 7.142V10.436C191.676 11.066 191.802 11.318 192.504 11.318H192.882V14H190.038C188.994 14 188.508 13.262 188.364 12.614ZM198.124 7.268V14H194.884V4.01H199.834L202.804 10.382L205.774 4.01H210.544V14H207.034V7.268L203.92 14H201.238L198.124 7.268ZM225.815 9.122V9.356C225.815 13.1 222.971 14.27 219.569 14.27H219.209C215.699 14.27 212.837 12.902 212.837 8.15V7.088C212.837 2.282 215.231 0.698 219.911 0.698H220.721C221.837 0.698 221.909 0.589999 221.945 0.373999H225.383C225.383 2.48 224.591 3.362 222.143 3.362H219.911C217.319 3.362 216.329 4.172 216.275 5.99C217.193 5.036 218.597 4.388 220.811 4.388H220.919C223.295 4.388 225.815 5.594 225.815 9.122ZM219.245 11.642H219.443C221.027 11.642 222.197 10.85 222.197 9.212C222.197 7.628 221.009 6.854 219.461 6.854H219.245C217.517 6.854 216.455 7.592 216.455 9.23C216.455 10.886 217.535 11.642 219.245 11.642ZM232.858 12.002C234.91 12.002 235.612 10.706 235.612 9.95V9.176C235.306 9.302 234.424 9.482 233.416 9.644C231.724 9.932 231.184 10.166 231.184 10.868V10.904C231.184 11.534 231.634 12.002 232.858 12.002ZM235.72 12.614C235.288 13.136 234.208 14.198 231.868 14.198H231.58C228.79 14.198 227.638 12.686 227.638 11.03V10.958C227.638 9.23 228.736 8.168 232.12 7.88L234.856 7.646C235.414 7.592 235.612 7.412 235.612 6.998C235.612 6.53 235.468 6.026 233.524 6.026C231.688 6.026 231.508 6.746 231.508 7.124H227.908V7.088C227.908 6.098 228.304 3.776 233.218 3.776H233.776C238.726 3.776 239.032 5.81 239.032 7.142V10.436C239.032 11.066 239.158 11.318 239.86 11.318H240.238V14H237.394C236.35 14 235.864 13.262 235.72 12.614ZM250.591 10.076H254.263C254.263 11.588 253.363 14.27 248.557 14.27H247.675C242.689 14.27 241.753 11.03 241.753 9.14V8.888C241.753 6.998 242.635 3.74 247.657 3.74H248.485C253.309 3.74 254.263 6.368 254.263 7.808V7.826H250.591C250.537 7.538 250.195 6.296 248.125 6.296H247.945C245.875 6.296 245.389 7.718 245.389 8.924V8.942C245.389 10.184 245.983 11.66 248.017 11.66H248.197C250.285 11.66 250.591 10.31 250.591 10.076ZM265.005 10.076H268.677C268.677 11.588 267.777 14.27 262.971 14.27H262.089C257.103 14.27 256.167 11.03 256.167 9.14V8.888C256.167 6.998 257.049 3.74 262.071 3.74H262.899C267.723 3.74 268.677 6.368 268.677 7.808V7.826H265.005C264.951 7.538 264.609 6.296 262.539 6.296H262.359C260.289 6.296 259.803 7.718 259.803 8.924V8.942C259.803 10.184 260.397 11.66 262.431 11.66H262.611C264.699 11.66 265.005 10.31 265.005 10.076ZM275.783 12.002C277.835 12.002 278.537 10.706 278.537 9.95V9.176C278.231 9.302 277.349 9.482 276.341 9.644C274.649 9.932 274.109 10.166 274.109 10.868V10.904C274.109 11.534 274.559 12.002 275.783 12.002ZM278.645 12.614C278.213 13.136 277.133 14.198 274.793 14.198H274.505C271.715 14.198 270.563 12.686 270.563 11.03V10.958C270.563 9.23 271.661 8.168 275.045 7.88L277.781 7.646C278.339 7.592 278.537 7.412 278.537 6.998C278.537 6.53 278.393 6.026 276.449 6.026C274.613 6.026 274.433 6.746 274.433 7.124H270.833V7.088C270.833 6.098 271.229 3.776 276.143 3.776H276.701C281.651 3.776 281.957 5.81 281.957 7.142V10.436C281.957 11.066 282.083 11.318 282.785 11.318H283.163V14H280.319C279.275 14 278.789 13.262 278.645 12.614ZM284.689 16.124V11.336H285.895C286.579 9.968 286.687 6.998 286.777 4.01H297.343V11.336H299.143V16.124H295.813V14H288.019V16.124H284.689ZM289.207 11.336H293.833V6.674H289.927C289.873 7.97 289.693 9.95 289.207 11.336ZM307.32 14.27H306.762C301.38 14.27 300.552 10.994 300.552 9.176V8.924C300.552 7.124 301.38 3.74 306.744 3.74H307.338C312.882 3.74 313.53 7.142 313.53 8.906V9.194C313.53 10.994 312.882 14.27 307.32 14.27ZM306.942 11.642H307.14C309.354 11.642 309.912 10.058 309.912 8.96C309.912 7.826 309.354 6.314 307.14 6.314H306.942C304.638 6.314 304.17 7.826 304.17 8.96C304.17 10.058 304.638 11.642 306.942 11.642ZM325.124 9.014V8.96C325.124 7.88 324.62 6.422 322.424 6.422H322.244C320.138 6.422 319.472 7.808 319.472 8.96V9.014C319.472 10.112 320.138 11.552 322.244 11.552H322.424C324.62 11.552 325.124 10.04 325.124 9.014ZM315.98 17.438V4.01H319.454V5.288C319.886 4.82 321.2 3.812 323.468 3.812H323.702C327.518 3.812 328.76 6.422 328.76 8.798V9.104C328.76 11.282 327.482 14.198 323.684 14.198H323.432C321.146 14.198 319.922 13.154 319.49 12.722V17.438H315.98Z" fill="url(#paint1_radial_41_182)" style="mix-blend-mode:overlay"/>
<path d="M7.76925 0.481999H8.52525C14.5192 0.481999 15.0772 2.714 15.0772 4.082V4.298C15.0772 5.756 13.7272 6.746 12.3952 6.98C14.0152 7.268 15.4012 8.33 15.4012 9.968V10.202C15.4012 11.66 14.6632 14.216 8.52525 14.216H7.76925C1.59525 14.216 0.893248 11.66 0.893248 10.202V9.968C0.893248 8.33 2.29725 7.268 3.88125 6.98C2.58525 6.746 1.21725 5.846 1.21725 4.298V4.082C1.21725 2.714 1.81125 0.481999 7.76925 0.481999ZM8.14725 3.2C5.48325 3.2 5.12325 3.938 5.12325 4.442V4.514C5.12325 5.036 5.50125 5.684 8.14725 5.684C10.8112 5.684 11.1532 5.036 11.1532 4.514V4.442C11.1532 3.938 10.8292 3.2 8.14725 3.2ZM8.14725 8.42C5.19525 8.42 4.79925 9.212 4.79925 9.77V9.824C4.79925 10.436 5.19525 11.336 8.14725 11.336C11.0992 11.336 11.4952 10.436 11.4952 9.824V9.77C11.4952 9.212 11.0992 8.42 8.14725 8.42ZM21.8078 10.508V14H17.6138V10.508H21.8078ZM40.808 14L34.364 7.7V14H30.656V0.608H34.364V6.116L40.628 0.608H45.344L38.288 6.746L45.65 14H40.808ZM46.6476 17.438V14.936H48.8436C49.1856 14.936 49.3656 14.792 49.3656 14.522V14.504C49.3656 14.288 49.3116 14.09 49.0416 13.532L44.7576 4.01H48.6096L51.3816 11.174L54.1356 4.01H57.6636L53.0916 15.008C52.3896 16.646 51.5256 17.438 49.8696 17.438H46.6476ZM67.2828 14V6.674H63.3228C63.3228 9.356 63.2328 10.85 62.8908 11.768C62.5128 12.776 62.0088 14 59.3628 14H58.2648V11.39H58.4808C59.1108 11.39 59.5788 11.174 59.7768 10.256C59.9208 9.482 59.9748 8.636 59.9748 4.01H70.7928V14H67.2828ZM73.7002 14V4.01H77.2102V6.872H79.9462C83.3662 6.872 84.6982 8.384 84.6982 10.292V10.508C84.6982 12.596 83.3662 14 79.9462 14H73.7002ZM77.2102 11.624H79.5142C80.2342 11.624 81.0982 11.408 81.0982 10.436V10.382C81.0982 9.482 80.2342 9.248 79.5142 9.248H77.2102V11.624ZM89.0954 14V6.674H85.2254V4.01H96.4754V6.674H92.6054V14H89.0954ZM99.1359 17.438V14.936H101.332C101.674 14.936 101.854 14.792 101.854 14.522V14.504C101.854 14.288 101.8 14.09 101.53 13.532L97.2459 4.01H101.098L103.87 11.174L106.624 4.01H110.152L105.58 15.008C104.878 16.646 104.014 17.438 102.358 17.438H99.1359ZM121.113 9.014V8.96C121.113 7.88 120.609 6.422 118.413 6.422H118.233C116.127 6.422 115.461 7.808 115.461 8.96V9.014C115.461 10.112 116.127 11.552 118.233 11.552H118.413C120.609 11.552 121.113 10.04 121.113 9.014ZM111.969 17.438V4.01H115.443V5.288C115.875 4.82 117.189 3.812 119.457 3.812H119.691C123.507 3.812 124.749 6.422 124.749 8.798V9.104C124.749 11.282 123.471 14.198 119.673 14.198H119.421C117.135 14.198 115.911 13.154 115.479 12.722V17.438H111.969ZM130.7 14H127.19V4.01H130.7V7.646H135.596V4.01H139.106V14H135.596V10.31H130.7V14ZM142.026 14V4.01H145.536V6.872H148.272C151.692 6.872 153.024 8.384 153.024 10.292V10.508C153.024 12.596 151.692 14 148.272 14H142.026ZM145.536 11.624H147.84C148.56 11.624 149.424 11.408 149.424 10.436V10.382C149.424 9.482 148.56 9.248 147.84 9.248H145.536V11.624ZM157.812 4.01V14H154.302V4.01H157.812ZM169.153 7.952L164.329 14H160.729V4.01H164.239V10.058L169.063 4.01H172.663V14H169.153V7.952ZM166.921 2.984H166.381C163.519 2.984 163.015 1.04 163.015 0.104V0.0499994H165.661C165.661 0.284 165.769 1.004 166.669 1.004C167.515 1.004 167.641 0.284 167.641 0.0499994H170.251V0.104C170.251 1.04 169.531 2.984 166.921 2.984ZM185.502 12.002C187.554 12.002 188.256 10.706 188.256 9.95V9.176C187.95 9.302 187.068 9.482 186.06 9.644C184.368 9.932 183.828 10.166 183.828 10.868V10.904C183.828 11.534 184.278 12.002 185.502 12.002ZM188.364 12.614C187.932 13.136 186.852 14.198 184.512 14.198H184.224C181.434 14.198 180.282 12.686 180.282 11.03V10.958C180.282 9.23 181.38 8.168 184.764 7.88L187.5 7.646C188.058 7.592 188.256 7.412 188.256 6.998C188.256 6.53 188.112 6.026 186.168 6.026C184.332 6.026 184.152 6.746 184.152 7.124H180.552V7.088C180.552 6.098 180.948 3.776 185.862 3.776H186.42C191.37 3.776 191.676 5.81 191.676 7.142V10.436C191.676 11.066 191.802 11.318 192.504 11.318H192.882V14H190.038C188.994 14 188.508 13.262 188.364 12.614ZM198.124 7.268V14H194.884V4.01H199.834L202.804 10.382L205.774 4.01H210.544V14H207.034V7.268L203.92 14H201.238L198.124 7.268ZM225.815 9.122V9.356C225.815 13.1 222.971 14.27 219.569 14.27H219.209C215.699 14.27 212.837 12.902 212.837 8.15V7.088C212.837 2.282 215.231 0.698 219.911 0.698H220.721C221.837 0.698 221.909 0.589999 221.945 0.373999H225.383C225.383 2.48 224.591 3.362 222.143 3.362H219.911C217.319 3.362 216.329 4.172 216.275 5.99C217.193 5.036 218.597 4.388 220.811 4.388H220.919C223.295 4.388 225.815 5.594 225.815 9.122ZM219.245 11.642H219.443C221.027 11.642 222.197 10.85 222.197 9.212C222.197 7.628 221.009 6.854 219.461 6.854H219.245C217.517 6.854 216.455 7.592 216.455 9.23C216.455 10.886 217.535 11.642 219.245 11.642ZM232.858 12.002C234.91 12.002 235.612 10.706 235.612 9.95V9.176C235.306 9.302 234.424 9.482 233.416 9.644C231.724 9.932 231.184 10.166 231.184 10.868V10.904C231.184 11.534 231.634 12.002 232.858 12.002ZM235.72 12.614C235.288 13.136 234.208 14.198 231.868 14.198H231.58C228.79 14.198 227.638 12.686 227.638 11.03V10.958C227.638 9.23 228.736 8.168 232.12 7.88L234.856 7.646C235.414 7.592 235.612 7.412 235.612 6.998C235.612 6.53 235.468 6.026 233.524 6.026C231.688 6.026 231.508 6.746 231.508 7.124H227.908V7.088C227.908 6.098 228.304 3.776 233.218 3.776H233.776C238.726 3.776 239.032 5.81 239.032 7.142V10.436C239.032 11.066 239.158 11.318 239.86 11.318H240.238V14H237.394C236.35 14 235.864 13.262 235.72 12.614ZM250.591 10.076H254.263C254.263 11.588 253.363 14.27 248.557 14.27H247.675C242.689 14.27 241.753 11.03 241.753 9.14V8.888C241.753 6.998 242.635 3.74 247.657 3.74H248.485C253.309 3.74 254.263 6.368 254.263 7.808V7.826H250.591C250.537 7.538 250.195 6.296 248.125 6.296H247.945C245.875 6.296 245.389 7.718 245.389 8.924V8.942C245.389 10.184 245.983 11.66 248.017 11.66H248.197C250.285 11.66 250.591 10.31 250.591 10.076ZM265.005 10.076H268.677C268.677 11.588 267.777 14.27 262.971 14.27H262.089C257.103 14.27 256.167 11.03 256.167 9.14V8.888C256.167 6.998 257.049 3.74 262.071 3.74H262.899C267.723 3.74 268.677 6.368 268.677 7.808V7.826H265.005C264.951 7.538 264.609 6.296 262.539 6.296H262.359C260.289 6.296 259.803 7.718 259.803 8.924V8.942C259.803 10.184 260.397 11.66 262.431 11.66H262.611C264.699 11.66 265.005 10.31 265.005 10.076ZM275.783 12.002C277.835 12.002 278.537 10.706 278.537 9.95V9.176C278.231 9.302 277.349 9.482 276.341 9.644C274.649 9.932 274.109 10.166 274.109 10.868V10.904C274.109 11.534 274.559 12.002 275.783 12.002ZM278.645 12.614C278.213 13.136 277.133 14.198 274.793 14.198H274.505C271.715 14.198 270.563 12.686 270.563 11.03V10.958C270.563 9.23 271.661 8.168 275.045 7.88L277.781 7.646C278.339 7.592 278.537 7.412 278.537 6.998C278.537 6.53 278.393 6.026 276.449 6.026C274.613 6.026 274.433 6.746 274.433 7.124H270.833V7.088C270.833 6.098 271.229 3.776 276.143 3.776H276.701C281.651 3.776 281.957 5.81 281.957 7.142V10.436C281.957 11.066 282.083 11.318 282.785 11.318H283.163V14H280.319C279.275 14 278.789 13.262 278.645 12.614ZM284.689 16.124V11.336H285.895C286.579 9.968 286.687 6.998 286.777 4.01H297.343V11.336H299.143V16.124H295.813V14H288.019V16.124H284.689ZM289.207 11.336H293.833V6.674H289.927C289.873 7.97 289.693 9.95 289.207 11.336ZM307.32 14.27H306.762C301.38 14.27 300.552 10.994 300.552 9.176V8.924C300.552 7.124 301.38 3.74 306.744 3.74H307.338C312.882 3.74 313.53 7.142 313.53 8.906V9.194C313.53 10.994 312.882 14.27 307.32 14.27ZM306.942 11.642H307.14C309.354 11.642 309.912 10.058 309.912 8.96C309.912 7.826 309.354 6.314 307.14 6.314H306.942C304.638 6.314 304.17 7.826 304.17 8.96C304.17 10.058 304.638 11.642 306.942 11.642ZM325.124 9.014V8.96C325.124 7.88 324.62 6.422 322.424 6.422H322.244C320.138 6.422 319.472 7.808 319.472 8.96V9.014C319.472 10.112 320.138 11.552 322.244 11.552H322.424C324.62 11.552 325.124 10.04 325.124 9.014ZM315.98 17.438V4.01H319.454V5.288C319.886 4.82 321.2 3.812 323.468 3.812H323.702C327.518 3.812 328.76 6.422 328.76 8.798V9.104C328.76 11.282 327.482 14.198 323.684 14.198H323.432C321.146 14.198 319.922 13.154 319.49 12.722V17.438H315.98Z" fill="url(#paint2_radial_41_182)"/>
<path d="M7.76925 0.481999H8.52525C14.5192 0.481999 15.0772 2.714 15.0772 4.082V4.298C15.0772 5.756 13.7272 6.746 12.3952 6.98C14.0152 7.268 15.4012 8.33 15.4012 9.968V10.202C15.4012 11.66 14.6632 14.216 8.52525 14.216H7.76925C1.59525 14.216 0.893248 11.66 0.893248 10.202V9.968C0.893248 8.33 2.29725 7.268 3.88125 6.98C2.58525 6.746 1.21725 5.846 1.21725 4.298V4.082C1.21725 2.714 1.81125 0.481999 7.76925 0.481999ZM8.14725 3.2C5.48325 3.2 5.12325 3.938 5.12325 4.442V4.514C5.12325 5.036 5.50125 5.684 8.14725 5.684C10.8112 5.684 11.1532 5.036 11.1532 4.514V4.442C11.1532 3.938 10.8292 3.2 8.14725 3.2ZM8.14725 8.42C5.19525 8.42 4.79925 9.212 4.79925 9.77V9.824C4.79925 10.436 5.19525 11.336 8.14725 11.336C11.0992 11.336 11.4952 10.436 11.4952 9.824V9.77C11.4952 9.212 11.0992 8.42 8.14725 8.42ZM21.8078 10.508V14H17.6138V10.508H21.8078ZM40.808 14L34.364 7.7V14H30.656V0.608H34.364V6.116L40.628 0.608H45.344L38.288 6.746L45.65 14H40.808ZM46.6476 17.438V14.936H48.8436C49.1856 14.936 49.3656 14.792 49.3656 14.522V14.504C49.3656 14.288 49.3116 14.09 49.0416 13.532L44.7576 4.01H48.6096L51.3816 11.174L54.1356 4.01H57.6636L53.0916 15.008C52.3896 16.646 51.5256 17.438 49.8696 17.438H46.6476ZM67.2828 14V6.674H63.3228C63.3228 9.356 63.2328 10.85 62.8908 11.768C62.5128 12.776 62.0088 14 59.3628 14H58.2648V11.39H58.4808C59.1108 11.39 59.5788 11.174 59.7768 10.256C59.9208 9.482 59.9748 8.636 59.9748 4.01H70.7928V14H67.2828ZM73.7002 14V4.01H77.2102V6.872H79.9462C83.3662 6.872 84.6982 8.384 84.6982 10.292V10.508C84.6982 12.596 83.3662 14 79.9462 14H73.7002ZM77.2102 11.624H79.5142C80.2342 11.624 81.0982 11.408 81.0982 10.436V10.382C81.0982 9.482 80.2342 9.248 79.5142 9.248H77.2102V11.624ZM89.0954 14V6.674H85.2254V4.01H96.4754V6.674H92.6054V14H89.0954ZM99.1359 17.438V14.936H101.332C101.674 14.936 101.854 14.792 101.854 14.522V14.504C101.854 14.288 101.8 14.09 101.53 13.532L97.2459 4.01H101.098L103.87 11.174L106.624 4.01H110.152L105.58 15.008C104.878 16.646 104.014 17.438 102.358 17.438H99.1359ZM121.113 9.014V8.96C121.113 7.88 120.609 6.422 118.413 6.422H118.233C116.127 6.422 115.461 7.808 115.461 8.96V9.014C115.461 10.112 116.127 11.552 118.233 11.552H118.413C120.609 11.552 121.113 10.04 121.113 9.014ZM111.969 17.438V4.01H115.443V5.288C115.875 4.82 117.189 3.812 119.457 3.812H119.691C123.507 3.812 124.749 6.422 124.749 8.798V9.104C124.749 11.282 123.471 14.198 119.673 14.198H119.421C117.135 14.198 115.911 13.154 115.479 12.722V17.438H111.969ZM130.7 14H127.19V4.01H130.7V7.646H135.596V4.01H139.106V14H135.596V10.31H130.7V14ZM142.026 14V4.01H145.536V6.872H148.272C151.692 6.872 153.024 8.384 153.024 10.292V10.508C153.024 12.596 151.692 14 148.272 14H142.026ZM145.536 11.624H147.84C148.56 11.624 149.424 11.408 149.424 10.436V10.382C149.424 9.482 148.56 9.248 147.84 9.248H145.536V11.624ZM157.812 4.01V14H154.302V4.01H157.812ZM169.153 7.952L164.329 14H160.729V4.01H164.239V10.058L169.063 4.01H172.663V14H169.153V7.952ZM166.921 2.984H166.381C163.519 2.984 163.015 1.04 163.015 0.104V0.0499994H165.661C165.661 0.284 165.769 1.004 166.669 1.004C167.515 1.004 167.641 0.284 167.641 0.0499994H170.251V0.104C170.251 1.04 169.531 2.984 166.921 2.984ZM185.502 12.002C187.554 12.002 188.256 10.706 188.256 9.95V9.176C187.95 9.302 187.068 9.482 186.06 9.644C184.368 9.932 183.828 10.166 183.828 10.868V10.904C183.828 11.534 184.278 12.002 185.502 12.002ZM188.364 12.614C187.932 13.136 186.852 14.198 184.512 14.198H184.224C181.434 14.198 180.282 12.686 180.282 11.03V10.958C180.282 9.23 181.38 8.168 184.764 7.88L187.5 7.646C188.058 7.592 188.256 7.412 188.256 6.998C188.256 6.53 188.112 6.026 186.168 6.026C184.332 6.026 184.152 6.746 184.152 7.124H180.552V7.088C180.552 6.098 180.948 3.776 185.862 3.776H186.42C191.37 3.776 191.676 5.81 191.676 7.142V10.436C191.676 11.066 191.802 11.318 192.504 11.318H192.882V14H190.038C188.994 14 188.508 13.262 188.364 12.614ZM198.124 7.268V14H194.884V4.01H199.834L202.804 10.382L205.774 4.01H210.544V14H207.034V7.268L203.92 14H201.238L198.124 7.268ZM225.815 9.122V9.356C225.815 13.1 222.971 14.27 219.569 14.27H219.209C215.699 14.27 212.837 12.902 212.837 8.15V7.088C212.837 2.282 215.231 0.698 219.911 0.698H220.721C221.837 0.698 221.909 0.589999 221.945 0.373999H225.383C225.383 2.48 224.591 3.362 222.143 3.362H219.911C217.319 3.362 216.329 4.172 216.275 5.99C217.193 5.036 218.597 4.388 220.811 4.388H220.919C223.295 4.388 225.815 5.594 225.815 9.122ZM219.245 11.642H219.443C221.027 11.642 222.197 10.85 222.197 9.212C222.197 7.628 221.009 6.854 219.461 6.854H219.245C217.517 6.854 216.455 7.592 216.455 9.23C216.455 10.886 217.535 11.642 219.245 11.642ZM232.858 12.002C234.91 12.002 235.612 10.706 235.612 9.95V9.176C235.306 9.302 234.424 9.482 233.416 9.644C231.724 9.932 231.184 10.166 231.184 10.868V10.904C231.184 11.534 231.634 12.002 232.858 12.002ZM235.72 12.614C235.288 13.136 234.208 14.198 231.868 14.198H231.58C228.79 14.198 227.638 12.686 227.638 11.03V10.958C227.638 9.23 228.736 8.168 232.12 7.88L234.856 7.646C235.414 7.592 235.612 7.412 235.612 6.998C235.612 6.53 235.468 6.026 233.524 6.026C231.688 6.026 231.508 6.746 231.508 7.124H227.908V7.088C227.908 6.098 228.304 3.776 233.218 3.776H233.776C238.726 3.776 239.032 5.81 239.032 7.142V10.436C239.032 11.066 239.158 11.318 239.86 11.318H240.238V14H237.394C236.35 14 235.864 13.262 235.72 12.614ZM250.591 10.076H254.263C254.263 11.588 253.363 14.27 248.557 14.27H247.675C242.689 14.27 241.753 11.03 241.753 9.14V8.888C241.753 6.998 242.635 3.74 247.657 3.74H248.485C253.309 3.74 254.263 6.368 254.263 7.808V7.826H250.591C250.537 7.538 250.195 6.296 248.125 6.296H247.945C245.875 6.296 245.389 7.718 245.389 8.924V8.942C245.389 10.184 245.983 11.66 248.017 11.66H248.197C250.285 11.66 250.591 10.31 250.591 10.076ZM265.005 10.076H268.677C268.677 11.588 267.777 14.27 262.971 14.27H262.089C257.103 14.27 256.167 11.03 256.167 9.14V8.888C256.167 6.998 257.049 3.74 262.071 3.74H262.899C267.723 3.74 268.677 6.368 268.677 7.808V7.826H265.005C264.951 7.538 264.609 6.296 262.539 6.296H262.359C260.289 6.296 259.803 7.718 259.803 8.924V8.942C259.803 10.184 260.397 11.66 262.431 11.66H262.611C264.699 11.66 265.005 10.31 265.005 10.076ZM275.783 12.002C277.835 12.002 278.537 10.706 278.537 9.95V9.176C278.231 9.302 277.349 9.482 276.341 9.644C274.649 9.932 274.109 10.166 274.109 10.868V10.904C274.109 11.534 274.559 12.002 275.783 12.002ZM278.645 12.614C278.213 13.136 277.133 14.198 274.793 14.198H274.505C271.715 14.198 270.563 12.686 270.563 11.03V10.958C270.563 9.23 271.661 8.168 275.045 7.88L277.781 7.646C278.339 7.592 278.537 7.412 278.537 6.998C278.537 6.53 278.393 6.026 276.449 6.026C274.613 6.026 274.433 6.746 274.433 7.124H270.833V7.088C270.833 6.098 271.229 3.776 276.143 3.776H276.701C281.651 3.776 281.957 5.81 281.957 7.142V10.436C281.957 11.066 282.083 11.318 282.785 11.318H283.163V14H280.319C279.275 14 278.789 13.262 278.645 12.614ZM284.689 16.124V11.336H285.895C286.579 9.968 286.687 6.998 286.777 4.01H297.343V11.336H299.143V16.124H295.813V14H288.019V16.124H284.689ZM289.207 11.336H293.833V6.674H289.927C289.873 7.97 289.693 9.95 289.207 11.336ZM307.32 14.27H306.762C301.38 14.27 300.552 10.994 300.552 9.176V8.924C300.552 7.124 301.38 3.74 306.744 3.74H307.338C312.882 3.74 313.53 7.142 313.53 8.906V9.194C313.53 10.994 312.882 14.27 307.32 14.27ZM306.942 11.642H307.14C309.354 11.642 309.912 10.058 309.912 8.96C309.912 7.826 309.354 6.314 307.14 6.314H306.942C304.638 6.314 304.17 7.826 304.17 8.96C304.17 10.058 304.638 11.642 306.942 11.642ZM325.124 9.014V8.96C325.124 7.88 324.62 6.422 322.424 6.422H322.244C320.138 6.422 319.472 7.808 319.472 8.96V9.014C319.472 10.112 320.138 11.552 322.244 11.552H322.424C324.62 11.552 325.124 10.04 325.124 9.014ZM315.98 17.438V4.01H319.454V5.288C319.886 4.82 321.2 3.812 323.468 3.812H323.702C327.518 3.812 328.76 6.422 328.76 8.798V9.104C328.76 11.282 327.482 14.198 323.684 14.198H323.432C321.146 14.198 319.922 13.154 319.49 12.722V17.438H315.98Z" fill="#C1A875" style="mix-blend-mode:color"/>
<defs>
<linearGradient id="paint0_linear_41_182" x1="2" y1="6" x2="330" y2="6.00003" gradientUnits="userSpaceOnUse">
<stop stop-color="#576167"/>
<stop offset="0.191294" stop-color="#9EA1A2"/>
<stop offset="0.396166" stop-color="#848989"/>
<stop offset="0.62055" stop-color="#576167"/>
<stop offset="0.830299" stop-color="#757A7C"/>
<stop offset="1" stop-color="#576167"/>
</linearGradient>
<radialGradient id="paint1_radial_41_182" cx="0" cy="0" r="1" gradientUnits="userSpaceOnUse" gradientTransform="translate(176.677 -3.20225) rotate(90) scale(17.8315 248.143)">
<stop stop-color="white"/>
<stop offset="1" stop-color="white" stop-opacity="0"/>
</radialGradient>
<radialGradient id="paint2_radial_41_182" cx="0" cy="0" r="1" gradientUnits="userSpaceOnUse" gradientTransform="translate(195.229 23.6629) rotate(-88.8227) scale(25.556 354.763)">
<stop stop-color="white"/>
<stop offset="1" stop-color="white" stop-opacity="0"/>
</radialGradient>
</defs>
</svg>
