<svg width="142" height="12" viewBox="0 0 142 12" fill="none" xmlns="http://www.w3.org/2000/svg">
<path d="M7.49 11.154H6.846C2.086 11.154 0.826 8.102 0.826 5.974V5.554C0.826 3.384 2.086 0.429999 6.846 0.429999H7.49C11.858 0.429999 13.314 2.572 13.314 4.546V4.574H10.346C10.304 4.28 9.912 2.81 7.168 2.81C4.62 2.81 3.822 4.238 3.822 5.638V5.834C3.822 7.122 4.648 8.76 7.182 8.76C9.954 8.76 10.304 7.262 10.346 6.926H13.314V6.968C13.314 8.872 11.914 11.154 7.49 11.154ZM18.8977 9.446C20.4937 9.446 21.0397 8.438 21.0397 7.85V7.248C20.8017 7.346 20.1157 7.486 19.3317 7.612C18.0157 7.836 17.5957 8.018 17.5957 8.564V8.592C17.5957 9.082 17.9457 9.446 18.8977 9.446ZM21.1237 9.922C20.7877 10.328 19.9477 11.154 18.1277 11.154H17.9037C15.7337 11.154 14.8377 9.978 14.8377 8.69V8.634C14.8377 7.29 15.6917 6.464 18.3237 6.24L20.4517 6.058C20.8857 6.016 21.0397 5.876 21.0397 5.554C21.0397 5.19 20.9277 4.798 19.4157 4.798C17.9877 4.798 17.8477 5.358 17.8477 5.652H15.0477V5.624C15.0477 4.854 15.3557 3.048 19.1777 3.048H19.6117C23.4617 3.048 23.6997 4.63 23.6997 5.666V8.228C23.6997 8.718 23.7977 8.914 24.3437 8.914H24.6377V11H22.4257C21.6137 11 21.2357 10.426 21.1237 9.922ZM32.7465 6.296L28.9945 11H26.1945V3.23H28.9245V7.934L32.6765 3.23H35.4765V11H32.7465V6.296ZM31.0105 2.432H30.5905C28.3645 2.432 27.9725 0.92 27.9725 0.192V0.149999H30.0305C30.0305 0.332 30.1145 0.891999 30.8145 0.891999C31.4725 0.891999 31.5705 0.332 31.5705 0.149999H33.6005V0.192C33.6005 0.92 33.0405 2.432 31.0105 2.432ZM39.9733 11V5.302H36.9633V3.23H45.7133V5.302H42.7033V11H39.9733ZM57.0234 11L53.9994 7.402V11H51.2694V3.23H53.9994V6.338L56.7714 3.23H59.9214L56.6734 6.716L60.2714 11H57.0234ZM65.9162 11.21H65.4822C61.2962 11.21 60.6522 8.662 60.6522 7.248V7.052C60.6522 5.652 61.2962 3.02 65.4682 3.02H65.9302C70.2422 3.02 70.7462 5.666 70.7462 7.038V7.262C70.7462 8.662 70.2422 11.21 65.9162 11.21ZM65.6222 9.166H65.7762C67.4982 9.166 67.9322 7.934 67.9322 7.08C67.9322 6.198 67.4982 5.022 65.7762 5.022H65.6222C63.8302 5.022 63.4662 6.198 63.4662 7.08C63.4662 7.934 63.8302 9.166 65.6222 9.166ZM75.1442 5.764V11H72.6242V3.23H76.4742L78.7842 8.186L81.0942 3.23H84.8042V11H82.0742V5.764L79.6522 11H77.5662L75.1442 5.764ZM86.9797 11V3.23H95.9677V11H93.2377V5.302H89.7097V11H86.9797ZM101.9 9.446C103.496 9.446 104.042 8.438 104.042 7.85V7.248C103.804 7.346 103.118 7.486 102.334 7.612C101.018 7.836 100.598 8.018 100.598 8.564V8.592C100.598 9.082 100.948 9.446 101.9 9.446ZM104.126 9.922C103.79 10.328 102.95 11.154 101.13 11.154H100.906C98.7357 11.154 97.8397 9.978 97.8397 8.69V8.634C97.8397 7.29 98.6937 6.464 101.326 6.24L103.454 6.058C103.888 6.016 104.042 5.876 104.042 5.554C104.042 5.19 103.93 4.798 102.418 4.798C100.99 4.798 100.85 5.358 100.85 5.652H98.0497V5.624C98.0497 4.854 98.3577 3.048 102.18 3.048H102.614C106.464 3.048 106.702 4.63 106.702 5.666V8.228C106.702 8.718 106.8 8.914 107.346 8.914H107.64V11H105.428C104.616 11 104.238 10.426 104.126 9.922ZM111.927 11H109.197V3.23H111.927V6.058H115.735V3.23H118.465V11H115.735V8.13H111.927V11ZM127.288 6.296L123.536 11H120.736V3.23H123.466V7.934L127.218 3.23H130.018V11H127.288V6.296ZM138.84 6.296L135.088 11H132.288V3.23H135.018V7.934L138.77 3.23H141.57V11H138.84V6.296Z" fill="url(#paint0_linear_41_296)"/>
<path d="M7.49 11.154H6.846C2.086 11.154 0.826 8.102 0.826 5.974V5.554C0.826 3.384 2.086 0.429999 6.846 0.429999H7.49C11.858 0.429999 13.314 2.572 13.314 4.546V4.574H10.346C10.304 4.28 9.912 2.81 7.168 2.81C4.62 2.81 3.822 4.238 3.822 5.638V5.834C3.822 7.122 4.648 8.76 7.182 8.76C9.954 8.76 10.304 7.262 10.346 6.926H13.314V6.968C13.314 8.872 11.914 11.154 7.49 11.154ZM18.8977 9.446C20.4937 9.446 21.0397 8.438 21.0397 7.85V7.248C20.8017 7.346 20.1157 7.486 19.3317 7.612C18.0157 7.836 17.5957 8.018 17.5957 8.564V8.592C17.5957 9.082 17.9457 9.446 18.8977 9.446ZM21.1237 9.922C20.7877 10.328 19.9477 11.154 18.1277 11.154H17.9037C15.7337 11.154 14.8377 9.978 14.8377 8.69V8.634C14.8377 7.29 15.6917 6.464 18.3237 6.24L20.4517 6.058C20.8857 6.016 21.0397 5.876 21.0397 5.554C21.0397 5.19 20.9277 4.798 19.4157 4.798C17.9877 4.798 17.8477 5.358 17.8477 5.652H15.0477V5.624C15.0477 4.854 15.3557 3.048 19.1777 3.048H19.6117C23.4617 3.048 23.6997 4.63 23.6997 5.666V8.228C23.6997 8.718 23.7977 8.914 24.3437 8.914H24.6377V11H22.4257C21.6137 11 21.2357 10.426 21.1237 9.922ZM32.7465 6.296L28.9945 11H26.1945V3.23H28.9245V7.934L32.6765 3.23H35.4765V11H32.7465V6.296ZM31.0105 2.432H30.5905C28.3645 2.432 27.9725 0.92 27.9725 0.192V0.149999H30.0305C30.0305 0.332 30.1145 0.891999 30.8145 0.891999C31.4725 0.891999 31.5705 0.332 31.5705 0.149999H33.6005V0.192C33.6005 0.92 33.0405 2.432 31.0105 2.432ZM39.9733 11V5.302H36.9633V3.23H45.7133V5.302H42.7033V11H39.9733ZM57.0234 11L53.9994 7.402V11H51.2694V3.23H53.9994V6.338L56.7714 3.23H59.9214L56.6734 6.716L60.2714 11H57.0234ZM65.9162 11.21H65.4822C61.2962 11.21 60.6522 8.662 60.6522 7.248V7.052C60.6522 5.652 61.2962 3.02 65.4682 3.02H65.9302C70.2422 3.02 70.7462 5.666 70.7462 7.038V7.262C70.7462 8.662 70.2422 11.21 65.9162 11.21ZM65.6222 9.166H65.7762C67.4982 9.166 67.9322 7.934 67.9322 7.08C67.9322 6.198 67.4982 5.022 65.7762 5.022H65.6222C63.8302 5.022 63.4662 6.198 63.4662 7.08C63.4662 7.934 63.8302 9.166 65.6222 9.166ZM75.1442 5.764V11H72.6242V3.23H76.4742L78.7842 8.186L81.0942 3.23H84.8042V11H82.0742V5.764L79.6522 11H77.5662L75.1442 5.764ZM86.9797 11V3.23H95.9677V11H93.2377V5.302H89.7097V11H86.9797ZM101.9 9.446C103.496 9.446 104.042 8.438 104.042 7.85V7.248C103.804 7.346 103.118 7.486 102.334 7.612C101.018 7.836 100.598 8.018 100.598 8.564V8.592C100.598 9.082 100.948 9.446 101.9 9.446ZM104.126 9.922C103.79 10.328 102.95 11.154 101.13 11.154H100.906C98.7357 11.154 97.8397 9.978 97.8397 8.69V8.634C97.8397 7.29 98.6937 6.464 101.326 6.24L103.454 6.058C103.888 6.016 104.042 5.876 104.042 5.554C104.042 5.19 103.93 4.798 102.418 4.798C100.99 4.798 100.85 5.358 100.85 5.652H98.0497V5.624C98.0497 4.854 98.3577 3.048 102.18 3.048H102.614C106.464 3.048 106.702 4.63 106.702 5.666V8.228C106.702 8.718 106.8 8.914 107.346 8.914H107.64V11H105.428C104.616 11 104.238 10.426 104.126 9.922ZM111.927 11H109.197V3.23H111.927V6.058H115.735V3.23H118.465V11H115.735V8.13H111.927V11ZM127.288 6.296L123.536 11H120.736V3.23H123.466V7.934L127.218 3.23H130.018V11H127.288V6.296ZM138.84 6.296L135.088 11H132.288V3.23H135.018V7.934L138.77 3.23H141.57V11H138.84V6.296Z" fill="url(#paint1_radial_41_296)" style="mix-blend-mode:overlay"/>
<path d="M7.49 11.154H6.846C2.086 11.154 0.826 8.102 0.826 5.974V5.554C0.826 3.384 2.086 0.429999 6.846 0.429999H7.49C11.858 0.429999 13.314 2.572 13.314 4.546V4.574H10.346C10.304 4.28 9.912 2.81 7.168 2.81C4.62 2.81 3.822 4.238 3.822 5.638V5.834C3.822 7.122 4.648 8.76 7.182 8.76C9.954 8.76 10.304 7.262 10.346 6.926H13.314V6.968C13.314 8.872 11.914 11.154 7.49 11.154ZM18.8977 9.446C20.4937 9.446 21.0397 8.438 21.0397 7.85V7.248C20.8017 7.346 20.1157 7.486 19.3317 7.612C18.0157 7.836 17.5957 8.018 17.5957 8.564V8.592C17.5957 9.082 17.9457 9.446 18.8977 9.446ZM21.1237 9.922C20.7877 10.328 19.9477 11.154 18.1277 11.154H17.9037C15.7337 11.154 14.8377 9.978 14.8377 8.69V8.634C14.8377 7.29 15.6917 6.464 18.3237 6.24L20.4517 6.058C20.8857 6.016 21.0397 5.876 21.0397 5.554C21.0397 5.19 20.9277 4.798 19.4157 4.798C17.9877 4.798 17.8477 5.358 17.8477 5.652H15.0477V5.624C15.0477 4.854 15.3557 3.048 19.1777 3.048H19.6117C23.4617 3.048 23.6997 4.63 23.6997 5.666V8.228C23.6997 8.718 23.7977 8.914 24.3437 8.914H24.6377V11H22.4257C21.6137 11 21.2357 10.426 21.1237 9.922ZM32.7465 6.296L28.9945 11H26.1945V3.23H28.9245V7.934L32.6765 3.23H35.4765V11H32.7465V6.296ZM31.0105 2.432H30.5905C28.3645 2.432 27.9725 0.92 27.9725 0.192V0.149999H30.0305C30.0305 0.332 30.1145 0.891999 30.8145 0.891999C31.4725 0.891999 31.5705 0.332 31.5705 0.149999H33.6005V0.192C33.6005 0.92 33.0405 2.432 31.0105 2.432ZM39.9733 11V5.302H36.9633V3.23H45.7133V5.302H42.7033V11H39.9733ZM57.0234 11L53.9994 7.402V11H51.2694V3.23H53.9994V6.338L56.7714 3.23H59.9214L56.6734 6.716L60.2714 11H57.0234ZM65.9162 11.21H65.4822C61.2962 11.21 60.6522 8.662 60.6522 7.248V7.052C60.6522 5.652 61.2962 3.02 65.4682 3.02H65.9302C70.2422 3.02 70.7462 5.666 70.7462 7.038V7.262C70.7462 8.662 70.2422 11.21 65.9162 11.21ZM65.6222 9.166H65.7762C67.4982 9.166 67.9322 7.934 67.9322 7.08C67.9322 6.198 67.4982 5.022 65.7762 5.022H65.6222C63.8302 5.022 63.4662 6.198 63.4662 7.08C63.4662 7.934 63.8302 9.166 65.6222 9.166ZM75.1442 5.764V11H72.6242V3.23H76.4742L78.7842 8.186L81.0942 3.23H84.8042V11H82.0742V5.764L79.6522 11H77.5662L75.1442 5.764ZM86.9797 11V3.23H95.9677V11H93.2377V5.302H89.7097V11H86.9797ZM101.9 9.446C103.496 9.446 104.042 8.438 104.042 7.85V7.248C103.804 7.346 103.118 7.486 102.334 7.612C101.018 7.836 100.598 8.018 100.598 8.564V8.592C100.598 9.082 100.948 9.446 101.9 9.446ZM104.126 9.922C103.79 10.328 102.95 11.154 101.13 11.154H100.906C98.7357 11.154 97.8397 9.978 97.8397 8.69V8.634C97.8397 7.29 98.6937 6.464 101.326 6.24L103.454 6.058C103.888 6.016 104.042 5.876 104.042 5.554C104.042 5.19 103.93 4.798 102.418 4.798C100.99 4.798 100.85 5.358 100.85 5.652H98.0497V5.624C98.0497 4.854 98.3577 3.048 102.18 3.048H102.614C106.464 3.048 106.702 4.63 106.702 5.666V8.228C106.702 8.718 106.8 8.914 107.346 8.914H107.64V11H105.428C104.616 11 104.238 10.426 104.126 9.922ZM111.927 11H109.197V3.23H111.927V6.058H115.735V3.23H118.465V11H115.735V8.13H111.927V11ZM127.288 6.296L123.536 11H120.736V3.23H123.466V7.934L127.218 3.23H130.018V11H127.288V6.296ZM138.84 6.296L135.088 11H132.288V3.23H135.018V7.934L138.77 3.23H141.57V11H138.84V6.296Z" fill="url(#paint2_radial_41_296)"/>
<path d="M7.49 11.154H6.846C2.086 11.154 0.826 8.102 0.826 5.974V5.554C0.826 3.384 2.086 0.429999 6.846 0.429999H7.49C11.858 0.429999 13.314 2.572 13.314 4.546V4.574H10.346C10.304 4.28 9.912 2.81 7.168 2.81C4.62 2.81 3.822 4.238 3.822 5.638V5.834C3.822 7.122 4.648 8.76 7.182 8.76C9.954 8.76 10.304 7.262 10.346 6.926H13.314V6.968C13.314 8.872 11.914 11.154 7.49 11.154ZM18.8977 9.446C20.4937 9.446 21.0397 8.438 21.0397 7.85V7.248C20.8017 7.346 20.1157 7.486 19.3317 7.612C18.0157 7.836 17.5957 8.018 17.5957 8.564V8.592C17.5957 9.082 17.9457 9.446 18.8977 9.446ZM21.1237 9.922C20.7877 10.328 19.9477 11.154 18.1277 11.154H17.9037C15.7337 11.154 14.8377 9.978 14.8377 8.69V8.634C14.8377 7.29 15.6917 6.464 18.3237 6.24L20.4517 6.058C20.8857 6.016 21.0397 5.876 21.0397 5.554C21.0397 5.19 20.9277 4.798 19.4157 4.798C17.9877 4.798 17.8477 5.358 17.8477 5.652H15.0477V5.624C15.0477 4.854 15.3557 3.048 19.1777 3.048H19.6117C23.4617 3.048 23.6997 4.63 23.6997 5.666V8.228C23.6997 8.718 23.7977 8.914 24.3437 8.914H24.6377V11H22.4257C21.6137 11 21.2357 10.426 21.1237 9.922ZM32.7465 6.296L28.9945 11H26.1945V3.23H28.9245V7.934L32.6765 3.23H35.4765V11H32.7465V6.296ZM31.0105 2.432H30.5905C28.3645 2.432 27.9725 0.92 27.9725 0.192V0.149999H30.0305C30.0305 0.332 30.1145 0.891999 30.8145 0.891999C31.4725 0.891999 31.5705 0.332 31.5705 0.149999H33.6005V0.192C33.6005 0.92 33.0405 2.432 31.0105 2.432ZM39.9733 11V5.302H36.9633V3.23H45.7133V5.302H42.7033V11H39.9733ZM57.0234 11L53.9994 7.402V11H51.2694V3.23H53.9994V6.338L56.7714 3.23H59.9214L56.6734 6.716L60.2714 11H57.0234ZM65.9162 11.21H65.4822C61.2962 11.21 60.6522 8.662 60.6522 7.248V7.052C60.6522 5.652 61.2962 3.02 65.4682 3.02H65.9302C70.2422 3.02 70.7462 5.666 70.7462 7.038V7.262C70.7462 8.662 70.2422 11.21 65.9162 11.21ZM65.6222 9.166H65.7762C67.4982 9.166 67.9322 7.934 67.9322 7.08C67.9322 6.198 67.4982 5.022 65.7762 5.022H65.6222C63.8302 5.022 63.4662 6.198 63.4662 7.08C63.4662 7.934 63.8302 9.166 65.6222 9.166ZM75.1442 5.764V11H72.6242V3.23H76.4742L78.7842 8.186L81.0942 3.23H84.8042V11H82.0742V5.764L79.6522 11H77.5662L75.1442 5.764ZM86.9797 11V3.23H95.9677V11H93.2377V5.302H89.7097V11H86.9797ZM101.9 9.446C103.496 9.446 104.042 8.438 104.042 7.85V7.248C103.804 7.346 103.118 7.486 102.334 7.612C101.018 7.836 100.598 8.018 100.598 8.564V8.592C100.598 9.082 100.948 9.446 101.9 9.446ZM104.126 9.922C103.79 10.328 102.95 11.154 101.13 11.154H100.906C98.7357 11.154 97.8397 9.978 97.8397 8.69V8.634C97.8397 7.29 98.6937 6.464 101.326 6.24L103.454 6.058C103.888 6.016 104.042 5.876 104.042 5.554C104.042 5.19 103.93 4.798 102.418 4.798C100.99 4.798 100.85 5.358 100.85 5.652H98.0497V5.624C98.0497 4.854 98.3577 3.048 102.18 3.048H102.614C106.464 3.048 106.702 4.63 106.702 5.666V8.228C106.702 8.718 106.8 8.914 107.346 8.914H107.64V11H105.428C104.616 11 104.238 10.426 104.126 9.922ZM111.927 11H109.197V3.23H111.927V6.058H115.735V3.23H118.465V11H115.735V8.13H111.927V11ZM127.288 6.296L123.536 11H120.736V3.23H123.466V7.934L127.218 3.23H130.018V11H127.288V6.296ZM138.84 6.296L135.088 11H132.288V3.23H135.018V7.934L138.77 3.23H141.57V11H138.84V6.296Z" fill="#C1A875" style="mix-blend-mode:color"/>
<defs>
<linearGradient id="paint0_linear_41_296" x1="5.32716e-07" y1="5.5" x2="143" y2="5.50001" gradientUnits="userSpaceOnUse">
<stop stop-color="#576167"/>
<stop offset="0.191294" stop-color="#9EA1A2"/>
<stop offset="0.396166" stop-color="#848989"/>
<stop offset="0.62055" stop-color="#576167"/>
<stop offset="0.830299" stop-color="#757A7C"/>
<stop offset="1" stop-color="#576167"/>
</linearGradient>
<radialGradient id="paint1_radial_41_296" cx="0" cy="0" r="1" gradientUnits="userSpaceOnUse" gradientTransform="translate(76.1547 -1.78511) rotate(90) scale(14.1166 108.184)">
<stop stop-color="white"/>
<stop offset="1" stop-color="white" stop-opacity="0"/>
</radialGradient>
<radialGradient id="paint2_radial_41_296" cx="0" cy="0" r="1" gradientUnits="userSpaceOnUse" gradientTransform="translate(84.2433 19.4831) rotate(-89.3516) scale(20.2288 154.691)">
<stop stop-color="white"/>
<stop offset="1" stop-color="white" stop-opacity="0"/>
</radialGradient>
</defs>
</svg>
