<svg width="106" height="13" viewBox="0 0 106 13" fill="none" xmlns="http://www.w3.org/2000/svg">
<path d="M0.21 8.704H1.26C1.974 7.402 2.422 5.456 2.422 0.584H12.362V8.704H14.042V12.75H11.298V11H2.954V12.75H0.21V8.704ZM4.186 8.704H9.478V2.88H5.166C5.166 5.722 4.676 7.71 4.186 8.704ZM20.4025 11.21H19.9685C15.7825 11.21 15.1385 8.662 15.1385 7.248V7.052C15.1385 5.652 15.7825 3.02 19.9545 3.02H20.4165C24.7285 3.02 25.2325 5.666 25.2325 7.038V7.262C25.2325 8.662 24.7285 11.21 20.4025 11.21ZM20.1085 9.166H20.2625C21.9845 9.166 22.4185 7.934 22.4185 7.08C22.4185 6.198 21.9845 5.022 20.2625 5.022H20.1085C18.3165 5.022 17.9525 6.198 17.9525 7.08C17.9525 7.934 18.3165 9.166 20.1085 9.166ZM33.3438 11V5.302H30.2638C30.2638 7.388 30.1938 8.55 29.9278 9.264C29.6338 10.048 29.2418 11 27.1838 11H26.3298V8.97H26.4978C26.9878 8.97 27.3518 8.802 27.5058 8.088C27.6178 7.486 27.6598 6.828 27.6598 3.23H36.0738V11H33.3438ZM43.2072 11V7.57L40.3232 11H37.2012L40.7152 6.842L37.3552 3.23H40.5752L43.2072 6.184V3.23H45.9372V6.184L48.5692 3.23H51.7192L48.4712 6.716L52.0692 11H48.8212L45.9372 7.57V11H43.2072ZM55.9265 11H53.1965V3.23H55.9265V6.058H59.7345V3.23H62.4645V11H59.7345V8.13H55.9265V11ZM69.6076 11.21H69.1736C64.9876 11.21 64.3436 8.662 64.3436 7.248V7.052C64.3436 5.652 64.9876 3.02 69.1596 3.02H69.6216C73.9336 3.02 74.4376 5.666 74.4376 7.038V7.262C74.4376 8.662 73.9336 11.21 69.6076 11.21ZM69.3136 9.166H69.4676C71.1896 9.166 71.6236 7.934 71.6236 7.08C71.6236 6.198 71.1896 5.022 69.4676 5.022H69.3136C67.5216 5.022 67.1576 6.198 67.1576 7.08C67.1576 7.934 67.5216 9.166 69.3136 9.166ZM82.8116 7.948H85.6676C85.6676 9.124 84.9676 11.21 81.2296 11.21H80.5436C76.6656 11.21 75.9376 8.69 75.9376 7.22V7.024C75.9376 5.554 76.6236 3.02 80.5296 3.02H81.1736C84.9256 3.02 85.6676 5.064 85.6676 6.184V6.198H82.8116C82.7696 5.974 82.5036 5.008 80.8936 5.008H80.7536C79.1436 5.008 78.7656 6.114 78.7656 7.052V7.066C78.7656 8.032 79.2276 9.18 80.8096 9.18H80.9496C82.5736 9.18 82.8116 8.13 82.8116 7.948ZM89.7526 11V5.302H86.7426V3.23H95.4926V5.302H92.4826V11H89.7526ZM96.9738 11V3.23H99.7038V5.456H101.832C104.492 5.456 105.528 6.632 105.528 8.116V8.284C105.528 9.908 104.492 11 101.832 11H96.9738ZM99.7038 9.152H101.496C102.056 9.152 102.728 8.984 102.728 8.228V8.186C102.728 7.486 102.056 7.304 101.496 7.304H99.7038V9.152Z" fill="url(#paint0_linear_41_276)"/>
<path d="M0.21 8.704H1.26C1.974 7.402 2.422 5.456 2.422 0.584H12.362V8.704H14.042V12.75H11.298V11H2.954V12.75H0.21V8.704ZM4.186 8.704H9.478V2.88H5.166C5.166 5.722 4.676 7.71 4.186 8.704ZM20.4025 11.21H19.9685C15.7825 11.21 15.1385 8.662 15.1385 7.248V7.052C15.1385 5.652 15.7825 3.02 19.9545 3.02H20.4165C24.7285 3.02 25.2325 5.666 25.2325 7.038V7.262C25.2325 8.662 24.7285 11.21 20.4025 11.21ZM20.1085 9.166H20.2625C21.9845 9.166 22.4185 7.934 22.4185 7.08C22.4185 6.198 21.9845 5.022 20.2625 5.022H20.1085C18.3165 5.022 17.9525 6.198 17.9525 7.08C17.9525 7.934 18.3165 9.166 20.1085 9.166ZM33.3438 11V5.302H30.2638C30.2638 7.388 30.1938 8.55 29.9278 9.264C29.6338 10.048 29.2418 11 27.1838 11H26.3298V8.97H26.4978C26.9878 8.97 27.3518 8.802 27.5058 8.088C27.6178 7.486 27.6598 6.828 27.6598 3.23H36.0738V11H33.3438ZM43.2072 11V7.57L40.3232 11H37.2012L40.7152 6.842L37.3552 3.23H40.5752L43.2072 6.184V3.23H45.9372V6.184L48.5692 3.23H51.7192L48.4712 6.716L52.0692 11H48.8212L45.9372 7.57V11H43.2072ZM55.9265 11H53.1965V3.23H55.9265V6.058H59.7345V3.23H62.4645V11H59.7345V8.13H55.9265V11ZM69.6076 11.21H69.1736C64.9876 11.21 64.3436 8.662 64.3436 7.248V7.052C64.3436 5.652 64.9876 3.02 69.1596 3.02H69.6216C73.9336 3.02 74.4376 5.666 74.4376 7.038V7.262C74.4376 8.662 73.9336 11.21 69.6076 11.21ZM69.3136 9.166H69.4676C71.1896 9.166 71.6236 7.934 71.6236 7.08C71.6236 6.198 71.1896 5.022 69.4676 5.022H69.3136C67.5216 5.022 67.1576 6.198 67.1576 7.08C67.1576 7.934 67.5216 9.166 69.3136 9.166ZM82.8116 7.948H85.6676C85.6676 9.124 84.9676 11.21 81.2296 11.21H80.5436C76.6656 11.21 75.9376 8.69 75.9376 7.22V7.024C75.9376 5.554 76.6236 3.02 80.5296 3.02H81.1736C84.9256 3.02 85.6676 5.064 85.6676 6.184V6.198H82.8116C82.7696 5.974 82.5036 5.008 80.8936 5.008H80.7536C79.1436 5.008 78.7656 6.114 78.7656 7.052V7.066C78.7656 8.032 79.2276 9.18 80.8096 9.18H80.9496C82.5736 9.18 82.8116 8.13 82.8116 7.948ZM89.7526 11V5.302H86.7426V3.23H95.4926V5.302H92.4826V11H89.7526ZM96.9738 11V3.23H99.7038V5.456H101.832C104.492 5.456 105.528 6.632 105.528 8.116V8.284C105.528 9.908 104.492 11 101.832 11H96.9738ZM99.7038 9.152H101.496C102.056 9.152 102.728 8.984 102.728 8.228V8.186C102.728 7.486 102.056 7.304 101.496 7.304H99.7038V9.152Z" fill="url(#paint1_radial_41_276)" style="mix-blend-mode:overlay"/>
<path d="M0.21 8.704H1.26C1.974 7.402 2.422 5.456 2.422 0.584H12.362V8.704H14.042V12.75H11.298V11H2.954V12.75H0.21V8.704ZM4.186 8.704H9.478V2.88H5.166C5.166 5.722 4.676 7.71 4.186 8.704ZM20.4025 11.21H19.9685C15.7825 11.21 15.1385 8.662 15.1385 7.248V7.052C15.1385 5.652 15.7825 3.02 19.9545 3.02H20.4165C24.7285 3.02 25.2325 5.666 25.2325 7.038V7.262C25.2325 8.662 24.7285 11.21 20.4025 11.21ZM20.1085 9.166H20.2625C21.9845 9.166 22.4185 7.934 22.4185 7.08C22.4185 6.198 21.9845 5.022 20.2625 5.022H20.1085C18.3165 5.022 17.9525 6.198 17.9525 7.08C17.9525 7.934 18.3165 9.166 20.1085 9.166ZM33.3438 11V5.302H30.2638C30.2638 7.388 30.1938 8.55 29.9278 9.264C29.6338 10.048 29.2418 11 27.1838 11H26.3298V8.97H26.4978C26.9878 8.97 27.3518 8.802 27.5058 8.088C27.6178 7.486 27.6598 6.828 27.6598 3.23H36.0738V11H33.3438ZM43.2072 11V7.57L40.3232 11H37.2012L40.7152 6.842L37.3552 3.23H40.5752L43.2072 6.184V3.23H45.9372V6.184L48.5692 3.23H51.7192L48.4712 6.716L52.0692 11H48.8212L45.9372 7.57V11H43.2072ZM55.9265 11H53.1965V3.23H55.9265V6.058H59.7345V3.23H62.4645V11H59.7345V8.13H55.9265V11ZM69.6076 11.21H69.1736C64.9876 11.21 64.3436 8.662 64.3436 7.248V7.052C64.3436 5.652 64.9876 3.02 69.1596 3.02H69.6216C73.9336 3.02 74.4376 5.666 74.4376 7.038V7.262C74.4376 8.662 73.9336 11.21 69.6076 11.21ZM69.3136 9.166H69.4676C71.1896 9.166 71.6236 7.934 71.6236 7.08C71.6236 6.198 71.1896 5.022 69.4676 5.022H69.3136C67.5216 5.022 67.1576 6.198 67.1576 7.08C67.1576 7.934 67.5216 9.166 69.3136 9.166ZM82.8116 7.948H85.6676C85.6676 9.124 84.9676 11.21 81.2296 11.21H80.5436C76.6656 11.21 75.9376 8.69 75.9376 7.22V7.024C75.9376 5.554 76.6236 3.02 80.5296 3.02H81.1736C84.9256 3.02 85.6676 5.064 85.6676 6.184V6.198H82.8116C82.7696 5.974 82.5036 5.008 80.8936 5.008H80.7536C79.1436 5.008 78.7656 6.114 78.7656 7.052V7.066C78.7656 8.032 79.2276 9.18 80.8096 9.18H80.9496C82.5736 9.18 82.8116 8.13 82.8116 7.948ZM89.7526 11V5.302H86.7426V3.23H95.4926V5.302H92.4826V11H89.7526ZM96.9738 11V3.23H99.7038V5.456H101.832C104.492 5.456 105.528 6.632 105.528 8.116V8.284C105.528 9.908 104.492 11 101.832 11H96.9738ZM99.7038 9.152H101.496C102.056 9.152 102.728 8.984 102.728 8.228V8.186C102.728 7.486 102.056 7.304 101.496 7.304H99.7038V9.152Z" fill="url(#paint2_radial_41_276)"/>
<path d="M0.21 8.704H1.26C1.974 7.402 2.422 5.456 2.422 0.584H12.362V8.704H14.042V12.75H11.298V11H2.954V12.75H0.21V8.704ZM4.186 8.704H9.478V2.88H5.166C5.166 5.722 4.676 7.71 4.186 8.704ZM20.4025 11.21H19.9685C15.7825 11.21 15.1385 8.662 15.1385 7.248V7.052C15.1385 5.652 15.7825 3.02 19.9545 3.02H20.4165C24.7285 3.02 25.2325 5.666 25.2325 7.038V7.262C25.2325 8.662 24.7285 11.21 20.4025 11.21ZM20.1085 9.166H20.2625C21.9845 9.166 22.4185 7.934 22.4185 7.08C22.4185 6.198 21.9845 5.022 20.2625 5.022H20.1085C18.3165 5.022 17.9525 6.198 17.9525 7.08C17.9525 7.934 18.3165 9.166 20.1085 9.166ZM33.3438 11V5.302H30.2638C30.2638 7.388 30.1938 8.55 29.9278 9.264C29.6338 10.048 29.2418 11 27.1838 11H26.3298V8.97H26.4978C26.9878 8.97 27.3518 8.802 27.5058 8.088C27.6178 7.486 27.6598 6.828 27.6598 3.23H36.0738V11H33.3438ZM43.2072 11V7.57L40.3232 11H37.2012L40.7152 6.842L37.3552 3.23H40.5752L43.2072 6.184V3.23H45.9372V6.184L48.5692 3.23H51.7192L48.4712 6.716L52.0692 11H48.8212L45.9372 7.57V11H43.2072ZM55.9265 11H53.1965V3.23H55.9265V6.058H59.7345V3.23H62.4645V11H59.7345V8.13H55.9265V11ZM69.6076 11.21H69.1736C64.9876 11.21 64.3436 8.662 64.3436 7.248V7.052C64.3436 5.652 64.9876 3.02 69.1596 3.02H69.6216C73.9336 3.02 74.4376 5.666 74.4376 7.038V7.262C74.4376 8.662 73.9336 11.21 69.6076 11.21ZM69.3136 9.166H69.4676C71.1896 9.166 71.6236 7.934 71.6236 7.08C71.6236 6.198 71.1896 5.022 69.4676 5.022H69.3136C67.5216 5.022 67.1576 6.198 67.1576 7.08C67.1576 7.934 67.5216 9.166 69.3136 9.166ZM82.8116 7.948H85.6676C85.6676 9.124 84.9676 11.21 81.2296 11.21H80.5436C76.6656 11.21 75.9376 8.69 75.9376 7.22V7.024C75.9376 5.554 76.6236 3.02 80.5296 3.02H81.1736C84.9256 3.02 85.6676 5.064 85.6676 6.184V6.198H82.8116C82.7696 5.974 82.5036 5.008 80.8936 5.008H80.7536C79.1436 5.008 78.7656 6.114 78.7656 7.052V7.066C78.7656 8.032 79.2276 9.18 80.8096 9.18H80.9496C82.5736 9.18 82.8116 8.13 82.8116 7.948ZM89.7526 11V5.302H86.7426V3.23H95.4926V5.302H92.4826V11H89.7526ZM96.9738 11V3.23H99.7038V5.456H101.832C104.492 5.456 105.528 6.632 105.528 8.116V8.284C105.528 9.908 104.492 11 101.832 11H96.9738ZM99.7038 9.152H101.496C102.056 9.152 102.728 8.984 102.728 8.228V8.186C102.728 7.486 102.056 7.304 101.496 7.304H99.7038V9.152Z" fill="#C1A875" style="mix-blend-mode:color"/>
<defs>
<linearGradient id="paint0_linear_41_276" x1="3.98606e-07" y1="5.5" x2="107" y2="5.5" gradientUnits="userSpaceOnUse">
<stop stop-color="#576167"/>
<stop offset="0.191294" stop-color="#9EA1A2"/>
<stop offset="0.396166" stop-color="#848989"/>
<stop offset="0.62055" stop-color="#576167"/>
<stop offset="0.830299" stop-color="#757A7C"/>
<stop offset="1" stop-color="#576167"/>
</linearGradient>
<radialGradient id="paint1_radial_41_276" cx="0" cy="0" r="1" gradientUnits="userSpaceOnUse" gradientTransform="translate(56.9829 -1.78511) rotate(90) scale(14.1166 80.949)">
<stop stop-color="white"/>
<stop offset="1" stop-color="white" stop-opacity="0"/>
</radialGradient>
<radialGradient id="paint2_radial_41_276" cx="0" cy="0" r="1" gradientUnits="userSpaceOnUse" gradientTransform="translate(63.0352 19.4831) rotate(-89.5148) scale(20.2283 115.751)">
<stop stop-color="white"/>
<stop offset="1" stop-color="white" stop-opacity="0"/>
</radialGradient>
</defs>
</svg>
