<svg width="269" height="18" viewBox="0 0 269 18" fill="none" xmlns="http://www.w3.org/2000/svg">
<path d="M12.12 15L4.96 8V15H0.84V0.12H4.96V6.24L11.92 0.12H17.16L9.32 6.94L17.5 15H12.12ZM25.1386 15.3H24.5186C18.5386 15.3 17.6186 11.66 17.6186 9.64V9.36C17.6186 7.36 18.5386 3.6 24.4986 3.6H25.1586C31.3186 3.6 32.0386 7.38 32.0386 9.34V9.66C32.0386 11.66 31.3186 15.3 25.1386 15.3ZM24.7186 12.38H24.9386C27.3986 12.38 28.0186 10.62 28.0186 9.4C28.0186 8.14 27.3986 6.46 24.9386 6.46H24.7186C22.1586 6.46 21.6386 8.14 21.6386 9.4C21.6386 10.62 22.1586 12.38 24.7186 12.38ZM38.6216 15H34.7216V3.9H38.6216V7.94H44.0616V3.9H47.9616V15H44.0616V10.9H38.6216V15ZM54.3859 15V6.86H50.0859V3.9H62.5859V6.86H58.2859V15H54.3859ZM69.942 12.78C72.222 12.78 73.002 11.34 73.002 10.5V9.64C72.662 9.78 71.682 9.98 70.562 10.16C68.682 10.48 68.082 10.74 68.082 11.52V11.56C68.082 12.26 68.582 12.78 69.942 12.78ZM73.122 13.46C72.642 14.04 71.442 15.22 68.842 15.22H68.522C65.422 15.22 64.142 13.54 64.142 11.7V11.62C64.142 9.7 65.362 8.52 69.122 8.2L72.162 7.94C72.782 7.88 73.002 7.68 73.002 7.22C73.002 6.7 72.842 6.14 70.682 6.14C68.642 6.14 68.442 6.94 68.442 7.36H64.442V7.32C64.442 6.22 64.882 3.64 70.342 3.64H70.962C76.462 3.64 76.802 5.9 76.802 7.38V11.04C76.802 11.74 76.942 12.02 77.722 12.02H78.142V15H74.982C73.822 15 73.282 14.18 73.122 13.46ZM88.6261 15L84.3061 9.86V15H80.4061V3.9H84.3061V8.34L88.2661 3.9H92.7661L88.1261 8.88L93.2661 15H88.6261ZM98.0578 15V6.86H93.7578V3.9H106.258V6.86H101.958V15H98.0578ZM112.274 15H108.374V3.9H112.274V7.94H117.714V3.9H121.614V15H117.714V10.9H112.274V15ZM124.858 15V3.9H128.758V7.08H131.798C135.598 7.08 137.078 8.76 137.078 10.88V11.12C137.078 13.44 135.598 15 131.798 15H124.858ZM128.758 12.36H131.318C132.118 12.36 133.078 12.12 133.078 11.04V10.98C133.078 9.98 132.118 9.72 131.318 9.72H128.758V12.36ZM142.398 3.9V15H138.498V3.9H142.398ZM152.1 6.2C150.08 6.2 149.32 7.02 149.12 8.18H155C155 7.36 154.6 6.2 152.1 6.2ZM155.08 11.54H159.14C159.14 12.46 158.42 15.26 152.68 15.26H151.94C146.46 15.26 145.1 12.26 145.1 9.6V9.32C145.1 6.82 146.34 3.66 151.6 3.66H152.48C158.16 3.66 159.18 6.82 159.18 9.92V10.28H149.08C149.24 11.56 150.06 12.6 152.44 12.6C154.7 12.6 154.98 11.72 155.08 11.54ZM166.712 17.36V12.04H168.052C168.812 10.52 168.932 7.22 169.032 3.9H180.772V12.04H182.772V17.36H179.072V15H170.412V17.36H166.712ZM171.732 12.04H176.872V6.86H172.532C172.472 8.3 172.272 10.5 171.732 12.04ZM190.333 12.78C192.613 12.78 193.393 11.34 193.393 10.5V9.64C193.053 9.78 192.073 9.98 190.953 10.16C189.073 10.48 188.473 10.74 188.473 11.52V11.56C188.473 12.26 188.973 12.78 190.333 12.78ZM193.513 13.46C193.033 14.04 191.833 15.22 189.233 15.22H188.913C185.813 15.22 184.533 13.54 184.533 11.7V11.62C184.533 9.7 185.753 8.52 189.513 8.2L192.553 7.94C193.173 7.88 193.393 7.68 193.393 7.22C193.393 6.7 193.233 6.14 191.073 6.14C189.033 6.14 188.833 6.94 188.833 7.36H184.833V7.32C184.833 6.22 185.273 3.64 190.733 3.64H191.353C196.853 3.64 197.193 5.9 197.193 7.38V11.04C197.193 11.74 197.333 12.02 198.113 12.02H198.533V15H195.373C194.213 15 193.673 14.18 193.513 13.46ZM204.657 15H200.757V3.9H204.657V7.94H210.097V3.9H213.997V15H210.097V10.9H204.657V15ZM221.141 15H217.241V3.9H221.141V7.94H226.581V3.9H230.481V15H226.581V10.9H221.141V15ZM233.725 15V3.9H237.625V7.08H240.665C244.465 7.08 245.945 8.76 245.945 10.88V11.12C245.945 13.44 244.465 15 240.665 15H233.725ZM237.625 12.36H240.185C240.985 12.36 241.945 12.12 241.945 11.04V10.98C241.945 9.98 240.985 9.72 240.185 9.72H237.625V12.36ZM251.265 3.9V15H247.365V3.9H251.265ZM260.967 6.2C258.947 6.2 258.187 7.02 257.987 8.18H263.867C263.867 7.36 263.467 6.2 260.967 6.2ZM263.947 11.54H268.007C268.007 12.46 267.287 15.26 261.547 15.26H260.807C255.327 15.26 253.967 12.26 253.967 9.6V9.32C253.967 6.82 255.207 3.66 260.467 3.66H261.347C267.027 3.66 268.047 6.82 268.047 9.92V10.28H257.947C258.107 11.56 258.927 12.6 261.307 12.6C263.567 12.6 263.847 11.72 263.947 11.54Z" fill="url(#paint0_linear_41_269)"/>
<path d="M12.12 15L4.96 8V15H0.84V0.12H4.96V6.24L11.92 0.12H17.16L9.32 6.94L17.5 15H12.12ZM25.1386 15.3H24.5186C18.5386 15.3 17.6186 11.66 17.6186 9.64V9.36C17.6186 7.36 18.5386 3.6 24.4986 3.6H25.1586C31.3186 3.6 32.0386 7.38 32.0386 9.34V9.66C32.0386 11.66 31.3186 15.3 25.1386 15.3ZM24.7186 12.38H24.9386C27.3986 12.38 28.0186 10.62 28.0186 9.4C28.0186 8.14 27.3986 6.46 24.9386 6.46H24.7186C22.1586 6.46 21.6386 8.14 21.6386 9.4C21.6386 10.62 22.1586 12.38 24.7186 12.38ZM38.6216 15H34.7216V3.9H38.6216V7.94H44.0616V3.9H47.9616V15H44.0616V10.9H38.6216V15ZM54.3859 15V6.86H50.0859V3.9H62.5859V6.86H58.2859V15H54.3859ZM69.942 12.78C72.222 12.78 73.002 11.34 73.002 10.5V9.64C72.662 9.78 71.682 9.98 70.562 10.16C68.682 10.48 68.082 10.74 68.082 11.52V11.56C68.082 12.26 68.582 12.78 69.942 12.78ZM73.122 13.46C72.642 14.04 71.442 15.22 68.842 15.22H68.522C65.422 15.22 64.142 13.54 64.142 11.7V11.62C64.142 9.7 65.362 8.52 69.122 8.2L72.162 7.94C72.782 7.88 73.002 7.68 73.002 7.22C73.002 6.7 72.842 6.14 70.682 6.14C68.642 6.14 68.442 6.94 68.442 7.36H64.442V7.32C64.442 6.22 64.882 3.64 70.342 3.64H70.962C76.462 3.64 76.802 5.9 76.802 7.38V11.04C76.802 11.74 76.942 12.02 77.722 12.02H78.142V15H74.982C73.822 15 73.282 14.18 73.122 13.46ZM88.6261 15L84.3061 9.86V15H80.4061V3.9H84.3061V8.34L88.2661 3.9H92.7661L88.1261 8.88L93.2661 15H88.6261ZM98.0578 15V6.86H93.7578V3.9H106.258V6.86H101.958V15H98.0578ZM112.274 15H108.374V3.9H112.274V7.94H117.714V3.9H121.614V15H117.714V10.9H112.274V15ZM124.858 15V3.9H128.758V7.08H131.798C135.598 7.08 137.078 8.76 137.078 10.88V11.12C137.078 13.44 135.598 15 131.798 15H124.858ZM128.758 12.36H131.318C132.118 12.36 133.078 12.12 133.078 11.04V10.98C133.078 9.98 132.118 9.72 131.318 9.72H128.758V12.36ZM142.398 3.9V15H138.498V3.9H142.398ZM152.1 6.2C150.08 6.2 149.32 7.02 149.12 8.18H155C155 7.36 154.6 6.2 152.1 6.2ZM155.08 11.54H159.14C159.14 12.46 158.42 15.26 152.68 15.26H151.94C146.46 15.26 145.1 12.26 145.1 9.6V9.32C145.1 6.82 146.34 3.66 151.6 3.66H152.48C158.16 3.66 159.18 6.82 159.18 9.92V10.28H149.08C149.24 11.56 150.06 12.6 152.44 12.6C154.7 12.6 154.98 11.72 155.08 11.54ZM166.712 17.36V12.04H168.052C168.812 10.52 168.932 7.22 169.032 3.9H180.772V12.04H182.772V17.36H179.072V15H170.412V17.36H166.712ZM171.732 12.04H176.872V6.86H172.532C172.472 8.3 172.272 10.5 171.732 12.04ZM190.333 12.78C192.613 12.78 193.393 11.34 193.393 10.5V9.64C193.053 9.78 192.073 9.98 190.953 10.16C189.073 10.48 188.473 10.74 188.473 11.52V11.56C188.473 12.26 188.973 12.78 190.333 12.78ZM193.513 13.46C193.033 14.04 191.833 15.22 189.233 15.22H188.913C185.813 15.22 184.533 13.54 184.533 11.7V11.62C184.533 9.7 185.753 8.52 189.513 8.2L192.553 7.94C193.173 7.88 193.393 7.68 193.393 7.22C193.393 6.7 193.233 6.14 191.073 6.14C189.033 6.14 188.833 6.94 188.833 7.36H184.833V7.32C184.833 6.22 185.273 3.64 190.733 3.64H191.353C196.853 3.64 197.193 5.9 197.193 7.38V11.04C197.193 11.74 197.333 12.02 198.113 12.02H198.533V15H195.373C194.213 15 193.673 14.18 193.513 13.46ZM204.657 15H200.757V3.9H204.657V7.94H210.097V3.9H213.997V15H210.097V10.9H204.657V15ZM221.141 15H217.241V3.9H221.141V7.94H226.581V3.9H230.481V15H226.581V10.9H221.141V15ZM233.725 15V3.9H237.625V7.08H240.665C244.465 7.08 245.945 8.76 245.945 10.88V11.12C245.945 13.44 244.465 15 240.665 15H233.725ZM237.625 12.36H240.185C240.985 12.36 241.945 12.12 241.945 11.04V10.98C241.945 9.98 240.985 9.72 240.185 9.72H237.625V12.36ZM251.265 3.9V15H247.365V3.9H251.265ZM260.967 6.2C258.947 6.2 258.187 7.02 257.987 8.18H263.867C263.867 7.36 263.467 6.2 260.967 6.2ZM263.947 11.54H268.007C268.007 12.46 267.287 15.26 261.547 15.26H260.807C255.327 15.26 253.967 12.26 253.967 9.6V9.32C253.967 6.82 255.207 3.66 260.467 3.66H261.347C267.027 3.66 268.047 6.82 268.047 9.92V10.28H257.947C258.107 11.56 258.927 12.6 261.307 12.6C263.567 12.6 263.847 11.72 263.947 11.54Z" fill="url(#paint1_radial_41_269)" style="mix-blend-mode:overlay"/>
<path d="M12.12 15L4.96 8V15H0.84V0.12H4.96V6.24L11.92 0.12H17.16L9.32 6.94L17.5 15H12.12ZM25.1386 15.3H24.5186C18.5386 15.3 17.6186 11.66 17.6186 9.64V9.36C17.6186 7.36 18.5386 3.6 24.4986 3.6H25.1586C31.3186 3.6 32.0386 7.38 32.0386 9.34V9.66C32.0386 11.66 31.3186 15.3 25.1386 15.3ZM24.7186 12.38H24.9386C27.3986 12.38 28.0186 10.62 28.0186 9.4C28.0186 8.14 27.3986 6.46 24.9386 6.46H24.7186C22.1586 6.46 21.6386 8.14 21.6386 9.4C21.6386 10.62 22.1586 12.38 24.7186 12.38ZM38.6216 15H34.7216V3.9H38.6216V7.94H44.0616V3.9H47.9616V15H44.0616V10.9H38.6216V15ZM54.3859 15V6.86H50.0859V3.9H62.5859V6.86H58.2859V15H54.3859ZM69.942 12.78C72.222 12.78 73.002 11.34 73.002 10.5V9.64C72.662 9.78 71.682 9.98 70.562 10.16C68.682 10.48 68.082 10.74 68.082 11.52V11.56C68.082 12.26 68.582 12.78 69.942 12.78ZM73.122 13.46C72.642 14.04 71.442 15.22 68.842 15.22H68.522C65.422 15.22 64.142 13.54 64.142 11.7V11.62C64.142 9.7 65.362 8.52 69.122 8.2L72.162 7.94C72.782 7.88 73.002 7.68 73.002 7.22C73.002 6.7 72.842 6.14 70.682 6.14C68.642 6.14 68.442 6.94 68.442 7.36H64.442V7.32C64.442 6.22 64.882 3.64 70.342 3.64H70.962C76.462 3.64 76.802 5.9 76.802 7.38V11.04C76.802 11.74 76.942 12.02 77.722 12.02H78.142V15H74.982C73.822 15 73.282 14.18 73.122 13.46ZM88.6261 15L84.3061 9.86V15H80.4061V3.9H84.3061V8.34L88.2661 3.9H92.7661L88.1261 8.88L93.2661 15H88.6261ZM98.0578 15V6.86H93.7578V3.9H106.258V6.86H101.958V15H98.0578ZM112.274 15H108.374V3.9H112.274V7.94H117.714V3.9H121.614V15H117.714V10.9H112.274V15ZM124.858 15V3.9H128.758V7.08H131.798C135.598 7.08 137.078 8.76 137.078 10.88V11.12C137.078 13.44 135.598 15 131.798 15H124.858ZM128.758 12.36H131.318C132.118 12.36 133.078 12.12 133.078 11.04V10.98C133.078 9.98 132.118 9.72 131.318 9.72H128.758V12.36ZM142.398 3.9V15H138.498V3.9H142.398ZM152.1 6.2C150.08 6.2 149.32 7.02 149.12 8.18H155C155 7.36 154.6 6.2 152.1 6.2ZM155.08 11.54H159.14C159.14 12.46 158.42 15.26 152.68 15.26H151.94C146.46 15.26 145.1 12.26 145.1 9.6V9.32C145.1 6.82 146.34 3.66 151.6 3.66H152.48C158.16 3.66 159.18 6.82 159.18 9.92V10.28H149.08C149.24 11.56 150.06 12.6 152.44 12.6C154.7 12.6 154.98 11.72 155.08 11.54ZM166.712 17.36V12.04H168.052C168.812 10.52 168.932 7.22 169.032 3.9H180.772V12.04H182.772V17.36H179.072V15H170.412V17.36H166.712ZM171.732 12.04H176.872V6.86H172.532C172.472 8.3 172.272 10.5 171.732 12.04ZM190.333 12.78C192.613 12.78 193.393 11.34 193.393 10.5V9.64C193.053 9.78 192.073 9.98 190.953 10.16C189.073 10.48 188.473 10.74 188.473 11.52V11.56C188.473 12.26 188.973 12.78 190.333 12.78ZM193.513 13.46C193.033 14.04 191.833 15.22 189.233 15.22H188.913C185.813 15.22 184.533 13.54 184.533 11.7V11.62C184.533 9.7 185.753 8.52 189.513 8.2L192.553 7.94C193.173 7.88 193.393 7.68 193.393 7.22C193.393 6.7 193.233 6.14 191.073 6.14C189.033 6.14 188.833 6.94 188.833 7.36H184.833V7.32C184.833 6.22 185.273 3.64 190.733 3.64H191.353C196.853 3.64 197.193 5.9 197.193 7.38V11.04C197.193 11.74 197.333 12.02 198.113 12.02H198.533V15H195.373C194.213 15 193.673 14.18 193.513 13.46ZM204.657 15H200.757V3.9H204.657V7.94H210.097V3.9H213.997V15H210.097V10.9H204.657V15ZM221.141 15H217.241V3.9H221.141V7.94H226.581V3.9H230.481V15H226.581V10.9H221.141V15ZM233.725 15V3.9H237.625V7.08H240.665C244.465 7.08 245.945 8.76 245.945 10.88V11.12C245.945 13.44 244.465 15 240.665 15H233.725ZM237.625 12.36H240.185C240.985 12.36 241.945 12.12 241.945 11.04V10.98C241.945 9.98 240.985 9.72 240.185 9.72H237.625V12.36ZM251.265 3.9V15H247.365V3.9H251.265ZM260.967 6.2C258.947 6.2 258.187 7.02 257.987 8.18H263.867C263.867 7.36 263.467 6.2 260.967 6.2ZM263.947 11.54H268.007C268.007 12.46 267.287 15.26 261.547 15.26H260.807C255.327 15.26 253.967 12.26 253.967 9.6V9.32C253.967 6.82 255.207 3.66 260.467 3.66H261.347C267.027 3.66 268.047 6.82 268.047 9.92V10.28H257.947C258.107 11.56 258.927 12.6 261.307 12.6C263.567 12.6 263.847 11.72 263.947 11.54Z" fill="url(#paint2_radial_41_269)"/>
<path d="M12.12 15L4.96 8V15H0.84V0.12H4.96V6.24L11.92 0.12H17.16L9.32 6.94L17.5 15H12.12ZM25.1386 15.3H24.5186C18.5386 15.3 17.6186 11.66 17.6186 9.64V9.36C17.6186 7.36 18.5386 3.6 24.4986 3.6H25.1586C31.3186 3.6 32.0386 7.38 32.0386 9.34V9.66C32.0386 11.66 31.3186 15.3 25.1386 15.3ZM24.7186 12.38H24.9386C27.3986 12.38 28.0186 10.62 28.0186 9.4C28.0186 8.14 27.3986 6.46 24.9386 6.46H24.7186C22.1586 6.46 21.6386 8.14 21.6386 9.4C21.6386 10.62 22.1586 12.38 24.7186 12.38ZM38.6216 15H34.7216V3.9H38.6216V7.94H44.0616V3.9H47.9616V15H44.0616V10.9H38.6216V15ZM54.3859 15V6.86H50.0859V3.9H62.5859V6.86H58.2859V15H54.3859ZM69.942 12.78C72.222 12.78 73.002 11.34 73.002 10.5V9.64C72.662 9.78 71.682 9.98 70.562 10.16C68.682 10.48 68.082 10.74 68.082 11.52V11.56C68.082 12.26 68.582 12.78 69.942 12.78ZM73.122 13.46C72.642 14.04 71.442 15.22 68.842 15.22H68.522C65.422 15.22 64.142 13.54 64.142 11.7V11.62C64.142 9.7 65.362 8.52 69.122 8.2L72.162 7.94C72.782 7.88 73.002 7.68 73.002 7.22C73.002 6.7 72.842 6.14 70.682 6.14C68.642 6.14 68.442 6.94 68.442 7.36H64.442V7.32C64.442 6.22 64.882 3.64 70.342 3.64H70.962C76.462 3.64 76.802 5.9 76.802 7.38V11.04C76.802 11.74 76.942 12.02 77.722 12.02H78.142V15H74.982C73.822 15 73.282 14.18 73.122 13.46ZM88.6261 15L84.3061 9.86V15H80.4061V3.9H84.3061V8.34L88.2661 3.9H92.7661L88.1261 8.88L93.2661 15H88.6261ZM98.0578 15V6.86H93.7578V3.9H106.258V6.86H101.958V15H98.0578ZM112.274 15H108.374V3.9H112.274V7.94H117.714V3.9H121.614V15H117.714V10.9H112.274V15ZM124.858 15V3.9H128.758V7.08H131.798C135.598 7.08 137.078 8.76 137.078 10.88V11.12C137.078 13.44 135.598 15 131.798 15H124.858ZM128.758 12.36H131.318C132.118 12.36 133.078 12.12 133.078 11.04V10.98C133.078 9.98 132.118 9.72 131.318 9.72H128.758V12.36ZM142.398 3.9V15H138.498V3.9H142.398ZM152.1 6.2C150.08 6.2 149.32 7.02 149.12 8.18H155C155 7.36 154.6 6.2 152.1 6.2ZM155.08 11.54H159.14C159.14 12.46 158.42 15.26 152.68 15.26H151.94C146.46 15.26 145.1 12.26 145.1 9.6V9.32C145.1 6.82 146.34 3.66 151.6 3.66H152.48C158.16 3.66 159.18 6.82 159.18 9.92V10.28H149.08C149.24 11.56 150.06 12.6 152.44 12.6C154.7 12.6 154.98 11.72 155.08 11.54ZM166.712 17.36V12.04H168.052C168.812 10.52 168.932 7.22 169.032 3.9H180.772V12.04H182.772V17.36H179.072V15H170.412V17.36H166.712ZM171.732 12.04H176.872V6.86H172.532C172.472 8.3 172.272 10.5 171.732 12.04ZM190.333 12.78C192.613 12.78 193.393 11.34 193.393 10.5V9.64C193.053 9.78 192.073 9.98 190.953 10.16C189.073 10.48 188.473 10.74 188.473 11.52V11.56C188.473 12.26 188.973 12.78 190.333 12.78ZM193.513 13.46C193.033 14.04 191.833 15.22 189.233 15.22H188.913C185.813 15.22 184.533 13.54 184.533 11.7V11.62C184.533 9.7 185.753 8.52 189.513 8.2L192.553 7.94C193.173 7.88 193.393 7.68 193.393 7.22C193.393 6.7 193.233 6.14 191.073 6.14C189.033 6.14 188.833 6.94 188.833 7.36H184.833V7.32C184.833 6.22 185.273 3.64 190.733 3.64H191.353C196.853 3.64 197.193 5.9 197.193 7.38V11.04C197.193 11.74 197.333 12.02 198.113 12.02H198.533V15H195.373C194.213 15 193.673 14.18 193.513 13.46ZM204.657 15H200.757V3.9H204.657V7.94H210.097V3.9H213.997V15H210.097V10.9H204.657V15ZM221.141 15H217.241V3.9H221.141V7.94H226.581V3.9H230.481V15H226.581V10.9H221.141V15ZM233.725 15V3.9H237.625V7.08H240.665C244.465 7.08 245.945 8.76 245.945 10.88V11.12C245.945 13.44 244.465 15 240.665 15H233.725ZM237.625 12.36H240.185C240.985 12.36 241.945 12.12 241.945 11.04V10.98C241.945 9.98 240.985 9.72 240.185 9.72H237.625V12.36ZM251.265 3.9V15H247.365V3.9H251.265ZM260.967 6.2C258.947 6.2 258.187 7.02 257.987 8.18H263.867C263.867 7.36 263.467 6.2 260.967 6.2ZM263.947 11.54H268.007C268.007 12.46 267.287 15.26 261.547 15.26H260.807C255.327 15.26 253.967 12.26 253.967 9.6V9.32C253.967 6.82 255.207 3.66 260.467 3.66H261.347C267.027 3.66 268.047 6.82 268.047 9.92V10.28H257.947C258.107 11.56 258.927 12.6 261.307 12.6C263.567 12.6 263.847 11.72 263.947 11.54Z" fill="#C1A875" style="mix-blend-mode:color"/>
<defs>
<linearGradient id="paint0_linear_41_269" x1="-0.999999" y1="6.5" x2="270" y2="6.50002" gradientUnits="userSpaceOnUse">
<stop stop-color="#576167"/>
<stop offset="0.191294" stop-color="#9EA1A2"/>
<stop offset="0.396166" stop-color="#848989"/>
<stop offset="0.62055" stop-color="#576167"/>
<stop offset="0.830299" stop-color="#757A7C"/>
<stop offset="1" stop-color="#576167"/>
</linearGradient>
<radialGradient id="paint1_radial_41_269" cx="0" cy="0" r="1" gradientUnits="userSpaceOnUse" gradientTransform="translate(143.321 -3.85253) rotate(90) scale(20.0604 205.02)">
<stop stop-color="white"/>
<stop offset="1" stop-color="white" stop-opacity="0"/>
</radialGradient>
<radialGradient id="paint2_radial_41_269" cx="0" cy="0" r="1" gradientUnits="userSpaceOnUse" gradientTransform="translate(158.65 26.3708) rotate(-89.1353) scale(28.7477 293.141)">
<stop stop-color="white"/>
<stop offset="1" stop-color="white" stop-opacity="0"/>
</radialGradient>
</defs>
</svg>
