<svg width="184" height="65" viewBox="0 0 184 65" fill="none" xmlns="http://www.w3.org/2000/svg">
<path d="M10.998 8.762L8.568 3.308L6.21 8.762H10.998ZM13.338 14L12.24 11.516H5.004L3.924 14H0.198L6.138 0.608H11.106L17.316 14H13.338ZM27.1558 14V6.674H23.1958C23.1958 9.356 23.1058 10.85 22.7638 11.768C22.3858 12.776 21.8818 14 19.2358 14H18.1378V11.39H18.3538C18.9838 11.39 19.4518 11.174 19.6498 10.256C19.7938 9.482 19.8478 8.636 19.8478 4.01H30.6658V14H27.1558ZM41.9972 7.952L37.1732 14H33.5732V4.01H37.0832V10.058L41.9072 4.01H45.5072V14H41.9972V7.952ZM56.7788 10.076H60.4508C60.4508 11.588 59.5508 14.27 54.7448 14.27H53.8628C48.8768 14.27 47.9408 11.03 47.9408 9.14V8.888C47.9408 6.998 48.8228 3.74 53.8448 3.74H54.6728C59.4968 3.74 60.4508 6.368 60.4508 7.808V7.826H56.7788C56.7248 7.538 56.3828 6.296 54.3128 6.296H54.1328C52.0628 6.296 51.5768 7.718 51.5768 8.924V8.942C51.5768 10.184 52.1708 11.66 54.2048 11.66H54.3848C56.4727 11.66 56.7788 10.31 56.7788 10.076ZM67.5568 12.002C69.6088 12.002 70.3108 10.706 70.3108 9.95V9.176C70.0048 9.302 69.1228 9.482 68.1148 9.644C66.4228 9.932 65.8828 10.166 65.8828 10.868V10.904C65.8828 11.534 66.3328 12.002 67.5568 12.002ZM70.4188 12.614C69.9868 13.136 68.9068 14.198 66.5668 14.198H66.2788C63.4888 14.198 62.3368 12.686 62.3368 11.03V10.958C62.3368 9.23 63.4348 8.168 66.8188 7.88L69.5548 7.646C70.1128 7.592 70.3108 7.412 70.3108 6.998C70.3108 6.53 70.1668 6.026 68.2228 6.026C66.3868 6.026 66.2068 6.746 66.2068 7.124H62.6068V7.088C62.6068 6.098 63.0028 3.776 67.9168 3.776H68.4748C73.4248 3.776 73.7308 5.81 73.7308 7.142V10.436C73.7308 11.066 73.8568 11.318 74.5588 11.318H74.9368V14H72.0928C71.0488 14 70.5628 13.262 70.4188 12.614ZM1.656 38V24.608H11.43C15.264 24.608 16.218 26.282 16.218 27.776V27.974C16.218 29.666 14.76 30.476 13.752 30.62C15.264 30.872 16.884 31.772 16.884 33.932V34.13C16.884 35.948 15.786 38 11.484 38H1.656ZM10.89 27.398H5.364V29.792H10.89C12.024 29.792 12.348 29.252 12.348 28.622V28.586C12.348 27.938 11.988 27.398 10.89 27.398ZM11.178 32.42H5.364V35.066H11.178C12.474 35.066 12.852 34.382 12.852 33.716V33.644C12.852 32.978 12.474 32.42 11.178 32.42ZM27.4722 38V30.674H23.5122C23.5122 33.356 23.4222 34.85 23.0802 35.768C22.7022 36.776 22.1982 38 19.5522 38H18.4542V35.39H18.6702C19.3002 35.39 19.7682 35.174 19.9662 34.256C20.1102 33.482 20.1642 32.636 20.1642 28.01H30.9822V38H27.4722ZM38.6056 36.002C40.6576 36.002 41.3596 34.706 41.3596 33.95V33.176C41.0536 33.302 40.1716 33.482 39.1636 33.644C37.4716 33.932 36.9316 34.166 36.9316 34.868V34.904C36.9316 35.534 37.3816 36.002 38.6056 36.002ZM41.4676 36.614C41.0356 37.136 39.9556 38.198 37.6156 38.198H37.3276C34.5376 38.198 33.3856 36.686 33.3856 35.03V34.958C33.3856 33.23 34.4836 32.168 37.8676 31.88L40.6036 31.646C41.1616 31.592 41.3596 31.412 41.3596 30.998C41.3596 30.53 41.2156 30.026 39.2716 30.026C37.4356 30.026 37.2556 30.746 37.2556 31.124H33.6556V31.088C33.6556 30.098 34.0516 27.776 38.9656 27.776H39.5236C44.4736 27.776 44.7796 29.81 44.7796 31.142V34.436C44.7796 35.066 44.9056 35.318 45.6076 35.318H45.9856V38H43.1416C42.0976 38 41.6116 37.262 41.4676 36.614ZM47.5109 40.124V35.336H48.7169C49.4009 33.968 49.5089 30.998 49.5989 28.01H60.1649V35.336H61.9649V40.124H58.6349V38H50.8409V40.124H47.5109ZM52.0289 35.336H56.6549V30.674H52.7489C52.6949 31.97 52.5149 33.95 52.0289 35.336ZM72.4777 31.952L67.6537 38H64.0537V28.01H67.5637V34.058L72.3877 28.01H75.9877V38H72.4777V31.952ZM82.1472 31.268V38H78.9072V28.01H83.8572L86.8272 34.382L89.7972 28.01H94.5672V38H91.0572V31.268L87.9432 38H85.2612L82.1472 31.268ZM105.788 31.952L100.964 38H97.3643V28.01H100.874V34.058L105.698 28.01H109.298V38H105.788V31.952ZM121.398 33.014V32.96C121.398 31.88 120.894 30.422 118.698 30.422H118.518C116.412 30.422 115.746 31.808 115.746 32.96V33.014C115.746 34.112 116.412 35.552 118.518 35.552H118.698C120.894 35.552 121.398 34.04 121.398 33.014ZM112.254 41.438V28.01H115.728V29.288C116.16 28.82 117.474 27.812 119.742 27.812H119.976C123.792 27.812 125.034 30.422 125.034 32.798V33.104C125.034 35.282 123.756 38.198 119.958 38.198H119.706C117.42 38.198 116.196 37.154 115.764 36.722V41.438H112.254ZM133.74 38.27H133.182C127.8 38.27 126.972 34.994 126.972 33.176V32.924C126.972 31.124 127.8 27.74 133.164 27.74H133.758C139.302 27.74 139.95 31.142 139.95 32.906V33.194C139.95 34.994 139.302 38.27 133.74 38.27ZM133.362 35.642H133.56C135.774 35.642 136.332 34.058 136.332 32.96C136.332 31.826 135.774 30.314 133.56 30.314H133.362C131.058 30.314 130.59 31.826 130.59 32.96C130.59 34.058 131.058 35.642 133.362 35.642ZM150.608 38H142.364V28.01H150.248C152.534 28.01 153.974 28.82 153.974 30.404V30.494C153.974 31.736 153.182 32.474 151.976 32.672C153.2 32.816 154.298 33.68 154.298 35.12V35.192C154.298 37.01 153.11 38 150.608 38ZM145.874 31.988H149.096C149.942 31.988 150.374 31.664 150.374 31.034V30.944C150.374 30.368 149.978 30.026 149.096 30.026H145.874V31.988ZM145.874 35.984H149.24C150.176 35.984 150.698 35.678 150.698 34.976V34.832C150.698 34.202 150.266 33.806 149.24 33.806H145.874V35.984ZM160.253 38H156.743V28.01H160.253V31.646H165.149V28.01H168.659V38H165.149V34.31H160.253V38ZM176.295 36.002C178.347 36.002 179.049 34.706 179.049 33.95V33.176C178.743 33.302 177.861 33.482 176.853 33.644C175.161 33.932 174.621 34.166 174.621 34.868V34.904C174.621 35.534 175.071 36.002 176.295 36.002ZM179.157 36.614C178.725 37.136 177.645 38.198 175.305 38.198H175.017C172.227 38.198 171.075 36.686 171.075 35.03V34.958C171.075 33.23 172.173 32.168 175.557 31.88L178.293 31.646C178.851 31.592 179.049 31.412 179.049 30.998C179.049 30.53 178.905 30.026 176.961 30.026C175.125 30.026 174.945 30.746 174.945 31.124H171.345V31.088C171.345 30.098 171.741 27.776 176.655 27.776H177.213C182.163 27.776 182.469 29.81 182.469 31.142V34.436C182.469 35.066 182.595 35.318 183.297 35.318H183.675V38H180.831C179.787 38 179.301 37.262 179.157 36.614ZM9.396 49.814V48.428H13.104V49.814H15.57C19.116 49.814 21.87 51.254 21.87 55.034V55.178C21.87 58.958 19.098 60.632 15.534 60.632H13.104V62.18H9.396V60.632H6.966C3.402 60.632 0.63 58.958 0.63 55.178V55.034C0.63 51.254 3.384 49.814 6.93 49.814H9.396ZM9.396 52.748H7.704C5.67 52.748 4.482 53.45 4.482 55.034V55.178C4.482 56.996 5.634 57.698 7.704 57.698H9.396V52.748ZM13.104 52.748V57.698H14.796C16.866 57.698 18.018 56.996 18.018 55.178V55.034C18.018 53.45 16.83 52.748 14.796 52.748H13.104ZM30.0357 54.08C28.2177 54.08 27.5337 54.818 27.3537 55.862H32.6457C32.6457 55.124 32.2857 54.08 30.0357 54.08ZM32.7177 58.886H36.3717C36.3717 59.714 35.7237 62.234 30.5577 62.234H29.8917C24.9597 62.234 23.7357 59.534 23.7357 57.14V56.888C23.7357 54.638 24.8517 51.794 29.5857 51.794H30.3777C35.4897 51.794 36.4077 54.638 36.4077 57.428V57.752H27.3177C27.4617 58.904 28.1997 59.84 30.3417 59.84C32.3757 59.84 32.6277 59.048 32.7177 58.886ZM37.8077 64.124V59.336H39.0137C39.6977 57.968 39.8057 54.998 39.8957 52.01H50.4617V59.336H52.2617V64.124H48.9317V62H41.1377V64.124H37.8077ZM42.3257 59.336H46.9517V54.674H43.0457C42.9917 55.97 42.8117 57.95 42.3257 59.336ZM60.4388 62.27H59.8808C54.4988 62.27 53.6708 58.994 53.6708 57.176V56.924C53.6708 55.124 54.4988 51.74 59.8628 51.74H60.4568C66.0008 51.74 66.6488 55.142 66.6488 56.906V57.194C66.6488 58.994 66.0008 62.27 60.4388 62.27ZM60.0608 59.642H60.2588C62.4728 59.642 63.0308 58.058 63.0308 56.96C63.0308 55.826 62.4728 54.314 60.2588 54.314H60.0608C57.7568 54.314 57.2888 55.826 57.2888 56.96C57.2888 58.058 57.7568 59.642 60.0608 59.642ZM71.8376 62V54.674H67.9676V52.01H79.2176V54.674H75.3476V62H71.8376ZM87.3861 62.27H86.8281C81.4461 62.27 80.6181 58.994 80.6181 57.176V56.924C80.6181 55.124 81.4461 51.74 86.8101 51.74H87.4041C92.9481 51.74 93.5961 55.142 93.5961 56.906V57.194C93.5961 58.994 92.9481 62.27 87.3861 62.27ZM87.0081 59.642H87.2061C89.4201 59.642 89.9781 58.058 89.9781 56.96C89.9781 55.826 89.4201 54.314 87.2061 54.314H87.0081C84.7041 54.314 84.2361 55.826 84.2361 56.96C84.2361 58.058 84.7041 59.642 87.0081 59.642ZM104.255 62H96.0107V52.01H103.895C106.181 52.01 107.621 52.82 107.621 54.404V54.494C107.621 55.736 106.829 56.474 105.623 56.672C106.847 56.816 107.945 57.68 107.945 59.12V59.192C107.945 61.01 106.757 62 104.255 62ZM99.5207 55.988H102.743C103.589 55.988 104.021 55.664 104.021 55.034V54.944C104.021 54.368 103.625 54.026 102.743 54.026H99.5207V55.988ZM99.5207 59.984H102.887C103.823 59.984 104.345 59.678 104.345 58.976V58.832C104.345 58.202 103.913 57.806 102.887 57.806H99.5207V59.984ZM115.018 60.002C117.07 60.002 117.772 58.706 117.772 57.95V57.176C117.466 57.302 116.584 57.482 115.576 57.644C113.884 57.932 113.344 58.166 113.344 58.868V58.904C113.344 59.534 113.794 60.002 115.018 60.002ZM117.88 60.614C117.448 61.136 116.368 62.198 114.028 62.198H113.74C110.95 62.198 109.798 60.686 109.798 59.03V58.958C109.798 57.23 110.896 56.168 114.28 55.88L117.016 55.646C117.574 55.592 117.772 55.412 117.772 54.998C117.772 54.53 117.628 54.026 115.684 54.026C113.848 54.026 113.668 54.746 113.668 55.124H110.068V55.088C110.068 54.098 110.464 51.776 115.378 51.776H115.936C120.886 51.776 121.192 53.81 121.192 55.142V58.436C121.192 59.066 121.318 59.318 122.02 59.318H122.398V62H119.554C118.51 62 118.024 61.262 117.88 60.614Z" fill="url(#paint0_linear_2018_1392)"/>
<path d="M10.998 8.762L8.568 3.308L6.21 8.762H10.998ZM13.338 14L12.24 11.516H5.004L3.924 14H0.198L6.138 0.608H11.106L17.316 14H13.338ZM27.1558 14V6.674H23.1958C23.1958 9.356 23.1058 10.85 22.7638 11.768C22.3858 12.776 21.8818 14 19.2358 14H18.1378V11.39H18.3538C18.9838 11.39 19.4518 11.174 19.6498 10.256C19.7938 9.482 19.8478 8.636 19.8478 4.01H30.6658V14H27.1558ZM41.9972 7.952L37.1732 14H33.5732V4.01H37.0832V10.058L41.9072 4.01H45.5072V14H41.9972V7.952ZM56.7788 10.076H60.4508C60.4508 11.588 59.5508 14.27 54.7448 14.27H53.8628C48.8768 14.27 47.9408 11.03 47.9408 9.14V8.888C47.9408 6.998 48.8228 3.74 53.8448 3.74H54.6728C59.4968 3.74 60.4508 6.368 60.4508 7.808V7.826H56.7788C56.7248 7.538 56.3828 6.296 54.3128 6.296H54.1328C52.0628 6.296 51.5768 7.718 51.5768 8.924V8.942C51.5768 10.184 52.1708 11.66 54.2048 11.66H54.3848C56.4727 11.66 56.7788 10.31 56.7788 10.076ZM67.5568 12.002C69.6088 12.002 70.3108 10.706 70.3108 9.95V9.176C70.0048 9.302 69.1228 9.482 68.1148 9.644C66.4228 9.932 65.8828 10.166 65.8828 10.868V10.904C65.8828 11.534 66.3328 12.002 67.5568 12.002ZM70.4188 12.614C69.9868 13.136 68.9068 14.198 66.5668 14.198H66.2788C63.4888 14.198 62.3368 12.686 62.3368 11.03V10.958C62.3368 9.23 63.4348 8.168 66.8188 7.88L69.5548 7.646C70.1128 7.592 70.3108 7.412 70.3108 6.998C70.3108 6.53 70.1668 6.026 68.2228 6.026C66.3868 6.026 66.2068 6.746 66.2068 7.124H62.6068V7.088C62.6068 6.098 63.0028 3.776 67.9168 3.776H68.4748C73.4248 3.776 73.7308 5.81 73.7308 7.142V10.436C73.7308 11.066 73.8568 11.318 74.5588 11.318H74.9368V14H72.0928C71.0488 14 70.5628 13.262 70.4188 12.614ZM1.656 38V24.608H11.43C15.264 24.608 16.218 26.282 16.218 27.776V27.974C16.218 29.666 14.76 30.476 13.752 30.62C15.264 30.872 16.884 31.772 16.884 33.932V34.13C16.884 35.948 15.786 38 11.484 38H1.656ZM10.89 27.398H5.364V29.792H10.89C12.024 29.792 12.348 29.252 12.348 28.622V28.586C12.348 27.938 11.988 27.398 10.89 27.398ZM11.178 32.42H5.364V35.066H11.178C12.474 35.066 12.852 34.382 12.852 33.716V33.644C12.852 32.978 12.474 32.42 11.178 32.42ZM27.4722 38V30.674H23.5122C23.5122 33.356 23.4222 34.85 23.0802 35.768C22.7022 36.776 22.1982 38 19.5522 38H18.4542V35.39H18.6702C19.3002 35.39 19.7682 35.174 19.9662 34.256C20.1102 33.482 20.1642 32.636 20.1642 28.01H30.9822V38H27.4722ZM38.6056 36.002C40.6576 36.002 41.3596 34.706 41.3596 33.95V33.176C41.0536 33.302 40.1716 33.482 39.1636 33.644C37.4716 33.932 36.9316 34.166 36.9316 34.868V34.904C36.9316 35.534 37.3816 36.002 38.6056 36.002ZM41.4676 36.614C41.0356 37.136 39.9556 38.198 37.6156 38.198H37.3276C34.5376 38.198 33.3856 36.686 33.3856 35.03V34.958C33.3856 33.23 34.4836 32.168 37.8676 31.88L40.6036 31.646C41.1616 31.592 41.3596 31.412 41.3596 30.998C41.3596 30.53 41.2156 30.026 39.2716 30.026C37.4356 30.026 37.2556 30.746 37.2556 31.124H33.6556V31.088C33.6556 30.098 34.0516 27.776 38.9656 27.776H39.5236C44.4736 27.776 44.7796 29.81 44.7796 31.142V34.436C44.7796 35.066 44.9056 35.318 45.6076 35.318H45.9856V38H43.1416C42.0976 38 41.6116 37.262 41.4676 36.614ZM47.5109 40.124V35.336H48.7169C49.4009 33.968 49.5089 30.998 49.5989 28.01H60.1649V35.336H61.9649V40.124H58.6349V38H50.8409V40.124H47.5109ZM52.0289 35.336H56.6549V30.674H52.7489C52.6949 31.97 52.5149 33.95 52.0289 35.336ZM72.4777 31.952L67.6537 38H64.0537V28.01H67.5637V34.058L72.3877 28.01H75.9877V38H72.4777V31.952ZM82.1472 31.268V38H78.9072V28.01H83.8572L86.8272 34.382L89.7972 28.01H94.5672V38H91.0572V31.268L87.9432 38H85.2612L82.1472 31.268ZM105.788 31.952L100.964 38H97.3643V28.01H100.874V34.058L105.698 28.01H109.298V38H105.788V31.952ZM121.398 33.014V32.96C121.398 31.88 120.894 30.422 118.698 30.422H118.518C116.412 30.422 115.746 31.808 115.746 32.96V33.014C115.746 34.112 116.412 35.552 118.518 35.552H118.698C120.894 35.552 121.398 34.04 121.398 33.014ZM112.254 41.438V28.01H115.728V29.288C116.16 28.82 117.474 27.812 119.742 27.812H119.976C123.792 27.812 125.034 30.422 125.034 32.798V33.104C125.034 35.282 123.756 38.198 119.958 38.198H119.706C117.42 38.198 116.196 37.154 115.764 36.722V41.438H112.254ZM133.74 38.27H133.182C127.8 38.27 126.972 34.994 126.972 33.176V32.924C126.972 31.124 127.8 27.74 133.164 27.74H133.758C139.302 27.74 139.95 31.142 139.95 32.906V33.194C139.95 34.994 139.302 38.27 133.74 38.27ZM133.362 35.642H133.56C135.774 35.642 136.332 34.058 136.332 32.96C136.332 31.826 135.774 30.314 133.56 30.314H133.362C131.058 30.314 130.59 31.826 130.59 32.96C130.59 34.058 131.058 35.642 133.362 35.642ZM150.608 38H142.364V28.01H150.248C152.534 28.01 153.974 28.82 153.974 30.404V30.494C153.974 31.736 153.182 32.474 151.976 32.672C153.2 32.816 154.298 33.68 154.298 35.12V35.192C154.298 37.01 153.11 38 150.608 38ZM145.874 31.988H149.096C149.942 31.988 150.374 31.664 150.374 31.034V30.944C150.374 30.368 149.978 30.026 149.096 30.026H145.874V31.988ZM145.874 35.984H149.24C150.176 35.984 150.698 35.678 150.698 34.976V34.832C150.698 34.202 150.266 33.806 149.24 33.806H145.874V35.984ZM160.253 38H156.743V28.01H160.253V31.646H165.149V28.01H168.659V38H165.149V34.31H160.253V38ZM176.295 36.002C178.347 36.002 179.049 34.706 179.049 33.95V33.176C178.743 33.302 177.861 33.482 176.853 33.644C175.161 33.932 174.621 34.166 174.621 34.868V34.904C174.621 35.534 175.071 36.002 176.295 36.002ZM179.157 36.614C178.725 37.136 177.645 38.198 175.305 38.198H175.017C172.227 38.198 171.075 36.686 171.075 35.03V34.958C171.075 33.23 172.173 32.168 175.557 31.88L178.293 31.646C178.851 31.592 179.049 31.412 179.049 30.998C179.049 30.53 178.905 30.026 176.961 30.026C175.125 30.026 174.945 30.746 174.945 31.124H171.345V31.088C171.345 30.098 171.741 27.776 176.655 27.776H177.213C182.163 27.776 182.469 29.81 182.469 31.142V34.436C182.469 35.066 182.595 35.318 183.297 35.318H183.675V38H180.831C179.787 38 179.301 37.262 179.157 36.614ZM9.396 49.814V48.428H13.104V49.814H15.57C19.116 49.814 21.87 51.254 21.87 55.034V55.178C21.87 58.958 19.098 60.632 15.534 60.632H13.104V62.18H9.396V60.632H6.966C3.402 60.632 0.63 58.958 0.63 55.178V55.034C0.63 51.254 3.384 49.814 6.93 49.814H9.396ZM9.396 52.748H7.704C5.67 52.748 4.482 53.45 4.482 55.034V55.178C4.482 56.996 5.634 57.698 7.704 57.698H9.396V52.748ZM13.104 52.748V57.698H14.796C16.866 57.698 18.018 56.996 18.018 55.178V55.034C18.018 53.45 16.83 52.748 14.796 52.748H13.104ZM30.0357 54.08C28.2177 54.08 27.5337 54.818 27.3537 55.862H32.6457C32.6457 55.124 32.2857 54.08 30.0357 54.08ZM32.7177 58.886H36.3717C36.3717 59.714 35.7237 62.234 30.5577 62.234H29.8917C24.9597 62.234 23.7357 59.534 23.7357 57.14V56.888C23.7357 54.638 24.8517 51.794 29.5857 51.794H30.3777C35.4897 51.794 36.4077 54.638 36.4077 57.428V57.752H27.3177C27.4617 58.904 28.1997 59.84 30.3417 59.84C32.3757 59.84 32.6277 59.048 32.7177 58.886ZM37.8077 64.124V59.336H39.0137C39.6977 57.968 39.8057 54.998 39.8957 52.01H50.4617V59.336H52.2617V64.124H48.9317V62H41.1377V64.124H37.8077ZM42.3257 59.336H46.9517V54.674H43.0457C42.9917 55.97 42.8117 57.95 42.3257 59.336ZM60.4388 62.27H59.8808C54.4988 62.27 53.6708 58.994 53.6708 57.176V56.924C53.6708 55.124 54.4988 51.74 59.8628 51.74H60.4568C66.0008 51.74 66.6488 55.142 66.6488 56.906V57.194C66.6488 58.994 66.0008 62.27 60.4388 62.27ZM60.0608 59.642H60.2588C62.4728 59.642 63.0308 58.058 63.0308 56.96C63.0308 55.826 62.4728 54.314 60.2588 54.314H60.0608C57.7568 54.314 57.2888 55.826 57.2888 56.96C57.2888 58.058 57.7568 59.642 60.0608 59.642ZM71.8376 62V54.674H67.9676V52.01H79.2176V54.674H75.3476V62H71.8376ZM87.3861 62.27H86.8281C81.4461 62.27 80.6181 58.994 80.6181 57.176V56.924C80.6181 55.124 81.4461 51.74 86.8101 51.74H87.4041C92.9481 51.74 93.5961 55.142 93.5961 56.906V57.194C93.5961 58.994 92.9481 62.27 87.3861 62.27ZM87.0081 59.642H87.2061C89.4201 59.642 89.9781 58.058 89.9781 56.96C89.9781 55.826 89.4201 54.314 87.2061 54.314H87.0081C84.7041 54.314 84.2361 55.826 84.2361 56.96C84.2361 58.058 84.7041 59.642 87.0081 59.642ZM104.255 62H96.0107V52.01H103.895C106.181 52.01 107.621 52.82 107.621 54.404V54.494C107.621 55.736 106.829 56.474 105.623 56.672C106.847 56.816 107.945 57.68 107.945 59.12V59.192C107.945 61.01 106.757 62 104.255 62ZM99.5207 55.988H102.743C103.589 55.988 104.021 55.664 104.021 55.034V54.944C104.021 54.368 103.625 54.026 102.743 54.026H99.5207V55.988ZM99.5207 59.984H102.887C103.823 59.984 104.345 59.678 104.345 58.976V58.832C104.345 58.202 103.913 57.806 102.887 57.806H99.5207V59.984ZM115.018 60.002C117.07 60.002 117.772 58.706 117.772 57.95V57.176C117.466 57.302 116.584 57.482 115.576 57.644C113.884 57.932 113.344 58.166 113.344 58.868V58.904C113.344 59.534 113.794 60.002 115.018 60.002ZM117.88 60.614C117.448 61.136 116.368 62.198 114.028 62.198H113.74C110.95 62.198 109.798 60.686 109.798 59.03V58.958C109.798 57.23 110.896 56.168 114.28 55.88L117.016 55.646C117.574 55.592 117.772 55.412 117.772 54.998C117.772 54.53 117.628 54.026 115.684 54.026C113.848 54.026 113.668 54.746 113.668 55.124H110.068V55.088C110.068 54.098 110.464 51.776 115.378 51.776H115.936C120.886 51.776 121.192 53.81 121.192 55.142V58.436C121.192 59.066 121.318 59.318 122.02 59.318H122.398V62H119.554C118.51 62 118.024 61.262 117.88 60.614Z" fill="url(#paint1_radial_2018_1392)" style="mix-blend-mode:overlay"/>
<path d="M10.998 8.762L8.568 3.308L6.21 8.762H10.998ZM13.338 14L12.24 11.516H5.004L3.924 14H0.198L6.138 0.608H11.106L17.316 14H13.338ZM27.1558 14V6.674H23.1958C23.1958 9.356 23.1058 10.85 22.7638 11.768C22.3858 12.776 21.8818 14 19.2358 14H18.1378V11.39H18.3538C18.9838 11.39 19.4518 11.174 19.6498 10.256C19.7938 9.482 19.8478 8.636 19.8478 4.01H30.6658V14H27.1558ZM41.9972 7.952L37.1732 14H33.5732V4.01H37.0832V10.058L41.9072 4.01H45.5072V14H41.9972V7.952ZM56.7788 10.076H60.4508C60.4508 11.588 59.5508 14.27 54.7448 14.27H53.8628C48.8768 14.27 47.9408 11.03 47.9408 9.14V8.888C47.9408 6.998 48.8228 3.74 53.8448 3.74H54.6728C59.4968 3.74 60.4508 6.368 60.4508 7.808V7.826H56.7788C56.7248 7.538 56.3828 6.296 54.3128 6.296H54.1328C52.0628 6.296 51.5768 7.718 51.5768 8.924V8.942C51.5768 10.184 52.1708 11.66 54.2048 11.66H54.3848C56.4727 11.66 56.7788 10.31 56.7788 10.076ZM67.5568 12.002C69.6088 12.002 70.3108 10.706 70.3108 9.95V9.176C70.0048 9.302 69.1228 9.482 68.1148 9.644C66.4228 9.932 65.8828 10.166 65.8828 10.868V10.904C65.8828 11.534 66.3328 12.002 67.5568 12.002ZM70.4188 12.614C69.9868 13.136 68.9068 14.198 66.5668 14.198H66.2788C63.4888 14.198 62.3368 12.686 62.3368 11.03V10.958C62.3368 9.23 63.4348 8.168 66.8188 7.88L69.5548 7.646C70.1128 7.592 70.3108 7.412 70.3108 6.998C70.3108 6.53 70.1668 6.026 68.2228 6.026C66.3868 6.026 66.2068 6.746 66.2068 7.124H62.6068V7.088C62.6068 6.098 63.0028 3.776 67.9168 3.776H68.4748C73.4248 3.776 73.7308 5.81 73.7308 7.142V10.436C73.7308 11.066 73.8568 11.318 74.5588 11.318H74.9368V14H72.0928C71.0488 14 70.5628 13.262 70.4188 12.614ZM1.656 38V24.608H11.43C15.264 24.608 16.218 26.282 16.218 27.776V27.974C16.218 29.666 14.76 30.476 13.752 30.62C15.264 30.872 16.884 31.772 16.884 33.932V34.13C16.884 35.948 15.786 38 11.484 38H1.656ZM10.89 27.398H5.364V29.792H10.89C12.024 29.792 12.348 29.252 12.348 28.622V28.586C12.348 27.938 11.988 27.398 10.89 27.398ZM11.178 32.42H5.364V35.066H11.178C12.474 35.066 12.852 34.382 12.852 33.716V33.644C12.852 32.978 12.474 32.42 11.178 32.42ZM27.4722 38V30.674H23.5122C23.5122 33.356 23.4222 34.85 23.0802 35.768C22.7022 36.776 22.1982 38 19.5522 38H18.4542V35.39H18.6702C19.3002 35.39 19.7682 35.174 19.9662 34.256C20.1102 33.482 20.1642 32.636 20.1642 28.01H30.9822V38H27.4722ZM38.6056 36.002C40.6576 36.002 41.3596 34.706 41.3596 33.95V33.176C41.0536 33.302 40.1716 33.482 39.1636 33.644C37.4716 33.932 36.9316 34.166 36.9316 34.868V34.904C36.9316 35.534 37.3816 36.002 38.6056 36.002ZM41.4676 36.614C41.0356 37.136 39.9556 38.198 37.6156 38.198H37.3276C34.5376 38.198 33.3856 36.686 33.3856 35.03V34.958C33.3856 33.23 34.4836 32.168 37.8676 31.88L40.6036 31.646C41.1616 31.592 41.3596 31.412 41.3596 30.998C41.3596 30.53 41.2156 30.026 39.2716 30.026C37.4356 30.026 37.2556 30.746 37.2556 31.124H33.6556V31.088C33.6556 30.098 34.0516 27.776 38.9656 27.776H39.5236C44.4736 27.776 44.7796 29.81 44.7796 31.142V34.436C44.7796 35.066 44.9056 35.318 45.6076 35.318H45.9856V38H43.1416C42.0976 38 41.6116 37.262 41.4676 36.614ZM47.5109 40.124V35.336H48.7169C49.4009 33.968 49.5089 30.998 49.5989 28.01H60.1649V35.336H61.9649V40.124H58.6349V38H50.8409V40.124H47.5109ZM52.0289 35.336H56.6549V30.674H52.7489C52.6949 31.97 52.5149 33.95 52.0289 35.336ZM72.4777 31.952L67.6537 38H64.0537V28.01H67.5637V34.058L72.3877 28.01H75.9877V38H72.4777V31.952ZM82.1472 31.268V38H78.9072V28.01H83.8572L86.8272 34.382L89.7972 28.01H94.5672V38H91.0572V31.268L87.9432 38H85.2612L82.1472 31.268ZM105.788 31.952L100.964 38H97.3643V28.01H100.874V34.058L105.698 28.01H109.298V38H105.788V31.952ZM121.398 33.014V32.96C121.398 31.88 120.894 30.422 118.698 30.422H118.518C116.412 30.422 115.746 31.808 115.746 32.96V33.014C115.746 34.112 116.412 35.552 118.518 35.552H118.698C120.894 35.552 121.398 34.04 121.398 33.014ZM112.254 41.438V28.01H115.728V29.288C116.16 28.82 117.474 27.812 119.742 27.812H119.976C123.792 27.812 125.034 30.422 125.034 32.798V33.104C125.034 35.282 123.756 38.198 119.958 38.198H119.706C117.42 38.198 116.196 37.154 115.764 36.722V41.438H112.254ZM133.74 38.27H133.182C127.8 38.27 126.972 34.994 126.972 33.176V32.924C126.972 31.124 127.8 27.74 133.164 27.74H133.758C139.302 27.74 139.95 31.142 139.95 32.906V33.194C139.95 34.994 139.302 38.27 133.74 38.27ZM133.362 35.642H133.56C135.774 35.642 136.332 34.058 136.332 32.96C136.332 31.826 135.774 30.314 133.56 30.314H133.362C131.058 30.314 130.59 31.826 130.59 32.96C130.59 34.058 131.058 35.642 133.362 35.642ZM150.608 38H142.364V28.01H150.248C152.534 28.01 153.974 28.82 153.974 30.404V30.494C153.974 31.736 153.182 32.474 151.976 32.672C153.2 32.816 154.298 33.68 154.298 35.12V35.192C154.298 37.01 153.11 38 150.608 38ZM145.874 31.988H149.096C149.942 31.988 150.374 31.664 150.374 31.034V30.944C150.374 30.368 149.978 30.026 149.096 30.026H145.874V31.988ZM145.874 35.984H149.24C150.176 35.984 150.698 35.678 150.698 34.976V34.832C150.698 34.202 150.266 33.806 149.24 33.806H145.874V35.984ZM160.253 38H156.743V28.01H160.253V31.646H165.149V28.01H168.659V38H165.149V34.31H160.253V38ZM176.295 36.002C178.347 36.002 179.049 34.706 179.049 33.95V33.176C178.743 33.302 177.861 33.482 176.853 33.644C175.161 33.932 174.621 34.166 174.621 34.868V34.904C174.621 35.534 175.071 36.002 176.295 36.002ZM179.157 36.614C178.725 37.136 177.645 38.198 175.305 38.198H175.017C172.227 38.198 171.075 36.686 171.075 35.03V34.958C171.075 33.23 172.173 32.168 175.557 31.88L178.293 31.646C178.851 31.592 179.049 31.412 179.049 30.998C179.049 30.53 178.905 30.026 176.961 30.026C175.125 30.026 174.945 30.746 174.945 31.124H171.345V31.088C171.345 30.098 171.741 27.776 176.655 27.776H177.213C182.163 27.776 182.469 29.81 182.469 31.142V34.436C182.469 35.066 182.595 35.318 183.297 35.318H183.675V38H180.831C179.787 38 179.301 37.262 179.157 36.614ZM9.396 49.814V48.428H13.104V49.814H15.57C19.116 49.814 21.87 51.254 21.87 55.034V55.178C21.87 58.958 19.098 60.632 15.534 60.632H13.104V62.18H9.396V60.632H6.966C3.402 60.632 0.63 58.958 0.63 55.178V55.034C0.63 51.254 3.384 49.814 6.93 49.814H9.396ZM9.396 52.748H7.704C5.67 52.748 4.482 53.45 4.482 55.034V55.178C4.482 56.996 5.634 57.698 7.704 57.698H9.396V52.748ZM13.104 52.748V57.698H14.796C16.866 57.698 18.018 56.996 18.018 55.178V55.034C18.018 53.45 16.83 52.748 14.796 52.748H13.104ZM30.0357 54.08C28.2177 54.08 27.5337 54.818 27.3537 55.862H32.6457C32.6457 55.124 32.2857 54.08 30.0357 54.08ZM32.7177 58.886H36.3717C36.3717 59.714 35.7237 62.234 30.5577 62.234H29.8917C24.9597 62.234 23.7357 59.534 23.7357 57.14V56.888C23.7357 54.638 24.8517 51.794 29.5857 51.794H30.3777C35.4897 51.794 36.4077 54.638 36.4077 57.428V57.752H27.3177C27.4617 58.904 28.1997 59.84 30.3417 59.84C32.3757 59.84 32.6277 59.048 32.7177 58.886ZM37.8077 64.124V59.336H39.0137C39.6977 57.968 39.8057 54.998 39.8957 52.01H50.4617V59.336H52.2617V64.124H48.9317V62H41.1377V64.124H37.8077ZM42.3257 59.336H46.9517V54.674H43.0457C42.9917 55.97 42.8117 57.95 42.3257 59.336ZM60.4388 62.27H59.8808C54.4988 62.27 53.6708 58.994 53.6708 57.176V56.924C53.6708 55.124 54.4988 51.74 59.8628 51.74H60.4568C66.0008 51.74 66.6488 55.142 66.6488 56.906V57.194C66.6488 58.994 66.0008 62.27 60.4388 62.27ZM60.0608 59.642H60.2588C62.4728 59.642 63.0308 58.058 63.0308 56.96C63.0308 55.826 62.4728 54.314 60.2588 54.314H60.0608C57.7568 54.314 57.2888 55.826 57.2888 56.96C57.2888 58.058 57.7568 59.642 60.0608 59.642ZM71.8376 62V54.674H67.9676V52.01H79.2176V54.674H75.3476V62H71.8376ZM87.3861 62.27H86.8281C81.4461 62.27 80.6181 58.994 80.6181 57.176V56.924C80.6181 55.124 81.4461 51.74 86.8101 51.74H87.4041C92.9481 51.74 93.5961 55.142 93.5961 56.906V57.194C93.5961 58.994 92.9481 62.27 87.3861 62.27ZM87.0081 59.642H87.2061C89.4201 59.642 89.9781 58.058 89.9781 56.96C89.9781 55.826 89.4201 54.314 87.2061 54.314H87.0081C84.7041 54.314 84.2361 55.826 84.2361 56.96C84.2361 58.058 84.7041 59.642 87.0081 59.642ZM104.255 62H96.0107V52.01H103.895C106.181 52.01 107.621 52.82 107.621 54.404V54.494C107.621 55.736 106.829 56.474 105.623 56.672C106.847 56.816 107.945 57.68 107.945 59.12V59.192C107.945 61.01 106.757 62 104.255 62ZM99.5207 55.988H102.743C103.589 55.988 104.021 55.664 104.021 55.034V54.944C104.021 54.368 103.625 54.026 102.743 54.026H99.5207V55.988ZM99.5207 59.984H102.887C103.823 59.984 104.345 59.678 104.345 58.976V58.832C104.345 58.202 103.913 57.806 102.887 57.806H99.5207V59.984ZM115.018 60.002C117.07 60.002 117.772 58.706 117.772 57.95V57.176C117.466 57.302 116.584 57.482 115.576 57.644C113.884 57.932 113.344 58.166 113.344 58.868V58.904C113.344 59.534 113.794 60.002 115.018 60.002ZM117.88 60.614C117.448 61.136 116.368 62.198 114.028 62.198H113.74C110.95 62.198 109.798 60.686 109.798 59.03V58.958C109.798 57.23 110.896 56.168 114.28 55.88L117.016 55.646C117.574 55.592 117.772 55.412 117.772 54.998C117.772 54.53 117.628 54.026 115.684 54.026C113.848 54.026 113.668 54.746 113.668 55.124H110.068V55.088C110.068 54.098 110.464 51.776 115.378 51.776H115.936C120.886 51.776 121.192 53.81 121.192 55.142V58.436C121.192 59.066 121.318 59.318 122.02 59.318H122.398V62H119.554C118.51 62 118.024 61.262 117.88 60.614Z" fill="url(#paint2_radial_2018_1392)"/>
<path d="M10.998 8.762L8.568 3.308L6.21 8.762H10.998ZM13.338 14L12.24 11.516H5.004L3.924 14H0.198L6.138 0.608H11.106L17.316 14H13.338ZM27.1558 14V6.674H23.1958C23.1958 9.356 23.1058 10.85 22.7638 11.768C22.3858 12.776 21.8818 14 19.2358 14H18.1378V11.39H18.3538C18.9838 11.39 19.4518 11.174 19.6498 10.256C19.7938 9.482 19.8478 8.636 19.8478 4.01H30.6658V14H27.1558ZM41.9972 7.952L37.1732 14H33.5732V4.01H37.0832V10.058L41.9072 4.01H45.5072V14H41.9972V7.952ZM56.7788 10.076H60.4508C60.4508 11.588 59.5508 14.27 54.7448 14.27H53.8628C48.8768 14.27 47.9408 11.03 47.9408 9.14V8.888C47.9408 6.998 48.8228 3.74 53.8448 3.74H54.6728C59.4968 3.74 60.4508 6.368 60.4508 7.808V7.826H56.7788C56.7248 7.538 56.3828 6.296 54.3128 6.296H54.1328C52.0628 6.296 51.5768 7.718 51.5768 8.924V8.942C51.5768 10.184 52.1708 11.66 54.2048 11.66H54.3848C56.4727 11.66 56.7788 10.31 56.7788 10.076ZM67.5568 12.002C69.6088 12.002 70.3108 10.706 70.3108 9.95V9.176C70.0048 9.302 69.1228 9.482 68.1148 9.644C66.4228 9.932 65.8828 10.166 65.8828 10.868V10.904C65.8828 11.534 66.3328 12.002 67.5568 12.002ZM70.4188 12.614C69.9868 13.136 68.9068 14.198 66.5668 14.198H66.2788C63.4888 14.198 62.3368 12.686 62.3368 11.03V10.958C62.3368 9.23 63.4348 8.168 66.8188 7.88L69.5548 7.646C70.1128 7.592 70.3108 7.412 70.3108 6.998C70.3108 6.53 70.1668 6.026 68.2228 6.026C66.3868 6.026 66.2068 6.746 66.2068 7.124H62.6068V7.088C62.6068 6.098 63.0028 3.776 67.9168 3.776H68.4748C73.4248 3.776 73.7308 5.81 73.7308 7.142V10.436C73.7308 11.066 73.8568 11.318 74.5588 11.318H74.9368V14H72.0928C71.0488 14 70.5628 13.262 70.4188 12.614ZM1.656 38V24.608H11.43C15.264 24.608 16.218 26.282 16.218 27.776V27.974C16.218 29.666 14.76 30.476 13.752 30.62C15.264 30.872 16.884 31.772 16.884 33.932V34.13C16.884 35.948 15.786 38 11.484 38H1.656ZM10.89 27.398H5.364V29.792H10.89C12.024 29.792 12.348 29.252 12.348 28.622V28.586C12.348 27.938 11.988 27.398 10.89 27.398ZM11.178 32.42H5.364V35.066H11.178C12.474 35.066 12.852 34.382 12.852 33.716V33.644C12.852 32.978 12.474 32.42 11.178 32.42ZM27.4722 38V30.674H23.5122C23.5122 33.356 23.4222 34.85 23.0802 35.768C22.7022 36.776 22.1982 38 19.5522 38H18.4542V35.39H18.6702C19.3002 35.39 19.7682 35.174 19.9662 34.256C20.1102 33.482 20.1642 32.636 20.1642 28.01H30.9822V38H27.4722ZM38.6056 36.002C40.6576 36.002 41.3596 34.706 41.3596 33.95V33.176C41.0536 33.302 40.1716 33.482 39.1636 33.644C37.4716 33.932 36.9316 34.166 36.9316 34.868V34.904C36.9316 35.534 37.3816 36.002 38.6056 36.002ZM41.4676 36.614C41.0356 37.136 39.9556 38.198 37.6156 38.198H37.3276C34.5376 38.198 33.3856 36.686 33.3856 35.03V34.958C33.3856 33.23 34.4836 32.168 37.8676 31.88L40.6036 31.646C41.1616 31.592 41.3596 31.412 41.3596 30.998C41.3596 30.53 41.2156 30.026 39.2716 30.026C37.4356 30.026 37.2556 30.746 37.2556 31.124H33.6556V31.088C33.6556 30.098 34.0516 27.776 38.9656 27.776H39.5236C44.4736 27.776 44.7796 29.81 44.7796 31.142V34.436C44.7796 35.066 44.9056 35.318 45.6076 35.318H45.9856V38H43.1416C42.0976 38 41.6116 37.262 41.4676 36.614ZM47.5109 40.124V35.336H48.7169C49.4009 33.968 49.5089 30.998 49.5989 28.01H60.1649V35.336H61.9649V40.124H58.6349V38H50.8409V40.124H47.5109ZM52.0289 35.336H56.6549V30.674H52.7489C52.6949 31.97 52.5149 33.95 52.0289 35.336ZM72.4777 31.952L67.6537 38H64.0537V28.01H67.5637V34.058L72.3877 28.01H75.9877V38H72.4777V31.952ZM82.1472 31.268V38H78.9072V28.01H83.8572L86.8272 34.382L89.7972 28.01H94.5672V38H91.0572V31.268L87.9432 38H85.2612L82.1472 31.268ZM105.788 31.952L100.964 38H97.3643V28.01H100.874V34.058L105.698 28.01H109.298V38H105.788V31.952ZM121.398 33.014V32.96C121.398 31.88 120.894 30.422 118.698 30.422H118.518C116.412 30.422 115.746 31.808 115.746 32.96V33.014C115.746 34.112 116.412 35.552 118.518 35.552H118.698C120.894 35.552 121.398 34.04 121.398 33.014ZM112.254 41.438V28.01H115.728V29.288C116.16 28.82 117.474 27.812 119.742 27.812H119.976C123.792 27.812 125.034 30.422 125.034 32.798V33.104C125.034 35.282 123.756 38.198 119.958 38.198H119.706C117.42 38.198 116.196 37.154 115.764 36.722V41.438H112.254ZM133.74 38.27H133.182C127.8 38.27 126.972 34.994 126.972 33.176V32.924C126.972 31.124 127.8 27.74 133.164 27.74H133.758C139.302 27.74 139.95 31.142 139.95 32.906V33.194C139.95 34.994 139.302 38.27 133.74 38.27ZM133.362 35.642H133.56C135.774 35.642 136.332 34.058 136.332 32.96C136.332 31.826 135.774 30.314 133.56 30.314H133.362C131.058 30.314 130.59 31.826 130.59 32.96C130.59 34.058 131.058 35.642 133.362 35.642ZM150.608 38H142.364V28.01H150.248C152.534 28.01 153.974 28.82 153.974 30.404V30.494C153.974 31.736 153.182 32.474 151.976 32.672C153.2 32.816 154.298 33.68 154.298 35.12V35.192C154.298 37.01 153.11 38 150.608 38ZM145.874 31.988H149.096C149.942 31.988 150.374 31.664 150.374 31.034V30.944C150.374 30.368 149.978 30.026 149.096 30.026H145.874V31.988ZM145.874 35.984H149.24C150.176 35.984 150.698 35.678 150.698 34.976V34.832C150.698 34.202 150.266 33.806 149.24 33.806H145.874V35.984ZM160.253 38H156.743V28.01H160.253V31.646H165.149V28.01H168.659V38H165.149V34.31H160.253V38ZM176.295 36.002C178.347 36.002 179.049 34.706 179.049 33.95V33.176C178.743 33.302 177.861 33.482 176.853 33.644C175.161 33.932 174.621 34.166 174.621 34.868V34.904C174.621 35.534 175.071 36.002 176.295 36.002ZM179.157 36.614C178.725 37.136 177.645 38.198 175.305 38.198H175.017C172.227 38.198 171.075 36.686 171.075 35.03V34.958C171.075 33.23 172.173 32.168 175.557 31.88L178.293 31.646C178.851 31.592 179.049 31.412 179.049 30.998C179.049 30.53 178.905 30.026 176.961 30.026C175.125 30.026 174.945 30.746 174.945 31.124H171.345V31.088C171.345 30.098 171.741 27.776 176.655 27.776H177.213C182.163 27.776 182.469 29.81 182.469 31.142V34.436C182.469 35.066 182.595 35.318 183.297 35.318H183.675V38H180.831C179.787 38 179.301 37.262 179.157 36.614ZM9.396 49.814V48.428H13.104V49.814H15.57C19.116 49.814 21.87 51.254 21.87 55.034V55.178C21.87 58.958 19.098 60.632 15.534 60.632H13.104V62.18H9.396V60.632H6.966C3.402 60.632 0.63 58.958 0.63 55.178V55.034C0.63 51.254 3.384 49.814 6.93 49.814H9.396ZM9.396 52.748H7.704C5.67 52.748 4.482 53.45 4.482 55.034V55.178C4.482 56.996 5.634 57.698 7.704 57.698H9.396V52.748ZM13.104 52.748V57.698H14.796C16.866 57.698 18.018 56.996 18.018 55.178V55.034C18.018 53.45 16.83 52.748 14.796 52.748H13.104ZM30.0357 54.08C28.2177 54.08 27.5337 54.818 27.3537 55.862H32.6457C32.6457 55.124 32.2857 54.08 30.0357 54.08ZM32.7177 58.886H36.3717C36.3717 59.714 35.7237 62.234 30.5577 62.234H29.8917C24.9597 62.234 23.7357 59.534 23.7357 57.14V56.888C23.7357 54.638 24.8517 51.794 29.5857 51.794H30.3777C35.4897 51.794 36.4077 54.638 36.4077 57.428V57.752H27.3177C27.4617 58.904 28.1997 59.84 30.3417 59.84C32.3757 59.84 32.6277 59.048 32.7177 58.886ZM37.8077 64.124V59.336H39.0137C39.6977 57.968 39.8057 54.998 39.8957 52.01H50.4617V59.336H52.2617V64.124H48.9317V62H41.1377V64.124H37.8077ZM42.3257 59.336H46.9517V54.674H43.0457C42.9917 55.97 42.8117 57.95 42.3257 59.336ZM60.4388 62.27H59.8808C54.4988 62.27 53.6708 58.994 53.6708 57.176V56.924C53.6708 55.124 54.4988 51.74 59.8628 51.74H60.4568C66.0008 51.74 66.6488 55.142 66.6488 56.906V57.194C66.6488 58.994 66.0008 62.27 60.4388 62.27ZM60.0608 59.642H60.2588C62.4728 59.642 63.0308 58.058 63.0308 56.96C63.0308 55.826 62.4728 54.314 60.2588 54.314H60.0608C57.7568 54.314 57.2888 55.826 57.2888 56.96C57.2888 58.058 57.7568 59.642 60.0608 59.642ZM71.8376 62V54.674H67.9676V52.01H79.2176V54.674H75.3476V62H71.8376ZM87.3861 62.27H86.8281C81.4461 62.27 80.6181 58.994 80.6181 57.176V56.924C80.6181 55.124 81.4461 51.74 86.8101 51.74H87.4041C92.9481 51.74 93.5961 55.142 93.5961 56.906V57.194C93.5961 58.994 92.9481 62.27 87.3861 62.27ZM87.0081 59.642H87.2061C89.4201 59.642 89.9781 58.058 89.9781 56.96C89.9781 55.826 89.4201 54.314 87.2061 54.314H87.0081C84.7041 54.314 84.2361 55.826 84.2361 56.96C84.2361 58.058 84.7041 59.642 87.0081 59.642ZM104.255 62H96.0107V52.01H103.895C106.181 52.01 107.621 52.82 107.621 54.404V54.494C107.621 55.736 106.829 56.474 105.623 56.672C106.847 56.816 107.945 57.68 107.945 59.12V59.192C107.945 61.01 106.757 62 104.255 62ZM99.5207 55.988H102.743C103.589 55.988 104.021 55.664 104.021 55.034V54.944C104.021 54.368 103.625 54.026 102.743 54.026H99.5207V55.988ZM99.5207 59.984H102.887C103.823 59.984 104.345 59.678 104.345 58.976V58.832C104.345 58.202 103.913 57.806 102.887 57.806H99.5207V59.984ZM115.018 60.002C117.07 60.002 117.772 58.706 117.772 57.95V57.176C117.466 57.302 116.584 57.482 115.576 57.644C113.884 57.932 113.344 58.166 113.344 58.868V58.904C113.344 59.534 113.794 60.002 115.018 60.002ZM117.88 60.614C117.448 61.136 116.368 62.198 114.028 62.198H113.74C110.95 62.198 109.798 60.686 109.798 59.03V58.958C109.798 57.23 110.896 56.168 114.28 55.88L117.016 55.646C117.574 55.592 117.772 55.412 117.772 54.998C117.772 54.53 117.628 54.026 115.684 54.026C113.848 54.026 113.668 54.746 113.668 55.124H110.068V55.088C110.068 54.098 110.464 51.776 115.378 51.776H115.936C120.886 51.776 121.192 53.81 121.192 55.142V58.436C121.192 59.066 121.318 59.318 122.02 59.318H122.398V62H119.554C118.51 62 118.024 61.262 117.88 60.614Z" fill="#C1A875" style="mix-blend-mode:color"/>
<defs>
<linearGradient id="paint0_linear_2018_1392" x1="8.27014e-07" y1="30" x2="222" y2="30" gradientUnits="userSpaceOnUse">
<stop stop-color="#576167"/>
<stop offset="0.191294" stop-color="#9EA1A2"/>
<stop offset="0.396166" stop-color="#848989"/>
<stop offset="0.62055" stop-color="#576167"/>
<stop offset="0.830299" stop-color="#757A7C"/>
<stop offset="1" stop-color="#576167"/>
</linearGradient>
<radialGradient id="paint1_radial_2018_1392" cx="0" cy="0" r="1" gradientUnits="userSpaceOnUse" gradientTransform="translate(118.226 2.39326) rotate(90) scale(53.4944 167.95)">
<stop stop-color="white"/>
<stop offset="1" stop-color="white" stop-opacity="0"/>
</radialGradient>
<radialGradient id="paint2_radial_2018_1392" cx="0" cy="0" r="1" gradientUnits="userSpaceOnUse" gradientTransform="translate(130.783 82.9888) rotate(-89.7344) scale(76.6525 240.162)">
<stop stop-color="white"/>
<stop offset="1" stop-color="white" stop-opacity="0"/>
</radialGradient>
</defs>
</svg>
