<svg width="191" height="66" viewBox="0 0 191 66" fill="none" xmlns="http://www.w3.org/2000/svg">
<path d="M12.24 14V3.56H6.48C6.48 7.214 6.318 10.004 5.832 11.462C5.4 12.74 4.626 14 1.962 14H0.63V10.85H0.756C1.854 10.85 2.304 10.346 2.52 9.788C2.88 8.852 2.97 7.574 2.97 0.608H15.948V14H12.24ZM24.8677 6.08C23.0497 6.08 22.3657 6.818 22.1857 7.862H27.4777C27.4777 7.124 27.1177 6.08 24.8677 6.08ZM27.5497 10.886H31.2037C31.2037 11.714 30.5557 14.234 25.3897 14.234H24.7237C19.7917 14.234 18.5677 11.534 18.5677 9.14V8.888C18.5677 6.638 19.6837 3.794 24.4177 3.794H25.2097C30.3217 3.794 31.2397 6.638 31.2397 9.428V9.752H22.1497C22.2937 10.904 23.0317 11.84 25.1737 11.84C27.2077 11.84 27.4597 11.048 27.5497 10.886ZM39.9075 14.27H39.3495C33.9675 14.27 33.1395 10.994 33.1395 9.176V8.924C33.1395 7.124 33.9675 3.74 39.3315 3.74H39.9255C45.4695 3.74 46.1175 7.142 46.1175 8.906V9.194C46.1175 10.994 45.4695 14.27 39.9075 14.27ZM39.5295 11.642H39.7275C41.9415 11.642 42.4995 10.058 42.4995 8.96C42.4995 7.826 41.9415 6.314 39.7275 6.314H39.5295C37.2255 6.314 36.7575 7.826 36.7575 8.96C36.7575 10.058 37.2255 11.642 39.5295 11.642ZM52.0422 14H48.5322V4.01H52.0422V7.646H56.9382V4.01H60.4482V14H56.9382V10.31H52.0422V14ZM71.7922 7.952L66.9682 14H63.3682V4.01H66.8782V10.058L71.7022 4.01H75.3022V14H71.7922V7.952ZM77.3937 16.124V11.336H78.5997C79.2837 9.968 79.3917 6.998 79.4817 4.01H90.0477V11.336H91.8477V16.124H88.5177V14H80.7237V16.124H77.3937ZM81.9117 11.336H86.5377V6.674H82.6317C82.5777 7.97 82.3977 9.95 81.9117 11.336ZM10.998 32.762L8.568 27.308L6.21 32.762H10.998ZM13.338 38L12.24 35.516H5.004L3.924 38H0.198L6.138 24.608H11.106L17.316 38H13.338ZM27.1558 38V30.674H23.1958C23.1958 33.356 23.1058 34.85 22.7638 35.768C22.3858 36.776 21.8818 38 19.2358 38H18.1378V35.39H18.3538C18.9838 35.39 19.4518 35.174 19.6498 34.256C19.7938 33.482 19.8478 32.636 19.8478 28.01H30.6658V38H27.1558ZM39.3872 30.08C37.5692 30.08 36.8852 30.818 36.7052 31.862H41.9972C41.9972 31.124 41.6372 30.08 39.3872 30.08ZM42.0692 34.886H45.7232C45.7232 35.714 45.0752 38.234 39.9092 38.234H39.2432C34.3112 38.234 33.0872 35.534 33.0872 33.14V32.888C33.0872 30.638 34.2032 27.794 38.9372 27.794H39.7292C44.8412 27.794 45.7592 30.638 45.7592 33.428V33.752H36.6692C36.8132 34.904 37.5512 35.84 39.6932 35.84C41.7272 35.84 41.9792 35.048 42.0692 34.886ZM55.5971 38L51.7091 33.374V38H48.1991V28.01H51.7091V32.006L55.2731 28.01H59.3231L55.1471 32.492L59.7731 38H55.5971ZM69.1186 34.076H72.7906C72.7906 35.588 71.8906 38.27 67.0846 38.27H66.2026C61.2166 38.27 60.2806 35.03 60.2806 33.14V32.888C60.2806 30.998 61.1626 27.74 66.1846 27.74H67.0126C71.8366 27.74 72.7906 30.368 72.7906 31.808V31.826H69.1186C69.0646 31.538 68.7226 30.296 66.6526 30.296H66.4726C64.4026 30.296 63.9166 31.718 63.9166 32.924V32.942C63.9166 34.184 64.5106 35.66 66.5446 35.66H66.7246C68.8126 35.66 69.1186 34.31 69.1186 34.076ZM79.8967 36.002C81.9487 36.002 82.6507 34.706 82.6507 33.95V33.176C82.3447 33.302 81.4627 33.482 80.4547 33.644C78.7627 33.932 78.2227 34.166 78.2227 34.868V34.904C78.2227 35.534 78.6727 36.002 79.8967 36.002ZM82.7587 36.614C82.3267 37.136 81.2467 38.198 78.9067 38.198H78.6187C75.8287 38.198 74.6767 36.686 74.6767 35.03V34.958C74.6767 33.23 75.7747 32.168 79.1587 31.88L81.8947 31.646C82.4527 31.592 82.6507 31.412 82.6507 30.998C82.6507 30.53 82.5067 30.026 80.5627 30.026C78.7267 30.026 78.5467 30.746 78.5467 31.124H74.9467V31.088C74.9467 30.098 75.3427 27.776 80.2567 27.776H80.8147C85.7647 27.776 86.0707 29.81 86.0707 31.142V34.436C86.0707 35.066 86.1967 35.318 86.8987 35.318H87.2767V38H84.4327C83.3887 38 82.9027 37.262 82.7587 36.614ZM92.7883 38H89.2783V28.01H92.7883V31.646H97.6843V28.01H101.194V38H97.6843V34.31H92.7883V38ZM103.286 40.124V35.336H104.492C105.176 33.968 105.284 30.998 105.374 28.01H115.94V35.336H117.74V40.124H114.41V38H106.616V40.124H103.286ZM107.804 35.336H112.43V30.674H108.524C108.47 31.97 108.29 33.95 107.804 35.336ZM129.009 33.014V32.96C129.009 31.88 128.505 30.422 126.309 30.422H126.129C124.023 30.422 123.357 31.808 123.357 32.96V33.014C123.357 34.112 124.023 35.552 126.129 35.552H126.309C128.505 35.552 129.009 34.04 129.009 33.014ZM119.865 41.438V28.01H123.339V29.288C123.771 28.82 125.085 27.812 127.353 27.812H127.587C131.403 27.812 132.645 30.422 132.645 32.798V33.104C132.645 35.282 131.367 38.198 127.569 38.198H127.317C125.031 38.198 123.807 37.154 123.375 36.722V41.438H119.865ZM141.351 38.27H140.793C135.411 38.27 134.583 34.994 134.583 33.176V32.924C134.583 31.124 135.411 27.74 140.775 27.74H141.369C146.913 27.74 147.561 31.142 147.561 32.906V33.194C147.561 34.994 146.913 38.27 141.351 38.27ZM140.973 35.642H141.171C143.385 35.642 143.943 34.058 143.943 32.96C143.943 31.826 143.385 30.314 141.171 30.314H140.973C138.669 30.314 138.201 31.826 138.201 32.96C138.201 34.058 138.669 35.642 140.973 35.642ZM158.22 38H149.976V28.01H157.86C160.146 28.01 161.586 28.82 161.586 30.404V30.494C161.586 31.736 160.794 32.474 159.588 32.672C160.812 32.816 161.91 33.68 161.91 35.12V35.192C161.91 37.01 160.722 38 158.22 38ZM153.486 31.988H156.708C157.554 31.988 157.986 31.664 157.986 31.034V30.944C157.986 30.368 157.59 30.026 156.708 30.026H153.486V31.988ZM153.486 35.984H156.852C157.788 35.984 158.31 35.678 158.31 34.976V34.832C158.31 34.202 157.878 33.806 156.852 33.806H153.486V35.984ZM172.778 31.952L167.954 38H164.354V28.01H167.864V34.058L172.688 28.01H176.288V38H172.778V31.952ZM186.624 28.01H190.134V38H186.624V34.562C185.85 34.652 184.95 34.742 184.014 34.742C180.054 34.742 178.56 33.626 178.56 30.458V28.01H182.07V29.81C182.07 31.682 182.7 32.006 184.554 32.006C185.256 32.006 186.066 31.952 186.624 31.88V28.01ZM1.656 62V48.608H11.43C15.264 48.608 16.218 50.282 16.218 51.776V51.974C16.218 53.666 14.76 54.476 13.752 54.62C15.264 54.872 16.884 55.772 16.884 57.932V58.13C16.884 59.948 15.786 62 11.484 62H1.656ZM10.89 51.398H5.364V53.792H10.89C12.024 53.792 12.348 53.252 12.348 52.622V52.586C12.348 51.938 11.988 51.398 10.89 51.398ZM11.178 56.42H5.364V59.066H11.178C12.474 59.066 12.852 58.382 12.852 57.716V57.644C12.852 56.978 12.474 56.42 11.178 56.42ZM25.5462 62.27H24.9882C19.6062 62.27 18.7782 58.994 18.7782 57.176V56.924C18.7782 55.124 19.6062 51.74 24.9702 51.74H25.5642C31.1082 51.74 31.7562 55.142 31.7562 56.906V57.194C31.7562 58.994 31.1082 62.27 25.5462 62.27ZM25.1682 59.642H25.3662C27.5802 59.642 28.1382 58.058 28.1382 56.96C28.1382 55.826 27.5802 54.314 25.3662 54.314H25.1682C22.8642 54.314 22.3962 55.826 22.3962 56.96C22.3962 58.058 22.8642 59.642 25.1682 59.642ZM43.3509 57.014V56.96C43.3509 55.88 42.8469 54.422 40.6509 54.422H40.4709C38.3649 54.422 37.6989 55.808 37.6989 56.96V57.014C37.6989 58.112 38.3649 59.552 40.4709 59.552H40.6509C42.8469 59.552 43.3509 58.04 43.3509 57.014ZM34.2069 65.438V52.01H37.6809V53.288C38.1129 52.82 39.4269 51.812 41.6949 51.812H41.9289C45.7449 51.812 46.9869 54.422 46.9869 56.798V57.104C46.9869 59.282 45.7089 62.198 41.9109 62.198H41.6589C39.3729 62.198 38.1489 61.154 37.7169 60.722V65.438H34.2069ZM55.6927 62.27H55.1347C49.7527 62.27 48.9247 58.994 48.9247 57.176V56.924C48.9247 55.124 49.7527 51.74 55.1167 51.74H55.7107C61.2547 51.74 61.9027 55.142 61.9027 56.906V57.194C61.9027 58.994 61.2547 62.27 55.6927 62.27ZM55.3147 59.642H55.5127C57.7267 59.642 58.2847 58.058 58.2847 56.96C58.2847 55.826 57.7267 54.314 55.5127 54.314H55.3147C53.0107 54.314 52.5427 55.826 52.5427 56.96C52.5427 58.058 53.0107 59.642 55.3147 59.642ZM76.7914 57.122V57.356C76.7914 61.1 73.9474 62.27 70.5454 62.27H70.1854C66.6754 62.27 63.8134 60.902 63.8134 56.15V55.088C63.8134 50.282 66.2074 48.698 70.8874 48.698H71.6974C72.8134 48.698 72.8854 48.59 72.9214 48.374H76.3594C76.3594 50.48 75.5674 51.362 73.1194 51.362H70.8874C68.2954 51.362 67.3054 52.172 67.2514 53.99C68.1694 53.036 69.5734 52.388 71.7874 52.388H71.8954C74.2714 52.388 76.7914 53.594 76.7914 57.122ZM70.2214 59.642H70.4194C72.0034 59.642 73.1734 58.85 73.1734 57.212C73.1734 55.628 71.9854 54.854 70.4374 54.854H70.2214C68.4934 54.854 67.4314 55.592 67.4314 57.23C67.4314 58.886 68.5114 59.642 70.2214 59.642ZM79.206 62V52.01H82.716V54.872H85.452C88.872 54.872 90.204 56.384 90.204 58.292V58.508C90.204 60.596 88.872 62 85.452 62H79.206ZM82.716 59.624H85.02C85.74 59.624 86.604 59.408 86.604 58.436V58.382C86.604 57.482 85.74 57.248 85.02 57.248H82.716V59.624ZM98.274 54.08C96.456 54.08 95.772 54.818 95.592 55.862H100.884C100.884 55.124 100.524 54.08 98.274 54.08ZM100.956 58.886H104.61C104.61 59.714 103.962 62.234 98.796 62.234H98.13C93.198 62.234 91.974 59.534 91.974 57.14V56.888C91.974 54.638 93.09 51.794 97.824 51.794H98.616C103.728 51.794 104.646 54.638 104.646 57.428V57.752H95.556C95.7 58.904 96.438 59.84 98.58 59.84C100.614 59.84 100.866 59.048 100.956 58.886ZM115.294 62H107.05V52.01H114.934C117.22 52.01 118.66 52.82 118.66 54.404V54.494C118.66 55.736 117.868 56.474 116.662 56.672C117.886 56.816 118.984 57.68 118.984 59.12V59.192C118.984 61.01 117.796 62 115.294 62ZM110.56 55.988H113.782C114.628 55.988 115.06 55.664 115.06 55.034V54.944C115.06 54.368 114.664 54.026 113.782 54.026H110.56V55.988ZM110.56 59.984H113.926C114.862 59.984 115.384 59.678 115.384 58.976V58.832C115.384 58.202 114.952 57.806 113.926 57.806H110.56V59.984Z" fill="url(#paint0_linear_2018_1402)"/>
<path d="M12.24 14V3.56H6.48C6.48 7.214 6.318 10.004 5.832 11.462C5.4 12.74 4.626 14 1.962 14H0.63V10.85H0.756C1.854 10.85 2.304 10.346 2.52 9.788C2.88 8.852 2.97 7.574 2.97 0.608H15.948V14H12.24ZM24.8677 6.08C23.0497 6.08 22.3657 6.818 22.1857 7.862H27.4777C27.4777 7.124 27.1177 6.08 24.8677 6.08ZM27.5497 10.886H31.2037C31.2037 11.714 30.5557 14.234 25.3897 14.234H24.7237C19.7917 14.234 18.5677 11.534 18.5677 9.14V8.888C18.5677 6.638 19.6837 3.794 24.4177 3.794H25.2097C30.3217 3.794 31.2397 6.638 31.2397 9.428V9.752H22.1497C22.2937 10.904 23.0317 11.84 25.1737 11.84C27.2077 11.84 27.4597 11.048 27.5497 10.886ZM39.9075 14.27H39.3495C33.9675 14.27 33.1395 10.994 33.1395 9.176V8.924C33.1395 7.124 33.9675 3.74 39.3315 3.74H39.9255C45.4695 3.74 46.1175 7.142 46.1175 8.906V9.194C46.1175 10.994 45.4695 14.27 39.9075 14.27ZM39.5295 11.642H39.7275C41.9415 11.642 42.4995 10.058 42.4995 8.96C42.4995 7.826 41.9415 6.314 39.7275 6.314H39.5295C37.2255 6.314 36.7575 7.826 36.7575 8.96C36.7575 10.058 37.2255 11.642 39.5295 11.642ZM52.0422 14H48.5322V4.01H52.0422V7.646H56.9382V4.01H60.4482V14H56.9382V10.31H52.0422V14ZM71.7922 7.952L66.9682 14H63.3682V4.01H66.8782V10.058L71.7022 4.01H75.3022V14H71.7922V7.952ZM77.3937 16.124V11.336H78.5997C79.2837 9.968 79.3917 6.998 79.4817 4.01H90.0477V11.336H91.8477V16.124H88.5177V14H80.7237V16.124H77.3937ZM81.9117 11.336H86.5377V6.674H82.6317C82.5777 7.97 82.3977 9.95 81.9117 11.336ZM10.998 32.762L8.568 27.308L6.21 32.762H10.998ZM13.338 38L12.24 35.516H5.004L3.924 38H0.198L6.138 24.608H11.106L17.316 38H13.338ZM27.1558 38V30.674H23.1958C23.1958 33.356 23.1058 34.85 22.7638 35.768C22.3858 36.776 21.8818 38 19.2358 38H18.1378V35.39H18.3538C18.9838 35.39 19.4518 35.174 19.6498 34.256C19.7938 33.482 19.8478 32.636 19.8478 28.01H30.6658V38H27.1558ZM39.3872 30.08C37.5692 30.08 36.8852 30.818 36.7052 31.862H41.9972C41.9972 31.124 41.6372 30.08 39.3872 30.08ZM42.0692 34.886H45.7232C45.7232 35.714 45.0752 38.234 39.9092 38.234H39.2432C34.3112 38.234 33.0872 35.534 33.0872 33.14V32.888C33.0872 30.638 34.2032 27.794 38.9372 27.794H39.7292C44.8412 27.794 45.7592 30.638 45.7592 33.428V33.752H36.6692C36.8132 34.904 37.5512 35.84 39.6932 35.84C41.7272 35.84 41.9792 35.048 42.0692 34.886ZM55.5971 38L51.7091 33.374V38H48.1991V28.01H51.7091V32.006L55.2731 28.01H59.3231L55.1471 32.492L59.7731 38H55.5971ZM69.1186 34.076H72.7906C72.7906 35.588 71.8906 38.27 67.0846 38.27H66.2026C61.2166 38.27 60.2806 35.03 60.2806 33.14V32.888C60.2806 30.998 61.1626 27.74 66.1846 27.74H67.0126C71.8366 27.74 72.7906 30.368 72.7906 31.808V31.826H69.1186C69.0646 31.538 68.7226 30.296 66.6526 30.296H66.4726C64.4026 30.296 63.9166 31.718 63.9166 32.924V32.942C63.9166 34.184 64.5106 35.66 66.5446 35.66H66.7246C68.8126 35.66 69.1186 34.31 69.1186 34.076ZM79.8967 36.002C81.9487 36.002 82.6507 34.706 82.6507 33.95V33.176C82.3447 33.302 81.4627 33.482 80.4547 33.644C78.7627 33.932 78.2227 34.166 78.2227 34.868V34.904C78.2227 35.534 78.6727 36.002 79.8967 36.002ZM82.7587 36.614C82.3267 37.136 81.2467 38.198 78.9067 38.198H78.6187C75.8287 38.198 74.6767 36.686 74.6767 35.03V34.958C74.6767 33.23 75.7747 32.168 79.1587 31.88L81.8947 31.646C82.4527 31.592 82.6507 31.412 82.6507 30.998C82.6507 30.53 82.5067 30.026 80.5627 30.026C78.7267 30.026 78.5467 30.746 78.5467 31.124H74.9467V31.088C74.9467 30.098 75.3427 27.776 80.2567 27.776H80.8147C85.7647 27.776 86.0707 29.81 86.0707 31.142V34.436C86.0707 35.066 86.1967 35.318 86.8987 35.318H87.2767V38H84.4327C83.3887 38 82.9027 37.262 82.7587 36.614ZM92.7883 38H89.2783V28.01H92.7883V31.646H97.6843V28.01H101.194V38H97.6843V34.31H92.7883V38ZM103.286 40.124V35.336H104.492C105.176 33.968 105.284 30.998 105.374 28.01H115.94V35.336H117.74V40.124H114.41V38H106.616V40.124H103.286ZM107.804 35.336H112.43V30.674H108.524C108.47 31.97 108.29 33.95 107.804 35.336ZM129.009 33.014V32.96C129.009 31.88 128.505 30.422 126.309 30.422H126.129C124.023 30.422 123.357 31.808 123.357 32.96V33.014C123.357 34.112 124.023 35.552 126.129 35.552H126.309C128.505 35.552 129.009 34.04 129.009 33.014ZM119.865 41.438V28.01H123.339V29.288C123.771 28.82 125.085 27.812 127.353 27.812H127.587C131.403 27.812 132.645 30.422 132.645 32.798V33.104C132.645 35.282 131.367 38.198 127.569 38.198H127.317C125.031 38.198 123.807 37.154 123.375 36.722V41.438H119.865ZM141.351 38.27H140.793C135.411 38.27 134.583 34.994 134.583 33.176V32.924C134.583 31.124 135.411 27.74 140.775 27.74H141.369C146.913 27.74 147.561 31.142 147.561 32.906V33.194C147.561 34.994 146.913 38.27 141.351 38.27ZM140.973 35.642H141.171C143.385 35.642 143.943 34.058 143.943 32.96C143.943 31.826 143.385 30.314 141.171 30.314H140.973C138.669 30.314 138.201 31.826 138.201 32.96C138.201 34.058 138.669 35.642 140.973 35.642ZM158.22 38H149.976V28.01H157.86C160.146 28.01 161.586 28.82 161.586 30.404V30.494C161.586 31.736 160.794 32.474 159.588 32.672C160.812 32.816 161.91 33.68 161.91 35.12V35.192C161.91 37.01 160.722 38 158.22 38ZM153.486 31.988H156.708C157.554 31.988 157.986 31.664 157.986 31.034V30.944C157.986 30.368 157.59 30.026 156.708 30.026H153.486V31.988ZM153.486 35.984H156.852C157.788 35.984 158.31 35.678 158.31 34.976V34.832C158.31 34.202 157.878 33.806 156.852 33.806H153.486V35.984ZM172.778 31.952L167.954 38H164.354V28.01H167.864V34.058L172.688 28.01H176.288V38H172.778V31.952ZM186.624 28.01H190.134V38H186.624V34.562C185.85 34.652 184.95 34.742 184.014 34.742C180.054 34.742 178.56 33.626 178.56 30.458V28.01H182.07V29.81C182.07 31.682 182.7 32.006 184.554 32.006C185.256 32.006 186.066 31.952 186.624 31.88V28.01ZM1.656 62V48.608H11.43C15.264 48.608 16.218 50.282 16.218 51.776V51.974C16.218 53.666 14.76 54.476 13.752 54.62C15.264 54.872 16.884 55.772 16.884 57.932V58.13C16.884 59.948 15.786 62 11.484 62H1.656ZM10.89 51.398H5.364V53.792H10.89C12.024 53.792 12.348 53.252 12.348 52.622V52.586C12.348 51.938 11.988 51.398 10.89 51.398ZM11.178 56.42H5.364V59.066H11.178C12.474 59.066 12.852 58.382 12.852 57.716V57.644C12.852 56.978 12.474 56.42 11.178 56.42ZM25.5462 62.27H24.9882C19.6062 62.27 18.7782 58.994 18.7782 57.176V56.924C18.7782 55.124 19.6062 51.74 24.9702 51.74H25.5642C31.1082 51.74 31.7562 55.142 31.7562 56.906V57.194C31.7562 58.994 31.1082 62.27 25.5462 62.27ZM25.1682 59.642H25.3662C27.5802 59.642 28.1382 58.058 28.1382 56.96C28.1382 55.826 27.5802 54.314 25.3662 54.314H25.1682C22.8642 54.314 22.3962 55.826 22.3962 56.96C22.3962 58.058 22.8642 59.642 25.1682 59.642ZM43.3509 57.014V56.96C43.3509 55.88 42.8469 54.422 40.6509 54.422H40.4709C38.3649 54.422 37.6989 55.808 37.6989 56.96V57.014C37.6989 58.112 38.3649 59.552 40.4709 59.552H40.6509C42.8469 59.552 43.3509 58.04 43.3509 57.014ZM34.2069 65.438V52.01H37.6809V53.288C38.1129 52.82 39.4269 51.812 41.6949 51.812H41.9289C45.7449 51.812 46.9869 54.422 46.9869 56.798V57.104C46.9869 59.282 45.7089 62.198 41.9109 62.198H41.6589C39.3729 62.198 38.1489 61.154 37.7169 60.722V65.438H34.2069ZM55.6927 62.27H55.1347C49.7527 62.27 48.9247 58.994 48.9247 57.176V56.924C48.9247 55.124 49.7527 51.74 55.1167 51.74H55.7107C61.2547 51.74 61.9027 55.142 61.9027 56.906V57.194C61.9027 58.994 61.2547 62.27 55.6927 62.27ZM55.3147 59.642H55.5127C57.7267 59.642 58.2847 58.058 58.2847 56.96C58.2847 55.826 57.7267 54.314 55.5127 54.314H55.3147C53.0107 54.314 52.5427 55.826 52.5427 56.96C52.5427 58.058 53.0107 59.642 55.3147 59.642ZM76.7914 57.122V57.356C76.7914 61.1 73.9474 62.27 70.5454 62.27H70.1854C66.6754 62.27 63.8134 60.902 63.8134 56.15V55.088C63.8134 50.282 66.2074 48.698 70.8874 48.698H71.6974C72.8134 48.698 72.8854 48.59 72.9214 48.374H76.3594C76.3594 50.48 75.5674 51.362 73.1194 51.362H70.8874C68.2954 51.362 67.3054 52.172 67.2514 53.99C68.1694 53.036 69.5734 52.388 71.7874 52.388H71.8954C74.2714 52.388 76.7914 53.594 76.7914 57.122ZM70.2214 59.642H70.4194C72.0034 59.642 73.1734 58.85 73.1734 57.212C73.1734 55.628 71.9854 54.854 70.4374 54.854H70.2214C68.4934 54.854 67.4314 55.592 67.4314 57.23C67.4314 58.886 68.5114 59.642 70.2214 59.642ZM79.206 62V52.01H82.716V54.872H85.452C88.872 54.872 90.204 56.384 90.204 58.292V58.508C90.204 60.596 88.872 62 85.452 62H79.206ZM82.716 59.624H85.02C85.74 59.624 86.604 59.408 86.604 58.436V58.382C86.604 57.482 85.74 57.248 85.02 57.248H82.716V59.624ZM98.274 54.08C96.456 54.08 95.772 54.818 95.592 55.862H100.884C100.884 55.124 100.524 54.08 98.274 54.08ZM100.956 58.886H104.61C104.61 59.714 103.962 62.234 98.796 62.234H98.13C93.198 62.234 91.974 59.534 91.974 57.14V56.888C91.974 54.638 93.09 51.794 97.824 51.794H98.616C103.728 51.794 104.646 54.638 104.646 57.428V57.752H95.556C95.7 58.904 96.438 59.84 98.58 59.84C100.614 59.84 100.866 59.048 100.956 58.886ZM115.294 62H107.05V52.01H114.934C117.22 52.01 118.66 52.82 118.66 54.404V54.494C118.66 55.736 117.868 56.474 116.662 56.672C117.886 56.816 118.984 57.68 118.984 59.12V59.192C118.984 61.01 117.796 62 115.294 62ZM110.56 55.988H113.782C114.628 55.988 115.06 55.664 115.06 55.034V54.944C115.06 54.368 114.664 54.026 113.782 54.026H110.56V55.988ZM110.56 59.984H113.926C114.862 59.984 115.384 59.678 115.384 58.976V58.832C115.384 58.202 114.952 57.806 113.926 57.806H110.56V59.984Z" fill="url(#paint1_radial_2018_1402)" style="mix-blend-mode:overlay"/>
<path d="M12.24 14V3.56H6.48C6.48 7.214 6.318 10.004 5.832 11.462C5.4 12.74 4.626 14 1.962 14H0.63V10.85H0.756C1.854 10.85 2.304 10.346 2.52 9.788C2.88 8.852 2.97 7.574 2.97 0.608H15.948V14H12.24ZM24.8677 6.08C23.0497 6.08 22.3657 6.818 22.1857 7.862H27.4777C27.4777 7.124 27.1177 6.08 24.8677 6.08ZM27.5497 10.886H31.2037C31.2037 11.714 30.5557 14.234 25.3897 14.234H24.7237C19.7917 14.234 18.5677 11.534 18.5677 9.14V8.888C18.5677 6.638 19.6837 3.794 24.4177 3.794H25.2097C30.3217 3.794 31.2397 6.638 31.2397 9.428V9.752H22.1497C22.2937 10.904 23.0317 11.84 25.1737 11.84C27.2077 11.84 27.4597 11.048 27.5497 10.886ZM39.9075 14.27H39.3495C33.9675 14.27 33.1395 10.994 33.1395 9.176V8.924C33.1395 7.124 33.9675 3.74 39.3315 3.74H39.9255C45.4695 3.74 46.1175 7.142 46.1175 8.906V9.194C46.1175 10.994 45.4695 14.27 39.9075 14.27ZM39.5295 11.642H39.7275C41.9415 11.642 42.4995 10.058 42.4995 8.96C42.4995 7.826 41.9415 6.314 39.7275 6.314H39.5295C37.2255 6.314 36.7575 7.826 36.7575 8.96C36.7575 10.058 37.2255 11.642 39.5295 11.642ZM52.0422 14H48.5322V4.01H52.0422V7.646H56.9382V4.01H60.4482V14H56.9382V10.31H52.0422V14ZM71.7922 7.952L66.9682 14H63.3682V4.01H66.8782V10.058L71.7022 4.01H75.3022V14H71.7922V7.952ZM77.3937 16.124V11.336H78.5997C79.2837 9.968 79.3917 6.998 79.4817 4.01H90.0477V11.336H91.8477V16.124H88.5177V14H80.7237V16.124H77.3937ZM81.9117 11.336H86.5377V6.674H82.6317C82.5777 7.97 82.3977 9.95 81.9117 11.336ZM10.998 32.762L8.568 27.308L6.21 32.762H10.998ZM13.338 38L12.24 35.516H5.004L3.924 38H0.198L6.138 24.608H11.106L17.316 38H13.338ZM27.1558 38V30.674H23.1958C23.1958 33.356 23.1058 34.85 22.7638 35.768C22.3858 36.776 21.8818 38 19.2358 38H18.1378V35.39H18.3538C18.9838 35.39 19.4518 35.174 19.6498 34.256C19.7938 33.482 19.8478 32.636 19.8478 28.01H30.6658V38H27.1558ZM39.3872 30.08C37.5692 30.08 36.8852 30.818 36.7052 31.862H41.9972C41.9972 31.124 41.6372 30.08 39.3872 30.08ZM42.0692 34.886H45.7232C45.7232 35.714 45.0752 38.234 39.9092 38.234H39.2432C34.3112 38.234 33.0872 35.534 33.0872 33.14V32.888C33.0872 30.638 34.2032 27.794 38.9372 27.794H39.7292C44.8412 27.794 45.7592 30.638 45.7592 33.428V33.752H36.6692C36.8132 34.904 37.5512 35.84 39.6932 35.84C41.7272 35.84 41.9792 35.048 42.0692 34.886ZM55.5971 38L51.7091 33.374V38H48.1991V28.01H51.7091V32.006L55.2731 28.01H59.3231L55.1471 32.492L59.7731 38H55.5971ZM69.1186 34.076H72.7906C72.7906 35.588 71.8906 38.27 67.0846 38.27H66.2026C61.2166 38.27 60.2806 35.03 60.2806 33.14V32.888C60.2806 30.998 61.1626 27.74 66.1846 27.74H67.0126C71.8366 27.74 72.7906 30.368 72.7906 31.808V31.826H69.1186C69.0646 31.538 68.7226 30.296 66.6526 30.296H66.4726C64.4026 30.296 63.9166 31.718 63.9166 32.924V32.942C63.9166 34.184 64.5106 35.66 66.5446 35.66H66.7246C68.8126 35.66 69.1186 34.31 69.1186 34.076ZM79.8967 36.002C81.9487 36.002 82.6507 34.706 82.6507 33.95V33.176C82.3447 33.302 81.4627 33.482 80.4547 33.644C78.7627 33.932 78.2227 34.166 78.2227 34.868V34.904C78.2227 35.534 78.6727 36.002 79.8967 36.002ZM82.7587 36.614C82.3267 37.136 81.2467 38.198 78.9067 38.198H78.6187C75.8287 38.198 74.6767 36.686 74.6767 35.03V34.958C74.6767 33.23 75.7747 32.168 79.1587 31.88L81.8947 31.646C82.4527 31.592 82.6507 31.412 82.6507 30.998C82.6507 30.53 82.5067 30.026 80.5627 30.026C78.7267 30.026 78.5467 30.746 78.5467 31.124H74.9467V31.088C74.9467 30.098 75.3427 27.776 80.2567 27.776H80.8147C85.7647 27.776 86.0707 29.81 86.0707 31.142V34.436C86.0707 35.066 86.1967 35.318 86.8987 35.318H87.2767V38H84.4327C83.3887 38 82.9027 37.262 82.7587 36.614ZM92.7883 38H89.2783V28.01H92.7883V31.646H97.6843V28.01H101.194V38H97.6843V34.31H92.7883V38ZM103.286 40.124V35.336H104.492C105.176 33.968 105.284 30.998 105.374 28.01H115.94V35.336H117.74V40.124H114.41V38H106.616V40.124H103.286ZM107.804 35.336H112.43V30.674H108.524C108.47 31.97 108.29 33.95 107.804 35.336ZM129.009 33.014V32.96C129.009 31.88 128.505 30.422 126.309 30.422H126.129C124.023 30.422 123.357 31.808 123.357 32.96V33.014C123.357 34.112 124.023 35.552 126.129 35.552H126.309C128.505 35.552 129.009 34.04 129.009 33.014ZM119.865 41.438V28.01H123.339V29.288C123.771 28.82 125.085 27.812 127.353 27.812H127.587C131.403 27.812 132.645 30.422 132.645 32.798V33.104C132.645 35.282 131.367 38.198 127.569 38.198H127.317C125.031 38.198 123.807 37.154 123.375 36.722V41.438H119.865ZM141.351 38.27H140.793C135.411 38.27 134.583 34.994 134.583 33.176V32.924C134.583 31.124 135.411 27.74 140.775 27.74H141.369C146.913 27.74 147.561 31.142 147.561 32.906V33.194C147.561 34.994 146.913 38.27 141.351 38.27ZM140.973 35.642H141.171C143.385 35.642 143.943 34.058 143.943 32.96C143.943 31.826 143.385 30.314 141.171 30.314H140.973C138.669 30.314 138.201 31.826 138.201 32.96C138.201 34.058 138.669 35.642 140.973 35.642ZM158.22 38H149.976V28.01H157.86C160.146 28.01 161.586 28.82 161.586 30.404V30.494C161.586 31.736 160.794 32.474 159.588 32.672C160.812 32.816 161.91 33.68 161.91 35.12V35.192C161.91 37.01 160.722 38 158.22 38ZM153.486 31.988H156.708C157.554 31.988 157.986 31.664 157.986 31.034V30.944C157.986 30.368 157.59 30.026 156.708 30.026H153.486V31.988ZM153.486 35.984H156.852C157.788 35.984 158.31 35.678 158.31 34.976V34.832C158.31 34.202 157.878 33.806 156.852 33.806H153.486V35.984ZM172.778 31.952L167.954 38H164.354V28.01H167.864V34.058L172.688 28.01H176.288V38H172.778V31.952ZM186.624 28.01H190.134V38H186.624V34.562C185.85 34.652 184.95 34.742 184.014 34.742C180.054 34.742 178.56 33.626 178.56 30.458V28.01H182.07V29.81C182.07 31.682 182.7 32.006 184.554 32.006C185.256 32.006 186.066 31.952 186.624 31.88V28.01ZM1.656 62V48.608H11.43C15.264 48.608 16.218 50.282 16.218 51.776V51.974C16.218 53.666 14.76 54.476 13.752 54.62C15.264 54.872 16.884 55.772 16.884 57.932V58.13C16.884 59.948 15.786 62 11.484 62H1.656ZM10.89 51.398H5.364V53.792H10.89C12.024 53.792 12.348 53.252 12.348 52.622V52.586C12.348 51.938 11.988 51.398 10.89 51.398ZM11.178 56.42H5.364V59.066H11.178C12.474 59.066 12.852 58.382 12.852 57.716V57.644C12.852 56.978 12.474 56.42 11.178 56.42ZM25.5462 62.27H24.9882C19.6062 62.27 18.7782 58.994 18.7782 57.176V56.924C18.7782 55.124 19.6062 51.74 24.9702 51.74H25.5642C31.1082 51.74 31.7562 55.142 31.7562 56.906V57.194C31.7562 58.994 31.1082 62.27 25.5462 62.27ZM25.1682 59.642H25.3662C27.5802 59.642 28.1382 58.058 28.1382 56.96C28.1382 55.826 27.5802 54.314 25.3662 54.314H25.1682C22.8642 54.314 22.3962 55.826 22.3962 56.96C22.3962 58.058 22.8642 59.642 25.1682 59.642ZM43.3509 57.014V56.96C43.3509 55.88 42.8469 54.422 40.6509 54.422H40.4709C38.3649 54.422 37.6989 55.808 37.6989 56.96V57.014C37.6989 58.112 38.3649 59.552 40.4709 59.552H40.6509C42.8469 59.552 43.3509 58.04 43.3509 57.014ZM34.2069 65.438V52.01H37.6809V53.288C38.1129 52.82 39.4269 51.812 41.6949 51.812H41.9289C45.7449 51.812 46.9869 54.422 46.9869 56.798V57.104C46.9869 59.282 45.7089 62.198 41.9109 62.198H41.6589C39.3729 62.198 38.1489 61.154 37.7169 60.722V65.438H34.2069ZM55.6927 62.27H55.1347C49.7527 62.27 48.9247 58.994 48.9247 57.176V56.924C48.9247 55.124 49.7527 51.74 55.1167 51.74H55.7107C61.2547 51.74 61.9027 55.142 61.9027 56.906V57.194C61.9027 58.994 61.2547 62.27 55.6927 62.27ZM55.3147 59.642H55.5127C57.7267 59.642 58.2847 58.058 58.2847 56.96C58.2847 55.826 57.7267 54.314 55.5127 54.314H55.3147C53.0107 54.314 52.5427 55.826 52.5427 56.96C52.5427 58.058 53.0107 59.642 55.3147 59.642ZM76.7914 57.122V57.356C76.7914 61.1 73.9474 62.27 70.5454 62.27H70.1854C66.6754 62.27 63.8134 60.902 63.8134 56.15V55.088C63.8134 50.282 66.2074 48.698 70.8874 48.698H71.6974C72.8134 48.698 72.8854 48.59 72.9214 48.374H76.3594C76.3594 50.48 75.5674 51.362 73.1194 51.362H70.8874C68.2954 51.362 67.3054 52.172 67.2514 53.99C68.1694 53.036 69.5734 52.388 71.7874 52.388H71.8954C74.2714 52.388 76.7914 53.594 76.7914 57.122ZM70.2214 59.642H70.4194C72.0034 59.642 73.1734 58.85 73.1734 57.212C73.1734 55.628 71.9854 54.854 70.4374 54.854H70.2214C68.4934 54.854 67.4314 55.592 67.4314 57.23C67.4314 58.886 68.5114 59.642 70.2214 59.642ZM79.206 62V52.01H82.716V54.872H85.452C88.872 54.872 90.204 56.384 90.204 58.292V58.508C90.204 60.596 88.872 62 85.452 62H79.206ZM82.716 59.624H85.02C85.74 59.624 86.604 59.408 86.604 58.436V58.382C86.604 57.482 85.74 57.248 85.02 57.248H82.716V59.624ZM98.274 54.08C96.456 54.08 95.772 54.818 95.592 55.862H100.884C100.884 55.124 100.524 54.08 98.274 54.08ZM100.956 58.886H104.61C104.61 59.714 103.962 62.234 98.796 62.234H98.13C93.198 62.234 91.974 59.534 91.974 57.14V56.888C91.974 54.638 93.09 51.794 97.824 51.794H98.616C103.728 51.794 104.646 54.638 104.646 57.428V57.752H95.556C95.7 58.904 96.438 59.84 98.58 59.84C100.614 59.84 100.866 59.048 100.956 58.886ZM115.294 62H107.05V52.01H114.934C117.22 52.01 118.66 52.82 118.66 54.404V54.494C118.66 55.736 117.868 56.474 116.662 56.672C117.886 56.816 118.984 57.68 118.984 59.12V59.192C118.984 61.01 117.796 62 115.294 62ZM110.56 55.988H113.782C114.628 55.988 115.06 55.664 115.06 55.034V54.944C115.06 54.368 114.664 54.026 113.782 54.026H110.56V55.988ZM110.56 59.984H113.926C114.862 59.984 115.384 59.678 115.384 58.976V58.832C115.384 58.202 114.952 57.806 113.926 57.806H110.56V59.984Z" fill="url(#paint2_radial_2018_1402)"/>
<path d="M12.24 14V3.56H6.48C6.48 7.214 6.318 10.004 5.832 11.462C5.4 12.74 4.626 14 1.962 14H0.63V10.85H0.756C1.854 10.85 2.304 10.346 2.52 9.788C2.88 8.852 2.97 7.574 2.97 0.608H15.948V14H12.24ZM24.8677 6.08C23.0497 6.08 22.3657 6.818 22.1857 7.862H27.4777C27.4777 7.124 27.1177 6.08 24.8677 6.08ZM27.5497 10.886H31.2037C31.2037 11.714 30.5557 14.234 25.3897 14.234H24.7237C19.7917 14.234 18.5677 11.534 18.5677 9.14V8.888C18.5677 6.638 19.6837 3.794 24.4177 3.794H25.2097C30.3217 3.794 31.2397 6.638 31.2397 9.428V9.752H22.1497C22.2937 10.904 23.0317 11.84 25.1737 11.84C27.2077 11.84 27.4597 11.048 27.5497 10.886ZM39.9075 14.27H39.3495C33.9675 14.27 33.1395 10.994 33.1395 9.176V8.924C33.1395 7.124 33.9675 3.74 39.3315 3.74H39.9255C45.4695 3.74 46.1175 7.142 46.1175 8.906V9.194C46.1175 10.994 45.4695 14.27 39.9075 14.27ZM39.5295 11.642H39.7275C41.9415 11.642 42.4995 10.058 42.4995 8.96C42.4995 7.826 41.9415 6.314 39.7275 6.314H39.5295C37.2255 6.314 36.7575 7.826 36.7575 8.96C36.7575 10.058 37.2255 11.642 39.5295 11.642ZM52.0422 14H48.5322V4.01H52.0422V7.646H56.9382V4.01H60.4482V14H56.9382V10.31H52.0422V14ZM71.7922 7.952L66.9682 14H63.3682V4.01H66.8782V10.058L71.7022 4.01H75.3022V14H71.7922V7.952ZM77.3937 16.124V11.336H78.5997C79.2837 9.968 79.3917 6.998 79.4817 4.01H90.0477V11.336H91.8477V16.124H88.5177V14H80.7237V16.124H77.3937ZM81.9117 11.336H86.5377V6.674H82.6317C82.5777 7.97 82.3977 9.95 81.9117 11.336ZM10.998 32.762L8.568 27.308L6.21 32.762H10.998ZM13.338 38L12.24 35.516H5.004L3.924 38H0.198L6.138 24.608H11.106L17.316 38H13.338ZM27.1558 38V30.674H23.1958C23.1958 33.356 23.1058 34.85 22.7638 35.768C22.3858 36.776 21.8818 38 19.2358 38H18.1378V35.39H18.3538C18.9838 35.39 19.4518 35.174 19.6498 34.256C19.7938 33.482 19.8478 32.636 19.8478 28.01H30.6658V38H27.1558ZM39.3872 30.08C37.5692 30.08 36.8852 30.818 36.7052 31.862H41.9972C41.9972 31.124 41.6372 30.08 39.3872 30.08ZM42.0692 34.886H45.7232C45.7232 35.714 45.0752 38.234 39.9092 38.234H39.2432C34.3112 38.234 33.0872 35.534 33.0872 33.14V32.888C33.0872 30.638 34.2032 27.794 38.9372 27.794H39.7292C44.8412 27.794 45.7592 30.638 45.7592 33.428V33.752H36.6692C36.8132 34.904 37.5512 35.84 39.6932 35.84C41.7272 35.84 41.9792 35.048 42.0692 34.886ZM55.5971 38L51.7091 33.374V38H48.1991V28.01H51.7091V32.006L55.2731 28.01H59.3231L55.1471 32.492L59.7731 38H55.5971ZM69.1186 34.076H72.7906C72.7906 35.588 71.8906 38.27 67.0846 38.27H66.2026C61.2166 38.27 60.2806 35.03 60.2806 33.14V32.888C60.2806 30.998 61.1626 27.74 66.1846 27.74H67.0126C71.8366 27.74 72.7906 30.368 72.7906 31.808V31.826H69.1186C69.0646 31.538 68.7226 30.296 66.6526 30.296H66.4726C64.4026 30.296 63.9166 31.718 63.9166 32.924V32.942C63.9166 34.184 64.5106 35.66 66.5446 35.66H66.7246C68.8126 35.66 69.1186 34.31 69.1186 34.076ZM79.8967 36.002C81.9487 36.002 82.6507 34.706 82.6507 33.95V33.176C82.3447 33.302 81.4627 33.482 80.4547 33.644C78.7627 33.932 78.2227 34.166 78.2227 34.868V34.904C78.2227 35.534 78.6727 36.002 79.8967 36.002ZM82.7587 36.614C82.3267 37.136 81.2467 38.198 78.9067 38.198H78.6187C75.8287 38.198 74.6767 36.686 74.6767 35.03V34.958C74.6767 33.23 75.7747 32.168 79.1587 31.88L81.8947 31.646C82.4527 31.592 82.6507 31.412 82.6507 30.998C82.6507 30.53 82.5067 30.026 80.5627 30.026C78.7267 30.026 78.5467 30.746 78.5467 31.124H74.9467V31.088C74.9467 30.098 75.3427 27.776 80.2567 27.776H80.8147C85.7647 27.776 86.0707 29.81 86.0707 31.142V34.436C86.0707 35.066 86.1967 35.318 86.8987 35.318H87.2767V38H84.4327C83.3887 38 82.9027 37.262 82.7587 36.614ZM92.7883 38H89.2783V28.01H92.7883V31.646H97.6843V28.01H101.194V38H97.6843V34.31H92.7883V38ZM103.286 40.124V35.336H104.492C105.176 33.968 105.284 30.998 105.374 28.01H115.94V35.336H117.74V40.124H114.41V38H106.616V40.124H103.286ZM107.804 35.336H112.43V30.674H108.524C108.47 31.97 108.29 33.95 107.804 35.336ZM129.009 33.014V32.96C129.009 31.88 128.505 30.422 126.309 30.422H126.129C124.023 30.422 123.357 31.808 123.357 32.96V33.014C123.357 34.112 124.023 35.552 126.129 35.552H126.309C128.505 35.552 129.009 34.04 129.009 33.014ZM119.865 41.438V28.01H123.339V29.288C123.771 28.82 125.085 27.812 127.353 27.812H127.587C131.403 27.812 132.645 30.422 132.645 32.798V33.104C132.645 35.282 131.367 38.198 127.569 38.198H127.317C125.031 38.198 123.807 37.154 123.375 36.722V41.438H119.865ZM141.351 38.27H140.793C135.411 38.27 134.583 34.994 134.583 33.176V32.924C134.583 31.124 135.411 27.74 140.775 27.74H141.369C146.913 27.74 147.561 31.142 147.561 32.906V33.194C147.561 34.994 146.913 38.27 141.351 38.27ZM140.973 35.642H141.171C143.385 35.642 143.943 34.058 143.943 32.96C143.943 31.826 143.385 30.314 141.171 30.314H140.973C138.669 30.314 138.201 31.826 138.201 32.96C138.201 34.058 138.669 35.642 140.973 35.642ZM158.22 38H149.976V28.01H157.86C160.146 28.01 161.586 28.82 161.586 30.404V30.494C161.586 31.736 160.794 32.474 159.588 32.672C160.812 32.816 161.91 33.68 161.91 35.12V35.192C161.91 37.01 160.722 38 158.22 38ZM153.486 31.988H156.708C157.554 31.988 157.986 31.664 157.986 31.034V30.944C157.986 30.368 157.59 30.026 156.708 30.026H153.486V31.988ZM153.486 35.984H156.852C157.788 35.984 158.31 35.678 158.31 34.976V34.832C158.31 34.202 157.878 33.806 156.852 33.806H153.486V35.984ZM172.778 31.952L167.954 38H164.354V28.01H167.864V34.058L172.688 28.01H176.288V38H172.778V31.952ZM186.624 28.01H190.134V38H186.624V34.562C185.85 34.652 184.95 34.742 184.014 34.742C180.054 34.742 178.56 33.626 178.56 30.458V28.01H182.07V29.81C182.07 31.682 182.7 32.006 184.554 32.006C185.256 32.006 186.066 31.952 186.624 31.88V28.01ZM1.656 62V48.608H11.43C15.264 48.608 16.218 50.282 16.218 51.776V51.974C16.218 53.666 14.76 54.476 13.752 54.62C15.264 54.872 16.884 55.772 16.884 57.932V58.13C16.884 59.948 15.786 62 11.484 62H1.656ZM10.89 51.398H5.364V53.792H10.89C12.024 53.792 12.348 53.252 12.348 52.622V52.586C12.348 51.938 11.988 51.398 10.89 51.398ZM11.178 56.42H5.364V59.066H11.178C12.474 59.066 12.852 58.382 12.852 57.716V57.644C12.852 56.978 12.474 56.42 11.178 56.42ZM25.5462 62.27H24.9882C19.6062 62.27 18.7782 58.994 18.7782 57.176V56.924C18.7782 55.124 19.6062 51.74 24.9702 51.74H25.5642C31.1082 51.74 31.7562 55.142 31.7562 56.906V57.194C31.7562 58.994 31.1082 62.27 25.5462 62.27ZM25.1682 59.642H25.3662C27.5802 59.642 28.1382 58.058 28.1382 56.96C28.1382 55.826 27.5802 54.314 25.3662 54.314H25.1682C22.8642 54.314 22.3962 55.826 22.3962 56.96C22.3962 58.058 22.8642 59.642 25.1682 59.642ZM43.3509 57.014V56.96C43.3509 55.88 42.8469 54.422 40.6509 54.422H40.4709C38.3649 54.422 37.6989 55.808 37.6989 56.96V57.014C37.6989 58.112 38.3649 59.552 40.4709 59.552H40.6509C42.8469 59.552 43.3509 58.04 43.3509 57.014ZM34.2069 65.438V52.01H37.6809V53.288C38.1129 52.82 39.4269 51.812 41.6949 51.812H41.9289C45.7449 51.812 46.9869 54.422 46.9869 56.798V57.104C46.9869 59.282 45.7089 62.198 41.9109 62.198H41.6589C39.3729 62.198 38.1489 61.154 37.7169 60.722V65.438H34.2069ZM55.6927 62.27H55.1347C49.7527 62.27 48.9247 58.994 48.9247 57.176V56.924C48.9247 55.124 49.7527 51.74 55.1167 51.74H55.7107C61.2547 51.74 61.9027 55.142 61.9027 56.906V57.194C61.9027 58.994 61.2547 62.27 55.6927 62.27ZM55.3147 59.642H55.5127C57.7267 59.642 58.2847 58.058 58.2847 56.96C58.2847 55.826 57.7267 54.314 55.5127 54.314H55.3147C53.0107 54.314 52.5427 55.826 52.5427 56.96C52.5427 58.058 53.0107 59.642 55.3147 59.642ZM76.7914 57.122V57.356C76.7914 61.1 73.9474 62.27 70.5454 62.27H70.1854C66.6754 62.27 63.8134 60.902 63.8134 56.15V55.088C63.8134 50.282 66.2074 48.698 70.8874 48.698H71.6974C72.8134 48.698 72.8854 48.59 72.9214 48.374H76.3594C76.3594 50.48 75.5674 51.362 73.1194 51.362H70.8874C68.2954 51.362 67.3054 52.172 67.2514 53.99C68.1694 53.036 69.5734 52.388 71.7874 52.388H71.8954C74.2714 52.388 76.7914 53.594 76.7914 57.122ZM70.2214 59.642H70.4194C72.0034 59.642 73.1734 58.85 73.1734 57.212C73.1734 55.628 71.9854 54.854 70.4374 54.854H70.2214C68.4934 54.854 67.4314 55.592 67.4314 57.23C67.4314 58.886 68.5114 59.642 70.2214 59.642ZM79.206 62V52.01H82.716V54.872H85.452C88.872 54.872 90.204 56.384 90.204 58.292V58.508C90.204 60.596 88.872 62 85.452 62H79.206ZM82.716 59.624H85.02C85.74 59.624 86.604 59.408 86.604 58.436V58.382C86.604 57.482 85.74 57.248 85.02 57.248H82.716V59.624ZM98.274 54.08C96.456 54.08 95.772 54.818 95.592 55.862H100.884C100.884 55.124 100.524 54.08 98.274 54.08ZM100.956 58.886H104.61C104.61 59.714 103.962 62.234 98.796 62.234H98.13C93.198 62.234 91.974 59.534 91.974 57.14V56.888C91.974 54.638 93.09 51.794 97.824 51.794H98.616C103.728 51.794 104.646 54.638 104.646 57.428V57.752H95.556C95.7 58.904 96.438 59.84 98.58 59.84C100.614 59.84 100.866 59.048 100.956 58.886ZM115.294 62H107.05V52.01H114.934C117.22 52.01 118.66 52.82 118.66 54.404V54.494C118.66 55.736 117.868 56.474 116.662 56.672C117.886 56.816 118.984 57.68 118.984 59.12V59.192C118.984 61.01 117.796 62 115.294 62ZM110.56 55.988H113.782C114.628 55.988 115.06 55.664 115.06 55.034V54.944C115.06 54.368 114.664 54.026 113.782 54.026H110.56V55.988ZM110.56 59.984H113.926C114.862 59.984 115.384 59.678 115.384 58.976V58.832C115.384 58.202 114.952 57.806 113.926 57.806H110.56V59.984Z" fill="#C1A875" style="mix-blend-mode:color"/>
<defs>
<linearGradient id="paint0_linear_2018_1402" x1="8.27014e-07" y1="30" x2="222" y2="30" gradientUnits="userSpaceOnUse">
<stop stop-color="#576167"/>
<stop offset="0.191294" stop-color="#9EA1A2"/>
<stop offset="0.396166" stop-color="#848989"/>
<stop offset="0.62055" stop-color="#576167"/>
<stop offset="0.830299" stop-color="#757A7C"/>
<stop offset="1" stop-color="#576167"/>
</linearGradient>
<radialGradient id="paint1_radial_2018_1402" cx="0" cy="0" r="1" gradientUnits="userSpaceOnUse" gradientTransform="translate(118.226 2.39326) rotate(90) scale(53.4944 167.95)">
<stop stop-color="white"/>
<stop offset="1" stop-color="white" stop-opacity="0"/>
</radialGradient>
<radialGradient id="paint2_radial_2018_1402" cx="0" cy="0" r="1" gradientUnits="userSpaceOnUse" gradientTransform="translate(130.783 82.9888) rotate(-89.7344) scale(76.6525 240.162)">
<stop stop-color="white"/>
<stop offset="1" stop-color="white" stop-opacity="0"/>
</radialGradient>
</defs>
</svg>
