<svg width="215" height="42" viewBox="0 0 215 42" fill="none" xmlns="http://www.w3.org/2000/svg">
<path d="M1.656 14V0.608H6.588L10.854 9.68L15.246 0.608H19.872V14H16.254V5.234L12.186 14H9.288L5.22 5.234V14H1.656ZM31.4152 7.952L26.5912 14H22.9912V4.01H26.5012V10.058L31.3252 4.01H34.9252V14H31.4152V7.952ZM45.8367 14L43.1547 11.138L40.5447 14H36.5667L41.0487 8.996L36.4227 4.01H40.7247L43.2807 6.8L45.7467 4.01H49.6167L45.3147 8.924L49.8867 14H45.8367ZM56.008 12.002C58.06 12.002 58.762 10.706 58.762 9.95V9.176C58.456 9.302 57.574 9.482 56.566 9.644C54.874 9.932 54.334 10.166 54.334 10.868V10.904C54.334 11.534 54.784 12.002 56.008 12.002ZM58.87 12.614C58.438 13.136 57.358 14.198 55.018 14.198H54.73C51.94 14.198 50.788 12.686 50.788 11.03V10.958C50.788 9.23 51.886 8.168 55.27 7.88L58.006 7.646C58.564 7.592 58.762 7.412 58.762 6.998C58.762 6.53 58.618 6.026 56.674 6.026C54.838 6.026 54.658 6.746 54.658 7.124H51.058V7.088C51.058 6.098 51.454 3.776 56.368 3.776H56.926C61.876 3.776 62.182 5.81 62.182 7.142V10.436C62.182 11.066 62.308 11.318 63.01 11.318H63.388V14H60.544C59.5 14 59.014 13.262 58.87 12.614ZM73.8136 7.952L68.9896 14H65.3896V4.01H68.8996V10.058L73.7236 4.01H77.3236V14H73.8136V7.952ZM88.4332 14V6.674H84.4732C84.4732 9.356 84.3832 10.85 84.0412 11.768C83.6632 12.776 83.1592 14 80.5132 14H79.4152V11.39H79.6312C80.2612 11.39 80.7292 11.174 80.9272 10.256C81.0712 9.482 81.1252 8.636 81.1252 4.01H91.9432V14H88.4332ZM111.79 14V5L103.96 14H100.252V0.608H103.96V9.608L111.79 0.608H115.498V14H111.79ZM118.616 14V4.01H127.328V6.674H122.126V14H118.616ZM135.497 14.27H134.939C129.557 14.27 128.729 10.994 128.729 9.176V8.924C128.729 7.124 129.557 3.74 134.921 3.74H135.515C141.059 3.74 141.707 7.142 141.707 8.906V9.194C141.707 10.994 141.059 14.27 135.497 14.27ZM135.119 11.642H135.317C137.531 11.642 138.089 10.058 138.089 8.96C138.089 7.826 137.531 6.314 135.317 6.314H135.119C132.815 6.314 132.347 7.826 132.347 8.96C132.347 10.058 132.815 11.642 135.119 11.642ZM153.302 9.014V8.96C153.302 7.88 152.798 6.422 150.602 6.422H150.422C148.316 6.422 147.65 7.808 147.65 8.96V9.014C147.65 10.112 148.316 11.552 150.422 11.552H150.602C152.798 11.552 153.302 10.04 153.302 9.014ZM144.158 17.438V4.01H147.632V5.288C148.064 4.82 149.378 3.812 151.646 3.812H151.88C155.696 3.812 156.938 6.422 156.938 8.798V9.104C156.938 11.282 155.66 14.198 151.862 14.198H151.61C149.324 14.198 148.1 13.154 147.668 12.722V17.438H144.158ZM165.194 6.08C163.376 6.08 162.692 6.818 162.512 7.862H167.804C167.804 7.124 167.444 6.08 165.194 6.08ZM167.876 10.886H171.53C171.53 11.714 170.882 14.234 165.716 14.234H165.05C160.118 14.234 158.894 11.534 158.894 9.14V8.888C158.894 6.638 160.01 3.794 164.744 3.794H165.536C170.648 3.794 171.566 6.638 171.566 9.428V9.752H162.476C162.62 10.904 163.358 11.84 165.5 11.84C167.534 11.84 167.786 11.048 167.876 10.886ZM182.214 14H173.97V4.01H181.854C184.14 4.01 185.58 4.82 185.58 6.404V6.494C185.58 7.736 184.788 8.474 183.582 8.672C184.806 8.816 185.904 9.68 185.904 11.12V11.192C185.904 13.01 184.716 14 182.214 14ZM177.48 7.988H180.702C181.548 7.988 181.98 7.664 181.98 7.034V6.944C181.98 6.368 181.584 6.026 180.702 6.026H177.48V7.988ZM177.48 11.984H180.846C181.782 11.984 182.304 11.678 182.304 10.976V10.832C182.304 10.202 181.872 9.806 180.846 9.806H177.48V11.984ZM196.773 7.952L191.949 14H188.349V4.01H191.859V10.058L196.683 4.01H200.283V14H196.773V7.952ZM210.618 4.01H214.128V14H210.618V10.562C209.844 10.652 208.944 10.742 208.008 10.742C204.048 10.742 202.554 9.626 202.554 6.458V4.01H206.064V5.81C206.064 7.682 206.694 8.006 208.548 8.006C209.25 8.006 210.06 7.952 210.618 7.88V4.01ZM6.012 38V27.668H0.828V24.608H14.886V27.668H9.702V38H6.012ZM21.3697 30.08C19.5517 30.08 18.8677 30.818 18.6877 31.862H23.9797C23.9797 31.124 23.6197 30.08 21.3697 30.08ZM24.0517 34.886H27.7057C27.7057 35.714 27.0577 38.234 21.8917 38.234H21.2257C16.2937 38.234 15.0697 35.534 15.0697 33.14V32.888C15.0697 30.638 16.1857 27.794 20.9197 27.794H21.7117C26.8237 27.794 27.7417 30.638 27.7417 33.428V33.752H18.6517C18.7957 34.904 19.5337 35.84 21.6757 35.84C23.7097 35.84 23.9617 35.048 24.0517 34.886ZM39.3255 33.014V32.96C39.3255 31.88 38.8215 30.422 36.6255 30.422H36.4455C34.3395 30.422 33.6735 31.808 33.6735 32.96V33.014C33.6735 34.112 34.3395 35.552 36.4455 35.552H36.6255C38.8215 35.552 39.3255 34.04 39.3255 33.014ZM30.1815 41.438V28.01H33.6555V29.288C34.0875 28.82 35.4015 27.812 37.6695 27.812H37.9035C41.7195 27.812 42.9615 30.422 42.9615 32.798V33.104C42.9615 35.282 41.6835 38.198 37.8855 38.198H37.6335C35.3475 38.198 34.1235 37.154 33.6915 36.722V41.438H30.1815ZM51.2173 30.08C49.3993 30.08 48.7153 30.818 48.5353 31.862H53.8273C53.8273 31.124 53.4673 30.08 51.2173 30.08ZM53.8993 34.886H57.5533C57.5533 35.714 56.9053 38.234 51.7393 38.234H51.0733C46.1413 38.234 44.9173 35.534 44.9173 33.14V32.888C44.9173 30.638 46.0333 27.794 50.7673 27.794H51.5593C56.6713 27.794 57.5893 30.638 57.5893 33.428V33.752H48.4993C48.6433 34.904 49.3813 35.84 51.5233 35.84C53.5573 35.84 53.8093 35.048 53.8993 34.886ZM67.8094 38L65.1274 35.138L62.5174 38H58.5394L63.0214 32.996L58.3954 28.01H62.6974L65.2534 30.8L67.7194 28.01H71.5894L67.2874 32.924L71.8594 38H67.8094ZM79.4408 38.27H78.8828C73.5008 38.27 72.6728 34.994 72.6728 33.176V32.924C72.6728 31.124 73.5008 27.74 78.8648 27.74H79.4588C85.0028 27.74 85.6508 31.142 85.6508 32.906V33.194C85.6508 34.994 85.0028 38.27 79.4408 38.27ZM79.0628 35.642H79.2608C81.4748 35.642 82.0328 34.058 82.0328 32.96C82.0328 31.826 81.4748 30.314 79.2608 30.314H79.0628C76.7588 30.314 76.2908 31.826 76.2908 32.96C76.2908 34.058 76.7588 35.642 79.0628 35.642ZM96.3094 38H88.0654V28.01H95.9494C98.2354 28.01 99.6754 28.82 99.6754 30.404V30.494C99.6754 31.736 98.8834 32.474 97.6774 32.672C98.9014 32.816 99.9994 33.68 99.9994 35.12V35.192C99.9994 37.01 98.8114 38 96.3094 38ZM91.5754 31.988H94.7974C95.6434 31.988 96.0754 31.664 96.0754 31.034V30.944C96.0754 30.368 95.6794 30.026 94.7974 30.026H91.5754V31.988ZM91.5754 35.984H94.9414C95.8774 35.984 96.3994 35.678 96.3994 34.976V34.832C96.3994 34.202 95.9674 33.806 94.9414 33.806H91.5754V35.984Z" fill="url(#paint0_linear_2018_1412)"/>
<path d="M1.656 14V0.608H6.588L10.854 9.68L15.246 0.608H19.872V14H16.254V5.234L12.186 14H9.288L5.22 5.234V14H1.656ZM31.4152 7.952L26.5912 14H22.9912V4.01H26.5012V10.058L31.3252 4.01H34.9252V14H31.4152V7.952ZM45.8367 14L43.1547 11.138L40.5447 14H36.5667L41.0487 8.996L36.4227 4.01H40.7247L43.2807 6.8L45.7467 4.01H49.6167L45.3147 8.924L49.8867 14H45.8367ZM56.008 12.002C58.06 12.002 58.762 10.706 58.762 9.95V9.176C58.456 9.302 57.574 9.482 56.566 9.644C54.874 9.932 54.334 10.166 54.334 10.868V10.904C54.334 11.534 54.784 12.002 56.008 12.002ZM58.87 12.614C58.438 13.136 57.358 14.198 55.018 14.198H54.73C51.94 14.198 50.788 12.686 50.788 11.03V10.958C50.788 9.23 51.886 8.168 55.27 7.88L58.006 7.646C58.564 7.592 58.762 7.412 58.762 6.998C58.762 6.53 58.618 6.026 56.674 6.026C54.838 6.026 54.658 6.746 54.658 7.124H51.058V7.088C51.058 6.098 51.454 3.776 56.368 3.776H56.926C61.876 3.776 62.182 5.81 62.182 7.142V10.436C62.182 11.066 62.308 11.318 63.01 11.318H63.388V14H60.544C59.5 14 59.014 13.262 58.87 12.614ZM73.8136 7.952L68.9896 14H65.3896V4.01H68.8996V10.058L73.7236 4.01H77.3236V14H73.8136V7.952ZM88.4332 14V6.674H84.4732C84.4732 9.356 84.3832 10.85 84.0412 11.768C83.6632 12.776 83.1592 14 80.5132 14H79.4152V11.39H79.6312C80.2612 11.39 80.7292 11.174 80.9272 10.256C81.0712 9.482 81.1252 8.636 81.1252 4.01H91.9432V14H88.4332ZM111.79 14V5L103.96 14H100.252V0.608H103.96V9.608L111.79 0.608H115.498V14H111.79ZM118.616 14V4.01H127.328V6.674H122.126V14H118.616ZM135.497 14.27H134.939C129.557 14.27 128.729 10.994 128.729 9.176V8.924C128.729 7.124 129.557 3.74 134.921 3.74H135.515C141.059 3.74 141.707 7.142 141.707 8.906V9.194C141.707 10.994 141.059 14.27 135.497 14.27ZM135.119 11.642H135.317C137.531 11.642 138.089 10.058 138.089 8.96C138.089 7.826 137.531 6.314 135.317 6.314H135.119C132.815 6.314 132.347 7.826 132.347 8.96C132.347 10.058 132.815 11.642 135.119 11.642ZM153.302 9.014V8.96C153.302 7.88 152.798 6.422 150.602 6.422H150.422C148.316 6.422 147.65 7.808 147.65 8.96V9.014C147.65 10.112 148.316 11.552 150.422 11.552H150.602C152.798 11.552 153.302 10.04 153.302 9.014ZM144.158 17.438V4.01H147.632V5.288C148.064 4.82 149.378 3.812 151.646 3.812H151.88C155.696 3.812 156.938 6.422 156.938 8.798V9.104C156.938 11.282 155.66 14.198 151.862 14.198H151.61C149.324 14.198 148.1 13.154 147.668 12.722V17.438H144.158ZM165.194 6.08C163.376 6.08 162.692 6.818 162.512 7.862H167.804C167.804 7.124 167.444 6.08 165.194 6.08ZM167.876 10.886H171.53C171.53 11.714 170.882 14.234 165.716 14.234H165.05C160.118 14.234 158.894 11.534 158.894 9.14V8.888C158.894 6.638 160.01 3.794 164.744 3.794H165.536C170.648 3.794 171.566 6.638 171.566 9.428V9.752H162.476C162.62 10.904 163.358 11.84 165.5 11.84C167.534 11.84 167.786 11.048 167.876 10.886ZM182.214 14H173.97V4.01H181.854C184.14 4.01 185.58 4.82 185.58 6.404V6.494C185.58 7.736 184.788 8.474 183.582 8.672C184.806 8.816 185.904 9.68 185.904 11.12V11.192C185.904 13.01 184.716 14 182.214 14ZM177.48 7.988H180.702C181.548 7.988 181.98 7.664 181.98 7.034V6.944C181.98 6.368 181.584 6.026 180.702 6.026H177.48V7.988ZM177.48 11.984H180.846C181.782 11.984 182.304 11.678 182.304 10.976V10.832C182.304 10.202 181.872 9.806 180.846 9.806H177.48V11.984ZM196.773 7.952L191.949 14H188.349V4.01H191.859V10.058L196.683 4.01H200.283V14H196.773V7.952ZM210.618 4.01H214.128V14H210.618V10.562C209.844 10.652 208.944 10.742 208.008 10.742C204.048 10.742 202.554 9.626 202.554 6.458V4.01H206.064V5.81C206.064 7.682 206.694 8.006 208.548 8.006C209.25 8.006 210.06 7.952 210.618 7.88V4.01ZM6.012 38V27.668H0.828V24.608H14.886V27.668H9.702V38H6.012ZM21.3697 30.08C19.5517 30.08 18.8677 30.818 18.6877 31.862H23.9797C23.9797 31.124 23.6197 30.08 21.3697 30.08ZM24.0517 34.886H27.7057C27.7057 35.714 27.0577 38.234 21.8917 38.234H21.2257C16.2937 38.234 15.0697 35.534 15.0697 33.14V32.888C15.0697 30.638 16.1857 27.794 20.9197 27.794H21.7117C26.8237 27.794 27.7417 30.638 27.7417 33.428V33.752H18.6517C18.7957 34.904 19.5337 35.84 21.6757 35.84C23.7097 35.84 23.9617 35.048 24.0517 34.886ZM39.3255 33.014V32.96C39.3255 31.88 38.8215 30.422 36.6255 30.422H36.4455C34.3395 30.422 33.6735 31.808 33.6735 32.96V33.014C33.6735 34.112 34.3395 35.552 36.4455 35.552H36.6255C38.8215 35.552 39.3255 34.04 39.3255 33.014ZM30.1815 41.438V28.01H33.6555V29.288C34.0875 28.82 35.4015 27.812 37.6695 27.812H37.9035C41.7195 27.812 42.9615 30.422 42.9615 32.798V33.104C42.9615 35.282 41.6835 38.198 37.8855 38.198H37.6335C35.3475 38.198 34.1235 37.154 33.6915 36.722V41.438H30.1815ZM51.2173 30.08C49.3993 30.08 48.7153 30.818 48.5353 31.862H53.8273C53.8273 31.124 53.4673 30.08 51.2173 30.08ZM53.8993 34.886H57.5533C57.5533 35.714 56.9053 38.234 51.7393 38.234H51.0733C46.1413 38.234 44.9173 35.534 44.9173 33.14V32.888C44.9173 30.638 46.0333 27.794 50.7673 27.794H51.5593C56.6713 27.794 57.5893 30.638 57.5893 33.428V33.752H48.4993C48.6433 34.904 49.3813 35.84 51.5233 35.84C53.5573 35.84 53.8093 35.048 53.8993 34.886ZM67.8094 38L65.1274 35.138L62.5174 38H58.5394L63.0214 32.996L58.3954 28.01H62.6974L65.2534 30.8L67.7194 28.01H71.5894L67.2874 32.924L71.8594 38H67.8094ZM79.4408 38.27H78.8828C73.5008 38.27 72.6728 34.994 72.6728 33.176V32.924C72.6728 31.124 73.5008 27.74 78.8648 27.74H79.4588C85.0028 27.74 85.6508 31.142 85.6508 32.906V33.194C85.6508 34.994 85.0028 38.27 79.4408 38.27ZM79.0628 35.642H79.2608C81.4748 35.642 82.0328 34.058 82.0328 32.96C82.0328 31.826 81.4748 30.314 79.2608 30.314H79.0628C76.7588 30.314 76.2908 31.826 76.2908 32.96C76.2908 34.058 76.7588 35.642 79.0628 35.642ZM96.3094 38H88.0654V28.01H95.9494C98.2354 28.01 99.6754 28.82 99.6754 30.404V30.494C99.6754 31.736 98.8834 32.474 97.6774 32.672C98.9014 32.816 99.9994 33.68 99.9994 35.12V35.192C99.9994 37.01 98.8114 38 96.3094 38ZM91.5754 31.988H94.7974C95.6434 31.988 96.0754 31.664 96.0754 31.034V30.944C96.0754 30.368 95.6794 30.026 94.7974 30.026H91.5754V31.988ZM91.5754 35.984H94.9414C95.8774 35.984 96.3994 35.678 96.3994 34.976V34.832C96.3994 34.202 95.9674 33.806 94.9414 33.806H91.5754V35.984Z" fill="url(#paint1_radial_2018_1412)" style="mix-blend-mode:overlay"/>
<path d="M1.656 14V0.608H6.588L10.854 9.68L15.246 0.608H19.872V14H16.254V5.234L12.186 14H9.288L5.22 5.234V14H1.656ZM31.4152 7.952L26.5912 14H22.9912V4.01H26.5012V10.058L31.3252 4.01H34.9252V14H31.4152V7.952ZM45.8367 14L43.1547 11.138L40.5447 14H36.5667L41.0487 8.996L36.4227 4.01H40.7247L43.2807 6.8L45.7467 4.01H49.6167L45.3147 8.924L49.8867 14H45.8367ZM56.008 12.002C58.06 12.002 58.762 10.706 58.762 9.95V9.176C58.456 9.302 57.574 9.482 56.566 9.644C54.874 9.932 54.334 10.166 54.334 10.868V10.904C54.334 11.534 54.784 12.002 56.008 12.002ZM58.87 12.614C58.438 13.136 57.358 14.198 55.018 14.198H54.73C51.94 14.198 50.788 12.686 50.788 11.03V10.958C50.788 9.23 51.886 8.168 55.27 7.88L58.006 7.646C58.564 7.592 58.762 7.412 58.762 6.998C58.762 6.53 58.618 6.026 56.674 6.026C54.838 6.026 54.658 6.746 54.658 7.124H51.058V7.088C51.058 6.098 51.454 3.776 56.368 3.776H56.926C61.876 3.776 62.182 5.81 62.182 7.142V10.436C62.182 11.066 62.308 11.318 63.01 11.318H63.388V14H60.544C59.5 14 59.014 13.262 58.87 12.614ZM73.8136 7.952L68.9896 14H65.3896V4.01H68.8996V10.058L73.7236 4.01H77.3236V14H73.8136V7.952ZM88.4332 14V6.674H84.4732C84.4732 9.356 84.3832 10.85 84.0412 11.768C83.6632 12.776 83.1592 14 80.5132 14H79.4152V11.39H79.6312C80.2612 11.39 80.7292 11.174 80.9272 10.256C81.0712 9.482 81.1252 8.636 81.1252 4.01H91.9432V14H88.4332ZM111.79 14V5L103.96 14H100.252V0.608H103.96V9.608L111.79 0.608H115.498V14H111.79ZM118.616 14V4.01H127.328V6.674H122.126V14H118.616ZM135.497 14.27H134.939C129.557 14.27 128.729 10.994 128.729 9.176V8.924C128.729 7.124 129.557 3.74 134.921 3.74H135.515C141.059 3.74 141.707 7.142 141.707 8.906V9.194C141.707 10.994 141.059 14.27 135.497 14.27ZM135.119 11.642H135.317C137.531 11.642 138.089 10.058 138.089 8.96C138.089 7.826 137.531 6.314 135.317 6.314H135.119C132.815 6.314 132.347 7.826 132.347 8.96C132.347 10.058 132.815 11.642 135.119 11.642ZM153.302 9.014V8.96C153.302 7.88 152.798 6.422 150.602 6.422H150.422C148.316 6.422 147.65 7.808 147.65 8.96V9.014C147.65 10.112 148.316 11.552 150.422 11.552H150.602C152.798 11.552 153.302 10.04 153.302 9.014ZM144.158 17.438V4.01H147.632V5.288C148.064 4.82 149.378 3.812 151.646 3.812H151.88C155.696 3.812 156.938 6.422 156.938 8.798V9.104C156.938 11.282 155.66 14.198 151.862 14.198H151.61C149.324 14.198 148.1 13.154 147.668 12.722V17.438H144.158ZM165.194 6.08C163.376 6.08 162.692 6.818 162.512 7.862H167.804C167.804 7.124 167.444 6.08 165.194 6.08ZM167.876 10.886H171.53C171.53 11.714 170.882 14.234 165.716 14.234H165.05C160.118 14.234 158.894 11.534 158.894 9.14V8.888C158.894 6.638 160.01 3.794 164.744 3.794H165.536C170.648 3.794 171.566 6.638 171.566 9.428V9.752H162.476C162.62 10.904 163.358 11.84 165.5 11.84C167.534 11.84 167.786 11.048 167.876 10.886ZM182.214 14H173.97V4.01H181.854C184.14 4.01 185.58 4.82 185.58 6.404V6.494C185.58 7.736 184.788 8.474 183.582 8.672C184.806 8.816 185.904 9.68 185.904 11.12V11.192C185.904 13.01 184.716 14 182.214 14ZM177.48 7.988H180.702C181.548 7.988 181.98 7.664 181.98 7.034V6.944C181.98 6.368 181.584 6.026 180.702 6.026H177.48V7.988ZM177.48 11.984H180.846C181.782 11.984 182.304 11.678 182.304 10.976V10.832C182.304 10.202 181.872 9.806 180.846 9.806H177.48V11.984ZM196.773 7.952L191.949 14H188.349V4.01H191.859V10.058L196.683 4.01H200.283V14H196.773V7.952ZM210.618 4.01H214.128V14H210.618V10.562C209.844 10.652 208.944 10.742 208.008 10.742C204.048 10.742 202.554 9.626 202.554 6.458V4.01H206.064V5.81C206.064 7.682 206.694 8.006 208.548 8.006C209.25 8.006 210.06 7.952 210.618 7.88V4.01ZM6.012 38V27.668H0.828V24.608H14.886V27.668H9.702V38H6.012ZM21.3697 30.08C19.5517 30.08 18.8677 30.818 18.6877 31.862H23.9797C23.9797 31.124 23.6197 30.08 21.3697 30.08ZM24.0517 34.886H27.7057C27.7057 35.714 27.0577 38.234 21.8917 38.234H21.2257C16.2937 38.234 15.0697 35.534 15.0697 33.14V32.888C15.0697 30.638 16.1857 27.794 20.9197 27.794H21.7117C26.8237 27.794 27.7417 30.638 27.7417 33.428V33.752H18.6517C18.7957 34.904 19.5337 35.84 21.6757 35.84C23.7097 35.84 23.9617 35.048 24.0517 34.886ZM39.3255 33.014V32.96C39.3255 31.88 38.8215 30.422 36.6255 30.422H36.4455C34.3395 30.422 33.6735 31.808 33.6735 32.96V33.014C33.6735 34.112 34.3395 35.552 36.4455 35.552H36.6255C38.8215 35.552 39.3255 34.04 39.3255 33.014ZM30.1815 41.438V28.01H33.6555V29.288C34.0875 28.82 35.4015 27.812 37.6695 27.812H37.9035C41.7195 27.812 42.9615 30.422 42.9615 32.798V33.104C42.9615 35.282 41.6835 38.198 37.8855 38.198H37.6335C35.3475 38.198 34.1235 37.154 33.6915 36.722V41.438H30.1815ZM51.2173 30.08C49.3993 30.08 48.7153 30.818 48.5353 31.862H53.8273C53.8273 31.124 53.4673 30.08 51.2173 30.08ZM53.8993 34.886H57.5533C57.5533 35.714 56.9053 38.234 51.7393 38.234H51.0733C46.1413 38.234 44.9173 35.534 44.9173 33.14V32.888C44.9173 30.638 46.0333 27.794 50.7673 27.794H51.5593C56.6713 27.794 57.5893 30.638 57.5893 33.428V33.752H48.4993C48.6433 34.904 49.3813 35.84 51.5233 35.84C53.5573 35.84 53.8093 35.048 53.8993 34.886ZM67.8094 38L65.1274 35.138L62.5174 38H58.5394L63.0214 32.996L58.3954 28.01H62.6974L65.2534 30.8L67.7194 28.01H71.5894L67.2874 32.924L71.8594 38H67.8094ZM79.4408 38.27H78.8828C73.5008 38.27 72.6728 34.994 72.6728 33.176V32.924C72.6728 31.124 73.5008 27.74 78.8648 27.74H79.4588C85.0028 27.74 85.6508 31.142 85.6508 32.906V33.194C85.6508 34.994 85.0028 38.27 79.4408 38.27ZM79.0628 35.642H79.2608C81.4748 35.642 82.0328 34.058 82.0328 32.96C82.0328 31.826 81.4748 30.314 79.2608 30.314H79.0628C76.7588 30.314 76.2908 31.826 76.2908 32.96C76.2908 34.058 76.7588 35.642 79.0628 35.642ZM96.3094 38H88.0654V28.01H95.9494C98.2354 28.01 99.6754 28.82 99.6754 30.404V30.494C99.6754 31.736 98.8834 32.474 97.6774 32.672C98.9014 32.816 99.9994 33.68 99.9994 35.12V35.192C99.9994 37.01 98.8114 38 96.3094 38ZM91.5754 31.988H94.7974C95.6434 31.988 96.0754 31.664 96.0754 31.034V30.944C96.0754 30.368 95.6794 30.026 94.7974 30.026H91.5754V31.988ZM91.5754 35.984H94.9414C95.8774 35.984 96.3994 35.678 96.3994 34.976V34.832C96.3994 34.202 95.9674 33.806 94.9414 33.806H91.5754V35.984Z" fill="url(#paint2_radial_2018_1412)"/>
<path d="M1.656 14V0.608H6.588L10.854 9.68L15.246 0.608H19.872V14H16.254V5.234L12.186 14H9.288L5.22 5.234V14H1.656ZM31.4152 7.952L26.5912 14H22.9912V4.01H26.5012V10.058L31.3252 4.01H34.9252V14H31.4152V7.952ZM45.8367 14L43.1547 11.138L40.5447 14H36.5667L41.0487 8.996L36.4227 4.01H40.7247L43.2807 6.8L45.7467 4.01H49.6167L45.3147 8.924L49.8867 14H45.8367ZM56.008 12.002C58.06 12.002 58.762 10.706 58.762 9.95V9.176C58.456 9.302 57.574 9.482 56.566 9.644C54.874 9.932 54.334 10.166 54.334 10.868V10.904C54.334 11.534 54.784 12.002 56.008 12.002ZM58.87 12.614C58.438 13.136 57.358 14.198 55.018 14.198H54.73C51.94 14.198 50.788 12.686 50.788 11.03V10.958C50.788 9.23 51.886 8.168 55.27 7.88L58.006 7.646C58.564 7.592 58.762 7.412 58.762 6.998C58.762 6.53 58.618 6.026 56.674 6.026C54.838 6.026 54.658 6.746 54.658 7.124H51.058V7.088C51.058 6.098 51.454 3.776 56.368 3.776H56.926C61.876 3.776 62.182 5.81 62.182 7.142V10.436C62.182 11.066 62.308 11.318 63.01 11.318H63.388V14H60.544C59.5 14 59.014 13.262 58.87 12.614ZM73.8136 7.952L68.9896 14H65.3896V4.01H68.8996V10.058L73.7236 4.01H77.3236V14H73.8136V7.952ZM88.4332 14V6.674H84.4732C84.4732 9.356 84.3832 10.85 84.0412 11.768C83.6632 12.776 83.1592 14 80.5132 14H79.4152V11.39H79.6312C80.2612 11.39 80.7292 11.174 80.9272 10.256C81.0712 9.482 81.1252 8.636 81.1252 4.01H91.9432V14H88.4332ZM111.79 14V5L103.96 14H100.252V0.608H103.96V9.608L111.79 0.608H115.498V14H111.79ZM118.616 14V4.01H127.328V6.674H122.126V14H118.616ZM135.497 14.27H134.939C129.557 14.27 128.729 10.994 128.729 9.176V8.924C128.729 7.124 129.557 3.74 134.921 3.74H135.515C141.059 3.74 141.707 7.142 141.707 8.906V9.194C141.707 10.994 141.059 14.27 135.497 14.27ZM135.119 11.642H135.317C137.531 11.642 138.089 10.058 138.089 8.96C138.089 7.826 137.531 6.314 135.317 6.314H135.119C132.815 6.314 132.347 7.826 132.347 8.96C132.347 10.058 132.815 11.642 135.119 11.642ZM153.302 9.014V8.96C153.302 7.88 152.798 6.422 150.602 6.422H150.422C148.316 6.422 147.65 7.808 147.65 8.96V9.014C147.65 10.112 148.316 11.552 150.422 11.552H150.602C152.798 11.552 153.302 10.04 153.302 9.014ZM144.158 17.438V4.01H147.632V5.288C148.064 4.82 149.378 3.812 151.646 3.812H151.88C155.696 3.812 156.938 6.422 156.938 8.798V9.104C156.938 11.282 155.66 14.198 151.862 14.198H151.61C149.324 14.198 148.1 13.154 147.668 12.722V17.438H144.158ZM165.194 6.08C163.376 6.08 162.692 6.818 162.512 7.862H167.804C167.804 7.124 167.444 6.08 165.194 6.08ZM167.876 10.886H171.53C171.53 11.714 170.882 14.234 165.716 14.234H165.05C160.118 14.234 158.894 11.534 158.894 9.14V8.888C158.894 6.638 160.01 3.794 164.744 3.794H165.536C170.648 3.794 171.566 6.638 171.566 9.428V9.752H162.476C162.62 10.904 163.358 11.84 165.5 11.84C167.534 11.84 167.786 11.048 167.876 10.886ZM182.214 14H173.97V4.01H181.854C184.14 4.01 185.58 4.82 185.58 6.404V6.494C185.58 7.736 184.788 8.474 183.582 8.672C184.806 8.816 185.904 9.68 185.904 11.12V11.192C185.904 13.01 184.716 14 182.214 14ZM177.48 7.988H180.702C181.548 7.988 181.98 7.664 181.98 7.034V6.944C181.98 6.368 181.584 6.026 180.702 6.026H177.48V7.988ZM177.48 11.984H180.846C181.782 11.984 182.304 11.678 182.304 10.976V10.832C182.304 10.202 181.872 9.806 180.846 9.806H177.48V11.984ZM196.773 7.952L191.949 14H188.349V4.01H191.859V10.058L196.683 4.01H200.283V14H196.773V7.952ZM210.618 4.01H214.128V14H210.618V10.562C209.844 10.652 208.944 10.742 208.008 10.742C204.048 10.742 202.554 9.626 202.554 6.458V4.01H206.064V5.81C206.064 7.682 206.694 8.006 208.548 8.006C209.25 8.006 210.06 7.952 210.618 7.88V4.01ZM6.012 38V27.668H0.828V24.608H14.886V27.668H9.702V38H6.012ZM21.3697 30.08C19.5517 30.08 18.8677 30.818 18.6877 31.862H23.9797C23.9797 31.124 23.6197 30.08 21.3697 30.08ZM24.0517 34.886H27.7057C27.7057 35.714 27.0577 38.234 21.8917 38.234H21.2257C16.2937 38.234 15.0697 35.534 15.0697 33.14V32.888C15.0697 30.638 16.1857 27.794 20.9197 27.794H21.7117C26.8237 27.794 27.7417 30.638 27.7417 33.428V33.752H18.6517C18.7957 34.904 19.5337 35.84 21.6757 35.84C23.7097 35.84 23.9617 35.048 24.0517 34.886ZM39.3255 33.014V32.96C39.3255 31.88 38.8215 30.422 36.6255 30.422H36.4455C34.3395 30.422 33.6735 31.808 33.6735 32.96V33.014C33.6735 34.112 34.3395 35.552 36.4455 35.552H36.6255C38.8215 35.552 39.3255 34.04 39.3255 33.014ZM30.1815 41.438V28.01H33.6555V29.288C34.0875 28.82 35.4015 27.812 37.6695 27.812H37.9035C41.7195 27.812 42.9615 30.422 42.9615 32.798V33.104C42.9615 35.282 41.6835 38.198 37.8855 38.198H37.6335C35.3475 38.198 34.1235 37.154 33.6915 36.722V41.438H30.1815ZM51.2173 30.08C49.3993 30.08 48.7153 30.818 48.5353 31.862H53.8273C53.8273 31.124 53.4673 30.08 51.2173 30.08ZM53.8993 34.886H57.5533C57.5533 35.714 56.9053 38.234 51.7393 38.234H51.0733C46.1413 38.234 44.9173 35.534 44.9173 33.14V32.888C44.9173 30.638 46.0333 27.794 50.7673 27.794H51.5593C56.6713 27.794 57.5893 30.638 57.5893 33.428V33.752H48.4993C48.6433 34.904 49.3813 35.84 51.5233 35.84C53.5573 35.84 53.8093 35.048 53.8993 34.886ZM67.8094 38L65.1274 35.138L62.5174 38H58.5394L63.0214 32.996L58.3954 28.01H62.6974L65.2534 30.8L67.7194 28.01H71.5894L67.2874 32.924L71.8594 38H67.8094ZM79.4408 38.27H78.8828C73.5008 38.27 72.6728 34.994 72.6728 33.176V32.924C72.6728 31.124 73.5008 27.74 78.8648 27.74H79.4588C85.0028 27.74 85.6508 31.142 85.6508 32.906V33.194C85.6508 34.994 85.0028 38.27 79.4408 38.27ZM79.0628 35.642H79.2608C81.4748 35.642 82.0328 34.058 82.0328 32.96C82.0328 31.826 81.4748 30.314 79.2608 30.314H79.0628C76.7588 30.314 76.2908 31.826 76.2908 32.96C76.2908 34.058 76.7588 35.642 79.0628 35.642ZM96.3094 38H88.0654V28.01H95.9494C98.2354 28.01 99.6754 28.82 99.6754 30.404V30.494C99.6754 31.736 98.8834 32.474 97.6774 32.672C98.9014 32.816 99.9994 33.68 99.9994 35.12V35.192C99.9994 37.01 98.8114 38 96.3094 38ZM91.5754 31.988H94.7974C95.6434 31.988 96.0754 31.664 96.0754 31.034V30.944C96.0754 30.368 95.6794 30.026 94.7974 30.026H91.5754V31.988ZM91.5754 35.984H94.9414C95.8774 35.984 96.3994 35.678 96.3994 34.976V34.832C96.3994 34.202 95.9674 33.806 94.9414 33.806H91.5754V35.984Z" fill="#C1A875" style="mix-blend-mode:color"/>
<defs>
<linearGradient id="paint0_linear_2018_1412" x1="8.27014e-07" y1="18" x2="222" y2="18" gradientUnits="userSpaceOnUse">
<stop stop-color="#576167"/>
<stop offset="0.191294" stop-color="#9EA1A2"/>
<stop offset="0.396166" stop-color="#848989"/>
<stop offset="0.62055" stop-color="#576167"/>
<stop offset="0.830299" stop-color="#757A7C"/>
<stop offset="1" stop-color="#576167"/>
</linearGradient>
<radialGradient id="paint1_radial_2018_1412" cx="0" cy="0" r="1" gradientUnits="userSpaceOnUse" gradientTransform="translate(118.226 -0.404494) rotate(90) scale(35.6629 167.95)">
<stop stop-color="white"/>
<stop offset="1" stop-color="white" stop-opacity="0"/>
</radialGradient>
<radialGradient id="paint2_radial_2018_1412" cx="0" cy="0" r="1" gradientUnits="userSpaceOnUse" gradientTransform="translate(130.783 53.3258) rotate(-89.6015) scale(51.1024 240.159)">
<stop stop-color="white"/>
<stop offset="1" stop-color="white" stop-opacity="0"/>
</radialGradient>
</defs>
</svg>
