<svg width="220" height="42" viewBox="0 0 220 42" fill="none" xmlns="http://www.w3.org/2000/svg">
<path d="M11.834 14V8.618H4.364V14H0.656V0.608H4.364V5.576H11.834V0.608H15.542V14H11.834ZM27.0754 7.952L22.2514 14H18.6514V4.01H22.1614V10.058L26.9854 4.01H30.5854V14H27.0754V7.952ZM40.9389 14L37.0509 9.374V14H33.5409V4.01H37.0509V8.006L40.6149 4.01H44.6649L40.4889 8.492L45.1149 14H40.9389ZM54.9894 7.952L50.1654 14H46.5654V4.01H50.0754V10.058L54.8994 4.01H58.4994V14H54.9894V7.952ZM64.2809 14V6.674H60.4109V4.01H71.6609V6.674H67.7909V14H64.2809ZM78.2814 12.002C80.3334 12.002 81.0354 10.706 81.0354 9.95V9.176C80.7294 9.302 79.8474 9.482 78.8394 9.644C77.1474 9.932 76.6074 10.166 76.6074 10.868V10.904C76.6074 11.534 77.0574 12.002 78.2814 12.002ZM81.1434 12.614C80.7114 13.136 79.6314 14.198 77.2914 14.198H77.0034C74.2134 14.198 73.0614 12.686 73.0614 11.03V10.958C73.0614 9.23 74.1594 8.168 77.5434 7.88L80.2794 7.646C80.8374 7.592 81.0354 7.412 81.0354 6.998C81.0354 6.53 80.8914 6.026 78.9474 6.026C77.1114 6.026 76.9314 6.746 76.9314 7.124H73.3314V7.088C73.3314 6.098 73.7274 3.776 78.6414 3.776H79.1994C84.1494 3.776 84.4554 5.81 84.4554 7.142V10.436C84.4554 11.066 84.5814 11.318 85.2834 11.318H85.6614V14H82.8174C81.7734 14 81.2874 13.262 81.1434 12.614ZM0.656 38V24.608H5.588L9.854 33.68L14.246 24.608H18.872V38H15.254V29.234L11.186 38H8.288L4.22 29.234V38H0.656ZM26.7072 36.002C28.7592 36.002 29.4612 34.706 29.4612 33.95V33.176C29.1552 33.302 28.2732 33.482 27.2652 33.644C25.5732 33.932 25.0332 34.166 25.0332 34.868V34.904C25.0332 35.534 25.4832 36.002 26.7072 36.002ZM29.5692 36.614C29.1372 37.136 28.0572 38.198 25.7172 38.198H25.4292C22.6392 38.198 21.4872 36.686 21.4872 35.03V34.958C21.4872 33.23 22.5852 32.168 25.9692 31.88L28.7052 31.646C29.2632 31.592 29.4612 31.412 29.4612 30.998C29.4612 30.53 29.3172 30.026 27.3732 30.026C25.5372 30.026 25.3572 30.746 25.3572 31.124H21.7572V31.088C21.7572 30.098 22.1532 27.776 27.0672 27.776H27.6252C32.5752 27.776 32.8812 29.81 32.8812 31.142V34.436C32.8812 35.066 33.0072 35.318 33.7092 35.318H34.0872V38H31.2432C30.1992 38 29.7132 37.262 29.5692 36.614ZM45.2689 33.014V32.96C45.2689 31.88 44.7649 30.422 42.5689 30.422H42.3889C40.2829 30.422 39.6169 31.808 39.6169 32.96V33.014C39.6169 34.112 40.2829 35.552 42.3889 35.552H42.5689C44.7649 35.552 45.2689 34.04 45.2689 33.014ZM36.1249 41.438V28.01H39.5989V29.288C40.0309 28.82 41.3449 27.812 43.6129 27.812H43.8469C47.6629 27.812 48.9049 30.422 48.9049 32.798V33.104C48.9049 35.282 47.6269 38.198 43.8289 38.198H43.5769C41.2909 38.198 40.0669 37.154 39.6349 36.722V41.438H36.1249ZM55.9748 36.002C58.0268 36.002 58.7288 34.706 58.7288 33.95V33.176C58.4228 33.302 57.5408 33.482 56.5328 33.644C54.8408 33.932 54.3008 34.166 54.3008 34.868V34.904C54.3008 35.534 54.7508 36.002 55.9748 36.002ZM58.8368 36.614C58.4048 37.136 57.3248 38.198 54.9848 38.198H54.6968C51.9068 38.198 50.7548 36.686 50.7548 35.03V34.958C50.7548 33.23 51.8528 32.168 55.2368 31.88L57.9728 31.646C58.5308 31.592 58.7288 31.412 58.7288 30.998C58.7288 30.53 58.5848 30.026 56.6408 30.026C54.8048 30.026 54.6248 30.746 54.6248 31.124H51.0248V31.088C51.0248 30.098 51.4208 27.776 56.3348 27.776H56.8928C61.8428 27.776 62.1488 29.81 62.1488 31.142V34.436C62.1488 35.066 62.2748 35.318 62.9768 35.318H63.3548V38H60.5108C59.4668 38 58.9808 37.262 58.8368 36.614ZM68.0427 38V30.674H64.1727V28.01H75.4227V30.674H71.5527V38H68.0427ZM83.5911 38.27H83.0331C77.6511 38.27 76.8231 34.994 76.8231 33.176V32.924C76.8231 31.124 77.6511 27.74 83.0151 27.74H83.6091C89.1531 27.74 89.8011 31.142 89.8011 32.906V33.194C89.8011 34.994 89.1531 38.27 83.5911 38.27ZM83.2131 35.642H83.4111C85.6251 35.642 86.1831 34.058 86.1831 32.96C86.1831 31.826 85.6251 30.314 83.4111 30.314H83.2131C80.9091 30.314 80.4411 31.826 80.4411 32.96C80.4411 34.058 80.9091 35.642 83.2131 35.642ZM100.46 38H92.2158V28.01H100.1C102.386 28.01 103.826 28.82 103.826 30.404V30.494C103.826 31.736 103.034 32.474 101.828 32.672C103.052 32.816 104.15 33.68 104.15 35.12V35.192C104.15 37.01 102.962 38 100.46 38ZM95.7258 31.988H98.9478C99.7938 31.988 100.226 31.664 100.226 31.034V30.944C100.226 30.368 99.8298 30.026 98.9478 30.026H95.7258V31.988ZM95.7258 35.984H99.0918C100.028 35.984 100.55 35.678 100.55 34.976V34.832C100.55 34.202 100.118 33.806 99.0918 33.806H95.7258V35.984ZM115.019 31.952L110.195 38H106.595V28.01H110.105V34.058L114.929 28.01H118.529V38H115.019V31.952ZM128.864 28.01H132.374V38H128.864V34.562C128.09 34.652 127.19 34.742 126.254 34.742C122.294 34.742 120.8 33.626 120.8 30.458V28.01H124.31V29.81C124.31 31.682 124.94 32.006 126.794 32.006C127.496 32.006 128.306 31.952 128.864 31.88V28.01ZM140.683 38V24.608H144.391V35.048H148.783V24.608H152.491V35.048H156.883V24.608H160.591V38H140.683ZM168.422 36.002C170.474 36.002 171.176 34.706 171.176 33.95V33.176C170.87 33.302 169.988 33.482 168.98 33.644C167.288 33.932 166.748 34.166 166.748 34.868V34.904C166.748 35.534 167.198 36.002 168.422 36.002ZM171.284 36.614C170.852 37.136 169.772 38.198 167.432 38.198H167.144C164.354 38.198 163.202 36.686 163.202 35.03V34.958C163.202 33.23 164.3 32.168 167.684 31.88L170.42 31.646C170.978 31.592 171.176 31.412 171.176 30.998C171.176 30.53 171.032 30.026 169.088 30.026C167.252 30.026 167.072 30.746 167.072 31.124H163.472V31.088C163.472 30.098 163.868 27.776 168.782 27.776H169.34C174.29 27.776 174.596 29.81 174.596 31.142V34.436C174.596 35.066 174.722 35.318 175.424 35.318H175.802V38H172.958C171.914 38 171.428 37.262 171.284 36.614ZM186.984 33.014V32.96C186.984 31.88 186.48 30.422 184.284 30.422H184.104C181.998 30.422 181.332 31.808 181.332 32.96V33.014C181.332 34.112 181.998 35.552 184.104 35.552H184.284C186.48 35.552 186.984 34.04 186.984 33.014ZM177.84 41.438V28.01H181.314V29.288C181.746 28.82 183.06 27.812 185.328 27.812H185.562C189.378 27.812 190.62 30.422 190.62 32.798V33.104C190.62 35.282 189.342 38.198 185.544 38.198H185.292C183.006 38.198 181.782 37.154 181.35 36.722V41.438H177.84ZM199.326 38.27H198.768C193.386 38.27 192.558 34.994 192.558 33.176V32.924C192.558 31.124 193.386 27.74 198.75 27.74H199.344C204.888 27.74 205.536 31.142 205.536 32.906V33.194C205.536 34.994 204.888 38.27 199.326 38.27ZM198.948 35.642H199.146C201.36 35.642 201.918 34.058 201.918 32.96C201.918 31.826 201.36 30.314 199.146 30.314H198.948C196.644 30.314 196.176 31.826 196.176 32.96C196.176 34.058 196.644 35.642 198.948 35.642ZM216.194 38H207.95V28.01H215.834C218.12 28.01 219.56 28.82 219.56 30.404V30.494C219.56 31.736 218.768 32.474 217.562 32.672C218.786 32.816 219.884 33.68 219.884 35.12V35.192C219.884 37.01 218.696 38 216.194 38ZM211.46 31.988H214.682C215.528 31.988 215.96 31.664 215.96 31.034V30.944C215.96 30.368 215.564 30.026 214.682 30.026H211.46V31.988ZM211.46 35.984H214.826C215.762 35.984 216.284 35.678 216.284 34.976V34.832C216.284 34.202 215.852 33.806 214.826 33.806H211.46V35.984Z" fill="url(#paint0_linear_2018_1430)"/>
<path d="M11.834 14V8.618H4.364V14H0.656V0.608H4.364V5.576H11.834V0.608H15.542V14H11.834ZM27.0754 7.952L22.2514 14H18.6514V4.01H22.1614V10.058L26.9854 4.01H30.5854V14H27.0754V7.952ZM40.9389 14L37.0509 9.374V14H33.5409V4.01H37.0509V8.006L40.6149 4.01H44.6649L40.4889 8.492L45.1149 14H40.9389ZM54.9894 7.952L50.1654 14H46.5654V4.01H50.0754V10.058L54.8994 4.01H58.4994V14H54.9894V7.952ZM64.2809 14V6.674H60.4109V4.01H71.6609V6.674H67.7909V14H64.2809ZM78.2814 12.002C80.3334 12.002 81.0354 10.706 81.0354 9.95V9.176C80.7294 9.302 79.8474 9.482 78.8394 9.644C77.1474 9.932 76.6074 10.166 76.6074 10.868V10.904C76.6074 11.534 77.0574 12.002 78.2814 12.002ZM81.1434 12.614C80.7114 13.136 79.6314 14.198 77.2914 14.198H77.0034C74.2134 14.198 73.0614 12.686 73.0614 11.03V10.958C73.0614 9.23 74.1594 8.168 77.5434 7.88L80.2794 7.646C80.8374 7.592 81.0354 7.412 81.0354 6.998C81.0354 6.53 80.8914 6.026 78.9474 6.026C77.1114 6.026 76.9314 6.746 76.9314 7.124H73.3314V7.088C73.3314 6.098 73.7274 3.776 78.6414 3.776H79.1994C84.1494 3.776 84.4554 5.81 84.4554 7.142V10.436C84.4554 11.066 84.5814 11.318 85.2834 11.318H85.6614V14H82.8174C81.7734 14 81.2874 13.262 81.1434 12.614ZM0.656 38V24.608H5.588L9.854 33.68L14.246 24.608H18.872V38H15.254V29.234L11.186 38H8.288L4.22 29.234V38H0.656ZM26.7072 36.002C28.7592 36.002 29.4612 34.706 29.4612 33.95V33.176C29.1552 33.302 28.2732 33.482 27.2652 33.644C25.5732 33.932 25.0332 34.166 25.0332 34.868V34.904C25.0332 35.534 25.4832 36.002 26.7072 36.002ZM29.5692 36.614C29.1372 37.136 28.0572 38.198 25.7172 38.198H25.4292C22.6392 38.198 21.4872 36.686 21.4872 35.03V34.958C21.4872 33.23 22.5852 32.168 25.9692 31.88L28.7052 31.646C29.2632 31.592 29.4612 31.412 29.4612 30.998C29.4612 30.53 29.3172 30.026 27.3732 30.026C25.5372 30.026 25.3572 30.746 25.3572 31.124H21.7572V31.088C21.7572 30.098 22.1532 27.776 27.0672 27.776H27.6252C32.5752 27.776 32.8812 29.81 32.8812 31.142V34.436C32.8812 35.066 33.0072 35.318 33.7092 35.318H34.0872V38H31.2432C30.1992 38 29.7132 37.262 29.5692 36.614ZM45.2689 33.014V32.96C45.2689 31.88 44.7649 30.422 42.5689 30.422H42.3889C40.2829 30.422 39.6169 31.808 39.6169 32.96V33.014C39.6169 34.112 40.2829 35.552 42.3889 35.552H42.5689C44.7649 35.552 45.2689 34.04 45.2689 33.014ZM36.1249 41.438V28.01H39.5989V29.288C40.0309 28.82 41.3449 27.812 43.6129 27.812H43.8469C47.6629 27.812 48.9049 30.422 48.9049 32.798V33.104C48.9049 35.282 47.6269 38.198 43.8289 38.198H43.5769C41.2909 38.198 40.0669 37.154 39.6349 36.722V41.438H36.1249ZM55.9748 36.002C58.0268 36.002 58.7288 34.706 58.7288 33.95V33.176C58.4228 33.302 57.5408 33.482 56.5328 33.644C54.8408 33.932 54.3008 34.166 54.3008 34.868V34.904C54.3008 35.534 54.7508 36.002 55.9748 36.002ZM58.8368 36.614C58.4048 37.136 57.3248 38.198 54.9848 38.198H54.6968C51.9068 38.198 50.7548 36.686 50.7548 35.03V34.958C50.7548 33.23 51.8528 32.168 55.2368 31.88L57.9728 31.646C58.5308 31.592 58.7288 31.412 58.7288 30.998C58.7288 30.53 58.5848 30.026 56.6408 30.026C54.8048 30.026 54.6248 30.746 54.6248 31.124H51.0248V31.088C51.0248 30.098 51.4208 27.776 56.3348 27.776H56.8928C61.8428 27.776 62.1488 29.81 62.1488 31.142V34.436C62.1488 35.066 62.2748 35.318 62.9768 35.318H63.3548V38H60.5108C59.4668 38 58.9808 37.262 58.8368 36.614ZM68.0427 38V30.674H64.1727V28.01H75.4227V30.674H71.5527V38H68.0427ZM83.5911 38.27H83.0331C77.6511 38.27 76.8231 34.994 76.8231 33.176V32.924C76.8231 31.124 77.6511 27.74 83.0151 27.74H83.6091C89.1531 27.74 89.8011 31.142 89.8011 32.906V33.194C89.8011 34.994 89.1531 38.27 83.5911 38.27ZM83.2131 35.642H83.4111C85.6251 35.642 86.1831 34.058 86.1831 32.96C86.1831 31.826 85.6251 30.314 83.4111 30.314H83.2131C80.9091 30.314 80.4411 31.826 80.4411 32.96C80.4411 34.058 80.9091 35.642 83.2131 35.642ZM100.46 38H92.2158V28.01H100.1C102.386 28.01 103.826 28.82 103.826 30.404V30.494C103.826 31.736 103.034 32.474 101.828 32.672C103.052 32.816 104.15 33.68 104.15 35.12V35.192C104.15 37.01 102.962 38 100.46 38ZM95.7258 31.988H98.9478C99.7938 31.988 100.226 31.664 100.226 31.034V30.944C100.226 30.368 99.8298 30.026 98.9478 30.026H95.7258V31.988ZM95.7258 35.984H99.0918C100.028 35.984 100.55 35.678 100.55 34.976V34.832C100.55 34.202 100.118 33.806 99.0918 33.806H95.7258V35.984ZM115.019 31.952L110.195 38H106.595V28.01H110.105V34.058L114.929 28.01H118.529V38H115.019V31.952ZM128.864 28.01H132.374V38H128.864V34.562C128.09 34.652 127.19 34.742 126.254 34.742C122.294 34.742 120.8 33.626 120.8 30.458V28.01H124.31V29.81C124.31 31.682 124.94 32.006 126.794 32.006C127.496 32.006 128.306 31.952 128.864 31.88V28.01ZM140.683 38V24.608H144.391V35.048H148.783V24.608H152.491V35.048H156.883V24.608H160.591V38H140.683ZM168.422 36.002C170.474 36.002 171.176 34.706 171.176 33.95V33.176C170.87 33.302 169.988 33.482 168.98 33.644C167.288 33.932 166.748 34.166 166.748 34.868V34.904C166.748 35.534 167.198 36.002 168.422 36.002ZM171.284 36.614C170.852 37.136 169.772 38.198 167.432 38.198H167.144C164.354 38.198 163.202 36.686 163.202 35.03V34.958C163.202 33.23 164.3 32.168 167.684 31.88L170.42 31.646C170.978 31.592 171.176 31.412 171.176 30.998C171.176 30.53 171.032 30.026 169.088 30.026C167.252 30.026 167.072 30.746 167.072 31.124H163.472V31.088C163.472 30.098 163.868 27.776 168.782 27.776H169.34C174.29 27.776 174.596 29.81 174.596 31.142V34.436C174.596 35.066 174.722 35.318 175.424 35.318H175.802V38H172.958C171.914 38 171.428 37.262 171.284 36.614ZM186.984 33.014V32.96C186.984 31.88 186.48 30.422 184.284 30.422H184.104C181.998 30.422 181.332 31.808 181.332 32.96V33.014C181.332 34.112 181.998 35.552 184.104 35.552H184.284C186.48 35.552 186.984 34.04 186.984 33.014ZM177.84 41.438V28.01H181.314V29.288C181.746 28.82 183.06 27.812 185.328 27.812H185.562C189.378 27.812 190.62 30.422 190.62 32.798V33.104C190.62 35.282 189.342 38.198 185.544 38.198H185.292C183.006 38.198 181.782 37.154 181.35 36.722V41.438H177.84ZM199.326 38.27H198.768C193.386 38.27 192.558 34.994 192.558 33.176V32.924C192.558 31.124 193.386 27.74 198.75 27.74H199.344C204.888 27.74 205.536 31.142 205.536 32.906V33.194C205.536 34.994 204.888 38.27 199.326 38.27ZM198.948 35.642H199.146C201.36 35.642 201.918 34.058 201.918 32.96C201.918 31.826 201.36 30.314 199.146 30.314H198.948C196.644 30.314 196.176 31.826 196.176 32.96C196.176 34.058 196.644 35.642 198.948 35.642ZM216.194 38H207.95V28.01H215.834C218.12 28.01 219.56 28.82 219.56 30.404V30.494C219.56 31.736 218.768 32.474 217.562 32.672C218.786 32.816 219.884 33.68 219.884 35.12V35.192C219.884 37.01 218.696 38 216.194 38ZM211.46 31.988H214.682C215.528 31.988 215.96 31.664 215.96 31.034V30.944C215.96 30.368 215.564 30.026 214.682 30.026H211.46V31.988ZM211.46 35.984H214.826C215.762 35.984 216.284 35.678 216.284 34.976V34.832C216.284 34.202 215.852 33.806 214.826 33.806H211.46V35.984Z" fill="url(#paint1_radial_2018_1430)" style="mix-blend-mode:overlay"/>
<path d="M11.834 14V8.618H4.364V14H0.656V0.608H4.364V5.576H11.834V0.608H15.542V14H11.834ZM27.0754 7.952L22.2514 14H18.6514V4.01H22.1614V10.058L26.9854 4.01H30.5854V14H27.0754V7.952ZM40.9389 14L37.0509 9.374V14H33.5409V4.01H37.0509V8.006L40.6149 4.01H44.6649L40.4889 8.492L45.1149 14H40.9389ZM54.9894 7.952L50.1654 14H46.5654V4.01H50.0754V10.058L54.8994 4.01H58.4994V14H54.9894V7.952ZM64.2809 14V6.674H60.4109V4.01H71.6609V6.674H67.7909V14H64.2809ZM78.2814 12.002C80.3334 12.002 81.0354 10.706 81.0354 9.95V9.176C80.7294 9.302 79.8474 9.482 78.8394 9.644C77.1474 9.932 76.6074 10.166 76.6074 10.868V10.904C76.6074 11.534 77.0574 12.002 78.2814 12.002ZM81.1434 12.614C80.7114 13.136 79.6314 14.198 77.2914 14.198H77.0034C74.2134 14.198 73.0614 12.686 73.0614 11.03V10.958C73.0614 9.23 74.1594 8.168 77.5434 7.88L80.2794 7.646C80.8374 7.592 81.0354 7.412 81.0354 6.998C81.0354 6.53 80.8914 6.026 78.9474 6.026C77.1114 6.026 76.9314 6.746 76.9314 7.124H73.3314V7.088C73.3314 6.098 73.7274 3.776 78.6414 3.776H79.1994C84.1494 3.776 84.4554 5.81 84.4554 7.142V10.436C84.4554 11.066 84.5814 11.318 85.2834 11.318H85.6614V14H82.8174C81.7734 14 81.2874 13.262 81.1434 12.614ZM0.656 38V24.608H5.588L9.854 33.68L14.246 24.608H18.872V38H15.254V29.234L11.186 38H8.288L4.22 29.234V38H0.656ZM26.7072 36.002C28.7592 36.002 29.4612 34.706 29.4612 33.95V33.176C29.1552 33.302 28.2732 33.482 27.2652 33.644C25.5732 33.932 25.0332 34.166 25.0332 34.868V34.904C25.0332 35.534 25.4832 36.002 26.7072 36.002ZM29.5692 36.614C29.1372 37.136 28.0572 38.198 25.7172 38.198H25.4292C22.6392 38.198 21.4872 36.686 21.4872 35.03V34.958C21.4872 33.23 22.5852 32.168 25.9692 31.88L28.7052 31.646C29.2632 31.592 29.4612 31.412 29.4612 30.998C29.4612 30.53 29.3172 30.026 27.3732 30.026C25.5372 30.026 25.3572 30.746 25.3572 31.124H21.7572V31.088C21.7572 30.098 22.1532 27.776 27.0672 27.776H27.6252C32.5752 27.776 32.8812 29.81 32.8812 31.142V34.436C32.8812 35.066 33.0072 35.318 33.7092 35.318H34.0872V38H31.2432C30.1992 38 29.7132 37.262 29.5692 36.614ZM45.2689 33.014V32.96C45.2689 31.88 44.7649 30.422 42.5689 30.422H42.3889C40.2829 30.422 39.6169 31.808 39.6169 32.96V33.014C39.6169 34.112 40.2829 35.552 42.3889 35.552H42.5689C44.7649 35.552 45.2689 34.04 45.2689 33.014ZM36.1249 41.438V28.01H39.5989V29.288C40.0309 28.82 41.3449 27.812 43.6129 27.812H43.8469C47.6629 27.812 48.9049 30.422 48.9049 32.798V33.104C48.9049 35.282 47.6269 38.198 43.8289 38.198H43.5769C41.2909 38.198 40.0669 37.154 39.6349 36.722V41.438H36.1249ZM55.9748 36.002C58.0268 36.002 58.7288 34.706 58.7288 33.95V33.176C58.4228 33.302 57.5408 33.482 56.5328 33.644C54.8408 33.932 54.3008 34.166 54.3008 34.868V34.904C54.3008 35.534 54.7508 36.002 55.9748 36.002ZM58.8368 36.614C58.4048 37.136 57.3248 38.198 54.9848 38.198H54.6968C51.9068 38.198 50.7548 36.686 50.7548 35.03V34.958C50.7548 33.23 51.8528 32.168 55.2368 31.88L57.9728 31.646C58.5308 31.592 58.7288 31.412 58.7288 30.998C58.7288 30.53 58.5848 30.026 56.6408 30.026C54.8048 30.026 54.6248 30.746 54.6248 31.124H51.0248V31.088C51.0248 30.098 51.4208 27.776 56.3348 27.776H56.8928C61.8428 27.776 62.1488 29.81 62.1488 31.142V34.436C62.1488 35.066 62.2748 35.318 62.9768 35.318H63.3548V38H60.5108C59.4668 38 58.9808 37.262 58.8368 36.614ZM68.0427 38V30.674H64.1727V28.01H75.4227V30.674H71.5527V38H68.0427ZM83.5911 38.27H83.0331C77.6511 38.27 76.8231 34.994 76.8231 33.176V32.924C76.8231 31.124 77.6511 27.74 83.0151 27.74H83.6091C89.1531 27.74 89.8011 31.142 89.8011 32.906V33.194C89.8011 34.994 89.1531 38.27 83.5911 38.27ZM83.2131 35.642H83.4111C85.6251 35.642 86.1831 34.058 86.1831 32.96C86.1831 31.826 85.6251 30.314 83.4111 30.314H83.2131C80.9091 30.314 80.4411 31.826 80.4411 32.96C80.4411 34.058 80.9091 35.642 83.2131 35.642ZM100.46 38H92.2158V28.01H100.1C102.386 28.01 103.826 28.82 103.826 30.404V30.494C103.826 31.736 103.034 32.474 101.828 32.672C103.052 32.816 104.15 33.68 104.15 35.12V35.192C104.15 37.01 102.962 38 100.46 38ZM95.7258 31.988H98.9478C99.7938 31.988 100.226 31.664 100.226 31.034V30.944C100.226 30.368 99.8298 30.026 98.9478 30.026H95.7258V31.988ZM95.7258 35.984H99.0918C100.028 35.984 100.55 35.678 100.55 34.976V34.832C100.55 34.202 100.118 33.806 99.0918 33.806H95.7258V35.984ZM115.019 31.952L110.195 38H106.595V28.01H110.105V34.058L114.929 28.01H118.529V38H115.019V31.952ZM128.864 28.01H132.374V38H128.864V34.562C128.09 34.652 127.19 34.742 126.254 34.742C122.294 34.742 120.8 33.626 120.8 30.458V28.01H124.31V29.81C124.31 31.682 124.94 32.006 126.794 32.006C127.496 32.006 128.306 31.952 128.864 31.88V28.01ZM140.683 38V24.608H144.391V35.048H148.783V24.608H152.491V35.048H156.883V24.608H160.591V38H140.683ZM168.422 36.002C170.474 36.002 171.176 34.706 171.176 33.95V33.176C170.87 33.302 169.988 33.482 168.98 33.644C167.288 33.932 166.748 34.166 166.748 34.868V34.904C166.748 35.534 167.198 36.002 168.422 36.002ZM171.284 36.614C170.852 37.136 169.772 38.198 167.432 38.198H167.144C164.354 38.198 163.202 36.686 163.202 35.03V34.958C163.202 33.23 164.3 32.168 167.684 31.88L170.42 31.646C170.978 31.592 171.176 31.412 171.176 30.998C171.176 30.53 171.032 30.026 169.088 30.026C167.252 30.026 167.072 30.746 167.072 31.124H163.472V31.088C163.472 30.098 163.868 27.776 168.782 27.776H169.34C174.29 27.776 174.596 29.81 174.596 31.142V34.436C174.596 35.066 174.722 35.318 175.424 35.318H175.802V38H172.958C171.914 38 171.428 37.262 171.284 36.614ZM186.984 33.014V32.96C186.984 31.88 186.48 30.422 184.284 30.422H184.104C181.998 30.422 181.332 31.808 181.332 32.96V33.014C181.332 34.112 181.998 35.552 184.104 35.552H184.284C186.48 35.552 186.984 34.04 186.984 33.014ZM177.84 41.438V28.01H181.314V29.288C181.746 28.82 183.06 27.812 185.328 27.812H185.562C189.378 27.812 190.62 30.422 190.62 32.798V33.104C190.62 35.282 189.342 38.198 185.544 38.198H185.292C183.006 38.198 181.782 37.154 181.35 36.722V41.438H177.84ZM199.326 38.27H198.768C193.386 38.27 192.558 34.994 192.558 33.176V32.924C192.558 31.124 193.386 27.74 198.75 27.74H199.344C204.888 27.74 205.536 31.142 205.536 32.906V33.194C205.536 34.994 204.888 38.27 199.326 38.27ZM198.948 35.642H199.146C201.36 35.642 201.918 34.058 201.918 32.96C201.918 31.826 201.36 30.314 199.146 30.314H198.948C196.644 30.314 196.176 31.826 196.176 32.96C196.176 34.058 196.644 35.642 198.948 35.642ZM216.194 38H207.95V28.01H215.834C218.12 28.01 219.56 28.82 219.56 30.404V30.494C219.56 31.736 218.768 32.474 217.562 32.672C218.786 32.816 219.884 33.68 219.884 35.12V35.192C219.884 37.01 218.696 38 216.194 38ZM211.46 31.988H214.682C215.528 31.988 215.96 31.664 215.96 31.034V30.944C215.96 30.368 215.564 30.026 214.682 30.026H211.46V31.988ZM211.46 35.984H214.826C215.762 35.984 216.284 35.678 216.284 34.976V34.832C216.284 34.202 215.852 33.806 214.826 33.806H211.46V35.984Z" fill="url(#paint2_radial_2018_1430)"/>
<path d="M11.834 14V8.618H4.364V14H0.656V0.608H4.364V5.576H11.834V0.608H15.542V14H11.834ZM27.0754 7.952L22.2514 14H18.6514V4.01H22.1614V10.058L26.9854 4.01H30.5854V14H27.0754V7.952ZM40.9389 14L37.0509 9.374V14H33.5409V4.01H37.0509V8.006L40.6149 4.01H44.6649L40.4889 8.492L45.1149 14H40.9389ZM54.9894 7.952L50.1654 14H46.5654V4.01H50.0754V10.058L54.8994 4.01H58.4994V14H54.9894V7.952ZM64.2809 14V6.674H60.4109V4.01H71.6609V6.674H67.7909V14H64.2809ZM78.2814 12.002C80.3334 12.002 81.0354 10.706 81.0354 9.95V9.176C80.7294 9.302 79.8474 9.482 78.8394 9.644C77.1474 9.932 76.6074 10.166 76.6074 10.868V10.904C76.6074 11.534 77.0574 12.002 78.2814 12.002ZM81.1434 12.614C80.7114 13.136 79.6314 14.198 77.2914 14.198H77.0034C74.2134 14.198 73.0614 12.686 73.0614 11.03V10.958C73.0614 9.23 74.1594 8.168 77.5434 7.88L80.2794 7.646C80.8374 7.592 81.0354 7.412 81.0354 6.998C81.0354 6.53 80.8914 6.026 78.9474 6.026C77.1114 6.026 76.9314 6.746 76.9314 7.124H73.3314V7.088C73.3314 6.098 73.7274 3.776 78.6414 3.776H79.1994C84.1494 3.776 84.4554 5.81 84.4554 7.142V10.436C84.4554 11.066 84.5814 11.318 85.2834 11.318H85.6614V14H82.8174C81.7734 14 81.2874 13.262 81.1434 12.614ZM0.656 38V24.608H5.588L9.854 33.68L14.246 24.608H18.872V38H15.254V29.234L11.186 38H8.288L4.22 29.234V38H0.656ZM26.7072 36.002C28.7592 36.002 29.4612 34.706 29.4612 33.95V33.176C29.1552 33.302 28.2732 33.482 27.2652 33.644C25.5732 33.932 25.0332 34.166 25.0332 34.868V34.904C25.0332 35.534 25.4832 36.002 26.7072 36.002ZM29.5692 36.614C29.1372 37.136 28.0572 38.198 25.7172 38.198H25.4292C22.6392 38.198 21.4872 36.686 21.4872 35.03V34.958C21.4872 33.23 22.5852 32.168 25.9692 31.88L28.7052 31.646C29.2632 31.592 29.4612 31.412 29.4612 30.998C29.4612 30.53 29.3172 30.026 27.3732 30.026C25.5372 30.026 25.3572 30.746 25.3572 31.124H21.7572V31.088C21.7572 30.098 22.1532 27.776 27.0672 27.776H27.6252C32.5752 27.776 32.8812 29.81 32.8812 31.142V34.436C32.8812 35.066 33.0072 35.318 33.7092 35.318H34.0872V38H31.2432C30.1992 38 29.7132 37.262 29.5692 36.614ZM45.2689 33.014V32.96C45.2689 31.88 44.7649 30.422 42.5689 30.422H42.3889C40.2829 30.422 39.6169 31.808 39.6169 32.96V33.014C39.6169 34.112 40.2829 35.552 42.3889 35.552H42.5689C44.7649 35.552 45.2689 34.04 45.2689 33.014ZM36.1249 41.438V28.01H39.5989V29.288C40.0309 28.82 41.3449 27.812 43.6129 27.812H43.8469C47.6629 27.812 48.9049 30.422 48.9049 32.798V33.104C48.9049 35.282 47.6269 38.198 43.8289 38.198H43.5769C41.2909 38.198 40.0669 37.154 39.6349 36.722V41.438H36.1249ZM55.9748 36.002C58.0268 36.002 58.7288 34.706 58.7288 33.95V33.176C58.4228 33.302 57.5408 33.482 56.5328 33.644C54.8408 33.932 54.3008 34.166 54.3008 34.868V34.904C54.3008 35.534 54.7508 36.002 55.9748 36.002ZM58.8368 36.614C58.4048 37.136 57.3248 38.198 54.9848 38.198H54.6968C51.9068 38.198 50.7548 36.686 50.7548 35.03V34.958C50.7548 33.23 51.8528 32.168 55.2368 31.88L57.9728 31.646C58.5308 31.592 58.7288 31.412 58.7288 30.998C58.7288 30.53 58.5848 30.026 56.6408 30.026C54.8048 30.026 54.6248 30.746 54.6248 31.124H51.0248V31.088C51.0248 30.098 51.4208 27.776 56.3348 27.776H56.8928C61.8428 27.776 62.1488 29.81 62.1488 31.142V34.436C62.1488 35.066 62.2748 35.318 62.9768 35.318H63.3548V38H60.5108C59.4668 38 58.9808 37.262 58.8368 36.614ZM68.0427 38V30.674H64.1727V28.01H75.4227V30.674H71.5527V38H68.0427ZM83.5911 38.27H83.0331C77.6511 38.27 76.8231 34.994 76.8231 33.176V32.924C76.8231 31.124 77.6511 27.74 83.0151 27.74H83.6091C89.1531 27.74 89.8011 31.142 89.8011 32.906V33.194C89.8011 34.994 89.1531 38.27 83.5911 38.27ZM83.2131 35.642H83.4111C85.6251 35.642 86.1831 34.058 86.1831 32.96C86.1831 31.826 85.6251 30.314 83.4111 30.314H83.2131C80.9091 30.314 80.4411 31.826 80.4411 32.96C80.4411 34.058 80.9091 35.642 83.2131 35.642ZM100.46 38H92.2158V28.01H100.1C102.386 28.01 103.826 28.82 103.826 30.404V30.494C103.826 31.736 103.034 32.474 101.828 32.672C103.052 32.816 104.15 33.68 104.15 35.12V35.192C104.15 37.01 102.962 38 100.46 38ZM95.7258 31.988H98.9478C99.7938 31.988 100.226 31.664 100.226 31.034V30.944C100.226 30.368 99.8298 30.026 98.9478 30.026H95.7258V31.988ZM95.7258 35.984H99.0918C100.028 35.984 100.55 35.678 100.55 34.976V34.832C100.55 34.202 100.118 33.806 99.0918 33.806H95.7258V35.984ZM115.019 31.952L110.195 38H106.595V28.01H110.105V34.058L114.929 28.01H118.529V38H115.019V31.952ZM128.864 28.01H132.374V38H128.864V34.562C128.09 34.652 127.19 34.742 126.254 34.742C122.294 34.742 120.8 33.626 120.8 30.458V28.01H124.31V29.81C124.31 31.682 124.94 32.006 126.794 32.006C127.496 32.006 128.306 31.952 128.864 31.88V28.01ZM140.683 38V24.608H144.391V35.048H148.783V24.608H152.491V35.048H156.883V24.608H160.591V38H140.683ZM168.422 36.002C170.474 36.002 171.176 34.706 171.176 33.95V33.176C170.87 33.302 169.988 33.482 168.98 33.644C167.288 33.932 166.748 34.166 166.748 34.868V34.904C166.748 35.534 167.198 36.002 168.422 36.002ZM171.284 36.614C170.852 37.136 169.772 38.198 167.432 38.198H167.144C164.354 38.198 163.202 36.686 163.202 35.03V34.958C163.202 33.23 164.3 32.168 167.684 31.88L170.42 31.646C170.978 31.592 171.176 31.412 171.176 30.998C171.176 30.53 171.032 30.026 169.088 30.026C167.252 30.026 167.072 30.746 167.072 31.124H163.472V31.088C163.472 30.098 163.868 27.776 168.782 27.776H169.34C174.29 27.776 174.596 29.81 174.596 31.142V34.436C174.596 35.066 174.722 35.318 175.424 35.318H175.802V38H172.958C171.914 38 171.428 37.262 171.284 36.614ZM186.984 33.014V32.96C186.984 31.88 186.48 30.422 184.284 30.422H184.104C181.998 30.422 181.332 31.808 181.332 32.96V33.014C181.332 34.112 181.998 35.552 184.104 35.552H184.284C186.48 35.552 186.984 34.04 186.984 33.014ZM177.84 41.438V28.01H181.314V29.288C181.746 28.82 183.06 27.812 185.328 27.812H185.562C189.378 27.812 190.62 30.422 190.62 32.798V33.104C190.62 35.282 189.342 38.198 185.544 38.198H185.292C183.006 38.198 181.782 37.154 181.35 36.722V41.438H177.84ZM199.326 38.27H198.768C193.386 38.27 192.558 34.994 192.558 33.176V32.924C192.558 31.124 193.386 27.74 198.75 27.74H199.344C204.888 27.74 205.536 31.142 205.536 32.906V33.194C205.536 34.994 204.888 38.27 199.326 38.27ZM198.948 35.642H199.146C201.36 35.642 201.918 34.058 201.918 32.96C201.918 31.826 201.36 30.314 199.146 30.314H198.948C196.644 30.314 196.176 31.826 196.176 32.96C196.176 34.058 196.644 35.642 198.948 35.642ZM216.194 38H207.95V28.01H215.834C218.12 28.01 219.56 28.82 219.56 30.404V30.494C219.56 31.736 218.768 32.474 217.562 32.672C218.786 32.816 219.884 33.68 219.884 35.12V35.192C219.884 37.01 218.696 38 216.194 38ZM211.46 31.988H214.682C215.528 31.988 215.96 31.664 215.96 31.034V30.944C215.96 30.368 215.564 30.026 214.682 30.026H211.46V31.988ZM211.46 35.984H214.826C215.762 35.984 216.284 35.678 216.284 34.976V34.832C216.284 34.202 215.852 33.806 214.826 33.806H211.46V35.984Z" fill="#C1A875" style="mix-blend-mode:color"/>
<defs>
<linearGradient id="paint0_linear_2018_1430" x1="-0.999999" y1="18" x2="221" y2="18" gradientUnits="userSpaceOnUse">
<stop stop-color="#576167"/>
<stop offset="0.191294" stop-color="#9EA1A2"/>
<stop offset="0.396166" stop-color="#848989"/>
<stop offset="0.62055" stop-color="#576167"/>
<stop offset="0.830299" stop-color="#757A7C"/>
<stop offset="1" stop-color="#576167"/>
</linearGradient>
<radialGradient id="paint1_radial_2018_1430" cx="0" cy="0" r="1" gradientUnits="userSpaceOnUse" gradientTransform="translate(117.226 -0.404494) rotate(90) scale(35.6629 167.95)">
<stop stop-color="white"/>
<stop offset="1" stop-color="white" stop-opacity="0"/>
</radialGradient>
<radialGradient id="paint2_radial_2018_1430" cx="0" cy="0" r="1" gradientUnits="userSpaceOnUse" gradientTransform="translate(129.783 53.3258) rotate(-89.6015) scale(51.1024 240.159)">
<stop stop-color="white"/>
<stop offset="1" stop-color="white" stop-opacity="0"/>
</radialGradient>
</defs>
</svg>
