<svg width="147" height="66" viewBox="0 0 147 66" fill="none" xmlns="http://www.w3.org/2000/svg">
<path d="M10.998 8.762L8.568 3.308L6.21 8.762H10.998ZM13.338 14L12.24 11.516H5.004L3.924 14H0.198L6.138 0.608H11.106L17.316 14H13.338ZM22.4758 14H18.9658V4.01H22.4758V7.646H27.3718V4.01H30.8818V14H27.3718V10.31H22.4758V14ZM36.6638 14V6.674H32.7938V4.01H44.0438V6.674H40.1738V14H36.6638ZM52.2122 14.27H51.6542C46.2722 14.27 45.4442 10.994 45.4442 9.176V8.924C45.4442 7.124 46.2722 3.74 51.6362 3.74H52.2302C57.7742 3.74 58.4222 7.142 58.4222 8.906V9.194C58.4222 10.994 57.7742 14.27 52.2122 14.27ZM51.8342 11.642H52.0322C54.2462 11.642 54.8042 10.058 54.8042 8.96C54.8042 7.826 54.2462 6.314 52.0322 6.314H51.8342C49.5302 6.314 49.0622 7.826 49.0622 8.96C49.0622 10.058 49.5302 11.642 51.8342 11.642ZM64.3469 14H60.8369V4.01H64.3469V7.646H69.2429V4.01H72.7529V14H69.2429V10.31H64.3469V14ZM84.0968 7.952L79.2728 14H75.6728V4.01H79.1828V10.058L84.0068 4.01H87.6068V14H84.0968V7.952ZM94.0364 14H90.5264V4.01H94.0364V7.646H98.9324V4.01H102.442V14H98.9324V10.31H94.0364V14ZM110.078 12.002C112.13 12.002 112.832 10.706 112.832 9.95V9.176C112.526 9.302 111.644 9.482 110.636 9.644C108.944 9.932 108.404 10.166 108.404 10.868V10.904C108.404 11.534 108.854 12.002 110.078 12.002ZM112.94 12.614C112.508 13.136 111.428 14.198 109.088 14.198H108.8C106.01 14.198 104.858 12.686 104.858 11.03V10.958C104.858 9.23 105.956 8.168 109.34 7.88L112.076 7.646C112.634 7.592 112.832 7.412 112.832 6.998C112.832 6.53 112.688 6.026 110.744 6.026C108.908 6.026 108.728 6.746 108.728 7.124H105.128V7.088C105.128 6.098 105.524 3.776 110.438 3.776H110.996C115.946 3.776 116.252 5.81 116.252 7.142V10.436C116.252 11.066 116.378 11.318 117.08 11.318H117.458V14H114.614C113.57 14 113.084 13.262 112.94 12.614ZM10.728 33.716H5.364V38H1.656V24.608H10.728C14.958 24.608 16.272 26.462 16.272 29.054V29.252C16.272 31.79 14.904 33.716 10.728 33.716ZM5.364 27.596V30.728H10.458C11.826 30.728 12.42 30.152 12.42 29.198V29.126C12.42 28.19 11.826 27.596 10.458 27.596H5.364ZM19.423 41.438V38.936H21.619C21.961 38.936 22.141 38.792 22.141 38.522V38.504C22.141 38.288 22.087 38.09 21.817 37.532L17.533 28.01H21.385L24.157 35.174L26.911 28.01H30.439L25.867 39.008C25.165 40.646 24.301 41.438 22.645 41.438H19.423ZM40.3959 34.076H44.0679C44.0679 35.588 43.1679 38.27 38.3619 38.27H37.4799C32.4939 38.27 31.5579 35.03 31.5579 33.14V32.888C31.5579 30.998 32.4399 27.74 37.4619 27.74H38.2899C43.1139 27.74 44.0679 30.368 44.0679 31.808V31.826H40.3959C40.3419 31.538 39.9999 30.296 37.9299 30.296H37.7499C35.6799 30.296 35.1939 31.718 35.1939 32.924V32.942C35.1939 34.184 35.7879 35.66 37.8219 35.66H38.0019C40.0899 35.66 40.3959 34.31 40.3959 34.076ZM54.4722 38V30.674H50.5122C50.5122 33.356 50.4222 34.85 50.0802 35.768C49.7022 36.776 49.1982 38 46.5522 38H45.4542V35.39H45.6702C46.3002 35.39 46.7682 35.174 46.9662 34.256C47.1102 33.482 47.1642 32.636 47.1642 28.01H57.9822V38H54.4722ZM65.6056 36.002C67.6576 36.002 68.3596 34.706 68.3596 33.95V33.176C68.0536 33.302 67.1716 33.482 66.1636 33.644C64.4716 33.932 63.9316 34.166 63.9316 34.868V34.904C63.9316 35.534 64.3816 36.002 65.6056 36.002ZM68.4676 36.614C68.0356 37.136 66.9556 38.198 64.6156 38.198H64.3276C61.5376 38.198 60.3856 36.686 60.3856 35.03V34.958C60.3856 33.23 61.4836 32.168 64.8676 31.88L67.6036 31.646C68.1616 31.592 68.3596 31.412 68.3596 30.998C68.3596 30.53 68.2156 30.026 66.2716 30.026C64.4356 30.026 64.2556 30.746 64.2556 31.124H60.6556V31.088C60.6556 30.098 61.0516 27.776 65.9656 27.776H66.5236C71.4736 27.776 71.7796 29.81 71.7796 31.142V34.436C71.7796 35.066 71.9056 35.318 72.6076 35.318H72.9856V38H70.1416C69.0976 38 68.6116 37.262 68.4676 36.614ZM78.4973 38H74.9873V28.01H78.4973V31.646H83.3933V28.01H86.9033V38H83.3933V34.31H78.4973V38ZM96.0872 38.27H95.5292C90.1472 38.27 89.3192 34.994 89.3192 33.176V32.924C89.3192 31.124 90.1472 27.74 95.5112 27.74H96.1052C101.649 27.74 102.297 31.142 102.297 32.906V33.194C102.297 34.994 101.649 38.27 96.0872 38.27ZM95.7092 35.642H95.9072C98.1212 35.642 98.6792 34.058 98.6792 32.96C98.6792 31.826 98.1212 30.314 95.9072 30.314H95.7092C93.4052 30.314 92.9372 31.826 92.9372 32.96C92.9372 34.058 93.4052 35.642 95.7092 35.642ZM112.956 38H104.712V28.01H112.596C114.882 28.01 116.322 28.82 116.322 30.404V30.494C116.322 31.736 115.53 32.474 114.324 32.672C115.548 32.816 116.646 33.68 116.646 35.12V35.192C116.646 37.01 115.458 38 112.956 38ZM108.222 31.988H111.444C112.29 31.988 112.722 31.664 112.722 31.034V30.944C112.722 30.368 112.326 30.026 111.444 30.026H108.222V31.988ZM108.222 35.984H111.588C112.524 35.984 113.046 35.678 113.046 34.976V34.832C113.046 34.202 112.614 33.806 111.588 33.806H108.222V35.984ZM122.601 38H119.091V28.01H122.601V31.646H127.497V28.01H131.007V38H127.497V34.31H122.601V38ZM138.643 36.002C140.695 36.002 141.397 34.706 141.397 33.95V33.176C141.091 33.302 140.209 33.482 139.201 33.644C137.509 33.932 136.969 34.166 136.969 34.868V34.904C136.969 35.534 137.419 36.002 138.643 36.002ZM141.505 36.614C141.073 37.136 139.993 38.198 137.653 38.198H137.365C134.575 38.198 133.423 36.686 133.423 35.03V34.958C133.423 33.23 134.521 32.168 137.905 31.88L140.641 31.646C141.199 31.592 141.397 31.412 141.397 30.998C141.397 30.53 141.253 30.026 139.309 30.026C137.473 30.026 137.293 30.746 137.293 31.124H133.693V31.088C133.693 30.098 134.089 27.776 139.003 27.776H139.561C144.511 27.776 144.817 29.81 144.817 31.142V34.436C144.817 35.066 144.943 35.318 145.645 35.318H146.023V38H143.179C142.135 38 141.649 37.262 141.505 36.614ZM11.808 62L5.364 55.7V62H1.656V48.608H5.364V54.116L11.628 48.608H16.344L9.288 54.746L16.65 62H11.808ZM23.5247 62.27H22.9667C17.5847 62.27 16.7567 58.994 16.7567 57.176V56.924C16.7567 55.124 17.5847 51.74 22.9487 51.74H23.5427C29.0867 51.74 29.7347 55.142 29.7347 56.906V57.194C29.7347 58.994 29.0867 62.27 23.5247 62.27ZM23.1467 59.642H23.3447C25.5587 59.642 26.1167 58.058 26.1167 56.96C26.1167 55.826 25.5587 54.314 23.3447 54.314H23.1467C20.8427 54.314 20.3747 55.826 20.3747 56.96C20.3747 58.058 20.8427 59.642 23.1467 59.642ZM35.3894 55.268V62H32.1494V52.01H37.0994L40.0694 58.382L43.0394 52.01H47.8094V62H44.2994V55.268L41.1854 62H38.5034L35.3894 55.268ZM55.3224 60.002C57.3744 60.002 58.0764 58.706 58.0764 57.95V57.176C57.7704 57.302 56.8884 57.482 55.8804 57.644C54.1884 57.932 53.6484 58.166 53.6484 58.868V58.904C53.6484 59.534 54.0984 60.002 55.3224 60.002ZM58.1844 60.614C57.7524 61.136 56.6724 62.198 54.3324 62.198H54.0444C51.2544 62.198 50.1024 60.686 50.1024 59.03V58.958C50.1024 57.23 51.2004 56.168 54.5844 55.88L57.3204 55.646C57.8784 55.592 58.0764 55.412 58.0764 54.998C58.0764 54.53 57.9324 54.026 55.9884 54.026C54.1524 54.026 53.9724 54.746 53.9724 55.124H50.3724V55.088C50.3724 54.098 50.7684 51.776 55.6824 51.776H56.2404C61.1904 51.776 61.4964 53.81 61.4964 55.142V58.436C61.4964 59.066 61.6224 59.318 62.3244 59.318H62.7024V62H59.8584C58.8144 62 58.3284 61.262 58.1844 60.614ZM73.8841 57.014V56.96C73.8841 55.88 73.3801 54.422 71.1841 54.422H71.0041C68.8981 54.422 68.2321 55.808 68.2321 56.96V57.014C68.2321 58.112 68.8981 59.552 71.0041 59.552H71.1841C73.3801 59.552 73.8841 58.04 73.8841 57.014ZM64.7401 65.438V52.01H68.2141V53.288C68.6461 52.82 69.9601 51.812 72.2281 51.812H72.4621C76.2781 51.812 77.5201 54.422 77.5201 56.798V57.104C77.5201 59.282 76.2421 62.198 72.4441 62.198H72.1921C69.9061 62.198 68.6821 61.154 68.2501 60.722V65.438H64.7401ZM86.2259 62.27H85.6679C80.2859 62.27 79.4579 58.994 79.4579 57.176V56.924C79.4579 55.124 80.2859 51.74 85.6499 51.74H86.2439C91.7879 51.74 92.4359 55.142 92.4359 56.906V57.194C92.4359 58.994 91.7879 62.27 86.2259 62.27ZM85.8479 59.642H86.0459C88.2599 59.642 88.8179 58.058 88.8179 56.96C88.8179 55.826 88.2599 54.314 86.0459 54.314H85.8479C83.5439 54.314 83.0759 55.826 83.0759 56.96C83.0759 58.058 83.5439 59.642 85.8479 59.642ZM103.095 62H94.8506V52.01H102.735C105.021 52.01 106.461 52.82 106.461 54.404V54.494C106.461 55.736 105.669 56.474 104.463 56.672C105.687 56.816 106.785 57.68 106.785 59.12V59.192C106.785 61.01 105.597 62 103.095 62ZM98.3606 55.988H101.583C102.429 55.988 102.861 55.664 102.861 55.034V54.944C102.861 54.368 102.465 54.026 101.583 54.026H98.3606V55.988ZM98.3606 59.984H101.727C102.663 59.984 103.185 59.678 103.185 58.976V58.832C103.185 58.202 102.753 57.806 101.727 57.806H98.3606V59.984ZM113.858 60.002C115.91 60.002 116.612 58.706 116.612 57.95V57.176C116.306 57.302 115.424 57.482 114.416 57.644C112.724 57.932 112.184 58.166 112.184 58.868V58.904C112.184 59.534 112.634 60.002 113.858 60.002ZM116.72 60.614C116.288 61.136 115.208 62.198 112.868 62.198H112.58C109.79 62.198 108.638 60.686 108.638 59.03V58.958C108.638 57.23 109.736 56.168 113.12 55.88L115.856 55.646C116.414 55.592 116.612 55.412 116.612 54.998C116.612 54.53 116.468 54.026 114.524 54.026C112.688 54.026 112.508 54.746 112.508 55.124H108.908V55.088C108.908 54.098 109.304 51.776 114.218 51.776H114.776C119.726 51.776 120.032 53.81 120.032 55.142V58.436C120.032 59.066 120.158 59.318 120.86 59.318H121.238V62H118.394C117.35 62 116.864 61.262 116.72 60.614Z" fill="url(#paint0_linear_2018_1383)"/>
<path d="M10.998 8.762L8.568 3.308L6.21 8.762H10.998ZM13.338 14L12.24 11.516H5.004L3.924 14H0.198L6.138 0.608H11.106L17.316 14H13.338ZM22.4758 14H18.9658V4.01H22.4758V7.646H27.3718V4.01H30.8818V14H27.3718V10.31H22.4758V14ZM36.6638 14V6.674H32.7938V4.01H44.0438V6.674H40.1738V14H36.6638ZM52.2122 14.27H51.6542C46.2722 14.27 45.4442 10.994 45.4442 9.176V8.924C45.4442 7.124 46.2722 3.74 51.6362 3.74H52.2302C57.7742 3.74 58.4222 7.142 58.4222 8.906V9.194C58.4222 10.994 57.7742 14.27 52.2122 14.27ZM51.8342 11.642H52.0322C54.2462 11.642 54.8042 10.058 54.8042 8.96C54.8042 7.826 54.2462 6.314 52.0322 6.314H51.8342C49.5302 6.314 49.0622 7.826 49.0622 8.96C49.0622 10.058 49.5302 11.642 51.8342 11.642ZM64.3469 14H60.8369V4.01H64.3469V7.646H69.2429V4.01H72.7529V14H69.2429V10.31H64.3469V14ZM84.0968 7.952L79.2728 14H75.6728V4.01H79.1828V10.058L84.0068 4.01H87.6068V14H84.0968V7.952ZM94.0364 14H90.5264V4.01H94.0364V7.646H98.9324V4.01H102.442V14H98.9324V10.31H94.0364V14ZM110.078 12.002C112.13 12.002 112.832 10.706 112.832 9.95V9.176C112.526 9.302 111.644 9.482 110.636 9.644C108.944 9.932 108.404 10.166 108.404 10.868V10.904C108.404 11.534 108.854 12.002 110.078 12.002ZM112.94 12.614C112.508 13.136 111.428 14.198 109.088 14.198H108.8C106.01 14.198 104.858 12.686 104.858 11.03V10.958C104.858 9.23 105.956 8.168 109.34 7.88L112.076 7.646C112.634 7.592 112.832 7.412 112.832 6.998C112.832 6.53 112.688 6.026 110.744 6.026C108.908 6.026 108.728 6.746 108.728 7.124H105.128V7.088C105.128 6.098 105.524 3.776 110.438 3.776H110.996C115.946 3.776 116.252 5.81 116.252 7.142V10.436C116.252 11.066 116.378 11.318 117.08 11.318H117.458V14H114.614C113.57 14 113.084 13.262 112.94 12.614ZM10.728 33.716H5.364V38H1.656V24.608H10.728C14.958 24.608 16.272 26.462 16.272 29.054V29.252C16.272 31.79 14.904 33.716 10.728 33.716ZM5.364 27.596V30.728H10.458C11.826 30.728 12.42 30.152 12.42 29.198V29.126C12.42 28.19 11.826 27.596 10.458 27.596H5.364ZM19.423 41.438V38.936H21.619C21.961 38.936 22.141 38.792 22.141 38.522V38.504C22.141 38.288 22.087 38.09 21.817 37.532L17.533 28.01H21.385L24.157 35.174L26.911 28.01H30.439L25.867 39.008C25.165 40.646 24.301 41.438 22.645 41.438H19.423ZM40.3959 34.076H44.0679C44.0679 35.588 43.1679 38.27 38.3619 38.27H37.4799C32.4939 38.27 31.5579 35.03 31.5579 33.14V32.888C31.5579 30.998 32.4399 27.74 37.4619 27.74H38.2899C43.1139 27.74 44.0679 30.368 44.0679 31.808V31.826H40.3959C40.3419 31.538 39.9999 30.296 37.9299 30.296H37.7499C35.6799 30.296 35.1939 31.718 35.1939 32.924V32.942C35.1939 34.184 35.7879 35.66 37.8219 35.66H38.0019C40.0899 35.66 40.3959 34.31 40.3959 34.076ZM54.4722 38V30.674H50.5122C50.5122 33.356 50.4222 34.85 50.0802 35.768C49.7022 36.776 49.1982 38 46.5522 38H45.4542V35.39H45.6702C46.3002 35.39 46.7682 35.174 46.9662 34.256C47.1102 33.482 47.1642 32.636 47.1642 28.01H57.9822V38H54.4722ZM65.6056 36.002C67.6576 36.002 68.3596 34.706 68.3596 33.95V33.176C68.0536 33.302 67.1716 33.482 66.1636 33.644C64.4716 33.932 63.9316 34.166 63.9316 34.868V34.904C63.9316 35.534 64.3816 36.002 65.6056 36.002ZM68.4676 36.614C68.0356 37.136 66.9556 38.198 64.6156 38.198H64.3276C61.5376 38.198 60.3856 36.686 60.3856 35.03V34.958C60.3856 33.23 61.4836 32.168 64.8676 31.88L67.6036 31.646C68.1616 31.592 68.3596 31.412 68.3596 30.998C68.3596 30.53 68.2156 30.026 66.2716 30.026C64.4356 30.026 64.2556 30.746 64.2556 31.124H60.6556V31.088C60.6556 30.098 61.0516 27.776 65.9656 27.776H66.5236C71.4736 27.776 71.7796 29.81 71.7796 31.142V34.436C71.7796 35.066 71.9056 35.318 72.6076 35.318H72.9856V38H70.1416C69.0976 38 68.6116 37.262 68.4676 36.614ZM78.4973 38H74.9873V28.01H78.4973V31.646H83.3933V28.01H86.9033V38H83.3933V34.31H78.4973V38ZM96.0872 38.27H95.5292C90.1472 38.27 89.3192 34.994 89.3192 33.176V32.924C89.3192 31.124 90.1472 27.74 95.5112 27.74H96.1052C101.649 27.74 102.297 31.142 102.297 32.906V33.194C102.297 34.994 101.649 38.27 96.0872 38.27ZM95.7092 35.642H95.9072C98.1212 35.642 98.6792 34.058 98.6792 32.96C98.6792 31.826 98.1212 30.314 95.9072 30.314H95.7092C93.4052 30.314 92.9372 31.826 92.9372 32.96C92.9372 34.058 93.4052 35.642 95.7092 35.642ZM112.956 38H104.712V28.01H112.596C114.882 28.01 116.322 28.82 116.322 30.404V30.494C116.322 31.736 115.53 32.474 114.324 32.672C115.548 32.816 116.646 33.68 116.646 35.12V35.192C116.646 37.01 115.458 38 112.956 38ZM108.222 31.988H111.444C112.29 31.988 112.722 31.664 112.722 31.034V30.944C112.722 30.368 112.326 30.026 111.444 30.026H108.222V31.988ZM108.222 35.984H111.588C112.524 35.984 113.046 35.678 113.046 34.976V34.832C113.046 34.202 112.614 33.806 111.588 33.806H108.222V35.984ZM122.601 38H119.091V28.01H122.601V31.646H127.497V28.01H131.007V38H127.497V34.31H122.601V38ZM138.643 36.002C140.695 36.002 141.397 34.706 141.397 33.95V33.176C141.091 33.302 140.209 33.482 139.201 33.644C137.509 33.932 136.969 34.166 136.969 34.868V34.904C136.969 35.534 137.419 36.002 138.643 36.002ZM141.505 36.614C141.073 37.136 139.993 38.198 137.653 38.198H137.365C134.575 38.198 133.423 36.686 133.423 35.03V34.958C133.423 33.23 134.521 32.168 137.905 31.88L140.641 31.646C141.199 31.592 141.397 31.412 141.397 30.998C141.397 30.53 141.253 30.026 139.309 30.026C137.473 30.026 137.293 30.746 137.293 31.124H133.693V31.088C133.693 30.098 134.089 27.776 139.003 27.776H139.561C144.511 27.776 144.817 29.81 144.817 31.142V34.436C144.817 35.066 144.943 35.318 145.645 35.318H146.023V38H143.179C142.135 38 141.649 37.262 141.505 36.614ZM11.808 62L5.364 55.7V62H1.656V48.608H5.364V54.116L11.628 48.608H16.344L9.288 54.746L16.65 62H11.808ZM23.5247 62.27H22.9667C17.5847 62.27 16.7567 58.994 16.7567 57.176V56.924C16.7567 55.124 17.5847 51.74 22.9487 51.74H23.5427C29.0867 51.74 29.7347 55.142 29.7347 56.906V57.194C29.7347 58.994 29.0867 62.27 23.5247 62.27ZM23.1467 59.642H23.3447C25.5587 59.642 26.1167 58.058 26.1167 56.96C26.1167 55.826 25.5587 54.314 23.3447 54.314H23.1467C20.8427 54.314 20.3747 55.826 20.3747 56.96C20.3747 58.058 20.8427 59.642 23.1467 59.642ZM35.3894 55.268V62H32.1494V52.01H37.0994L40.0694 58.382L43.0394 52.01H47.8094V62H44.2994V55.268L41.1854 62H38.5034L35.3894 55.268ZM55.3224 60.002C57.3744 60.002 58.0764 58.706 58.0764 57.95V57.176C57.7704 57.302 56.8884 57.482 55.8804 57.644C54.1884 57.932 53.6484 58.166 53.6484 58.868V58.904C53.6484 59.534 54.0984 60.002 55.3224 60.002ZM58.1844 60.614C57.7524 61.136 56.6724 62.198 54.3324 62.198H54.0444C51.2544 62.198 50.1024 60.686 50.1024 59.03V58.958C50.1024 57.23 51.2004 56.168 54.5844 55.88L57.3204 55.646C57.8784 55.592 58.0764 55.412 58.0764 54.998C58.0764 54.53 57.9324 54.026 55.9884 54.026C54.1524 54.026 53.9724 54.746 53.9724 55.124H50.3724V55.088C50.3724 54.098 50.7684 51.776 55.6824 51.776H56.2404C61.1904 51.776 61.4964 53.81 61.4964 55.142V58.436C61.4964 59.066 61.6224 59.318 62.3244 59.318H62.7024V62H59.8584C58.8144 62 58.3284 61.262 58.1844 60.614ZM73.8841 57.014V56.96C73.8841 55.88 73.3801 54.422 71.1841 54.422H71.0041C68.8981 54.422 68.2321 55.808 68.2321 56.96V57.014C68.2321 58.112 68.8981 59.552 71.0041 59.552H71.1841C73.3801 59.552 73.8841 58.04 73.8841 57.014ZM64.7401 65.438V52.01H68.2141V53.288C68.6461 52.82 69.9601 51.812 72.2281 51.812H72.4621C76.2781 51.812 77.5201 54.422 77.5201 56.798V57.104C77.5201 59.282 76.2421 62.198 72.4441 62.198H72.1921C69.9061 62.198 68.6821 61.154 68.2501 60.722V65.438H64.7401ZM86.2259 62.27H85.6679C80.2859 62.27 79.4579 58.994 79.4579 57.176V56.924C79.4579 55.124 80.2859 51.74 85.6499 51.74H86.2439C91.7879 51.74 92.4359 55.142 92.4359 56.906V57.194C92.4359 58.994 91.7879 62.27 86.2259 62.27ZM85.8479 59.642H86.0459C88.2599 59.642 88.8179 58.058 88.8179 56.96C88.8179 55.826 88.2599 54.314 86.0459 54.314H85.8479C83.5439 54.314 83.0759 55.826 83.0759 56.96C83.0759 58.058 83.5439 59.642 85.8479 59.642ZM103.095 62H94.8506V52.01H102.735C105.021 52.01 106.461 52.82 106.461 54.404V54.494C106.461 55.736 105.669 56.474 104.463 56.672C105.687 56.816 106.785 57.68 106.785 59.12V59.192C106.785 61.01 105.597 62 103.095 62ZM98.3606 55.988H101.583C102.429 55.988 102.861 55.664 102.861 55.034V54.944C102.861 54.368 102.465 54.026 101.583 54.026H98.3606V55.988ZM98.3606 59.984H101.727C102.663 59.984 103.185 59.678 103.185 58.976V58.832C103.185 58.202 102.753 57.806 101.727 57.806H98.3606V59.984ZM113.858 60.002C115.91 60.002 116.612 58.706 116.612 57.95V57.176C116.306 57.302 115.424 57.482 114.416 57.644C112.724 57.932 112.184 58.166 112.184 58.868V58.904C112.184 59.534 112.634 60.002 113.858 60.002ZM116.72 60.614C116.288 61.136 115.208 62.198 112.868 62.198H112.58C109.79 62.198 108.638 60.686 108.638 59.03V58.958C108.638 57.23 109.736 56.168 113.12 55.88L115.856 55.646C116.414 55.592 116.612 55.412 116.612 54.998C116.612 54.53 116.468 54.026 114.524 54.026C112.688 54.026 112.508 54.746 112.508 55.124H108.908V55.088C108.908 54.098 109.304 51.776 114.218 51.776H114.776C119.726 51.776 120.032 53.81 120.032 55.142V58.436C120.032 59.066 120.158 59.318 120.86 59.318H121.238V62H118.394C117.35 62 116.864 61.262 116.72 60.614Z" fill="url(#paint1_radial_2018_1383)" style="mix-blend-mode:overlay"/>
<path d="M10.998 8.762L8.568 3.308L6.21 8.762H10.998ZM13.338 14L12.24 11.516H5.004L3.924 14H0.198L6.138 0.608H11.106L17.316 14H13.338ZM22.4758 14H18.9658V4.01H22.4758V7.646H27.3718V4.01H30.8818V14H27.3718V10.31H22.4758V14ZM36.6638 14V6.674H32.7938V4.01H44.0438V6.674H40.1738V14H36.6638ZM52.2122 14.27H51.6542C46.2722 14.27 45.4442 10.994 45.4442 9.176V8.924C45.4442 7.124 46.2722 3.74 51.6362 3.74H52.2302C57.7742 3.74 58.4222 7.142 58.4222 8.906V9.194C58.4222 10.994 57.7742 14.27 52.2122 14.27ZM51.8342 11.642H52.0322C54.2462 11.642 54.8042 10.058 54.8042 8.96C54.8042 7.826 54.2462 6.314 52.0322 6.314H51.8342C49.5302 6.314 49.0622 7.826 49.0622 8.96C49.0622 10.058 49.5302 11.642 51.8342 11.642ZM64.3469 14H60.8369V4.01H64.3469V7.646H69.2429V4.01H72.7529V14H69.2429V10.31H64.3469V14ZM84.0968 7.952L79.2728 14H75.6728V4.01H79.1828V10.058L84.0068 4.01H87.6068V14H84.0968V7.952ZM94.0364 14H90.5264V4.01H94.0364V7.646H98.9324V4.01H102.442V14H98.9324V10.31H94.0364V14ZM110.078 12.002C112.13 12.002 112.832 10.706 112.832 9.95V9.176C112.526 9.302 111.644 9.482 110.636 9.644C108.944 9.932 108.404 10.166 108.404 10.868V10.904C108.404 11.534 108.854 12.002 110.078 12.002ZM112.94 12.614C112.508 13.136 111.428 14.198 109.088 14.198H108.8C106.01 14.198 104.858 12.686 104.858 11.03V10.958C104.858 9.23 105.956 8.168 109.34 7.88L112.076 7.646C112.634 7.592 112.832 7.412 112.832 6.998C112.832 6.53 112.688 6.026 110.744 6.026C108.908 6.026 108.728 6.746 108.728 7.124H105.128V7.088C105.128 6.098 105.524 3.776 110.438 3.776H110.996C115.946 3.776 116.252 5.81 116.252 7.142V10.436C116.252 11.066 116.378 11.318 117.08 11.318H117.458V14H114.614C113.57 14 113.084 13.262 112.94 12.614ZM10.728 33.716H5.364V38H1.656V24.608H10.728C14.958 24.608 16.272 26.462 16.272 29.054V29.252C16.272 31.79 14.904 33.716 10.728 33.716ZM5.364 27.596V30.728H10.458C11.826 30.728 12.42 30.152 12.42 29.198V29.126C12.42 28.19 11.826 27.596 10.458 27.596H5.364ZM19.423 41.438V38.936H21.619C21.961 38.936 22.141 38.792 22.141 38.522V38.504C22.141 38.288 22.087 38.09 21.817 37.532L17.533 28.01H21.385L24.157 35.174L26.911 28.01H30.439L25.867 39.008C25.165 40.646 24.301 41.438 22.645 41.438H19.423ZM40.3959 34.076H44.0679C44.0679 35.588 43.1679 38.27 38.3619 38.27H37.4799C32.4939 38.27 31.5579 35.03 31.5579 33.14V32.888C31.5579 30.998 32.4399 27.74 37.4619 27.74H38.2899C43.1139 27.74 44.0679 30.368 44.0679 31.808V31.826H40.3959C40.3419 31.538 39.9999 30.296 37.9299 30.296H37.7499C35.6799 30.296 35.1939 31.718 35.1939 32.924V32.942C35.1939 34.184 35.7879 35.66 37.8219 35.66H38.0019C40.0899 35.66 40.3959 34.31 40.3959 34.076ZM54.4722 38V30.674H50.5122C50.5122 33.356 50.4222 34.85 50.0802 35.768C49.7022 36.776 49.1982 38 46.5522 38H45.4542V35.39H45.6702C46.3002 35.39 46.7682 35.174 46.9662 34.256C47.1102 33.482 47.1642 32.636 47.1642 28.01H57.9822V38H54.4722ZM65.6056 36.002C67.6576 36.002 68.3596 34.706 68.3596 33.95V33.176C68.0536 33.302 67.1716 33.482 66.1636 33.644C64.4716 33.932 63.9316 34.166 63.9316 34.868V34.904C63.9316 35.534 64.3816 36.002 65.6056 36.002ZM68.4676 36.614C68.0356 37.136 66.9556 38.198 64.6156 38.198H64.3276C61.5376 38.198 60.3856 36.686 60.3856 35.03V34.958C60.3856 33.23 61.4836 32.168 64.8676 31.88L67.6036 31.646C68.1616 31.592 68.3596 31.412 68.3596 30.998C68.3596 30.53 68.2156 30.026 66.2716 30.026C64.4356 30.026 64.2556 30.746 64.2556 31.124H60.6556V31.088C60.6556 30.098 61.0516 27.776 65.9656 27.776H66.5236C71.4736 27.776 71.7796 29.81 71.7796 31.142V34.436C71.7796 35.066 71.9056 35.318 72.6076 35.318H72.9856V38H70.1416C69.0976 38 68.6116 37.262 68.4676 36.614ZM78.4973 38H74.9873V28.01H78.4973V31.646H83.3933V28.01H86.9033V38H83.3933V34.31H78.4973V38ZM96.0872 38.27H95.5292C90.1472 38.27 89.3192 34.994 89.3192 33.176V32.924C89.3192 31.124 90.1472 27.74 95.5112 27.74H96.1052C101.649 27.74 102.297 31.142 102.297 32.906V33.194C102.297 34.994 101.649 38.27 96.0872 38.27ZM95.7092 35.642H95.9072C98.1212 35.642 98.6792 34.058 98.6792 32.96C98.6792 31.826 98.1212 30.314 95.9072 30.314H95.7092C93.4052 30.314 92.9372 31.826 92.9372 32.96C92.9372 34.058 93.4052 35.642 95.7092 35.642ZM112.956 38H104.712V28.01H112.596C114.882 28.01 116.322 28.82 116.322 30.404V30.494C116.322 31.736 115.53 32.474 114.324 32.672C115.548 32.816 116.646 33.68 116.646 35.12V35.192C116.646 37.01 115.458 38 112.956 38ZM108.222 31.988H111.444C112.29 31.988 112.722 31.664 112.722 31.034V30.944C112.722 30.368 112.326 30.026 111.444 30.026H108.222V31.988ZM108.222 35.984H111.588C112.524 35.984 113.046 35.678 113.046 34.976V34.832C113.046 34.202 112.614 33.806 111.588 33.806H108.222V35.984ZM122.601 38H119.091V28.01H122.601V31.646H127.497V28.01H131.007V38H127.497V34.31H122.601V38ZM138.643 36.002C140.695 36.002 141.397 34.706 141.397 33.95V33.176C141.091 33.302 140.209 33.482 139.201 33.644C137.509 33.932 136.969 34.166 136.969 34.868V34.904C136.969 35.534 137.419 36.002 138.643 36.002ZM141.505 36.614C141.073 37.136 139.993 38.198 137.653 38.198H137.365C134.575 38.198 133.423 36.686 133.423 35.03V34.958C133.423 33.23 134.521 32.168 137.905 31.88L140.641 31.646C141.199 31.592 141.397 31.412 141.397 30.998C141.397 30.53 141.253 30.026 139.309 30.026C137.473 30.026 137.293 30.746 137.293 31.124H133.693V31.088C133.693 30.098 134.089 27.776 139.003 27.776H139.561C144.511 27.776 144.817 29.81 144.817 31.142V34.436C144.817 35.066 144.943 35.318 145.645 35.318H146.023V38H143.179C142.135 38 141.649 37.262 141.505 36.614ZM11.808 62L5.364 55.7V62H1.656V48.608H5.364V54.116L11.628 48.608H16.344L9.288 54.746L16.65 62H11.808ZM23.5247 62.27H22.9667C17.5847 62.27 16.7567 58.994 16.7567 57.176V56.924C16.7567 55.124 17.5847 51.74 22.9487 51.74H23.5427C29.0867 51.74 29.7347 55.142 29.7347 56.906V57.194C29.7347 58.994 29.0867 62.27 23.5247 62.27ZM23.1467 59.642H23.3447C25.5587 59.642 26.1167 58.058 26.1167 56.96C26.1167 55.826 25.5587 54.314 23.3447 54.314H23.1467C20.8427 54.314 20.3747 55.826 20.3747 56.96C20.3747 58.058 20.8427 59.642 23.1467 59.642ZM35.3894 55.268V62H32.1494V52.01H37.0994L40.0694 58.382L43.0394 52.01H47.8094V62H44.2994V55.268L41.1854 62H38.5034L35.3894 55.268ZM55.3224 60.002C57.3744 60.002 58.0764 58.706 58.0764 57.95V57.176C57.7704 57.302 56.8884 57.482 55.8804 57.644C54.1884 57.932 53.6484 58.166 53.6484 58.868V58.904C53.6484 59.534 54.0984 60.002 55.3224 60.002ZM58.1844 60.614C57.7524 61.136 56.6724 62.198 54.3324 62.198H54.0444C51.2544 62.198 50.1024 60.686 50.1024 59.03V58.958C50.1024 57.23 51.2004 56.168 54.5844 55.88L57.3204 55.646C57.8784 55.592 58.0764 55.412 58.0764 54.998C58.0764 54.53 57.9324 54.026 55.9884 54.026C54.1524 54.026 53.9724 54.746 53.9724 55.124H50.3724V55.088C50.3724 54.098 50.7684 51.776 55.6824 51.776H56.2404C61.1904 51.776 61.4964 53.81 61.4964 55.142V58.436C61.4964 59.066 61.6224 59.318 62.3244 59.318H62.7024V62H59.8584C58.8144 62 58.3284 61.262 58.1844 60.614ZM73.8841 57.014V56.96C73.8841 55.88 73.3801 54.422 71.1841 54.422H71.0041C68.8981 54.422 68.2321 55.808 68.2321 56.96V57.014C68.2321 58.112 68.8981 59.552 71.0041 59.552H71.1841C73.3801 59.552 73.8841 58.04 73.8841 57.014ZM64.7401 65.438V52.01H68.2141V53.288C68.6461 52.82 69.9601 51.812 72.2281 51.812H72.4621C76.2781 51.812 77.5201 54.422 77.5201 56.798V57.104C77.5201 59.282 76.2421 62.198 72.4441 62.198H72.1921C69.9061 62.198 68.6821 61.154 68.2501 60.722V65.438H64.7401ZM86.2259 62.27H85.6679C80.2859 62.27 79.4579 58.994 79.4579 57.176V56.924C79.4579 55.124 80.2859 51.74 85.6499 51.74H86.2439C91.7879 51.74 92.4359 55.142 92.4359 56.906V57.194C92.4359 58.994 91.7879 62.27 86.2259 62.27ZM85.8479 59.642H86.0459C88.2599 59.642 88.8179 58.058 88.8179 56.96C88.8179 55.826 88.2599 54.314 86.0459 54.314H85.8479C83.5439 54.314 83.0759 55.826 83.0759 56.96C83.0759 58.058 83.5439 59.642 85.8479 59.642ZM103.095 62H94.8506V52.01H102.735C105.021 52.01 106.461 52.82 106.461 54.404V54.494C106.461 55.736 105.669 56.474 104.463 56.672C105.687 56.816 106.785 57.68 106.785 59.12V59.192C106.785 61.01 105.597 62 103.095 62ZM98.3606 55.988H101.583C102.429 55.988 102.861 55.664 102.861 55.034V54.944C102.861 54.368 102.465 54.026 101.583 54.026H98.3606V55.988ZM98.3606 59.984H101.727C102.663 59.984 103.185 59.678 103.185 58.976V58.832C103.185 58.202 102.753 57.806 101.727 57.806H98.3606V59.984ZM113.858 60.002C115.91 60.002 116.612 58.706 116.612 57.95V57.176C116.306 57.302 115.424 57.482 114.416 57.644C112.724 57.932 112.184 58.166 112.184 58.868V58.904C112.184 59.534 112.634 60.002 113.858 60.002ZM116.72 60.614C116.288 61.136 115.208 62.198 112.868 62.198H112.58C109.79 62.198 108.638 60.686 108.638 59.03V58.958C108.638 57.23 109.736 56.168 113.12 55.88L115.856 55.646C116.414 55.592 116.612 55.412 116.612 54.998C116.612 54.53 116.468 54.026 114.524 54.026C112.688 54.026 112.508 54.746 112.508 55.124H108.908V55.088C108.908 54.098 109.304 51.776 114.218 51.776H114.776C119.726 51.776 120.032 53.81 120.032 55.142V58.436C120.032 59.066 120.158 59.318 120.86 59.318H121.238V62H118.394C117.35 62 116.864 61.262 116.72 60.614Z" fill="url(#paint2_radial_2018_1383)"/>
<path d="M10.998 8.762L8.568 3.308L6.21 8.762H10.998ZM13.338 14L12.24 11.516H5.004L3.924 14H0.198L6.138 0.608H11.106L17.316 14H13.338ZM22.4758 14H18.9658V4.01H22.4758V7.646H27.3718V4.01H30.8818V14H27.3718V10.31H22.4758V14ZM36.6638 14V6.674H32.7938V4.01H44.0438V6.674H40.1738V14H36.6638ZM52.2122 14.27H51.6542C46.2722 14.27 45.4442 10.994 45.4442 9.176V8.924C45.4442 7.124 46.2722 3.74 51.6362 3.74H52.2302C57.7742 3.74 58.4222 7.142 58.4222 8.906V9.194C58.4222 10.994 57.7742 14.27 52.2122 14.27ZM51.8342 11.642H52.0322C54.2462 11.642 54.8042 10.058 54.8042 8.96C54.8042 7.826 54.2462 6.314 52.0322 6.314H51.8342C49.5302 6.314 49.0622 7.826 49.0622 8.96C49.0622 10.058 49.5302 11.642 51.8342 11.642ZM64.3469 14H60.8369V4.01H64.3469V7.646H69.2429V4.01H72.7529V14H69.2429V10.31H64.3469V14ZM84.0968 7.952L79.2728 14H75.6728V4.01H79.1828V10.058L84.0068 4.01H87.6068V14H84.0968V7.952ZM94.0364 14H90.5264V4.01H94.0364V7.646H98.9324V4.01H102.442V14H98.9324V10.31H94.0364V14ZM110.078 12.002C112.13 12.002 112.832 10.706 112.832 9.95V9.176C112.526 9.302 111.644 9.482 110.636 9.644C108.944 9.932 108.404 10.166 108.404 10.868V10.904C108.404 11.534 108.854 12.002 110.078 12.002ZM112.94 12.614C112.508 13.136 111.428 14.198 109.088 14.198H108.8C106.01 14.198 104.858 12.686 104.858 11.03V10.958C104.858 9.23 105.956 8.168 109.34 7.88L112.076 7.646C112.634 7.592 112.832 7.412 112.832 6.998C112.832 6.53 112.688 6.026 110.744 6.026C108.908 6.026 108.728 6.746 108.728 7.124H105.128V7.088C105.128 6.098 105.524 3.776 110.438 3.776H110.996C115.946 3.776 116.252 5.81 116.252 7.142V10.436C116.252 11.066 116.378 11.318 117.08 11.318H117.458V14H114.614C113.57 14 113.084 13.262 112.94 12.614ZM10.728 33.716H5.364V38H1.656V24.608H10.728C14.958 24.608 16.272 26.462 16.272 29.054V29.252C16.272 31.79 14.904 33.716 10.728 33.716ZM5.364 27.596V30.728H10.458C11.826 30.728 12.42 30.152 12.42 29.198V29.126C12.42 28.19 11.826 27.596 10.458 27.596H5.364ZM19.423 41.438V38.936H21.619C21.961 38.936 22.141 38.792 22.141 38.522V38.504C22.141 38.288 22.087 38.09 21.817 37.532L17.533 28.01H21.385L24.157 35.174L26.911 28.01H30.439L25.867 39.008C25.165 40.646 24.301 41.438 22.645 41.438H19.423ZM40.3959 34.076H44.0679C44.0679 35.588 43.1679 38.27 38.3619 38.27H37.4799C32.4939 38.27 31.5579 35.03 31.5579 33.14V32.888C31.5579 30.998 32.4399 27.74 37.4619 27.74H38.2899C43.1139 27.74 44.0679 30.368 44.0679 31.808V31.826H40.3959C40.3419 31.538 39.9999 30.296 37.9299 30.296H37.7499C35.6799 30.296 35.1939 31.718 35.1939 32.924V32.942C35.1939 34.184 35.7879 35.66 37.8219 35.66H38.0019C40.0899 35.66 40.3959 34.31 40.3959 34.076ZM54.4722 38V30.674H50.5122C50.5122 33.356 50.4222 34.85 50.0802 35.768C49.7022 36.776 49.1982 38 46.5522 38H45.4542V35.39H45.6702C46.3002 35.39 46.7682 35.174 46.9662 34.256C47.1102 33.482 47.1642 32.636 47.1642 28.01H57.9822V38H54.4722ZM65.6056 36.002C67.6576 36.002 68.3596 34.706 68.3596 33.95V33.176C68.0536 33.302 67.1716 33.482 66.1636 33.644C64.4716 33.932 63.9316 34.166 63.9316 34.868V34.904C63.9316 35.534 64.3816 36.002 65.6056 36.002ZM68.4676 36.614C68.0356 37.136 66.9556 38.198 64.6156 38.198H64.3276C61.5376 38.198 60.3856 36.686 60.3856 35.03V34.958C60.3856 33.23 61.4836 32.168 64.8676 31.88L67.6036 31.646C68.1616 31.592 68.3596 31.412 68.3596 30.998C68.3596 30.53 68.2156 30.026 66.2716 30.026C64.4356 30.026 64.2556 30.746 64.2556 31.124H60.6556V31.088C60.6556 30.098 61.0516 27.776 65.9656 27.776H66.5236C71.4736 27.776 71.7796 29.81 71.7796 31.142V34.436C71.7796 35.066 71.9056 35.318 72.6076 35.318H72.9856V38H70.1416C69.0976 38 68.6116 37.262 68.4676 36.614ZM78.4973 38H74.9873V28.01H78.4973V31.646H83.3933V28.01H86.9033V38H83.3933V34.31H78.4973V38ZM96.0872 38.27H95.5292C90.1472 38.27 89.3192 34.994 89.3192 33.176V32.924C89.3192 31.124 90.1472 27.74 95.5112 27.74H96.1052C101.649 27.74 102.297 31.142 102.297 32.906V33.194C102.297 34.994 101.649 38.27 96.0872 38.27ZM95.7092 35.642H95.9072C98.1212 35.642 98.6792 34.058 98.6792 32.96C98.6792 31.826 98.1212 30.314 95.9072 30.314H95.7092C93.4052 30.314 92.9372 31.826 92.9372 32.96C92.9372 34.058 93.4052 35.642 95.7092 35.642ZM112.956 38H104.712V28.01H112.596C114.882 28.01 116.322 28.82 116.322 30.404V30.494C116.322 31.736 115.53 32.474 114.324 32.672C115.548 32.816 116.646 33.68 116.646 35.12V35.192C116.646 37.01 115.458 38 112.956 38ZM108.222 31.988H111.444C112.29 31.988 112.722 31.664 112.722 31.034V30.944C112.722 30.368 112.326 30.026 111.444 30.026H108.222V31.988ZM108.222 35.984H111.588C112.524 35.984 113.046 35.678 113.046 34.976V34.832C113.046 34.202 112.614 33.806 111.588 33.806H108.222V35.984ZM122.601 38H119.091V28.01H122.601V31.646H127.497V28.01H131.007V38H127.497V34.31H122.601V38ZM138.643 36.002C140.695 36.002 141.397 34.706 141.397 33.95V33.176C141.091 33.302 140.209 33.482 139.201 33.644C137.509 33.932 136.969 34.166 136.969 34.868V34.904C136.969 35.534 137.419 36.002 138.643 36.002ZM141.505 36.614C141.073 37.136 139.993 38.198 137.653 38.198H137.365C134.575 38.198 133.423 36.686 133.423 35.03V34.958C133.423 33.23 134.521 32.168 137.905 31.88L140.641 31.646C141.199 31.592 141.397 31.412 141.397 30.998C141.397 30.53 141.253 30.026 139.309 30.026C137.473 30.026 137.293 30.746 137.293 31.124H133.693V31.088C133.693 30.098 134.089 27.776 139.003 27.776H139.561C144.511 27.776 144.817 29.81 144.817 31.142V34.436C144.817 35.066 144.943 35.318 145.645 35.318H146.023V38H143.179C142.135 38 141.649 37.262 141.505 36.614ZM11.808 62L5.364 55.7V62H1.656V48.608H5.364V54.116L11.628 48.608H16.344L9.288 54.746L16.65 62H11.808ZM23.5247 62.27H22.9667C17.5847 62.27 16.7567 58.994 16.7567 57.176V56.924C16.7567 55.124 17.5847 51.74 22.9487 51.74H23.5427C29.0867 51.74 29.7347 55.142 29.7347 56.906V57.194C29.7347 58.994 29.0867 62.27 23.5247 62.27ZM23.1467 59.642H23.3447C25.5587 59.642 26.1167 58.058 26.1167 56.96C26.1167 55.826 25.5587 54.314 23.3447 54.314H23.1467C20.8427 54.314 20.3747 55.826 20.3747 56.96C20.3747 58.058 20.8427 59.642 23.1467 59.642ZM35.3894 55.268V62H32.1494V52.01H37.0994L40.0694 58.382L43.0394 52.01H47.8094V62H44.2994V55.268L41.1854 62H38.5034L35.3894 55.268ZM55.3224 60.002C57.3744 60.002 58.0764 58.706 58.0764 57.95V57.176C57.7704 57.302 56.8884 57.482 55.8804 57.644C54.1884 57.932 53.6484 58.166 53.6484 58.868V58.904C53.6484 59.534 54.0984 60.002 55.3224 60.002ZM58.1844 60.614C57.7524 61.136 56.6724 62.198 54.3324 62.198H54.0444C51.2544 62.198 50.1024 60.686 50.1024 59.03V58.958C50.1024 57.23 51.2004 56.168 54.5844 55.88L57.3204 55.646C57.8784 55.592 58.0764 55.412 58.0764 54.998C58.0764 54.53 57.9324 54.026 55.9884 54.026C54.1524 54.026 53.9724 54.746 53.9724 55.124H50.3724V55.088C50.3724 54.098 50.7684 51.776 55.6824 51.776H56.2404C61.1904 51.776 61.4964 53.81 61.4964 55.142V58.436C61.4964 59.066 61.6224 59.318 62.3244 59.318H62.7024V62H59.8584C58.8144 62 58.3284 61.262 58.1844 60.614ZM73.8841 57.014V56.96C73.8841 55.88 73.3801 54.422 71.1841 54.422H71.0041C68.8981 54.422 68.2321 55.808 68.2321 56.96V57.014C68.2321 58.112 68.8981 59.552 71.0041 59.552H71.1841C73.3801 59.552 73.8841 58.04 73.8841 57.014ZM64.7401 65.438V52.01H68.2141V53.288C68.6461 52.82 69.9601 51.812 72.2281 51.812H72.4621C76.2781 51.812 77.5201 54.422 77.5201 56.798V57.104C77.5201 59.282 76.2421 62.198 72.4441 62.198H72.1921C69.9061 62.198 68.6821 61.154 68.2501 60.722V65.438H64.7401ZM86.2259 62.27H85.6679C80.2859 62.27 79.4579 58.994 79.4579 57.176V56.924C79.4579 55.124 80.2859 51.74 85.6499 51.74H86.2439C91.7879 51.74 92.4359 55.142 92.4359 56.906V57.194C92.4359 58.994 91.7879 62.27 86.2259 62.27ZM85.8479 59.642H86.0459C88.2599 59.642 88.8179 58.058 88.8179 56.96C88.8179 55.826 88.2599 54.314 86.0459 54.314H85.8479C83.5439 54.314 83.0759 55.826 83.0759 56.96C83.0759 58.058 83.5439 59.642 85.8479 59.642ZM103.095 62H94.8506V52.01H102.735C105.021 52.01 106.461 52.82 106.461 54.404V54.494C106.461 55.736 105.669 56.474 104.463 56.672C105.687 56.816 106.785 57.68 106.785 59.12V59.192C106.785 61.01 105.597 62 103.095 62ZM98.3606 55.988H101.583C102.429 55.988 102.861 55.664 102.861 55.034V54.944C102.861 54.368 102.465 54.026 101.583 54.026H98.3606V55.988ZM98.3606 59.984H101.727C102.663 59.984 103.185 59.678 103.185 58.976V58.832C103.185 58.202 102.753 57.806 101.727 57.806H98.3606V59.984ZM113.858 60.002C115.91 60.002 116.612 58.706 116.612 57.95V57.176C116.306 57.302 115.424 57.482 114.416 57.644C112.724 57.932 112.184 58.166 112.184 58.868V58.904C112.184 59.534 112.634 60.002 113.858 60.002ZM116.72 60.614C116.288 61.136 115.208 62.198 112.868 62.198H112.58C109.79 62.198 108.638 60.686 108.638 59.03V58.958C108.638 57.23 109.736 56.168 113.12 55.88L115.856 55.646C116.414 55.592 116.612 55.412 116.612 54.998C116.612 54.53 116.468 54.026 114.524 54.026C112.688 54.026 112.508 54.746 112.508 55.124H108.908V55.088C108.908 54.098 109.304 51.776 114.218 51.776H114.776C119.726 51.776 120.032 53.81 120.032 55.142V58.436C120.032 59.066 120.158 59.318 120.86 59.318H121.238V62H118.394C117.35 62 116.864 61.262 116.72 60.614Z" fill="#C1A875" style="mix-blend-mode:color"/>
<defs>
<linearGradient id="paint0_linear_2018_1383" x1="8.27014e-07" y1="30" x2="222" y2="30" gradientUnits="userSpaceOnUse">
<stop stop-color="#576167"/>
<stop offset="0.191294" stop-color="#9EA1A2"/>
<stop offset="0.396166" stop-color="#848989"/>
<stop offset="0.62055" stop-color="#576167"/>
<stop offset="0.830299" stop-color="#757A7C"/>
<stop offset="1" stop-color="#576167"/>
</linearGradient>
<radialGradient id="paint1_radial_2018_1383" cx="0" cy="0" r="1" gradientUnits="userSpaceOnUse" gradientTransform="translate(118.226 2.39326) rotate(90) scale(53.4944 167.95)">
<stop stop-color="white"/>
<stop offset="1" stop-color="white" stop-opacity="0"/>
</radialGradient>
<radialGradient id="paint2_radial_2018_1383" cx="0" cy="0" r="1" gradientUnits="userSpaceOnUse" gradientTransform="translate(130.783 82.9888) rotate(-89.7344) scale(76.6525 240.162)">
<stop stop-color="white"/>
<stop offset="1" stop-color="white" stop-opacity="0"/>
</radialGradient>
</defs>
</svg>
