<svg width="144" height="66" viewBox="0 0 144 66" fill="none" xmlns="http://www.w3.org/2000/svg">
<path d="M9.728 9.716H4.364V14H0.656V0.608H9.728C13.958 0.608 15.272 2.462 15.272 5.054V5.252C15.272 7.79 13.904 9.716 9.728 9.716ZM4.364 3.596V6.728H9.458C10.826 6.728 11.42 6.152 11.42 5.198V5.126C11.42 4.19 10.826 3.596 9.458 3.596H4.364ZM23.474 14.27H22.916C17.534 14.27 16.706 10.994 16.706 9.176V8.924C16.706 7.124 17.534 3.74 22.898 3.74H23.492C29.036 3.74 29.684 7.142 29.684 8.906V9.194C29.684 10.994 29.036 14.27 23.474 14.27ZM23.096 11.642H23.294C25.508 11.642 26.066 10.058 26.066 8.96C26.066 7.826 25.508 6.314 23.294 6.314H23.096C20.792 6.314 20.324 7.826 20.324 8.96C20.324 10.058 20.792 11.642 23.096 11.642ZM35.3386 7.268V14H32.0986V4.01H37.0486L40.0186 10.382L42.9886 4.01H47.7586V14H44.2486V7.268L41.1346 14H38.4526L35.3386 7.268ZM55.2717 12.002C57.3237 12.002 58.0257 10.706 58.0257 9.95V9.176C57.7197 9.302 56.8377 9.482 55.8297 9.644C54.1377 9.932 53.5977 10.166 53.5977 10.868V10.904C53.5977 11.534 54.0477 12.002 55.2717 12.002ZM58.1337 12.614C57.7017 13.136 56.6217 14.198 54.2817 14.198H53.9937C51.2037 14.198 50.0517 12.686 50.0517 11.03V10.958C50.0517 9.23 51.1497 8.168 54.5337 7.88L57.2697 7.646C57.8277 7.592 58.0257 7.412 58.0257 6.998C58.0257 6.53 57.8817 6.026 55.9377 6.026C54.1017 6.026 53.9217 6.746 53.9217 7.124H50.3217V7.088C50.3217 6.098 50.7177 3.776 55.6317 3.776H56.1897C61.1397 3.776 61.4457 5.81 61.4457 7.142V10.436C61.4457 11.066 61.5717 11.318 62.2737 11.318H62.6517V14H59.8077C58.7637 14 58.2777 13.262 58.1337 12.614ZM68.1633 14H64.6533V4.01H68.1633V7.646H73.0593V4.01H76.5693V14H73.0593V10.31H68.1633V14ZM0.656 38V24.608H10.43C14.264 24.608 15.218 26.282 15.218 27.776V27.974C15.218 29.666 13.76 30.476 12.752 30.62C14.264 30.872 15.884 31.772 15.884 33.932V34.13C15.884 35.948 14.786 38 10.484 38H0.656ZM9.89 27.398H4.364V29.792H9.89C11.024 29.792 11.348 29.252 11.348 28.622V28.586C11.348 27.938 10.988 27.398 9.89 27.398ZM10.178 32.42H4.364V35.066H10.178C11.474 35.066 11.852 34.382 11.852 33.716V33.644C11.852 32.978 11.474 32.42 10.178 32.42ZM26.7062 31.952L21.8822 38H18.2822V28.01H21.7922V34.058L26.6162 28.01H30.2162V38H26.7062V31.952ZM40.5697 38L36.6817 33.374V38H33.1717V28.01H36.6817V32.006L40.2457 28.01H44.2957L40.1197 32.492L44.7457 38H40.5697ZM49.0583 38V30.674H45.1883V28.01H56.4383V30.674H52.5683V38H49.0583ZM64.6068 38.27H64.0488C58.6668 38.27 57.8388 34.994 57.8388 33.176V32.924C57.8388 31.124 58.6668 27.74 64.0308 27.74H64.6248C70.1688 27.74 70.8168 31.142 70.8168 32.906V33.194C70.8168 34.994 70.1688 38.27 64.6068 38.27ZM64.2288 35.642H64.4268C66.6408 35.642 67.1988 34.058 67.1988 32.96C67.1988 31.826 66.6408 30.314 64.4268 30.314H64.2288C61.9248 30.314 61.4568 31.826 61.4568 32.96C61.4568 34.058 61.9248 35.642 64.2288 35.642ZM82.4114 33.014V32.96C82.4114 31.88 81.9074 30.422 79.7114 30.422H79.5314C77.4254 30.422 76.7594 31.808 76.7594 32.96V33.014C76.7594 34.112 77.4254 35.552 79.5314 35.552H79.7114C81.9074 35.552 82.4114 34.04 82.4114 33.014ZM73.2674 41.438V28.01H76.7414V29.288C77.1734 28.82 78.4874 27.812 80.7554 27.812H80.9894C84.8054 27.812 86.0474 30.422 86.0474 32.798V33.104C86.0474 35.282 84.7694 38.198 80.9714 38.198H80.7194C78.4334 38.198 77.2094 37.154 76.7774 36.722V41.438H73.2674ZM94.7533 38.27H94.1953C88.8133 38.27 87.9853 34.994 87.9853 33.176V32.924C87.9853 31.124 88.8133 27.74 94.1773 27.74H94.7713C100.315 27.74 100.963 31.142 100.963 32.906V33.194C100.963 34.994 100.315 38.27 94.7533 38.27ZM94.3753 35.642H94.5733C96.7873 35.642 97.3453 34.058 97.3453 32.96C97.3453 31.826 96.7873 30.314 94.5733 30.314H94.3753C92.0713 30.314 91.6033 31.826 91.6033 32.96C91.6033 34.058 92.0713 35.642 94.3753 35.642ZM111.622 38H103.378V28.01H111.262C113.548 28.01 114.988 28.82 114.988 30.404V30.494C114.988 31.736 114.196 32.474 112.99 32.672C114.214 32.816 115.312 33.68 115.312 35.12V35.192C115.312 37.01 114.124 38 111.622 38ZM106.888 31.988H110.11C110.956 31.988 111.388 31.664 111.388 31.034V30.944C111.388 30.368 110.992 30.026 110.11 30.026H106.888V31.988ZM106.888 35.984H110.254C111.19 35.984 111.712 35.678 111.712 34.976V34.832C111.712 34.202 111.28 33.806 110.254 33.806H106.888V35.984ZM126.181 31.952L121.357 38H117.757V28.01H121.267V34.058L126.091 28.01H129.691V38H126.181V31.952ZM140.026 28.01H143.536V38H140.026V34.562C139.252 34.652 138.352 34.742 137.416 34.742C133.456 34.742 131.962 33.626 131.962 30.458V28.01H135.472V29.81C135.472 31.682 136.102 32.006 137.956 32.006C138.658 32.006 139.468 31.952 140.026 31.88V28.01ZM15.272 57.968V58.148C15.272 61.01 12.608 62.234 7.928 62.234H7.496C3.68 62.234 0.00800003 61.1 0.00800003 57.5V57.284H3.968C3.968 58.94 5.444 59.516 8.126 59.516C10.358 59.516 11.42 58.922 11.42 57.842C11.42 56.834 10.718 56.402 8.972 56.402H5.102V53.756H8.774C9.854 53.756 11.006 53.594 11.006 52.586C11.006 51.452 10.034 51.092 7.676 51.092C5.75 51.092 4.13 51.452 4.076 52.964H0.116V52.694C0.116 49.508 3.59 48.446 7.316 48.446H7.892C12.41 48.446 14.858 49.58 14.858 51.83V51.956C14.858 53.666 13.724 54.494 12.284 54.872C13.724 55.16 15.272 56.096 15.272 57.968ZM25.8231 62H17.5791V52.01H25.4631C27.7491 52.01 29.1891 52.82 29.1891 54.404V54.494C29.1891 55.736 28.3971 56.474 27.1911 56.672C28.4151 56.816 29.5131 57.68 29.5131 59.12V59.192C29.5131 61.01 28.3251 62 25.8231 62ZM21.0891 55.988H24.3111C25.1571 55.988 25.5891 55.664 25.5891 55.034V54.944C25.5891 54.368 25.1931 54.026 24.3111 54.026H21.0891V55.988ZM21.0891 59.984H24.4551C25.3911 59.984 25.9131 59.678 25.9131 58.976V58.832C25.9131 58.202 25.4811 57.806 24.4551 57.806H21.0891V59.984ZM37.772 54.08C35.954 54.08 35.27 54.818 35.09 55.862H40.382C40.382 55.124 40.022 54.08 37.772 54.08ZM40.454 58.886H44.108C44.108 59.714 43.46 62.234 38.294 62.234H37.628C32.696 62.234 31.472 59.534 31.472 57.14V56.888C31.472 54.638 32.588 51.794 37.322 51.794H38.114C43.226 51.794 44.144 54.638 44.144 57.428V57.752H35.054C35.198 58.904 35.936 59.84 38.078 59.84C40.112 59.84 40.364 59.048 40.454 58.886ZM55.7278 57.014V56.96C55.7278 55.88 55.2238 54.422 53.0278 54.422H52.8478C50.7418 54.422 50.0758 55.808 50.0758 56.96V57.014C50.0758 58.112 50.7418 59.552 52.8478 59.552H53.0278C55.2238 59.552 55.7278 58.04 55.7278 57.014ZM46.5838 65.438V52.01H50.0578V53.288C50.4898 52.82 51.8038 51.812 54.0718 51.812H54.3058C58.1218 51.812 59.3638 54.422 59.3638 56.798V57.104C59.3638 59.282 58.0858 62.198 54.2878 62.198H54.0358C51.7498 62.198 50.5258 61.154 50.0938 60.722V65.438H46.5838ZM67.6197 54.08C65.8017 54.08 65.1177 54.818 64.9377 55.862H70.2297C70.2297 55.124 69.8697 54.08 67.6197 54.08ZM70.3017 58.886H73.9557C73.9557 59.714 73.3077 62.234 68.1417 62.234H67.4757C62.5437 62.234 61.3197 59.534 61.3197 57.14V56.888C61.3197 54.638 62.4357 51.794 67.1697 51.794H67.9617C73.0737 51.794 73.9917 54.638 73.9917 57.428V57.752H64.9017C65.0457 58.904 65.7837 59.84 67.9257 59.84C69.9597 59.84 70.2117 59.048 70.3017 58.886ZM84.6395 62H76.3955V52.01H84.2795C86.5655 52.01 88.0055 52.82 88.0055 54.404V54.494C88.0055 55.736 87.2135 56.474 86.0075 56.672C87.2315 56.816 88.3295 57.68 88.3295 59.12V59.192C88.3295 61.01 87.1415 62 84.6395 62ZM79.9055 55.988H83.1275C83.9735 55.988 84.4055 55.664 84.4055 55.034V54.944C84.4055 54.368 84.0095 54.026 83.1275 54.026H79.9055V55.988ZM79.9055 59.984H83.2715C84.2075 59.984 84.7295 59.678 84.7295 58.976V58.832C84.7295 58.202 84.2975 57.806 83.2715 57.806H79.9055V59.984Z" fill="url(#paint0_linear_2018_1420)"/>
<path d="M9.728 9.716H4.364V14H0.656V0.608H9.728C13.958 0.608 15.272 2.462 15.272 5.054V5.252C15.272 7.79 13.904 9.716 9.728 9.716ZM4.364 3.596V6.728H9.458C10.826 6.728 11.42 6.152 11.42 5.198V5.126C11.42 4.19 10.826 3.596 9.458 3.596H4.364ZM23.474 14.27H22.916C17.534 14.27 16.706 10.994 16.706 9.176V8.924C16.706 7.124 17.534 3.74 22.898 3.74H23.492C29.036 3.74 29.684 7.142 29.684 8.906V9.194C29.684 10.994 29.036 14.27 23.474 14.27ZM23.096 11.642H23.294C25.508 11.642 26.066 10.058 26.066 8.96C26.066 7.826 25.508 6.314 23.294 6.314H23.096C20.792 6.314 20.324 7.826 20.324 8.96C20.324 10.058 20.792 11.642 23.096 11.642ZM35.3386 7.268V14H32.0986V4.01H37.0486L40.0186 10.382L42.9886 4.01H47.7586V14H44.2486V7.268L41.1346 14H38.4526L35.3386 7.268ZM55.2717 12.002C57.3237 12.002 58.0257 10.706 58.0257 9.95V9.176C57.7197 9.302 56.8377 9.482 55.8297 9.644C54.1377 9.932 53.5977 10.166 53.5977 10.868V10.904C53.5977 11.534 54.0477 12.002 55.2717 12.002ZM58.1337 12.614C57.7017 13.136 56.6217 14.198 54.2817 14.198H53.9937C51.2037 14.198 50.0517 12.686 50.0517 11.03V10.958C50.0517 9.23 51.1497 8.168 54.5337 7.88L57.2697 7.646C57.8277 7.592 58.0257 7.412 58.0257 6.998C58.0257 6.53 57.8817 6.026 55.9377 6.026C54.1017 6.026 53.9217 6.746 53.9217 7.124H50.3217V7.088C50.3217 6.098 50.7177 3.776 55.6317 3.776H56.1897C61.1397 3.776 61.4457 5.81 61.4457 7.142V10.436C61.4457 11.066 61.5717 11.318 62.2737 11.318H62.6517V14H59.8077C58.7637 14 58.2777 13.262 58.1337 12.614ZM68.1633 14H64.6533V4.01H68.1633V7.646H73.0593V4.01H76.5693V14H73.0593V10.31H68.1633V14ZM0.656 38V24.608H10.43C14.264 24.608 15.218 26.282 15.218 27.776V27.974C15.218 29.666 13.76 30.476 12.752 30.62C14.264 30.872 15.884 31.772 15.884 33.932V34.13C15.884 35.948 14.786 38 10.484 38H0.656ZM9.89 27.398H4.364V29.792H9.89C11.024 29.792 11.348 29.252 11.348 28.622V28.586C11.348 27.938 10.988 27.398 9.89 27.398ZM10.178 32.42H4.364V35.066H10.178C11.474 35.066 11.852 34.382 11.852 33.716V33.644C11.852 32.978 11.474 32.42 10.178 32.42ZM26.7062 31.952L21.8822 38H18.2822V28.01H21.7922V34.058L26.6162 28.01H30.2162V38H26.7062V31.952ZM40.5697 38L36.6817 33.374V38H33.1717V28.01H36.6817V32.006L40.2457 28.01H44.2957L40.1197 32.492L44.7457 38H40.5697ZM49.0583 38V30.674H45.1883V28.01H56.4383V30.674H52.5683V38H49.0583ZM64.6068 38.27H64.0488C58.6668 38.27 57.8388 34.994 57.8388 33.176V32.924C57.8388 31.124 58.6668 27.74 64.0308 27.74H64.6248C70.1688 27.74 70.8168 31.142 70.8168 32.906V33.194C70.8168 34.994 70.1688 38.27 64.6068 38.27ZM64.2288 35.642H64.4268C66.6408 35.642 67.1988 34.058 67.1988 32.96C67.1988 31.826 66.6408 30.314 64.4268 30.314H64.2288C61.9248 30.314 61.4568 31.826 61.4568 32.96C61.4568 34.058 61.9248 35.642 64.2288 35.642ZM82.4114 33.014V32.96C82.4114 31.88 81.9074 30.422 79.7114 30.422H79.5314C77.4254 30.422 76.7594 31.808 76.7594 32.96V33.014C76.7594 34.112 77.4254 35.552 79.5314 35.552H79.7114C81.9074 35.552 82.4114 34.04 82.4114 33.014ZM73.2674 41.438V28.01H76.7414V29.288C77.1734 28.82 78.4874 27.812 80.7554 27.812H80.9894C84.8054 27.812 86.0474 30.422 86.0474 32.798V33.104C86.0474 35.282 84.7694 38.198 80.9714 38.198H80.7194C78.4334 38.198 77.2094 37.154 76.7774 36.722V41.438H73.2674ZM94.7533 38.27H94.1953C88.8133 38.27 87.9853 34.994 87.9853 33.176V32.924C87.9853 31.124 88.8133 27.74 94.1773 27.74H94.7713C100.315 27.74 100.963 31.142 100.963 32.906V33.194C100.963 34.994 100.315 38.27 94.7533 38.27ZM94.3753 35.642H94.5733C96.7873 35.642 97.3453 34.058 97.3453 32.96C97.3453 31.826 96.7873 30.314 94.5733 30.314H94.3753C92.0713 30.314 91.6033 31.826 91.6033 32.96C91.6033 34.058 92.0713 35.642 94.3753 35.642ZM111.622 38H103.378V28.01H111.262C113.548 28.01 114.988 28.82 114.988 30.404V30.494C114.988 31.736 114.196 32.474 112.99 32.672C114.214 32.816 115.312 33.68 115.312 35.12V35.192C115.312 37.01 114.124 38 111.622 38ZM106.888 31.988H110.11C110.956 31.988 111.388 31.664 111.388 31.034V30.944C111.388 30.368 110.992 30.026 110.11 30.026H106.888V31.988ZM106.888 35.984H110.254C111.19 35.984 111.712 35.678 111.712 34.976V34.832C111.712 34.202 111.28 33.806 110.254 33.806H106.888V35.984ZM126.181 31.952L121.357 38H117.757V28.01H121.267V34.058L126.091 28.01H129.691V38H126.181V31.952ZM140.026 28.01H143.536V38H140.026V34.562C139.252 34.652 138.352 34.742 137.416 34.742C133.456 34.742 131.962 33.626 131.962 30.458V28.01H135.472V29.81C135.472 31.682 136.102 32.006 137.956 32.006C138.658 32.006 139.468 31.952 140.026 31.88V28.01ZM15.272 57.968V58.148C15.272 61.01 12.608 62.234 7.928 62.234H7.496C3.68 62.234 0.00800003 61.1 0.00800003 57.5V57.284H3.968C3.968 58.94 5.444 59.516 8.126 59.516C10.358 59.516 11.42 58.922 11.42 57.842C11.42 56.834 10.718 56.402 8.972 56.402H5.102V53.756H8.774C9.854 53.756 11.006 53.594 11.006 52.586C11.006 51.452 10.034 51.092 7.676 51.092C5.75 51.092 4.13 51.452 4.076 52.964H0.116V52.694C0.116 49.508 3.59 48.446 7.316 48.446H7.892C12.41 48.446 14.858 49.58 14.858 51.83V51.956C14.858 53.666 13.724 54.494 12.284 54.872C13.724 55.16 15.272 56.096 15.272 57.968ZM25.8231 62H17.5791V52.01H25.4631C27.7491 52.01 29.1891 52.82 29.1891 54.404V54.494C29.1891 55.736 28.3971 56.474 27.1911 56.672C28.4151 56.816 29.5131 57.68 29.5131 59.12V59.192C29.5131 61.01 28.3251 62 25.8231 62ZM21.0891 55.988H24.3111C25.1571 55.988 25.5891 55.664 25.5891 55.034V54.944C25.5891 54.368 25.1931 54.026 24.3111 54.026H21.0891V55.988ZM21.0891 59.984H24.4551C25.3911 59.984 25.9131 59.678 25.9131 58.976V58.832C25.9131 58.202 25.4811 57.806 24.4551 57.806H21.0891V59.984ZM37.772 54.08C35.954 54.08 35.27 54.818 35.09 55.862H40.382C40.382 55.124 40.022 54.08 37.772 54.08ZM40.454 58.886H44.108C44.108 59.714 43.46 62.234 38.294 62.234H37.628C32.696 62.234 31.472 59.534 31.472 57.14V56.888C31.472 54.638 32.588 51.794 37.322 51.794H38.114C43.226 51.794 44.144 54.638 44.144 57.428V57.752H35.054C35.198 58.904 35.936 59.84 38.078 59.84C40.112 59.84 40.364 59.048 40.454 58.886ZM55.7278 57.014V56.96C55.7278 55.88 55.2238 54.422 53.0278 54.422H52.8478C50.7418 54.422 50.0758 55.808 50.0758 56.96V57.014C50.0758 58.112 50.7418 59.552 52.8478 59.552H53.0278C55.2238 59.552 55.7278 58.04 55.7278 57.014ZM46.5838 65.438V52.01H50.0578V53.288C50.4898 52.82 51.8038 51.812 54.0718 51.812H54.3058C58.1218 51.812 59.3638 54.422 59.3638 56.798V57.104C59.3638 59.282 58.0858 62.198 54.2878 62.198H54.0358C51.7498 62.198 50.5258 61.154 50.0938 60.722V65.438H46.5838ZM67.6197 54.08C65.8017 54.08 65.1177 54.818 64.9377 55.862H70.2297C70.2297 55.124 69.8697 54.08 67.6197 54.08ZM70.3017 58.886H73.9557C73.9557 59.714 73.3077 62.234 68.1417 62.234H67.4757C62.5437 62.234 61.3197 59.534 61.3197 57.14V56.888C61.3197 54.638 62.4357 51.794 67.1697 51.794H67.9617C73.0737 51.794 73.9917 54.638 73.9917 57.428V57.752H64.9017C65.0457 58.904 65.7837 59.84 67.9257 59.84C69.9597 59.84 70.2117 59.048 70.3017 58.886ZM84.6395 62H76.3955V52.01H84.2795C86.5655 52.01 88.0055 52.82 88.0055 54.404V54.494C88.0055 55.736 87.2135 56.474 86.0075 56.672C87.2315 56.816 88.3295 57.68 88.3295 59.12V59.192C88.3295 61.01 87.1415 62 84.6395 62ZM79.9055 55.988H83.1275C83.9735 55.988 84.4055 55.664 84.4055 55.034V54.944C84.4055 54.368 84.0095 54.026 83.1275 54.026H79.9055V55.988ZM79.9055 59.984H83.2715C84.2075 59.984 84.7295 59.678 84.7295 58.976V58.832C84.7295 58.202 84.2975 57.806 83.2715 57.806H79.9055V59.984Z" fill="url(#paint1_radial_2018_1420)" style="mix-blend-mode:overlay"/>
<path d="M9.728 9.716H4.364V14H0.656V0.608H9.728C13.958 0.608 15.272 2.462 15.272 5.054V5.252C15.272 7.79 13.904 9.716 9.728 9.716ZM4.364 3.596V6.728H9.458C10.826 6.728 11.42 6.152 11.42 5.198V5.126C11.42 4.19 10.826 3.596 9.458 3.596H4.364ZM23.474 14.27H22.916C17.534 14.27 16.706 10.994 16.706 9.176V8.924C16.706 7.124 17.534 3.74 22.898 3.74H23.492C29.036 3.74 29.684 7.142 29.684 8.906V9.194C29.684 10.994 29.036 14.27 23.474 14.27ZM23.096 11.642H23.294C25.508 11.642 26.066 10.058 26.066 8.96C26.066 7.826 25.508 6.314 23.294 6.314H23.096C20.792 6.314 20.324 7.826 20.324 8.96C20.324 10.058 20.792 11.642 23.096 11.642ZM35.3386 7.268V14H32.0986V4.01H37.0486L40.0186 10.382L42.9886 4.01H47.7586V14H44.2486V7.268L41.1346 14H38.4526L35.3386 7.268ZM55.2717 12.002C57.3237 12.002 58.0257 10.706 58.0257 9.95V9.176C57.7197 9.302 56.8377 9.482 55.8297 9.644C54.1377 9.932 53.5977 10.166 53.5977 10.868V10.904C53.5977 11.534 54.0477 12.002 55.2717 12.002ZM58.1337 12.614C57.7017 13.136 56.6217 14.198 54.2817 14.198H53.9937C51.2037 14.198 50.0517 12.686 50.0517 11.03V10.958C50.0517 9.23 51.1497 8.168 54.5337 7.88L57.2697 7.646C57.8277 7.592 58.0257 7.412 58.0257 6.998C58.0257 6.53 57.8817 6.026 55.9377 6.026C54.1017 6.026 53.9217 6.746 53.9217 7.124H50.3217V7.088C50.3217 6.098 50.7177 3.776 55.6317 3.776H56.1897C61.1397 3.776 61.4457 5.81 61.4457 7.142V10.436C61.4457 11.066 61.5717 11.318 62.2737 11.318H62.6517V14H59.8077C58.7637 14 58.2777 13.262 58.1337 12.614ZM68.1633 14H64.6533V4.01H68.1633V7.646H73.0593V4.01H76.5693V14H73.0593V10.31H68.1633V14ZM0.656 38V24.608H10.43C14.264 24.608 15.218 26.282 15.218 27.776V27.974C15.218 29.666 13.76 30.476 12.752 30.62C14.264 30.872 15.884 31.772 15.884 33.932V34.13C15.884 35.948 14.786 38 10.484 38H0.656ZM9.89 27.398H4.364V29.792H9.89C11.024 29.792 11.348 29.252 11.348 28.622V28.586C11.348 27.938 10.988 27.398 9.89 27.398ZM10.178 32.42H4.364V35.066H10.178C11.474 35.066 11.852 34.382 11.852 33.716V33.644C11.852 32.978 11.474 32.42 10.178 32.42ZM26.7062 31.952L21.8822 38H18.2822V28.01H21.7922V34.058L26.6162 28.01H30.2162V38H26.7062V31.952ZM40.5697 38L36.6817 33.374V38H33.1717V28.01H36.6817V32.006L40.2457 28.01H44.2957L40.1197 32.492L44.7457 38H40.5697ZM49.0583 38V30.674H45.1883V28.01H56.4383V30.674H52.5683V38H49.0583ZM64.6068 38.27H64.0488C58.6668 38.27 57.8388 34.994 57.8388 33.176V32.924C57.8388 31.124 58.6668 27.74 64.0308 27.74H64.6248C70.1688 27.74 70.8168 31.142 70.8168 32.906V33.194C70.8168 34.994 70.1688 38.27 64.6068 38.27ZM64.2288 35.642H64.4268C66.6408 35.642 67.1988 34.058 67.1988 32.96C67.1988 31.826 66.6408 30.314 64.4268 30.314H64.2288C61.9248 30.314 61.4568 31.826 61.4568 32.96C61.4568 34.058 61.9248 35.642 64.2288 35.642ZM82.4114 33.014V32.96C82.4114 31.88 81.9074 30.422 79.7114 30.422H79.5314C77.4254 30.422 76.7594 31.808 76.7594 32.96V33.014C76.7594 34.112 77.4254 35.552 79.5314 35.552H79.7114C81.9074 35.552 82.4114 34.04 82.4114 33.014ZM73.2674 41.438V28.01H76.7414V29.288C77.1734 28.82 78.4874 27.812 80.7554 27.812H80.9894C84.8054 27.812 86.0474 30.422 86.0474 32.798V33.104C86.0474 35.282 84.7694 38.198 80.9714 38.198H80.7194C78.4334 38.198 77.2094 37.154 76.7774 36.722V41.438H73.2674ZM94.7533 38.27H94.1953C88.8133 38.27 87.9853 34.994 87.9853 33.176V32.924C87.9853 31.124 88.8133 27.74 94.1773 27.74H94.7713C100.315 27.74 100.963 31.142 100.963 32.906V33.194C100.963 34.994 100.315 38.27 94.7533 38.27ZM94.3753 35.642H94.5733C96.7873 35.642 97.3453 34.058 97.3453 32.96C97.3453 31.826 96.7873 30.314 94.5733 30.314H94.3753C92.0713 30.314 91.6033 31.826 91.6033 32.96C91.6033 34.058 92.0713 35.642 94.3753 35.642ZM111.622 38H103.378V28.01H111.262C113.548 28.01 114.988 28.82 114.988 30.404V30.494C114.988 31.736 114.196 32.474 112.99 32.672C114.214 32.816 115.312 33.68 115.312 35.12V35.192C115.312 37.01 114.124 38 111.622 38ZM106.888 31.988H110.11C110.956 31.988 111.388 31.664 111.388 31.034V30.944C111.388 30.368 110.992 30.026 110.11 30.026H106.888V31.988ZM106.888 35.984H110.254C111.19 35.984 111.712 35.678 111.712 34.976V34.832C111.712 34.202 111.28 33.806 110.254 33.806H106.888V35.984ZM126.181 31.952L121.357 38H117.757V28.01H121.267V34.058L126.091 28.01H129.691V38H126.181V31.952ZM140.026 28.01H143.536V38H140.026V34.562C139.252 34.652 138.352 34.742 137.416 34.742C133.456 34.742 131.962 33.626 131.962 30.458V28.01H135.472V29.81C135.472 31.682 136.102 32.006 137.956 32.006C138.658 32.006 139.468 31.952 140.026 31.88V28.01ZM15.272 57.968V58.148C15.272 61.01 12.608 62.234 7.928 62.234H7.496C3.68 62.234 0.00800003 61.1 0.00800003 57.5V57.284H3.968C3.968 58.94 5.444 59.516 8.126 59.516C10.358 59.516 11.42 58.922 11.42 57.842C11.42 56.834 10.718 56.402 8.972 56.402H5.102V53.756H8.774C9.854 53.756 11.006 53.594 11.006 52.586C11.006 51.452 10.034 51.092 7.676 51.092C5.75 51.092 4.13 51.452 4.076 52.964H0.116V52.694C0.116 49.508 3.59 48.446 7.316 48.446H7.892C12.41 48.446 14.858 49.58 14.858 51.83V51.956C14.858 53.666 13.724 54.494 12.284 54.872C13.724 55.16 15.272 56.096 15.272 57.968ZM25.8231 62H17.5791V52.01H25.4631C27.7491 52.01 29.1891 52.82 29.1891 54.404V54.494C29.1891 55.736 28.3971 56.474 27.1911 56.672C28.4151 56.816 29.5131 57.68 29.5131 59.12V59.192C29.5131 61.01 28.3251 62 25.8231 62ZM21.0891 55.988H24.3111C25.1571 55.988 25.5891 55.664 25.5891 55.034V54.944C25.5891 54.368 25.1931 54.026 24.3111 54.026H21.0891V55.988ZM21.0891 59.984H24.4551C25.3911 59.984 25.9131 59.678 25.9131 58.976V58.832C25.9131 58.202 25.4811 57.806 24.4551 57.806H21.0891V59.984ZM37.772 54.08C35.954 54.08 35.27 54.818 35.09 55.862H40.382C40.382 55.124 40.022 54.08 37.772 54.08ZM40.454 58.886H44.108C44.108 59.714 43.46 62.234 38.294 62.234H37.628C32.696 62.234 31.472 59.534 31.472 57.14V56.888C31.472 54.638 32.588 51.794 37.322 51.794H38.114C43.226 51.794 44.144 54.638 44.144 57.428V57.752H35.054C35.198 58.904 35.936 59.84 38.078 59.84C40.112 59.84 40.364 59.048 40.454 58.886ZM55.7278 57.014V56.96C55.7278 55.88 55.2238 54.422 53.0278 54.422H52.8478C50.7418 54.422 50.0758 55.808 50.0758 56.96V57.014C50.0758 58.112 50.7418 59.552 52.8478 59.552H53.0278C55.2238 59.552 55.7278 58.04 55.7278 57.014ZM46.5838 65.438V52.01H50.0578V53.288C50.4898 52.82 51.8038 51.812 54.0718 51.812H54.3058C58.1218 51.812 59.3638 54.422 59.3638 56.798V57.104C59.3638 59.282 58.0858 62.198 54.2878 62.198H54.0358C51.7498 62.198 50.5258 61.154 50.0938 60.722V65.438H46.5838ZM67.6197 54.08C65.8017 54.08 65.1177 54.818 64.9377 55.862H70.2297C70.2297 55.124 69.8697 54.08 67.6197 54.08ZM70.3017 58.886H73.9557C73.9557 59.714 73.3077 62.234 68.1417 62.234H67.4757C62.5437 62.234 61.3197 59.534 61.3197 57.14V56.888C61.3197 54.638 62.4357 51.794 67.1697 51.794H67.9617C73.0737 51.794 73.9917 54.638 73.9917 57.428V57.752H64.9017C65.0457 58.904 65.7837 59.84 67.9257 59.84C69.9597 59.84 70.2117 59.048 70.3017 58.886ZM84.6395 62H76.3955V52.01H84.2795C86.5655 52.01 88.0055 52.82 88.0055 54.404V54.494C88.0055 55.736 87.2135 56.474 86.0075 56.672C87.2315 56.816 88.3295 57.68 88.3295 59.12V59.192C88.3295 61.01 87.1415 62 84.6395 62ZM79.9055 55.988H83.1275C83.9735 55.988 84.4055 55.664 84.4055 55.034V54.944C84.4055 54.368 84.0095 54.026 83.1275 54.026H79.9055V55.988ZM79.9055 59.984H83.2715C84.2075 59.984 84.7295 59.678 84.7295 58.976V58.832C84.7295 58.202 84.2975 57.806 83.2715 57.806H79.9055V59.984Z" fill="url(#paint2_radial_2018_1420)"/>
<path d="M9.728 9.716H4.364V14H0.656V0.608H9.728C13.958 0.608 15.272 2.462 15.272 5.054V5.252C15.272 7.79 13.904 9.716 9.728 9.716ZM4.364 3.596V6.728H9.458C10.826 6.728 11.42 6.152 11.42 5.198V5.126C11.42 4.19 10.826 3.596 9.458 3.596H4.364ZM23.474 14.27H22.916C17.534 14.27 16.706 10.994 16.706 9.176V8.924C16.706 7.124 17.534 3.74 22.898 3.74H23.492C29.036 3.74 29.684 7.142 29.684 8.906V9.194C29.684 10.994 29.036 14.27 23.474 14.27ZM23.096 11.642H23.294C25.508 11.642 26.066 10.058 26.066 8.96C26.066 7.826 25.508 6.314 23.294 6.314H23.096C20.792 6.314 20.324 7.826 20.324 8.96C20.324 10.058 20.792 11.642 23.096 11.642ZM35.3386 7.268V14H32.0986V4.01H37.0486L40.0186 10.382L42.9886 4.01H47.7586V14H44.2486V7.268L41.1346 14H38.4526L35.3386 7.268ZM55.2717 12.002C57.3237 12.002 58.0257 10.706 58.0257 9.95V9.176C57.7197 9.302 56.8377 9.482 55.8297 9.644C54.1377 9.932 53.5977 10.166 53.5977 10.868V10.904C53.5977 11.534 54.0477 12.002 55.2717 12.002ZM58.1337 12.614C57.7017 13.136 56.6217 14.198 54.2817 14.198H53.9937C51.2037 14.198 50.0517 12.686 50.0517 11.03V10.958C50.0517 9.23 51.1497 8.168 54.5337 7.88L57.2697 7.646C57.8277 7.592 58.0257 7.412 58.0257 6.998C58.0257 6.53 57.8817 6.026 55.9377 6.026C54.1017 6.026 53.9217 6.746 53.9217 7.124H50.3217V7.088C50.3217 6.098 50.7177 3.776 55.6317 3.776H56.1897C61.1397 3.776 61.4457 5.81 61.4457 7.142V10.436C61.4457 11.066 61.5717 11.318 62.2737 11.318H62.6517V14H59.8077C58.7637 14 58.2777 13.262 58.1337 12.614ZM68.1633 14H64.6533V4.01H68.1633V7.646H73.0593V4.01H76.5693V14H73.0593V10.31H68.1633V14ZM0.656 38V24.608H10.43C14.264 24.608 15.218 26.282 15.218 27.776V27.974C15.218 29.666 13.76 30.476 12.752 30.62C14.264 30.872 15.884 31.772 15.884 33.932V34.13C15.884 35.948 14.786 38 10.484 38H0.656ZM9.89 27.398H4.364V29.792H9.89C11.024 29.792 11.348 29.252 11.348 28.622V28.586C11.348 27.938 10.988 27.398 9.89 27.398ZM10.178 32.42H4.364V35.066H10.178C11.474 35.066 11.852 34.382 11.852 33.716V33.644C11.852 32.978 11.474 32.42 10.178 32.42ZM26.7062 31.952L21.8822 38H18.2822V28.01H21.7922V34.058L26.6162 28.01H30.2162V38H26.7062V31.952ZM40.5697 38L36.6817 33.374V38H33.1717V28.01H36.6817V32.006L40.2457 28.01H44.2957L40.1197 32.492L44.7457 38H40.5697ZM49.0583 38V30.674H45.1883V28.01H56.4383V30.674H52.5683V38H49.0583ZM64.6068 38.27H64.0488C58.6668 38.27 57.8388 34.994 57.8388 33.176V32.924C57.8388 31.124 58.6668 27.74 64.0308 27.74H64.6248C70.1688 27.74 70.8168 31.142 70.8168 32.906V33.194C70.8168 34.994 70.1688 38.27 64.6068 38.27ZM64.2288 35.642H64.4268C66.6408 35.642 67.1988 34.058 67.1988 32.96C67.1988 31.826 66.6408 30.314 64.4268 30.314H64.2288C61.9248 30.314 61.4568 31.826 61.4568 32.96C61.4568 34.058 61.9248 35.642 64.2288 35.642ZM82.4114 33.014V32.96C82.4114 31.88 81.9074 30.422 79.7114 30.422H79.5314C77.4254 30.422 76.7594 31.808 76.7594 32.96V33.014C76.7594 34.112 77.4254 35.552 79.5314 35.552H79.7114C81.9074 35.552 82.4114 34.04 82.4114 33.014ZM73.2674 41.438V28.01H76.7414V29.288C77.1734 28.82 78.4874 27.812 80.7554 27.812H80.9894C84.8054 27.812 86.0474 30.422 86.0474 32.798V33.104C86.0474 35.282 84.7694 38.198 80.9714 38.198H80.7194C78.4334 38.198 77.2094 37.154 76.7774 36.722V41.438H73.2674ZM94.7533 38.27H94.1953C88.8133 38.27 87.9853 34.994 87.9853 33.176V32.924C87.9853 31.124 88.8133 27.74 94.1773 27.74H94.7713C100.315 27.74 100.963 31.142 100.963 32.906V33.194C100.963 34.994 100.315 38.27 94.7533 38.27ZM94.3753 35.642H94.5733C96.7873 35.642 97.3453 34.058 97.3453 32.96C97.3453 31.826 96.7873 30.314 94.5733 30.314H94.3753C92.0713 30.314 91.6033 31.826 91.6033 32.96C91.6033 34.058 92.0713 35.642 94.3753 35.642ZM111.622 38H103.378V28.01H111.262C113.548 28.01 114.988 28.82 114.988 30.404V30.494C114.988 31.736 114.196 32.474 112.99 32.672C114.214 32.816 115.312 33.68 115.312 35.12V35.192C115.312 37.01 114.124 38 111.622 38ZM106.888 31.988H110.11C110.956 31.988 111.388 31.664 111.388 31.034V30.944C111.388 30.368 110.992 30.026 110.11 30.026H106.888V31.988ZM106.888 35.984H110.254C111.19 35.984 111.712 35.678 111.712 34.976V34.832C111.712 34.202 111.28 33.806 110.254 33.806H106.888V35.984ZM126.181 31.952L121.357 38H117.757V28.01H121.267V34.058L126.091 28.01H129.691V38H126.181V31.952ZM140.026 28.01H143.536V38H140.026V34.562C139.252 34.652 138.352 34.742 137.416 34.742C133.456 34.742 131.962 33.626 131.962 30.458V28.01H135.472V29.81C135.472 31.682 136.102 32.006 137.956 32.006C138.658 32.006 139.468 31.952 140.026 31.88V28.01ZM15.272 57.968V58.148C15.272 61.01 12.608 62.234 7.928 62.234H7.496C3.68 62.234 0.00800003 61.1 0.00800003 57.5V57.284H3.968C3.968 58.94 5.444 59.516 8.126 59.516C10.358 59.516 11.42 58.922 11.42 57.842C11.42 56.834 10.718 56.402 8.972 56.402H5.102V53.756H8.774C9.854 53.756 11.006 53.594 11.006 52.586C11.006 51.452 10.034 51.092 7.676 51.092C5.75 51.092 4.13 51.452 4.076 52.964H0.116V52.694C0.116 49.508 3.59 48.446 7.316 48.446H7.892C12.41 48.446 14.858 49.58 14.858 51.83V51.956C14.858 53.666 13.724 54.494 12.284 54.872C13.724 55.16 15.272 56.096 15.272 57.968ZM25.8231 62H17.5791V52.01H25.4631C27.7491 52.01 29.1891 52.82 29.1891 54.404V54.494C29.1891 55.736 28.3971 56.474 27.1911 56.672C28.4151 56.816 29.5131 57.68 29.5131 59.12V59.192C29.5131 61.01 28.3251 62 25.8231 62ZM21.0891 55.988H24.3111C25.1571 55.988 25.5891 55.664 25.5891 55.034V54.944C25.5891 54.368 25.1931 54.026 24.3111 54.026H21.0891V55.988ZM21.0891 59.984H24.4551C25.3911 59.984 25.9131 59.678 25.9131 58.976V58.832C25.9131 58.202 25.4811 57.806 24.4551 57.806H21.0891V59.984ZM37.772 54.08C35.954 54.08 35.27 54.818 35.09 55.862H40.382C40.382 55.124 40.022 54.08 37.772 54.08ZM40.454 58.886H44.108C44.108 59.714 43.46 62.234 38.294 62.234H37.628C32.696 62.234 31.472 59.534 31.472 57.14V56.888C31.472 54.638 32.588 51.794 37.322 51.794H38.114C43.226 51.794 44.144 54.638 44.144 57.428V57.752H35.054C35.198 58.904 35.936 59.84 38.078 59.84C40.112 59.84 40.364 59.048 40.454 58.886ZM55.7278 57.014V56.96C55.7278 55.88 55.2238 54.422 53.0278 54.422H52.8478C50.7418 54.422 50.0758 55.808 50.0758 56.96V57.014C50.0758 58.112 50.7418 59.552 52.8478 59.552H53.0278C55.2238 59.552 55.7278 58.04 55.7278 57.014ZM46.5838 65.438V52.01H50.0578V53.288C50.4898 52.82 51.8038 51.812 54.0718 51.812H54.3058C58.1218 51.812 59.3638 54.422 59.3638 56.798V57.104C59.3638 59.282 58.0858 62.198 54.2878 62.198H54.0358C51.7498 62.198 50.5258 61.154 50.0938 60.722V65.438H46.5838ZM67.6197 54.08C65.8017 54.08 65.1177 54.818 64.9377 55.862H70.2297C70.2297 55.124 69.8697 54.08 67.6197 54.08ZM70.3017 58.886H73.9557C73.9557 59.714 73.3077 62.234 68.1417 62.234H67.4757C62.5437 62.234 61.3197 59.534 61.3197 57.14V56.888C61.3197 54.638 62.4357 51.794 67.1697 51.794H67.9617C73.0737 51.794 73.9917 54.638 73.9917 57.428V57.752H64.9017C65.0457 58.904 65.7837 59.84 67.9257 59.84C69.9597 59.84 70.2117 59.048 70.3017 58.886ZM84.6395 62H76.3955V52.01H84.2795C86.5655 52.01 88.0055 52.82 88.0055 54.404V54.494C88.0055 55.736 87.2135 56.474 86.0075 56.672C87.2315 56.816 88.3295 57.68 88.3295 59.12V59.192C88.3295 61.01 87.1415 62 84.6395 62ZM79.9055 55.988H83.1275C83.9735 55.988 84.4055 55.664 84.4055 55.034V54.944C84.4055 54.368 84.0095 54.026 83.1275 54.026H79.9055V55.988ZM79.9055 59.984H83.2715C84.2075 59.984 84.7295 59.678 84.7295 58.976V58.832C84.7295 58.202 84.2975 57.806 83.2715 57.806H79.9055V59.984Z" fill="#C1A875" style="mix-blend-mode:color"/>
<defs>
<linearGradient id="paint0_linear_2018_1420" x1="-0.999999" y1="42" x2="221" y2="42" gradientUnits="userSpaceOnUse">
<stop stop-color="#576167"/>
<stop offset="0.191294" stop-color="#9EA1A2"/>
<stop offset="0.396166" stop-color="#848989"/>
<stop offset="0.62055" stop-color="#576167"/>
<stop offset="0.830299" stop-color="#757A7C"/>
<stop offset="1" stop-color="#576167"/>
</linearGradient>
<radialGradient id="paint1_radial_2018_1420" cx="0" cy="0" r="1" gradientUnits="userSpaceOnUse" gradientTransform="translate(117.226 5.19101) rotate(90) scale(71.3258 167.95)">
<stop stop-color="white"/>
<stop offset="1" stop-color="white" stop-opacity="0"/>
</radialGradient>
<radialGradient id="paint2_radial_2018_1420" cx="0" cy="0" r="1" gradientUnits="userSpaceOnUse" gradientTransform="translate(129.783 112.652) rotate(-89.8008) scale(102.203 240.163)">
<stop stop-color="white"/>
<stop offset="1" stop-color="white" stop-opacity="0"/>
</radialGradient>
</defs>
</svg>
