<svg width="156" height="66" viewBox="0 0 156 66" fill="none" xmlns="http://www.w3.org/2000/svg">
<path d="M0.656 14V0.608H10.43C14.264 0.608 15.218 2.282 15.218 3.776V3.974C15.218 5.666 13.76 6.476 12.752 6.62C14.264 6.872 15.884 7.772 15.884 9.932V10.13C15.884 11.948 14.786 14 10.484 14H0.656ZM9.89 3.398H4.364V5.792H9.89C11.024 5.792 11.348 5.252 11.348 4.622V4.586C11.348 3.938 10.988 3.398 9.89 3.398ZM10.178 8.42H4.364V11.066H10.178C11.474 11.066 11.852 10.382 11.852 9.716V9.644C11.852 8.978 11.474 8.42 10.178 8.42ZM22.9982 12.002C25.0502 12.002 25.7522 10.706 25.7522 9.95V9.176C25.4462 9.302 24.5642 9.482 23.5562 9.644C21.8642 9.932 21.3242 10.166 21.3242 10.868V10.904C21.3242 11.534 21.7742 12.002 22.9982 12.002ZM25.8602 12.614C25.4282 13.136 24.3482 14.198 22.0082 14.198H21.7202C18.9302 14.198 17.7782 12.686 17.7782 11.03V10.958C17.7782 9.23 18.8762 8.168 22.2602 7.88L24.9962 7.646C25.5542 7.592 25.7522 7.412 25.7522 6.998C25.7522 6.53 25.6082 6.026 23.6642 6.026C21.8282 6.026 21.6482 6.746 21.6482 7.124H18.0482V7.088C18.0482 6.098 18.4442 3.776 23.3582 3.776H23.9162C28.8662 3.776 29.1722 5.81 29.1722 7.142V10.436C29.1722 11.066 29.2982 11.318 30.0002 11.318H30.3782V14H27.5342C26.4902 14 26.0042 13.262 25.8602 12.614ZM40.7319 10.076H44.4039C44.4039 11.588 43.5039 14.27 38.6979 14.27H37.8159C32.8299 14.27 31.8939 11.03 31.8939 9.14V8.888C31.8939 6.998 32.7759 3.74 37.7979 3.74H38.6259C43.4499 3.74 44.4039 6.368 44.4039 7.808V7.826H40.7319C40.6779 7.538 40.3359 6.296 38.2659 6.296H38.0859C36.0159 6.296 35.5299 7.718 35.5299 8.924V8.942C35.5299 10.184 36.1239 11.66 38.1579 11.66H38.3379C40.4259 11.66 40.7319 10.31 40.7319 10.076ZM55.2179 7.952L50.3939 14H46.7939V4.01H50.3039V10.058L55.1279 4.01H58.7279V14H55.2179V7.952ZM69.8375 14V6.674H65.8775C65.8775 9.356 65.7875 10.85 65.4455 11.768C65.0675 12.776 64.5635 14 61.9175 14H60.8195V11.39H61.0355C61.6655 11.39 62.1335 11.174 62.3315 10.256C62.4755 9.482 62.5295 8.636 62.5295 4.01H73.3475V14H69.8375ZM84.6789 7.952L79.8549 14H76.2549V4.01H79.7649V10.058L84.5889 4.01H88.1889V14H84.6789V7.952ZM99.4604 10.076H103.132C103.132 11.588 102.232 14.27 97.4264 14.27H96.5444C91.5584 14.27 90.6224 11.03 90.6224 9.14V8.888C90.6224 6.998 91.5044 3.74 96.5264 3.74H97.3544C102.178 3.74 103.132 6.368 103.132 7.808V7.826H99.4604C99.4064 7.538 99.0644 6.296 96.9944 6.296H96.8144C94.7444 6.296 94.2584 7.718 94.2584 8.924V8.942C94.2584 10.184 94.8524 11.66 96.8864 11.66H97.0664C99.1544 11.66 99.4604 10.31 99.4604 10.076ZM110.238 12.002C112.29 12.002 112.992 10.706 112.992 9.95V9.176C112.686 9.302 111.804 9.482 110.796 9.644C109.104 9.932 108.564 10.166 108.564 10.868V10.904C108.564 11.534 109.014 12.002 110.238 12.002ZM113.1 12.614C112.668 13.136 111.588 14.198 109.248 14.198H108.96C106.17 14.198 105.018 12.686 105.018 11.03V10.958C105.018 9.23 106.116 8.168 109.5 7.88L112.236 7.646C112.794 7.592 112.992 7.412 112.992 6.998C112.992 6.53 112.848 6.026 110.904 6.026C109.068 6.026 108.888 6.746 108.888 7.124H105.288V7.088C105.288 6.098 105.684 3.776 110.598 3.776H111.156C116.106 3.776 116.412 5.81 116.412 7.142V10.436C116.412 11.066 116.538 11.318 117.24 11.318H117.618V14H114.774C113.73 14 113.244 13.262 113.1 12.614ZM0.656 38V24.608H11.816V27.56H4.364V38H0.656ZM18.19 30.08C16.372 30.08 15.688 30.818 15.508 31.862H20.8C20.8 31.124 20.44 30.08 18.19 30.08ZM20.872 34.886H24.526C24.526 35.714 23.878 38.234 18.712 38.234H18.046C13.114 38.234 11.89 35.534 11.89 33.14V32.888C11.89 30.638 13.006 27.794 17.74 27.794H18.532C23.644 27.794 24.562 30.638 24.562 33.428V33.752H15.472C15.616 34.904 16.354 35.84 18.496 35.84C20.53 35.84 20.782 35.048 20.872 34.886ZM30.4758 38H26.9658V28.01H30.4758V31.646H35.3718V28.01H38.8818V38H35.3718V34.31H30.4758V38ZM45.3118 38H41.8018V28.01H45.3118V31.646H50.2078V28.01H53.7178V38H50.2078V34.31H45.3118V38ZM61.3537 36.002C63.4057 36.002 64.1077 34.706 64.1077 33.95V33.176C63.8017 33.302 62.9197 33.482 61.9117 33.644C60.2197 33.932 59.6797 34.166 59.6797 34.868V34.904C59.6797 35.534 60.1297 36.002 61.3537 36.002ZM64.2157 36.614C63.7837 37.136 62.7037 38.198 60.3637 38.198H60.0757C57.2857 38.198 56.1337 36.686 56.1337 35.03V34.958C56.1337 33.23 57.2317 32.168 60.6157 31.88L63.3517 31.646C63.9097 31.592 64.1077 31.412 64.1077 30.998C64.1077 30.53 63.9637 30.026 62.0197 30.026C60.1837 30.026 60.0037 30.746 60.0037 31.124H56.4037V31.088C56.4037 30.098 56.7997 27.776 61.7137 27.776H62.2717C67.2217 27.776 67.5277 29.81 67.5277 31.142V34.436C67.5277 35.066 67.6537 35.318 68.3557 35.318H68.7337V38H65.8897C64.8457 38 64.3597 37.262 64.2157 36.614ZM70.2589 40.124V35.336H71.4649C72.1489 33.968 72.2569 30.998 72.3469 28.01H82.9129V35.336H84.7129V40.124H81.3829V38H73.5889V40.124H70.2589ZM74.7769 35.336H79.4029V30.674H75.4969C75.4429 31.97 75.2629 33.95 74.7769 35.336ZM86.8018 38V28.01H90.3118V30.872H93.0478C96.4678 30.872 97.7998 32.384 97.7998 34.292V34.508C97.7998 36.596 96.4678 38 93.0478 38H86.8018ZM90.3118 35.624H92.6158C93.3358 35.624 94.1998 35.408 94.1998 34.436V34.382C94.1998 33.482 93.3358 33.248 92.6158 33.248H90.3118V35.624ZM105.87 30.08C104.052 30.08 103.368 30.818 103.188 31.862H108.48C108.48 31.124 108.12 30.08 105.87 30.08ZM108.552 34.886H112.206C112.206 35.714 111.558 38.234 106.392 38.234H105.726C100.794 38.234 99.5697 35.534 99.5697 33.14V32.888C99.5697 30.638 100.686 27.794 105.42 27.794H106.212C111.324 27.794 112.242 30.638 112.242 33.428V33.752H103.152C103.296 34.904 104.034 35.84 106.176 35.84C108.21 35.84 108.462 35.048 108.552 34.886ZM122.89 38H114.646V28.01H122.53C124.816 28.01 126.256 28.82 126.256 30.404V30.494C126.256 31.736 125.464 32.474 124.258 32.672C125.482 32.816 126.58 33.68 126.58 35.12V35.192C126.58 37.01 125.392 38 122.89 38ZM118.156 31.988H121.378C122.224 31.988 122.656 31.664 122.656 31.034V30.944C122.656 30.368 122.26 30.026 121.378 30.026H118.156V31.988ZM118.156 35.984H121.522C122.458 35.984 122.98 35.678 122.98 34.976V34.832C122.98 34.202 122.548 33.806 121.522 33.806H118.156V35.984ZM132.534 38H129.024V28.01H132.534V31.646H137.43V28.01H140.94V38H137.43V34.31H132.534V38ZM148.576 36.002C150.628 36.002 151.33 34.706 151.33 33.95V33.176C151.024 33.302 150.142 33.482 149.134 33.644C147.442 33.932 146.902 34.166 146.902 34.868V34.904C146.902 35.534 147.352 36.002 148.576 36.002ZM151.438 36.614C151.006 37.136 149.926 38.198 147.586 38.198H147.298C144.508 38.198 143.356 36.686 143.356 35.03V34.958C143.356 33.23 144.454 32.168 147.838 31.88L150.574 31.646C151.132 31.592 151.33 31.412 151.33 30.998C151.33 30.53 151.186 30.026 149.242 30.026C147.406 30.026 147.226 30.746 147.226 31.124H143.626V31.088C143.626 30.098 144.022 27.776 148.936 27.776H149.494C154.444 27.776 154.75 29.81 154.75 31.142V34.436C154.75 35.066 154.876 35.318 155.578 35.318H155.956V38H153.112C152.068 38 151.582 37.262 151.438 36.614ZM15.272 57.968V58.148C15.272 61.01 12.608 62.234 7.928 62.234H7.496C3.68 62.234 0.00800003 61.1 0.00800003 57.5V57.284H3.968C3.968 58.94 5.444 59.516 8.126 59.516C10.358 59.516 11.42 58.922 11.42 57.842C11.42 56.834 10.718 56.402 8.972 56.402H5.102V53.756H8.774C9.854 53.756 11.006 53.594 11.006 52.586C11.006 51.452 10.034 51.092 7.676 51.092C5.75 51.092 4.13 51.452 4.076 52.964H0.116V52.694C0.116 49.508 3.59 48.446 7.316 48.446H7.892C12.41 48.446 14.858 49.58 14.858 51.83V51.956C14.858 53.666 13.724 54.494 12.284 54.872C13.724 55.16 15.272 56.096 15.272 57.968ZM22.2951 60.002C24.3471 60.002 25.0491 58.706 25.0491 57.95V57.176C24.7431 57.302 23.8611 57.482 22.8531 57.644C21.1611 57.932 20.6211 58.166 20.6211 58.868V58.904C20.6211 59.534 21.0711 60.002 22.2951 60.002ZM25.1571 60.614C24.7251 61.136 23.6451 62.198 21.3051 62.198H21.0171C18.2271 62.198 17.0751 60.686 17.0751 59.03V58.958C17.0751 57.23 18.1731 56.168 21.5571 55.88L24.2931 55.646C24.8511 55.592 25.0491 55.412 25.0491 54.998C25.0491 54.53 24.9051 54.026 22.9611 54.026C21.1251 54.026 20.9451 54.746 20.9451 55.124H17.3451V55.088C17.3451 54.098 17.7411 51.776 22.6551 51.776H23.2131C28.1631 51.776 28.4691 53.81 28.4691 55.142V58.436C28.4691 59.066 28.5951 59.318 29.2971 59.318H29.6751V62H26.8311C25.7871 62 25.3011 61.262 25.1571 60.614ZM39.6688 62L36.9868 59.138L34.3768 62H30.3988L34.8808 56.996L30.2548 52.01H34.5568L37.1128 54.8L39.5788 52.01H43.4488L39.1468 56.924L43.7188 62H39.6688ZM49.84 60.002C51.892 60.002 52.594 58.706 52.594 57.95V57.176C52.288 57.302 51.406 57.482 50.398 57.644C48.706 57.932 48.166 58.166 48.166 58.868V58.904C48.166 59.534 48.616 60.002 49.84 60.002ZM52.702 60.614C52.27 61.136 51.19 62.198 48.85 62.198H48.562C45.772 62.198 44.62 60.686 44.62 59.03V58.958C44.62 57.23 45.718 56.168 49.102 55.88L51.838 55.646C52.396 55.592 52.594 55.412 52.594 54.998C52.594 54.53 52.45 54.026 50.506 54.026C48.67 54.026 48.49 54.746 48.49 55.124H44.89V55.088C44.89 54.098 45.286 51.776 50.2 51.776H50.758C55.708 51.776 56.014 53.81 56.014 55.142V58.436C56.014 59.066 56.14 59.318 56.842 59.318H57.22V62H54.376C53.332 62 52.846 61.262 52.702 60.614ZM68.4017 57.014V56.96C68.4017 55.88 67.8977 54.422 65.7017 54.422H65.5217C63.4157 54.422 62.7497 55.808 62.7497 56.96V57.014C62.7497 58.112 63.4157 59.552 65.5217 59.552H65.7017C67.8977 59.552 68.4017 58.04 68.4017 57.014ZM59.2577 65.438V52.01H62.7317V53.288C63.1637 52.82 64.4777 51.812 66.7457 51.812H66.9797C70.7957 51.812 72.0377 54.422 72.0377 56.798V57.104C72.0377 59.282 70.7597 62.198 66.9617 62.198H66.7097C64.4237 62.198 63.1997 61.154 62.7677 60.722V65.438H59.2577ZM81.8955 52.01H85.4055V62H81.8955V58.562C81.1215 58.652 80.2215 58.742 79.2855 58.742C75.3255 58.742 73.8315 57.626 73.8315 54.458V52.01H77.3415V53.81C77.3415 55.682 77.9715 56.006 79.8255 56.006C80.5275 56.006 81.3375 55.952 81.8955 55.88V52.01ZM94.1275 54.08C92.3095 54.08 91.6255 54.818 91.4455 55.862H96.7375C96.7375 55.124 96.3775 54.08 94.1275 54.08ZM96.8095 58.886H100.463C100.463 59.714 99.8155 62.234 94.6495 62.234H93.9835C89.0515 62.234 87.8275 59.534 87.8275 57.14V56.888C87.8275 54.638 88.9435 51.794 93.6775 51.794H94.4695C99.5815 51.794 100.499 54.638 100.499 57.428V57.752H91.4095C91.5535 58.904 92.2915 59.84 94.4335 59.84C96.4675 59.84 96.7195 59.048 96.8095 58.886ZM106.413 62H102.903V52.01H106.413V55.646H111.309V52.01H114.819V62H111.309V58.31H106.413V62ZM125.173 62L121.285 57.374V62H117.775V52.01H121.285V56.006L124.849 52.01H128.899L124.723 56.492L129.349 62H125.173ZM136.607 62.27H136.049C130.667 62.27 129.839 58.994 129.839 57.176V56.924C129.839 55.124 130.667 51.74 136.031 51.74H136.625C142.169 51.74 142.817 55.142 142.817 56.906V57.194C142.817 58.994 142.169 62.27 136.607 62.27ZM136.229 59.642H136.427C138.641 59.642 139.199 58.058 139.199 56.96C139.199 55.826 138.641 54.314 136.427 54.314H136.229C133.925 54.314 133.457 55.826 133.457 56.96C133.457 58.058 133.925 59.642 136.229 59.642Z" fill="url(#paint0_linear_2018_1448)"/>
<path d="M0.656 14V0.608H10.43C14.264 0.608 15.218 2.282 15.218 3.776V3.974C15.218 5.666 13.76 6.476 12.752 6.62C14.264 6.872 15.884 7.772 15.884 9.932V10.13C15.884 11.948 14.786 14 10.484 14H0.656ZM9.89 3.398H4.364V5.792H9.89C11.024 5.792 11.348 5.252 11.348 4.622V4.586C11.348 3.938 10.988 3.398 9.89 3.398ZM10.178 8.42H4.364V11.066H10.178C11.474 11.066 11.852 10.382 11.852 9.716V9.644C11.852 8.978 11.474 8.42 10.178 8.42ZM22.9982 12.002C25.0502 12.002 25.7522 10.706 25.7522 9.95V9.176C25.4462 9.302 24.5642 9.482 23.5562 9.644C21.8642 9.932 21.3242 10.166 21.3242 10.868V10.904C21.3242 11.534 21.7742 12.002 22.9982 12.002ZM25.8602 12.614C25.4282 13.136 24.3482 14.198 22.0082 14.198H21.7202C18.9302 14.198 17.7782 12.686 17.7782 11.03V10.958C17.7782 9.23 18.8762 8.168 22.2602 7.88L24.9962 7.646C25.5542 7.592 25.7522 7.412 25.7522 6.998C25.7522 6.53 25.6082 6.026 23.6642 6.026C21.8282 6.026 21.6482 6.746 21.6482 7.124H18.0482V7.088C18.0482 6.098 18.4442 3.776 23.3582 3.776H23.9162C28.8662 3.776 29.1722 5.81 29.1722 7.142V10.436C29.1722 11.066 29.2982 11.318 30.0002 11.318H30.3782V14H27.5342C26.4902 14 26.0042 13.262 25.8602 12.614ZM40.7319 10.076H44.4039C44.4039 11.588 43.5039 14.27 38.6979 14.27H37.8159C32.8299 14.27 31.8939 11.03 31.8939 9.14V8.888C31.8939 6.998 32.7759 3.74 37.7979 3.74H38.6259C43.4499 3.74 44.4039 6.368 44.4039 7.808V7.826H40.7319C40.6779 7.538 40.3359 6.296 38.2659 6.296H38.0859C36.0159 6.296 35.5299 7.718 35.5299 8.924V8.942C35.5299 10.184 36.1239 11.66 38.1579 11.66H38.3379C40.4259 11.66 40.7319 10.31 40.7319 10.076ZM55.2179 7.952L50.3939 14H46.7939V4.01H50.3039V10.058L55.1279 4.01H58.7279V14H55.2179V7.952ZM69.8375 14V6.674H65.8775C65.8775 9.356 65.7875 10.85 65.4455 11.768C65.0675 12.776 64.5635 14 61.9175 14H60.8195V11.39H61.0355C61.6655 11.39 62.1335 11.174 62.3315 10.256C62.4755 9.482 62.5295 8.636 62.5295 4.01H73.3475V14H69.8375ZM84.6789 7.952L79.8549 14H76.2549V4.01H79.7649V10.058L84.5889 4.01H88.1889V14H84.6789V7.952ZM99.4604 10.076H103.132C103.132 11.588 102.232 14.27 97.4264 14.27H96.5444C91.5584 14.27 90.6224 11.03 90.6224 9.14V8.888C90.6224 6.998 91.5044 3.74 96.5264 3.74H97.3544C102.178 3.74 103.132 6.368 103.132 7.808V7.826H99.4604C99.4064 7.538 99.0644 6.296 96.9944 6.296H96.8144C94.7444 6.296 94.2584 7.718 94.2584 8.924V8.942C94.2584 10.184 94.8524 11.66 96.8864 11.66H97.0664C99.1544 11.66 99.4604 10.31 99.4604 10.076ZM110.238 12.002C112.29 12.002 112.992 10.706 112.992 9.95V9.176C112.686 9.302 111.804 9.482 110.796 9.644C109.104 9.932 108.564 10.166 108.564 10.868V10.904C108.564 11.534 109.014 12.002 110.238 12.002ZM113.1 12.614C112.668 13.136 111.588 14.198 109.248 14.198H108.96C106.17 14.198 105.018 12.686 105.018 11.03V10.958C105.018 9.23 106.116 8.168 109.5 7.88L112.236 7.646C112.794 7.592 112.992 7.412 112.992 6.998C112.992 6.53 112.848 6.026 110.904 6.026C109.068 6.026 108.888 6.746 108.888 7.124H105.288V7.088C105.288 6.098 105.684 3.776 110.598 3.776H111.156C116.106 3.776 116.412 5.81 116.412 7.142V10.436C116.412 11.066 116.538 11.318 117.24 11.318H117.618V14H114.774C113.73 14 113.244 13.262 113.1 12.614ZM0.656 38V24.608H11.816V27.56H4.364V38H0.656ZM18.19 30.08C16.372 30.08 15.688 30.818 15.508 31.862H20.8C20.8 31.124 20.44 30.08 18.19 30.08ZM20.872 34.886H24.526C24.526 35.714 23.878 38.234 18.712 38.234H18.046C13.114 38.234 11.89 35.534 11.89 33.14V32.888C11.89 30.638 13.006 27.794 17.74 27.794H18.532C23.644 27.794 24.562 30.638 24.562 33.428V33.752H15.472C15.616 34.904 16.354 35.84 18.496 35.84C20.53 35.84 20.782 35.048 20.872 34.886ZM30.4758 38H26.9658V28.01H30.4758V31.646H35.3718V28.01H38.8818V38H35.3718V34.31H30.4758V38ZM45.3118 38H41.8018V28.01H45.3118V31.646H50.2078V28.01H53.7178V38H50.2078V34.31H45.3118V38ZM61.3537 36.002C63.4057 36.002 64.1077 34.706 64.1077 33.95V33.176C63.8017 33.302 62.9197 33.482 61.9117 33.644C60.2197 33.932 59.6797 34.166 59.6797 34.868V34.904C59.6797 35.534 60.1297 36.002 61.3537 36.002ZM64.2157 36.614C63.7837 37.136 62.7037 38.198 60.3637 38.198H60.0757C57.2857 38.198 56.1337 36.686 56.1337 35.03V34.958C56.1337 33.23 57.2317 32.168 60.6157 31.88L63.3517 31.646C63.9097 31.592 64.1077 31.412 64.1077 30.998C64.1077 30.53 63.9637 30.026 62.0197 30.026C60.1837 30.026 60.0037 30.746 60.0037 31.124H56.4037V31.088C56.4037 30.098 56.7997 27.776 61.7137 27.776H62.2717C67.2217 27.776 67.5277 29.81 67.5277 31.142V34.436C67.5277 35.066 67.6537 35.318 68.3557 35.318H68.7337V38H65.8897C64.8457 38 64.3597 37.262 64.2157 36.614ZM70.2589 40.124V35.336H71.4649C72.1489 33.968 72.2569 30.998 72.3469 28.01H82.9129V35.336H84.7129V40.124H81.3829V38H73.5889V40.124H70.2589ZM74.7769 35.336H79.4029V30.674H75.4969C75.4429 31.97 75.2629 33.95 74.7769 35.336ZM86.8018 38V28.01H90.3118V30.872H93.0478C96.4678 30.872 97.7998 32.384 97.7998 34.292V34.508C97.7998 36.596 96.4678 38 93.0478 38H86.8018ZM90.3118 35.624H92.6158C93.3358 35.624 94.1998 35.408 94.1998 34.436V34.382C94.1998 33.482 93.3358 33.248 92.6158 33.248H90.3118V35.624ZM105.87 30.08C104.052 30.08 103.368 30.818 103.188 31.862H108.48C108.48 31.124 108.12 30.08 105.87 30.08ZM108.552 34.886H112.206C112.206 35.714 111.558 38.234 106.392 38.234H105.726C100.794 38.234 99.5697 35.534 99.5697 33.14V32.888C99.5697 30.638 100.686 27.794 105.42 27.794H106.212C111.324 27.794 112.242 30.638 112.242 33.428V33.752H103.152C103.296 34.904 104.034 35.84 106.176 35.84C108.21 35.84 108.462 35.048 108.552 34.886ZM122.89 38H114.646V28.01H122.53C124.816 28.01 126.256 28.82 126.256 30.404V30.494C126.256 31.736 125.464 32.474 124.258 32.672C125.482 32.816 126.58 33.68 126.58 35.12V35.192C126.58 37.01 125.392 38 122.89 38ZM118.156 31.988H121.378C122.224 31.988 122.656 31.664 122.656 31.034V30.944C122.656 30.368 122.26 30.026 121.378 30.026H118.156V31.988ZM118.156 35.984H121.522C122.458 35.984 122.98 35.678 122.98 34.976V34.832C122.98 34.202 122.548 33.806 121.522 33.806H118.156V35.984ZM132.534 38H129.024V28.01H132.534V31.646H137.43V28.01H140.94V38H137.43V34.31H132.534V38ZM148.576 36.002C150.628 36.002 151.33 34.706 151.33 33.95V33.176C151.024 33.302 150.142 33.482 149.134 33.644C147.442 33.932 146.902 34.166 146.902 34.868V34.904C146.902 35.534 147.352 36.002 148.576 36.002ZM151.438 36.614C151.006 37.136 149.926 38.198 147.586 38.198H147.298C144.508 38.198 143.356 36.686 143.356 35.03V34.958C143.356 33.23 144.454 32.168 147.838 31.88L150.574 31.646C151.132 31.592 151.33 31.412 151.33 30.998C151.33 30.53 151.186 30.026 149.242 30.026C147.406 30.026 147.226 30.746 147.226 31.124H143.626V31.088C143.626 30.098 144.022 27.776 148.936 27.776H149.494C154.444 27.776 154.75 29.81 154.75 31.142V34.436C154.75 35.066 154.876 35.318 155.578 35.318H155.956V38H153.112C152.068 38 151.582 37.262 151.438 36.614ZM15.272 57.968V58.148C15.272 61.01 12.608 62.234 7.928 62.234H7.496C3.68 62.234 0.00800003 61.1 0.00800003 57.5V57.284H3.968C3.968 58.94 5.444 59.516 8.126 59.516C10.358 59.516 11.42 58.922 11.42 57.842C11.42 56.834 10.718 56.402 8.972 56.402H5.102V53.756H8.774C9.854 53.756 11.006 53.594 11.006 52.586C11.006 51.452 10.034 51.092 7.676 51.092C5.75 51.092 4.13 51.452 4.076 52.964H0.116V52.694C0.116 49.508 3.59 48.446 7.316 48.446H7.892C12.41 48.446 14.858 49.58 14.858 51.83V51.956C14.858 53.666 13.724 54.494 12.284 54.872C13.724 55.16 15.272 56.096 15.272 57.968ZM22.2951 60.002C24.3471 60.002 25.0491 58.706 25.0491 57.95V57.176C24.7431 57.302 23.8611 57.482 22.8531 57.644C21.1611 57.932 20.6211 58.166 20.6211 58.868V58.904C20.6211 59.534 21.0711 60.002 22.2951 60.002ZM25.1571 60.614C24.7251 61.136 23.6451 62.198 21.3051 62.198H21.0171C18.2271 62.198 17.0751 60.686 17.0751 59.03V58.958C17.0751 57.23 18.1731 56.168 21.5571 55.88L24.2931 55.646C24.8511 55.592 25.0491 55.412 25.0491 54.998C25.0491 54.53 24.9051 54.026 22.9611 54.026C21.1251 54.026 20.9451 54.746 20.9451 55.124H17.3451V55.088C17.3451 54.098 17.7411 51.776 22.6551 51.776H23.2131C28.1631 51.776 28.4691 53.81 28.4691 55.142V58.436C28.4691 59.066 28.5951 59.318 29.2971 59.318H29.6751V62H26.8311C25.7871 62 25.3011 61.262 25.1571 60.614ZM39.6688 62L36.9868 59.138L34.3768 62H30.3988L34.8808 56.996L30.2548 52.01H34.5568L37.1128 54.8L39.5788 52.01H43.4488L39.1468 56.924L43.7188 62H39.6688ZM49.84 60.002C51.892 60.002 52.594 58.706 52.594 57.95V57.176C52.288 57.302 51.406 57.482 50.398 57.644C48.706 57.932 48.166 58.166 48.166 58.868V58.904C48.166 59.534 48.616 60.002 49.84 60.002ZM52.702 60.614C52.27 61.136 51.19 62.198 48.85 62.198H48.562C45.772 62.198 44.62 60.686 44.62 59.03V58.958C44.62 57.23 45.718 56.168 49.102 55.88L51.838 55.646C52.396 55.592 52.594 55.412 52.594 54.998C52.594 54.53 52.45 54.026 50.506 54.026C48.67 54.026 48.49 54.746 48.49 55.124H44.89V55.088C44.89 54.098 45.286 51.776 50.2 51.776H50.758C55.708 51.776 56.014 53.81 56.014 55.142V58.436C56.014 59.066 56.14 59.318 56.842 59.318H57.22V62H54.376C53.332 62 52.846 61.262 52.702 60.614ZM68.4017 57.014V56.96C68.4017 55.88 67.8977 54.422 65.7017 54.422H65.5217C63.4157 54.422 62.7497 55.808 62.7497 56.96V57.014C62.7497 58.112 63.4157 59.552 65.5217 59.552H65.7017C67.8977 59.552 68.4017 58.04 68.4017 57.014ZM59.2577 65.438V52.01H62.7317V53.288C63.1637 52.82 64.4777 51.812 66.7457 51.812H66.9797C70.7957 51.812 72.0377 54.422 72.0377 56.798V57.104C72.0377 59.282 70.7597 62.198 66.9617 62.198H66.7097C64.4237 62.198 63.1997 61.154 62.7677 60.722V65.438H59.2577ZM81.8955 52.01H85.4055V62H81.8955V58.562C81.1215 58.652 80.2215 58.742 79.2855 58.742C75.3255 58.742 73.8315 57.626 73.8315 54.458V52.01H77.3415V53.81C77.3415 55.682 77.9715 56.006 79.8255 56.006C80.5275 56.006 81.3375 55.952 81.8955 55.88V52.01ZM94.1275 54.08C92.3095 54.08 91.6255 54.818 91.4455 55.862H96.7375C96.7375 55.124 96.3775 54.08 94.1275 54.08ZM96.8095 58.886H100.463C100.463 59.714 99.8155 62.234 94.6495 62.234H93.9835C89.0515 62.234 87.8275 59.534 87.8275 57.14V56.888C87.8275 54.638 88.9435 51.794 93.6775 51.794H94.4695C99.5815 51.794 100.499 54.638 100.499 57.428V57.752H91.4095C91.5535 58.904 92.2915 59.84 94.4335 59.84C96.4675 59.84 96.7195 59.048 96.8095 58.886ZM106.413 62H102.903V52.01H106.413V55.646H111.309V52.01H114.819V62H111.309V58.31H106.413V62ZM125.173 62L121.285 57.374V62H117.775V52.01H121.285V56.006L124.849 52.01H128.899L124.723 56.492L129.349 62H125.173ZM136.607 62.27H136.049C130.667 62.27 129.839 58.994 129.839 57.176V56.924C129.839 55.124 130.667 51.74 136.031 51.74H136.625C142.169 51.74 142.817 55.142 142.817 56.906V57.194C142.817 58.994 142.169 62.27 136.607 62.27ZM136.229 59.642H136.427C138.641 59.642 139.199 58.058 139.199 56.96C139.199 55.826 138.641 54.314 136.427 54.314H136.229C133.925 54.314 133.457 55.826 133.457 56.96C133.457 58.058 133.925 59.642 136.229 59.642Z" fill="url(#paint1_radial_2018_1448)" style="mix-blend-mode:overlay"/>
<path d="M0.656 14V0.608H10.43C14.264 0.608 15.218 2.282 15.218 3.776V3.974C15.218 5.666 13.76 6.476 12.752 6.62C14.264 6.872 15.884 7.772 15.884 9.932V10.13C15.884 11.948 14.786 14 10.484 14H0.656ZM9.89 3.398H4.364V5.792H9.89C11.024 5.792 11.348 5.252 11.348 4.622V4.586C11.348 3.938 10.988 3.398 9.89 3.398ZM10.178 8.42H4.364V11.066H10.178C11.474 11.066 11.852 10.382 11.852 9.716V9.644C11.852 8.978 11.474 8.42 10.178 8.42ZM22.9982 12.002C25.0502 12.002 25.7522 10.706 25.7522 9.95V9.176C25.4462 9.302 24.5642 9.482 23.5562 9.644C21.8642 9.932 21.3242 10.166 21.3242 10.868V10.904C21.3242 11.534 21.7742 12.002 22.9982 12.002ZM25.8602 12.614C25.4282 13.136 24.3482 14.198 22.0082 14.198H21.7202C18.9302 14.198 17.7782 12.686 17.7782 11.03V10.958C17.7782 9.23 18.8762 8.168 22.2602 7.88L24.9962 7.646C25.5542 7.592 25.7522 7.412 25.7522 6.998C25.7522 6.53 25.6082 6.026 23.6642 6.026C21.8282 6.026 21.6482 6.746 21.6482 7.124H18.0482V7.088C18.0482 6.098 18.4442 3.776 23.3582 3.776H23.9162C28.8662 3.776 29.1722 5.81 29.1722 7.142V10.436C29.1722 11.066 29.2982 11.318 30.0002 11.318H30.3782V14H27.5342C26.4902 14 26.0042 13.262 25.8602 12.614ZM40.7319 10.076H44.4039C44.4039 11.588 43.5039 14.27 38.6979 14.27H37.8159C32.8299 14.27 31.8939 11.03 31.8939 9.14V8.888C31.8939 6.998 32.7759 3.74 37.7979 3.74H38.6259C43.4499 3.74 44.4039 6.368 44.4039 7.808V7.826H40.7319C40.6779 7.538 40.3359 6.296 38.2659 6.296H38.0859C36.0159 6.296 35.5299 7.718 35.5299 8.924V8.942C35.5299 10.184 36.1239 11.66 38.1579 11.66H38.3379C40.4259 11.66 40.7319 10.31 40.7319 10.076ZM55.2179 7.952L50.3939 14H46.7939V4.01H50.3039V10.058L55.1279 4.01H58.7279V14H55.2179V7.952ZM69.8375 14V6.674H65.8775C65.8775 9.356 65.7875 10.85 65.4455 11.768C65.0675 12.776 64.5635 14 61.9175 14H60.8195V11.39H61.0355C61.6655 11.39 62.1335 11.174 62.3315 10.256C62.4755 9.482 62.5295 8.636 62.5295 4.01H73.3475V14H69.8375ZM84.6789 7.952L79.8549 14H76.2549V4.01H79.7649V10.058L84.5889 4.01H88.1889V14H84.6789V7.952ZM99.4604 10.076H103.132C103.132 11.588 102.232 14.27 97.4264 14.27H96.5444C91.5584 14.27 90.6224 11.03 90.6224 9.14V8.888C90.6224 6.998 91.5044 3.74 96.5264 3.74H97.3544C102.178 3.74 103.132 6.368 103.132 7.808V7.826H99.4604C99.4064 7.538 99.0644 6.296 96.9944 6.296H96.8144C94.7444 6.296 94.2584 7.718 94.2584 8.924V8.942C94.2584 10.184 94.8524 11.66 96.8864 11.66H97.0664C99.1544 11.66 99.4604 10.31 99.4604 10.076ZM110.238 12.002C112.29 12.002 112.992 10.706 112.992 9.95V9.176C112.686 9.302 111.804 9.482 110.796 9.644C109.104 9.932 108.564 10.166 108.564 10.868V10.904C108.564 11.534 109.014 12.002 110.238 12.002ZM113.1 12.614C112.668 13.136 111.588 14.198 109.248 14.198H108.96C106.17 14.198 105.018 12.686 105.018 11.03V10.958C105.018 9.23 106.116 8.168 109.5 7.88L112.236 7.646C112.794 7.592 112.992 7.412 112.992 6.998C112.992 6.53 112.848 6.026 110.904 6.026C109.068 6.026 108.888 6.746 108.888 7.124H105.288V7.088C105.288 6.098 105.684 3.776 110.598 3.776H111.156C116.106 3.776 116.412 5.81 116.412 7.142V10.436C116.412 11.066 116.538 11.318 117.24 11.318H117.618V14H114.774C113.73 14 113.244 13.262 113.1 12.614ZM0.656 38V24.608H11.816V27.56H4.364V38H0.656ZM18.19 30.08C16.372 30.08 15.688 30.818 15.508 31.862H20.8C20.8 31.124 20.44 30.08 18.19 30.08ZM20.872 34.886H24.526C24.526 35.714 23.878 38.234 18.712 38.234H18.046C13.114 38.234 11.89 35.534 11.89 33.14V32.888C11.89 30.638 13.006 27.794 17.74 27.794H18.532C23.644 27.794 24.562 30.638 24.562 33.428V33.752H15.472C15.616 34.904 16.354 35.84 18.496 35.84C20.53 35.84 20.782 35.048 20.872 34.886ZM30.4758 38H26.9658V28.01H30.4758V31.646H35.3718V28.01H38.8818V38H35.3718V34.31H30.4758V38ZM45.3118 38H41.8018V28.01H45.3118V31.646H50.2078V28.01H53.7178V38H50.2078V34.31H45.3118V38ZM61.3537 36.002C63.4057 36.002 64.1077 34.706 64.1077 33.95V33.176C63.8017 33.302 62.9197 33.482 61.9117 33.644C60.2197 33.932 59.6797 34.166 59.6797 34.868V34.904C59.6797 35.534 60.1297 36.002 61.3537 36.002ZM64.2157 36.614C63.7837 37.136 62.7037 38.198 60.3637 38.198H60.0757C57.2857 38.198 56.1337 36.686 56.1337 35.03V34.958C56.1337 33.23 57.2317 32.168 60.6157 31.88L63.3517 31.646C63.9097 31.592 64.1077 31.412 64.1077 30.998C64.1077 30.53 63.9637 30.026 62.0197 30.026C60.1837 30.026 60.0037 30.746 60.0037 31.124H56.4037V31.088C56.4037 30.098 56.7997 27.776 61.7137 27.776H62.2717C67.2217 27.776 67.5277 29.81 67.5277 31.142V34.436C67.5277 35.066 67.6537 35.318 68.3557 35.318H68.7337V38H65.8897C64.8457 38 64.3597 37.262 64.2157 36.614ZM70.2589 40.124V35.336H71.4649C72.1489 33.968 72.2569 30.998 72.3469 28.01H82.9129V35.336H84.7129V40.124H81.3829V38H73.5889V40.124H70.2589ZM74.7769 35.336H79.4029V30.674H75.4969C75.4429 31.97 75.2629 33.95 74.7769 35.336ZM86.8018 38V28.01H90.3118V30.872H93.0478C96.4678 30.872 97.7998 32.384 97.7998 34.292V34.508C97.7998 36.596 96.4678 38 93.0478 38H86.8018ZM90.3118 35.624H92.6158C93.3358 35.624 94.1998 35.408 94.1998 34.436V34.382C94.1998 33.482 93.3358 33.248 92.6158 33.248H90.3118V35.624ZM105.87 30.08C104.052 30.08 103.368 30.818 103.188 31.862H108.48C108.48 31.124 108.12 30.08 105.87 30.08ZM108.552 34.886H112.206C112.206 35.714 111.558 38.234 106.392 38.234H105.726C100.794 38.234 99.5697 35.534 99.5697 33.14V32.888C99.5697 30.638 100.686 27.794 105.42 27.794H106.212C111.324 27.794 112.242 30.638 112.242 33.428V33.752H103.152C103.296 34.904 104.034 35.84 106.176 35.84C108.21 35.84 108.462 35.048 108.552 34.886ZM122.89 38H114.646V28.01H122.53C124.816 28.01 126.256 28.82 126.256 30.404V30.494C126.256 31.736 125.464 32.474 124.258 32.672C125.482 32.816 126.58 33.68 126.58 35.12V35.192C126.58 37.01 125.392 38 122.89 38ZM118.156 31.988H121.378C122.224 31.988 122.656 31.664 122.656 31.034V30.944C122.656 30.368 122.26 30.026 121.378 30.026H118.156V31.988ZM118.156 35.984H121.522C122.458 35.984 122.98 35.678 122.98 34.976V34.832C122.98 34.202 122.548 33.806 121.522 33.806H118.156V35.984ZM132.534 38H129.024V28.01H132.534V31.646H137.43V28.01H140.94V38H137.43V34.31H132.534V38ZM148.576 36.002C150.628 36.002 151.33 34.706 151.33 33.95V33.176C151.024 33.302 150.142 33.482 149.134 33.644C147.442 33.932 146.902 34.166 146.902 34.868V34.904C146.902 35.534 147.352 36.002 148.576 36.002ZM151.438 36.614C151.006 37.136 149.926 38.198 147.586 38.198H147.298C144.508 38.198 143.356 36.686 143.356 35.03V34.958C143.356 33.23 144.454 32.168 147.838 31.88L150.574 31.646C151.132 31.592 151.33 31.412 151.33 30.998C151.33 30.53 151.186 30.026 149.242 30.026C147.406 30.026 147.226 30.746 147.226 31.124H143.626V31.088C143.626 30.098 144.022 27.776 148.936 27.776H149.494C154.444 27.776 154.75 29.81 154.75 31.142V34.436C154.75 35.066 154.876 35.318 155.578 35.318H155.956V38H153.112C152.068 38 151.582 37.262 151.438 36.614ZM15.272 57.968V58.148C15.272 61.01 12.608 62.234 7.928 62.234H7.496C3.68 62.234 0.00800003 61.1 0.00800003 57.5V57.284H3.968C3.968 58.94 5.444 59.516 8.126 59.516C10.358 59.516 11.42 58.922 11.42 57.842C11.42 56.834 10.718 56.402 8.972 56.402H5.102V53.756H8.774C9.854 53.756 11.006 53.594 11.006 52.586C11.006 51.452 10.034 51.092 7.676 51.092C5.75 51.092 4.13 51.452 4.076 52.964H0.116V52.694C0.116 49.508 3.59 48.446 7.316 48.446H7.892C12.41 48.446 14.858 49.58 14.858 51.83V51.956C14.858 53.666 13.724 54.494 12.284 54.872C13.724 55.16 15.272 56.096 15.272 57.968ZM22.2951 60.002C24.3471 60.002 25.0491 58.706 25.0491 57.95V57.176C24.7431 57.302 23.8611 57.482 22.8531 57.644C21.1611 57.932 20.6211 58.166 20.6211 58.868V58.904C20.6211 59.534 21.0711 60.002 22.2951 60.002ZM25.1571 60.614C24.7251 61.136 23.6451 62.198 21.3051 62.198H21.0171C18.2271 62.198 17.0751 60.686 17.0751 59.03V58.958C17.0751 57.23 18.1731 56.168 21.5571 55.88L24.2931 55.646C24.8511 55.592 25.0491 55.412 25.0491 54.998C25.0491 54.53 24.9051 54.026 22.9611 54.026C21.1251 54.026 20.9451 54.746 20.9451 55.124H17.3451V55.088C17.3451 54.098 17.7411 51.776 22.6551 51.776H23.2131C28.1631 51.776 28.4691 53.81 28.4691 55.142V58.436C28.4691 59.066 28.5951 59.318 29.2971 59.318H29.6751V62H26.8311C25.7871 62 25.3011 61.262 25.1571 60.614ZM39.6688 62L36.9868 59.138L34.3768 62H30.3988L34.8808 56.996L30.2548 52.01H34.5568L37.1128 54.8L39.5788 52.01H43.4488L39.1468 56.924L43.7188 62H39.6688ZM49.84 60.002C51.892 60.002 52.594 58.706 52.594 57.95V57.176C52.288 57.302 51.406 57.482 50.398 57.644C48.706 57.932 48.166 58.166 48.166 58.868V58.904C48.166 59.534 48.616 60.002 49.84 60.002ZM52.702 60.614C52.27 61.136 51.19 62.198 48.85 62.198H48.562C45.772 62.198 44.62 60.686 44.62 59.03V58.958C44.62 57.23 45.718 56.168 49.102 55.88L51.838 55.646C52.396 55.592 52.594 55.412 52.594 54.998C52.594 54.53 52.45 54.026 50.506 54.026C48.67 54.026 48.49 54.746 48.49 55.124H44.89V55.088C44.89 54.098 45.286 51.776 50.2 51.776H50.758C55.708 51.776 56.014 53.81 56.014 55.142V58.436C56.014 59.066 56.14 59.318 56.842 59.318H57.22V62H54.376C53.332 62 52.846 61.262 52.702 60.614ZM68.4017 57.014V56.96C68.4017 55.88 67.8977 54.422 65.7017 54.422H65.5217C63.4157 54.422 62.7497 55.808 62.7497 56.96V57.014C62.7497 58.112 63.4157 59.552 65.5217 59.552H65.7017C67.8977 59.552 68.4017 58.04 68.4017 57.014ZM59.2577 65.438V52.01H62.7317V53.288C63.1637 52.82 64.4777 51.812 66.7457 51.812H66.9797C70.7957 51.812 72.0377 54.422 72.0377 56.798V57.104C72.0377 59.282 70.7597 62.198 66.9617 62.198H66.7097C64.4237 62.198 63.1997 61.154 62.7677 60.722V65.438H59.2577ZM81.8955 52.01H85.4055V62H81.8955V58.562C81.1215 58.652 80.2215 58.742 79.2855 58.742C75.3255 58.742 73.8315 57.626 73.8315 54.458V52.01H77.3415V53.81C77.3415 55.682 77.9715 56.006 79.8255 56.006C80.5275 56.006 81.3375 55.952 81.8955 55.88V52.01ZM94.1275 54.08C92.3095 54.08 91.6255 54.818 91.4455 55.862H96.7375C96.7375 55.124 96.3775 54.08 94.1275 54.08ZM96.8095 58.886H100.463C100.463 59.714 99.8155 62.234 94.6495 62.234H93.9835C89.0515 62.234 87.8275 59.534 87.8275 57.14V56.888C87.8275 54.638 88.9435 51.794 93.6775 51.794H94.4695C99.5815 51.794 100.499 54.638 100.499 57.428V57.752H91.4095C91.5535 58.904 92.2915 59.84 94.4335 59.84C96.4675 59.84 96.7195 59.048 96.8095 58.886ZM106.413 62H102.903V52.01H106.413V55.646H111.309V52.01H114.819V62H111.309V58.31H106.413V62ZM125.173 62L121.285 57.374V62H117.775V52.01H121.285V56.006L124.849 52.01H128.899L124.723 56.492L129.349 62H125.173ZM136.607 62.27H136.049C130.667 62.27 129.839 58.994 129.839 57.176V56.924C129.839 55.124 130.667 51.74 136.031 51.74H136.625C142.169 51.74 142.817 55.142 142.817 56.906V57.194C142.817 58.994 142.169 62.27 136.607 62.27ZM136.229 59.642H136.427C138.641 59.642 139.199 58.058 139.199 56.96C139.199 55.826 138.641 54.314 136.427 54.314H136.229C133.925 54.314 133.457 55.826 133.457 56.96C133.457 58.058 133.925 59.642 136.229 59.642Z" fill="url(#paint2_radial_2018_1448)"/>
<path d="M0.656 14V0.608H10.43C14.264 0.608 15.218 2.282 15.218 3.776V3.974C15.218 5.666 13.76 6.476 12.752 6.62C14.264 6.872 15.884 7.772 15.884 9.932V10.13C15.884 11.948 14.786 14 10.484 14H0.656ZM9.89 3.398H4.364V5.792H9.89C11.024 5.792 11.348 5.252 11.348 4.622V4.586C11.348 3.938 10.988 3.398 9.89 3.398ZM10.178 8.42H4.364V11.066H10.178C11.474 11.066 11.852 10.382 11.852 9.716V9.644C11.852 8.978 11.474 8.42 10.178 8.42ZM22.9982 12.002C25.0502 12.002 25.7522 10.706 25.7522 9.95V9.176C25.4462 9.302 24.5642 9.482 23.5562 9.644C21.8642 9.932 21.3242 10.166 21.3242 10.868V10.904C21.3242 11.534 21.7742 12.002 22.9982 12.002ZM25.8602 12.614C25.4282 13.136 24.3482 14.198 22.0082 14.198H21.7202C18.9302 14.198 17.7782 12.686 17.7782 11.03V10.958C17.7782 9.23 18.8762 8.168 22.2602 7.88L24.9962 7.646C25.5542 7.592 25.7522 7.412 25.7522 6.998C25.7522 6.53 25.6082 6.026 23.6642 6.026C21.8282 6.026 21.6482 6.746 21.6482 7.124H18.0482V7.088C18.0482 6.098 18.4442 3.776 23.3582 3.776H23.9162C28.8662 3.776 29.1722 5.81 29.1722 7.142V10.436C29.1722 11.066 29.2982 11.318 30.0002 11.318H30.3782V14H27.5342C26.4902 14 26.0042 13.262 25.8602 12.614ZM40.7319 10.076H44.4039C44.4039 11.588 43.5039 14.27 38.6979 14.27H37.8159C32.8299 14.27 31.8939 11.03 31.8939 9.14V8.888C31.8939 6.998 32.7759 3.74 37.7979 3.74H38.6259C43.4499 3.74 44.4039 6.368 44.4039 7.808V7.826H40.7319C40.6779 7.538 40.3359 6.296 38.2659 6.296H38.0859C36.0159 6.296 35.5299 7.718 35.5299 8.924V8.942C35.5299 10.184 36.1239 11.66 38.1579 11.66H38.3379C40.4259 11.66 40.7319 10.31 40.7319 10.076ZM55.2179 7.952L50.3939 14H46.7939V4.01H50.3039V10.058L55.1279 4.01H58.7279V14H55.2179V7.952ZM69.8375 14V6.674H65.8775C65.8775 9.356 65.7875 10.85 65.4455 11.768C65.0675 12.776 64.5635 14 61.9175 14H60.8195V11.39H61.0355C61.6655 11.39 62.1335 11.174 62.3315 10.256C62.4755 9.482 62.5295 8.636 62.5295 4.01H73.3475V14H69.8375ZM84.6789 7.952L79.8549 14H76.2549V4.01H79.7649V10.058L84.5889 4.01H88.1889V14H84.6789V7.952ZM99.4604 10.076H103.132C103.132 11.588 102.232 14.27 97.4264 14.27H96.5444C91.5584 14.27 90.6224 11.03 90.6224 9.14V8.888C90.6224 6.998 91.5044 3.74 96.5264 3.74H97.3544C102.178 3.74 103.132 6.368 103.132 7.808V7.826H99.4604C99.4064 7.538 99.0644 6.296 96.9944 6.296H96.8144C94.7444 6.296 94.2584 7.718 94.2584 8.924V8.942C94.2584 10.184 94.8524 11.66 96.8864 11.66H97.0664C99.1544 11.66 99.4604 10.31 99.4604 10.076ZM110.238 12.002C112.29 12.002 112.992 10.706 112.992 9.95V9.176C112.686 9.302 111.804 9.482 110.796 9.644C109.104 9.932 108.564 10.166 108.564 10.868V10.904C108.564 11.534 109.014 12.002 110.238 12.002ZM113.1 12.614C112.668 13.136 111.588 14.198 109.248 14.198H108.96C106.17 14.198 105.018 12.686 105.018 11.03V10.958C105.018 9.23 106.116 8.168 109.5 7.88L112.236 7.646C112.794 7.592 112.992 7.412 112.992 6.998C112.992 6.53 112.848 6.026 110.904 6.026C109.068 6.026 108.888 6.746 108.888 7.124H105.288V7.088C105.288 6.098 105.684 3.776 110.598 3.776H111.156C116.106 3.776 116.412 5.81 116.412 7.142V10.436C116.412 11.066 116.538 11.318 117.24 11.318H117.618V14H114.774C113.73 14 113.244 13.262 113.1 12.614ZM0.656 38V24.608H11.816V27.56H4.364V38H0.656ZM18.19 30.08C16.372 30.08 15.688 30.818 15.508 31.862H20.8C20.8 31.124 20.44 30.08 18.19 30.08ZM20.872 34.886H24.526C24.526 35.714 23.878 38.234 18.712 38.234H18.046C13.114 38.234 11.89 35.534 11.89 33.14V32.888C11.89 30.638 13.006 27.794 17.74 27.794H18.532C23.644 27.794 24.562 30.638 24.562 33.428V33.752H15.472C15.616 34.904 16.354 35.84 18.496 35.84C20.53 35.84 20.782 35.048 20.872 34.886ZM30.4758 38H26.9658V28.01H30.4758V31.646H35.3718V28.01H38.8818V38H35.3718V34.31H30.4758V38ZM45.3118 38H41.8018V28.01H45.3118V31.646H50.2078V28.01H53.7178V38H50.2078V34.31H45.3118V38ZM61.3537 36.002C63.4057 36.002 64.1077 34.706 64.1077 33.95V33.176C63.8017 33.302 62.9197 33.482 61.9117 33.644C60.2197 33.932 59.6797 34.166 59.6797 34.868V34.904C59.6797 35.534 60.1297 36.002 61.3537 36.002ZM64.2157 36.614C63.7837 37.136 62.7037 38.198 60.3637 38.198H60.0757C57.2857 38.198 56.1337 36.686 56.1337 35.03V34.958C56.1337 33.23 57.2317 32.168 60.6157 31.88L63.3517 31.646C63.9097 31.592 64.1077 31.412 64.1077 30.998C64.1077 30.53 63.9637 30.026 62.0197 30.026C60.1837 30.026 60.0037 30.746 60.0037 31.124H56.4037V31.088C56.4037 30.098 56.7997 27.776 61.7137 27.776H62.2717C67.2217 27.776 67.5277 29.81 67.5277 31.142V34.436C67.5277 35.066 67.6537 35.318 68.3557 35.318H68.7337V38H65.8897C64.8457 38 64.3597 37.262 64.2157 36.614ZM70.2589 40.124V35.336H71.4649C72.1489 33.968 72.2569 30.998 72.3469 28.01H82.9129V35.336H84.7129V40.124H81.3829V38H73.5889V40.124H70.2589ZM74.7769 35.336H79.4029V30.674H75.4969C75.4429 31.97 75.2629 33.95 74.7769 35.336ZM86.8018 38V28.01H90.3118V30.872H93.0478C96.4678 30.872 97.7998 32.384 97.7998 34.292V34.508C97.7998 36.596 96.4678 38 93.0478 38H86.8018ZM90.3118 35.624H92.6158C93.3358 35.624 94.1998 35.408 94.1998 34.436V34.382C94.1998 33.482 93.3358 33.248 92.6158 33.248H90.3118V35.624ZM105.87 30.08C104.052 30.08 103.368 30.818 103.188 31.862H108.48C108.48 31.124 108.12 30.08 105.87 30.08ZM108.552 34.886H112.206C112.206 35.714 111.558 38.234 106.392 38.234H105.726C100.794 38.234 99.5697 35.534 99.5697 33.14V32.888C99.5697 30.638 100.686 27.794 105.42 27.794H106.212C111.324 27.794 112.242 30.638 112.242 33.428V33.752H103.152C103.296 34.904 104.034 35.84 106.176 35.84C108.21 35.84 108.462 35.048 108.552 34.886ZM122.89 38H114.646V28.01H122.53C124.816 28.01 126.256 28.82 126.256 30.404V30.494C126.256 31.736 125.464 32.474 124.258 32.672C125.482 32.816 126.58 33.68 126.58 35.12V35.192C126.58 37.01 125.392 38 122.89 38ZM118.156 31.988H121.378C122.224 31.988 122.656 31.664 122.656 31.034V30.944C122.656 30.368 122.26 30.026 121.378 30.026H118.156V31.988ZM118.156 35.984H121.522C122.458 35.984 122.98 35.678 122.98 34.976V34.832C122.98 34.202 122.548 33.806 121.522 33.806H118.156V35.984ZM132.534 38H129.024V28.01H132.534V31.646H137.43V28.01H140.94V38H137.43V34.31H132.534V38ZM148.576 36.002C150.628 36.002 151.33 34.706 151.33 33.95V33.176C151.024 33.302 150.142 33.482 149.134 33.644C147.442 33.932 146.902 34.166 146.902 34.868V34.904C146.902 35.534 147.352 36.002 148.576 36.002ZM151.438 36.614C151.006 37.136 149.926 38.198 147.586 38.198H147.298C144.508 38.198 143.356 36.686 143.356 35.03V34.958C143.356 33.23 144.454 32.168 147.838 31.88L150.574 31.646C151.132 31.592 151.33 31.412 151.33 30.998C151.33 30.53 151.186 30.026 149.242 30.026C147.406 30.026 147.226 30.746 147.226 31.124H143.626V31.088C143.626 30.098 144.022 27.776 148.936 27.776H149.494C154.444 27.776 154.75 29.81 154.75 31.142V34.436C154.75 35.066 154.876 35.318 155.578 35.318H155.956V38H153.112C152.068 38 151.582 37.262 151.438 36.614ZM15.272 57.968V58.148C15.272 61.01 12.608 62.234 7.928 62.234H7.496C3.68 62.234 0.00800003 61.1 0.00800003 57.5V57.284H3.968C3.968 58.94 5.444 59.516 8.126 59.516C10.358 59.516 11.42 58.922 11.42 57.842C11.42 56.834 10.718 56.402 8.972 56.402H5.102V53.756H8.774C9.854 53.756 11.006 53.594 11.006 52.586C11.006 51.452 10.034 51.092 7.676 51.092C5.75 51.092 4.13 51.452 4.076 52.964H0.116V52.694C0.116 49.508 3.59 48.446 7.316 48.446H7.892C12.41 48.446 14.858 49.58 14.858 51.83V51.956C14.858 53.666 13.724 54.494 12.284 54.872C13.724 55.16 15.272 56.096 15.272 57.968ZM22.2951 60.002C24.3471 60.002 25.0491 58.706 25.0491 57.95V57.176C24.7431 57.302 23.8611 57.482 22.8531 57.644C21.1611 57.932 20.6211 58.166 20.6211 58.868V58.904C20.6211 59.534 21.0711 60.002 22.2951 60.002ZM25.1571 60.614C24.7251 61.136 23.6451 62.198 21.3051 62.198H21.0171C18.2271 62.198 17.0751 60.686 17.0751 59.03V58.958C17.0751 57.23 18.1731 56.168 21.5571 55.88L24.2931 55.646C24.8511 55.592 25.0491 55.412 25.0491 54.998C25.0491 54.53 24.9051 54.026 22.9611 54.026C21.1251 54.026 20.9451 54.746 20.9451 55.124H17.3451V55.088C17.3451 54.098 17.7411 51.776 22.6551 51.776H23.2131C28.1631 51.776 28.4691 53.81 28.4691 55.142V58.436C28.4691 59.066 28.5951 59.318 29.2971 59.318H29.6751V62H26.8311C25.7871 62 25.3011 61.262 25.1571 60.614ZM39.6688 62L36.9868 59.138L34.3768 62H30.3988L34.8808 56.996L30.2548 52.01H34.5568L37.1128 54.8L39.5788 52.01H43.4488L39.1468 56.924L43.7188 62H39.6688ZM49.84 60.002C51.892 60.002 52.594 58.706 52.594 57.95V57.176C52.288 57.302 51.406 57.482 50.398 57.644C48.706 57.932 48.166 58.166 48.166 58.868V58.904C48.166 59.534 48.616 60.002 49.84 60.002ZM52.702 60.614C52.27 61.136 51.19 62.198 48.85 62.198H48.562C45.772 62.198 44.62 60.686 44.62 59.03V58.958C44.62 57.23 45.718 56.168 49.102 55.88L51.838 55.646C52.396 55.592 52.594 55.412 52.594 54.998C52.594 54.53 52.45 54.026 50.506 54.026C48.67 54.026 48.49 54.746 48.49 55.124H44.89V55.088C44.89 54.098 45.286 51.776 50.2 51.776H50.758C55.708 51.776 56.014 53.81 56.014 55.142V58.436C56.014 59.066 56.14 59.318 56.842 59.318H57.22V62H54.376C53.332 62 52.846 61.262 52.702 60.614ZM68.4017 57.014V56.96C68.4017 55.88 67.8977 54.422 65.7017 54.422H65.5217C63.4157 54.422 62.7497 55.808 62.7497 56.96V57.014C62.7497 58.112 63.4157 59.552 65.5217 59.552H65.7017C67.8977 59.552 68.4017 58.04 68.4017 57.014ZM59.2577 65.438V52.01H62.7317V53.288C63.1637 52.82 64.4777 51.812 66.7457 51.812H66.9797C70.7957 51.812 72.0377 54.422 72.0377 56.798V57.104C72.0377 59.282 70.7597 62.198 66.9617 62.198H66.7097C64.4237 62.198 63.1997 61.154 62.7677 60.722V65.438H59.2577ZM81.8955 52.01H85.4055V62H81.8955V58.562C81.1215 58.652 80.2215 58.742 79.2855 58.742C75.3255 58.742 73.8315 57.626 73.8315 54.458V52.01H77.3415V53.81C77.3415 55.682 77.9715 56.006 79.8255 56.006C80.5275 56.006 81.3375 55.952 81.8955 55.88V52.01ZM94.1275 54.08C92.3095 54.08 91.6255 54.818 91.4455 55.862H96.7375C96.7375 55.124 96.3775 54.08 94.1275 54.08ZM96.8095 58.886H100.463C100.463 59.714 99.8155 62.234 94.6495 62.234H93.9835C89.0515 62.234 87.8275 59.534 87.8275 57.14V56.888C87.8275 54.638 88.9435 51.794 93.6775 51.794H94.4695C99.5815 51.794 100.499 54.638 100.499 57.428V57.752H91.4095C91.5535 58.904 92.2915 59.84 94.4335 59.84C96.4675 59.84 96.7195 59.048 96.8095 58.886ZM106.413 62H102.903V52.01H106.413V55.646H111.309V52.01H114.819V62H111.309V58.31H106.413V62ZM125.173 62L121.285 57.374V62H117.775V52.01H121.285V56.006L124.849 52.01H128.899L124.723 56.492L129.349 62H125.173ZM136.607 62.27H136.049C130.667 62.27 129.839 58.994 129.839 57.176V56.924C129.839 55.124 130.667 51.74 136.031 51.74H136.625C142.169 51.74 142.817 55.142 142.817 56.906V57.194C142.817 58.994 142.169 62.27 136.607 62.27ZM136.229 59.642H136.427C138.641 59.642 139.199 58.058 139.199 56.96C139.199 55.826 138.641 54.314 136.427 54.314H136.229C133.925 54.314 133.457 55.826 133.457 56.96C133.457 58.058 133.925 59.642 136.229 59.642Z" fill="#C1A875" style="mix-blend-mode:color"/>
<defs>
<linearGradient id="paint0_linear_2018_1448" x1="-0.999999" y1="30" x2="221" y2="30" gradientUnits="userSpaceOnUse">
<stop stop-color="#576167"/>
<stop offset="0.191294" stop-color="#9EA1A2"/>
<stop offset="0.396166" stop-color="#848989"/>
<stop offset="0.62055" stop-color="#576167"/>
<stop offset="0.830299" stop-color="#757A7C"/>
<stop offset="1" stop-color="#576167"/>
</linearGradient>
<radialGradient id="paint1_radial_2018_1448" cx="0" cy="0" r="1" gradientUnits="userSpaceOnUse" gradientTransform="translate(117.226 2.39326) rotate(90) scale(53.4944 167.95)">
<stop stop-color="white"/>
<stop offset="1" stop-color="white" stop-opacity="0"/>
</radialGradient>
<radialGradient id="paint2_radial_2018_1448" cx="0" cy="0" r="1" gradientUnits="userSpaceOnUse" gradientTransform="translate(129.783 82.9888) rotate(-89.7344) scale(76.6525 240.162)">
<stop stop-color="white"/>
<stop offset="1" stop-color="white" stop-opacity="0"/>
</radialGradient>
</defs>
</svg>
