<svg width="146" height="63" viewBox="0 0 146 63" fill="none" xmlns="http://www.w3.org/2000/svg">
<path d="M1.656 14V0.608H6.588L10.854 9.68L15.246 0.608H19.872V14H16.254V5.234L12.186 14H9.288L5.22 5.234V14H1.656ZM27.7072 12.002C29.7592 12.002 30.4612 10.706 30.4612 9.95V9.176C30.1552 9.302 29.2732 9.482 28.2652 9.644C26.5732 9.932 26.0332 10.166 26.0332 10.868V10.904C26.0332 11.534 26.4832 12.002 27.7072 12.002ZM30.5692 12.614C30.1372 13.136 29.0572 14.198 26.7172 14.198H26.4292C23.6392 14.198 22.4872 12.686 22.4872 11.03V10.958C22.4872 9.23 23.5852 8.168 26.9692 7.88L29.7052 7.646C30.2632 7.592 30.4612 7.412 30.4612 6.998C30.4612 6.53 30.3172 6.026 28.3732 6.026C26.5372 6.026 26.3572 6.746 26.3572 7.124H22.7572V7.088C22.7572 6.098 23.1532 3.776 28.0672 3.776H28.6252C33.5752 3.776 33.8812 5.81 33.8812 7.142V10.436C33.8812 11.066 34.0072 11.318 34.7092 11.318H35.0872V14H32.2432C31.1992 14 30.7132 13.262 30.5692 12.614ZM46.2689 9.014V8.96C46.2689 7.88 45.7649 6.422 43.5689 6.422H43.3889C41.2829 6.422 40.6169 7.808 40.6169 8.96V9.014C40.6169 10.112 41.2829 11.552 43.3889 11.552H43.5689C45.7649 11.552 46.2689 10.04 46.2689 9.014ZM37.1249 17.438V4.01H40.5989V5.288C41.0309 4.82 42.3449 3.812 44.6129 3.812H44.8469C48.6629 3.812 49.9049 6.422 49.9049 8.798V9.104C49.9049 11.282 48.6269 14.198 44.8289 14.198H44.5769C42.2909 14.198 41.0669 13.154 40.6349 12.722V17.438H37.1249ZM60.7707 7.952L55.9467 14H52.3467V4.01H55.8567V10.058L60.6807 4.01H64.2807V14H60.7707V7.952ZM75.6062 10.652H73.2482L70.3322 14H66.3722L69.6302 10.274C67.9022 9.932 66.9122 8.942 66.9122 7.43V7.214C66.9122 5.396 68.3882 4.01 70.8902 4.01H79.1162V14H75.6062V10.652ZM75.6062 6.314H71.8442C71.0702 6.314 70.4222 6.494 70.4222 7.286V7.358C70.4222 8.132 71.0882 8.366 71.8622 8.366H75.6062V6.314ZM10.998 32.762L8.568 27.308L6.21 32.762H10.998ZM13.338 38L12.24 35.516H5.004L3.924 38H0.198L6.138 24.608H11.106L17.316 38H13.338ZM27.1558 38V30.674H23.1958C23.1958 33.356 23.1058 34.85 22.7638 35.768C22.3858 36.776 21.8818 38 19.2358 38H18.1378V35.39H18.3538C18.9838 35.39 19.4518 35.174 19.6498 34.256C19.7938 33.482 19.8478 32.636 19.8478 28.01H30.6658V38H27.1558ZM39.3872 30.08C37.5692 30.08 36.8852 30.818 36.7052 31.862H41.9972C41.9972 31.124 41.6372 30.08 39.3872 30.08ZM42.0692 34.886H45.7232C45.7232 35.714 45.0752 38.234 39.9092 38.234H39.2432C34.3112 38.234 33.0872 35.534 33.0872 33.14V32.888C33.0872 30.638 34.2032 27.794 38.9372 27.794H39.7292C44.8412 27.794 45.7592 30.638 45.7592 33.428V33.752H36.6692C36.8132 34.904 37.5512 35.84 39.6932 35.84C41.7272 35.84 41.9792 35.048 42.0692 34.886ZM55.5971 38L51.7091 33.374V38H48.1991V28.01H51.7091V32.006L55.2731 28.01H59.3231L55.1471 32.492L59.7731 38H55.5971ZM69.1186 34.076H72.7906C72.7906 35.588 71.8906 38.27 67.0846 38.27H66.2026C61.2166 38.27 60.2806 35.03 60.2806 33.14V32.888C60.2806 30.998 61.1626 27.74 66.1846 27.74H67.0126C71.8366 27.74 72.7906 30.368 72.7906 31.808V31.826H69.1186C69.0646 31.538 68.7226 30.296 66.6526 30.296H66.4726C64.4026 30.296 63.9166 31.718 63.9166 32.924V32.942C63.9166 34.184 64.5106 35.66 66.5446 35.66H66.7246C68.8126 35.66 69.1186 34.31 69.1186 34.076ZM80.9947 30.08C79.1767 30.08 78.4927 30.818 78.3127 31.862H83.6047C83.6047 31.124 83.2447 30.08 80.9947 30.08ZM83.6767 34.886H87.3307C87.3307 35.714 86.6827 38.234 81.5167 38.234H80.8507C75.9187 38.234 74.6947 35.534 74.6947 33.14V32.888C74.6947 30.638 75.8107 27.794 80.5447 27.794H81.3367C86.4487 27.794 87.3667 30.638 87.3667 33.428V33.752H78.2767C78.4207 34.904 79.1587 35.84 81.3007 35.84C83.3347 35.84 83.5867 35.048 83.6767 34.886ZM95.5845 30.08C93.7665 30.08 93.0825 30.818 92.9025 31.862H98.1945C98.1945 31.124 97.8345 30.08 95.5845 30.08ZM98.2665 34.886H101.921C101.921 35.714 101.273 38.234 96.1065 38.234H95.4405C90.5085 38.234 89.2845 35.534 89.2845 33.14V32.888C89.2845 30.638 90.4005 27.794 95.1345 27.794H95.9265C101.039 27.794 101.957 30.638 101.957 33.428V33.752H92.8665C93.0105 34.904 93.7485 35.84 95.8905 35.84C97.9245 35.84 98.1765 35.048 98.2665 34.886ZM112.604 38H104.36V28.01H112.244C114.53 28.01 115.97 28.82 115.97 30.404V30.494C115.97 31.736 115.178 32.474 113.972 32.672C115.196 32.816 116.294 33.68 116.294 35.12V35.192C116.294 37.01 115.106 38 112.604 38ZM107.87 31.988H111.092C111.938 31.988 112.37 31.664 112.37 31.034V30.944C112.37 30.368 111.974 30.026 111.092 30.026H107.87V31.988ZM107.87 35.984H111.236C112.172 35.984 112.694 35.678 112.694 34.976V34.832C112.694 34.202 112.262 33.806 111.236 33.806H107.87V35.984ZM122.249 38H118.739V28.01H122.249V31.646H127.145V28.01H130.655V38H127.145V34.31H122.249V38ZM138.291 36.002C140.343 36.002 141.045 34.706 141.045 33.95V33.176C140.739 33.302 139.857 33.482 138.849 33.644C137.157 33.932 136.617 34.166 136.617 34.868V34.904C136.617 35.534 137.067 36.002 138.291 36.002ZM141.153 36.614C140.721 37.136 139.641 38.198 137.301 38.198H137.013C134.223 38.198 133.071 36.686 133.071 35.03V34.958C133.071 33.23 134.169 32.168 137.553 31.88L140.289 31.646C140.847 31.592 141.045 31.412 141.045 30.998C141.045 30.53 140.901 30.026 138.957 30.026C137.121 30.026 136.941 30.746 136.941 31.124H133.341V31.088C133.341 30.098 133.737 27.776 138.651 27.776H139.209C144.159 27.776 144.465 29.81 144.465 31.142V34.436C144.465 35.066 144.591 35.318 145.293 35.318H145.671V38H142.827C141.783 38 141.297 37.262 141.153 36.614ZM9.63 62.198H8.802C2.682 62.198 1.062 58.274 1.062 55.538V54.998C1.062 52.208 2.682 48.41 8.802 48.41H9.63C15.246 48.41 17.118 51.164 17.118 53.702V53.738H13.302C13.248 53.36 12.744 51.47 9.216 51.47C5.94 51.47 4.914 53.306 4.914 55.106V55.358C4.914 57.014 5.976 59.12 9.234 59.12C12.798 59.12 13.248 57.194 13.302 56.762H17.118V56.816C17.118 59.264 15.318 62.198 9.63 62.198ZM25.845 62.27H25.287C19.905 62.27 19.077 58.994 19.077 57.176V56.924C19.077 55.124 19.905 51.74 25.269 51.74H25.863C31.407 51.74 32.055 55.142 32.055 56.906V57.194C32.055 58.994 31.407 62.27 25.845 62.27ZM25.467 59.642H25.665C27.879 59.642 28.437 58.058 28.437 56.96C28.437 55.826 27.879 54.314 25.665 54.314H25.467C23.163 54.314 22.695 55.826 22.695 56.96C22.695 58.058 23.163 59.642 25.467 59.642ZM41.9037 62L38.0157 57.374V62H34.5057V52.01H38.0157V56.006L41.5797 52.01H45.6297L41.4537 56.492L46.0797 62H41.9037ZM53.3372 62.27H52.7792C47.3972 62.27 46.5692 58.994 46.5692 57.176V56.924C46.5692 55.124 47.3972 51.74 52.7612 51.74H53.3552C58.8992 51.74 59.5472 55.142 59.5472 56.906V57.194C59.5472 58.994 58.8992 62.27 53.3372 62.27ZM52.9592 59.642H53.1572C55.3712 59.642 55.9292 58.058 55.9292 56.96C55.9292 55.826 55.3712 54.314 53.1572 54.314H52.9592C50.6552 54.314 50.1872 55.826 50.1872 56.96C50.1872 58.058 50.6552 59.642 52.9592 59.642ZM69.9761 62V54.674H66.0161C66.0161 57.356 65.9261 58.85 65.5841 59.768C65.2061 60.776 64.7021 62 62.0561 62H60.9581V59.39H61.1741C61.8041 59.39 62.2721 59.174 62.4701 58.256C62.6141 57.482 62.6681 56.636 62.6681 52.01H73.4861V62H69.9761ZM82.6575 62.27H82.0995C76.7175 62.27 75.8895 58.994 75.8895 57.176V56.924C75.8895 55.124 76.7175 51.74 82.0815 51.74H82.6755C88.2195 51.74 88.8675 55.142 88.8675 56.906V57.194C88.8675 58.994 88.2195 62.27 82.6575 62.27ZM82.2795 59.642H82.4775C84.6915 59.642 85.2495 58.058 85.2495 56.96C85.2495 55.826 84.6915 54.314 82.4775 54.314H82.2795C79.9755 54.314 79.5075 55.826 79.5075 56.96C79.5075 58.058 79.9755 59.642 82.2795 59.642ZM99.5262 62H91.2822V52.01H99.1662C101.452 52.01 102.892 52.82 102.892 54.404V54.494C102.892 55.736 102.1 56.474 100.894 56.672C102.118 56.816 103.216 57.68 103.216 59.12V59.192C103.216 61.01 102.028 62 99.5262 62ZM94.7922 55.988H98.0142C98.8602 55.988 99.2922 55.664 99.2922 55.034V54.944C99.2922 54.368 98.8962 54.026 98.0142 54.026H94.7922V55.988ZM94.7922 59.984H98.1582C99.0942 59.984 99.6162 59.678 99.6162 58.976V58.832C99.6162 58.202 99.1842 57.806 98.1582 57.806H94.7922V59.984ZM110.289 60.002C112.341 60.002 113.043 58.706 113.043 57.95V57.176C112.737 57.302 111.855 57.482 110.847 57.644C109.155 57.932 108.615 58.166 108.615 58.868V58.904C108.615 59.534 109.065 60.002 110.289 60.002ZM113.151 60.614C112.719 61.136 111.639 62.198 109.299 62.198H109.011C106.221 62.198 105.069 60.686 105.069 59.03V58.958C105.069 57.23 106.167 56.168 109.551 55.88L112.287 55.646C112.845 55.592 113.043 55.412 113.043 54.998C113.043 54.53 112.899 54.026 110.955 54.026C109.119 54.026 108.939 54.746 108.939 55.124H105.339V55.088C105.339 54.098 105.735 51.776 110.649 51.776H111.207C116.157 51.776 116.463 53.81 116.463 55.142V58.436C116.463 59.066 116.589 59.318 117.291 59.318H117.669V62H114.825C113.781 62 113.295 61.262 113.151 60.614Z" fill="url(#paint0_linear_2018_1374)"/>
<path d="M1.656 14V0.608H6.588L10.854 9.68L15.246 0.608H19.872V14H16.254V5.234L12.186 14H9.288L5.22 5.234V14H1.656ZM27.7072 12.002C29.7592 12.002 30.4612 10.706 30.4612 9.95V9.176C30.1552 9.302 29.2732 9.482 28.2652 9.644C26.5732 9.932 26.0332 10.166 26.0332 10.868V10.904C26.0332 11.534 26.4832 12.002 27.7072 12.002ZM30.5692 12.614C30.1372 13.136 29.0572 14.198 26.7172 14.198H26.4292C23.6392 14.198 22.4872 12.686 22.4872 11.03V10.958C22.4872 9.23 23.5852 8.168 26.9692 7.88L29.7052 7.646C30.2632 7.592 30.4612 7.412 30.4612 6.998C30.4612 6.53 30.3172 6.026 28.3732 6.026C26.5372 6.026 26.3572 6.746 26.3572 7.124H22.7572V7.088C22.7572 6.098 23.1532 3.776 28.0672 3.776H28.6252C33.5752 3.776 33.8812 5.81 33.8812 7.142V10.436C33.8812 11.066 34.0072 11.318 34.7092 11.318H35.0872V14H32.2432C31.1992 14 30.7132 13.262 30.5692 12.614ZM46.2689 9.014V8.96C46.2689 7.88 45.7649 6.422 43.5689 6.422H43.3889C41.2829 6.422 40.6169 7.808 40.6169 8.96V9.014C40.6169 10.112 41.2829 11.552 43.3889 11.552H43.5689C45.7649 11.552 46.2689 10.04 46.2689 9.014ZM37.1249 17.438V4.01H40.5989V5.288C41.0309 4.82 42.3449 3.812 44.6129 3.812H44.8469C48.6629 3.812 49.9049 6.422 49.9049 8.798V9.104C49.9049 11.282 48.6269 14.198 44.8289 14.198H44.5769C42.2909 14.198 41.0669 13.154 40.6349 12.722V17.438H37.1249ZM60.7707 7.952L55.9467 14H52.3467V4.01H55.8567V10.058L60.6807 4.01H64.2807V14H60.7707V7.952ZM75.6062 10.652H73.2482L70.3322 14H66.3722L69.6302 10.274C67.9022 9.932 66.9122 8.942 66.9122 7.43V7.214C66.9122 5.396 68.3882 4.01 70.8902 4.01H79.1162V14H75.6062V10.652ZM75.6062 6.314H71.8442C71.0702 6.314 70.4222 6.494 70.4222 7.286V7.358C70.4222 8.132 71.0882 8.366 71.8622 8.366H75.6062V6.314ZM10.998 32.762L8.568 27.308L6.21 32.762H10.998ZM13.338 38L12.24 35.516H5.004L3.924 38H0.198L6.138 24.608H11.106L17.316 38H13.338ZM27.1558 38V30.674H23.1958C23.1958 33.356 23.1058 34.85 22.7638 35.768C22.3858 36.776 21.8818 38 19.2358 38H18.1378V35.39H18.3538C18.9838 35.39 19.4518 35.174 19.6498 34.256C19.7938 33.482 19.8478 32.636 19.8478 28.01H30.6658V38H27.1558ZM39.3872 30.08C37.5692 30.08 36.8852 30.818 36.7052 31.862H41.9972C41.9972 31.124 41.6372 30.08 39.3872 30.08ZM42.0692 34.886H45.7232C45.7232 35.714 45.0752 38.234 39.9092 38.234H39.2432C34.3112 38.234 33.0872 35.534 33.0872 33.14V32.888C33.0872 30.638 34.2032 27.794 38.9372 27.794H39.7292C44.8412 27.794 45.7592 30.638 45.7592 33.428V33.752H36.6692C36.8132 34.904 37.5512 35.84 39.6932 35.84C41.7272 35.84 41.9792 35.048 42.0692 34.886ZM55.5971 38L51.7091 33.374V38H48.1991V28.01H51.7091V32.006L55.2731 28.01H59.3231L55.1471 32.492L59.7731 38H55.5971ZM69.1186 34.076H72.7906C72.7906 35.588 71.8906 38.27 67.0846 38.27H66.2026C61.2166 38.27 60.2806 35.03 60.2806 33.14V32.888C60.2806 30.998 61.1626 27.74 66.1846 27.74H67.0126C71.8366 27.74 72.7906 30.368 72.7906 31.808V31.826H69.1186C69.0646 31.538 68.7226 30.296 66.6526 30.296H66.4726C64.4026 30.296 63.9166 31.718 63.9166 32.924V32.942C63.9166 34.184 64.5106 35.66 66.5446 35.66H66.7246C68.8126 35.66 69.1186 34.31 69.1186 34.076ZM80.9947 30.08C79.1767 30.08 78.4927 30.818 78.3127 31.862H83.6047C83.6047 31.124 83.2447 30.08 80.9947 30.08ZM83.6767 34.886H87.3307C87.3307 35.714 86.6827 38.234 81.5167 38.234H80.8507C75.9187 38.234 74.6947 35.534 74.6947 33.14V32.888C74.6947 30.638 75.8107 27.794 80.5447 27.794H81.3367C86.4487 27.794 87.3667 30.638 87.3667 33.428V33.752H78.2767C78.4207 34.904 79.1587 35.84 81.3007 35.84C83.3347 35.84 83.5867 35.048 83.6767 34.886ZM95.5845 30.08C93.7665 30.08 93.0825 30.818 92.9025 31.862H98.1945C98.1945 31.124 97.8345 30.08 95.5845 30.08ZM98.2665 34.886H101.921C101.921 35.714 101.273 38.234 96.1065 38.234H95.4405C90.5085 38.234 89.2845 35.534 89.2845 33.14V32.888C89.2845 30.638 90.4005 27.794 95.1345 27.794H95.9265C101.039 27.794 101.957 30.638 101.957 33.428V33.752H92.8665C93.0105 34.904 93.7485 35.84 95.8905 35.84C97.9245 35.84 98.1765 35.048 98.2665 34.886ZM112.604 38H104.36V28.01H112.244C114.53 28.01 115.97 28.82 115.97 30.404V30.494C115.97 31.736 115.178 32.474 113.972 32.672C115.196 32.816 116.294 33.68 116.294 35.12V35.192C116.294 37.01 115.106 38 112.604 38ZM107.87 31.988H111.092C111.938 31.988 112.37 31.664 112.37 31.034V30.944C112.37 30.368 111.974 30.026 111.092 30.026H107.87V31.988ZM107.87 35.984H111.236C112.172 35.984 112.694 35.678 112.694 34.976V34.832C112.694 34.202 112.262 33.806 111.236 33.806H107.87V35.984ZM122.249 38H118.739V28.01H122.249V31.646H127.145V28.01H130.655V38H127.145V34.31H122.249V38ZM138.291 36.002C140.343 36.002 141.045 34.706 141.045 33.95V33.176C140.739 33.302 139.857 33.482 138.849 33.644C137.157 33.932 136.617 34.166 136.617 34.868V34.904C136.617 35.534 137.067 36.002 138.291 36.002ZM141.153 36.614C140.721 37.136 139.641 38.198 137.301 38.198H137.013C134.223 38.198 133.071 36.686 133.071 35.03V34.958C133.071 33.23 134.169 32.168 137.553 31.88L140.289 31.646C140.847 31.592 141.045 31.412 141.045 30.998C141.045 30.53 140.901 30.026 138.957 30.026C137.121 30.026 136.941 30.746 136.941 31.124H133.341V31.088C133.341 30.098 133.737 27.776 138.651 27.776H139.209C144.159 27.776 144.465 29.81 144.465 31.142V34.436C144.465 35.066 144.591 35.318 145.293 35.318H145.671V38H142.827C141.783 38 141.297 37.262 141.153 36.614ZM9.63 62.198H8.802C2.682 62.198 1.062 58.274 1.062 55.538V54.998C1.062 52.208 2.682 48.41 8.802 48.41H9.63C15.246 48.41 17.118 51.164 17.118 53.702V53.738H13.302C13.248 53.36 12.744 51.47 9.216 51.47C5.94 51.47 4.914 53.306 4.914 55.106V55.358C4.914 57.014 5.976 59.12 9.234 59.12C12.798 59.12 13.248 57.194 13.302 56.762H17.118V56.816C17.118 59.264 15.318 62.198 9.63 62.198ZM25.845 62.27H25.287C19.905 62.27 19.077 58.994 19.077 57.176V56.924C19.077 55.124 19.905 51.74 25.269 51.74H25.863C31.407 51.74 32.055 55.142 32.055 56.906V57.194C32.055 58.994 31.407 62.27 25.845 62.27ZM25.467 59.642H25.665C27.879 59.642 28.437 58.058 28.437 56.96C28.437 55.826 27.879 54.314 25.665 54.314H25.467C23.163 54.314 22.695 55.826 22.695 56.96C22.695 58.058 23.163 59.642 25.467 59.642ZM41.9037 62L38.0157 57.374V62H34.5057V52.01H38.0157V56.006L41.5797 52.01H45.6297L41.4537 56.492L46.0797 62H41.9037ZM53.3372 62.27H52.7792C47.3972 62.27 46.5692 58.994 46.5692 57.176V56.924C46.5692 55.124 47.3972 51.74 52.7612 51.74H53.3552C58.8992 51.74 59.5472 55.142 59.5472 56.906V57.194C59.5472 58.994 58.8992 62.27 53.3372 62.27ZM52.9592 59.642H53.1572C55.3712 59.642 55.9292 58.058 55.9292 56.96C55.9292 55.826 55.3712 54.314 53.1572 54.314H52.9592C50.6552 54.314 50.1872 55.826 50.1872 56.96C50.1872 58.058 50.6552 59.642 52.9592 59.642ZM69.9761 62V54.674H66.0161C66.0161 57.356 65.9261 58.85 65.5841 59.768C65.2061 60.776 64.7021 62 62.0561 62H60.9581V59.39H61.1741C61.8041 59.39 62.2721 59.174 62.4701 58.256C62.6141 57.482 62.6681 56.636 62.6681 52.01H73.4861V62H69.9761ZM82.6575 62.27H82.0995C76.7175 62.27 75.8895 58.994 75.8895 57.176V56.924C75.8895 55.124 76.7175 51.74 82.0815 51.74H82.6755C88.2195 51.74 88.8675 55.142 88.8675 56.906V57.194C88.8675 58.994 88.2195 62.27 82.6575 62.27ZM82.2795 59.642H82.4775C84.6915 59.642 85.2495 58.058 85.2495 56.96C85.2495 55.826 84.6915 54.314 82.4775 54.314H82.2795C79.9755 54.314 79.5075 55.826 79.5075 56.96C79.5075 58.058 79.9755 59.642 82.2795 59.642ZM99.5262 62H91.2822V52.01H99.1662C101.452 52.01 102.892 52.82 102.892 54.404V54.494C102.892 55.736 102.1 56.474 100.894 56.672C102.118 56.816 103.216 57.68 103.216 59.12V59.192C103.216 61.01 102.028 62 99.5262 62ZM94.7922 55.988H98.0142C98.8602 55.988 99.2922 55.664 99.2922 55.034V54.944C99.2922 54.368 98.8962 54.026 98.0142 54.026H94.7922V55.988ZM94.7922 59.984H98.1582C99.0942 59.984 99.6162 59.678 99.6162 58.976V58.832C99.6162 58.202 99.1842 57.806 98.1582 57.806H94.7922V59.984ZM110.289 60.002C112.341 60.002 113.043 58.706 113.043 57.95V57.176C112.737 57.302 111.855 57.482 110.847 57.644C109.155 57.932 108.615 58.166 108.615 58.868V58.904C108.615 59.534 109.065 60.002 110.289 60.002ZM113.151 60.614C112.719 61.136 111.639 62.198 109.299 62.198H109.011C106.221 62.198 105.069 60.686 105.069 59.03V58.958C105.069 57.23 106.167 56.168 109.551 55.88L112.287 55.646C112.845 55.592 113.043 55.412 113.043 54.998C113.043 54.53 112.899 54.026 110.955 54.026C109.119 54.026 108.939 54.746 108.939 55.124H105.339V55.088C105.339 54.098 105.735 51.776 110.649 51.776H111.207C116.157 51.776 116.463 53.81 116.463 55.142V58.436C116.463 59.066 116.589 59.318 117.291 59.318H117.669V62H114.825C113.781 62 113.295 61.262 113.151 60.614Z" fill="url(#paint1_radial_2018_1374)" style="mix-blend-mode:overlay"/>
<path d="M1.656 14V0.608H6.588L10.854 9.68L15.246 0.608H19.872V14H16.254V5.234L12.186 14H9.288L5.22 5.234V14H1.656ZM27.7072 12.002C29.7592 12.002 30.4612 10.706 30.4612 9.95V9.176C30.1552 9.302 29.2732 9.482 28.2652 9.644C26.5732 9.932 26.0332 10.166 26.0332 10.868V10.904C26.0332 11.534 26.4832 12.002 27.7072 12.002ZM30.5692 12.614C30.1372 13.136 29.0572 14.198 26.7172 14.198H26.4292C23.6392 14.198 22.4872 12.686 22.4872 11.03V10.958C22.4872 9.23 23.5852 8.168 26.9692 7.88L29.7052 7.646C30.2632 7.592 30.4612 7.412 30.4612 6.998C30.4612 6.53 30.3172 6.026 28.3732 6.026C26.5372 6.026 26.3572 6.746 26.3572 7.124H22.7572V7.088C22.7572 6.098 23.1532 3.776 28.0672 3.776H28.6252C33.5752 3.776 33.8812 5.81 33.8812 7.142V10.436C33.8812 11.066 34.0072 11.318 34.7092 11.318H35.0872V14H32.2432C31.1992 14 30.7132 13.262 30.5692 12.614ZM46.2689 9.014V8.96C46.2689 7.88 45.7649 6.422 43.5689 6.422H43.3889C41.2829 6.422 40.6169 7.808 40.6169 8.96V9.014C40.6169 10.112 41.2829 11.552 43.3889 11.552H43.5689C45.7649 11.552 46.2689 10.04 46.2689 9.014ZM37.1249 17.438V4.01H40.5989V5.288C41.0309 4.82 42.3449 3.812 44.6129 3.812H44.8469C48.6629 3.812 49.9049 6.422 49.9049 8.798V9.104C49.9049 11.282 48.6269 14.198 44.8289 14.198H44.5769C42.2909 14.198 41.0669 13.154 40.6349 12.722V17.438H37.1249ZM60.7707 7.952L55.9467 14H52.3467V4.01H55.8567V10.058L60.6807 4.01H64.2807V14H60.7707V7.952ZM75.6062 10.652H73.2482L70.3322 14H66.3722L69.6302 10.274C67.9022 9.932 66.9122 8.942 66.9122 7.43V7.214C66.9122 5.396 68.3882 4.01 70.8902 4.01H79.1162V14H75.6062V10.652ZM75.6062 6.314H71.8442C71.0702 6.314 70.4222 6.494 70.4222 7.286V7.358C70.4222 8.132 71.0882 8.366 71.8622 8.366H75.6062V6.314ZM10.998 32.762L8.568 27.308L6.21 32.762H10.998ZM13.338 38L12.24 35.516H5.004L3.924 38H0.198L6.138 24.608H11.106L17.316 38H13.338ZM27.1558 38V30.674H23.1958C23.1958 33.356 23.1058 34.85 22.7638 35.768C22.3858 36.776 21.8818 38 19.2358 38H18.1378V35.39H18.3538C18.9838 35.39 19.4518 35.174 19.6498 34.256C19.7938 33.482 19.8478 32.636 19.8478 28.01H30.6658V38H27.1558ZM39.3872 30.08C37.5692 30.08 36.8852 30.818 36.7052 31.862H41.9972C41.9972 31.124 41.6372 30.08 39.3872 30.08ZM42.0692 34.886H45.7232C45.7232 35.714 45.0752 38.234 39.9092 38.234H39.2432C34.3112 38.234 33.0872 35.534 33.0872 33.14V32.888C33.0872 30.638 34.2032 27.794 38.9372 27.794H39.7292C44.8412 27.794 45.7592 30.638 45.7592 33.428V33.752H36.6692C36.8132 34.904 37.5512 35.84 39.6932 35.84C41.7272 35.84 41.9792 35.048 42.0692 34.886ZM55.5971 38L51.7091 33.374V38H48.1991V28.01H51.7091V32.006L55.2731 28.01H59.3231L55.1471 32.492L59.7731 38H55.5971ZM69.1186 34.076H72.7906C72.7906 35.588 71.8906 38.27 67.0846 38.27H66.2026C61.2166 38.27 60.2806 35.03 60.2806 33.14V32.888C60.2806 30.998 61.1626 27.74 66.1846 27.74H67.0126C71.8366 27.74 72.7906 30.368 72.7906 31.808V31.826H69.1186C69.0646 31.538 68.7226 30.296 66.6526 30.296H66.4726C64.4026 30.296 63.9166 31.718 63.9166 32.924V32.942C63.9166 34.184 64.5106 35.66 66.5446 35.66H66.7246C68.8126 35.66 69.1186 34.31 69.1186 34.076ZM80.9947 30.08C79.1767 30.08 78.4927 30.818 78.3127 31.862H83.6047C83.6047 31.124 83.2447 30.08 80.9947 30.08ZM83.6767 34.886H87.3307C87.3307 35.714 86.6827 38.234 81.5167 38.234H80.8507C75.9187 38.234 74.6947 35.534 74.6947 33.14V32.888C74.6947 30.638 75.8107 27.794 80.5447 27.794H81.3367C86.4487 27.794 87.3667 30.638 87.3667 33.428V33.752H78.2767C78.4207 34.904 79.1587 35.84 81.3007 35.84C83.3347 35.84 83.5867 35.048 83.6767 34.886ZM95.5845 30.08C93.7665 30.08 93.0825 30.818 92.9025 31.862H98.1945C98.1945 31.124 97.8345 30.08 95.5845 30.08ZM98.2665 34.886H101.921C101.921 35.714 101.273 38.234 96.1065 38.234H95.4405C90.5085 38.234 89.2845 35.534 89.2845 33.14V32.888C89.2845 30.638 90.4005 27.794 95.1345 27.794H95.9265C101.039 27.794 101.957 30.638 101.957 33.428V33.752H92.8665C93.0105 34.904 93.7485 35.84 95.8905 35.84C97.9245 35.84 98.1765 35.048 98.2665 34.886ZM112.604 38H104.36V28.01H112.244C114.53 28.01 115.97 28.82 115.97 30.404V30.494C115.97 31.736 115.178 32.474 113.972 32.672C115.196 32.816 116.294 33.68 116.294 35.12V35.192C116.294 37.01 115.106 38 112.604 38ZM107.87 31.988H111.092C111.938 31.988 112.37 31.664 112.37 31.034V30.944C112.37 30.368 111.974 30.026 111.092 30.026H107.87V31.988ZM107.87 35.984H111.236C112.172 35.984 112.694 35.678 112.694 34.976V34.832C112.694 34.202 112.262 33.806 111.236 33.806H107.87V35.984ZM122.249 38H118.739V28.01H122.249V31.646H127.145V28.01H130.655V38H127.145V34.31H122.249V38ZM138.291 36.002C140.343 36.002 141.045 34.706 141.045 33.95V33.176C140.739 33.302 139.857 33.482 138.849 33.644C137.157 33.932 136.617 34.166 136.617 34.868V34.904C136.617 35.534 137.067 36.002 138.291 36.002ZM141.153 36.614C140.721 37.136 139.641 38.198 137.301 38.198H137.013C134.223 38.198 133.071 36.686 133.071 35.03V34.958C133.071 33.23 134.169 32.168 137.553 31.88L140.289 31.646C140.847 31.592 141.045 31.412 141.045 30.998C141.045 30.53 140.901 30.026 138.957 30.026C137.121 30.026 136.941 30.746 136.941 31.124H133.341V31.088C133.341 30.098 133.737 27.776 138.651 27.776H139.209C144.159 27.776 144.465 29.81 144.465 31.142V34.436C144.465 35.066 144.591 35.318 145.293 35.318H145.671V38H142.827C141.783 38 141.297 37.262 141.153 36.614ZM9.63 62.198H8.802C2.682 62.198 1.062 58.274 1.062 55.538V54.998C1.062 52.208 2.682 48.41 8.802 48.41H9.63C15.246 48.41 17.118 51.164 17.118 53.702V53.738H13.302C13.248 53.36 12.744 51.47 9.216 51.47C5.94 51.47 4.914 53.306 4.914 55.106V55.358C4.914 57.014 5.976 59.12 9.234 59.12C12.798 59.12 13.248 57.194 13.302 56.762H17.118V56.816C17.118 59.264 15.318 62.198 9.63 62.198ZM25.845 62.27H25.287C19.905 62.27 19.077 58.994 19.077 57.176V56.924C19.077 55.124 19.905 51.74 25.269 51.74H25.863C31.407 51.74 32.055 55.142 32.055 56.906V57.194C32.055 58.994 31.407 62.27 25.845 62.27ZM25.467 59.642H25.665C27.879 59.642 28.437 58.058 28.437 56.96C28.437 55.826 27.879 54.314 25.665 54.314H25.467C23.163 54.314 22.695 55.826 22.695 56.96C22.695 58.058 23.163 59.642 25.467 59.642ZM41.9037 62L38.0157 57.374V62H34.5057V52.01H38.0157V56.006L41.5797 52.01H45.6297L41.4537 56.492L46.0797 62H41.9037ZM53.3372 62.27H52.7792C47.3972 62.27 46.5692 58.994 46.5692 57.176V56.924C46.5692 55.124 47.3972 51.74 52.7612 51.74H53.3552C58.8992 51.74 59.5472 55.142 59.5472 56.906V57.194C59.5472 58.994 58.8992 62.27 53.3372 62.27ZM52.9592 59.642H53.1572C55.3712 59.642 55.9292 58.058 55.9292 56.96C55.9292 55.826 55.3712 54.314 53.1572 54.314H52.9592C50.6552 54.314 50.1872 55.826 50.1872 56.96C50.1872 58.058 50.6552 59.642 52.9592 59.642ZM69.9761 62V54.674H66.0161C66.0161 57.356 65.9261 58.85 65.5841 59.768C65.2061 60.776 64.7021 62 62.0561 62H60.9581V59.39H61.1741C61.8041 59.39 62.2721 59.174 62.4701 58.256C62.6141 57.482 62.6681 56.636 62.6681 52.01H73.4861V62H69.9761ZM82.6575 62.27H82.0995C76.7175 62.27 75.8895 58.994 75.8895 57.176V56.924C75.8895 55.124 76.7175 51.74 82.0815 51.74H82.6755C88.2195 51.74 88.8675 55.142 88.8675 56.906V57.194C88.8675 58.994 88.2195 62.27 82.6575 62.27ZM82.2795 59.642H82.4775C84.6915 59.642 85.2495 58.058 85.2495 56.96C85.2495 55.826 84.6915 54.314 82.4775 54.314H82.2795C79.9755 54.314 79.5075 55.826 79.5075 56.96C79.5075 58.058 79.9755 59.642 82.2795 59.642ZM99.5262 62H91.2822V52.01H99.1662C101.452 52.01 102.892 52.82 102.892 54.404V54.494C102.892 55.736 102.1 56.474 100.894 56.672C102.118 56.816 103.216 57.68 103.216 59.12V59.192C103.216 61.01 102.028 62 99.5262 62ZM94.7922 55.988H98.0142C98.8602 55.988 99.2922 55.664 99.2922 55.034V54.944C99.2922 54.368 98.8962 54.026 98.0142 54.026H94.7922V55.988ZM94.7922 59.984H98.1582C99.0942 59.984 99.6162 59.678 99.6162 58.976V58.832C99.6162 58.202 99.1842 57.806 98.1582 57.806H94.7922V59.984ZM110.289 60.002C112.341 60.002 113.043 58.706 113.043 57.95V57.176C112.737 57.302 111.855 57.482 110.847 57.644C109.155 57.932 108.615 58.166 108.615 58.868V58.904C108.615 59.534 109.065 60.002 110.289 60.002ZM113.151 60.614C112.719 61.136 111.639 62.198 109.299 62.198H109.011C106.221 62.198 105.069 60.686 105.069 59.03V58.958C105.069 57.23 106.167 56.168 109.551 55.88L112.287 55.646C112.845 55.592 113.043 55.412 113.043 54.998C113.043 54.53 112.899 54.026 110.955 54.026C109.119 54.026 108.939 54.746 108.939 55.124H105.339V55.088C105.339 54.098 105.735 51.776 110.649 51.776H111.207C116.157 51.776 116.463 53.81 116.463 55.142V58.436C116.463 59.066 116.589 59.318 117.291 59.318H117.669V62H114.825C113.781 62 113.295 61.262 113.151 60.614Z" fill="url(#paint2_radial_2018_1374)"/>
<path d="M1.656 14V0.608H6.588L10.854 9.68L15.246 0.608H19.872V14H16.254V5.234L12.186 14H9.288L5.22 5.234V14H1.656ZM27.7072 12.002C29.7592 12.002 30.4612 10.706 30.4612 9.95V9.176C30.1552 9.302 29.2732 9.482 28.2652 9.644C26.5732 9.932 26.0332 10.166 26.0332 10.868V10.904C26.0332 11.534 26.4832 12.002 27.7072 12.002ZM30.5692 12.614C30.1372 13.136 29.0572 14.198 26.7172 14.198H26.4292C23.6392 14.198 22.4872 12.686 22.4872 11.03V10.958C22.4872 9.23 23.5852 8.168 26.9692 7.88L29.7052 7.646C30.2632 7.592 30.4612 7.412 30.4612 6.998C30.4612 6.53 30.3172 6.026 28.3732 6.026C26.5372 6.026 26.3572 6.746 26.3572 7.124H22.7572V7.088C22.7572 6.098 23.1532 3.776 28.0672 3.776H28.6252C33.5752 3.776 33.8812 5.81 33.8812 7.142V10.436C33.8812 11.066 34.0072 11.318 34.7092 11.318H35.0872V14H32.2432C31.1992 14 30.7132 13.262 30.5692 12.614ZM46.2689 9.014V8.96C46.2689 7.88 45.7649 6.422 43.5689 6.422H43.3889C41.2829 6.422 40.6169 7.808 40.6169 8.96V9.014C40.6169 10.112 41.2829 11.552 43.3889 11.552H43.5689C45.7649 11.552 46.2689 10.04 46.2689 9.014ZM37.1249 17.438V4.01H40.5989V5.288C41.0309 4.82 42.3449 3.812 44.6129 3.812H44.8469C48.6629 3.812 49.9049 6.422 49.9049 8.798V9.104C49.9049 11.282 48.6269 14.198 44.8289 14.198H44.5769C42.2909 14.198 41.0669 13.154 40.6349 12.722V17.438H37.1249ZM60.7707 7.952L55.9467 14H52.3467V4.01H55.8567V10.058L60.6807 4.01H64.2807V14H60.7707V7.952ZM75.6062 10.652H73.2482L70.3322 14H66.3722L69.6302 10.274C67.9022 9.932 66.9122 8.942 66.9122 7.43V7.214C66.9122 5.396 68.3882 4.01 70.8902 4.01H79.1162V14H75.6062V10.652ZM75.6062 6.314H71.8442C71.0702 6.314 70.4222 6.494 70.4222 7.286V7.358C70.4222 8.132 71.0882 8.366 71.8622 8.366H75.6062V6.314ZM10.998 32.762L8.568 27.308L6.21 32.762H10.998ZM13.338 38L12.24 35.516H5.004L3.924 38H0.198L6.138 24.608H11.106L17.316 38H13.338ZM27.1558 38V30.674H23.1958C23.1958 33.356 23.1058 34.85 22.7638 35.768C22.3858 36.776 21.8818 38 19.2358 38H18.1378V35.39H18.3538C18.9838 35.39 19.4518 35.174 19.6498 34.256C19.7938 33.482 19.8478 32.636 19.8478 28.01H30.6658V38H27.1558ZM39.3872 30.08C37.5692 30.08 36.8852 30.818 36.7052 31.862H41.9972C41.9972 31.124 41.6372 30.08 39.3872 30.08ZM42.0692 34.886H45.7232C45.7232 35.714 45.0752 38.234 39.9092 38.234H39.2432C34.3112 38.234 33.0872 35.534 33.0872 33.14V32.888C33.0872 30.638 34.2032 27.794 38.9372 27.794H39.7292C44.8412 27.794 45.7592 30.638 45.7592 33.428V33.752H36.6692C36.8132 34.904 37.5512 35.84 39.6932 35.84C41.7272 35.84 41.9792 35.048 42.0692 34.886ZM55.5971 38L51.7091 33.374V38H48.1991V28.01H51.7091V32.006L55.2731 28.01H59.3231L55.1471 32.492L59.7731 38H55.5971ZM69.1186 34.076H72.7906C72.7906 35.588 71.8906 38.27 67.0846 38.27H66.2026C61.2166 38.27 60.2806 35.03 60.2806 33.14V32.888C60.2806 30.998 61.1626 27.74 66.1846 27.74H67.0126C71.8366 27.74 72.7906 30.368 72.7906 31.808V31.826H69.1186C69.0646 31.538 68.7226 30.296 66.6526 30.296H66.4726C64.4026 30.296 63.9166 31.718 63.9166 32.924V32.942C63.9166 34.184 64.5106 35.66 66.5446 35.66H66.7246C68.8126 35.66 69.1186 34.31 69.1186 34.076ZM80.9947 30.08C79.1767 30.08 78.4927 30.818 78.3127 31.862H83.6047C83.6047 31.124 83.2447 30.08 80.9947 30.08ZM83.6767 34.886H87.3307C87.3307 35.714 86.6827 38.234 81.5167 38.234H80.8507C75.9187 38.234 74.6947 35.534 74.6947 33.14V32.888C74.6947 30.638 75.8107 27.794 80.5447 27.794H81.3367C86.4487 27.794 87.3667 30.638 87.3667 33.428V33.752H78.2767C78.4207 34.904 79.1587 35.84 81.3007 35.84C83.3347 35.84 83.5867 35.048 83.6767 34.886ZM95.5845 30.08C93.7665 30.08 93.0825 30.818 92.9025 31.862H98.1945C98.1945 31.124 97.8345 30.08 95.5845 30.08ZM98.2665 34.886H101.921C101.921 35.714 101.273 38.234 96.1065 38.234H95.4405C90.5085 38.234 89.2845 35.534 89.2845 33.14V32.888C89.2845 30.638 90.4005 27.794 95.1345 27.794H95.9265C101.039 27.794 101.957 30.638 101.957 33.428V33.752H92.8665C93.0105 34.904 93.7485 35.84 95.8905 35.84C97.9245 35.84 98.1765 35.048 98.2665 34.886ZM112.604 38H104.36V28.01H112.244C114.53 28.01 115.97 28.82 115.97 30.404V30.494C115.97 31.736 115.178 32.474 113.972 32.672C115.196 32.816 116.294 33.68 116.294 35.12V35.192C116.294 37.01 115.106 38 112.604 38ZM107.87 31.988H111.092C111.938 31.988 112.37 31.664 112.37 31.034V30.944C112.37 30.368 111.974 30.026 111.092 30.026H107.87V31.988ZM107.87 35.984H111.236C112.172 35.984 112.694 35.678 112.694 34.976V34.832C112.694 34.202 112.262 33.806 111.236 33.806H107.87V35.984ZM122.249 38H118.739V28.01H122.249V31.646H127.145V28.01H130.655V38H127.145V34.31H122.249V38ZM138.291 36.002C140.343 36.002 141.045 34.706 141.045 33.95V33.176C140.739 33.302 139.857 33.482 138.849 33.644C137.157 33.932 136.617 34.166 136.617 34.868V34.904C136.617 35.534 137.067 36.002 138.291 36.002ZM141.153 36.614C140.721 37.136 139.641 38.198 137.301 38.198H137.013C134.223 38.198 133.071 36.686 133.071 35.03V34.958C133.071 33.23 134.169 32.168 137.553 31.88L140.289 31.646C140.847 31.592 141.045 31.412 141.045 30.998C141.045 30.53 140.901 30.026 138.957 30.026C137.121 30.026 136.941 30.746 136.941 31.124H133.341V31.088C133.341 30.098 133.737 27.776 138.651 27.776H139.209C144.159 27.776 144.465 29.81 144.465 31.142V34.436C144.465 35.066 144.591 35.318 145.293 35.318H145.671V38H142.827C141.783 38 141.297 37.262 141.153 36.614ZM9.63 62.198H8.802C2.682 62.198 1.062 58.274 1.062 55.538V54.998C1.062 52.208 2.682 48.41 8.802 48.41H9.63C15.246 48.41 17.118 51.164 17.118 53.702V53.738H13.302C13.248 53.36 12.744 51.47 9.216 51.47C5.94 51.47 4.914 53.306 4.914 55.106V55.358C4.914 57.014 5.976 59.12 9.234 59.12C12.798 59.12 13.248 57.194 13.302 56.762H17.118V56.816C17.118 59.264 15.318 62.198 9.63 62.198ZM25.845 62.27H25.287C19.905 62.27 19.077 58.994 19.077 57.176V56.924C19.077 55.124 19.905 51.74 25.269 51.74H25.863C31.407 51.74 32.055 55.142 32.055 56.906V57.194C32.055 58.994 31.407 62.27 25.845 62.27ZM25.467 59.642H25.665C27.879 59.642 28.437 58.058 28.437 56.96C28.437 55.826 27.879 54.314 25.665 54.314H25.467C23.163 54.314 22.695 55.826 22.695 56.96C22.695 58.058 23.163 59.642 25.467 59.642ZM41.9037 62L38.0157 57.374V62H34.5057V52.01H38.0157V56.006L41.5797 52.01H45.6297L41.4537 56.492L46.0797 62H41.9037ZM53.3372 62.27H52.7792C47.3972 62.27 46.5692 58.994 46.5692 57.176V56.924C46.5692 55.124 47.3972 51.74 52.7612 51.74H53.3552C58.8992 51.74 59.5472 55.142 59.5472 56.906V57.194C59.5472 58.994 58.8992 62.27 53.3372 62.27ZM52.9592 59.642H53.1572C55.3712 59.642 55.9292 58.058 55.9292 56.96C55.9292 55.826 55.3712 54.314 53.1572 54.314H52.9592C50.6552 54.314 50.1872 55.826 50.1872 56.96C50.1872 58.058 50.6552 59.642 52.9592 59.642ZM69.9761 62V54.674H66.0161C66.0161 57.356 65.9261 58.85 65.5841 59.768C65.2061 60.776 64.7021 62 62.0561 62H60.9581V59.39H61.1741C61.8041 59.39 62.2721 59.174 62.4701 58.256C62.6141 57.482 62.6681 56.636 62.6681 52.01H73.4861V62H69.9761ZM82.6575 62.27H82.0995C76.7175 62.27 75.8895 58.994 75.8895 57.176V56.924C75.8895 55.124 76.7175 51.74 82.0815 51.74H82.6755C88.2195 51.74 88.8675 55.142 88.8675 56.906V57.194C88.8675 58.994 88.2195 62.27 82.6575 62.27ZM82.2795 59.642H82.4775C84.6915 59.642 85.2495 58.058 85.2495 56.96C85.2495 55.826 84.6915 54.314 82.4775 54.314H82.2795C79.9755 54.314 79.5075 55.826 79.5075 56.96C79.5075 58.058 79.9755 59.642 82.2795 59.642ZM99.5262 62H91.2822V52.01H99.1662C101.452 52.01 102.892 52.82 102.892 54.404V54.494C102.892 55.736 102.1 56.474 100.894 56.672C102.118 56.816 103.216 57.68 103.216 59.12V59.192C103.216 61.01 102.028 62 99.5262 62ZM94.7922 55.988H98.0142C98.8602 55.988 99.2922 55.664 99.2922 55.034V54.944C99.2922 54.368 98.8962 54.026 98.0142 54.026H94.7922V55.988ZM94.7922 59.984H98.1582C99.0942 59.984 99.6162 59.678 99.6162 58.976V58.832C99.6162 58.202 99.1842 57.806 98.1582 57.806H94.7922V59.984ZM110.289 60.002C112.341 60.002 113.043 58.706 113.043 57.95V57.176C112.737 57.302 111.855 57.482 110.847 57.644C109.155 57.932 108.615 58.166 108.615 58.868V58.904C108.615 59.534 109.065 60.002 110.289 60.002ZM113.151 60.614C112.719 61.136 111.639 62.198 109.299 62.198H109.011C106.221 62.198 105.069 60.686 105.069 59.03V58.958C105.069 57.23 106.167 56.168 109.551 55.88L112.287 55.646C112.845 55.592 113.043 55.412 113.043 54.998C113.043 54.53 112.899 54.026 110.955 54.026C109.119 54.026 108.939 54.746 108.939 55.124H105.339V55.088C105.339 54.098 105.735 51.776 110.649 51.776H111.207C116.157 51.776 116.463 53.81 116.463 55.142V58.436C116.463 59.066 116.589 59.318 117.291 59.318H117.669V62H114.825C113.781 62 113.295 61.262 113.151 60.614Z" fill="#C1A875" style="mix-blend-mode:color"/>
<defs>
<linearGradient id="paint0_linear_2018_1374" x1="8.27014e-07" y1="30" x2="222" y2="30" gradientUnits="userSpaceOnUse">
<stop stop-color="#576167"/>
<stop offset="0.191294" stop-color="#9EA1A2"/>
<stop offset="0.396166" stop-color="#848989"/>
<stop offset="0.62055" stop-color="#576167"/>
<stop offset="0.830299" stop-color="#757A7C"/>
<stop offset="1" stop-color="#576167"/>
</linearGradient>
<radialGradient id="paint1_radial_2018_1374" cx="0" cy="0" r="1" gradientUnits="userSpaceOnUse" gradientTransform="translate(118.226 2.39326) rotate(90) scale(53.4944 167.95)">
<stop stop-color="white"/>
<stop offset="1" stop-color="white" stop-opacity="0"/>
</radialGradient>
<radialGradient id="paint2_radial_2018_1374" cx="0" cy="0" r="1" gradientUnits="userSpaceOnUse" gradientTransform="translate(130.783 82.9888) rotate(-89.7344) scale(76.6525 240.162)">
<stop stop-color="white"/>
<stop offset="1" stop-color="white" stop-opacity="0"/>
</radialGradient>
</defs>
</svg>
