<svg width="149" height="66" viewBox="0 0 149 66" fill="none" xmlns="http://www.w3.org/2000/svg">
<path d="M8.63 14.198H7.802C1.682 14.198 0.0620001 10.274 0.0620001 7.538V6.998C0.0620001 4.208 1.682 0.409999 7.802 0.409999H8.63C14.246 0.409999 16.118 3.164 16.118 5.702V5.738H12.302C12.248 5.36 11.744 3.47 8.216 3.47C4.94 3.47 3.914 5.306 3.914 7.106V7.358C3.914 9.014 4.976 11.12 8.234 11.12C11.798 11.12 12.248 9.194 12.302 8.762H16.118V8.816C16.118 11.264 14.318 14.198 8.63 14.198ZM24.395 6.08C22.577 6.08 21.893 6.818 21.713 7.862H27.005C27.005 7.124 26.645 6.08 24.395 6.08ZM27.077 10.886H30.731C30.731 11.714 30.083 14.234 24.917 14.234H24.251C19.319 14.234 18.095 11.534 18.095 9.14V8.888C18.095 6.638 19.211 3.794 23.945 3.794H24.737C29.849 3.794 30.767 6.638 30.767 9.428V9.752H21.677C21.821 10.904 22.559 11.84 24.701 11.84C26.735 11.84 26.987 11.048 27.077 10.886ZM42.3509 9.014V8.96C42.3509 7.88 41.8469 6.422 39.6509 6.422H39.4709C37.3649 6.422 36.6989 7.808 36.6989 8.96V9.014C36.6989 10.112 37.3649 11.552 39.4709 11.552H39.6509C41.8469 11.552 42.3509 10.04 42.3509 9.014ZM33.2069 17.438V4.01H36.6809V5.288C37.1129 4.82 38.4269 3.812 40.6949 3.812H40.9289C44.7449 3.812 45.9869 6.422 45.9869 8.798V9.104C45.9869 11.282 44.7089 14.198 40.9109 14.198H40.6589C38.3729 14.198 37.1489 13.154 36.7169 12.722V17.438H33.2069ZM48.4287 14V4.01H57.1407V6.674H51.9387V14H48.4287ZM64.8599 6.08C63.0419 6.08 62.3579 6.818 62.1779 7.862H67.4699C67.4699 7.124 67.1099 6.08 64.8599 6.08ZM67.5419 10.886H71.1959C71.1959 11.714 70.5479 14.234 65.3819 14.234H64.7159C59.7839 14.234 58.5599 11.534 58.5599 9.14V8.888C58.5599 6.638 59.6759 3.794 64.4099 3.794H65.2019C70.3139 3.794 71.2319 6.638 71.2319 9.428V9.752H62.1419C62.2859 10.904 63.0239 11.84 65.1659 11.84C67.1999 11.84 67.4519 11.048 67.5419 10.886ZM82.0597 7.952L77.2357 14H73.6357V4.01H77.1457V10.058L81.9697 4.01H85.5697V14H82.0597V7.952ZM79.8277 2.984H79.2877C76.4257 2.984 75.9217 1.04 75.9217 0.104V0.0499994H78.5677C78.5677 0.284 78.6757 1.004 79.5757 1.004C80.4217 1.004 80.5477 0.284 80.5477 0.0499994H83.1577V0.104C83.1577 1.04 82.4377 2.984 79.8277 2.984ZM0.656 38V24.608H5.588L9.854 33.68L14.246 24.608H18.872V38H15.254V29.234L11.186 38H8.288L4.22 29.234V38H0.656ZM30.4152 31.952L25.5912 38H21.9912V28.01H25.5012V34.058L30.3252 28.01H33.9252V38H30.4152V31.952ZM44.8367 38L42.1547 35.138L39.5447 38H35.5667L40.0487 32.996L35.4227 28.01H39.7247L42.2807 30.8L44.7467 28.01H48.6167L44.3147 32.924L48.8867 38H44.8367ZM55.008 36.002C57.06 36.002 57.762 34.706 57.762 33.95V33.176C57.456 33.302 56.574 33.482 55.566 33.644C53.874 33.932 53.334 34.166 53.334 34.868V34.904C53.334 35.534 53.784 36.002 55.008 36.002ZM57.87 36.614C57.438 37.136 56.358 38.198 54.018 38.198H53.73C50.94 38.198 49.788 36.686 49.788 35.03V34.958C49.788 33.23 50.886 32.168 54.27 31.88L57.006 31.646C57.564 31.592 57.762 31.412 57.762 30.998C57.762 30.53 57.618 30.026 55.674 30.026C53.838 30.026 53.658 30.746 53.658 31.124H50.058V31.088C50.058 30.098 50.454 27.776 55.368 27.776H55.926C60.876 27.776 61.182 29.81 61.182 31.142V34.436C61.182 35.066 61.308 35.318 62.01 35.318H62.388V38H59.544C58.5 38 58.014 37.262 57.87 36.614ZM72.8136 31.952L67.9896 38H64.3896V28.01H67.8996V34.058L72.7236 28.01H76.3236V38H72.8136V31.952ZM70.5816 26.984H70.0416C67.1796 26.984 66.6756 25.04 66.6756 24.104V24.05H69.3216C69.3216 24.284 69.4296 25.004 70.3296 25.004C71.1756 25.004 71.3016 24.284 71.3016 24.05H73.9116V24.104C73.9116 25.04 73.1916 26.984 70.5816 26.984ZM87.4332 38V30.674H83.4732C83.4732 33.356 83.3832 34.85 83.0412 35.768C82.6632 36.776 82.1592 38 79.5132 38H78.4152V35.39H78.6312C79.2612 35.39 79.7292 35.174 79.9272 34.256C80.0712 33.482 80.1252 32.636 80.1252 28.01H90.9432V38H87.4332ZM100.115 38.27H99.5566C94.1746 38.27 93.3466 34.994 93.3466 33.176V32.924C93.3466 31.124 94.1746 27.74 99.5386 27.74H100.133C105.677 27.74 106.325 31.142 106.325 32.906V33.194C106.325 34.994 105.677 38.27 100.115 38.27ZM99.7366 35.642H99.9346C102.149 35.642 102.707 34.058 102.707 32.96C102.707 31.826 102.149 30.314 99.9346 30.314H99.7366C97.4326 30.314 96.9646 31.826 96.9646 32.96C96.9646 34.058 97.4326 35.642 99.7366 35.642ZM116.983 38H108.739V28.01H116.623C118.909 28.01 120.349 28.82 120.349 30.404V30.494C120.349 31.736 119.557 32.474 118.351 32.672C119.575 32.816 120.673 33.68 120.673 35.12V35.192C120.673 37.01 119.485 38 116.983 38ZM112.249 31.988H115.471C116.317 31.988 116.749 31.664 116.749 31.034V30.944C116.749 30.368 116.353 30.026 115.471 30.026H112.249V31.988ZM112.249 35.984H115.615C116.551 35.984 117.073 35.678 117.073 34.976V34.832C117.073 34.202 116.641 33.806 115.615 33.806H112.249V35.984ZM131.542 31.952L126.718 38H123.118V28.01H126.628V34.058L131.452 28.01H135.052V38H131.542V31.952ZM145.388 28.01H148.898V38H145.388V34.562C144.614 34.652 143.714 34.742 142.778 34.742C138.818 34.742 137.324 33.626 137.324 30.458V28.01H140.834V29.81C140.834 31.682 141.464 32.006 143.318 32.006C144.02 32.006 144.83 31.952 145.388 31.88V28.01ZM0.656 62V48.608H14.534V62H10.826V51.56H4.364V62H0.656ZM26.8294 57.014V56.96C26.8294 55.88 26.3254 54.422 24.1294 54.422H23.9494C21.8434 54.422 21.1774 55.808 21.1774 56.96V57.014C21.1774 58.112 21.8434 59.552 23.9494 59.552H24.1294C26.3254 59.552 26.8294 58.04 26.8294 57.014ZM17.6854 65.438V52.01H21.1594V53.288C21.5914 52.82 22.9054 51.812 25.1734 51.812H25.4074C29.2234 51.812 30.4654 54.422 30.4654 56.798V57.104C30.4654 59.282 29.1874 62.198 25.3894 62.198H25.1374C22.8514 62.198 21.6274 61.154 21.1954 60.722V65.438H17.6854ZM39.1712 62.27H38.6132C33.2312 62.27 32.4032 58.994 32.4032 57.176V56.924C32.4032 55.124 33.2312 51.74 38.5952 51.74H39.1892C44.7332 51.74 45.3812 55.142 45.3812 56.906V57.194C45.3812 58.994 44.7332 62.27 39.1712 62.27ZM38.7932 59.642H38.9912C41.2052 59.642 41.7632 58.058 41.7632 56.96C41.7632 55.826 41.2052 54.314 38.9912 54.314H38.7932C36.4892 54.314 36.0212 55.826 36.0212 56.96C36.0212 58.058 36.4892 59.642 38.7932 59.642ZM55.6121 62L52.9301 59.138L50.3201 62H46.3421L50.8241 56.996L46.1981 52.01H50.5001L53.0561 54.8L55.5221 52.01H59.3921L55.0901 56.924L59.6621 62H55.6121ZM67.2435 62.27H66.6855C61.3035 62.27 60.4755 58.994 60.4755 57.176V56.924C60.4755 55.124 61.3035 51.74 66.6675 51.74H67.2615C72.8055 51.74 73.4535 55.142 73.4535 56.906V57.194C73.4535 58.994 72.8055 62.27 67.2435 62.27ZM66.8655 59.642H67.0635C69.2775 59.642 69.8355 58.058 69.8355 56.96C69.8355 55.826 69.2775 54.314 67.0635 54.314H66.8655C64.5615 54.314 64.0935 55.826 64.0935 56.96C64.0935 58.058 64.5615 59.642 66.8655 59.642ZM85.0482 57.014V56.96C85.0482 55.88 84.5442 54.422 82.3482 54.422H82.1682C80.0622 54.422 79.3962 55.808 79.3962 56.96V57.014C79.3962 58.112 80.0622 59.552 82.1682 59.552H82.3482C84.5442 59.552 85.0482 58.04 85.0482 57.014ZM75.9042 65.438V52.01H79.3782V53.288C79.8102 52.82 81.1242 51.812 83.3922 51.812H83.6262C87.4422 51.812 88.6842 54.422 88.6842 56.798V57.104C88.6842 59.282 87.4062 62.198 83.6082 62.198H83.3562C81.0702 62.198 79.8462 61.154 79.4142 60.722V65.438H75.9042ZM97.39 62.27H96.832C91.45 62.27 90.622 58.994 90.622 57.176V56.924C90.622 55.124 91.45 51.74 96.814 51.74H97.408C102.952 51.74 103.6 55.142 103.6 56.906V57.194C103.6 58.994 102.952 62.27 97.39 62.27ZM97.012 59.642H97.21C99.424 59.642 99.982 58.058 99.982 56.96C99.982 55.826 99.424 54.314 97.21 54.314H97.012C94.708 54.314 94.24 55.826 94.24 56.96C94.24 58.058 94.708 59.642 97.012 59.642ZM114.259 62H106.015V52.01H113.899C116.185 52.01 117.625 52.82 117.625 54.404V54.494C117.625 55.736 116.833 56.474 115.627 56.672C116.851 56.816 117.949 57.68 117.949 59.12V59.192C117.949 61.01 116.761 62 114.259 62ZM109.525 55.988H112.747C113.593 55.988 114.025 55.664 114.025 55.034V54.944C114.025 54.368 113.629 54.026 112.747 54.026H109.525V55.988ZM109.525 59.984H112.891C113.827 59.984 114.349 59.678 114.349 58.976V58.832C114.349 58.202 113.917 57.806 112.891 57.806H109.525V59.984Z" fill="url(#paint0_linear_2018_1439)"/>
<path d="M8.63 14.198H7.802C1.682 14.198 0.0620001 10.274 0.0620001 7.538V6.998C0.0620001 4.208 1.682 0.409999 7.802 0.409999H8.63C14.246 0.409999 16.118 3.164 16.118 5.702V5.738H12.302C12.248 5.36 11.744 3.47 8.216 3.47C4.94 3.47 3.914 5.306 3.914 7.106V7.358C3.914 9.014 4.976 11.12 8.234 11.12C11.798 11.12 12.248 9.194 12.302 8.762H16.118V8.816C16.118 11.264 14.318 14.198 8.63 14.198ZM24.395 6.08C22.577 6.08 21.893 6.818 21.713 7.862H27.005C27.005 7.124 26.645 6.08 24.395 6.08ZM27.077 10.886H30.731C30.731 11.714 30.083 14.234 24.917 14.234H24.251C19.319 14.234 18.095 11.534 18.095 9.14V8.888C18.095 6.638 19.211 3.794 23.945 3.794H24.737C29.849 3.794 30.767 6.638 30.767 9.428V9.752H21.677C21.821 10.904 22.559 11.84 24.701 11.84C26.735 11.84 26.987 11.048 27.077 10.886ZM42.3509 9.014V8.96C42.3509 7.88 41.8469 6.422 39.6509 6.422H39.4709C37.3649 6.422 36.6989 7.808 36.6989 8.96V9.014C36.6989 10.112 37.3649 11.552 39.4709 11.552H39.6509C41.8469 11.552 42.3509 10.04 42.3509 9.014ZM33.2069 17.438V4.01H36.6809V5.288C37.1129 4.82 38.4269 3.812 40.6949 3.812H40.9289C44.7449 3.812 45.9869 6.422 45.9869 8.798V9.104C45.9869 11.282 44.7089 14.198 40.9109 14.198H40.6589C38.3729 14.198 37.1489 13.154 36.7169 12.722V17.438H33.2069ZM48.4287 14V4.01H57.1407V6.674H51.9387V14H48.4287ZM64.8599 6.08C63.0419 6.08 62.3579 6.818 62.1779 7.862H67.4699C67.4699 7.124 67.1099 6.08 64.8599 6.08ZM67.5419 10.886H71.1959C71.1959 11.714 70.5479 14.234 65.3819 14.234H64.7159C59.7839 14.234 58.5599 11.534 58.5599 9.14V8.888C58.5599 6.638 59.6759 3.794 64.4099 3.794H65.2019C70.3139 3.794 71.2319 6.638 71.2319 9.428V9.752H62.1419C62.2859 10.904 63.0239 11.84 65.1659 11.84C67.1999 11.84 67.4519 11.048 67.5419 10.886ZM82.0597 7.952L77.2357 14H73.6357V4.01H77.1457V10.058L81.9697 4.01H85.5697V14H82.0597V7.952ZM79.8277 2.984H79.2877C76.4257 2.984 75.9217 1.04 75.9217 0.104V0.0499994H78.5677C78.5677 0.284 78.6757 1.004 79.5757 1.004C80.4217 1.004 80.5477 0.284 80.5477 0.0499994H83.1577V0.104C83.1577 1.04 82.4377 2.984 79.8277 2.984ZM0.656 38V24.608H5.588L9.854 33.68L14.246 24.608H18.872V38H15.254V29.234L11.186 38H8.288L4.22 29.234V38H0.656ZM30.4152 31.952L25.5912 38H21.9912V28.01H25.5012V34.058L30.3252 28.01H33.9252V38H30.4152V31.952ZM44.8367 38L42.1547 35.138L39.5447 38H35.5667L40.0487 32.996L35.4227 28.01H39.7247L42.2807 30.8L44.7467 28.01H48.6167L44.3147 32.924L48.8867 38H44.8367ZM55.008 36.002C57.06 36.002 57.762 34.706 57.762 33.95V33.176C57.456 33.302 56.574 33.482 55.566 33.644C53.874 33.932 53.334 34.166 53.334 34.868V34.904C53.334 35.534 53.784 36.002 55.008 36.002ZM57.87 36.614C57.438 37.136 56.358 38.198 54.018 38.198H53.73C50.94 38.198 49.788 36.686 49.788 35.03V34.958C49.788 33.23 50.886 32.168 54.27 31.88L57.006 31.646C57.564 31.592 57.762 31.412 57.762 30.998C57.762 30.53 57.618 30.026 55.674 30.026C53.838 30.026 53.658 30.746 53.658 31.124H50.058V31.088C50.058 30.098 50.454 27.776 55.368 27.776H55.926C60.876 27.776 61.182 29.81 61.182 31.142V34.436C61.182 35.066 61.308 35.318 62.01 35.318H62.388V38H59.544C58.5 38 58.014 37.262 57.87 36.614ZM72.8136 31.952L67.9896 38H64.3896V28.01H67.8996V34.058L72.7236 28.01H76.3236V38H72.8136V31.952ZM70.5816 26.984H70.0416C67.1796 26.984 66.6756 25.04 66.6756 24.104V24.05H69.3216C69.3216 24.284 69.4296 25.004 70.3296 25.004C71.1756 25.004 71.3016 24.284 71.3016 24.05H73.9116V24.104C73.9116 25.04 73.1916 26.984 70.5816 26.984ZM87.4332 38V30.674H83.4732C83.4732 33.356 83.3832 34.85 83.0412 35.768C82.6632 36.776 82.1592 38 79.5132 38H78.4152V35.39H78.6312C79.2612 35.39 79.7292 35.174 79.9272 34.256C80.0712 33.482 80.1252 32.636 80.1252 28.01H90.9432V38H87.4332ZM100.115 38.27H99.5566C94.1746 38.27 93.3466 34.994 93.3466 33.176V32.924C93.3466 31.124 94.1746 27.74 99.5386 27.74H100.133C105.677 27.74 106.325 31.142 106.325 32.906V33.194C106.325 34.994 105.677 38.27 100.115 38.27ZM99.7366 35.642H99.9346C102.149 35.642 102.707 34.058 102.707 32.96C102.707 31.826 102.149 30.314 99.9346 30.314H99.7366C97.4326 30.314 96.9646 31.826 96.9646 32.96C96.9646 34.058 97.4326 35.642 99.7366 35.642ZM116.983 38H108.739V28.01H116.623C118.909 28.01 120.349 28.82 120.349 30.404V30.494C120.349 31.736 119.557 32.474 118.351 32.672C119.575 32.816 120.673 33.68 120.673 35.12V35.192C120.673 37.01 119.485 38 116.983 38ZM112.249 31.988H115.471C116.317 31.988 116.749 31.664 116.749 31.034V30.944C116.749 30.368 116.353 30.026 115.471 30.026H112.249V31.988ZM112.249 35.984H115.615C116.551 35.984 117.073 35.678 117.073 34.976V34.832C117.073 34.202 116.641 33.806 115.615 33.806H112.249V35.984ZM131.542 31.952L126.718 38H123.118V28.01H126.628V34.058L131.452 28.01H135.052V38H131.542V31.952ZM145.388 28.01H148.898V38H145.388V34.562C144.614 34.652 143.714 34.742 142.778 34.742C138.818 34.742 137.324 33.626 137.324 30.458V28.01H140.834V29.81C140.834 31.682 141.464 32.006 143.318 32.006C144.02 32.006 144.83 31.952 145.388 31.88V28.01ZM0.656 62V48.608H14.534V62H10.826V51.56H4.364V62H0.656ZM26.8294 57.014V56.96C26.8294 55.88 26.3254 54.422 24.1294 54.422H23.9494C21.8434 54.422 21.1774 55.808 21.1774 56.96V57.014C21.1774 58.112 21.8434 59.552 23.9494 59.552H24.1294C26.3254 59.552 26.8294 58.04 26.8294 57.014ZM17.6854 65.438V52.01H21.1594V53.288C21.5914 52.82 22.9054 51.812 25.1734 51.812H25.4074C29.2234 51.812 30.4654 54.422 30.4654 56.798V57.104C30.4654 59.282 29.1874 62.198 25.3894 62.198H25.1374C22.8514 62.198 21.6274 61.154 21.1954 60.722V65.438H17.6854ZM39.1712 62.27H38.6132C33.2312 62.27 32.4032 58.994 32.4032 57.176V56.924C32.4032 55.124 33.2312 51.74 38.5952 51.74H39.1892C44.7332 51.74 45.3812 55.142 45.3812 56.906V57.194C45.3812 58.994 44.7332 62.27 39.1712 62.27ZM38.7932 59.642H38.9912C41.2052 59.642 41.7632 58.058 41.7632 56.96C41.7632 55.826 41.2052 54.314 38.9912 54.314H38.7932C36.4892 54.314 36.0212 55.826 36.0212 56.96C36.0212 58.058 36.4892 59.642 38.7932 59.642ZM55.6121 62L52.9301 59.138L50.3201 62H46.3421L50.8241 56.996L46.1981 52.01H50.5001L53.0561 54.8L55.5221 52.01H59.3921L55.0901 56.924L59.6621 62H55.6121ZM67.2435 62.27H66.6855C61.3035 62.27 60.4755 58.994 60.4755 57.176V56.924C60.4755 55.124 61.3035 51.74 66.6675 51.74H67.2615C72.8055 51.74 73.4535 55.142 73.4535 56.906V57.194C73.4535 58.994 72.8055 62.27 67.2435 62.27ZM66.8655 59.642H67.0635C69.2775 59.642 69.8355 58.058 69.8355 56.96C69.8355 55.826 69.2775 54.314 67.0635 54.314H66.8655C64.5615 54.314 64.0935 55.826 64.0935 56.96C64.0935 58.058 64.5615 59.642 66.8655 59.642ZM85.0482 57.014V56.96C85.0482 55.88 84.5442 54.422 82.3482 54.422H82.1682C80.0622 54.422 79.3962 55.808 79.3962 56.96V57.014C79.3962 58.112 80.0622 59.552 82.1682 59.552H82.3482C84.5442 59.552 85.0482 58.04 85.0482 57.014ZM75.9042 65.438V52.01H79.3782V53.288C79.8102 52.82 81.1242 51.812 83.3922 51.812H83.6262C87.4422 51.812 88.6842 54.422 88.6842 56.798V57.104C88.6842 59.282 87.4062 62.198 83.6082 62.198H83.3562C81.0702 62.198 79.8462 61.154 79.4142 60.722V65.438H75.9042ZM97.39 62.27H96.832C91.45 62.27 90.622 58.994 90.622 57.176V56.924C90.622 55.124 91.45 51.74 96.814 51.74H97.408C102.952 51.74 103.6 55.142 103.6 56.906V57.194C103.6 58.994 102.952 62.27 97.39 62.27ZM97.012 59.642H97.21C99.424 59.642 99.982 58.058 99.982 56.96C99.982 55.826 99.424 54.314 97.21 54.314H97.012C94.708 54.314 94.24 55.826 94.24 56.96C94.24 58.058 94.708 59.642 97.012 59.642ZM114.259 62H106.015V52.01H113.899C116.185 52.01 117.625 52.82 117.625 54.404V54.494C117.625 55.736 116.833 56.474 115.627 56.672C116.851 56.816 117.949 57.68 117.949 59.12V59.192C117.949 61.01 116.761 62 114.259 62ZM109.525 55.988H112.747C113.593 55.988 114.025 55.664 114.025 55.034V54.944C114.025 54.368 113.629 54.026 112.747 54.026H109.525V55.988ZM109.525 59.984H112.891C113.827 59.984 114.349 59.678 114.349 58.976V58.832C114.349 58.202 113.917 57.806 112.891 57.806H109.525V59.984Z" fill="url(#paint1_radial_2018_1439)" style="mix-blend-mode:overlay"/>
<path d="M8.63 14.198H7.802C1.682 14.198 0.0620001 10.274 0.0620001 7.538V6.998C0.0620001 4.208 1.682 0.409999 7.802 0.409999H8.63C14.246 0.409999 16.118 3.164 16.118 5.702V5.738H12.302C12.248 5.36 11.744 3.47 8.216 3.47C4.94 3.47 3.914 5.306 3.914 7.106V7.358C3.914 9.014 4.976 11.12 8.234 11.12C11.798 11.12 12.248 9.194 12.302 8.762H16.118V8.816C16.118 11.264 14.318 14.198 8.63 14.198ZM24.395 6.08C22.577 6.08 21.893 6.818 21.713 7.862H27.005C27.005 7.124 26.645 6.08 24.395 6.08ZM27.077 10.886H30.731C30.731 11.714 30.083 14.234 24.917 14.234H24.251C19.319 14.234 18.095 11.534 18.095 9.14V8.888C18.095 6.638 19.211 3.794 23.945 3.794H24.737C29.849 3.794 30.767 6.638 30.767 9.428V9.752H21.677C21.821 10.904 22.559 11.84 24.701 11.84C26.735 11.84 26.987 11.048 27.077 10.886ZM42.3509 9.014V8.96C42.3509 7.88 41.8469 6.422 39.6509 6.422H39.4709C37.3649 6.422 36.6989 7.808 36.6989 8.96V9.014C36.6989 10.112 37.3649 11.552 39.4709 11.552H39.6509C41.8469 11.552 42.3509 10.04 42.3509 9.014ZM33.2069 17.438V4.01H36.6809V5.288C37.1129 4.82 38.4269 3.812 40.6949 3.812H40.9289C44.7449 3.812 45.9869 6.422 45.9869 8.798V9.104C45.9869 11.282 44.7089 14.198 40.9109 14.198H40.6589C38.3729 14.198 37.1489 13.154 36.7169 12.722V17.438H33.2069ZM48.4287 14V4.01H57.1407V6.674H51.9387V14H48.4287ZM64.8599 6.08C63.0419 6.08 62.3579 6.818 62.1779 7.862H67.4699C67.4699 7.124 67.1099 6.08 64.8599 6.08ZM67.5419 10.886H71.1959C71.1959 11.714 70.5479 14.234 65.3819 14.234H64.7159C59.7839 14.234 58.5599 11.534 58.5599 9.14V8.888C58.5599 6.638 59.6759 3.794 64.4099 3.794H65.2019C70.3139 3.794 71.2319 6.638 71.2319 9.428V9.752H62.1419C62.2859 10.904 63.0239 11.84 65.1659 11.84C67.1999 11.84 67.4519 11.048 67.5419 10.886ZM82.0597 7.952L77.2357 14H73.6357V4.01H77.1457V10.058L81.9697 4.01H85.5697V14H82.0597V7.952ZM79.8277 2.984H79.2877C76.4257 2.984 75.9217 1.04 75.9217 0.104V0.0499994H78.5677C78.5677 0.284 78.6757 1.004 79.5757 1.004C80.4217 1.004 80.5477 0.284 80.5477 0.0499994H83.1577V0.104C83.1577 1.04 82.4377 2.984 79.8277 2.984ZM0.656 38V24.608H5.588L9.854 33.68L14.246 24.608H18.872V38H15.254V29.234L11.186 38H8.288L4.22 29.234V38H0.656ZM30.4152 31.952L25.5912 38H21.9912V28.01H25.5012V34.058L30.3252 28.01H33.9252V38H30.4152V31.952ZM44.8367 38L42.1547 35.138L39.5447 38H35.5667L40.0487 32.996L35.4227 28.01H39.7247L42.2807 30.8L44.7467 28.01H48.6167L44.3147 32.924L48.8867 38H44.8367ZM55.008 36.002C57.06 36.002 57.762 34.706 57.762 33.95V33.176C57.456 33.302 56.574 33.482 55.566 33.644C53.874 33.932 53.334 34.166 53.334 34.868V34.904C53.334 35.534 53.784 36.002 55.008 36.002ZM57.87 36.614C57.438 37.136 56.358 38.198 54.018 38.198H53.73C50.94 38.198 49.788 36.686 49.788 35.03V34.958C49.788 33.23 50.886 32.168 54.27 31.88L57.006 31.646C57.564 31.592 57.762 31.412 57.762 30.998C57.762 30.53 57.618 30.026 55.674 30.026C53.838 30.026 53.658 30.746 53.658 31.124H50.058V31.088C50.058 30.098 50.454 27.776 55.368 27.776H55.926C60.876 27.776 61.182 29.81 61.182 31.142V34.436C61.182 35.066 61.308 35.318 62.01 35.318H62.388V38H59.544C58.5 38 58.014 37.262 57.87 36.614ZM72.8136 31.952L67.9896 38H64.3896V28.01H67.8996V34.058L72.7236 28.01H76.3236V38H72.8136V31.952ZM70.5816 26.984H70.0416C67.1796 26.984 66.6756 25.04 66.6756 24.104V24.05H69.3216C69.3216 24.284 69.4296 25.004 70.3296 25.004C71.1756 25.004 71.3016 24.284 71.3016 24.05H73.9116V24.104C73.9116 25.04 73.1916 26.984 70.5816 26.984ZM87.4332 38V30.674H83.4732C83.4732 33.356 83.3832 34.85 83.0412 35.768C82.6632 36.776 82.1592 38 79.5132 38H78.4152V35.39H78.6312C79.2612 35.39 79.7292 35.174 79.9272 34.256C80.0712 33.482 80.1252 32.636 80.1252 28.01H90.9432V38H87.4332ZM100.115 38.27H99.5566C94.1746 38.27 93.3466 34.994 93.3466 33.176V32.924C93.3466 31.124 94.1746 27.74 99.5386 27.74H100.133C105.677 27.74 106.325 31.142 106.325 32.906V33.194C106.325 34.994 105.677 38.27 100.115 38.27ZM99.7366 35.642H99.9346C102.149 35.642 102.707 34.058 102.707 32.96C102.707 31.826 102.149 30.314 99.9346 30.314H99.7366C97.4326 30.314 96.9646 31.826 96.9646 32.96C96.9646 34.058 97.4326 35.642 99.7366 35.642ZM116.983 38H108.739V28.01H116.623C118.909 28.01 120.349 28.82 120.349 30.404V30.494C120.349 31.736 119.557 32.474 118.351 32.672C119.575 32.816 120.673 33.68 120.673 35.12V35.192C120.673 37.01 119.485 38 116.983 38ZM112.249 31.988H115.471C116.317 31.988 116.749 31.664 116.749 31.034V30.944C116.749 30.368 116.353 30.026 115.471 30.026H112.249V31.988ZM112.249 35.984H115.615C116.551 35.984 117.073 35.678 117.073 34.976V34.832C117.073 34.202 116.641 33.806 115.615 33.806H112.249V35.984ZM131.542 31.952L126.718 38H123.118V28.01H126.628V34.058L131.452 28.01H135.052V38H131.542V31.952ZM145.388 28.01H148.898V38H145.388V34.562C144.614 34.652 143.714 34.742 142.778 34.742C138.818 34.742 137.324 33.626 137.324 30.458V28.01H140.834V29.81C140.834 31.682 141.464 32.006 143.318 32.006C144.02 32.006 144.83 31.952 145.388 31.88V28.01ZM0.656 62V48.608H14.534V62H10.826V51.56H4.364V62H0.656ZM26.8294 57.014V56.96C26.8294 55.88 26.3254 54.422 24.1294 54.422H23.9494C21.8434 54.422 21.1774 55.808 21.1774 56.96V57.014C21.1774 58.112 21.8434 59.552 23.9494 59.552H24.1294C26.3254 59.552 26.8294 58.04 26.8294 57.014ZM17.6854 65.438V52.01H21.1594V53.288C21.5914 52.82 22.9054 51.812 25.1734 51.812H25.4074C29.2234 51.812 30.4654 54.422 30.4654 56.798V57.104C30.4654 59.282 29.1874 62.198 25.3894 62.198H25.1374C22.8514 62.198 21.6274 61.154 21.1954 60.722V65.438H17.6854ZM39.1712 62.27H38.6132C33.2312 62.27 32.4032 58.994 32.4032 57.176V56.924C32.4032 55.124 33.2312 51.74 38.5952 51.74H39.1892C44.7332 51.74 45.3812 55.142 45.3812 56.906V57.194C45.3812 58.994 44.7332 62.27 39.1712 62.27ZM38.7932 59.642H38.9912C41.2052 59.642 41.7632 58.058 41.7632 56.96C41.7632 55.826 41.2052 54.314 38.9912 54.314H38.7932C36.4892 54.314 36.0212 55.826 36.0212 56.96C36.0212 58.058 36.4892 59.642 38.7932 59.642ZM55.6121 62L52.9301 59.138L50.3201 62H46.3421L50.8241 56.996L46.1981 52.01H50.5001L53.0561 54.8L55.5221 52.01H59.3921L55.0901 56.924L59.6621 62H55.6121ZM67.2435 62.27H66.6855C61.3035 62.27 60.4755 58.994 60.4755 57.176V56.924C60.4755 55.124 61.3035 51.74 66.6675 51.74H67.2615C72.8055 51.74 73.4535 55.142 73.4535 56.906V57.194C73.4535 58.994 72.8055 62.27 67.2435 62.27ZM66.8655 59.642H67.0635C69.2775 59.642 69.8355 58.058 69.8355 56.96C69.8355 55.826 69.2775 54.314 67.0635 54.314H66.8655C64.5615 54.314 64.0935 55.826 64.0935 56.96C64.0935 58.058 64.5615 59.642 66.8655 59.642ZM85.0482 57.014V56.96C85.0482 55.88 84.5442 54.422 82.3482 54.422H82.1682C80.0622 54.422 79.3962 55.808 79.3962 56.96V57.014C79.3962 58.112 80.0622 59.552 82.1682 59.552H82.3482C84.5442 59.552 85.0482 58.04 85.0482 57.014ZM75.9042 65.438V52.01H79.3782V53.288C79.8102 52.82 81.1242 51.812 83.3922 51.812H83.6262C87.4422 51.812 88.6842 54.422 88.6842 56.798V57.104C88.6842 59.282 87.4062 62.198 83.6082 62.198H83.3562C81.0702 62.198 79.8462 61.154 79.4142 60.722V65.438H75.9042ZM97.39 62.27H96.832C91.45 62.27 90.622 58.994 90.622 57.176V56.924C90.622 55.124 91.45 51.74 96.814 51.74H97.408C102.952 51.74 103.6 55.142 103.6 56.906V57.194C103.6 58.994 102.952 62.27 97.39 62.27ZM97.012 59.642H97.21C99.424 59.642 99.982 58.058 99.982 56.96C99.982 55.826 99.424 54.314 97.21 54.314H97.012C94.708 54.314 94.24 55.826 94.24 56.96C94.24 58.058 94.708 59.642 97.012 59.642ZM114.259 62H106.015V52.01H113.899C116.185 52.01 117.625 52.82 117.625 54.404V54.494C117.625 55.736 116.833 56.474 115.627 56.672C116.851 56.816 117.949 57.68 117.949 59.12V59.192C117.949 61.01 116.761 62 114.259 62ZM109.525 55.988H112.747C113.593 55.988 114.025 55.664 114.025 55.034V54.944C114.025 54.368 113.629 54.026 112.747 54.026H109.525V55.988ZM109.525 59.984H112.891C113.827 59.984 114.349 59.678 114.349 58.976V58.832C114.349 58.202 113.917 57.806 112.891 57.806H109.525V59.984Z" fill="url(#paint2_radial_2018_1439)"/>
<path d="M8.63 14.198H7.802C1.682 14.198 0.0620001 10.274 0.0620001 7.538V6.998C0.0620001 4.208 1.682 0.409999 7.802 0.409999H8.63C14.246 0.409999 16.118 3.164 16.118 5.702V5.738H12.302C12.248 5.36 11.744 3.47 8.216 3.47C4.94 3.47 3.914 5.306 3.914 7.106V7.358C3.914 9.014 4.976 11.12 8.234 11.12C11.798 11.12 12.248 9.194 12.302 8.762H16.118V8.816C16.118 11.264 14.318 14.198 8.63 14.198ZM24.395 6.08C22.577 6.08 21.893 6.818 21.713 7.862H27.005C27.005 7.124 26.645 6.08 24.395 6.08ZM27.077 10.886H30.731C30.731 11.714 30.083 14.234 24.917 14.234H24.251C19.319 14.234 18.095 11.534 18.095 9.14V8.888C18.095 6.638 19.211 3.794 23.945 3.794H24.737C29.849 3.794 30.767 6.638 30.767 9.428V9.752H21.677C21.821 10.904 22.559 11.84 24.701 11.84C26.735 11.84 26.987 11.048 27.077 10.886ZM42.3509 9.014V8.96C42.3509 7.88 41.8469 6.422 39.6509 6.422H39.4709C37.3649 6.422 36.6989 7.808 36.6989 8.96V9.014C36.6989 10.112 37.3649 11.552 39.4709 11.552H39.6509C41.8469 11.552 42.3509 10.04 42.3509 9.014ZM33.2069 17.438V4.01H36.6809V5.288C37.1129 4.82 38.4269 3.812 40.6949 3.812H40.9289C44.7449 3.812 45.9869 6.422 45.9869 8.798V9.104C45.9869 11.282 44.7089 14.198 40.9109 14.198H40.6589C38.3729 14.198 37.1489 13.154 36.7169 12.722V17.438H33.2069ZM48.4287 14V4.01H57.1407V6.674H51.9387V14H48.4287ZM64.8599 6.08C63.0419 6.08 62.3579 6.818 62.1779 7.862H67.4699C67.4699 7.124 67.1099 6.08 64.8599 6.08ZM67.5419 10.886H71.1959C71.1959 11.714 70.5479 14.234 65.3819 14.234H64.7159C59.7839 14.234 58.5599 11.534 58.5599 9.14V8.888C58.5599 6.638 59.6759 3.794 64.4099 3.794H65.2019C70.3139 3.794 71.2319 6.638 71.2319 9.428V9.752H62.1419C62.2859 10.904 63.0239 11.84 65.1659 11.84C67.1999 11.84 67.4519 11.048 67.5419 10.886ZM82.0597 7.952L77.2357 14H73.6357V4.01H77.1457V10.058L81.9697 4.01H85.5697V14H82.0597V7.952ZM79.8277 2.984H79.2877C76.4257 2.984 75.9217 1.04 75.9217 0.104V0.0499994H78.5677C78.5677 0.284 78.6757 1.004 79.5757 1.004C80.4217 1.004 80.5477 0.284 80.5477 0.0499994H83.1577V0.104C83.1577 1.04 82.4377 2.984 79.8277 2.984ZM0.656 38V24.608H5.588L9.854 33.68L14.246 24.608H18.872V38H15.254V29.234L11.186 38H8.288L4.22 29.234V38H0.656ZM30.4152 31.952L25.5912 38H21.9912V28.01H25.5012V34.058L30.3252 28.01H33.9252V38H30.4152V31.952ZM44.8367 38L42.1547 35.138L39.5447 38H35.5667L40.0487 32.996L35.4227 28.01H39.7247L42.2807 30.8L44.7467 28.01H48.6167L44.3147 32.924L48.8867 38H44.8367ZM55.008 36.002C57.06 36.002 57.762 34.706 57.762 33.95V33.176C57.456 33.302 56.574 33.482 55.566 33.644C53.874 33.932 53.334 34.166 53.334 34.868V34.904C53.334 35.534 53.784 36.002 55.008 36.002ZM57.87 36.614C57.438 37.136 56.358 38.198 54.018 38.198H53.73C50.94 38.198 49.788 36.686 49.788 35.03V34.958C49.788 33.23 50.886 32.168 54.27 31.88L57.006 31.646C57.564 31.592 57.762 31.412 57.762 30.998C57.762 30.53 57.618 30.026 55.674 30.026C53.838 30.026 53.658 30.746 53.658 31.124H50.058V31.088C50.058 30.098 50.454 27.776 55.368 27.776H55.926C60.876 27.776 61.182 29.81 61.182 31.142V34.436C61.182 35.066 61.308 35.318 62.01 35.318H62.388V38H59.544C58.5 38 58.014 37.262 57.87 36.614ZM72.8136 31.952L67.9896 38H64.3896V28.01H67.8996V34.058L72.7236 28.01H76.3236V38H72.8136V31.952ZM70.5816 26.984H70.0416C67.1796 26.984 66.6756 25.04 66.6756 24.104V24.05H69.3216C69.3216 24.284 69.4296 25.004 70.3296 25.004C71.1756 25.004 71.3016 24.284 71.3016 24.05H73.9116V24.104C73.9116 25.04 73.1916 26.984 70.5816 26.984ZM87.4332 38V30.674H83.4732C83.4732 33.356 83.3832 34.85 83.0412 35.768C82.6632 36.776 82.1592 38 79.5132 38H78.4152V35.39H78.6312C79.2612 35.39 79.7292 35.174 79.9272 34.256C80.0712 33.482 80.1252 32.636 80.1252 28.01H90.9432V38H87.4332ZM100.115 38.27H99.5566C94.1746 38.27 93.3466 34.994 93.3466 33.176V32.924C93.3466 31.124 94.1746 27.74 99.5386 27.74H100.133C105.677 27.74 106.325 31.142 106.325 32.906V33.194C106.325 34.994 105.677 38.27 100.115 38.27ZM99.7366 35.642H99.9346C102.149 35.642 102.707 34.058 102.707 32.96C102.707 31.826 102.149 30.314 99.9346 30.314H99.7366C97.4326 30.314 96.9646 31.826 96.9646 32.96C96.9646 34.058 97.4326 35.642 99.7366 35.642ZM116.983 38H108.739V28.01H116.623C118.909 28.01 120.349 28.82 120.349 30.404V30.494C120.349 31.736 119.557 32.474 118.351 32.672C119.575 32.816 120.673 33.68 120.673 35.12V35.192C120.673 37.01 119.485 38 116.983 38ZM112.249 31.988H115.471C116.317 31.988 116.749 31.664 116.749 31.034V30.944C116.749 30.368 116.353 30.026 115.471 30.026H112.249V31.988ZM112.249 35.984H115.615C116.551 35.984 117.073 35.678 117.073 34.976V34.832C117.073 34.202 116.641 33.806 115.615 33.806H112.249V35.984ZM131.542 31.952L126.718 38H123.118V28.01H126.628V34.058L131.452 28.01H135.052V38H131.542V31.952ZM145.388 28.01H148.898V38H145.388V34.562C144.614 34.652 143.714 34.742 142.778 34.742C138.818 34.742 137.324 33.626 137.324 30.458V28.01H140.834V29.81C140.834 31.682 141.464 32.006 143.318 32.006C144.02 32.006 144.83 31.952 145.388 31.88V28.01ZM0.656 62V48.608H14.534V62H10.826V51.56H4.364V62H0.656ZM26.8294 57.014V56.96C26.8294 55.88 26.3254 54.422 24.1294 54.422H23.9494C21.8434 54.422 21.1774 55.808 21.1774 56.96V57.014C21.1774 58.112 21.8434 59.552 23.9494 59.552H24.1294C26.3254 59.552 26.8294 58.04 26.8294 57.014ZM17.6854 65.438V52.01H21.1594V53.288C21.5914 52.82 22.9054 51.812 25.1734 51.812H25.4074C29.2234 51.812 30.4654 54.422 30.4654 56.798V57.104C30.4654 59.282 29.1874 62.198 25.3894 62.198H25.1374C22.8514 62.198 21.6274 61.154 21.1954 60.722V65.438H17.6854ZM39.1712 62.27H38.6132C33.2312 62.27 32.4032 58.994 32.4032 57.176V56.924C32.4032 55.124 33.2312 51.74 38.5952 51.74H39.1892C44.7332 51.74 45.3812 55.142 45.3812 56.906V57.194C45.3812 58.994 44.7332 62.27 39.1712 62.27ZM38.7932 59.642H38.9912C41.2052 59.642 41.7632 58.058 41.7632 56.96C41.7632 55.826 41.2052 54.314 38.9912 54.314H38.7932C36.4892 54.314 36.0212 55.826 36.0212 56.96C36.0212 58.058 36.4892 59.642 38.7932 59.642ZM55.6121 62L52.9301 59.138L50.3201 62H46.3421L50.8241 56.996L46.1981 52.01H50.5001L53.0561 54.8L55.5221 52.01H59.3921L55.0901 56.924L59.6621 62H55.6121ZM67.2435 62.27H66.6855C61.3035 62.27 60.4755 58.994 60.4755 57.176V56.924C60.4755 55.124 61.3035 51.74 66.6675 51.74H67.2615C72.8055 51.74 73.4535 55.142 73.4535 56.906V57.194C73.4535 58.994 72.8055 62.27 67.2435 62.27ZM66.8655 59.642H67.0635C69.2775 59.642 69.8355 58.058 69.8355 56.96C69.8355 55.826 69.2775 54.314 67.0635 54.314H66.8655C64.5615 54.314 64.0935 55.826 64.0935 56.96C64.0935 58.058 64.5615 59.642 66.8655 59.642ZM85.0482 57.014V56.96C85.0482 55.88 84.5442 54.422 82.3482 54.422H82.1682C80.0622 54.422 79.3962 55.808 79.3962 56.96V57.014C79.3962 58.112 80.0622 59.552 82.1682 59.552H82.3482C84.5442 59.552 85.0482 58.04 85.0482 57.014ZM75.9042 65.438V52.01H79.3782V53.288C79.8102 52.82 81.1242 51.812 83.3922 51.812H83.6262C87.4422 51.812 88.6842 54.422 88.6842 56.798V57.104C88.6842 59.282 87.4062 62.198 83.6082 62.198H83.3562C81.0702 62.198 79.8462 61.154 79.4142 60.722V65.438H75.9042ZM97.39 62.27H96.832C91.45 62.27 90.622 58.994 90.622 57.176V56.924C90.622 55.124 91.45 51.74 96.814 51.74H97.408C102.952 51.74 103.6 55.142 103.6 56.906V57.194C103.6 58.994 102.952 62.27 97.39 62.27ZM97.012 59.642H97.21C99.424 59.642 99.982 58.058 99.982 56.96C99.982 55.826 99.424 54.314 97.21 54.314H97.012C94.708 54.314 94.24 55.826 94.24 56.96C94.24 58.058 94.708 59.642 97.012 59.642ZM114.259 62H106.015V52.01H113.899C116.185 52.01 117.625 52.82 117.625 54.404V54.494C117.625 55.736 116.833 56.474 115.627 56.672C116.851 56.816 117.949 57.68 117.949 59.12V59.192C117.949 61.01 116.761 62 114.259 62ZM109.525 55.988H112.747C113.593 55.988 114.025 55.664 114.025 55.034V54.944C114.025 54.368 113.629 54.026 112.747 54.026H109.525V55.988ZM109.525 59.984H112.891C113.827 59.984 114.349 59.678 114.349 58.976V58.832C114.349 58.202 113.917 57.806 112.891 57.806H109.525V59.984Z" fill="#C1A875" style="mix-blend-mode:color"/>
<defs>
<linearGradient id="paint0_linear_2018_1439" x1="-0.999999" y1="30" x2="221" y2="30" gradientUnits="userSpaceOnUse">
<stop stop-color="#576167"/>
<stop offset="0.191294" stop-color="#9EA1A2"/>
<stop offset="0.396166" stop-color="#848989"/>
<stop offset="0.62055" stop-color="#576167"/>
<stop offset="0.830299" stop-color="#757A7C"/>
<stop offset="1" stop-color="#576167"/>
</linearGradient>
<radialGradient id="paint1_radial_2018_1439" cx="0" cy="0" r="1" gradientUnits="userSpaceOnUse" gradientTransform="translate(117.226 2.39326) rotate(90) scale(53.4944 167.95)">
<stop stop-color="white"/>
<stop offset="1" stop-color="white" stop-opacity="0"/>
</radialGradient>
<radialGradient id="paint2_radial_2018_1439" cx="0" cy="0" r="1" gradientUnits="userSpaceOnUse" gradientTransform="translate(129.783 82.9888) rotate(-89.7344) scale(76.6525 240.162)">
<stop stop-color="white"/>
<stop offset="1" stop-color="white" stop-opacity="0"/>
</radialGradient>
</defs>
</svg>
