<svg width="127" height="15" viewBox="0 0 127 15" fill="none" xmlns="http://www.w3.org/2000/svg">
<path d="M0.288 12V1.584H8.968V3.88H3.172V12H0.288ZM14.2755 12.21H13.8415C9.65553 12.21 9.01153 9.662 9.01153 8.248V8.052C9.01153 6.652 9.65553 4.02 13.8275 4.02H14.2895C18.6015 4.02 19.1055 6.666 19.1055 8.038V8.262C19.1055 9.662 18.6015 12.21 14.2755 12.21ZM13.9815 10.166H14.1355C15.8575 10.166 16.2915 8.934 16.2915 8.08C16.2915 7.198 15.8575 6.022 14.1355 6.022H13.9815C12.1895 6.022 11.8255 7.198 11.8255 8.08C11.8255 8.934 12.1895 10.166 13.9815 10.166ZM28.1236 8.122V8.08C28.1236 7.24 27.7316 6.106 26.0236 6.106H25.8836C24.2456 6.106 23.7276 7.184 23.7276 8.08V8.122C23.7276 8.976 24.2456 10.096 25.8836 10.096H26.0236C27.7316 10.096 28.1236 8.92 28.1236 8.122ZM21.0116 14.674V4.23H23.7136V5.224C24.0496 4.86 25.0716 4.076 26.8356 4.076H27.0176C29.9856 4.076 30.9516 6.106 30.9516 7.954V8.192C30.9516 9.886 29.9576 12.154 27.0036 12.154H26.8076C25.0296 12.154 24.0776 11.342 23.7416 11.006V14.674H21.0116ZM37.7228 12.21H37.2888C33.1028 12.21 32.4588 9.662 32.4588 8.248V8.052C32.4588 6.652 33.1028 4.02 37.2748 4.02H37.7368C42.0488 4.02 42.5528 6.666 42.5528 8.038V8.262C42.5528 9.662 42.0488 12.21 37.7228 12.21ZM37.4288 10.166H37.5828C39.3048 10.166 39.7388 8.934 39.7388 8.08C39.7388 7.198 39.3048 6.022 37.5828 6.022H37.4288C35.6368 6.022 35.2728 7.198 35.2728 8.08C35.2728 8.934 35.6368 10.166 37.4288 10.166ZM43.5818 13.652V9.928H44.5198C45.0518 8.864 45.1358 6.554 45.2058 4.23H53.4238V9.928H54.8238V13.652H52.2338V12H46.1718V13.652H43.5818ZM47.0958 9.928H50.6938V6.302H47.6558C47.6138 7.31 47.4738 8.85 47.0958 9.928ZM61.7405 0.688L57.2185 13.834H55.1045L59.6125 0.688H61.7405ZM69.7545 8.122V8.08C69.7545 7.24 69.3625 6.106 67.6545 6.106H67.5145C65.8765 6.106 65.3585 7.184 65.3585 8.08V8.122C65.3585 8.976 65.8765 10.096 67.5145 10.096H67.6545C69.3625 10.096 69.7545 8.92 69.7545 8.122ZM62.6425 14.674V4.23H65.3445V5.224C65.6805 4.86 66.7025 4.076 68.4665 4.076H68.6485C71.6165 4.076 72.5825 6.106 72.5825 7.954V8.192C72.5825 9.886 71.5885 12.154 68.6345 12.154H68.4385C66.6605 12.154 65.7085 11.342 65.3725 11.006V14.674H62.6425ZM79.0037 5.84C77.5897 5.84 77.0577 6.414 76.9177 7.226H81.0337C81.0337 6.652 80.7537 5.84 79.0037 5.84ZM81.0897 9.578H83.9317C83.9317 10.222 83.4277 12.182 79.4097 12.182H78.8917C75.0557 12.182 74.1037 10.082 74.1037 8.22V8.024C74.1037 6.274 74.9717 4.062 78.6537 4.062H79.2697C83.2457 4.062 83.9597 6.274 83.9597 8.444V8.696H76.8897C77.0017 9.592 77.5757 10.32 79.2417 10.32C80.8237 10.32 81.0197 9.704 81.0897 9.578ZM85.8293 12V4.23H92.6053V6.302H88.5593V12H85.8293ZM100.639 7.296L96.8871 12H94.0871V4.23H96.8171V8.934L100.569 4.23H103.369V12H100.639V7.296ZM110.512 12.21H110.078C105.892 12.21 105.248 9.662 105.248 8.248V8.052C105.248 6.652 105.892 4.02 110.064 4.02H110.526C114.838 4.02 115.342 6.666 115.342 8.038V8.262C115.342 9.662 114.838 12.21 110.512 12.21ZM110.218 10.166H110.372C112.094 10.166 112.528 8.934 112.528 8.08C112.528 7.198 112.094 6.022 110.372 6.022H110.218C108.426 6.022 108.062 7.198 108.062 8.08C108.062 8.934 108.426 10.166 110.218 10.166ZM119.95 12H117.22V4.23H119.95V7.058H123.758V4.23H126.488V12H123.758V9.13H119.95V12Z" fill="url(#paint0_linear_41_288)"/>
<path d="M0.288 12V1.584H8.968V3.88H3.172V12H0.288ZM14.2755 12.21H13.8415C9.65553 12.21 9.01153 9.662 9.01153 8.248V8.052C9.01153 6.652 9.65553 4.02 13.8275 4.02H14.2895C18.6015 4.02 19.1055 6.666 19.1055 8.038V8.262C19.1055 9.662 18.6015 12.21 14.2755 12.21ZM13.9815 10.166H14.1355C15.8575 10.166 16.2915 8.934 16.2915 8.08C16.2915 7.198 15.8575 6.022 14.1355 6.022H13.9815C12.1895 6.022 11.8255 7.198 11.8255 8.08C11.8255 8.934 12.1895 10.166 13.9815 10.166ZM28.1236 8.122V8.08C28.1236 7.24 27.7316 6.106 26.0236 6.106H25.8836C24.2456 6.106 23.7276 7.184 23.7276 8.08V8.122C23.7276 8.976 24.2456 10.096 25.8836 10.096H26.0236C27.7316 10.096 28.1236 8.92 28.1236 8.122ZM21.0116 14.674V4.23H23.7136V5.224C24.0496 4.86 25.0716 4.076 26.8356 4.076H27.0176C29.9856 4.076 30.9516 6.106 30.9516 7.954V8.192C30.9516 9.886 29.9576 12.154 27.0036 12.154H26.8076C25.0296 12.154 24.0776 11.342 23.7416 11.006V14.674H21.0116ZM37.7228 12.21H37.2888C33.1028 12.21 32.4588 9.662 32.4588 8.248V8.052C32.4588 6.652 33.1028 4.02 37.2748 4.02H37.7368C42.0488 4.02 42.5528 6.666 42.5528 8.038V8.262C42.5528 9.662 42.0488 12.21 37.7228 12.21ZM37.4288 10.166H37.5828C39.3048 10.166 39.7388 8.934 39.7388 8.08C39.7388 7.198 39.3048 6.022 37.5828 6.022H37.4288C35.6368 6.022 35.2728 7.198 35.2728 8.08C35.2728 8.934 35.6368 10.166 37.4288 10.166ZM43.5818 13.652V9.928H44.5198C45.0518 8.864 45.1358 6.554 45.2058 4.23H53.4238V9.928H54.8238V13.652H52.2338V12H46.1718V13.652H43.5818ZM47.0958 9.928H50.6938V6.302H47.6558C47.6138 7.31 47.4738 8.85 47.0958 9.928ZM61.7405 0.688L57.2185 13.834H55.1045L59.6125 0.688H61.7405ZM69.7545 8.122V8.08C69.7545 7.24 69.3625 6.106 67.6545 6.106H67.5145C65.8765 6.106 65.3585 7.184 65.3585 8.08V8.122C65.3585 8.976 65.8765 10.096 67.5145 10.096H67.6545C69.3625 10.096 69.7545 8.92 69.7545 8.122ZM62.6425 14.674V4.23H65.3445V5.224C65.6805 4.86 66.7025 4.076 68.4665 4.076H68.6485C71.6165 4.076 72.5825 6.106 72.5825 7.954V8.192C72.5825 9.886 71.5885 12.154 68.6345 12.154H68.4385C66.6605 12.154 65.7085 11.342 65.3725 11.006V14.674H62.6425ZM79.0037 5.84C77.5897 5.84 77.0577 6.414 76.9177 7.226H81.0337C81.0337 6.652 80.7537 5.84 79.0037 5.84ZM81.0897 9.578H83.9317C83.9317 10.222 83.4277 12.182 79.4097 12.182H78.8917C75.0557 12.182 74.1037 10.082 74.1037 8.22V8.024C74.1037 6.274 74.9717 4.062 78.6537 4.062H79.2697C83.2457 4.062 83.9597 6.274 83.9597 8.444V8.696H76.8897C77.0017 9.592 77.5757 10.32 79.2417 10.32C80.8237 10.32 81.0197 9.704 81.0897 9.578ZM85.8293 12V4.23H92.6053V6.302H88.5593V12H85.8293ZM100.639 7.296L96.8871 12H94.0871V4.23H96.8171V8.934L100.569 4.23H103.369V12H100.639V7.296ZM110.512 12.21H110.078C105.892 12.21 105.248 9.662 105.248 8.248V8.052C105.248 6.652 105.892 4.02 110.064 4.02H110.526C114.838 4.02 115.342 6.666 115.342 8.038V8.262C115.342 9.662 114.838 12.21 110.512 12.21ZM110.218 10.166H110.372C112.094 10.166 112.528 8.934 112.528 8.08C112.528 7.198 112.094 6.022 110.372 6.022H110.218C108.426 6.022 108.062 7.198 108.062 8.08C108.062 8.934 108.426 10.166 110.218 10.166ZM119.95 12H117.22V4.23H119.95V7.058H123.758V4.23H126.488V12H123.758V9.13H119.95V12Z" fill="url(#paint1_radial_41_288)" style="mix-blend-mode:overlay"/>
<path d="M0.288 12V1.584H8.968V3.88H3.172V12H0.288ZM14.2755 12.21H13.8415C9.65553 12.21 9.01153 9.662 9.01153 8.248V8.052C9.01153 6.652 9.65553 4.02 13.8275 4.02H14.2895C18.6015 4.02 19.1055 6.666 19.1055 8.038V8.262C19.1055 9.662 18.6015 12.21 14.2755 12.21ZM13.9815 10.166H14.1355C15.8575 10.166 16.2915 8.934 16.2915 8.08C16.2915 7.198 15.8575 6.022 14.1355 6.022H13.9815C12.1895 6.022 11.8255 7.198 11.8255 8.08C11.8255 8.934 12.1895 10.166 13.9815 10.166ZM28.1236 8.122V8.08C28.1236 7.24 27.7316 6.106 26.0236 6.106H25.8836C24.2456 6.106 23.7276 7.184 23.7276 8.08V8.122C23.7276 8.976 24.2456 10.096 25.8836 10.096H26.0236C27.7316 10.096 28.1236 8.92 28.1236 8.122ZM21.0116 14.674V4.23H23.7136V5.224C24.0496 4.86 25.0716 4.076 26.8356 4.076H27.0176C29.9856 4.076 30.9516 6.106 30.9516 7.954V8.192C30.9516 9.886 29.9576 12.154 27.0036 12.154H26.8076C25.0296 12.154 24.0776 11.342 23.7416 11.006V14.674H21.0116ZM37.7228 12.21H37.2888C33.1028 12.21 32.4588 9.662 32.4588 8.248V8.052C32.4588 6.652 33.1028 4.02 37.2748 4.02H37.7368C42.0488 4.02 42.5528 6.666 42.5528 8.038V8.262C42.5528 9.662 42.0488 12.21 37.7228 12.21ZM37.4288 10.166H37.5828C39.3048 10.166 39.7388 8.934 39.7388 8.08C39.7388 7.198 39.3048 6.022 37.5828 6.022H37.4288C35.6368 6.022 35.2728 7.198 35.2728 8.08C35.2728 8.934 35.6368 10.166 37.4288 10.166ZM43.5818 13.652V9.928H44.5198C45.0518 8.864 45.1358 6.554 45.2058 4.23H53.4238V9.928H54.8238V13.652H52.2338V12H46.1718V13.652H43.5818ZM47.0958 9.928H50.6938V6.302H47.6558C47.6138 7.31 47.4738 8.85 47.0958 9.928ZM61.7405 0.688L57.2185 13.834H55.1045L59.6125 0.688H61.7405ZM69.7545 8.122V8.08C69.7545 7.24 69.3625 6.106 67.6545 6.106H67.5145C65.8765 6.106 65.3585 7.184 65.3585 8.08V8.122C65.3585 8.976 65.8765 10.096 67.5145 10.096H67.6545C69.3625 10.096 69.7545 8.92 69.7545 8.122ZM62.6425 14.674V4.23H65.3445V5.224C65.6805 4.86 66.7025 4.076 68.4665 4.076H68.6485C71.6165 4.076 72.5825 6.106 72.5825 7.954V8.192C72.5825 9.886 71.5885 12.154 68.6345 12.154H68.4385C66.6605 12.154 65.7085 11.342 65.3725 11.006V14.674H62.6425ZM79.0037 5.84C77.5897 5.84 77.0577 6.414 76.9177 7.226H81.0337C81.0337 6.652 80.7537 5.84 79.0037 5.84ZM81.0897 9.578H83.9317C83.9317 10.222 83.4277 12.182 79.4097 12.182H78.8917C75.0557 12.182 74.1037 10.082 74.1037 8.22V8.024C74.1037 6.274 74.9717 4.062 78.6537 4.062H79.2697C83.2457 4.062 83.9597 6.274 83.9597 8.444V8.696H76.8897C77.0017 9.592 77.5757 10.32 79.2417 10.32C80.8237 10.32 81.0197 9.704 81.0897 9.578ZM85.8293 12V4.23H92.6053V6.302H88.5593V12H85.8293ZM100.639 7.296L96.8871 12H94.0871V4.23H96.8171V8.934L100.569 4.23H103.369V12H100.639V7.296ZM110.512 12.21H110.078C105.892 12.21 105.248 9.662 105.248 8.248V8.052C105.248 6.652 105.892 4.02 110.064 4.02H110.526C114.838 4.02 115.342 6.666 115.342 8.038V8.262C115.342 9.662 114.838 12.21 110.512 12.21ZM110.218 10.166H110.372C112.094 10.166 112.528 8.934 112.528 8.08C112.528 7.198 112.094 6.022 110.372 6.022H110.218C108.426 6.022 108.062 7.198 108.062 8.08C108.062 8.934 108.426 10.166 110.218 10.166ZM119.95 12H117.22V4.23H119.95V7.058H123.758V4.23H126.488V12H123.758V9.13H119.95V12Z" fill="url(#paint2_radial_41_288)"/>
<path d="M0.288 12V1.584H8.968V3.88H3.172V12H0.288ZM14.2755 12.21H13.8415C9.65553 12.21 9.01153 9.662 9.01153 8.248V8.052C9.01153 6.652 9.65553 4.02 13.8275 4.02H14.2895C18.6015 4.02 19.1055 6.666 19.1055 8.038V8.262C19.1055 9.662 18.6015 12.21 14.2755 12.21ZM13.9815 10.166H14.1355C15.8575 10.166 16.2915 8.934 16.2915 8.08C16.2915 7.198 15.8575 6.022 14.1355 6.022H13.9815C12.1895 6.022 11.8255 7.198 11.8255 8.08C11.8255 8.934 12.1895 10.166 13.9815 10.166ZM28.1236 8.122V8.08C28.1236 7.24 27.7316 6.106 26.0236 6.106H25.8836C24.2456 6.106 23.7276 7.184 23.7276 8.08V8.122C23.7276 8.976 24.2456 10.096 25.8836 10.096H26.0236C27.7316 10.096 28.1236 8.92 28.1236 8.122ZM21.0116 14.674V4.23H23.7136V5.224C24.0496 4.86 25.0716 4.076 26.8356 4.076H27.0176C29.9856 4.076 30.9516 6.106 30.9516 7.954V8.192C30.9516 9.886 29.9576 12.154 27.0036 12.154H26.8076C25.0296 12.154 24.0776 11.342 23.7416 11.006V14.674H21.0116ZM37.7228 12.21H37.2888C33.1028 12.21 32.4588 9.662 32.4588 8.248V8.052C32.4588 6.652 33.1028 4.02 37.2748 4.02H37.7368C42.0488 4.02 42.5528 6.666 42.5528 8.038V8.262C42.5528 9.662 42.0488 12.21 37.7228 12.21ZM37.4288 10.166H37.5828C39.3048 10.166 39.7388 8.934 39.7388 8.08C39.7388 7.198 39.3048 6.022 37.5828 6.022H37.4288C35.6368 6.022 35.2728 7.198 35.2728 8.08C35.2728 8.934 35.6368 10.166 37.4288 10.166ZM43.5818 13.652V9.928H44.5198C45.0518 8.864 45.1358 6.554 45.2058 4.23H53.4238V9.928H54.8238V13.652H52.2338V12H46.1718V13.652H43.5818ZM47.0958 9.928H50.6938V6.302H47.6558C47.6138 7.31 47.4738 8.85 47.0958 9.928ZM61.7405 0.688L57.2185 13.834H55.1045L59.6125 0.688H61.7405ZM69.7545 8.122V8.08C69.7545 7.24 69.3625 6.106 67.6545 6.106H67.5145C65.8765 6.106 65.3585 7.184 65.3585 8.08V8.122C65.3585 8.976 65.8765 10.096 67.5145 10.096H67.6545C69.3625 10.096 69.7545 8.92 69.7545 8.122ZM62.6425 14.674V4.23H65.3445V5.224C65.6805 4.86 66.7025 4.076 68.4665 4.076H68.6485C71.6165 4.076 72.5825 6.106 72.5825 7.954V8.192C72.5825 9.886 71.5885 12.154 68.6345 12.154H68.4385C66.6605 12.154 65.7085 11.342 65.3725 11.006V14.674H62.6425ZM79.0037 5.84C77.5897 5.84 77.0577 6.414 76.9177 7.226H81.0337C81.0337 6.652 80.7537 5.84 79.0037 5.84ZM81.0897 9.578H83.9317C83.9317 10.222 83.4277 12.182 79.4097 12.182H78.8917C75.0557 12.182 74.1037 10.082 74.1037 8.22V8.024C74.1037 6.274 74.9717 4.062 78.6537 4.062H79.2697C83.2457 4.062 83.9597 6.274 83.9597 8.444V8.696H76.8897C77.0017 9.592 77.5757 10.32 79.2417 10.32C80.8237 10.32 81.0197 9.704 81.0897 9.578ZM85.8293 12V4.23H92.6053V6.302H88.5593V12H85.8293ZM100.639 7.296L96.8871 12H94.0871V4.23H96.8171V8.934L100.569 4.23H103.369V12H100.639V7.296ZM110.512 12.21H110.078C105.892 12.21 105.248 9.662 105.248 8.248V8.052C105.248 6.652 105.892 4.02 110.064 4.02H110.526C114.838 4.02 115.342 6.666 115.342 8.038V8.262C115.342 9.662 114.838 12.21 110.512 12.21ZM110.218 10.166H110.372C112.094 10.166 112.528 8.934 112.528 8.08C112.528 7.198 112.094 6.022 110.372 6.022H110.218C108.426 6.022 108.062 7.198 108.062 8.08C108.062 8.934 108.426 10.166 110.218 10.166ZM119.95 12H117.22V4.23H119.95V7.058H123.758V4.23H126.488V12H123.758V9.13H119.95V12Z" fill="#C1A875" style="mix-blend-mode:color"/>
<defs>
<linearGradient id="paint0_linear_41_288" x1="-1" y1="6.5" x2="128" y2="6.50001" gradientUnits="userSpaceOnUse">
<stop stop-color="#576167"/>
<stop offset="0.191294" stop-color="#9EA1A2"/>
<stop offset="0.396166" stop-color="#848989"/>
<stop offset="0.62055" stop-color="#576167"/>
<stop offset="0.830299" stop-color="#757A7C"/>
<stop offset="1" stop-color="#576167"/>
</linearGradient>
<radialGradient id="paint1_radial_41_288" cx="0" cy="0" r="1" gradientUnits="userSpaceOnUse" gradientTransform="translate(67.699 -0.785112) rotate(90) scale(14.1166 97.5927)">
<stop stop-color="white"/>
<stop offset="1" stop-color="white" stop-opacity="0"/>
</radialGradient>
<radialGradient id="paint2_radial_41_288" cx="0" cy="0" r="1" gradientUnits="userSpaceOnUse" gradientTransform="translate(74.9957 20.4831) rotate(-89.4151) scale(20.2286 139.548)">
<stop stop-color="white"/>
<stop offset="1" stop-color="white" stop-opacity="0"/>
</radialGradient>
</defs>
</svg>
