<svg width="82" height="14" viewBox="0 0 82 14" fill="none" xmlns="http://www.w3.org/2000/svg">
<path d="M4.676 11V2.964H0.644V0.584H11.578V2.964H7.546V11H4.676ZM16.6208 4.84C15.2068 4.84 14.6748 5.414 14.5348 6.226H18.6508C18.6508 5.652 18.3708 4.84 16.6208 4.84ZM18.7068 8.578H21.5488C21.5488 9.222 21.0448 11.182 17.0268 11.182H16.5088C12.6728 11.182 11.7208 9.082 11.7208 7.22V7.024C11.7208 5.274 12.5888 3.062 16.2708 3.062H16.8868C20.8628 3.062 21.5768 5.274 21.5768 7.444V7.696H14.5068C14.6188 8.592 15.1928 9.32 16.8588 9.32C18.4408 9.32 18.6368 8.704 18.7068 8.578ZM29.6798 11V5.302H26.5998C26.5998 7.388 26.5298 8.55 26.2638 9.264C25.9698 10.048 25.5778 11 23.5198 11H22.6658V8.97H22.8338C23.3238 8.97 23.6878 8.802 23.8418 8.088C23.9538 7.486 23.9958 6.828 23.9958 3.23H32.4098V11H29.6798ZM39.1931 4.84C37.7791 4.84 37.2471 5.414 37.1071 6.226H41.2231C41.2231 5.652 40.9431 4.84 39.1931 4.84ZM41.2791 8.578H44.1211C44.1211 9.222 43.6171 11.182 39.5991 11.182H39.0811C35.2451 11.182 34.2931 9.082 34.2931 7.22V7.024C34.2931 5.274 35.1611 3.062 38.8431 3.062H39.4591C43.4351 3.062 44.1491 5.274 44.1491 7.444V7.696H37.0791C37.1911 8.592 37.7651 9.32 39.4311 9.32C41.0131 9.32 41.2091 8.704 41.2791 8.578ZM53.9988 11.21H53.5928V13.632H50.8628V11.21H50.4568C46.1308 11.21 45.6268 8.662 45.6268 7.262V7.038C45.6268 5.666 46.1308 3.02 50.4428 3.02H50.8628V0.584H53.5928V3.02H54.0128C58.3248 3.02 58.8288 5.666 58.8288 7.038V7.262C58.8288 8.662 58.3248 11.21 53.9988 11.21ZM50.5968 9.236H50.8628V4.952H50.5968C48.8748 4.952 48.4408 6.058 48.4408 7.08C48.4408 8.074 48.8748 9.236 50.5968 9.236ZM53.8588 4.952H53.5928V9.236H53.8588C55.5808 9.236 56.0148 8.074 56.0148 7.08C56.0148 6.072 55.5808 4.952 53.8588 4.952ZM65.5744 11.21H65.1404C60.9544 11.21 60.3104 8.662 60.3104 7.248V7.052C60.3104 5.652 60.9544 3.02 65.1264 3.02H65.5884C69.9004 3.02 70.4044 5.666 70.4044 7.038V7.262C70.4044 8.662 69.9004 11.21 65.5744 11.21ZM65.2804 9.166H65.4344C67.1564 9.166 67.5904 7.934 67.5904 7.08C67.5904 6.198 67.1564 5.022 65.4344 5.022H65.2804C63.4884 5.022 63.1244 6.198 63.1244 7.08C63.1244 7.934 63.4884 9.166 65.2804 9.166ZM75.0124 11H72.2824V3.23H75.0124V6.058H78.8204V3.23H81.5504V11H78.8204V8.13H75.0124V11Z" fill="url(#paint0_linear_41_280)"/>
<path d="M4.676 11V2.964H0.644V0.584H11.578V2.964H7.546V11H4.676ZM16.6208 4.84C15.2068 4.84 14.6748 5.414 14.5348 6.226H18.6508C18.6508 5.652 18.3708 4.84 16.6208 4.84ZM18.7068 8.578H21.5488C21.5488 9.222 21.0448 11.182 17.0268 11.182H16.5088C12.6728 11.182 11.7208 9.082 11.7208 7.22V7.024C11.7208 5.274 12.5888 3.062 16.2708 3.062H16.8868C20.8628 3.062 21.5768 5.274 21.5768 7.444V7.696H14.5068C14.6188 8.592 15.1928 9.32 16.8588 9.32C18.4408 9.32 18.6368 8.704 18.7068 8.578ZM29.6798 11V5.302H26.5998C26.5998 7.388 26.5298 8.55 26.2638 9.264C25.9698 10.048 25.5778 11 23.5198 11H22.6658V8.97H22.8338C23.3238 8.97 23.6878 8.802 23.8418 8.088C23.9538 7.486 23.9958 6.828 23.9958 3.23H32.4098V11H29.6798ZM39.1931 4.84C37.7791 4.84 37.2471 5.414 37.1071 6.226H41.2231C41.2231 5.652 40.9431 4.84 39.1931 4.84ZM41.2791 8.578H44.1211C44.1211 9.222 43.6171 11.182 39.5991 11.182H39.0811C35.2451 11.182 34.2931 9.082 34.2931 7.22V7.024C34.2931 5.274 35.1611 3.062 38.8431 3.062H39.4591C43.4351 3.062 44.1491 5.274 44.1491 7.444V7.696H37.0791C37.1911 8.592 37.7651 9.32 39.4311 9.32C41.0131 9.32 41.2091 8.704 41.2791 8.578ZM53.9988 11.21H53.5928V13.632H50.8628V11.21H50.4568C46.1308 11.21 45.6268 8.662 45.6268 7.262V7.038C45.6268 5.666 46.1308 3.02 50.4428 3.02H50.8628V0.584H53.5928V3.02H54.0128C58.3248 3.02 58.8288 5.666 58.8288 7.038V7.262C58.8288 8.662 58.3248 11.21 53.9988 11.21ZM50.5968 9.236H50.8628V4.952H50.5968C48.8748 4.952 48.4408 6.058 48.4408 7.08C48.4408 8.074 48.8748 9.236 50.5968 9.236ZM53.8588 4.952H53.5928V9.236H53.8588C55.5808 9.236 56.0148 8.074 56.0148 7.08C56.0148 6.072 55.5808 4.952 53.8588 4.952ZM65.5744 11.21H65.1404C60.9544 11.21 60.3104 8.662 60.3104 7.248V7.052C60.3104 5.652 60.9544 3.02 65.1264 3.02H65.5884C69.9004 3.02 70.4044 5.666 70.4044 7.038V7.262C70.4044 8.662 69.9004 11.21 65.5744 11.21ZM65.2804 9.166H65.4344C67.1564 9.166 67.5904 7.934 67.5904 7.08C67.5904 6.198 67.1564 5.022 65.4344 5.022H65.2804C63.4884 5.022 63.1244 6.198 63.1244 7.08C63.1244 7.934 63.4884 9.166 65.2804 9.166ZM75.0124 11H72.2824V3.23H75.0124V6.058H78.8204V3.23H81.5504V11H78.8204V8.13H75.0124V11Z" fill="url(#paint1_radial_41_280)" style="mix-blend-mode:overlay"/>
<path d="M4.676 11V2.964H0.644V0.584H11.578V2.964H7.546V11H4.676ZM16.6208 4.84C15.2068 4.84 14.6748 5.414 14.5348 6.226H18.6508C18.6508 5.652 18.3708 4.84 16.6208 4.84ZM18.7068 8.578H21.5488C21.5488 9.222 21.0448 11.182 17.0268 11.182H16.5088C12.6728 11.182 11.7208 9.082 11.7208 7.22V7.024C11.7208 5.274 12.5888 3.062 16.2708 3.062H16.8868C20.8628 3.062 21.5768 5.274 21.5768 7.444V7.696H14.5068C14.6188 8.592 15.1928 9.32 16.8588 9.32C18.4408 9.32 18.6368 8.704 18.7068 8.578ZM29.6798 11V5.302H26.5998C26.5998 7.388 26.5298 8.55 26.2638 9.264C25.9698 10.048 25.5778 11 23.5198 11H22.6658V8.97H22.8338C23.3238 8.97 23.6878 8.802 23.8418 8.088C23.9538 7.486 23.9958 6.828 23.9958 3.23H32.4098V11H29.6798ZM39.1931 4.84C37.7791 4.84 37.2471 5.414 37.1071 6.226H41.2231C41.2231 5.652 40.9431 4.84 39.1931 4.84ZM41.2791 8.578H44.1211C44.1211 9.222 43.6171 11.182 39.5991 11.182H39.0811C35.2451 11.182 34.2931 9.082 34.2931 7.22V7.024C34.2931 5.274 35.1611 3.062 38.8431 3.062H39.4591C43.4351 3.062 44.1491 5.274 44.1491 7.444V7.696H37.0791C37.1911 8.592 37.7651 9.32 39.4311 9.32C41.0131 9.32 41.2091 8.704 41.2791 8.578ZM53.9988 11.21H53.5928V13.632H50.8628V11.21H50.4568C46.1308 11.21 45.6268 8.662 45.6268 7.262V7.038C45.6268 5.666 46.1308 3.02 50.4428 3.02H50.8628V0.584H53.5928V3.02H54.0128C58.3248 3.02 58.8288 5.666 58.8288 7.038V7.262C58.8288 8.662 58.3248 11.21 53.9988 11.21ZM50.5968 9.236H50.8628V4.952H50.5968C48.8748 4.952 48.4408 6.058 48.4408 7.08C48.4408 8.074 48.8748 9.236 50.5968 9.236ZM53.8588 4.952H53.5928V9.236H53.8588C55.5808 9.236 56.0148 8.074 56.0148 7.08C56.0148 6.072 55.5808 4.952 53.8588 4.952ZM65.5744 11.21H65.1404C60.9544 11.21 60.3104 8.662 60.3104 7.248V7.052C60.3104 5.652 60.9544 3.02 65.1264 3.02H65.5884C69.9004 3.02 70.4044 5.666 70.4044 7.038V7.262C70.4044 8.662 69.9004 11.21 65.5744 11.21ZM65.2804 9.166H65.4344C67.1564 9.166 67.5904 7.934 67.5904 7.08C67.5904 6.198 67.1564 5.022 65.4344 5.022H65.2804C63.4884 5.022 63.1244 6.198 63.1244 7.08C63.1244 7.934 63.4884 9.166 65.2804 9.166ZM75.0124 11H72.2824V3.23H75.0124V6.058H78.8204V3.23H81.5504V11H78.8204V8.13H75.0124V11Z" fill="url(#paint2_radial_41_280)"/>
<path d="M4.676 11V2.964H0.644V0.584H11.578V2.964H7.546V11H4.676ZM16.6208 4.84C15.2068 4.84 14.6748 5.414 14.5348 6.226H18.6508C18.6508 5.652 18.3708 4.84 16.6208 4.84ZM18.7068 8.578H21.5488C21.5488 9.222 21.0448 11.182 17.0268 11.182H16.5088C12.6728 11.182 11.7208 9.082 11.7208 7.22V7.024C11.7208 5.274 12.5888 3.062 16.2708 3.062H16.8868C20.8628 3.062 21.5768 5.274 21.5768 7.444V7.696H14.5068C14.6188 8.592 15.1928 9.32 16.8588 9.32C18.4408 9.32 18.6368 8.704 18.7068 8.578ZM29.6798 11V5.302H26.5998C26.5998 7.388 26.5298 8.55 26.2638 9.264C25.9698 10.048 25.5778 11 23.5198 11H22.6658V8.97H22.8338C23.3238 8.97 23.6878 8.802 23.8418 8.088C23.9538 7.486 23.9958 6.828 23.9958 3.23H32.4098V11H29.6798ZM39.1931 4.84C37.7791 4.84 37.2471 5.414 37.1071 6.226H41.2231C41.2231 5.652 40.9431 4.84 39.1931 4.84ZM41.2791 8.578H44.1211C44.1211 9.222 43.6171 11.182 39.5991 11.182H39.0811C35.2451 11.182 34.2931 9.082 34.2931 7.22V7.024C34.2931 5.274 35.1611 3.062 38.8431 3.062H39.4591C43.4351 3.062 44.1491 5.274 44.1491 7.444V7.696H37.0791C37.1911 8.592 37.7651 9.32 39.4311 9.32C41.0131 9.32 41.2091 8.704 41.2791 8.578ZM53.9988 11.21H53.5928V13.632H50.8628V11.21H50.4568C46.1308 11.21 45.6268 8.662 45.6268 7.262V7.038C45.6268 5.666 46.1308 3.02 50.4428 3.02H50.8628V0.584H53.5928V3.02H54.0128C58.3248 3.02 58.8288 5.666 58.8288 7.038V7.262C58.8288 8.662 58.3248 11.21 53.9988 11.21ZM50.5968 9.236H50.8628V4.952H50.5968C48.8748 4.952 48.4408 6.058 48.4408 7.08C48.4408 8.074 48.8748 9.236 50.5968 9.236ZM53.8588 4.952H53.5928V9.236H53.8588C55.5808 9.236 56.0148 8.074 56.0148 7.08C56.0148 6.072 55.5808 4.952 53.8588 4.952ZM65.5744 11.21H65.1404C60.9544 11.21 60.3104 8.662 60.3104 7.248V7.052C60.3104 5.652 60.9544 3.02 65.1264 3.02H65.5884C69.9004 3.02 70.4044 5.666 70.4044 7.038V7.262C70.4044 8.662 69.9004 11.21 65.5744 11.21ZM65.2804 9.166H65.4344C67.1564 9.166 67.5904 7.934 67.5904 7.08C67.5904 6.198 67.1564 5.022 65.4344 5.022H65.2804C63.4884 5.022 63.1244 6.198 63.1244 7.08C63.1244 7.934 63.4884 9.166 65.2804 9.166ZM75.0124 11H72.2824V3.23H75.0124V6.058H78.8204V3.23H81.5504V11H78.8204V8.13H75.0124V11Z" fill="#C1A875" style="mix-blend-mode:color"/>
<defs>
<linearGradient id="paint0_linear_41_280" x1="3.09199e-07" y1="5.5" x2="83" y2="5.5" gradientUnits="userSpaceOnUse">
<stop stop-color="#576167"/>
<stop offset="0.191294" stop-color="#9EA1A2"/>
<stop offset="0.396166" stop-color="#848989"/>
<stop offset="0.62055" stop-color="#576167"/>
<stop offset="0.830299" stop-color="#757A7C"/>
<stop offset="1" stop-color="#576167"/>
</linearGradient>
<radialGradient id="paint1_radial_41_280" cx="0" cy="0" r="1" gradientUnits="userSpaceOnUse" gradientTransform="translate(44.2017 -1.78511) rotate(90) scale(14.1166 62.7922)">
<stop stop-color="white"/>
<stop offset="1" stop-color="white" stop-opacity="0"/>
</radialGradient>
<radialGradient id="paint2_radial_41_280" cx="0" cy="0" r="1" gradientUnits="userSpaceOnUse" gradientTransform="translate(48.8965 19.4831) rotate(-89.6236) scale(20.228 89.7894)">
<stop stop-color="white"/>
<stop offset="1" stop-color="white" stop-opacity="0"/>
</radialGradient>
</defs>
</svg>
