<svg width="175" height="14" viewBox="0 0 175 14" fill="none" xmlns="http://www.w3.org/2000/svg">
<path d="M7.084 0.415999H7.7C12.572 0.415999 13.958 3.272 13.958 5.554V5.974C13.958 8.214 12.572 11.168 7.7 11.168H7.084C2.212 11.168 0.826 8.214 0.826 5.974V5.554C0.826 3.286 2.212 0.415999 7.084 0.415999ZM10.962 5.862V5.666C10.962 4.378 10.332 2.796 7.392 2.796C4.48 2.796 3.822 4.378 3.822 5.666V5.862C3.822 7.122 4.522 8.774 7.392 8.774C10.318 8.774 10.962 7.122 10.962 5.862ZM15.9133 11V3.23H24.9013V11H22.1713V5.302H18.6433V11H15.9133ZM33.7173 6.296L29.9653 11H27.1653V3.23H29.8953V7.934L33.6473 3.23H36.4473V11H33.7173V6.296ZM45.214 7.948H48.07C48.07 9.124 47.37 11.21 43.632 11.21H42.946C39.068 11.21 38.34 8.69 38.34 7.22V7.024C38.34 5.554 39.026 3.02 42.932 3.02H43.576C47.328 3.02 48.07 5.064 48.07 6.184V6.198H45.214C45.172 5.974 44.906 5.008 43.296 5.008H43.156C41.546 5.008 41.168 6.114 41.168 7.052V7.066C41.168 8.032 41.63 9.18 43.212 9.18H43.352C44.976 9.18 45.214 8.13 45.214 7.948ZM53.5969 9.446C55.1929 9.446 55.7389 8.438 55.7389 7.85V7.248C55.5009 7.346 54.8149 7.486 54.0309 7.612C52.7149 7.836 52.2949 8.018 52.2949 8.564V8.592C52.2949 9.082 52.6449 9.446 53.5969 9.446ZM55.8229 9.922C55.4869 10.328 54.6469 11.154 52.8269 11.154H52.6029C50.4329 11.154 49.5369 9.978 49.5369 8.69V8.634C49.5369 7.29 50.3909 6.464 53.0229 6.24L55.1509 6.058C55.5849 6.016 55.7389 5.876 55.7389 5.554C55.7389 5.19 55.6269 4.798 54.1149 4.798C52.6869 4.798 52.5469 5.358 52.5469 5.652H49.7469V5.624C49.7469 4.854 50.0549 3.048 53.8769 3.048H54.3109C58.1609 3.048 58.3989 4.63 58.3989 5.666V8.228C58.3989 8.718 58.4969 8.914 59.0429 8.914H59.3369V11H57.1249C56.3129 11 55.9349 10.426 55.8229 9.922ZM63.6238 11H60.8938V3.23H63.6238V6.058H67.4318V3.23H70.1618V11H67.4318V8.13H63.6238V11ZM78.9848 6.296L75.2328 11H72.4328V3.23H75.1628V7.934L78.9148 3.23H81.7148V11H78.9848V6.296ZM88.5076 4.84C87.0936 4.84 86.5616 5.414 86.4216 6.226H90.5376C90.5376 5.652 90.2576 4.84 88.5076 4.84ZM90.5936 8.578H93.4356C93.4356 9.222 92.9316 11.182 88.9136 11.182H88.3956C84.5596 11.182 83.6076 9.082 83.6076 7.22V7.024C83.6076 5.274 84.4756 3.062 88.1576 3.062H88.7736C92.7496 3.062 93.4636 5.274 93.4636 7.444V7.696H86.3936C86.5056 8.592 87.0796 9.32 88.7456 9.32C90.3276 9.32 90.5236 8.704 90.5936 8.578ZM99.3801 11V3.23H108.368V11H105.638V5.302H102.11V11H99.3801ZM117.772 7.122V7.08C117.772 6.24 117.38 5.106 115.672 5.106H115.532C113.894 5.106 113.376 6.184 113.376 7.08V7.122C113.376 7.976 113.894 9.096 115.532 9.096H115.672C117.38 9.096 117.772 7.92 117.772 7.122ZM110.66 13.674V3.23H113.362V4.224C113.698 3.86 114.72 3.076 116.484 3.076H116.666C119.634 3.076 120.6 5.106 120.6 6.954V7.192C120.6 8.886 119.606 11.154 116.652 11.154H116.456C114.678 11.154 113.726 10.342 113.39 10.006V13.674H110.66ZM127.371 11.21H126.937C122.751 11.21 122.107 8.662 122.107 7.248V7.052C122.107 5.652 122.751 3.02 126.923 3.02H127.385C131.697 3.02 132.201 5.666 132.201 7.038V7.262C132.201 8.662 131.697 11.21 127.371 11.21ZM127.077 9.166H127.231C128.953 9.166 129.387 7.934 129.387 7.08C129.387 6.198 128.953 5.022 127.231 5.022H127.077C125.285 5.022 124.921 6.198 124.921 7.08C124.921 7.934 125.285 9.166 127.077 9.166ZM138.601 4.84C137.187 4.84 136.655 5.414 136.515 6.226H140.631C140.631 5.652 140.351 4.84 138.601 4.84ZM140.687 8.578H143.529C143.529 9.222 143.025 11.182 139.007 11.182H138.489C134.653 11.182 133.701 9.082 133.701 7.22V7.024C133.701 5.274 134.569 3.062 138.251 3.062H138.867C142.843 3.062 143.557 5.274 143.557 7.444V7.696H136.487C136.599 8.592 137.173 9.32 138.839 9.32C140.421 9.32 140.617 8.704 140.687 8.578ZM151.209 11L148.185 7.402V11H145.455V3.23H148.185V6.338L150.957 3.23H154.107L150.859 6.716L154.457 11H151.209ZM157.811 11V5.302H154.801V3.23H163.551V5.302H160.541V11H157.811ZM168.7 9.446C170.296 9.446 170.842 8.438 170.842 7.85V7.248C170.604 7.346 169.918 7.486 169.134 7.612C167.818 7.836 167.398 8.018 167.398 8.564V8.592C167.398 9.082 167.748 9.446 168.7 9.446ZM170.926 9.922C170.59 10.328 169.75 11.154 167.93 11.154H167.706C165.536 11.154 164.64 9.978 164.64 8.69V8.634C164.64 7.29 165.494 6.464 168.126 6.24L170.254 6.058C170.688 6.016 170.842 5.876 170.842 5.554C170.842 5.19 170.73 4.798 169.218 4.798C167.79 4.798 167.65 5.358 167.65 5.652H164.85V5.624C164.85 4.854 165.158 3.048 168.98 3.048H169.414C173.264 3.048 173.502 4.63 173.502 5.666V8.228C173.502 8.718 173.6 8.914 174.146 8.914H174.44V11H172.228C171.416 11 171.038 10.426 170.926 9.922Z" fill="url(#paint0_linear_41_308)"/>
<path d="M7.084 0.415999H7.7C12.572 0.415999 13.958 3.272 13.958 5.554V5.974C13.958 8.214 12.572 11.168 7.7 11.168H7.084C2.212 11.168 0.826 8.214 0.826 5.974V5.554C0.826 3.286 2.212 0.415999 7.084 0.415999ZM10.962 5.862V5.666C10.962 4.378 10.332 2.796 7.392 2.796C4.48 2.796 3.822 4.378 3.822 5.666V5.862C3.822 7.122 4.522 8.774 7.392 8.774C10.318 8.774 10.962 7.122 10.962 5.862ZM15.9133 11V3.23H24.9013V11H22.1713V5.302H18.6433V11H15.9133ZM33.7173 6.296L29.9653 11H27.1653V3.23H29.8953V7.934L33.6473 3.23H36.4473V11H33.7173V6.296ZM45.214 7.948H48.07C48.07 9.124 47.37 11.21 43.632 11.21H42.946C39.068 11.21 38.34 8.69 38.34 7.22V7.024C38.34 5.554 39.026 3.02 42.932 3.02H43.576C47.328 3.02 48.07 5.064 48.07 6.184V6.198H45.214C45.172 5.974 44.906 5.008 43.296 5.008H43.156C41.546 5.008 41.168 6.114 41.168 7.052V7.066C41.168 8.032 41.63 9.18 43.212 9.18H43.352C44.976 9.18 45.214 8.13 45.214 7.948ZM53.5969 9.446C55.1929 9.446 55.7389 8.438 55.7389 7.85V7.248C55.5009 7.346 54.8149 7.486 54.0309 7.612C52.7149 7.836 52.2949 8.018 52.2949 8.564V8.592C52.2949 9.082 52.6449 9.446 53.5969 9.446ZM55.8229 9.922C55.4869 10.328 54.6469 11.154 52.8269 11.154H52.6029C50.4329 11.154 49.5369 9.978 49.5369 8.69V8.634C49.5369 7.29 50.3909 6.464 53.0229 6.24L55.1509 6.058C55.5849 6.016 55.7389 5.876 55.7389 5.554C55.7389 5.19 55.6269 4.798 54.1149 4.798C52.6869 4.798 52.5469 5.358 52.5469 5.652H49.7469V5.624C49.7469 4.854 50.0549 3.048 53.8769 3.048H54.3109C58.1609 3.048 58.3989 4.63 58.3989 5.666V8.228C58.3989 8.718 58.4969 8.914 59.0429 8.914H59.3369V11H57.1249C56.3129 11 55.9349 10.426 55.8229 9.922ZM63.6238 11H60.8938V3.23H63.6238V6.058H67.4318V3.23H70.1618V11H67.4318V8.13H63.6238V11ZM78.9848 6.296L75.2328 11H72.4328V3.23H75.1628V7.934L78.9148 3.23H81.7148V11H78.9848V6.296ZM88.5076 4.84C87.0936 4.84 86.5616 5.414 86.4216 6.226H90.5376C90.5376 5.652 90.2576 4.84 88.5076 4.84ZM90.5936 8.578H93.4356C93.4356 9.222 92.9316 11.182 88.9136 11.182H88.3956C84.5596 11.182 83.6076 9.082 83.6076 7.22V7.024C83.6076 5.274 84.4756 3.062 88.1576 3.062H88.7736C92.7496 3.062 93.4636 5.274 93.4636 7.444V7.696H86.3936C86.5056 8.592 87.0796 9.32 88.7456 9.32C90.3276 9.32 90.5236 8.704 90.5936 8.578ZM99.3801 11V3.23H108.368V11H105.638V5.302H102.11V11H99.3801ZM117.772 7.122V7.08C117.772 6.24 117.38 5.106 115.672 5.106H115.532C113.894 5.106 113.376 6.184 113.376 7.08V7.122C113.376 7.976 113.894 9.096 115.532 9.096H115.672C117.38 9.096 117.772 7.92 117.772 7.122ZM110.66 13.674V3.23H113.362V4.224C113.698 3.86 114.72 3.076 116.484 3.076H116.666C119.634 3.076 120.6 5.106 120.6 6.954V7.192C120.6 8.886 119.606 11.154 116.652 11.154H116.456C114.678 11.154 113.726 10.342 113.39 10.006V13.674H110.66ZM127.371 11.21H126.937C122.751 11.21 122.107 8.662 122.107 7.248V7.052C122.107 5.652 122.751 3.02 126.923 3.02H127.385C131.697 3.02 132.201 5.666 132.201 7.038V7.262C132.201 8.662 131.697 11.21 127.371 11.21ZM127.077 9.166H127.231C128.953 9.166 129.387 7.934 129.387 7.08C129.387 6.198 128.953 5.022 127.231 5.022H127.077C125.285 5.022 124.921 6.198 124.921 7.08C124.921 7.934 125.285 9.166 127.077 9.166ZM138.601 4.84C137.187 4.84 136.655 5.414 136.515 6.226H140.631C140.631 5.652 140.351 4.84 138.601 4.84ZM140.687 8.578H143.529C143.529 9.222 143.025 11.182 139.007 11.182H138.489C134.653 11.182 133.701 9.082 133.701 7.22V7.024C133.701 5.274 134.569 3.062 138.251 3.062H138.867C142.843 3.062 143.557 5.274 143.557 7.444V7.696H136.487C136.599 8.592 137.173 9.32 138.839 9.32C140.421 9.32 140.617 8.704 140.687 8.578ZM151.209 11L148.185 7.402V11H145.455V3.23H148.185V6.338L150.957 3.23H154.107L150.859 6.716L154.457 11H151.209ZM157.811 11V5.302H154.801V3.23H163.551V5.302H160.541V11H157.811ZM168.7 9.446C170.296 9.446 170.842 8.438 170.842 7.85V7.248C170.604 7.346 169.918 7.486 169.134 7.612C167.818 7.836 167.398 8.018 167.398 8.564V8.592C167.398 9.082 167.748 9.446 168.7 9.446ZM170.926 9.922C170.59 10.328 169.75 11.154 167.93 11.154H167.706C165.536 11.154 164.64 9.978 164.64 8.69V8.634C164.64 7.29 165.494 6.464 168.126 6.24L170.254 6.058C170.688 6.016 170.842 5.876 170.842 5.554C170.842 5.19 170.73 4.798 169.218 4.798C167.79 4.798 167.65 5.358 167.65 5.652H164.85V5.624C164.85 4.854 165.158 3.048 168.98 3.048H169.414C173.264 3.048 173.502 4.63 173.502 5.666V8.228C173.502 8.718 173.6 8.914 174.146 8.914H174.44V11H172.228C171.416 11 171.038 10.426 170.926 9.922Z" fill="url(#paint1_radial_41_308)" style="mix-blend-mode:overlay"/>
<path d="M7.084 0.415999H7.7C12.572 0.415999 13.958 3.272 13.958 5.554V5.974C13.958 8.214 12.572 11.168 7.7 11.168H7.084C2.212 11.168 0.826 8.214 0.826 5.974V5.554C0.826 3.286 2.212 0.415999 7.084 0.415999ZM10.962 5.862V5.666C10.962 4.378 10.332 2.796 7.392 2.796C4.48 2.796 3.822 4.378 3.822 5.666V5.862C3.822 7.122 4.522 8.774 7.392 8.774C10.318 8.774 10.962 7.122 10.962 5.862ZM15.9133 11V3.23H24.9013V11H22.1713V5.302H18.6433V11H15.9133ZM33.7173 6.296L29.9653 11H27.1653V3.23H29.8953V7.934L33.6473 3.23H36.4473V11H33.7173V6.296ZM45.214 7.948H48.07C48.07 9.124 47.37 11.21 43.632 11.21H42.946C39.068 11.21 38.34 8.69 38.34 7.22V7.024C38.34 5.554 39.026 3.02 42.932 3.02H43.576C47.328 3.02 48.07 5.064 48.07 6.184V6.198H45.214C45.172 5.974 44.906 5.008 43.296 5.008H43.156C41.546 5.008 41.168 6.114 41.168 7.052V7.066C41.168 8.032 41.63 9.18 43.212 9.18H43.352C44.976 9.18 45.214 8.13 45.214 7.948ZM53.5969 9.446C55.1929 9.446 55.7389 8.438 55.7389 7.85V7.248C55.5009 7.346 54.8149 7.486 54.0309 7.612C52.7149 7.836 52.2949 8.018 52.2949 8.564V8.592C52.2949 9.082 52.6449 9.446 53.5969 9.446ZM55.8229 9.922C55.4869 10.328 54.6469 11.154 52.8269 11.154H52.6029C50.4329 11.154 49.5369 9.978 49.5369 8.69V8.634C49.5369 7.29 50.3909 6.464 53.0229 6.24L55.1509 6.058C55.5849 6.016 55.7389 5.876 55.7389 5.554C55.7389 5.19 55.6269 4.798 54.1149 4.798C52.6869 4.798 52.5469 5.358 52.5469 5.652H49.7469V5.624C49.7469 4.854 50.0549 3.048 53.8769 3.048H54.3109C58.1609 3.048 58.3989 4.63 58.3989 5.666V8.228C58.3989 8.718 58.4969 8.914 59.0429 8.914H59.3369V11H57.1249C56.3129 11 55.9349 10.426 55.8229 9.922ZM63.6238 11H60.8938V3.23H63.6238V6.058H67.4318V3.23H70.1618V11H67.4318V8.13H63.6238V11ZM78.9848 6.296L75.2328 11H72.4328V3.23H75.1628V7.934L78.9148 3.23H81.7148V11H78.9848V6.296ZM88.5076 4.84C87.0936 4.84 86.5616 5.414 86.4216 6.226H90.5376C90.5376 5.652 90.2576 4.84 88.5076 4.84ZM90.5936 8.578H93.4356C93.4356 9.222 92.9316 11.182 88.9136 11.182H88.3956C84.5596 11.182 83.6076 9.082 83.6076 7.22V7.024C83.6076 5.274 84.4756 3.062 88.1576 3.062H88.7736C92.7496 3.062 93.4636 5.274 93.4636 7.444V7.696H86.3936C86.5056 8.592 87.0796 9.32 88.7456 9.32C90.3276 9.32 90.5236 8.704 90.5936 8.578ZM99.3801 11V3.23H108.368V11H105.638V5.302H102.11V11H99.3801ZM117.772 7.122V7.08C117.772 6.24 117.38 5.106 115.672 5.106H115.532C113.894 5.106 113.376 6.184 113.376 7.08V7.122C113.376 7.976 113.894 9.096 115.532 9.096H115.672C117.38 9.096 117.772 7.92 117.772 7.122ZM110.66 13.674V3.23H113.362V4.224C113.698 3.86 114.72 3.076 116.484 3.076H116.666C119.634 3.076 120.6 5.106 120.6 6.954V7.192C120.6 8.886 119.606 11.154 116.652 11.154H116.456C114.678 11.154 113.726 10.342 113.39 10.006V13.674H110.66ZM127.371 11.21H126.937C122.751 11.21 122.107 8.662 122.107 7.248V7.052C122.107 5.652 122.751 3.02 126.923 3.02H127.385C131.697 3.02 132.201 5.666 132.201 7.038V7.262C132.201 8.662 131.697 11.21 127.371 11.21ZM127.077 9.166H127.231C128.953 9.166 129.387 7.934 129.387 7.08C129.387 6.198 128.953 5.022 127.231 5.022H127.077C125.285 5.022 124.921 6.198 124.921 7.08C124.921 7.934 125.285 9.166 127.077 9.166ZM138.601 4.84C137.187 4.84 136.655 5.414 136.515 6.226H140.631C140.631 5.652 140.351 4.84 138.601 4.84ZM140.687 8.578H143.529C143.529 9.222 143.025 11.182 139.007 11.182H138.489C134.653 11.182 133.701 9.082 133.701 7.22V7.024C133.701 5.274 134.569 3.062 138.251 3.062H138.867C142.843 3.062 143.557 5.274 143.557 7.444V7.696H136.487C136.599 8.592 137.173 9.32 138.839 9.32C140.421 9.32 140.617 8.704 140.687 8.578ZM151.209 11L148.185 7.402V11H145.455V3.23H148.185V6.338L150.957 3.23H154.107L150.859 6.716L154.457 11H151.209ZM157.811 11V5.302H154.801V3.23H163.551V5.302H160.541V11H157.811ZM168.7 9.446C170.296 9.446 170.842 8.438 170.842 7.85V7.248C170.604 7.346 169.918 7.486 169.134 7.612C167.818 7.836 167.398 8.018 167.398 8.564V8.592C167.398 9.082 167.748 9.446 168.7 9.446ZM170.926 9.922C170.59 10.328 169.75 11.154 167.93 11.154H167.706C165.536 11.154 164.64 9.978 164.64 8.69V8.634C164.64 7.29 165.494 6.464 168.126 6.24L170.254 6.058C170.688 6.016 170.842 5.876 170.842 5.554C170.842 5.19 170.73 4.798 169.218 4.798C167.79 4.798 167.65 5.358 167.65 5.652H164.85V5.624C164.85 4.854 165.158 3.048 168.98 3.048H169.414C173.264 3.048 173.502 4.63 173.502 5.666V8.228C173.502 8.718 173.6 8.914 174.146 8.914H174.44V11H172.228C171.416 11 171.038 10.426 170.926 9.922Z" fill="url(#paint2_radial_41_308)"/>
<path d="M7.084 0.415999H7.7C12.572 0.415999 13.958 3.272 13.958 5.554V5.974C13.958 8.214 12.572 11.168 7.7 11.168H7.084C2.212 11.168 0.826 8.214 0.826 5.974V5.554C0.826 3.286 2.212 0.415999 7.084 0.415999ZM10.962 5.862V5.666C10.962 4.378 10.332 2.796 7.392 2.796C4.48 2.796 3.822 4.378 3.822 5.666V5.862C3.822 7.122 4.522 8.774 7.392 8.774C10.318 8.774 10.962 7.122 10.962 5.862ZM15.9133 11V3.23H24.9013V11H22.1713V5.302H18.6433V11H15.9133ZM33.7173 6.296L29.9653 11H27.1653V3.23H29.8953V7.934L33.6473 3.23H36.4473V11H33.7173V6.296ZM45.214 7.948H48.07C48.07 9.124 47.37 11.21 43.632 11.21H42.946C39.068 11.21 38.34 8.69 38.34 7.22V7.024C38.34 5.554 39.026 3.02 42.932 3.02H43.576C47.328 3.02 48.07 5.064 48.07 6.184V6.198H45.214C45.172 5.974 44.906 5.008 43.296 5.008H43.156C41.546 5.008 41.168 6.114 41.168 7.052V7.066C41.168 8.032 41.63 9.18 43.212 9.18H43.352C44.976 9.18 45.214 8.13 45.214 7.948ZM53.5969 9.446C55.1929 9.446 55.7389 8.438 55.7389 7.85V7.248C55.5009 7.346 54.8149 7.486 54.0309 7.612C52.7149 7.836 52.2949 8.018 52.2949 8.564V8.592C52.2949 9.082 52.6449 9.446 53.5969 9.446ZM55.8229 9.922C55.4869 10.328 54.6469 11.154 52.8269 11.154H52.6029C50.4329 11.154 49.5369 9.978 49.5369 8.69V8.634C49.5369 7.29 50.3909 6.464 53.0229 6.24L55.1509 6.058C55.5849 6.016 55.7389 5.876 55.7389 5.554C55.7389 5.19 55.6269 4.798 54.1149 4.798C52.6869 4.798 52.5469 5.358 52.5469 5.652H49.7469V5.624C49.7469 4.854 50.0549 3.048 53.8769 3.048H54.3109C58.1609 3.048 58.3989 4.63 58.3989 5.666V8.228C58.3989 8.718 58.4969 8.914 59.0429 8.914H59.3369V11H57.1249C56.3129 11 55.9349 10.426 55.8229 9.922ZM63.6238 11H60.8938V3.23H63.6238V6.058H67.4318V3.23H70.1618V11H67.4318V8.13H63.6238V11ZM78.9848 6.296L75.2328 11H72.4328V3.23H75.1628V7.934L78.9148 3.23H81.7148V11H78.9848V6.296ZM88.5076 4.84C87.0936 4.84 86.5616 5.414 86.4216 6.226H90.5376C90.5376 5.652 90.2576 4.84 88.5076 4.84ZM90.5936 8.578H93.4356C93.4356 9.222 92.9316 11.182 88.9136 11.182H88.3956C84.5596 11.182 83.6076 9.082 83.6076 7.22V7.024C83.6076 5.274 84.4756 3.062 88.1576 3.062H88.7736C92.7496 3.062 93.4636 5.274 93.4636 7.444V7.696H86.3936C86.5056 8.592 87.0796 9.32 88.7456 9.32C90.3276 9.32 90.5236 8.704 90.5936 8.578ZM99.3801 11V3.23H108.368V11H105.638V5.302H102.11V11H99.3801ZM117.772 7.122V7.08C117.772 6.24 117.38 5.106 115.672 5.106H115.532C113.894 5.106 113.376 6.184 113.376 7.08V7.122C113.376 7.976 113.894 9.096 115.532 9.096H115.672C117.38 9.096 117.772 7.92 117.772 7.122ZM110.66 13.674V3.23H113.362V4.224C113.698 3.86 114.72 3.076 116.484 3.076H116.666C119.634 3.076 120.6 5.106 120.6 6.954V7.192C120.6 8.886 119.606 11.154 116.652 11.154H116.456C114.678 11.154 113.726 10.342 113.39 10.006V13.674H110.66ZM127.371 11.21H126.937C122.751 11.21 122.107 8.662 122.107 7.248V7.052C122.107 5.652 122.751 3.02 126.923 3.02H127.385C131.697 3.02 132.201 5.666 132.201 7.038V7.262C132.201 8.662 131.697 11.21 127.371 11.21ZM127.077 9.166H127.231C128.953 9.166 129.387 7.934 129.387 7.08C129.387 6.198 128.953 5.022 127.231 5.022H127.077C125.285 5.022 124.921 6.198 124.921 7.08C124.921 7.934 125.285 9.166 127.077 9.166ZM138.601 4.84C137.187 4.84 136.655 5.414 136.515 6.226H140.631C140.631 5.652 140.351 4.84 138.601 4.84ZM140.687 8.578H143.529C143.529 9.222 143.025 11.182 139.007 11.182H138.489C134.653 11.182 133.701 9.082 133.701 7.22V7.024C133.701 5.274 134.569 3.062 138.251 3.062H138.867C142.843 3.062 143.557 5.274 143.557 7.444V7.696H136.487C136.599 8.592 137.173 9.32 138.839 9.32C140.421 9.32 140.617 8.704 140.687 8.578ZM151.209 11L148.185 7.402V11H145.455V3.23H148.185V6.338L150.957 3.23H154.107L150.859 6.716L154.457 11H151.209ZM157.811 11V5.302H154.801V3.23H163.551V5.302H160.541V11H157.811ZM168.7 9.446C170.296 9.446 170.842 8.438 170.842 7.85V7.248C170.604 7.346 169.918 7.486 169.134 7.612C167.818 7.836 167.398 8.018 167.398 8.564V8.592C167.398 9.082 167.748 9.446 168.7 9.446ZM170.926 9.922C170.59 10.328 169.75 11.154 167.93 11.154H167.706C165.536 11.154 164.64 9.978 164.64 8.69V8.634C164.64 7.29 165.494 6.464 168.126 6.24L170.254 6.058C170.688 6.016 170.842 5.876 170.842 5.554C170.842 5.19 170.73 4.798 169.218 4.798C167.79 4.798 167.65 5.358 167.65 5.652H164.85V5.624C164.85 4.854 165.158 3.048 168.98 3.048H169.414C173.264 3.048 173.502 4.63 173.502 5.666V8.228C173.502 8.718 173.6 8.914 174.146 8.914H174.44V11H172.228C171.416 11 171.038 10.426 170.926 9.922Z" fill="#C1A875" style="mix-blend-mode:color"/>
<defs>
<linearGradient id="paint0_linear_41_308" x1="6.51926e-07" y1="5.5" x2="175" y2="5.50001" gradientUnits="userSpaceOnUse">
<stop stop-color="#576167"/>
<stop offset="0.191294" stop-color="#9EA1A2"/>
<stop offset="0.396166" stop-color="#848989"/>
<stop offset="0.62055" stop-color="#576167"/>
<stop offset="0.830299" stop-color="#757A7C"/>
<stop offset="1" stop-color="#576167"/>
</linearGradient>
<radialGradient id="paint1_radial_41_308" cx="0" cy="0" r="1" gradientUnits="userSpaceOnUse" gradientTransform="translate(93.1964 -1.78511) rotate(90) scale(14.1166 132.393)">
<stop stop-color="white"/>
<stop offset="1" stop-color="white" stop-opacity="0"/>
</radialGradient>
<radialGradient id="paint2_radial_41_308" cx="0" cy="0" r="1" gradientUnits="userSpaceOnUse" gradientTransform="translate(103.095 19.4831) rotate(-89.2065) scale(20.2295 189.301)">
<stop stop-color="white"/>
<stop offset="1" stop-color="white" stop-opacity="0"/>
</radialGradient>
</defs>
</svg>
