<svg width="49" height="12" viewBox="0 0 49 12" fill="none" xmlns="http://www.w3.org/2000/svg">
<path d="M0.288 0.584H9.822V2.852H3.13V4.546H9.612V6.898H3.13V8.704H9.906V11H0.288V0.584ZM14.8139 11H12.0839V3.23H14.7859V4.49C15.1079 4.014 16.0459 3.048 17.7399 3.048H17.8519C19.3219 3.048 20.1899 3.72 20.6379 4.602C21.1979 3.846 22.2479 3.048 23.8859 3.048H24.0119C26.4479 3.048 27.2459 4.742 27.2459 6.268V11H24.5159V6.954C24.5159 6.058 24.0539 5.19 22.8079 5.19C21.6039 5.19 21.0299 6.1 21.0299 7.052V11H18.3139V6.954C18.3139 6.058 17.8519 5.19 16.6059 5.19C15.3879 5.19 14.8139 6.1 14.8139 7.052V11ZM33.1829 9.446C34.7789 9.446 35.3249 8.438 35.3249 7.85V7.248C35.0869 7.346 34.4009 7.486 33.6169 7.612C32.3009 7.836 31.8809 8.018 31.8809 8.564V8.592C31.8809 9.082 32.2309 9.446 33.1829 9.446ZM35.4089 9.922C35.0729 10.328 34.2329 11.154 32.4129 11.154H32.1889C30.0189 11.154 29.1229 9.978 29.1229 8.69V8.634C29.1229 7.29 29.9769 6.464 32.6089 6.24L34.7369 6.058C35.1709 6.016 35.3249 5.876 35.3249 5.554C35.3249 5.19 35.2129 4.798 33.7009 4.798C32.2729 4.798 32.1329 5.358 32.1329 5.652H29.3329V5.624C29.3329 4.854 29.6409 3.048 33.4629 3.048H33.8969C37.7469 3.048 37.9849 4.63 37.9849 5.666V8.228C37.9849 8.718 38.0829 8.914 38.6289 8.914H38.9229V11H36.7109C35.8989 11 35.5209 10.426 35.4089 9.922ZM43.2657 0.402V2.362H40.4797V0.402H43.2657ZM43.2377 3.23V11H40.5077V3.23H43.2377ZM48.2963 0.402V11H45.5663V0.402H48.2963Z" fill="url(#paint0_linear_41_284)"/>
<path d="M0.288 0.584H9.822V2.852H3.13V4.546H9.612V6.898H3.13V8.704H9.906V11H0.288V0.584ZM14.8139 11H12.0839V3.23H14.7859V4.49C15.1079 4.014 16.0459 3.048 17.7399 3.048H17.8519C19.3219 3.048 20.1899 3.72 20.6379 4.602C21.1979 3.846 22.2479 3.048 23.8859 3.048H24.0119C26.4479 3.048 27.2459 4.742 27.2459 6.268V11H24.5159V6.954C24.5159 6.058 24.0539 5.19 22.8079 5.19C21.6039 5.19 21.0299 6.1 21.0299 7.052V11H18.3139V6.954C18.3139 6.058 17.8519 5.19 16.6059 5.19C15.3879 5.19 14.8139 6.1 14.8139 7.052V11ZM33.1829 9.446C34.7789 9.446 35.3249 8.438 35.3249 7.85V7.248C35.0869 7.346 34.4009 7.486 33.6169 7.612C32.3009 7.836 31.8809 8.018 31.8809 8.564V8.592C31.8809 9.082 32.2309 9.446 33.1829 9.446ZM35.4089 9.922C35.0729 10.328 34.2329 11.154 32.4129 11.154H32.1889C30.0189 11.154 29.1229 9.978 29.1229 8.69V8.634C29.1229 7.29 29.9769 6.464 32.6089 6.24L34.7369 6.058C35.1709 6.016 35.3249 5.876 35.3249 5.554C35.3249 5.19 35.2129 4.798 33.7009 4.798C32.2729 4.798 32.1329 5.358 32.1329 5.652H29.3329V5.624C29.3329 4.854 29.6409 3.048 33.4629 3.048H33.8969C37.7469 3.048 37.9849 4.63 37.9849 5.666V8.228C37.9849 8.718 38.0829 8.914 38.6289 8.914H38.9229V11H36.7109C35.8989 11 35.5209 10.426 35.4089 9.922ZM43.2657 0.402V2.362H40.4797V0.402H43.2657ZM43.2377 3.23V11H40.5077V3.23H43.2377ZM48.2963 0.402V11H45.5663V0.402H48.2963Z" fill="url(#paint1_radial_41_284)" style="mix-blend-mode:overlay"/>
<path d="M0.288 0.584H9.822V2.852H3.13V4.546H9.612V6.898H3.13V8.704H9.906V11H0.288V0.584ZM14.8139 11H12.0839V3.23H14.7859V4.49C15.1079 4.014 16.0459 3.048 17.7399 3.048H17.8519C19.3219 3.048 20.1899 3.72 20.6379 4.602C21.1979 3.846 22.2479 3.048 23.8859 3.048H24.0119C26.4479 3.048 27.2459 4.742 27.2459 6.268V11H24.5159V6.954C24.5159 6.058 24.0539 5.19 22.8079 5.19C21.6039 5.19 21.0299 6.1 21.0299 7.052V11H18.3139V6.954C18.3139 6.058 17.8519 5.19 16.6059 5.19C15.3879 5.19 14.8139 6.1 14.8139 7.052V11ZM33.1829 9.446C34.7789 9.446 35.3249 8.438 35.3249 7.85V7.248C35.0869 7.346 34.4009 7.486 33.6169 7.612C32.3009 7.836 31.8809 8.018 31.8809 8.564V8.592C31.8809 9.082 32.2309 9.446 33.1829 9.446ZM35.4089 9.922C35.0729 10.328 34.2329 11.154 32.4129 11.154H32.1889C30.0189 11.154 29.1229 9.978 29.1229 8.69V8.634C29.1229 7.29 29.9769 6.464 32.6089 6.24L34.7369 6.058C35.1709 6.016 35.3249 5.876 35.3249 5.554C35.3249 5.19 35.2129 4.798 33.7009 4.798C32.2729 4.798 32.1329 5.358 32.1329 5.652H29.3329V5.624C29.3329 4.854 29.6409 3.048 33.4629 3.048H33.8969C37.7469 3.048 37.9849 4.63 37.9849 5.666V8.228C37.9849 8.718 38.0829 8.914 38.6289 8.914H38.9229V11H36.7109C35.8989 11 35.5209 10.426 35.4089 9.922ZM43.2657 0.402V2.362H40.4797V0.402H43.2657ZM43.2377 3.23V11H40.5077V3.23H43.2377ZM48.2963 0.402V11H45.5663V0.402H48.2963Z" fill="url(#paint2_radial_41_284)"/>
<path d="M0.288 0.584H9.822V2.852H3.13V4.546H9.612V6.898H3.13V8.704H9.906V11H0.288V0.584ZM14.8139 11H12.0839V3.23H14.7859V4.49C15.1079 4.014 16.0459 3.048 17.7399 3.048H17.8519C19.3219 3.048 20.1899 3.72 20.6379 4.602C21.1979 3.846 22.2479 3.048 23.8859 3.048H24.0119C26.4479 3.048 27.2459 4.742 27.2459 6.268V11H24.5159V6.954C24.5159 6.058 24.0539 5.19 22.8079 5.19C21.6039 5.19 21.0299 6.1 21.0299 7.052V11H18.3139V6.954C18.3139 6.058 17.8519 5.19 16.6059 5.19C15.3879 5.19 14.8139 6.1 14.8139 7.052V11ZM33.1829 9.446C34.7789 9.446 35.3249 8.438 35.3249 7.85V7.248C35.0869 7.346 34.4009 7.486 33.6169 7.612C32.3009 7.836 31.8809 8.018 31.8809 8.564V8.592C31.8809 9.082 32.2309 9.446 33.1829 9.446ZM35.4089 9.922C35.0729 10.328 34.2329 11.154 32.4129 11.154H32.1889C30.0189 11.154 29.1229 9.978 29.1229 8.69V8.634C29.1229 7.29 29.9769 6.464 32.6089 6.24L34.7369 6.058C35.1709 6.016 35.3249 5.876 35.3249 5.554C35.3249 5.19 35.2129 4.798 33.7009 4.798C32.2729 4.798 32.1329 5.358 32.1329 5.652H29.3329V5.624C29.3329 4.854 29.6409 3.048 33.4629 3.048H33.8969C37.7469 3.048 37.9849 4.63 37.9849 5.666V8.228C37.9849 8.718 38.0829 8.914 38.6289 8.914H38.9229V11H36.7109C35.8989 11 35.5209 10.426 35.4089 9.922ZM43.2657 0.402V2.362H40.4797V0.402H43.2657ZM43.2377 3.23V11H40.5077V3.23H43.2377ZM48.2963 0.402V11H45.5663V0.402H48.2963Z" fill="#C1A875" style="mix-blend-mode:color"/>
<defs>
<linearGradient id="paint0_linear_41_284" x1="-1" y1="5.5" x2="50" y2="5.5" gradientUnits="userSpaceOnUse">
<stop stop-color="#576167"/>
<stop offset="0.191294" stop-color="#9EA1A2"/>
<stop offset="0.396166" stop-color="#848989"/>
<stop offset="0.62055" stop-color="#576167"/>
<stop offset="0.830299" stop-color="#757A7C"/>
<stop offset="1" stop-color="#576167"/>
</linearGradient>
<radialGradient id="paint1_radial_41_284" cx="0" cy="0" r="1" gradientUnits="userSpaceOnUse" gradientTransform="translate(26.1601 -1.78511) rotate(90) scale(14.1166 38.5832)">
<stop stop-color="white"/>
<stop offset="1" stop-color="white" stop-opacity="0"/>
</radialGradient>
<radialGradient id="paint2_radial_41_284" cx="0" cy="0" r="1" gradientUnits="userSpaceOnUse" gradientTransform="translate(29.0448 19.4831) rotate(-89.7687) scale(20.2277 55.1726)">
<stop stop-color="white"/>
<stop offset="1" stop-color="white" stop-opacity="0"/>
</radialGradient>
</defs>
</svg>
