<svg width="31" height="30" viewBox="0 0 31 30" fill="none" xmlns="http://www.w3.org/2000/svg">
<path fill-rule="evenodd" clip-rule="evenodd" d="M22.0872 18.9722C22.0872 17.0128 21.9566 15.5229 20.2051 14.8432C21.6685 13.7724 21.6946 12.6744 21.6946 11.7861V10.8975C21.5378 7.94415 20.545 6.82037 17.1215 6.82037C13.6985 6.82037 12.7057 7.94415 12.5482 10.8975V11.7861C12.5482 12.6744 12.5748 13.7724 14.0378 14.8432C12.2874 15.5229 12.1567 17.0128 12.1567 18.9722C12.1567 21.873 13.1757 23.3103 17.1215 23.3886C21.0676 23.3103 22.0872 21.873 22.0872 18.9722ZM10.2272 8.02253C10.2272 7.26486 9.75621 7.10776 8.84179 7.10776H6.46349C5.54941 7.10776 5.07848 7.26486 5.07848 8.02253V8.88504C5.07848 9.64271 5.54941 9.79912 6.46349 9.79912H7.0122C7.35219 9.79912 7.50866 9.98304 7.50866 10.5052V21.7946C7.50866 22.709 7.66569 23.1789 8.4237 23.1789H9.31164C10.07 23.1789 10.2272 22.709 10.2272 21.7946V8.02253ZM28.2021 13.6669V12.4389C28.2021 11.5248 28.0711 11.0542 27.2873 11.0542H26.5028C25.7194 11.0542 25.5885 11.5248 25.5885 12.4389V13.6669H24.3605C23.446 13.6669 22.9755 13.7978 22.9755 14.582V15.4184C22.9755 16.2018 23.446 16.3331 24.3605 16.3331H25.5885V17.5611C25.5885 18.4758 25.7194 18.9461 26.5028 18.9461H27.2873C28.0711 18.9461 28.2021 18.4758 28.2021 17.5611V16.3331H29.9526C30.2926 16.3331 30.4754 16.5157 30.5016 16.8557V20.8272C30.5016 21.7946 30.2138 22.5261 29.5345 23.1789L23.707 29.0065C23.0274 29.6865 22.2696 30 21.3291 30H9.6737C8.73315 30 7.9754 29.6865 7.29577 29.0065L1.46825 23.1789C0.788964 22.5 0.474769 21.7946 0.501579 20.8272V9.30341C0.501579 8.33639 0.815457 7.5 1.52087 6.79459L7.45263 0.784136C8.05388 0.183228 8.81153 0 9.6737 0H21.3291C22.1913 0 22.9489 0.183228 23.5502 0.784136L29.4823 6.79459C30.1616 7.5 30.5016 8.33639 30.5016 9.30341V13.066C30.5016 13.4582 30.3184 13.6669 29.9526 13.6669H28.2021ZM17.1215 16.2018C15.4494 16.2018 14.848 16.9598 14.848 18.6065C14.848 20.2531 15.4494 20.9059 17.1215 20.9059C18.7939 20.9059 19.3951 20.2531 19.3951 18.6065C19.3951 16.9598 18.7939 16.2018 17.1215 16.2018ZM15.1096 11.4984C15.1096 9.74756 15.6848 9.22469 17.1215 9.22469C18.5591 9.22469 19.1341 9.74756 19.1341 11.4984C19.1341 13.1969 18.5591 13.7724 17.1215 13.7724C15.6848 13.7724 15.1096 13.1969 15.1096 11.4984Z" fill="white"/>
</svg>
