<svg width="399" height="47" viewBox="0 0 399 47" fill="none" xmlns="http://www.w3.org/2000/svg">
<path d="M11.5 17.14H0.88V8.08C9.88 8.08 12.64 6.76 14.56 1.36H23.8V46H11.5V17.14ZM58.2034 0.639997H60.7234C81.6634 0.639997 85.6834 14.74 85.6834 22.66V24.46C85.6834 32.26 81.5434 46.72 60.7234 46.72H58.2034C37.3234 46.72 33.2434 32.26 33.2434 24.46V22.66C33.2434 14.56 37.3234 0.639997 58.2034 0.639997ZM72.8434 23.92V23.08C72.8434 19.06 71.1634 10.84 59.4634 10.84C47.6434 10.84 46.0834 19.06 46.0834 23.08V23.92C46.0834 28 48.0034 36.46 59.5234 36.46C71.0434 36.46 72.8434 28 72.8434 23.92ZM112.27 46V1.36H128.71L142.93 31.6L157.57 1.36H172.99V46H160.93V16.78L147.37 46H137.71L124.15 16.78V46H112.27ZM215.187 28.54L207.087 10.36L199.227 28.54H215.187ZM222.987 46L219.327 37.72H195.207L191.607 46H179.187L198.987 1.36H215.547L236.247 46H222.987ZM272.647 31.72H254.767V46H242.407V1.36H272.647C286.747 1.36 291.127 7.54 291.127 16.18V16.84C291.127 25.3 286.567 31.72 272.647 31.72ZM254.767 11.32V21.76H271.747C276.307 21.76 278.287 19.84 278.287 16.66V16.42C278.287 13.3 276.307 11.32 271.747 11.32H254.767ZM313.997 46V11.56H296.717V1.36H343.577V11.56H326.297V46H313.997ZM377.902 28.54L369.802 10.36L361.942 28.54H377.902ZM385.702 46L382.042 37.72H357.922L354.322 46H341.902L361.702 1.36H378.262L398.962 46H385.702Z" fill="url(#paint0_linear_41_245)"/>
<path d="M11.5 17.14H0.88V8.08C9.88 8.08 12.64 6.76 14.56 1.36H23.8V46H11.5V17.14ZM58.2034 0.639997H60.7234C81.6634 0.639997 85.6834 14.74 85.6834 22.66V24.46C85.6834 32.26 81.5434 46.72 60.7234 46.72H58.2034C37.3234 46.72 33.2434 32.26 33.2434 24.46V22.66C33.2434 14.56 37.3234 0.639997 58.2034 0.639997ZM72.8434 23.92V23.08C72.8434 19.06 71.1634 10.84 59.4634 10.84C47.6434 10.84 46.0834 19.06 46.0834 23.08V23.92C46.0834 28 48.0034 36.46 59.5234 36.46C71.0434 36.46 72.8434 28 72.8434 23.92ZM112.27 46V1.36H128.71L142.93 31.6L157.57 1.36H172.99V46H160.93V16.78L147.37 46H137.71L124.15 16.78V46H112.27ZM215.187 28.54L207.087 10.36L199.227 28.54H215.187ZM222.987 46L219.327 37.72H195.207L191.607 46H179.187L198.987 1.36H215.547L236.247 46H222.987ZM272.647 31.72H254.767V46H242.407V1.36H272.647C286.747 1.36 291.127 7.54 291.127 16.18V16.84C291.127 25.3 286.567 31.72 272.647 31.72ZM254.767 11.32V21.76H271.747C276.307 21.76 278.287 19.84 278.287 16.66V16.42C278.287 13.3 276.307 11.32 271.747 11.32H254.767ZM313.997 46V11.56H296.717V1.36H343.577V11.56H326.297V46H313.997ZM377.902 28.54L369.802 10.36L361.942 28.54H377.902ZM385.702 46L382.042 37.72H357.922L354.322 46H341.902L361.702 1.36H378.262L398.962 46H385.702Z" fill="url(#paint1_radial_41_245)" style="mix-blend-mode:overlay"/>
<path d="M11.5 17.14H0.88V8.08C9.88 8.08 12.64 6.76 14.56 1.36H23.8V46H11.5V17.14ZM58.2034 0.639997H60.7234C81.6634 0.639997 85.6834 14.74 85.6834 22.66V24.46C85.6834 32.26 81.5434 46.72 60.7234 46.72H58.2034C37.3234 46.72 33.2434 32.26 33.2434 24.46V22.66C33.2434 14.56 37.3234 0.639997 58.2034 0.639997ZM72.8434 23.92V23.08C72.8434 19.06 71.1634 10.84 59.4634 10.84C47.6434 10.84 46.0834 19.06 46.0834 23.08V23.92C46.0834 28 48.0034 36.46 59.5234 36.46C71.0434 36.46 72.8434 28 72.8434 23.92ZM112.27 46V1.36H128.71L142.93 31.6L157.57 1.36H172.99V46H160.93V16.78L147.37 46H137.71L124.15 16.78V46H112.27ZM215.187 28.54L207.087 10.36L199.227 28.54H215.187ZM222.987 46L219.327 37.72H195.207L191.607 46H179.187L198.987 1.36H215.547L236.247 46H222.987ZM272.647 31.72H254.767V46H242.407V1.36H272.647C286.747 1.36 291.127 7.54 291.127 16.18V16.84C291.127 25.3 286.567 31.72 272.647 31.72ZM254.767 11.32V21.76H271.747C276.307 21.76 278.287 19.84 278.287 16.66V16.42C278.287 13.3 276.307 11.32 271.747 11.32H254.767ZM313.997 46V11.56H296.717V1.36H343.577V11.56H326.297V46H313.997ZM377.902 28.54L369.802 10.36L361.942 28.54H377.902ZM385.702 46L382.042 37.72H357.922L354.322 46H341.902L361.702 1.36H378.262L398.962 46H385.702Z" fill="url(#paint2_radial_41_245)"/>
<path d="M11.5 17.14H0.88V8.08C9.88 8.08 12.64 6.76 14.56 1.36H23.8V46H11.5V17.14ZM58.2034 0.639997H60.7234C81.6634 0.639997 85.6834 14.74 85.6834 22.66V24.46C85.6834 32.26 81.5434 46.72 60.7234 46.72H58.2034C37.3234 46.72 33.2434 32.26 33.2434 24.46V22.66C33.2434 14.56 37.3234 0.639997 58.2034 0.639997ZM72.8434 23.92V23.08C72.8434 19.06 71.1634 10.84 59.4634 10.84C47.6434 10.84 46.0834 19.06 46.0834 23.08V23.92C46.0834 28 48.0034 36.46 59.5234 36.46C71.0434 36.46 72.8434 28 72.8434 23.92ZM112.27 46V1.36H128.71L142.93 31.6L157.57 1.36H172.99V46H160.93V16.78L147.37 46H137.71L124.15 16.78V46H112.27ZM215.187 28.54L207.087 10.36L199.227 28.54H215.187ZM222.987 46L219.327 37.72H195.207L191.607 46H179.187L198.987 1.36H215.547L236.247 46H222.987ZM272.647 31.72H254.767V46H242.407V1.36H272.647C286.747 1.36 291.127 7.54 291.127 16.18V16.84C291.127 25.3 286.567 31.72 272.647 31.72ZM254.767 11.32V21.76H271.747C276.307 21.76 278.287 19.84 278.287 16.66V16.42C278.287 13.3 276.307 11.32 271.747 11.32H254.767ZM313.997 46V11.56H296.717V1.36H343.577V11.56H326.297V46H313.997ZM377.902 28.54L369.802 10.36L361.942 28.54H377.902ZM385.702 46L382.042 37.72H357.922L354.322 46H341.902L361.702 1.36H378.262L398.962 46H385.702Z" fill="#C1A875" style="mix-blend-mode:color"/>
<defs>
<linearGradient id="paint0_linear_41_245" x1="-2" y1="20.5" x2="400" y2="20.5" gradientUnits="userSpaceOnUse">
<stop stop-color="#576167"/>
<stop offset="0.191294" stop-color="#9EA1A2"/>
<stop offset="0.396166" stop-color="#848989"/>
<stop offset="0.62055" stop-color="#576167"/>
<stop offset="0.830299" stop-color="#757A7C"/>
<stop offset="1" stop-color="#576167"/>
</linearGradient>
<radialGradient id="paint1_radial_41_245" cx="0" cy="0" r="1" gradientUnits="userSpaceOnUse" gradientTransform="translate(212.085 -10.5576) rotate(90) scale(60.1812 304.126)">
<stop stop-color="white"/>
<stop offset="1" stop-color="white" stop-opacity="0"/>
</radialGradient>
<radialGradient id="paint2_radial_41_245" cx="0" cy="0" r="1" gradientUnits="userSpaceOnUse" gradientTransform="translate(234.824 80.1124) rotate(-89.5724) scale(86.2355 434.881)">
<stop stop-color="white"/>
<stop offset="1" stop-color="white" stop-opacity="0"/>
</radialGradient>
</defs>
</svg>
