<svg width="190" height="18" viewBox="0 0 190 18" fill="none" xmlns="http://www.w3.org/2000/svg">
<path d="M7.70525 14.198H6.98525C1.29725 14.198 0.271248 11.48 0.271248 10.256V10.004H4.17725C4.26725 10.382 4.80725 11.21 7.38125 11.21C9.81125 11.21 10.7112 10.562 10.7112 9.554V9.446C10.7112 8.384 9.84725 7.844 7.38125 7.844C4.84325 7.844 4.28525 8.474 4.14125 8.888H0.469248V0.608H13.4652V3.65H4.14125V6.134C4.28525 5.99 5.50925 5.09 8.19125 5.09H8.37125C13.1412 5.09 14.4012 7.142 14.4012 9.248V9.464C14.4012 11.642 12.9792 14.198 7.70525 14.198ZM20.8078 10.508V14H16.6138V10.508H20.8078ZM45.064 6.998V7.538C45.064 10.274 43.444 14.198 37.324 14.198H36.496C30.808 14.198 29.008 11.264 29.008 8.816V8.762H32.824C32.878 9.194 33.328 11.21 36.892 11.21C39.412 11.21 40.672 9.968 41.104 8.636H35.002V5.792H41.104C40.672 4.442 39.43 3.38 36.91 3.38C33.382 3.38 32.878 5.36 32.824 5.738H29.008V5.702C29.008 3.164 30.88 0.409999 36.496 0.409999H37.324C43.444 0.409999 45.064 4.208 45.064 6.998ZM55.015 14L51.127 9.374V14H47.617V4.01H51.127V8.006L54.691 4.01H58.741L54.565 8.492L59.191 14H55.015ZM68.5366 10.076H72.2086C72.2086 11.588 71.3086 14.27 66.5026 14.27H65.6206C60.6346 14.27 59.6986 11.03 59.6986 9.14V8.888C59.6986 6.998 60.5806 3.74 65.6026 3.74H66.4306C71.2546 3.74 72.2086 6.368 72.2086 7.808V7.826H68.5366C68.4826 7.538 68.1406 6.296 66.0706 6.296H65.8906C63.8206 6.296 63.3346 7.718 63.3346 8.924V8.942C63.3346 10.184 63.9286 11.66 65.9626 11.66H66.1426C68.2306 11.66 68.5366 10.31 68.5366 10.076ZM74.5986 14V4.01H86.1546V14H82.6446V6.674H78.1086V14H74.5986ZM94.8794 6.08C93.0614 6.08 92.3774 6.818 92.1974 7.862H97.4894C97.4894 7.124 97.1294 6.08 94.8794 6.08ZM97.5614 10.886H101.215C101.215 11.714 100.567 14.234 95.4014 14.234H94.7354C89.8034 14.234 88.5794 11.534 88.5794 9.14V8.888C88.5794 6.638 89.6954 3.794 94.4294 3.794H95.2214C100.333 3.794 101.251 6.638 101.251 9.428V9.752H92.1614C92.3054 10.904 93.0434 11.84 95.1854 11.84C97.2194 11.84 97.4714 11.048 97.5614 10.886ZM112.835 9.014V8.96C112.835 7.88 112.331 6.422 110.135 6.422H109.955C107.849 6.422 107.183 7.808 107.183 8.96V9.014C107.183 10.112 107.849 11.552 109.955 11.552H110.135C112.331 11.552 112.835 10.04 112.835 9.014ZM103.691 17.438V4.01H107.165V5.288C107.597 4.82 108.911 3.812 111.179 3.812H111.413C115.229 3.812 116.471 6.422 116.471 8.798V9.104C116.471 11.282 115.193 14.198 111.395 14.198H111.143C108.857 14.198 107.633 13.154 107.201 12.722V17.438H103.691ZM121.775 14V6.674H117.905V4.01H129.155V6.674H125.285V14H121.775ZM136.263 14V4.01H144.975V6.674H139.773V14H136.263ZM153.144 14.27H152.586C147.204 14.27 146.376 10.994 146.376 9.176V8.924C146.376 7.124 147.204 3.74 152.568 3.74H153.162C158.706 3.74 159.354 7.142 159.354 8.906V9.194C159.354 10.994 158.706 14.27 153.144 14.27ZM152.766 11.642H152.964C155.178 11.642 155.736 10.058 155.736 8.96C155.736 7.826 155.178 6.314 152.964 6.314H152.766C150.462 6.314 149.994 7.826 149.994 8.96C149.994 10.058 150.462 11.642 152.766 11.642ZM160.677 16.124V11.336H161.883C162.567 9.968 162.675 6.998 162.765 4.01H173.331V11.336H175.131V16.124H171.801V14H164.007V16.124H160.677ZM165.195 11.336H169.821V6.674H165.915C165.861 7.97 165.681 9.95 165.195 11.336ZM181.936 12.002C183.988 12.002 184.69 10.706 184.69 9.95V9.176C184.384 9.302 183.502 9.482 182.494 9.644C180.802 9.932 180.262 10.166 180.262 10.868V10.904C180.262 11.534 180.712 12.002 181.936 12.002ZM184.798 12.614C184.366 13.136 183.286 14.198 180.946 14.198H180.658C177.868 14.198 176.716 12.686 176.716 11.03V10.958C176.716 9.23 177.814 8.168 181.198 7.88L183.934 7.646C184.492 7.592 184.69 7.412 184.69 6.998C184.69 6.53 184.546 6.026 182.602 6.026C180.766 6.026 180.586 6.746 180.586 7.124H176.986V7.088C176.986 6.098 177.382 3.776 182.296 3.776H182.854C187.804 3.776 188.11 5.81 188.11 7.142V10.436C188.11 11.066 188.236 11.318 188.938 11.318H189.316V14H186.472C185.428 14 184.942 13.262 184.798 12.614Z" fill="url(#paint0_linear_41_172)"/>
<path d="M7.70525 14.198H6.98525C1.29725 14.198 0.271248 11.48 0.271248 10.256V10.004H4.17725C4.26725 10.382 4.80725 11.21 7.38125 11.21C9.81125 11.21 10.7112 10.562 10.7112 9.554V9.446C10.7112 8.384 9.84725 7.844 7.38125 7.844C4.84325 7.844 4.28525 8.474 4.14125 8.888H0.469248V0.608H13.4652V3.65H4.14125V6.134C4.28525 5.99 5.50925 5.09 8.19125 5.09H8.37125C13.1412 5.09 14.4012 7.142 14.4012 9.248V9.464C14.4012 11.642 12.9792 14.198 7.70525 14.198ZM20.8078 10.508V14H16.6138V10.508H20.8078ZM45.064 6.998V7.538C45.064 10.274 43.444 14.198 37.324 14.198H36.496C30.808 14.198 29.008 11.264 29.008 8.816V8.762H32.824C32.878 9.194 33.328 11.21 36.892 11.21C39.412 11.21 40.672 9.968 41.104 8.636H35.002V5.792H41.104C40.672 4.442 39.43 3.38 36.91 3.38C33.382 3.38 32.878 5.36 32.824 5.738H29.008V5.702C29.008 3.164 30.88 0.409999 36.496 0.409999H37.324C43.444 0.409999 45.064 4.208 45.064 6.998ZM55.015 14L51.127 9.374V14H47.617V4.01H51.127V8.006L54.691 4.01H58.741L54.565 8.492L59.191 14H55.015ZM68.5366 10.076H72.2086C72.2086 11.588 71.3086 14.27 66.5026 14.27H65.6206C60.6346 14.27 59.6986 11.03 59.6986 9.14V8.888C59.6986 6.998 60.5806 3.74 65.6026 3.74H66.4306C71.2546 3.74 72.2086 6.368 72.2086 7.808V7.826H68.5366C68.4826 7.538 68.1406 6.296 66.0706 6.296H65.8906C63.8206 6.296 63.3346 7.718 63.3346 8.924V8.942C63.3346 10.184 63.9286 11.66 65.9626 11.66H66.1426C68.2306 11.66 68.5366 10.31 68.5366 10.076ZM74.5986 14V4.01H86.1546V14H82.6446V6.674H78.1086V14H74.5986ZM94.8794 6.08C93.0614 6.08 92.3774 6.818 92.1974 7.862H97.4894C97.4894 7.124 97.1294 6.08 94.8794 6.08ZM97.5614 10.886H101.215C101.215 11.714 100.567 14.234 95.4014 14.234H94.7354C89.8034 14.234 88.5794 11.534 88.5794 9.14V8.888C88.5794 6.638 89.6954 3.794 94.4294 3.794H95.2214C100.333 3.794 101.251 6.638 101.251 9.428V9.752H92.1614C92.3054 10.904 93.0434 11.84 95.1854 11.84C97.2194 11.84 97.4714 11.048 97.5614 10.886ZM112.835 9.014V8.96C112.835 7.88 112.331 6.422 110.135 6.422H109.955C107.849 6.422 107.183 7.808 107.183 8.96V9.014C107.183 10.112 107.849 11.552 109.955 11.552H110.135C112.331 11.552 112.835 10.04 112.835 9.014ZM103.691 17.438V4.01H107.165V5.288C107.597 4.82 108.911 3.812 111.179 3.812H111.413C115.229 3.812 116.471 6.422 116.471 8.798V9.104C116.471 11.282 115.193 14.198 111.395 14.198H111.143C108.857 14.198 107.633 13.154 107.201 12.722V17.438H103.691ZM121.775 14V6.674H117.905V4.01H129.155V6.674H125.285V14H121.775ZM136.263 14V4.01H144.975V6.674H139.773V14H136.263ZM153.144 14.27H152.586C147.204 14.27 146.376 10.994 146.376 9.176V8.924C146.376 7.124 147.204 3.74 152.568 3.74H153.162C158.706 3.74 159.354 7.142 159.354 8.906V9.194C159.354 10.994 158.706 14.27 153.144 14.27ZM152.766 11.642H152.964C155.178 11.642 155.736 10.058 155.736 8.96C155.736 7.826 155.178 6.314 152.964 6.314H152.766C150.462 6.314 149.994 7.826 149.994 8.96C149.994 10.058 150.462 11.642 152.766 11.642ZM160.677 16.124V11.336H161.883C162.567 9.968 162.675 6.998 162.765 4.01H173.331V11.336H175.131V16.124H171.801V14H164.007V16.124H160.677ZM165.195 11.336H169.821V6.674H165.915C165.861 7.97 165.681 9.95 165.195 11.336ZM181.936 12.002C183.988 12.002 184.69 10.706 184.69 9.95V9.176C184.384 9.302 183.502 9.482 182.494 9.644C180.802 9.932 180.262 10.166 180.262 10.868V10.904C180.262 11.534 180.712 12.002 181.936 12.002ZM184.798 12.614C184.366 13.136 183.286 14.198 180.946 14.198H180.658C177.868 14.198 176.716 12.686 176.716 11.03V10.958C176.716 9.23 177.814 8.168 181.198 7.88L183.934 7.646C184.492 7.592 184.69 7.412 184.69 6.998C184.69 6.53 184.546 6.026 182.602 6.026C180.766 6.026 180.586 6.746 180.586 7.124H176.986V7.088C176.986 6.098 177.382 3.776 182.296 3.776H182.854C187.804 3.776 188.11 5.81 188.11 7.142V10.436C188.11 11.066 188.236 11.318 188.938 11.318H189.316V14H186.472C185.428 14 184.942 13.262 184.798 12.614Z" fill="url(#paint1_radial_41_172)" style="mix-blend-mode:overlay"/>
<path d="M7.70525 14.198H6.98525C1.29725 14.198 0.271248 11.48 0.271248 10.256V10.004H4.17725C4.26725 10.382 4.80725 11.21 7.38125 11.21C9.81125 11.21 10.7112 10.562 10.7112 9.554V9.446C10.7112 8.384 9.84725 7.844 7.38125 7.844C4.84325 7.844 4.28525 8.474 4.14125 8.888H0.469248V0.608H13.4652V3.65H4.14125V6.134C4.28525 5.99 5.50925 5.09 8.19125 5.09H8.37125C13.1412 5.09 14.4012 7.142 14.4012 9.248V9.464C14.4012 11.642 12.9792 14.198 7.70525 14.198ZM20.8078 10.508V14H16.6138V10.508H20.8078ZM45.064 6.998V7.538C45.064 10.274 43.444 14.198 37.324 14.198H36.496C30.808 14.198 29.008 11.264 29.008 8.816V8.762H32.824C32.878 9.194 33.328 11.21 36.892 11.21C39.412 11.21 40.672 9.968 41.104 8.636H35.002V5.792H41.104C40.672 4.442 39.43 3.38 36.91 3.38C33.382 3.38 32.878 5.36 32.824 5.738H29.008V5.702C29.008 3.164 30.88 0.409999 36.496 0.409999H37.324C43.444 0.409999 45.064 4.208 45.064 6.998ZM55.015 14L51.127 9.374V14H47.617V4.01H51.127V8.006L54.691 4.01H58.741L54.565 8.492L59.191 14H55.015ZM68.5366 10.076H72.2086C72.2086 11.588 71.3086 14.27 66.5026 14.27H65.6206C60.6346 14.27 59.6986 11.03 59.6986 9.14V8.888C59.6986 6.998 60.5806 3.74 65.6026 3.74H66.4306C71.2546 3.74 72.2086 6.368 72.2086 7.808V7.826H68.5366C68.4826 7.538 68.1406 6.296 66.0706 6.296H65.8906C63.8206 6.296 63.3346 7.718 63.3346 8.924V8.942C63.3346 10.184 63.9286 11.66 65.9626 11.66H66.1426C68.2306 11.66 68.5366 10.31 68.5366 10.076ZM74.5986 14V4.01H86.1546V14H82.6446V6.674H78.1086V14H74.5986ZM94.8794 6.08C93.0614 6.08 92.3774 6.818 92.1974 7.862H97.4894C97.4894 7.124 97.1294 6.08 94.8794 6.08ZM97.5614 10.886H101.215C101.215 11.714 100.567 14.234 95.4014 14.234H94.7354C89.8034 14.234 88.5794 11.534 88.5794 9.14V8.888C88.5794 6.638 89.6954 3.794 94.4294 3.794H95.2214C100.333 3.794 101.251 6.638 101.251 9.428V9.752H92.1614C92.3054 10.904 93.0434 11.84 95.1854 11.84C97.2194 11.84 97.4714 11.048 97.5614 10.886ZM112.835 9.014V8.96C112.835 7.88 112.331 6.422 110.135 6.422H109.955C107.849 6.422 107.183 7.808 107.183 8.96V9.014C107.183 10.112 107.849 11.552 109.955 11.552H110.135C112.331 11.552 112.835 10.04 112.835 9.014ZM103.691 17.438V4.01H107.165V5.288C107.597 4.82 108.911 3.812 111.179 3.812H111.413C115.229 3.812 116.471 6.422 116.471 8.798V9.104C116.471 11.282 115.193 14.198 111.395 14.198H111.143C108.857 14.198 107.633 13.154 107.201 12.722V17.438H103.691ZM121.775 14V6.674H117.905V4.01H129.155V6.674H125.285V14H121.775ZM136.263 14V4.01H144.975V6.674H139.773V14H136.263ZM153.144 14.27H152.586C147.204 14.27 146.376 10.994 146.376 9.176V8.924C146.376 7.124 147.204 3.74 152.568 3.74H153.162C158.706 3.74 159.354 7.142 159.354 8.906V9.194C159.354 10.994 158.706 14.27 153.144 14.27ZM152.766 11.642H152.964C155.178 11.642 155.736 10.058 155.736 8.96C155.736 7.826 155.178 6.314 152.964 6.314H152.766C150.462 6.314 149.994 7.826 149.994 8.96C149.994 10.058 150.462 11.642 152.766 11.642ZM160.677 16.124V11.336H161.883C162.567 9.968 162.675 6.998 162.765 4.01H173.331V11.336H175.131V16.124H171.801V14H164.007V16.124H160.677ZM165.195 11.336H169.821V6.674H165.915C165.861 7.97 165.681 9.95 165.195 11.336ZM181.936 12.002C183.988 12.002 184.69 10.706 184.69 9.95V9.176C184.384 9.302 183.502 9.482 182.494 9.644C180.802 9.932 180.262 10.166 180.262 10.868V10.904C180.262 11.534 180.712 12.002 181.936 12.002ZM184.798 12.614C184.366 13.136 183.286 14.198 180.946 14.198H180.658C177.868 14.198 176.716 12.686 176.716 11.03V10.958C176.716 9.23 177.814 8.168 181.198 7.88L183.934 7.646C184.492 7.592 184.69 7.412 184.69 6.998C184.69 6.53 184.546 6.026 182.602 6.026C180.766 6.026 180.586 6.746 180.586 7.124H176.986V7.088C176.986 6.098 177.382 3.776 182.296 3.776H182.854C187.804 3.776 188.11 5.81 188.11 7.142V10.436C188.11 11.066 188.236 11.318 188.938 11.318H189.316V14H186.472C185.428 14 184.942 13.262 184.798 12.614Z" fill="url(#paint2_radial_41_172)"/>
<path d="M7.70525 14.198H6.98525C1.29725 14.198 0.271248 11.48 0.271248 10.256V10.004H4.17725C4.26725 10.382 4.80725 11.21 7.38125 11.21C9.81125 11.21 10.7112 10.562 10.7112 9.554V9.446C10.7112 8.384 9.84725 7.844 7.38125 7.844C4.84325 7.844 4.28525 8.474 4.14125 8.888H0.469248V0.608H13.4652V3.65H4.14125V6.134C4.28525 5.99 5.50925 5.09 8.19125 5.09H8.37125C13.1412 5.09 14.4012 7.142 14.4012 9.248V9.464C14.4012 11.642 12.9792 14.198 7.70525 14.198ZM20.8078 10.508V14H16.6138V10.508H20.8078ZM45.064 6.998V7.538C45.064 10.274 43.444 14.198 37.324 14.198H36.496C30.808 14.198 29.008 11.264 29.008 8.816V8.762H32.824C32.878 9.194 33.328 11.21 36.892 11.21C39.412 11.21 40.672 9.968 41.104 8.636H35.002V5.792H41.104C40.672 4.442 39.43 3.38 36.91 3.38C33.382 3.38 32.878 5.36 32.824 5.738H29.008V5.702C29.008 3.164 30.88 0.409999 36.496 0.409999H37.324C43.444 0.409999 45.064 4.208 45.064 6.998ZM55.015 14L51.127 9.374V14H47.617V4.01H51.127V8.006L54.691 4.01H58.741L54.565 8.492L59.191 14H55.015ZM68.5366 10.076H72.2086C72.2086 11.588 71.3086 14.27 66.5026 14.27H65.6206C60.6346 14.27 59.6986 11.03 59.6986 9.14V8.888C59.6986 6.998 60.5806 3.74 65.6026 3.74H66.4306C71.2546 3.74 72.2086 6.368 72.2086 7.808V7.826H68.5366C68.4826 7.538 68.1406 6.296 66.0706 6.296H65.8906C63.8206 6.296 63.3346 7.718 63.3346 8.924V8.942C63.3346 10.184 63.9286 11.66 65.9626 11.66H66.1426C68.2306 11.66 68.5366 10.31 68.5366 10.076ZM74.5986 14V4.01H86.1546V14H82.6446V6.674H78.1086V14H74.5986ZM94.8794 6.08C93.0614 6.08 92.3774 6.818 92.1974 7.862H97.4894C97.4894 7.124 97.1294 6.08 94.8794 6.08ZM97.5614 10.886H101.215C101.215 11.714 100.567 14.234 95.4014 14.234H94.7354C89.8034 14.234 88.5794 11.534 88.5794 9.14V8.888C88.5794 6.638 89.6954 3.794 94.4294 3.794H95.2214C100.333 3.794 101.251 6.638 101.251 9.428V9.752H92.1614C92.3054 10.904 93.0434 11.84 95.1854 11.84C97.2194 11.84 97.4714 11.048 97.5614 10.886ZM112.835 9.014V8.96C112.835 7.88 112.331 6.422 110.135 6.422H109.955C107.849 6.422 107.183 7.808 107.183 8.96V9.014C107.183 10.112 107.849 11.552 109.955 11.552H110.135C112.331 11.552 112.835 10.04 112.835 9.014ZM103.691 17.438V4.01H107.165V5.288C107.597 4.82 108.911 3.812 111.179 3.812H111.413C115.229 3.812 116.471 6.422 116.471 8.798V9.104C116.471 11.282 115.193 14.198 111.395 14.198H111.143C108.857 14.198 107.633 13.154 107.201 12.722V17.438H103.691ZM121.775 14V6.674H117.905V4.01H129.155V6.674H125.285V14H121.775ZM136.263 14V4.01H144.975V6.674H139.773V14H136.263ZM153.144 14.27H152.586C147.204 14.27 146.376 10.994 146.376 9.176V8.924C146.376 7.124 147.204 3.74 152.568 3.74H153.162C158.706 3.74 159.354 7.142 159.354 8.906V9.194C159.354 10.994 158.706 14.27 153.144 14.27ZM152.766 11.642H152.964C155.178 11.642 155.736 10.058 155.736 8.96C155.736 7.826 155.178 6.314 152.964 6.314H152.766C150.462 6.314 149.994 7.826 149.994 8.96C149.994 10.058 150.462 11.642 152.766 11.642ZM160.677 16.124V11.336H161.883C162.567 9.968 162.675 6.998 162.765 4.01H173.331V11.336H175.131V16.124H171.801V14H164.007V16.124H160.677ZM165.195 11.336H169.821V6.674H165.915C165.861 7.97 165.681 9.95 165.195 11.336ZM181.936 12.002C183.988 12.002 184.69 10.706 184.69 9.95V9.176C184.384 9.302 183.502 9.482 182.494 9.644C180.802 9.932 180.262 10.166 180.262 10.868V10.904C180.262 11.534 180.712 12.002 181.936 12.002ZM184.798 12.614C184.366 13.136 183.286 14.198 180.946 14.198H180.658C177.868 14.198 176.716 12.686 176.716 11.03V10.958C176.716 9.23 177.814 8.168 181.198 7.88L183.934 7.646C184.492 7.592 184.69 7.412 184.69 6.998C184.69 6.53 184.546 6.026 182.602 6.026C180.766 6.026 180.586 6.746 180.586 7.124H176.986V7.088C176.986 6.098 177.382 3.776 182.296 3.776H182.854C187.804 3.776 188.11 5.81 188.11 7.142V10.436C188.11 11.066 188.236 11.318 188.938 11.318H189.316V14H186.472C185.428 14 184.942 13.262 184.798 12.614Z" fill="#C1A875" style="mix-blend-mode:color"/>
<defs>
<linearGradient id="paint0_linear_41_172" x1="1" y1="6" x2="190" y2="6.00001" gradientUnits="userSpaceOnUse">
<stop stop-color="#576167"/>
<stop offset="0.191294" stop-color="#9EA1A2"/>
<stop offset="0.396166" stop-color="#848989"/>
<stop offset="0.62055" stop-color="#576167"/>
<stop offset="0.830299" stop-color="#757A7C"/>
<stop offset="1" stop-color="#576167"/>
</linearGradient>
<radialGradient id="paint1_radial_41_172" cx="0" cy="0" r="1" gradientUnits="userSpaceOnUse" gradientTransform="translate(101.652 -3.20225) rotate(90) scale(17.8315 142.985)">
<stop stop-color="white"/>
<stop offset="1" stop-color="white" stop-opacity="0"/>
</radialGradient>
<radialGradient id="paint2_radial_41_172" cx="0" cy="0" r="1" gradientUnits="userSpaceOnUse" gradientTransform="translate(112.343 23.6629) rotate(-89.3216) scale(25.5524 204.45)">
<stop stop-color="white"/>
<stop offset="1" stop-color="white" stop-opacity="0"/>
</radialGradient>
</defs>
</svg>
