<svg width="316" height="18" viewBox="0 0 316 18" fill="none" xmlns="http://www.w3.org/2000/svg">
<path d="M8.81325 14.198H7.93125C1.77525 14.198 0.893248 10.022 0.893248 7.646V7.232C0.893248 5.144 1.86525 0.446 7.93125 0.446H8.47125C13.8892 0.446 14.9872 2.768 14.9872 4.496V4.514H11.3152C11.3152 4.316 11.0632 3.308 8.27325 3.308C5.03325 3.308 4.67325 5.612 4.67325 6.71V6.836C5.01525 6.548 6.16725 5.54 9.22725 5.54H9.62325C13.9612 5.54 15.4732 7.322 15.4732 9.356V9.662C15.4732 11.444 14.5012 14.198 8.81325 14.198ZM5.17725 9.662V9.752C5.17725 10.4 5.71725 11.354 8.39925 11.354C11.3152 11.354 11.6572 10.364 11.6572 9.77V9.662C11.6572 9.014 11.2252 8.15 8.39925 8.15C5.66325 8.15 5.17725 9.014 5.17725 9.662ZM21.8078 10.508V14H17.6138V10.508H21.8078ZM41.24 14V3.56H35.48C35.48 7.214 35.318 10.004 34.832 11.462C34.4 12.74 33.626 14 30.962 14H29.63V10.85H29.756C30.854 10.85 31.304 10.346 31.52 9.788C31.88 8.852 31.97 7.574 31.97 0.608H44.948V14H41.24ZM48.8097 17.438V14.936H51.0057C51.3477 14.936 51.5277 14.792 51.5277 14.522V14.504C51.5277 14.288 51.4737 14.09 51.2037 13.532L46.9197 4.01H50.7717L53.5437 11.174L56.2977 4.01H59.8257L55.2537 15.008C54.5517 16.646 53.6877 17.438 52.0317 17.438H48.8097ZM69.0224 4.01H72.5324V14H69.0224V10.562C68.2484 10.652 67.3484 10.742 66.4124 10.742C62.4524 10.742 60.9584 9.626 60.9584 6.458V4.01H64.4684V5.81C64.4684 7.682 65.0984 8.006 66.9524 8.006C67.6544 8.006 68.4644 7.952 69.0224 7.88V4.01ZM75.4404 14V4.01H78.9504V11.336H82.0464V4.01H85.5564V11.336H88.6524V4.01H92.1624V14H75.4404ZM103.499 7.952L98.6752 14H95.0752V4.01H98.5852V10.058L103.409 4.01H107.009V14H103.499V7.952ZM118.353 7.952L113.529 14H109.929V4.01H113.439V10.058L118.263 4.01H121.863V14H118.353V7.952ZM116.121 2.984H115.581C112.719 2.984 112.215 1.04 112.215 0.104V0.0499994H114.861C114.861 0.284 114.969 1.004 115.869 1.004C116.715 1.004 116.841 0.284 116.841 0.0499994H119.451V0.104C119.451 1.04 118.731 2.984 116.121 2.984ZM133.225 7.268V14H129.985V4.01H134.935L137.905 10.382L140.875 4.01H145.645V14H142.135V7.268L139.021 14H136.339L133.225 7.268ZM154.706 14.27H154.148C148.766 14.27 147.938 10.994 147.938 9.176V8.924C147.938 7.124 148.766 3.74 154.13 3.74H154.724C160.268 3.74 160.916 7.142 160.916 8.906V9.194C160.916 10.994 160.268 14.27 154.706 14.27ZM154.328 11.642H154.526C156.74 11.642 157.298 10.058 157.298 8.96C157.298 7.826 156.74 6.314 154.526 6.314H154.328C152.024 6.314 151.556 7.826 151.556 8.96C151.556 10.058 152.024 11.642 154.328 11.642ZM171.345 14V6.674H167.385C167.385 9.356 167.295 10.85 166.953 11.768C166.575 12.776 166.071 14 163.425 14H162.327V11.39H162.543C163.173 11.39 163.641 11.174 163.839 10.256C163.983 9.482 164.037 8.636 164.037 4.01H174.855V14H171.345ZM184.027 14.27H183.469C178.087 14.27 177.259 10.994 177.259 9.176V8.924C177.259 7.124 178.087 3.74 183.451 3.74H184.045C189.589 3.74 190.237 7.142 190.237 8.906V9.194C190.237 10.994 189.589 14.27 184.027 14.27ZM183.649 11.642H183.847C186.061 11.642 186.619 10.058 186.619 8.96C186.619 7.826 186.061 6.314 183.847 6.314H183.649C181.345 6.314 180.877 7.826 180.877 8.96C180.877 10.058 181.345 11.642 183.649 11.642ZM191.56 16.124V11.336H192.766C193.45 9.968 193.558 6.998 193.648 4.01H204.214V11.336H206.014V16.124H202.684V14H194.89V16.124H191.56ZM196.078 11.336H200.704V6.674H196.798C196.744 7.97 196.564 9.95 196.078 11.336ZM214.191 14.27H213.633C208.251 14.27 207.423 10.994 207.423 9.176V8.924C207.423 7.124 208.251 3.74 213.615 3.74H214.209C219.753 3.74 220.401 7.142 220.401 8.906V9.194C220.401 10.994 219.753 14.27 214.191 14.27ZM213.813 11.642H214.011C216.225 11.642 216.783 10.058 216.783 8.96C216.783 7.826 216.225 6.314 214.011 6.314H213.813C211.509 6.314 211.041 7.826 211.041 8.96C211.041 10.058 211.509 11.642 213.813 11.642ZM231.239 7.952L226.415 14H222.815V4.01H226.325V10.058L231.149 4.01H234.749V14H231.239V7.952ZM229.007 2.984H228.467C225.605 2.984 225.101 1.04 225.101 0.104V0.0499994H227.747C227.747 0.284 227.855 1.004 228.755 1.004C229.601 1.004 229.727 0.284 229.727 0.0499994H232.337V0.104C232.337 1.04 231.617 2.984 229.007 2.984ZM251.062 14V6.674H247.102C247.102 9.356 247.012 10.85 246.67 11.768C246.292 12.776 245.788 14 243.142 14H242.044V11.39H242.26C242.89 11.39 243.358 11.174 243.556 10.256C243.7 9.482 243.754 8.636 243.754 4.01H254.572V14H251.062ZM265.903 7.952L261.079 14H257.479V4.01H260.989V10.058L265.813 4.01H269.413V14H265.903V7.952ZM271.505 16.124V11.336H272.711C273.395 9.968 273.503 6.998 273.593 4.01H284.159V11.336H285.959V16.124H282.629V14H274.835V16.124H271.505ZM276.023 11.336H280.649V6.674H276.743C276.689 7.97 276.509 9.95 276.023 11.336ZM293.686 6.08C291.868 6.08 291.184 6.818 291.004 7.862H296.296C296.296 7.124 295.936 6.08 293.686 6.08ZM296.368 10.886H300.022C300.022 11.714 299.374 14.234 294.208 14.234H293.542C288.61 14.234 287.386 11.534 287.386 9.14V8.888C287.386 6.638 288.502 3.794 293.236 3.794H294.028C299.14 3.794 300.058 6.638 300.058 9.428V9.752H290.968C291.112 10.904 291.85 11.84 293.992 11.84C296.026 11.84 296.278 11.048 296.368 10.886ZM311.642 9.014V8.96C311.642 7.88 311.138 6.422 308.942 6.422H308.762C306.656 6.422 305.99 7.808 305.99 8.96V9.014C305.99 10.112 306.656 11.552 308.762 11.552H308.942C311.138 11.552 311.642 10.04 311.642 9.014ZM302.498 17.438V4.01H305.972V5.288C306.404 4.82 307.718 3.812 309.986 3.812H310.22C314.036 3.812 315.278 6.422 315.278 8.798V9.104C315.278 11.282 314 14.198 310.202 14.198H309.95C307.664 14.198 306.44 13.154 306.008 12.722V17.438H302.498Z" fill="url(#paint0_linear_41_176)"/>
<path d="M8.81325 14.198H7.93125C1.77525 14.198 0.893248 10.022 0.893248 7.646V7.232C0.893248 5.144 1.86525 0.446 7.93125 0.446H8.47125C13.8892 0.446 14.9872 2.768 14.9872 4.496V4.514H11.3152C11.3152 4.316 11.0632 3.308 8.27325 3.308C5.03325 3.308 4.67325 5.612 4.67325 6.71V6.836C5.01525 6.548 6.16725 5.54 9.22725 5.54H9.62325C13.9612 5.54 15.4732 7.322 15.4732 9.356V9.662C15.4732 11.444 14.5012 14.198 8.81325 14.198ZM5.17725 9.662V9.752C5.17725 10.4 5.71725 11.354 8.39925 11.354C11.3152 11.354 11.6572 10.364 11.6572 9.77V9.662C11.6572 9.014 11.2252 8.15 8.39925 8.15C5.66325 8.15 5.17725 9.014 5.17725 9.662ZM21.8078 10.508V14H17.6138V10.508H21.8078ZM41.24 14V3.56H35.48C35.48 7.214 35.318 10.004 34.832 11.462C34.4 12.74 33.626 14 30.962 14H29.63V10.85H29.756C30.854 10.85 31.304 10.346 31.52 9.788C31.88 8.852 31.97 7.574 31.97 0.608H44.948V14H41.24ZM48.8097 17.438V14.936H51.0057C51.3477 14.936 51.5277 14.792 51.5277 14.522V14.504C51.5277 14.288 51.4737 14.09 51.2037 13.532L46.9197 4.01H50.7717L53.5437 11.174L56.2977 4.01H59.8257L55.2537 15.008C54.5517 16.646 53.6877 17.438 52.0317 17.438H48.8097ZM69.0224 4.01H72.5324V14H69.0224V10.562C68.2484 10.652 67.3484 10.742 66.4124 10.742C62.4524 10.742 60.9584 9.626 60.9584 6.458V4.01H64.4684V5.81C64.4684 7.682 65.0984 8.006 66.9524 8.006C67.6544 8.006 68.4644 7.952 69.0224 7.88V4.01ZM75.4404 14V4.01H78.9504V11.336H82.0464V4.01H85.5564V11.336H88.6524V4.01H92.1624V14H75.4404ZM103.499 7.952L98.6752 14H95.0752V4.01H98.5852V10.058L103.409 4.01H107.009V14H103.499V7.952ZM118.353 7.952L113.529 14H109.929V4.01H113.439V10.058L118.263 4.01H121.863V14H118.353V7.952ZM116.121 2.984H115.581C112.719 2.984 112.215 1.04 112.215 0.104V0.0499994H114.861C114.861 0.284 114.969 1.004 115.869 1.004C116.715 1.004 116.841 0.284 116.841 0.0499994H119.451V0.104C119.451 1.04 118.731 2.984 116.121 2.984ZM133.225 7.268V14H129.985V4.01H134.935L137.905 10.382L140.875 4.01H145.645V14H142.135V7.268L139.021 14H136.339L133.225 7.268ZM154.706 14.27H154.148C148.766 14.27 147.938 10.994 147.938 9.176V8.924C147.938 7.124 148.766 3.74 154.13 3.74H154.724C160.268 3.74 160.916 7.142 160.916 8.906V9.194C160.916 10.994 160.268 14.27 154.706 14.27ZM154.328 11.642H154.526C156.74 11.642 157.298 10.058 157.298 8.96C157.298 7.826 156.74 6.314 154.526 6.314H154.328C152.024 6.314 151.556 7.826 151.556 8.96C151.556 10.058 152.024 11.642 154.328 11.642ZM171.345 14V6.674H167.385C167.385 9.356 167.295 10.85 166.953 11.768C166.575 12.776 166.071 14 163.425 14H162.327V11.39H162.543C163.173 11.39 163.641 11.174 163.839 10.256C163.983 9.482 164.037 8.636 164.037 4.01H174.855V14H171.345ZM184.027 14.27H183.469C178.087 14.27 177.259 10.994 177.259 9.176V8.924C177.259 7.124 178.087 3.74 183.451 3.74H184.045C189.589 3.74 190.237 7.142 190.237 8.906V9.194C190.237 10.994 189.589 14.27 184.027 14.27ZM183.649 11.642H183.847C186.061 11.642 186.619 10.058 186.619 8.96C186.619 7.826 186.061 6.314 183.847 6.314H183.649C181.345 6.314 180.877 7.826 180.877 8.96C180.877 10.058 181.345 11.642 183.649 11.642ZM191.56 16.124V11.336H192.766C193.45 9.968 193.558 6.998 193.648 4.01H204.214V11.336H206.014V16.124H202.684V14H194.89V16.124H191.56ZM196.078 11.336H200.704V6.674H196.798C196.744 7.97 196.564 9.95 196.078 11.336ZM214.191 14.27H213.633C208.251 14.27 207.423 10.994 207.423 9.176V8.924C207.423 7.124 208.251 3.74 213.615 3.74H214.209C219.753 3.74 220.401 7.142 220.401 8.906V9.194C220.401 10.994 219.753 14.27 214.191 14.27ZM213.813 11.642H214.011C216.225 11.642 216.783 10.058 216.783 8.96C216.783 7.826 216.225 6.314 214.011 6.314H213.813C211.509 6.314 211.041 7.826 211.041 8.96C211.041 10.058 211.509 11.642 213.813 11.642ZM231.239 7.952L226.415 14H222.815V4.01H226.325V10.058L231.149 4.01H234.749V14H231.239V7.952ZM229.007 2.984H228.467C225.605 2.984 225.101 1.04 225.101 0.104V0.0499994H227.747C227.747 0.284 227.855 1.004 228.755 1.004C229.601 1.004 229.727 0.284 229.727 0.0499994H232.337V0.104C232.337 1.04 231.617 2.984 229.007 2.984ZM251.062 14V6.674H247.102C247.102 9.356 247.012 10.85 246.67 11.768C246.292 12.776 245.788 14 243.142 14H242.044V11.39H242.26C242.89 11.39 243.358 11.174 243.556 10.256C243.7 9.482 243.754 8.636 243.754 4.01H254.572V14H251.062ZM265.903 7.952L261.079 14H257.479V4.01H260.989V10.058L265.813 4.01H269.413V14H265.903V7.952ZM271.505 16.124V11.336H272.711C273.395 9.968 273.503 6.998 273.593 4.01H284.159V11.336H285.959V16.124H282.629V14H274.835V16.124H271.505ZM276.023 11.336H280.649V6.674H276.743C276.689 7.97 276.509 9.95 276.023 11.336ZM293.686 6.08C291.868 6.08 291.184 6.818 291.004 7.862H296.296C296.296 7.124 295.936 6.08 293.686 6.08ZM296.368 10.886H300.022C300.022 11.714 299.374 14.234 294.208 14.234H293.542C288.61 14.234 287.386 11.534 287.386 9.14V8.888C287.386 6.638 288.502 3.794 293.236 3.794H294.028C299.14 3.794 300.058 6.638 300.058 9.428V9.752H290.968C291.112 10.904 291.85 11.84 293.992 11.84C296.026 11.84 296.278 11.048 296.368 10.886ZM311.642 9.014V8.96C311.642 7.88 311.138 6.422 308.942 6.422H308.762C306.656 6.422 305.99 7.808 305.99 8.96V9.014C305.99 10.112 306.656 11.552 308.762 11.552H308.942C311.138 11.552 311.642 10.04 311.642 9.014ZM302.498 17.438V4.01H305.972V5.288C306.404 4.82 307.718 3.812 309.986 3.812H310.22C314.036 3.812 315.278 6.422 315.278 8.798V9.104C315.278 11.282 314 14.198 310.202 14.198H309.95C307.664 14.198 306.44 13.154 306.008 12.722V17.438H302.498Z" fill="url(#paint1_radial_41_176)" style="mix-blend-mode:overlay"/>
<path d="M8.81325 14.198H7.93125C1.77525 14.198 0.893248 10.022 0.893248 7.646V7.232C0.893248 5.144 1.86525 0.446 7.93125 0.446H8.47125C13.8892 0.446 14.9872 2.768 14.9872 4.496V4.514H11.3152C11.3152 4.316 11.0632 3.308 8.27325 3.308C5.03325 3.308 4.67325 5.612 4.67325 6.71V6.836C5.01525 6.548 6.16725 5.54 9.22725 5.54H9.62325C13.9612 5.54 15.4732 7.322 15.4732 9.356V9.662C15.4732 11.444 14.5012 14.198 8.81325 14.198ZM5.17725 9.662V9.752C5.17725 10.4 5.71725 11.354 8.39925 11.354C11.3152 11.354 11.6572 10.364 11.6572 9.77V9.662C11.6572 9.014 11.2252 8.15 8.39925 8.15C5.66325 8.15 5.17725 9.014 5.17725 9.662ZM21.8078 10.508V14H17.6138V10.508H21.8078ZM41.24 14V3.56H35.48C35.48 7.214 35.318 10.004 34.832 11.462C34.4 12.74 33.626 14 30.962 14H29.63V10.85H29.756C30.854 10.85 31.304 10.346 31.52 9.788C31.88 8.852 31.97 7.574 31.97 0.608H44.948V14H41.24ZM48.8097 17.438V14.936H51.0057C51.3477 14.936 51.5277 14.792 51.5277 14.522V14.504C51.5277 14.288 51.4737 14.09 51.2037 13.532L46.9197 4.01H50.7717L53.5437 11.174L56.2977 4.01H59.8257L55.2537 15.008C54.5517 16.646 53.6877 17.438 52.0317 17.438H48.8097ZM69.0224 4.01H72.5324V14H69.0224V10.562C68.2484 10.652 67.3484 10.742 66.4124 10.742C62.4524 10.742 60.9584 9.626 60.9584 6.458V4.01H64.4684V5.81C64.4684 7.682 65.0984 8.006 66.9524 8.006C67.6544 8.006 68.4644 7.952 69.0224 7.88V4.01ZM75.4404 14V4.01H78.9504V11.336H82.0464V4.01H85.5564V11.336H88.6524V4.01H92.1624V14H75.4404ZM103.499 7.952L98.6752 14H95.0752V4.01H98.5852V10.058L103.409 4.01H107.009V14H103.499V7.952ZM118.353 7.952L113.529 14H109.929V4.01H113.439V10.058L118.263 4.01H121.863V14H118.353V7.952ZM116.121 2.984H115.581C112.719 2.984 112.215 1.04 112.215 0.104V0.0499994H114.861C114.861 0.284 114.969 1.004 115.869 1.004C116.715 1.004 116.841 0.284 116.841 0.0499994H119.451V0.104C119.451 1.04 118.731 2.984 116.121 2.984ZM133.225 7.268V14H129.985V4.01H134.935L137.905 10.382L140.875 4.01H145.645V14H142.135V7.268L139.021 14H136.339L133.225 7.268ZM154.706 14.27H154.148C148.766 14.27 147.938 10.994 147.938 9.176V8.924C147.938 7.124 148.766 3.74 154.13 3.74H154.724C160.268 3.74 160.916 7.142 160.916 8.906V9.194C160.916 10.994 160.268 14.27 154.706 14.27ZM154.328 11.642H154.526C156.74 11.642 157.298 10.058 157.298 8.96C157.298 7.826 156.74 6.314 154.526 6.314H154.328C152.024 6.314 151.556 7.826 151.556 8.96C151.556 10.058 152.024 11.642 154.328 11.642ZM171.345 14V6.674H167.385C167.385 9.356 167.295 10.85 166.953 11.768C166.575 12.776 166.071 14 163.425 14H162.327V11.39H162.543C163.173 11.39 163.641 11.174 163.839 10.256C163.983 9.482 164.037 8.636 164.037 4.01H174.855V14H171.345ZM184.027 14.27H183.469C178.087 14.27 177.259 10.994 177.259 9.176V8.924C177.259 7.124 178.087 3.74 183.451 3.74H184.045C189.589 3.74 190.237 7.142 190.237 8.906V9.194C190.237 10.994 189.589 14.27 184.027 14.27ZM183.649 11.642H183.847C186.061 11.642 186.619 10.058 186.619 8.96C186.619 7.826 186.061 6.314 183.847 6.314H183.649C181.345 6.314 180.877 7.826 180.877 8.96C180.877 10.058 181.345 11.642 183.649 11.642ZM191.56 16.124V11.336H192.766C193.45 9.968 193.558 6.998 193.648 4.01H204.214V11.336H206.014V16.124H202.684V14H194.89V16.124H191.56ZM196.078 11.336H200.704V6.674H196.798C196.744 7.97 196.564 9.95 196.078 11.336ZM214.191 14.27H213.633C208.251 14.27 207.423 10.994 207.423 9.176V8.924C207.423 7.124 208.251 3.74 213.615 3.74H214.209C219.753 3.74 220.401 7.142 220.401 8.906V9.194C220.401 10.994 219.753 14.27 214.191 14.27ZM213.813 11.642H214.011C216.225 11.642 216.783 10.058 216.783 8.96C216.783 7.826 216.225 6.314 214.011 6.314H213.813C211.509 6.314 211.041 7.826 211.041 8.96C211.041 10.058 211.509 11.642 213.813 11.642ZM231.239 7.952L226.415 14H222.815V4.01H226.325V10.058L231.149 4.01H234.749V14H231.239V7.952ZM229.007 2.984H228.467C225.605 2.984 225.101 1.04 225.101 0.104V0.0499994H227.747C227.747 0.284 227.855 1.004 228.755 1.004C229.601 1.004 229.727 0.284 229.727 0.0499994H232.337V0.104C232.337 1.04 231.617 2.984 229.007 2.984ZM251.062 14V6.674H247.102C247.102 9.356 247.012 10.85 246.67 11.768C246.292 12.776 245.788 14 243.142 14H242.044V11.39H242.26C242.89 11.39 243.358 11.174 243.556 10.256C243.7 9.482 243.754 8.636 243.754 4.01H254.572V14H251.062ZM265.903 7.952L261.079 14H257.479V4.01H260.989V10.058L265.813 4.01H269.413V14H265.903V7.952ZM271.505 16.124V11.336H272.711C273.395 9.968 273.503 6.998 273.593 4.01H284.159V11.336H285.959V16.124H282.629V14H274.835V16.124H271.505ZM276.023 11.336H280.649V6.674H276.743C276.689 7.97 276.509 9.95 276.023 11.336ZM293.686 6.08C291.868 6.08 291.184 6.818 291.004 7.862H296.296C296.296 7.124 295.936 6.08 293.686 6.08ZM296.368 10.886H300.022C300.022 11.714 299.374 14.234 294.208 14.234H293.542C288.61 14.234 287.386 11.534 287.386 9.14V8.888C287.386 6.638 288.502 3.794 293.236 3.794H294.028C299.14 3.794 300.058 6.638 300.058 9.428V9.752H290.968C291.112 10.904 291.85 11.84 293.992 11.84C296.026 11.84 296.278 11.048 296.368 10.886ZM311.642 9.014V8.96C311.642 7.88 311.138 6.422 308.942 6.422H308.762C306.656 6.422 305.99 7.808 305.99 8.96V9.014C305.99 10.112 306.656 11.552 308.762 11.552H308.942C311.138 11.552 311.642 10.04 311.642 9.014ZM302.498 17.438V4.01H305.972V5.288C306.404 4.82 307.718 3.812 309.986 3.812H310.22C314.036 3.812 315.278 6.422 315.278 8.798V9.104C315.278 11.282 314 14.198 310.202 14.198H309.95C307.664 14.198 306.44 13.154 306.008 12.722V17.438H302.498Z" fill="url(#paint2_radial_41_176)"/>
<path d="M8.81325 14.198H7.93125C1.77525 14.198 0.893248 10.022 0.893248 7.646V7.232C0.893248 5.144 1.86525 0.446 7.93125 0.446H8.47125C13.8892 0.446 14.9872 2.768 14.9872 4.496V4.514H11.3152C11.3152 4.316 11.0632 3.308 8.27325 3.308C5.03325 3.308 4.67325 5.612 4.67325 6.71V6.836C5.01525 6.548 6.16725 5.54 9.22725 5.54H9.62325C13.9612 5.54 15.4732 7.322 15.4732 9.356V9.662C15.4732 11.444 14.5012 14.198 8.81325 14.198ZM5.17725 9.662V9.752C5.17725 10.4 5.71725 11.354 8.39925 11.354C11.3152 11.354 11.6572 10.364 11.6572 9.77V9.662C11.6572 9.014 11.2252 8.15 8.39925 8.15C5.66325 8.15 5.17725 9.014 5.17725 9.662ZM21.8078 10.508V14H17.6138V10.508H21.8078ZM41.24 14V3.56H35.48C35.48 7.214 35.318 10.004 34.832 11.462C34.4 12.74 33.626 14 30.962 14H29.63V10.85H29.756C30.854 10.85 31.304 10.346 31.52 9.788C31.88 8.852 31.97 7.574 31.97 0.608H44.948V14H41.24ZM48.8097 17.438V14.936H51.0057C51.3477 14.936 51.5277 14.792 51.5277 14.522V14.504C51.5277 14.288 51.4737 14.09 51.2037 13.532L46.9197 4.01H50.7717L53.5437 11.174L56.2977 4.01H59.8257L55.2537 15.008C54.5517 16.646 53.6877 17.438 52.0317 17.438H48.8097ZM69.0224 4.01H72.5324V14H69.0224V10.562C68.2484 10.652 67.3484 10.742 66.4124 10.742C62.4524 10.742 60.9584 9.626 60.9584 6.458V4.01H64.4684V5.81C64.4684 7.682 65.0984 8.006 66.9524 8.006C67.6544 8.006 68.4644 7.952 69.0224 7.88V4.01ZM75.4404 14V4.01H78.9504V11.336H82.0464V4.01H85.5564V11.336H88.6524V4.01H92.1624V14H75.4404ZM103.499 7.952L98.6752 14H95.0752V4.01H98.5852V10.058L103.409 4.01H107.009V14H103.499V7.952ZM118.353 7.952L113.529 14H109.929V4.01H113.439V10.058L118.263 4.01H121.863V14H118.353V7.952ZM116.121 2.984H115.581C112.719 2.984 112.215 1.04 112.215 0.104V0.0499994H114.861C114.861 0.284 114.969 1.004 115.869 1.004C116.715 1.004 116.841 0.284 116.841 0.0499994H119.451V0.104C119.451 1.04 118.731 2.984 116.121 2.984ZM133.225 7.268V14H129.985V4.01H134.935L137.905 10.382L140.875 4.01H145.645V14H142.135V7.268L139.021 14H136.339L133.225 7.268ZM154.706 14.27H154.148C148.766 14.27 147.938 10.994 147.938 9.176V8.924C147.938 7.124 148.766 3.74 154.13 3.74H154.724C160.268 3.74 160.916 7.142 160.916 8.906V9.194C160.916 10.994 160.268 14.27 154.706 14.27ZM154.328 11.642H154.526C156.74 11.642 157.298 10.058 157.298 8.96C157.298 7.826 156.74 6.314 154.526 6.314H154.328C152.024 6.314 151.556 7.826 151.556 8.96C151.556 10.058 152.024 11.642 154.328 11.642ZM171.345 14V6.674H167.385C167.385 9.356 167.295 10.85 166.953 11.768C166.575 12.776 166.071 14 163.425 14H162.327V11.39H162.543C163.173 11.39 163.641 11.174 163.839 10.256C163.983 9.482 164.037 8.636 164.037 4.01H174.855V14H171.345ZM184.027 14.27H183.469C178.087 14.27 177.259 10.994 177.259 9.176V8.924C177.259 7.124 178.087 3.74 183.451 3.74H184.045C189.589 3.74 190.237 7.142 190.237 8.906V9.194C190.237 10.994 189.589 14.27 184.027 14.27ZM183.649 11.642H183.847C186.061 11.642 186.619 10.058 186.619 8.96C186.619 7.826 186.061 6.314 183.847 6.314H183.649C181.345 6.314 180.877 7.826 180.877 8.96C180.877 10.058 181.345 11.642 183.649 11.642ZM191.56 16.124V11.336H192.766C193.45 9.968 193.558 6.998 193.648 4.01H204.214V11.336H206.014V16.124H202.684V14H194.89V16.124H191.56ZM196.078 11.336H200.704V6.674H196.798C196.744 7.97 196.564 9.95 196.078 11.336ZM214.191 14.27H213.633C208.251 14.27 207.423 10.994 207.423 9.176V8.924C207.423 7.124 208.251 3.74 213.615 3.74H214.209C219.753 3.74 220.401 7.142 220.401 8.906V9.194C220.401 10.994 219.753 14.27 214.191 14.27ZM213.813 11.642H214.011C216.225 11.642 216.783 10.058 216.783 8.96C216.783 7.826 216.225 6.314 214.011 6.314H213.813C211.509 6.314 211.041 7.826 211.041 8.96C211.041 10.058 211.509 11.642 213.813 11.642ZM231.239 7.952L226.415 14H222.815V4.01H226.325V10.058L231.149 4.01H234.749V14H231.239V7.952ZM229.007 2.984H228.467C225.605 2.984 225.101 1.04 225.101 0.104V0.0499994H227.747C227.747 0.284 227.855 1.004 228.755 1.004C229.601 1.004 229.727 0.284 229.727 0.0499994H232.337V0.104C232.337 1.04 231.617 2.984 229.007 2.984ZM251.062 14V6.674H247.102C247.102 9.356 247.012 10.85 246.67 11.768C246.292 12.776 245.788 14 243.142 14H242.044V11.39H242.26C242.89 11.39 243.358 11.174 243.556 10.256C243.7 9.482 243.754 8.636 243.754 4.01H254.572V14H251.062ZM265.903 7.952L261.079 14H257.479V4.01H260.989V10.058L265.813 4.01H269.413V14H265.903V7.952ZM271.505 16.124V11.336H272.711C273.395 9.968 273.503 6.998 273.593 4.01H284.159V11.336H285.959V16.124H282.629V14H274.835V16.124H271.505ZM276.023 11.336H280.649V6.674H276.743C276.689 7.97 276.509 9.95 276.023 11.336ZM293.686 6.08C291.868 6.08 291.184 6.818 291.004 7.862H296.296C296.296 7.124 295.936 6.08 293.686 6.08ZM296.368 10.886H300.022C300.022 11.714 299.374 14.234 294.208 14.234H293.542C288.61 14.234 287.386 11.534 287.386 9.14V8.888C287.386 6.638 288.502 3.794 293.236 3.794H294.028C299.14 3.794 300.058 6.638 300.058 9.428V9.752H290.968C291.112 10.904 291.85 11.84 293.992 11.84C296.026 11.84 296.278 11.048 296.368 10.886ZM311.642 9.014V8.96C311.642 7.88 311.138 6.422 308.942 6.422H308.762C306.656 6.422 305.99 7.808 305.99 8.96V9.014C305.99 10.112 306.656 11.552 308.762 11.552H308.942C311.138 11.552 311.642 10.04 311.642 9.014ZM302.498 17.438V4.01H305.972V5.288C306.404 4.82 307.718 3.812 309.986 3.812H310.22C314.036 3.812 315.278 6.422 315.278 8.798V9.104C315.278 11.282 314 14.198 310.202 14.198H309.95C307.664 14.198 306.44 13.154 306.008 12.722V17.438H302.498Z" fill="#C1A875" style="mix-blend-mode:color"/>
<defs>
<linearGradient id="paint0_linear_41_176" x1="2" y1="6" x2="317" y2="6.00002" gradientUnits="userSpaceOnUse">
<stop stop-color="#576167"/>
<stop offset="0.191294" stop-color="#9EA1A2"/>
<stop offset="0.396166" stop-color="#848989"/>
<stop offset="0.62055" stop-color="#576167"/>
<stop offset="0.830299" stop-color="#757A7C"/>
<stop offset="1" stop-color="#576167"/>
</linearGradient>
<radialGradient id="paint1_radial_41_176" cx="0" cy="0" r="1" gradientUnits="userSpaceOnUse" gradientTransform="translate(169.753 -3.20225) rotate(90) scale(17.8315 238.308)">
<stop stop-color="white"/>
<stop offset="1" stop-color="white" stop-opacity="0"/>
</radialGradient>
<radialGradient id="paint2_radial_41_176" cx="0" cy="0" r="1" gradientUnits="userSpaceOnUse" gradientTransform="translate(187.571 23.6629) rotate(-88.8694) scale(25.5555 340.708)">
<stop stop-color="white"/>
<stop offset="1" stop-color="white" stop-opacity="0"/>
</radialGradient>
</defs>
</svg>
