<svg width="1651" height="1189" viewBox="0 0 1651 1189" fill="none" xmlns="http://www.w3.org/2000/svg">
<circle cx="1518.5" cy="736.5" r="120" stroke="url(#paint0_linear_2019_2)" stroke-width="25"/>
<circle cx="1518.5" cy="736.5" r="120" stroke="url(#paint1_radial_2019_2)" stroke-width="25" style="mix-blend-mode:overlay"/>
<circle cx="1518.5" cy="736.5" r="120" stroke="url(#paint2_radial_2019_2)" stroke-width="25"/>
<rect x="1145.5" y="221.5" width="169" height="185" stroke="url(#paint3_linear_2019_2)" stroke-width="25"/>
<rect x="1145.5" y="221.5" width="169" height="185" stroke="url(#paint4_radial_2019_2)" stroke-width="25" style="mix-blend-mode:overlay"/>
<rect x="1145.5" y="221.5" width="169" height="185" stroke="url(#paint5_radial_2019_2)" stroke-width="25"/>
<rect x="1145.5" y="221.5" width="169" height="185" stroke="#C1A875" stroke-width="25" style="mix-blend-mode:color"/>
<path d="M162.875 28.3245L169.786 33.9951L178.062 30.6136L191.084 25.2933L198.846 37.0244L203.779 44.4803L212.684 43.6885L226.695 42.4427L230.654 55.9404L233.17 64.5192L241.913 66.3874L255.669 69.3267L255.474 83.3918L255.35 92.3311L263.153 96.6932L275.432 103.557L271.099 116.939L268.346 125.445L274.517 131.913L284.227 142.091L276.142 153.602L271.004 160.918L274.995 168.918L281.273 181.506L270.155 190.122L263.088 195.599L264.544 204.42L266.833 218.299L253.669 223.256L245.302 226.406L244.092 235.264L242.189 249.201L228.149 250.057L219.225 250.602L215.459 258.709L209.532 271.466L195.863 268.146L187.175 266.036L181.186 272.673L171.763 283.117L159.68 275.915L152 271.338L144.32 275.915L132.237 283.117L122.814 272.673L116.825 266.036L108.137 268.146L94.4681 271.466L88.5414 258.709L84.7746 250.602L75.851 250.057L61.8107 249.201L59.9075 235.264L58.6979 226.406L50.3312 223.256L37.1671 218.299L39.4565 204.42L40.9115 195.599L33.8451 190.122L22.7269 181.506L29.0054 168.918L32.9958 160.918L27.8576 153.602L19.7731 142.091L29.483 131.913L35.6542 125.445L32.9007 116.939L28.5684 103.557L40.8467 96.6932L48.6504 92.3311L48.5263 83.3918L48.331 69.3267L62.0869 66.3874L70.8296 64.5192L73.346 55.9404L77.3051 42.4427L91.3162 43.6885L100.221 44.4803L105.154 37.0244L112.916 25.2933L125.938 30.6136L134.214 33.9951L141.125 28.3245L152 19.4024L162.875 28.3245Z" stroke="url(#paint6_linear_2019_2)" stroke-width="30"/>
<path d="M162.875 28.3245L169.786 33.9951L178.062 30.6136L191.084 25.2933L198.846 37.0244L203.779 44.4803L212.684 43.6885L226.695 42.4427L230.654 55.9404L233.17 64.5192L241.913 66.3874L255.669 69.3267L255.474 83.3918L255.35 92.3311L263.153 96.6932L275.432 103.557L271.099 116.939L268.346 125.445L274.517 131.913L284.227 142.091L276.142 153.602L271.004 160.918L274.995 168.918L281.273 181.506L270.155 190.122L263.088 195.599L264.544 204.42L266.833 218.299L253.669 223.256L245.302 226.406L244.092 235.264L242.189 249.201L228.149 250.057L219.225 250.602L215.459 258.709L209.532 271.466L195.863 268.146L187.175 266.036L181.186 272.673L171.763 283.117L159.68 275.915L152 271.338L144.32 275.915L132.237 283.117L122.814 272.673L116.825 266.036L108.137 268.146L94.4681 271.466L88.5414 258.709L84.7746 250.602L75.851 250.057L61.8107 249.201L59.9075 235.264L58.6979 226.406L50.3312 223.256L37.1671 218.299L39.4565 204.42L40.9115 195.599L33.8451 190.122L22.7269 181.506L29.0054 168.918L32.9958 160.918L27.8576 153.602L19.7731 142.091L29.483 131.913L35.6542 125.445L32.9007 116.939L28.5684 103.557L40.8467 96.6932L48.6504 92.3311L48.5263 83.3918L48.331 69.3267L62.0869 66.3874L70.8296 64.5192L73.346 55.9404L77.3051 42.4427L91.3162 43.6885L100.221 44.4803L105.154 37.0244L112.916 25.2933L125.938 30.6136L134.214 33.9951L141.125 28.3245L152 19.4024L162.875 28.3245Z" stroke="url(#paint7_radial_2019_2)" stroke-width="30" style="mix-blend-mode:overlay"/>
<path d="M162.875 28.3245L169.786 33.9951L178.062 30.6136L191.084 25.2933L198.846 37.0244L203.779 44.4803L212.684 43.6885L226.695 42.4427L230.654 55.9404L233.17 64.5192L241.913 66.3874L255.669 69.3267L255.474 83.3918L255.35 92.3311L263.153 96.6932L275.432 103.557L271.099 116.939L268.346 125.445L274.517 131.913L284.227 142.091L276.142 153.602L271.004 160.918L274.995 168.918L281.273 181.506L270.155 190.122L263.088 195.599L264.544 204.42L266.833 218.299L253.669 223.256L245.302 226.406L244.092 235.264L242.189 249.201L228.149 250.057L219.225 250.602L215.459 258.709L209.532 271.466L195.863 268.146L187.175 266.036L181.186 272.673L171.763 283.117L159.68 275.915L152 271.338L144.32 275.915L132.237 283.117L122.814 272.673L116.825 266.036L108.137 268.146L94.4681 271.466L88.5414 258.709L84.7746 250.602L75.851 250.057L61.8107 249.201L59.9075 235.264L58.6979 226.406L50.3312 223.256L37.1671 218.299L39.4565 204.42L40.9115 195.599L33.8451 190.122L22.7269 181.506L29.0054 168.918L32.9958 160.918L27.8576 153.602L19.7731 142.091L29.483 131.913L35.6542 125.445L32.9007 116.939L28.5684 103.557L40.8467 96.6932L48.6504 92.3311L48.5263 83.3918L48.331 69.3267L62.0869 66.3874L70.8296 64.5192L73.346 55.9404L77.3051 42.4427L91.3162 43.6885L100.221 44.4803L105.154 37.0244L112.916 25.2933L125.938 30.6136L134.214 33.9951L141.125 28.3245L152 19.4024L162.875 28.3245Z" stroke="url(#paint8_radial_2019_2)" stroke-width="30"/>
<path d="M616 691.345L215.018 911L616 1130.66L616 691.345Z" stroke="url(#paint9_linear_2019_2)" stroke-width="25"/>
<path d="M616 691.345L215.018 911L616 1130.66L616 691.345Z" stroke="url(#paint10_radial_2019_2)" stroke-width="25" style="mix-blend-mode:overlay"/>
<path d="M616 691.345L215.018 911L616 1130.66L616 691.345Z" stroke="url(#paint11_radial_2019_2)" stroke-width="25"/>
<path d="M616 691.345L215.018 911L616 1130.66L616 691.345Z" stroke="#C1A875" stroke-width="25" style="mix-blend-mode:color"/>
<defs>
<linearGradient id="paint0_linear_2019_2" x1="1386" y1="736.5" x2="1651" y2="736.5" gradientUnits="userSpaceOnUse">
<stop stop-color="#576167"/>
<stop offset="0.191294" stop-color="#9EA1A2"/>
<stop offset="0.396166" stop-color="#848989"/>
<stop offset="0.62055" stop-color="#576167"/>
<stop offset="0.830299" stop-color="#757A7C"/>
<stop offset="1" stop-color="#576167"/>
</linearGradient>
<radialGradient id="paint1_radial_2019_2" cx="0" cy="0" r="1" gradientUnits="userSpaceOnUse" gradientTransform="translate(1527.13 634.892) rotate(90) scale(196.889 200.481)">
<stop stop-color="white"/>
<stop offset="1" stop-color="white" stop-opacity="0"/>
</radialGradient>
<radialGradient id="paint2_radial_2019_2" cx="0" cy="0" r="1" gradientUnits="userSpaceOnUse" gradientTransform="translate(1542.12 931.528) rotate(-89.9138) scale(282.121 286.683)">
<stop stop-color="white"/>
<stop offset="1" stop-color="white" stop-opacity="0"/>
</radialGradient>
<linearGradient id="paint3_linear_2019_2" x1="1133" y1="314" x2="1327" y2="314" gradientUnits="userSpaceOnUse">
<stop stop-color="#576167"/>
<stop offset="0.191294" stop-color="#9EA1A2"/>
<stop offset="0.396166" stop-color="#848989"/>
<stop offset="0.62055" stop-color="#576167"/>
<stop offset="0.830299" stop-color="#757A7C"/>
<stop offset="1" stop-color="#576167"/>
</linearGradient>
<radialGradient id="paint4_radial_2019_2" cx="0" cy="0" r="1" gradientUnits="userSpaceOnUse" gradientTransform="translate(1236.31 233.48) rotate(90) scale(156.025 146.767)">
<stop stop-color="white"/>
<stop offset="1" stop-color="white" stop-opacity="0"/>
</radialGradient>
<radialGradient id="paint5_radial_2019_2" cx="0" cy="0" r="1" gradientUnits="userSpaceOnUse" gradientTransform="translate(1247.29 468.551) rotate(-89.9204) scale(223.568 209.874)">
<stop stop-color="white"/>
<stop offset="1" stop-color="white" stop-opacity="0"/>
</radialGradient>
<linearGradient id="paint6_linear_2019_2" x1="1.13249e-06" y1="152" x2="304" y2="152" gradientUnits="userSpaceOnUse">
<stop stop-color="#576167"/>
<stop offset="0.191294" stop-color="#9EA1A2"/>
<stop offset="0.396166" stop-color="#848989"/>
<stop offset="0.62055" stop-color="#576167"/>
<stop offset="0.830299" stop-color="#757A7C"/>
<stop offset="1" stop-color="#576167"/>
</linearGradient>
<radialGradient id="paint7_radial_2019_2" cx="0" cy="0" r="1" gradientUnits="userSpaceOnUse" gradientTransform="translate(161.895 35.4382) rotate(90) scale(225.865 229.986)">
<stop stop-color="white"/>
<stop offset="1" stop-color="white" stop-opacity="0"/>
</radialGradient>
<radialGradient id="paint8_radial_2019_2" cx="0" cy="0" r="1" gradientUnits="userSpaceOnUse" gradientTransform="translate(179.091 375.73) rotate(-89.9138) scale(323.641 328.874)">
<stop stop-color="white"/>
<stop offset="1" stop-color="white" stop-opacity="0"/>
</radialGradient>
<linearGradient id="paint9_linear_2019_2" x1="482" y1="633" x2="482" y2="1189" gradientUnits="userSpaceOnUse">
<stop stop-color="#576167"/>
<stop offset="0.191294" stop-color="#9EA1A2"/>
<stop offset="0.396166" stop-color="#848989"/>
<stop offset="0.62055" stop-color="#576167"/>
<stop offset="0.830299" stop-color="#757A7C"/>
<stop offset="1" stop-color="#576167"/>
</linearGradient>
<radialGradient id="paint10_radial_2019_2" cx="0" cy="0" r="1" gradientUnits="userSpaceOnUse" gradientTransform="translate(257.312 929.098) scale(435.385 420.632)">
<stop stop-color="white"/>
<stop offset="1" stop-color="white" stop-opacity="0"/>
</radialGradient>
<radialGradient id="paint11_radial_2019_2" cx="0" cy="0" r="1" gradientUnits="userSpaceOnUse" gradientTransform="translate(913.27 960.547) rotate(179.918) scale(623.86 601.493)">
<stop stop-color="white"/>
<stop offset="1" stop-color="white" stop-opacity="0"/>
</radialGradient>
</defs>
</svg>
